<svg viewBox="0 0 80 80" xmlns="http://www.w3.org/2000/svg" fill-rule="evenodd" clip-rule="evenodd" stroke-linejoin="round" stroke-miterlimit="2"><circle cx="291.927" cy="416.449" r="21.699" fill="#e2effa" transform="matrix(1.84342 0 0 1.84341 -498.142 -727.688)"/><path d="M74.262 19.357A39.787 39.787 0 0180 40c0 22.077-17.923 40-40 40a39.786 39.786 0 01-19.15-4.88V24.31a4.954 4.954 0 014.95-4.952h48.462z" fill="#a2adc6"/><path d="M79.897 37.113c.068.951.103 1.915.103 2.886 0 22.077-17.923 40-40 40a39.786 39.786 0 01-19.15-4.88V37.113h59.047z" fill="#fff"/><path d="M79.329 47.326C75.882 65.91 59.573 80 39.999 80c-3.035 0-5.992-.339-8.832-.98V47.326h48.162z" fill="#e2effa"/><path d="M34.902 24.47a3.649 3.649 0 010 7.295 3.649 3.649 0 010-7.295zm10.942 0a3.65 3.65 0 013.648 3.648 3.649 3.649 0 11-3.648-3.648zm10.943 0a3.649 3.649 0 11-3.648 3.648 3.65 3.65 0 013.648-3.648z" fill="#fff"/><path d="M65.684 59.613l-5.603 5.604-11.164-11.164-4.96 11.728-3.366-25.657 25.657 3.366-11.728 4.96 11.164 11.163z" fill="#2690e5"/></svg>