<svg viewBox="0 0 80 80" xmlns="http://www.w3.org/2000/svg" fill-rule="evenodd" clip-rule="evenodd" stroke-linejoin="round" stroke-miterlimit="2"><circle cx="291.927" cy="416.449" r="21.699" fill="#e2effa" transform="matrix(1.84342 0 0 1.84341 -498.142 -727.688)"/><path d="M65.394 35.222c0-.552-.45-1-1.001-1h-49.16a1 1 0 00-1 1v4a1 1 0 001 1h49.16c.551 0 1.001-.448 1.001-1v-4zM65.394 47.22c0-.551-.45-1-1.001-1h-49.16a1 1 0 00-1 1v4a1 1 0 001 1h49.16c.551 0 1.001-.448 1.001-1v-4zM45.686 59.222a1 1 0 00-1-1H15.231a1 1 0 00-1 1v4a1 1 0 001 1h29.453a1 1 0 001.001-1v-4z" fill="#fff"/><path d="M65.848 17.942c0-1.103-.898-2-2.002-2H16.232c-1.104 0-2 .897-2 2v8.28c0 1.104.896 2.001 2 2.001h47.614a2.003 2.003 0 002.002-2v-8.28z" fill="#a2adc6"/><path d="M48.686 21.08c0-.552-.449-1-1-1H34.959a1 1 0 00-1 1v2a1 1 0 001 1h12.727a1 1 0 001-1v-2zM31.959 21.08c0-.552-.449-1-1-1H18.232a1 1 0 00-1 1v2a1 1 0 001 1h12.727a1 1 0 001-1v-2z" fill="#fff"/><path d="M62.847 21.08a1 1 0 00-1-1H51.686a1 1 0 00-1 1v2a1 1 0 001 1h10.161a1 1 0 001-1v-2z" fill="#2690e5"/></svg>