<svg viewBox="0 0 80 80" xmlns="http://www.w3.org/2000/svg" fill-rule="evenodd" clip-rule="evenodd" stroke-linejoin="round" stroke-miterlimit="2"><circle cx="524.5" cy="433.5" r="38.5" fill="#e2effa" transform="translate(-504.935 -410.39) scale(1.03896)"/><path d="M60.201 51.704l-7.149 8.118-7.487 2.972-6.173-23.132 20.809 12.042zm-42.196-23.59l7.119-8.143 7.476-2.999 6.257 23.109-20.852-11.967z" fill="#9ed3fd"/><path d="M45.342 63.302l-10.795.697-7.398-3.185 11.97-20.734 6.223 23.222zm-12.469-46.82l10.795-.696 7.398 3.185-11.97 20.733-6.223-23.222z" fill="#2690e5"/><path d="M15.98 46.282l4.727 9.729 6.423 4.86 12.116-20.649-23.266 6.06zm35.556-27.458l8.065 7.208 2.918 7.508-23.176 6.005 12.193-20.721z" fill="#a2adc6"/><path d="M51.846 17.621c12.188 7.037 16.37 22.645 9.334 34.833-7.037 12.189-22.646 16.371-34.834 9.334-12.188-7.037-16.371-22.645-9.334-34.834 7.037-12.188 22.646-16.37 34.834-9.333zM43.67 61.972l-4.944-18.448-9.594 16.618a22.645 22.645 0 0014.538 1.83zm14.303-9.593l-16.577-9.571 4.942 18.445a22.647 22.647 0 0011.635-8.874zm-31.247 6.403l9.607-16.64-18.714 5.014a22.642 22.642 0 009.107 11.626zM61.421 35.42l-18.644 4.995 16.594 9.581a22.64 22.64 0 002.05-14.576zm-42.74-5.726a22.646 22.646 0 00-1.807 14.801l18.744-5.022-16.937-9.779zm33.133-8.838l-9.752 16.89 18.674-5.003a22.647 22.647 0 00-8.922-11.887zm-19.891-2.723a22.64 22.64 0 00-11.877 9.158L37 37.08l-5.077-18.947zm17.51 1.32a22.65 22.65 0 00-14.84-2.031l5.076 18.943 9.764-16.912z" fill="#fff"/><path d="M64.152 37.744c.531-.298 1.106-.519 1.756-.519a3.072 3.072 0 010 6.141c-.435 0-.849-.09-1.224-.254a3.975 3.975 0 01-.595-.297l-4.43-2.53c1.504-.839 3.089-1.75 4.493-2.54z" fill="#2690e5"/></svg>