<svg viewBox="0 0 80 80" xmlns="http://www.w3.org/2000/svg" fill-rule="evenodd" clip-rule="evenodd" stroke-linejoin="round" stroke-miterlimit="2"><circle cx="524.5" cy="433.5" r="38.5" fill="#e2effa" transform="translate(-504.935 -410.39) scale(1.03896)"/><ellipse cx="38.5" cy="55" rx="15.5" ry="3" fill="url(#_Radial1)" transform="matrix(1.64516 0 0 1.97849 -23.338 -46.081)"/><ellipse cx="38.5" cy="55" rx="15.5" ry="3" fill="url(#_Radial2)" transform="translate(-9.966 -9.987) scale(1.29783)"/><ellipse cx="38.5" cy="55" rx="15.5" ry="3" fill="url(#_Radial3)" transform="matrix(.82766 0 0 .65292 8.135 24.443)"/><path d="M26.865 37.184c-1.537-2.733-2.673-5.692-2.673-9.04 0-8.721 7.083-15.801 15.808-15.801s15.808 7.08 15.808 15.801c0 2.239-.467 4.37-1.309 6.301l-.002.004c-.582 1.377-.963 2.138-1.528 3.057L39.947 60.313c-4.32-7.74-9.014-15.899-13.082-23.129zm21.143.403a12.255 12.255 0 004.272-9.307C52.28 21.503 46.778 16 40 16s-12.28 5.503-12.28 12.28c0 3.719 1.657 7.054 4.272 9.307.597-.532 1.527-.993 2.686-1.343 1.254-.397 1.646-1.605 1.579-2.822-.387-.144-.783-.471-1.177-1.05-2.351-3.454-.194-2.711-.567-5.394a17.935 17.935 0 01-.047-.371c-.204-1.154-.181-2.087.011-2.841.423-2.65 2.164-3.984 5.073-4.308l.274-.02c.428-.021.582.272.791.642.135.24-.245-.523.954-.432 3.027.23 4.167 2.239 3.834 6.483l-.011.163c.006.175.006.354.002.538.129 2.235 1.798 2.408-.035 5.54-.447.762-.943 1.109-1.449 1.185.027 1.138.412 2.303 1.825 2.819h-.002c.968.33 1.75.743 2.275 1.211z" fill="#2690e5"/><defs><radialGradient id="_Radial1" cx="0" cy="0" r="1" gradientUnits="userSpaceOnUse" gradientTransform="matrix(15.5 0 0 3 38.5 55)"><stop offset="0" stop-color="#2690e5"/><stop offset="1" stop-color="#e2effa"/></radialGradient><radialGradient id="_Radial2" cx="0" cy="0" r="1" gradientUnits="userSpaceOnUse" gradientTransform="matrix(15.5 0 0 3 38.5 55)"><stop offset="0" stop-color="#2690e5"/><stop offset="1" stop-color="#e2effa"/></radialGradient><radialGradient id="_Radial3" cx="0" cy="0" r="1" gradientUnits="userSpaceOnUse" gradientTransform="matrix(15.5 0 0 3 38.5 55)"><stop offset="0" stop-color="#2690e5"/><stop offset="1" stop-color="#e2effa"/></radialGradient></defs></svg>