<svg viewBox="0 0 80 80" xmlns="http://www.w3.org/2000/svg" fill-rule="evenodd" clip-rule="evenodd" stroke-linejoin="round" stroke-miterlimit="2"><circle cx="524.5" cy="433.5" r="38.5" fill="#e2effa" transform="translate(-504.935 -410.39) scale(1.03896)"/><path d="M57.079 24.407a2.002 2.002 0 00-2.001-2.001H24.92c-1.104 0-2 .896-2 2.001v31.28a2 2 0 002 2h30.157a2.001 2.001 0 002.001-2v-31.28z" fill="#a2adc6"/><path d="M53.31 29.648a1 1 0 00-1.001-1H27.663a1 1 0 00-1 1v2.99a1 1 0 001 1H52.31a1 1 0 001-1v-2.99zM53.31 38.381a1 1 0 00-1.001-1H27.663a1 1 0 00-1 1v2.99a1 1 0 001 1H52.31a1 1 0 001-1v-2.99z" fill="#fff"/><path d="M53.31 47.114a1 1 0 00-1.001-1H27.663a1 1 0 00-1 1v2.99a1 1 0 001 1H52.31a1 1 0 001-1v-2.99z" fill="#2690e5"/></svg>