<svg viewBox="0 0 80 80" xmlns="http://www.w3.org/2000/svg" fill-rule="evenodd" clip-rule="evenodd" stroke-linejoin="round" stroke-miterlimit="2"><circle cx="291.927" cy="416.449" r="21.699" fill="#e2effa" transform="matrix(1.84342 0 0 1.84341 -498.142 -727.688)"/><path d="M65.394 32.22c0-.552-.45-1-1.001-1h-49.16a1 1 0 00-1 1v4a1 1 0 001 1h49.16c.551 0 1.001-.448 1.001-1v-4zM65.394 20.221c0-.551-.45-1-1.001-1h-49.16a1 1 0 00-1 1v4a1 1 0 001 1h49.16c.551 0 1.001-.447 1.001-1v-4zM65.394 44.221c0-.551-.45-1-1.001-1h-49.16a1 1 0 00-1 1v4a1 1 0 001 1h49.16c.551 0 1.001-.447 1.001-1v-4zM45.686 56.22a1 1 0 00-1-1H15.231a1 1 0 00-1 1v4a1 1 0 001 1h29.453a1 1 0 001.001-1v-4z" fill="#fff"/><path d="M71.38 63.941a1 1 0 00-1-1h-13c-.551 0-1 .448-1 1v2c0 .551.449 1 1 1h13c.552 0 1-.449 1-1v-2zm0-8a1 1 0 00-1-1h-13c-.551 0-1 .448-1 1v2c0 .551.449 1 1 1h13c.552 0 1-.449 1-1v-2zm0-8a1 1 0 00-1-1h-13c-.551 0-1 .448-1 1v2c0 .551.449 1 1 1h13c.552 0 1-.449 1-1v-2zm0-8a1 1 0 00-1-1h-13c-.551 0-1 .448-1 1v2c0 .551.449 1 1 1h13c.552 0 1-.449 1-1v-2z" fill="url(#_Linear1)" transform="matrix(1 0 0 1 0 .058)"/><path d="M58.381 40.942c0-1.103-.896-2-2-2H33c-1.104 0-2 .897-2 2v24.28a2 2 0 002 2h23.38c1.104 0 2-.895 2-2v-24.28z" fill="#a2adc6"/><path d="M55.36 44.941a1 1 0 00-1-1H35a1 1 0 00-1 1v2a1 1 0 001 1h19.36a1 1 0 001-1v-2zM55.36 51.94a1 1 0 00-1-1H35a1 1 0 00-1 1v2a1 1 0 001 1h19.36a1 1 0 001-1v-2z" fill="#fff"/><path d="M55.36 58.94a1 1 0 00-1-1H35a1 1 0 00-1 1v2a1 1 0 001 1h19.36a1 1 0 001-1v-2z" fill="#2690e5"/><defs><linearGradient id="_Linear1" x1="0" y1="0" x2="1" y2="0" gradientUnits="userSpaceOnUse" gradientTransform="matrix(15 0 0 28 56.38 52.94)"><stop offset="0" stop-color="#a8d3f5" stop-opacity=".5"/><stop offset="1" stop-color="#a8d3f5" stop-opacity="0"/></linearGradient></defs></svg>