<svg xmlns="http://www.w3.org/2000/svg" fill="none" viewBox="0 0 80 80"><path fill="#E2EFFA" d="M40 80a40 40 0 1 0 0-80 40 40 0 0 0 0 80Z"/><path fill="#fff" fill-rule="evenodd" d="M16.9 72.65c-.36-.25-.71-.51-1.06-.78V21.05c0-1.16.94-2.1 2.1-2.1h48.33c1.16 0 2.1.95 2.1 2.1V68.2c-.35.35-.7.7-1.06 1.03V21.06c0-.57-.47-1.04-1.04-1.04H17.94c-.57 0-1.04.46-1.04 1.04v51.6Z" clip-rule="evenodd"/><path fill="#fff" fill-rule="evenodd" d="M11.84 68.4V25.04c0-1.16.94-2.1 2.1-2.1h48.33c1.16 0 2.1.95 2.1 2.1v46.66A39.81 39.81 0 0 1 40 80a39.87 39.87 0 0 1-28.16-11.6Z" clip-rule="evenodd"/><path fill="#2690E5" d="M53.88 38.06c.4.4.6.89.6 1.46s-.2 1.06-.6 1.46L35.41 59.45c-.4.4-.89.6-1.46.6s-1.06-.2-1.46-.6l-10.7-10.7c-.4-.4-.6-.88-.6-1.46 0-.57.2-1.05.6-1.46l2.93-2.92c.4-.4.89-.6 1.46-.6s1.06.2 1.46.6l6.31 6.34 14.09-14.11c.4-.4.89-.6 1.46-.6s1.06.2 1.46.6l2.92 2.92Z"/></svg>
