<svg viewBox="0 0 80 80" xmlns="http://www.w3.org/2000/svg" fill-rule="evenodd" clip-rule="evenodd" stroke-linejoin="round" stroke-miterlimit="2"><circle cx="291.927" cy="416.449" r="21.699" fill="#e2effa" transform="matrix(1.84342 0 0 1.84341 -498.142 -727.688)"/><path d="M40 80zm-23.097-7.348c-.36-.255-.716-.516-1.067-.783V21.055c0-1.16.942-2.102 2.101-2.102h48.334c1.16 0 2.101.942 2.101 2.102v47.13a41.61 41.61 0 01-1.066 1.034V21.055c0-.57-.464-1.035-1.035-1.035H17.937c-.57 0-1.034.464-1.034 1.035v51.597z" fill="#fff"/><path d="M11.836 68.392V25.055c0-1.16.942-2.102 2.101-2.102h48.334c1.16 0 2.101.942 2.101 2.102V71.71A39.81 39.81 0 0140 80c-10.98 0-20.934-4.434-28.164-11.607z" fill="#fff"/><path d="M55.768 47.22a1 1 0 00-1-1H21.232a1 1 0 00-1 1v4a1 1 0 001 1h33.536a1 1 0 001-1v-4zm0-11a1 1 0 00-1-1H21.232a1 1 0 00-1 1v4a1 1 0 001 1h33.536a1 1 0 001-1v-4z" fill="#e2effa"/><path d="M42.08 58.221a1 1 0 00-1-1H21.232a1 1 0 00-1 1v4a1 1 0 001 1H41.08a1 1 0 001-1v-4z" fill="#2690e5"/></svg>