<?xml version="1.0" encoding="UTF-8" standalone="no"?>
<!-- Created with Inkscape (http://www.inkscape.org/) -->

<svg
   xmlns:dc="http://purl.org/dc/elements/1.1/"
   xmlns:cc="http://creativecommons.org/ns#"
   xmlns:rdf="http://www.w3.org/1999/02/22-rdf-syntax-ns#"
   xmlns:svg="http://www.w3.org/2000/svg"
   xmlns="http://www.w3.org/2000/svg"
   xmlns:sodipodi="http://sodipodi.sourceforge.net/DTD/sodipodi-0.dtd"
   xmlns:inkscape="http://www.inkscape.org/namespaces/inkscape"
   id="svg3764"
   version="1.1"
   inkscape:version="0.91 r13725"
   xml:space="preserve"
   width="218.27625"
   height="161.93124"
   viewBox="0 0 218.27625 161.93124"
   sodipodi:docname="partitore.svg"><metadata
     id="metadata3770"><rdf:RDF><cc:Work
         rdf:about=""><dc:format>image/svg+xml</dc:format><dc:type
           rdf:resource="http://purl.org/dc/dcmitype/StillImage" /><dc:title></dc:title></cc:Work></rdf:RDF></metadata><defs
     id="defs3768" /><sodipodi:namedview
     pagecolor="#ffffff"
     bordercolor="#666666"
     borderopacity="1"
     objecttolerance="10"
     gridtolerance="10"
     guidetolerance="10"
     inkscape:pageopacity="0"
     inkscape:pageshadow="2"
     inkscape:window-width="875"
     inkscape:window-height="592"
     id="namedview3766"
     showgrid="false"
     inkscape:zoom="1.4574087"
     inkscape:cx="109.13812"
     inkscape:cy="80.965622"
     inkscape:window-x="326"
     inkscape:window-y="1"
     inkscape:window-maximized="0"
     inkscape:current-layer="g3772" /><g
     id="g3772"
     inkscape:groupmode="layer"
     inkscape:label="partitore"
     transform="matrix(1.25,0,0,-1.25,0,161.93125)"><g
       id="g3774"
       transform="translate(31.103,30.133)"><g
         id="g3776"><g
           id="g3778"><path
             d="M 0,0 0,0.19925 M 0,0 0,30.61449 m 0,23.81143 0,30.6145 m 0,-30.6145 0,30.6145 m 0,-0.19925 0,0.19925 0,14.1734 85.04042,0 0,-0.19925 m 0,0.19925 -2e-5,-19.55932 m 0,-31.74839 2e-5,-19.55931 m 0,0.19925 0,-0.19925 0.19925,0 m -0.19925,0 28.3468,-1e-5 m 0,0 28.34682,1e-5 m -0.19925,0 0.19925,0 m -56.69362,0 0,-0.19925 m 0,0.19925 -2e-5,-12.47261 m 0,-31.74838 2e-5,-12.47261 m 0,0.19925 0,-0.19925 0.19925,0 m -0.19925,0 28.3468,1e-5 m 0,0 28.34682,-1e-5 m -0.19925,0 0.19925,0 m -56.69362,0 L 0,-28.3468 0,0"
             style="fill:none;stroke:#000000;stroke-width:0.3985;stroke-linecap:butt;stroke-linejoin:miter;stroke-miterlimit:10;stroke-dasharray:none;stroke-opacity:1"
             id="path3780"
             inkscape:connector-curvature="0" /><g
             id="g3782" /><g
             id="g3784" /><g
             id="g3786"><path
               d="m -11.90572,42.5202 c 0,6.57541 5.33031,11.90572 11.90572,11.90572 6.57541,0 11.90572,-5.33031 11.90572,-11.90572 0,-6.57542 -5.33031,-11.90571 -11.90572,-11.90571 -6.57541,0 -11.90572,5.33029 -11.90572,11.90571 z"
               style="fill:none;stroke:#000000;stroke-width:0.79699999;stroke-linecap:butt;stroke-linejoin:miter;stroke-miterlimit:10;stroke-dasharray:none;stroke-opacity:1"
               id="path3788"
               inkscape:connector-curvature="0" /><g
               id="g3790"
               transform="matrix(-1,0,0,1,3.874,35.016)"><g
                 id="g3792"
                 transform="translate(-34.977,-65.149)"><text
                   transform="matrix(1,0,0,-1,34.977,65.149)"
                   style="font-variant:normal;font-weight:normal;font-size:9.96259975px;font-family:CMSY10;-inkscape-font-specification:CMSY10;writing-mode:lr-tb;fill:#000000;fill-opacity:1;fill-rule:nonzero;stroke:none"
                   id="text3794"><tspan
                     x="0"
                     y="0"
                     id="tspan3796">−</tspan></text>
<g
                   id="g3798"
                   transform="translate(34.977,65.149)" /></g><g
                 id="g3800"
                 transform="translate(-3.874,-35.016)" /></g><g
               id="g3802"
               transform="matrix(-1,0,0,1,3.874,45.042)"><g
                 id="g3804"
                 transform="translate(-34.977,-75.175)"><text
                   transform="matrix(1,0,0,-1,34.977,75.175)"
                   style="font-variant:normal;font-weight:normal;font-size:9.96259975px;font-family:CMR10;-inkscape-font-specification:CMR10;writing-mode:lr-tb;fill:#000000;fill-opacity:1;fill-rule:nonzero;stroke:none"
                   id="text3806"><tspan
                     x="0"
                     y="0"
                     id="tspan3808">+</tspan></text>
<g
                   id="g3810"
                   transform="translate(34.977,75.175)" /></g><g
                 id="g3812"
                 transform="translate(-3.874,-45.042)" /></g><g
               id="g3814"
               transform="matrix(0,-1,-1,0,0,42.52)"><g
                 id="g3816" /><g
                 id="g3818"
                 transform="translate(0,-42.52)" /></g></g><g
             id="g3820" /><g
             id="g3822" /><g
             id="g3824" /><g
             id="g3826" /><g
             id="g3828" /><g
             id="g3830"><g
               id="g3832"
               transform="translate(-29.11,39.863)"><g
                 id="g3834"><g
                   id="g3836"
                   transform="translate(-1.993,-69.996)"><text
                     transform="matrix(1,0,0,-1,1.993,69.996)"
                     style="font-variant:normal;font-weight:normal;font-size:9.96259975px;font-family:CMMI10;-inkscape-font-specification:CMMI10;writing-mode:lr-tb;fill:#000000;fill-opacity:1;fill-rule:nonzero;stroke:none"
                     id="text3838"><tspan
                       x="0"
                       y="0"
                       id="tspan3840">V</tspan></text>
<text
                     transform="matrix(1,0,0,-1,7.804,68.501)"
                     style="font-variant:normal;font-weight:normal;font-size:6.97380018px;font-family:CMMI7;-inkscape-font-specification:CMMI7;writing-mode:lr-tb;fill:#000000;fill-opacity:1;fill-rule:nonzero;stroke:none"
                     id="text3842"><tspan
                       x="0"
                       y="0"
                       id="tspan3844">G</tspan></text>
<g
                     id="g3846"
                     transform="translate(1.993,69.996)" /></g></g><g
                 id="g3848"
                 transform="translate(29.11,-39.863)" /></g></g><g
             id="g3850"><g
               id="g3852"
               transform="matrix(0,1,-1,0,0,69.732)"><g
                 id="g3854" /><g
                 id="g3856"
                 transform="translate(0,-69.732)" /></g><g
               id="g3858"><g
                 id="g3860"><path
                   d="m 0,67.99695 1.98425,0 L 0,72.2135 -1.98425,67.99695 0,67.99695"
                   style="fill:#000000;fill-opacity:1;fill-rule:nonzero;stroke:#000000;stroke-width:0.3985;stroke-linecap:butt;stroke-linejoin:miter;stroke-miterlimit:10;stroke-dasharray:none;stroke-opacity:1"
                   id="path3862"
                   inkscape:connector-curvature="0" /></g></g></g><g
             id="g3864"><g
               id="g3866"
               transform="translate(-26.228,67.075)"><g
                 id="g3868"><g
                   id="g3870"
                   transform="translate(-4.875,-97.208)"><text
                     transform="matrix(1,0,0,-1,4.875,97.208)"
                     style="font-variant:normal;font-weight:normal;font-size:9.96259975px;font-family:CMMI10;-inkscape-font-specification:CMMI10;writing-mode:lr-tb;fill:#000000;fill-opacity:1;fill-rule:nonzero;stroke:none"
                     id="text3872"><tspan
                       x="0"
                       y="0"
                       id="tspan3874">I</tspan></text>
<text
                     transform="matrix(1,0,0,-1,9.254,95.714)"
                     style="font-variant:normal;font-weight:normal;font-size:6.97380018px;font-family:CMMI7;-inkscape-font-specification:CMMI7;writing-mode:lr-tb;fill:#000000;fill-opacity:1;fill-rule:nonzero;stroke:none"
                     id="text3876"><tspan
                       x="0 5.7798853 12.055608"
                       y="0"
                       sodipodi:role="line"
                       id="tspan3878">TOT</tspan></text>
<g
                     id="g3880"
                     transform="translate(4.875,97.208)" /></g></g><g
                 id="g3882"
                 transform="translate(26.228,-67.075)" /></g></g><g
             id="g3884" /><g
             id="g3886" /><g
             id="g3888"><path
               d="M 85.0404,80.05301 90.99326,76.97559 79.08755,71.61777 90.99326,66.25996 79.08755,60.90215 90.99326,55.54433 79.08755,50.18651 85.0404,47.5076"
               style="fill:none;stroke:#000000;stroke-width:0.79699999;stroke-linecap:butt;stroke-linejoin:bevel;stroke-miterlimit:10;stroke-dasharray:none;stroke-opacity:1"
               id="path3890"
               inkscape:connector-curvature="0" /><g
               id="g3892"
               transform="matrix(0,-1,1,0,85.039,63.779)"><g
                 id="g3894" /><g
                 id="g3896"
                 transform="translate(-85.039,-63.779)" /></g></g><g
             id="g3898" /><g
             id="g3900" /><g
             id="g3902"><g
               id="g3904"
               transform="translate(85.039,28.346)"><g
                 id="g3906" /><g
                 id="g3908"
                 transform="translate(-85.039,-28.346)" /></g><g
               id="g3910"><g
                 id="g3912"><path
                   d="m 86.62756,28.3468 c 0,0.87656 -0.71058,1.58714 -1.58714,1.58714 -0.87656,0 -1.58714,-0.71058 -1.58714,-1.58714 0,-0.87655 0.71058,-1.58714 1.58714,-1.58714 0.87656,0 1.58714,0.71059 1.58714,1.58714 z"
                   style="fill:#000000;fill-opacity:1;fill-rule:nonzero;stroke:#000000;stroke-width:0.3985;stroke-linecap:butt;stroke-linejoin:miter;stroke-miterlimit:10;stroke-dasharray:none;stroke-opacity:1"
                   id="path3914"
                   inkscape:connector-curvature="0" /></g></g></g><g
             id="g3916" /><g
             id="g3918"><g
               id="g3920"
               transform="translate(95.107,61.635)"><g
                 id="g3922"><g
                   id="g3924"
                   transform="translate(-126.21,-91.768)"><text
                     transform="matrix(1,0,0,-1,126.21,91.768)"
                     style="font-variant:normal;font-weight:normal;font-size:9.96259975px;font-family:CMMI10;-inkscape-font-specification:CMMI10;writing-mode:lr-tb;fill:#000000;fill-opacity:1;fill-rule:nonzero;stroke:none"
                     id="text3926"><tspan
                       x="0"
                       y="0"
                       id="tspan3928">R</tspan></text>
<text
                     transform="matrix(1,0,0,-1,133.774,90.273)"
                     style="font-variant:normal;font-weight:normal;font-size:6.97380018px;font-family:CMR7;-inkscape-font-specification:CMR7;writing-mode:lr-tb;fill:#000000;fill-opacity:1;fill-rule:nonzero;stroke:none"
                     id="text3930"><tspan
                       x="0"
                       y="0"
                       id="tspan3932">1</tspan></text>
<g
                     id="g3934"
                     transform="translate(126.21,91.768)" /></g></g><g
                 id="g3936"
                 transform="translate(-95.107,-61.635)" /></g></g><g
             id="g3938" /><g
             id="g3940" /><g
             id="g3942"><g
               id="g3944"
               transform="translate(113.385,28.346)"><g
                 id="g3946" /><g
                 id="g3948"
                 transform="translate(-113.385,-28.346)" /></g></g><g
             id="g3950" /><g
             id="g3952" /><g
             id="g3954"><g
               id="g3956"
               transform="translate(141.732,28.346)"><g
                 id="g3958" /><g
                 id="g3960"
                 transform="translate(-141.732,-28.346)" /></g><g
               id="g3962"><g
                 id="g3964"><path
                   d="m 143.32118,28.3468 c 0,0.87656 -0.71058,1.58714 -1.58714,1.58714 -0.87656,0 -1.58714,-0.71058 -1.58714,-1.58714 0,-0.87655 0.71058,-1.58714 1.58714,-1.58714 0.87656,0 1.58714,0.71059 1.58714,1.58714 z"
                   style="fill:#ffffff;fill-opacity:1;fill-rule:nonzero;stroke:#000000;stroke-width:0.3985;stroke-linecap:butt;stroke-linejoin:miter;stroke-miterlimit:10;stroke-dasharray:none;stroke-opacity:1"
                   id="path3966"
                   inkscape:connector-curvature="0" /></g></g></g><g
             id="g3968" /><g
             id="g3970" /><g
             id="g3972"><path
               d="M 85.0404,16.27269 90.99326,13.19528 79.08755,7.83746 90.99326,2.47964 79.08755,-2.87816 90.99326,-8.23596 79.08755,-13.59378 85.0404,-16.27269"
               style="fill:none;stroke:#000000;stroke-width:0.79699999;stroke-linecap:butt;stroke-linejoin:bevel;stroke-miterlimit:10;stroke-dasharray:none;stroke-opacity:1"
               id="path3974"
               inkscape:connector-curvature="0" /><g
               id="g3976"
               transform="matrix(0,-1,1,0,85.039,0)"><g
                 id="g3978" /><g
                 id="g3980"
                 transform="translate(-85.039,0)" /></g></g><g
             id="g3982" /><g
             id="g3984" /><g
             id="g3986"><g
               id="g3988"
               transform="translate(85.039,-28.347)"><g
                 id="g3990" /><g
                 id="g3992"
                 transform="translate(-85.039,28.347)" /></g><g
               id="g3994"><g
                 id="g3996"><path
                   d="m 86.62756,-28.3468 c 0,0.87655 -0.71058,1.58714 -1.58714,1.58714 -0.87656,0 -1.58714,-0.71059 -1.58714,-1.58714 0,-0.87656 0.71058,-1.58714 1.58714,-1.58714 0.87656,0 1.58714,0.71058 1.58714,1.58714 z"
                   style="fill:#000000;fill-opacity:1;fill-rule:nonzero;stroke:#000000;stroke-width:0.3985;stroke-linecap:butt;stroke-linejoin:miter;stroke-miterlimit:10;stroke-dasharray:none;stroke-opacity:1"
                   id="path3998"
                   inkscape:connector-curvature="0" /></g></g></g><g
             id="g4000" /><g
             id="g4002"><g
               id="g4004"
               transform="translate(95.107,-2.145)"><g
                 id="g4006"><g
                   id="g4008"
                   transform="translate(-126.21,-27.988)"><text
                     transform="matrix(1,0,0,-1,126.21,27.988)"
                     style="font-variant:normal;font-weight:normal;font-size:9.96259975px;font-family:CMMI10;-inkscape-font-specification:CMMI10;writing-mode:lr-tb;fill:#000000;fill-opacity:1;fill-rule:nonzero;stroke:none"
                     id="text4010"><tspan
                       x="0"
                       y="0"
                       id="tspan4012">R</tspan></text>
<text
                     transform="matrix(1,0,0,-1,133.774,26.494)"
                     style="font-variant:normal;font-weight:normal;font-size:6.97380018px;font-family:CMR7;-inkscape-font-specification:CMR7;writing-mode:lr-tb;fill:#000000;fill-opacity:1;fill-rule:nonzero;stroke:none"
                     id="text4014"><tspan
                       x="0"
                       y="0"
                       id="tspan4016">2</tspan></text>
<g
                     id="g4018"
                     transform="translate(126.21,27.988)" /></g></g><g
                 id="g4020"
                 transform="translate(-95.107,2.145)" /></g></g><g
             id="g4022" /><g
             id="g4024" /><g
             id="g4026"><g
               id="g4028"
               transform="translate(113.385,-28.347)"><g
                 id="g4030" /><g
                 id="g4032"
                 transform="translate(-113.385,28.347)" /></g></g><g
             id="g4034" /><g
             id="g4036" /><g
             id="g4038"><g
               id="g4040"
               transform="translate(141.732,-28.347)"><g
                 id="g4042" /><g
                 id="g4044"
                 transform="translate(-141.732,28.347)" /></g><g
               id="g4046"><g
                 id="g4048"><path
                   d="m 143.32118,-28.3468 c 0,0.87655 -0.71058,1.58714 -1.58714,1.58714 -0.87656,0 -1.58714,-0.71059 -1.58714,-1.58714 0,-0.87656 0.71058,-1.58714 1.58714,-1.58714 0.87656,0 1.58714,0.71058 1.58714,1.58714 z"
                   style="fill:#ffffff;fill-opacity:1;fill-rule:nonzero;stroke:#000000;stroke-width:0.3985;stroke-linecap:butt;stroke-linejoin:miter;stroke-miterlimit:10;stroke-dasharray:none;stroke-opacity:1"
                   id="path4050"
                   inkscape:connector-curvature="0" /></g></g></g></g></g></g></g></svg>