<?xml version="1.0" encoding="UTF-8"?>
<svg width="280mm" height="147mm" version="1.1" xmlns="http://www.w3.org/2000/svg">
 <defs>
  <pattern id="small-pin-pattern" width="2.5" height="4.6" patternUnits="userSpaceOnUse">
   <path d="m1.4 1.32c0-0.138-0.0547-0.271-0.153-0.37-0.098-0.0965-0.23-0.153-0.368-0.153h-0.432c-0.138 0-0.271 0.0563-0.37 0.153-0.098 0.098-0.153 0.231-0.153 0.37v1.81h1.47z" fill="#f5f9f0" stroke-width="1.61"/>
  </pattern>
 </defs>
 <!-- Board -->
 <!-- Pins -->
 <!-- ESP32 Chip -->
 <!-- Regulator -->
 <!-- Buttons -->
 <!-- USB Connection -->
 <!-- LEDs -->
 <!-- Small Chip-->
 <!-- Texts -->
 <!-- Antenna -->
 <g transform="rotate(90 226.72 450.05)">
  <rect transform="rotate(-90)" x="-676.77" y="-223.33" width="1058.3" height="555.59" style="paint-order:stroke markers fill"/>
  <g transform="matrix(4.1372 0 0 4.1372 -166.09 -266.56)">
   <g fill-rule="evenodd">
    <path d="m7.56 0c-4.19 0-7.56 3.37-7.56 7.56v181c0 4.19 3.37 7.56 7.56 7.56h91.5c4.19 0 7.56-3.37 7.56-7.56v-181c0-4.19-3.37-7.56-7.56-7.56zm1.11 2.5a6.24 6.24 0 0 1 6.24 6.24 6.24 6.24 0 0 1-6.24 6.24 6.24 6.24 0 0 1-6.24-6.24 6.24 6.24 0 0 1 6.24-6.24zm88.9 0.217a6.24 6.24 0 0 1 6.24 6.24 6.24 6.24 0 0 1-6.24 6.24 6.24 6.24 0 0 1-6.24-6.24 6.24 6.24 0 0 1 6.24-6.24zm-88.9 176a6.24 6.24 0 0 1 0.141 0 6.24 6.24 0 0 1 6.24 6.24 6.24 6.24 0 0 1-6.24 6.24 6.24 6.24 0 0 1-6.24-6.24 6.24 6.24 0 0 1 6.1-6.24zm88.7 0.217a6.24 6.24 0 0 1 0.0019 0 6.24 6.24 0 0 1 0.139 0 6.24 6.24 0 0 1 6.24 6.24 6.24 6.24 0 0 1-6.24 6.24 6.24 6.24 0 0 1-6.24-6.24 6.24 6.24 0 0 1 6.1-6.24z" fill="#333" stroke="#4d4d4d"/>
    <rect x="20" y="24.8" width="65.6" height="73.3" fill="#1a1a1a"/>
    <g fill="#ececec">
     <rect x="19.3" y="143" width="7.21" height="11.5"/>
     <rect x="39.8" y="139" width="6.59" height="3.07"/>
     <rect x="40" y="147" width="6.59" height="3.07"/>
     <rect x="40.2" y="156" width="6.59" height="3.07"/>
    </g>
    <rect x="26.3" y="137" width="14" height="24.7" fill="#4d4d4d"/>
   </g>
   <g transform="translate(-2)" stroke-width="1.24">
    <rect x="77.6" y="177" width="11.1" height="9.96" fill="#cecccb"/>
    <circle cx="83.2" cy="182" r="3.48" fill="#ffdc8e"/>
    <g fill="#cecccb">
     <path d="m80.7 190h-1.34v1.64c0 0.734 0.595 1.33 1.33 1.33h0.0099z"/>
     <path d="m80.7 175h-1.34v-1.64c0-0.734 0.595-1.33 1.33-1.33h0.0099z"/>
     <rect x="81" y="190" width="5.23" height="2.59"/>
     <rect x="81" y="173" width="5.23" height="2.59"/>
     <path d="m84.5 175c0.062 0 0.122 0.0248 0.166 0.0682 0.0434 0.0446 0.0682 0.104 0.0682 0.167 0 0.134 0.0533 0.263 0.149 0.358 0.0955 0.0942 0.224 0.148 0.358 0.148h0.0236c0.141 0 0.277-0.0558 0.376-0.155s0.155-0.234 0.155-0.374v-0.564h2.16v3.09h-1.69v0.744h-2.16v-0.392h-1.87v0.392h-2.16v-0.744h-1.69v-3.09h2.16v0.564c0 0.14 0.0558 0.275 0.155 0.374s0.234 0.155 0.376 0.155h0.0236c0.135 0 0.263-0.0533 0.358-0.148 0.0955-0.0955 0.149-0.224 0.149-0.358 0-0.0632 0.0248-0.123 0.0682-0.167 0.0446-0.0434 0.104-0.0682 0.167-0.0682z"/>
     <path d="m81.8 190c-0.0632 0-0.123-0.0248-0.167-0.0694-0.0434-0.0434-0.0682-0.103-0.0682-0.166 0-0.134-0.0533-0.263-0.149-0.358-0.0955-0.0955-0.223-0.149-0.358-0.149h-0.0236c-0.141 0-0.277 0.0558-0.376 0.156-0.0992 0.0992-0.155 0.234-0.155 0.374v0.564h-2.16v-3.09h1.69v-0.745h2.16v0.393h1.87v-0.393h2.16v0.745h1.69v3.09h-2.16v-0.564c0-0.14-0.0558-0.275-0.155-0.374-0.0992-0.1-0.234-0.156-0.376-0.156h-0.0236c-0.134 0-0.263 0.0533-0.358 0.149s-0.149 0.224-0.149 0.358c0 0.0632-0.0248 0.123-0.0682 0.166-0.0446 0.0446-0.104 0.0694-0.166 0.0694z"/>
    </g>
   </g>
   <g transform="translate(2,2)" stroke-width="1.24">
    <rect x="17.7" y="177" width="11.1" height="9.96" fill="#cecccb"/>
    <circle cx="23.3" cy="182" r="3.48" fill="#ffdc8e"/>
    <g fill="#cecccb">
     <path d="m20.8 189h-1.34v1.64c0 0.734 0.595 1.33 1.33 1.33h0.0099z"/>
     <path d="m20.8 175h-1.34v-1.64c0-0.734 0.595-1.33 1.33-1.33h0.0099z"/>
     <rect x="21" y="189" width="5.23" height="2.59"/>
     <rect x="21" y="172" width="5.23" height="2.59"/>
     <path d="m24.5 175c0.062 0 0.122 0.0248 0.166 0.0682 0.0434 0.0446 0.0682 0.104 0.0682 0.167 0 0.134 0.0533 0.263 0.149 0.358 0.0955 0.0942 0.224 0.148 0.358 0.148h0.0236c0.141 0 0.277-0.0558 0.376-0.155s0.155-0.234 0.155-0.374v-0.564h2.16v3.09h-1.69v0.744h-2.16v-0.392h-1.87v0.392h-2.16v-0.744h-1.69v-3.09h2.16v0.564c0 0.14 0.0558 0.275 0.155 0.374s0.234 0.155 0.376 0.155h0.0236c0.135 0 0.263-0.0533 0.358-0.148 0.0955-0.0955 0.149-0.224 0.149-0.358 0-0.0632 0.0248-0.123 0.0682-0.167 0.0446-0.0434 0.104-0.0682 0.167-0.0682z"/>
     <path d="m21.9 189c-0.0632 0-0.123-0.0248-0.167-0.0694-0.0434-0.0434-0.0682-0.103-0.0682-0.166 0-0.134-0.0533-0.263-0.149-0.358-0.0955-0.0955-0.223-0.149-0.358-0.149h-0.0236c-0.141 0-0.277 0.0558-0.376 0.156-0.0992 0.0992-0.155 0.234-0.155 0.374v0.564h-2.16v-3.09h1.69v-0.745h2.16v0.393h1.87v-0.393h2.16v0.745h1.69v3.09h-2.16v-0.564c0-0.14-0.0558-0.275-0.155-0.374-0.0992-0.1-0.234-0.156-0.376-0.156h-0.0236c-0.134 0-0.263 0.0533-0.358 0.149s-0.149 0.224-0.149 0.358c0 0.0632-0.0248 0.123-0.0682 0.166-0.0446 0.0446-0.104 0.0694-0.166 0.0694z"/>
    </g>
   </g>
   <path d="m66.4 197 1.06 2.24c0.0651 0.142 0.0731 0.302 0.0207 0.448-0.0525 0.147-0.16 0.266-0.301 0.332-0.14 0.0665-0.302 0.0744-0.448 0.022-0.146-0.0525-0.266-0.16-0.332-0.301l-0.724-1.54-3e-3 0.207c-6e-3 0.488-0.206 0.955-0.556 1.3-0.35 0.342-0.821 0.529-1.31 0.522l-22.2-0.29c-0.489-6e-3 -0.955-0.206-1.3-0.556-0.341-0.35-0.529-0.821-0.522-1.31l3e-3 -0.207-0.764 1.52c-0.0701 0.14-0.192 0.244-0.34 0.292-0.147 0.0486-0.307 0.0365-0.446-0.0336l-1e-3 -1e-5c-0.138-0.0701-0.244-0.192-0.292-0.34-0.0486-0.147-0.0365-0.307 0.0336-0.447l1.11-2.21-0.602-8e-3 0.269-20.6 28.2 0.369-0.269 20.6z" fill="#cecccb" stroke-width="1.26"/>
   <path d="m60.7 177-0.0236 1.8c-7.9e-4 0.0607 0.0301 0.116 0.0802 0.148 0.522 0.329 3.38 2.12 3.38 2.12l-0.0217 1.66-1.74-0.0227-0.0156 1.19-2.63-0.0344 0.0156-1.19-1.66-0.0217 0.0413-3.16c2e-3 -0.136-0.0496-0.265-0.143-0.361-0.0948-0.096-0.223-0.151-0.357-0.152l-1.58-0.0207-0.0172 1.31-6.46-0.0845 0.0172-1.31-1.58-0.0207c-0.134-2e-3 -0.264 0.0496-0.36 0.143-0.0973 0.0936-0.152 0.221-0.154 0.357l-0.0413 3.16-1.66-0.0217-0.0156 1.19-2.63-0.0344 0.0156-1.19-1.74-0.0228 0.0217-1.66s2.91-1.73 3.43-2.03c0.0522-0.0309 0.0833-0.0848 0.0841-0.146l0.0236-1.8z" fill="#989898" stroke-width="1.26"/>
   <g stroke-width="1.44">
    <rect x="35" y="108" width="3.83" height="9.3" fill="#e5e5e5"/>
    <rect x="35" y="110" width="3.83" height="5.31" fill="#f5ecde"/>
    <rect x="69.5" y="108" width="3.83" height="9.3" fill="#e5e5e5"/>
    <rect x="69.5" y="110" width="3.83" height="5.31" fill="#f5ecde"/>
   </g>
   <g fill="url(#small-pin-pattern)">
    <rect transform="translate(69,137)" width="13.9" height="3"/>
    <rect transform="rotate(180,41.4,80.25)" width="13.9" height="3"/>
    <rect transform="rotate(90,-27.4,114.6)" width="13.9" height="3"/>
    <rect transform="rotate(-90,109.9,45.9)" width="13.9" height="3"/>
   </g>
   <rect x="66.9" y="140" width="17.4" height="17.4" fill="#333" stroke-width="1.61"/>
   <text transform="rotate(-90)" x="-84.604759" y="44.241776" fill="#cccccc" font-family="sans-serif" font-size="15px">ESP32</text>
   <path d="m24.3 22.1v-18.8h8v11.5h10.2v-11h8.5v10.5h10v-10.5h17.8v20.2" fill="none" stroke="#6f6352" stroke-width="1px"/>
   <path d="m69.7 4.16v19.5" fill="none" stroke="#6f6352" stroke-width="1px"/>
   <g transform="matrix(0 -1.4971 1.4971 0 -5.7862 82.556)" fill="#be1313">
    <g fill="#be1313">
     <g transform="matrix(3.8052 0 0 3.8052 -48.836 -277.86)" fill="#be1313" stroke-width=".26458">
      <path class="cls-1" d="m15.481 86.507a0.39158 0.39158 0 1 1-0.39158-0.39158 0.39158 0.39158 0 0 1 0.39158 0.39158"/>
      <path class="cls-1" d="m18.897 86.099a4.0587 4.0587 0 0 0-3.4396-3.4396 2.5744 2.5744 0 0 0-0.56885 0.4101v0.37835a3.2226 3.2226 0 0 1 3.22 3.2173h0.37835a2.712 2.712 0 0 0 0.4101-0.56621"/>
      <path class="cls-1" d="m19.203 84.911a2.5453 2.5453 0 0 0-2.5585-2.5453c-0.08996 0-0.17727 0-0.26458 0.01323l-0.05821 0.16933a4.3789 4.3789 0 0 1 2.6829 2.6802l0.16933-0.06086c0-0.08467 0.01588-0.16933 0.01588-0.26458"/>
      <path class="cls-1" d="m16.674 87.922a3.0268 3.0268 0 0 1-3.0268-3.0136 3.0057 3.0057 0 0 1 0.88635-2.1405l0.17198 0.1614a2.794 2.794 0 0 0 0 3.9688 2.794 2.794 0 0 0 3.9688 0l0.1614 0.1614a3.003 3.003 0 0 1-2.1616 0.86254"/>
      <path class="cls-1" d="m16.64 86.84a1.7595 1.7595 0 0 0-0.69056-1.5637 1.7224 1.7224 0 0 0-0.88635-0.35983 0.1614 0.1614 0 0 1-0.14023-0.16933 0.1561 0.1561 0 0 1 0.17198-0.14288 2.077 2.077 0 0 1 1.8521 2.2701 1.8124 1.8124 0 0 1-0.06879 0.35719l0.46038 0.12965a2.5559 2.5559 0 0 0 0.39688-0.15081 2.8152 2.8152 0 0 0 0.05027-0.5424 2.9104 2.9104 0 0 0-2.4686-2.8734 1.2806 1.2806 0 0 0-0.46302 0 1.0081 1.0081 0 0 0-0.50006 0.30956 0.98954 0.98954 0 0 0 0.44186 1.5875 2.2913 2.2913 0 0 0 0.24871 0.04498 0.92869 0.92869 0 0 1 0.77258 0.91546 0.9181 0.9181 0 0 1-0.14817 0.50006l0.3175 0.20373a2.3574 2.3574 0 0 0 0.47625 0.07937 1.741 1.741 0 0 0 0.17462-0.60854"/>
     </g>
    </g>
   </g>
   <g fill="#0a0303">
    <circle transform="rotate(-90)" cx="-163.16" cy="7.2485" r="3.6542" style="paint-order:stroke markers fill"/>
    <circle transform="rotate(-90)" cx="-149.46" cy="7.2485" r="3.6542" style="paint-order:stroke markers fill"/>
    <circle transform="rotate(-90)" cx="-135.75" cy="7.2485" r="3.6542" style="paint-order:stroke markers fill"/>
    <circle transform="rotate(-90)" cx="-122.05" cy="7.2485" r="3.6542" style="paint-order:stroke markers fill"/>
    <circle transform="rotate(-90)" cx="-108.35" cy="7.2485" r="3.6542" style="paint-order:stroke markers fill"/>
    <circle transform="rotate(-90)" cx="-94.645" cy="7.2485" r="3.6542" style="paint-order:stroke markers fill"/>
    <circle transform="rotate(-90)" cx="-80.942" cy="7.2485" r="3.6542" style="paint-order:stroke markers fill"/>
    <circle transform="rotate(-90)" cx="-67.239" cy="7.2485" r="3.6542" style="paint-order:stroke markers fill"/>
    <circle transform="rotate(-90)" cx="-53.536" cy="7.2485" r="3.6542" style="paint-order:stroke markers fill"/>
    <circle transform="rotate(-90)" cx="-39.833" cy="7.2485" r="3.6542" style="paint-order:stroke markers fill"/>
    <circle transform="rotate(-90)" cx="-26.13" cy="7.2485" r="3.6542" style="paint-order:stroke markers fill"/>
    <circle transform="rotate(-90)" cx="-163.16" cy="98.698" r="3.6542" style="paint-order:stroke markers fill"/>
    <circle transform="rotate(-90)" cx="-149.46" cy="98.698" r="3.6542" style="paint-order:stroke markers fill"/>
    <circle transform="rotate(-90)" cx="-135.75" cy="98.698" r="3.6542" style="paint-order:stroke markers fill"/>
    <circle transform="rotate(-90)" cx="-122.05" cy="98.698" r="3.6542" style="paint-order:stroke markers fill"/>
    <circle transform="rotate(-90)" cx="-108.35" cy="98.698" r="3.6542" style="paint-order:stroke markers fill"/>
    <circle transform="rotate(-90)" cx="-94.645" cy="98.698" r="3.6542" style="paint-order:stroke markers fill"/>
    <circle transform="rotate(-90)" cx="-80.942" cy="98.698" r="3.6542" style="paint-order:stroke markers fill"/>
    <circle transform="rotate(-90)" cx="-67.239" cy="98.698" r="3.6542" style="paint-order:stroke markers fill"/>
    <circle transform="rotate(-90)" cx="-53.536" cy="98.698" r="3.6542" style="paint-order:stroke markers fill"/>
    <circle transform="rotate(-90)" cx="-39.833" cy="98.698" r="3.6542" style="paint-order:stroke markers fill"/>
    <circle transform="rotate(-90)" cx="-26.13" cy="98.698" r="3.6542" style="paint-order:stroke markers fill"/>
   </g>
  </g>
 </g>
</svg>
