<?xml version="1.0" encoding="UTF-8" standalone="no"?>
<svg
   width="280mm"
   height="147mm"
   version="1.1"
   id="svg165"
   sodipodi:docname="esp32.svg"
   inkscape:version="1.1.2 (0a00cf5339, 2022-02-04)"
   xmlns:inkscape="http://www.inkscape.org/namespaces/inkscape"
   xmlns:sodipodi="http://sodipodi.sourceforge.net/DTD/sodipodi-0.dtd"
   xmlns="http://www.w3.org/2000/svg"
   xmlns:svg="http://www.w3.org/2000/svg">
  <sodipodi:namedview
     id="namedview167"
     pagecolor="#ffffff"
     bordercolor="#666666"
     borderopacity="1.0"
     inkscape:pageshadow="2"
     inkscape:pageopacity="0.0"
     inkscape:pagecheckerboard="0"
     inkscape:document-units="mm"
     showgrid="false"
     showguides="false"
     inkscape:zoom="1.0187358"
     inkscape:cx="529.57792"
     inkscape:cy="278.28608"
     inkscape:window-width="1482"
     inkscape:window-height="800"
     inkscape:window-x="0"
     inkscape:window-y="0"
     inkscape:window-maximized="1"
     inkscape:current-layer="svg165" />
  <defs
     id="defs5">
    <pattern
       id="small-pin-pattern"
       width="2.5"
       height="4.6"
       patternUnits="userSpaceOnUse">
      <path
         d="m1.4 1.32c0-0.138-0.0547-0.271-0.153-0.37-0.098-0.0965-0.23-0.153-0.368-0.153h-0.432c-0.138 0-0.271 0.0563-0.37 0.153-0.098 0.098-0.153 0.231-0.153 0.37v1.81h1.47z"
         fill="#f5f9f0"
         stroke-width="1.61"
         id="path2" />
    </pattern>
  </defs>
  <!-- Board -->
  <!-- Pins -->
  <!-- ESP32 Chip -->
  <!-- Regulator -->
  <!-- Buttons -->
  <!-- USB Connection -->
  <!-- LEDs -->
  <!-- Small Chip-->
  <!-- Texts -->
  <!-- Antenna -->
  <path
     d="M 943.33,88.517232 C 943.33,71.182364 929.38764,57.24 912.05277,57.24 h -748.8332 c -17.33487,0 -31.27723,13.942364 -31.27723,31.277232 V 467.07103 c 0,17.33487 13.94236,31.27723 31.27723,31.27723 h 748.8332 c 17.33487,0 31.27723,-13.94236 31.27723,-31.27723 z m -10.343,4.592292 A 25.816128,25.816128 0 0 1 907.17087,118.92565 25.816128,25.816128 0 0 1 881.35474,93.109524 25.816128,25.816128 0 0 1 907.17087,67.293396 25.816128,25.816128 0 0 1 932.987,93.109524 Z M 932.08923,460.9066 A 25.816128,25.816128 0 0 1 906.2731,486.72273 25.816128,25.816128 0 0 1 880.45697,460.9066 25.816128,25.816128 0 0 1 906.2731,435.09048 25.816128,25.816128 0 0 1 932.08923,460.9066 Z M 203.94203,93.109524 a 25.816128,25.816128 0 0 1 0,0.583345 A 25.816128,25.816128 0 0 1 178.1259,119.509 25.816128,25.816128 0 0 1 152.30977,93.692869 25.816128,25.816128 0 0 1 178.1259,67.876741 a 25.816128,25.816128 0 0 1 25.81613,25.23692 z m -0.89777,366.969636 a 25.816128,25.816128 0 0 1 0,0.008 25.816128,25.816128 0 0 1 0,0.57508 25.816128,25.816128 0 0 1 -25.81613,25.81612 25.816128,25.816128 0 0 1 -25.81613,-25.81612 25.816128,25.816128 0 0 1 25.81613,-25.81613 25.816128,25.816128 0 0 1 25.81613,25.23692 z"
     fill="#333333"
     stroke="#4d4d4d"
     id="path9"
     style="fill-rule:evenodd;stroke-width:4.1372;fill:#999999" />
  <rect
     x="139.98399"
     y="-840.72742"
     width="271.4003"
     height="303.25677"
     fill="#1a1a1a"
     id="rect11"
     transform="rotate(90)"
     style="fill-rule:evenodd;stroke-width:4.1372" />
  <g
     fill="#ececec"
     id="g21"
     transform="matrix(0,4.1372,-4.1372,0,943.33,57.24)"
     style="fill-rule:evenodd">
    <rect
       x="19.299999"
       y="143"
       width="7.21"
       height="11.5"
       id="rect13" />
    <rect
       x="39.799999"
       y="139"
       width="6.5900002"
       height="3.0699999"
       id="rect15" />
    <rect
       x="40"
       y="147"
       width="6.5900002"
       height="3.0699999"
       id="rect17" />
    <rect
       x="40.200001"
       y="156"
       width="6.5900002"
       height="3.0699999"
       id="rect19" />
  </g>
  <rect
     x="166.04836"
     y="-376.5336"
     width="57.920799"
     height="102.18884"
     fill="#4d4d4d"
     id="rect23"
     transform="rotate(90)"
     style="fill-rule:evenodd;stroke-width:4.1372" />
  <g
     transform="matrix(0,4.1372,-4.1372,0,943.33,48.9656)"
     stroke-width="1.24"
     id="g45">
    <rect
       x="77.599998"
       y="177"
       width="11.1"
       height="9.96"
       fill="#cecccb"
       id="rect27" />
    <circle
       cx="83.199997"
       cy="182"
       r="3.48"
       fill="#ffdc8e"
       id="circle29" />
    <g
       fill="#cecccb"
       id="g43">
      <path
         d="m 80.7,190 h -1.34 v 1.64 c 0,0.734 0.595,1.33 1.33,1.33 h 0.0099 z"
         id="path31" />
      <path
         d="m 80.7,175 h -1.34 v -1.64 c 0,-0.734 0.595,-1.33 1.33,-1.33 h 0.0099 z"
         id="path33" />
      <rect
         x="81"
         y="190"
         width="5.23"
         height="2.5899999"
         id="rect35" />
      <rect
         x="81"
         y="173"
         width="5.23"
         height="2.5899999"
         id="rect37" />
      <path
         d="m 84.5,175 c 0.062,0 0.122,0.0248 0.166,0.0682 0.0434,0.0446 0.0682,0.104 0.0682,0.167 0,0.134 0.0533,0.263 0.149,0.358 0.0955,0.0942 0.224,0.148 0.358,0.148 h 0.0236 c 0.141,0 0.277,-0.0558 0.376,-0.155 0.099,-0.0992 0.155,-0.234 0.155,-0.374 v -0.564 h 2.16 v 3.09 h -1.69 v 0.744 h -2.16 v -0.392 h -1.87 v 0.392 h -2.16 v -0.744 h -1.69 v -3.09 h 2.16 v 0.564 c 0,0.14 0.0558,0.275 0.155,0.374 0.0992,0.099 0.234,0.155 0.376,0.155 h 0.0236 c 0.135,0 0.263,-0.0533 0.358,-0.148 0.0955,-0.0955 0.149,-0.224 0.149,-0.358 0,-0.0632 0.0248,-0.123 0.0682,-0.167 0.0446,-0.0434 0.104,-0.0682 0.167,-0.0682 z"
         id="path39" />
      <path
         d="m 81.8,190 c -0.0632,0 -0.123,-0.0248 -0.167,-0.0694 -0.0434,-0.0434 -0.0682,-0.103 -0.0682,-0.166 0,-0.134 -0.0533,-0.263 -0.149,-0.358 -0.0955,-0.0955 -0.223,-0.149 -0.358,-0.149 h -0.0236 c -0.141,0 -0.277,0.0558 -0.376,0.156 -0.0992,0.0992 -0.155,0.234 -0.155,0.374 v 0.564 h -2.16 v -3.09 h 1.69 v -0.745 h 2.16 v 0.393 h 1.87 v -0.393 h 2.16 v 0.745 h 1.69 v 3.09 h -2.16 v -0.564 c 0,-0.14 -0.0558,-0.275 -0.155,-0.374 -0.0992,-0.1 -0.234,-0.156 -0.376,-0.156 h -0.0236 c -0.134,0 -0.263,0.0533 -0.358,0.149 -0.095,0.0957 -0.149,0.224 -0.149,0.358 0,0.0632 -0.0248,0.123 -0.0682,0.166 -0.0446,0.0446 -0.104,0.0694 -0.166,0.0694 z"
         id="path41" />
    </g>
  </g>
  <g
     transform="matrix(0,4.1372,-4.1372,0,935.0556,65.5144)"
     stroke-width="1.24"
     id="g65">
    <rect
       x="17.700001"
       y="177"
       width="11.1"
       height="9.96"
       fill="#cecccb"
       id="rect47" />
    <circle
       cx="23.299999"
       cy="182"
       r="3.48"
       fill="#ffdc8e"
       id="circle49" />
    <g
       fill="#cecccb"
       id="g63">
      <path
         d="m 20.8,189 h -1.34 v 1.64 c 0,0.734 0.595,1.33 1.33,1.33 h 0.0099 z"
         id="path51" />
      <path
         d="m 20.8,175 h -1.34 v -1.64 c 0,-0.734 0.595,-1.33 1.33,-1.33 h 0.0099 z"
         id="path53" />
      <rect
         x="21"
         y="189"
         width="5.23"
         height="2.5899999"
         id="rect55" />
      <rect
         x="21"
         y="172"
         width="5.23"
         height="2.5899999"
         id="rect57" />
      <path
         d="m 24.5,175 c 0.062,0 0.122,0.0248 0.166,0.0682 0.0434,0.0446 0.0682,0.104 0.0682,0.167 0,0.134 0.0533,0.263 0.149,0.358 0.0955,0.0942 0.224,0.148 0.358,0.148 h 0.0236 c 0.141,0 0.277,-0.0558 0.376,-0.155 0.099,-0.0992 0.155,-0.234 0.155,-0.374 v -0.564 h 2.16 v 3.09 h -1.69 v 0.744 h -2.16 v -0.392 h -1.87 v 0.392 h -2.16 v -0.744 h -1.69 v -3.09 h 2.16 v 0.564 c 0,0.14 0.0558,0.275 0.155,0.374 0.0992,0.099 0.234,0.155 0.376,0.155 h 0.0236 c 0.135,0 0.263,-0.0533 0.358,-0.148 0.0955,-0.0955 0.149,-0.224 0.149,-0.358 0,-0.0632 0.0248,-0.123 0.0682,-0.167 0.0446,-0.0434 0.104,-0.0682 0.167,-0.0682 z"
         id="path59" />
      <path
         d="m 21.9,189 c -0.0632,0 -0.123,-0.0248 -0.167,-0.0694 -0.0434,-0.0434 -0.0682,-0.103 -0.0682,-0.166 0,-0.134 -0.0533,-0.263 -0.149,-0.358 -0.0955,-0.0955 -0.223,-0.149 -0.358,-0.149 h -0.0236 c -0.141,0 -0.277,0.0558 -0.376,0.156 -0.0992,0.0992 -0.155,0.234 -0.155,0.374 v 0.564 h -2.16 v -3.09 h 1.69 v -0.745 h 2.16 v 0.393 h 1.87 v -0.393 h 2.16 v 0.745 h 1.69 v 3.09 h -2.16 v -0.564 c 0,-0.14 -0.0558,-0.275 -0.155,-0.374 -0.0992,-0.1 -0.234,-0.156 -0.376,-0.156 h -0.0236 c -0.134,0 -0.263,0.0533 -0.358,0.149 -0.095,0.0957 -0.149,0.224 -0.149,0.358 0,0.0632 -0.0248,0.123 -0.0682,0.166 -0.0446,0.0446 -0.104,0.0694 -0.166,0.0694 z"
         id="path61" />
    </g>
  </g>
  <path
     d="m 128.3016,331.95008 -9.26733,4.38543 c -0.58748,0.26933 -1.24943,0.30243 -1.85346,0.0856 -0.60817,-0.2172 -1.1005,-0.66195 -1.37355,-1.2453 -0.27513,-0.5792 -0.30781,-1.24943 -0.091,-1.85346 0.2172,-0.60403 0.66195,-1.1005 1.24529,-1.37355 l 6.37129,-2.99533 -0.8564,-0.0124 c -2.01895,-0.0248 -3.95102,-0.85226 -5.37836,-2.30028 -1.41492,-1.44802 -2.18858,-3.39664 -2.15962,-5.41973 l 1.19979,-91.84584 c 0.0248,-2.02309 0.85227,-3.95103 2.30029,-5.37836 1.44802,-1.41079 3.39664,-2.18858 5.41973,-2.15962 l 0.8564,0.0124 -6.28855,-3.16082 c -0.5792,-0.29002 -1.00947,-0.79434 -1.20806,-1.40665 -0.20107,-0.60816 -0.15101,-1.27012 0.13901,-1.84519 l 4e-5,-0.004 c 0.29002,-0.57094 0.79434,-1.00948 1.40665,-1.20807 0.60817,-0.20107 1.27012,-0.151 1.84933,0.13901 l 9.14321,4.59229 0.0331,-2.49059 85.22632,1.11291 -1.52663,116.66904 -85.22632,-1.11291 z"
     fill="#cecccb"
     stroke-width="5.21287"
     id="path67" />
  <path
     d="m 211.0456,308.36804 -7.44696,-0.0976 c -0.25113,-0.003 -0.47992,0.12453 -0.61231,0.33181 -1.36113,2.15961 -8.77086,13.98373 -8.77086,13.98373 l -6.86775,-0.0898 0.0939,-7.19872 -4.92327,-0.0645 0.14232,-10.88084 4.92327,0.0645 0.0898,-6.86775 13.07355,0.17086 c 0.56266,0.008 1.09636,-0.2052 1.49353,-0.59161 0.39717,-0.39221 0.62472,-0.9226 0.62886,-1.47699 l 0.0856,-6.53677 -5.41974,-0.0712 0.3496,-26.72631 5.41973,0.0712 0.0856,-6.53678 c 0.008,-0.55438 -0.20521,-1.09222 -0.59162,-1.48939 -0.38724,-0.40255 -0.91432,-0.62886 -1.47698,-0.63713 l -13.07355,-0.17087 0.0898,-6.86775 -4.92326,-0.0645 0.14232,-10.88083 4.92326,0.0645 0.0943,-7.19873 6.86775,0.0898 c 0,0 7.15736,12.03926 8.39852,14.1906 0.12784,0.21596 0.35083,0.34463 0.60403,0.34794 l 7.44696,0.0976 z"
     fill="#989898"
     stroke-width="5.21287"
     id="path69" />
  <g
     stroke-width="1.44"
     id="g79"
     transform="matrix(0,4.1372,-4.1372,0,943.33,57.24)">
    <rect
       x="35"
       y="108"
       width="3.8299999"
       height="9.3000002"
       fill="#e5e5e5"
       id="rect71" />
    <rect
       x="35"
       y="110"
       width="3.8299999"
       height="5.3099999"
       fill="#f5ecde"
       id="rect73" />
    <rect
       x="69.5"
       y="108"
       width="3.8299999"
       height="9.3000002"
       fill="#e5e5e5"
       id="rect75" />
    <rect
       x="69.5"
       y="110"
       width="3.8299999"
       height="5.3099999"
       fill="#f5ecde"
       id="rect77" />
  </g>
  <g
     fill="url(#small-pin-pattern)"
     id="g89"
     transform="matrix(0,4.1372,-4.1372,0,943.33,57.24)">
    <rect
       transform="translate(69,137)"
       width="13.9"
       height="3"
       id="rect81"
       x="0"
       y="0" />
    <rect
       transform="rotate(180,41.4,80.25)"
       width="13.9"
       height="3"
       id="rect83"
       x="0"
       y="0" />
    <rect
       transform="rotate(90,-27.4,114.6)"
       width="13.9"
       height="3"
       id="rect85"
       x="0"
       y="0" />
    <rect
       transform="rotate(-90,109.9,45.9)"
       width="13.9"
       height="3"
       id="rect87"
       x="0"
       y="0" />
  </g>
  <rect
     x="334.01868"
     y="-364.12201"
     width="71.987282"
     height="71.987282"
     fill="#333333"
     stroke-width="6.66089"
     id="rect91"
     transform="rotate(90)" />
  <text
     x="593.30316"
     y="240.27707"
     fill="#cccccc"
     font-family="sans-serif"
     font-size="62.058px"
     id="text93"
     style="stroke-width:4.1372">ESP32</text>
  <path
     d="m 851.89788,157.77396 h 77.77936 v 33.0976 h -47.5778 V 233.071 h 45.5092 v 35.1662 h -43.4406 v 41.372 h 43.4406 v 73.64216 H 844.0372"
     fill="none"
     stroke="#6f6352"
     stroke-width="4.1372px"
     id="path95" />
  <path
     d="m 926.11925,345.60284 h -80.6754"
     fill="none"
     stroke="#6f6352"
     stroke-width="4.1372px"
     id="path97" />
  <g
     transform="matrix(6.1938021,0,0,6.1938021,601.77932,33.301333)"
     fill="#be1313"
     id="g113">
    <g
       fill="#be1313"
       id="g111">
      <g
         transform="matrix(3.8052,0,0,3.8052,-48.836,-277.86)"
         fill="#be1313"
         stroke-width="0.26458"
         id="g109">
        <path
           class="cls-1"
           d="M 15.481,86.507 A 0.39158,0.39158 0 1 1 15.08942,86.11542 0.39158,0.39158 0 0 1 15.481,86.507"
           id="path99" />
        <path
           class="cls-1"
           d="m 18.897,86.099 a 4.0587,4.0587 0 0 0 -3.4396,-3.4396 2.5744,2.5744 0 0 0 -0.56885,0.4101 v 0.37835 a 3.2226,3.2226 0 0 1 3.22,3.2173 h 0.37835 a 2.712,2.712 0 0 0 0.4101,-0.56621"
           id="path101" />
        <path
           class="cls-1"
           d="m 19.203,84.911 a 2.5453,2.5453 0 0 0 -2.5585,-2.5453 c -0.08996,0 -0.17727,0 -0.26458,0.01323 l -0.05821,0.16933 a 4.3789,4.3789 0 0 1 2.6829,2.6802 l 0.16933,-0.06086 c 0,-0.08467 0.01588,-0.16933 0.01588,-0.26458"
           id="path103" />
        <path
           class="cls-1"
           d="m 16.674,87.922 a 3.0268,3.0268 0 0 1 -3.0268,-3.0136 3.0057,3.0057 0 0 1 0.88635,-2.1405 l 0.17198,0.1614 a 2.794,2.794 0 0 0 0,3.9688 2.794,2.794 0 0 0 3.9688,0 l 0.1614,0.1614 a 3.003,3.003 0 0 1 -2.1616,0.86254"
           id="path105" />
        <path
           class="cls-1"
           d="m 16.64,86.84 a 1.7595,1.7595 0 0 0 -0.69056,-1.5637 1.7224,1.7224 0 0 0 -0.88635,-0.35983 0.1614,0.1614 0 0 1 -0.14023,-0.16933 0.1561,0.1561 0 0 1 0.17198,-0.14288 2.077,2.077 0 0 1 1.8521,2.2701 1.8124,1.8124 0 0 1 -0.06879,0.35719 l 0.46038,0.12965 a 2.5559,2.5559 0 0 0 0.39688,-0.15081 2.8152,2.8152 0 0 0 0.05027,-0.5424 2.9104,2.9104 0 0 0 -2.4686,-2.8734 1.2806,1.2806 0 0 0 -0.46302,0 1.0081,1.0081 0 0 0 -0.50006,0.30956 0.98954,0.98954 0 0 0 0.44186,1.5875 2.2913,2.2913 0 0 0 0.24871,0.04498 0.92869,0.92869 0 0 1 0.77258,0.91546 0.9181,0.9181 0 0 1 -0.14817,0.50006 l 0.3175,0.20373 a 2.3574,2.3574 0 0 0 0.47625,0.07937 1.741,1.741 0 0 0 0.17462,-0.60854"
           id="path107" />
      </g>
    </g>
  </g>
  <g
     fill="#0a0303"
     id="g159"
     transform="matrix(0,4.1372,-4.1372,0,943.33,57.24)">
    <circle
       transform="rotate(-90)"
       cx="-163.16"
       cy="7.2484999"
       r="3.6542001"
       style="paint-order:stroke markers fill"
       id="circle115" />
    <circle
       transform="rotate(-90)"
       cx="-149.46001"
       cy="7.2484999"
       r="3.6542001"
       style="paint-order:stroke markers fill"
       id="circle117" />
    <circle
       transform="rotate(-90)"
       cx="-135.75"
       cy="7.2484999"
       r="3.6542001"
       style="paint-order:stroke markers fill"
       id="circle119" />
    <circle
       transform="rotate(-90)"
       cx="-122.05"
       cy="7.2484999"
       r="3.6542001"
       style="paint-order:stroke markers fill"
       id="circle121" />
    <circle
       transform="rotate(-90)"
       cx="-108.35"
       cy="7.2484999"
       r="3.6542001"
       style="paint-order:stroke markers fill"
       id="circle123" />
    <circle
       transform="rotate(-90)"
       cx="-94.644997"
       cy="7.2484999"
       r="3.6542001"
       style="paint-order:stroke markers fill"
       id="circle125" />
    <circle
       transform="rotate(-90)"
       cx="-80.942001"
       cy="7.2484999"
       r="3.6542001"
       style="paint-order:stroke markers fill"
       id="circle127" />
    <circle
       transform="rotate(-90)"
       cx="-67.238998"
       cy="7.2484999"
       r="3.6542001"
       style="paint-order:stroke markers fill"
       id="circle129" />
    <circle
       transform="rotate(-90)"
       cx="-53.535999"
       cy="7.2484999"
       r="3.6542001"
       style="paint-order:stroke markers fill"
       id="circle131" />
    <circle
       transform="rotate(-90)"
       cx="-39.833"
       cy="7.2484999"
       r="3.6542001"
       style="paint-order:stroke markers fill"
       id="circle133" />
    <circle
       transform="rotate(-90)"
       cx="-26.129999"
       cy="7.2484999"
       r="3.6542001"
       style="paint-order:stroke markers fill"
       id="circle135" />
    <circle
       transform="rotate(-90)"
       cx="-163.16"
       cy="98.697998"
       r="3.6542001"
       style="paint-order:stroke markers fill"
       id="circle137" />
    <circle
       transform="rotate(-90)"
       cx="-149.46001"
       cy="98.697998"
       r="3.6542001"
       style="paint-order:stroke markers fill"
       id="circle139" />
    <circle
       transform="rotate(-90)"
       cx="-135.75"
       cy="98.697998"
       r="3.6542001"
       style="paint-order:stroke markers fill"
       id="circle141" />
    <circle
       transform="rotate(-90)"
       cx="-122.05"
       cy="98.697998"
       r="3.6542001"
       style="paint-order:stroke markers fill"
       id="circle143" />
    <circle
       transform="rotate(-90)"
       cx="-108.35"
       cy="98.697998"
       r="3.6542001"
       style="paint-order:stroke markers fill"
       id="circle145" />
    <circle
       transform="rotate(-90)"
       cx="-94.644997"
       cy="98.697998"
       r="3.6542001"
       style="paint-order:stroke markers fill"
       id="circle147" />
    <circle
       transform="rotate(-90)"
       cx="-80.942001"
       cy="98.697998"
       r="3.6542001"
       style="paint-order:stroke markers fill"
       id="circle149" />
    <circle
       transform="rotate(-90)"
       cx="-67.238998"
       cy="98.697998"
       r="3.6542001"
       style="paint-order:stroke markers fill"
       id="circle151" />
    <circle
       transform="rotate(-90)"
       cx="-53.535999"
       cy="98.697998"
       r="3.6542001"
       style="paint-order:stroke markers fill"
       id="circle153" />
    <circle
       transform="rotate(-90)"
       cx="-39.833"
       cy="98.697998"
       r="3.6542001"
       style="paint-order:stroke markers fill"
       id="circle155" />
    <circle
       transform="rotate(-90)"
       cx="-26.129999"
       cy="98.697998"
       r="3.6542001"
       style="paint-order:stroke markers fill"
       id="circle157" />
  </g>
</svg>
