<svg fill="none" height="481" viewBox="0 0 496 481" width="496" xmlns="http://www.w3.org/2000/svg" xmlns:xlink="http://www.w3.org/1999/xlink"><filter id="a" color-interpolation-filters="sRGB" filterUnits="userSpaceOnUse" height="264" width="360" x="0" y="212.139"><feFlood flood-opacity="0" result="BackgroundImageFix"/><feColorMatrix in="SourceAlpha" result="hardAlpha" type="matrix" values="0 0 0 0 0 0 0 0 0 0 0 0 0 0 0 0 0 0 127 0"/><feOffset dy="8"/><feGaussianBlur stdDeviation="20"/><feComposite in2="hardAlpha" operator="out"/><feColorMatrix type="matrix" values="0 0 0 0 0.0862745 0 0 0 0 0.0431373 0 0 0 0 0.270588 0 0 0 0.1 0"/><feBlend in2="BackgroundImageFix" mode="normal" result="effect1_dropShadow_22_52"/><feBlend in="SourceGraphic" in2="effect1_dropShadow_22_52" mode="normal" result="shape"/></filter><filter id="b" color-interpolation-filters="sRGB" filterUnits="userSpaceOnUse" height="179.433" width="352" x="4" y="216.139"><feFlood flood-opacity="0" result="BackgroundImageFix"/><feColorMatrix in="SourceAlpha" result="hardAlpha" type="matrix" values="0 0 0 0 0 0 0 0 0 0 0 0 0 0 0 0 0 0 127 0"/><feOffset dy="8"/><feGaussianBlur stdDeviation="20"/><feComposite in2="hardAlpha" operator="out"/><feColorMatrix type="matrix" values="0 0 0 0 0.0862745 0 0 0 0 0.0431373 0 0 0 0 0.270588 0 0 0 0.1 0"/><feBlend in2="BackgroundImageFix" mode="normal" result="effect1_dropShadow_22_52"/><feBlend in="SourceGraphic" in2="effect1_dropShadow_22_52" mode="normal" result="shape"/></filter><filter id="c" color-interpolation-filters="sRGB" filterUnits="userSpaceOnUse" height="224" width="224" x="272" y="20.1385"><feFlood flood-opacity="0" result="BackgroundImageFix"/><feColorMatrix in="SourceAlpha" result="hardAlpha" type="matrix" values="0 0 0 0 0 0 0 0 0 0 0 0 0 0 0 0 0 0 127 0"/><feOffset dy="8"/><feGaussianBlur stdDeviation="20"/><feComposite in2="hardAlpha" operator="out"/><feColorMatrix type="matrix" values="0 0 0 0 0.0862745 0 0 0 0 0.0431373 0 0 0 0 0.270588 0 0 0 0.1 0"/><feBlend in2="BackgroundImageFix" mode="normal" result="effect1_dropShadow_22_52"/><feBlend in="SourceGraphic" in2="effect1_dropShadow_22_52" mode="normal" result="shape"/></filter><linearGradient id="d" gradientUnits="userSpaceOnUse" x1="409.872" x2="409.872" y1="148.139" y2="246.045"><stop offset="0" stop-color="#696ffd"/><stop offset="1" stop-color="#696ffd" stop-opacity="0"/></linearGradient><linearGradient id="e" gradientUnits="userSpaceOnUse" x1="289.886" x2="289.886" y1="308.139" y2="193.914"><stop offset="0" stop-color="#5359f5"/><stop offset="1" stop-color="#696ffd" stop-opacity="0"/></linearGradient><g filter="url(#a)"><path d="m40 260.139c0-8.837 7.1634-16 16-16h248c8.837 0 16 7.163 16 16v152c0 8.836-7.163 16-16 16h-248c-8.8366 0-16-7.164-16-16z" fill="#fff"/><path d="m42 260.139c0-7.732 6.268-14 14-14h248c7.732 0 14 6.268 14 14v152c0 7.732-6.268 14-14 14h-248c-7.732 0-14-6.268-14-14z" stroke="#ededed" stroke-width="4"/></g><g filter="url(#b)"><path d="m174.497 347.015-122.1085-38.537c-4.9934-1.576-8.3885-6.207-8.3885-11.443v-36.896c0-6.628 5.3726-12 12-12h248c6.627 0 12 5.372 12 12v36.821c0 5.272-3.441 9.926-8.481 11.472l-125.892 38.612c-2.325.713-4.812.703-7.13-.029z" fill="#fff"/></g><path clip-rule="evenodd" d="m136 112.139h176v24h-176c-11.046 0-20 8.954-20 20v88h-24l.0001-88c0-24.301 19.6999-44 43.9999-44z" fill="url(#d)" fill-rule="evenodd"/><path clip-rule="evenodd" d="m352 348.138-32 .001v-24l32-.001c11.046 0 20-8.954 20-20v-107.999h24v107.999c0 24.301-19.699 44-44 44z" fill="url(#e)" fill-rule="evenodd"/><g filter="url(#c)"><rect fill="#f16552" height="144" rx="24" width="144" x="312" y="52.1385"/></g><path d="m340 78.8573h88v88h-88z" fill="#f16552"/><path d="m413.581 109.776.006-10.808c0-3.0261-2.208-5.5921-5.209-5.9812-6.687-.8669-18.445-2.2125-27.001-2.2125-4.972 0-11.025.4543-16.536 1.0051-9.033.9028-15.675 8.6416-15.675 17.7196v25.79.061.928c0 9.163 6.763 16.936 15.886 17.802 6.325.6 13.461 1.118 19.253 1.118 9.507 0 22.635-1.395 29.854-2.26 3.032-.363 5.285-2.944 5.285-5.999v-31.095c0-3.054-2.253-5.636-5.285-5.999-5.937-.711-15.872-1.781-24.501-2.139-1.871-.079-3.676-.124-5.36-.124-1.922 0-4.004.059-6.161.16-3.767.174-7.748.474-11.512.815" stroke="#fff" stroke-linecap="round" stroke-width="8"/><path d="m408.352 130.864c0 2.209-1.791 4-4 4-2.21 0-4-1.791-4-4s1.79-4 4-4c2.209 0 4 1.791 4 4z" fill="#fff"/></svg>