<svg fill="none" height="489" viewBox="0 0 480 489" width="480" xmlns="http://www.w3.org/2000/svg" xmlns:xlink="http://www.w3.org/1999/xlink"><filter id="a" color-interpolation-filters="sRGB" filterUnits="userSpaceOnUse" height="240" width="240" x="0" y="8.18591"><feFlood flood-opacity="0" result="BackgroundImageFix"/><feColorMatrix in="SourceAlpha" result="hardAlpha" type="matrix" values="0 0 0 0 0 0 0 0 0 0 0 0 0 0 0 0 0 0 127 0"/><feOffset dy="8"/><feGaussianBlur stdDeviation="20"/><feComposite in2="hardAlpha" operator="out"/><feColorMatrix type="matrix" values="0 0 0 0 0.0862745 0 0 0 0 0.0431373 0 0 0 0 0.270588 0 0 0 0.1 0"/><feBlend in2="BackgroundImageFix" mode="normal" result="effect1_dropShadow_22_90"/><feBlend in="SourceGraphic" in2="effect1_dropShadow_22_90" mode="normal" result="shape"/></filter><filter id="b" color-interpolation-filters="sRGB" filterUnits="userSpaceOnUse" height="240" width="240" x="240" y="8.18591"><feFlood flood-opacity="0" result="BackgroundImageFix"/><feColorMatrix in="SourceAlpha" result="hardAlpha" type="matrix" values="0 0 0 0 0 0 0 0 0 0 0 0 0 0 0 0 0 0 127 0"/><feOffset dy="8"/><feGaussianBlur stdDeviation="20"/><feComposite in2="hardAlpha" operator="out"/><feColorMatrix type="matrix" values="0 0 0 0 0.0862745 0 0 0 0 0.0431373 0 0 0 0 0.270588 0 0 0 0.1 0"/><feBlend in2="BackgroundImageFix" mode="normal" result="effect1_dropShadow_22_90"/><feBlend in="SourceGraphic" in2="effect1_dropShadow_22_90" mode="normal" result="shape"/></filter><filter id="c" color-interpolation-filters="sRGB" filterUnits="userSpaceOnUse" height="240" width="240" x="0" y="248.186"><feFlood flood-opacity="0" result="BackgroundImageFix"/><feColorMatrix in="SourceAlpha" result="hardAlpha" type="matrix" values="0 0 0 0 0 0 0 0 0 0 0 0 0 0 0 0 0 0 127 0"/><feOffset dy="8"/><feGaussianBlur stdDeviation="20"/><feComposite in2="hardAlpha" operator="out"/><feColorMatrix type="matrix" values="0 0 0 0 0.0862745 0 0 0 0 0.0431373 0 0 0 0 0.270588 0 0 0 0.1 0"/><feBlend in2="BackgroundImageFix" mode="normal" result="effect1_dropShadow_22_90"/><feBlend in="SourceGraphic" in2="effect1_dropShadow_22_90" mode="normal" result="shape"/></filter><filter id="d" color-interpolation-filters="sRGB" filterUnits="userSpaceOnUse" height="240" width="240" x="240" y="248.186"><feFlood flood-opacity="0" result="BackgroundImageFix"/><feColorMatrix in="SourceAlpha" result="hardAlpha" type="matrix" values="0 0 0 0 0 0 0 0 0 0 0 0 0 0 0 0 0 0 127 0"/><feOffset dy="8"/><feGaussianBlur stdDeviation="20"/><feComposite in2="hardAlpha" operator="out"/><feColorMatrix type="matrix" values="0 0 0 0 0.0862745 0 0 0 0 0.0431373 0 0 0 0 0.270588 0 0 0 0.1 0"/><feBlend in2="BackgroundImageFix" mode="normal" result="effect1_dropShadow_22_90"/><feBlend in="SourceGraphic" in2="effect1_dropShadow_22_90" mode="normal" result="shape"/></filter><filter id="e" color-interpolation-filters="sRGB" filterUnits="userSpaceOnUse" height="232" width="232" x="124" y="132.186"><feFlood flood-opacity="0" result="BackgroundImageFix"/><feColorMatrix in="SourceAlpha" result="hardAlpha" type="matrix" values="0 0 0 0 0 0 0 0 0 0 0 0 0 0 0 0 0 0 127 0"/><feOffset dy="8"/><feGaussianBlur stdDeviation="20"/><feComposite in2="hardAlpha" operator="out"/><feColorMatrix type="matrix" values="0 0 0 0 0.0862745 0 0 0 0 0.0431373 0 0 0 0 0.270588 0 0 0 0.1 0"/><feBlend in2="BackgroundImageFix" mode="normal" result="effect1_dropShadow_22_90"/><feBlend in="SourceGraphic" in2="effect1_dropShadow_22_90" mode="normal" result="shape"/></filter><linearGradient id="f" gradientUnits="userSpaceOnUse" x1="359.641" x2="359.641" y1="311.827" y2="407.827"><stop offset="0" stop-color="#534bb1"/><stop offset="1" stop-color="#551bf9"/></linearGradient><linearGradient id="g" gradientUnits="userSpaceOnUse" x1="360.661" x2="360.661" y1="329.189" y2="392.508"><stop offset="0" stop-color="#fff"/><stop offset="1" stop-color="#fff" stop-opacity=".82"/></linearGradient><linearGradient id="h"><stop offset="0" stop-color="#5359f5"/><stop offset="1" stop-color="#696ffd" stop-opacity="0"/></linearGradient><linearGradient id="i" gradientUnits="userSpaceOnUse" x1="200" x2="280" xlink:href="#h" y1="360.186" y2="360.186"/><linearGradient id="j" gradientUnits="userSpaceOnUse" x1="120" x2="120" y1="200.186" y2="280.186"><stop offset="0" stop-color="#696ffd"/><stop offset="1" stop-color="#696ffd" stop-opacity="0"/></linearGradient><linearGradient id="k" gradientUnits="userSpaceOnUse" x1="280" x2="200" xlink:href="#h" y1="120.186" y2="120.186"/><linearGradient id="l" gradientUnits="userSpaceOnUse" x1="360" x2="360" xlink:href="#h" y1="280.186" y2="200.186"/><clipPath id="m"><path d="m85.3549 339.255h68.5714v42.0107h-68.5714z"/></clipPath><g filter="url(#a)"><rect fill="#fff" height="160" rx="32" shape-rendering="crispEdges" width="160" x="40" y="40.1859"/><rect fill="#fff" height="96" rx="9.6" width="96" x="72" y="72.1859"/><g stroke-linecap="round" stroke-linejoin="round" stroke-width=".4"><path d="m150.9 89.3289-26.8 19.8251 4.997-11.6871z" fill="#e17726" stroke="#e17726"/><path d="m89.1001 89.3289 26.5559 19.9881-4.753-11.8297zm52.1529 45.9521-7.139 10.892 15.277 4.201 4.364-14.848zm-54.988.245 4.3444 14.848 15.2356-4.201-7.0976-10.892z" fill="#e27625" stroke="#e27625"/><path d="m105.029 116.884-4.242 6.404 15.093.694-.49-16.256-10.361 9.178zm29.942.02-10.525-9.382-.346 16.46 15.093-.694zm-29.126 29.269 9.158-4.406-7.873-6.119zm19.172-4.426 9.097 4.426-1.224-10.545z" fill="#e27625" stroke="#e27625"/><path d="m134.114 146.173-9.097-4.406.734 5.915-.081 2.509zm-28.269 0 8.485 4.018-.061-2.509.734-5.915z" fill="#d5bfb2" stroke="#d5bfb2"/><path d="m114.473 131.712-7.547-2.203 5.344-2.448 2.223 4.651zm11.034 0 2.244-4.671 5.364 2.448-7.608 2.243z" fill="#233447" stroke="#233447"/><path d="m105.845 146.172 1.326-10.891-8.4237.244zm26.984-10.891 1.285 10.891 7.139-10.647zm6.384-11.993-15.093.693 1.387 7.751 2.243-4.691 5.365 2.447zm-32.287 6.221 5.344-2.448 2.223 4.65 1.407-7.75-15.093-.673z" fill="#cc6228" stroke="#cc6228"/><path d="m100.808 123.288 6.322 12.339-.204-6.118zm32.307 6.221-.245 6.118 6.323-12.339zm-17.214-5.528-1.428 7.751 1.795 9.137.408-12.054zm8.199 0-.734 4.814.367 12.074 1.774-9.158-1.407-7.75z" fill="#e27525" stroke="#e27525"/><path d="m125.507 131.712-1.774 9.157 1.285.898 7.852-6.119.245-6.139zm-18.581-2.203.204 6.119 7.873 6.119 1.265-.878-1.775-9.157-7.587-2.203z" fill="#f5841f" stroke="#f5841f"/><path d="m125.69 150.19.061-2.508-.693-.572h-10.116l-.673.572.061 2.508-8.485-4.018 2.978 2.448 6.017 4.14h10.3l6.037-4.161 2.937-2.427-8.444 4.018z" fill="#c0ac9d" stroke="#c0ac9d"/><path d="m125.018 141.747-1.285-.877h-7.465l-1.265.897-.734 5.915.673-.571h10.116l.694.571-.734-5.915z" fill="#161616" stroke="#161616"/><path d="m152.042 110.439 2.244-10.9121-3.386-10.198-25.903 19.1721 9.974 8.383 14.073 4.099 3.1-3.61-1.346-.979 2.142-1.958-1.632-1.264 2.142-1.632-1.428-1.101zm-66.3274-10.9325 2.2844 10.9325-1.4686 1.081 2.1824 1.631-1.6317 1.285 2.1212 1.958-1.3461.979 3.1002 3.61 14.0736-4.079 9.973-8.423-25.9027-19.1521z" fill="#763e1a" stroke="#763e1a"/><path d="m149.044 120.983-14.073-4.079 4.242 6.384-6.323 12.34 8.363-.102h12.502zm-44.015-4.099-14.0729 4.099-4.6911 14.543h12.5028l8.3622.102-6.323-12.34 4.243-6.404zm19.071 7.098.917-15.501 4.08-11.0142h-18.194l4.08 11.0142.917 15.501.347 4.854v12.034h7.486l.04-12.034z" fill="#f5841f" stroke="#f5841f"/></g><rect height="156" rx="30" shape-rendering="crispEdges" stroke="#ededed" stroke-width="4" width="156" x="42" y="42.1859"/></g><g filter="url(#b)"><rect fill="#fff" height="160" rx="32" width="160" x="280" y="40.1859"/><rect height="156" rx="30" stroke="#ededed" stroke-width="4" width="156" x="282" y="42.1859"/></g><path clip-rule="evenodd" d="m332.745 72.1312h56.006c11.048 0 19.999 9.6307 19.999 21.5117v52.9771c0 11.881-8.951 21.511-19.995 21.511h-56.01c-11.044 0-19.995-9.63-19.995-21.511v-52.9771c0-11.881 8.951-21.5117 19.995-21.5117z" fill="#0052ff" fill-rule="evenodd"/><path clip-rule="evenodd" d="m360.752 86.0219c18.831 0 34.095 15.2641 34.095 34.0951 0 18.832-15.264 34.096-34.095 34.096-18.832 0-34.096-15.264-34.096-34.096 0-18.831 15.264-34.0951 34.096-34.0951z" fill="#fff" fill-rule="evenodd"/><path clip-rule="evenodd" d="m352.344 109.248h16.792c1.382 0 2.5 1.206 2.5 2.688v16.416c0 1.486-1.122 2.688-2.5 2.688h-16.792c-1.383 0-2.5-1.205-2.5-2.688v-16.416c0-1.482 1.121-2.688 2.5-2.688z" fill="#0052ff" fill-rule="evenodd"/><g filter="url(#c)"><rect fill="#fff" height="160" rx="32" width="160" x="40" y="280.186"/><rect height="156" rx="30" stroke="#ededed" stroke-width="4" width="156" x="42" y="282.186"/></g><rect fill="#141414" height="96" rx="17.0667" width="96" x="71.6406" y="311.827"/><g clip-path="url(#m)"><path d="m99.3931 347.464c11.1819-10.945 29.3129-10.945 40.4949 0l1.346 1.316c.133.129.239.283.311.453s.109.353.109.538-.037.368-.109.538-.178.324-.311.453l-4.603 4.505c-.136.132-.318.206-.507.206s-.371-.074-.506-.206l-1.852-1.813c-7.8-7.633-20.449-7.633-28.251 0l-1.983 1.941c-.136.132-.317.205-.506.205-.19 0-.371-.073-.507-.205l-4.6037-4.505c-.1327-.129-.2383-.283-.3103-.453-.0721-.17-.1092-.353-.1092-.538s.0371-.368.1092-.538c.072-.17.1776-.324.3103-.453zm50.0169 9.316 4.097 4.012c.132.128.238.282.31.452.072.171.109.353.109.538s-.037.368-.109.538-.178.324-.31.453l-18.475 18.082c-.271.263-.634.411-1.013.411-.378 0-.741-.148-1.013-.411l-13.111-12.834c-.068-.066-.159-.103-.254-.103-.094 0-.185.037-.253.103l-13.111 12.834c-.272.263-.635.411-1.013.411-.379 0-.742-.148-1.013-.411l-18.4766-18.082c-.1327-.129-.2383-.283-.3103-.453-.0721-.17-.1092-.353-.1092-.538s.0371-.367.1092-.538c.072-.17.1776-.324.3103-.452l4.0982-4.012c.2712-.263.6342-.41 1.012-.41.3779 0 .7409.147 1.0121.41l13.1113 12.834c.068.066.159.103.254.103s.186-.037.253-.103l13.112-12.834c.271-.263.634-.411 1.013-.411.378 0 .741.148 1.013.411l13.113 12.834c.068.066.159.103.253.103.095 0 .186-.037.254-.103l13.111-12.834c.272-.263.635-.411 1.013-.411.379 0 .742.148 1.013.411z" fill="#fff"/></g><g filter="url(#d)"><rect fill="#fff" height="160" rx="32" width="160" x="280" y="280.186"/><rect height="156" rx="30" stroke="#ededed" stroke-width="4" width="156" x="282" y="282.186"/></g><rect fill="url(#f)" height="96" rx="17.0667" width="96" x="311.641" y="311.827"/><path d="m394.003 360.412h-8.462c0-17.245-14.028-31.223-31.334-31.223-17.092 0-30.988 13.636-31.328 30.585-.352 17.52 16.144 32.734 33.728 32.734h2.212c15.503 0 36.282-12.093 39.528-26.827.6-2.716-1.553-5.269-4.344-5.269zm-52.371.768c0 2.306-1.893 4.192-4.207 4.192s-4.207-1.887-4.207-4.192v-6.782c0-2.306 1.893-4.192 4.207-4.192s4.207 1.886 4.207 4.192zm14.608 0c0 2.306-1.892 4.192-4.206 4.192-2.315 0-4.207-1.887-4.207-4.192v-6.782c0-2.306 1.893-4.192 4.207-4.192s4.206 1.886 4.206 4.192z" fill="url(#g)"/><g clip-rule="evenodd" fill-rule="evenodd"><path d="m200 348.186h80v24h-80z" fill="url(#i)"/><path d="m132 200.186v80h-24v-80z" fill="url(#j)"/><path d="m280 108.186h-80v24h80z" fill="url(#k)"/><path d="m372 280.186v-80h-24v80z" fill="url(#l)"/></g><g filter="url(#e)"><circle cx="240" cy="240.186" fill="#f16552" r="76"/></g><path d="m255.996 244.187 10-10c5.523-5.522 5.523-14.477 0-20-5.523-5.522-14.477-5.522-20 0l-10 10m-12 12-10 10c-5.523 5.523-5.523 14.478 0 20 5.523 5.523 14.477 5.523 20 0l10-10m-12-8 16-16" stroke="#fff" stroke-linecap="round" stroke-linejoin="round" stroke-width="6"/></svg>