<svg xmlns="http://www.w3.org/2000/svg" viewBox="0 0 500 500"><g id="freepik--Graphics--inject-2216"><path d="M123.53,157a95.27,95.27,0,0,1,67.59-28h13.53s63.83,16.71,63.83,85.09c0,66.84-44.19,126-63.82,145.66H191.14l-67.61-67.61A95.6,95.6,0,0,1,123.53,157Zm67.6,112a44.38,44.38,0,1,0-44.38-44.37A44.38,44.38,0,0,0,191.13,268.92Z" style="fill:#263238"></path><path d="M274,155.19a100.32,100.32,0,0,0-12.8-10.81l.57-.82a101,101,0,0,1,12.94,10.93Zm-18.78-14.72c-2.35-1.42-4.79-2.76-7.24-4l.44-.9c2.48,1.23,4.94,2.58,7.32,4Z" style="fill:#407BFF"></path><path d="M274,155.19a100.32,100.32,0,0,0-12.8-10.81l.57-.82a101,101,0,0,1,12.94,10.93Zm-18.78-14.72c-2.35-1.42-4.79-2.76-7.24-4l.44-.9c2.48,1.23,4.94,2.58,7.32,4Z" style="opacity:0.2"></path><path d="M137.05,157A95.59,95.59,0,0,1,272.23,292.14l-67.57,67.58-67.61-67.61A95.58,95.58,0,0,1,137.05,157Zm67.6,112a44.38,44.38,0,1,0-44.38-44.37A44.38,44.38,0,0,0,204.65,268.92Z" style="fill:#407BFF"></path><path d="M137.05,157A95.59,95.59,0,0,1,272.23,292.14l-67.57,67.58-67.61-67.61A95.58,95.58,0,0,1,137.05,157Zm67.6,112a44.38,44.38,0,1,0-44.38-44.37A44.38,44.38,0,0,0,204.65,268.92Z" style="opacity:0.2"></path><path d="M204.66,354.31a.25.25,0,0,1-.18-.08L139.7,289.46a91.82,91.82,0,1,1,129.88,0l-64.75,64.74A.23.23,0,0,1,204.66,354.31Zm0-221.09a91.32,91.32,0,0,0-64.56,155.89l64.6,64.59,64.57-64.56.17.17-.17-.17a91.35,91.35,0,0,0-64.61-155.92Zm0,140a48.63,48.63,0,1,1,48.63-48.62A48.68,48.68,0,0,1,204.65,273.17Zm0-96.75a48.13,48.13,0,1,0,48.13,48.13A48.18,48.18,0,0,0,204.65,176.42Z" style="fill:#fafafa;opacity:0.4;mix-blend-mode:color-dodge"></path></g></svg>