<svg xmlns="http://www.w3.org/2000/svg" viewBox="0 0 500 500"><g id="freepik--Floor--inject-1344"><path d="M469.08,477.34c0,.15-98.09.26-219.07.26s-219.09-.11-219.09-.26,98.07-.26,219.09-.26S469.08,477.2,469.08,477.34Z" style="fill:#263238"></path></g><g id="freepik--iced-coffee--inject-1344"><path d="M273.2,347.66c0-2.17-71.24-208-84-244.81a10.94,10.94,0,0,0-7.66-7L80.88,70.51,76.45,86.76l92.32,22.64a11,11,0,0,1,7.34,6.87l83.12,234.85Z" style="fill:#FF725E"></path><path d="M81.34,69.82a5.84,5.84,0,0,1,1.26,2.71,13.41,13.41,0,0,1-3.92,13.36,5.85,5.85,0,0,1-2.52,1.61c-.08-.13.85-.76,2.06-2.07A14.57,14.57,0,0,0,82,72.68,28.61,28.61,0,0,1,81.34,69.82Z" style="fill:#263238"></path><path d="M186.75,98.41a17.85,17.85,0,0,1-2,2.19c-1.29,1.3-3.11,3.08-5.13,5-2.82,2.71-5.31,5-6.57,6.11l-.25.22.05-.32a.86.86,0,0,1,.63-.7c.21-.05.32,0,.32,0s-.11,0-.28.1a.74.74,0,0,0-.43.6l-.2-.09c1.13-1.21,3.55-3.6,6.37-6.31,2-1.94,3.88-3.68,5.23-4.92A15.5,15.5,0,0,1,186.75,98.41Z" style="fill:#263238"></path><path d="M189.34,104.35a11.93,11.93,0,0,1-2,1.61c-1.28.94-3.07,2.19-5.1,3.49s-3.91,2.41-5.29,3.18a12.66,12.66,0,0,1-2.3,1.13,13,13,0,0,1,2.11-1.45L182,109l5.17-3.35A12.93,12.93,0,0,1,189.34,104.35Z" style="fill:#263238"></path><path d="M181.23,95.53a15.78,15.78,0,0,1-1.63,2.17c-1,1.3-2.5,3.11-4,5.14s-2.89,3.92-3.86,5.28a15.89,15.89,0,0,1-1.64,2.16,12.85,12.85,0,0,1,1.34-2.37c.89-1.42,2.2-3.34,3.75-5.38s3-3.82,4.16-5.07A13.53,13.53,0,0,1,181.23,95.53Z" style="fill:#263238"></path><path d="M173,94.09a65.33,65.33,0,0,1-2.66,7.68,62.34,62.34,0,0,1-3.14,7.49,65.33,65.33,0,0,1,2.66-7.68A62.34,62.34,0,0,1,173,94.09Z" style="fill:#263238"></path><path d="M339.31,233.1l-10.59-38.23a9.61,9.61,0,0,0-11.64-6.74l-41.36,10.59a9.6,9.6,0,0,0-6.83,12l11.48,39a9.6,9.6,0,0,0,11.81,6.53l40.47-11.35A9.61,9.61,0,0,0,339.31,233.1Z" style="fill:#e0e0e0"></path><path d="M275,204.25c0-.13,2.16-1,5.77-2.22s8.65-2.81,14.27-4.37,10.74-2.81,14.47-3.62,6.06-1.22,6.09-1.09-2.24.77-5.93,1.75l-14.37,3.9L281,202.69A42.22,42.22,0,0,1,275,204.25Z" style="fill:#fff"></path><path d="M180.48,198.47l28.18-18.18A10.32,10.32,0,0,1,223,183.47l11.79,18.74Z" style="fill:#e0e0e0"></path><path d="M355.86,227.63l3.41-24.26a374.27,374.27,0,0,1-58.82,13.9c-32.19,4.79-34.08-10.88-82.71-18.41s-69.5,13-69.54,12.76h0l2.25,16,4.57,8.1L170,430.26l3.5,5.45,1.81,21.72,2.9,4.35v15.56h150V461.78l2.89-4.35,1.81-21.72,3.51-5.45,14.94-194.53Z" style="fill:#FF725E"></path><g style="opacity:0.30000000000000004"><path d="M298.47,371.86a3.16,3.16,0,1,1-3.16-3.16A3.16,3.16,0,0,1,298.47,371.86Z"></path></g><g style="opacity:0.30000000000000004"><path d="M230.63,443.75a3.16,3.16,0,1,1-3.16-3.17A3.16,3.16,0,0,1,230.63,443.75Z"></path></g><g style="opacity:0.30000000000000004"><path d="M262.22,244.75a3.16,3.16,0,1,1-3.16-3.16A3.16,3.16,0,0,1,262.22,244.75Z"></path></g><g style="opacity:0.30000000000000004"><path d="M218.34,360.72a2.12,2.12,0,1,1-2.12-2.12A2.12,2.12,0,0,1,218.34,360.72Z"></path></g><g style="opacity:0.30000000000000004"><path d="M321.58,420.44a2.13,2.13,0,1,1-2.12-2.12A2.12,2.12,0,0,1,321.58,420.44Z"></path></g><g style="opacity:0.30000000000000004"><path d="M282,452.29a2.13,2.13,0,1,1-2.13-2.12A2.14,2.14,0,0,1,282,452.29Z"></path></g><g style="opacity:0.30000000000000004"><path d="M224.16,320.84a3.16,3.16,0,1,1-3.16-3.16A3.15,3.15,0,0,1,224.16,320.84Z"></path></g><g style="opacity:0.30000000000000004"><path d="M306.2,271.75a3.16,3.16,0,1,1-3.16-3.16A3.16,3.16,0,0,1,306.2,271.75Z"></path></g><g style="opacity:0.30000000000000004"><path d="M287.1,388.43a6.32,6.32,0,1,1-6.32-6.32A6.32,6.32,0,0,1,287.1,388.43Z"></path></g><g style="opacity:0.30000000000000004"><path d="M210.42,448a4.27,4.27,0,1,1-4.27-4.27A4.27,4.27,0,0,1,210.42,448Z"></path></g><g style="opacity:0.30000000000000004"><path d="M285.06,297.26a4.28,4.28,0,1,1-4.28-4.28A4.28,4.28,0,0,1,285.06,297.26Z"></path></g><g style="opacity:0.30000000000000004"><path d="M300.91,291.4c-11.74,15.56-24.17,42.81-42.65,49-16.37,5.48-37.36-4.94-53.4-11.3s-30.31-16.42-44.27-26.56l3.5,52.95c11.28-6.88,18.37-16.72,31.49-15.09s30.51,15.75,43.56,17.89,26.92,2.35,38.93-3.16c8.17-3.75,15-9.89,21.87-15.65s14.33-11.35,23-13.61,15,.31,20.68,7.31l5.5-69.65C329.66,263.81,312.41,276.17,300.91,291.4Z"></path></g><g style="opacity:0.30000000000000004"><path d="M292.75,407.31c-16.66,5.35-35,6.77-51.64,1.46-13-4.12-24.61-12.15-38-14.79a46.43,46.43,0,0,0-35.29,6.81l.48,10.12a45.16,45.16,0,0,1,34.81-6.66c13.35,2.64,25,10.66,38,14.79,16.68,5.3,35,3.88,51.64-1.47s31.88-14.43,46.26-24.4l2.3-27.61C332.69,378.76,309.41,402,292.75,407.31Z"></path></g><g style="opacity:0.30000000000000004"><path d="M270.07,214.82l10.28,34.91a9.61,9.61,0,0,0,11.81,6.54l40.46-11.36a9.61,9.61,0,0,0,6.67-11.82L333,210.54c-9.54,2.36-21.09,4.84-33.48,6.68C286.43,219.18,278.34,217.73,270.07,214.82Z" style="fill:#fff"></path></g><g style="opacity:0.30000000000000004"><path d="M308.59,242.53a33.32,33.32,0,0,1-7.3.69c-2.44-.18-5-1.22-6.25-3.32.34,1.62-1.9,2.69-3.48,2.2s-2.78-1.79-4.28-2.49-3.79-.38-4.13,1.24l0,.36a7.62,7.62,0,0,0,5.58,8.13l.08,0a23.68,23.68,0,0,0,8.1.07c9.27-1,18.85-2.07,26.92-6.74A50,50,0,0,0,308.59,242.53Z" style="fill:#fff"></path></g><path d="M284.66,245.74a4.45,4.45,0,0,1-.49-.87c-.29-.57-.69-1.4-1.16-2.44-.95-2.08-2.19-5-3.47-8.21s-2.35-6.21-3.07-8.38c-.36-1.08-.64-2-.82-2.57a3.48,3.48,0,0,1-.23-1,28,28,0,0,1,1.39,3.42L280,234c1.27,3.16,2.43,6,3.33,8.26A27.27,27.27,0,0,1,284.66,245.74Z" style="fill:#fff"></path><path d="M297.77,248.66a9.75,9.75,0,0,1-8.6.24c.05-.16,1.93.44,4.32.36A41.53,41.53,0,0,0,297.77,248.66Z" style="fill:#fff"></path><path d="M331.36,240.09a4.18,4.18,0,0,1-.94.42c-.62.25-1.52.58-2.64,1-2.24.78-5.35,1.79-8.83,2.79s-6.65,1.81-9,2.34c-1.15.27-2.09.47-2.74.59a3.42,3.42,0,0,1-1,.14,4.47,4.47,0,0,1,1-.33l2.7-.75c2.29-.63,5.44-1.49,8.91-2.49s6.6-2,8.87-2.64l2.68-.81A3.71,3.71,0,0,1,331.36,240.09Z" style="fill:#fff"></path><path d="M331.22,220.56c-.13.06-.58-.68-1.22-1.52s-1.23-1.48-1.13-1.6.87.39,1.54,1.28S331.35,220.51,331.22,220.56Z" style="fill:#fff"></path><g style="opacity:0.30000000000000004"><path d="M234.79,202.21,244,215.94a9.6,9.6,0,0,1-2.59,13.32l-34.8,23.55a9.61,9.61,0,0,1-13.28-2.47L170.13,217a9.61,9.61,0,0,1,2.69-13.57l7.66-4.93s8-2.18,25.94-1c0,0,12.41,1.2,20.39,3Z" style="fill:#fff"></path></g><path d="M196.4,244.75c-.22.15-5.1-6.76-10.9-15.42s-10.32-15.82-10.09-16,5.1,6.76,10.9,15.43S196.63,244.6,196.4,244.75Z" style="fill:#fff"></path><g style="opacity:0.30000000000000004"><path d="M226.73,210c-13.8-4.67-28.43-6.23-42.92-7.76l-.26.21c-1.69.92-3.69,1.1-5.48,1.83s-3.48,2.41-3.16,4.31a5.56,5.56,0,0,0,1.29,2.38c5.2,6.72,10.75,13.7,18.57,17l-2.88-13.88a4.35,4.35,0,0,1,0-2.45,3.5,3.5,0,0,1,2.71-1.87c2.7-.54,5.48.35,8,1.54s4.81,2.72,7.42,3.58c5.57,1.85,11.68.51,17.21-1.44.67-.24,1.43-.57,1.61-1.26C229.05,211.1,227.78,210.33,226.73,210Z" style="fill:#fff"></path></g><path d="M178.26,203.91a33.25,33.25,0,0,0-2.08,3.17,36.12,36.12,0,0,0-1.24,3.57,7.69,7.69,0,0,1,3.32-6.74Z" style="fill:#fff"></path><path d="M238,228.29a11,11,0,0,1-1.39.94l-3.9,2.39c-3.3,2-7.88,4.74-13,7.74s-9.6,5.89-13.36,7a15.24,15.24,0,0,1-4.52.81,8.38,8.38,0,0,1-1.25-.05,1.4,1.4,0,0,1-.43-.07,18.71,18.71,0,0,0,6.08-1c3.66-1.21,8.12-4.19,13.22-7.14s9.68-5.68,13-7.6l4-2.26A10.33,10.33,0,0,1,238,228.29Z" style="fill:#fff"></path><path d="M237.17,216s.39.09.82.51a4.48,4.48,0,0,1,1.14,2,4.41,4.41,0,0,1,0,2.33c-.18.57-.42.87-.47.84a6.22,6.22,0,0,0-1.46-5.72Z" style="fill:#fff"></path><path d="M350.45,178.83c-1.46-1.85-6.71-2.63-8.48-1.12h0a7.57,7.57,0,0,0-3.83,3.39,6.08,6.08,0,0,0,7.5,8.85,8.58,8.58,0,0,0,5.26-4.28A6.66,6.66,0,0,0,350.45,178.83Z" style="fill:#FF725E"></path><g style="opacity:0.30000000000000004"><circle cx="250.2" cy="331.4" r="3.16"></circle></g><path d="M347.94,206.85a1.17,1.17,0,0,1-.23.1l-.68.22c-.6.19-1.49.48-2.64.81-2.3.69-5.64,1.62-9.79,2.68A303.06,303.06,0,0,1,301.72,217c-3.24.45-6.41.89-9.49,1.12a49.8,49.8,0,0,1-8.92-.12,64.23,64.23,0,0,1-14.63-3.61c-4-1.46-7.22-2.83-9.41-3.8l-2.51-1.15-.65-.31-.21-.12s.08,0,.23.07l.67.26,2.55,1.06c2.21.92,5.42,2.23,9.45,3.64a65.14,65.14,0,0,0,14.56,3.48,48.88,48.88,0,0,0,8.83.09c3.06-.23,6.22-.68,9.46-1.12a333.06,333.06,0,0,0,32.86-6.17c4.16-1,7.51-1.89,9.83-2.51l2.66-.72.7-.17Z" style="fill:#263238"></path><g style="opacity:0.30000000000000004"><path d="M179.65,261.41a4.12,4.12,0,0,0-4.61,1.23,6,6,0,0,0-1.2,4.8,4.81,4.81,0,0,0,1.68,3.21,3.88,3.88,0,0,0,4.26.14A4.85,4.85,0,0,0,182,267c.1-1.51-.42-4.95-2.33-5.61" style="fill:#fff"></path></g><path d="M175.19,268.19c-.05,0-.32-.36-.45-1.08a4.34,4.34,0,0,1,2.5-4.74c.67-.29,1.14-.29,1.15-.23s-.4.21-1,.56a4.82,4.82,0,0,0-1.78,1.85,4.93,4.93,0,0,0-.53,2.52C175.14,267.74,175.27,268.16,175.19,268.19Z" style="fill:#fff"></path><g style="opacity:0.30000000000000004"><path d="M185.24,281.12a3.22,3.22,0,0,0-3.62,1,4.71,4.71,0,0,0-.94,3.76,3.81,3.81,0,0,0,1.32,2.52,3,3,0,0,0,3.34.1,3.77,3.77,0,0,0,1.72-2.95c.08-1.18-.33-3.88-1.82-4.39" style="fill:#fff"></path></g><path d="M181.74,286.43c-.06,0-.28-.27-.4-.84a3.42,3.42,0,0,1,2-3.76c.54-.22.9-.2.92-.14s-1.36.49-2.11,1.91A5.92,5.92,0,0,0,181.74,286.43Z" style="fill:#fff"></path><g style="opacity:0.30000000000000004"><path d="M325.12,258.38a2.49,2.49,0,0,1,2.79.74,3.67,3.67,0,0,1,.73,2.91,2.92,2.92,0,0,1-1,1.94,2.33,2.33,0,0,1-2.58.08,2.91,2.91,0,0,1-1.33-2.28c-.06-.91.25-3,1.41-3.39" style="fill:#fff"></path></g><path d="M327.82,262.48a5.41,5.41,0,0,0-.36-2.15c-.56-1.07-1.62-1.37-1.58-1.51s.3-.09.73.08a2.59,2.59,0,0,1,1.56,2.94C328.06,262.28,327.88,262.51,327.82,262.48Z" style="fill:#fff"></path><g style="opacity:0.30000000000000004"><path d="M334.45,251.19a4.38,4.38,0,0,1,4.42,2.52,6.46,6.46,0,0,1-.06,5.29,5.17,5.17,0,0,1-2.62,2.85,4.15,4.15,0,0,1-4.43-1,5.15,5.15,0,0,1-1.24-4.49c.3-1.58,1.78-5,3.93-5.15" style="fill:#fff"></path></g><path d="M337.21,259.39c-.07,0,.18-.44.41-1.12a5.32,5.32,0,0,0,.14-2.75,5.22,5.22,0,0,0-1.34-2.4c-.51-.52-.9-.76-.87-.83s.5.07,1.12.56A4.63,4.63,0,0,1,338,258.4C337.62,259.11,337.25,259.43,337.21,259.39Z" style="fill:#fff"></path><g style="opacity:0.30000000000000004"><path d="M191.59,268.65a3.21,3.21,0,0,0-3.61,1,4.73,4.73,0,0,0-.94,3.77,3.75,3.75,0,0,0,1.32,2.51,3,3,0,0,0,3.34.11,3.79,3.79,0,0,0,1.72-3c.08-1.18-.33-3.88-1.83-4.39" style="fill:#fff"></path></g><path d="M188.1,274c-.06,0-.28-.27-.4-.84a3.46,3.46,0,0,1,.33-2.23,3.38,3.38,0,0,1,1.66-1.52c.54-.23.9-.21.91-.15s-1.35.5-2.11,1.92A5.67,5.67,0,0,0,188.1,274Z" style="fill:#fff"></path><g style="opacity:0.30000000000000004"><path d="M193.92,353.58a1.61,1.61,0,0,0-1.8.47,2.36,2.36,0,0,0-.47,1.89,1.91,1.91,0,0,0,.66,1.26,1.51,1.51,0,0,0,1.67.05,1.94,1.94,0,0,0,.86-1.48c0-.59-.17-1.94-.92-2.19" style="fill:#fff"></path></g><path d="M192.18,356.23c-.07,0-.21-.11-.29-.41a1.6,1.6,0,0,1,.14-1.18,1.66,1.66,0,0,1,.9-.79c.29-.09.49-.05.5,0s-.61.37-.94,1S192.31,356.18,192.18,356.23Z" style="fill:#fff"></path><g style="opacity:0.30000000000000004"><path d="M182.37,367.89a1.61,1.61,0,0,0-1.81.48,2.36,2.36,0,0,0-.47,1.89,1.86,1.86,0,0,0,.66,1.25,1.53,1.53,0,0,0,1.67.06,1.91,1.91,0,0,0,.86-1.48c0-.59-.17-1.94-.91-2.2" style="fill:#fff"></path></g><path d="M180.62,370.55c-.06,0-.21-.11-.29-.41a1.65,1.65,0,0,1,1-2c.29-.1.49-.06.5,0s-.6.37-.94,1S180.75,370.5,180.62,370.55Z" style="fill:#fff"></path><path d="M278.19,170s.49,0,1.46,0l4.29,0,16.73,0,63.15-.06H364l0,.17c-2.37,16.94-5.07,36.28-8.06,57.62v.07l-4.58,8.1,0-.08c-4.15,54.17-9.23,120.56-14.89,194.54v.06l0,.06-3.5,5.45,0-.12c-.57,6.78-1.19,14.22-1.81,21.72v.07l0,.05-2.9,4.35.05-.14v15.82H177.78V461.79l0,.14-2.89-4.35,0-.05v-.07q-.9-10.95-1.8-21.72l0,.12-3.51-5.45,0-.05v-.07c-5.52-72.07-10.58-138.2-14.9-194.54l0,.09-4.58-8.1v-.07c-2.92-20.86-5.61-40-8.08-57.63l0-.2h.21l99.75.07,26.9.05,7,0,2.37,0-2.37,0-7,0-26.9,0-99.75.09.18-.2c2.48,17.63,5.19,36.77,8.13,57.62l0-.07c1.48,2.61,3,5.25,4.58,8.09l0,0v.05c4.34,56.34,9.44,122.46,15,194.53l0-.12,3.51,5.45,0,.06v.06q.9,10.77,1.81,21.72l0-.12,2.89,4.34.05.07v15.64l-.26-.26H328l-.25.25V461.71l0-.07,2.9-4.34,0,.12c.62-7.5,1.24-14.94,1.81-21.72v-.06l0-.05,3.5-5.45,0,.11c5.7-74,10.82-140.36,15-194.53v0l0,0,4.58-8.09,0,.06c3-21.34,5.74-40.67,8.14-57.62l.14.17-63.15-.07-16.73,0-4.29,0Z" style="fill:#263238"></path><path d="M369.42,170a4.64,4.64,0,0,0,1.22-.24,3.72,3.72,0,0,0,2.35-2.55,4.64,4.64,0,0,0-.12-2.61,3.71,3.71,0,0,0-2.23-2.15,4.69,4.69,0,0,0-1.78-.2h-6.28l-51.7.08-170.56.08a3.47,3.47,0,0,0-2.58,1.13,3.6,3.6,0,0,0-.93,2.68,3.48,3.48,0,0,0,1.13,2.56,3.57,3.57,0,0,0,2.66.94h36.21l45.28,0,76.68,0,51.7.08,14,0,3.66,0,1.24,0-1.24,0-3.66,0-14,.05-51.7.08-76.68.06H140.6a4.1,4.1,0,0,1-3-1.07,4,4,0,0,1-1.3-2.95,4.12,4.12,0,0,1,1.07-3,4,4,0,0,1,3-1.3l170.56.07,51.7.08,4.32,0h2a4.83,4.83,0,0,1,1.83.23,3.83,3.83,0,0,1,2.3,2.24,4,4,0,0,1,.25,1.41,4.09,4.09,0,0,1-.15,1.28,3.76,3.76,0,0,1-2.44,2.57,3.46,3.46,0,0,1-.91.18Z" style="fill:#263238"></path><path d="M327.24,462.18c0,.14-32.35.26-72.25.26s-72.25-.12-72.25-.26,32.34-.26,72.25-.26S327.24,462,327.24,462.18Z" style="fill:#263238"></path><path d="M330.88,457.4c0,.15-34.16.26-76.3.26s-76.3-.11-76.3-.26,34.16-.26,76.3-.26S330.88,457.26,330.88,457.4Z" style="fill:#263238"></path><path d="M332.69,435.79c0,.15-35.41.26-79.07.26s-79.08-.11-79.08-.26,35.4-.26,79.08-.26S332.69,435.65,332.69,435.79Z" style="fill:#263238"></path><path d="M336.19,430.45c0,.14-37.31.26-83.32.26s-83.32-.12-83.32-.26,37.3-.26,83.32-.26S336.19,430.31,336.19,430.45Z" style="fill:#263238"></path><path d="M350.8,235.6c0,.15-43.28.26-96.65.26s-96.67-.11-96.67-.26,43.27-.26,96.67-.26S350.8,235.46,350.8,235.6Z" style="fill:#263238"></path><path d="M355.86,227.83c0,.14-46.05.26-102.84.26s-102.86-.12-102.86-.26,46-.27,102.86-.27S355.86,227.68,355.86,227.83Z" style="fill:#263238"></path><g style="opacity:0.30000000000000004"><path d="M150.72,227.83l4.16,7.86c63.78,0,132.71-.09,196.49-.09l4.24-7.77Z"></path></g><g style="opacity:0.30000000000000004"><path d="M169.55,430.45l3.68,5.48c48,0,111.44-.25,159.46-.25l3.23-5.23Z"></path></g><g style="opacity:0.30000000000000004"><path d="M174.59,457.4l3.69,4.57c48,0,101.68.21,149.7.21l2.56-4.78Z"></path></g><path d="M176.28,413.7a2.19,2.19,0,0,1-.05-.44c0-.32-.06-.75-.1-1.3-.08-1.16-.19-2.84-.34-5-.28-4.36-.68-10.61-1.17-18.33-1-15.48-2.44-36.86-4.22-60.45s-3.55-45-4.89-60.41c-.66-7.71-1.2-14-1.58-18.3-.18-2.14-.32-3.81-.41-5,0-.55-.08-1-.1-1.3a2.09,2.09,0,0,1,0-.44,2.37,2.37,0,0,1,.06.44q.06.47.15,1.29l.51,5c.42,4.35,1,10.59,1.75,18.29,1.43,15.44,3.26,36.79,5,60.4s3.16,45,4.07,60.47c.42,7.72.77,14,1,18.34.1,2.14.18,3.82.23,5,0,.55,0,1,.05,1.29A2.54,2.54,0,0,1,176.28,413.7Z" style="fill:#263238"></path><path d="M155.84,221.82c-.14,0-1.46-9.54-3-21.35s-2.57-21.4-2.43-21.42,1.46,9.54,2.95,21.35S156,221.8,155.84,221.82Z" style="fill:#263238"></path><g style="opacity:0.30000000000000004"><path d="M323,363.9a4.65,4.65,0,0,1,5.21,1.39,6.82,6.82,0,0,1,1.36,5.43,5.49,5.49,0,0,1-1.9,3.63,4.41,4.41,0,0,1-4.82.15,5.47,5.47,0,0,1-2.48-4.26c-.12-1.7.47-5.59,2.63-6.34" style="fill:#fff"></path></g><path d="M328,371.56c-.08,0,.08-.5.13-1.26a5.48,5.48,0,0,0-.6-2.86,5.41,5.41,0,0,0-2-2.1c-.65-.4-1.13-.53-1.11-.61s.53-.06,1.28.28a4.92,4.92,0,0,1,2.82,5.33C328.33,371.15,328.05,371.59,328,371.56Z" style="fill:#fff"></path><g style="opacity:0.30000000000000004"><path d="M312.11,358.36a2.49,2.49,0,0,1,2.79.74,3.67,3.67,0,0,1,.73,2.91,3,3,0,0,1-1,1.95A2.37,2.37,0,0,1,312,364a2.93,2.93,0,0,1-1.33-2.28c-.07-.92.25-3,1.41-3.4" style="fill:#fff"></path></g><path d="M314.81,362.46a5.43,5.43,0,0,0-.36-2.15c-.56-1.07-1.62-1.37-1.58-1.51s.3-.09.73.08a2.61,2.61,0,0,1,1.56,2.94C315.05,362.27,314.87,362.49,314.81,362.46Z" style="fill:#fff"></path><g style="opacity:0.30000000000000004"><path d="M331.1,341.8a2.47,2.47,0,0,1,2.79.74,3.67,3.67,0,0,1,.73,2.91,2.92,2.92,0,0,1-1,1.94,2.35,2.35,0,0,1-2.58.08,2.94,2.94,0,0,1-1.33-2.28c-.06-.91.25-3,1.41-3.39" style="fill:#fff"></path></g><path d="M333.8,345.9a5.41,5.41,0,0,0-.36-2.15c-.56-1.07-1.62-1.37-1.58-1.51s.3-.09.73.07a2.65,2.65,0,0,1,1.31,1.19,2.61,2.61,0,0,1,.25,1.75C334,345.7,333.86,345.92,333.8,345.9Z" style="fill:#fff"></path><g style="opacity:0.30000000000000004"><path d="M326.19,335.38a10.38,10.38,0,0,1-.3,1.65c-.22,1.06-.56,2.58-.79,4.48a20.94,20.94,0,0,0,.22,6.67c.22,1.25.49,2.57.66,4a16.6,16.6,0,0,1,.14,2.14,6.45,6.45,0,0,1-.32,2.23,2.93,2.93,0,0,1-1.54,1.73,2,2,0,0,1-2.25-.33,3,3,0,0,1-.84-2,5.48,5.48,0,0,1,.35-2c.2-.61.42-1.19.56-1.75a7.64,7.64,0,0,0,.2-1.69c0-1.11-.11-2.17-.16-3.13-.11-1.86-.2-3.4-.27-4.56a11.94,11.94,0,0,1,0-1.68,9.33,9.33,0,0,1,.23,1.66c.11,1.17.26,2.7.43,4.55.08,1,.21,2,.23,3.16a7.94,7.94,0,0,1-.18,1.79c-.15.61-.37,1.2-.55,1.8a5.07,5.07,0,0,0-.31,1.83,2.48,2.48,0,0,0,.69,1.67,1.5,1.5,0,0,0,1.68.23,2.39,2.39,0,0,0,1.27-1.44,5.91,5.91,0,0,0,.29-2.06,15.76,15.76,0,0,0-.12-2.07c-.16-1.37-.43-2.68-.63-3.94a20.36,20.36,0,0,1-.12-6.8,42.19,42.19,0,0,1,1-4.48A11.06,11.06,0,0,1,326.19,335.38Z" style="fill:#fff"></path></g><g style="opacity:0.30000000000000004"><path d="M193.76,363a10.38,10.38,0,0,1-.3,1.65c-.22,1.06-.56,2.58-.8,4.48a20.68,20.68,0,0,0,.23,6.67c.21,1.25.49,2.57.66,4a18.61,18.61,0,0,1,.14,2.14,6.46,6.46,0,0,1-.33,2.23,2.87,2.87,0,0,1-1.54,1.73,2,2,0,0,1-2.25-.33,3,3,0,0,1-.84-2,5.93,5.93,0,0,1,.35-2c.2-.61.43-1.19.57-1.75a7.62,7.62,0,0,0,.19-1.69c0-1.11-.11-2.17-.16-3.13-.11-1.86-.2-3.4-.26-4.56a10.26,10.26,0,0,1,0-1.68,9.33,9.33,0,0,1,.23,1.66c.11,1.17.25,2.7.43,4.55.07,1,.21,2,.22,3.16a7.4,7.4,0,0,1-.18,1.79c-.14.61-.36,1.2-.55,1.8a5.29,5.29,0,0,0-.31,1.83,2.54,2.54,0,0,0,.69,1.67,1.51,1.51,0,0,0,1.69.23,2.45,2.45,0,0,0,1.27-1.44,6.15,6.15,0,0,0,.29-2.06,17.7,17.7,0,0,0-.13-2.07c-.16-1.37-.42-2.68-.63-3.94a20.6,20.6,0,0,1-.11-6.8,37.68,37.68,0,0,1,1-4.48A9.67,9.67,0,0,1,193.76,363Z" style="fill:#fff"></path></g><g style="opacity:0.30000000000000004"><path d="M199.5,381.58l9.87,41.53a9.61,9.61,0,0,0,11.91,7l39.18-10.8a9.61,9.61,0,0,0,6.74-11.7L256.55,367a9.62,9.62,0,0,0-11.7-6.87l-38.41,9.93A9.61,9.61,0,0,0,199.5,381.58Z" style="fill:#fff"></path></g><g style="opacity:0.30000000000000004"><path d="M236.26,420.59a7.25,7.25,0,0,0-4.7-.53c-1.8.4-3.61,1.5-5.35.89a6.4,6.4,0,0,1-2.59-2.21,4.63,4.63,0,0,0-2.78-1.88c-1.14-.13-2.42,1-2,2-1.75-2.21-7.83-5.85-7.39-3.93,1.49,4.15,3.34,8.72,7.36,10.55,2.88,1.31,6.24.87,9.31.12a52.35,52.35,0,0,0,7.8-2.57c.65-.28,1.42-.76,1.32-1.47A1.51,1.51,0,0,0,236.26,420.59Z" style="fill:#fff"></path></g><g style="opacity:0.30000000000000004"><path d="M259.2,393.82c-1.4-8.28-2.84-16.69-6.51-24.23-.89-1.83-2-3.71-3.89-4.5s-3.82-.36-5.71.05l-28.87,6.3-2,.48a1.06,1.06,0,0,0-.23,1.62,2.66,2.66,0,0,0,1.72.74c2.91.39,5.84-.33,8.77-.67s6.12-.21,8.45,1.57c1.38,1.05,2.55,2.7,4.28,2.79,1.52.07,2.8-1.13,4.28-1.48a5.6,5.6,0,0,1,5.15,1.9,21.36,21.36,0,0,1,3,4.86,47.93,47.93,0,0,0,8.19,11.15,3.81,3.81,0,0,0,1.64,1.15,1.4,1.4,0,0,0,1.7-.72A2.15,2.15,0,0,0,259.2,393.82Z" style="fill:#fff"></path></g><path d="M212.27,410.91c-.14,0-2.19-6.55-4.59-14.72s-4.23-14.83-4.09-14.87,2.19,6.55,4.59,14.72S212.41,410.87,212.27,410.91Z" style="fill:#fff"></path><path d="M244.24,365.54c0,.14-8.48,1.95-19,4s-19.07,3.68-19.1,3.54,8.48-1.95,19-4.05S244.21,365.4,244.24,365.54Z" style="fill:#fff"></path><path d="M262.42,405.54c-.15,0-.34-1.62-.89-3.54s-1.23-3.42-1.09-3.49a8,8,0,0,1,1.59,3.35A7.74,7.74,0,0,1,262.42,405.54Z" style="fill:#fff"></path><path d="M245.52,403c-.13.05-2.81-6.69-6-15.06s-5.64-15.2-5.5-15.25,2.81,6.69,6,15.06S245.65,403,245.52,403Z" style="fill:#fff"></path><g style="opacity:0.30000000000000004"><path d="M272.57,268,237,244.4a9.61,9.61,0,0,0-13.5,3l-21.21,34.67a9.62,9.62,0,0,0,3.08,13.15l35.57,22.38a9.61,9.61,0,0,0,13.24-3l21.23-33.5A9.6,9.6,0,0,0,272.57,268Z" style="fill:#fff"></path></g><g style="opacity:0.30000000000000004"><path d="M270,279.19c-.86-1.08-2.56-.77-3.83-.24-8.42,3.51-13.65,12.06-21.45,16.8a5.07,5.07,0,0,1-2.75.95,2,2,0,0,1-2-1.76c0-.75.55-1.38.81-2.08.78-2.1-1.28-4.34-3.48-4.76s-4.43.37-6.61.85a25.4,25.4,0,0,1-16.09-1.79c-1.84-.87-3.67-2-5.71-2.07s-4.33,1.39-4.21,3.43l.58,1.26c10.89,6.73,23.36,12.39,34.25,19.13,1.61,1,3.43,2,5.3,1.71a7.68,7.68,0,0,0,3.71-2.33,137.75,137.75,0,0,0,20.86-25.15C270.11,281.94,270.86,280.3,270,279.19Z" style="fill:#fff"></path></g><path d="M207.79,290.42c0,.05-.58-.12-1.25-.76a4.91,4.91,0,0,1-.5-6.58c.57-.73,1.1-1,1.13-.93s-.37.42-.83,1.14a5.06,5.06,0,0,0,.47,6.12C207.36,290.06,207.84,290.35,207.79,290.42Z" style="fill:#fff"></path><path d="M225.64,252.46a4.38,4.38,0,0,1-.43,1c-.3.64-.76,1.55-1.34,2.67-1.17,2.25-2.86,5.31-4.83,8.62s-3.87,6.25-5.28,8.35c-.71,1-1.3,1.88-1.72,2.45a4.33,4.33,0,0,1-.69.86,4.8,4.8,0,0,1,.52-1l1.58-2.54c1.33-2.15,3.17-5.11,5.14-8.42s3.7-6.33,4.95-8.52c.59-1,1.09-1.88,1.49-2.6A4.54,4.54,0,0,1,225.64,252.46Z" style="fill:#fff"></path><path d="M234.82,306.78c-.07.12-4.36-2.09-9.58-4.95s-9.39-5.28-9.32-5.4,4.36,2.09,9.58,4.94S234.89,306.65,234.82,306.78Z" style="fill:#fff"></path><path d="M228,249.14c.15,0,.25.3,0,.5s-.55,0-.49-.12a1,1,0,0,1,.18-.29A.77.77,0,0,1,228,249.14Z" style="fill:#fff"></path><path d="M209.19,350.67a10,10,0,0,1-4-3.74,11,11,0,0,1,0-10.86,10,10,0,0,1,4-3.74,11.87,11.87,0,0,1,5.7-1.34,12.19,12.19,0,0,1,5,1,9.68,9.68,0,0,1,3.7,2.83L220,338.09a6,6,0,0,0-4.77-2.37,5.77,5.77,0,0,0-2.93.73,5.07,5.07,0,0,0-2,2,6.86,6.86,0,0,0,0,6,5.1,5.1,0,0,0,2,2,5.86,5.86,0,0,0,2.93.72,6,6,0,0,0,4.77-2.37l3.64,3.29a9.68,9.68,0,0,1-3.7,2.83,12.19,12.19,0,0,1-5,1A11.87,11.87,0,0,1,209.19,350.67Z" style="fill:#fff"></path><path d="M228.7,350.83a7.9,7.9,0,0,1,0-14.11,10.61,10.61,0,0,1,9.12,0,7.61,7.61,0,0,1,4.27,7,7.89,7.89,0,0,1-1.12,4.19,7.73,7.73,0,0,1-3.15,2.89,10.47,10.47,0,0,1-9.1,0Zm6.9-4.32a3.87,3.87,0,0,0,.93-2.76,3.78,3.78,0,0,0-.93-2.71,3.36,3.36,0,0,0-4.74,0,3.82,3.82,0,0,0-.92,2.71,3.91,3.91,0,0,0,.92,2.76,3.31,3.31,0,0,0,4.74,0Z" style="fill:#fff"></path><path d="M250.59,336.53h3.73v4.1h-3.58v11h-5.49v-11H243v-4.1h2.28v-.4a6,6,0,0,1,1.72-4.54,6.62,6.62,0,0,1,4.81-1.67,9.61,9.61,0,0,1,2,.2,4.81,4.81,0,0,1,1.62.61l-1.36,3.87a3.27,3.27,0,0,0-1.65-.46,1.74,1.74,0,0,0-1.34.51,2.2,2.2,0,0,0-.48,1.54Z" style="fill:#fff"></path><path d="M262.32,336.53h3.73v4.1h-3.59v11H257v-11h-2.29v-4.1H257v-.4a6.07,6.07,0,0,1,1.71-4.54,6.64,6.64,0,0,1,4.81-1.67,9.71,9.71,0,0,1,2,.2,4.67,4.67,0,0,1,1.61.61l-1.35,3.87a3.27,3.27,0,0,0-1.65-.46,1.73,1.73,0,0,0-1.34.51,2.2,2.2,0,0,0-.48,1.54Z" style="fill:#fff"></path><path d="M283.81,345.17H272.43a3.17,3.17,0,0,0,1.34,1.86,4.45,4.45,0,0,0,2.5.65,5.24,5.24,0,0,0,2-.32,5.54,5.54,0,0,0,1.66-1l2.89,3q-2.28,2.54-6.67,2.54a10.66,10.66,0,0,1-4.82-1,7.91,7.91,0,0,1-.18-14.1,9.85,9.85,0,0,1,8.67-.07,7.47,7.47,0,0,1,3,2.8,8.28,8.28,0,0,1,1.11,4.35S283.87,344.3,283.81,345.17Zm-10.38-4.85a3.27,3.27,0,0,0-1.09,2h6.42a3.27,3.27,0,0,0-1.09-2,3.44,3.44,0,0,0-4.24,0Z" style="fill:#fff"></path><path d="M302.36,345.17H291a3.19,3.19,0,0,0,1.35,1.86,4.43,4.43,0,0,0,2.5.65,5.24,5.24,0,0,0,1.95-.32,5.54,5.54,0,0,0,1.66-1l2.89,3c-1.53,1.69-3.75,2.54-6.68,2.54a10.69,10.69,0,0,1-4.82-1,7.67,7.67,0,0,1-3.22-2.89,7.93,7.93,0,0,1,3-11.21,9.83,9.83,0,0,1,8.66-.07,7.41,7.41,0,0,1,3,2.8,8.28,8.28,0,0,1,1.11,4.35S302.41,344.3,302.36,345.17ZM292,340.32a3.21,3.21,0,0,0-1.08,2h6.41a3.26,3.26,0,0,0-1.08-2,3.46,3.46,0,0,0-4.25,0Z" style="fill:#fff"></path><path d="M272.55,321.33a7.4,7.4,0,0,0,3.18-2.28c.87-1.34.59-2.88.64-4.33a10.75,10.75,0,0,1,3.08-6.84,9,9,0,0,1,5.92-2.78,10.66,10.66,0,0,0-5.61-2,11.9,11.9,0,0,0-6.28,1.53A17.71,17.71,0,0,0,265,316.24a12,12,0,0,0,.48,6.48,10.35,10.35,0,0,0,1.72,3A17.87,17.87,0,0,1,272.55,321.33Z" style="fill:#fff"></path><path d="M290,316.67a11.69,11.69,0,0,0-.49-6.43,10.63,10.63,0,0,0-2.15-3.34c-1.2.41-2.41.76-3.6,1.25-2.1.87-4.34,2.58-4.94,4.87-.39,1.48,0,2.87-.28,4.35-.48,2.63-2.92,4.82-5.27,6.08-1.84,1-3.18,2-5,3,.5.55.4.8,1,1.26a10.71,10.71,0,0,0,5.94,2.12,11.92,11.92,0,0,0,6.3-1.55,16.84,16.84,0,0,0,5.44-4.93A16.64,16.64,0,0,0,290,316.67Z" style="fill:#fff"></path><path d="M247.57,320.71a5.16,5.16,0,0,0-.24-2.67c-.49-1-1.5-1.35-2.34-1.88a7.35,7.35,0,0,1-3-4.2,6.15,6.15,0,0,1,.41-4.45,7.27,7.27,0,0,0-3.11,2.62,8.11,8.11,0,0,0-1.28,4.24,11.16,11.16,0,0,0,1,4.89,11.27,11.27,0,0,0,2.91,4.1,8.15,8.15,0,0,0,4,2,7.13,7.13,0,0,0,2.35,0A12.14,12.14,0,0,1,247.57,320.71Z" style="fill:#fff"></path><path d="M250.88,308.79a8,8,0,0,0-3.95-1.94,7.11,7.11,0,0,0-2.72.1c-.17.85-.39,1.69-.52,2.56a5.66,5.66,0,0,0,1.15,4.61c.74.74,1.7,1,2.48,1.67,1.38,1.2,1.83,3.4,1.75,5.23-.06,1.42.06,2.56,0,4,.51-.1.61,0,1.11-.17a7.33,7.33,0,0,0,3.31-2.77,8.14,8.14,0,0,0,1.28-4.25,12.34,12.34,0,0,0-3.91-9Z" style="fill:#fff"></path><path d="M281.53,333.94c0-.06.93,0,2.6-.12a36.39,36.39,0,0,0,7-1.05,37.76,37.76,0,0,0,9.65-3.95,33.8,33.8,0,0,0,5-3.56,15.31,15.31,0,0,0,1.22-1.07c.39-.37.81-.73,1.18-1.14s.78-.8,1.13-1.21.59-.89.37-1.26a1.51,1.51,0,0,0-1.27-.55c-.52,0-1.1.05-1.64.07s-1.09.1-1.63.17-1.08.14-1.6.25a32.21,32.21,0,0,0-5.93,1.68,37.85,37.85,0,0,0-9.12,5.06,38.5,38.5,0,0,0-5.23,4.74c-1.13,1.23-1.7,2-1.74,1.94a2.56,2.56,0,0,1,.38-.56,18.68,18.68,0,0,1,1.21-1.51,33.93,33.93,0,0,1,5.16-4.9,37.19,37.19,0,0,1,9.17-5.22,32.1,32.1,0,0,1,6-1.73c.53-.12,1.07-.19,1.62-.26s1.1-.15,1.66-.17a16,16,0,0,1,1.72-.08,2,2,0,0,1,1.69.83,1.24,1.24,0,0,1,.06,1,2.75,2.75,0,0,1-.48.8c-.39.44-.79.83-1.17,1.24s-.8.78-1.2,1.16-.81.75-1.24,1.09a33.83,33.83,0,0,1-5.12,3.57,36.72,36.72,0,0,1-9.81,3.9,33.29,33.29,0,0,1-7.05.89,18.52,18.52,0,0,1-1.94,0A5,5,0,0,1,281.53,333.94Z" style="fill:#fff"></path><path d="M301.29,324.89a23.3,23.3,0,0,1-2.87,1.4l-7,3.18-7,3.24a22.25,22.25,0,0,1-2.93,1.27,17.45,17.45,0,0,1,2.77-1.6c1.75-.92,4.19-2.13,6.93-3.39s5.26-2.32,7.09-3A17.32,17.32,0,0,1,301.29,324.89Z" style="fill:#fff"></path><path d="M260.31,317.45s.31-.4.75-1.18a11,11,0,0,0,1.19-3.54,15.1,15.1,0,0,0-.11-5.54,16.2,16.2,0,0,0-1-3.14,14.92,14.92,0,0,0-.76-1.56c-.14-.26-.29-.51-.45-.76s-.36-.53-.43-.52-.28.2-.42.45-.31.49-.46.75A10.5,10.5,0,0,0,258,304a13.31,13.31,0,0,0-.72,3.19,13.8,13.8,0,0,0,.53,5.5,11.13,11.13,0,0,0,1.66,3.35c.54.71.93,1,.9,1.07s-.12-.06-.31-.21a6.9,6.9,0,0,1-.74-.73,10.25,10.25,0,0,1-1.86-3.37,13.51,13.51,0,0,1-.65-5.66,12.92,12.92,0,0,1,.71-3.31,10,10,0,0,1,.72-1.66c.15-.27.3-.53.48-.79a3.07,3.07,0,0,1,.29-.4.75.75,0,0,1,.62-.28.86.86,0,0,1,.54.36,4,4,0,0,1,.27.4c.17.26.32.53.47.79a15,15,0,0,1,.77,1.62,16.31,16.31,0,0,1,1,3.23,14.7,14.7,0,0,1,0,5.7,10.19,10.19,0,0,1-1.38,3.59,6.1,6.1,0,0,1-.64.83C260.42,317.38,260.33,317.46,260.31,317.45Z" style="fill:#fff"></path><path d="M242.74,330a1.68,1.68,0,0,1-.49.09l-1.43.17c-1.25.13-3,.3-5.3.34a27.41,27.41,0,0,1-7.83-.93,15.91,15.91,0,0,1-8.12-5.14l-.27-.34-.29-.36.47-.06a34.54,34.54,0,0,1,16.93,2.45,31.1,31.1,0,0,1,4.63,2.39c.53.31.91.61,1.17.79s.4.29.39.31a17,17,0,0,1-1.66-.93,39,39,0,0,0-4.66-2.22,35.49,35.49,0,0,0-16.74-2.27l.18-.41.26.33a15.63,15.63,0,0,0,7.85,5,28,28,0,0,0,7.69,1c2.23,0,4-.11,5.28-.17l1.44-.07A1.73,1.73,0,0,1,242.74,330Z" style="fill:#fff"></path><path d="M225.92,326.87a11,11,0,0,1,2.47.2c1.52.2,3.62.54,5.91,1s4.36.92,5.85,1.31a10.76,10.76,0,0,1,2.37.74,12.58,12.58,0,0,1-2.45-.38l-5.87-1.16-5.87-1.13A12.64,12.64,0,0,1,225.92,326.87Z" style="fill:#fff"></path></g></svg>
