<svg xmlns="http://www.w3.org/2000/svg" viewBox="0 0 500 500"><g id="freepik--Floor--inject-1025"><path d="M457.9,416.6c0,.14-93.11.26-207.94.26S42,416.74,42,416.6s93.08-.26,208-.26S457.9,416.45,457.9,416.6Z" style="fill:#263238"></path></g><g id="freepik--Penguin--inject-1025"><path d="M278.18,95.16S169.82,82.78,157.9,190.78c-6.26,56.75,5.08,36.41-23.12,137C110,416,160.65,463.48,216.19,463.48h67.44Z" style="fill:#263238"></path><path d="M255.81,95.11s105-12.33,116.9,95.67c6.26,56.75-4.12,33.82,21.46,135.1,23.07,91.38-25.34,128-83.16,137.6H247Z" style="fill:#263238"></path><path d="M270.88,207.88s.52-59.06-28.44-66.71c-36.46-9.64-78.86,6.16-59,80.16s37.32,67.83,34.92,90.26-43.94,63.9-16.86,114.92c0,0,18.06,28.35,63.29,23.65Z" style="fill:#fafafa"></path><path d="M249.77,207.88s-.52-59.06,28.44-66.71c36.46-9.64,78.86,6.16,59,80.16s-37.32,67.83-34.91,90.26,43.94,63.9,16.86,114.92c0,0-28.17,26.9-72.17,24.1Z" style="fill:#fafafa"></path><path d="M181.86,312.19a92,92,0,0,1-71.07,42.11c-7.64.46-15.56-.1-22.46-3.42s-12.62-9.8-13.42-17.41c-.73-7,2.7-13.86,7.49-19s10.87-8.83,16.72-12.71c17.1-11.34,40.83-29.39,55-44.25" style="fill:#263238"></path><path d="M284.69,419.46c1.82-4.06,6-7.28,10.46-6.77,3.16.37,6,2.54,9.22,2.3,3.61-.26,6.23-3.46,9.48-5.05a11.61,11.61,0,0,1,15.06,5.48c.92,2.07,1.39,4.63,3.37,5.73,2.75,1.53,5.94-.94,9-1.57,4.62-.93,9.23,2.7,10.83,7.14s.84,9.35-.39,13.9c-2.25,8.28-6.19,16.3-12.55,22.07s-18.72,8.29-27.2,7c-23.73-3.59-25.1-20.18-28.15-37.15C283.05,428.18,282.88,423.51,284.69,419.46Z" style="fill:#FF725E"></path><path d="M177,426.74c1.6-4.44,6.22-8.08,10.84-7.14,3.09.63,6.28,3.1,9,1.57,2-1.1,2.45-3.67,3.37-5.74A11.61,11.61,0,0,1,215.36,410c3.26,1.58,5.88,4.79,9.5,5.05,3.19.24,6.07-1.93,9.24-2.3,4.42-.52,8.65,2.71,10.47,6.77s1.64,8.74.86,13.12c-3.06,17-12.3,31.59-29.23,36.62l-2.46.65c-8.38,1.9-17.39-1.32-23.76-7.09s-10.3-13.81-12.56-22.1C176.18,436.11,175.43,431.18,177,426.74Z" style="fill:#FF725E"></path><path d="M268.46,69.32c-1.38-3.68-4.11-7.64-8-7.54-3.17.08-5.69,3-6.4,6.09s-.05,6.31.62,9.41c-2.36-1.74-4.87-3.55-7.78-3.93s-6.32,1.25-6.83,4.14c-.34,1.93.63,3.82,1.57,5.54L252,102l16-4.1A39.27,39.27,0,0,0,268.46,69.32Z" style="fill:#263238"></path><circle cx="295.48" cy="188.69" r="15.53" transform="translate(8.86 390.59) rotate(-67.72)" style="fill:#263238"></circle><circle cx="224.63" cy="191.68" r="15.53" style="fill:#263238"></circle><path d="M281.65,207.19l.68,3.62a24,24,0,0,1-42.37.11Z" style="fill:#FF725E"></path><path d="M283.63,211.58c-1.74-7.85-9.29-12.49-17.29-13.26s-16,2.52-22.4,7.35c-2.66,2-5.64,4-4.44,7.13.89,2.28,8.79,5.78,11.17,6.36,11.77,2.88,25.9-.19,33-7.58" style="fill:#FF725E"></path><path d="M236.89,207.21c.05,0,.32.76,1,2.07a17.18,17.18,0,0,0,3.75,4.88,21.84,21.84,0,0,0,8,4.42,28.79,28.79,0,0,0,5.29,1.15,33.84,33.84,0,0,0,5.82.25,38.85,38.85,0,0,0,19.38-5.9,27.27,27.27,0,0,0,4.82-3.9c1-1.05,1.53-1.69,1.57-1.65a2.23,2.23,0,0,1-.34.48,13.74,13.74,0,0,1-1.08,1.31,25.6,25.6,0,0,1-4.77,4.07,38.1,38.1,0,0,1-19.56,6.11,33.7,33.7,0,0,1-5.9-.27,28,28,0,0,1-5.38-1.2,21.42,21.42,0,0,1-8.06-4.6,16.29,16.29,0,0,1-3.69-5.06,12.63,12.63,0,0,1-.63-1.59A2.1,2.1,0,0,1,236.89,207.21Z" style="fill:#263238"></path><path d="M288.37,160a2.42,2.42,0,0,1,0-2.34,5,5,0,0,1,.91-1.5,8.63,8.63,0,0,1,1.58-1.55,11.86,11.86,0,0,1,2.23-1.43,16.53,16.53,0,0,1,2.83-1.13,19.23,19.23,0,0,1,13.59,1.09,16.38,16.38,0,0,1,2.61,1.56,12.35,12.35,0,0,1,2,1.77,8.81,8.81,0,0,1,1.31,1.78,5.32,5.32,0,0,1,.66,1.63,2.41,2.41,0,0,1-.41,2.3c-1,1.07-3,.92-5.33.61l-3.87-.56c-1.41-.17-2.9-.36-4.48-.5s-3.08-.16-4.49-.22l-3.92-.06C291.18,161.35,289.21,161.18,288.37,160Z" style="fill:#263238"></path><path d="M206.55,165.58a2.43,2.43,0,0,1-1-2.12,5.54,5.54,0,0,1,.22-1.74,8.83,8.83,0,0,1,.82-2.06,11.69,11.69,0,0,1,1.45-2.22,16,16,0,0,1,2.12-2.18,19.74,19.74,0,0,1,6-3.46,20,20,0,0,1,6.85-1.1,16.52,16.52,0,0,1,3,.37,12.32,12.32,0,0,1,2.53.8,9,9,0,0,1,1.93,1.09,5.31,5.31,0,0,1,1.27,1.22,2.4,2.4,0,0,1,.56,2.27c-.49,1.39-2.35,2.05-4.62,2.74l-3.76,1.06c-1.36.42-2.79.85-4.29,1.37s-2.88,1.11-4.19,1.64l-3.6,1.54C209.67,165.7,207.8,166.35,206.55,165.58Z" style="fill:#263238"></path><path d="M284.89,207.45a2.6,2.6,0,0,1,2.26.81c1.07.93,1.25,2.13,1.11,2.13s-.51-.93-1.45-1.74S284.86,207.6,284.89,207.45Z" style="fill:#263238"></path><path d="M235.85,208.45c-.06,0-.06-.24.13-.53a1.88,1.88,0,0,1,1.09-.72,1.8,1.8,0,0,1,1.3.16c.3.17.4.36.36.41s-.72-.28-1.54-.06S236,208.51,235.85,208.45Z" style="fill:#263238"></path><path d="M282.6,115.23a1.07,1.07,0,0,1,0,.29c0,.19,0,.47-.05.84a15.07,15.07,0,0,1-.72,3.16,15.92,15.92,0,0,1-2.4,4.53,15.57,15.57,0,0,1-5.15,4.43,16.14,16.14,0,0,1-16.91-1.27,9.43,9.43,0,0,1-3.24-4,6.1,6.1,0,0,1,.37-5.34,4.75,4.75,0,0,1,2.18-1.83,6.12,6.12,0,0,1,2.84-.43,7.9,7.9,0,0,1,5.14,2.5,9.83,9.83,0,0,1,2.57,5.14,9.54,9.54,0,0,1-4.4,9.54,11,11,0,0,1-4.92,1.54,16.49,16.49,0,0,1-9.18-2.13,16.12,16.12,0,0,1-6-5.64A14.35,14.35,0,0,1,241.21,115a12.54,12.54,0,0,1,1.31-3c.18-.32.37-.54.47-.7s.17-.23.18-.22A15.27,15.27,0,0,0,241.4,115a14.52,14.52,0,0,0-.44,5,14.15,14.15,0,0,0,2.11,6.28,16,16,0,0,0,5.87,5.47,16.12,16.12,0,0,0,8.93,2,10.43,10.43,0,0,0,4.7-1.49,9,9,0,0,0,4.15-9,9.33,9.33,0,0,0-2.43-4.86,7.38,7.38,0,0,0-4.81-2.34,4.75,4.75,0,0,0-4.54,2,5.58,5.58,0,0,0-.34,4.89,8.91,8.91,0,0,0,3.06,3.82,15.38,15.38,0,0,0,8.62,3,15.56,15.56,0,0,0,7.83-1.68,15.76,15.76,0,0,0,5.09-4.28,16.67,16.67,0,0,0,2.44-4.42,16.87,16.87,0,0,0,.8-3.11c.05-.34.08-.62.11-.83A1,1,0,0,1,282.6,115.23Z" style="fill:#455a64"></path><path d="M249.55,329.19c4.79-5.12,10.86-8.83,16.71-12.71,17.11-11.34,40.16-30.09,54.31-45l37.52,55c-20.36,22.12-51.61,40.75-80.15,42.49-7.64.46-15.56-.1-22.46-3.42s-12.63-9.8-13.42-17.41C241.32,341.2,244.76,334.32,249.55,329.19Z" style="fill:#263238"></path><path d="M367.59,318.71a3.23,3.23,0,0,1-.46.6L365.71,321c-.61.72-1.38,1.59-2.3,2.56s-1.94,2.12-3.14,3.31c-2.36,2.42-5.28,5.2-8.63,8.16s-7.18,6.05-11.33,9.11-8.29,5.73-12.11,8-7.37,4.24-10.39,5.75c-1.5.79-2.89,1.42-4.1,2s-2.27,1.05-3.14,1.42l-2,.85a3.68,3.68,0,0,1-.71.26,4.44,4.44,0,0,1,.67-.36l2-.94c.85-.39,1.9-.89,3.09-1.49s2.58-1.26,4.06-2.07c3-1.55,6.5-3.52,10.31-5.83s7.89-5,12.05-8.06,7.95-6.14,11.33-9.05,6.29-5.68,8.67-8.06c1.22-1.17,2.26-2.29,3.2-3.25s1.72-1.8,2.36-2.49l1.49-1.59A4.41,4.41,0,0,1,367.59,318.71Z" style="fill:#455a64"></path><path d="M348.61,262a10.24,10.24,0,0,1-1.48-.21,31,31,0,0,0-4-.38,28.73,28.73,0,0,0-23.32,10.63,33.78,33.78,0,0,0-2.35,3.27,8.06,8.06,0,0,1-.81,1.25,7.73,7.73,0,0,1,.64-1.35,23.72,23.72,0,0,1,2.24-3.4,27.79,27.79,0,0,1,23.61-10.77,25.41,25.41,0,0,1,4,.55A6.87,6.87,0,0,1,348.61,262Z" style="fill:#455a64"></path></g><g id="freepik--Slush--inject-1025"><path d="M97.47,319.08l69.1,157.55a7.31,7.31,0,0,0,7.18,4.35,196.15,196.15,0,0,0,83-24.85,7.31,7.31,0,0,0,3.64-7.64l-29.78-169.1Z" style="fill:#FF725E"></path><path d="M97.47,319.08l2.4-.74,7.07-2.13,26.94-8.09,96.63-28.95.24-.07,0,.25c7.76,44,17,96.46,26.92,152.69q1.32,7.48,2.63,14.9c.1.62.23,1.22.31,1.86a7.41,7.41,0,0,1,0,1.94,7.57,7.57,0,0,1-1.45,3.54,8,8,0,0,1-2.95,2.39L253,458.44a206.21,206.21,0,0,1-26.7,11.83,194.46,194.46,0,0,1-27.16,7.55l-3.38.66-3.38.57c-2.24.4-4.5.68-6.73,1a117.83,117.83,0,0,1-13.35,1.13,7.54,7.54,0,0,1-5.47-3.58c-.57-1-.92-2-1.38-3l-1.29-3L159.05,460q-5-11.46-9.73-22.23c-6.28-14.34-12.12-27.69-17.45-39.89-10.65-24.36-19.26-44.08-25.22-57.72-3-6.8-5.27-12.08-6.83-15.67-.78-1.78-1.37-3.14-1.77-4.07s-.58-1.38-.58-1.38l.63,1.4,1.81,4.09,6.93,15.7,25.39,57.66,17.51,39.79,9.74,22.17,5.09,11.59c.43,1,.86,2,1.3,2.95s.83,2,1.35,2.91a7,7,0,0,0,5.13,3.35,15.42,15.42,0,0,0,3.24-.11l3.32-.27c2.21-.24,4.43-.46,6.66-.75s4.47-.59,6.71-1l3.37-.57,3.38-.66a193.76,193.76,0,0,0,27.08-7.54A206.58,206.58,0,0,0,252.74,458l3.26-1.76a7.5,7.5,0,0,0,2.79-2.25,7.11,7.11,0,0,0,1.35-3.3,11.62,11.62,0,0,0-.31-3.64q-1.31-7.41-2.63-14.9c-9.88-56.24-19.11-108.72-26.84-152.71l.28.18-96.56,28.67-27,8-7.13,2.1C98.32,318.85,97.47,319.08,97.47,319.08Z" style="fill:#263238"></path><path d="M230.49,279.12c1.29,4.29-27.76,19.37-63,29.91s-68.77,14.35-70.05,10.05,30.2-15.07,65.4-25.61S229.21,274.82,230.49,279.12Z" style="fill:#FF725E"></path><path d="M166.81,282.43l-14.48,4.33-14.9-47.85a29.12,29.12,0,0,0,14.49-4.34Z" style="fill:#FF725E"></path><path d="M224.71,259.56l-.36,0h-5.12l-2.94,0c-1.08,0-2.24.08-3.5.11-2.5.1-5.36.13-8.5.41l-4.94.37c-1.72.14-3.5.38-5.34.58-3.7.36-7.61,1-11.73,1.65a249.31,249.31,0,0,0-26.42,6.16,251,251,0,0,0-25.5,9.27c-3.81,1.71-7.45,3.28-10.75,5-1.66.83-3.29,1.59-4.81,2.4l-4.35,2.36c-2.81,1.45-5.23,3-7.4,4.23l-3,1.78-2.47,1.58-3.44,2.17-.9.56a1.33,1.33,0,0,1-.32.17l.29-.22.87-.59,3.39-2.26,2.45-1.62c.91-.58,1.92-1.17,3-1.82,2.16-1.29,4.57-2.82,7.37-4.3,1.38-.77,2.84-1.56,4.35-2.39s3.14-1.59,4.8-2.44c3.3-1.71,6.94-3.3,10.75-5a245.12,245.12,0,0,1,25.54-9.33,239.89,239.89,0,0,1,26.49-6.13c4.14-.62,8.06-1.27,11.76-1.61,1.85-.19,3.63-.42,5.35-.55l4.95-.33c3.15-.27,6-.26,8.53-.34,1.25,0,2.42-.06,3.5-.06l2.94.06,4.07.11,1,0Z" style="fill:#263238"></path><path d="M105.49,318.42s-3.92-6.12-3.51-7.87,3.08-10.63,3.08-10.63l8.58-4.7,4.42.81,5.29-6.13-.67-5.6,4-16.2L150,256l25.48,7.68,2.81,6.15,16-2.53,11,1,2.49,8.31,14-2.1,6.27,7.28" style="fill:#FF725E"></path><g style="opacity:0.30000000000000004"><path d="M223.72,259s-13.77-51-78.2-38.49l-8.66,2.59C76.15,248,92.67,298.23,92.67,298.23a55,55,0,0,0-3.75,20.1c26.51,4,59.06-3.07,74.34-7.06l0,.14s1.58-.44,4.32-1.32,4.33-1.27,4.33-1.27l0-.14c15-5.06,46-17,66-34.95A55.18,55.18,0,0,0,223.72,259Z" style="fill:#fff"></path></g><path d="M114.22,295.91a28,28,0,0,1-3.84,2.41,27.85,27.85,0,0,1-4,2.21,16,16,0,0,1,3.69-2.66A15.81,15.81,0,0,1,114.22,295.91Z" style="fill:#fff"></path><path d="M154.76,157.76c3,1.83,4.79,4.37,4,5.66s-3.87.86-6.87-1-4.78-4.36-4-5.65S151.76,155.93,154.76,157.76Z" style="fill:#FF725E"></path><path d="M105.26,310s2.65-9.66,2.91-9.74,7.59,1,7.59,1l2.12,7.1L113.41,311Z" style="fill:#fff;opacity:0.5"></path><path d="M119.86,295.49l.71,2.36s6.52.23,6.47,0,3.31-6.2,3.31-6.2l-5.2-2.33Z" style="fill:#fff;opacity:0.5"></path><path d="M156.72,282l.7,2.36s6.53.23,6.47,0,3.32-6.2,3.32-6.2L162,275.86Z" style="fill:#fff;opacity:0.5"></path><path d="M125.83,283.36c.32.17,5.82,0,5.82,0l5.07-2.81s4.38-9.72,4-9.7a53.78,53.78,0,0,1-4.82-3.45l-6.72,1Z" style="fill:#fff;opacity:0.5"></path><polygon points="143.84 272.63 142.15 277.72 145.52 281.89 151.46 280.12 153.17 274.72 149.79 270.84 143.84 272.63" style="fill:#fff;opacity:0.5"></polygon><polygon points="174.71 273.41 173.02 278.51 176.4 282.68 182.33 280.9 184.04 275.5 180.66 271.63 174.71 273.41" style="fill:#fff;opacity:0.5"></polygon><path d="M140,283.54l-1.57,1.84,2,3.19,2.73-1.55s1.83.28,1.19-1.84l-.63-2.12Z" style="fill:#fff;opacity:0.5"></path><path d="M149.2,294.17,147.62,296l2,3.19,2.74-1.55s1.82.28,1.19-1.84l-.64-2.12Z" style="fill:#fff;opacity:0.5"></path><polygon points="130.43 298.72 132.42 293.01 143.18 293.07 145.32 300.23 142.44 305.06 137.19 308.94 130.43 307.02 128.44 300.35 130.43 298.72" style="fill:#fff;opacity:0.5"></polygon><polygon points="158.75 272.04 159.73 268.87 163.49 267.75 167.54 269.87 168.47 274.02 162.6 273.56 158.75 272.04" style="fill:#fff;opacity:0.5"></polygon><polygon points="177.3 361.96 181.88 369.75 191.21 366.27 189.68 358.25 184.13 353.17 178.28 357.69 177.3 361.96" style="fill:#fff;opacity:0.30000000000000004"></polygon><polygon points="163.12 374.72 167.69 382.51 177.02 379.02 175.49 371.01 169.94 365.93 164.09 370.45 163.12 374.72" style="fill:#fff;opacity:0.30000000000000004"></polygon><polygon points="224.88 406.4 229.46 414.2 238.79 410.71 237.25 402.7 231.7 397.62 225.85 402.14 224.88 406.4" style="fill:#fff;opacity:0.30000000000000004"></polygon><polygon points="222.34 390.12 225.15 394.89 230.87 392.76 229.93 387.85 226.53 384.73 222.94 387.5 222.34 390.12" style="fill:#fff;opacity:0.30000000000000004"></polygon><polygon points="214.43 401.1 216.47 404.57 220.62 403.02 219.93 399.45 217.46 397.19 214.86 399.2 214.43 401.1" style="fill:#fff;opacity:0.30000000000000004"></polygon><polygon points="236.71 397.01 238.48 397.32 239.15 395.45 237.74 394.66 236.26 394.85 236.19 396.31 236.71 397.01" style="fill:#fff;opacity:0.30000000000000004"></polygon><path d="M183.58,379.45l-2.87,4.83,3.35,6.6,9.05-2.7s4-2.76,3.48-4-2.38-7.94-2.38-7.94Z" style="fill:#fff;opacity:0.30000000000000004"></path><path d="M202.31,429.6l-2.87,4.83,3.35,6.6,9.05-2.7s4-2.76,3.47-4-4.79-7.21-4.79-7.21Z" style="fill:#fff;opacity:0.30000000000000004"></path><path d="M223.72,259s-.08.1-.25.26l-.78.73c-.69.63-1.67,1.6-3,2.74a107.16,107.16,0,0,1-12.15,8.84,138.31,138.31,0,0,1-19.83,10.19,191.93,191.93,0,0,1-25.89,8.64,283.12,283.12,0,0,1-48.9,7.94c-6.33.49-11.46.7-15,.79-1.77,0-3.15.07-4.08.07H92.73a1.41,1.41,0,0,1-.36,0,3.28,3.28,0,0,1,.36,0l1.06-.05,4.08-.16c3.54-.15,8.67-.42,15-1a294,294,0,0,0,48.8-8.07,193.94,193.94,0,0,0,25.83-8.59,141.34,141.34,0,0,0,19.82-10.05,114.66,114.66,0,0,0,12.22-8.69c1.37-1.11,2.38-2.06,3.09-2.66l.81-.68Z" style="fill:#263238"></path><path d="M223.72,259a42.56,42.56,0,0,1,4.17,3.19A55.07,55.07,0,0,1,238,273.67l0,.08-.07.07a131.65,131.65,0,0,1-22.12,15.64,240,240,0,0,1-33.35,15.62c-3.19,1.22-6.49,2.44-9.87,3.59-1.67.63-3.41,1.22-5.17,1.71-.87.27-1.76.53-2.65.76s-1.82.42-2.71.67c-7.22,1.85-14.82,3.5-22.7,4.85a226.59,226.59,0,0,1-24.55,2.86,133.74,133.74,0,0,1-26-.94l-.22,0v-.22a55.27,55.27,0,0,1,3.77-20.19v.17l-.13-.41a55.73,55.73,0,0,1-1.89-12.83,59.19,59.19,0,0,1,.88-12.72,55.92,55.92,0,0,1,9.44-22.68l.86-1.24c.29-.4.62-.78.93-1.18.63-.77,1.23-1.58,1.88-2.32,1.34-1.47,2.64-3,4.09-4.29a78.1,78.1,0,0,1,8.92-7.36,102.92,102.92,0,0,1,19.37-10.39h0l8.65-2.58h0a102.21,102.21,0,0,1,20.65-1.92A71.21,71.21,0,0,1,184.61,221a56.8,56.8,0,0,1,15,6.68,56.21,56.21,0,0,1,10.76,8.83,60,60,0,0,1,10.93,16.07c.94,2.05,1.55,3.66,1.93,4.76s.51,1.68.51,1.68l-.58-1.66c-.39-1.09-1-2.69-2-4.72a61.07,61.07,0,0,0-11-16,56.61,56.61,0,0,0-25.66-15.33,71.39,71.39,0,0,0-18.39-2.56,102.13,102.13,0,0,0-20.56,2h0l-8.65,2.6h0a102.83,102.83,0,0,0-19.26,10.37,76.12,76.12,0,0,0-8.86,7.32c-1.44,1.31-2.72,2.8-4,4.25-.65.74-1.24,1.54-1.87,2.31-.3.39-.62.77-.92,1.17l-.85,1.23a55.6,55.6,0,0,0-9.35,22.48,59.46,59.46,0,0,0-.86,12.61,55.45,55.45,0,0,0,1.87,12.7l.12.4,0,.09,0,.09a54.66,54.66,0,0,0-3.74,20l-.22-.26a134.12,134.12,0,0,0,25.86.94,226,226,0,0,0,24.5-2.83c7.87-1.34,15.44-3,22.67-4.82.91-.25,1.82-.43,2.7-.66s1.77-.48,2.64-.75c1.77-.5,3.46-1.06,5.14-1.7,3.4-1.14,6.68-2.35,9.88-3.56a242.91,242.91,0,0,0,33.33-15.52,132.57,132.57,0,0,0,22.14-15.52l0,.15a55.92,55.92,0,0,0-10-11.52c-1.3-1.14-2.35-1.93-3-2.47S223.72,259,223.72,259Z" style="fill:#263238"></path><path d="M132.15,222.11l-5.38-18a13.57,13.57,0,0,1,.86-10l20.21-37.25,10.92,6.53-19.09,34.39L151.46,235A29.89,29.89,0,0,1,137.88,239Z" style="fill:#FF725E"></path><path d="M159.84,229.19a6,6,0,0,1-.88,1,12.16,12.16,0,0,1-1.13,1.08c-.46.4-1,.89-1.58,1.34a22.73,22.73,0,0,1-2.05,1.46,26,26,0,0,1-2.49,1.47,31.66,31.66,0,0,1-6.15,2.43,30.55,30.55,0,0,1-6.55,1,27.17,27.17,0,0,1-2.89-.06,21.8,21.8,0,0,1-2.5-.29c-.76-.1-1.43-.3-2-.43a10.84,10.84,0,0,1-1.5-.43,6.77,6.77,0,0,1-1.25-.47c0-.11,1.83.54,4.84,1a21.9,21.9,0,0,0,2.47.23c.89.07,1.84,0,2.84,0a30.73,30.73,0,0,0,12.5-3.35c.89-.48,1.73-.92,2.48-1.41s1.44-1,2.06-1.39C158.47,230.5,159.77,229.11,159.84,229.19Z" style="fill:#263238"></path><g style="opacity:0.30000000000000004"><path d="M232.06,287.81A231.32,231.32,0,0,1,100.72,326.5l-3.25-7.42s32.86,3.42,74.44-10.4c42.84-14.23,58.66-29.29,58.66-29.29Z"></path></g><g style="opacity:0.30000000000000004"><path d="M182,442.52c-14.86-37-29.68-74.59-44-110.41l-24.61,2.62q24.38,56.1,48.77,112.19c2.13,4.9,4.43,10,8.7,13.23s10,4.82,13.25.62C187.76,456,185.22,450.65,182,442.52Z" style="fill:#fff"></path></g><path d="M248.93,451.32a5.16,5.16,0,0,1-.68.43l-2,1.14c-.86.5-1.93,1.09-3.19,1.74s-2.67,1.42-4.28,2.17-3.36,1.63-5.28,2.47-4,1.71-6.16,2.6c-4.38,1.73-9.26,3.46-14.47,5s-10.26,2.73-14.88,3.66c-2.31.44-4.51.87-6.58,1.17s-4,.59-5.77.8-3.37.37-4.78.51-2.62.22-3.61.27l-2.29.12a4.82,4.82,0,0,1-.8,0,3.86,3.86,0,0,1,.79-.11l2.28-.22c1-.08,2.2-.19,3.6-.36s3-.32,4.76-.58,3.69-.5,5.75-.87,4.25-.76,6.56-1.21c4.6-1,9.62-2.17,14.82-3.69s10.07-3.27,14.45-5c2.17-.89,4.25-1.7,6.16-2.56s3.68-1.64,5.29-2.4,3-1.48,4.31-2.1,2.34-1.19,3.22-1.66l2-1.06A4.26,4.26,0,0,1,248.93,451.32Z" style="fill:#263238"></path><path d="M154.76,157.76c3,1.83,4.79,4.37,4,5.66s-3.87.86-6.87-1-4.78-4.36-4-5.65S151.76,155.93,154.76,157.76Z" style="opacity:0.30000000000000004"></path><path d="M157.14,164.39a3.71,3.71,0,0,1-1.63,0,10.34,10.34,0,0,1-3.7-1.31,10.21,10.21,0,0,1-2.95-2.6,3.47,3.47,0,0,1-.79-1.42,13.68,13.68,0,0,0,9.07,5.33Z" style="fill:#263238"></path><path d="M135,197.87a5.11,5.11,0,0,1,2.26-.27,5.32,5.32,0,0,1,2.26.25,4.94,4.94,0,0,1-2.26.27A5.11,5.11,0,0,1,135,197.87Z" style="fill:#263238"></path><path d="M135.36,200.08c-.07-.13.78-.73,1.9-1.35a5.25,5.25,0,0,1,2.15-.89c.07.12-.78.72-1.9,1.34A5.54,5.54,0,0,1,135.36,200.08Z" style="fill:#263238"></path><path d="M124.49,283.14a52.78,52.78,0,0,1,1.5-7.27,51.61,51.61,0,0,1,2-7.14,53.1,53.1,0,0,1-1.5,7.27A51.61,51.61,0,0,1,124.49,283.14Z" style="fill:#fff"></path><path d="M162.2,259.35a18.68,18.68,0,0,1-3,0c-1.82,0-4.34,0-7.12.08s-5.29.31-7.1.48a18.73,18.73,0,0,1-3,.19,15.65,15.65,0,0,1,2.91-.56c1.82-.26,4.34-.52,7.13-.63a70.68,70.68,0,0,1,7.16.07A14.18,14.18,0,0,1,162.2,259.35Z" style="fill:#fff"></path><path d="M103.74,310.34a16.2,16.2,0,0,1,.86-4A15.84,15.84,0,0,1,106,302.5a16.88,16.88,0,0,1-.86,4A16.26,16.26,0,0,1,103.74,310.34Z" style="fill:#fff"></path><path d="M141.93,261.84a45.15,45.15,0,0,1-6.05,3.12,45.19,45.19,0,0,1-6.27,2.65,44.54,44.54,0,0,1,6-3.12A44.3,44.3,0,0,1,141.93,261.84Z" style="fill:#fff"></path><path d="M149.57,416.39c-.13.06-7.95-17.37-17.47-38.92s-17.12-39.07-17-39.13,8,17.37,17.47,38.92S149.7,416.33,149.57,416.39Z" style="fill:#fff"></path></g></svg>
