<svg xmlns="http://www.w3.org/2000/svg" viewBox="0 0 500 500"><g id="freepik--Floor--inject-1343"><path d="M452.6,448.07c0,.15-92.06.26-205.59.26s-205.61-.11-205.61-.26,92-.26,205.61-.26S452.6,447.93,452.6,448.07Z" style="fill:#263238"></path></g><g id="freepik--Frappe--inject-1343"><path d="M246.13,128.59l.21-24.51A17.75,17.75,0,0,1,251.27,92L290.81,53.3l11.1,12.34-37,35.53.92,56.19c-6,1.36-12.62,5.21-19,3.61Z" style="fill:#F8507A"></path><path d="M265.69,161.87h-19l-.58-29.48a96.47,96.47,0,0,1,19.26.46Z" style="fill:#fff;opacity:0.2"></path><path d="M165.52,236.15,191,459.23a9.52,9.52,0,0,0,7.27,8.19c37.35,8.8,75,9,113,1a9.54,9.54,0,0,0,7.47-8.13l28-222.34Z" style="fill:#e0e0e0"></path><path d="M175.64,236.24l22.51,214a8.94,8.94,0,0,0,6.46,7.86c33.18,8.42,66.65,8.59,100.41.85a8.92,8.92,0,0,0,6.65-7.8l25-213.35Z" style="fill:#F8507A"></path><g style="opacity:0.2"><path d="M195.91,428.91c24.8.81,47.51-.87,71.78-7a22.79,22.79,0,0,0,10.43-5.6c10.53-10.46-2.42-21.71-1.53-33.08.67-8.76,9.35-15.45,18.26-19.65s18.91-7.07,26.26-13.12h2.37L311.67,451.17c-.6,4.58-3.77,7.13-9,8.22-36.81,7.76-70,6.3-97.26-1.18-3.95-1.09-6.88-3.91-7.31-7.46Z"></path></g><path d="M346.81,237.55c0,2.42-42.09,13.47-90.05,13s-90.95-11.91-91.24-14.45C164.86,230.34,209,229,257,229.4S346.81,231.7,346.81,237.55Z" style="fill:#F8507A"></path><path d="M344.19,234.8c1.13-5.79-.44-18.79-3.76-23.53a19.83,19.83,0,0,0-14.14-8.4c-3.53-13.51-18.19-22.48-31-19-2.81-11.57-11.39-21.36-22.06-25.17a33,33,0,0,0-31.89,5.94c-3,2.56-7.81,8.9-7.81,8.9s-8-.89-11.15-.53c-11.06,1.23-20.9,10.55-23.3,22.08a30.69,30.69,0,0,0-23.49,12,34.79,34.79,0,0,0-6.51,26.78s30.67,14.55,90,12.79S344.19,234.8,344.19,234.8Z" style="fill:#F8507A"></path><g style="opacity:0.8"><path d="M344.19,234.8c1.13-5.79-.44-18.79-3.76-23.53a19.83,19.83,0,0,0-14.14-8.4c-3.53-13.51-18.19-22.48-31-19-2.81-11.57-11.39-21.36-22.06-25.17a33,33,0,0,0-31.89,5.94c-3,2.56-7.81,8.9-7.81,8.9s-8-.89-11.15-.53c-11.06,1.23-20.9,10.55-23.3,22.08a30.69,30.69,0,0,0-23.49,12,34.79,34.79,0,0,0-6.51,26.78s30.67,14.55,90,12.79S344.19,234.8,344.19,234.8Z" style="fill:#fff"></path></g><path d="M299.11,57.05c3,3.44,4.29,7.28,2.8,8.59s-5.15-.41-8.18-3.84-4.29-7.29-2.81-8.6S296.07,53.61,299.11,57.05Z" style="fill:#F8507A"></path><polygon points="214.22 387.05 215.43 392.15 221.2 391.82 221.72 387.12 219.51 383.35 215.49 384.85 214.22 387.05" style="fill:#fff;opacity:0.30000000000000004"></polygon><path d="M289.09,295.29l-3.91,3.59,1.25,6.87h8.9s4.38-1.41,4.22-2.65,0-7.81,0-7.81Z" style="fill:#fff;opacity:0.30000000000000004"></path><path d="M299.11,57.05c3,3.44,4.29,7.28,2.8,8.59s-5.15-.41-8.18-3.84-4.29-7.29-2.81-8.6S296.07,53.61,299.11,57.05Z" style="opacity:0.30000000000000004"></path><path d="M299.53,66.23a5.62,5.62,0,0,1-2-.68,13.76,13.76,0,0,1-6.77-7.41,5.82,5.82,0,0,1-.49-2.06,20.54,20.54,0,0,0,3.56,6.06A20.28,20.28,0,0,0,299.53,66.23Z" style="fill:#263238"></path><path d="M259.07,99.46a8.8,8.8,0,0,1,2.89.62,8.43,8.43,0,0,1,2.75,1.11,8.84,8.84,0,0,1-2.9-.62A8.19,8.19,0,0,1,259.07,99.46Z" style="fill:#263238"></path><path d="M258.61,102.34a9.11,9.11,0,0,1,2.91-.87,9,9,0,0,1,3-.36,17.72,17.72,0,0,1-5.92,1.23Z" style="fill:#263238"></path><rect x="152.2" y="229.33" width="203.34" height="17.49" rx="6.6" style="fill:#e0e0e0"></rect><path d="M355,240.6l-1,0-2.91,0-11.3,0-42.19.08-144.7.1h-.16l-.06-.13a8.62,8.62,0,0,1-1-3.21,9.18,9.18,0,0,1,.3-3.45,15.81,15.81,0,0,1,3.43-6.18l-.07.17a114.61,114.61,0,0,1,4.61-24.49c1.21-4.06,2.68-8.06,4.31-12A115.52,115.52,0,0,1,170,179.92a91.65,91.65,0,0,1,29.47-31.87,98.45,98.45,0,0,1,18.78-9.47l4.89-1.68c.8-.3,1.64-.51,2.46-.73l2.47-.67c3.27-1,6.61-1.49,9.88-2.19,1.65-.31,3.31-.47,5-.71l2.45-.33,1.23-.16,1.23-.07,2.47-.12h7.28l2.42.11,1.2.06,1.19.16,4.71.64c.78.12,1.56.2,2.33.33l2.3.47,4.56.91c1.5.35,3,.79,4.44,1.17s2.94.74,4.35,1.28l4.24,1.45,1.05.37,1,.43,2,.86a90.49,90.49,0,0,1,15.08,8l3.38,2.35c1.13.76,2.14,1.67,3.21,2.48,2.14,1.62,4,3.48,6,5.2.93.91,1.8,1.85,2.7,2.76l1.32,1.37,1.23,1.42,2.42,2.82,2.22,2.9c.75.94,1.42,1.92,2.08,2.9s1.33,1.93,2,2.91c1.19,2,2.42,3.87,3.44,5.83a109.83,109.83,0,0,1,5.43,11.37A122.2,122.2,0,0,1,350,212.78a101.22,101.22,0,0,1,2.21,15.28l0-.05a13,13,0,0,1,3.57,9.37c0,.28-.05.54-.08.79s-.1.46-.15.66a4.32,4.32,0,0,1-.29,1c-.19.52-.29.77-.29.77s.08-.27.26-.79a4.37,4.37,0,0,0,.26-1c.05-.2.09-.42.14-.66l.07-.78a10.93,10.93,0,0,0-.58-4.15,14.86,14.86,0,0,0-3-5.11l0,0v0a100.9,100.9,0,0,0-2.28-15.23,122.85,122.85,0,0,0-6.3-20.2,108.66,108.66,0,0,0-5.45-11.33c-1-2-2.25-3.84-3.43-5.81-.62-1-1.3-1.91-2-2.88s-1.33-2-2.08-2.89l-2.21-2.88L326,164l-1.23-1.42-1.32-1.35c-.89-.91-1.77-1.85-2.69-2.74-1.93-1.72-3.81-3.57-6-5.17-1.06-.81-2.07-1.71-3.19-2.47l-3.37-2.33a89.71,89.71,0,0,0-15-8l-2-.85-1-.43-1-.36-4.23-1.44c-1.4-.53-2.87-.86-4.33-1.27s-2.93-.82-4.43-1.16l-4.54-.91-2.29-.45c-.77-.14-1.55-.22-2.32-.33l-4.69-.63-1.18-.16-1.19-.06-2.39-.11h-7.28l-2.43.12-1.22.06-1.22.17-2.45.33c-1.63.24-3.29.4-4.92.71-3.26.69-6.59,1.2-9.84,2.19l-2.46.66c-.82.22-1.65.43-2.45.73l-4.86,1.67a98.33,98.33,0,0,0-18.68,9.43,91.19,91.19,0,0,0-29.3,31.7,114.33,114.33,0,0,0-5.68,11.55,126.85,126.85,0,0,0-4.29,12,114.52,114.52,0,0,0-4.6,24.36v.09l-.07.08a15.37,15.37,0,0,0-3.31,5.95,9.11,9.11,0,0,0-.29,3.27,8,8,0,0,0,1,3l-.22-.12,144.56.1,42.25.07,11.33,0,2.93,0Z" style="fill:#263238"></path><path d="M348.05,246.8c0,.14-41.62.26-93,.26s-92.95-.12-92.95-.26,41.61-.26,92.95-.26S348.05,246.65,348.05,246.8Z" style="fill:#263238"></path><path d="M272.52,142a5.32,5.32,0,0,1-1.25-.24c-.8-.19-1.95-.45-3.38-.74a73.06,73.06,0,0,0-11.31-1.36,73.79,73.79,0,0,0-11.38.45c-1.44.17-2.62.33-3.42.46a5.91,5.91,0,0,1-1.27.14,5.87,5.87,0,0,1,1.23-.34c.8-.19,2-.41,3.42-.63a61.88,61.88,0,0,1,11.45-.6A62.89,62.89,0,0,1,268,140.68c1.42.34,2.57.65,3.35.9A6.43,6.43,0,0,1,272.52,142Z" style="fill:#263238"></path><path d="M299.86,209.78l-.23.07-.7.17-2.7.59c-1.17.26-2.61.56-4.29.83s-3.59.66-5.72.92l-3.34.45c-1.16.15-2.37.24-3.63.37-2.51.29-5.2.43-8,.61a183.94,183.94,0,0,1-18.46-.06c-6.54-.4-12.74-1.16-18.34-2.07-2.8-.51-5.46-1-7.91-1.54-1.24-.28-2.43-.51-3.57-.8l-3.26-.83c-2.09-.5-3.94-1.09-5.58-1.57s-3-.93-4.16-1.32l-2.61-.9-.68-.25a.9.9,0,0,1-.22-.1l.24.05.69.2,2.64.81c1.14.36,2.54.79,4.19,1.23s3.49,1,5.58,1.49l3.26.8c1.14.28,2.34.5,3.57.77,2.45.55,5.11,1,7.89,1.48,5.59.88,11.78,1.63,18.3,2s12.75.33,18.41.1c2.82-.16,5.51-.29,8-.56,1.25-.12,2.47-.2,3.63-.34l3.33-.42c2.13-.23,4-.58,5.72-.83s3.13-.52,4.3-.75l2.72-.49.71-.12Z" style="fill:#263238"></path><path d="M266.47,184.87a5.5,5.5,0,0,1-1.28.31,29.55,29.55,0,0,1-3.55.48,40.67,40.67,0,0,1-5.32.12,46.42,46.42,0,0,1-6.48-.75,47.22,47.22,0,0,1-6.29-1.72,43.18,43.18,0,0,1-4.89-2.09,33.82,33.82,0,0,1-3.12-1.77,6.7,6.7,0,0,1-1.07-.76c.05-.09,1.63.92,4.35,2.2a48.43,48.43,0,0,0,4.89,2,46.38,46.38,0,0,0,12.63,2.44,48.71,48.71,0,0,0,5.28,0C264.62,185.12,266.46,184.78,266.47,184.87Z" style="fill:#263238"></path><g style="opacity:0.2"><path d="M333.07,268.68c-7.5,5.1-20.58,6.81-31.28,7.79s-21.67,1.06-32.05,3-20.49,6.33-24.07,13c-1.92,3.59-1.79,7.51-3,11.23-2.41,7.42-10.51,14-21.1,17s-26.77,2.61-36.77-1.22l-8-72.75,158.81.27Z"></path></g><path d="M215.14,217.08c-.43-3-3.63-4.41-5.75-6.46-4.54-4.39-4.24-12.4-8.17-18.37a4.77,4.77,0,0,0-.61-.88l0,0v0a4.58,4.58,0,0,0-3.81-1.66,5,5,0,0,0-4.2,5.1c.11,2.43,1.83,4.37,3.26,6.27a32.2,32.2,0,0,1,4.31,7.85c1.05,2.76,1.73,5.7,3.12,8.29s3.68,4.87,6.48,5.13S215.56,220,215.14,217.08Z" style="fill:#F8507A"></path><path d="M206,178.25c-1.12,1.7-1.13,4.4.48,5.59,1.27.93,3,.63,4.44,1.3,1.88.9,2.68,3.22,3.37,5.28a83.68,83.68,0,0,0,7.7,16.65c4,6.59,9.43,12.94,16.67,14.41,2.1.43,4.51.33,6-1.25s1.68-4.12,1.3-6.33c-.57-3.32-2.12-6.38-2.79-9.69s-.21-7.27,2.4-9.22,6-1.25,8.63-2.9c2.45-1.53,3.55-4.7,3.89-7.7s.08-6.08.69-9,2.36-5.93,5.12-6.66c3.16-.83,5.32-.2,5.41-4.32a7.78,7.78,0,0,0-4.64-7.57c-3.56-1.38-7.64,0-10.64,2.45a20.1,20.1,0,0,0-6.55,19.39c.56,2.55,1.48,5.64-.31,7.45-1.09,1.1-2.78,1.16-4.14,1.85-2.13,1.07-3.32,3.59-3.68,6.06a56.66,56.66,0,0,0-.13,7.49,9.13,9.13,0,0,1-.93,4.4,3.48,3.48,0,0,1-3.59,1.93c-1.59-.36-2.5-2.09-3.16-3.66-2.46-5.86-4.41-12.28-8.9-16.57-1.58-1.51-3.48-2.75-4.58-4.69-1-1.72-1.22-3.82-2.08-5.62C213.77,172.65,208.29,174.78,206,178.25Z" style="fill:#F8507A"></path><path d="M321.88,184.44c-3-2.22-7.09-1.63-10.12.56s-5.14,5.73-6.83,9.38-3,7.52-5,11c-.79,1.43-1.88,2.91-3.34,3-2,.12-3.36-2.47-3.73-4.78-.56-3.38-.1-6.86,0-10.31s-.28-7.13-2.17-9.78c-1.49-2.09-3.84-3.42-4.71-5.94-.65-1.89-.32-4,0-6a12.92,12.92,0,0,0,.14-6,4.19,4.19,0,0,0-5-2.63h.07a3.73,3.73,0,0,0-2.37,2.74,10.87,10.87,0,0,0,.3,5.06,16.4,16.4,0,0,1,.71,5.05c-.16,1.9-1.05,3.6-1.64,5.39s-.86,4,.13,5.48c1.1,1.72,3.38,2,4.41,3.77a5.84,5.84,0,0,1,.08,4.64c-.52,1.49-1.33,2.83-1.81,4.34a13.27,13.27,0,0,0,.87,9.35,22.93,22.93,0,0,0,5.55,7.14c3,2.8,7.15,5.19,10.66,3.28,3-1.66,4.29-5.83,5.15-9.6s1.82-8,4.65-10c2.35-1.74,5.33-1.54,8.11-1.52s5.88-.35,7.71-2.79C326.08,192.05,324.9,186.65,321.88,184.44Z" style="fill:#F8507A"></path><g style="opacity:0.5"><path d="M215.14,217.08c-.43-3-3.63-4.41-5.75-6.46-4.54-4.39-4.24-12.4-8.17-18.37a4.77,4.77,0,0,0-.61-.88l0,0v0a4.58,4.58,0,0,0-3.81-1.66,5,5,0,0,0-4.2,5.1c.11,2.43,1.83,4.37,3.26,6.27a32.2,32.2,0,0,1,4.31,7.85c1.05,2.76,1.73,5.7,3.12,8.29s3.68,4.87,6.48,5.13S215.56,220,215.14,217.08Z"></path><path d="M206,178.25c-1.12,1.7-1.13,4.4.48,5.59,1.27.93,3,.63,4.44,1.3,1.88.9,2.68,3.22,3.37,5.28a83.68,83.68,0,0,0,7.7,16.65c4,6.59,9.43,12.94,16.67,14.41,2.1.43,4.51.33,6-1.25s1.68-4.12,1.3-6.33c-.57-3.32-2.12-6.38-2.79-9.69s-.21-7.27,2.4-9.22,6-1.25,8.63-2.9c2.45-1.53,3.55-4.7,3.89-7.7s.08-6.08.69-9,2.36-5.93,5.12-6.66c3.16-.83,5.32-.2,5.41-4.32a7.78,7.78,0,0,0-4.64-7.57c-3.56-1.38-7.64,0-10.64,2.45a20.1,20.1,0,0,0-6.55,19.39c.56,2.55,1.48,5.64-.31,7.45-1.09,1.1-2.78,1.16-4.14,1.85-2.13,1.07-3.32,3.59-3.68,6.06a56.66,56.66,0,0,0-.13,7.49,9.13,9.13,0,0,1-.93,4.4,3.48,3.48,0,0,1-3.59,1.93c-1.59-.36-2.5-2.09-3.16-3.66-2.46-5.86-4.41-12.28-8.9-16.57-1.58-1.51-3.48-2.75-4.58-4.69-1-1.72-1.22-3.82-2.08-5.62C213.77,172.65,208.29,174.78,206,178.25Z"></path><path d="M321.88,184.44c-3-2.22-7.09-1.63-10.12.56s-5.14,5.73-6.83,9.38-3,7.52-5,11c-.79,1.43-1.88,2.91-3.34,3-2,.12-3.36-2.47-3.73-4.78-.56-3.38-.1-6.86,0-10.31s-.28-7.13-2.17-9.78c-1.49-2.09-3.84-3.42-4.71-5.94-.65-1.89-.32-4,0-6a12.92,12.92,0,0,0,.14-6,4.19,4.19,0,0,0-5-2.63h.07a3.73,3.73,0,0,0-2.37,2.74,10.87,10.87,0,0,0,.3,5.06,16.4,16.4,0,0,1,.71,5.05c-.16,1.9-1.05,3.6-1.64,5.39s-.86,4,.13,5.48c1.1,1.72,3.38,2,4.41,3.77a5.84,5.84,0,0,1,.08,4.64c-.52,1.49-1.33,2.83-1.81,4.34a13.27,13.27,0,0,0,.87,9.35,22.93,22.93,0,0,0,5.55,7.14c3,2.8,7.15,5.19,10.66,3.28,3-1.66,4.29-5.83,5.15-9.6s1.82-8,4.65-10c2.35-1.74,5.33-1.54,8.11-1.52s5.88-.35,7.71-2.79C326.08,192.05,324.9,186.65,321.88,184.44Z"></path></g><path d="M261.94,202a2.67,2.67,0,0,0-2.23,2c-.34,1.57,1.28,3.22,3.06,3.12a2.79,2.79,0,0,0,2.63-3.42,3.22,3.22,0,0,0-4.35-1.45" style="fill:#F8507A"></path><g style="opacity:0.4"><path d="M261.94,202a2.67,2.67,0,0,0-2.23,2c-.34,1.57,1.28,3.22,3.06,3.12a2.79,2.79,0,0,0,2.63-3.42,3.22,3.22,0,0,0-4.35-1.45"></path></g><path d="M310,201.7a3.39,3.39,0,0,0-2.82,2.51c-.42,2,1.62,4.06,3.87,3.95s4-2.41,3.32-4.33-3.58-2.89-5.49-1.82" style="fill:#F8507A"></path><g style="opacity:0.4"><path d="M310,201.7a3.39,3.39,0,0,0-2.82,2.51c-.42,2,1.62,4.06,3.87,3.95s4-2.41,3.32-4.33-3.58-2.89-5.49-1.82"></path></g><path d="M226,219.28a2.67,2.67,0,0,0-2.24,2c-.33,1.57,1.28,3.22,3.06,3.13s3.17-1.91,2.63-3.43a3.22,3.22,0,0,0-4.35-1.44" style="fill:#F8507A"></path><g style="opacity:0.4"><path d="M226,219.28a2.67,2.67,0,0,0-2.24,2c-.33,1.57,1.28,3.22,3.06,3.13s3.17-1.91,2.63-3.43a3.22,3.22,0,0,0-4.35-1.44"></path></g><path d="M186.5,215a1.69,1.69,0,0,0-1.34,1.33,1.76,1.76,0,1,0,.8-1.17" style="fill:#F8507A"></path><g style="opacity:0.4"><path d="M186.5,215a1.69,1.69,0,0,0-1.34,1.33,1.76,1.76,0,1,0,.8-1.17"></path></g><path d="M228.86,179.69a1.66,1.66,0,0,0-1.34,1.33,1.76,1.76,0,1,0,.8-1.17" style="fill:#F8507A"></path><g style="opacity:0.4"><path d="M228.86,179.69a1.66,1.66,0,0,0-1.34,1.33,1.76,1.76,0,1,0,.8-1.17"></path></g><path d="M297.83,190.45a1.69,1.69,0,0,0-1.34,1.33,1.76,1.76,0,1,0,.81-1.17" style="fill:#F8507A"></path><g style="opacity:0.4"><path d="M297.83,190.45a1.69,1.69,0,0,0-1.34,1.33,1.76,1.76,0,1,0,.81-1.17"></path></g><path d="M326.47,212a1.69,1.69,0,0,0-1.34,1.33,1.77,1.77,0,1,0,.81-1.16" style="fill:#F8507A"></path><g style="opacity:0.4"><path d="M326.47,212a1.69,1.69,0,0,0-1.34,1.33,1.77,1.77,0,1,0,.81-1.16"></path></g><path d="M285.92,220.29a1.66,1.66,0,0,0-1.34,1.32,1.76,1.76,0,1,0,.8-1.16" style="fill:#F8507A"></path><g style="opacity:0.4"><path d="M285.92,220.29a1.66,1.66,0,0,0-1.34,1.32,1.76,1.76,0,1,0,.8-1.16"></path></g><path d="M191.08,200.7c0,.1-1.69.84-4.19,2.53-.63.43-1.3.9-2,1.47s-1.39,1.19-2.13,1.86a35.92,35.92,0,0,0-4.24,4.89,36.67,36.67,0,0,0-3.22,5.62c-.38.92-.77,1.78-1,2.63s-.53,1.63-.73,2.35c-.77,2.93-.89,4.81-1,4.8a5.75,5.75,0,0,1,.05-1.32,13.34,13.34,0,0,1,.19-1.54c.11-.6.2-1.29.4-2a24.24,24.24,0,0,1,.68-2.4c.26-.86.64-1.75,1-2.69a35.14,35.14,0,0,1,3.23-5.72,34.49,34.49,0,0,1,4.34-4.94c.76-.67,1.47-1.32,2.2-1.85a23.38,23.38,0,0,1,2-1.43,20.35,20.35,0,0,1,1.78-1.05,13.6,13.6,0,0,1,1.39-.69A6.59,6.59,0,0,1,191.08,200.7Z" style="fill:#fff"></path><path d="M195.71,197.08s-.38-.2-.67-.79a3.35,3.35,0,0,1,1.44-4.42c.59-.3,1-.3,1-.24s-.34.21-.81.56a3.6,3.6,0,0,0-1.31,1.76,3.66,3.66,0,0,0,0,2.21C195.56,196.71,195.77,197,195.71,197.08Z" style="fill:#fff"></path><path d="M207.87,182.89c-.05,0-.39-.37-.59-1.18a4.5,4.5,0,0,1,.44-3.17,4.44,4.44,0,0,1,2.47-2c.8-.26,1.32-.18,1.32-.12s-.48.14-1.18.46a4.74,4.74,0,0,0-2.15,1.94,4.82,4.82,0,0,0-.54,2.85A12.36,12.36,0,0,1,207.87,182.89Z" style="fill:#fff"></path><path d="M233.87,215.93a3.64,3.64,0,0,1-.87-.54,24,24,0,0,1-2.17-1.75,33.47,33.47,0,0,1-9.73-15.36,25.4,25.4,0,0,1-.66-2.71,4.25,4.25,0,0,1-.12-1c.09,0,.39,1.4,1.13,3.61a38.19,38.19,0,0,0,3.89,8.2,39,39,0,0,0,5.74,7C232.76,215,233.92,215.86,233.87,215.93Z" style="fill:#fff"></path><path d="M244.61,190.43c0,.14-1.2.56-2,1.86a8.06,8.06,0,0,0-.86,2.61c-.06,0-.2-.31-.2-.86a3.81,3.81,0,0,1,.62-2,3.86,3.86,0,0,1,1.59-1.41C244.25,190.38,244.59,190.37,244.61,190.43Z" style="fill:#fff"></path><path d="M258.68,159.34c0,.08-.91.49-2.22,1.46a14.74,14.74,0,0,0-6.06,10.71c-.15,1.62,0,2.64-.11,2.65a7.28,7.28,0,0,1-.26-2.68,13.73,13.73,0,0,1,6.22-11A6.91,6.91,0,0,1,258.68,159.34Z" style="fill:#fff"></path><path d="M281.63,186.6c0,.06-.38,0-.83-.38a3.36,3.36,0,0,1-1.11-1.94,3.4,3.4,0,0,1,.29-2.21c.28-.52.59-.72.63-.68s-.13.33-.29.82a3.91,3.91,0,0,0,.73,3.74C281.39,186.34,281.67,186.53,281.63,186.6Z" style="fill:#fff"></path><path d="M285.56,208.87a7,7,0,0,1-2.2-7.65,17.23,17.23,0,0,0,.4,4A16.84,16.84,0,0,0,285.56,208.87Z" style="fill:#fff"></path><path d="M316,186.35a9.88,9.88,0,0,1-1.43.38,7.66,7.66,0,0,0-4.88,4.69,12.57,12.57,0,0,1-.44,1.41,2.64,2.64,0,0,1,.09-1.52,6.88,6.88,0,0,1,5.14-4.93A2.66,2.66,0,0,1,316,186.35Z" style="fill:#fff"></path><path d="M234.7,175.63a42.61,42.61,0,0,0-7.79-.71,41.17,41.17,0,0,0-7.73,1.28,7.55,7.55,0,0,1,2.16-.89,22.22,22.22,0,0,1,5.55-.91,21.79,21.79,0,0,1,5.6.51A7.78,7.78,0,0,1,234.7,175.63Z" style="fill:#fff"></path><path d="M247.61,163.16a40.51,40.51,0,0,0-5.7,4.76,28.8,28.8,0,0,0-4,5.62l-.14-.12c.3-.16.46-.23.48-.2s-.11.15-.38.36l-.24.19.11-.31a18.91,18.91,0,0,1,3.79-5.9,20.3,20.3,0,0,1,4.1-3.41A7.23,7.23,0,0,1,247.61,163.16Z" style="fill:#fff"></path><path d="M250.93,342a10.75,10.75,0,0,0,20.81.05,3.52,3.52,0,1,0-6.78-1.87c0,.19-.11.38-.17.57-.19.58.29-.57.08-.2s-.34.63-.54.94c-.33.51.41-.47.13-.15-.11.12-.21.25-.33.37s-.28.28-.43.41-.57.47-.1.11,0,0-.13.07a5.33,5.33,0,0,1-.51.31l-.44.23c-.38.19.77-.28.2-.09-.35.11-.7.19-1.05.28s.86-.06.24,0l-.59,0-.5,0c-.44,0,.85.16.25,0a7.37,7.37,0,0,1-1.05-.28c-.55-.19,0,0,.19.1a5.28,5.28,0,0,0-.53-.27,9.75,9.75,0,0,0-.83-.54c.42.33.52.41.32.24l-.22-.2a4,4,0,0,1-.36-.35l-.33-.37c-.47-.51.42.68.07.08l-.5-.86c-.33-.6.24.78.05.11-.05-.19-.12-.38-.17-.57a3.52,3.52,0,1,0-6.78,1.87Z" style="fill:#263238"></path><path d="M223,353.86a7.81,7.81,0,1,1-7.81-7.81A7.81,7.81,0,0,1,223,353.86Z" style="fill:#F8507A"></path><path d="M223,353.86a7.81,7.81,0,1,1-7.81-7.81A7.81,7.81,0,0,1,223,353.86Z" style="fill:#fff;opacity:0.30000000000000004"></path><path d="M311.87,353.86a7.81,7.81,0,1,1-7.81-7.81A7.81,7.81,0,0,1,311.87,353.86Z" style="fill:#F8507A"></path><path d="M311.87,353.86a7.81,7.81,0,1,1-7.81-7.81A7.81,7.81,0,0,1,311.87,353.86Z" style="fill:#fff;opacity:0.30000000000000004"></path><path d="M197.91,347.14c-.14,0-3.51-20.84-7.51-46.58s-7.14-46.64-7-46.66,3.5,20.83,7.51,46.58S198.05,347.12,197.91,347.14Z" style="fill:#fff"></path><path d="M303.47,459.39a.76.76,0,0,1-.25.08l-.75.18-2.88.64c-1.26.28-2.79.6-4.59.91s-3.83.73-6.11,1-4.75.72-7.44,1-5.55.57-8.58.84c-6.05.43-12.73.68-19.73.57s-13.68-.62-19.71-1.26c-3-.36-5.88-.69-8.55-1.12s-5.15-.82-7.41-1.23-4.28-.85-6.07-1.22-3.32-.72-4.56-1l-2.87-.71-.74-.2a.9.9,0,0,1-.25-.09l.26,0,.76.15,2.88.61c1.26.28,2.79.62,4.58.95s3.81.78,6.08,1.13,4.73.82,7.4,1.17,5.53.72,8.54,1.07c6,.61,12.67,1.08,19.67,1.22s13.65-.13,19.69-.53c3-.25,5.89-.46,8.56-.79s5.17-.62,7.44-.94,4.31-.68,6.11-1,3.34-.58,4.6-.83l2.9-.54.76-.13A.86.86,0,0,1,303.47,459.39Z" style="fill:#263238"></path><circle cx="231.01" cy="331.58" r="15.55" transform="translate(-164.25 247.41) rotate(-43.11)" style="fill:#fff"></circle><circle cx="231.02" cy="331.6" r="13.66" transform="translate(-164.72 413.57) rotate(-66.84)" style="fill:#263238"></circle><path d="M245,337.1c.18-1.5.46-1.68-.6-2.76a9.24,9.24,0,0,0-4.89-1.65,5.09,5.09,0,0,0-2.13,9.38l1.8,1.09a3.61,3.61,0,0,0,3.24-1.63C243.15,340.49,244.86,338.36,245,337.1Z" style="fill:#fff"></path><circle cx="288.38" cy="329.73" r="15.55" transform="translate(-149.13 307.92) rotate(-45.97)" style="fill:#fff"></circle><path d="M301.78,332.49a13.66,13.66,0,1,1-10.65-16.12A13.66,13.66,0,0,1,301.78,332.49Z" style="fill:#263238"></path><path d="M302.38,335.25c.17-1.5.46-1.68-.6-2.76a9.3,9.3,0,0,0-4.9-1.65,5.09,5.09,0,0,0-2.12,9.38l1.79,1.09a3.61,3.61,0,0,0,3.24-1.63C300.52,338.64,302.23,336.51,302.38,335.25Z" style="fill:#fff"></path><path d="M345.56,247.76s0,.49-.15,1.45-.29,2.39-.51,4.25c-.46,3.75-1.14,9.26-2,16.35-1.77,14.2-4.33,34.73-7.49,60.1s-7,55.58-11.17,89.12q-1.58,12.59-3.23,25.76c-.56,4.39-1.11,8.83-1.68,13.31a33.63,33.63,0,0,1-.5,3.38,9.6,9.6,0,0,1-1.45,3.17,9.76,9.76,0,0,1-5.68,3.91,264.78,264.78,0,0,1-56.59,5.92,252.15,252.15,0,0,1-56.5-6.73,9.78,9.78,0,0,1-7.46-6.73,18.34,18.34,0,0,1-.56-3.38q-.77-6.74-1.52-13.33-1.5-13.19-2.94-25.8c-3.81-33.59-7.25-63.85-10.14-89.25s-5.19-46-6.79-60.18c-.8-7.1-1.41-12.62-1.83-16.37-.2-1.86-.35-3.29-.46-4.25s-.14-1.46-.14-1.46.08.49.2,1.45.28,2.39.51,4.25c.44,3.75,1.08,9.26,1.92,16.35,1.64,14.22,4,34.77,7,60.16s6.39,55.66,10.25,89.25q1.44,12.59,3,25.79.75,6.6,1.52,13.33a17,17,0,0,0,.55,3.3,9.18,9.18,0,0,0,1.51,2.93,9.32,9.32,0,0,0,5.57,3.44A252.55,252.55,0,0,0,255.1,474a264.16,264.16,0,0,0,56.47-5.9,9.24,9.24,0,0,0,6.76-6.7,32.14,32.14,0,0,0,.49-3.33q.85-6.7,1.68-13.3,1.67-13.17,3.26-25.76c4.24-33.53,8.07-63.74,11.28-89.11s5.84-45.88,7.65-60.08l2.1-16.33.57-4.25C345.48,248.25,345.56,247.76,345.56,247.76Z" style="fill:#263238"></path><path d="M268.12,374.11,249,361.47a5.15,5.15,0,0,0-7.24,1.61l-11.37,18.6a5.15,5.15,0,0,0,1.65,7.06l19.08,12a5.15,5.15,0,0,0,7.1-1.6l11.39-18A5.16,5.16,0,0,0,268.12,374.11Z" style="fill:#fff;opacity:0.30000000000000004"></path><g style="opacity:0.30000000000000004"><path d="M266.72,380.13c-.46-.58-1.37-.41-2.06-.13-4.51,1.89-7.32,6.47-11.5,9a2.79,2.79,0,0,1-1.47.52,1.08,1.08,0,0,1-1.08-.95,3.5,3.5,0,0,1,.43-1.12c.42-1.12-.69-2.32-1.87-2.55a9,9,0,0,0-3.54.46,13.64,13.64,0,0,1-8.63-1,8.12,8.12,0,0,0-3.07-1.11c-1.09-.05-2.32.74-2.25,1.83l.31.68c5.84,3.61,12.53,6.65,18.37,10.26a4.23,4.23,0,0,0,2.84.92,4.05,4.05,0,0,0,2-1.25,73.84,73.84,0,0,0,11.19-13.49C266.8,381.61,267.2,380.73,266.72,380.13Z" style="fill:#fff"></path></g><path d="M233.37,386.16s-.34,0-.73-.35a2.62,2.62,0,0,1-.28-3.64c.34-.39.64-.51.68-.45s-.16.27-.37.66a2.76,2.76,0,0,0,.23,3.18C233.18,385.91,233.41,386.09,233.37,386.16Z" style="fill:#fff"></path><path d="M242.94,365.8a8.27,8.27,0,0,1-.87,2c-.61,1.21-1.5,2.86-2.56,4.64s-2.09,3.35-2.87,4.46a8.84,8.84,0,0,1-1.36,1.73,10.32,10.32,0,0,1,1.05-1.93l2.73-4.53c1-1.68,1.89-3.21,2.69-4.55A9.83,9.83,0,0,1,242.94,365.8Z" style="fill:#fff"></path><path d="M247.87,394.93a31,31,0,0,1-5.19-2.55,33,33,0,0,1-5-3,31.27,31.27,0,0,1,5.2,2.55A32.2,32.2,0,0,1,247.87,394.93Z" style="fill:#fff"></path><path d="M244.2,364c.15,0,.26.22.07.37s-.4,0-.34-.16a.33.33,0,0,0,0-.25S244.05,364,244.2,364Z" style="fill:#fff"></path><path d="M240.48,416.22l-4.18-16a3.73,3.73,0,0,0-4.67-2.63l-15.09,4.53A3.72,3.72,0,0,0,214,406.7l4.47,15.66a3.73,3.73,0,0,0,4.6,2.56l14.79-4.18A3.71,3.71,0,0,0,240.48,416.22Z" style="fill:#fff;opacity:0.30000000000000004"></path><g style="opacity:0.30000000000000004"><path d="M236.83,418.78c0-.53-.54-.88-1.05-1.06-3.34-1.16-7.06-.05-10.53-.7a2,2,0,0,1-1-.43.78.78,0,0,1-.13-1c.2-.22.52-.26.77-.39a1.57,1.57,0,0,0,.23-2.28,6.67,6.67,0,0,0-2.13-1.46,9.91,9.91,0,0,1-4.18-4.68,5.75,5.75,0,0,0-1.11-2.07,1.47,1.47,0,0,0-2.1-.1l-.16.51c1.4,4.76,3.54,9.62,4.94,14.38a3.06,3.06,0,0,0,1.08,1.87,3,3,0,0,0,1.68.28,53.52,53.52,0,0,0,12.52-1.86C236.16,419.62,236.8,419.34,236.83,418.78Z" style="fill:#fff"></path></g><path d="M216,405.94c-.06,0-.22-.16-.28-.54a1.93,1.93,0,0,1,.37-1.41,2,2,0,0,1,1.28-.73c.38,0,.6.07.59.13s-.88.17-1.45.92S216.12,405.91,216,405.94Z" style="fill:#fff"></path><path d="M231,399.6a21.72,21.72,0,0,1-5,2,22.59,22.59,0,0,1-5.28,1.23,37.5,37.5,0,0,1,5.12-1.72A40.89,40.89,0,0,1,231,399.6Z" style="fill:#fff"></path><path d="M219.55,417.65a16.54,16.54,0,0,1-1.64-3.85,17.5,17.5,0,0,1-1.14-4,16.79,16.79,0,0,1,1.64,3.85A17.65,17.65,0,0,1,219.55,417.65Z" style="fill:#fff"></path><path d="M232.48,399.25a.17.17,0,0,1-.14.3c-.21,0-.24-.26-.1-.32s.12-.1.13-.12S232.35,399.13,232.48,399.25Z" style="fill:#fff"></path><path d="M272.06,293.61l-4.2-25.88a5.9,5.9,0,0,0-7-4.84l-24.48,4.88a5.9,5.9,0,0,0-4.65,6.86L236.47,300a5.9,5.9,0,0,0,6.86,4.73l24-4.38A5.89,5.89,0,0,0,272.06,293.61Z" style="fill:#fff;opacity:0.30000000000000004"></path><g style="opacity:0.30000000000000004"><path d="M265.91,297.11c.12-.84-.72-1.48-1.49-1.83-5.09-2.33-11.13-1.13-16.52-2.68a3.12,3.12,0,0,1-1.57-.84,1.23,1.23,0,0,1,0-1.64c.33-.32.85-.33,1.27-.51,1.27-.52,1.43-2.38.7-3.55a10.45,10.45,0,0,0-3.14-2.63,15.58,15.58,0,0,1-5.89-8,9.51,9.51,0,0,0-1.45-3.44c-.81-1-2.43-1.38-3.3-.48l-.32.79c1.49,7.72,4.13,15.71,5.63,23.42a4.88,4.88,0,0,0,1.44,3.11,4.7,4.7,0,0,0,2.59.71,85.13,85.13,0,0,0,20-1.07C264.73,298.32,265.78,298,265.91,297.11Z" style="fill:#fff"></path></g><path d="M234.94,273.73c-.06,0-.24-.3-.25-.88a3,3,0,0,1,2.82-3c.59,0,.92.12.91.18s-.35.07-.86.18a3.39,3.39,0,0,0-1.68.94,3.3,3.3,0,0,0-.82,1.75C235,273.38,235,273.72,234.94,273.73Z" style="fill:#fff"></path><path d="M259.5,266a11.86,11.86,0,0,1-2.38.8c-1.5.43-3.58,1-5.9,1.44s-4.44.85-6,1.07a11.51,11.51,0,0,1-2.51.22,13.13,13.13,0,0,1,2.44-.59l5.93-1.21,5.92-1.28A11.37,11.37,0,0,1,259.5,266Z" style="fill:#fff"></path><path d="M238.82,292.74a42.3,42.3,0,0,1-1.86-6.35,42.35,42.35,0,0,1-1.34-6.48,41.64,41.64,0,0,1,1.85,6.35A43.19,43.19,0,0,1,238.82,292.74Z" style="fill:#fff"></path><path d="M262,265.65c.12.09,0,.34-.25.3s-.28-.33-.13-.37a.47.47,0,0,0,.22-.14A.72.72,0,0,0,262,265.65Z" style="fill:#fff"></path></g></svg>
