<svg xmlns="http://www.w3.org/2000/svg" viewBox="0 0 750 500"><g id="freepik--Floor--inject-859"><path d="M726.74,439.53c0,.14-154.81.26-345.72.26s-345.76-.12-345.76-.26S190,439.26,381,439.26,726.74,439.38,726.74,439.53Z" style="fill:#263238"></path></g><g id="freepik--big-hashtag--inject-859"><polygon points="329.53 111.51 279.85 439.39 355.98 439.39 404.74 111.51 329.53 111.51" style="fill:#FF725E"></polygon><path d="M329.53,111.51l1.26,0h3.77l14.68,0,55.5-.08h.17l0,.17c-10.73,72.29-28.53,192.24-48.65,327.9l0,.22H279.55l.05-.3c14.19-93.4,26.66-175.39,35.57-234,4.47-29.29,8.05-52.75,10.51-68.9,1.24-8,2.19-14.28,2.84-18.51.33-2.1.58-3.7.74-4.78s.27-1.61.27-1.61l-.24,1.65c-.16,1.09-.39,2.7-.71,4.81-.63,4.24-1.57,10.49-2.77,18.57-2.44,16.17-6,39.65-10.38,69-8.85,58.61-21.23,140.55-35.33,233.91l-.25-.3H356l-.26.22c20.22-135.64,38.1-255.58,48.87-327.86l.15.17-55.41-.08-14.72,0h-3.79Z" style="fill:#263238"></path><polygon points="468.4 113.75 417.51 440.15 492.93 439.36 543.62 113.75 468.4 113.75" style="fill:#FF725E"></polygon><path d="M468.4,113.75l1.27,0h3.77l14.68,0,55.5-.08h.17l0,.17c-11.17,71.87-29.67,191-50.59,325.63l0,.22h-.71l-74.93.78h-.3l0-.3c14.55-93,27.31-174.59,36.44-233,4.58-29.16,8.25-52.52,10.78-68.59,1.26-8,2.24-14.22,2.91-18.43.33-2.09.58-3.68.76-4.76s.26-1.6.26-1.6-.07.56-.23,1.64-.41,2.69-.73,4.79l-2.85,18.49L454,207.34c-9.07,58.35-21.76,139.93-36.2,232.85l-.26-.3,74.93-.79h.49l-.25.22c21-134.65,39.59-253.73,50.8-325.6l.15.18-55.42-.08-14.71,0-3.79,0Z" style="fill:#263238"></path><polygon points="251.03 231.06 274.79 158.01 608.61 158.01 591.72 231.06 251.03 231.06" style="fill:#FF725E"></polygon><path d="M251,231.06l340.69-.26-.25.2c5.26-22.72,10.73-46.41,16.32-70.58.19-.84.38-1.67.57-2.47l.25.32-333.83-.11.15-.11-23.9,73c.35-1.07,8.69-26.91,23.61-73.1l0-.1h.1l333.83-.11h.33l-.07.32-.58,2.46c-5.59,24.18-11.06,47.86-16.32,70.59l0,.2h-.21Z" style="fill:#263238"></path><polygon points="221.7 368.03 245.45 294.98 579.28 294.98 562.39 368.03 221.7 368.03" style="fill:#FF725E"></polygon><path d="M221.7,368l340.69-.25-.25.19c5.25-22.72,10.73-46.4,16.31-70.58.2-.84.39-1.67.57-2.47l.26.32-333.83-.11.14-.1C230.5,341.16,222.05,367,221.7,368l23.61-73.1,0-.1h.11l333.83-.11h.33l-.08.32c-.18.8-.38,1.63-.57,2.47-5.59,24.18-11.06,47.85-16.32,70.58l0,.2h-.2Z" style="fill:#263238"></path><g style="opacity:0.30000000000000004"><polygon points="309.12 249.08 384.92 247.71 387.4 231.06 311.85 231.06 309.12 249.08"></polygon></g><g style="opacity:0.30000000000000004"><polygon points="446.95 249.85 522.2 249.85 525.41 231.06 449.85 231.06 446.95 249.85"></polygon></g><g style="opacity:0.30000000000000004"><polygon points="363.92 385.48 288.14 384.68 290.44 368.03 366.04 368.03 363.92 385.48"></polygon></g><g style="opacity:0.30000000000000004"><polygon points="501.18 385.48 426.56 384.69 428.86 368.04 504.46 368.04 501.18 385.48"></polygon></g></g><g id="freepik--small-hashtags--inject-859"><polygon points="234.15 75.9 215.95 131.95 228.96 131.95 247.01 75.9 234.15 75.9" style="fill:#FF725E"></polygon><polygon points="256.21 76.03 238.05 131.95 251.06 131.97 269.07 76.03 256.21 76.03" style="fill:#FF725E"></polygon><polygon points="213.12 97.27 217.52 84.78 276.25 84.78 272.41 97.27 213.12 97.27" style="fill:#FF725E"></polygon><polygon points="207.68 120.33 212.07 107.84 270.81 107.84 266.97 120.33 207.68 120.33" style="fill:#FF725E"></polygon><polygon points="589.88 89.27 577.39 127.73 586.32 127.73 598.7 89.27 589.88 89.27" style="fill:#455a64"></polygon><polygon points="605.01 89.36 592.55 127.73 601.48 127.74 613.83 89.36 605.01 89.36" style="fill:#455a64"></polygon><polygon points="575.45 103.94 578.47 95.37 618.76 95.37 616.12 103.94 575.45 103.94" style="fill:#455a64"></polygon><polygon points="571.72 119.75 574.73 111.19 615.03 111.19 612.39 119.75 571.72 119.75" style="fill:#455a64"></polygon></g><g id="freepik--Plant--inject-859"><path d="M204.6,413.27S200.72,386.54,201,371s0-33.05,0-33.05h1.79s-1.21,30.87.11,49.49,4.8,25.84,4.8,25.84H204.6" style="fill:#263238"></path><path d="M216.19,307.87a4.82,4.82,0,0,0-1.64-2.39c-1.13-.72-2.62-.42-3.89,0-5.42,1.91-10.21,12-12.4,17.31L205.44,347C218.42,335,220.66,319.22,216.19,307.87Z" style="fill:#455a64"></path><path d="M214.13,306.46a1.2,1.2,0,0,1-.1.32l-.35.88c-.32.76-.76,1.87-1.29,3.24-1.06,2.75-2.4,6.6-3.61,10.93s-2,8.32-2.54,11.22c-.25,1.45-.45,2.63-.57,3.45l-.15.93a1.3,1.3,0,0,1-.08.33,1.63,1.63,0,0,1,0-.33l.1-.95c.08-.82.25-2,.48-3.46a101.86,101.86,0,0,1,2.45-11.27,103.77,103.77,0,0,1,3.71-10.92c.55-1.37,1-2.47,1.37-3.22.17-.35.3-.63.4-.86A2.18,2.18,0,0,1,214.13,306.46Z" style="fill:#263238"></path><path d="M202.25,352.84a21.91,21.91,0,0,1-11.08-18.41c-.25-5.37,1.4-10.64,3.27-15.69a2,2,0,0,1,.76-1.14,1.93,1.93,0,0,1,1.83.29c4.9,2.79,7.86,8.1,9.44,13.51a27.2,27.2,0,0,1,1.11,11.11,18.42,18.42,0,0,1-5.33,10.33" style="fill:#455a64"></path><path d="M202.25,352.84a1.34,1.34,0,0,1,0-.32v-.93c0-.81,0-2-.1-3.41A94.26,94.26,0,0,0,200.86,337c-.75-4.34-1.66-8.22-2.33-11-.33-1.37-.6-2.5-.79-3.32-.09-.37-.16-.67-.21-.91a1,1,0,0,1-.05-.32,2,2,0,0,1,.11.31c.07.23.15.53.26.89.22.78.52,1.9.89,3.3.72,2.8,1.66,6.68,2.41,11a81.53,81.53,0,0,1,1.16,11.23c0,1.44.05,2.61,0,3.42,0,.38,0,.68,0,.93A1.34,1.34,0,0,1,202.25,352.84Z" style="fill:#263238"></path><g style="opacity:0.30000000000000004"><path d="M202.25,352.84a21.91,21.91,0,0,1-11.08-18.41c-.25-5.37,1.4-10.64,3.27-15.69a2,2,0,0,1,.76-1.14,1.93,1.93,0,0,1,1.83.29c4.9,2.79,7.86,8.1,9.44,13.51a27.2,27.2,0,0,1,1.11,11.11,18.42,18.42,0,0,1-5.33,10.33"></path></g><path d="M209.85,393.74c6.63,1.46,12.09,6.13,18.48,8.41,4.24,1.5,9,2,12.4,5-.81-2-2.73-3.41-4.6-4.57a82,82,0,0,0-16.75-8c-3-1-6.28-1.91-9.34-1.05" style="fill:#455a64"></path><path d="M200.27,399.65c-8.31-.14-17.05-7.21-25.31-7.63,8.64-2.79,21-.51,25.31,7.63" style="fill:#455a64"></path><path d="M203.51,379.73a27,27,0,0,1,13.27-.9,81.16,81.16,0,0,1,13,3.52c-.43-2.88-2.76-5.05-5-7a34.51,34.51,0,0,0-5.2-4,11.6,11.6,0,0,0-6.24-1.77,9.9,9.9,0,0,0-6.89,3.48,11.43,11.43,0,0,0-3,6.63" style="fill:#455a64"></path><path d="M186.47,370.56c-5.23-4.46-13.14-4-20-3.87a162.77,162.77,0,0,1,31,19.34C197.77,381.18,193.07,376.2,186.47,370.56Z" style="fill:#455a64"></path><g style="opacity:0.30000000000000004"><path d="M186.47,370.56c-5.23-4.46-13.14-4-20-3.87a162.77,162.77,0,0,1,31,19.34C197.77,381.18,193.07,376.2,186.47,370.56Z"></path></g><path d="M205.86,364.4a58.58,58.58,0,0,1,8-4.67c2.75-1.25,5.31-3.24,8-4.68,3.45-1.86,6.43-4.46,9.59-6.77s6.64-4.4,10.51-5a20.65,20.65,0,0,0-9.56.55,62.3,62.3,0,0,0-9,3.5c-4.08,1.84-8.22,3.72-11.56,6.7s-6.34,5.93-6,10.38" style="fill:#455a64"></path><path d="M228.18,399.65a1,1,0,0,1-.26-.12l-.72-.37c-.63-.33-1.53-.83-2.66-1.4-.56-.29-1.18-.6-1.85-.92s-1.39-.65-2.16-1a31.48,31.48,0,0,0-5.11-1.79,11.08,11.08,0,0,0-5.32-.13,15.9,15.9,0,0,0-2.26.67,11.79,11.79,0,0,0-4.11,2.83c-.48.52-.72.83-.74.82a1.28,1.28,0,0,1,.15-.25c.1-.15.27-.37.5-.65a11.07,11.07,0,0,1,2.26-2,11.43,11.43,0,0,1,1.85-1,14.51,14.51,0,0,1,2.28-.71,11,11,0,0,1,5.46.11,29.26,29.26,0,0,1,5.15,1.82c.77.34,1.49.67,2.16,1s1.29.65,1.84,1c1.12.59,2,1.11,2.61,1.48l.7.42C228.11,399.58,228.19,399.64,228.18,399.65Z" style="fill:#263238"></path><path d="M194.07,395.53a2.1,2.1,0,0,1,.52.15c.33.12.8.32,1.36.59a16.37,16.37,0,0,1,4,2.82,16,16,0,0,1,3,3.85,10,10,0,0,1,.64,1.33,2,2,0,0,1,.18.51s-.36-.68-1-1.74a18.33,18.33,0,0,0-6.85-6.58C194.77,395.86,194.05,395.58,194.07,395.53Z" style="fill:#263238"></path><path d="M175.7,370.15a1.3,1.3,0,0,1,.36.1l1,.36,1.57.57c.62.23,1.28.57,2,.9A47.9,47.9,0,0,1,191.46,379a51.67,51.67,0,0,1,5,5,55.76,55.76,0,0,1,3.58,4.53c.95,1.35,1.67,2.46,2.16,3.24l.57.89a1.21,1.21,0,0,1,.18.32s-.09-.09-.23-.29-.36-.48-.62-.86c-.52-.75-1.26-1.85-2.23-3.17s-2.18-2.86-3.61-4.48a56.24,56.24,0,0,0-5-4.92,50.72,50.72,0,0,0-10.71-6.92c-.74-.34-1.4-.69-2-.93l-1.55-.63-1-.4A2.17,2.17,0,0,1,175.7,370.15Z" style="fill:#263238"></path><path d="M216,375.06a2.88,2.88,0,0,1-.66-.08l-.77-.14c-.29-.06-.64-.06-1-.1a10.33,10.33,0,0,0-5.7,1.13,10.45,10.45,0,0,0-2.6,1.92,11.57,11.57,0,0,0-1.67,2.07,17.45,17.45,0,0,0-1.14,2.17,2.25,2.25,0,0,1,.17-.64,9.31,9.31,0,0,1,.79-1.64A10.94,10.94,0,0,1,205,377.6a10.07,10.07,0,0,1,8.51-3.07c.38.05.73.07,1,.14l.76.2A2.69,2.69,0,0,1,216,375.06Z" style="fill:#263238"></path><path d="M224.31,349.18a1.56,1.56,0,0,1-.31.19l-.93.5c-.8.44-2,1.08-3.37,1.91s-3,1.87-4.81,3.13a40.43,40.43,0,0,0-5.37,4.5,13.31,13.31,0,0,0-2.2,2.84c-.54,1-1.06,2.05-1.54,3a56.92,56.92,0,0,0-2.31,5.25,33.32,33.32,0,0,0-1.12,3.7c-.21.89-.29,1.39-.32,1.39a1.44,1.44,0,0,1,0-.37c0-.24.08-.59.17-1a27.11,27.11,0,0,1,1-3.75,50,50,0,0,1,2.26-5.3c.47-1,1-2,1.52-3a13.9,13.9,0,0,1,2.25-2.92,38.87,38.87,0,0,1,5.42-4.52c1.77-1.25,3.44-2.26,4.86-3.08s2.61-1.43,3.43-1.83l.95-.45Z" style="fill:#263238"></path><path d="M201,374.32a3.21,3.21,0,0,1-.16-.7c-.1-.52-.22-1.16-.37-1.92a52.87,52.87,0,0,0-1.57-6.23,54.71,54.71,0,0,0-2.37-6c-.32-.7-.59-1.3-.81-1.77a2.81,2.81,0,0,1-.26-.67,5,5,0,0,1,.37.62c.22.4.53,1,.89,1.73a42.37,42.37,0,0,1,2.46,6,43.43,43.43,0,0,1,1.5,6.28c.13.82.22,1.48.27,1.94A3.5,3.5,0,0,1,201,374.32Z" style="fill:#263238"></path><path d="M200.43,355.43a22.57,22.57,0,0,0-2.7-9,29.57,29.57,0,0,0-20.06-14.95l18.57,27.67,2.4,4.94A14.15,14.15,0,0,0,200.43,355.43Z" style="fill:#455a64"></path><rect x="183.89" y="409.97" width="43.17" height="7.65" style="fill:#FF725E"></rect><polygon points="187.11 416.1 190.79 439.84 219.45 439.84 223.84 416.1 187.11 416.1" style="fill:#FF725E"></polygon><path d="M227,417.63c0,.08-9.74.15-21.75.15s-21.75-.07-21.75-.15,9.74-.15,21.75-.15S227,417.54,227,417.63Z" style="fill:#263238"></path></g><g id="freepik--Device--inject-859"><path d="M512.51,391.05l9.69,47.55h84.06a1.68,1.68,0,0,0,1.67-1.68h0a1.68,1.68,0,0,0-1.67-1.68H589.33l-9-44.22a1.85,1.85,0,0,0-1.78-1.47l-64.25-.7A1.84,1.84,0,0,0,512.51,391.05Z" style="fill:#e0e0e0"></path><path d="M512.51,391.05a1.13,1.13,0,0,1,0-.14,1.42,1.42,0,0,1,0-.43,1.82,1.82,0,0,1,.89-1.39,1.92,1.92,0,0,1,.55-.22,3,3,0,0,1,.67,0h1.51l3.78,0,24.29.23,16.94.17,9.48.1,5,.05,2.54,0c.22,0,.42,0,.65,0a2,2,0,0,1,.65.19,1.93,1.93,0,0,1,.92,1,2.68,2.68,0,0,1,.18.64l.13.64c.09.43.17.86.26,1.29.18.86.35,1.72.53,2.59q.52,2.63,1.07,5.29,1.1,5.35,2.23,10.95c1.52,7.45,3.09,15.21,4.72,23.19l-.12-.09H606a3,3,0,0,1,.66,0,1.79,1.79,0,0,1,1.4,2,1.84,1.84,0,0,1-.92,1.31,2,2,0,0,1-.79.21H561.67l-39.47,0h-.07l0-.07c-3-14.61-5.37-26.5-7-34.73-.83-4.12-1.48-7.32-1.91-9.5-.22-1.09-.38-1.92-.5-2.48s-.16-.85-.16-.85.07.29.19.84l.52,2.48c.44,2.17,1.11,5.37,1.95,9.49,1.69,8.23,4.12,20.11,7.12,34.72l-.09-.07,39.47,0h44.64a1.66,1.66,0,0,0,.69-.19,1.58,1.58,0,0,0,.8-1.14,1.56,1.56,0,0,0-1.22-1.76,3.91,3.91,0,0,0-.61,0H589.24l0-.09-4.7-23.2c-.76-3.72-1.5-7.38-2.22-10.94-.37-1.79-.72-3.55-1.08-5.29-.17-.88-.35-1.74-.52-2.6-.09-.43-.18-.86-.26-1.29l-.13-.64a3.51,3.51,0,0,0-.16-.6,1.76,1.76,0,0,0-.83-.87,1.69,1.69,0,0,0-.58-.17h-.63l-2.55,0-5-.06-9.49-.11-16.93-.2-24.29-.3-3.78-.05-1.51,0a2.82,2.82,0,0,0-.66,0,1.6,1.6,0,0,0-.54.21,1.83,1.83,0,0,0-.89,1.35A3.06,3.06,0,0,0,512.51,391.05Z" style="fill:#263238"></path><path d="M551.25,412.81a2.78,2.78,0,1,1-2.78-2.78A2.78,2.78,0,0,1,551.25,412.81Z" style="fill:#fff"></path><path d="M512.59,391.44H517l12,.06,39.65.28,5.74,0h1.4a3.54,3.54,0,0,1,.72.05,2,2,0,0,1,1.54,1.43c.1.46.18.9.27,1.36.71,3.58,1.4,7,2,10.32,1.3,6.58,2.48,12.51,3.46,17.49s1.76,9,2.31,11.79c.27,1.39.47,2.47.62,3.21l.15.84c0,.19.05.29.05.29s0-.1-.07-.29l-.18-.83c-.15-.74-.37-1.81-.66-3.2-.56-2.79-1.38-6.81-2.38-11.78s-2.19-10.9-3.51-17.48c-.65-3.29-1.34-6.74-2.06-10.32-.09-.44-.17-.91-.27-1.34a1.74,1.74,0,0,0-.76-1,1.86,1.86,0,0,0-.6-.25,3.71,3.71,0,0,0-.68,0H574.4l-5.73,0L529,391.65l-12-.13-3.27,0-.85,0Z" style="fill:#263238"></path></g><g id="freepik--speech-bubble-3--inject-859"><path d="M655.86,226.14l7.74-2.67a26,26,0,1,0-7.1-6.06h0Z" style="fill:#fff"></path><path d="M655.86,226.14l.06-.59c0-.39.08-1,.14-1.68.12-1.48.3-3.65.53-6.46l-.16.07h0a.12.12,0,0,0,.15,0,.12.12,0,0,0,0-.13,26.13,26.13,0,0,1-5.33-11.59A26.22,26.22,0,0,1,654,188.63a25.79,25.79,0,0,1,39.17-7.45,25.51,25.51,0,0,1,7.34,10,26.29,26.29,0,0,1,1.89,11.69,25.93,25.93,0,0,1-9.94,18.52,25.92,25.92,0,0,1-28.81,2,.08.08,0,0,0-.08,0l-5.71,2-1.49.54-.51.19.48-.15,1.48-.48,5.82-1.94h-.09a26.09,26.09,0,0,0,29.16-1.87,26.46,26.46,0,0,0,6.86-7.95,26.16,26.16,0,0,0,3.29-10.86,26.67,26.67,0,0,0-1.92-11.9,26,26,0,0,0-7.46-10.17,26.21,26.21,0,0,0-39.83,7.63,25.94,25.94,0,0,0-2.92,9,25.6,25.6,0,0,0,.21,8.38,26,26,0,0,0,5.48,11.66l.14-.15h0a.1.1,0,0,0-.14,0s0,0,0,0c-.18,2.85-.32,5-.41,6.55,0,.71-.08,1.26-.1,1.66S655.86,226.14,655.86,226.14Z" style="fill:#263238"></path><path d="M682.16,202.82h3.74V206h-4.12l-.58,4.62H678l.57-4.62h-4.23l-.58,4.62h-3.23l.58-4.62h-3.78v-3.14h4.15l.61-4.67h-3.78V195h4.15l.58-4.62h3.23l-.58,4.62h4.24l.58-4.62h3.22l-.57,4.62h3.75l0,3.14h-4.16Zm-3.26,0,.6-4.67h-4.23l-.61,4.67Z" style="fill:#FF725E"></path></g><g id="freepik--speech-bubble-2--inject-859"><path d="M226,275l-2.71-6a23.12,23.12,0,1,0-4.05,7.24h0Z" style="fill:#fff"></path><path d="M226,275l-.42.09-1.28.26-5.05,1a.08.08,0,0,1-.09-.06.06.06,0,0,1,0,0h0l.12.07a23.06,23.06,0,0,1-9,6.72,23.46,23.46,0,0,1-3.41,1.1c-.6.16-1.23.23-1.86.35-.32.05-.64.13-1,.16l-1,.07a23,23,0,0,1-16.5-5.31,23.49,23.49,0,0,1-6.15-7.9,23.27,23.27,0,0,1,.65-21.17l.71-1.25.83-1.18.41-.59c.14-.18.31-.36.46-.54l.92-1.09c.32-.35.68-.66,1-1a13.3,13.3,0,0,1,1-.95,22.47,22.47,0,0,1,2.25-1.66,23.09,23.09,0,0,1,20.11-2.59A23.26,23.26,0,0,1,222,250.82a23.5,23.5,0,0,1,1.5,3.56,28.42,28.42,0,0,1,.84,3.49,23.07,23.07,0,0,1-1,11.19V269c.86,1.95,1.53,3.45,2,4.48.22.5.39.88.5,1.15s.16.38.16.38l-.19-.4c-.13-.27-.3-.65-.54-1.15l-2-4.4a0,0,0,0,1,0-.05,23.05,23.05,0,0,0,.91-11.11,27.51,27.51,0,0,0-.85-3.45,23.32,23.32,0,0,0-6.64-10.08,23.08,23.08,0,0,0-17.86-5.63,23.29,23.29,0,0,0-9.94,3.63,21.67,21.67,0,0,0-2.21,1.63,11.24,11.24,0,0,0-1,.94c-.33.33-.68.63-1,1l-.92,1.06c-.15.18-.31.36-.45.54l-.4.58-.82,1.16-.7,1.24a22.95,22.95,0,0,0-.65,20.86A22.94,22.94,0,0,0,203,284.46l1-.07c.32,0,.63-.1,1-.14.62-.12,1.25-.19,1.84-.34a22.29,22.29,0,0,0,3.38-1.08,23.22,23.22,0,0,0,9-6.6.08.08,0,0,1,.1,0,.07.07,0,0,1,0,.09h0l-.08-.1,5-.9,1.31-.23Z" style="fill:#263238"></path><path d="M211.44,260.23a5.91,5.91,0,0,0-1.51-3.22,5.59,5.59,0,0,0-3-1.84,4.6,4.6,0,0,0-5.08,2.33,4.59,4.59,0,0,0-1.36-1.48,4.66,4.66,0,0,0-3.59-.73,5.71,5.71,0,0,0-3,1.82,5.86,5.86,0,0,0-1.54,3.21,7.21,7.21,0,0,0,.87,4.44,10.28,10.28,0,0,0,3.5,3.31c2.29,1.39,5.31,3.14,5.31,3.14s2.56-1.9,4.87-3.27a10.16,10.16,0,0,0,3.53-3.27A7.28,7.28,0,0,0,211.44,260.23Z" style="fill:#FF725E"></path></g></svg>
