<svg xmlns="http://www.w3.org/2000/svg" viewBox="0 0 500 500"><g id="freepik--Atoms--inject-435"><path d="M418.88,300c-12.08,0-30.87-5.46-55.19-16.17C326,267.2,279.61,240,233,207.17s-88-67.3-116.31-97.12S76.22,58.47,82.87,49s31.11-5.5,68.86,11.14,84.08,43.8,130.74,76.61,88,67.31,116.31,97.13,40.42,51.58,33.77,61l-.2-.14.2.14C430.18,298.29,425.56,300,418.88,300ZM96.54,44.45c-6.42,0-11,1.56-13.26,4.85-13.49,19.19,53.78,89.83,150,157.46,46.63,32.8,93,60,130.65,76.57s61.75,20.55,68.25,11.31h0c13.49-19.19-53.78-89.83-150-157.47C202.48,81.12,127.55,44.45,96.54,44.45Z" style="fill:#FF725E"></path><path d="M80.41,306.46c-6.14,0-10.46-1.55-12.79-4.68-6.9-9.28,4.52-31.27,32.14-61.91s67.93-66.13,113.7-100.17,91.47-62.47,128.67-80,61.64-22.23,68.54-12.95S406.15,78,378.53,108.6,310.6,174.74,264.82,208.77s-91.46,62.47-128.66,80C111.46,300.5,92.44,306.46,80.41,306.46Zm317.47-264c-30.39,0-105.08,38.85-184.12,97.62-45.75,34-86.1,69.57-113.63,100.1S61.28,292.41,68,301.48c14,18.82,102.15-23,196.51-93.11S424.26,65.82,410.27,47C408,43.94,403.77,42.48,397.88,42.48Z" style="fill:#FF725E"></path><path d="M414.1,127.83a4,4,0,1,1-4-4A4,4,0,0,1,414.1,127.83Z" style="fill:#FF725E"></path><path d="M128.44,244.53a4,4,0,1,1-4-4A4,4,0,0,1,128.44,244.53Z" style="fill:#FF725E"></path><circle cx="155.36" cy="53.93" r="2.83" style="fill:#FF725E"></circle><path d="M396,148.79a1.62,1.62,0,1,1-1.62-1.63A1.62,1.62,0,0,1,396,148.79Z" style="fill:#FF725E"></path><path d="M85.36,241.3a1.62,1.62,0,1,1-1.62-1.62A1.63,1.63,0,0,1,85.36,241.3Z" style="fill:#FF725E"></path></g></svg>
