<?xml version="1.0" encoding="UTF-8" standalone="no"?>
<svg
   width="24"
   height="24"
   viewBox="0 0 24 24"
   version="1.1"
   id="svg6"
   sodipodi:docname="102.svg"
   inkscape:version="1.1.2 (0a00cf5339, 2022-02-04)"
   xmlns:inkscape="http://www.inkscape.org/namespaces/inkscape"
   xmlns:sodipodi="http://sodipodi.sourceforge.net/DTD/sodipodi-0.dtd"
   xmlns="http://www.w3.org/2000/svg"
   xmlns:svg="http://www.w3.org/2000/svg">
  <defs
     id="defs10" />
  <sodipodi:namedview
     id="namedview8"
     pagecolor="#ffffff"
     bordercolor="#666666"
     borderopacity="1.0"
     inkscape:pageshadow="2"
     inkscape:pageopacity="0.0"
     inkscape:pagecheckerboard="0"
     showgrid="false"
     inkscape:zoom="23.583333"
     inkscape:cx="2.5441696"
     inkscape:cy="12.530036"
     inkscape:window-width="1482"
     inkscape:window-height="800"
     inkscape:window-x="0"
     inkscape:window-y="0"
     inkscape:window-maximized="1"
     inkscape:current-layer="svg6" />
  <path
     d="M8.75 8h6.5a.75.75 0 0 1 .75.75v6.5a.75.75 0 0 1-.75.75h-6.5a.75.75 0 0 1-.75-.75v-6.5A.75.75 0 0 1 8.75 8Zm.75 6.5h5v-5h-5Z"
     id="path2"
     style="fill:#b78814;fill-opacity:1" />
  <path
     d="M15.25 1a.75.75 0 0 1 .75.75V4h2.25c.966 0 1.75.784 1.75 1.75V8h2.25a.75.75 0 0 1 0 1.5H20v5h2.25a.75.75 0 0 1 0 1.5H20v2.25A1.75 1.75 0 0 1 18.25 20H16v2.25a.75.75 0 0 1-1.5 0V20h-5v2.25a.75.75 0 0 1-1.5 0V20H5.75A1.75 1.75 0 0 1 4 18.25V16H1.75a.75.75 0 0 1 0-1.5H4v-5H1.75a.75.75 0 0 1 0-1.5H4V5.75C4 4.784 4.784 4 5.75 4H8V1.75a.75.75 0 0 1 1.5 0V4h5V1.75a.75.75 0 0 1 .75-.75Zm3 17.5a.25.25 0 0 0 .25-.25V5.75a.25.25 0 0 0-.25-.25H5.75a.25.25 0 0 0-.25.25v12.5c0 .138.112.25.25.25Z"
     id="path4"
     style="fill:#b78814;fill-opacity:1" />
</svg>
