<?xml version="1.0" encoding="UTF-8"?>
<svg id="Addiction_Services" data-name="Addiction Services" xmlns="http://www.w3.org/2000/svg" viewBox="0 0 1201 601">
  <defs>
    <style>
      .cls-1 {
        fill: #3c4043;
      }

      .cls-1, .cls-2, .cls-3, .cls-4, .cls-5, .cls-6, .cls-7, .cls-8 {
        stroke-linejoin: round;
      }

      .cls-1, .cls-2, .cls-3, .cls-4, .cls-5, .cls-6, .cls-8 {
        stroke-linecap: round;
      }

      .cls-1, .cls-2, .cls-3, .cls-4, .cls-6, .cls-8, .cls-9, .cls-10 {
        stroke: #3c4043;
      }

      .cls-2, .cls-8 {
        fill: #b06000;
      }

      .cls-3, .cls-11, .cls-10 {
        fill: #fff;
      }

      .cls-4 {
        fill: #fba089;
      }

      .cls-5, .cls-6, .cls-7 {
        fill: none;
      }

      .cls-5, .cls-7 {
        stroke: #bdc1c6;
      }

      .cls-12 {
        fill: #f8f9fa;
      }

      .cls-13 {
        fill: #fbbc04;
      }

      .cls-14, .cls-9 {
        fill: #e8eaed;
      }

      .cls-15 {
        fill: #feefc3;
      }

      .cls-16 {
        fill: #fde293;
      }

      .cls-17 {
        fill: #4285f4;
      }

      .cls-8 {
        fill-rule: evenodd;
      }

      .cls-9, .cls-10 {
        stroke-miterlimit: 10;
      }
    </style>
  </defs>
  <path class="cls-6" d="m164.42,538.22h872.16"/>
  <path class="cls-1" d="m345.75,401.85l328.12,29.02v-28.58s-355.25-.44-328.12-.44Z"/>
  <g>
    <path class="cls-10" d="m670.65,473.45H168.68c-2.34,0-4.25-1.91-4.25-4.25V190.56c0-2.34,1.91-4.25,4.25-4.25h501.98c2.34,0,4.25,1.91,4.25,4.25v278.64c0,2.34-1.89,4.25-4.25,4.25Z"/>
    <path class="cls-9" d="m482.22,538.22h-127.26c15.46-11.25,25.89-28.14,28.99-47.01l2.91-17.76h63.45l2.91,17.76c3.11,18.87,13.53,35.76,28.99,47.01Z"/>
    <path class="cls-1" d="m452.63,487.59l-65.87-13.4.13-.74h63.43l2.3,14,.02.15Z"/>
    <path class="cls-5" d="m201,342h196.63"/>
    <path class="cls-5" d="m201,357.42h196.63"/>
    <path class="cls-5" d="m201,372.85h196.63"/>
    <path class="cls-7" d="m166.72,209.03h505.93"/>
    <path class="cls-5" d="m177.11,200.79c1.71,0,3.09-1.38,3.09-3.09s-1.38-3.09-3.09-3.09-3.09,1.38-3.09,3.09,1.38,3.09,3.09,3.09Z"/>
    <path class="cls-5" d="m192.28,200.79c1.71,0,3.09-1.38,3.09-3.09s-1.38-3.09-3.09-3.09-3.09,1.38-3.09,3.09,1.38,3.09,3.09,3.09Z"/>
    <path class="cls-5" d="m207.46,200.79c1.71,0,3.09-1.38,3.09-3.09s-1.38-3.09-3.09-3.09-3.09,1.38-3.09,3.09,1.38,3.09,3.09,3.09Z"/>
    <path class="cls-5" d="m201,388.27h196.63"/>
    <path class="cls-5" d="m201,403.69h196.63"/>
    <path class="cls-5" d="m201,419.11h133.67"/>
    <rect class="cls-14" x="201" y="241.19" width="145.2" height="76.1"/>
    <path class="cls-12" d="m246.47,293.65h54.27c.75,0,1.44-.43,1.77-1.11.33-.67.24-1.48-.23-2.07l-18.18-22.91c-.37-.47-.94-.74-1.54-.74s-1.17.27-1.54.74l-11.96,15.07-7.41-9.34-1.54,1.22h0s1.54-1.22,1.54-1.22c-.37-.47-.94-.74-1.54-.74s-1.16.27-1.53.74l-13.64,17.18c-.47.59-.56,1.39-.23,2.07.33.68,1.02,1.11,1.77,1.11Zm13.64-15.99l7.41,9.34c.37.47.94.74,1.53.74s1.17-.27,1.54-.74l-1.54-1.22h0s1.54,1.22,1.54,1.22l11.96-15.06,14.12,17.79h-46.15l9.58-12.06Z"/>
  </g>
  <path class="cls-1" d="m345.75,409.85l328.12,29.02v-28.58s-355.25-.44-328.12-.44Z"/>
  <g>
    <rect class="cls-3" x="344.16" y="229.88" width="539.89" height="179.96"/>
    <path class="cls-6" d="m369.87,352h334.22"/>
    <path class="cls-6" d="m369.87,377.71h305.3"/>
    <path class="cls-17" d="m369.87,300.58h334.22v25.71h-334.22v-25.71Z"/>
    <rect class="cls-17" x="369.87" y="263.7" width="334.89" height="12.85"/>
  </g>
  <path class="cls-3" d="m1036.58,101.26h-305.05v278.35h305.05V101.26Z"/>
  <path class="cls-1" d="m732.21,379.83l151.84,29.02v-28.58s-164.4-.44-151.84-.44Z"/>
  <g>
    <circle class="cls-13" cx="731.53" cy="101.26" r="38.48"/>
    <path class="cls-11" d="m728.47,120.48c-.84-.84-1.26-1.85-1.26-3.03s.42-2.19,1.26-3.03c.84-.84,1.87-1.26,3.09-1.26s2.24.41,3.06,1.23,1.23,1.84,1.23,3.06-.41,2.19-1.23,3.03c-.82.84-1.84,1.26-3.06,1.26s-2.25-.42-3.09-1.26Zm0-26.82v-12.86h6.17v12.86l-.63,15.04h-4.97l-.57-15.04Z"/>
  </g>
  <path class="cls-15" d="m1008.1,130.26h-248.09v220.37h248.09v-220.37Z"/>
  <g>
    <path class="cls-11" d="m824.88,233.02c-11.2,0-41.17,6.6-41.17,6.6l.05,83.12s27.82,8.93,41.12,8.93c26.68,0,48.6-17.6,51.04-42.67h96.94c0,2.58,11.26,36.98,11.26,34.41v-77.86c0-2.58-11.26,32.46-11.26,32.46h-96.77c-1.26-26.16-23.71-45-51.21-45Z"/>
    <path class="cls-13" d="m826.58,324.88c14.56,0,27.54-6.47,36.02-16.58,4.49-5.36-11.94,7-30.93,2.57-18.99-4.43-31.26,8.53-31.26,8.53,8.31,2.27,19.24,5.48,26.17,5.48Z"/>
  </g>
  <g>
    <path class="cls-11" d="m883.49,267.89s9.32-26.04,14.34-35.27c5.19-9.56,9.95-11.59,14.28-11.59s7.32,1.29,9.58,4.59c1.27,1.86,24.08,30.97,24.08,30.97l-8.8,3.39s-7.53-8.55-8.93-10.51c-1.48-2.07-7.02-9.63-7.02-9.63-1.03,6.45-7.75,8.92-9.26,13.03-1.51,4.11-3.36,8.5-3.36,8.5-10.38,1.52-17.77,2.97-24.91,6.51Z"/>
    <path class="cls-11" d="m883.49,267.89c-.23.55.09,1.54,3.1,1.54,0-1.55.03-2.91.03-2.91l-3.13,1.36Z"/>
    <path class="cls-13" d="m886.61,266.52c0,5.98-.72,18.91,20.38,17.85,21.3-1.08,24.08-1.37,24.08-1.37l-8.31,30.65h9.27s10.34-21.71,12.82-27.51c2.48-5.79.14-13.54-9.52-15.35,4.47-1.88,7.54-3.15,7.54-3.15l15.24,27.02h10.99s-13.43-32.28-14.06-34.08-4.55-9.58-13.43-7.62c-8.87,1.96-33.22,8.4-33.22,8.4,0,0-16.99,2.99-21.78,5.15Z"/>
    <path class="cls-6" d="m935.32,270.79c9.66,1.81,12,9.56,9.52,15.35-1.21,2.82-4.29,9.44-7.13,15.48"/>
    <path class="cls-4" d="m952.85,236.23c-2.88.03,1.05-1.51,1.85-1.62v-1.38c-2.56.11-6.18,1.89-8.84,2.3-.61.09-8.31,1.39-8.9,1.48l2.6,5.97c3.41-1.32,8.68-3.11,11.73-2.65,4.73.56,4.73-1.66,7.47-3.1,2.75-1.44,1.33-2.08-2.26-1.45-1.25.22-2.12.37-3.65.45Z"/>
    <path class="cls-6" d="m921.7,239.93l-2.39.4"/>
    <path class="cls-4" d="m909.44,221.26c1.5-1.5,2.51-5.28,2.51-5.28,0,0,1.31-.54.43-1.87-1.01-1.5,1.09-3.41,2.46-1.77,1.26,1.5-.5,3.02.76,3.02s.44-2.56,2.23-3.76c1.5-1.01,3.93-1.14,3.93-1.14,1.5,3.27,1.11,12.27-1.94,10.75-1-.5-1.76-1.01-2.51-1.5-.5,1.5-.57,2.08-1.08,3.58,3.01,5.53,3.77,7.79,2.51,8.54-1.25.76-8.29-7.54-9.3-10.55Z"/>
    <path class="cls-8" d="m908.08,199.48c.34-.41.46-.9.25-1.28-.3-.58-1.19-.7-1.99-.28-.8.42-1.2,1.23-.9,1.8.23.43.79.61,1.4.49-1.04.8-1.57,1.82-1.21,2.52.32.61,1.25.8,2.32.56-1.68,1.46-2.43,3.31-1.7,4.5.89,1.43,3.59,1.35,6.04-.16,2.45-1.52,3.72-3.91,2.83-5.34-.68-1.1-2.43-1.31-4.32-.66.58-.66.81-1.37.54-1.9-.41-.78-1.82-.87-3.27-.25Z"/>
    <path class="cls-2" d="m911.94,215.98c-1.43-.26-2.78-.63-3.41-1.8-1.32-2.45.3-5.89,3.62-7.67s6.87-1.12,8.4,1.22c.91,1.4,1.19,2.72,1.19,2.72,0,0-2.42.14-3.93,1.14-1.8,1.2-.97,3.76-2.23,3.76s.5-1.5-.76-3.02c-1.36-1.64-3.47.27-2.46,1.77.89,1.32-.42,1.87-.42,1.87Z"/>
    <path class="cls-1" d="m917.29,219.69c-1.17-.76-2.09-1.66-2.26-2.3,0,0,.3,2.34,1.85,3.64l.41-1.35Z"/>
    <path class="cls-3" d="m959.53,294.98l3.92,11.54h16.64s-.13-2.37-4.68-3.63c-4.55-1.26-7.96-1.75-10.44-7.91h-5.45Z"/>
    <path class="cls-11" d="m913.59,264.95s17.71,4.65,21.74,5.84l-21.74-5.84Z"/>
    <path class="cls-6" d="m913.59,264.95s17.71,4.65,21.74,5.84"/>
    <path class="cls-3" d="m923.91,313.66l-3.77,12.28h20.92s.96-2.33-3.57-3.57c-4.53-1.24-9.26-3.43-8.17-8.71h-5.41Z"/>
    <path class="cls-1" d="m929.33,313.66l-5.93,1.65s.19-.64.51-1.65h5.42Z"/>
    <path class="cls-1" d="m964.75,295.03l-4.51,1.84s-.08-.77-.46-1.84h4.98Z"/>
    <path class="cls-11" d="m908.99,226.4l12.71,13.53,15.24-2.92,2.6,5.97s-10.17,5.33-13.21,6.8c-3.04,1.47-8.23,2.82-13.91-2.54-5.62-5.3-11.25-10.61-11.25-10.61"/>
    <path class="cls-6" d="m908.99,226.4l12.71,13.53,15.24-2.92,2.6,5.97s-10.17,5.33-13.21,6.8c-3.04,1.47-8.23,2.82-13.91-2.54-5.62-5.3-11.25-10.61-11.25-10.61"/>
    <path class="cls-6" d="m921.7,239.93l-1.89.38"/>
  </g>
  <path class="cls-16" d="m976.64,153.22h-43.08c-4.11,0-7.48,3.37-7.48,7.48v30.49c0,4.11,3.37,7.48,7.48,7.48h5l-4.86,9.55,17.29-9.55h25.66c4.11,0,7.48-3.37,7.48-7.48v-30.49c0-4.11-3.37-7.48-7.48-7.48Z"/>
</svg>