<?xml version="1.0" encoding="UTF-8"?>
<svg id="Alcohol_sale" data-name="Alcohol sale" xmlns="http://www.w3.org/2000/svg" viewBox="0 0 1201 601">
  <defs>
    <style>
      .cls-1, .cls-2, .cls-3, .cls-4 {
        stroke-linecap: round;
      }

      .cls-1, .cls-2, .cls-3, .cls-4, .cls-5 {
        stroke-linejoin: round;
      }

      .cls-1, .cls-2, .cls-4, .cls-6, .cls-7 {
        stroke: #3c4043;
      }

      .cls-1, .cls-8 {
        fill: #3c4043;
      }

      .cls-2, .cls-9, .cls-7 {
        fill: #fff;
      }

      .cls-3, .cls-4, .cls-5 {
        fill: none;
      }

      .cls-3, .cls-5 {
        stroke: #bdc1c6;
      }

      .cls-10, .cls-11 {
        fill: #f8f9fa;
      }

      .cls-12 {
        fill: #fbbc04;
      }

      .cls-13 {
        fill: #e8f0fe;
      }

      .cls-14, .cls-6 {
        fill: #e8eaed;
      }

      .cls-15 {
        fill: #ceead6;
      }

      .cls-16 {
        fill: #bdc1c6;
      }

      .cls-17 {
        fill: #4285f4;
      }

      .cls-18 {
        fill: #34a853;
      }

      .cls-6, .cls-7 {
        stroke-miterlimit: 10;
      }

      .cls-11 {
        fill-rule: evenodd;
      }
    </style>
  </defs>
  <path class="cls-4" d="m164.42,538.22h872.16"/>
  <path class="cls-1" d="m345.75,401.85l328.12,29.02v-28.58s-355.25-.44-328.12-.44Z"/>
  <g>
    <path class="cls-7" d="m670.65,473.45H168.68c-2.34,0-4.25-1.91-4.25-4.25V190.56c0-2.34,1.91-4.25,4.25-4.25h501.98c2.34,0,4.25,1.91,4.25,4.25v278.64c0,2.34-1.89,4.25-4.25,4.25Z"/>
    <path class="cls-6" d="m482.22,538.22h-127.26c15.46-11.25,25.89-28.14,28.99-47.01l2.91-17.76h63.45l2.91,17.76c3.11,18.87,13.53,35.76,28.99,47.01Z"/>
    <path class="cls-1" d="m452.63,487.59l-65.87-13.4.13-.74h63.43l2.3,14,.02.15Z"/>
    <path class="cls-3" d="m201,342h196.63"/>
    <path class="cls-3" d="m201,357.42h196.63"/>
    <path class="cls-3" d="m201,372.85h196.63"/>
    <path class="cls-5" d="m166.72,209.03h505.93"/>
    <path class="cls-3" d="m177.11,200.79c1.71,0,3.09-1.38,3.09-3.09s-1.38-3.09-3.09-3.09-3.09,1.38-3.09,3.09,1.38,3.09,3.09,3.09Z"/>
    <path class="cls-3" d="m192.28,200.79c1.71,0,3.09-1.38,3.09-3.09s-1.38-3.09-3.09-3.09-3.09,1.38-3.09,3.09,1.38,3.09,3.09,3.09Z"/>
    <path class="cls-3" d="m207.46,200.79c1.71,0,3.09-1.38,3.09-3.09s-1.38-3.09-3.09-3.09-3.09,1.38-3.09,3.09,1.38,3.09,3.09,3.09Z"/>
    <path class="cls-3" d="m201,388.27h196.63"/>
    <path class="cls-3" d="m201,403.69h196.63"/>
    <path class="cls-3" d="m201,419.11h133.67"/>
    <rect class="cls-14" x="201" y="241.19" width="145.2" height="76.1"/>
    <path class="cls-10" d="m246.47,293.65h54.27c.75,0,1.44-.43,1.77-1.11.33-.67.24-1.48-.23-2.07l-18.18-22.91c-.37-.47-.94-.74-1.54-.74s-1.17.27-1.54.74l-11.96,15.07-7.41-9.34-1.54,1.22h0s1.54-1.22,1.54-1.22c-.37-.47-.94-.74-1.54-.74s-1.16.27-1.53.74l-13.64,17.18c-.47.59-.56,1.39-.23,2.07.33.68,1.02,1.11,1.77,1.11Zm13.64-15.99l7.41,9.34c.37.47.94.74,1.53.74s1.17-.27,1.54-.74l-1.54-1.22h0s1.54,1.22,1.54,1.22l11.96-15.06,14.12,17.79h-46.15l9.58-12.06Z"/>
  </g>
  <path class="cls-1" d="m345.75,409.85l328.12,29.02v-28.58s-355.25-.44-328.12-.44Z"/>
  <g>
    <rect class="cls-2" x="344.16" y="229.88" width="539.89" height="179.96"/>
    <path class="cls-4" d="m369.87,352h334.22"/>
    <path class="cls-4" d="m369.87,377.71h305.3"/>
    <path class="cls-17" d="m369.87,300.58h334.22v25.71h-334.22v-25.71Z"/>
    <rect class="cls-17" x="369.87" y="263.7" width="334.89" height="12.85"/>
  </g>
  <path class="cls-2" d="m1036.58,101.26h-305.05v278.35h305.05V101.26Z"/>
  <path class="cls-1" d="m732.21,379.83l151.84,29.02v-28.58s-164.4-.44-151.84-.44Z"/>
  <g>
    <circle class="cls-12" cx="731.53" cy="101.26" r="38.48"/>
    <path class="cls-9" d="m728.47,120.48c-.84-.84-1.26-1.85-1.26-3.03s.42-2.19,1.26-3.03c.84-.84,1.87-1.26,3.09-1.26s2.24.41,3.06,1.23,1.23,1.84,1.23,3.06-.41,2.19-1.23,3.03c-.82.84-1.84,1.26-3.06,1.26s-2.25-.42-3.09-1.26Zm0-26.82v-12.86h6.17v12.86l-.63,15.04h-4.97l-.57-15.04Z"/>
  </g>
  <path class="cls-15" d="m1008.1,130.26h-248.09v220.37h248.09v-220.37Z"/>
  <g>
    <path class="cls-10" d="m847.9,244.76v77.87c0,2.09-1.69,3.79-3.79,3.79h-43.9c-2.09,0-3.79-1.7-3.79-3.79v-77.87c0-1.84,1.31-3.37,3.05-3.72,1.49-.8,5.38-3.12,10.81-8.14,6.45-5.97,4.42-10.55,4.42-10.55,0,0-.92-3.33-1.06-9.9-.01-.54-.02-1.1-.02-1.69,0-6.38,2.32-11.38,2.32-11.38v-18.62h12.52v18.62s2.32,5,2.32,11.38c0,.58,0,1.15-.02,1.69-.14,6.57-1.06,9.9-1.06,9.9,0,0-2.03,4.58,4.42,10.55,5.53,5.12,9.46,7.43,10.89,8.18.82.2,1.53.67,2.04,1.31.52.65.83,1.47.83,2.36Z"/>
    <rect class="cls-16" x="800.63" y="259.81" width="43.06" height="50.9"/>
    <path class="cls-16" d="m830.8,210.77c0,.58,0,1.15-.02,1.69h-17.13c-.01-.54-.02-1.1-.02-1.69,0-6.38,2.32-11.38,2.32-11.38v-18.62h12.52v18.62s2.32,5,2.32,11.38Z"/>
    <path class="cls-13" d="m840.85,272.76l-3.45,9.58c-4.06-4.99-9.4-8.01-15.24-8.01s-11.18,3.02-15.25,8.01l-3.45-9.58c5.17-5.56,11.65-8.87,18.69-8.87s13.53,3.31,18.69,8.87Z"/>
  </g>
  <g>
    <path class="cls-10" d="m977.68,278.32c0-18.9-11.3-35.11-27.4-42.04-3.07-1.32-6.31-2.29-9.69-2.89v-10.11h-14.19v9.88c-21.75,3.16-38.47,22.17-38.47,45.15,0,15.1,7.22,28.49,18.34,36.79v7.66c0,.87.29,1.67.77,2.31.68.91,1.76,1.5,2.98,1.5h46.96c2.07,0,3.75-1.71,3.75-3.81v-8.75c10.33-8.36,16.95-21.24,16.95-35.71Z"/>
    <circle class="cls-16" cx="932.81" cy="279.11" r="26.71" transform="translate(-19.84 77.89) rotate(-4.73)"/>
    <path class="cls-16" d="m939.73,216.81h-12.45c-1.08,0-1.95.87-1.95,1.95v10.6h16.35v-10.6c0-1.08-.88-1.95-1.95-1.95Z"/>
    <circle class="cls-13" cx="932.81" cy="279.11" r="23.94"/>
  </g>
  <g>
    <path class="cls-18" d="m884.67,194.68v-36.27h-14.36v36.27c-9.28,3.04-15.99,11.79-15.99,22.12v103.38c0,.08,0,.15,0,.22.12,3.34,2.87,6.02,6.24,6.02h33.87c3.44,0,6.24-2.79,6.24-6.24v-103.38c0-10.33-6.71-19.09-15.99-22.12Z"/>
    <path class="cls-8" d="m886.22,156.12v30.91h-17.46v-30.91c0-1,.81-1.81,1.81-1.81h13.84c1,0,1.81.81,1.81,1.81Z"/>
    <path class="cls-8" d="m888.6,227.58c-.12-2.54-1.08-4.86-2.61-6.67-2.04-2.41-5.08-3.94-8.49-3.94-2.74,0-5.24.99-7.18,2.63-2.29,1.93-3.78,4.78-3.93,7.98h-6.35v78.75h34.92v-78.75h-6.36Z"/>
    <path class="cls-10" d="m868.74,232.26h17.51c2.24,0,4.06,1.82,4.06,4.06v61.89c0,2.24-1.82,4.06-4.06,4.06h-17.51c-2.24,0-4.06-1.82-4.06-4.06v-61.89c0-2.24,1.82-4.06,4.06-4.06Z"/>
  </g>
  <path class="cls-11" d="m908.54,154.3h-18.44v17.48l23.78,21.33,17.18-18.14-22.53-20.67Zm-3.96,14.11c-1.62,1.74-4.35,1.84-6.09.21-1.74-1.62-1.84-4.35-.21-6.09,1.62-1.74,4.35-1.84,6.09-.21,1.74,1.62,1.84,4.35.21,6.09Z"/>
</svg>