<?xml version="1.0" encoding="UTF-8"?>
<svg id="Alcohol_information" data-name="Alcohol information" xmlns="http://www.w3.org/2000/svg" viewBox="0 0 1201 601">
  <defs>
    <style>
      .cls-1 {
        fill: #3c4043;
      }

      .cls-1, .cls-2, .cls-3, .cls-4 {
        stroke-linecap: round;
      }

      .cls-1, .cls-2, .cls-3, .cls-4, .cls-5 {
        stroke-linejoin: round;
      }

      .cls-1, .cls-2, .cls-4, .cls-6, .cls-7 {
        stroke: #3c4043;
      }

      .cls-2, .cls-8, .cls-7 {
        fill: #fff;
      }

      .cls-3, .cls-4, .cls-5 {
        fill: none;
      }

      .cls-3, .cls-5 {
        stroke: #bdc1c6;
      }

      .cls-9 {
        fill: #fad2cf;
      }

      .cls-10 {
        fill: #f8f9fa;
      }

      .cls-11 {
        fill: #f6aea9;
      }

      .cls-12 {
        fill: #fbbc04;
      }

      .cls-13, .cls-6 {
        fill: #e8eaed;
      }

      .cls-14 {
        fill: #fce8e6;
      }

      .cls-15 {
        fill: #bdc1c6;
      }

      .cls-16 {
        fill: #c5221f;
      }

      .cls-17 {
        fill: #4285f4;
      }

      .cls-6, .cls-7 {
        stroke-miterlimit: 10;
      }
    </style>
  </defs>
  <path class="cls-1" d="m345.75,401.85l328.12,29.02v-28.58s-355.25-.44-328.12-.44Z"/>
  <g>
    <path class="cls-7" d="m670.65,473.45H168.68c-2.34,0-4.25-1.91-4.25-4.25V190.56c0-2.34,1.91-4.25,4.25-4.25h501.98c2.34,0,4.25,1.91,4.25,4.25v278.64c0,2.34-1.89,4.25-4.25,4.25Z"/>
    <path class="cls-6" d="m482.22,538.22h-127.26c15.46-11.25,25.89-28.14,28.99-47.01l2.91-17.76h63.45l2.91,17.76c3.11,18.87,13.53,35.76,28.99,47.01Z"/>
    <path class="cls-1" d="m452.63,487.59l-65.87-13.4.13-.74h63.43l2.3,14,.02.15Z"/>
    <path class="cls-3" d="m201,342h196.63"/>
    <path class="cls-3" d="m201,357.42h196.63"/>
    <path class="cls-3" d="m201,372.85h196.63"/>
    <path class="cls-5" d="m166.72,209.03h505.93"/>
    <path class="cls-3" d="m177.11,200.79c1.71,0,3.09-1.38,3.09-3.09s-1.38-3.09-3.09-3.09-3.09,1.38-3.09,3.09,1.38,3.09,3.09,3.09Z"/>
    <path class="cls-3" d="m192.28,200.79c1.71,0,3.09-1.38,3.09-3.09s-1.38-3.09-3.09-3.09-3.09,1.38-3.09,3.09,1.38,3.09,3.09,3.09Z"/>
    <path class="cls-3" d="m207.46,200.79c1.71,0,3.09-1.38,3.09-3.09s-1.38-3.09-3.09-3.09-3.09,1.38-3.09,3.09,1.38,3.09,3.09,3.09Z"/>
    <path class="cls-3" d="m201,388.27h196.63"/>
    <path class="cls-3" d="m201,403.69h196.63"/>
    <path class="cls-3" d="m201,419.11h133.67"/>
    <rect class="cls-13" x="201" y="241.19" width="145.2" height="76.1"/>
    <path class="cls-10" d="m246.47,293.65h54.27c.75,0,1.44-.43,1.77-1.11.33-.67.24-1.48-.23-2.07l-18.18-22.91c-.37-.47-.94-.74-1.54-.74s-1.17.27-1.54.74l-11.96,15.07-7.41-9.34-1.54,1.22h0s1.54-1.22,1.54-1.22c-.37-.47-.94-.74-1.54-.74s-1.16.27-1.53.74l-13.64,17.18c-.47.59-.56,1.39-.23,2.07.33.68,1.02,1.11,1.77,1.11Zm13.64-15.99l7.41,9.34c.37.47.94.74,1.53.74s1.17-.27,1.54-.74l-1.54-1.22h0s1.54,1.22,1.54,1.22l11.96-15.06,14.12,17.79h-46.15l9.58-12.06Z"/>
  </g>
  <path class="cls-1" d="m345.75,409.85l328.12,29.02v-28.58s-355.25-.44-328.12-.44Z"/>
  <g>
    <rect class="cls-2" x="344.16" y="229.88" width="539.89" height="179.96"/>
    <path class="cls-4" d="m369.87,352h334.22"/>
    <path class="cls-4" d="m369.87,377.71h305.3"/>
    <path class="cls-17" d="m369.87,300.58h334.22v25.71h-334.22v-25.71Z"/>
    <rect class="cls-17" x="369.87" y="263.7" width="334.89" height="12.85"/>
  </g>
  <path class="cls-2" d="m1036.58,101.26h-305.05v278.35h305.05V101.26Z"/>
  <path class="cls-1" d="m732.21,379.83l151.84,29.02v-28.58s-164.4-.44-151.84-.44Z"/>
  <g>
    <circle class="cls-12" cx="731.53" cy="101.26" r="38.48"/>
    <path class="cls-8" d="m728.47,120.48c-.84-.84-1.26-1.85-1.26-3.03s.42-2.19,1.26-3.03c.84-.84,1.87-1.26,3.09-1.26s2.24.41,3.06,1.23,1.23,1.84,1.23,3.06-.41,2.19-1.23,3.03c-.82.84-1.84,1.26-3.06,1.26s-2.25-.42-3.09-1.26Zm0-26.82v-12.86h6.17v12.86l-.63,15.04h-4.97l-.57-15.04Z"/>
  </g>
  <path class="cls-4" d="m164.42,538.22h872.16"/>
  <path class="cls-9" d="m1008.1,130.26h-248.09v220.37h248.09v-220.37Z"/>
  <path class="cls-11" d="m965.7,269.8c0-11.45-1.65-20.74-3.67-20.74s-3.67,9.28-3.67,20.74c0,9.26,1.07,17.09,2.56,19.76v6.04h2.02v-5.71c1.59-2.27,2.77-10.39,2.77-20.08Z"/>
  <path class="cls-11" d="m993.84,274.94c0-14.77-2.06-26.75-4.61-26.75s-4.61,11.98-4.61,26.75c0,13.21,1.65,24.16,3.82,26.34v3.43h1.58v-3.43c2.17-2.18,3.82-13.12,3.82-26.34Z"/>
  <path class="cls-11" d="m978.77,276.11c0-11.4-1.54-20.64-3.44-20.64s-3.44,9.24-3.44,20.64c0,9.38,1.04,17.29,2.47,19.8v3.63h1.86v-3.51c1.46-2.36,2.55-10.37,2.55-19.92Z"/>
  <path class="cls-16" d="m809.67,306.32c-17.92,0-34.8,3.11-49.66,8.59v35.71h147.39c-17.04-26.15-54.38-44.3-97.74-44.3Z"/>
  <g>
    <path class="cls-10" d="m920.25,247.91l-12.89,15.11-.13,43.27,28.12-6.29.5-36.04-15.61-16.06Zm-.11,36.71l-6.93-.02.04-13.25,6.93.02-.04,13.25Z"/>
    <polygon class="cls-15" points="944.71 257.37 944.74 246.59 945.75 246.59 945.76 242.3 937.44 242.27 937.42 246.56 938.43 246.57 938.42 250.92 935.15 247.57 920.25 247.91 935.86 263.97 935.35 300.01 951.41 296.27 951.5 264.34 944.71 257.37"/>
    <g>
      <rect class="cls-15" x="910.08" y="274.41" width="13.25" height="6.93" transform="translate(636.31 1193.8) rotate(-89.84)"/>
      <polygon class="cls-15" points="926.08 281.92 926.02 302.09 933.22 300.48 933.28 281.94 926.08 281.92"/>
    </g>
  </g>
  <path class="cls-11" d="m929.28,290.39c-51.51,0-95.41,25.08-112.26,60.24h191.08v-37.41c-21.05-14.21-48.62-22.83-78.82-22.83Z"/>
  <path class="cls-14" d="m831.41,350.63h27.04c16.87-28.63,54.68-48.58,98.66-48.58,4.67,0,9.26.25,13.77.69-11.9-3.42-24.79-5.31-38.26-5.31-46.32,0-85.82,22.12-101.2,53.2Z"/>
  <path class="cls-14" d="m875.12,350.63h22.72c14.78-24.13,45.08-40.69,80.09-40.69,3.88,0,7.68.22,11.43.62-9.88-3.09-20.58-4.79-31.76-4.79-36.99,0-68.75,18.48-82.47,44.86Z"/>
  <path class="cls-14" d="m915.94,350.63h19.31c13.13-17.48,36.57-29.13,63.32-29.13,3.22,0,6.38.19,9.48.51-8.2-2.56-17.08-3.97-26.36-3.97-28.49,0-53.23,13.2-65.75,32.59Z"/>
  <g>
    <path class="cls-8" d="m843.16,226.65c0-6.28-3.7-23.08-3.7-23.08l-46.6.03s-5.01,15.6-5.01,23.06c0,14.96,10.99,27.25,25.04,28.62v54.35c-1.44,0-20.17,6.32-18.73,6.32h40.29c1.44,0-16.2-6.32-17.64-6.32v-54.25c14.67-.71,26.35-13.29,26.35-28.71Z"/>
    <path class="cls-16" d="m790.54,227.6c0,12.49,8.48,22.9,19.79,25.38h10.37c11.3-2.48,19.78-12.9,19.78-25.38,0-3.34-1.16-9.98-2.11-14.87h-45.05c-1.28,4.66-2.78,10.99-2.78,14.87Z"/>
    <path class="cls-8" d="m800.26,224.27c0,8.68,2.94,15.72.67,15.72s-4.11-7.04-4.11-15.72,1.84-15.72,4.11-15.72-.67,7.04-.67,15.72Z"/>
  </g>
  <g>
    <g>
      <path class="cls-11" d="m890.86,157.67c1.62-2.55,4.93-4.81,8.39-4.89,4.01-.09,8.19,1.91,10.93,5.23,2.31,2.79,4.68,7.77,2.9,15.6-3.11,13.67-19.95,16.16-20.12,16.18,0,0,15.15-3.34,18-15.81,1.63-7.15-.48-11.63-2.54-14.13-2.4-2.91-6.06-4.67-9.54-4.59-3.09.07-5.49,1.39-6.77,3.72-1.31,2.4-1.15,5.51.43,8.12.6.99,3.1,2.28,5.5,1.94,2.07-.28,3.49-1.74,4.11-4.19.48-1.9.18-3.38-.89-4.26-1.12-.93-2.75-.94-3.77-.48-.55.25-.91.79-1.2,1.69-1.01,3.21,1.95,5.15,1.95,5.15-.13,0-1.28-.04-2.29-1.04-.92-.92-1.38-2.31-1.38-4.13,0-1.42.8-2.6,2.18-3.23,1.79-.82,4.09-.52,5.6.72.92.76,2.34,2.56,1.47,6-.79,3.14-2.76,5.07-5.53,5.45-3.02.42-6.23-1.13-7.23-2.77-1.9-3.13-2.08-6.89-.48-9.82.09-.16.18-.32.28-.47Z"/>
      <path class="cls-10" d="m891.23,182.75c-.51-.64,3.93-1.46,6.29-4.9,1.04-1.52,1.97-5.92,1.97-5.92l-2.44.55-2.79-8.94-7.95-5.23-4.09,5.26s.37,11.26-.78,10.77c-1.16-.49-.68-9.36-.68-9.36l-2.41-3.88-1.92,1.88-13.39-4.38-1.8,13.94-2.54.89,2.41,3.88s7.9,3.09,7.82,4.35c-.07,1.25-9.74-3.65-9.74-3.65l-6.52,1.35.74,7.36,7.23,8.53-1.57,1.94s4.34.98,6.18.85c1.84-.13,6.72-5.14,7.08-4.4.35.74-5.22,9.44-5.22,9.44,0,0,5.5,2.48,9.01,1.1,3.52-1.38,4.57-2.25,4.57-2.25l.78,1.09s2.89-3.59,2.22-5.52c-.67-1.93-2.62-2.32-2.16-3.99.41-1.49,1.25-2.83,1.18-3.48.62.28,2.11.15,3.55.43.04,0,.06.01.1.02,0,0,.01.01.02.02v-.02c1.57.39,1.1,2.26,2.51,3.68,1.44,1.45,5.93.44,5.93.44l-.63-1.18s1.25-.56,4.04-3.11c2.79-2.55,2.99-8.57,2.99-8.57,0,0-9.48,1.66-9.99,1.01Z"/>
      <g>
        <path class="cls-11" d="m885.08,210.46c-.07-.04-.14-.1-.2-.16-.32-.34-.3-.88.04-1.2h0s1.34-1.53,1.25-7.27c-.09-6-4.55-10.93-4.59-10.98-.32-.35-.29-.89.05-1.2.35-.32.89-.3,1.2.05.2.22,4.93,5.46,5.04,12.1.1,6.58-1.6,8.36-1.79,8.54-.28.26-.68.3-1,.12Z"/>
        <path class="cls-11" d="m886.34,208.57s-.07,0-.1,0c-.47-.05-.8-.47-.75-.94.02-.2.6-4.81,6.77-7.42,5.88-2.49,14.78-2.31,15.15-2.3.47.01.84.4.83.87-.01.47-.41.85-.87.83-.09,0-8.91-.18-14.45,2.17-5.21,2.21-5.72,5.89-5.74,6.05-.05.43-.42.75-.85.75Z"/>
      </g>
      <path class="cls-10" d="m911.5,204.15c.43-.24.47,2.46,2.26,4.19.79.77,3.3,1.75,3.3,1.75l-.08-1.49,5.55-.75,3.87-4.17-2.69-2.94s-6.68-.9-6.27-1.54c.4-.63,5.59.53,5.59.53l2.53-1.04-.92-1.32,3.91-7.46-8.04-2.45-.27-1.59-2.53,1.04s-2.61,4.35-3.34,4.18c-.73-.17,3.12-5.38,3.12-5.38l-.15-3.98-4.41-.3-5.75,3.41-.99-1.12s-1.01,2.46-1.12,3.56c-.11,1.1,2.36,4.48,1.89,4.61-.47.13-5.04-4.02-5.04-4.02,0,0-2.01,2.99-1.55,5.2.46,2.21.87,2.92.87,2.92l-.72.35s1.83,2.06,3.03,1.86c1.21-.2,1.63-1.31,2.57-.88.84.39,1.55,1.02,1.94,1.04-.23.34-.3,1.23-.61,2.05,0,.02-.01.04-.02.05,0,0,0,0-.01,0h.01c-.39.89-1.44.43-2.42,1.12-1,.7-.85,3.45-.85,3.45l.76-.25s.21.79,1.43,2.69c1.22,1.9,4.76,2.61,4.76,2.61,0,0-.03-5.75.4-5.99Z"/>
    </g>
    <circle class="cls-16" cx="865.03" cy="213.63" r="10.12"/>
    <circle class="cls-16" cx="885.53" cy="213.63" r="10.12"/>
    <circle class="cls-16" cx="906.03" cy="213.63" r="10.12"/>
    <circle class="cls-16" cx="875.28" cy="231.11" r="10.12"/>
    <circle class="cls-16" cx="895.78" cy="231.11" r="10.12"/>
    <circle class="cls-16" cx="885.53" cy="248.3" r="10.12"/>
    <path class="cls-8" d="m871.11,228.45c-1.44,1.9-.37,4.2-1.69,4.14-1.7-.07-1.28-3.41.16-5.31,1.45-1.9,3.72-2.6,5.07-1.57,1.35,1.03-2.1.84-3.54,2.74Z"/>
    <path class="cls-8" d="m891.49,228.45c-1.44,1.9-.37,4.2-1.69,4.14-1.7-.07-1.28-3.41.16-5.31,1.45-1.9,3.72-2.6,5.07-1.57,1.35,1.03-2.1.84-3.54,2.74Z"/>
    <path class="cls-8" d="m860.91,210.1c-1.44,1.9-.37,4.2-1.69,4.14-1.7-.07-1.28-3.41.16-5.31,1.45-1.9,3.72-2.6,5.07-1.57,1.35,1.03-2.1.84-3.54,2.74Z"/>
    <path class="cls-8" d="m881.3,210.1c-1.44,1.9-.37,4.2-1.69,4.14-1.7-.07-1.28-3.41.16-5.31,1.45-1.9,3.72-2.6,5.07-1.57,1.35,1.03-2.1.84-3.54,2.74Z"/>
    <path class="cls-8" d="m902.05,210.1c-1.44,1.9-.37,4.2-1.69,4.14-1.7-.07-1.28-3.41.16-5.31,1.45-1.9,3.72-2.6,5.07-1.57,1.35,1.03-2.1.84-3.54,2.74Z"/>
    <path class="cls-8" d="m880.76,245.48c-1.44,1.9-.37,4.2-1.69,4.14-1.7-.07-1.28-3.41.16-5.31,1.45-1.9,3.72-2.6,5.07-1.57,1.35,1.03-2.1.84-3.54,2.74Z"/>
  </g>
</svg>