<?xml version="1.0" encoding="UTF-8"?>
<svg id="Clinical_Trial_Recruitment" data-name="Clinical Trial Recruitment" xmlns="http://www.w3.org/2000/svg" viewBox="0 0 1201 601">
  <defs>
    <style>
      .cls-1, .cls-2, .cls-3, .cls-4, .cls-5, .cls-6, .cls-7, .cls-8, .cls-9, .cls-10, .cls-11, .cls-12 {
        stroke-linejoin: round;
      }

      .cls-1, .cls-2, .cls-3, .cls-4, .cls-5, .cls-6, .cls-8, .cls-9, .cls-10, .cls-11, .cls-13, .cls-12 {
        stroke-linecap: round;
      }

      .cls-1, .cls-6, .cls-8, .cls-12 {
        stroke-width: 1.24px;
      }

      .cls-1, .cls-6, .cls-9, .cls-10, .cls-11 {
        stroke: #4285f4;
      }

      .cls-1, .cls-14, .cls-9 {
        fill: #4285f4;
      }

      .cls-2, .cls-3, .cls-5, .cls-8, .cls-15, .cls-16, .cls-12 {
        stroke: #3c4043;
      }

      .cls-2, .cls-12 {
        fill: #3c4043;
      }

      .cls-3, .cls-6, .cls-17, .cls-18, .cls-10, .cls-16 {
        fill: #fff;
      }

      .cls-4, .cls-5, .cls-7, .cls-8, .cls-11, .cls-19, .cls-13 {
        fill: none;
      }

      .cls-4, .cls-7, .cls-18, .cls-19 {
        stroke: #bdc1c6;
      }

      .cls-20 {
        fill: #f8f9fa;
      }

      .cls-21 {
        fill: #fbbc04;
      }

      .cls-22, .cls-15 {
        fill: #e8eaed;
      }

      .cls-23 {
        fill: #bdc1c6;
      }

      .cls-24 {
        fill: #d0e1fa;
      }

      .cls-18, .cls-9, .cls-10, .cls-11 {
        stroke-width: 4px;
      }

      .cls-18, .cls-19, .cls-15, .cls-16, .cls-13 {
        stroke-miterlimit: 10;
      }

      .cls-19 {
        stroke-width: 10px;
      }

      .cls-13 {
        stroke: #fff;
        stroke-width: 2px;
      }
    </style>
  </defs>
  <path class="cls-2" d="m345.75,401.85l328.12,29.02v-28.58s-355.25-.44-328.12-.44Z"/>
  <g>
    <path class="cls-16" d="m670.65,473.45H168.68c-2.34,0-4.25-1.91-4.25-4.25V190.56c0-2.34,1.91-4.25,4.25-4.25h501.98c2.34,0,4.25,1.91,4.25,4.25v278.64c0,2.34-1.89,4.25-4.25,4.25Z"/>
    <path class="cls-15" d="m482.22,538.22h-127.26c15.46-11.25,25.89-28.14,28.99-47.01l2.91-17.76h63.45l2.91,17.76c3.11,18.87,13.53,35.76,28.99,47.01Z"/>
    <path class="cls-2" d="m452.63,487.59l-65.87-13.4.13-.74h63.43l2.3,14,.02.15Z"/>
    <path class="cls-4" d="m201,342h196.63"/>
    <path class="cls-4" d="m201,357.42h196.63"/>
    <path class="cls-4" d="m201,372.85h196.63"/>
    <path class="cls-7" d="m166.72,209.03h505.93"/>
    <path class="cls-4" d="m177.11,200.79c1.71,0,3.09-1.38,3.09-3.09s-1.38-3.09-3.09-3.09-3.09,1.38-3.09,3.09,1.38,3.09,3.09,3.09Z"/>
    <path class="cls-4" d="m192.28,200.79c1.71,0,3.09-1.38,3.09-3.09s-1.38-3.09-3.09-3.09-3.09,1.38-3.09,3.09,1.38,3.09,3.09,3.09Z"/>
    <path class="cls-4" d="m207.46,200.79c1.71,0,3.09-1.38,3.09-3.09s-1.38-3.09-3.09-3.09-3.09,1.38-3.09,3.09,1.38,3.09,3.09,3.09Z"/>
    <path class="cls-4" d="m201,388.27h196.63"/>
    <path class="cls-4" d="m201,403.69h196.63"/>
    <path class="cls-4" d="m201,419.11h133.67"/>
    <rect class="cls-22" x="201" y="241.19" width="145.2" height="76.1"/>
    <path class="cls-20" d="m246.47,293.65h54.27c.75,0,1.44-.43,1.77-1.11.33-.67.24-1.48-.23-2.07l-18.18-22.91c-.37-.47-.94-.74-1.54-.74s-1.17.27-1.54.74l-11.96,15.07-7.41-9.34-1.54,1.22h0s1.54-1.22,1.54-1.22c-.37-.47-.94-.74-1.54-.74s-1.16.27-1.53.74l-13.64,17.18c-.47.59-.56,1.39-.23,2.07.33.68,1.02,1.11,1.77,1.11Zm13.64-15.99l7.41,9.34c.37.47.94.74,1.53.74s1.17-.27,1.54-.74l-1.54-1.22h0s1.54,1.22,1.54,1.22l11.96-15.06,14.12,17.79h-46.15l9.58-12.06Z"/>
  </g>
  <path class="cls-2" d="m345.75,409.85l328.12,29.02v-28.58s-355.25-.44-328.12-.44Z"/>
  <g>
    <rect class="cls-3" x="344.16" y="229.88" width="539.89" height="179.96"/>
    <path class="cls-5" d="m369.87,352h334.22"/>
    <path class="cls-5" d="m369.87,377.71h305.3"/>
    <path class="cls-14" d="m369.87,300.58h334.22v25.71h-334.22v-25.71Z"/>
    <rect class="cls-14" x="369.87" y="263.7" width="334.89" height="12.85"/>
  </g>
  <path class="cls-3" d="m1036.58,101.26h-305.05v278.35h305.05V101.26Z"/>
  <path class="cls-2" d="m732.21,379.83l151.84,29.02v-28.58s-164.4-.44-151.84-.44Z"/>
  <g>
    <circle class="cls-21" cx="731.53" cy="101.26" r="38.48"/>
    <path class="cls-17" d="m728.47,120.48c-.84-.84-1.26-1.85-1.26-3.03s.42-2.19,1.26-3.03c.84-.84,1.87-1.26,3.09-1.26s2.24.41,3.06,1.23,1.23,1.84,1.23,3.06-.41,2.19-1.23,3.03c-.82.84-1.84,1.26-3.06,1.26s-2.25-.42-3.09-1.26Zm0-26.82v-12.86h6.17v12.86l-.63,15.04h-4.97l-.57-15.04Z"/>
  </g>
  <path class="cls-5" d="m164.42,538.22h872.16"/>
  <path class="cls-24" d="m1008.1,130.26h-248.09v220.37h248.09v-220.37Z"/>
  <circle class="cls-22" cx="817.53" cy="221.13" r="34.76"/>
  <g>
    <path class="cls-11" d="m822.8,227.18s-1.13,10.72.34,17.58"/>
    <path class="cls-11" d="m825.3,227.35s-.62,12.93,2.21,22.23"/>
    <path class="cls-11" d="m828.25,227.47s-.96,10.1,3.18,22.35"/>
    <path class="cls-14" d="m823.94,194.23c.79-.74,1.19-1.59,1.13-2.38-.17-2.33-3.12-4.88-8.9-4.31-5.45.57-8.45,4.14-8.28,6.47.11,1.53,1.36,2.72,3.91,3.12,1.25-.79,3.18-1.47,4.71-1.99,2.84-1.02,5.45-1.25,7.43-.91Z"/>
    <path class="cls-9" d="m827.28,196.72c-.28-1.36-1.53-2.21-3.35-2.5-1.99-.34-4.59-.06-7.37.91-1.53.51-3.52,1.19-4.71,1.99-3.06,1.93-4.42,4.42-4.03,6.41.28,1.59,1.99,2.5,4.37,2.67,1.42-1.47,3.12-2.95,5.1-4.2,3.74-2.38,7.32-3.46,9.7-3.12.28-.79.4-1.53.28-2.16Z"/>
    <path class="cls-6" d="m817.81,239.43s2.78-5.84,4.2-11.57c0,0,6.18,2.84,10.49,1.42,0,0,1.87-2.61,2.5-10.83.34-4.14-.23-10.44-1.36-14.29-1.25-4.37-5.5-7.32-12.48-6.24-9.47,1.42-13.84,6.64-12.08,15.65,2.04,10.72.96,10.72-2.33,17.64.06-.06,2.33,7.43,11.06,8.22Z"/>
    <path class="cls-1" d="m821.44,230.19s-3.46-1.47-3.97-7.09c0,0,1.53,3.52,4.54,4.76,0,0,0,.45-.11.96-.23.62-.45,1.36-.45,1.36Z"/>
    <path class="cls-10" d="m817.19,199.79s5.84-3.18,10.15-2.04"/>
    <path class="cls-9" d="m818.61,197.23l5.1,2.84-.57,1.7-2.55.85-8.22-3.12,6.24-2.27Z"/>
    <path class="cls-10" d="m820.88,200.64s5.79-2.84,10.32-1.25"/>
    <path class="cls-10" d="m822.01,202.06s6.76-2.55,11.34,0"/>
    <path class="cls-10" d="m821,202.78s-4.55-1.72-10.33-1.5"/>
    <path class="cls-10" d="m819.16,204.93s-5.26-1.65-9.63-1.16"/>
    <path class="cls-10" d="m817.92,207.56s-4.68-1.26-8.51-1.09"/>
    <path class="cls-10" d="m817.26,209.75s-4.2-1.23-7.66-.96"/>
    <path class="cls-11" d="m814.64,211.13s-1.78,19.67-1.7,25.24c.12,9.86,1.49,17.87,1.49,17.87"/>
    <path class="cls-11" d="m812.93,211.13s-4.07,22.67-3.97,28.19c.15,9.78,2.54,15.48,2.54,15.48"/>
    <path class="cls-10" d="m816.9,213.68s-.85-1.08-2.04-.91c-1.19.17-1.99,1.36-1.87,2.67.11,1.3,1.64,3.18,3.06,3.91"/>
    <path class="cls-10" d="m816.9,213.68s-.85-1.08-2.04-.91c-1.19.17-1.99,1.36-1.87,2.67.11,1.3,1.64,3.18,3.06,3.91"/>
    <path class="cls-11" d="m816.62,211.41s1.42,20.53,1.53,26.03c.17,9.64,3.12,15.71,3.12,15.71"/>
    <path class="cls-11" d="m811.41,210.1s-2.53,14.72-5.7,22.94c-3.6,9.18.32,15.27.32,15.27"/>
    <path class="cls-11" d="m809.48,210.3s-3.69,14.56-7.31,22.59c-4.1,8.96-1.21,15.3-1.21,15.3"/>
  </g>
  <g>
    <circle class="cls-22" cx="817.53" cy="298.39" r="34.76"/>
    <g>
      <path class="cls-6" d="m833.11,288.48s2.04,7.66,1.08,18.26c-.85,9.42-2.38,12.19-4.14,12.99,0,0-.96-.17-2.44-.51.79-1.47.68-3.23.68-3.23,0,0-.91,1.59-2.55,2.78-3.01-.79-6.81-2.04-8.39-3.57-2.84-2.72.68-11.4,1.59-15.14,1.25-5.22,1.7-11.23,1.7-11.23l12.48-.34Z"/>
      <path class="cls-14" d="m815.69,319.9s2.89-5.96,4.31-11.68c0,0,6.07,2.95,10.38,1.53,0,0,1.87-2.61,2.5-10.83.34-4.14-.23-10.44-1.36-14.29-1.25-4.37-5.5-7.32-12.48-6.24-9.47,1.42-13.84,6.64-12.08,15.65,2.04,10.72.96,10.72-2.33,17.64.06,0,2.38,7.49,11.06,8.22Z"/>
      <path class="cls-8" d="m814.79,294.15s-.85-1.08-2.04-.91c-1.19.17-1.99,1.36-1.87,2.67.06,1.3,1.3,3.12,2.72,3.86"/>
      <path class="cls-14" d="m819.32,310.71s-3.46-1.47-3.97-7.09c0,0,1.7,3.35,4.71,4.59,0,0-.17.62-.28,1.13-.23.62-.45,1.36-.45,1.36Z"/>
      <path class="cls-6" d="m815.3,316.27s-1.99-4.54-1.59-10.49c.4-5.96,3.18-8.45,4.59-14.8,0,0,15.09,1.08,16.73-.4,0,0,1.99-5.79-3.35-8.34,0,0-7.32-9.64-20.19-3.06-4.37,2.21-6.64,7.09-5.45,17.92.51,4.71-8.28,10.83-6.01,17.3,2.55,7.26,15.26,1.87,15.26,1.87Z"/>
    </g>
  </g>
  <g>
    <circle class="cls-22" cx="899.6" cy="298.39" r="34.76"/>
    <g>
      <path class="cls-14" d="m896.26,323.01s2.89-5.96,4.31-11.68c0,0,6.07,2.95,10.38,1.53,0,0,1.87-2.61,2.5-10.83.34-4.14-.23-10.44-1.36-14.29-1.25-4.37-5.5-7.32-12.48-6.24-9.47,1.42-13.84,6.64-12.08,15.65,2.04,10.72.96,10.72-2.33,17.64.06,0,2.33,7.49,11.06,8.22Z"/>
      <path class="cls-12" d="m899.89,313.82s-3.46-1.47-3.97-7.09c0,0,1.7,3.35,4.71,4.59,0,0-.17.62-.28,1.13-.23.57-.45,1.36-.45,1.36Z"/>
      <path class="cls-6" d="m913.38,305.93c0-3.01-1.53-3.01-2.89-3.01-5.67,0-5.73,3.35-7.43,3.35-2.16,0-6.35-8.45-6.35-8.45,0,0-2.33-5.22-2.21,1.53.11,6.75,1.64,11.23,3.52,15.94,1.87,4.71,6.75,5.5,9.08,5.5s7.54-.28,7.54-4.82-1.25-5.73-1.25-10.04Zm-1.76,1.87s-.28.85-1.76.85-3.01-.68-3.01-.68c0,0,2.33-2.44,3.8-2.44s.96,2.27.96,2.27Z"/>
      <path class="cls-6" d="m904.42,287.39s5.45-1.02,6.75-.57-2.27-6.64-2.27-6.64l-3.29.06-1.19,7.15Z"/>
      <path class="cls-6" d="m906.52,275.14s-.4-.51,2.16-.51,7.66.99,7.66,8.51c0,3.91-3.35,8.68-3.35,8.68,0,0-3.06-8.85-6.81-9.76-3.74-.96.34-6.92.34-6.92Z"/>
      <path class="cls-6" d="m888.54,305.82s18.15-11.06,19-30.91c0,0-1.42-1.13-7.09-1.13s-17.81,2.61-17.58,15.03c0,4.71,3.18,9.53,4.25,11.97,1.13,2.44,1.42,5.05,1.42,5.05Z"/>
    </g>
  </g>
  <g>
    <circle class="cls-18" cx="899.6" cy="221.13" r="34.76"/>
    <path class="cls-6" d="m898.01,244.77s2.89-5.96,4.31-11.68c0,0,6.07,2.95,10.38,1.53,0,0,1.87-2.61,2.5-10.83.34-4.14-.23-10.44-1.36-14.29-1.25-4.37-5.5-7.32-12.48-6.24-9.47,1.42-13.84,6.64-12.08,15.65,2.04,10.72.96,10.72-2.33,17.64.06,0,2.33,7.49,11.06,8.22Z"/>
    <path class="cls-6" d="m897.1,219.02s-.85-1.08-2.04-.91c-1.19.17-1.99,1.36-1.87,2.67.06,1.3,1.3,3.12,2.72,3.86"/>
    <path class="cls-1" d="m901.64,235.58s-3.46-1.47-3.97-7.09c0,0,1.7,3.35,4.71,4.59,0,0-.17.62-.28,1.13-.23.57-.45,1.36-.45,1.36Z"/>
    <path class="cls-14" d="m894.21,223.16s-.34,4.59-5.27,5.05c-.79.06-2.61-.4-1.7-2.78.51-1.25.06-2.33-1.19-2.5-1.36-.23-3.74-1.76-2.38-5.1,0,0-3.12-1.36-1.87-4.59,0,0,1.42-.23,3.29-2.44,1.25-1.53,2.33-4.54,4.71-8.51,2.89-4.88,10.04-6.13,14.41-3.35,0,0,6.24-3.57,11.06,1.81,4.25,4.82,2.27,10.95-.51,13.27,0,0-.62-4.76-1.64-6.35,0,0-4.37-1.59-8.85.62,0,0,1.81,4.03-4.03,8.56,0,0-2.72,3.52-1.25,5.27,0,0-2.04-.96-1.81-3.12,0,0-.57-.91-2.04-.91-.85,0-1.87.96-1.87,2.67-.06.96.96,2.38.96,2.38Z"/>
    <path class="cls-6" d="m905.1,219.65l-8-.62"/>
    <path class="cls-6" d="m907.76,223.5c1.47,0,2.67-1.73,2.67-3.86s-1.19-3.86-2.67-3.86-2.67,1.72-2.67,3.86,1.19,3.86,2.67,3.86Z"/>
    <path class="cls-6" d="m914.85,223.5c1.47,0,2.67-1.73,2.67-3.86s-1.19-3.86-2.67-3.86-2.67,1.72-2.67,3.86,1.19,3.86,2.67,3.86Z"/>
    <path class="cls-6" d="m912.19,219.65h-1.76"/>
    <line class="cls-19" x1="923.97" y1="244.76" x2="961.28" y2="276.86"/>
  </g>
  <g>
    <path class="cls-23" d="m948.52,173.56l-26.36-11.72c-3.93-1.75-5.71-6.39-3.96-10.31h0c1.75-3.93,6.39-5.71,10.31-3.96l26.36,11.72c3.93,1.75,5.71,6.39,3.96,10.31h0c-1.75,3.93-6.39,5.71-10.31,3.96Z"/>
    <path class="cls-14" d="m942.12,153.62l-13.62-6.06c-3.93-1.75-8.57.04-10.31,3.96-1.75,3.93.04,8.57,3.96,10.31l13.62,6.06,6.35-14.28Z"/>
    <line class="cls-13" x1="927.28" y1="152.08" x2="953.06" y2="162.79"/>
  </g>
  <g>
    <path class="cls-14" d="m983.25,195.4l-26.93,10.35c-4.01,1.54-8.55-.48-10.09-4.49h0c-1.54-4.01.48-8.55,4.49-10.09l26.93-10.35c4.01-1.54,8.55.48,10.09,4.49h0c1.54,4.01-.48,8.55-4.49,10.09Z"/>
    <path class="cls-23" d="m964.62,185.82l-13.91,5.35c-4.01,1.54-6.03,6.08-4.49,10.09,1.54,4.01,6.08,6.03,10.09,4.49l13.91-5.35-5.61-14.58Z"/>
    <line class="cls-13" x1="953.04" y1="195.23" x2="978.84" y2="184.57"/>
  </g>
</svg>