<?xml version="1.0" encoding="UTF-8"?>
<svg id="Copyrighted_Content" data-name="Copyrighted Content" xmlns="http://www.w3.org/2000/svg" xmlns:xlink="http://www.w3.org/1999/xlink" viewBox="0 0 1201 601">
  <defs>
    <style>
      .cls-1, .cls-2, .cls-3, .cls-4, .cls-5, .cls-6 {
        fill: none;
      }

      .cls-7, .cls-8, .cls-2, .cls-3, .cls-5, .cls-6, .cls-9 {
        stroke-linejoin: round;
      }

      .cls-7, .cls-8, .cls-2, .cls-3, .cls-6 {
        stroke-linecap: round;
      }

      .cls-7, .cls-8, .cls-3, .cls-10, .cls-11 {
        stroke: #3c4043;
      }

      .cls-7, .cls-12 {
        fill: #3c4043;
      }

      .cls-8, .cls-13, .cls-11 {
        fill: #fff;
      }

      .cls-2, .cls-5 {
        stroke: #bdc1c6;
      }

      .cls-4 {
        stroke-width: 3px;
      }

      .cls-4, .cls-6 {
        stroke: #fff;
      }

      .cls-4, .cls-10, .cls-11 {
        stroke-miterlimit: 10;
      }

      .cls-14 {
        clip-path: url(#clippath);
      }

      .cls-15 {
        fill: #f8f9fa;
      }

      .cls-16, .cls-9 {
        fill: #ea4335;
      }

      .cls-17, .cls-10 {
        fill: #e8eaed;
      }

      .cls-18 {
        fill: #f1f1f2;
      }

      .cls-19 {
        fill: #8ab4f8;
      }

      .cls-20 {
        fill: #ceead6;
      }

      .cls-21 {
        fill: #bdc1c6;
      }

      .cls-22 {
        fill: #4285f4;
      }

      .cls-23 {
        fill: #34a853;
      }

      .cls-6 {
        stroke-width: 4px;
      }

      .cls-9 {
        stroke: #ea4335;
      }
    </style>
    <clipPath id="clippath">
      <path class="cls-1" d="m1008.1,170.13h-103.1v65.65h103.1v-65.65Z"/>
    </clipPath>
  </defs>
  <path class="cls-7" d="m345.75,401.85l328.12,29.02v-28.58s-355.25-.44-328.12-.44Z"/>
  <path class="cls-11" d="m670.65,473.45H168.68c-2.34,0-4.25-1.91-4.25-4.25V190.56c0-2.34,1.91-4.25,4.25-4.25h501.98c2.34,0,4.25,1.91,4.25,4.25v278.64c0,2.34-1.89,4.25-4.25,4.25Z"/>
  <path class="cls-10" d="m482.22,538.22h-127.26c15.46-11.25,25.89-28.14,28.99-47.01l2.91-17.76h63.45l2.91,17.76c3.11,18.87,13.53,35.76,28.99,47.01Z"/>
  <path class="cls-7" d="m452.63,487.59l-65.87-13.4.13-.74h63.43l2.3,14,.02.15Z"/>
  <path class="cls-2" d="m201,342h196.63"/>
  <path class="cls-2" d="m201,357.42h196.63"/>
  <rect class="cls-17" x="201" y="241.19" width="145.2" height="76.1"/>
  <path class="cls-15" d="m246.47,293.65h54.27c.75,0,1.44-.43,1.77-1.11.33-.67.24-1.48-.23-2.07l-18.18-22.91c-.37-.47-.94-.74-1.54-.74s-1.17.27-1.54.74l-11.96,15.07-7.41-9.34-1.54,1.22h0s1.54-1.22,1.54-1.22c-.37-.47-.94-.74-1.54-.74s-1.16.27-1.53.74l-13.64,17.18c-.47.59-.56,1.39-.23,2.07.33.68,1.02,1.11,1.77,1.11Zm13.64-15.99l7.41,9.34c.37.47.94.74,1.53.74s1.17-.27,1.54-.74l-1.54-1.22h0s1.54,1.22,1.54,1.22l11.96-15.06,14.12,17.79h-46.15l9.58-12.06Z"/>
  <path class="cls-2" d="m201,372.85h196.63"/>
  <path class="cls-5" d="m166.72,209.03h505.93"/>
  <path class="cls-2" d="m177.11,200.79c1.71,0,3.09-1.38,3.09-3.09s-1.38-3.09-3.09-3.09-3.09,1.38-3.09,3.09,1.38,3.09,3.09,3.09Z"/>
  <path class="cls-2" d="m192.28,200.79c1.71,0,3.09-1.38,3.09-3.09s-1.38-3.09-3.09-3.09-3.09,1.38-3.09,3.09,1.38,3.09,3.09,3.09Z"/>
  <path class="cls-2" d="m207.46,200.79c1.71,0,3.09-1.38,3.09-3.09s-1.38-3.09-3.09-3.09-3.09,1.38-3.09,3.09,1.38,3.09,3.09,3.09Z"/>
  <path class="cls-2" d="m201,388.27h196.63"/>
  <path class="cls-2" d="m201,403.69h196.63"/>
  <path class="cls-2" d="m201,419.11h133.67"/>
  <path class="cls-7" d="m345.75,409.85l328.12,29.02v-28.58s-355.25-.44-328.12-.44Z"/>
  <g>
    <rect class="cls-8" x="344.16" y="229.88" width="539.89" height="179.96"/>
    <path class="cls-3" d="m369.87,352h334.22"/>
    <path class="cls-3" d="m369.87,377.71h305.3"/>
    <path class="cls-22" d="m369.87,300.58h334.22v25.71h-334.22v-25.71Z"/>
    <rect class="cls-22" x="369.87" y="263.7" width="334.89" height="12.85"/>
  </g>
  <path class="cls-8" d="m1036.58,101.26h-305.05v278.35h305.05V101.26Z"/>
  <path class="cls-7" d="m732.21,379.83l151.84,29.02v-28.58s-164.4-.44-151.84-.44Z"/>
  <path class="cls-3" d="m164.42,538.22h872.16"/>
  <g>
    <path class="cls-9" d="m731.53,139.74c21.25,0,38.48-17.23,38.48-38.48s-17.23-38.48-38.48-38.48-38.48,17.23-38.48,38.48,17.23,38.48,38.48,38.48Z"/>
    <g>
      <path class="cls-6" d="m718.32,114.61l26.56-26.7"/>
      <path class="cls-6" d="m744.74,114.61l-26.56-26.7"/>
    </g>
  </g>
  <g>
    <path class="cls-20" d="m1008.1,130.26h-248.09v220.37h248.09v-220.37Z"/>
    <g class="cls-14">
      <g>
        <path class="cls-4" d="m907.85,189.71c1.19-.38,8.31,17.16,45.52,0,37.21-17.16,62.15,0,62.15,0"/>
        <path class="cls-4" d="m907.85,204.78c1.19-.38,8.31,17.16,45.52,0,37.21-17.16,62.15,0,62.15,0"/>
        <path class="cls-4" d="m907.85,219.86c1.19-.38,8.31,17.16,45.52,0,37.21-17.16,62.15,0,62.15,0"/>
      </g>
    </g>
    <g>
      <rect class="cls-16" x="797" y="157.89" width="115.86" height="115.86" rx="13.41" ry="13.41"/>
      <circle class="cls-12" cx="854.93" cy="215.82" r="47.27" transform="translate(-26.6 196.12) rotate(-12.89)"/>
      <circle class="cls-23" cx="854.93" cy="215.82" r="15.15" transform="translate(324.32 920.04) rotate(-67.17)"/>
      <path class="cls-12" d="m854.93,213.76c-1.14,0-2.06.92-2.06,2.06s.92,2.06,2.06,2.06,2.06-.92,2.06-2.06-.92-2.06-2.06-2.06Z"/>
      <circle class="cls-13" cx="811.96" cy="261.75" r="4.91" transform="translate(370.13 991.52) rotate(-76.68)"/>
      <circle class="cls-12" cx="892.26" cy="173.24" r="5.9" transform="translate(517.92 1001.5) rotate(-76.67)"/>
      <g>
        <g>
          <rect class="cls-18" x="886.91" y="159.76" width="2.07" height="61.01" transform="translate(76.11 -216.64) rotate(14.53)"/>
          <rect class="cls-18" x="878.05" y="217.57" width="4.04" height="6.25" transform="translate(83.49 -213.69) rotate(14.53)"/>
          <path class="cls-18" d="m884.58,222.25c-.38,1.47-1.88,2.35-3.34,1.97s-2.35-1.88-1.97-3.34,1.88-2.35,3.34-1.97,2.35,1.88,1.97,3.34Z"/>
        </g>
        <path class="cls-21" d="m883.42,221.95c-.21.83-1.06,1.32-1.88,1.11s-1.32-1.06-1.11-1.88,1.06-1.32,1.88-1.11,1.32,1.06,1.11,1.88Z"/>
        <rect class="cls-19" x="891.77" y="163.8" width="5.02" height="4.04" transform="translate(70.18 -219.01) rotate(14.53)"/>
      </g>
      <path class="cls-13" d="m895.37,173.24c0,1.72-1.39,3.11-3.11,3.11s-3.11-1.39-3.11-3.11,1.39-3.11,3.11-3.11,3.11,1.39,3.11,3.11Z"/>
    </g>
    <g>
      <g>
        <rect class="cls-21" x="897.99" y="249.88" width="73.12" height="73.12" rx="8.46" ry="8.46"/>
        <rect class="cls-13" x="894.43" y="246.76" width="73.12" height="73.12" rx="8.46" ry="8.46"/>
      </g>
      <g>
        <g>
          <path class="cls-21" d="m958.06,268.08c-.25,1-.65,1.91-1.47,2.6-1.55,1.29-3.7,1.33-5.28.06-.11-.09-.22-.17-.37-.28-.46.47-.91.95-1.38,1.41-.76.75-1.62.77-2.37.03-.82-.8-1.62-1.6-2.42-2.42-.74-.75-.73-1.62.02-2.38.46-.46.95-.9,1.4-1.33-1.44-2.29-1.55-4-.4-5.48,1.13-1.46,2.87-2.02,4.61-1.49,1.88.58,2.75,1.94,2.91,4.55.48.03.97,0,1.43.1,1.73.39,2.79,1.49,3.23,3.2.03.1.07.19.1.28v1.14Z"/>
          <path class="cls-21" d="m958.06,302.82c-.26.61-.44,1.28-.8,1.82-.85,1.25-2.09,1.8-3.61,1.73-.12,0-.23,0-.35,0-.16,2.66-1.05,4.02-2.96,4.6-1.7.51-3.44-.06-4.56-1.51-1.15-1.48-1.04-3.2.4-5.47-.45-.42-.92-.85-1.37-1.3-.8-.8-.8-1.66-.02-2.45.77-.79,1.56-1.57,2.35-2.35.8-.78,1.65-.77,2.45.03.45.45.89.91,1.35,1.39.77-.68,1.59-1.1,2.58-1.2,1.94-.19,3.82,1.06,4.35,2.93.06.21.13.42.19.64v1.14Z"/>
          <path class="cls-21" d="m931.28,300.53c-2.78,0-5.56,0-8.34,0-1.1,0-1.57-.4-1.78-1.47-.36-1.88-.18-1.69-2.1-1.96-1.97-.28-2.13-.44-2.27-2.43-.2-2.81-.51-5.59-1.45-8.29-.93-2.68-.74-5.4.06-8.06,1.88-6.24,5.93-10.36,12.29-11.98,4.24-1.08,8.3-.4,12.07,1.82,3.74,2.21,6.26,5.44,7.57,9.56.92,2.9,1.19,5.86.18,8.81-.81,2.36-1.07,4.81-1.17,7.28-.02.55-.06,1.1-.11,1.65-.07.81-.52,1.29-1.32,1.42-.72.12-1.43.22-2.15.31-.87.11-1.01.24-1.19,1.09-.06.3-.13.61-.2.91-.21.91-.7,1.31-1.65,1.31-2.82,0-5.63,0-8.45,0h0Zm7.29-8.93c2.63-.14,4.49-1.93,4.76-4.56.15-1.47-.49-2.68-1.86-3.19-1.88-.71-3.81-.75-5.73-.13-1.01.33-1.75.99-1.98,2.06-.1.48-.1.99-.07,1.49.15,2.41,2.47,4.46,4.88,4.34Zm-14.38-8.29c-.37.05-1.09.1-1.8.23-1.52.27-2.53,1.17-2.74,2.45-.17,1.01-.03,2,.44,2.92,1.07,2.08,3.44,3.15,5.56,2.54,2.36-.68,3.81-2.76,3.59-5.2-.08-.88-.47-1.61-1.23-2.11-1.06-.7-2.25-.8-3.83-.83Zm7.23,12.8s0,0,0,0c.48,0,.97.02,1.45,0,.72-.04,1.31-1.05.93-1.66-.54-.88-1.13-1.74-1.73-2.58-.37-.51-.93-.51-1.3,0-.6.83-1.17,1.67-1.71,2.53-.41.66.17,1.68.96,1.71.47.02.93,0,1.4,0Z"/>
          <path class="cls-21" d="m916.86,265.74c.49.47.97.91,1.43,1.38.72.74.73,1.61.01,2.34-.81.83-1.63,1.65-2.46,2.46-.72.7-1.58.69-2.3,0-.48-.47-.94-.96-1.4-1.44-2.3,1.42-4.02,1.53-5.47.38-1.47-1.17-2.01-2.86-1.47-4.62.57-1.84,1.96-2.73,4.55-2.87-.08-2.37.92-4.02,3.28-4.66,1.56-.42,3.37.32,4.31,1.7,1.08,1.57.94,3.3-.49,5.34Z"/>
          <path class="cls-21" d="m912.14,299.28c.45-.46.89-.94,1.36-1.4.76-.75,1.61-.75,2.37-.01.82.8,1.62,1.6,2.42,2.42.73.75.72,1.62-.02,2.38-.45.46-.91.89-1.39,1.36,1.54,1.97,1.69,3.94.02,5.87-1.02,1.18-2.92,1.62-4.47.98-1.96-.81-2.77-2.37-2.65-4.49-2.38.12-4.01-.89-4.66-3.21-.44-1.6.26-3.33,1.64-4.33,1.53-1.11,3.14-.98,5.39.45Z"/>
        </g>
        <g>
          <path class="cls-13" d="m938.57,291.6c-2.4.13-4.73-1.92-4.88-4.34-.03-.49-.04-1.01.07-1.49.23-1.07.97-1.73,1.98-2.06,1.92-.62,3.85-.58,5.73.13,1.36.51,2,1.72,1.86,3.19-.26,2.63-2.13,4.43-4.76,4.56Z"/>
          <path class="cls-13" d="m924.19,283.3c1.57.03,2.77.13,3.83.83.76.51,1.15,1.23,1.23,2.11.22,2.44-1.22,4.51-3.59,5.2-2.13.61-4.49-.46-5.56-2.54-.47-.92-.61-1.91-.44-2.92.21-1.28,1.22-2.17,2.74-2.45.71-.13,1.43-.19,1.8-.23Z"/>
          <path class="cls-13" d="m931.41,296.11c-.47,0-.93.01-1.4,0-.79-.03-1.38-1.05-.96-1.71.54-.86,1.11-1.71,1.71-2.53.37-.51.93-.51,1.3,0,.61.84,1.19,1.7,1.73,2.58.38.61-.21,1.63-.93,1.66-.48.02-.97,0-1.45,0,0,0,0,0,0,0Z"/>
        </g>
      </g>
    </g>
  </g>
</svg>