<svg xmlns="http://www.w3.org/2000/svg" viewBox="0 0 250.03 176.41">
  <defs>
    <style>
      .cls-1 {
        fill: #428489;
      }

      .cls-2 {
        isolation: isolate;
      }

      .cls-3 {
        fill: #51a89f;
      }

      .cls-4 {
        fill: #51918c;
      }

      .cls-5 {
        fill: #707070;
      }

      .cls-6 {
        fill: #565656;
      }

      .cls-7 {
        fill: #505050;
      }

      .cls-8 {
        fill: #e2a966;
      }

      .cls-9 {
        fill: #ffe180;
      }

      .cls-10 {
        fill: #585858;
      }

      .cls-11 {
        fill: #4f4f4f;
      }

      .cls-12 {
        fill: #373737;
      }

      .cls-13 {
        fill: #dcdcdc;
      }

      .cls-14 {
        fill: #c5c5c5;
      }

      .cls-15 {
        fill: #898989;
      }

      .cls-16 {
        fill: #fff;
      }

      .cls-17 {
        fill: #727272;
      }

      .cls-18 {
        fill: #9b9b9b;
      }

      .cls-19 {
        fill: #ea541f;
      }

      .cls-20 {
        fill: #f2b164;
      }

      .cls-21 {
        fill: #383838;
      }

      .cls-22 {
        fill: #545454;
      }

      .cls-23 {
        fill: #424242;
      }

      .cls-24 {
        fill: #515151;
      }

      .cls-25 {
        fill: #696969;
      }

      .cls-26 {
        fill: #4c4c4c;
      }

      .cls-27 {
        fill: #afafaf;
      }

      .cls-28 {
        fill: #dbdbdb;
      }

      .cls-29 {
        fill: #7accc2;
      }

      .cls-30 {
        fill: #afab95;
      }

      .cls-31 {
        fill: #363636;
      }

      .cls-32 {
        fill: #191919;
      }

      .cls-33 {
        fill: #7a7a7a;
      }

      .cls-34 {
        fill: #3e3e3e;
      }

      .cls-35 {
        fill: #c6c6c6;
      }

      .cls-36 {
        fill: #d6d6d6;
      }

      .cls-37 {
        fill: #ababab;
      }

      .cls-38 {
        fill: #bcbcbc;
      }

      .cls-39 {
        fill: #777;
      }

      .cls-40 {
        fill: #5b5b5b;
      }

      .cls-41 {
        fill: #8e8e8e;
      }

      .cls-42 {
        fill: #989898;
      }

      .cls-43 {
        fill: #626262;
      }

      .cls-44 {
        fill: #3d3d3d;
      }

      .cls-45 {
        fill: #9ab2af;
      }

      .cls-46 {
        fill: #444;
      }

      .cls-47 {
        fill: #c1c1c1;
      }

      .cls-48 {
        fill: #ffe000;
      }

      .cls-49 {
        fill: #b8a96e;
      }

      .cls-50 {
        fill: #8d8254;
      }

      .cls-51 {
        fill: #847a4f;
      }

      .cls-52 {
        fill: #aaa;
      }

      .cls-53 {
        fill: #c9c9c9;
      }

      .cls-54 {
        fill: #f2f2f2;
      }
    </style>
  </defs>
  <title>Asset 2</title>
  <g id="Layer_2" data-name="Layer 2">
    <g id="elements">
      <g>
        <g>
          <g>
            <polyline class="cls-1" points="0 112.98 109.86 176.41 250 94.98 250.03 81.77 140.17 18.34 0.04 99.77"/>
            <g class="cls-2">
              <polygon class="cls-3" points="250.03 81.77 109.9 163.2 0.04 99.77 140.17 18.34 250.03 81.77"/>
              <polygon class="cls-4" points="250.03 81.77 250 94.98 109.86 176.41 109.9 163.2 250.03 81.77"/>
              <polygon class="cls-1" points="109.9 163.2 109.86 176.41 0 112.98 0.04 99.77 109.9 163.2"/>
            </g>
          </g>
          <g>
            <g>
              <g class="cls-2">
                <polygon class="cls-5" points="171.76 36.24 156.27 45.24 149.59 41.39 165.09 32.39 171.76 36.24"/>
                <polygon class="cls-6" points="171.76 36.24 171.76 38.72 156.26 47.73 156.27 45.24 171.76 36.24"/>
                <polygon class="cls-7" points="156.27 45.24 156.26 47.73 149.59 43.88 149.59 41.39 156.27 45.24"/>
              </g>
              <g>
                <g class="cls-2">
                  <path class="cls-8" d="M159.61,30.69l0,10.32a1.17,1.17,0,0,1-.69,1,3.69,3.69,0,0,1-3.33,0,1.17,1.17,0,0,1-.69-1l0-10.31a1.19,1.19,0,0,0,.7,1,3.62,3.62,0,0,0,3.33,0A1.16,1.16,0,0,0,159.61,30.69Z"/>
                  <path class="cls-9" d="M158.91,29.72c.93.54.93,1.4,0,1.93a3.62,3.62,0,0,1-3.33,0,1,1,0,0,1,0-1.93A3.69,3.69,0,0,1,158.91,29.72Z"/>
                </g>
                <g class="cls-2">
                  <path class="cls-8" d="M166.12,26.9l0,10.32a1.19,1.19,0,0,1-.68,1,3.71,3.71,0,0,1-3.34,0,1.19,1.19,0,0,1-.69-1l0-10.31a1.15,1.15,0,0,0,.69,1,3.65,3.65,0,0,0,3.34,0A1.17,1.17,0,0,0,166.12,26.9Z"/>
                  <path class="cls-9" d="M165.43,25.93a1,1,0,0,1,0,1.93,3.65,3.65,0,0,1-3.34,0,1,1,0,0,1,0-1.93A3.71,3.71,0,0,1,165.43,25.93Z"/>
                </g>
              </g>
            </g>
            <g>
              <g class="cls-2">
                <polygon class="cls-5" points="178.44 40.03 162.94 49.03 156.27 45.18 171.76 36.18 178.44 40.03"/>
                <polygon class="cls-6" points="178.44 40.03 178.43 42.51 162.93 51.52 162.94 49.03 178.44 40.03"/>
                <polygon class="cls-7" points="162.94 49.03 162.93 51.52 156.26 47.67 156.27 45.18 162.94 49.03"/>
              </g>
              <g>
                <g class="cls-2">
                  <path class="cls-8" d="M166.28,34.49l0,10.31a1.18,1.18,0,0,1-.68,1,3.71,3.71,0,0,1-3.34,0,1.19,1.19,0,0,1-.69-1l0-10.31a1.15,1.15,0,0,0,.69,1,3.65,3.65,0,0,0,3.34,0A1.17,1.17,0,0,0,166.28,34.49Z"/>
                  <path class="cls-9" d="M165.58,33.51c.93.54.93,1.4,0,1.93a3.65,3.65,0,0,1-3.34,0,1,1,0,0,1,0-1.93A3.69,3.69,0,0,1,165.58,33.51Z"/>
                </g>
                <g class="cls-2">
                  <path class="cls-8" d="M172.79,30.69l0,10.32a1.18,1.18,0,0,1-.68,1,3.71,3.71,0,0,1-3.34,0,1.19,1.19,0,0,1-.69-1l0-10.31a1.17,1.17,0,0,0,.69,1,3.65,3.65,0,0,0,3.34,0A1.17,1.17,0,0,0,172.79,30.69Z"/>
                  <path class="cls-9" d="M172.1,29.72a1,1,0,0,1,0,1.93,3.65,3.65,0,0,1-3.34,0,1,1,0,0,1,0-1.93A3.71,3.71,0,0,1,172.1,29.72Z"/>
                </g>
              </g>
            </g>
            <g>
              <g class="cls-2">
                <polygon class="cls-5" points="185.11 43.82 169.61 52.83 162.94 48.97 178.44 39.97 185.11 43.82"/>
                <polygon class="cls-6" points="185.11 43.82 185.1 46.3 169.6 55.31 169.61 52.83 185.11 43.82"/>
                <polygon class="cls-7" points="169.61 52.83 169.6 55.31 162.93 51.46 162.94 48.97 169.61 52.83"/>
              </g>
              <g>
                <g class="cls-2">
                  <path class="cls-8" d="M173,38.28l0,10.31a1.18,1.18,0,0,1-.68,1,3.71,3.71,0,0,1-3.34,0,1.18,1.18,0,0,1-.69-1l0-10.32a1.2,1.2,0,0,0,.69,1,3.71,3.71,0,0,0,3.34,0A1.19,1.19,0,0,0,173,38.28Z"/>
                  <path class="cls-9" d="M172.26,37.3a1,1,0,0,1,0,1.94,3.71,3.71,0,0,1-3.34,0,1,1,0,0,1,0-1.94A3.71,3.71,0,0,1,172.26,37.3Z"/>
                </g>
                <g class="cls-2">
                  <path class="cls-8" d="M179.46,34.49l0,10.31a1.21,1.21,0,0,1-.69,1,3.69,3.69,0,0,1-3.33,0,1.18,1.18,0,0,1-.7-1l0-10.31a1.17,1.17,0,0,0,.7,1,3.62,3.62,0,0,0,3.33,0A1.17,1.17,0,0,0,179.46,34.49Z"/>
                  <path class="cls-9" d="M178.77,33.51a1,1,0,0,1,0,1.93,3.63,3.63,0,0,1-3.33,0,1,1,0,0,1,0-1.93A3.71,3.71,0,0,1,178.77,33.51Z"/>
                </g>
              </g>
            </g>
          </g>
          <g class="cls-2">
            <polygon class="cls-5" points="64.78 90.42 64.77 94.39 81.63 104.12 98.39 94.39 98.4 90.42 81.53 80.68 64.78 90.42"/>
            <polygon class="cls-5" points="98.4 90.42 81.64 100.16 64.78 90.42 81.53 80.68 98.4 90.42"/>
            <polygon class="cls-6" points="98.4 90.42 98.39 94.39 81.63 104.12 81.64 100.16 98.4 90.42"/>
            <polygon class="cls-7" points="81.64 100.16 81.63 104.12 64.77 94.39 64.78 90.42 81.64 100.16"/>
          </g>
          <g>
            <g class="cls-2">
              <polygon class="cls-10" points="33.09 93.23 16.61 102.81 0.02 93.23 16.5 83.66 33.09 93.23"/>
              <polygon class="cls-11" points="33.09 93.23 33.07 99.76 16.59 109.33 16.61 102.81 33.09 93.23"/>
              <polygon class="cls-12" points="16.61 102.81 16.59 109.33 0 99.76 0.02 93.23 16.61 102.81"/>
            </g>
            <g class="cls-2">
              <polygon class="cls-13" points="33.08 89.73 16.6 99.31 0.01 89.73 16.49 80.15 33.08 89.73"/>
              <polygon class="cls-14" points="33.08 89.73 33.07 92.99 16.59 102.57 16.6 99.31 33.08 89.73"/>
              <polygon class="cls-15" points="16.6 99.31 16.59 102.57 0.01 92.99 0.01 89.73 16.6 99.31"/>
            </g>
            <g class="cls-2">
              <path class="cls-16" d="M21.56,86.76c2.79,1.61,2.81,4.21,0,5.82a11.06,11.06,0,0,1-10,0c-2.79-1.61-2.8-4.21,0-5.82A11.06,11.06,0,0,1,21.56,86.76Z"/>
            </g>
            <g class="cls-2">
              <path class="cls-17" d="M29.82,88.65V90a1.28,1.28,0,0,1-.75,1,4,4,0,0,1-3.66,0A1.28,1.28,0,0,1,24.63,90V88.64a1.3,1.3,0,0,0,.76,1.07,4,4,0,0,0,3.67,0A1.28,1.28,0,0,0,29.82,88.65Z"/>
              <path class="cls-18" d="M29.06,87.59a1.12,1.12,0,0,1,0,2.12,4,4,0,0,1-3.67,0c-1-.59-1-1.54,0-2.12A4,4,0,0,1,29.06,87.59Z"/>
            </g>
            <g class="cls-2">
              <path class="cls-17" d="M19.15,95v1.36a1.28,1.28,0,0,1-.75,1.06,4,4,0,0,1-3.67,0A1.3,1.3,0,0,1,14,96.33V95A1.3,1.3,0,0,0,14.73,96a4,4,0,0,0,3.66,0A1.27,1.27,0,0,0,19.15,95Z"/>
              <path class="cls-18" d="M18.38,93.91a1.12,1.12,0,0,1,0,2.12,4,4,0,0,1-3.66,0,1.12,1.12,0,0,1,0-2.12A4,4,0,0,1,18.38,93.91Z"/>
            </g>
            <g class="cls-2">
              <path class="cls-17" d="M8.57,88.65V90a1.27,1.27,0,0,1-.76,1,4,4,0,0,1-3.66,0A1.3,1.3,0,0,1,3.37,90V88.64a1.31,1.31,0,0,0,.77,1.07,4,4,0,0,0,3.66,0A1.29,1.29,0,0,0,8.57,88.65Z"/>
              <path class="cls-18" d="M7.8,87.59a1.12,1.12,0,0,1,0,2.12,4,4,0,0,1-3.66,0c-1-.59-1-1.54,0-2.12A4,4,0,0,1,7.8,87.59Z"/>
            </g>
            <g class="cls-2">
              <path class="cls-17" d="M19.15,83.12v1.37a1.28,1.28,0,0,1-.75,1.05,4,4,0,0,1-3.67,0A1.29,1.29,0,0,1,14,84.47V83.11a1.32,1.32,0,0,0,.77,1.07,4.07,4.07,0,0,0,3.66,0A1.28,1.28,0,0,0,19.15,83.12Z"/>
              <path class="cls-18" d="M18.38,82.05a1.13,1.13,0,0,1,0,2.13,4.07,4.07,0,0,1-3.66,0,1.13,1.13,0,0,1,0-2.13A4.07,4.07,0,0,1,18.38,82.05Z"/>
            </g>
            <g class="cls-2">
              <path class="cls-19" d="M22.75,82.74l0,6.52a3.08,3.08,0,0,1-1.8,2.52,9.66,9.66,0,0,1-8.76,0,3.06,3.06,0,0,1-1.83-2.56V82.7a3.12,3.12,0,0,0,1.84,2.56,9.66,9.66,0,0,0,8.76,0A3.08,3.08,0,0,0,22.75,82.74Z"/>
              <path class="cls-20" d="M20.93,80.18c2.42,1.4,2.44,3.67,0,5.08a9.66,9.66,0,0,1-8.76,0c-2.43-1.41-2.45-3.68,0-5.08A9.7,9.7,0,0,1,20.93,80.18Z"/>
            </g>
          </g>
          <g>
            <polygon class="cls-21" points="114.81 81.23 114.76 96.72 134.61 108.17 207.69 65.7 207.74 50.22 187.89 38.76 114.81 81.23"/>
            <g class="cls-2">
              <polygon class="cls-22" points="207.74 50.22 134.66 92.69 114.81 81.23 187.89 38.76 207.74 50.22"/>
              <polygon class="cls-23" points="207.74 50.22 207.69 65.7 134.61 108.17 134.66 92.69 207.74 50.22"/>
              <polygon class="cls-21" points="134.66 92.69 134.61 108.17 114.76 96.72 114.81 81.23 134.66 92.69"/>
            </g>
          </g>
          <g>
            <g>
              <polygon class="cls-24" points="110.34 124.78 110.33 128.75 124.41 136.88 152.65 120.47 152.66 116.5 138.58 108.37 110.34 124.78"/>
              <g class="cls-2">
                <polygon class="cls-25" points="152.66 116.5 124.42 132.91 110.34 124.78 138.58 108.37 152.66 116.5"/>
                <polygon class="cls-24" points="152.66 116.5 152.65 120.47 124.41 136.88 124.42 132.91 152.66 116.5"/>
                <polygon class="cls-26" points="124.42 132.91 124.41 136.88 110.33 128.75 110.34 124.78 124.42 132.91"/>
              </g>
            </g>
            <g>
              <g class="cls-2">
                <path class="cls-27" d="M147.39,105.16l0,11c0,1.27-.83,2.54-2.5,3.51a13.44,13.44,0,0,1-12.18,0c-1.69-1-2.54-2.26-2.54-3.55l0-11c0,1.28.84,2.57,2.53,3.55a13.41,13.41,0,0,0,12.18,0C146.56,107.69,147.39,106.42,147.39,105.16Z"/>
                <path class="cls-28" d="M144.85,101.6c3.38,2,3.4,5.11,0,7.06a13.41,13.41,0,0,1-12.18,0c-3.37-2-3.38-5.11,0-7A13.44,13.44,0,0,1,144.85,101.6Z"/>
              </g>
              <g class="cls-2">
                <path class="cls-27" d="M132.84,113.51l0,11c0,1.27-.84,2.54-2.5,3.51a13.44,13.44,0,0,1-12.18,0c-1.7-1-2.54-2.26-2.54-3.55l0-11c0,1.28.85,2.57,2.54,3.55a13.41,13.41,0,0,0,12.18,0C132,116,132.84,114.78,132.84,113.51Z"/>
                <path class="cls-28" d="M130.3,110c3.38,2,3.39,5.1,0,7.05a13.41,13.41,0,0,1-12.18,0c-3.37-2-3.39-5.1,0-7.05A13.41,13.41,0,0,1,130.3,110Z"/>
              </g>
            </g>
          </g>
          <g>
            <g class="cls-2">
              <path class="cls-29" d="M225.94,85.49a13.9,13.9,0,0,0,12.59,0c3.45-2,3.43-5.27-.06-7.29a13.9,13.9,0,0,0-12.56,0C222.44,80.22,222.46,83.48,225.94,85.49Z"/>
            </g>
            <g class="cls-2">
              <path class="cls-30" d="M228.08,84.25a9.17,9.17,0,0,0,8.29,0c2.28-1.32,2.26-3.48,0-4.8a9.15,9.15,0,0,0-8.28,0C225.78,80.77,225.79,82.93,228.08,84.25Z"/>
            </g>
            <path class="cls-16" d="M228.07,84.25a9.15,9.15,0,0,0,8.28,0h0a9.15,9.15,0,0,0-8.28,0"/>
          </g>
          <g>
            <g class="cls-2">
              <path class="cls-29" d="M131,141a13.84,13.84,0,0,0,12.59,0c3.45-2,3.43-5.27-.06-7.28a13.83,13.83,0,0,0-12.56,0C127.45,135.74,127.47,139,131,141Z"/>
            </g>
            <g class="cls-2">
              <path class="cls-30" d="M133.09,139.77a9.11,9.11,0,0,0,8.29,0c2.28-1.32,2.26-3.47,0-4.8a9.15,9.15,0,0,0-8.28,0C130.79,136.3,130.8,138.45,133.09,139.77Z"/>
            </g>
            <path class="cls-16" d="M133.08,139.77a9.09,9.09,0,0,0,8.28,0h0a9.15,9.15,0,0,0-8.28,0"/>
          </g>
          <polyline class="cls-31" points="150.09 131.62 155.53 134.76 198.09 110.03 198.16 83.6 192.72 80.46"/>
          <g>
            <g class="cls-2">
              <polygon class="cls-31" points="85.72 24.73 85.64 51.16 91.08 54.3 133.64 29.57 133.71 3.15 128.27 0 85.72 24.73"/>
              <polygon class="cls-32" points="130.86 3.05 128.35 4.5 125.84 3.05 128.35 1.59 130.86 3.05"/>
              <polygon class="cls-32" points="125.54 6.14 123.04 7.59 120.53 6.14 123.02 4.69 125.54 6.14"/>
              <polygon class="cls-32" points="120.22 9.23 117.72 10.69 115.2 9.24 117.71 7.78 120.22 9.23"/>
              <polygon class="cls-32" points="114.9 12.32 112.4 13.78 109.89 12.32 112.38 10.87 114.9 12.32"/>
              <polygon class="cls-32" points="109.58 15.41 107.08 16.87 104.56 15.42 107.07 13.96 109.58 15.41"/>
              <polygon class="cls-32" points="104.27 18.5 101.76 19.96 99.25 18.51 101.75 17.05 104.27 18.5"/>
              <polygon class="cls-32" points="93.63 24.69 91.12 26.14 88.61 24.69 91.11 23.23 93.63 24.69"/>
              <path class="cls-33" d="M128.27,0l5.44,3.14L91.16,27.87l-5.44-3.14ZM91.12,26.14l2.51-1.45-2.52-1.46L88.6,24.69l2.52,1.45M128.36,4.5l2.5-1.45L128.35,1.6l-2.51,1.45,2.52,1.45m-10.65,6.19,2.51-1.46-2.51-1.45L115.2,9.24l2.51,1.45m-10.64,6.18,2.51-1.46L107.07,14l-2.51,1.46,2.51,1.45M101.76,20l2.51-1.46-2.52-1.45-2.5,1.46L101.76,20m-5.33,3.1,2.51-1.46-2.51-1.45L93.92,21.6l2.51,1.46M123,7.59l2.5-1.45L123,4.69l-2.49,1.45L123,7.59M112.4,13.78l2.5-1.45-2.52-1.46-2.49,1.46,2.51,1.45"/>
              <polygon class="cls-32" points="98.94 21.6 96.43 23.05 93.92 21.6 96.43 20.15 98.94 21.6"/>
              <polygon class="cls-31" points="91.16 27.87 91.08 54.3 85.64 51.16 85.72 24.73 91.16 27.87"/>
              <polygon class="cls-34" points="133.71 3.15 133.64 29.57 91.08 54.3 91.16 27.87 133.71 3.15"/>
            </g>
            <g class="cls-2">
              <polygon class="cls-31" points="85.72 57.41 32.78 88.17 27.34 85.03 27.42 58.61 80.35 27.85 85.79 30.99 85.72 57.41"/>
              <polygon class="cls-32" points="82.89 30.92 80.39 32.38 77.87 30.93 80.38 29.47 82.89 30.92"/>
              <path class="cls-33" d="M80.35,27.85,85.79,31,32.86,61.75l-5.44-3.14ZM32.82,60l2.51-1.45-2.52-1.46L30.3,58.57,32.82,60M64.74,41.47,67.25,40l-2.52-1.46L62.22,40l2.52,1.45M54.1,47.66l2.51-1.46-2.52-1.45-2.51,1.46,2.52,1.45M43.46,53.84,46,52.38l-2.52-1.45-2.51,1.46,2.52,1.45M80.39,32.38l2.5-1.46-2.51-1.45-2.51,1.46,2.52,1.45M48.78,50.75l2.5-1.46-2.51-1.45-2.5,1.45,2.51,1.46M38.14,56.93l2.5-1.45L38.13,54l-2.5,1.45,2.51,1.45M75.07,35.47,77.57,34l-2.52-1.45L72.56,34l2.51,1.45M59.42,44.56l2.5-1.45-2.51-1.45-2.5,1.45,2.51,1.45m10.64-6.18,2.5-1.45-2.51-1.45-2.5,1.45,2.51,1.45"/>
              <polygon class="cls-32" points="77.57 34.02 75.07 35.47 72.56 34.02 75.06 32.57 77.57 34.02"/>
              <polygon class="cls-32" points="72.56 36.93 70.06 38.38 67.55 36.93 70.05 35.48 72.56 36.93"/>
              <polygon class="cls-32" points="67.25 40.02 64.74 41.47 62.23 40.02 64.73 38.56 67.25 40.02"/>
              <polygon class="cls-32" points="61.92 43.11 59.42 44.56 56.91 43.11 59.41 41.66 61.92 43.11"/>
              <polygon class="cls-32" points="56.61 46.2 54.1 47.66 51.59 46.21 54.09 44.75 56.61 46.2"/>
              <polygon class="cls-32" points="51.28 49.29 48.78 50.75 46.27 49.29 48.77 47.84 51.28 49.29"/>
              <polygon class="cls-32" points="45.97 52.38 43.46 53.84 40.94 52.39 43.45 50.93 45.97 52.38"/>
              <polygon class="cls-32" points="40.64 55.48 38.14 56.93 35.63 55.48 38.13 54.03 40.64 55.48"/>
              <polygon class="cls-32" points="35.33 58.57 32.82 60.02 30.3 58.57 32.81 57.12 35.33 58.57"/>
              <polygon class="cls-31" points="32.86 61.75 32.78 88.17 27.34 85.03 27.42 58.61 32.86 61.75"/>
              <polygon class="cls-34" points="85.79 30.99 85.72 57.41 32.78 88.17 32.86 61.75 85.79 30.99"/>
            </g>
            <g class="cls-2">
              <polygon class="cls-31" points="150.16 105.19 150.09 131.62 155.53 134.76 198.09 110.03 198.16 83.6 192.72 80.46 150.16 105.19"/>
              <polygon class="cls-32" points="189.99 86.6 187.49 88.05 184.98 86.6 187.48 85.15 189.99 86.6"/>
              <polygon class="cls-32" points="184.68 89.69 182.17 91.14 179.65 89.69 182.16 88.23 184.68 89.69"/>
              <polygon class="cls-32" points="179.35 92.78 176.85 94.23 174.34 92.78 176.84 91.33 179.35 92.78"/>
              <polygon class="cls-32" points="174.03 95.87 171.53 97.33 169.01 95.88 171.52 94.42 174.03 95.87"/>
              <polygon class="cls-32" points="168.71 98.97 166.21 100.42 163.7 98.97 166.19 97.51 168.71 98.97"/>
              <path class="cls-33" d="M192.72,80.46l5.44,3.14L155.6,108.33l-5.44-3.14ZM171.53,97.33l2.5-1.46-2.51-1.45L169,95.88l2.52,1.45m-10.64,6.18,2.5-1.46-2.51-1.45-2.51,1.46,2.52,1.45M192.81,85l2.51-1.46-2.52-1.45-2.51,1.46L192.81,85m-10.64,6.18,2.51-1.45-2.52-1.46-2.51,1.46,2.52,1.45m-26.6,15.46,2.5-1.45-2.52-1.45-2.49,1.45,2.51,1.45m10.64-6.18,2.5-1.46-2.51-1.45L163.7,99l2.51,1.46m21.28-12.37L190,86.6l-2.51-1.45L185,86.6l2.51,1.45m-10.64,6.18,2.5-1.45-2.51-1.45-2.5,1.45,2.51,1.45"/>
              <polygon class="cls-32" points="195.32 83.5 192.81 84.96 190.29 83.51 192.8 82.05 195.32 83.5"/>
              <polygon class="cls-32" points="163.4 102.05 160.89 103.51 158.37 102.06 160.88 100.6 163.4 102.05"/>
              <polygon class="cls-32" points="158.07 105.15 155.57 106.6 153.06 105.15 155.56 103.7 158.07 105.15"/>
              <polygon class="cls-34" points="198.16 83.6 198.09 110.03 155.53 134.76 155.6 108.34 198.16 83.6"/>
              <polygon class="cls-31" points="155.61 108.33 155.53 134.76 150.09 131.62 150.16 105.19 155.61 108.33"/>
            </g>
            <g class="cls-2">
              <polygon class="cls-31" points="198.31 77.21 198.24 103.63 203.68 106.77 235.47 88.3 235.54 61.88 230.1 58.73 198.31 77.21"/>
              <polygon class="cls-32" points="232.82 61.71 230.32 63.16 227.81 61.71 230.3 60.26 232.82 61.71"/>
              <polygon class="cls-32" points="227.5 64.8 225 66.25 222.48 64.8 224.99 63.34 227.5 64.8"/>
              <polygon class="cls-32" points="216.86 70.98 214.35 72.44 211.84 70.99 214.35 69.53 216.86 70.98"/>
              <path class="cls-33" d="M230.1,58.73l5.44,3.15L203.76,80.35l-5.45-3.14ZM203.71,78.62l2.51-1.46-2.51-1.45-2.51,1.46,2.51,1.45M225,66.25l2.5-1.45L225,63.35l-2.51,1.45L225,66.25m-10.65,6.19L216.86,71l-2.51-1.45L211.84,71l2.51,1.45m5.33-3.1,2.5-1.45-2.52-1.45-2.49,1.45,2.51,1.45m10.64-6.18,2.5-1.45-2.52-1.45-2.49,1.45,2.51,1.45M209,75.53l2.5-1.45L209,72.62l-2.49,1.46L209,75.53"/>
              <polygon class="cls-32" points="222.18 67.89 219.68 69.34 217.17 67.89 219.66 66.44 222.18 67.89"/>
              <polygon class="cls-32" points="211.54 74.08 209.04 75.53 206.53 74.08 209.02 72.62 211.54 74.08"/>
              <polygon class="cls-32" points="206.22 77.16 203.72 78.62 201.2 77.17 203.71 75.71 206.22 77.16"/>
              <polygon class="cls-31" points="203.75 80.35 203.68 106.77 198.24 103.63 198.31 77.21 203.75 80.35"/>
              <polygon class="cls-34" points="235.54 61.88 235.47 88.3 203.68 106.77 203.75 80.35 235.54 61.88"/>
            </g>
          </g>
          <g>
            <g>
              <g class="cls-2">
                <polygon class="cls-5" points="57.81 72.05 73.31 81.05 79.98 77.2 64.48 68.19 57.81 72.05"/>
                <polygon class="cls-6" points="57.81 72.05 57.82 74.53 73.31 83.54 73.31 81.05 57.81 72.05"/>
                <polygon class="cls-7" points="73.31 81.05 73.31 83.54 79.98 79.68 79.98 77.2 73.31 81.05"/>
              </g>
              <g>
                <g class="cls-2">
                  <path class="cls-8" d="M70,66.5l0,10.32a1.18,1.18,0,0,0,.69,1,3.69,3.69,0,0,0,3.33,0,1.2,1.2,0,0,0,.7-1l0-10.31a1.18,1.18,0,0,1-.7,1,3.62,3.62,0,0,1-3.33,0A1.16,1.16,0,0,1,70,66.5Z"/>
                  <path class="cls-9" d="M70.66,65.53c-.93.54-.93,1.4,0,1.93a3.62,3.62,0,0,0,3.33,0,1,1,0,0,0,0-1.93A3.69,3.69,0,0,0,70.66,65.53Z"/>
                </g>
                <g class="cls-2">
                  <path class="cls-8" d="M63.45,62.71l0,10.32a1.18,1.18,0,0,0,.69,1,3.69,3.69,0,0,0,3.33,0,1.21,1.21,0,0,0,.7-1l0-10.31a1.2,1.2,0,0,1-.7,1,3.62,3.62,0,0,1-3.33,0A1.16,1.16,0,0,1,63.45,62.71Z"/>
                  <path class="cls-9" d="M64.15,61.74c-.93.54-.93,1.4,0,1.93a3.62,3.62,0,0,0,3.33,0,1,1,0,0,0,0-1.93A3.69,3.69,0,0,0,64.15,61.74Z"/>
                </g>
              </g>
            </g>
            <g>
              <g class="cls-2">
                <polygon class="cls-5" points="51.14 75.84 66.63 84.84 73.31 80.99 57.81 71.99 51.14 75.84"/>
                <polygon class="cls-6" points="51.14 75.84 51.14 78.32 66.64 87.33 66.63 84.84 51.14 75.84"/>
                <polygon class="cls-7" points="66.63 84.84 66.64 87.33 73.31 83.47 73.31 80.99 66.63 84.84"/>
              </g>
              <g>
                <g class="cls-2">
                  <path class="cls-8" d="M63.29,70.29l0,10.32a1.18,1.18,0,0,0,.69,1,3.69,3.69,0,0,0,3.33,0,1.2,1.2,0,0,0,.7-1l0-10.31a1.19,1.19,0,0,1-.7,1,3.62,3.62,0,0,1-3.33,0A1.16,1.16,0,0,1,63.29,70.29Z"/>
                  <path class="cls-9" d="M64,69.32c-.93.54-.93,1.4,0,1.93a3.62,3.62,0,0,0,3.33,0,1,1,0,0,0,0-1.93A3.69,3.69,0,0,0,64,69.32Z"/>
                </g>
                <g class="cls-2">
                  <path class="cls-8" d="M56.78,66.5l0,10.32a1.19,1.19,0,0,0,.68,1,3.71,3.71,0,0,0,3.34,0,1.17,1.17,0,0,0,.69-1l0-10.31a1.16,1.16,0,0,1-.69,1,3.65,3.65,0,0,1-3.34,0A1.17,1.17,0,0,1,56.78,66.5Z"/>
                  <path class="cls-9" d="M57.48,65.53c-.93.54-.93,1.4,0,1.93a3.65,3.65,0,0,0,3.34,0,1,1,0,0,0,0-1.93A3.69,3.69,0,0,0,57.48,65.53Z"/>
                </g>
              </g>
            </g>
            <g>
              <g class="cls-2">
                <polygon class="cls-5" points="44.47 79.63 59.96 88.63 66.63 84.78 51.14 75.78 44.47 79.63"/>
                <polygon class="cls-6" points="44.47 79.63 44.47 82.11 59.97 91.12 59.96 88.63 44.47 79.63"/>
                <polygon class="cls-7" points="59.96 88.63 59.97 91.12 66.64 87.27 66.63 84.78 59.96 88.63"/>
              </g>
              <g>
                <g class="cls-2">
                  <path class="cls-8" d="M56.62,74.08l0,10.32a1.18,1.18,0,0,0,.68,1,3.71,3.71,0,0,0,3.34,0,1.17,1.17,0,0,0,.69-1l0-10.31a1.19,1.19,0,0,1-.7,1,3.62,3.62,0,0,1-3.33,0A1.16,1.16,0,0,1,56.62,74.08Z"/>
                  <path class="cls-9" d="M57.32,73.11c-.93.54-.93,1.4,0,1.93a3.62,3.62,0,0,0,3.33,0,1,1,0,0,0,0-1.93A3.69,3.69,0,0,0,57.32,73.11Z"/>
                </g>
                <g class="cls-2">
                  <path class="cls-8" d="M50.11,70.29l0,10.32a1.19,1.19,0,0,0,.68,1,3.71,3.71,0,0,0,3.34,0,1.19,1.19,0,0,0,.69-1l0-10.31a1.17,1.17,0,0,1-.69,1,3.65,3.65,0,0,1-3.34,0A1.17,1.17,0,0,1,50.11,70.29Z"/>
                  <path class="cls-9" d="M50.8,69.32a1,1,0,0,0,0,1.93,3.65,3.65,0,0,0,3.34,0,1,1,0,0,0,0-1.93A3.71,3.71,0,0,0,50.8,69.32Z"/>
                </g>
              </g>
            </g>
          </g>
          <g>
            <polygon class="cls-35" points="9.79 95.99 9.71 122.42 34.92 136.97 68.92 117.21 69 90.78 43.79 76.23 9.79 95.99"/>
            <g class="cls-2">
              <polygon class="cls-35" points="69 90.78 34.99 110.55 9.79 95.99 43.79 76.23 69 90.78"/>
              <polygon class="cls-36" points="69 90.78 59.52 96.25 34.32 81.7 43.79 76.23 69 90.78"/>
              <polygon class="cls-37" points="69 90.78 68.92 117.21 34.92 136.97 34.99 110.55 69 90.78"/>
              <polygon class="cls-38" points="69 90.78 68.92 117.21 59.49 122.68 59.57 96.25 69 90.78"/>
              <polygon class="cls-39" points="34.99 110.55 34.92 136.97 9.71 122.42 9.79 95.99 34.99 110.55"/>
            </g>
            <g>
              <polygon class="cls-40" points="26.6 110.5 31.83 119.86 31.8 131.19 12.87 120.27 12.9 108.93 18.16 105.62 26.6 110.5"/>
              <g>
                <g class="cls-2">
                  <polygon class="cls-41" points="28.39 118.24 28.37 125.08 16.26 118.09 16.28 111.25 28.39 118.24"/>
                </g>
                <g class="cls-2">
                  <polygon class="cls-42" points="28.37 125.08 31.82 123.07 31.83 119.86 30.3 117.13 28.39 118.24 28.37 125.08"/>
                </g>
                <g class="cls-2">
                  <polygon class="cls-14" points="26.58 110.5 22.06 107.88 16.26 111.25 28.37 118.24 30.29 117.13 26.58 110.5"/>
                </g>
              </g>
            </g>
          </g>
          <g>
            <polygon class="cls-21" points="121.03 149.28 121.1 126.82 103.36 116.58 81.32 129.39 80.42 128.87 74.65 132.22 74.59 154.68 93.94 165.85 99.71 162.5 99.77 161.64 121.03 149.28"/>
            <g class="cls-2">
              <polygon class="cls-10" points="121.1 126.82 121.03 149.28 98.99 162.09 99.06 139.63 121.1 126.82"/>
              <polygon class="cls-43" points="121.1 126.82 99.06 139.63 99.77 140.04 94 143.39 74.65 132.22 80.42 128.87 81.32 129.39 103.36 116.58 121.1 126.82"/>
              <polygon class="cls-10" points="99.77 140.04 99.71 162.5 93.94 165.85 94 143.39 99.77 140.04"/>
              <polygon class="cls-44" points="94 143.39 93.94 165.85 74.59 154.68 74.65 132.22 94 143.39"/>
            </g>
          </g>
          <g class="cls-2">
            <path class="cls-43" d="M77.49,145.49a13.77,13.77,0,0,0,6.31,10.8c3.47,2,6.26.31,6.24-3.69a13.77,13.77,0,0,0-6.32-10.8C80.25,139.84,77.46,141.49,77.49,145.49Z"/>
            <path class="cls-12" d="M90,153.69a6.91,6.91,0,0,0,.07-1.14,13.77,13.77,0,0,0-6.31-10.8,7.07,7.07,0,0,0-.92-.45h0a6.84,6.84,0,0,0-.07,1.14,13.79,13.79,0,0,0,6.31,10.8,7.12,7.12,0,0,0,1,.46"/>
          </g>
          <g>
            <polygon class="cls-45" points="104.64 55.81 100.78 58.05 95.21 54.83 99.07 52.59 104.64 55.81"/>
            <polygon class="cls-45" points="109.35 53.08 105.5 55.32 99.93 52.1 103.78 49.87 109.35 53.08"/>
            <polygon class="cls-45" points="114.06 50.35 110.21 52.59 104.64 49.38 108.49 47.14 114.06 50.35"/>
            <polygon class="cls-45" points="118.78 47.63 114.92 49.87 109.35 46.65 113.21 44.41 118.78 47.63"/>
            <polygon class="cls-45" points="123.49 44.9 119.64 47.14 114.06 43.92 117.92 41.68 123.49 44.9"/>
            <polygon class="cls-45" points="128.2 42.17 124.35 44.41 118.78 41.19 122.63 38.95 128.2 42.17"/>
            <polygon class="cls-45" points="132.92 39.44 129.06 41.68 123.49 38.47 127.34 36.22 132.92 39.44"/>
            <polygon class="cls-45" points="137.63 36.71 133.77 38.95 128.2 35.74 132.06 33.5 137.63 36.71"/>
          </g>
          <g>
            <polygon class="cls-46" points="100.11 71.56 97.14 73.29 91.92 70.28 94.89 68.55 100.11 71.56"/>
            <g>
              <polygon class="cls-47" points="108.19 73.28 99.8 78.16 96.19 76.07 104.58 71.2 108.19 73.28"/>
              <g class="cls-2">
                <polygon class="cls-48" points="105.91 73.29 102.33 75.38 98.72 73.29 102.31 71.21 105.91 73.29"/>
                <polygon class="cls-48" points="105.91 73.29 105.91 74.64 102.32 76.72 102.33 75.38 105.91 73.29"/>
                <polygon class="cls-48" points="102.33 75.38 102.32 76.72 98.72 74.64 98.72 73.29 102.33 75.38"/>
              </g>
            </g>
            <g>
              <polygon class="cls-47" points="96.21 66.37 87.83 71.24 84.22 69.16 92.6 64.28 96.21 66.37"/>
              <g class="cls-2">
                <polygon class="cls-48" points="93.94 66.38 90.35 68.46 86.74 66.38 90.33 64.29 93.94 66.38"/>
                <polygon class="cls-48" points="93.94 66.38 93.93 67.72 90.35 69.8 90.35 68.46 93.94 66.38"/>
                <polygon class="cls-48" points="90.35 68.46 90.35 69.8 86.74 67.72 86.74 66.38 90.35 68.46"/>
              </g>
            </g>
            <g>
              <polygon class="cls-47" points="113.56 76.38 105.18 81.25 101.57 79.17 109.95 74.3 113.56 76.38"/>
              <g class="cls-2">
                <polygon class="cls-48" points="111.29 76.39 107.7 78.47 104.09 76.39 107.68 74.31 111.29 76.39"/>
                <polygon class="cls-48" points="111.29 76.39 111.28 77.73 107.7 79.81 107.7 78.47 111.29 76.39"/>
                <polygon class="cls-48" points="107.7 78.47 107.7 79.81 104.09 77.73 104.09 76.39 107.7 78.47"/>
              </g>
            </g>
          </g>
          <g class="cls-2">
            <polygon class="cls-49" points="76.71 128.24 70.42 131.89 60.07 125.92 66.36 122.26 76.71 128.24"/>
            <polygon class="cls-50" points="76.71 128.24 76.7 129.56 70.41 133.21 70.42 131.89 76.71 128.24"/>
            <polygon class="cls-51" points="70.42 131.89 70.41 133.21 60.06 127.24 60.07 125.92 70.42 131.89"/>
          </g>
          <g>
            <g class="cls-2">
              <path class="cls-29" d="M138.66,35.7a13.9,13.9,0,0,0,12.59,0c3.45-2,3.44-5.28-.05-7.29a13.86,13.86,0,0,0-12.57,0C135.17,30.42,135.19,33.69,138.66,35.7Z"/>
            </g>
            <g class="cls-2">
              <path class="cls-30" d="M140.8,34.45a9.13,9.13,0,0,0,8.3,0c2.27-1.32,2.26-3.47,0-4.8a9.15,9.15,0,0,0-8.28,0C138.5,31,138.51,33.13,140.8,34.45Z"/>
            </g>
            <path class="cls-16" d="M140.79,34.45a9.11,9.11,0,0,0,8.29,0h0a9.17,9.17,0,0,0-8.29,0"/>
          </g>
          <g class="cls-2">
            <path class="cls-52" d="M105.64,97.74l-10.19,5.92a8.39,8.39,0,0,1-7.62,0,2.71,2.71,0,0,1-1.6-2.23l0,6.65a2.72,2.72,0,0,0,1.6,2.23,8.39,8.39,0,0,0,7.62,0l10.19-5.92a2.69,2.69,0,0,0,1.57-2.2l0-6.65A2.69,2.69,0,0,1,105.64,97.74Z"/>
            <path class="cls-53" d="M105.62,93.32c2.11,1.22,2.12,3.2,0,4.42l-10.19,5.92a8.39,8.39,0,0,1-7.62,0c-2.12-1.22-2.13-3.2,0-4.42L98,93.32A8.43,8.43,0,0,1,105.62,93.32Z"/>
          </g>
          <g>
            <polygon class="cls-5" points="101.95 108.09 101.94 112.05 108.14 115.63 114.31 112.05 114.33 108.09 108.12 104.5 101.95 108.09"/>
            <g class="cls-2">
              <polygon class="cls-5" points="114.33 108.09 108.16 111.67 101.95 108.09 108.12 104.5 114.33 108.09"/>
              <polygon class="cls-6" points="114.33 108.09 114.31 112.05 108.14 115.63 108.16 111.67 114.33 108.09"/>
              <polygon class="cls-7" points="108.16 111.67 108.14 115.63 101.94 112.05 101.95 108.09 108.16 111.67"/>
            </g>
          </g>
        </g>
        <g>
          <path class="cls-54" d="M137.25,43.59l17,9.83-13.9,8.08-3.61,2.09L124,71l-17-9.83,12.8-7.44,3.61-2.09Zm.1,15.56,9.87-5.73-9.94-5.74-9.87,5.74,9.94,5.73M124,66.93l9.86-5.73-9.93-5.73L114,61.2,124,66.93"/>
          <polygon class="cls-54" points="140.69 53.51 137.4 55.43 134.08 53.51 137.37 51.6 140.69 53.51"/>
          <polygon class="cls-54" points="127.42 61.22 124.13 63.13 120.82 61.22 124.11 59.31 127.42 61.22"/>
        </g>
      </g>
    </g>
  </g>
</svg>
