<?xml version="1.0" encoding="UTF-8"?>
<svg id="Health_Insurance" data-name="Health Insurance" xmlns="http://www.w3.org/2000/svg" viewBox="0 0 1201 601">
  <defs>
    <style>
      .cls-1 {
        fill: #3c4043;
      }

      .cls-1, .cls-2, .cls-3, .cls-4, .cls-5 {
        stroke-linecap: round;
      }

      .cls-1, .cls-2, .cls-3, .cls-4, .cls-5, .cls-6 {
        stroke-linejoin: round;
      }

      .cls-1, .cls-2, .cls-3, .cls-5, .cls-7, .cls-8 {
        stroke: #3c4043;
      }

      .cls-2, .cls-9, .cls-8 {
        fill: #fff;
      }

      .cls-3, .cls-10 {
        fill: #a06549;
      }

      .cls-4, .cls-5, .cls-6 {
        fill: none;
      }

      .cls-4, .cls-6 {
        stroke: #bdc1c6;
      }

      .cls-11 {
        fill: #f8f9fa;
      }

      .cls-12 {
        fill: #fbbc04;
      }

      .cls-13, .cls-7 {
        fill: #e8eaed;
      }

      .cls-14 {
        fill: #bdc1c6;
      }

      .cls-15 {
        fill: #d0e1fa;
      }

      .cls-16 {
        fill: #4285f4;
      }

      .cls-7, .cls-8 {
        stroke-miterlimit: 10;
      }
    </style>
  </defs>
  <path class="cls-1" d="m345.75,401.85l328.12,29.02v-28.58s-355.25-.44-328.12-.44Z"/>
  <g>
    <path class="cls-8" d="m670.65,473.45H168.68c-2.34,0-4.25-1.91-4.25-4.25V190.56c0-2.34,1.91-4.25,4.25-4.25h501.98c2.34,0,4.25,1.91,4.25,4.25v278.64c0,2.34-1.89,4.25-4.25,4.25Z"/>
    <path class="cls-7" d="m482.22,538.22h-127.26c15.46-11.25,25.89-28.14,28.99-47.01l2.91-17.76h63.45l2.91,17.76c3.11,18.87,13.53,35.76,28.99,47.01Z"/>
    <path class="cls-1" d="m452.63,487.59l-65.87-13.4.13-.74h63.43l2.3,14,.02.15Z"/>
    <path class="cls-4" d="m201,342h196.63"/>
    <path class="cls-4" d="m201,357.42h196.63"/>
    <path class="cls-4" d="m201,372.85h196.63"/>
    <path class="cls-6" d="m166.72,209.03h505.93"/>
    <path class="cls-4" d="m177.11,200.79c1.71,0,3.09-1.38,3.09-3.09s-1.38-3.09-3.09-3.09-3.09,1.38-3.09,3.09,1.38,3.09,3.09,3.09Z"/>
    <path class="cls-4" d="m192.28,200.79c1.71,0,3.09-1.38,3.09-3.09s-1.38-3.09-3.09-3.09-3.09,1.38-3.09,3.09,1.38,3.09,3.09,3.09Z"/>
    <path class="cls-4" d="m207.46,200.79c1.71,0,3.09-1.38,3.09-3.09s-1.38-3.09-3.09-3.09-3.09,1.38-3.09,3.09,1.38,3.09,3.09,3.09Z"/>
    <path class="cls-4" d="m201,388.27h196.63"/>
    <path class="cls-4" d="m201,403.69h196.63"/>
    <path class="cls-4" d="m201,419.11h133.67"/>
    <rect class="cls-13" x="201" y="241.19" width="145.2" height="76.1"/>
    <path class="cls-11" d="m246.47,293.65h54.27c.75,0,1.44-.43,1.77-1.11.33-.67.24-1.48-.23-2.07l-18.18-22.91c-.37-.47-.94-.74-1.54-.74s-1.17.27-1.54.74l-11.96,15.07-7.41-9.34-1.54,1.22h0s1.54-1.22,1.54-1.22c-.37-.47-.94-.74-1.54-.74s-1.16.27-1.53.74l-13.64,17.18c-.47.59-.56,1.39-.23,2.07.33.68,1.02,1.11,1.77,1.11Zm13.64-15.99l7.41,9.34c.37.47.94.74,1.53.74s1.17-.27,1.54-.74l-1.54-1.22h0s1.54,1.22,1.54,1.22l11.96-15.06,14.12,17.79h-46.15l9.58-12.06Z"/>
  </g>
  <path class="cls-1" d="m345.75,409.85l328.12,29.02v-28.58s-355.25-.44-328.12-.44Z"/>
  <g>
    <rect class="cls-2" x="344.16" y="229.88" width="539.89" height="179.96"/>
    <path class="cls-5" d="m369.87,352h334.22"/>
    <path class="cls-5" d="m369.87,377.71h305.3"/>
    <path class="cls-16" d="m369.87,300.58h334.22v25.71h-334.22v-25.71Z"/>
    <rect class="cls-16" x="369.87" y="263.7" width="334.89" height="12.85"/>
  </g>
  <path class="cls-2" d="m1036.58,101.26h-305.05v278.35h305.05V101.26Z"/>
  <path class="cls-1" d="m732.21,379.83l151.84,29.02v-28.58s-164.4-.44-151.84-.44Z"/>
  <g>
    <circle class="cls-12" cx="731.53" cy="101.26" r="38.48"/>
    <path class="cls-9" d="m728.47,120.48c-.84-.84-1.26-1.85-1.26-3.03s.42-2.19,1.26-3.03c.84-.84,1.87-1.26,3.09-1.26s2.24.41,3.06,1.23,1.23,1.84,1.23,3.06-.41,2.19-1.23,3.03c-.82.84-1.84,1.26-3.06,1.26s-2.25-.42-3.09-1.26Zm0-26.82v-12.86h6.17v12.86l-.63,15.04h-4.97l-.57-15.04Z"/>
  </g>
  <path class="cls-5" d="m164.42,538.22h872.16"/>
  <path class="cls-15" d="m1008.1,130.26h-248.09v220.37h248.09v-220.37Z"/>
  <path class="cls-10" d="m1008.1,262.78c-1.81-.06-3.59-.16-5.35-.29-8.44-.65-17.7-6.45-26.36-10.1-7.26-3.05-15.12-4.42-22.97-3.73h0c-.64.06-1.27-.02-1.86-.25-4.55-1.71-11.15-2.31-14.72-1.39-35.38,9.06-31.19,3.13-36.74,7.64-3.5,2.95,6.87,11.8,22.55,22.89,17.76,12.56,16.03,11.11,35.36,9.38,13.22-1.18,31.26-.99,50.1-.2v-23.96Z"/>
  <g>
    <g>
      <rect class="cls-14" x="827.46" y="243.27" width="25.57" height="51.44" transform="translate(-41.22 306.3) rotate(-20.18)"/>
      <path class="cls-9" d="m840.42,293.46l15.52-5.7c-.33-.89.13-1.88,1.02-2.21l-14.69-39.99c-.89.33-1.88-.13-2.21-1.02l-15.52,5.7c.33.89-.13,1.88-1.02,2.21l14.69,39.99c.89-.33,1.88.13,2.21,1.02Z"/>
      <rect class="cls-14" x="835.03" y="262.01" width="10.43" height="13.97" rx="5.12" ry="5.12" transform="translate(-41.22 306.3) rotate(-20.18)"/>
      <ellipse class="cls-14" cx="835.2" cy="255.47" rx="3.28" ry="3.17" transform="translate(-36.86 303.77) rotate(-20.18)"/>
      <path class="cls-14" d="m844.2,279.97c-1.7.62-2.59,2.46-1.99,4.1s2.47,2.47,4.17,1.84c1.7-.62,2.59-2.46,1.99-4.1-.6-1.64-2.47-2.47-4.17-1.84Z"/>
    </g>
    <g>
      <rect class="cls-14" x="812.64" y="253.05" width="25.57" height="51.44" transform="translate(95.65 754.65) rotate(-51.77)"/>
      <path class="cls-9" d="m838.39,299.51l10.23-12.99c-.75-.59-.88-1.67-.29-2.42l-33.47-26.36c-.59.75-1.67.88-2.42.29l-10.23,12.99c.75.59.88,1.67.29,2.42l33.47,26.36c.59-.75,1.67-.88,2.42-.29Z"/>
      <rect class="cls-14" x="820.21" y="271.79" width="10.43" height="13.97" rx="5.12" ry="5.12" transform="translate(95.65 754.65) rotate(-51.77)"/>
      <ellipse class="cls-14" cx="814.04" cy="269.9" rx="3.28" ry="3.17" transform="translate(98.3 742.36) rotate(-51.77)"/>
      <path class="cls-14" d="m834.54,286.05c-1.12,1.42-.92,3.45.46,4.54s3.4.81,4.52-.62c1.12-1.42.92-3.45-.46-4.54-1.37-1.08-3.4-.81-4.52.62Z"/>
    </g>
    <path class="cls-16" d="m792.69,326.91h66.22c5.61,0,10.16-4.55,10.16-10.16v-28.81c0-5.61-4.55-10.16-10.16-10.16h-66.22v49.13Z"/>
    <path class="cls-14" d="m787.59,294.47h16.73c4.42,0,8.01,3.59,8.01,8.01v.28c0,4.42-3.59,8.01-8.01,8.01h-16.73c-.92,0-1.67-.75-1.67-1.67v-12.96c0-.92.75-1.67,1.67-1.67Z" transform="translate(1598.25 605.24) rotate(180)"/>
    <circle class="cls-16" cx="805.04" cy="302.52" r="3.25" transform="translate(-47.97 193.05) rotate(-13.28)"/>
  </g>
  <g>
    <path class="cls-9" d="m958.56,175.04s-23.16,2.18-29.08-15.29h-41.22c-5.91,17.47-29.08,15.29-29.08,15.29-1.48,29.49.99,88.46,49.28,113.03h.81c48.3-24.57,50.76-83.54,49.28-113.03Z"/>
    <circle class="cls-16" cx="908.56" cy="220.6" r="25.65"/>
    <polygon class="cls-9" points="922.21 217.79 911.37 217.79 911.37 206.95 905.75 206.95 905.75 217.79 894.91 217.79 894.91 223.42 905.75 223.42 905.75 234.25 911.37 234.25 911.37 223.42 922.21 223.42 922.21 217.79"/>
    <path class="cls-5" d="m877.86,260.88c7.25,10.81,17.15,20.34,30.62,27.19h.81c48.3-24.57,50.76-83.54,49.28-113.03"/>
  </g>
  <g>
    <path class="cls-10" d="m969.17,284.08c12,0,21.72-5.99,21.72-15.78,0-9.79-9.73-17.73-21.72-17.73-12,0-21.72,7.94-21.72,17.73,0,9.79,9.73,15.78,21.72,15.78Z"/>
    <path class="cls-3" d="m988.31,258.15c-13.15-8.43-19.16-10.91-31.45-9.56-1.71.19-7.55.83-11.7-3.31-8.04-7.07-17.53-13.65-20.2-9.6-2.67,4.02,22.11,30.79,22.11,30.79"/>
  </g>
</svg>