<?xml version="1.0" encoding="UTF-8"?>
<svg id="Online_non-casino_games" data-name="Online non-casino games" xmlns="http://www.w3.org/2000/svg" xmlns:xlink="http://www.w3.org/1999/xlink" viewBox="0 0 1201 601">
  <defs>
    <style>
      .cls-1, .cls-2, .cls-3, .cls-4, .cls-5, .cls-6, .cls-7 {
        fill: none;
      }

      .cls-8 {
        fill: #3c4043;
      }

      .cls-8, .cls-9, .cls-10, .cls-11, .cls-2, .cls-3, .cls-4, .cls-5, .cls-6, .cls-12 {
        stroke-linejoin: round;
      }

      .cls-8, .cls-9, .cls-10, .cls-11, .cls-2, .cls-3, .cls-4, .cls-6 {
        stroke-linecap: round;
      }

      .cls-8, .cls-10, .cls-11, .cls-4, .cls-13, .cls-14 {
        stroke: #3c4043;
      }

      .cls-9 {
        fill: #4285f4;
        stroke: #4285f4;
      }

      .cls-10, .cls-15, .cls-14, .cls-16 {
        fill: #fff;
      }

      .cls-11, .cls-17 {
        fill: #fba089;
      }

      .cls-2, .cls-6, .cls-16, .cls-7 {
        stroke: #fff;
      }

      .cls-3, .cls-5 {
        stroke: #bdc1c6;
      }

      .cls-18 {
        clip-path: url(#clippath);
      }

      .cls-19 {
        fill: #f8f9fa;
      }

      .cls-20 {
        fill: #fbbc04;
      }

      .cls-21, .cls-13 {
        fill: #e8eaed;
      }

      .cls-22 {
        fill: #feefc3;
      }

      .cls-23 {
        fill: #fde293;
      }

      .cls-24 {
        fill: #80868b;
      }

      .cls-25 {
        fill: #d2e3fc;
      }

      .cls-6 {
        stroke-width: 4px;
      }

      .cls-26 {
        fill: #74797c;
        stroke: #3d4043;
      }

      .cls-26, .cls-13, .cls-14, .cls-16, .cls-7 {
        stroke-miterlimit: 10;
      }

      .cls-12 {
        fill: #ea4335;
        stroke: #ea4335;
      }
    </style>
    <clipPath id="clippath">
      <rect class="cls-1" x="837.64" y="130.26" width="144.21" height="139.87"/>
    </clipPath>
  </defs>
  <path class="cls-8" d="m345.75,401.85l328.12,29.02v-28.58s-355.25-.44-328.12-.44Z"/>
  <g>
    <path class="cls-14" d="m670.65,473.45H168.68c-2.34,0-4.25-1.91-4.25-4.25V190.56c0-2.34,1.91-4.25,4.25-4.25h501.98c2.34,0,4.25,1.91,4.25,4.25v278.64c0,2.34-1.89,4.25-4.25,4.25Z"/>
    <path class="cls-13" d="m482.22,538.22h-127.26c15.46-11.25,25.89-28.14,28.99-47.01l2.91-17.76h63.45l2.91,17.76c3.11,18.87,13.53,35.76,28.99,47.01Z"/>
    <path class="cls-8" d="m452.63,487.59l-65.87-13.4.13-.74h63.43l2.3,14,.02.15Z"/>
    <path class="cls-3" d="m201,342h196.63"/>
    <path class="cls-3" d="m201,357.42h196.63"/>
    <path class="cls-3" d="m201,372.85h196.63"/>
    <path class="cls-5" d="m166.72,209.03h505.93"/>
    <path class="cls-3" d="m177.11,200.79c1.71,0,3.09-1.38,3.09-3.09s-1.38-3.09-3.09-3.09-3.09,1.38-3.09,3.09,1.38,3.09,3.09,3.09Z"/>
    <path class="cls-3" d="m192.28,200.79c1.71,0,3.09-1.38,3.09-3.09s-1.38-3.09-3.09-3.09-3.09,1.38-3.09,3.09,1.38,3.09,3.09,3.09Z"/>
    <path class="cls-3" d="m207.46,200.79c1.71,0,3.09-1.38,3.09-3.09s-1.38-3.09-3.09-3.09-3.09,1.38-3.09,3.09,1.38,3.09,3.09,3.09Z"/>
    <path class="cls-3" d="m201,388.27h196.63"/>
    <path class="cls-3" d="m201,403.69h196.63"/>
    <path class="cls-3" d="m201,419.11h133.67"/>
    <rect class="cls-21" x="201" y="241.19" width="145.2" height="76.1"/>
    <path class="cls-19" d="m246.47,293.65h54.27c.75,0,1.44-.43,1.77-1.11.33-.67.24-1.48-.23-2.07l-18.18-22.91c-.37-.47-.94-.74-1.54-.74s-1.17.27-1.54.74l-11.96,15.07-7.41-9.34-1.54,1.22h0s1.54-1.22,1.54-1.22c-.37-.47-.94-.74-1.54-.74s-1.16.27-1.53.74l-13.64,17.18c-.47.59-.56,1.39-.23,2.07.33.68,1.02,1.11,1.77,1.11Zm13.64-15.99l7.41,9.34c.37.47.94.74,1.53.74s1.17-.27,1.54-.74l-1.54-1.22h0s1.54,1.22,1.54,1.22l11.96-15.06,14.12,17.79h-46.15l9.58-12.06Z"/>
  </g>
  <path class="cls-8" d="m345.75,409.85l328.12,29.02v-28.58s-355.25-.44-328.12-.44Z"/>
  <g>
    <rect class="cls-10" x="344.16" y="229.88" width="539.89" height="179.96"/>
    <path class="cls-4" d="m369.87,352h334.22"/>
    <path class="cls-4" d="m369.87,377.71h305.3"/>
    <path class="cls-9" d="m369.87,300.58h334.22v25.71h-334.22v-25.71Z"/>
    <rect class="cls-9" x="369.87" y="263.7" width="334.89" height="12.85"/>
  </g>
  <path class="cls-10" d="m1036.58,101.26h-305.05v278.35h305.05V101.26Z"/>
  <path class="cls-8" d="m732.21,379.83l151.84,29.02v-28.58s-164.4-.44-151.84-.44Z"/>
  <path class="cls-4" d="m164.42,538.22h872.16"/>
  <path class="cls-22" d="m1008.1,130.26h-248.09v220.37h248.09v-220.37Z"/>
  <g class="cls-18">
    <polygon class="cls-23" points="936.87 265.88 949.54 238.01 977.41 225.34 966.66 196.67 977.41 168.01 949.54 155.34 936.87 127.46 908.2 138.22 879.54 127.46 866.87 155.34 839 168.01 849.75 196.67 839 225.34 866.87 238.01 879.54 265.88 908.2 255.13 936.87 265.88"/>
  </g>
  <path class="cls-17" d="m1008.1,315.37c-15.22-25.14-33.05-55.67-41.21-75.84-6.91-17.09-4.94-16.25-23.25-25.82-16.16-8.45-28.13-13.37-29.11-9.14-1.41,6.65,1.79.54,9.45,34.36.78,3.42,4.14,8.73,7.55,11.84.45.41.79.91,1.02,1.47h0c2.82,6.93,7.38,12.98,13.1,17.79,6.83,5.74,15.74,11.05,19.95,17.9,9.89,16.11,17.44,37.62,23.75,54.44,1.21,3.22,3.05,6,5.32,8.26h13.42v-35.26Z"/>
  <g>
    <path class="cls-12" d="m731.53,139.74c21.25,0,38.48-17.23,38.48-38.48s-17.23-38.48-38.48-38.48-38.48,17.23-38.48,38.48,17.23,38.48,38.48,38.48Z"/>
    <g>
      <path class="cls-6" d="m718.32,114.61l26.56-26.7"/>
      <path class="cls-6" d="m744.74,114.61l-26.56-26.7"/>
    </g>
  </g>
  <g>
    <path class="cls-15" d="m966.05,305.29c-13.05,1.86-16.21-3.91-16.89-5.79l-.12-.39c-.03-.12-.04-.18-.04-.18h0s-15.89-50.02-15.89-50.02l-1.07.31c3.32-1.13,5.82-3.33,7.43-6.56,4.79-9.6,2.03-28.1-8.19-54.98-7.56-19.88-16.62-37.19-16.8-37.53-.16-.42-.85-.7-4.3-.14-3.13.51-7.61,1.58-12.31,2.95-.65.19-15.82,4.63-15.51,6.54h0c.09.69,9.38,69.13,32.78,86.52,4.52,3.36,9.34,4.65,14.32,3.84.53-.09,1.03-.2,1.53-.32l13.16,50.27-.05-.03s2.19,8.43-12.82,12.92c-9.84,2.94-5.85,5.04,6.13,3.61l-.07.1c29.71-3.86,44.25-13.34,28.74-11.13Z"/>
    <path class="cls-20" d="m932.1,200.46c-.13-.79-5.15,6.06-17.26,1.06-12.11-5-18.34-1.28-18.21-.48,0,0,11.14,48.89,33.79,43.31,17.45-8.8,1.68-43.89,1.68-43.89Z"/>
  </g>
  <g>
    <line class="cls-2" x1="917.23" y1="326.83" x2="958.34" y2="326.83"/>
    <path class="cls-20" d="m777.41,313.84c0,3.57,1.29,7.2,2.51,9.81,1.09,2.31,3.4,3.8,5.95,3.8h140.18c6.01,0,10.9-4.89,10.9-10.9v-8.16l-2.51-2.51-.07-7.24c0-.23-.03-.46-.07-.66-.3-1.85-1.85-3.3-3.77-3.47-3.34-.3-7.66-.69-7.66-.69,0,0-23.23-12.85-36.84-14.73s-30.33-1.22-41.79,2.87c-8.36,2.97-25.84,12.88-25.84,12.88,0,0-26.17,2.94-36.44,10.04-1.16.79-2.05,1.72-2.74,2.71-1.32,1.88-1.82,4.06-1.82,6.24Z"/>
    <path class="cls-25" d="m916.59,298.36s-20.13-12.03-31.94-13.66c-11.8-1.63-26.29-1.06-36.23,2.49-6.57,2.34-19.63,9.62-22.02,10.96-.09.05-.05.18.05.17,6.72-.3,90.14.04,90.14.04Z"/>
    <path class="cls-16" d="m934.4,305.91l-.07-7.24c0-.23-.03-.46-.07-.66,0,0-5.95.69-7,4.53-1.06,3.83,4.53,3.37,7.14,3.37Z"/>
    <path class="cls-16" d="m777.41,313.84h7.17c1.75,0,3.4-.89,4.39-2.35l1.35-2.05c.53-.79-.03-1.88-1.02-1.88h-10.11c-1.29,1.92-1.78,4.1-1.78,6.28Z"/>
    <g>
      <line class="cls-7" x1="871.31" y1="283.92" x2="871.31" y2="327.38"/>
      <line class="cls-7" x1="860.96" y1="304.88" x2="854.12" y2="304.88"/>
      <line class="cls-7" x1="893.57" y1="304.88" x2="886.7" y2="304.88"/>
    </g>
    <line class="cls-2" x1="809.92" y1="335.58" x2="974.9" y2="335.58"/>
    <circle class="cls-24" cx="809.92" cy="323.91" r="11.66"/>
    <circle class="cls-15" cx="809.92" cy="323.91" r="6.99"/>
    <circle class="cls-26" cx="901.5" cy="323.91" r="1.36"/>
    <circle class="cls-24" cx="901.22" cy="323.9" r="11.66" transform="translate(-49.71 437.25) rotate(-26.57)"/>
    <circle class="cls-15" cx="901.22" cy="323.9" r="6.99"/>
  </g>
  <g>
    <path class="cls-17" d="m968.99,250.97c5.2,10.14,4.35,20.95-3.93,25.19s-19.19-.54-24.39-10.68c-5.2-10.14-2.7-21.79,5.57-26.04,8.27-4.24,17.55,1.38,22.75,11.52Z"/>
    <path class="cls-11" d="m944.81,239.18s-33.36-9.34-35.6-5.35c-2.27,4.01,7.4,9.18,16.86,12.91,5.3,1.71,7.28,6.93,7.86,8.45,4.19,10.97,8.88,14.97,21.7,22.44"/>
  </g>
</svg>