<?xml version="1.0" encoding="UTF-8"?>
<svg id="Offline_gambling" data-name="Offline gambling" xmlns="http://www.w3.org/2000/svg" viewBox="0 0 1201 601">
  <defs>
    <style>
      .cls-1 {
        fill: #3c4043;
      }

      .cls-1, .cls-2, .cls-3, .cls-4 {
        stroke-linecap: round;
      }

      .cls-1, .cls-2, .cls-3, .cls-4, .cls-5 {
        stroke-linejoin: round;
      }

      .cls-1, .cls-2, .cls-4, .cls-6, .cls-7 {
        stroke: #3c4043;
      }

      .cls-2, .cls-8, .cls-7 {
        fill: #fff;
      }

      .cls-3, .cls-4, .cls-5, .cls-9 {
        fill: none;
      }

      .cls-3, .cls-5 {
        stroke: #bdc1c6;
      }

      .cls-10 {
        fill: #fad2cf;
      }

      .cls-11 {
        fill: #f8f9fa;
      }

      .cls-12 {
        fill: #fbbc04;
      }

      .cls-13 {
        fill: #ea4335;
      }

      .cls-14, .cls-6 {
        fill: #e8eaed;
      }

      .cls-15 {
        fill: #4285f4;
      }

      .cls-6, .cls-7, .cls-9 {
        stroke-miterlimit: 10;
      }

      .cls-9 {
        stroke: #fff;
      }
    </style>
  </defs>
  <path class="cls-4" d="m164.42,538.22h872.16"/>
  <path class="cls-1" d="m345.75,401.85l328.12,29.02v-28.58s-355.25-.44-328.12-.44Z"/>
  <g>
    <path class="cls-7" d="m670.65,473.45H168.68c-2.34,0-4.25-1.91-4.25-4.25V190.56c0-2.34,1.91-4.25,4.25-4.25h501.98c2.34,0,4.25,1.91,4.25,4.25v278.64c0,2.34-1.89,4.25-4.25,4.25Z"/>
    <path class="cls-6" d="m482.22,538.22h-127.26c15.46-11.25,25.89-28.14,28.99-47.01l2.91-17.76h63.45l2.91,17.76c3.11,18.87,13.53,35.76,28.99,47.01Z"/>
    <path class="cls-1" d="m452.63,487.59l-65.87-13.4.13-.74h63.43l2.3,14,.02.15Z"/>
    <path class="cls-3" d="m201,342h196.63"/>
    <path class="cls-3" d="m201,357.42h196.63"/>
    <path class="cls-3" d="m201,372.85h196.63"/>
    <path class="cls-5" d="m166.72,209.03h505.93"/>
    <path class="cls-3" d="m177.11,200.79c1.71,0,3.09-1.38,3.09-3.09s-1.38-3.09-3.09-3.09-3.09,1.38-3.09,3.09,1.38,3.09,3.09,3.09Z"/>
    <path class="cls-3" d="m192.28,200.79c1.71,0,3.09-1.38,3.09-3.09s-1.38-3.09-3.09-3.09-3.09,1.38-3.09,3.09,1.38,3.09,3.09,3.09Z"/>
    <path class="cls-3" d="m207.46,200.79c1.71,0,3.09-1.38,3.09-3.09s-1.38-3.09-3.09-3.09-3.09,1.38-3.09,3.09,1.38,3.09,3.09,3.09Z"/>
    <path class="cls-3" d="m201,388.27h196.63"/>
    <path class="cls-3" d="m201,403.69h196.63"/>
    <path class="cls-3" d="m201,419.11h133.67"/>
    <rect class="cls-14" x="201" y="241.19" width="145.2" height="76.1"/>
    <path class="cls-11" d="m246.47,293.65h54.27c.75,0,1.44-.43,1.77-1.11.33-.67.24-1.48-.23-2.07l-18.18-22.91c-.37-.47-.94-.74-1.54-.74s-1.17.27-1.54.74l-11.96,15.07-7.41-9.34-1.54,1.22h0s1.54-1.22,1.54-1.22c-.37-.47-.94-.74-1.54-.74s-1.16.27-1.53.74l-13.64,17.18c-.47.59-.56,1.39-.23,2.07.33.68,1.02,1.11,1.77,1.11Zm13.64-15.99l7.41,9.34c.37.47.94.74,1.53.74s1.17-.27,1.54-.74l-1.54-1.22h0s1.54,1.22,1.54,1.22l11.96-15.06,14.12,17.79h-46.15l9.58-12.06Z"/>
  </g>
  <path class="cls-1" d="m345.75,409.85l328.12,29.02v-28.58s-355.25-.44-328.12-.44Z"/>
  <g>
    <rect class="cls-2" x="344.16" y="229.88" width="539.89" height="179.96"/>
    <path class="cls-4" d="m369.87,352h334.22"/>
    <path class="cls-4" d="m369.87,377.71h305.3"/>
    <path class="cls-15" d="m369.87,300.58h334.22v25.71h-334.22v-25.71Z"/>
    <rect class="cls-15" x="369.87" y="263.7" width="334.89" height="12.85"/>
  </g>
  <path class="cls-2" d="m1036.58,101.26h-305.05v278.35h305.05V101.26Z"/>
  <path class="cls-10" d="m1008.1,130.26h-248.09v220.37h248.09v-220.37Z"/>
  <path class="cls-1" d="m732.21,379.83l151.84,29.02v-28.58s-164.4-.44-151.84-.44Z"/>
  <g>
    <circle class="cls-8" cx="882.71" cy="182.36" r="28.05"/>
    <path class="cls-8" d="m969.17,321.4v-86.03c0-6.66-5.45-12.1-12.1-12.1h-148.7c-6.66,0-12.1,5.45-12.1,12.1v86.03h172.91Z"/>
    <path class="cls-13" d="m953.33,321.4v-111.02c0-6.66-5.19-12.1-11.52-12.1h-118.18c-6.34,0-11.52,5.45-11.52,12.1v111.02h141.23Z"/>
    <g>
      <path class="cls-8" d="m839.13,327.07v-73.61c0-9.19,7.48-16.67,16.67-16.67h53.83c9.19,0,16.67,7.48,16.67,16.67v73.61h-87.17Z"/>
      <path class="cls-12" d="m909.63,239.29c7.81,0,14.17,6.36,14.17,14.17v71.11h-82.17v-71.11c0-7.81,6.36-14.17,14.17-14.17h53.83m0-5h-53.83c-10.54,0-19.17,8.63-19.17,19.17v76.11h92.17v-76.11c0-10.54-8.63-19.17-19.17-19.17h0Z"/>
    </g>
    <circle class="cls-13" cx="882.71" cy="182.14" r="15.55"/>
    <g>
      <path class="cls-8" d="m846.35,209.2c-8.15,0-14.78-6.63-14.78-14.78s6.63-14.78,14.78-14.78h72.73c8.15,0,14.78,6.63,14.78,14.78s-6.63,14.78-14.78,14.78h-72.73Z"/>
      <path class="cls-12" d="m919.08,182.14c6.77,0,12.28,5.51,12.28,12.28s-5.51,12.28-12.28,12.28h-72.73c-6.77,0-12.28-5.51-12.28-12.28s5.51-12.28,12.28-12.28h72.73m0-5h-72.73c-9.5,0-17.28,7.78-17.28,17.28h0c0,9.5,7.78,17.28,17.28,17.28h72.73c9.5,0,17.28-7.78,17.28-17.28h0c0-9.5-7.78-17.28-17.28-17.28h0Z"/>
    </g>
    <rect class="cls-13" x="856.99" y="255" width="51.44" height="74.57"/>
    <line class="cls-9" x1="882.71" y1="255" x2="882.71" y2="329.57"/>
    <g>
      <polygon class="cls-12" points="882.71 185.96 885.22 191.05 890.84 191.87 886.78 195.83 887.74 201.42 882.71 198.78 877.69 201.42 878.65 195.83 874.59 191.87 880.2 191.05 882.71 185.96"/>
      <polygon class="cls-12" points="858.01 185.96 860.52 191.05 866.14 191.87 862.08 195.83 863.03 201.42 858.01 198.78 852.99 201.42 853.95 195.83 849.88 191.87 855.5 191.05 858.01 185.96"/>
      <polygon class="cls-12" points="907.41 185.96 909.93 191.05 915.54 191.87 911.48 195.83 912.44 201.42 907.41 198.78 902.39 201.42 903.35 195.83 899.29 191.87 904.9 191.05 907.41 185.96"/>
    </g>
    <g>
      <circle class="cls-8" cx="877" cy="303.07" r="2.31"/>
      <circle class="cls-8" cx="888.43" cy="303.07" r="2.31"/>
    </g>
  </g>
  <g>
    <circle class="cls-12" cx="731.53" cy="101.26" r="38.48"/>
    <path class="cls-8" d="m728.47,120.48c-.84-.84-1.26-1.85-1.26-3.03s.42-2.19,1.26-3.03c.84-.84,1.87-1.26,3.09-1.26s2.24.41,3.06,1.23,1.23,1.84,1.23,3.06-.41,2.19-1.23,3.03c-.82.84-1.84,1.26-3.06,1.26s-2.25-.42-3.09-1.26Zm0-26.82v-12.86h6.17v12.86l-.63,15.04h-4.97l-.57-15.04Z"/>
  </g>
</svg>