<?xml version="1.0" encoding="UTF-8"?>
<svg id="Online_gambling" data-name="Online gambling" xmlns="http://www.w3.org/2000/svg" xmlns:xlink="http://www.w3.org/1999/xlink" viewBox="0 0 1201 601">
  <defs>
    <style>
      .cls-1 {
        fill: #3c4043;
      }

      .cls-1, .cls-2, .cls-3, .cls-4 {
        stroke-linecap: round;
      }

      .cls-1, .cls-2, .cls-3, .cls-4, .cls-5 {
        stroke-linejoin: round;
      }

      .cls-1, .cls-2, .cls-4, .cls-6, .cls-7 {
        stroke: #3c4043;
      }

      .cls-2, .cls-8, .cls-7, .cls-9 {
        fill: #fff;
      }

      .cls-3, .cls-4, .cls-5 {
        fill: none;
      }

      .cls-3, .cls-5 {
        stroke: #bdc1c6;
      }

      .cls-10 {
        fill: #f8f9fa;
      }

      .cls-11, .cls-12 {
        fill: #fbbc04;
      }

      .cls-13, .cls-6 {
        fill: #e8eaed;
      }

      .cls-14 {
        fill: #ceead6;
      }

      .cls-15 {
        fill: #4285f4;
      }

      .cls-16, .cls-17 {
        fill: #34a853;
      }

      .cls-6, .cls-7 {
        stroke-miterlimit: 10;
      }

      .cls-17, .cls-9, .cls-12, .cls-18 {
        fill-rule: evenodd;
      }

      .cls-18 {
        fill: url(#_Безымянный_градиент_389);
      }
    </style>
    <linearGradient id="_Безымянный_градиент_389" data-name="Безымянный градиент 389" x1="912.82" y1="267.11" x2="912.97" y2="266.79" gradientUnits="userSpaceOnUse">
      <stop offset="0" stop-color="#13001d"/>
      <stop offset="1" stop-color="#2f042f"/>
    </linearGradient>
  </defs>
  <path class="cls-1" d="m345.75,401.85l328.12,29.02v-28.58s-355.25-.44-328.12-.44Z"/>
  <g>
    <path class="cls-7" d="m670.65,473.45H168.68c-2.34,0-4.25-1.91-4.25-4.25V190.56c0-2.34,1.91-4.25,4.25-4.25h501.98c2.34,0,4.25,1.91,4.25,4.25v278.64c0,2.34-1.89,4.25-4.25,4.25Z"/>
    <path class="cls-6" d="m482.22,538.22h-127.26c15.46-11.25,25.89-28.14,28.99-47.01l2.91-17.76h63.45l2.91,17.76c3.11,18.87,13.53,35.76,28.99,47.01Z"/>
    <path class="cls-1" d="m452.63,487.59l-65.87-13.4.13-.74h63.43l2.3,14,.02.15Z"/>
    <path class="cls-3" d="m201,342h196.63"/>
    <path class="cls-3" d="m201,357.42h196.63"/>
    <path class="cls-3" d="m201,372.85h196.63"/>
    <path class="cls-5" d="m166.72,209.03h505.93"/>
    <path class="cls-3" d="m177.11,200.79c1.71,0,3.09-1.38,3.09-3.09s-1.38-3.09-3.09-3.09-3.09,1.38-3.09,3.09,1.38,3.09,3.09,3.09Z"/>
    <path class="cls-3" d="m192.28,200.79c1.71,0,3.09-1.38,3.09-3.09s-1.38-3.09-3.09-3.09-3.09,1.38-3.09,3.09,1.38,3.09,3.09,3.09Z"/>
    <path class="cls-3" d="m207.46,200.79c1.71,0,3.09-1.38,3.09-3.09s-1.38-3.09-3.09-3.09-3.09,1.38-3.09,3.09,1.38,3.09,3.09,3.09Z"/>
    <path class="cls-3" d="m201,388.27h196.63"/>
    <path class="cls-3" d="m201,403.69h196.63"/>
    <path class="cls-3" d="m201,419.11h133.67"/>
    <rect class="cls-13" x="201" y="241.19" width="145.2" height="76.1"/>
    <path class="cls-10" d="m246.47,293.65h54.27c.75,0,1.44-.43,1.77-1.11.33-.67.24-1.48-.23-2.07l-18.18-22.91c-.37-.47-.94-.74-1.54-.74s-1.17.27-1.54.74l-11.96,15.07-7.41-9.34-1.54,1.22h0s1.54-1.22,1.54-1.22c-.37-.47-.94-.74-1.54-.74s-1.16.27-1.53.74l-13.64,17.18c-.47.59-.56,1.39-.23,2.07.33.68,1.02,1.11,1.77,1.11Zm13.64-15.99l7.41,9.34c.37.47.94.74,1.53.74s1.17-.27,1.54-.74l-1.54-1.22h0s1.54,1.22,1.54,1.22l11.96-15.06,14.12,17.79h-46.15l9.58-12.06Z"/>
  </g>
  <path class="cls-1" d="m345.75,409.85l328.12,29.02v-28.58s-355.25-.44-328.12-.44Z"/>
  <g>
    <rect class="cls-2" x="344.16" y="229.88" width="539.89" height="179.96"/>
    <path class="cls-4" d="m369.87,352h334.22"/>
    <path class="cls-4" d="m369.87,377.71h305.3"/>
    <path class="cls-15" d="m369.87,300.58h334.22v25.71h-334.22v-25.71Z"/>
    <rect class="cls-15" x="369.87" y="263.7" width="334.89" height="12.85"/>
  </g>
  <path class="cls-2" d="m1036.58,101.26h-305.05v278.35h305.05V101.26Z"/>
  <path class="cls-14" d="m1008.1,130.26h-248.09v220.37h248.09v-220.37Z"/>
  <path class="cls-1" d="m732.21,379.83l151.84,29.02v-28.58s-164.4-.44-151.84-.44Z"/>
  <g>
    <circle class="cls-11" cx="731.53" cy="101.26" r="38.48"/>
    <path class="cls-8" d="m728.47,120.48c-.84-.84-1.26-1.85-1.26-3.03s.42-2.19,1.26-3.03c.84-.84,1.87-1.26,3.09-1.26s2.24.41,3.06,1.23,1.23,1.84,1.23,3.06-.41,2.19-1.23,3.03c-.82.84-1.84,1.26-3.06,1.26s-2.25-.42-3.09-1.26Zm0-26.82v-12.86h6.17v12.86l-.63,15.04h-4.97l-.57-15.04Z"/>
  </g>
  <g>
    <g>
      <circle class="cls-8" cx="858.24" cy="215.58" r="61.58"/>
      <path class="cls-17" d="m857.9,217.58l-.09-.02.08-.08-.1.03.02-.08-.07.06-.02-.1-.02.1-.07-.06.02.08-.1-.03.08.08-.08.02.08.02-.07.08.09-.02h.03s.02-.02.02-.02h.05s.03.01.03.01l.1.03-.08-.08.09-.02Zm0,0l-.09-.02.08-.08-.1.03.02-.08-.07.06-.02-.1-.02.1-.07-.06.02.08-.1-.03.08.08-.08.02.08.02-.07.08.09-.02h.03s.02-.02.02-.02h.05s.03.01.03.01l.1.03-.08-.08.09-.02Zm0,0l-.09-.02.08-.08-.1.03.02-.08-.07.06-.02-.1-.02.1-.07-.06.02.08-.1-.03.08.08-.08.02.08.02-.07.08.09-.02h.03s.02-.02.02-.02h.05s.03.01.03.01l.1.03-.08-.08.09-.02Zm0,0l-.09-.02.08-.08-.1.03.02-.08-.07.06-.02-.1-.02.1-.07-.06.02.08-.1-.03.08.08-.08.02.08.02-.07.08.09-.02h.03s.02-.02.02-.02h.05s.03.01.03.01l.1.03-.08-.08.09-.02Zm0,0l-.09-.02.08-.08-.1.03.02-.08-.07.06-.02-.1-.02.1-.07-.06.02.08-.1-.03.08.08-.08.02.08.02-.07.08.09-.02h.03s.02-.02.02-.02h.05s.03.01.03.01l.1.03-.08-.08.09-.02Zm0,0l-.09-.02.08-.08-.1.03.02-.08-.07.06-.02-.1-.02.1-.07-.06.02.08-.1-.03.08.08-.08.02.08.02-.07.08.09-.02h.03s.02-.02.02-.02h.05s.03.01.03.01l.1.03-.08-.08.09-.02Zm59.69-18.45c-2.84-10.29-8.29-19.5-15.6-26.87-7.74-7.82-17.57-13.58-28.58-16.36-4.85-1.23-9.93-1.88-15.17-1.88-5.59,0-10.99.74-16.14,2.14-11.28,3.05-21.28,9.23-28.99,17.56-6.95,7.48-12.06,16.69-14.6,26.91-1.21,4.78-1.84,9.8-1.84,14.95,0,6.93,1.15,13.6,3.26,19.82,3.25,9.6,8.81,18.13,16.02,24.94,7.49,7.1,16.77,12.32,27.1,14.93,4.86,1.24,9.94,1.9,15.19,1.9,4.9,0,9.66-.58,14.22-1.66,10.87-2.56,20.63-8.01,28.42-15.49,7.27-6.96,12.82-15.7,15.98-25.5,1.93-5.96,2.97-12.32,2.97-18.92,0-5.7-.78-11.22-2.23-16.45Zm-27.95,49.85c-5.8,5.45-13.02,9.41-21.05,11.26-3.33.77-6.79,1.17-10.35,1.17-3.9,0-7.7-.49-11.32-1.41-7.58-1.93-14.41-5.74-19.95-10.91-5.36-5-9.51-11.27-12-18.34-1.66-4.75-2.56-9.85-2.56-15.17,0-3.66.43-7.21,1.24-10.61,1.81-7.67,5.55-14.59,10.69-20.23,5.73-6.3,13.19-10.99,21.63-13.33,3.9-1.08,8.02-1.66,12.27-1.66,3.89,0,7.68.49,11.3,1.41,8.27,2.09,15.65,6.43,21.44,12.35,5.45,5.56,9.5,12.5,11.56,20.27,1,3.76,1.53,7.72,1.53,11.8,0,5.1-.84,10-2.36,14.58-2.44,7.25-6.62,13.69-12.07,18.81Zm-31.82-31.42l.08-.08-.1.03.02-.08-.07.06-.02-.1-.02.1-.07-.06.02.08-.1-.03.08.08-.08.02.08.02-.07.08.09-.02h.03s.02-.02.02-.02h.05s.03.01.03.01l.1.03-.08-.08.09-.02-.09-.02Zm.09.02l-.09-.02.08-.08-.1.03.02-.08-.07.06-.02-.1-.02.1-.07-.06.02.08-.1-.03.08.08-.08.02.08.02-.07.08.09-.02h.03s.02-.02.02-.02h.05s.03.01.03.01l.1.03-.08-.08.09-.02Zm0,0l-.09-.02.08-.08-.1.03.02-.08-.07.06-.02-.1-.02.1-.07-.06.02.08-.1-.03.08.08-.08.02.08.02-.07.08.09-.02h.03s.02-.02.02-.02h.05s.03.01.03.01l.1.03-.08-.08.09-.02Zm0,0l-.09-.02.08-.08-.1.03.02-.08-.07.06-.02-.1-.02.1-.07-.06.02.08-.1-.03.08.08-.08.02.08.02-.07.08.09-.02h.03s.02-.02.02-.02h.05s.03.01.03.01l.1.03-.08-.08.09-.02Zm0,0l-.09-.02.08-.08-.1.03.02-.08-.07.06-.02-.1-.02.1-.07-.06.02.08-.1-.03.08.08-.08.02.08.02-.07.08.09-.02h.03s.02-.02.02-.02h.05s.03.01.03.01l.1.03-.08-.08.09-.02Z"/>
      <path class="cls-9" d="m841.28,156.37v7.06s6.04,2.08,16.96,2.08,16.96-2.08,16.96-2.08v-7.05c-11.16-3.15-22.75-3.17-33.92,0Z"/>
      <path class="cls-9" d="m875.2,274.8v-7.06s-6.04-2.08-16.96-2.08-16.96,2.08-16.96,2.08v7.05c11.16,3.15,22.75,3.17,33.92,0Z"/>
      <path class="cls-9" d="m900.1,170.39l-6.04,3.66s1.35,6.25,7.01,15.58c5.86,9.68,10.57,13.42,10.57,13.42l6.03-3.65c-3.09-11.18-9.08-21.11-17.57-29.01Z"/>
      <path class="cls-9" d="m816.39,260.77l6.04-3.66s-1.35-6.25-7.01-15.58c-5.86-9.68-10.57-13.42-10.57-13.42l-6.03,3.65c3.09,11.18,9.08,21.11,17.57,29.01Z"/>
      <path class="cls-9" d="m917.9,230.9l-6.09-3.57s-4.85,4.16-10.37,13.58c-5.72,9.76-6.78,15.68-6.78,15.68l6.08,3.56c8.37-8.03,14.25-18.02,17.16-29.25Z"/>
      <path class="cls-9" d="m798.58,200.26l6.09,3.57s4.85-4.16,10.37-13.57c5.72-9.76,6.78-15.68,6.78-15.68l-6.08-3.56c-8.37,8.03-14.25,18.02-17.16,29.25Z"/>
      <g>
        <circle class="cls-11" cx="831.26" cy="169.29" r="1.49"/>
        <circle class="cls-11" cx="883.89" cy="260.8" r="1.49"/>
        <path class="cls-12" d="m914.69,215.2c0,.84-.68,1.52-1.52,1.52s-1.52-.68-1.52-1.52.68-1.52,1.52-1.52,1.52.68,1.52,1.52Z"/>
        <path class="cls-12" d="m805.27,216.04c0,.82-.67,1.49-1.49,1.49s-1.49-.67-1.49-1.49.67-1.49,1.49-1.49,1.49.67,1.49,1.49Z"/>
        <circle class="cls-11" cx="831.26" cy="260.8" r="1.49"/>
        <circle class="cls-11" cx="885.38" cy="167.6" r="1.52"/>
      </g>
      <path class="cls-16" d="m858.24,246.39l9.63-21.18,21.18-9.63-21.18-9.63-9.63-21.18-9.63,21.18-21.18,9.63,21.18,9.63,9.63,21.18Z"/>
    </g>
    <g>
      <g>
        <circle class="cls-8" cx="912.9" cy="266.95" r="54.08"/>
        <path class="cls-11" d="m912.9,220.37c25.68,0,46.58,20.89,46.58,46.58s-20.89,46.58-46.58,46.58-46.58-20.89-46.58-46.58,20.89-46.58,46.58-46.58m0-15c-34.01,0-61.58,27.57-61.58,61.58s27.57,61.58,61.58,61.58,61.58-27.57,61.58-61.58-27.57-61.58-61.58-61.58h0Z"/>
      </g>
      <polygon class="cls-18" points="913.06 267.05 912.96 267.02 912.98 267.09 912.92 267.04 912.89 267.14 912.87 267.05 912.8 267.11 912.83 267.03 912.74 267.05 912.8 266.97 912.72 266.95 912.8 266.93 912.72 266.85 912.83 266.88 912.8 266.8 912.87 266.86 912.89 266.76 912.92 266.86 912.98 266.8 912.96 266.88 913.06 266.85 912.98 266.93 913.07 266.95 912.98 266.97 913.06 267.05"/>
      <path class="cls-8" d="m916.77,328.38l-.25-3.99c5.17-.32,10.25-1.33,15.11-3l1.3,3.78c-5.2,1.79-10.64,2.87-16.17,3.21Zm-21.45-2.42c-5.28-1.57-10.34-3.85-15.03-6.77l2.12-3.39c4.39,2.74,9.11,4.87,14.05,6.33l-1.14,3.83Zm56.47-11.28l-2.53-3.1c4-3.26,7.56-7.04,10.56-11.24l3.25,2.33c-3.21,4.49-7,8.53-11.28,12.01Zm-87.54-9.94c-3.4-4.36-6.2-9.15-8.31-14.23l3.69-1.54c1.98,4.75,4.59,9.23,7.77,13.31l-3.15,2.46Zm108.11-21.56l-3.86-1.06c1.36-4.95,2.04-10.09,2.04-15.28,0-1.61-.07-3.24-.2-4.83l3.99-.33c.14,1.71.21,3.44.21,5.16,0,5.54-.74,11.04-2.19,16.33Zm-121.08-13.75c-.04-.86-.05-1.72-.05-2.59,0-4.67.52-9.32,1.56-13.82l3.9.89c-.97,4.22-1.45,8.57-1.45,12.93,0,.81.02,1.62.05,2.42l-4,.16Zm113.89-26.93c-2.18-4.67-4.98-9.03-8.32-12.97l3.05-2.59c3.58,4.21,6.57,8.88,8.9,13.87l-3.62,1.69Zm-100.58-7.16l-3.35-2.19c3.02-4.61,6.64-8.81,10.77-12.47l2.65,2.99c-3.87,3.43-7.26,7.35-10.08,11.67Zm76.71-18.68c-4.49-2.55-9.31-4.48-14.31-5.74l.97-3.88c5.35,1.34,10.5,3.41,15.3,6.14l-1.97,3.48Zm-49.42-3.52l-1.46-3.72c5.13-2.01,10.52-3.32,16.02-3.89l.41,3.98c-5.14.53-10.18,1.76-14.97,3.63Z"/>
      <path class="cls-11" d="m927.48,290.76c-2.86,2.65-6.43,4.29-10.69,4.94v7.05h-5.67v-6.97c-3.78-.43-7.3-1.93-10.57-4.5-3.27-2.56-5.44-5.98-6.52-10.25l6.16-2.43c.76,2.7,2.12,5.02,4.09,6.97,1.97,1.94,4.25,3.16,6.85,3.64v-20.25l-.32-.16c-4.81-1.94-8.45-4.2-10.94-6.76-2.48-2.56-3.73-5.71-3.73-9.44,0-2.38.61-4.63,1.82-6.76,1.22-2.13,2.96-3.9,5.22-5.31,2.27-1.4,4.91-2.24,7.94-2.51v-6.89h5.67v7.05c3.78.6,6.82,1.96,9.11,4.09,2.29,2.13,3.85,4.42,4.66,6.85l-6.16,2.59c-.43-1.51-1.28-2.9-2.55-4.17-1.27-1.27-2.96-2.15-5.06-2.63v19.04c4.75,2,8.44,4.2,11.06,6.6,2.62,2.4,3.93,5.58,3.93,9.52,0,4.48-1.43,8.05-4.29,10.69Zm-22.48-33.05c1.32,1.41,3.36,2.73,6.12,3.97v-17.01c-2.43.38-4.39,1.28-5.87,2.71-1.49,1.43-2.23,3.17-2.23,5.22s.66,3.7,1.98,5.1Zm17.7,28.35c1.46-1.51,2.19-3.46,2.19-5.83,0-2.05-.68-3.75-2.03-5.1-1.35-1.35-3.38-2.65-6.08-3.89v17.82c2.48-.49,4.46-1.49,5.91-3Z"/>
    </g>
    <polygon class="cls-8" points="813.23 321.31 818.41 309.92 829.8 304.74 818.41 299.56 813.23 288.17 808.05 299.56 796.66 304.74 808.05 309.92 813.23 321.31"/>
    <path class="cls-8" d="m957.99,191.74l5.18-11.39,11.39-5.18-11.39-5.18-5.18-11.39-5.18,11.39-11.39,5.18,11.39,5.18,5.18,11.39Z"/>
  </g>
  <path class="cls-4" d="m164.42,538.22h872.16"/>
</svg>