<?xml version="1.0" encoding="UTF-8"?>
<svg id="Prescription_Drug_Sale" data-name="Prescription Drug Sale" xmlns="http://www.w3.org/2000/svg" viewBox="0 0 1201 601">
  <defs>
    <style>
      .cls-1 {
        fill: #3c4043;
      }

      .cls-1, .cls-2, .cls-3, .cls-4, .cls-5 {
        stroke-linejoin: round;
      }

      .cls-1, .cls-2, .cls-3, .cls-4, .cls-6 {
        stroke-linecap: round;
      }

      .cls-1, .cls-2, .cls-4, .cls-7, .cls-8 {
        stroke: #3c4043;
      }

      .cls-2, .cls-9, .cls-8 {
        fill: #fff;
      }

      .cls-3, .cls-4, .cls-5, .cls-6 {
        fill: none;
      }

      .cls-3, .cls-5 {
        stroke: #bdc1c6;
      }

      .cls-10, .cls-11 {
        fill: #f8f9fa;
      }

      .cls-12 {
        fill: #fbbc04;
      }

      .cls-13 {
        fill: #e8f0fe;
      }

      .cls-14, .cls-7 {
        fill: #e8eaed;
      }

      .cls-15 {
        fill: #ceead6;
      }

      .cls-16 {
        fill: #bdc1c6;
      }

      .cls-17 {
        fill: #4285f4;
      }

      .cls-18 {
        fill: #34a853;
      }

      .cls-7, .cls-8, .cls-6 {
        stroke-miterlimit: 10;
      }

      .cls-6 {
        stroke: #fff;
        stroke-width: 2px;
      }

      .cls-11 {
        fill-rule: evenodd;
      }
    </style>
  </defs>
  <path class="cls-1" d="m345.75,401.85l328.12,29.02v-28.58s-355.25-.44-328.12-.44Z"/>
  <g>
    <path class="cls-8" d="m670.65,473.45H168.68c-2.34,0-4.25-1.91-4.25-4.25V190.56c0-2.34,1.91-4.25,4.25-4.25h501.98c2.34,0,4.25,1.91,4.25,4.25v278.64c0,2.34-1.89,4.25-4.25,4.25Z"/>
    <path class="cls-7" d="m482.22,538.22h-127.26c15.46-11.25,25.89-28.14,28.99-47.01l2.91-17.76h63.45l2.91,17.76c3.11,18.87,13.53,35.76,28.99,47.01Z"/>
    <path class="cls-1" d="m452.63,487.59l-65.87-13.4.13-.74h63.43l2.3,14,.02.15Z"/>
    <path class="cls-3" d="m201,342h196.63"/>
    <path class="cls-3" d="m201,357.42h196.63"/>
    <path class="cls-3" d="m201,372.85h196.63"/>
    <path class="cls-5" d="m166.72,209.03h505.93"/>
    <path class="cls-3" d="m177.11,200.79c1.71,0,3.09-1.38,3.09-3.09s-1.38-3.09-3.09-3.09-3.09,1.38-3.09,3.09,1.38,3.09,3.09,3.09Z"/>
    <path class="cls-3" d="m192.28,200.79c1.71,0,3.09-1.38,3.09-3.09s-1.38-3.09-3.09-3.09-3.09,1.38-3.09,3.09,1.38,3.09,3.09,3.09Z"/>
    <path class="cls-3" d="m207.46,200.79c1.71,0,3.09-1.38,3.09-3.09s-1.38-3.09-3.09-3.09-3.09,1.38-3.09,3.09,1.38,3.09,3.09,3.09Z"/>
    <path class="cls-3" d="m201,388.27h196.63"/>
    <path class="cls-3" d="m201,403.69h196.63"/>
    <path class="cls-3" d="m201,419.11h133.67"/>
    <rect class="cls-14" x="201" y="241.19" width="145.2" height="76.1"/>
    <path class="cls-10" d="m246.47,293.65h54.27c.75,0,1.44-.43,1.77-1.11.33-.67.24-1.48-.23-2.07l-18.18-22.91c-.37-.47-.94-.74-1.54-.74s-1.17.27-1.54.74l-11.96,15.07-7.41-9.34-1.54,1.22h0s1.54-1.22,1.54-1.22c-.37-.47-.94-.74-1.54-.74s-1.16.27-1.53.74l-13.64,17.18c-.47.59-.56,1.39-.23,2.07.33.68,1.02,1.11,1.77,1.11Zm13.64-15.99l7.41,9.34c.37.47.94.74,1.53.74s1.17-.27,1.54-.74l-1.54-1.22h0s1.54,1.22,1.54,1.22l11.96-15.06,14.12,17.79h-46.15l9.58-12.06Z"/>
  </g>
  <path class="cls-1" d="m345.75,409.85l328.12,29.02v-28.58s-355.25-.44-328.12-.44Z"/>
  <g>
    <rect class="cls-2" x="344.16" y="229.88" width="539.89" height="179.96"/>
    <path class="cls-4" d="m369.87,352h334.22"/>
    <path class="cls-4" d="m369.87,377.71h305.3"/>
    <path class="cls-17" d="m369.87,300.58h334.22v25.71h-334.22v-25.71Z"/>
    <rect class="cls-17" x="369.87" y="263.7" width="334.89" height="12.85"/>
  </g>
  <path class="cls-2" d="m1036.58,101.26h-305.05v278.35h305.05V101.26Z"/>
  <path class="cls-1" d="m732.21,379.83l151.84,29.02v-28.58s-164.4-.44-151.84-.44Z"/>
  <g>
    <circle class="cls-12" cx="731.53" cy="101.26" r="38.48"/>
    <path class="cls-9" d="m728.47,120.48c-.84-.84-1.26-1.85-1.26-3.03s.42-2.19,1.26-3.03c.84-.84,1.87-1.26,3.09-1.26s2.24.41,3.06,1.23,1.23,1.84,1.23,3.06-.41,2.19-1.23,3.03c-.82.84-1.84,1.26-3.06,1.26s-2.25-.42-3.09-1.26Zm0-26.82v-12.86h6.17v12.86l-.63,15.04h-4.97l-.57-15.04Z"/>
  </g>
  <path class="cls-4" d="m164.42,538.22h872.16"/>
  <g>
    <path class="cls-15" d="m1008.1,130.26h-248.09v220.37h248.09v-220.37Z"/>
    <g>
      <path class="cls-11" d="m950.87,184.82h-20.1v19.06l25.93,23.26,18.74-19.78-24.57-22.54Zm-4.32,15.38c-1.77,1.9-4.75,2.01-6.65.23-1.9-1.77-2-4.75-.23-6.65,1.77-1.9,4.75-2,6.65-.23,1.9,1.77,2.01,4.75.23,6.65Z"/>
      <g>
        <path class="cls-18" d="m968.08,288.07l-26.93,10.35c-4.01,1.54-8.55-.48-10.09-4.49h0c-1.54-4.01.48-8.55,4.49-10.09l26.93-10.35c4.01-1.54,8.55.48,10.09,4.49h0c1.54,4.01-.48,8.55-4.49,10.09Z"/>
        <path class="cls-13" d="m949.46,278.49l-13.91,5.35c-4.01,1.54-6.03,6.08-4.49,10.09,1.54,4.01,6.08,6.03,10.09,4.49l13.91-5.35-5.61-14.58Z"/>
        <line class="cls-6" x1="937.87" y1="287.9" x2="963.68" y2="277.24"/>
      </g>
      <g>
        <g>
          <rect class="cls-18" x="862.79" y="188.37" width="56.57" height="121.79"/>
          <rect class="cls-10" x="870.51" y="213.71" width="41.12" height="52.75"/>
          <rect class="cls-10" x="857" y="183.68" width="68.14" height="9.39"/>
          <polygon class="cls-16" points="922.91 183.68 859.23 183.68 863.81 177.26 918.33 177.26 922.91 183.68"/>
        </g>
        <g>
          <rect class="cls-16" x="801.73" y="188.37" width="36.12" height="17.67"/>
          <path class="cls-10" d="m839.4,216.96c-3.88-2.22-6.44-6.17-6.44-10.64v-.34h-26.33v.34c0,4.47-2.56,8.42-6.44,10.64-4.48,2.57-7.52,7.39-7.52,12.9v65.42c0,8.18,6.7,14.88,14.88,14.88h24.49c8.18,0,14.88-6.7,14.88-14.88v-65.42c0-5.51-3.04-10.34-7.52-12.9Z"/>
          <rect class="cls-16" x="800.01" y="238.07" width="39.56" height="54.21"/>
          <rect class="cls-13" x="800.01" y="246.88" width="39.56" height="7.47"/>
        </g>
      </g>
      <g>
        <path class="cls-18" d="m935.68,323.16l-26.36-11.72c-3.93-1.75-5.71-6.39-3.96-10.31h0c1.75-3.93,6.39-5.71,10.31-3.96l26.36,11.72c3.93,1.75,5.71,6.39,3.96,10.31h0c-1.75,3.93-6.39,5.71-10.31,3.96Z"/>
        <path class="cls-13" d="m929.28,303.22l-13.62-6.06c-3.93-1.75-8.57.04-10.31,3.96-1.75,3.93.04,8.57,3.96,10.31l13.62,6.06,6.35-14.28Z"/>
        <line class="cls-6" x1="914.44" y1="301.68" x2="940.23" y2="312.39"/>
      </g>
    </g>
  </g>
</svg>