<?xml version="1.0" encoding="UTF-8"?>
<svg id="Restricted_Drug_Terms" data-name="Restricted Drug Terms" xmlns="http://www.w3.org/2000/svg" viewBox="0 0 1201 601">
  <defs>
    <style>
      .cls-1 {
        fill: #3c4043;
      }

      .cls-1, .cls-2, .cls-3, .cls-4 {
        stroke-linecap: round;
      }

      .cls-1, .cls-2, .cls-3, .cls-4, .cls-5 {
        stroke-linejoin: round;
      }

      .cls-1, .cls-2, .cls-4, .cls-6, .cls-7 {
        stroke: #3c4043;
      }

      .cls-2, .cls-8, .cls-7 {
        fill: #fff;
      }

      .cls-3, .cls-4, .cls-5 {
        fill: none;
      }

      .cls-3, .cls-5 {
        stroke: #bdc1c6;
      }

      .cls-9 {
        fill: #f8f9fa;
      }

      .cls-10 {
        fill: #fbbc04;
      }

      .cls-11 {
        fill: #fffffa;
      }

      .cls-12, .cls-6 {
        fill: #e8eaed;
      }

      .cls-13 {
        fill: #ceead6;
      }

      .cls-14 {
        fill: #bdc1c6;
      }

      .cls-15 {
        fill: #4285f4;
      }

      .cls-16 {
        fill: #34a853;
      }

      .cls-6, .cls-7 {
        stroke-miterlimit: 10;
      }
    </style>
  </defs>
  <path class="cls-1" d="m345.75,401.85l328.12,29.02v-28.58s-355.25-.44-328.12-.44Z"/>
  <g>
    <path class="cls-7" d="m670.65,473.45H168.68c-2.34,0-4.25-1.91-4.25-4.25V190.56c0-2.34,1.91-4.25,4.25-4.25h501.98c2.34,0,4.25,1.91,4.25,4.25v278.64c0,2.34-1.89,4.25-4.25,4.25Z"/>
    <path class="cls-6" d="m482.22,538.22h-127.26c15.46-11.25,25.89-28.14,28.99-47.01l2.91-17.76h63.45l2.91,17.76c3.11,18.87,13.53,35.76,28.99,47.01Z"/>
    <path class="cls-1" d="m452.63,487.59l-65.87-13.4.13-.74h63.43l2.3,14,.02.15Z"/>
    <path class="cls-3" d="m201,342h196.63"/>
    <path class="cls-3" d="m201,357.42h196.63"/>
    <path class="cls-3" d="m201,372.85h196.63"/>
    <path class="cls-5" d="m166.72,209.03h505.93"/>
    <path class="cls-3" d="m177.11,200.79c1.71,0,3.09-1.38,3.09-3.09s-1.38-3.09-3.09-3.09-3.09,1.38-3.09,3.09,1.38,3.09,3.09,3.09Z"/>
    <path class="cls-3" d="m192.28,200.79c1.71,0,3.09-1.38,3.09-3.09s-1.38-3.09-3.09-3.09-3.09,1.38-3.09,3.09,1.38,3.09,3.09,3.09Z"/>
    <path class="cls-3" d="m207.46,200.79c1.71,0,3.09-1.38,3.09-3.09s-1.38-3.09-3.09-3.09-3.09,1.38-3.09,3.09,1.38,3.09,3.09,3.09Z"/>
    <path class="cls-3" d="m201,388.27h196.63"/>
    <path class="cls-3" d="m201,403.69h196.63"/>
    <path class="cls-3" d="m201,419.11h133.67"/>
    <rect class="cls-12" x="201" y="241.19" width="145.2" height="76.1"/>
    <path class="cls-9" d="m246.47,293.65h54.27c.75,0,1.44-.43,1.77-1.11.33-.67.24-1.48-.23-2.07l-18.18-22.91c-.37-.47-.94-.74-1.54-.74s-1.17.27-1.54.74l-11.96,15.07-7.41-9.34-1.54,1.22h0s1.54-1.22,1.54-1.22c-.37-.47-.94-.74-1.54-.74s-1.16.27-1.53.74l-13.64,17.18c-.47.59-.56,1.39-.23,2.07.33.68,1.02,1.11,1.77,1.11Zm13.64-15.99l7.41,9.34c.37.47.94.74,1.53.74s1.17-.27,1.54-.74l-1.54-1.22h0s1.54,1.22,1.54,1.22l11.96-15.06,14.12,17.79h-46.15l9.58-12.06Z"/>
  </g>
  <path class="cls-1" d="m345.75,409.85l328.12,29.02v-28.58s-355.25-.44-328.12-.44Z"/>
  <g>
    <rect class="cls-2" x="344.16" y="229.88" width="539.89" height="179.96"/>
    <path class="cls-4" d="m369.87,352h334.22"/>
    <path class="cls-4" d="m369.87,377.71h305.3"/>
    <path class="cls-15" d="m369.87,300.58h334.22v25.71h-334.22v-25.71Z"/>
    <rect class="cls-15" x="369.87" y="263.7" width="334.89" height="12.85"/>
  </g>
  <path class="cls-2" d="m1036.58,101.26h-305.05v278.35h305.05V101.26Z"/>
  <path class="cls-1" d="m732.21,379.83l151.84,29.02v-28.58s-164.4-.44-151.84-.44Z"/>
  <g>
    <circle class="cls-10" cx="731.53" cy="101.26" r="38.48"/>
    <path class="cls-8" d="m728.47,120.48c-.84-.84-1.26-1.85-1.26-3.03s.42-2.19,1.26-3.03c.84-.84,1.87-1.26,3.09-1.26s2.24.41,3.06,1.23,1.23,1.84,1.23,3.06-.41,2.19-1.23,3.03c-.82.84-1.84,1.26-3.06,1.26s-2.25-.42-3.09-1.26Zm0-26.82v-12.86h6.17v12.86l-.63,15.04h-4.97l-.57-15.04Z"/>
  </g>
  <path class="cls-4" d="m164.42,538.22h872.16"/>
  <path class="cls-13" d="m1008.1,130.26h-248.09v220.37h248.09v-220.37Z"/>
  <polygon class="cls-14" points="853.31 333.26 880.51 333.26 871.55 251.62 858.17 251.62 853.31 333.26"/>
  <path class="cls-14" d="m863.17,246.35v5.27h-6.04v-5.27c0-10.31-8.38-18.69-18.69-18.69s-18.69,8.38-18.69,18.69v5.27h-6.04v-5.27c0-13.63,11.09-24.73,24.73-24.73s24.73,11.1,24.73,24.73Z"/>
  <polygon class="cls-11" points="858.17 251.62 853.31 333.26 785.08 333.26 789.94 251.62 858.17 251.62"/>
  <path class="cls-11" d="m846.07,246.35v5.27h-6.04v-5.27c0-10.31-8.38-18.69-18.69-18.69s-18.69,8.38-18.69,18.69v5.27h-6.04v-5.27c0-13.63,11.09-24.73,24.73-24.73s24.73,11.1,24.73,24.73Z"/>
  <polygon class="cls-16" points="842.29 308.84 835.82 308.84 835.82 302.37 828.1 302.37 828.1 308.84 821.63 308.84 821.63 316.56 828.1 316.56 828.1 323.03 835.82 323.03 835.82 316.56 842.29 316.56 842.29 308.84"/>
  <g>
    <rect class="cls-12" x="797.3" y="262.75" width="20.99" height="27.62"/>
    <g>
      <rect class="cls-16" x="801.77" y="268.13" width="12.04" height="2"/>
      <rect class="cls-16" x="801.77" y="272.34" width="12.04" height="2"/>
      <rect class="cls-16" x="801.77" y="276.56" width="12.04" height="2"/>
    </g>
  </g>
  <path class="cls-16" d="m985.26,182.2v13.24h-98.25v-13.24c0-7.75,6.11-14.08,13.78-14.45.23-.01.47-.02.7-.02h15v17.73h39.28v-17.73h15.01c.23,0,.47,0,.69.02,7.67.35,13.78,6.7,13.78,14.45Z"/>
  <rect class="cls-8" x="894.14" y="195.43" width="83.99" height="56.19"/>
  <g>
    <rect class="cls-12" x="944.21" y="208.64" width="8.7" height="8.7"/>
    <rect class="cls-12" x="956.84" y="208.64" width="8.7" height="8.7"/>
    <rect class="cls-12" x="944.21" y="220.88" width="8.7" height="8.7"/>
    <rect class="cls-12" x="956.84" y="220.88" width="8.7" height="8.7"/>
  </g>
  <rect class="cls-14" x="907.44" y="208.64" width="26.39" height="42.98"/>
  <g>
    <path class="cls-12" d="m903.01,167.73v27.71h-2.21v-27.69c.23-.01.47-.02.7-.02h1.52Z"/>
    <path class="cls-12" d="m971.48,167.75v27.69h-2.21v-27.71h1.53c.23,0,.47,0,.69.02Z"/>
    <g>
      <path class="cls-12" d="m918.71,186.87v8.57h-2.21v-8.57c0-.58.17-1.09.41-1.42.19-.25.43-.41.7-.41s.51.16.7.41c.24.33.41.84.41,1.42Z"/>
      <path class="cls-12" d="m955.78,186.72v8.72h-2.21v-8.72c0-.49.11-.93.3-1.26.21-.35.49-.58.81-.58s.6.22.81.58c.19.33.3.78.3,1.26Z"/>
    </g>
    <path class="cls-12" d="m937.24,186.72v8.72h-2.21v-8.72c0-.49.11-.93.3-1.26.21-.35.49-.58.81-.58s.6.22.81.58c.19.33.3.78.3,1.26Z"/>
  </g>
  <rect class="cls-8" x="916.5" y="150.53" width="39.28" height="34.93"/>
  <polygon class="cls-16" points="945.21 164.61 939.52 164.61 939.52 158.92 932.75 158.92 932.75 164.61 927.07 164.61 927.07 171.38 932.75 171.38 932.75 177.06 939.52 177.06 939.52 171.38 945.21 171.38 945.21 164.61"/>
</svg>