<?xml version="1.0" encoding="utf-8"?>
<!-- Generator: Adobe Illustrator 24.0.0, SVG Export Plug-In . SVG Version: 6.00 Build 0)  -->
<svg version="1.1" id="Layer_1" xmlns="http://www.w3.org/2000/svg" xmlns:xlink="http://www.w3.org/1999/xlink" x="0px" y="0px"
	 viewBox="0 0 1200 600" style="enable-background:new 0 0 1200 600;" xml:space="preserve">
<style type="text/css">
	.st0{fill:#FFFFFF;}
	.st1{fill:none;stroke:#3D4043;stroke-linecap:round;stroke-linejoin:round;}
	.st2{fill:#FFFFFF;stroke:#3D4043;stroke-linecap:round;stroke-linejoin:round;}
	.st3{fill:#E7E9EC;stroke:#E7E9EC;stroke-linecap:round;stroke-linejoin:round;}
	.st4{fill:#3D4043;stroke:#3D4043;stroke-linecap:round;stroke-linejoin:round;}
	.st5{fill:#F2BC42;stroke:#F2BC42;stroke-miterlimit:10;}
	.st6{fill:#EE8668;stroke:#3D4043;stroke-linecap:round;stroke-linejoin:round;stroke-miterlimit:10;}
	.st7{fill:#FBBC04;}
	.st8{fill:#EE8668;}
	.st9{fill:none;stroke:#3D4043;stroke-linecap:round;stroke-linejoin:round;stroke-miterlimit:10;}
	.st10{fill:#D4E2F9;stroke:#D4E2F9;stroke-linecap:round;stroke-linejoin:round;stroke-miterlimit:10;}
	.st11{fill:#D4E2F9;}
	.st12{fill:#7F3C1B;stroke:#3D4043;stroke-linecap:round;stroke-linejoin:round;stroke-miterlimit:10;}
	.st13{opacity:8.000000e-02;fill:#DEDEE4;}
	.st14{opacity:9.000000e-02;fill:#BABAC5;}
	.st15{opacity:0.22;fill:#DEDEE4;}
	.st16{opacity:8.000000e-02;fill:#303033;}
	.st17{opacity:0.17;fill:#BABAC5;}
	.st18{opacity:0.24;fill:#8C8C97;}
	.st19{opacity:9.000000e-02;fill:#303033;}
	.st20{opacity:0.13;fill:#BABAC5;}
	.st21{opacity:0.2;fill:#525258;}
	.st22{opacity:0.15;fill:#DEDEE4;}
	.st23{opacity:0.1;fill:#DEDEE4;}
	.st24{opacity:0.2;fill:#BABAC5;}
	.st25{opacity:8.000000e-02;fill:#8C8C97;}
	.st26{opacity:0.14;fill:#525258;}
	.st27{opacity:0.24;fill:#525258;}
	.st28{opacity:0.12;fill:#525258;}
	.st29{opacity:0.8;fill:#525258;}
	.st30{opacity:0.83;fill:#DEDEE4;}
	.st31{opacity:0.9;fill:#DEDEE4;}
	.st32{opacity:0.72;fill:#525258;}
	.st33{opacity:0.69;fill:#DEDEE4;}
	.st34{fill:#525258;}
	.st35{opacity:0.7;fill:#525258;}
	.st36{opacity:0.55;fill:#BABAC5;}
	.st37{opacity:0.51;fill:#BABAC5;}
	.st38{opacity:0.83;fill:#BABAC5;}
	.st39{opacity:0.89;fill:#BABAC5;}
	.st40{opacity:0.3;fill:#525258;}
	.st41{fill:#8C8C97;}
	.st42{opacity:5.000000e-02;fill:#DEDEE4;}
	.st43{opacity:0.21;fill:#8C8C97;}
	.st44{opacity:0.89;fill:#8C8C97;}
	.st45{fill:#303033;}
	.st46{fill:#BABAC5;}
	.st47{fill:#DEDEE4;}
	.st48{opacity:0.74;fill:#DEDEE4;}
	.st49{opacity:0.11;fill:#BABAC5;}
	.st50{opacity:0.5;fill:#BABAC5;}
	.st51{opacity:0.59;fill:#8C8C97;}
	.st52{opacity:0.1;fill:#303033;}
	.st53{opacity:0.88;fill:#DEDEE4;}
	.st54{opacity:0.61;fill:#BABAC5;}
	.st55{opacity:8.000000e-02;fill:#525258;}
	.st56{opacity:0.22;fill:#525258;}
	.st57{opacity:0.73;fill:#8C8C97;}
	.st58{opacity:0.86;fill:#BABAC5;}
	.st59{opacity:0.3;fill:#8C8C97;}
	.st60{opacity:0.71;fill:#8C8C97;}
	.st61{opacity:0.1;fill:#BABAC5;}
	.st62{opacity:0.25;fill:#BABAC5;}
	.st63{opacity:0.7;fill:#BABAC5;}
	.st64{opacity:0.15;fill:#525258;}
	.st65{opacity:0.58;fill:#8C8C97;}
	.st66{opacity:0.12;fill:#DEDEE4;}
	.st67{opacity:0.11;fill:#303033;}
	.st68{opacity:9.000000e-02;fill:#525258;}
	.st69{opacity:0.24;fill:#DEDEE4;}
	.st70{opacity:0.65;fill:#525258;}
	.st71{opacity:5.000000e-02;fill:#8C8C97;}
	.st72{opacity:0.64;fill:#525258;}
	.st73{opacity:0.22;fill:#8C8C97;}
	.st74{opacity:0.12;fill:#BABAC5;}
	.st75{opacity:0.65;fill:#BABAC5;}
	.st76{opacity:0.23;fill:#525258;}
	.st77{opacity:0.13;fill:#525258;}
	.st78{opacity:0.86;fill:#525258;}
	.st79{opacity:0.64;fill:#DEDEE4;}
	.st80{opacity:0.58;fill:#DEDEE4;}
	.st81{opacity:0.84;fill:#8C8C97;}
	.st82{opacity:0.69;fill:#8C8C97;}
	.st83{opacity:0.53;fill:#8C8C97;}
	.st84{opacity:0.68;fill:#525258;}
	.st85{opacity:0.65;fill:#8C8C97;}
	.st86{opacity:7.000000e-02;fill:#525258;}
	.st87{opacity:0.13;fill:#DEDEE4;}
	.st88{opacity:0.15;fill:#8C8C97;}
	.st89{opacity:5.000000e-02;fill:#BABAC5;}
	.st90{opacity:0.2;fill:#8C8C97;}
	.st91{opacity:7.000000e-02;fill:#BABAC5;}
	.st92{opacity:8.000000e-02;fill:#BABAC5;}
	.st93{opacity:6.000000e-02;fill:#DEDEE4;}
	.st94{opacity:0.16;fill:#BABAC5;}
	.st95{opacity:0.16;fill:#8C8C97;}
	.st96{fill:#F1B682;stroke:#3D4043;stroke-linecap:round;stroke-linejoin:round;}
	.st97{fill:#3D4043;stroke:#3D4043;stroke-linecap:round;stroke-linejoin:round;stroke-miterlimit:10;}
	.st98{fill:#F1B682;stroke:#3D4043;stroke-linecap:round;stroke-linejoin:round;stroke-miterlimit:10;}
	.st99{fill-rule:evenodd;clip-rule:evenodd;fill:#3D4043;}
	.st100{fill:#3D4043;}
	.st101{fill:#FFFFFF;stroke:#FFFFFF;stroke-linecap:round;stroke-linejoin:round;}
	.st102{fill:#4285F4;stroke:#4285F4;stroke-linecap:round;stroke-linejoin:round;stroke-miterlimit:10;}
	.st103{fill:#FFFFFF;stroke:#3D4043;stroke-linecap:round;stroke-linejoin:round;stroke-miterlimit:10;}
	.st104{fill:#D2E3FC;}
	.st105{fill:#E8EAED;}
	.st106{fill:none;stroke:#FFFFFF;stroke-linecap:round;stroke-linejoin:round;stroke-miterlimit:10;}
	.st107{fill:#FFFFFF;stroke:#BDC0C4;stroke-linecap:round;stroke-linejoin:round;stroke-miterlimit:10;}
	.st108{fill:none;stroke:#BDC0C4;stroke-linecap:round;stroke-linejoin:round;stroke-miterlimit:10;}
	.st109{fill:#E1A57D;stroke:#3D4043;stroke-linecap:round;stroke-linejoin:round;stroke-miterlimit:10;}
	.st110{fill:#E1A57D;}
	.st111{fill:none;stroke:#D4E2F9;stroke-linecap:round;stroke-linejoin:round;stroke-miterlimit:10;}
	.st112{fill:none;stroke:#3D4043;stroke-miterlimit:10;}
	.st113{fill:none;stroke:#D4E2F9;stroke-width:2;stroke-linecap:round;stroke-linejoin:round;stroke-miterlimit:10;}
	.st114{fill:#D4E2F9;stroke:#D4E2F9;stroke-width:0.9197;stroke-linecap:round;stroke-linejoin:round;stroke-miterlimit:10;}
	.st115{fill:#FFFFFF;stroke:#3D4043;stroke-miterlimit:10;}
	.st116{fill:#3D4043;stroke:#3D4043;stroke-linecap:round;stroke-miterlimit:10;}
	.st117{fill:#4285F4;}
	.st118{fill:#FFFFFF;stroke:#FFFFFF;stroke-linecap:round;stroke-linejoin:round;stroke-miterlimit:10;}
	.st119{fill:#FFFFFF;stroke:#3D4043;}
	.st120{fill:#EA4335;}
	.st121{fill:#3C4043;}
	.st122{fill:none;stroke:#ABAEB2;stroke-miterlimit:10;}
	.st123{fill:none;stroke:#ABAEB2;stroke-miterlimit:10;stroke-dasharray:6.0438,6.0438;}
	.st124{fill:#F8E19C;stroke:#3D4043;stroke-miterlimit:10;}
	.st125{fill:#F8E19C;}
	.st126{fill:#EA4335;stroke:#3D4043;stroke-miterlimit:10;}
	.st127{fill:none;stroke:#3D4043;stroke-linecap:round;stroke-miterlimit:10;}
	.st128{fill:#80868B;}
	.st129{fill:none;stroke:#F2BC42;stroke-linecap:round;stroke-linejoin:round;stroke-miterlimit:10;}
	.st130{fill:none;stroke:#BDC0C4;stroke-linecap:round;stroke-linejoin:round;}
	.st131{fill:#D85040;stroke:#3D4043;stroke-linecap:round;stroke-linejoin:round;stroke-miterlimit:10;}
	.st132{fill:#97674E;stroke:#97674E;stroke-linecap:round;stroke-linejoin:round;}
	.st133{fill:#EABC5A;stroke:#3D4043;stroke-linecap:round;stroke-linejoin:round;stroke-miterlimit:10;}
	.st134{fill:#5785E3;stroke:#3D4043;stroke-linecap:round;stroke-linejoin:round;stroke-miterlimit:10;}
	.st135{clip-path:url(#SVGID_2_);}
	.st136{fill:#E7E9EC;}
	.st137{fill:#D79663;}
	.st138{fill:#34A853;stroke:#34A853;stroke-linecap:round;stroke-linejoin:round;stroke-miterlimit:10;}
	.st139{fill:#754438;stroke:#3D4043;stroke-miterlimit:10;}
	.st140{fill:#754438;stroke:#3D4043;stroke-linecap:round;stroke-linejoin:round;stroke-miterlimit:10;}
	.st141{fill:#3D4043;stroke:#3D4043;stroke-miterlimit:10;}
	.st142{fill:#754438;stroke:#3D4043;stroke-linejoin:round;stroke-miterlimit:10;}
	.st143{fill:#E0E1E5;}
	.st144{fill:#EA4335;stroke:#EA4335;stroke-linecap:round;stroke-linejoin:round;stroke-miterlimit:10;}
	.st145{fill:none;stroke:#3D4043;stroke-miterlimit:10;stroke-dasharray:5.0418,8.0669;}
	.st146{fill:none;stroke:#3D4043;stroke-miterlimit:10;stroke-dasharray:3.0952,4.9524;}
	.st147{fill:none;stroke:#3D4043;stroke-miterlimit:10;stroke-dasharray:4.9402,7.9043;}
	.st148{fill:none;stroke:#3D4043;stroke-miterlimit:10;stroke-dasharray:5,8;}
	.st149{fill:none;stroke:#3D4043;stroke-miterlimit:10;stroke-dasharray:4.9249,7.8799;}
	.st150{fill:none;stroke:#3D4043;stroke-miterlimit:10;stroke-dasharray:4.9454,7.9126;}
	.st151{fill:#F0F0F0;}
	.st152{fill:#FFFFFF;stroke:#3D4043;stroke-linejoin:round;}
	.st153{fill:#D2D2D2;}
	.st154{fill:none;stroke:#3C4043;stroke-linecap:round;stroke-linejoin:round;stroke-miterlimit:10;}
	.st155{fill:#E8EAED;stroke:#E8EAED;stroke-linecap:round;stroke-linejoin:round;stroke-miterlimit:10;}
	.st156{fill:#34A853;}
	.st157{fill:#F2BC42;}
	.st158{fill:#FFFFFF;stroke:#3C4043;stroke-linecap:round;stroke-linejoin:round;stroke-miterlimit:10;}
	.st159{fill:#F5F8FD;stroke:#3D4043;stroke-linejoin:round;}
	.st160{fill:#3C4043;stroke:#3C4043;stroke-linecap:round;stroke-linejoin:round;stroke-miterlimit:10;}
	.st161{clip-path:url(#SVGID_4_);fill:#3C4043;stroke:#3C4043;stroke-linecap:round;stroke-linejoin:round;stroke-miterlimit:10;}
	
		.st162{fill-rule:evenodd;clip-rule:evenodd;fill:#4285F4;stroke:#4285F4;stroke-linecap:round;stroke-linejoin:round;stroke-miterlimit:10;}
	
		.st163{fill-rule:evenodd;clip-rule:evenodd;fill:none;stroke:#3D4043;stroke-linecap:round;stroke-linejoin:round;stroke-miterlimit:10;}
	.st164{fill-rule:evenodd;clip-rule:evenodd;fill:#FFFFFF;}
	.st165{fill:#E7E9EC;stroke:#3D4043;stroke-linecap:round;stroke-linejoin:round;stroke-miterlimit:10;}
	.st166{fill:#E7E9EC;stroke:#E7E9EC;stroke-linecap:round;stroke-linejoin:round;stroke-miterlimit:10;}
	.st167{fill:#BDC0C4;stroke:#BDC0C4;stroke-linecap:round;stroke-linejoin:round;stroke-miterlimit:10;}
	.st168{fill:none;stroke:#58A45C;stroke-linecap:round;stroke-linejoin:round;stroke-miterlimit:10;}
	.st169{fill:#4E85EB;}
	.st170{fill:#FFFFFF;stroke:#3D4043;stroke-width:1.0036;stroke-linecap:round;stroke-linejoin:round;stroke-miterlimit:10;}
	.st171{fill:#EEA38D;stroke:#3D4043;stroke-miterlimit:10;}
	.st172{fill:none;stroke:#3D4043;stroke-width:1.1075;stroke-linecap:round;stroke-linejoin:round;stroke-miterlimit:10;}
	.st173{fill:#3D4043;stroke:#3D4043;stroke-width:1.1075;stroke-linecap:round;stroke-linejoin:round;stroke-miterlimit:10;}
	.st174{fill:#FFFFFF;stroke:#3D4043;stroke-width:1.1075;stroke-linecap:round;stroke-linejoin:round;stroke-miterlimit:10;}
	.st175{fill:none;stroke:#3D4043;}
	.st176{fill-rule:evenodd;clip-rule:evenodd;fill:#FFFFFF;stroke:#3D4043;stroke-linecap:round;stroke-linejoin:round;}
	.st177{fill-rule:evenodd;clip-rule:evenodd;fill:#34A853;}
	.st178{fill:#E8EAED;stroke:#3C4043;stroke-linecap:round;stroke-linejoin:round;stroke-miterlimit:10;}
	.st179{fill:none;stroke:#3D4043;stroke-width:1.0036;stroke-linecap:round;stroke-linejoin:round;stroke-miterlimit:10;}
	.st180{fill-rule:evenodd;clip-rule:evenodd;fill:#FFFFFF;stroke:#3D4043;stroke-width:1.0036;}
	
		.st181{fill-rule:evenodd;clip-rule:evenodd;fill:#FFFFFF;stroke:#3D4043;stroke-width:1.0036;stroke-linecap:round;stroke-linejoin:round;}
	.st182{fill-rule:evenodd;clip-rule:evenodd;fill:#4E85EB;}
	.st183{fill:#D4E2F9;stroke:#D4E2F9;stroke-miterlimit:10;}
	.st184{fill:#EA4335;stroke:#3D4043;stroke-linecap:round;stroke-linejoin:round;stroke-miterlimit:10;}
	.st185{fill:#DFA68A;stroke:#3D4043;stroke-miterlimit:10;}
	.st186{fill:#DFA68A;stroke:#3D4043;stroke-linecap:round;stroke-linejoin:round;stroke-miterlimit:10;}
	.st187{fill:#DFA68A;stroke:#3D4043;stroke-linejoin:round;stroke-miterlimit:10;}
	.st188{fill:#FBBC04;stroke:#FBBC04;stroke-linecap:round;stroke-linejoin:round;stroke-miterlimit:10;}
	.st189{fill-rule:evenodd;clip-rule:evenodd;fill:#D2E3FC;}
	.st190{fill-rule:evenodd;clip-rule:evenodd;fill:#FFFFFF;stroke:#3D4043;}
	.st191{fill:none;stroke:#E7E9EC;stroke-linecap:round;stroke-linejoin:round;}
	.st192{fill:#EA4335;stroke:#EA4335;stroke-miterlimit:10;}
	.st193{fill:none;stroke:#FFFFFF;stroke-linecap:round;stroke-linejoin:round;}
	.st194{fill:none;stroke:#3D4043;stroke-linecap:round;}
	
		.st195{fill:#FFFFFF;filter:url(#Adobe_OpacityMaskFilter);stroke:#3D4043;stroke-linecap:round;stroke-linejoin:round;stroke-miterlimit:10;}
	.st196{mask:url(#mask0_1_);}
	.st197{fill:#E8EFFC;}
	.st198{fill:#F2BC42;stroke:#F2BC42;stroke-linecap:round;stroke-linejoin:round;stroke-miterlimit:10;}
	.st199{fill:#58A45C;stroke:#58A45C;stroke-linecap:round;stroke-linejoin:round;stroke-miterlimit:10;}
	.st200{fill-rule:evenodd;clip-rule:evenodd;fill:#3D4043;stroke:#3D4043;stroke-linejoin:round;}
	.st201{fill-rule:evenodd;clip-rule:evenodd;fill:#E8EAED;}
	.st202{fill-rule:evenodd;clip-rule:evenodd;fill:#EA4335;}
	
		.st203{fill-rule:evenodd;clip-rule:evenodd;fill:none;stroke:#3C4043;stroke-linecap:round;stroke-linejoin:round;stroke-miterlimit:10;}
	.st204{fill-rule:evenodd;clip-rule:evenodd;fill:#4285F4;}
	
		.st205{fill-rule:evenodd;clip-rule:evenodd;fill:#4E86EC;stroke:#4E86EC;stroke-linecap:round;stroke-linejoin:round;stroke-miterlimit:10;}
	.st206{fill:#34A853;stroke:#34A853;stroke-miterlimit:10;}
	.st207{fill:#4E85EB;stroke:#4E85EB;stroke-miterlimit:10;}
	.st208{fill:#D85040;stroke:#D85040;stroke-linejoin:round;}
	.st209{fill:#BDC0C4;stroke:#BDC0C4;stroke-linecap:round;stroke-linejoin:round;}
	.st210{fill:#3C4043;stroke:#3C4043;stroke-width:0.25;stroke-miterlimit:10;}
	.st211{fill:#FEEFC3;}
	.st212{fill:#202124;stroke:#202124;stroke-miterlimit:10;}
	.st213{fill:#8C5338;}
	.st214{fill:#D7BAAC;}
	.st215{fill:none;stroke:#FFFDFC;stroke-miterlimit:10;}
	.st216{fill:#F2F2F4;}
	.st217{fill:#E8EAED;stroke:#3C4043;stroke-miterlimit:10;}
	.st218{fill:#7B4C38;}
	.st219{fill:#EABFB0;}
	.st220{fill:#EFCABB;}
	.st221{opacity:0.6;fill:#804340;}
	.st222{fill:#4285F4;stroke:#3C4043;stroke-miterlimit:10;}
	.st223{opacity:0.6;}
	.st224{fill:#F2BC42;stroke:#3D4043;stroke-miterlimit:10;}
	.st225{fill:#2A2C32;}
	
		.st226{fill-rule:evenodd;clip-rule:evenodd;fill:#FFFFFF;stroke:#3C4043;stroke-linecap:round;stroke-linejoin:round;stroke-miterlimit:10;}
	
		.st227{fill-rule:evenodd;clip-rule:evenodd;fill:#3C4043;stroke:#3C4043;stroke-linecap:round;stroke-linejoin:round;stroke-miterlimit:10;}
	.st228{fill-rule:evenodd;clip-rule:evenodd;fill:#444343;}
	.st229{fill:#979CA3;}
	.st230{fill:#F7D575;}
	.st231{clip-path:url(#SVGID_12_);fill:#3C4043;stroke:#3C4043;stroke-linecap:round;stroke-linejoin:round;stroke-miterlimit:10;}
	.st232{fill:#D9DBDF;stroke:#D9DBDF;stroke-linecap:round;stroke-linejoin:round;stroke-miterlimit:10;}
	.st233{fill:#FFFFFF;stroke:#D85040;stroke-linecap:round;stroke-linejoin:round;stroke-miterlimit:10;}
	.st234{fill:#D9DBDF;}
	.st235{fill:#D4E2F9;stroke:#3D4043;stroke-miterlimit:10;}
	.st236{fill:none;stroke:#D9DBDF;stroke-linecap:round;stroke-linejoin:round;stroke-miterlimit:10;}
	.st237{fill:#34A853;stroke:#34A853;stroke-linecap:round;stroke-linejoin:round;}
	.st238{fill:#696C71;}
	
		.st239{fill-rule:evenodd;clip-rule:evenodd;fill:#34A853;stroke:#34A853;stroke-linecap:round;stroke-linejoin:round;stroke-miterlimit:10;}
	.st240{fill:#E0C1AB;}
	.st241{fill:#D6B096;}
	.st242{clip-path:url(#SVGID_14_);fill:#EA4335;stroke:#EA4335;}
	.st243{clip-path:url(#SVGID_14_);fill:#CA5A46;}
	.st244{clip-path:url(#SVGID_14_);fill:none;stroke:#3C4043;stroke-linecap:round;stroke-linejoin:round;stroke-miterlimit:10;}
	.st245{fill:#CA8F6B;}
	.st246{fill:#EA4335;stroke:#EA4335;stroke-linecap:round;stroke-linejoin:round;}
	.st247{clip-path:url(#SVGID_16_);fill:#617FBA;}
	.st248{clip-path:url(#SVGID_16_);fill:#D2E3FC;}
	.st249{clip-path:url(#SVGID_16_);fill:none;stroke:#3C4043;stroke-linecap:round;stroke-linejoin:round;stroke-miterlimit:10;}
	.st250{fill:#DD5B52;stroke:#3D4043;stroke-miterlimit:10;}
	.st251{fill:#D18A68;stroke:#3D4043;stroke-linecap:round;stroke-linejoin:round;stroke-miterlimit:10;}
</style>
<rect x="-6" y="-6" class="st0" width="1212" height="612"/>
<g>
	<g>
		<g>
			
				<rect x="124.3" y="272.4" transform="matrix(0.9383 -0.3459 0.3459 0.9383 -100.369 102.9518)" class="st156" width="228" height="120.6"/>
		</g>
		<g>
			<path class="st106" d="M339,349.3l-167,61.6l-22-9.1l-22.2-60.1l11.5-26.2l162-59.7l26.7,12.1l22,59.7L339,349.3z"/>
		</g>
		<g>
			<path class="st0" d="M254.4,344.3c-1.4,2.8-3.6,5-6.7,6.7l2,5.3l-4.3,1.6l-1.9-5.2c-3,0.7-6,0.6-9.2-0.5c-3.2-1-5.7-3-7.7-5.9
				l4-3.5c1.3,1.8,3,3.2,5,4.1c2,0.9,4.1,1.2,6.2,0.8l-5.6-15.3l-0.2,0c-4.2-0.1-7.6-0.8-10.1-2c-2.6-1.2-4.4-3.2-5.4-6.1
				c-0.7-1.8-0.8-3.6-0.5-5.6c0.3-1.9,1.1-3.7,2.5-5.4c1.3-1.7,3.1-3,5.3-4.1l-1.9-5.2l4.3-1.6l2,5.3c3-0.6,5.7-0.4,8,0.5
				c2.3,1,4.1,2.3,5.4,3.9l-3.9,3.7c-0.7-1-1.8-1.8-3.1-2.4c-1.3-0.6-2.8-0.8-4.5-0.6l5.3,14.3c4.1,0.2,7.5,0.8,10.1,1.9
				c2.6,1.1,4.5,3.1,5.6,6.1C255.9,338.5,255.9,341.5,254.4,344.3z M228.4,325.7c1.4,0.7,3.3,1.1,5.7,1.3l-4.7-12.8
				c-1.7,1-2.9,2.2-3.7,3.7c-0.7,1.5-0.8,3-0.2,4.5C226,323.9,227,325,228.4,325.7z M249.6,342.1c0.7-1.5,0.7-3.2,0.1-5
				c-0.6-1.5-1.5-2.6-2.9-3.2c-1.4-0.7-3.3-1.1-5.7-1.2l4.9,13.4C247.7,344.9,248.9,343.6,249.6,342.1z"/>
		</g>
		<circle class="st106" cx="238.3" cy="332.7" r="41.2"/>
	</g>
	<g>
		<g>
			
				<rect x="928.6" y="417.1" transform="matrix(0.9368 0.3499 -0.3499 0.9368 223.5179 -322.5958)" class="st156" width="151.7" height="80.2"/>
		</g>
		<g>
			<path class="st106" d="M1048,509.3l-110.9-41.4l-7.1-14.1l14.9-39.9l17.2-8.2l107.6,40.2l8.2,17.7l-14.8,39.6L1048,509.3z"/>
		</g>
		<g>
			<path class="st0" d="M1007.6,470.1c-1.9,0.8-4,0.9-6.3,0.5l-1.3,3.5l-2.8-1.1l1.3-3.5c-1.8-0.9-3.3-2.3-4.4-4.2
				c-1.2-1.9-1.6-4-1.3-6.3l3.5-0.1c-0.1,1.5,0.1,2.9,0.7,4.2c0.6,1.3,1.5,2.4,2.7,3.1l3.8-10.1l-0.1-0.1c-2.1-1.9-3.5-3.7-4.2-5.4
				c-0.8-1.7-0.8-3.5-0.1-5.4c0.4-1.2,1.2-2.2,2.2-3c1-0.8,2.2-1.4,3.6-1.7c1.4-0.3,2.9-0.2,4.4,0.2l1.3-3.4l2.8,1.1l-1.3,3.5
				c1.8,1,3,2.2,3.8,3.7c0.7,1.5,1.1,2.9,1,4.3l-3.6,0.1c0.1-0.8-0.1-1.7-0.5-2.6c-0.4-0.9-1.1-1.6-2-2.3l-3.5,9.5
				c2,1.9,3.4,3.7,4.3,5.3c0.9,1.7,0.9,3.5,0.2,5.5C1010.9,467.8,1009.5,469.3,1007.6,470.1z M1002.5,449.4c0.4,0.9,1.2,2,2.3,3.1
				l3.2-8.5c-1.3-0.3-2.4-0.2-3.4,0.3c-1,0.4-1.7,1.2-2.1,2.2C1002.1,447.5,1002.1,448.5,1002.5,449.4z M1006.1,466.9
				c1-0.5,1.8-1.3,2.2-2.5c0.4-1,0.3-2-0.1-2.9c-0.4-0.9-1.2-2-2.3-3.1l-3.3,8.9C1003.9,467.5,1005.1,467.4,1006.1,466.9z"/>
		</g>
		<circle class="st106" cx="1004.5" cy="457.2" r="27.4"/>
	</g>
	<g>
		<g>
			<path class="st4" d="M877.4,151.3l4.9,0c3.9,0,7.7,1.6,10.5,4.4l3.5,3.5c2.8,2.8,4.4,6.6,4.4,10.5l0,4.9c0,3.9-1.6,7.7-4.4,10.5
				l-3.5,3.5c-2.8,2.8-6.6,4.4-10.5,4.4l-4.9,0c-3.9,0-7.7-1.6-10.5-4.4l-3.5-3.5c-2.8-2.8-4.4-6.6-4.4-10.5l0-4.9
				c0-3.9,1.6-7.7,4.4-10.5l3.5-3.5C869.7,152.8,873.4,151.3,877.4,151.3z"/>
		</g>
		<g>
			<path class="st224" d="M860.9,172.2l0-4.9c0-3.9,1.6-7.7,4.4-10.5l3.5-3.5c2.8-2.8,6.6-4.4,10.5-4.4l4.9,0
				c3.9,0,7.7,1.6,10.5,4.4l3.5,3.5c2.8,2.8,4.4,6.6,4.4,10.5l0,4.9c0,3.9-1.6,7.7-4.4,10.5l-3.5,3.5c-2.8,2.8-6.6,4.4-10.5,4.4
				l-4.9,0c-3.9,0-7.7-1.6-10.5-4.4l-3.5-3.5C862.4,180,860.9,176.2,860.9,172.2z"/>
		</g>
		<g>
			<defs>
				<path id="SVGID_5_" d="M860.9,172.2l0-4.9c0-3.9,1.6-7.7,4.4-10.5l3.5-3.5c2.8-2.8,6.6-4.4,10.5-4.4l4.9,0
					c3.9,0,7.7,1.6,10.5,4.4l3.5,3.5c2.8,2.8,4.4,6.6,4.4,10.5l0,4.9c0,3.9-1.6,7.7-4.4,10.5l-3.5,3.5c-2.8,2.8-6.6,4.4-10.5,4.4
					l-4.9,0c-3.9,0-7.7-1.6-10.5-4.4l-3.5-3.5C862.4,180,860.9,176.2,860.9,172.2z"/>
			</defs>
			<clipPath id="SVGID_2_">
				<use xlink:href="#SVGID_5_"  style="overflow:visible;"/>
			</clipPath>
		</g>
		<g>
			<path class="st4" d="M822.3,99.2l4.9,0c3.9,0,7.7,1.6,10.5,4.4l3.5,3.5c2.8,2.8,4.4,6.6,4.4,10.5l0,4.9c0,3.9-1.6,7.7-4.4,10.5
				l-3.5,3.5c-2.8,2.8-6.6,4.4-10.5,4.4l-4.9,0c-3.9,0-7.7-1.6-10.5-4.4l-3.5-3.5c-2.8-2.8-4.4-6.6-4.4-10.5l0-4.9
				c0-3.9,1.6-7.7,4.4-10.5l3.5-3.5C814.5,100.8,818.3,99.2,822.3,99.2z"/>
		</g>
		<g>
			<path class="st224" d="M805.8,120.2l0-4.9c0-3.9,1.6-7.7,4.4-10.5l3.5-3.5c2.8-2.8,6.6-4.4,10.5-4.4l4.9,0
				c3.9,0,7.7,1.6,10.5,4.4l3.5,3.5c2.8,2.8,4.4,6.6,4.4,10.5l0,4.9c0,3.9-1.6,7.7-4.4,10.5l-3.5,3.5c-2.8,2.8-6.6,4.4-10.5,4.4
				l-4.9,0c-3.9,0-7.7-1.6-10.5-4.4l-3.5-3.5C807.3,127.9,805.8,124.1,805.8,120.2z"/>
		</g>
		<g>
			<defs>
				<path id="SVGID_7_" d="M805.8,120.2l0-4.9c0-3.9,1.6-7.7,4.4-10.5l3.5-3.5c2.8-2.8,6.6-4.4,10.5-4.4l4.9,0
					c3.9,0,7.7,1.6,10.5,4.4l3.5,3.5c2.8,2.8,4.4,6.6,4.4,10.5l0,4.9c0,3.9-1.6,7.7-4.4,10.5l-3.5,3.5c-2.8,2.8-6.6,4.4-10.5,4.4
					l-4.9,0c-3.9,0-7.7-1.6-10.5-4.4l-3.5-3.5C807.3,127.9,805.8,124.1,805.8,120.2z"/>
			</defs>
			<clipPath id="SVGID_4_">
				<use xlink:href="#SVGID_7_"  style="overflow:visible;"/>
			</clipPath>
		</g>
		<path class="st157" d="M881.5,91l-3.4,7.5l-7.5,3.4l7.5,3.4l3.4,7.5l3.4-7.5l7.5-3.4l-7.5-3.4L881.5,91z"/>
		<path class="st157" d="M835.6,193.1l-2.7,6l-6,2.7l6,2.7l2.7,6l2.7-6l6-2.7l-6-2.7L835.6,193.1z"/>
	</g>
	<g>
		<g>
			<g>
				<g>
					<path class="st158" d="M664.7,322.3h-115c-5.7,0-10.2-4.6-10.2-10.2V141.4c0-5.7,4.6-10.2,10.2-10.2h115
						c5.7,0,10.2,4.6,10.2,10.2v170.7C675,317.7,670.4,322.3,664.7,322.3z"/>
				</g>
				<g>
					<path class="st105" d="M661.1,312.8H553.4c-3.2,0-5.9-2.6-5.9-5.9V145.2c0-3.2,2.6-5.9,5.9-5.9h107.8c3.2,0,5.9,2.6,5.9,5.9
						v161.7C667,310.2,664.4,312.8,661.1,312.8z M553.4,143.2c-1.1,0-2.1,0.9-2.1,2.1v161.7c0,1.1,0.9,2.1,2.1,2.1h107.8
						c1.1,0,2.1-0.9,2.1-2.1V145.2c0-1.1-0.9-2.1-2.1-2.1H553.4z"/>
				</g>
				<g>
					<g>
						<circle class="st120" cx="629.5" cy="162.9" r="8.2"/>
					</g>
					<g>
						<circle class="st120" cx="645.1" cy="162.9" r="8.2"/>
					</g>
					<g>
						<polygon class="st120" points="637.3,182.9 623.5,168.6 637.3,162.9 651.2,168.5 						"/>
					</g>
				</g>
			</g>
			<g>
				<g>
					<path class="st158" d="M709.9,385.9h-115c-5.7,0-10.2-4.6-10.2-10.2V205c0-5.7,4.6-10.2,10.2-10.2h115
						c5.7,0,10.2,4.6,10.2,10.2v170.7C720.1,381.3,715.5,385.9,709.9,385.9z"/>
				</g>
				<g>
					<path class="st225" d="M691,229.8c-0.7,0-1.3,0.1-1.9,0.2c1.2-1.5,1.9-3.3,1.9-5.4c0-4.7-3.8-8.6-8.6-8.6s-8.6,3.8-8.6,8.6
						c0,2,0.7,3.9,1.9,5.4c-0.6-0.1-1.2-0.2-1.8-0.2c-4.7,0-8.6,3.8-8.6,8.6c0,4.7,3.8,8.6,8.6,8.6c3.8,0,7.1-2.5,8.2-6l-1.7,9.5
						h4.2l-1.7-9.5c1.1,3.5,4.3,6,8.2,6c4.7,0,8.6-3.8,8.6-8.6C699.5,233.6,695.7,229.8,691,229.8z"/>
				</g>
				<g>
					<path class="st105" d="M706.2,376.4H598.5c-3.2,0-5.9-2.6-5.9-5.9V208.8c0-3.2,2.6-5.9,5.9-5.9h107.8c3.2,0,5.9,2.6,5.9,5.9
						v161.7C712.1,373.8,709.5,376.4,706.2,376.4z M598.5,206.8c-1.1,0-2.1,0.9-2.1,2.1v161.7c0,1.1,0.9,2.1,2.1,2.1h107.8
						c1.1,0,2.1-0.9,2.1-2.1V208.8c0-1.1-0.9-2.1-2.1-2.1H598.5z"/>
				</g>
			</g>
			<g>
				<g>
					<path class="st158" d="M759.2,460.6h-115c-5.7,0-10.2-4.6-10.2-10.2V279.7c0-5.7,4.6-10.2,10.2-10.2h115
						c5.7,0,10.2,4.6,10.2,10.2v170.7C769.5,456,764.9,460.6,759.2,460.6z"/>
				</g>
				<g>
					<path class="st105" d="M755.6,451.1H647.8c-3.2,0-5.9-2.6-5.9-5.9V283.5c0-3.2,2.6-5.9,5.9-5.9h107.8c3.2,0,5.9,2.6,5.9,5.9
						v161.7C761.5,448.5,758.9,451.1,755.6,451.1z M647.8,281.4c-1.1,0-2.1,0.9-2.1,2.1v161.7c0,1.1,0.9,2.1,2.1,2.1h107.8
						c1.1,0,2.1-0.9,2.1-2.1V283.5c0-1.1-0.9-2.1-2.1-2.1H647.8z"/>
				</g>
				<g>
					<polygon class="st120" points="731.8,326 718.3,308.7 731.8,291.3 745.4,308.7 					"/>
				</g>
			</g>
			<g>
				<g>
					<g>
						<path class="st158" d="M801.3,527h-115c-5.7,0-10.2-4.6-10.2-10.2V346c0-5.7,4.6-10.2,10.2-10.2h115c5.7,0,10.2,4.6,10.2,10.2
							v170.7C811.6,522.4,807,527,801.3,527z"/>
					</g>
					<g>
						<path class="st105" d="M797.7,517.5H690c-3.2,0-5.9-2.6-5.9-5.9V349.9c0-3.2,2.6-5.9,5.9-5.9h107.8c3.2,0,5.9,2.6,5.9,5.9
							v161.7C803.6,514.8,801,517.5,797.7,517.5z M690,347.8c-1.1,0-2.1,0.9-2.1,2.1v161.7c0,1.1,0.9,2.1,2.1,2.1h107.8
							c1.1,0,2.1-0.9,2.1-2.1V349.9c0-1.1-0.9-2.1-2.1-2.1H690z"/>
					</g>
				</g>
				<g>
					<g>
						<g>
							<circle class="st225" cx="782.8" cy="380.2" r="9.4"/>
						</g>
						<g>
							<circle class="st225" cx="765.1" cy="380.2" r="9.4"/>
						</g>
						<g>
							<polygon class="st225" points="774,357.4 789.6,373.8 773.9,380.2 758.2,373.8 							"/>
						</g>
					</g>
					<g>
						<polygon class="st225" points="772.1,394.2 776.1,394.2 773.9,383.1 						"/>
					</g>
				</g>
			</g>
		</g>
		<g>
			<g>
				<rect x="405.7" y="410.6" class="st157" width="159.3" height="29.7"/>
				<line class="st9" x1="430.1" y1="440.2" x2="430.1" y2="410.4"/>
				<line class="st9" x1="457.7" y1="440.2" x2="457.7" y2="410.4"/>
				<line class="st9" x1="485.4" y1="440.2" x2="485.4" y2="410.4"/>
				<line class="st9" x1="513" y1="440.2" x2="513" y2="410.4"/>
				<line class="st9" x1="540.6" y1="440.2" x2="540.6" y2="410.4"/>
				<line class="st9" x1="565" y1="410.6" x2="405.7" y2="410.6"/>
			</g>
			<g>
				<rect x="414.7" y="440.2" class="st157" width="159.3" height="30.2"/>
				<line class="st9" x1="439.1" y1="470.5" x2="439.1" y2="440.2"/>
				<line class="st9" x1="466.7" y1="470.5" x2="466.7" y2="440.2"/>
				<line class="st9" x1="494.3" y1="470.5" x2="494.3" y2="440.2"/>
				<line class="st9" x1="521.9" y1="470.5" x2="521.9" y2="440.2"/>
				<line class="st9" x1="549.5" y1="470.5" x2="549.5" y2="440.2"/>
				<line class="st9" x1="573.9" y1="440.2" x2="414.7" y2="440.2"/>
			</g>
			<g>
				<rect x="405.7" y="470.5" class="st157" width="159.3" height="30.2"/>
				<line class="st9" x1="430.1" y1="500.7" x2="430.1" y2="470.5"/>
				<line class="st9" x1="457.7" y1="500.7" x2="457.7" y2="470.5"/>
				<line class="st9" x1="485.4" y1="500.7" x2="485.4" y2="470.5"/>
				<line class="st9" x1="513" y1="500.7" x2="513" y2="470.5"/>
				<line class="st9" x1="540.6" y1="500.7" x2="540.6" y2="470.5"/>
				<line class="st9" x1="565" y1="470.5" x2="405.7" y2="470.5"/>
			</g>
			<g>
				<rect x="414.7" y="500.7" class="st157" width="159.3" height="29.6"/>
				<line class="st9" x1="439.1" y1="530.3" x2="439.1" y2="500.7"/>
				<line class="st9" x1="466.7" y1="530.3" x2="466.7" y2="500.7"/>
				<line class="st9" x1="494.3" y1="530.3" x2="494.3" y2="500.7"/>
				<line class="st9" x1="521.9" y1="530.3" x2="521.9" y2="500.7"/>
				<line class="st9" x1="549.5" y1="530.3" x2="549.5" y2="500.7"/>
				<line class="st9" x1="573.9" y1="500.7" x2="414.7" y2="500.7"/>
			</g>
			<path class="st157" d="M583.4,371.4l-4.7,10.4l-10.4,4.7l10.4,4.7l4.7,10.4l4.7-10.4l10.4-4.7l-10.4-4.7L583.4,371.4z"/>
			<line class="st9" x1="573.5" y1="530.2" x2="414.8" y2="530.2"/>
		</g>
	</g>
	<g>
		<path class="st4" d="M204.9,470l4.9,0c3.9,0,7.7,1.6,10.5,4.4l3.5,3.5c2.8,2.8,4.4,6.6,4.4,10.5l0,4.9c0,3.9-1.6,7.7-4.4,10.5
			l-3.5,3.5c-2.8,2.8-6.6,4.4-10.5,4.4l-4.9,0c-3.9,0-7.7-1.6-10.5-4.4l-3.5-3.5c-2.8-2.8-4.4-6.6-4.4-10.5l0-4.9
			c0-3.9,1.6-7.7,4.4-10.5l3.5-3.5C197.2,471.6,201,470,204.9,470z"/>
	</g>
	<g>
		<path class="st224" d="M188.4,491l0-4.9c0-3.9,1.6-7.7,4.4-10.5l3.5-3.5c2.8-2.8,6.6-4.4,10.5-4.4l4.9,0c3.9,0,7.7,1.6,10.5,4.4
			l3.5,3.5c2.8,2.8,4.4,6.6,4.4,10.5l0,4.9c0,3.9-1.6,7.7-4.4,10.5l-3.5,3.5c-2.8,2.8-6.6,4.4-10.5,4.4l-4.9,0
			c-3.9,0-7.7-1.6-10.5-4.4l-3.5-3.5C190,498.7,188.4,494.9,188.4,491z"/>
	</g>
	<g>
		<defs>
			<path id="SVGID_9_" d="M188.4,491l0-4.9c0-3.9,1.6-7.7,4.4-10.5l3.5-3.5c2.8-2.8,6.6-4.4,10.5-4.4l4.9,0c3.9,0,7.7,1.6,10.5,4.4
				l3.5,3.5c2.8,2.8,4.4,6.6,4.4,10.5l0,4.9c0,3.9-1.6,7.7-4.4,10.5l-3.5,3.5c-2.8,2.8-6.6,4.4-10.5,4.4l-4.9,0
				c-3.9,0-7.7-1.6-10.5-4.4l-3.5-3.5C190,498.7,188.4,494.9,188.4,491z"/>
		</defs>
		<clipPath id="SVGID_6_">
			<use xlink:href="#SVGID_9_"  style="overflow:visible;"/>
		</clipPath>
	</g>
	<g>
		
			<rect x="299.4" y="210.2" transform="matrix(0.6766 -0.7363 0.7363 0.6766 -68.7903 315.8972)" class="st120" width="51.7" height="52.1"/>
		
			<rect x="370.1" y="204.4" transform="matrix(0.982 -0.1889 0.1889 0.982 -36.4036 78.9642)" class="st120" width="51.7" height="52.1"/>
		<path class="st158" d="M413.7,196.4l-45.8,8.8c-3.1,0.6-5.1,3.6-4.5,6.7l8.8,45.8c0.6,3.1,3.6,5.1,6.7,4.5l45.8-8.8
			c3.1-0.6,5.1-3.6,4.5-6.7l-8.8-45.8C419.8,197.8,416.8,195.8,413.7,196.4z M382.1,254.4c-2.6,0.5-5.2-1.2-5.7-3.8
			c-0.5-2.6,1.2-5.2,3.8-5.7c2.6-0.5,5.2,1.2,5.7,3.8C386.4,251.3,384.7,253.8,382.1,254.4z M375.5,220.1c-2.6,0.5-5.2-1.2-5.7-3.8
			c-0.5-2.6,1.2-5.2,3.8-5.7c2.6-0.5,5.2,1.2,5.7,3.8C379.8,217.1,378.1,219.6,375.5,220.1z M397.2,234c-2.6,0.5-5.2-1.2-5.7-3.8
			c-0.5-2.6,1.2-5.2,3.8-5.7c2.6-0.5,5.2,1.2,5.7,3.8C401.5,231,399.8,233.5,397.2,234z M416.9,247.7c-2.6,0.5-5.2-1.2-5.7-3.8
			c-0.5-2.6,1.2-5.2,3.8-5.7c2.6-0.5,5.2,1.2,5.7,3.8C421.2,244.6,419.5,247.1,416.9,247.7z M410.3,213.4c-2.6,0.5-5.2-1.2-5.7-3.8
			c-0.5-2.6,1.2-5.2,3.8-5.7c2.6-0.5,5.2,1.2,5.7,3.8C414.7,210.4,412.9,212.9,410.3,213.4z"/>
		
			<rect x="132.7" y="111.4" transform="matrix(0.95 0.3123 -0.3123 0.95 52.0661 -43.5184)" class="st120" width="58.3" height="58.7"/>
		<path class="st158" d="M198,116.9l-50-16.4c-3.4-1.1-7,0.7-8.1,4.1l-16.4,50c-1.1,3.4,0.7,7,4.1,8.1l50,16.4
			c3.4,1.1,7-0.7,8.1-4.1l16.4-50C203.2,121.7,201.4,118,198,116.9z M135,156.7c-2.9-0.9-4.4-4-3.5-6.9c0.9-2.9,4-4.4,6.9-3.5
			c2.9,0.9,4.4,4,3.5,6.9C141,156.1,137.9,157.6,135,156.7z M147.3,119.4c-2.9-0.9-4.4-4-3.5-6.9c0.9-2.9,4-4.4,6.9-3.5
			c2.9,0.9,4.4,4,3.5,6.9C153.2,118.8,150.2,120.3,147.3,119.4z M161.1,145c-2.9-0.9-4.4-4-3.5-6.9c0.9-2.9,4-4.4,6.9-3.5
			c2.9,0.9,4.4,4,3.5,6.9C167,144.4,164,145.9,161.1,145z M173,169.2c-2.9-0.9-4.4-4-3.5-6.9c0.9-2.9,4-4.4,6.9-3.5
			c2.9,0.9,4.4,4,3.5,6.9C179,168.6,175.9,170.1,173,169.2z M185.3,131.9c-2.9-0.9-4.4-4-3.5-6.9c0.9-2.9,4-4.4,6.9-3.5
			c2.9,0.9,4.4,4,3.5,6.9C191.3,131.3,188.2,132.8,185.3,131.9z"/>
		<path class="st158" d="M319.2,199.8l-31,34.9c-2.1,2.3-1.9,5.9,0.5,8l34.9,31c2.3,2.1,5.9,1.9,8-0.5l31-34.9
			c2.1-2.3,1.9-5.9-0.5-8l-34.9-31C324.9,197.3,321.3,197.5,319.2,199.8z M329.3,265.1c-1.8,2-4.8,2.2-6.8,0.4
			c-2-1.8-2.2-4.8-0.4-6.8c1.8-2,4.8-2.2,6.8-0.4C330.9,260.1,331.1,263.1,329.3,265.1z M303.3,242c-1.8,2-4.8,2.2-6.8,0.4
			c-2-1.8-2.2-4.8-0.4-6.8c1.8-2,4.8-2.2,6.8-0.4C304.9,236.9,305.1,240,303.3,242z M329,239.8c-1.8,2-4.8,2.2-6.8,0.4
			c-2-1.8-2.2-4.8-0.4-6.8c1.8-2,4.8-2.2,6.8-0.4C330.6,234.7,330.8,237.8,329,239.8z M352.9,238.6c-1.8,2-4.8,2.2-6.8,0.4
			c-2-1.8-2.2-4.8-0.4-6.8c1.8-2,4.8-2.2,6.8-0.4C354.5,233.6,354.7,236.6,352.9,238.6z M326.9,215.5c-1.8,2-4.8,2.2-6.8,0.4
			c-2-1.8-2.2-4.8-0.4-6.8c1.8-2,4.8-2.2,6.8-0.4C328.5,210.4,328.6,213.5,326.9,215.5z"/>
	</g>
	<g>
		<g>
			<circle class="st226" cx="1037.3" cy="297.9" r="47.8"/>
			<path class="st227" d="M1052.3,252.4c3.1,1,6.1,2.4,9,4c2.8,1.6,5.5,3.5,7.9,5.7l-5.6,6.3c-1.5,1.7-3.4,2.2-5.5,0.7
				c-1-0.7-2-1.4-3.1-2c-1.1-0.6-2.1-1.2-3.3-1.7c-2.3-1-2.8-2.9-2.1-5.1L1052.3,252.4z"/>
			<path class="st227" d="M1005.5,262.2c2.5-2.2,5.1-4.1,8-5.7c2.8-1.6,5.8-3,8.9-4l2.7,8c0.7,2.2,0.2,4.1-2.1,5.1
				c-1.1,0.5-2.2,1.1-3.3,1.7c-1.1,0.6-2.1,1.3-3.1,2c-2,1.5-3.9,1-5.5-0.7L1005.5,262.2z"/>
			<path class="st227" d="M990.5,307.6c-0.7-3.2-1-6.5-1-9.8c0-3.3,0.3-6.5,1-9.8l8.3,1.7c2.3,0.5,3.6,1.9,3.4,4.4
				c-0.1,1.2-0.2,2.4-0.2,3.7c0,1.2,0.1,2.4,0.2,3.7c0.3,2.5-1.1,3.9-3.4,4.4L990.5,307.6z"/>
			<path class="st227" d="M1005.5,333.6c2.5,2.2,5.1,4.1,8,5.7c2.8,1.6,5.8,3,8.9,4l2.7-8c0.7-2.2,0.2-4.1-2.1-5.1
				c-1.1-0.5-2.2-1.1-3.3-1.7c-1.1-0.6-2.1-1.3-3.1-2c-2-1.5-3.9-1-5.5,0.7L1005.5,333.6z"/>
			<path class="st227" d="M1052.3,343.3c3.1-1,6.1-2.4,9-4c2.8-1.6,5.5-3.5,7.9-5.7l-5.6-6.3c-1.5-1.7-3.4-2.2-5.5-0.7
				c-1,0.7-2,1.4-3.1,2c-1.1,0.6-2.1,1.2-3.3,1.7c-2.3,1-2.8,2.9-2.1,5.1L1052.3,343.3z"/>
			<path class="st227" d="M1084.2,307.6c0.7-3.2,1-6.5,1-9.8c0-3.3-0.3-6.5-1-9.8l-8.3,1.7c-2.2,0.5-3.6,1.9-3.4,4.4
				c0.1,1.2,0.2,2.4,0.2,3.7c0,1.2-0.1,2.4-0.2,3.7c-0.3,2.5,1.1,3.9,3.4,4.4L1084.2,307.6z"/>
			<path class="st228" d="M1037.3,253.4c1.6,0,2.9,1.3,2.9,2.9c0,1.6-1.3,2.9-2.9,2.9c-1.6,0-2.9-1.3-2.9-2.9
				C1034.5,254.7,1035.7,253.4,1037.3,253.4z"/>
			<path class="st228" d="M998.8,275.7c0.8-1.4,2.5-1.8,3.9-1c1.4,0.8,1.8,2.5,1,3.9c-0.8,1.4-2.5,1.8-3.9,1
				C998.5,278.8,998,277,998.8,275.7z"/>
			<path class="st227" d="M998.8,320.1c-0.8-1.4-0.3-3.1,1-3.9c1.4-0.8,3.1-0.3,3.9,1c0.8,1.4,0.3,3.1-1,3.9
				C1001.4,322,999.6,321.5,998.8,320.1z"/>
			<circle class="st227" cx="1037.3" cy="297.9" r="28.4"/>
			<path class="st227" d="M1037.3,342.3c1.6,0,2.9-1.3,2.9-2.9s-1.3-2.9-2.9-2.9c-1.6,0-2.9,1.3-2.9,2.9S1035.7,342.3,1037.3,342.3z
				"/>
			<path class="st227" d="M1075.8,320.1c0.8-1.4,0.3-3.1-1-3.9c-1.4-0.8-3.1-0.3-3.9,1c-0.8,1.4-0.3,3.1,1,3.9
				C1073.3,322,1075,321.5,1075.8,320.1z"/>
			<path class="st227" d="M1075.8,275.7c-0.8-1.4-2.5-1.8-3.9-1c-1.4,0.8-1.8,2.5-1,3.9c0.8,1.4,2.5,1.8,3.9,1
				C1076.1,278.8,1076.6,277,1075.8,275.7z"/>
		</g>
		<g>
			<circle class="st226" cx="943.3" cy="387.9" r="43.8"/>
			<path class="st227" d="M957,346.2c2.9,0.9,5.6,2.2,8.2,3.7c2.6,1.5,5,3.2,7.3,5.3l-5.2,5.8c-1.4,1.6-3.1,2-5,0.7
				c-0.9-0.7-1.9-1.3-2.8-1.8c-1-0.6-2-1.1-3-1.5c-2.1-0.9-2.6-2.7-1.9-4.7L957,346.2z"/>
			<path class="st227" d="M914.1,355.2c2.3-2,4.7-3.8,7.3-5.3c2.6-1.5,5.3-2.7,8.2-3.7l2.4,7.4c0.7,2,0.2,3.7-1.9,4.7
				c-1,0.5-2,1-3,1.5c-1,0.6-1.9,1.2-2.8,1.8c-1.9,1.4-3.6,0.9-5-0.7L914.1,355.2z"/>
			<path class="st227" d="M900.4,396.8c-0.6-3-0.9-6-0.9-8.9c0-3,0.3-6,0.9-8.9l7.6,1.6c2.1,0.4,3.3,1.7,3.1,4
				c-0.1,1.1-0.2,2.2-0.2,3.4c0,1.1,0.1,2.2,0.2,3.4c0.2,2.3-1,3.6-3.1,4L900.4,396.8z"/>
			<path class="st227" d="M914.1,420.6c2.3,2,4.7,3.8,7.3,5.3c2.6,1.5,5.3,2.7,8.2,3.7l2.4-7.4c0.7-2,0.2-3.7-1.9-4.7
				c-1-0.5-2-1-3-1.5c-1-0.6-1.9-1.2-2.8-1.8c-1.9-1.4-3.6-0.9-5,0.7L914.1,420.6z"/>
			<path class="st227" d="M957,429.5c2.9-0.9,5.6-2.2,8.2-3.7c2.6-1.5,5-3.2,7.3-5.3l-5.2-5.8c-1.4-1.6-3.1-2-5-0.7
				c-0.9,0.7-1.9,1.3-2.8,1.8c-1,0.6-2,1.1-3,1.5c-2.1,0.9-2.6,2.7-1.9,4.7L957,429.5z"/>
			<path class="st227" d="M986.2,396.8c0.6-3,0.9-6,0.9-8.9c0-3-0.3-6-0.9-8.9l-7.6,1.6c-2.1,0.4-3.3,1.7-3.1,4
				c0.1,1.1,0.2,2.2,0.2,3.4c0,1.1-0.1,2.2-0.2,3.4c-0.2,2.3,1,3.6,3.1,4L986.2,396.8z"/>
			<path class="st228" d="M943.3,347.2c1.5,0,2.6,1.2,2.6,2.6s-1.2,2.6-2.6,2.6c-1.5,0-2.6-1.2-2.6-2.6S941.9,347.2,943.3,347.2z"/>
			<path class="st228" d="M908,367.5c0.7-1.3,2.3-1.7,3.6-1c1.3,0.7,1.7,2.3,1,3.6c-0.7,1.3-2.3,1.7-3.6,1
				C907.7,370.4,907.3,368.8,908,367.5z"/>
			<path class="st227" d="M908,408.3c-0.7-1.3-0.3-2.9,1-3.6c1.3-0.7,2.9-0.3,3.6,1c0.7,1.3,0.3,2.9-1,3.6
				C910.4,409.9,908.8,409.5,908,408.3z"/>
			<circle class="st227" cx="943.3" cy="387.9" r="26"/>
			<path class="st227" d="M943.3,428.6c1.5,0,2.6-1.2,2.6-2.6c0-1.5-1.2-2.6-2.6-2.6c-1.5,0-2.6,1.2-2.6,2.6
				C940.7,427.4,941.9,428.6,943.3,428.6z"/>
			<path class="st227" d="M978.6,408.3c0.7-1.3,0.3-2.9-1-3.6c-1.3-0.7-2.9-0.3-3.6,1c-0.7,1.3-0.3,2.9,1,3.6
				C976.3,409.9,977.9,409.5,978.6,408.3z"/>
			<path class="st227" d="M978.6,367.5c-0.7-1.3-2.3-1.7-3.6-1c-1.3,0.7-1.7,2.3-1,3.6c0.7,1.3,2.3,1.7,3.6,1
				C978.9,370.4,979.3,368.8,978.6,367.5z"/>
		</g>
	</g>
</g>
</svg>
