<?xml version="1.0" encoding="utf-8"?>
<!-- Generator: Adobe Illustrator 24.0.0, SVG Export Plug-In . SVG Version: 6.00 Build 0)  -->
<svg version="1.1" id="Layer_1" xmlns="http://www.w3.org/2000/svg" xmlns:xlink="http://www.w3.org/1999/xlink" x="0px" y="0px"
	 viewBox="0 0 1200 600" style="enable-background:new 0 0 1200 600;" xml:space="preserve">
<style type="text/css">
	.st0{fill:#FFFFFF;}
	.st1{fill:none;stroke:#3D4043;stroke-linecap:round;stroke-linejoin:round;}
	.st2{fill:#FFFFFF;stroke:#3D4043;stroke-linecap:round;stroke-linejoin:round;}
	.st3{fill:#E7E9EC;stroke:#E7E9EC;stroke-linecap:round;stroke-linejoin:round;}
	.st4{fill:#3D4043;stroke:#3D4043;stroke-linecap:round;stroke-linejoin:round;}
	.st5{fill:#F2BC42;stroke:#F2BC42;stroke-miterlimit:10;}
	.st6{fill:#EE8668;stroke:#3D4043;stroke-linecap:round;stroke-linejoin:round;stroke-miterlimit:10;}
	.st7{fill:#FBBC04;}
	.st8{fill:#EE8668;}
	.st9{fill:none;stroke:#3D4043;stroke-linecap:round;stroke-linejoin:round;stroke-miterlimit:10;}
	.st10{fill:#D4E2F9;stroke:#D4E2F9;stroke-linecap:round;stroke-linejoin:round;stroke-miterlimit:10;}
	.st11{fill:#D4E2F9;}
	.st12{fill:#7F3C1B;stroke:#3D4043;stroke-linecap:round;stroke-linejoin:round;stroke-miterlimit:10;}
	.st13{opacity:8.000000e-02;fill:#DEDEE4;}
	.st14{opacity:9.000000e-02;fill:#BABAC5;}
	.st15{opacity:0.22;fill:#DEDEE4;}
	.st16{opacity:8.000000e-02;fill:#303033;}
	.st17{opacity:0.17;fill:#BABAC5;}
	.st18{opacity:0.24;fill:#8C8C97;}
	.st19{opacity:9.000000e-02;fill:#303033;}
	.st20{opacity:0.13;fill:#BABAC5;}
	.st21{opacity:0.2;fill:#525258;}
	.st22{opacity:0.15;fill:#DEDEE4;}
	.st23{opacity:0.1;fill:#DEDEE4;}
	.st24{opacity:0.2;fill:#BABAC5;}
	.st25{opacity:8.000000e-02;fill:#8C8C97;}
	.st26{opacity:0.14;fill:#525258;}
	.st27{opacity:0.24;fill:#525258;}
	.st28{opacity:0.12;fill:#525258;}
	.st29{opacity:0.8;fill:#525258;}
	.st30{opacity:0.83;fill:#DEDEE4;}
	.st31{opacity:0.9;fill:#DEDEE4;}
	.st32{opacity:0.72;fill:#525258;}
	.st33{opacity:0.69;fill:#DEDEE4;}
	.st34{fill:#525258;}
	.st35{opacity:0.7;fill:#525258;}
	.st36{opacity:0.55;fill:#BABAC5;}
	.st37{opacity:0.51;fill:#BABAC5;}
	.st38{opacity:0.83;fill:#BABAC5;}
	.st39{opacity:0.89;fill:#BABAC5;}
	.st40{opacity:0.3;fill:#525258;}
	.st41{fill:#8C8C97;}
	.st42{opacity:5.000000e-02;fill:#DEDEE4;}
	.st43{opacity:0.21;fill:#8C8C97;}
	.st44{opacity:0.89;fill:#8C8C97;}
	.st45{fill:#303033;}
	.st46{fill:#BABAC5;}
	.st47{fill:#DEDEE4;}
	.st48{opacity:0.74;fill:#DEDEE4;}
	.st49{opacity:0.11;fill:#BABAC5;}
	.st50{opacity:0.5;fill:#BABAC5;}
	.st51{opacity:0.59;fill:#8C8C97;}
	.st52{opacity:0.1;fill:#303033;}
	.st53{opacity:0.88;fill:#DEDEE4;}
	.st54{opacity:0.61;fill:#BABAC5;}
	.st55{opacity:8.000000e-02;fill:#525258;}
	.st56{opacity:0.22;fill:#525258;}
	.st57{opacity:0.73;fill:#8C8C97;}
	.st58{opacity:0.86;fill:#BABAC5;}
	.st59{opacity:0.3;fill:#8C8C97;}
	.st60{opacity:0.71;fill:#8C8C97;}
	.st61{opacity:0.1;fill:#BABAC5;}
	.st62{opacity:0.25;fill:#BABAC5;}
	.st63{opacity:0.7;fill:#BABAC5;}
	.st64{opacity:0.15;fill:#525258;}
	.st65{opacity:0.58;fill:#8C8C97;}
	.st66{opacity:0.12;fill:#DEDEE4;}
	.st67{opacity:0.11;fill:#303033;}
	.st68{opacity:9.000000e-02;fill:#525258;}
	.st69{opacity:0.24;fill:#DEDEE4;}
	.st70{opacity:0.65;fill:#525258;}
	.st71{opacity:5.000000e-02;fill:#8C8C97;}
	.st72{opacity:0.64;fill:#525258;}
	.st73{opacity:0.22;fill:#8C8C97;}
	.st74{opacity:0.12;fill:#BABAC5;}
	.st75{opacity:0.65;fill:#BABAC5;}
	.st76{opacity:0.23;fill:#525258;}
	.st77{opacity:0.13;fill:#525258;}
	.st78{opacity:0.86;fill:#525258;}
	.st79{opacity:0.64;fill:#DEDEE4;}
	.st80{opacity:0.58;fill:#DEDEE4;}
	.st81{opacity:0.84;fill:#8C8C97;}
	.st82{opacity:0.69;fill:#8C8C97;}
	.st83{opacity:0.53;fill:#8C8C97;}
	.st84{opacity:0.68;fill:#525258;}
	.st85{opacity:0.65;fill:#8C8C97;}
	.st86{opacity:7.000000e-02;fill:#525258;}
	.st87{opacity:0.13;fill:#DEDEE4;}
	.st88{opacity:0.15;fill:#8C8C97;}
	.st89{opacity:5.000000e-02;fill:#BABAC5;}
	.st90{opacity:0.2;fill:#8C8C97;}
	.st91{opacity:7.000000e-02;fill:#BABAC5;}
	.st92{opacity:8.000000e-02;fill:#BABAC5;}
	.st93{opacity:6.000000e-02;fill:#DEDEE4;}
	.st94{opacity:0.16;fill:#BABAC5;}
	.st95{opacity:0.16;fill:#8C8C97;}
	.st96{fill:#F1B682;stroke:#3D4043;stroke-linecap:round;stroke-linejoin:round;}
	.st97{fill:#3D4043;stroke:#3D4043;stroke-linecap:round;stroke-linejoin:round;stroke-miterlimit:10;}
	.st98{fill:#F1B682;stroke:#3D4043;stroke-linecap:round;stroke-linejoin:round;stroke-miterlimit:10;}
	.st99{fill-rule:evenodd;clip-rule:evenodd;fill:#3D4043;}
	.st100{fill:#3D4043;}
	.st101{fill:#FFFFFF;stroke:#FFFFFF;stroke-linecap:round;stroke-linejoin:round;}
	.st102{fill:#4285F4;stroke:#4285F4;stroke-linecap:round;stroke-linejoin:round;stroke-miterlimit:10;}
	.st103{fill:#FFFFFF;stroke:#3D4043;stroke-linecap:round;stroke-linejoin:round;stroke-miterlimit:10;}
	.st104{fill:#D2E3FC;}
	.st105{fill:#E8EAED;}
	.st106{fill:none;stroke:#FFFFFF;stroke-linecap:round;stroke-linejoin:round;stroke-miterlimit:10;}
	.st107{fill:#FFFFFF;stroke:#BDC0C4;stroke-linecap:round;stroke-linejoin:round;stroke-miterlimit:10;}
	.st108{fill:none;stroke:#BDC0C4;stroke-linecap:round;stroke-linejoin:round;stroke-miterlimit:10;}
	.st109{fill:#E1A57D;stroke:#3D4043;stroke-linecap:round;stroke-linejoin:round;stroke-miterlimit:10;}
	.st110{fill:#E1A57D;}
	.st111{fill:none;stroke:#D4E2F9;stroke-linecap:round;stroke-linejoin:round;stroke-miterlimit:10;}
	.st112{fill:none;stroke:#3D4043;stroke-miterlimit:10;}
	.st113{fill:none;stroke:#D4E2F9;stroke-width:2;stroke-linecap:round;stroke-linejoin:round;stroke-miterlimit:10;}
	.st114{fill:#D4E2F9;stroke:#D4E2F9;stroke-width:0.9197;stroke-linecap:round;stroke-linejoin:round;stroke-miterlimit:10;}
	.st115{fill:#FFFFFF;stroke:#3D4043;stroke-miterlimit:10;}
	.st116{fill:#3D4043;stroke:#3D4043;stroke-linecap:round;stroke-miterlimit:10;}
	.st117{fill:#4285F4;}
	.st118{fill:#FFFFFF;stroke:#FFFFFF;stroke-linecap:round;stroke-linejoin:round;stroke-miterlimit:10;}
	.st119{fill:#FFFFFF;stroke:#3D4043;}
	.st120{fill:#EA4335;}
	.st121{fill:#3C4043;}
	.st122{fill:none;stroke:#ABAEB2;stroke-miterlimit:10;}
	.st123{fill:none;stroke:#ABAEB2;stroke-miterlimit:10;stroke-dasharray:6.0438,6.0438;}
	.st124{fill:#F8E19C;stroke:#3D4043;stroke-miterlimit:10;}
	.st125{fill:#F8E19C;}
	.st126{fill:#EA4335;stroke:#3D4043;stroke-miterlimit:10;}
	.st127{fill:none;stroke:#3D4043;stroke-linecap:round;stroke-miterlimit:10;}
	.st128{fill:#80868B;}
	.st129{fill:none;stroke:#F2BC42;stroke-linecap:round;stroke-linejoin:round;stroke-miterlimit:10;}
	.st130{fill:none;stroke:#BDC0C4;stroke-linecap:round;stroke-linejoin:round;}
	.st131{fill:#D85040;stroke:#3D4043;stroke-linecap:round;stroke-linejoin:round;stroke-miterlimit:10;}
	.st132{fill:#97674E;stroke:#97674E;stroke-linecap:round;stroke-linejoin:round;}
	.st133{fill:#EABC5A;stroke:#3D4043;stroke-linecap:round;stroke-linejoin:round;stroke-miterlimit:10;}
	.st134{fill:#5785E3;stroke:#3D4043;stroke-linecap:round;stroke-linejoin:round;stroke-miterlimit:10;}
	.st135{clip-path:url(#SVGID_2_);}
	.st136{fill:#E7E9EC;}
	.st137{fill:#D79663;}
	.st138{fill:#34A853;stroke:#34A853;stroke-linecap:round;stroke-linejoin:round;stroke-miterlimit:10;}
	.st139{fill:#754438;stroke:#3D4043;stroke-miterlimit:10;}
	.st140{fill:#754438;stroke:#3D4043;stroke-linecap:round;stroke-linejoin:round;stroke-miterlimit:10;}
	.st141{fill:#3D4043;stroke:#3D4043;stroke-miterlimit:10;}
	.st142{fill:#754438;stroke:#3D4043;stroke-linejoin:round;stroke-miterlimit:10;}
	.st143{fill:#E0E1E5;}
	.st144{fill:#EA4335;stroke:#EA4335;stroke-linecap:round;stroke-linejoin:round;stroke-miterlimit:10;}
	.st145{fill:none;stroke:#3D4043;stroke-miterlimit:10;stroke-dasharray:5.0418,8.0669;}
	.st146{fill:none;stroke:#3D4043;stroke-miterlimit:10;stroke-dasharray:3.0952,4.9524;}
	.st147{fill:none;stroke:#3D4043;stroke-miterlimit:10;stroke-dasharray:4.9402,7.9043;}
	.st148{fill:none;stroke:#3D4043;stroke-miterlimit:10;stroke-dasharray:5,8;}
	.st149{fill:none;stroke:#3D4043;stroke-miterlimit:10;stroke-dasharray:4.9249,7.8799;}
	.st150{fill:none;stroke:#3D4043;stroke-miterlimit:10;stroke-dasharray:4.9454,7.9126;}
	.st151{fill:#F0F0F0;}
	.st152{fill:#FFFFFF;stroke:#3D4043;stroke-linejoin:round;}
	.st153{fill:#D2D2D2;}
	.st154{fill:none;stroke:#3C4043;stroke-linecap:round;stroke-linejoin:round;stroke-miterlimit:10;}
	.st155{fill:#E8EAED;stroke:#E8EAED;stroke-linecap:round;stroke-linejoin:round;stroke-miterlimit:10;}
	.st156{fill:#34A853;}
	.st157{fill:#F2BC42;}
	.st158{fill:#FFFFFF;stroke:#3C4043;stroke-linecap:round;stroke-linejoin:round;stroke-miterlimit:10;}
	.st159{fill:#F5F8FD;stroke:#3D4043;stroke-linejoin:round;}
	.st160{fill:#3C4043;stroke:#3C4043;stroke-linecap:round;stroke-linejoin:round;stroke-miterlimit:10;}
	.st161{clip-path:url(#SVGID_4_);fill:#3C4043;stroke:#3C4043;stroke-linecap:round;stroke-linejoin:round;stroke-miterlimit:10;}
	
		.st162{fill-rule:evenodd;clip-rule:evenodd;fill:#4285F4;stroke:#4285F4;stroke-linecap:round;stroke-linejoin:round;stroke-miterlimit:10;}
	
		.st163{fill-rule:evenodd;clip-rule:evenodd;fill:none;stroke:#3D4043;stroke-linecap:round;stroke-linejoin:round;stroke-miterlimit:10;}
	.st164{fill-rule:evenodd;clip-rule:evenodd;fill:#FFFFFF;}
	.st165{fill:#E7E9EC;stroke:#3D4043;stroke-linecap:round;stroke-linejoin:round;stroke-miterlimit:10;}
	.st166{fill:#E7E9EC;stroke:#E7E9EC;stroke-linecap:round;stroke-linejoin:round;stroke-miterlimit:10;}
	.st167{fill:#BDC0C4;stroke:#BDC0C4;stroke-linecap:round;stroke-linejoin:round;stroke-miterlimit:10;}
	.st168{fill:none;stroke:#58A45C;stroke-linecap:round;stroke-linejoin:round;stroke-miterlimit:10;}
	.st169{fill:#4E85EB;}
	.st170{fill:#FFFFFF;stroke:#3D4043;stroke-width:1.0036;stroke-linecap:round;stroke-linejoin:round;stroke-miterlimit:10;}
	.st171{fill:#EEA38D;stroke:#3D4043;stroke-miterlimit:10;}
	.st172{fill:none;stroke:#3D4043;stroke-width:1.1075;stroke-linecap:round;stroke-linejoin:round;stroke-miterlimit:10;}
	.st173{fill:#3D4043;stroke:#3D4043;stroke-width:1.1075;stroke-linecap:round;stroke-linejoin:round;stroke-miterlimit:10;}
	.st174{fill:#FFFFFF;stroke:#3D4043;stroke-width:1.1075;stroke-linecap:round;stroke-linejoin:round;stroke-miterlimit:10;}
	.st175{fill:none;stroke:#3D4043;}
	.st176{fill-rule:evenodd;clip-rule:evenodd;fill:#FFFFFF;stroke:#3D4043;stroke-linecap:round;stroke-linejoin:round;}
	.st177{fill-rule:evenodd;clip-rule:evenodd;fill:#34A853;}
	.st178{fill:#E8EAED;stroke:#3C4043;stroke-linecap:round;stroke-linejoin:round;stroke-miterlimit:10;}
	.st179{fill:none;stroke:#3D4043;stroke-width:1.0036;stroke-linecap:round;stroke-linejoin:round;stroke-miterlimit:10;}
	.st180{fill-rule:evenodd;clip-rule:evenodd;fill:#FFFFFF;stroke:#3D4043;stroke-width:1.0036;}
	
		.st181{fill-rule:evenodd;clip-rule:evenodd;fill:#FFFFFF;stroke:#3D4043;stroke-width:1.0036;stroke-linecap:round;stroke-linejoin:round;}
	.st182{fill-rule:evenodd;clip-rule:evenodd;fill:#4E85EB;}
	.st183{fill:#D4E2F9;stroke:#D4E2F9;stroke-miterlimit:10;}
	.st184{fill:#EA4335;stroke:#3D4043;stroke-linecap:round;stroke-linejoin:round;stroke-miterlimit:10;}
	.st185{fill:#DFA68A;stroke:#3D4043;stroke-miterlimit:10;}
	.st186{fill:#DFA68A;stroke:#3D4043;stroke-linecap:round;stroke-linejoin:round;stroke-miterlimit:10;}
	.st187{fill:#DFA68A;stroke:#3D4043;stroke-linejoin:round;stroke-miterlimit:10;}
	.st188{fill:#FBBC04;stroke:#FBBC04;stroke-linecap:round;stroke-linejoin:round;stroke-miterlimit:10;}
	.st189{fill-rule:evenodd;clip-rule:evenodd;fill:#D2E3FC;}
	.st190{fill-rule:evenodd;clip-rule:evenodd;fill:#FFFFFF;stroke:#3D4043;}
	.st191{fill:none;stroke:#E7E9EC;stroke-linecap:round;stroke-linejoin:round;}
	.st192{fill:#EA4335;stroke:#EA4335;stroke-miterlimit:10;}
	.st193{fill:none;stroke:#FFFFFF;stroke-linecap:round;stroke-linejoin:round;}
	.st194{fill:none;stroke:#3D4043;stroke-linecap:round;}
	
		.st195{fill:#FFFFFF;filter:url(#Adobe_OpacityMaskFilter);stroke:#3D4043;stroke-linecap:round;stroke-linejoin:round;stroke-miterlimit:10;}
	.st196{mask:url(#mask0_1_);}
	.st197{fill:#E8EFFC;}
	.st198{fill:#F2BC42;stroke:#F2BC42;stroke-linecap:round;stroke-linejoin:round;stroke-miterlimit:10;}
	.st199{fill:#58A45C;stroke:#58A45C;stroke-linecap:round;stroke-linejoin:round;stroke-miterlimit:10;}
	.st200{fill-rule:evenodd;clip-rule:evenodd;fill:#3D4043;stroke:#3D4043;stroke-linejoin:round;}
	.st201{fill-rule:evenodd;clip-rule:evenodd;fill:#E8EAED;}
	.st202{fill-rule:evenodd;clip-rule:evenodd;fill:#EA4335;}
	
		.st203{fill-rule:evenodd;clip-rule:evenodd;fill:none;stroke:#3C4043;stroke-linecap:round;stroke-linejoin:round;stroke-miterlimit:10;}
	.st204{fill-rule:evenodd;clip-rule:evenodd;fill:#4285F4;}
	
		.st205{fill-rule:evenodd;clip-rule:evenodd;fill:#4E86EC;stroke:#4E86EC;stroke-linecap:round;stroke-linejoin:round;stroke-miterlimit:10;}
	.st206{fill:#34A853;stroke:#34A853;stroke-miterlimit:10;}
	.st207{fill:#4E85EB;stroke:#4E85EB;stroke-miterlimit:10;}
	.st208{fill:#D85040;stroke:#D85040;stroke-linejoin:round;}
	.st209{fill:#BDC0C4;stroke:#BDC0C4;stroke-linecap:round;stroke-linejoin:round;}
	.st210{fill:#3C4043;stroke:#3C4043;stroke-width:0.25;stroke-miterlimit:10;}
	.st211{fill:#FEEFC3;}
	.st212{fill:#202124;stroke:#202124;stroke-miterlimit:10;}
	.st213{fill:#8C5338;}
	.st214{fill:#D7BAAC;}
	.st215{fill:none;stroke:#FFFDFC;stroke-miterlimit:10;}
	.st216{fill:#F2F2F4;}
	.st217{fill:#E8EAED;stroke:#3C4043;stroke-miterlimit:10;}
	.st218{fill:#7B4C38;}
	.st219{fill:#EABFB0;}
	.st220{fill:#EFCABB;}
	.st221{opacity:0.6;fill:#804340;}
	.st222{fill:#4285F4;stroke:#3C4043;stroke-miterlimit:10;}
	.st223{opacity:0.6;}
	.st224{fill:#F2BC42;stroke:#3D4043;stroke-miterlimit:10;}
	.st225{fill:#2A2C32;}
	
		.st226{fill-rule:evenodd;clip-rule:evenodd;fill:#FFFFFF;stroke:#3C4043;stroke-linecap:round;stroke-linejoin:round;stroke-miterlimit:10;}
	
		.st227{fill-rule:evenodd;clip-rule:evenodd;fill:#3C4043;stroke:#3C4043;stroke-linecap:round;stroke-linejoin:round;stroke-miterlimit:10;}
	.st228{fill-rule:evenodd;clip-rule:evenodd;fill:#444343;}
	.st229{fill:#979CA3;}
	.st230{fill:#F7D575;}
	.st231{clip-path:url(#SVGID_12_);fill:#3C4043;stroke:#3C4043;stroke-linecap:round;stroke-linejoin:round;stroke-miterlimit:10;}
	.st232{fill:#D9DBDF;stroke:#D9DBDF;stroke-linecap:round;stroke-linejoin:round;stroke-miterlimit:10;}
	.st233{fill:#FFFFFF;stroke:#D85040;stroke-linecap:round;stroke-linejoin:round;stroke-miterlimit:10;}
	.st234{fill:#D9DBDF;}
	.st235{fill:#D4E2F9;stroke:#3D4043;stroke-miterlimit:10;}
	.st236{fill:none;stroke:#D9DBDF;stroke-linecap:round;stroke-linejoin:round;stroke-miterlimit:10;}
	.st237{fill:#34A853;stroke:#34A853;stroke-linecap:round;stroke-linejoin:round;}
	.st238{fill:#696C71;}
	
		.st239{fill-rule:evenodd;clip-rule:evenodd;fill:#34A853;stroke:#34A853;stroke-linecap:round;stroke-linejoin:round;stroke-miterlimit:10;}
	.st240{fill:#E0C1AB;}
	.st241{fill:#D6B096;}
	.st242{clip-path:url(#SVGID_14_);fill:#EA4335;stroke:#EA4335;}
	.st243{clip-path:url(#SVGID_14_);fill:#CA5A46;}
	.st244{clip-path:url(#SVGID_14_);fill:none;stroke:#3C4043;stroke-linecap:round;stroke-linejoin:round;stroke-miterlimit:10;}
	.st245{fill:#CA8F6B;}
	.st246{fill:#EA4335;stroke:#EA4335;stroke-linecap:round;stroke-linejoin:round;}
	.st247{clip-path:url(#SVGID_16_);fill:#617FBA;}
	.st248{clip-path:url(#SVGID_16_);fill:#D2E3FC;}
	.st249{clip-path:url(#SVGID_16_);fill:none;stroke:#3C4043;stroke-linecap:round;stroke-linejoin:round;stroke-miterlimit:10;}
	.st250{fill:#DD5B52;stroke:#3D4043;stroke-miterlimit:10;}
	.st251{fill:#D18A68;stroke:#3D4043;stroke-linecap:round;stroke-linejoin:round;stroke-miterlimit:10;}
</style>
<rect x="-6" y="-6" class="st0" width="1212" height="612"/>
<g>
	<g>
		<path class="st130" d="M758.4,188c0,0,70-2.9,79.7-75.5"/>
		<path class="st130" d="M810.1,273.3c0,0,41.4-83.6,64.5-42.5c0,0,21.1-69.3,73.9-66"/>
		<path class="st130" d="M348.8,409.6c0,0,15.7-160.7-142.9-160.7"/>
		<path class="st207" d="M869.6,282.3c3.9,0,7.1-3.2,7.1-7.1s-3.2-7.1-7.1-7.1c-3.9,0-7.1,3.2-7.1,7.1S865.6,282.3,869.6,282.3z"/>
		<path class="st5" d="M274.7,347.6c3.1,0,5.6-2.5,5.6-5.6c0-3.1-2.5-5.6-5.6-5.6c-3.1,0-5.6,2.5-5.6,5.6
			C269.1,345.2,271.6,347.6,274.7,347.6z"/>
		<path class="st208" d="M244,216.1c2,0,3.6-1.6,3.6-3.6c0-2-1.6-3.6-3.6-3.6c-2,0-3.6,1.6-3.6,3.6C240.4,214.5,242,216.1,244,216.1
			z"/>
		<path class="st209" d="M872.7,127.2c2,0,3.6-1.6,3.6-3.6c0-2-1.6-3.6-3.6-3.6c-2,0-3.6,1.6-3.6,3.6
			C869.1,125.6,870.7,127.2,872.7,127.2z"/>
	</g>
	<circle class="st104" cx="181.1" cy="271" r="46"/>
	<g id="date_1_">
		<g>
			<g>
				<g>
					<path class="st158" d="M584,219.6l0.6-1.5l-1.4-1.1l0.3-1.6l-1.5-0.7l0.3-1.5l-1.4-0.5c0,0-8.9-11.8-13.3-17.6l-3.4,2.6
						c4.5,5.9,13.3,17.6,13.3,17.6l0,1.3l1.3,0.1l-0.4,1.3l1.3,0.4l-0.5,1.1l1,0.7l-0.7,0.8l0.6,0.9l0,0l-11.2,92l4.3,0.5l11.2-92.5
						l0.6-1.3L584,219.6z"/>
				</g>
				<path class="st120" d="M586.8,310l12.1-47.9l-41.2-5l0.2,49.4c1.3,0.2,2.3,1.3,2.2,2.7l-0.1,5.1l22.8,2.8l1.2-4.9
					C584.2,310.8,585.4,309.9,586.8,310z"/>
				<polyline class="st154" points="586.6,312.7 584.9,320 557.3,316.6 557.4,309.2 				"/>
				<polygon class="st154" points="588.8,313 602.6,258.1 554.9,252.3 555.2,308.9 				"/>
				<path class="st154" d="M604.6,258.3l-52.2-6.3l0.6-4.9c0.1-0.9,0.9-1.6,1.8-1.4l48.9,5.9c0.9,0.1,1.6,0.9,1.4,1.8L604.6,258.3z"
					/>
				<path class="st154" d="M603.6,251.6c0.1-12.2-9-22.8-21.4-24.3c-12.4-1.5-23.8,6.6-26.6,18.4"/>
				<g>
					<path class="st154" d="M559.2,252.4l0.2-1.3c0.1-0.9-0.5-1.7-1.4-1.8l0,0c-0.9-0.1-1.7,0.5-1.8,1.4l-0.2,1.3"/>
					<path class="st154" d="M566.2,253.3l0.2-1.3c0.1-0.9-0.5-1.7-1.4-1.8l0,0c-0.9-0.1-1.7,0.5-1.8,1.4l-0.2,1.3"/>
					<path class="st154" d="M573.1,254.1l0.2-1.3c0.1-0.9-0.5-1.7-1.4-1.8l0,0c-0.9-0.1-1.7,0.5-1.8,1.4l-0.2,1.3"/>
					<path class="st154" d="M587.1,255.8l0.2-1.3c0.1-0.9-0.5-1.7-1.4-1.8l0,0c-0.9-0.1-1.7,0.5-1.8,1.4l-0.2,1.3"/>
					<path class="st154" d="M594.1,256.7l0.2-1.3c0.1-0.9-0.5-1.7-1.4-1.8l0,0c-0.9-0.1-1.7,0.5-1.8,1.4l-0.2,1.3"/>
					<path class="st154" d="M601.1,257.5l0.2-1.3c0.1-0.9-0.5-1.7-1.4-1.8l0,0c-0.9-0.1-1.7,0.5-1.8,1.4l-0.2,1.3"/>
				</g>
			</g>
		</g>
		<line class="st154" x1="213.1" y1="486.5" x2="1008.1" y2="486.5"/>
		<g>
			<path class="st210" d="M604-14.4V90.9h-0.8V-14.4C603.5-14.4,603.7-14.4,604-14.4z"/>
			<circle class="st211" cx="601" cy="144.7" r="17"/>
			<path class="st158" d="M535.5,141.3c0-28.1,46.8-25.6,67.8-50.7c0.2-0.2,0.6-0.2,0.7,0c18.2,27.7,67.8,22.6,67.8,50.6H535.5z"/>
		</g>
		<g>
			<g>
				<path class="st212" d="M756.5,276.2c2.7,6.1,3.3,11.8-4.1,18.1c-4.7,4-10.8,5.9-16.7,7.8c-5.2,1.6-10.4,3.2-15.9,3.2
					c-5.4,0-11.1-1.9-14.4-6.2c-2.8-3.6-2.9-9.9,1.2-11.8c3.3-1.5,8,0.5,10.4-2.1c2.1-2.3,0.7-6.1-1.8-8.1c-2.4-1.9-5.6-2.8-8-4.6
					c-8.4-6.3,0.4-26.1,3.2-33.4c0.3-0.8,0.7-1.7,1-2.5c5.6-13.7,12.4-25.9,12.4-25.9c-0.6,1.1,4.7,9.4,5.2,10.5
					c3.9,7.9,7.8,15.8,11.7,23.7c3.8,7.6,7.5,15.3,11.3,22.9C753.7,270.7,755.3,273.5,756.5,276.2z"/>
				<path class="st213" d="M743.3,330.5l1-29l1.3-20.9l-2.3-15.8l0-0.2c0,0-2.8,1.5-13.3-2.9c-6.9-2.9-11-12.7-13-25.6
					c-0.7-4.7-1.2-10-1.3-15.3c-0.1-5.1-0.1-10.5,0.2-15.9c1.4-25.7,26.9-26.9,28.2-26.9c0.1,0.8,0.1,1.7,0.2,2.5
					c0.6,6.7,35.4,30,35.4,30c0.2,1,0.3,1.5,0.3,1.5c7.2-4.4,12.4,3.4,12.4,12c0,8.6-12.4,12-12.4,12c-0.4,7.1,2.8,18.6,6.9,30
					l3.8,10.1c5.4,13.7,10.8,25,10.8,25l12,29.3H743.3z"/>
				<path class="st214" d="M779.6,210.6c0,0-34.8-23.3-35.4-30c-0.1-0.9-0.2-1.7-0.2-2.5c0,0,0,0,0,0s14.4,1.6,23.5,8.7
					C775.1,192.7,778.6,206.1,779.6,210.6z"/>
				<path class="st212" d="M744.3,180.9c-31.7,4.9-28.5,43.7-28.5,43.7s-0.9-1.9-1.8-5.5c-0.2-0.9-0.4-1.9-0.6-3
					c-1.1-6.4-1.5-16.2,2.2-28.3c4.6-15.3,15.9-19.1,22.7-20c1.2-0.2,2.3-0.2,3.1-0.2c1.4,0,2.2,0.1,2.2,0.1s0,0,0,0
					c0.1,0.1,0.2,0.3,0.4,0.6C745.2,170,748,175,744.3,180.9z"/>
				<path class="st212" d="M826.5,274.6c-0.1,1-0.1,2,0.1,3c1,5.4,6.8,8.6,8.6,13.8c2,5.9-2.5,12.6-8.3,14.7
					c-5.9,2.1-12.5,0.5-18-2.4c-11.8-6.2-17.1-15.8-19.7-28.2c-2.8-13-9.6-25.8-9.2-39.4c0,0,12.4-3.3,12.4-12
					c0-8.6-5.3-16.4-12.4-12c0,0-34-24.1-35.7-31.2c0-0.1,0-0.2-0.1-0.3c-0.1-0.8-0.1-1.7-0.2-2.5c-0.3-4.4-0.4-8.3-0.4-9.7
					c0-0.4,0-0.6,0-0.6c0,0,0,0,0,0l1.5,0l1.3,0h1.1l6.1,0c0,0,1.9,0,4.9,0.2c0.4,0,0.7,0.1,1.1,0.1c6,0.6,15.3,2.5,21.3,7.9
					c2.3,2.1,6.1,8.7,10.5,17.6c0.2,0.4,0.4,0.8,0.6,1.2c2.3,4.6,5.7,9.8,7.2,14.7c1.9,6.1-0.4,12.6,1.7,18.5
					c1.2,3.3,3.9,5.8,6.5,8.1c2.6,2.4,5.2,5.1,5.9,8.5c0.7,3.4-1.3,7.7-4.8,8c4.1,0.7,8.4,1.4,12.1,3.4c3.7,2,6.8,5.6,7.2,9.8
					C828,268.7,826.8,271.7,826.5,274.6z"/>
				<path class="st212" d="M761.1,254.7c-2.1,10.3-7.7,19.9-15.5,26.9l-2.3-15.8c0.2,0,0.4-0.1,0.6-0.1
					C750.9,264.5,757.2,260.5,761.1,254.7z"/>
				
					<ellipse transform="matrix(0.1619 -0.9868 0.9868 0.1619 487.7627 898.1866)" class="st212" cx="772.6" cy="162" rx="10.3" ry="10.3"/>
				<g>
					<path class="st215" d="M777.1,241.5c0-3.9,3.2-7.1,7.1-7.1c3.9,0,7.1,3.2,7.1,7.1c0,3.9-3.2,7.1-7.1,7.1
						C780.3,248.6,777.1,245.4,777.1,241.5z"/>
				</g>
			</g>
			<path class="st158" d="M895.4,445.7c-0.1,3.1,0.2,5.9-0.6,8.8c-0.7,2.4-2.5,5-4,7c-0.6,0.8-1.3,1.5-2.2,2.1
				c-2.1,1.5-4.7,2.3-7.3,2.5c-1.6,0.1-3.3,0.1-4.9-0.1c-1.9-0.2-3.9-0.6-5.8-1c-3.7-0.7-8-2.7-11.2-0.4c-3.3,2.4-7.4,6.2-10.2,9.2
				c-10.3,8.3-22,14.4-34.6,18.2c-47.8,14.3-123.9,11.3-123.9,11.3s-45,13.6-47.6-9.9c-1.4-13.1,16.5-115.4,20.9-138.7
				c4.4-23.3,23.8-53.4,64.6-58.3c40.8-4.9,99.1-2.9,118.5,13.6c12.4,10.5,18.8,31,24.2,45.7c4.1,10.9,7.7,22.1,10.6,33.4
				c1.9,7.5,4.1,14.9,5.8,22.4c1.2,5.3,3.6,12.7-0.9,17C892.3,432.4,895.6,439,895.4,445.7z"/>
			<path class="st121" d="M836.4,385.6l-1.5-32.8c0-0.4-0.3-0.6-0.7-0.6c-0.4,0-0.6,0.3-0.6,0.7l1.5,33.2l-5.8,55.1l9.9,7.6v-10.1
				L836.4,385.6z"/>
			<path class="st160" d="M888.9,463c-0.1,0.2-0.2,0.4-0.3,0.6c-2.1,1.5-4.7,2.3-7.3,2.5c-1.6,0.1-3.3,0.1-4.9-0.1
				c-0.5-0.5-0.8-1.1-1.1-1.8c-0.7-2-0.4-4.2,0.6-6.1c0.9-1.9,2.3-3.5,3.7-5c1.1-1.2,2.7-8.3,5.8-5.4c1.3,1.2,3.2,5.3,3.7,6.8
				C890,457.2,890,460.3,888.9,463z"/>
			<path class="st121" d="M694.9,450.8c2.2,0.9,8.5,4,8.5,4l-7.7-45.7l0.6-5.4c0-0.4-0.2-0.7-0.6-0.7c-0.4,0-0.7,0.2-0.7,0.6
				l-4.9,43.8c0,0.1,0,0.1,0,0.2c-6-1.8-12.5-1.7-18.4,0.1c-7.8,2.5-14.7,8.5-18.3,15.9c-0.2,0.3,0,0.7,0.3,0.9
				c0.1,0,0.2,0.1,0.3,0.1c0.2,0,0.5-0.1,0.6-0.4c3.4-7.1,10-12.8,17.5-15.2c5.9-1.9,12.6-2.1,18.5,0.1
				C691.7,449.4,693.8,450.4,694.9,450.8z"/>
			<path class="st121" d="M885.3,428.7c-0.1,0-0.2,0-0.3-0.1c-8.4-4.2-18.3-5-27.3-2.3c-0.4,0.1-0.8-0.1-0.9-0.5
				c-0.1-0.4,0.1-0.8,0.5-0.9c9.3-2.9,19.7-2,28.4,2.3c0.4,0.2,0.5,0.6,0.3,1C885.8,428.6,885.6,428.7,885.3,428.7z"/>
			<path class="st121" d="M850.4,428.6c-0.2,0-0.3-0.1-0.5-0.2c-0.3-0.3-0.3-0.7,0-1c6.8-7.5,16.9-11.8,27-11.7
				c0.4,0,0.7,0.3,0.7,0.7c0,0.4-0.3,0.7-0.7,0.7c0,0,0,0,0,0c-9.7-0.2-19.4,4-25.9,11.2C850.8,428.5,850.6,428.6,850.4,428.6z"/>
			<polygon class="st213" points="744.7,295 765.9,352.3 798.2,295 769.6,290.4 			"/>
			<g>
				<g>
					<g>
						
							<rect x="740.7" y="331.5" transform="matrix(0.9915 -0.1298 0.1298 0.9915 -42.5203 99.5553)" class="st154" width="3.9" height="89"/>
						<g>
							<polygon class="st216" points="742.5,390 746.9,393.4 746.2,388 741.8,384.6 							"/>
							<polygon class="st216" points="749.3,412 744.9,408.6 745.6,414 750,417.4 							"/>
							<polygon class="st216" points="740.9,378 745.3,381.4 744.6,376 740.2,372.6 							"/>
							<polygon class="st216" points="744.1,402 748.5,405.4 747.8,400 743.4,396.6 							"/>
							<polygon class="st217" points="739.4,366 743.8,369.4 743.1,364 738.6,360.6 							"/>
							<polygon class="st217" points="736.2,342 740.6,345.4 739.9,340 735.5,336.6 							"/>
							<polygon class="st217" points="737.8,354 742.2,357.4 741.5,352 737.1,348.6 							"/>
						</g>
					</g>
					<polygon class="st154" points="747.2,338 752.1,420.5 756,420.3 751.2,338 					"/>
					<path class="st206" d="M727.8,395.4l5.1,24.8c0.5,2.2,2.6,3.8,4.9,3.5l21.3-2.8c2.3-0.3,3.9-2.3,3.8-4.6l-1.5-25.2
						c-0.2-3-0.1-6,0.1-9l-1.2-21l-39.1,5.1l4.3,20.7C726.3,389.5,727.2,392.5,727.8,395.4z"/>
					<path class="st154" d="M766.1,427.8l-2.2-36.9c-0.2-2.9-0.1-5.9,0.1-8.8l0,0l-1.4-24.4c-0.1-1.8-1.7-3.1-3.4-2.8l-38.7,5.1
						c-1.8,0.2-2.9,1.9-2.6,3.6l4.9,23.9l0,0c1,2.7,1.8,5.6,2.3,8.4l7.4,36.3L766.1,427.8z"/>
					<path class="st154" d="M736.4,387.9c-1.9-2.7-5.1-4.3-8.4-3.7c-2.2,0.4-4,1.6-5.2,3.3"/>
					<path class="st154" d="M764,382.1c-1.6-1.3-3.6-2.1-5.8-1.9c-3.3,0.3-6,2.7-7.1,5.8"/>
					<path class="st154" d="M743.1,382.2c-3.2,0.4-5.7,2.7-6.7,5.7l6.7,42.9l12.5-1.6l-4.5-43.2
						C749.3,383.3,746.3,381.8,743.1,382.2z"/>
				</g>
			</g>
			<g>
				<path class="st218" d="M885,447.4c-1.2,5.2-2.9,11.1-5.1,17.2c-6,16.2-16.1,32.7-32.5,34.9c-33.3,4.4-48.8-31.2-59.2-46.9
					c-10.4-15.7-15.8-24.7-21.9-29.2c-7-0.3-13.7,3.1-17,5.7c-2.2,1.7-5.7,1.5-6.7-0.6c-1.6,0.3-3-0.6-3.7-1.6
					c-0.8-1.2-1-2.9-0.6-4.3c-1.5-0.3-2.8-1.3-3.4-2.7c-0.7-1.6-0.3-3.1-0.1-4.7c0.1-1.3,0.6-2.6,1.1-3.8c1-2.6,2.7-4.9,4.4-7
					c2.3-2.7,4.9-5.9,7.7-8.1c-4.1-1.2-5.6,1.3-7.1,2.1c-9.8,5.7-10.1,3.9-9.8,0.5c0.3-3.9,8.4-12.5,13.2-13.9
					c4.8-1.4,15.7-1.2,15.7-1.2s-13-16.3-3.7-17c2.8-0.2,14.9,14.6,22.5,22.3c7.6,7.7,60.6,56.6,60.6,56.6l-0.3-6.1
					c0.5-2.5,2.5-4.4,4.9-4.9c2.5-0.5,4.9-0.9,7.2-1.1c1.1-0.1,2.2-0.2,3.3-0.2C872.8,433.4,885,447.5,885,447.4
					C885,447.5,885,447.5,885,447.4z"/>
				<path class="st154" d="M885,447.4c-1.2,5.2-2.9,11.1-5.1,17.2c-6,16.2-16.1,32.7-32.5,34.9c-33.3,4.4-48.8-31.2-59.2-46.9
					c-10.4-15.7-15.8-24.7-21.9-29.2c-7-0.3-13.7,3.1-17,5.7c-2.2,1.7-5.7,1.5-6.7-0.6c-1.6,0.3-3-0.6-3.7-1.6
					c-0.8-1.2-1-2.9-0.6-4.3c-1.5-0.3-2.8-1.3-3.4-2.7c-0.7-1.6-0.3-3.1-0.1-4.7c0.1-1.3,0.6-2.6,1.1-3.8c1-2.6,2.7-4.9,4.4-7
					c2.3-2.7,4.9-5.9,7.7-8.1c-4.1-1.2-5.6,1.3-7.1,2.1c-9.8,5.7-10.1,3.9-9.8,0.5c0.3-3.9,8.4-12.5,13.2-13.9
					c4.8-1.4,15.7-1.2,15.7-1.2s-13-16.3-3.7-17c2.8-0.2,14.9,14.6,22.5,22.3c7.6,7.7,60.6,56.6,60.6,56.6l-0.3-6.1
					c0.5-2.5,2.5-4.4,4.9-4.9c2.5-0.5,4.9-0.9,7.2-1.1c1.1-0.1,2.2-0.2,3.3-0.2C872.8,433.4,885,447.5,885,447.4
					C885,447.5,885,447.5,885,447.4z"/>
				<g>
					<path class="st121" d="M738.5,422.7c3.1-9.8,10.7-17,19.2-18.5l-0.1-0.7c-8.7,1.5-16.5,8.9-19.7,18.9L738.5,422.7z"/>
					<path class="st121" d="M742.8,428.6c1.7-7.4,10.1-12.7,17.1-14l-0.1-0.7c-7.2,1.4-15.8,6.9-17.6,14.5L742.8,428.6z"/>
					<path class="st121" d="M748.3,396.5c1.4-0.8,3.3-1.4,6.1-1.9l-0.1-0.7c-2.9,0.5-4.9,1.1-6.4,2L748.3,396.5z"/>
				</g>
				<path class="st160" d="M885,447.4c-1.2,5.2-2.9,11.1-5.1,17.2c-1.3-6.3-6.8-24.5-26.6-30.9c0.3-0.1,0.7-0.1,1-0.2
					C872.8,433.4,885,447.5,885,447.4C885,447.5,885,447.5,885,447.4z"/>
			</g>
			<g>
				<path class="st218" d="M851.2,503.4c-9.9,0-41.6,0.2-53.3,0.3c-9.8,0.1-80.3-0.2-109.8-0.3h0c-7.9,0-12.9,0-12.9,0
					s-17.6,0.2-8.8-23c2.3-6.1,8.2-12.5,12.4-16.4c1.1-1,2.3-1.8,3.7-2.3c1.8-0.6,3.8-0.7,5.7-0.3c20.7,5,96.9,23,115.5,23
					c10.3,0,22.2,5.8,34.5,9.5c9.4,2.8,12.1,5.2,14,7.1C853,501.9,852.4,503.4,851.2,503.4z"/>
				<path class="st154" d="M851.2,503.4c-9.9,0-41.6,0.2-53.3,0.3c-9.8,0.1-80.3-0.2-109.8-0.3h0c-7.9,0-12.9,0-12.9,0
					s-17.6,0.2-8.8-23c2.3-6.1,8.2-12.5,12.4-16.4c1.1-1,2.3-1.8,3.7-2.3c1.8-0.6,3.8-0.7,5.7-0.3c20.7,5,96.9,23,115.5,23
					c10.3,0,22.2,5.8,34.5,9.5c9.4,2.8,12.1,5.2,14,7.1C853,501.9,852.4,503.4,851.2,503.4z"/>
				<path class="st160" d="M690.7,503.4c-0.6,0-1.5,0-2.6,0h0c-7.9,0-12.9,0-12.9,0s-17.6,0.2-8.8-23c2.3-6.1,8.2-12.5,12.4-16.4
					c1.1-1,2.3-1.8,3.7-2.3c-2,3-2.6,6-2.6,11.3C679.8,482.6,687.1,496,690.7,503.4z"/>
			</g>
		</g>
		<path class="st105" d="M291.7,486.8c0,0,45.6-151.4,49.2-166.4c3.6-15,28.8-44.4,59.4-48.6c30.6-4.2,88.2-7.8,113.5,20.4
			c25.2,28.2,43.2,96.1,43.2,96.1L508.4,405l5.3,80.7L291.7,486.8z"/>
		<path class="st154" d="M291.7,486.8c0,0,45.6-151.4,49.2-166.4c3.6-15,28.8-44.4,59.4-48.6c30.6-4.2,88.2-7.8,113.5,20.4
			c25.2,28.2,43.2,96.1,43.2,96.1L508.4,405l5.3,80.7L291.7,486.8z"/>
		<path class="st219" d="M540.8,486.1c-23.4,2.4-151.3,6.6-156.1,6c-4.8-0.6-12.6-0.6-16.8-0.6c-4.2,0-22.2,5.4-27,5.4h-27.3
			c-2.5,0-4.2-2.6-3.1-4.9c3-6,9.4-15.9,20.8-19.1c9.5-2.7,25.3-5.4,38.7-7h0c8.8-1.1,16.6-1.7,21-1.5c0.8,0,1.5,0.1,2.1,0.2
			c5.2,0.7,48.4-13.2,80.6-23.9c6.6-2.2,12.7-4.2,17.9-6l0,0c10.5-3.5,17.4-5.9,17.4-5.9l-0.2-8.4l-0.4-15.2l41-14.2l0,0
			c0,0,0,0,0,0l3.1-1.1l0,0l2.6-0.9c0,0,11.4,51,12.6,60.6C569,459.1,564.2,483.7,540.8,486.1z"/>
		<path class="st154" d="M540.8,486.1c-23.4,2.4-151.3,6.6-156.1,6c-4.8-0.6-12.6-0.6-16.8-0.6c-4.2,0-22.2,5.4-27,5.4h-27.3
			c-2.5,0-4.2-2.6-3.1-4.9c3-6,9.4-15.9,20.8-19.1c9.5-2.7,25.3-5.4,38.7-7h0c8.8-1.1,16.6-1.7,21-1.5c0.8,0,1.5,0.1,2.1,0.2
			c5.2,0.7,48.4-13.2,80.6-23.9c6.6-2.2,12.7-4.2,17.9-6l0,0c10.5-3.5,17.4-5.9,17.4-5.9l-0.2-8.4l-0.4-15.2l41-14.2l0,0
			c0,0,0,0,0,0l3.1-1.1l0,0l2.6-0.9c0,0,11.4,51,12.6,60.6C569,459.1,564.2,483.7,540.8,486.1z"/>
		<path class="st160" d="M372.7,459.6c0,0-10.2,3.7-15.7,3.7c-5.4,0,10.8-12.6,10.8-12.6L372.7,459.6z"/>
		<polygon class="st160" points="423.1,401.4 405.7,340.8 439.1,397.6 430.3,408.1 		"/>
		<path class="st160" d="M473.7,440.6c6.6-2.2,12.7-4.2,17.9-6L449,473.4L473.7,440.6z"/>
		<path class="st160" d="M394.3,476c-5-1.4-24.3-10.1-24.3-10.1h0c8.8-1.1,16.6-1.7,21-1.5C393.5,468.6,398.1,477,394.3,476z"/>
		<path class="st220" d="M604.4,278.4c0,3-10.2,15-10.2,15s-2.4,18.6-7.8,25.8c-5.4,7.2-34.8,11.4-34.8,11.4
			s-81.6,128.5-100.9,141.7c-19.2,13.2-52.8,7.2-64.8,0c-3.8-2.3-7-5.3-9.6-8.3c-5.6-6.6-8.4-13.3-8.4-13.3s29.3-28.6,45.3-42.2
			c0.1-0.1,0.1-0.1,0.2-0.2c1.4-1.2,2.7-2.2,3.8-3.1c0,0,0,0,0.1-0.1c0,0,0,0,0,0c0,0,0,0,0,0c0,0,0,0,0,0c3-2.3,5-3.7,5.8-3.6
			l7.2,3.6c0,0,81-93,89.4-99.7c8.4-6.6,25.8-22.2,27-28.2c1.2-6,6.6-10.8,8.4-6c1.8,4.8,2.4,19.8,0,22.2c-2.4,2.4,0,2.4,0,2.4
			s37.2-11.4,42-17.4C602,272.4,604.4,275.4,604.4,278.4z"/>
		<path class="st154" d="M604.4,278.4c0,3-10.2,15-10.2,15s-2.4,18.6-7.8,25.8c-5.4,7.2-34.8,11.4-34.8,11.4
			s-81.6,128.5-100.9,141.7c-19.2,13.2-52.8,7.2-64.8,0c-3.8-2.3-7-5.3-9.6-8.3c-5.6-6.6-8.4-13.3-8.4-13.3s29.3-28.6,45.3-42.2
			c0.1-0.1,0.1-0.1,0.2-0.2c1.4-1.2,2.7-2.2,3.8-3.1c0,0,0,0,0.1-0.1c0,0,0,0,0,0c0,0,0,0,0,0c0,0,0,0,0,0c3-2.3,5-3.7,5.8-3.6
			l7.2,3.6c0,0,81-93,89.4-99.7c8.4-6.6,25.8-22.2,27-28.2c1.2-6,6.6-10.8,8.4-6c1.8,4.8,2.4,19.8,0,22.2c-2.4,2.4,0,2.4,0,2.4
			s37.2-11.4,42-17.4C602,272.4,604.4,275.4,604.4,278.4z"/>
		<g>
			<path class="st121" d="M356.8,462.6c-0.4,0-0.7-0.2-0.8-0.6c-3.1-10.2-6-20.8-8.8-31c-2.8-10.2-5.7-20.7-8.8-30.9
				c-0.1-0.4,0.1-0.9,0.6-1.1c0.4-0.1,0.9,0.1,1.1,0.6c3.1,10.2,6,20.8,8.8,31c2.8,10.2,5.7,20.7,8.8,30.9c0.1,0.4-0.1,0.9-0.6,1.1
				C356.9,462.6,356.8,462.6,356.8,462.6z"/>
		</g>
		<g>
			<path class="st220" d="M410.1,270.9c0,0,15.3,16.1,28.9,16.1c23.9,0,26-11.1,25.5-13.9l3.8-17.1v0c0-0.1,0.1-0.2,0.1-0.4
				l3.3-15.1c0,0-1.7-3.3-0.9-4.7c0.1-0.1,0.1-0.2,0.2-0.3c0,0,0,0,0.1-0.1c4.9-3.5,16.1-11.2,22.1-14.1c7.8-3.9-3.9-29.6-3.9-29.6
				s8.4-2.2,3.3-8.6c-2.1-2.7-9.8-10.2-14.8-17.1c-5-7-13.1-8.9-13.1-8.9c-22.4,6.2-31.6,36.4-31.6,36.4c-7.1-4-14.4,4.7-13.8,12.4
				c0.6,7.7,8.4,12.1,8.4,12.1c0,0,0,0,0,0.1c-0.1,0.9-3.7-2.5-4.3-0.9L410.1,270.9z"/>
			<path class="st154" d="M410.1,270.9c0,0,15.3,16.1,28.9,16.1c23.9,0,26-11.1,25.5-13.9l3.8-17.1v0c0-0.1,0.1-0.2,0.1-0.4
				l3.3-15.1c0,0-1.7-3.3-0.9-4.7c0.1-0.1,0.1-0.2,0.2-0.3c0,0,0,0,0.1-0.1c4.9-3.5,16.1-11.2,22.1-14.1c7.8-3.9-3.9-29.6-3.9-29.6
				s8.4-2.2,3.3-8.6c-2.1-2.7-9.8-10.2-14.8-17.1c-5-7-13.1-8.9-13.1-8.9c-22.4,6.2-31.6,36.4-31.6,36.4c-7.1-4-14.4,4.7-13.8,12.4
				c0.6,7.7,8.4,12.1,8.4,12.1c0,0,0,0,0,0.1c-0.1,0.9-3.7-2.5-4.3-0.9L410.1,270.9z"/>
			<path class="st221" d="M469.1,161.8c0,0-4,12.2-14.1,13.8c-6.4,1-7.1,1.1-9.2,1.5c-2.6,1.8-5.1,6.3-5.1,6.3l-3.2-9.4L469.1,161.8
				z"/>
			<path class="st160" d="M448.8,223c0.4,0.5,8.3,16.8,19.5,33c0-0.1,0.1-0.2,0.1-0.4l3.3-15.1c0,0-1.7-3.3-0.9-4.7
				c0-0.1,0.1-0.2,0.2-0.3c0,0,0,0,0.1-0.1L448.8,223z"/>
			<path class="st7" d="M417.9,225.8c2.7,2,6.6,1,7.9-2.1c0.2-0.4,0.4-0.8,0.5-1.1c1-1.9,1.4-4.5,1.4-4.5s-16.8-11.7-3.6-22.2
				c13.3-10.5,16.8,11.7,19.3,17.7c3.7,9,18.1,28,28.2,27c13.3-1.3,43-4.1,21.1-44.4c-5.5-10.1-24.1,18-29.4,16.2
				c-13.7-4.7-22.3-34.1-22.3-34.1l3.2-5.3c3,0.7,6.3,0.8,9.5,0.3c13.9-2.2,23.4-15.3,21.2-29.3c-1.3-8-6.1-14.5-12.6-18.1
				c-4.9-2.8-10.7-4-16.7-3c-13.1,2.1-22.3,13.8-21.4,26.8c-1.7-0.2-3.5-0.2-5.3,0.1c-10.4,1.7-17.6,11.2-16.5,21.6
				c0,0.3,0.1,0.7,0.1,1c0.3,2.1,1,4.1,1.9,5.8l0,0C404.4,178.2,383.5,200.3,417.9,225.8z"/>
			<path class="st154" d="M417.9,225.8c2.7,2,6.6,1,7.9-2.1c0.2-0.4,0.4-0.8,0.5-1.1c1-1.9,1.4-4.5,1.4-4.5s-16.8-11.7-3.6-22.2
				c13.3-10.5,16.8,11.7,19.3,17.7c3.7,9,18.1,28,28.2,27c13.3-1.3,43-4.1,21.1-44.4c-5.5-10.1-24.1,18-29.4,16.2
				c-13.7-4.7-22.3-34.1-22.3-34.1l3.2-5.3c3,0.7,6.3,0.8,9.5,0.3c13.9-2.2,23.4-15.3,21.2-29.3c-1.3-8-6.1-14.5-12.6-18.1
				c-4.9-2.8-10.7-4-16.7-3c-13.1,2.1-22.3,13.8-21.4,26.8c-1.7-0.2-3.5-0.2-5.3,0.1c-10.4,1.7-17.6,11.2-16.5,21.6
				c0,0.3,0.1,0.7,0.1,1c0.3,2.1,1,4.1,1.9,5.8l0,0C404.4,178.2,383.5,200.3,417.9,225.8z"/>
		</g>
		<path class="st160" d="M417.2,405.1C417.3,405.1,417.3,405.1,417.2,405.1c-11.4,9.9-40.9,58.8-40.9,58.8
			c-5.6-6.6-8.4-13.3-8.4-13.3s29.3-28.6,45.3-42.2c0.1-0.1,0.1-0.1,0.2-0.2C415.4,406.6,416.8,405.5,417.2,405.1z"/>
		<path class="st221" d="M417.3,405.1C417.3,405.1,417.3,405.1,417.3,405.1C417.3,405.1,417.3,405.1,417.3,405.1
			C417.3,405.1,417.3,405.1,417.3,405.1z"/>
		<path class="st160" d="M508.4,405l41-14.2c-18.2,7.1-40.7,29.4-40.7,29.4L508.4,405z"/>
		<path class="st221" d="M552.5,389.8l-3.1,1.1c0,0,0,0,0,0C550.5,390.4,551.5,390.1,552.5,389.8z"/>
	</g>
	<g>
		<circle class="st105" cx="1028.6" cy="197.5" r="46"/>
	</g>
	<g>
		<g>
			<path class="st156" d="M112,242.6c0.1,0,0.3,0,0.4-0.1c6.6-3.6,14.4-3.9,21.3-0.9c0.5,0.2,1,0,1.2-0.5c0.2-0.5,0-1-0.5-1.2
				c-7.4-3.2-15.8-2.8-22.9,1c-0.5,0.2-0.6,0.8-0.4,1.3C111.4,242.4,111.7,242.6,112,242.6z"/>
		</g>
		<g>
			
				<ellipse transform="matrix(0.8387 -0.5446 0.5446 0.8387 -99.0887 129.9889)" class="st222" cx="169.9" cy="232.3" rx="10.8" ry="10.8"/>
		</g>
		<g>
			<g>
				
					<ellipse transform="matrix(0.8387 -0.5446 0.5446 0.8387 -120.5867 150.4356)" class="st222" cx="193.7" cy="278.8" rx="10.5" ry="10.5"/>
			</g>
		</g>
		<g>
			<g>
				
					<ellipse transform="matrix(0.8387 -0.5446 0.5446 0.8387 -113.6065 143.2603)" class="st222" cx="185.1" cy="263.4" rx="10.8" ry="10.8"/>
			</g>
			<g>
				
					<ellipse transform="matrix(0.8387 -0.5446 0.5446 0.8387 -123.4036 140.3576)" class="st222" cx="175.3" cy="278.5" rx="10.8" ry="10.8"/>
			</g>
		</g>
		<g>
			<g>
				
					<ellipse transform="matrix(0.8387 -0.5446 0.5446 0.8387 -106.5024 137.2668)" class="st222" cx="178.5" cy="248.4" rx="10.8" ry="10.8"/>
			</g>
			<g>
				
					<ellipse transform="matrix(0.8387 -0.5446 0.5446 0.8387 -116.2995 134.3641)" class="st222" cx="168.7" cy="263.5" rx="10.8" ry="10.8"/>
			</g>
			<g>
				
					<ellipse transform="matrix(0.8387 -0.5446 0.5446 0.8387 -126.0961 131.4615)" class="st222" cx="158.9" cy="278.6" rx="10.8" ry="10.8"/>
			</g>
		</g>
		<g>
			<g>
				
					<ellipse transform="matrix(0.8387 -0.5446 0.5446 0.8387 -101.252 119.5457)" class="st222" cx="151.2" cy="230.7" rx="10.8" ry="10.8"/>
			</g>
			<g>
				
					<ellipse transform="matrix(0.8387 -0.5446 0.5446 0.8387 -111.049 116.643)" class="st222" cx="141.4" cy="245.8" rx="10.8" ry="10.8"/>
			</g>
			<g>
				
					<ellipse transform="matrix(0.8387 -0.5446 0.5446 0.8387 -120.8456 113.7404)" class="st222" cx="131.6" cy="260.9" rx="10.8" ry="10.8"/>
			</g>
		</g>
		<g>
			
				<ellipse transform="matrix(0.8387 -0.5446 0.5446 0.8387 -108.9707 126.8065)" class="st222" cx="159.6" cy="247.4" rx="10.8" ry="10.8"/>
		</g>
		<g>
			
				<ellipse transform="matrix(0.8387 -0.5446 0.5446 0.8387 -118.8461 123.638)" class="st222" cx="149.3" cy="262.5" rx="10.8" ry="10.8"/>
		</g>
		<g>
			
				<ellipse transform="matrix(0.8387 -0.5446 0.5446 0.8387 -129.0967 121.1586)" class="st222" cx="140" cy="278.5" rx="10.8" ry="10.8"/>
		</g>
	</g>
	<g>
		<line class="st154" x1="1035.5" y1="172.5" x2="1035.5" y2="186.5"/>
		<g>
			<path class="st7" d="M1062.2,227.2c-5-4.8-8.7-10.9-11.2-17.5l-7.8-21.1c-2.6-7-11.8-7-14.4,0l-7.8,21.1
				c-2.5,6.7-6.2,12.8-11.2,17.5c-5.8,5.5-9.3,12.9-9.3,21c0,17.2,15.9,31.2,35.5,31.2c19.6,0,35.5-14,35.5-31.2
				C1071.5,240.1,1068,232.7,1062.2,227.2z"/>
		</g>
		<g>
			<path class="st154" d="M1062.2,227.2c-5-4.8-8.7-10.9-11.2-17.5l-7.8-21.1c-2.6-7-11.8-7-14.4,0l-7.8,21.1
				c-2.5,6.7-6.2,12.8-11.2,17.5c-5.8,5.5-9.3,12.9-9.3,21c0,17.2,15.9,31.2,35.5,31.2c19.6,0,35.5-14,35.5-31.2
				C1071.5,240.1,1068,232.7,1062.2,227.2z"/>
		</g>
		<g class="st223">
			<ellipse class="st157" cx="1053.8" cy="251.6" rx="2.5" ry="2.5"/>
		</g>
		<g class="st223">
			<circle class="st157" cx="1039.2" cy="261.7" r="1.9"/>
		</g>
		<g>
			<path class="st156" d="M1034.5,183.4c-6-3.8-13.9-4-20.3,0c-6.4,4-9.7,11.2-8.9,18.2L1034.5,183.4z"/>
		</g>
		<g>
			<path class="st154" d="M1034.5,183.4c-6-3.8-13.9-4-20.3,0c-6.4,4-9.7,11.2-8.9,18.2L1034.5,183.4z"/>
		</g>
	</g>
	<g>
		<g>
			<path class="st160" d="M653.2,503.5c-0.1-0.9-0.2-1.7-0.5-2.6c-0.2-0.5,0-1,0.3-1.3l0.2-0.2c0.1-0.1,0.1-0.3,0-0.4l-4.9-4.9
				c-0.1-0.1-0.3-0.1-0.4,0l-0.2,0.2c-0.3,0.3-0.8,0.4-1.3,0.3c-0.8-0.3-1.7-0.4-2.6-0.5L653.2,503.5z"/>
		</g>
		<g>
			<ellipse class="st222" cx="620.5" cy="504.1" rx="10" ry="10"/>
		</g>
		<g>
			<ellipse class="st222" cx="643.1" cy="504.1" rx="10" ry="10"/>
		</g>
		<g>
			<ellipse class="st160" cx="623.7" cy="501" rx="3.1" ry="3.1"/>
		</g>
	</g>
</g>
</svg>
