<?xml version="1.0" encoding="utf-8"?>
<!-- Generator: Adobe Illustrator 24.0.0, SVG Export Plug-In . SVG Version: 6.00 Build 0)  -->
<svg version="1.1" id="Layer_1" xmlns="http://www.w3.org/2000/svg" xmlns:xlink="http://www.w3.org/1999/xlink" x="0px" y="0px"
	 viewBox="0 0 1200 600" style="enable-background:new 0 0 1200 600;" xml:space="preserve">
<style type="text/css">
	.st0{fill:#FFFFFF;}
	.st1{fill:none;stroke:#3D4043;stroke-linecap:round;stroke-linejoin:round;}
	.st2{fill:#FFFFFF;stroke:#3D4043;stroke-linecap:round;stroke-linejoin:round;}
	.st3{fill:#E7E9EC;stroke:#E7E9EC;stroke-linecap:round;stroke-linejoin:round;}
	.st4{fill:#3D4043;stroke:#3D4043;stroke-linecap:round;stroke-linejoin:round;}
	.st5{fill:#F2BC42;stroke:#F2BC42;stroke-miterlimit:10;}
	.st6{fill:#EE8668;stroke:#3D4043;stroke-linecap:round;stroke-linejoin:round;stroke-miterlimit:10;}
	.st7{fill:#FBBC04;}
	.st8{fill:#EE8668;}
	.st9{fill:none;stroke:#3D4043;stroke-linecap:round;stroke-linejoin:round;stroke-miterlimit:10;}
	.st10{fill:#D4E2F9;stroke:#D4E2F9;stroke-linecap:round;stroke-linejoin:round;stroke-miterlimit:10;}
	.st11{fill:#D4E2F9;}
	.st12{fill:#7F3C1B;stroke:#3D4043;stroke-linecap:round;stroke-linejoin:round;stroke-miterlimit:10;}
	.st13{opacity:8.000000e-02;fill:#DEDEE4;}
	.st14{opacity:9.000000e-02;fill:#BABAC5;}
	.st15{opacity:0.22;fill:#DEDEE4;}
	.st16{opacity:8.000000e-02;fill:#303033;}
	.st17{opacity:0.17;fill:#BABAC5;}
	.st18{opacity:0.24;fill:#8C8C97;}
	.st19{opacity:9.000000e-02;fill:#303033;}
	.st20{opacity:0.13;fill:#BABAC5;}
	.st21{opacity:0.2;fill:#525258;}
	.st22{opacity:0.15;fill:#DEDEE4;}
	.st23{opacity:0.1;fill:#DEDEE4;}
	.st24{opacity:0.2;fill:#BABAC5;}
	.st25{opacity:8.000000e-02;fill:#8C8C97;}
	.st26{opacity:0.14;fill:#525258;}
	.st27{opacity:0.24;fill:#525258;}
	.st28{opacity:0.12;fill:#525258;}
	.st29{opacity:0.8;fill:#525258;}
	.st30{opacity:0.83;fill:#DEDEE4;}
	.st31{opacity:0.9;fill:#DEDEE4;}
	.st32{opacity:0.72;fill:#525258;}
	.st33{opacity:0.69;fill:#DEDEE4;}
	.st34{fill:#525258;}
	.st35{opacity:0.7;fill:#525258;}
	.st36{opacity:0.55;fill:#BABAC5;}
	.st37{opacity:0.51;fill:#BABAC5;}
	.st38{opacity:0.83;fill:#BABAC5;}
	.st39{opacity:0.89;fill:#BABAC5;}
	.st40{opacity:0.3;fill:#525258;}
	.st41{fill:#8C8C97;}
	.st42{opacity:5.000000e-02;fill:#DEDEE4;}
	.st43{opacity:0.21;fill:#8C8C97;}
	.st44{opacity:0.89;fill:#8C8C97;}
	.st45{fill:#303033;}
	.st46{fill:#BABAC5;}
	.st47{fill:#DEDEE4;}
	.st48{opacity:0.74;fill:#DEDEE4;}
	.st49{opacity:0.11;fill:#BABAC5;}
	.st50{opacity:0.5;fill:#BABAC5;}
	.st51{opacity:0.59;fill:#8C8C97;}
	.st52{opacity:0.1;fill:#303033;}
	.st53{opacity:0.88;fill:#DEDEE4;}
	.st54{opacity:0.61;fill:#BABAC5;}
	.st55{opacity:8.000000e-02;fill:#525258;}
	.st56{opacity:0.22;fill:#525258;}
	.st57{opacity:0.73;fill:#8C8C97;}
	.st58{opacity:0.86;fill:#BABAC5;}
	.st59{opacity:0.3;fill:#8C8C97;}
	.st60{opacity:0.71;fill:#8C8C97;}
	.st61{opacity:0.1;fill:#BABAC5;}
	.st62{opacity:0.25;fill:#BABAC5;}
	.st63{opacity:0.7;fill:#BABAC5;}
	.st64{opacity:0.15;fill:#525258;}
	.st65{opacity:0.58;fill:#8C8C97;}
	.st66{opacity:0.12;fill:#DEDEE4;}
	.st67{opacity:0.11;fill:#303033;}
	.st68{opacity:9.000000e-02;fill:#525258;}
	.st69{opacity:0.24;fill:#DEDEE4;}
	.st70{opacity:0.65;fill:#525258;}
	.st71{opacity:5.000000e-02;fill:#8C8C97;}
	.st72{opacity:0.64;fill:#525258;}
	.st73{opacity:0.22;fill:#8C8C97;}
	.st74{opacity:0.12;fill:#BABAC5;}
	.st75{opacity:0.65;fill:#BABAC5;}
	.st76{opacity:0.23;fill:#525258;}
	.st77{opacity:0.13;fill:#525258;}
	.st78{opacity:0.86;fill:#525258;}
	.st79{opacity:0.64;fill:#DEDEE4;}
	.st80{opacity:0.58;fill:#DEDEE4;}
	.st81{opacity:0.84;fill:#8C8C97;}
	.st82{opacity:0.69;fill:#8C8C97;}
	.st83{opacity:0.53;fill:#8C8C97;}
	.st84{opacity:0.68;fill:#525258;}
	.st85{opacity:0.65;fill:#8C8C97;}
	.st86{opacity:7.000000e-02;fill:#525258;}
	.st87{opacity:0.13;fill:#DEDEE4;}
	.st88{opacity:0.15;fill:#8C8C97;}
	.st89{opacity:5.000000e-02;fill:#BABAC5;}
	.st90{opacity:0.2;fill:#8C8C97;}
	.st91{opacity:7.000000e-02;fill:#BABAC5;}
	.st92{opacity:8.000000e-02;fill:#BABAC5;}
	.st93{opacity:6.000000e-02;fill:#DEDEE4;}
	.st94{opacity:0.16;fill:#BABAC5;}
	.st95{opacity:0.16;fill:#8C8C97;}
	.st96{fill:#F1B682;stroke:#3D4043;stroke-linecap:round;stroke-linejoin:round;}
	.st97{fill:#3D4043;stroke:#3D4043;stroke-linecap:round;stroke-linejoin:round;stroke-miterlimit:10;}
	.st98{fill:#F1B682;stroke:#3D4043;stroke-linecap:round;stroke-linejoin:round;stroke-miterlimit:10;}
	.st99{fill-rule:evenodd;clip-rule:evenodd;fill:#3D4043;}
	.st100{fill:#3D4043;}
	.st101{fill:#FFFFFF;stroke:#FFFFFF;stroke-linecap:round;stroke-linejoin:round;}
	.st102{fill:#4285F4;stroke:#4285F4;stroke-linecap:round;stroke-linejoin:round;stroke-miterlimit:10;}
	.st103{fill:#FFFFFF;stroke:#3D4043;stroke-linecap:round;stroke-linejoin:round;stroke-miterlimit:10;}
	.st104{fill:#D2E3FC;}
	.st105{fill:#E8EAED;}
	.st106{fill:none;stroke:#FFFFFF;stroke-linecap:round;stroke-linejoin:round;stroke-miterlimit:10;}
	.st107{fill:#FFFFFF;stroke:#BDC0C4;stroke-linecap:round;stroke-linejoin:round;stroke-miterlimit:10;}
	.st108{fill:none;stroke:#BDC0C4;stroke-linecap:round;stroke-linejoin:round;stroke-miterlimit:10;}
	.st109{fill:#E1A57D;stroke:#3D4043;stroke-linecap:round;stroke-linejoin:round;stroke-miterlimit:10;}
	.st110{fill:#E1A57D;}
	.st111{fill:none;stroke:#D4E2F9;stroke-linecap:round;stroke-linejoin:round;stroke-miterlimit:10;}
	.st112{fill:none;stroke:#3D4043;stroke-miterlimit:10;}
	.st113{fill:none;stroke:#D4E2F9;stroke-width:2;stroke-linecap:round;stroke-linejoin:round;stroke-miterlimit:10;}
	.st114{fill:#D4E2F9;stroke:#D4E2F9;stroke-width:0.9197;stroke-linecap:round;stroke-linejoin:round;stroke-miterlimit:10;}
	.st115{fill:#FFFFFF;stroke:#3D4043;stroke-miterlimit:10;}
	.st116{fill:#3D4043;stroke:#3D4043;stroke-linecap:round;stroke-miterlimit:10;}
	.st117{fill:#4285F4;}
	.st118{fill:#FFFFFF;stroke:#FFFFFF;stroke-linecap:round;stroke-linejoin:round;stroke-miterlimit:10;}
	.st119{fill:#FFFFFF;stroke:#3D4043;}
	.st120{fill:#EA4335;}
	.st121{fill:#3C4043;}
	.st122{fill:none;stroke:#ABAEB2;stroke-miterlimit:10;}
	.st123{fill:none;stroke:#ABAEB2;stroke-miterlimit:10;stroke-dasharray:6.0438,6.0438;}
	.st124{fill:#F8E19C;stroke:#3D4043;stroke-miterlimit:10;}
	.st125{fill:#F8E19C;}
	.st126{fill:#EA4335;stroke:#3D4043;stroke-miterlimit:10;}
	.st127{fill:none;stroke:#3D4043;stroke-linecap:round;stroke-miterlimit:10;}
	.st128{fill:#80868B;}
	.st129{fill:none;stroke:#F2BC42;stroke-linecap:round;stroke-linejoin:round;stroke-miterlimit:10;}
	.st130{fill:none;stroke:#BDC0C4;stroke-linecap:round;stroke-linejoin:round;}
	.st131{fill:#D85040;stroke:#3D4043;stroke-linecap:round;stroke-linejoin:round;stroke-miterlimit:10;}
	.st132{fill:#97674E;stroke:#97674E;stroke-linecap:round;stroke-linejoin:round;}
	.st133{fill:#EABC5A;stroke:#3D4043;stroke-linecap:round;stroke-linejoin:round;stroke-miterlimit:10;}
	.st134{fill:#5785E3;stroke:#3D4043;stroke-linecap:round;stroke-linejoin:round;stroke-miterlimit:10;}
	.st135{clip-path:url(#SVGID_2_);}
	.st136{fill:#E7E9EC;}
	.st137{fill:#D79663;}
	.st138{fill:#34A853;stroke:#34A853;stroke-linecap:round;stroke-linejoin:round;stroke-miterlimit:10;}
	.st139{fill:#754438;stroke:#3D4043;stroke-miterlimit:10;}
	.st140{fill:#754438;stroke:#3D4043;stroke-linecap:round;stroke-linejoin:round;stroke-miterlimit:10;}
	.st141{fill:#3D4043;stroke:#3D4043;stroke-miterlimit:10;}
	.st142{fill:#754438;stroke:#3D4043;stroke-linejoin:round;stroke-miterlimit:10;}
	.st143{fill:#E0E1E5;}
	.st144{fill:#EA4335;stroke:#EA4335;stroke-linecap:round;stroke-linejoin:round;stroke-miterlimit:10;}
	.st145{fill:none;stroke:#3D4043;stroke-miterlimit:10;stroke-dasharray:5.0418,8.0669;}
	.st146{fill:none;stroke:#3D4043;stroke-miterlimit:10;stroke-dasharray:3.0952,4.9524;}
	.st147{fill:none;stroke:#3D4043;stroke-miterlimit:10;stroke-dasharray:4.9402,7.9043;}
	.st148{fill:none;stroke:#3D4043;stroke-miterlimit:10;stroke-dasharray:5,8;}
	.st149{fill:none;stroke:#3D4043;stroke-miterlimit:10;stroke-dasharray:4.9249,7.8799;}
	.st150{fill:none;stroke:#3D4043;stroke-miterlimit:10;stroke-dasharray:4.9454,7.9126;}
	.st151{fill:#F0F0F0;}
	.st152{fill:#FFFFFF;stroke:#3D4043;stroke-linejoin:round;}
	.st153{fill:#D2D2D2;}
	.st154{fill:none;stroke:#3C4043;stroke-linecap:round;stroke-linejoin:round;stroke-miterlimit:10;}
	.st155{fill:#E8EAED;stroke:#E8EAED;stroke-linecap:round;stroke-linejoin:round;stroke-miterlimit:10;}
	.st156{fill:#34A853;}
	.st157{fill:#F2BC42;}
	.st158{fill:#FFFFFF;stroke:#3C4043;stroke-linecap:round;stroke-linejoin:round;stroke-miterlimit:10;}
	.st159{fill:#F5F8FD;stroke:#3D4043;stroke-linejoin:round;}
	.st160{fill:#3C4043;stroke:#3C4043;stroke-linecap:round;stroke-linejoin:round;stroke-miterlimit:10;}
	.st161{clip-path:url(#SVGID_4_);fill:#3C4043;stroke:#3C4043;stroke-linecap:round;stroke-linejoin:round;stroke-miterlimit:10;}
	
		.st162{fill-rule:evenodd;clip-rule:evenodd;fill:#4285F4;stroke:#4285F4;stroke-linecap:round;stroke-linejoin:round;stroke-miterlimit:10;}
	
		.st163{fill-rule:evenodd;clip-rule:evenodd;fill:none;stroke:#3D4043;stroke-linecap:round;stroke-linejoin:round;stroke-miterlimit:10;}
	.st164{fill-rule:evenodd;clip-rule:evenodd;fill:#FFFFFF;}
	.st165{fill:#E7E9EC;stroke:#3D4043;stroke-linecap:round;stroke-linejoin:round;stroke-miterlimit:10;}
	.st166{fill:#E7E9EC;stroke:#E7E9EC;stroke-linecap:round;stroke-linejoin:round;stroke-miterlimit:10;}
	.st167{fill:#BDC0C4;stroke:#BDC0C4;stroke-linecap:round;stroke-linejoin:round;stroke-miterlimit:10;}
	.st168{fill:none;stroke:#58A45C;stroke-linecap:round;stroke-linejoin:round;stroke-miterlimit:10;}
	.st169{fill:#4E85EB;}
	.st170{fill:#FFFFFF;stroke:#3D4043;stroke-width:1.0036;stroke-linecap:round;stroke-linejoin:round;stroke-miterlimit:10;}
	.st171{fill:#EEA38D;stroke:#3D4043;stroke-miterlimit:10;}
	.st172{fill:none;stroke:#3D4043;stroke-width:1.1075;stroke-linecap:round;stroke-linejoin:round;stroke-miterlimit:10;}
	.st173{fill:#3D4043;stroke:#3D4043;stroke-width:1.1075;stroke-linecap:round;stroke-linejoin:round;stroke-miterlimit:10;}
	.st174{fill:#FFFFFF;stroke:#3D4043;stroke-width:1.1075;stroke-linecap:round;stroke-linejoin:round;stroke-miterlimit:10;}
	.st175{fill:none;stroke:#3D4043;}
	.st176{fill-rule:evenodd;clip-rule:evenodd;fill:#FFFFFF;stroke:#3D4043;stroke-linecap:round;stroke-linejoin:round;}
	.st177{fill-rule:evenodd;clip-rule:evenodd;fill:#34A853;}
	.st178{fill:#E8EAED;stroke:#3C4043;stroke-linecap:round;stroke-linejoin:round;stroke-miterlimit:10;}
	.st179{fill:none;stroke:#3D4043;stroke-width:1.0036;stroke-linecap:round;stroke-linejoin:round;stroke-miterlimit:10;}
	.st180{fill-rule:evenodd;clip-rule:evenodd;fill:#FFFFFF;stroke:#3D4043;stroke-width:1.0036;}
	
		.st181{fill-rule:evenodd;clip-rule:evenodd;fill:#FFFFFF;stroke:#3D4043;stroke-width:1.0036;stroke-linecap:round;stroke-linejoin:round;}
	.st182{fill-rule:evenodd;clip-rule:evenodd;fill:#4E85EB;}
	.st183{fill:#D4E2F9;stroke:#D4E2F9;stroke-miterlimit:10;}
	.st184{fill:#EA4335;stroke:#3D4043;stroke-linecap:round;stroke-linejoin:round;stroke-miterlimit:10;}
	.st185{fill:#DFA68A;stroke:#3D4043;stroke-miterlimit:10;}
	.st186{fill:#DFA68A;stroke:#3D4043;stroke-linecap:round;stroke-linejoin:round;stroke-miterlimit:10;}
	.st187{fill:#DFA68A;stroke:#3D4043;stroke-linejoin:round;stroke-miterlimit:10;}
	.st188{fill:#FBBC04;stroke:#FBBC04;stroke-linecap:round;stroke-linejoin:round;stroke-miterlimit:10;}
	.st189{fill-rule:evenodd;clip-rule:evenodd;fill:#D2E3FC;}
	.st190{fill-rule:evenodd;clip-rule:evenodd;fill:#FFFFFF;stroke:#3D4043;}
	.st191{fill:none;stroke:#E7E9EC;stroke-linecap:round;stroke-linejoin:round;}
	.st192{fill:#EA4335;stroke:#EA4335;stroke-miterlimit:10;}
	.st193{fill:none;stroke:#FFFFFF;stroke-linecap:round;stroke-linejoin:round;}
	.st194{fill:none;stroke:#3D4043;stroke-linecap:round;}
	
		.st195{fill:#FFFFFF;filter:url(#Adobe_OpacityMaskFilter);stroke:#3D4043;stroke-linecap:round;stroke-linejoin:round;stroke-miterlimit:10;}
	.st196{mask:url(#mask0_1_);}
	.st197{fill:#E8EFFC;}
	.st198{fill:#F2BC42;stroke:#F2BC42;stroke-linecap:round;stroke-linejoin:round;stroke-miterlimit:10;}
	.st199{fill:#58A45C;stroke:#58A45C;stroke-linecap:round;stroke-linejoin:round;stroke-miterlimit:10;}
	.st200{fill-rule:evenodd;clip-rule:evenodd;fill:#3D4043;stroke:#3D4043;stroke-linejoin:round;}
	.st201{fill-rule:evenodd;clip-rule:evenodd;fill:#E8EAED;}
	.st202{fill-rule:evenodd;clip-rule:evenodd;fill:#EA4335;}
	
		.st203{fill-rule:evenodd;clip-rule:evenodd;fill:none;stroke:#3C4043;stroke-linecap:round;stroke-linejoin:round;stroke-miterlimit:10;}
	.st204{fill-rule:evenodd;clip-rule:evenodd;fill:#4285F4;}
	
		.st205{fill-rule:evenodd;clip-rule:evenodd;fill:#4E86EC;stroke:#4E86EC;stroke-linecap:round;stroke-linejoin:round;stroke-miterlimit:10;}
	.st206{fill:#34A853;stroke:#34A853;stroke-miterlimit:10;}
	.st207{fill:#4E85EB;stroke:#4E85EB;stroke-miterlimit:10;}
	.st208{fill:#D85040;stroke:#D85040;stroke-linejoin:round;}
	.st209{fill:#BDC0C4;stroke:#BDC0C4;stroke-linecap:round;stroke-linejoin:round;}
	.st210{fill:#3C4043;stroke:#3C4043;stroke-width:0.25;stroke-miterlimit:10;}
	.st211{fill:#FEEFC3;}
	.st212{fill:#202124;stroke:#202124;stroke-miterlimit:10;}
	.st213{fill:#8C5338;}
	.st214{fill:#D7BAAC;}
	.st215{fill:none;stroke:#FFFDFC;stroke-miterlimit:10;}
	.st216{fill:#F2F2F4;}
	.st217{fill:#E8EAED;stroke:#3C4043;stroke-miterlimit:10;}
	.st218{fill:#7B4C38;}
	.st219{fill:#EABFB0;}
	.st220{fill:#EFCABB;}
	.st221{opacity:0.6;fill:#804340;}
	.st222{fill:#4285F4;stroke:#3C4043;stroke-miterlimit:10;}
	.st223{opacity:0.6;}
	.st224{fill:#F2BC42;stroke:#3D4043;stroke-miterlimit:10;}
	.st225{fill:#2A2C32;}
	
		.st226{fill-rule:evenodd;clip-rule:evenodd;fill:#FFFFFF;stroke:#3C4043;stroke-linecap:round;stroke-linejoin:round;stroke-miterlimit:10;}
	
		.st227{fill-rule:evenodd;clip-rule:evenodd;fill:#3C4043;stroke:#3C4043;stroke-linecap:round;stroke-linejoin:round;stroke-miterlimit:10;}
	.st228{fill-rule:evenodd;clip-rule:evenodd;fill:#444343;}
	.st229{fill:#979CA3;}
	.st230{fill:#F7D575;}
	.st231{clip-path:url(#SVGID_12_);fill:#3C4043;stroke:#3C4043;stroke-linecap:round;stroke-linejoin:round;stroke-miterlimit:10;}
	.st232{fill:#D9DBDF;stroke:#D9DBDF;stroke-linecap:round;stroke-linejoin:round;stroke-miterlimit:10;}
	.st233{fill:#FFFFFF;stroke:#D85040;stroke-linecap:round;stroke-linejoin:round;stroke-miterlimit:10;}
	.st234{fill:#D9DBDF;}
	.st235{fill:#D4E2F9;stroke:#3D4043;stroke-miterlimit:10;}
	.st236{fill:none;stroke:#D9DBDF;stroke-linecap:round;stroke-linejoin:round;stroke-miterlimit:10;}
	.st237{fill:#34A853;stroke:#34A853;stroke-linecap:round;stroke-linejoin:round;}
	.st238{fill:#696C71;}
	
		.st239{fill-rule:evenodd;clip-rule:evenodd;fill:#34A853;stroke:#34A853;stroke-linecap:round;stroke-linejoin:round;stroke-miterlimit:10;}
	.st240{fill:#E0C1AB;}
	.st241{fill:#D6B096;}
	.st242{clip-path:url(#SVGID_14_);fill:#EA4335;stroke:#EA4335;}
	.st243{clip-path:url(#SVGID_14_);fill:#CA5A46;}
	.st244{clip-path:url(#SVGID_14_);fill:none;stroke:#3C4043;stroke-linecap:round;stroke-linejoin:round;stroke-miterlimit:10;}
	.st245{fill:#CA8F6B;}
	.st246{fill:#EA4335;stroke:#EA4335;stroke-linecap:round;stroke-linejoin:round;}
	.st247{clip-path:url(#SVGID_16_);fill:#617FBA;}
	.st248{clip-path:url(#SVGID_16_);fill:#D2E3FC;}
	.st249{clip-path:url(#SVGID_16_);fill:none;stroke:#3C4043;stroke-linecap:round;stroke-linejoin:round;stroke-miterlimit:10;}
	.st250{fill:#DD5B52;stroke:#3D4043;stroke-miterlimit:10;}
	.st251{fill:#D18A68;stroke:#3D4043;stroke-linecap:round;stroke-linejoin:round;stroke-miterlimit:10;}
</style>
<rect x="-6" y="-6" class="st0" width="1212" height="612"/>
<g>
	<g>
		<g>
			<path class="st9" d="M753.5,383.1v-79c0-10.2,8.3-18.5,18.5-18.5c10.2,0,18.4,8.2,18.5,18.4l0.7,8.1c0,7.7,6.3,13.9,13.9,13.9
				s13.9-6.3,13.9-13.9l-0.1-52.4"/>
		</g>
		<path class="st103" d="M823.2,427.6l-6-56.6h0c-0.6-18.1-15.5-32.7-33.7-32.7c-0.6,0-1.2,0-1.8,0h-59.4c-0.6,0-1.2,0-1.8,0
			c-18.3,0-33.2,14.5-33.7,32.7h0l-6,56.6c-0.2,0.9-0.3,1.7-0.3,2.7c0,8.1,6.5,14.6,14.6,14.6c5.3,0,10-2.9,12.5-7.1l0,0l19.6-31.9
			h49.5l19.6,31.9l0,0c2.6,4.3,7.2,7.1,12.5,7.1c8.1,0,14.6-6.5,14.6-14.6C823.5,429.4,823.4,428.5,823.2,427.6z"/>
		<g>
			<circle class="st120" cx="772.6" cy="371" r="5"/>
		</g>
		<g>
			<circle class="st156" cx="797.6" cy="371" r="5"/>
		</g>
		<g>
			<circle class="st7" cx="785.1" cy="358.4" r="5"/>
		</g>
		<g>
			<circle class="st238" cx="785.1" cy="383.5" r="5"/>
		</g>
	</g>
	<g>
		<g>
			<path class="st239" d="M846.2,133l-71.7,34.8v45.7c0,42.2,30.6,81.7,71.7,91.3c41.1-9.6,71.7-49.1,71.7-91.3v-45.7L846.2,133z"/>
		</g>
		<g>
			<path class="st163" d="M774.5,213.4c0,42.2,30.6,81.7,71.7,91.3c41.1-9.6,71.7-49.1,71.7-91.3v-45.7L846.2,133"/>
		</g>
		<g>
			<g>
				<g>
					<path class="st0" d="M867.8,219.3c-0.8,0-1.5-0.7-1.5-1.5V194c0-11.3-9.2-20.6-20.6-20.6s-20.6,9.2-20.6,20.6v23.9
						c0,0.8-0.7,1.5-1.5,1.5c-0.8,0-1.5-0.7-1.5-1.5V194c0-13,10.6-23.5,23.5-23.5s23.5,10.6,23.5,23.5v23.9
						C869.3,218.7,868.6,219.3,867.8,219.3z"/>
				</g>
				<g>
					<path class="st0" d="M874.3,262.5h-56.1c-0.8,0-1.5-0.7-1.5-1.5v-40.4c0-0.8,0.7-1.5,1.5-1.5h56.1c0.8,0,1.5,0.7,1.5,1.5V261
						C875.7,261.9,875.1,262.5,874.3,262.5z M819.7,259.6h53.1v-37.5h-53.1V259.6z"/>
				</g>
			</g>
			<g>
				<path class="st0" d="M873.3,252.4h-53.8c-0.8,0-1.5-0.7-1.5-1.5s0.7-1.5,1.5-1.5h53.8c0.8,0,1.5,0.7,1.5,1.5
					S874.1,252.4,873.3,252.4z"/>
			</g>
		</g>
	</g>
	<g>
		<g>
			<path class="st240" d="M69.4,138.2l-29.8-13c-0.9,1.8-0.4,3.9,1,5.2l10.4,9l0.4,1.2c0.5,2.2,2,4,4.1,5l8.7,4L69.4,138.2z"/>
			<path class="st154" d="M69.4,138.2l-29.8-13c-0.9,1.8-0.4,3.9,1,5.2l10.4,9l0.4,1.2c0.5,2.2,2,4,4.1,5l8.7,4L69.4,138.2z"/>
			<path class="st120" d="M145.8,176c1.4-4.3-0.9-8.9-5.1-10.4l-32-11.3l-39.3-16l-6.6,14.3c0,0,26.6,12.6,38.4,19.5
				c6.6,3.9,16.3,13.4,20,22c9.1,20.9,17.7,7.1,18.5-0.3C140.3,187.7,144,181.6,145.8,176z"/>
			<path class="st154" d="M145.8,176c1.4-4.3-0.9-8.9-5.1-10.4l-32-11.3l-39.3-16l-6.6,14.3c0,0,26.6,12.6,38.4,19.5
				c6.6,3.9,16.3,13.4,20,22c9.1,20.9,17.7,7.1,18.5-0.3C140.3,187.7,144,181.6,145.8,176z"/>
		</g>
		<g>
			<path class="st160" d="M191.2,148.5v63.6c0,5.5-7.9-6.4-13.3-6.7l-37.1,14.2l41.6-69.8L191.2,148.5z"/>
			<path class="st160" d="M155,143.9l-12.5,19.4c-1.3,2-0.9,4.6,0.9,6.2l8.2,7.2l9.4-22.4L155,143.9z"/>
			<path class="st240" d="M167.9,176.6l3,10.7l-19.5,6.3l-7.9-13.7l6.9-9.7l12.9-21.9c1.2-2.1,3.2-3.6,5.5-4.2
				c2.3-0.6,4.8-0.3,6.8,0.9l13.1,7.6c0,0-7.5,19.7-15.2,21.6c-1.5,0.3-3,0.1-4.3-0.6L167.9,176.6z"/>
			<path class="st241" d="M169.2,173.8l-9.8-5.6l7.3,11.3L169.2,173.8z"/>
			<path class="st160" d="M191.2,148.5c-1,10.1-12.4,5-20.9,5c-4.9,0-11.9,3-14,6.7c-1.7,2.9-5.9-2-5.9-5.6
				c0-8.4,12.1-22.3,24.7-22.3C183.6,132.3,192.1,140.1,191.2,148.5z"/>
			
				<ellipse transform="matrix(0.1103 -0.9939 0.9939 0.1103 -4.6094 301.0245)" class="st240" cx="165.8" cy="153.1" rx="3.9" ry="2.8"/>
		</g>
		<g>
			<g>
				<defs>
					<path id="SVGID_13_" d="M185.5,190.3l-1.9-5.3c-2.2-2.4-5-4.3-8.1-5.4l-7.7-3c-0.1,0.4-0.9,2.1-1.1,2.6
						c-2.4,6.6-8.4,9.8-13.1,7.9c-4.7-1.9-6.8-8.7-4.3-14.9c0,0,0.8-1.4,1-1.9l-9.5-4.2c0.1,0.1-13.4-5.1-14.6,37.1
						c4.3,11.1,7.2,50.7,7.2,50.7c11.5,4.4,14-7,26.9-14.3c8.5,2.4,17.5,3.4,26.3,2.7l-6.3-32.6l2.4-4.3c2-3.6,2.9-7.6,2.8-11.7
						L185.5,190.3z"/>
				</defs>
				<clipPath id="SVGID_2_">
					<use xlink:href="#SVGID_13_"  style="overflow:visible;"/>
				</clipPath>
				<path style="clip-path:url(#SVGID_2_);fill:#EA4335;stroke:#EA4335;" d="M184.9,196.7c0.6-2.1,0.8-4.3,0.7-6.5
					c-0.1-2.5-0.3-3.1-2.6-5.8c-2.1-2.2-4.7-3.9-7.6-4.9l-7.7-3c-0.1,0.4-0.9,2.1-1.1,2.6c-2.4,6.6-8.4,9.8-13.1,7.9
					c-4.7-1.9-6.8-8.7-4.3-14.9c0,0,0.8-1.4,1-1.9l-9.5-4.2c0.1,0.1-13.4-5.1-14.6,37.1c4.3,11.1,6.8,42.3,6.8,42.3
					c7.9-7.9,15-9.9,27.4-5.8c8.5,2.4,17.5,3.3,26.3,2.6l-6.3-33.1C180.4,209.1,182.8,204.8,184.9,196.7z"/>
				<path style="clip-path:url(#SVGID_2_);fill:#EA4335;stroke:#EA4335;" d="M184.9,196.7c0.6-2.1,0.8-4.3,0.7-6.5
					c-0.1-2.5-0.3-3.1-2.6-5.8c-2.1-2.2-4.7-3.9-7.6-4.9l-7.7-3c-0.1,0.4-0.9,2.1-1.1,2.6c-2.4,6.6-8.4,9.8-13.1,7.9
					c-4.7-1.9-6.8-8.7-4.3-14.9c0,0,0.8-1.4,1-1.9l-9.5-4.2c0.1,0.1-13.4-5.1-14.6,37.1c4.3,11.1,6.7,47.2,6.7,47.2
					c12,0.9,15-14.8,27.4-10.8c8.5,2.4,17.5,3.3,26.3,2.6l-6.3-33.1C180.4,209.1,182.8,204.8,184.9,196.7z"/>
				<path style="clip-path:url(#SVGID_2_);fill:#CA5A46;" d="M183.8,213.6c-0.7-0.7-1.4-1.4-2.2-2c0,0.1-0.1,0.1-0.1,0.2
					L183.8,213.6C183.8,213.6,183.8,213.6,183.8,213.6z"/>
				
					<path style="clip-path:url(#SVGID_2_);fill:none;stroke:#3C4043;stroke-linecap:round;stroke-linejoin:round;stroke-miterlimit:10;" d="
					M192.5,222.6l-17.4-15.1"/>
				
					<path style="clip-path:url(#SVGID_2_);fill:none;stroke:#3C4043;stroke-linecap:round;stroke-linejoin:round;stroke-miterlimit:10;" d="
					M128.5,218.8c0,0-4.7-31.9,6.2-49"/>
			</g>
		</g>
		<path class="st120" d="M179,184.2c-9.2,1.4-12.5,13-5.9,19.6c2.5,2.6,50.6,42.7,50.6,42.7l8.8-9.1L183.6,185
			C181.6,183.5,180.2,184,179,184.2z"/>
		<polyline class="st154" points="223.6,246.6 232.4,237.5 183.6,184 		"/>
		<path class="st240" d="M249.4,254.4c-0.4-0.4-0.9-0.8-1.4-1.2l-15.4-15.8l-7.4,7.7l11.6,11.1c-0.9,2.7-0.1,6.1,2.3,8.5
			c3.3,3.3,8.2,3.6,11.1,0.7C253,262.6,252.7,257.7,249.4,254.4z"/>
		<path class="st154" d="M249.4,254.4c-0.4-0.4-0.9-0.8-1.4-1.2l-15.4-15.8l-7.4,7.7l11.6,11.1c-0.9,2.7-0.1,6.1,2.3,8.5
			c3.3,3.3,8.2,3.6,11.1,0.7C253,262.6,252.7,257.7,249.4,254.4z"/>
		<g>
			<path class="st154" d="M-4,339.7h148.8v19.6"/>
			<path class="st154" d="M169.2,390.6H215v49.5"/>
			<path class="st154" d="M215,440.1h70.1v49.5"/>
			<path class="st154" d="M285.2,489.6h70.1v55.5"/>
			<path class="st154" d="M355.3,545.1H1160"/>
			<path class="st154" d="M144.9,341.1v13.3"/>
		</g>
		<g>
			<path class="st158" d="M451.2,330.2c0,0-23.7,0.9-51.9,0c-14.9-0.4-51.5-1.8-55.1-2.8l-9.6,7.4h0c-2.1,13.6,18.7,18.7,28.2,17.1
				c27.6-4.6,65.9-6.6,89.7-6.9L451.2,330.2z"/>
			<path class="st245" d="M472.6,329.9c-0.8-0.1-1.6-0.1-2.3,0v0l-19.1,0.3l0.8,10.6l10.1-1.6c0.9,3.5,4.4,6.3,9,6.7
				c5.5,0.5,10.2-2.7,10.6-7.1S478,330.4,472.6,329.9z"/>
			<path class="st154" d="M472.6,329.9c-0.8-0.1-1.6-0.1-2.3,0v0l-19.1,0.3l0.8,10.6l10.1-1.6c0.9,3.5,4.4,6.3,9,6.7
				c5.5,0.5,10.2-2.7,10.6-7.1S478,330.4,472.6,329.9z"/>
		</g>
		<path class="st245" d="M350.4,327.9l2.3-7.4c3.3-10.7,0.1-28.5-7.7-37.9c-2.4-2.8-6.4-3.5-9.7-1.8l-3,1.6l-8.2,11.2
			c-0.3,0.4-0.6,0.8-0.8,1.2c-1.7,3.3-2,7.2-0.7,10.7c1.3,3.5,4.1,6.3,7.6,7.6l2,0.8l2.1,20.9L350.4,327.9z"/>
		<path class="st154" d="M350.4,327.9l2.3-7.4c3.3-10.7,0.1-28.5-7.7-37.9c-2.4-2.8-6.4-3.5-9.7-1.8l-3,1.6l-8.2,11.2
			c-0.3,0.4-0.6,0.8-0.8,1.2c-1.7,3.3-2,7.2-0.7,10.7c1.3,3.5,4.1,6.3,7.6,7.6l2,0.8l2.1,20.9L350.4,327.9z"/>
		<g>
			<path class="st158" d="M267.7,271.2c0,0,16.4,17.2,37.1,36.3c10.9,10.2,24.5,17.1,39.1,20.1c2.1,0.6,4.2,0.8,6.4,0.4
				c3.5-1.5,11.3,15.3,14.7,17l8.7,9.5l8,21.6l-38.6,17.4c-7.5-15.9-16.6-30.9-27.2-44.9c-16.5-22.5-42.6-50.6-59.5-67.5
				L267.7,271.2z"/>
			<path class="st245" d="M267.7,271.2l-13.4-13.4c-0.5-0.6-1.1-1.2-1.7-1.7c-4.3-3.5-10-3.5-12.8,0c-2.8,3.4-1.6,9,2.7,12.5
				c3.5,2.9,8.1,3.3,11.1,1.5l6,8.1L267.7,271.2z"/>
			<path class="st154" d="M267.7,271.2l-13.4-13.4c-0.5-0.6-1.1-1.2-1.7-1.7c-4.3-3.5-10-3.5-12.8,0c-2.8,3.4-1.6,9,2.7,12.5
				c3.5,2.9,8.1,3.3,11.1,1.5l6,8.1L267.7,271.2z"/>
		</g>
		<path class="st7" d="M342.9,451.8l0.3-61.2c0-1.7,0.6-3.3,1.6-4.6c3.5-4.3,12.9-13.1,31.7-12.1c2,0.1,3.9,0.9,5.2,2.3l41.5,41.7
			L342.9,451.8z"/>
		<path class="st154" d="M342.9,451.8l0.3-61.2c0-1.7,0.6-3.3,1.6-4.6c3.5-4.3,12.9-13.1,31.7-12.1c2,0.1,3.9,0.9,5.2,2.3l41.5,41.7
			L342.9,451.8z"/>
		<path class="st160" d="M423.9,417.8c2.6,6-13.3,18.6-35.4,28.1c-22.2,9.5-42.8,12-45.4,6c-2.6-6,13.8-17.2,36-26.7
			C401.3,415.7,421.3,411.9,423.9,417.8z"/>
		<g>
			<path class="st160" d="M332.2,282.4l8.3,20.9c2.6,14.2,4.1,28.5,4.7,42.9c0,20.9,26.5,41.4,46.5,15.7
				c20.1-25.7-36.6-82.3-36.6-82.3s-14.8-8.6-23,2.6"/>
			
				<ellipse transform="matrix(0.8348 -0.5506 0.5506 0.8348 -109.809 237.1761)" class="st245" cx="340.2" cy="301.5" rx="4.5" ry="3.7"/>
		</g>
		<g>
			<path class="st245" d="M489.7,412.7l-18-4.3l-0.3,0.6c-0.5,0-1,0.1-1.4,0.3L420.3,436c0,0,0,0,0,0c-1.3-2.4-6.9-11.4-7-11.6
				c0,0,0,0,0,0l-5-8.1l-3.6,0.6c-7.4,1.5-14.6,3.8-21.5,6.6l7.3,8.5c0,0,0,0,0,0l20.9,24.3c0.1,0.1,0.2,0.2,0.3,0.3
				c2.8,2.5,5.5,3.3,7.7,2.8c1.1,0,2.2-0.2,3.3-0.8c0.7-0.3,1.4-0.8,2-1.3l43.5-37.9l20.7-2.4L489.7,412.7z"/>
			<path class="st154" d="M489.7,412.7l-18-4.3l-0.3,0.6c-0.5,0-1,0.1-1.4,0.3L420.3,436c0,0,0,0,0,0c-1.3-2.4-6.9-11.4-7-11.6
				c0,0,0,0,0,0l-5-8.1l-3.6,0.6c-7.4,1.5-14.6,3.8-21.5,6.6l7.3,8.5c0,0,0,0,0,0l20.9,24.3c0.1,0.1,0.2,0.2,0.3,0.3
				c2.8,2.5,5.5,3.3,7.7,2.8c1.1,0,2.2-0.2,3.3-0.8c0.7-0.3,1.4-0.8,2-1.3l43.5-37.9l20.7-2.4L489.7,412.7z"/>
			<path class="st158" d="M496.3,416.4l-7.3,0.7l-1.8-1.2c-1.3-0.9-2.8-1.5-4.4-2l-13.6-4.1c-0.3-1.4,0.2-2.8,1.3-3.8
				c1.1-0.9,2.6-1.2,3.9-0.7l22.5,6.8c1,0.3,1.7,1.4,1.5,2.4C498.2,415.5,497.4,416.3,496.3,416.4z"/>
		</g>
		<path class="st158" d="M102.3,293.7l12.2,31.8l3.1,2.4c3.4,2.6,8.1,2.7,11.5,0.2l2.7-1.9l-6.2-31.6L102.3,293.7z"/>
		<g>
			<path class="st246" d="M114.5,325.5l-12.5,7c-1.1,0.6-1.7,1.9-1.4,3.1c0.3,1.2,1.4,2.1,2.7,2.2l26.8,1c1,0,2-0.4,2.6-1.2
				c0.6-0.8,0.9-1.8,0.7-2.8l-1.6-8.8L114.5,325.5L114.5,325.5z"/>
			<path class="st154" d="M106.2,330.2l1.3,2.4"/>
			<path class="st154" d="M110.6,327.9l1.3,2.4"/>
			<path class="st246" d="M114.5,325.4l-1.5-3.7c0,0,1.8,0.1,4.2,0.2c2.2,0.1,4.1,1.7,4.6,3.8L114.5,325.4z"/>
		</g>
		<g>
			<path class="st104" d="M158.8,273.9c15.6-0.9,13.4-20.4,6.5-31.3c-2.6-4.1-7.3-6.4-12.2-6.1l0,0c-0.1,0-0.1,0-0.2,0
				c-1.4,0.4-3.6,1.2-4.1,1.5c-0.3,0.1-30,14.3-30,14.3l12,27.4l27.1-5.7c-0.3,0-0.7,0-1,0c0.4,0,0.7,0,1,0l0.8-0.2L158.8,273.9z"/>
			<path class="st154" d="M158.8,273.9c15.6-0.9,13.4-20.4,6.5-31.3c-2.6-4.1-7.3-6.4-12.2-6.1l0,0c-0.1,0-0.1,0-0.2,0
				c-1.4,0.4-3.6,1.2-4.1,1.5c-0.3,0.1-30,14.3-30,14.3l12,27.4l27.1-5.7c-0.3,0-0.7,0-1,0c0.4,0,0.7,0,1,0l0.8-0.2L158.8,273.9z"/>
			<path class="st240" d="M122.3,277.8c0.1,0,0.1,0,0.2-0.1l6.3-2.8l-9.9-22.6l-16,7.7c-0.4,0.2-0.8,0.4-1.2,0.7
				c-0.5,0.2-1,0.4-1.5,0.6c-5,2.3-7.4,8.1-5.4,13.3l7.3,19.1l23.2,0.8L122.3,277.8C122.3,277.8,122.3,277.8,122.3,277.8z"/>
			<path class="st154" d="M122.3,277.8c0.1,0,0.1,0,0.2-0.1l6.3-2.8l-9.9-22.6l-16,7.7c-0.4,0.2-0.8,0.4-1.2,0.7
				c-0.5,0.2-1,0.4-1.5,0.6c-5,2.3-7.4,8.1-5.4,13.3l7.3,19.1l23.2,0.8L122.3,277.8C122.3,277.8,122.3,277.8,122.3,277.8z"/>
		</g>
		<g>
			<path class="st158" d="M228.4,357.5L216,322.1l-20.6,8.8l17.4,33.6L228.4,357.5z"/>
			<polygon class="st241" points="216,322.1 205.4,291.8 205.4,291.8 200.9,280.6 174.2,290.8 177.2,295.6 177.2,295.6 195.4,330.9 
							"/>
			<polygon class="st154" points="216,322.1 205.4,291.8 205.4,291.8 200.9,280.6 174.2,290.8 177.2,295.6 177.2,295.6 195.4,330.9 
							"/>
			<g>
				<path class="st246" d="M213.4,390.5l17.3-17.7c2.6-2.6,3.9-4.3,2.4-6.8l-4.6-8.3v-0.2l-15.7,7l-4.7,23.1
					c-0.3,1.4,0.3,2.8,1.5,3.5C210.8,391.7,212.4,391.5,213.4,390.5z"/>
				<path class="st154" d="M210.2,376.9l2.7,0.1"/>
				<path class="st154" d="M211.4,371l2.7,0.1"/>
				<path class="st246" d="M212.8,364.5l-1.8-3.4l3.7-1.6c2.1-0.8,4.4-0.2,5.8,1.5L212.8,364.5z"/>
			</g>
			<g>
				<defs>
					<path id="SVGID_15_" d="M159.5,273.8l11.5,19.6l30.8-11.8l-15.4-44.1c-0.9-2.5-3.3-4.3-6-4.3c-8.8-0.3-17.6,0.6-26.2,2.8
						c-0.6,0.2-1.3,0.4-1.9,0.6c-0.8,0.3-2.9,1.1-2.9,1.1S139.5,240.7,159.5,273.8z"/>
				</defs>
				<clipPath id="SVGID_4_">
					<use xlink:href="#SVGID_15_"  style="overflow:visible;"/>
				</clipPath>
				<path style="clip-path:url(#SVGID_4_);fill:#617FBA;" d="M159.5,273.8l11.5,19.6l30.8-11.8l-15.4-44.1c-0.9-2.5-3.3-4.3-6-4.3
					c-8.8-0.3-17.6,0.6-26.2,2.8c-0.6,0.2-1.3,0.4-1.9,0.6c-0.8,0.3-2.9,1.1-2.9,1.1S154.5,264.5,159.5,273.8z"/>
				<path style="clip-path:url(#SVGID_4_);fill:#D2E3FC;" d="M159.5,273.8l11.5,19.6l30.8-11.8l-15.4-44.1c-0.9-2.5-3.3-4.3-6-4.3
					c-8.8-0.3-17.6,0.6-26.2,2.8c-0.6,0.2-1.3,0.4-1.9,0.6c-0.8,0.3-2.9,1.1-2.9,1.1S154.5,264.5,159.5,273.8z"/>
				
					<path style="clip-path:url(#SVGID_4_);fill:none;stroke:#3C4043;stroke-linecap:round;stroke-linejoin:round;stroke-miterlimit:10;" d="
					M150.3,254.7l22.1,38.9"/>
			</g>
		</g>
		<g>
			<path class="st154" d="M135.5,529c7.6-14.6,24.1-22.1,40.1-18.2c16,3.9,27.2,18.2,27.2,34.6"/>
			<path class="st154" d="M223.2,528.7c7.6-14.6,24.1-22.1,40.1-18.2c16,3.9,27.2,18.2,27.2,34.6"/>
			<path class="st154" d="M100.3,545.4c-0.3-7.6,3.6-14.7,10.1-18.5c6.5-3.9,14.6-3.9,21.1,0c6.5,3.9,10.4,11,10.1,18.5"/>
			<path class="st154" d="M72.1,545.4c0-8,4.6-15.3,11.9-18.7c7.2-3.4,15.8-2.3,22,2.8"/>
			<path class="st154" d="M290.5,545.4c-0.3-7.6,3.6-14.7,10.1-18.5c6.5-3.9,14.6-3.9,21.1,0c6.5,3.9,10.4,11,10.1,18.5"/>
			<path class="st154" d="M194.3,522.3c7.8-3.3,16.7-2.5,23.7,2.1c7,4.6,11.3,12.5,11.3,21"/>
			<path class="st154" d="M141.9,390.5v129.2"/>
			<path class="st154" d="M169.2,520.3v22.5L158.4,532"/>
			<path class="st154" d="M252.3,520.3v22.5L241.5,532"/>
			<path class="st154" d="M141.9,439.7l17-17"/>
			<path class="st154" d="M141.6,415.9l-12.1-12.1"/>
			<path class="st154" d="M169.2,535.1l7.9-7.9"/>
			<path class="st154" d="M115.8,420.6v-32.4c0-14.5,11.7-26.2,26.2-26.2l0,0c14.5,0,26.2,11.7,26.2,26.2v49.1
				c0,14.5-11.7,26.2-26.2,26.2l0,0c-4.8,0-9.5-1.3-13.6-3.8"/>
			<path class="st154" d="M100.3,434.2v92"/>
			<path class="st154" d="M100.3,474.3l17-17"/>
			<path class="st154" d="M99.9,452.6l-12.1-12.1"/>
			<path class="st154" d="M100.2,417.8L100.2,417.8c14.4,0,26.1,11.7,26.1,26.1v20.3c0,14.4-11.7,26.1-26.1,26.1l0,0
				c-14.4,0-26.1-11.7-26.1-26.1V444C74.1,429.5,85.8,417.8,100.2,417.8z"/>
		</g>
	</g>
	<g>
		<path class="st245" d="M404,537.7l-22.3-101.6c0,0,0,0,0,0l-2.6-10.9c-8.9,3.8-17.4,8.4-25.3,13.8l3.2,7l2,4.1l35.2,78.4l-14,8.7
			l2.6,5l18.8-1.1l-0.1-0.2c0.2,0,0.3,0,0.5,0C403.4,540.6,404.3,539.2,404,537.7z"/>
		<path class="st154" d="M404,537.7l-22.3-101.6c0,0,0,0,0,0l-2.6-10.9c-8.9,3.8-17.4,8.4-25.3,13.8l3.2,7l2,4.1l35.2,78.4l-14,8.7
			l2.6,5l18.8-1.1l-0.1-0.2c0.2,0,0.3,0,0.5,0C403.4,540.6,404.3,539.2,404,537.7z"/>
		<path class="st158" d="M373.8,541.1l6.9-4.2l4.2,1.2c1.6,0.5,3.2,0.7,4.8,0.7h14.5c0.6,1.3,0.5,2.8-0.2,4
			c-0.7,1.2-2.1,1.9-3.5,1.9h-25C373.7,544.6,372.2,542.1,373.8,541.1z"/>
	</g>
	<g>
		<path class="st115" d="M609.6,199.8c4.3,0.8,7.9,3.9,9,8.1c3.8,14-8.6,40.3-23.8,40.1c-8.6-0.1-32.8-4.6-49-18.4
			c-7.6-6.5-3.8-18.9,6.2-20.1C571.5,207.2,595.1,197,609.6,199.8z"/>
		<path class="st151" d="M598.8,206.5c3.8-1.1,9.6-1.4,12.6,0.7c8,5.5-0.8,29.5-11.8,29.3c-0.1,0-0.3,0-0.4,0
			c-7.4-0.6-12.7-7.6-11.6-15.2c0.6-4.1,1.7-6.5,3.2-8.9C592.5,209.7,595.3,207.5,598.8,206.5z"/>
		<path class="st115" d="M478.8,189.2c-10,3.7-21.6-4.6-21.6-16.8c0-12.2,19.3-41.4,51.9-39.2C492.3,150.2,493.3,174.4,478.8,189.2z
			"/>
		<path class="st115" d="M445.8,199.8c-4.3,0.8-7.9,3.9-9,8.1c-3.8,14,8.6,40.3,23.8,40.1c8.6-0.1,32.8-4.6,49-18.4
			c7.6-6.5,3.8-18.9-6.2-20.1C483.9,207.2,460.3,197,445.8,199.8z"/>
		<path class="st115" d="M579.3,189.2c10,3.7,21.6-4.6,21.6-16.8c0-12.2-19.3-41.4-51.9-39.2C565.8,150.2,564.8,174.4,579.3,189.2z"
			/>
		<path class="st115" d="M586.9,195.1c0,25.6-27.1,35-59.8,35c-22.4,0-41.6-4.4-51.5-15.4c-4.5-5.1-7.1-11.5-7.1-19.6
			c0-25.6,26.5-81.5,59.2-81.5C560.4,113.6,586.9,169.5,586.9,195.1z"/>
		<path class="st151" d="M572.4,186.8c0,19.4-20.5,26.4-45.2,26.4c-24.7,0-44.3-7.1-44.3-26.4c0-19.4,20-61.6,44.7-61.6
			C552.4,125.2,572.4,167.5,572.4,186.8z"/>
		<path class="st115" d="M579.4,82.5c0-8.7-7-15.7-15.7-15.7c-5.6,0-10.5,2.9-13.2,7.3c-6.7-3.2-14.5-5-22.8-5
			c-8.2,0-15.9,1.8-22.5,4.9c-2.8-4.3-7.6-7.2-13.2-7.2c-8.7,0-15.7,7-15.7,15.7c0,5.6,2.9,10.5,7.3,13.2c-1.5,3.8-2.4,7.9-2.4,12.2
			c0,21.4,20.8,38.8,46.4,38.8c25.6,0,46.4-17.4,46.4-38.8c0-4.2-0.8-8.2-2.3-12C576.4,93.1,579.4,88.2,579.4,82.5z"/>
		<path class="st151" d="M554,127.5c0,9.5-11.8,17.1-26.3,17.1c-14.5,0-26.3-7.7-26.3-17.1c0-9.5,11.8-17.1,26.3-17.1
			C542.2,110.3,554,118,554,127.5z"/>
		<path class="st100" d="M544,104.9c0,1.4-1.2,2.6-2.6,2.6s-2.6-1.2-2.6-2.6c0-1.4,1.2-2.6,2.6-2.6S544,103.4,544,104.9z"/>
		<path class="st100" d="M516,104.9c0,1.4-1.2,2.6-2.6,2.6c-1.4,0-2.6-1.2-2.6-2.6c0-1.4,1.2-2.6,2.6-2.6
			C514.8,102.3,516,103.4,516,104.9z"/>
		<path class="st127" d="M536.1,124.3c-0.5,1.6-2.1,3-3.6,3.7c-1.5,0.7-3.1,1.1-4.7,1.1c-1.7,0-3.4-0.3-5-1
			c-1.6-0.8-3.1-2.1-3.7-3.8"/>
		<line class="st127" x1="527.6" y1="129" x2="527.6" y2="118.8"/>
		<path class="st100" d="M536.2,111c0,1.4-5.7,8.4-8.5,8.7c-2.7,0.2-8.5-7.3-8.5-8.7c0-1.4,3.8-2.5,8.5-2.5
			C532.4,108.5,536.2,109.6,536.2,111z"/>
		<g>
			<path class="st250" d="M525,149.1c0,5.9-12.1,11.2-18.9,11.2c-3.7,0-7.2-9.5-3.7-10.7c-3.7-3.9-0.2-11.2,1.8-11.6
				C510,136.9,525,143.1,525,149.1z"/>
			<path class="st250" d="M530.4,149.1c0,5.9,12.1,11.2,18.9,11.2c3.7,0,7.2-9.5,3.7-10.7c3.7-3.9,0.2-11.2-1.8-11.6
				C545.4,136.9,530.4,143.1,530.4,149.1z"/>
		</g>
		<g>
			<path class="st126" d="M525,149.1c0,5.9-12.1,11.2-18.9,11.2c-3.7,0-7.2-9.5-3.7-10.7c-3.7-3.9-0.2-11.2,1.8-11.6
				C510,136.9,525,143.1,525,149.1z"/>
			<path class="st126" d="M530.4,149.1c0,5.9,12.1,11.2,18.9,11.2c3.7,0,7.2-9.5,3.7-10.7c3.7-3.9,0.2-11.2-1.8-11.6
				C545.4,136.9,530.4,143.1,530.4,149.1z"/>
		</g>
		<path class="st151" d="M456.6,206.5c-3.8-1.1-9.6-1.4-12.6,0.7c-8,5.5,0.8,29.5,11.8,29.3c0.1,0,0.3,0,0.4,0
			c7.4-0.6,12.7-7.6,11.6-15.2c-0.6-4.1-1.7-6.5-3.2-8.9C462.9,209.7,460.1,207.5,456.6,206.5z"/>
		<path class="st100" d="M568.2,88.9c2-1.4,3.3-3.7,3.3-6.4c0-4.3-3.5-7.8-7.8-7.8c-2.6,0-5,1.3-6.4,3.3
			C561.7,81.1,565.4,84.7,568.2,88.9z"/>
		<path class="st100" d="M498.3,77.9c-1.4-1.9-3.7-3.2-6.3-3.2c-4.3,0-7.8,3.5-7.8,7.8c0,2.6,1.2,4.8,3.1,6.2
			C490.2,84.6,493.9,80.9,498.3,77.9z"/>
		<path class="st100" d="M576.1,218.1c0,0-12.1,11.1-27.5,13.9l-3.4-2.9C545.3,229.2,562.8,227.5,576.1,218.1z"/>
		<path class="st100" d="M479,218.1c0,0,12.1,11.1,27.5,13.9l3.4-2.9C509.8,229.2,492.3,227.5,479,218.1z"/>
		<path class="st127" d="M535.4,146.4c0,0,3.9-2.5,9.3-3.5"/>
		<path class="st127" d="M520,146.4c0,0-3.9-2.5-9.3-3.5"/>
		<path class="st126" d="M532.5,156.8h-9.6c-1.5,0-2.8-1.3-2.8-2.8v-9.6c0-1.5,1.3-2.8,2.8-2.8h9.6c1.5,0,2.8,1.3,2.8,2.8v9.6
			C535.3,155.6,534,156.8,532.5,156.8z"/>
		<path class="st100" d="M519.9,151.3c0,0-0.2,5-9.6,8.2c0,0,7.1-1.4,10-4l-0.2-0.6L519.9,151.3z"/>
		<path class="st100" d="M535.5,151.3c0,0,0.2,5,9.6,8.2c0,0-7.1-1.4-10-4l0.2-0.6L535.5,151.3z"/>
	</g>
	<g>
		<path class="st9" d="M984,416.6l-50,129.7"/>
		<path class="st115" d="M981.6,414.4h103.9l22-103.6c2.3-10.6-5.8-20.6-16.7-20.6h-69c-8,0-15,5.6-16.7,13.5L981.6,414.4z"/>
		<path class="st9" d="M1058.4,416.6l50,129.7"/>
		<path class="st165" d="M955,443.2c-3.3-4-18.4-3.4-18.4-3.4l43,76.2l14.8-10.6C994,505.7,969.4,460.9,955,443.2z"/>
		<path class="st165" d="M897,472.2l-21.2-3l-26.4,45.3h19.2L897,472.2z"/>
		<path class="st11" d="M1029,368.3l7.2-7c0,0,20.6,35.8-4.3,47.6c-25,11.8-72.9,3.7-72.9,3.7l35.4,72.9l-30,7.2
			c0,0-66-97.7-48.9-115.1c14.1-14.3,56.9-2.4,56.9-2.4L1029,368.3z"/>
		<path class="st11" d="M1045.3,350.2l10.9,9.4c0,0,18.6,37.1-6.5,48.6c-16.2,7.4-94.4,4.4-94.4,4.4l-59.9,87.3l-37-4.6
			c0,0,52-92.2,61.7-110.2c6.4-11.9,65.7-14.2,65.7-14.2l11-25.3L1045.3,350.2z"/>
		<path class="st100" d="M995.2,486.1l-9.5,4.9l-1.7-3.4L995.2,486.1z"/>
		<path class="st103" d="M868.6,513.2c-9.7,0.4-18.9,1.1-18.9,1.1c-7.5,7-29.5,17.4-38.6,19.1c-9.1,1.7-9.5,8.2-8.9,12.1
			c14.3,0,53.8,0.3,53.8,0.3s6.8,0.3,12.1,0.1c5.3-0.2,5.2-4.4,4.9-9.9c-0.2-5.1-2.2-12.9-2.7-21.1
			C870.4,513.9,869.6,513.1,868.6,513.2z"/>
		<path class="st9" d="M802.4,539.8l70.3-0.8"/>
		<path class="st103" d="M993,503.6l-14.7,10.4c4.3,12.2,1.7,16.9-16.6,22.2c-9,2.6-9.6,5.9-9,9.8c5.5,0,18.8,0.1,25,0.1
			c2.2,0,4.3-0.7,6.1-1.9l31.3-17.5l-2.6-4.9c-2.5-4.1-14.7-13.9-18.1-17.8C994,503.4,993.5,503.3,993,503.6z"/>
		<path class="st0" d="M953.9,540.2h21.8c2.1,0,4.2-0.6,5.9-1.8l31-16.7"/>
		<path class="st9" d="M953.9,540.2h21.8c2.1,0,4.2-0.6,5.9-1.8l31-16.7"/>
		<path class="st9" d="M965.5,372.3c0,0-39.8,1.2-51.5,24.1"/>
		<path class="st9" d="M964.3,492.7l30-7.2l-35.1-72.2"/>
		<path class="st9" d="M1056.2,359.6c0,0,18.1,37.8-7.1,49.3c-16.2,7.4-94.4,4.4-94.4,4.4l-59.9,87.3l-36.4-5.3"/>
		<path class="st100" d="M962.1,419.9l123.4-0.4l1.1-6.2H959.2L962.1,419.9z"/>
		<path class="st251" d="M1007.5,257c0.3-4-1.7-7.8-4.4-7.9c-2.7-0.1-6.5,0.8-8.5-2.7c-2-3.6-2.4-11.6-2.2-18.1
			c0.1-6.5,2.4-13.1,5.3-16.9c4.2-5.6,11.4-5.3,17.2-5.1c5.8,0.2,15,2.2,16,15c1.1,14.3-6.5,18.4-6.5,21c0,2.7,3.9,11,3.9,11
			L1007.5,257z"/>
		<path class="st103" d="M1000.2,258.8c10.7-8.3,23.1-7.6,31.2-3.1c8.1,4.6,14.6,15.6,17.8,27.2c3.1,11.4,14.4,91.2,13.4,101.3
			c-24.8,0-76.7-13.5-76.7-13.5s4.9-39.4-4.3-62.7C981.6,308.1,991,266,1000.2,258.8z"/>
		<path class="st11" d="M1032.3,256.3c2.8-9.1-3-14.5-4.9-16.1c16.9-22.7-2-45.1-23.8-35.8c-1.7,0.7-7,3.5-5.6,6.3
			c2.1-1.4,5.1-0.7,6.3,0c11.2,6.3,9.7,31.4,0.7,37.9c-1,0.7-6.3,0.7-6.3,0.7c-2.1,0-0.7,11.3,2.8,8.4
			C1009.9,250.7,1026,252.1,1032.3,256.3z"/>
		<path class="st1" d="M1027.4,240.2c-2.8,2.1-11.2,6.7-22.4,8.4 M1027.4,240.2c1.9,1.6,7.7,7,4.9,16.1c-6.3-4.2-22.4-5.6-30.8,1.4
			c-3.5,2.9-4.9-8.4-2.8-8.4c0,0,5.3,0,6.3-0.7 M1027.4,240.2c16.9-22.7-2-45.1-23.8-35.8c-1.7,0.7-7,3.5-5.6,6.3
			c2.1-1.4,5.1-0.7,6.3,0c11.2,6.3,9.7,31.4,0.7,37.9"/>
		<path class="st1" d="M1006.4,247.9c10.5-5.6,11.9-15.4,11.9-18.2"/>
		<path class="st0" d="M1020.8,293c0,0-16.4,45.3-27.7,50.1c-11.4,4.8-20-0.1-29.8-11.2c-5.9-6.6-16.3-23.4-22.8-28.1
			c-0.1-0.1-0.2-0.1-0.3-0.2c-1.4-1.5,2.2-7.1,7.8-12.2c5.6-5.1,11.1-8.2,12.5-6.7c0,0,23.2,24.8,25.9,27.1"/>
		<path class="st9" d="M1020.8,293c0,0-16.4,45.3-27.7,50.1c-11.4,4.8-20-0.1-29.8-11.2c-5.9-6.6-16.3-23.4-22.8-28.1
			c-0.1-0.1-0.2-0.1-0.3-0.2c-1.4-1.5,2.2-7.1,7.8-12.2c5.6-5.1,11.1-8.2,12.5-6.7c0,0,23.2,24.8,25.9,27.1"/>
		<path class="st97" d="M947.9,291.1c-5.8,5.1-9.3,10.8-8,12.1c1.2,1.4,6.6-2.1,12.5-7.2c5.8-5.1,9-10.3,7.8-11.7
			C958.9,283,953.8,286,947.9,291.1z"/>
		<path class="st251" d="M907.6,238c2.2,0.6,18.4,11.6,21.8,13.9c3.5,2.4,7.9,6.1,10.9,10.3c1.4,2,19.9,22.3,20,22.4
			c0.7,1.4-2.1,5.7-6.7,9.9c-1.3,1.2-2.6,2.3-3.8,3.2l-20.5-27c0,0-7-6.1-9.7-7.3c-2.7-1.1-3.3-12.5-0.8-14.2c0,0-6.3-4.4-8.2-5.6
			C908.9,242.5,905.4,237.4,907.6,238z"/>
		<path class="st112" d="M1095.5,367h-74.2c-8.5,0-15.4,7.7-15.4,17.1v29.2"/>
	</g>
	<g>
		<path class="st120" d="M574.9,468.9c0,2.1,2.3,3.9,5,3.9h47.5c2.8,0,5-1.8,5-3.9v-5.7c0-2.1-5-3.9-5-3.9c-25.7-6-44.5-0.8-47.5,0
			c-3,0.8-5,1.8-5,3.9V468.9z"/>
		<path class="st9" d="M574.9,468.9c0,2.1,2.3,3.9,5,3.9h47.5c2.8,0,5-1.8,5-3.9v-5.7c0-2.1-5-3.9-5-3.9c-25.7-6-44.5-0.8-47.5,0
			c-3,0.8-5,1.8-5,3.9V468.9z"/>
		<path class="st103" d="M668.4,535.7h4.3c0,0,11.3-15.1,0-38.8h-48.2v-24h-41.7v62.9h7.8 M625.2,535.7h8.1 M597,482.4h13.3v20.3
			H597V482.4z"/>
		<polygon class="st103" points="649.2,496.8 659.9,496.8 664.1,481.1 644.9,481.1 		"/>
		<g>
			<g>
				<path class="st97" d="M650.8,515.1c-9.4,0-17,7.6-17,17s7.6,17.1,17,17.1c9.4,0,17.1-7.6,17.1-17.1S660.2,515.1,650.8,515.1
					L650.8,515.1z"/>
			</g>
			<path class="st103" d="M646.2,532.1c0,2.5,2.1,4.6,4.6,4.6c2.6,0,4.6-2.1,4.6-4.6c0-2.6-2.1-4.6-4.6-4.6
				C648.3,527.5,646.2,529.6,646.2,532.1z"/>
			<g>
				<path class="st97" d="M608.1,515.1c-9.4,0-17,7.6-17,17s7.7,17.1,17,17.1c9.4,0,17.1-7.6,17.1-17.1S617.5,515.1,608.1,515.1
					L608.1,515.1z"/>
			</g>
			<path class="st103" d="M603.5,532.1c0,2.5,2.1,4.6,4.6,4.6c2.6,0,4.6-2.1,4.6-4.6c0-2.6-2.1-4.6-4.6-4.6
				C605.6,527.5,603.5,529.6,603.5,532.1z"/>
		</g>
	</g>
</g>
</svg>
