<?xml version="1.0" encoding="UTF-8"?>
<svg id="Social_casino_games" data-name="Social casino games" xmlns="http://www.w3.org/2000/svg" viewBox="0 0 1201 601">
  <defs>
    <style>
      .cls-1, .cls-2, .cls-3, .cls-4, .cls-5, .cls-6, .cls-7 {
        stroke-linejoin: round;
      }

      .cls-1, .cls-2, .cls-3, .cls-4, .cls-6, .cls-7 {
        stroke-linecap: round;
      }

      .cls-1, .cls-2, .cls-4, .cls-6, .cls-8, .cls-9 {
        stroke: #3c4043;
      }

      .cls-1, .cls-10 {
        fill: #3c4043;
      }

      .cls-2, .cls-11, .cls-6, .cls-9 {
        fill: #fff;
      }

      .cls-3, .cls-4, .cls-5, .cls-7 {
        fill: none;
      }

      .cls-3, .cls-5 {
        stroke: #bdc1c6;
      }

      .cls-12 {
        fill: #f8f9fa;
      }

      .cls-13 {
        fill: #fbbc04;
      }

      .cls-14 {
        fill: #ea4335;
      }

      .cls-15, .cls-8 {
        fill: #e8eaed;
      }

      .cls-16 {
        fill: #feefc3;
      }

      .cls-17 {
        fill: #bdc1c6;
      }

      .cls-18 {
        fill: #4285f4;
      }

      .cls-6, .cls-7 {
        stroke-width: 2px;
      }

      .cls-8, .cls-9 {
        stroke-miterlimit: 10;
      }

      .cls-7 {
        stroke: #fbbc04;
        stroke-dasharray: 0 0 8.13 8.13;
      }
    </style>
  </defs>
  <path class="cls-1" d="m345.75,401.85l328.12,29.02v-28.58s-355.25-.44-328.12-.44Z"/>
  <g>
    <path class="cls-9" d="m670.65,473.45H168.68c-2.34,0-4.25-1.91-4.25-4.25V190.56c0-2.34,1.91-4.25,4.25-4.25h501.98c2.34,0,4.25,1.91,4.25,4.25v278.64c0,2.34-1.89,4.25-4.25,4.25Z"/>
    <path class="cls-8" d="m482.22,538.22h-127.26c15.46-11.25,25.89-28.14,28.99-47.01l2.91-17.76h63.45l2.91,17.76c3.11,18.87,13.53,35.76,28.99,47.01Z"/>
    <path class="cls-1" d="m452.63,487.59l-65.87-13.4.13-.74h63.43l2.3,14,.02.15Z"/>
    <path class="cls-3" d="m201,342h196.63"/>
    <path class="cls-3" d="m201,357.42h196.63"/>
    <path class="cls-3" d="m201,372.85h196.63"/>
    <path class="cls-5" d="m166.72,209.03h505.93"/>
    <path class="cls-3" d="m177.11,200.79c1.71,0,3.09-1.38,3.09-3.09s-1.38-3.09-3.09-3.09-3.09,1.38-3.09,3.09,1.38,3.09,3.09,3.09Z"/>
    <path class="cls-3" d="m192.28,200.79c1.71,0,3.09-1.38,3.09-3.09s-1.38-3.09-3.09-3.09-3.09,1.38-3.09,3.09,1.38,3.09,3.09,3.09Z"/>
    <path class="cls-3" d="m207.46,200.79c1.71,0,3.09-1.38,3.09-3.09s-1.38-3.09-3.09-3.09-3.09,1.38-3.09,3.09,1.38,3.09,3.09,3.09Z"/>
    <path class="cls-3" d="m201,388.27h196.63"/>
    <path class="cls-3" d="m201,403.69h196.63"/>
    <path class="cls-3" d="m201,419.11h133.67"/>
    <rect class="cls-15" x="201" y="241.19" width="145.2" height="76.1"/>
    <path class="cls-12" d="m246.47,293.65h54.27c.75,0,1.44-.43,1.77-1.11.33-.67.24-1.48-.23-2.07l-18.18-22.91c-.37-.47-.94-.74-1.54-.74s-1.17.27-1.54.74l-11.96,15.07-7.41-9.34-1.54,1.22h0s1.54-1.22,1.54-1.22c-.37-.47-.94-.74-1.54-.74s-1.16.27-1.53.74l-13.64,17.18c-.47.59-.56,1.39-.23,2.07.33.68,1.02,1.11,1.77,1.11Zm13.64-15.99l7.41,9.34c.37.47.94.74,1.53.74s1.17-.27,1.54-.74l-1.54-1.22h0s1.54,1.22,1.54,1.22l11.96-15.06,14.12,17.79h-46.15l9.58-12.06Z"/>
  </g>
  <path class="cls-1" d="m345.75,409.85l328.12,29.02v-28.58s-355.25-.44-328.12-.44Z"/>
  <g>
    <rect class="cls-2" x="344.16" y="229.88" width="539.89" height="179.96"/>
    <path class="cls-4" d="m369.87,352h334.22"/>
    <path class="cls-4" d="m369.87,377.71h305.3"/>
    <path class="cls-18" d="m369.87,300.58h334.22v25.71h-334.22v-25.71Z"/>
    <rect class="cls-18" x="369.87" y="263.7" width="334.89" height="12.85"/>
  </g>
  <path class="cls-2" d="m1036.58,101.26h-305.05v278.35h305.05V101.26Z"/>
  <path class="cls-16" d="m1008.1,130.26h-248.09v220.37h248.09v-220.37Z"/>
  <path class="cls-1" d="m732.21,379.83l151.84,29.02v-28.58s-164.4-.44-151.84-.44Z"/>
  <g>
    <circle class="cls-13" cx="731.53" cy="101.26" r="38.48"/>
    <path class="cls-11" d="m728.47,120.48c-.84-.84-1.26-1.85-1.26-3.03s.42-2.19,1.26-3.03c.84-.84,1.87-1.26,3.09-1.26s2.24.41,3.06,1.23,1.23,1.84,1.23,3.06-.41,2.19-1.23,3.03c-.82.84-1.84,1.26-3.06,1.26s-2.25-.42-3.09-1.26Zm0-26.82v-12.86h6.17v12.86l-.63,15.04h-4.97l-.57-15.04Z"/>
  </g>
  <g>
    <rect class="cls-7" x="827.21" y="262.91" width="114.55" height="70.71" rx="7.4" ry="7.4"/>
    <rect class="cls-11" x="903.61" y="148.82" width="61.82" height="100.14" rx="7.4" ry="7.4"/>
    <rect class="cls-17" x="922.64" y="187.02" width="23.74" height="23.74" rx="4.08" ry="4.08" transform="translate(133.08 719.05) rotate(-45)"/>
    <rect class="cls-11" x="802.69" y="148.82" width="61.82" height="100.14" rx="7.4" ry="7.4"/>
    <path class="cls-17" d="m836.12,205.02c-.33,1.59-.2,2.71,1.24,3.61.86.54,1.5,1.61,1.92,2.58.51,1.17.12,2.33-1.1,2.92-1.17.56-2.24.29-3.05-.8-1.33-1.79-1.76-1.79-3.05-.03-.79,1.07-2.13,1.43-3.17.77-1.1-.71-1.58-1.75-.95-2.97.47-.91,1.03-1.98,1.85-2.45,1.59-.92,1.48-2.16,1.27-3.64-.57.17-1.06.33-1.57.45-3.11.76-6.23-.5-7.89-3.17-1.67-2.69-1.54-6.13.65-8.47,3.11-3.33,6.39-6.51,9.64-9.7,1.05-1.04,2.31-1.04,3.37,0,3.25,3.2,6.52,6.38,9.64,9.7,2.15,2.29,2.31,5.83.66,8.48-1.62,2.61-4.71,3.89-7.75,3.19-.55-.13-1.09-.3-1.73-.48Z"/>
    <g>
      <rect class="cls-6" x="849.13" y="167.47" width="70.71" height="114.55" rx="7.4" ry="7.4"/>
      <path class="cls-10" d="m860.57,172.75h3.36l5.83,15.53h-3.23l-1.3-3.71h-5.94l-1.3,3.71h-3.23l5.81-15.53Zm3.71,9.13l-1.37-3.9-.56-1.87h-.17l-.56,1.87-1.39,3.9h4.06Z"/>
      <path class="cls-14" d="m884.53,213.47c2.29-2.36,4.74-3.87,7.97-3.74,3.98.16,6.9,1.98,8.6,5.53,1.74,3.64,1.43,7.33-1.28,10.29-4.2,4.58-8.69,8.89-13.13,13.24-1.36,1.34-3.16,1.3-4.56-.07-4.34-4.26-8.71-8.48-12.86-12.92-3.51-3.77-3.19-9.65.39-13.25,3.54-3.55,9.17-3.81,13.09-.59.54.44,1.06.9,1.77,1.5Z"/>
    </g>
  </g>
  <polygon class="cls-13" points="937.53 276.59 889.22 249.75 903.58 303.12 913.56 289.38 926.85 306.42 935.09 299.96 921.79 282.92 937.53 276.59"/>
  <path class="cls-4" d="m164.42,538.22h872.16"/>
</svg>