<?xml version="1.0" encoding="UTF-8"?>
<svg id="Speculative_and_Experimental_Medical_Treatment" data-name="Speculative and Experimental Medical Treatment" xmlns="http://www.w3.org/2000/svg" viewBox="0 0 1201 601">
  <defs>
    <style>
      .cls-1 {
        fill: #3c4043;
      }

      .cls-1, .cls-2, .cls-3, .cls-4 {
        stroke-linecap: round;
      }

      .cls-1, .cls-2, .cls-3, .cls-4, .cls-5 {
        stroke-linejoin: round;
      }

      .cls-1, .cls-2, .cls-4, .cls-6, .cls-7 {
        stroke: #3c4043;
      }

      .cls-2, .cls-8, .cls-7 {
        fill: #fff;
      }

      .cls-3, .cls-4, .cls-5 {
        fill: none;
      }

      .cls-3, .cls-5 {
        stroke: #bdc1c6;
      }

      .cls-9 {
        fill: #f8f9fa;
      }

      .cls-10 {
        fill: #fbbc04;
      }

      .cls-11, .cls-6 {
        fill: #e8eaed;
      }

      .cls-12 {
        fill: #feefc3;
      }

      .cls-13 {
        fill: #bdc1c6;
      }

      .cls-14 {
        fill: #4285f4;
      }

      .cls-6, .cls-7 {
        stroke-miterlimit: 10;
      }
    </style>
  </defs>
  <path class="cls-1" d="m345.75,401.85l328.12,29.02v-28.58s-355.25-.44-328.12-.44Z"/>
  <g>
    <path class="cls-7" d="m670.65,473.45H168.68c-2.34,0-4.25-1.91-4.25-4.25V190.56c0-2.34,1.91-4.25,4.25-4.25h501.98c2.34,0,4.25,1.91,4.25,4.25v278.64c0,2.34-1.89,4.25-4.25,4.25Z"/>
    <path class="cls-6" d="m482.22,538.22h-127.26c15.46-11.25,25.89-28.14,28.99-47.01l2.91-17.76h63.45l2.91,17.76c3.11,18.87,13.53,35.76,28.99,47.01Z"/>
    <path class="cls-1" d="m452.63,487.59l-65.87-13.4.13-.74h63.43l2.3,14,.02.15Z"/>
    <path class="cls-3" d="m201,342h196.63"/>
    <path class="cls-3" d="m201,357.42h196.63"/>
    <path class="cls-3" d="m201,372.85h196.63"/>
    <path class="cls-5" d="m166.72,209.03h505.93"/>
    <path class="cls-3" d="m177.11,200.79c1.71,0,3.09-1.38,3.09-3.09s-1.38-3.09-3.09-3.09-3.09,1.38-3.09,3.09,1.38,3.09,3.09,3.09Z"/>
    <path class="cls-3" d="m192.28,200.79c1.71,0,3.09-1.38,3.09-3.09s-1.38-3.09-3.09-3.09-3.09,1.38-3.09,3.09,1.38,3.09,3.09,3.09Z"/>
    <path class="cls-3" d="m207.46,200.79c1.71,0,3.09-1.38,3.09-3.09s-1.38-3.09-3.09-3.09-3.09,1.38-3.09,3.09,1.38,3.09,3.09,3.09Z"/>
    <path class="cls-3" d="m201,388.27h196.63"/>
    <path class="cls-3" d="m201,403.69h196.63"/>
    <path class="cls-3" d="m201,419.11h133.67"/>
    <rect class="cls-11" x="201" y="241.19" width="145.2" height="76.1"/>
    <path class="cls-9" d="m246.47,293.65h54.27c.75,0,1.44-.43,1.77-1.11.33-.67.24-1.48-.23-2.07l-18.18-22.91c-.37-.47-.94-.74-1.54-.74s-1.17.27-1.54.74l-11.96,15.07-7.41-9.34-1.54,1.22h0s1.54-1.22,1.54-1.22c-.37-.47-.94-.74-1.54-.74s-1.16.27-1.53.74l-13.64,17.18c-.47.59-.56,1.39-.23,2.07.33.68,1.02,1.11,1.77,1.11Zm13.64-15.99l7.41,9.34c.37.47.94.74,1.53.74s1.17-.27,1.54-.74l-1.54-1.22h0s1.54,1.22,1.54,1.22l11.96-15.06,14.12,17.79h-46.15l9.58-12.06Z"/>
  </g>
  <path class="cls-1" d="m345.75,409.85l328.12,29.02v-28.58s-355.25-.44-328.12-.44Z"/>
  <g>
    <rect class="cls-2" x="344.16" y="229.88" width="539.89" height="179.96"/>
    <path class="cls-4" d="m369.87,352h334.22"/>
    <path class="cls-4" d="m369.87,377.71h305.3"/>
    <path class="cls-14" d="m369.87,300.58h334.22v25.71h-334.22v-25.71Z"/>
    <rect class="cls-14" x="369.87" y="263.7" width="334.89" height="12.85"/>
  </g>
  <path class="cls-2" d="m1036.58,101.26h-305.05v278.35h305.05V101.26Z"/>
  <path class="cls-1" d="m732.21,379.83l151.84,29.02v-28.58s-164.4-.44-151.84-.44Z"/>
  <g>
    <circle class="cls-10" cx="731.53" cy="101.26" r="38.48"/>
    <path class="cls-8" d="m728.47,120.48c-.84-.84-1.26-1.85-1.26-3.03s.42-2.19,1.26-3.03c.84-.84,1.87-1.26,3.09-1.26s2.24.41,3.06,1.23,1.23,1.84,1.23,3.06-.41,2.19-1.23,3.03c-.82.84-1.84,1.26-3.06,1.26s-2.25-.42-3.09-1.26Zm0-26.82v-12.86h6.17v12.86l-.63,15.04h-4.97l-.57-15.04Z"/>
  </g>
  <path class="cls-4" d="m164.42,538.22h872.16"/>
  <path class="cls-12" d="m1008.1,130.26h-248.09v220.37h248.09v-220.37Z"/>
  <g>
    <path class="cls-13" d="m871.64,217.33c0,2.16-1.75,3.91-3.91,3.91s-3.91-1.75-3.91-3.91,3.91-10.75,3.91-10.75c0,0,3.91,8.59,3.91,10.75Z"/>
    <g>
      <path class="cls-13" d="m871.16,190.76l-3.63,3.63c-.2.2-.4.62-.45.94l-.46,2.77c-.05.32.27.95.72,1.4l3.37,3.37c.45.45,1.08.78,1.4.72l2.77-.46c.32-.05.74-.26.94-.45l11.92-11.92h-16.59Z"/>
      <path class="cls-8" d="m872.04,204.8c-.81,0-1.68-.58-2.17-1.08l-3.37-3.37c-.58-.58-1.2-1.56-1.06-2.44l.46-2.77c.09-.57.41-1.21.79-1.59l20.08-20.08c.67-.67,1.91-.49,2.86.46l6.65,6.65c.34.34.59.71.74,1.09.26.67.16,1.33-.28,1.77l-20.08,20.08c-.38.38-1.02.69-1.59.79l-2.77.46c-.06.01-.2.02-.27.02Zm-4.22-6.65c.05.12.18.33.36.51l3.37,3.37c.18.18.4.31.52.36l2.62-.44c.08-.01.25-.09.31-.14l19.57-19.57-6.61-6.61-19.59,19.59s-.11.21-.12.29l-.44,2.62Z"/>
      <path class="cls-10" d="m898.77,182l-.19-1.24c-.06-.4.05-.88.25-1.08l13.72-13.72h0c2.29-2.29,2.29-6,0-8.29-2.29-2.29-6-2.29-8.29,0l-13.72,13.72c-.2.2-.68.31-1.08.25l-1.24-.19c-.4-.06-.88.05-1.08.25l-3.67,3.67c-.2.2.01.72.46,1.18l9.74,9.74c.45.45.98.66,1.18.46l3.67-3.67c.2-.2.31-.68.25-1.08Z"/>
    </g>
  </g>
  <g>
    <g>
      <g>
        <path class="cls-13" d="m920.03,291.46c-1.32,1.15-2.6,2.33-3.83,3.55h28.57c-1.23-1.22-2.51-2.4-3.82-3.55h-20.92Z"/>
        <path class="cls-13" d="m905.06,311.72c-.41,1.14-.75,2.33-1.06,3.55h52.98c-.3-1.22-.65-2.41-1.06-3.55h-50.87Z"/>
        <path class="cls-13" d="m902.79,240.81c0,1.22.06,2.4.15,3.55h55.12c.09-1.15.15-2.33.15-3.55h-55.41Z"/>
        <path class="cls-13" d="m908.14,261.07c.73,1.23,1.52,2.41,2.36,3.55h39.99c.84-1.14,1.63-2.32,2.36-3.55h-44.7Z"/>
      </g>
      <g>
        <path class="cls-10" d="m910.5,301.59c-.84,1.14-1.63,2.32-2.36,3.55h44.7c-.72-1.23-1.52-2.41-2.36-3.55h-39.99Z"/>
        <path class="cls-10" d="m958.2,325.4c0-1.22-.06-2.4-.15-3.55h-55.12c-.09,1.15-.15,2.33-.15,3.55h55.41Z"/>
        <path class="cls-10" d="m904,250.94c.3,1.22.65,2.41,1.06,3.55h50.87c.41-1.14.75-2.33,1.06-3.55h-52.98Z"/>
        <path class="cls-10" d="m916.21,271.2c1.23,1.22,2.51,2.4,3.83,3.55h20.91c1.32-1.15,2.6-2.33,3.83-3.55h-28.56Z"/>
      </g>
    </g>
    <path class="cls-13" d="m902.5,329.94h-5.33c0-24.73,16.12-37.04,31.71-48.95,15.23-11.63,29.61-22.62,29.61-44.71h5.33c0,24.73-16.12,37.04-31.71,48.95-15.23,11.63-29.61,22.62-29.61,44.71Z"/>
    <path class="cls-8" d="m963.82,329.94h-5.33c0-22.1-14.38-33.08-29.61-44.71-15.59-11.91-31.71-24.22-31.71-48.95h5.33c0,22.1,14.38,33.08,29.61,44.72,15.59,11.9,31.71,24.22,31.71,48.95Z"/>
  </g>
  <path class="cls-8" d="m814.09,240.09v77.48c0,6.84,5.54,12.38,12.38,12.38s12.38-5.54,12.38-12.38v-77.48h-24.75Z"/>
  <path class="cls-10" d="m817.53,283.58v33.98c0,4.93,4.01,8.93,8.93,8.93s8.93-4.01,8.93-8.93v-33.98h-17.87Z"/>
  <path class="cls-13" d="m838.84,243.9h-24.75c-2.1,0-3.81-1.71-3.81-3.81s1.71-3.81,3.81-3.81h24.75c2.11,0,3.81,1.71,3.81,3.81s-1.71,3.81-3.81,3.81Z"/>
  <path class="cls-8" d="m854.94,240.09v77.48c0,6.84,5.54,12.38,12.38,12.38s12.38-5.54,12.38-12.38v-77.48h-24.75Z"/>
  <path class="cls-13" d="m858.38,274.98v42.59c0,4.93,4.01,8.93,8.93,8.93s8.93-4.01,8.93-8.93v-42.59h-17.87Z"/>
  <path class="cls-13" d="m879.69,243.9h-24.75c-2.1,0-3.81-1.71-3.81-3.81s1.71-3.81,3.81-3.81h24.75c2.1,0,3.81,1.71,3.81,3.81s-1.71,3.81-3.81,3.81Z"/>
</svg>