<?xml version="1.0" encoding="UTF-8"?>
<svg id="Unapproved_Substances" data-name="Unapproved Substances" xmlns="http://www.w3.org/2000/svg" viewBox="0 0 1201 601">
  <defs>
    <style>
      .cls-1 {
        fill: #3c4043;
      }

      .cls-1, .cls-2, .cls-3, .cls-4, .cls-5, .cls-6, .cls-7, .cls-8 {
        stroke-linejoin: round;
      }

      .cls-1, .cls-2, .cls-3, .cls-4, .cls-6, .cls-7 {
        stroke-linecap: round;
      }

      .cls-1, .cls-2, .cls-4, .cls-9, .cls-10 {
        stroke: #3c4043;
      }

      .cls-2, .cls-11, .cls-10 {
        fill: #fff;
      }

      .cls-3, .cls-4, .cls-5, .cls-7 {
        fill: none;
      }

      .cls-3, .cls-5 {
        stroke: #bdc1c6;
      }

      .cls-12 {
        fill: #f8f9fa;
      }

      .cls-13, .cls-9 {
        fill: #e8eaed;
      }

      .cls-14 {
        fill: #bdc1c6;
      }

      .cls-15 {
        fill: #d0e1fa;
      }

      .cls-16, .cls-6 {
        fill: #4285f4;
      }

      .cls-6 {
        stroke: #4285f4;
      }

      .cls-6, .cls-7 {
        stroke-width: 4px;
      }

      .cls-7 {
        stroke: #fff;
      }

      .cls-9, .cls-10 {
        stroke-miterlimit: 10;
      }

      .cls-8 {
        fill: #ea4335;
        stroke: #ea4335;
      }
    </style>
  </defs>
  <path class="cls-4" d="m164.42,538.22h872.16"/>
  <path class="cls-1" d="m345.75,401.85l328.12,29.02v-28.58s-355.25-.44-328.12-.44Z"/>
  <g>
    <path class="cls-10" d="m670.65,473.45H168.68c-2.34,0-4.25-1.91-4.25-4.25V190.56c0-2.34,1.91-4.25,4.25-4.25h501.98c2.34,0,4.25,1.91,4.25,4.25v278.64c0,2.34-1.89,4.25-4.25,4.25Z"/>
    <path class="cls-9" d="m482.22,538.22h-127.26c15.46-11.25,25.89-28.14,28.99-47.01l2.91-17.76h63.45l2.91,17.76c3.11,18.87,13.53,35.76,28.99,47.01Z"/>
    <path class="cls-1" d="m452.63,487.59l-65.87-13.4.13-.74h63.43l2.3,14,.02.15Z"/>
    <path class="cls-3" d="m201,342h196.63"/>
    <path class="cls-3" d="m201,357.42h196.63"/>
    <path class="cls-3" d="m201,372.85h196.63"/>
    <path class="cls-5" d="m166.72,209.03h505.93"/>
    <path class="cls-3" d="m177.11,200.79c1.71,0,3.09-1.38,3.09-3.09s-1.38-3.09-3.09-3.09-3.09,1.38-3.09,3.09,1.38,3.09,3.09,3.09Z"/>
    <path class="cls-3" d="m192.28,200.79c1.71,0,3.09-1.38,3.09-3.09s-1.38-3.09-3.09-3.09-3.09,1.38-3.09,3.09,1.38,3.09,3.09,3.09Z"/>
    <path class="cls-3" d="m207.46,200.79c1.71,0,3.09-1.38,3.09-3.09s-1.38-3.09-3.09-3.09-3.09,1.38-3.09,3.09,1.38,3.09,3.09,3.09Z"/>
    <path class="cls-3" d="m201,388.27h196.63"/>
    <path class="cls-3" d="m201,403.69h196.63"/>
    <path class="cls-3" d="m201,419.11h133.67"/>
    <rect class="cls-13" x="201" y="241.19" width="145.2" height="76.1"/>
    <path class="cls-12" d="m246.47,293.65h54.27c.75,0,1.44-.43,1.77-1.11.33-.67.24-1.48-.23-2.07l-18.18-22.91c-.37-.47-.94-.74-1.54-.74s-1.17.27-1.54.74l-11.96,15.07-7.41-9.34-1.54,1.22h0s1.54-1.22,1.54-1.22c-.37-.47-.94-.74-1.54-.74s-1.16.27-1.53.74l-13.64,17.18c-.47.59-.56,1.39-.23,2.07.33.68,1.02,1.11,1.77,1.11Zm13.64-15.99l7.41,9.34c.37.47.94.74,1.53.74s1.17-.27,1.54-.74l-1.54-1.22h0s1.54,1.22,1.54,1.22l11.96-15.06,14.12,17.79h-46.15l9.58-12.06Z"/>
  </g>
  <path class="cls-1" d="m345.75,409.85l328.12,29.02v-28.58s-355.25-.44-328.12-.44Z"/>
  <g>
    <rect class="cls-2" x="344.16" y="229.88" width="539.89" height="179.96"/>
    <path class="cls-4" d="m369.87,352h334.22"/>
    <path class="cls-4" d="m369.87,377.71h305.3"/>
    <path class="cls-16" d="m369.87,300.58h334.22v25.71h-334.22v-25.71Z"/>
    <rect class="cls-16" x="369.87" y="263.7" width="334.89" height="12.85"/>
  </g>
  <path class="cls-2" d="m1036.58,101.26h-305.05v278.35h305.05V101.26Z"/>
  <path class="cls-1" d="m732.21,379.83l151.84,29.02v-28.58s-164.4-.44-151.84-.44Z"/>
  <path class="cls-15" d="m1008.29,130.07h-248.09v220.37h248.09v-220.37Z"/>
  <g>
    <path class="cls-8" d="m731.53,139.74c21.25,0,38.48-17.23,38.48-38.48s-17.23-38.48-38.48-38.48-38.48,17.23-38.48,38.48,17.23,38.48,38.48,38.48Z"/>
    <g>
      <path class="cls-7" d="m718.32,114.61l26.56-26.7"/>
      <path class="cls-7" d="m744.74,114.61l-26.56-26.7"/>
    </g>
  </g>
  <g>
    <g>
      <path class="cls-16" d="m841.68,305.21l-5.24-.63,16.21-135.51c.22-1.81-1.08-3.47-2.9-3.68l-22.87-2.74.63-5.24,22.87,2.74c4.7.56,8.07,4.84,7.51,9.55l-16.21,135.51Z"/>
      <path class="cls-14" d="m882.21,196.69h-73.4v5.6h73.4v-5.6Z"/>
      <path class="cls-11" d="m882.13,202.17h-73.25c0,31.87,23.03,37.77,23.03,59.1s-12.48,17.52-12.48,59h52.16c0-41.48-12.48-37.66-12.48-59s23.03-27.24,23.03-59.1Z"/>
      <path class="cls-14" d="m872.01,320.27h-52.7v5.6h52.7v-5.6Z"/>
      <path class="cls-15" d="m848.7,202.17l-12.25,102.41,5.24.63,12.33-103.04h-5.31Z"/>
    </g>
    <g>
      <g>
        <polygon class="cls-6" points="822.18 261.22 808.86 252.8 808.86 269.64 822.18 261.22"/>
        <rect class="cls-6" x="790.23" y="258.12" width="22.2" height="6.21"/>
      </g>
      <g>
        <polygon class="cls-6" points="868.84 261.22 882.16 269.64 882.16 252.8 868.84 261.22"/>
        <rect class="cls-6" x="878.59" y="258.12" width="22.2" height="6.21" transform="translate(1779.38 522.45) rotate(180)"/>
      </g>
    </g>
  </g>
  <g>
    <circle class="cls-11" cx="965.28" cy="233.44" r="19.97"/>
    <g>
      <rect class="cls-15" x="945.77" y="231.12" width="39.94" height="2.41" transform="translate(161.05 -350) rotate(22.37)"/>
      <rect class="cls-15" x="944.85" y="233.35" width="39.94" height="2.41" transform="translate(161.83 -349.48) rotate(22.37)"/>
    </g>
    <path class="cls-14" d="m965.28,213.47c2.09,0,4.21.33,6.3,1.02,10.47,3.47,16.13,14.78,12.66,25.24-2.78,8.38-10.58,13.68-18.95,13.68-2.09,0-4.21-.33-6.3-1.02-10.47-3.47-16.13-14.78-12.66-25.24,2.78-8.38,10.58-13.68,18.95-13.68m0-3h0c-9.91,0-18.67,6.32-21.79,15.74-1.93,5.82-1.48,12.05,1.27,17.53,2.75,5.48,7.47,9.57,13.29,11.5,2.35.78,4.79,1.18,7.24,1.18,9.91,0,18.67-6.32,21.79-15.74,1.93-5.82,1.48-12.05-1.27-17.53-2.75-5.48-7.47-9.57-13.29-11.5-2.35-.78-4.79-1.18-7.24-1.18h0Z"/>
  </g>
  <g>
    <circle class="cls-11" cx="939.53" cy="281.99" r="19.97"/>
    <g>
      <rect class="cls-15" x="920.03" y="279.67" width="39.94" height="2.41" transform="translate(177.59 -336.55) rotate(22.37)"/>
      <rect class="cls-15" x="919.11" y="281.9" width="39.94" height="2.41" transform="translate(178.37 -336.03) rotate(22.37)"/>
    </g>
    <path class="cls-14" d="m939.53,262.02c2.09,0,4.21.33,6.3,1.02,10.47,3.47,16.13,14.78,12.66,25.24-2.78,8.38-10.58,13.68-18.95,13.68-2.09,0-4.21-.33-6.3-1.02-10.47-3.47-16.13-14.78-12.66-25.24,2.78-8.38,10.58-13.68,18.95-13.68m0-3h0c-9.91,0-18.67,6.32-21.79,15.74-1.93,5.82-1.48,12.05,1.27,17.53,2.75,5.48,7.47,9.57,13.29,11.5,2.35.78,4.79,1.18,7.24,1.18,9.91,0,18.67-6.32,21.79-15.74,1.93-5.82,1.48-12.05-1.27-17.53-2.75-5.48-7.47-9.57-13.29-11.5-2.35-.78-4.79-1.18-7.24-1.18h0Z"/>
  </g>
</svg>