<svg xmlns="http://www.w3.org/2000/svg" data-name="Слой 1" viewBox="0 0 621.9 614.2"><path fill="none" d="M427.6 266.7v.1a19 19 0 017.4 5.8 18.1 18.1 0 00-7.4-6zM449.5 290.6c-2.9.8-6.5.2-8.4-1.8.3 2.7 1 6 .8 9.4a8.2 8.2 0 01-3.9 7.2c-3.7 2.5-8.8 10.1-5 10.8.6-2 3.1-6.8 4.1-6a.6.6 0 01.1.9c-1.7 2.1-3.8 5.7-3 6.7 1.4.8 3.5-1.6 4.7-2.8a.6.6 0 01.9.8 16.7 16.7 0 01-2.4 2.2c2 .2 3.4-1 5.2-2.8a.6.6 0 01.8 0c.8 1-1.5 2.2-2 2.7a5.8 5.8 0 004.2-2.6.6.6 0 011 .7 10.4 10.4 0 01-1 1c9.4-4.9 9.5-22.8 9.7-30.5a8.4 8.4 0 01-5.8 4zM319 263c.1 1.6 1.5 11-.1 11.5a.6.6 0 01-.6-.6 63.2 63.2 0 00-.7-13c-.9-.8-.5-1.8-.6-2.8a67.5 67.5 0 00-11.4-25.7c12 19.6 10.9 72.9-3.9 87.8a127 127 0 0026.7-18 54.6 54.6 0 00-9.3-39.2zM379.5 186.6l-11.2 3.3-4.4.3a54.2 54.2 0 00-2 6.9c5.2 5.2 18.3 3.2 19.6-4.5a21.2 21.2 0 01.7-6.1l-1.1 1.8s-2.1 2-1.6-1.7z"/><path fill="none" d="M312.6 277.3c1.1-23.4-5.7-45.6-15.8-54.9 14.8 17 13.1 88-5 102a15.1 15.1 0 005-1.8c9.8-6.2 14.5-21.4 15.8-45.3zM415.9 229.5l-.6-.3.5.4z"/><path fill="none" d="M613.6 243l-166.3-89C447 153.7 323 10.5 322.8 9.9a5 5 0 00-7.4-.3c-.5.3-134.3 134-134.8 134.2l-172.4 76a5.2 5.2 0 00-2.8 3 5.3 5.3 0 00.2 4.2L89 398.6c0 .6 17.8 190.7 17.6 191.3a5.2 5.2 0 006 4.8c.5 0 185.8-28 186.3-27.8L482 609a5.2 5.2 0 006.2-4.2c.2-.5 31.3-189 31.7-189.4l95.8-164.8a5.5 5.5 0 00-2.1-7.5zm-133.8-17a23.5 23.5 0 01-19.3 5.7 9 9 0 005 4.2.6.6 0 01.5.6c-8.3 3.6-23 1-31.1-2.8l-2.1 3.5c21.7 13.8 26.7 46.1 22.5 64.5 0 .7-3.4 17.5-11.5 16.7a5.3 5.3 0 01-4 .5 4.2 4.2 0 01-3.7 0c-1.3.7-3.1.2-3.2-1.5-5.9-1 0-10 4.5-13 3.3-2.3 3.1-4.6 3.4-7-1-18.7-6.4-25.8-12.8-29-6.8 13.6-16 26.3-23.5 35.7a.6.6 0 01-.2.4l-2.7 2.8-.1.4a36 36 0 006-6c4.2-1-5.4 7.3-6.5 7.9-.8 2.9-7.7 28.6-8 30.7l3-8a.6.6 0 111.2.3l-4.4 11.2 14.3 7.3c4 1.2 6.6 3 7.9 5.5 1.4 2.6 1.3 6.1-.2 10.3-6.7 19-21.2 24.4-16.7 1.4-9.5.4-28-2.3-32.6-9-8-9.7-6.2-47.4-6-51.3a59.8 59.8 0 01-13.5-20.9c-2 3-18.4 23.7-17.3 18.4a129.7 129.7 0 0012.5-14c-12 13.6-31.3 27-42.5 31.4-2.7 2-6.6 2.7-9.7 3.3a8 8 0 01-5.5.5l-4 8.7c-.9 2-2.7 3-4.6 3.5a16.7 16.7 0 01-8.6 8.2l-.7 1.4 35.7-11.8a4.6 4.6 0 013.9.4l56.7 34.9a1.8 1.8 0 01.3 2.9l-7.9 17.5c-.6 1.8-3.2 2.2-4.8 2.8a12 12 0 01-7.3 6.2l-.1.4 24.1-8.4a.6.6 0 01.5 0l41.8 26.4a.6.6 0 010 1l-7.1 13.4a.6.6 0 01-.4.3l-7.6 2.6a20.9 20.9 0 01-7.7 8.8l-18.4 47.3 14.1 13.8a.6.6 0 01-.2 1l-35 12a.6.6 0 01-.7-.2l-16.5-21c0-.1-1-1-1-1.3l-1.1-5.2a2 2 0 01.9-2.8l8.2-3.3.8-50.2a23.4 23.4 0 01-3.4-7.3l-6.4-4-24 61.6 9.1 9.8c1.4 1.4.2 3-.8 4.2l8.1 7.3a.6.6 0 01.2.6c0 .9-46.5 15.8-46.9 16.2a.6.6 0 01-.7-.3c-.7-3.2-22-27.5-24.3-30.7l-3-9.5a.6.6 0 010-.3 2.3 2.3 0 011.3-2.4l12.4-4.8 1-72.3a32 32 0 01-5.8-14.2 12.6 12.6 0 01-6.5-8.8 7.7 7.7 0 01-2-1.8L213 467l15.2 15.7a.6.6 0 01.1.6c.3 0-3.7 4.2-3.7 4.3l13 12.7a.6.6 0 01.1.6c0 1-64.8 19.5-65.2 20-1 .4-35.2-43.2-35.9-43.4-.1-.2-4.8-13-5-13.2v-.4a.6.6 0 01.4-.5l20-8.4-.5-107.4a50.2 50.2 0 01-6.3-11.4c-5.4-2.6-10.2-7-11.1-13.2a5.6 5.6 0 01-3.3-4.7l-1.6-27.9a.6.6 0 01.3-.5 2.2 2.2 0 011.5-2.2l76.4-25.9c.4-3.9 58.8 31.7 60.1 31.6-4.7-23 4.4-101.7 33.5-68.2a67.3 67.3 0 0117 31.6c4.9-6.3 27.5-27 40.3-21.3 4.8 1 10.4 6.7 16.1 14.2 3.2-2.8 7.9-6.4 12-9.4-25.8-14-40.2-46.1-15.2-70.2.2 0 19.6-18.6 25-9.9a5.2 5.2 0 012.7 2.9 4.5 4.5 0 012.2 3.2 5.2 5.2 0 01.5.7c6.4.4-2.8 10-9.3 9.1a11.4 11.4 0 00-3.3.2c-19.7 23 11.3 44.8 27.9 52.4l2.1-1.8c-4.6-5.6 1.7-11.8 6.5-15.8-.4-2.3 1.1-4.4 3-2.3l3.6-2.3c16.2-12 30.6 22 47.2 18.6a.6.6 0 01.5 1zm54.2 71.3c-18.4-.4-18.4-27.5 0-28 18.5.5 18.5 27.6 0 28z"/><path fill="none" d="M402.4 221.6c-8.3-5.8-18.6-14.7-20.6-26 1.6 11.2 12 20.3 20.6 26z"/><path fill="#7ea2ff" d="M619 245.5a8.3 8.3 0 00-4-5.1l-166-88.8L325 7.9a8 8 0 00-11.8-.5L179.2 141 7 216.9a8.3 8.3 0 00-4.4 4.7 8.4 8.4 0 00.3 6.6l83.2 171.5 17.4 190.5a8.2 8.2 0 003.2 5.8 8 8 0 006.2 1.7l185.5-27.8 182.9 42a8 8 0 006.2-1.1 8.4 8.4 0 003.7-5.6l31.4-188.6L618.3 252a8.4 8.4 0 00.8-6.5zm-3.3 5l-95.8 164.8c0 .6-31.8 188.7-31.7 189.4a5.2 5.2 0 01-6.2 4.3c-.6 0-183.2-42.3-183.8-42l-185.7 27.7a5 5 0 01-4-1 5.3 5.3 0 01-2-3.8L89.1 399.1c-.4-.4-83-171.8-83.5-172.2a5.4 5.4 0 012.6-7.3c.4-.3 172.5-75.7 172.8-76.2l134.4-134a5 5 0 017.4.4c.4.3 124 144.1 124.5 144.3l166.3 89a5.5 5.5 0 012 7.4zM346.5 515l25.1-11.7-2.6 2.9-22.9 10.5zm-18-20.6l16.9 20.2-.4 1.7-15.1-18.4-.7-.9-.6-2.7zm44 6.2a.6.6 0 01-.3 1.1l-25.5 11.9-14.4-20a1.4 1.4 0 01-.4-1c0-.7.7-1 1.2-1.4l2.9-1.8c-.3 4.7.3 9.6 3.7 13.2a.6.6 0 00.3.3c7.5 8.5 22.3 5.2 25.5-5.5l1.3-3 5.7 6.1zm-28.8-57.5a37.5 37.5 0 008.2 4.6l-8.3 56.7a14.2 14.2 0 01-2.8-2.3l3-59zm15.8 7a41.7 41.7 0 005.6.7l-16 55.7a14 14 0 01-4.4-1.5l8.4-56.8a41.2 41.2 0 006.4 1.8zm18-.6a30 30 0 006.5-2.6l-17.7 45.3-.2.6-1.5 3.8a14.6 14.6 0 01-8.1 9zm-35-7.4l-2.8 58.6a14.8 14.8 0 01-2.5-9.9l.7-53.3a31.2 31.2 0 004.7 4.6zm14.5 41l.2-.7 9-31.6a35.9 35.9 0 0010-1L355 506.3a13.8 13.8 0 01-4.7.5zm31.4-44.5l3.4-1.1c-12.5 20.4-49.2 13.6-57-8l3.2 2 24.8 15.7a.6.6 0 001-.3zM333 427l-5.5-3.5 2-5.1a33.1 33.1 0 004.4-3.4l31.9 18.7-3.2 12zm61-1.6l-27 8.4-3.1 12 36.5-12.4 6.5-12-12.4 3.8zm-22 14.2c-1.5 3.8-6.1 2-4.4-2 1.8-4 6.2-1.8 4.5 2zm6-2.3c-1.7 3.8-6 1.8-4.3-2 1.7-3.7 6-1.8 4.3 2zm6.2-2c-1.7 4-6.2 2-4.5-2 1.8-3.9 6.2-1.8 4.5 2zm-13 2.3c.2 1.2-.8 3.2-2.2 2.9-1.8-.9 1.2-6 2.2-3zM348.8 422l-11.2-6.5 30.2-20 39 24.5-40 12.5zM272 516.8a.5.5 0 000 .1l-.7 3.1-22.5-27-2-6.1c7.5 8.7 17.6 21.4 25.3 29.9zm2.1.1l35.4-16.2-3.5 4.5-33.6 15.2.8-3.3a2.3 2.3 0 001-.2zm37.1-20c1.1 1.5-.8 2-1.9 2.5l-.5.3-35.2 16.1a1 1 0 01-1.3-.3l-1.7-2-18.3-27.6a1.8 1.8 0 01.6-2.8l5.4-3.4v1.5c-3 27 32.6 36.2 42.3 11 .4-.7 1.5-3.9 1.9-4.7zM269 414a54.3 54.3 0 0012.3 7l-11.5 78.5a20.6 20.6 0 01-4.8-4.1c1-19 2.9-62.1 4-81.4zm59 5.4L301 488a23.1 23.1 0 01-12.4 12.9l29.2-77.3a42.7 42.7 0 0010-4.2zm-60 81.9a22.4 22.4 0 01-2.3-3.5 21.7 21.7 0 004 3 .6.6 0 00.6.3c8.9 5.1 20.8 2.4 27.4-5.2-5.5 9.8-21.6 13.7-29.7 5.4zm22-7l-2.8 7.2a20.4 20.4 0 01-7.7 1l22-77.1a52.6 52.6 0 0015-1.4zm-14.7-23.9l.1-.7 7-48.2a60.2 60.2 0 0018 3.8L278 502.4a20.5 20.5 0 01-7.3-2.3l4.4-29.7zm41.7-47.8c-23.8 6.3-56.6-5.9-62-31.9l40.8 24.6a3.8 3.8 0 003.3.4l34.8-11.5 7-2.4c-3 10.9-13.4 18-23.9 20.8zM299.4 412l48.2-16c-2.5 4.1-8.4 5-12.5 6.5l-.8.2-35.7 11.9a2.6 2.6 0 01-2.3-.3l-35.6-21.5c-4.4-2.9-10.9-5.3-12.2-10.8l12.2 7.4 37.9 22.9a.6.6 0 00.8-.3zm-52.5-32.4a6.5 6.5 0 01-1.4-1.6l4.9-13.3 2-1.4 50.5 29.5-4.6 17.9c-14.4-8.7-37.4-22.5-51.4-31.1zm59.6 28.6l35.2-11.7L352 393a2.3 2.3 0 001.3-1.2l7.3-16.3-56.4 17.4v.3l-4.6 17.2h.4zm6-7c-2.6 5.8-9 2.8-6.4-3 2.4-5.5 9-3 6.4 3zm8.8-3.3c-2.8 6-8.8 2.2-5.9-3.3 3-5.2 8.3-1.8 6 3.3zm2.7-6c2.5-5.8 9-2.9 6.4 3-2.6 5.7-8.9 2.7-6.4-3zm-12.2 7.5a4.8 4.8 0 01-2.6 3.6c-2.5 1-3-2.8-2-4.5 1.4-3 5.2-3 4.6 1zm-56.9-38l50.5-22.8 56 34.4a.6.6 0 01-.2 1.1l-57 17.6-50.4-29.4 1.1-1zm109.9-181.5a64.5 64.5 0 00-3.3 6.7 38 38 0 013.3-6.7zm26.5-15.3a.6.6 0 00.7-.8c.3-.5.9-1.4.2-2a6.1 6.1 0 013.3 0c0 3-4.1 5.2-5.4 3.9-1.6-1.3-.5-1.8 1.2-1.1zm6.5 2.6a5.2 5.2 0 001.3-2.4 2.2 2.2 0 01.8 1.4c-.1 2.8-4.2 4.4-5.5 3.1a5.6 5.6 0 003.4-2.1zm-2.4-2.1a5.2 5.2 0 001.2-2.5 4.2 4.2 0 011.3 1.6v-.1c.2 1.9-3.2 4.6-4.4 4a.6.6 0 00-.3 0 1.5 1.5 0 01-1.2-.9 5.7 5.7 0 003.4-2.1zm-31.5 25c5.1-13.8 12.2-21 27.2-28a3.3 3.3 0 00.2.5l-.3.6c-3.8-1-3.6 3.6-.2 4a2.5 2.5 0 002 2 2.3 2.3 0 001 1.2c1.5 3.7 9 1.8 8.4-2.3 1.8 1.1-5 7.4-9.8 6.7-4.6-.4-6.7 1.5-6.8 1.6a.6.6 0 00.4 1c.5 0 .3-.2 1.2-.6a27.7 27.7 0 00-5 9.7l-1.1 1.8s-2.1 2-1.6-1.7l-11.2 3.3zm35.8-20.9a5.3 5.3 0 001-1.5c1.4 2.3-3.4 4.3-4.5 3.3a5.3 5.3 0 003.5-1.8zm14.2 188c5.2 12.5-20.5 42.9-14.6 11.2 2.6 0 4.4-.2 4.6-.2 5-.3 9.8-8 6.2-14.6a8.7 8.7 0 013.8 3.5zm-122.1-48.5a2.7 2.7 0 00-1.4-2.6l-13.9-7.7-1-.6a98.6 98.6 0 01-1.8-11.1h.1l1.4.9 21.4 11.8a36.4 36.4 0 01-8.3 17c.4-1.2 3.3-6.6 3.5-7.7zm-18.6-32c-.3-15.1 2-40 12.4-49.6 7-4.1 15.6 19.2 14.7 48.3a121 121 0 01-1.6 15.5zm55.4 29.6a.6.6 0 010-.8 148 148 0 0017-19.9.6.6 0 01.3-.3c3.8-5.2 7.7-11.1 11.3-17 4.6-2.6-10 17-10.3 17.6 7 20.5 29 42.3 54.6 21.8a36 36 0 006-6c4.2-1-5.4 7.3-6.5 7.9-25.2 19-47.3-1.3-55-22.5a144.1 144.1 0 01-16.5 19.3.6.6 0 01-.9 0zm68.6 26.3l-8.3 21.4a.6.6 0 01-1.1-.5l5.1-13.2 3.2-8a.6.6 0 011 .3zm42.5-123c3.4 5 3.5 9.8-2 11.8a.6.6 0 00.3 1.1c.8 0 2.8 1 2.6 2.1 0 2.6-3.5 3.3-4.9 2.7-1.7 0-2 4-1.6 5.3l-2.5 4.3c-3 1.7-10.3 4.7-14.5 1.5-4-2.8-2-7.1.6-9 2.5 2 6.2 1.4 9 .4h-.4c.8 0 .9-1.3 0-1.3a13 13 0 01-5-1.5c-.5-2.8 1.3-5.7 3.8-8.4a3.8 3.8 0 004.9.5.6.6 0 00-.7-1 2.7 2.7 0 01-3.4-.4 59.6 59.6 0 0111.7-8.4zm-10.8 30l1-.5a9.6 9.6 0 01-1 .5zm-295 227l37.9 44-.9 5-33.3-39zM223 486l2.1-1-7.1 8-46 22.6.9-4.7 49-24.3zm3-3.8l.6.7L182 505l-9-10a30 30 0 0037-19.9.6.6 0 00.1-.2l2.5-6.8zM246.8 371l-35.3 96.5a34 34 0 01-18.5 19.7L233.3 373a68 68 0 0015.4-7.2l-1.9 5.2zm-77.6 119.4a28.8 28.8 0 01-3.5-5.2c13.5 10 33.2 5 42.4-8.5-4.8 13.9-22 22-35.7 17a26.3 26.3 0 01-3.2-3.3zm26-13.1l-3.7 10.4a28.2 28.2 0 01-10.3 1.6l29.3-112.8a72.5 72.5 0 0021.4-3l-36.7 103.8zm-33-26.8l2.8-72a.6.6 0 00-.6-.6v-2.7a.6.6 0 001-.5l.5-13a76 76 0 0017.4 9.6l-4.7 35.7a.6.6 0 101.2.2l4.7-35.5a76.3 76.3 0 0024.8 4.7L180 489.2a28 28 0 01-10.2-3c3-21.7 6.2-50.2 9-72.2a.6.6 0 00-1.1-.2l-8.9 71.9a28 28 0 01-4.1-2.8c-.6-1.4-1-3.6-2.6-2.5l-1-1.2a.6.6 0 00.1-.4l.4-9.1.7-19.2zm70.2-78.5c-31.1 10.2-71.7-4.1-85.5-35l54.7 31.7a5.3 5.3 0 004.4.4l47.9-17.5 10.8-3.9a54.3 54.3 0 01-32.3 24.3zm-97-48.3l49.2 28.5 20.9 12.1a.6.6 0 00.8-.2l66.8-24.4c-3.1 6.1-12.2 7.9-18 10.2l-.7.3-48.8 17.8a4 4 0 01-3.4-.3l-50-29-7.6-4.4c-4.4-2.1-8-5.8-9.1-10.6zm75.8 13.6l-6.1 25.4-26-15.1-10.3-34zm-4.5 25.2l69-25.2a4.6 4.6 0 002.7-2.4l4-8.6.2-.5 6.7-14.6-33.2 11.3c-3.1 1.4-41.8 14.2-43.7 15l-6 25.2zm16.7-13.5c-1.3 3-4 5.7-7.2 4.5-4.6-1.8-2.4-11.3 2.2-12.8 4.7-1.7 7 3.7 5 8.4zm12.5-5.3c-3.4 8-12 4.5-8.7-3.8 3.4-8.1 12-4.2 8.7 3.8zm12.8-4.4c-3.6 8.4-12.4 4.5-9-4 3.3-8 12.4-5 9 4zm-26.4 9.3c-1 2.4-3.2 4.6-5.6 3.8-3.6-1.4-1.4-9.5 2.2-10.6 3.6-1.3 5 3.1 3.4 6.8zm-63.9-56L211 263l79 44.1a1.5 1.5 0 01-.3 2.8l-8.6 3-11.4 3.8-57.4 19.4-43.3-24.3c-2.5-4.6-8.2-16.1-10.5-19.1z"/><path d="M372.1 436.6c-2.7-4-7 3.4-3.5 5 2.5 1 4.7-2.9 3.5-5zm-1 2.4c-1 2.5-3.5 1.8-2.4-1 1-2.2 3.2-1.5 2.4 1zm-59.9-43.7c-4.4-1.7-8 6.6-3.9 8.8 4.6 1.9 8-7 4-8.8zm.6 4.1a4.8 4.8 0 01-2.6 3.6c-2.5 1-3-2.8-2-4.5 1.4-3 5.2-3 4.6 1zm95.3-48.3l-14.3-7.3c0 .3-3.7 9.6-4 10.2a.6.6 0 01-1-.4l3.5-9.1 1.6-4.2c.4-2 7.3-27.9 8-30.7-13.3 10.4-30.2 9.8-41.4-1.6-.2 4-2 41.6 6 51.3 4.7 6.7 23.2 9.4 32.6 9-4.5 23 10 17.6 16.7-1.4 2.9-8 .5-13.3-7.7-15.8zm-4.6 31c-5.8 1.6-3.8-9.7-3.2-13.7 2.6 0 4.4-.2 4.7-.2 4.8-.3 9.7-8 6.1-14.6 11.7 5.3-2 26.9-7.6 28.6zm77.3-156a.6.6 0 00-.5-1.1c-16.6 3.4-31-30.5-47.2-18.6l-3.5 2.3c-2-2-3.5 0-3.1 2.3-4.8 4-11 10.2-6.5 15.8l-2.1 1.8c-16.6-7.6-47.6-29.5-27.9-52.4a11.4 11.4 0 013.3-.2c6.5 1 15.7-8.7 9.3-9.1a5.2 5.2 0 00-.5-.7 4.5 4.5 0 00-2.2-3.2 5.2 5.2 0 00-2.8-2.9c-5.3-8.7-24.7 9.9-24.9 10-25.2 24-10.4 56.5 15.5 70.3a103 103 0 00-12.3 9.3c-5.7-7.6-11.4-13.3-16.1-14.3-12.8-5.7-35.4 15-40.3 21.3a67.3 67.3 0 00-17-31.6c-29.1-33.4-38.2 45.2-33.5 68.2-1.6 0-59.5-35.4-60-31.6L131 287.6a2.2 2.2 0 00-1.5 2.2.6.6 0 00-.3.5l1.6 27.9a5.6 5.6 0 003.2 4.7c1 6.2 5.8 10.6 11.2 13.2a50.2 50.2 0 006.3 11.4L152 455l-19.9 8.5a.6.6 0 00-.3.4v.5c0 .1 4.8 13 5 13 .6.3 34.8 44 35.8 43.4.4-.4 65.2-19 65.2-19.9a.6.6 0 00-.1-.5l-13-12.8c0-.1 4-4.3 3.7-4.3a.6.6 0 00-.1-.6L213 467l32-87.5a7.7 7.7 0 002.1 1.7 12.6 12.6 0 006.5 8.8 32 32 0 005.7 14.2l-1 72.3-12.3 4.8a2.3 2.3 0 00-1.4 2.4.6.6 0 000 .4l3.1 9.4c2.4 3.3 23.5 27.4 24.3 30.8a.6.6 0 00.7.2c.4-.4 47-15.3 47-16.2a.6.6 0 00-.3-.6l-8.1-7.3c1-1.2 2.2-2.7.8-4.2l-9.2-9.8 24.1-61.6 6.4 4a23.4 23.4 0 003.4 7.3l-.8 50.3-8.2 3.2a2 2 0 00-1 2.8l1.2 5.3 1 1.2 16.5 21a.6.6 0 00.7.2l35-12a.6.6 0 00.2-1l-14.1-13.7 18.4-47.4a20.9 20.9 0 007.7-8.8l7.6-2.6a.6.6 0 00.4-.3l7.2-13.4a.6.6 0 000-1l-41.9-26.4a.6.6 0 00-.5 0l-24.1 8.4v-.4a12 12 0 007.4-6.2c1.6-.6 4.2-1 4.8-2.8l7.9-17.5a1.8 1.8 0 00-.3-2.9l-56.7-34.9a4.6 4.6 0 00-4-.4l-35.6 11.8.7-1.4a16.7 16.7 0 008.6-8.2c1.9-.6 3.7-1.5 4.6-3.5l4-8.7a8 8 0 005.5-.5c3.2-.7 7-1.2 9.7-3.3 12.8-5.1 36-21.3 47-37.3a.6.6 0 01.2-.3c3.8-5.2 7.7-11.1 11.3-17 4.6-2.6-10 17-10.3 17.6 7 20.5 29 42.3 54.6 21.8v-.4l2.8-2.8a.6.6 0 00.2-.4c7.5-9.4 16.7-22.1 23.5-35.8 6.4 3.3 11.7 10.4 12.8 29.2-.3 2.3-.2 4.6-3.4 7-4.4 2.9-10.4 11.8-4.5 13 0 1.6 1.9 2.1 3.2 1.3a4.2 4.2 0 003.6.1 5.3 5.3 0 004.1-.5c8.1.8 11.4-16 11.5-16.7 4.2-18.3-.9-50.7-22.5-64.5l2-3.5c8.3 3.8 22.8 6.4 31.1 2.8a.6.6 0 00-.4-.6 9 9 0 01-5-4.2 23.5 23.5 0 0019.3-5.7zm-48 10.4l-.3.4c-2.8 1.7-10.2 4.7-14.4 1.5-4.1-2.8-2-7.1.6-9 2.5 2 6.2 1.4 8.9.4h-.3c.8 0 .9-1.2 0-1.3-11.5-1-8.4-10.2-.6-16 .3 1 0 2 1 2a.6.6 0 00.4-.7c-.2-1.5-.8-3.5-.2-4.7 1.5.6 2 2.6 2.7 4a.6.6 0 00.8.4c1-.6-.5-2.5-1-3.8a67 67 0 014.8-3c4.8-1 8.4 7.1 7.9 10.3-.3 2-2.1 3.3-4 4.1l-.4.3a.6.6 0 00.3 1.1c5.4 1 1.3 6.3-2.3 4.8-1.7 0-2 4-1.6 5.3zm-52.2-40c-4.2 4-13.2 5-17.6.6-6.4-6.2 5.3-21.9 10-26.2 1.8-1.8 16.6-14.3 21.7-11.6 2 1.5 2.4 3 .8 5-2.4 2.8-5 1.9-5.1.2 0-.2.9-.4 1.9 0a.6.6 0 00.7-.7c.1-.3.8-1 .5-1.6a3.7 3.7 0 01-.4-.6.6.6 0 00-1.1.3 3.3 3.3 0 00.3.7l-.3.6c-3.8-1-3.6 3.6-.2 4a2.5 2.5 0 002 2 2.3 2.3 0 001 1.2c1.5 3.7 9 1.8 8.4-2.3 1.8 1.1-5 7.4-9.8 6.7-4.6-.4-6.7 1.5-6.8 1.6a.6.6 0 00.4 1c.5 0 .3-.2 1.2-.6-3.8 5-5.9 9.9-5.7 15.8a5.5 5.5 0 01-2 3.8zm17-34a3.4 3.4 0 000-.6c3.4 2.2-.8 6.7-3 6.2a.6.6 0 00-.4 0 1.5 1.5 0 01-1.2-.9c1.6 0 4.5-2.7 4.6-4.6zm4.2 5.2c1.3 2.3-3.5 4.3-4.6 3.3 1.3 0 3.9-1.6 4.6-3.3zm-1-1.5c0 2.8-4.1 4.4-5.4 3.1 1.5 0 4.5-2.6 4.7-4.6a2.5 2.5 0 01.8 1.5zM284 325.6l4.3-9.2 2.8-6.2a2.7 2.7 0 00-.7-4.1l-21.5-12c-3.3-22.2-.5-72.3 19.3-76 23.5 2.5 21.6 91.2 3.4 104.9-2.1 2-4.8 3.3-7.6 2.6zm-1.7.7l-3.9 8.6a4.6 4.6 0 01-2.6 2.4l-17.8 6.5-51.7 18.9 6-25.3c2-.7 40.8-13.6 43.8-14.9l33.2-11.3c-2 4.7-4.8 10.6-7 15.1zm-15.3 19c-8 3.5-52.3 19.2-61.4 22.7a4 4 0 01-3.4-.3l-22.8-13.2-26.7-15.5-1.2-.7-6.9-4c-4.4-2.1-8-5.8-9.1-10.6l49 28.5 21 12.1a.6.6 0 00.7-.2l66.9-24.4a15.5 15.5 0 01-6 5.7zm38.3-6.7l56 34.4a.6.6 0 01-.1 1.1L304 391.7l-50.3-29.4a43.4 43.4 0 0011-12.2l37-12.3a4 4 0 013.7.8zm37.2 61.4l-43.9 14.6c-.8 1.9-27.7-16.1-28.7-16.3l-10.4-6.3c-4-2.5-9.9-5-11-10l12.2 7.4 37.9 22.9a.6.6 0 00.8-.3l48.2-16a11 11 0 01-5.1 4zm64.3 20.1l-40 12.5-31.9-18.6a27.3 27.3 0 006.8-10.8l24.6-8.6 1.5 1zm-20.3 23.7c-16.1 12.1-44.5 5-51.6-14.2l3.1 2 24.9 15.7a.6.6 0 00.8-.3l28.1-9.4a19.6 19.6 0 01-5.3 6.3zm-49.3 42l.7-48.2a31.2 31.2 0 004.7 4.6l-2.9 58.6c-3.3-4.3-2.5-10-2.5-15zm24.6 2.4l-6.8 18a13.8 13.8 0 01-4.7.5l16-55.8a35.9 35.9 0 009.9-1L362 487.7zm-33.6 2.5a3.8 3.8 0 01.4-.2l7.4-3c-.2 5.5-.4 10.8 3.7 15.2a.6.6 0 00.3.3c7.5 8.5 22.3 5.2 25.5-5.5l1.3-3c.2.4 6.5 6.5 6 6.8a.7.7 0 01-.6.5l-25.5 11.9-.4.2-18.3-22a.8.8 0 01.2-1.2zm13 4l2.5-51.5a37.5 37.5 0 008.2 4.6l-8.3 56.7a14.2 14.2 0 01-2.7-2.3l.3-7.4zm14.9-12.6l-7 24.5a14 14 0 01-4.4-1.5l8.4-56.8a41.5 41.5 0 0012 2.6l-8.8 30.6zm-9.6 33l25.1-11.7-2.6 2.9-22.9 10.5zm-18-20.7l16.9 20.3-.4 1.7-15.1-18.4-.7-.9zm37.8-2l-1.7 4.3a14.6 14.6 0 01-8.1 9l21.1-56.1a30 30 0 006.4-2.6l-17.7 45.4zm-38.8-68.9l2-5.1a33.1 33.1 0 004.4-3.4l31.9 18.7-3.2 12zm-1.5.5l-24.2 62-.8 2a23.1 23.1 0 01-12.4 12.9l29.2-77.3a42.7 42.7 0 0010-4.2zm-14.5 73.8a1.3 1.3 0 01-1 1l-1.7.9-35.2 16.1c-1.1.7-2.3-1.8-3-2.3-3.3-4.2-13.6-16.3-16.8-20.2l-7.1-8.5c-.4-.5-1.1-1-.9-1.7-.7-.8 12.4-5.1 12.6-5.5v3.6c-3.2 27 32.5 36.2 42.2 11 .4-.7 1.5-3.9 1.9-4.7 0 .3 10 10.1 9 10.3zm-62.7-4.9l-2-6c7.5 8.7 17.6 21.4 25.3 29.9a.5.5 0 00-.1.1l-.7 3.1-22.5-27zm46.7-13.7l-8.4 22.3a20.4 20.4 0 01-7.7 1l22-77a52.6 52.6 0 0015-1.5l-21 55.2zm-36-2.7l1-70.8a44.6 44.6 0 007.2 7.3l-3.9 81a21.6 21.6 0 01-4.3-10.5v-7zm27.8-6l-9.2 32a20.5 20.5 0 01-7.3-2.4c3-19.5 8.6-58.6 11.6-78.6a60.2 60.2 0 0017.8 3.8l-12.7 44.5zm-13.3-.3l-4.3 29.3a20.6 20.6 0 01-4.8-4.1l4-81.5a54.4 54.4 0 0012.3 7.1zm23.6 25.7c-9.3 15.8-34 11.6-37.7-6.3a24 24 0 009.8 11.3.6.6 0 00.5.2c8.9 5.1 20.8 2.4 27.4-5.2zm-24.4 21.3a2.3 2.3 0 001-.3l35.3-16.2-3.5 4.5-33.6 15.2zM392.5 436l-28.6 9.6 3.1-11.9 39.9-12.4-6.5 12zm-51.8-33.8c-13.8 36.4-79 24.3-85.7-11.6l40.7 24.6a3.8 3.8 0 003.3.4l34.8-11.5 7-2.4-.1.5zM245.5 378l4.9-13.3 2-1.4 50.5 29.5-4.6 17.9-38.8-23.5-6-3.6c-1.9-1.3-6.7-3.5-8-5.6zm-1.3.1L212 466l-.5 1.5a34 34 0 01-18.5 19.7L233.3 373a68 68 0 0015.4-7.2zM226.7 483l-54.1 26.8L134 465l-.7-.9.8-.3 17.8-7.6c-.1 10.5-.6 21.3 7 29.7 14.6 18 44.6 11.3 51-10.7a.6.6 0 00.1-.2l2.5-6.8 13.6 14zm-24.3-26l-10.9 30.8a28.2 28.2 0 01-10.4 1.5l29.4-112.7a72.5 72.5 0 0021.4-3l-29.5 83.4zm3.5 22.5l2.2-2.7c-11.3 28.6-53.4 22-54.9-8.8a30.4 30.4 0 0052.7 11.5zm-53.2-130.3a65 65 0 0012 11.8l-.5 13.8a.6.6 0 00.6.6.6.6 0 00.6-.6l.5-13a76 76 0 0017.4 9.6l-4.7 35.7a.6.6 0 101.1.2l4.8-35.5a76.3 76.3 0 0024.8 4.7L180 489.2a28 28 0 01-10.2-3c3-21.7 6.2-50.2 9-72.2a.6.6 0 00-1.1-.2l-8.9 71.9a28.8 28.8 0 01-7.8-6.5.6.6 0 00.2-.4l.3-8.3.2-5.6.6-14.4c-.6-.6 4-72.7 2.2-72.6-1.7-.2-2.8 72.6-3.4 73.1l-.5 12-.6 15a30.3 30.3 0 01-6.8-19.7V455l-.3-105.9zM134 466.7l37.9 44-.9 5-33.3-39zm89.4 20.4l-5.2 6-46 22.5.9-4.7 49.5-24.6 2.7-1.3zm119.6-91l-43.3 14.4 4.4-17.2.1-.3 56.5-17.4-7.3 16.3a2.3 2.3 0 01-1.4 1.2zm-79-47c-26.5 40.8-97.8 31.4-117-12l54.7 31.6a5.3 5.3 0 004.4.4l47.9-17.5 10.8-3.9-.8 1.4zm-52.8-86l78.7 44a1.5 1.5 0 01-.2 2.8l-8.6 3-11.4 3.8-57.4 19.4-65.3-36.5-15.7-8.8a1.1 1.1 0 01-.5-.7 1.1 1.1 0 01.7-1.4l76.4-25.9a4 4 0 013.3.4zm-80.6 28.7c3.3 2 16 8.8 19 10.7 16 9.5 45.2 25.4 61.7 34.8l-6.1 25.4-70-40.5c-1.6-.8-3-2.2-3.1-4zM293.1 324l-1.3.3c18.1-14 19.8-85 5-102 19.8 15.1 22.1 87 0 100.2a13.2 13.2 0 01-3.7 1.5zm8.6-4c14.8-14.9 15.8-68 3.9-87.7a67.5 67.5 0 0111.4 25.7c.1 1-.3 2 .6 2.8a63.2 63.2 0 01.7 13 .6.6 0 00.6.6c1.6-.4.2-10 .2-11.5 4 6 12.7 21.4 9.3 39.2a127 127 0 01-26.7 18zm125.9-53.3c-1.2-.3-4.6-2.3-5.2-1a.6.6 0 00.4.7 26.7 26.7 0 014.1 1.3c-6.6 13.2-15.8 26-23 35l-1-2.7c-.5-2.4-14.1-30.5-27.8-49.5a99.8 99.8 0 0125.7-16.5.6.6 0 10-.5-1 97.1 97.1 0 00-12.7 6.7c-12.1-6.8-31-24.7-28-44 4 7.8 17.7 6.7 22.2-.2 3 16 22.2 28 34 33.9-2.5 2-3.6 7.2.6 9.8 4.7 3.4 11.3 1 15.6-1.2a57.3 57.3 0 0123.1 43.3c.8 9.4-12.4 11-14.6 4.2-2.2-9.3-5.6-15.3-13-18.8zm26.5 34.7c0 .1-2.6 13.8-8.5 15.5.3-.4 1.5-1.2.8-1.9a.6.6 0 00-.8.2 5.8 5.8 0 01-4.2 2.6c.5-.5 2.8-1.8 2-2.8a.6.6 0 00-.8 0c-1.8 2-3.2 3.1-5.2 3a16.7 16.7 0 002.4-2.3.6.6 0 00-1-.8c-1 1.2-3.2 3.6-4.5 2.8-.9-1 1.2-4.6 3-6.7a.6.6 0 00-.2-.9c-1-.8-3.5 4-4 6-4-.7 1.2-8.3 5-10.8a8.2 8.2 0 003.8-7.2c.2-3.3-.5-6.7-.8-9.4 3.6 3.8 12 2.2 14.2-2.3a91.7 91.7 0 01-1.2 15zm-24-83.2a.6.6 0 01-.1.8 3.8 3.8 0 01-5-.5c-.7-.5.2-1.6.8-1a2.7 2.7 0 003.5.6.6.6 0 01.8 0zM221.5 340.7c-3-1.2-5.9 1.4-7.2 4.4-3.4 9 5.7 12 9 4 1.5-3.6.7-7.4-1.8-8.4zm.8 7.9c-1 2.4-3.2 4.6-5.6 3.8-3.6-1.4-1.4-9.5 2.2-10.6 3.6-1.3 5 3.1 3.4 6.8z"/><path fill="#fff" d="M332.3 493.7l14.4 20-.5.2-18.2-22a1 1 0 01-.2-.8c0-.3.5-.5.8-.6l7.4-3v2l-2.9 1.8c-.9.4-1.6 1.5-.8 2.4zm51-62.3c-3.1-1.2-5.5 4.5-2.7 6 3 1.1 5.5-4.5 2.7-6zm-5.3 3c-2.4-3.8-6.8 3-3.4 4.8 2.4 1 4.5-2.7 3.4-4.8zm-36.3-31.2a27.3 27.3 0 01-6.8 10.8l2.8 1.6 30.1-20-1.5-1zm-89.5 82.6a1.7 1.7 0 01.7-2.7l5.4-3.4v-2l-11.8 4.6c-1.3.6-.5 1.8.2 2.5l24 28.7-18.5-27.7zm16.3-65.5l.4-6.3zm-8-14.6l-1 77.8a21.6 21.6 0 004.3 10.4l3.9-80.9a44.6 44.6 0 01-7.2-7.3zm5.1 92.1a25.4 25.4 0 01-5.7-8.2 20.5 20.5 0 009.5 13.2 20.6 20.6 0 01-3.8-5zm63.5-101c2.1-1.8 2.8-6.6 0-7.9-3.1-1.3-6 3-5.6 6a3.1 3.1 0 005.6 2zm-9-4.6c-4.2-1.6-7.6 6.3-3.7 8.5 4.3 1.6 7.7-6.4 3.8-8.5zm-18.4-54.4l-37 12.3a42.2 42.2 0 01-9.8 11.3l50.4-22.8a4 4 0 00-3.6-.8zm2.4 53.8l-50.3-29.3h-.1l50.3 29.4h.2zM362 197c4.4-17.9 11.3-26.6 29-35-.4-1 1-1.4 1.3-.3a6.1 6.1 0 013.2 0c-3-9.5-21.5 7.4-23.5 9-4.6 4.3-16.4 20.3-10 26.3zm37-32.4l.4.4a4.8 4.8 0 00-.3-.4zm-1.1-.5v-.1a3 3 0 00-1.2-2.2 3.4 3.4 0 010 .7 4.2 4.2 0 011.2 1.6zm43.4 82.2a55 55 0 00-9.3-8.3l-2.1 1c-3.9 1.7-9.6 3.2-13.5.2-4.1-2.6-3-7.7-.6-9.7-11.6-6.3-31.6-18-34-34-4.6 6.9-18.2 8-22.3.2-2.8 19.3 16 37.2 28.1 44a97.1 97.1 0 0112.7-6.8.6.6 0 11.5 1.1 99.8 99.8 0 00-25.7 16.5c13.7 19 27.3 47.1 27.7 49.5l1.2 2.7c7.1-9 16.4-21.8 23-35a26.7 26.7 0 00-4.2-1.3.6.6 0 01-.4-.8c.6-1.2 4 .8 5.2 1.1v-.1c8 4.2 10.4 9.3 12.9 18.9 2.2 6.8 15.4 5.2 14.6-4.2a58 58 0 00-13.8-35zm-59.8-53.8a4.8 4.8 0 01-.1.7 4.1 4.1 0 000-.7zm-1 52l6.2-4.2-.3-.2c-2.2 1.6-4.2 3-5.9 4.5zm-74.7 28c-1 22.6-6.6 53.8-21.8 53l4.3-9.2c3-2.6 6-8.6 8.3-17l-21.3-11.9-1.5-.8a98.5 98.5 0 001.8 11.1l-.4-.2-6.3-3.5c-3.9-21.5 1.1-62.5 12.4-72.7 16.3-13.7 25.2 20.4 24.5 51.2zm-18-46.3c-11.8 3.7-15.2 38-14.6 50.4l25.5 14.2c5.3-24.2-2.4-63.2-11-64.6zm133.4.8c-.4-2.9 1.4-5.8 3.9-8.5a.6.6 0 11.8-.8 59.6 59.6 0 0111.7-8.5l2 .3c-1.1-1.8-3.3-3.4-5.4-3a67 67 0 00-4.9 3.1c.6 1.3 2.1 3.2 1 3.8a.6.6 0 01-.7-.4c-.7-1.4-1.2-3.4-2.7-4-.6 1.2 0 3.3.2 4.7a.6.6 0 01-1.1.3l-.3-1.6c-4.5 3.6-10.7 10.4-4.5 14.6zM159 485.9c-7.6-8.4-7.1-19.2-7-29.7l-17.8 7.6-.8.3.7.9 38.6 44.7 9.3-4.6-9-10a29.4 29.4 0 01-14-9.2zm3-5.5a28.2 28.2 0 002.7 2.5c-.6-1.4-1-3.6-2.6-2.5zm-8-14.6a32.8 32.8 0 006 12.3l.6-15 .5-12c.6-.6 1.7-73.4 3.4-73.2v-2.7a.6.6 0 01-.2-.5l.5-13.8a65 65 0 01-12-11.8l.4 106v3.2a29.9 29.9 0 00.8 7.5zm-.7 2.3a28.3 28.3 0 0019.2 25.5 28.8 28.8 0 01-6.7-8.4 34 34 0 01-12.5-17.3v.2zm-19-146.5l44.8 26-10.2-34c-5.5-3-15.4-8.7-20.7-12l-17.6-9.8L132 318a4.3 4.3 0 002.1 3.5zm113 20.2a9.3 9.3 0 001.5-2.5c3.4-9-5.7-12-9-4-2.8 5.9 2.3 12.2 7.4 6.5zm-10.6-2c-.8-7.6-9-4.1-9.9 1.5-1.8 8 6.6 9.2 9.2 2.4a8.7 8.7 0 00.7-3.9zm-28.8-77l-76.4 26a1 1 0 00-.7.9 1.2 1.2 0 00.5 1.1l15.7 8.8 2.2 1.2 19.8 11c-2.5-4.6-8.2-16.1-10.5-19.1L211 263a4 4 0 00-3-.2zm326.3 6.5c-18.5.5-18.5 27.6 0 28 18.4-.4 18.4-27.5 0-28z"/></svg>