<svg width="25" height="24" viewBox="0 0 25 24" fill="none" xmlns="http://www.w3.org/2000/svg">
  <path
    d="M23.7239 7.44794L7.32197 22.2243C5.57786 23.7364 2.93868 23.5496 1.42657 21.8055C-0.0452186 20.1083 0.0872363 17.5514 1.72686 16.0163L18.1296 1.23828"
    fill="url(#paint0_linear_5734_56753)" />
  <path
    d="M17.1679 3.63915L17.1098 14.3693C17.0991 16.3594 18.7036 17.9814 20.6937 17.9922L20.6945 17.9922C22.6845 18.0029 24.3065 16.3984 24.3173 14.4083L24.3754 3.67814C24.3861 1.68808 22.7816 0.0660896 20.7915 0.0553222L20.7907 0.0553178C18.8006 0.0445504 17.1787 1.64909 17.1679 3.63915Z"
    fill="url(#paint1_linear_5734_56753)" />
  <path
    d="M24.4044 3.59762C24.4053 5.58524 22.7953 7.19771 20.8068 7.19853L10.1991 7.20429C8.21144 7.20511 6.59897 5.59511 6.59814 3.60667C6.59732 1.61905 8.20733 0.00658183 10.1958 0.00575914L20.8027 3.15147e-07C22.7903 -0.000822374 24.4028 1.60918 24.4036 3.59762H24.4044Z"
    fill="url(#paint2_linear_5734_56753)" />
  <path
    d="M10.078 7.2156C12.0695 7.2156 13.6839 5.60121 13.6839 3.60975C13.6839 1.6183 12.0695 0.00390625 10.078 0.00390625C8.08656 0.00390625 6.47217 1.6183 6.47217 3.60975C6.47217 5.60121 8.08656 7.2156 10.078 7.2156Z"
    fill="#FF5C35" />
  <defs>
    <linearGradient id="paint0_linear_5734_56753" x1="0.403971" y1="12.2426" x2="23.7239" y2="12.2426"
      gradientUnits="userSpaceOnUse">
      <stop offset="0.18" stop-color="#FF824E" />
      <stop offset="0.42" stop-color="#FF7143" />
      <stop offset="0.75" stop-color="#FF6138" />
      <stop offset="1" stop-color="#FF5C35" />
    </linearGradient>
    <linearGradient id="paint1_linear_5734_56753" x1="20.7419" y1="0.0550832" x2="20.7419" y2="17.9922"
      gradientUnits="userSpaceOnUse">
      <stop offset="0.18" stop-color="#FF824E" />
      <stop offset="0.45" stop-color="#FF7E4B" />
      <stop offset="0.71" stop-color="#FF7243" />
      <stop offset="0.97" stop-color="#FF5E36" />
      <stop offset="1" stop-color="#FF5C35" />
    </linearGradient>
    <linearGradient id="paint2_linear_5734_56753" x1="20.4476" y1="-1.35562" x2="9.25585" y2="8.44127"
      gradientUnits="userSpaceOnUse">
      <stop offset="0.27" stop-color="#FF824E" />
      <stop offset="0.74" stop-color="#FFA766" />
    </linearGradient>
  </defs>
</svg>
