<?xml version="1.0" encoding="utf-8"?>
<!-- Generator: Adobe Illustrator 26.0.0, SVG Export Plug-In . SVG Version: 6.00 Build 0)  -->
<svg width="32px" height="32px" version="1.1" id="Layer_1" xmlns="http://www.w3.org/2000/svg" xmlns:xlink="http://www.w3.org/1999/xlink" x="0px" y="0px"
	 viewBox="0 0 24 24" enable-background="new 0 0 24 24" xml:space="preserve">
<g>
	<g>
		<path fill="#FF7A59" d="M1.45901,4.51689L1.45901,4.51689c1.94535-1.94535,5.09937-1.94535,7.04471-0.00001l10.54016,10.54017
			l-5.06792,5.06792c-1.09176,1.09176-2.86184,1.09176-3.9536,0l-8.56336-8.56337C-0.48634,9.61627-0.48634,6.46224,1.45901,4.51689
			z"/>
		<linearGradient id="SVGID_1_" gradientUnits="userSpaceOnUse" x1="7.99989" y1="14.5396" x2="22.40414" y2="9.54612">
			<stop  offset="0.0345" style="stop-color:#FF7A59"/>
			<stop  offset="0.55512" style="stop-color:#FFAC78"/>
		</linearGradient>
		<path fill="url(#SVGID_1_)" d="M22.53932,4.51689L22.53932,4.51689c-1.94535-1.94535-5.09937-1.94535-7.04471-0.00001
			L4.95445,15.05706l5.06792,5.06792c1.09176,1.09176,2.86184,1.09176,3.9536,0l8.56336-8.56337
			C24.48466,9.61627,24.48466,6.46224,22.53932,4.51689z"/>
	</g>
	<circle fill="#FF7A59" cx="19.01291" cy="8.0433" r="4.98709"/>
</g>
</svg>
