<svg width="128" height="128" viewBox="0 0 128 128" fill="none" xmlns="http://www.w3.org/2000/svg">
<g clip-path="url(#clip0_7454_48213)">
<path d="M98.3697 17.25H29.5597C22.7445 17.25 17.2197 22.7748 17.2197 29.59V111.86C17.2197 118.675 22.7445 124.2 29.5597 124.2H98.3697C105.185 124.2 110.71 118.675 110.71 111.86V29.59C110.71 22.7748 105.185 17.25 98.3697 17.25Z" fill="#0FBFBF"/>
<mask id="mask0_7454_48213" style="mask-type:luminance" maskUnits="userSpaceOnUse" x="-5" y="3" width="69" height="134">
<path d="M63.9599 3.32031H-4.33008V136.25H63.9599V3.32031Z" fill="white"/>
</mask>
<g mask="url(#mask0_7454_48213)">
<path d="M98.3697 17.25H29.5597C22.7445 17.25 17.2197 22.7748 17.2197 29.59V111.86C17.2197 118.675 22.7445 124.2 29.5597 124.2H98.3697C105.185 124.2 110.71 118.675 110.71 111.86V29.59C110.71 22.7748 105.185 17.25 98.3697 17.25Z" fill="#57D2D2"/>
</g>
<path d="M93.3098 24.5801H35.1598C29.3001 24.5801 24.5498 29.3303 24.5498 35.1901V107.11C24.5498 112.97 29.3001 117.72 35.1598 117.72H93.3098C99.1695 117.72 103.92 112.97 103.92 107.11V35.1901C103.92 29.3303 99.1695 24.5801 93.3098 24.5801Z" fill="#FCEAD7"/>
<mask id="mask1_7454_48213" style="mask-type:luminance" maskUnits="userSpaceOnUse" x="6" y="12" width="58" height="117">
<path d="M63.9098 12.4502H6.25977V128.22H63.9098V12.4502Z" fill="white"/>
</mask>
<g mask="url(#mask1_7454_48213)">
<path d="M93.3098 24.5801H35.1598C29.3001 24.5801 24.5498 29.3303 24.5498 35.1901V107.11C24.5498 112.97 29.3001 117.72 35.1598 117.72H93.3098C99.1695 117.72 103.92 112.97 103.92 107.11V35.1901C103.92 29.3303 99.1695 24.5801 93.3098 24.5801Z" fill="white"/>
</g>
<mask id="mask2_7454_48213" style="mask-type:luminance" maskUnits="userSpaceOnUse" x="23" y="-3" width="87" height="21">
<path d="M109.98 -2.16016H23.79V17.5598H109.98V-2.16016Z" fill="white"/>
</mask>
<g mask="url(#mask2_7454_48213)">
<path d="M63.9004 56.8798C77.1773 56.8798 87.9404 46.1167 87.9404 32.8398C87.9404 19.5629 77.1773 8.7998 63.9004 8.7998C50.6234 8.7998 39.8604 19.5629 39.8604 32.8398C39.8604 46.1167 50.6234 56.8798 63.9004 56.8798Z" fill="#213343"/>
</g>
<path d="M88.0604 17.2402V24.5702H39.6504V17.3102L88.0604 17.2402Z" fill="#213343"/>
<mask id="mask3_7454_48213" style="mask-type:luminance" maskUnits="userSpaceOnUse" x="20" y="-7" width="44" height="56">
<path d="M63.8495 -6.17969H20.2695V48.9803H63.8495V-6.17969Z" fill="white"/>
</mask>
<g mask="url(#mask3_7454_48213)">
<mask id="mask4_7454_48213" style="mask-type:luminance" maskUnits="userSpaceOnUse" x="22" y="-3" width="88" height="21">
<path d="M109.019 -2.16016H22.8291V17.5598H109.019V-2.16016Z" fill="white"/>
</mask>
<g mask="url(#mask4_7454_48213)">
<path d="M62.9394 56.8798C76.2163 56.8798 86.9794 46.1167 86.9794 32.8398C86.9794 19.5629 76.2163 8.7998 62.9394 8.7998C49.6625 8.7998 38.8994 19.5629 38.8994 32.8398C38.8994 46.1167 49.6625 56.8798 62.9394 56.8798Z" fill="#2E475D"/>
</g>
<path d="M87.1095 17.3102V24.5702H38.6895V17.2402L87.1095 17.3102Z" fill="#2E475D"/>
</g>
<path d="M63.0599 39.2998C60.6281 46.2651 56.2704 52.3978 50.4929 56.9858C44.7154 61.5738 37.7551 64.429 30.4199 65.2198C31.7952 65.364 33.1771 65.4374 34.5599 65.4398C42.0811 65.4408 49.4416 63.2637 55.752 59.1715C62.0624 55.0793 67.0528 49.2471 70.1199 42.3798C67.7533 41.3865 65.3999 40.3598 63.0599 39.2998Z" fill="#FF5C35"/>
<path d="M54.0098 38.1997L70.8098 32.1797L76.8298 48.9797L54.0098 38.1997Z" fill="#FF5C35"/>
<path d="M59.7598 46.38L68.7598 45.16L61.9998 42C61.3446 43.505 60.5965 44.9678 59.7598 46.38Z" fill="#D44325"/>
<path d="M87.0502 52.3701H74.7402V109.19H87.0502V52.3701Z" fill="#57D2D2"/>
<path d="M72.3295 64.8096H60.0195V109.13H72.3295V64.8096Z" fill="#57D2D2"/>
<path d="M30.4205 109.13H42.7305V87.5899H30.4205V109.13Z" fill="#57D2D2"/>
<path d="M44.9898 109.14H57.2998L57.2998 74.6697H44.9898V109.14Z" fill="#57D2D2"/>
<path d="M87.0497 52.3701H80.8896V109.19H87.0497V52.3701Z" fill="#0FBFBF"/>
<path d="M72.3397 64.8096H66.1797V109.13H72.3397V64.8096Z" fill="#0FBFBF"/>
<path d="M36.5705 109.13H42.7305V87.5899H36.5705V109.13Z" fill="#0FBFBF"/>
<path d="M51.1398 109.14H57.2998L57.2998 74.6697H51.1398L51.1398 109.14Z" fill="#0FBFBF"/>
<path d="M79.9004 72H97.1604V78.32C97.167 79.4575 96.9486 80.5851 96.5179 81.6379C96.0871 82.6907 95.4525 83.648 94.6505 84.4547C93.8484 85.2614 92.8948 85.9015 91.8445 86.3383C90.7942 86.7752 89.6679 87 88.5304 87C86.2416 87 84.0465 86.0908 82.4281 84.4723C80.8096 82.8539 79.9004 80.6588 79.9004 78.37V72Z" fill="#FFDBC1"/>
<path d="M97.1602 101.88H79.9002V95.5599C79.9002 93.2711 80.8094 91.076 82.4278 89.4576C84.0463 87.8391 86.2413 86.9299 88.5302 86.9299C90.819 86.9299 93.0141 87.8391 94.6325 89.4576C96.2509 91.076 97.1602 93.2711 97.1602 95.5599V101.88Z" fill="#FFDBC1"/>
<path d="M88.4199 101.91H97.1599V95.6C97.152 93.3164 96.2393 91.129 94.6217 89.5171C93.0041 87.9051 90.8136 87 88.5299 87L88.4199 101.91Z" fill="#FFA766"/>
<path d="M99.6297 69.7305H77.4297V72.1905H99.6297V69.7305Z" fill="#FFA766"/>
<path d="M88.4199 72H97.1599V78.32C97.1665 79.4575 96.9482 80.5851 96.5174 81.6379C96.0867 82.6907 95.452 83.648 94.65 84.4547C93.848 85.2614 92.8944 85.9015 91.8441 86.3383C90.7938 86.7752 89.6674 87 88.5299 87L88.4199 72Z" fill="#FFA766"/>
<path d="M99.6197 101.76H77.4697V104.22H99.6197V101.76Z" fill="#FF8933"/>
<path d="M88.5302 85.7304C87.5623 85.7304 86.6039 85.5397 85.7098 85.1693C84.8156 84.799 84.0031 84.2561 83.3188 83.5717C82.6344 82.8874 82.0915 82.0749 81.7212 81.1807C81.3508 80.2866 81.1602 79.3282 81.1602 78.3604H95.9002C95.9002 80.315 95.1237 82.1896 93.7415 83.5717C92.3594 84.9539 90.4848 85.7304 88.5302 85.7304Z" fill="#FFA766"/>
<path d="M99.6299 69.7305H88.4199V72.1905H99.6299V69.7305Z" fill="#FF8933"/>
<path d="M99.6304 101.76H88.4404V104.22H99.6304V101.76Z" fill="#FF8933"/>
<path d="M88.4697 78.3604H95.8997C95.8997 80.315 95.1232 82.1896 93.7411 83.5717C92.359 84.9539 90.4844 85.7304 88.5297 85.7304" fill="#FF8933"/>
<path d="M88.4196 91C88.4196 91 88.4196 91.08 88.4196 91.09C88.3409 91.7649 88.2139 92.4333 88.0396 93.09C87.8078 93.7625 87.4702 94.3938 87.0396 94.96C86.6566 95.5151 86.1629 95.9849 85.5896 96.34C84.5017 96.9309 83.5349 97.7213 82.7396 98.67C82.3405 99.1666 82.0046 99.7107 81.7396 100.29C81.6796 100.43 81.1896 101.75 81.2096 101.75H88.4996V91H88.4196Z" fill="#FFA766"/>
<path d="M95.2904 100.3C95.0254 99.7208 94.6895 99.1766 94.2904 98.68C93.4951 97.7313 92.5283 96.9409 91.4404 96.35C90.8737 96.0026 90.3837 95.5432 90.0004 95C89.5698 94.4338 89.2322 93.8026 89.0004 93.13C88.8271 92.4731 88.7001 91.8048 88.6204 91.13C88.6204 91.13 88.6204 91.06 88.6204 91.04H88.5004L88.4404 101.8H95.8104C95.8104 101.8 95.3504 100.44 95.2904 100.3Z" fill="#FF8933"/>
</g>
<defs>
<clipPath id="clip0_7454_48213">
<rect width="128" height="128" fill="white"/>
</clipPath>
</defs>
</svg>
