<svg width="128" height="128" viewBox="0 0 128 128" fill="none" xmlns="http://www.w3.org/2000/svg">
<path d="M28.3223 48.9639C28.3194 58.4297 32.0761 67.5092 38.7664 74.2056C45.4567 80.902 54.5327 84.6671 63.9985 84.6729V48.9639H28.3223Z" fill="#0FBFBF"/>
<path d="M99.6644 48.9639C99.6644 58.4269 95.9082 67.503 89.2209 74.1985C82.5336 80.894 73.4621 84.6613 63.999 84.6729V48.9639H99.6644Z" fill="#57D2D2"/>
<path d="M63.9985 13.3086C54.5422 13.3144 45.4744 17.072 38.7857 23.7566C32.097 30.4412 28.3338 39.5066 28.3223 48.963H63.9985V13.3086Z" fill="#57D2D2"/>
<path d="M63.999 13.3086C73.463 13.3028 82.5419 17.0553 89.2401 23.7411C95.9383 30.427 99.7074 39.4991 99.719 48.963H63.999V13.3086Z" fill="#B7ECEC"/>
<path d="M63.9992 85.9732H62.6325C55.3774 85.703 48.362 83.3048 42.4596 79.0773C36.5572 74.8498 32.0286 68.9797 29.4374 62.1977C26.8463 55.4156 26.307 48.0213 27.8869 40.9351C29.4667 33.8489 33.0959 27.3839 38.3225 22.3448C43.5491 17.3058 50.1424 13.9152 57.2816 12.5953C64.4207 11.2754 71.7904 12.0844 78.4733 14.9216C85.1561 17.7587 90.8569 22.4988 94.866 28.5517C98.875 34.6046 101.015 41.7029 101.02 48.963V50.2751H100.944C100.598 59.6173 96.7354 68.484 90.13 75.0995C83.5246 81.7151 74.6639 85.5911 65.3222 85.9513L63.9992 85.9732ZM63.9992 14.5769C54.9842 14.7377 46.3927 18.4317 40.0742 24.8639C33.7557 31.2961 30.2154 39.9521 30.2154 48.9685C30.2154 57.985 33.7557 66.6409 40.0742 73.0731C46.3927 79.5053 54.9842 83.1993 63.9992 83.3601C73.107 83.3312 81.8324 79.6958 88.2664 73.2495C94.7005 66.8032 98.3191 58.0708 98.3307 48.963V47.6619C97.9863 38.7818 94.2204 30.3789 87.8214 24.2122C81.4223 18.0455 72.8861 14.5929 63.9992 14.5769Z" fill="#B7ECEC"/>
<path d="M58.5988 62.3233C58.193 62.3262 57.7908 62.2484 57.4154 62.0945C57.04 61.9406 56.6989 61.7136 56.412 61.4267L46.6812 51.6958C46.1012 51.1159 45.7754 50.3293 45.7754 49.5091C45.7754 48.6889 46.1012 47.9024 46.6812 47.3224C47.2611 46.7424 48.0477 46.4166 48.8679 46.4166C49.688 46.4166 50.4746 46.7424 51.0546 47.3224L58.6097 54.8775L77 36.5091C77.2856 36.2197 77.6262 35.9904 78.0017 35.8346C78.3772 35.6787 78.7801 35.5995 79.1867 35.6016C79.7939 35.6033 80.3871 35.7843 80.8919 36.1218C81.3967 36.4594 81.7905 36.9385 82.0241 37.499C82.2576 38.0595 82.3204 38.6765 82.2047 39.2726C82.0889 39.8687 81.7998 40.4173 81.3734 40.8497L60.7745 61.4158C60.191 61.9892 59.4059 62.311 58.5878 62.3123L58.5988 62.3233Z" fill="white"/>
<path d="M92.5702 101.41L92.1702 100.57L92.0002 98.6696L58.4502 76.9996L56.5702 75.7696L56.0502 75.5696C54.2217 74.8854 52.2996 74.4841 50.3502 74.3796L45.0002 74.1197C44.3007 74.0797 43.5996 74.0797 42.9002 74.1197C41.6431 74.1989 40.3845 73.9902 39.2202 73.5097L35.3602 71.8896L34.2902 72.6497L25.4102 94.6497L25.9002 95.8096L33.3802 100.53L35.7402 102.19H37.2402L60.5802 118.67L60.8002 120.19L64.0202 122.56C64.8797 123.202 65.9427 123.511 67.0126 123.43C68.0825 123.349 69.087 122.884 69.8402 122.12C70.5423 121.383 70.9654 120.425 71.0366 119.41C71.1078 118.395 70.8226 117.387 70.2302 116.56L71.8402 117.75C72.7249 118.412 73.825 118.721 74.9254 118.616C76.0258 118.51 77.0473 117.998 77.7902 117.18C78.4807 116.394 78.8665 115.387 78.8775 114.341C78.8885 113.295 78.524 112.28 77.8502 111.48L78.7502 112.15C79.5949 112.783 80.6377 113.095 81.6915 113.029C82.7453 112.963 83.7411 112.524 84.5002 111.79C85.271 111.021 85.727 109.991 85.7787 108.904C85.8305 107.816 85.4744 106.748 84.7802 105.91L86.1302 106.91C86.9259 107.498 87.8984 107.797 88.887 107.757C89.8756 107.718 90.8213 107.343 91.5681 106.694C92.315 106.045 92.8182 105.161 92.9949 104.188C93.1717 103.214 93.0112 102.21 92.5402 101.34L92.5702 101.41Z" fill="#A37467"/>
<path d="M77.8798 111.55L78.7798 112.22C79.6246 112.853 80.6674 113.165 81.7212 113.099C82.775 113.033 83.7707 112.594 84.5298 111.86C85.3007 111.091 85.7566 110.061 85.8084 108.974C85.8602 107.886 85.5041 106.818 84.8098 105.98L86.1598 106.98C86.9556 107.568 87.928 107.867 88.9167 107.827C89.9053 107.788 90.851 107.413 91.5978 106.764C92.3446 106.115 92.8479 105.231 93.0246 104.258C93.2013 103.284 93.0409 102.28 92.5698 101.41L92.1698 100.57L91.9998 98.6696L58.4498 76.9996L56.5698 75.7696L56.0498 75.5696C54.2214 74.8854 52.2993 74.4841 50.3498 74.3796L44.9998 74.1197C44.3004 74.0797 43.5993 74.0797 42.8998 74.1197C41.6427 74.1989 40.3841 73.9902 39.2198 73.5097L35.3598 71.8896L34.2898 72.6497L32.5898 76.8697L77.8798 111.55Z" fill="#AF7E6D"/>
<path d="M35.6802 108.29C34.9028 107.631 34.4189 106.69 34.3345 105.673C34.2501 104.657 34.5723 103.649 35.2302 102.87L38.8303 98.6504C39.1586 98.2657 39.5594 97.9493 40.01 97.7195C40.4606 97.4896 40.952 97.3508 41.4562 97.3108C41.9604 97.2709 42.4676 97.3307 42.9487 97.4868C43.4298 97.6428 43.8755 97.8921 44.2602 98.2204C44.645 98.5487 44.9614 98.9496 45.1912 99.4002C45.4211 99.8507 45.5599 100.342 45.5998 100.846C45.6398 101.351 45.58 101.858 45.4239 102.339C45.2679 102.82 45.0186 103.266 44.6902 103.65L41.1002 107.87C40.4363 108.643 39.493 109.122 38.477 109.2C37.4611 109.279 36.4553 108.952 35.6802 108.29Z" fill="#FFCFBC"/>
<path d="M41.5399 113.26C41.1545 112.933 40.8374 112.534 40.6066 112.085C40.3759 111.635 40.2361 111.145 40.1952 110.641C40.1543 110.138 40.2132 109.631 40.3684 109.151C40.5237 108.67 40.7722 108.225 41.0998 107.84L44.6898 103.62C45.3529 102.842 46.298 102.359 47.3173 102.277C48.3365 102.195 49.3464 102.522 50.1249 103.185C50.9033 103.848 51.3864 104.793 51.468 105.812C51.5496 106.832 51.2229 107.842 50.5599 108.62L46.9999 112.82C46.6728 113.211 46.2711 113.533 45.8183 113.768C45.3654 114.002 44.8704 114.144 44.3621 114.185C43.8538 114.226 43.3425 114.165 42.858 114.006C42.3734 113.848 41.9253 113.594 41.5399 113.26Z" fill="#FFCFBC"/>
<path d="M47.4097 118.24C46.6323 117.58 46.1484 116.639 46.064 115.623C45.9796 114.607 46.3018 113.598 46.9597 112.82L50.5597 108.6C50.888 108.214 51.2891 107.897 51.7399 107.667C52.1907 107.436 52.6825 107.297 53.1872 107.256C53.6918 107.216 54.1995 107.275 54.6813 107.431C55.163 107.587 55.6093 107.836 55.9947 108.165C56.3802 108.493 56.6972 108.894 56.9276 109.345C57.1581 109.795 57.2975 110.287 57.3379 110.792C57.3783 111.297 57.3189 111.804 57.163 112.286C57.0072 112.768 56.758 113.214 56.4297 113.6L52.8297 117.82C52.1658 118.593 51.2225 119.071 50.2065 119.15C49.1906 119.228 48.1848 118.901 47.4097 118.24Z" fill="#FFB89B"/>
<path d="M53.2799 123.21C52.5024 122.551 52.0185 121.61 51.9341 120.593C51.8497 119.577 52.1719 118.569 52.8299 117.79L56.4299 113.57C57.0929 112.793 58.0375 112.311 59.0558 112.231C60.0741 112.15 61.0828 112.477 61.8599 113.14C62.6369 113.803 63.1188 114.748 63.1994 115.766C63.2801 116.785 62.9529 117.793 62.2899 118.57L58.6999 122.79C58.3719 123.174 57.9714 123.49 57.5213 123.719C57.0712 123.948 56.5804 124.086 56.077 124.125C55.5735 124.164 55.0673 124.103 54.5874 123.946C54.1074 123.789 53.6631 123.539 53.2799 123.21Z" fill="#FFB89B"/>
<path d="M92.4297 72.7097L90.9997 71.9997L85.4097 73.9997C83.8514 74.5768 82.1706 74.7421 80.5297 74.4797L63.9997 71.8797C63.0804 71.7322 62.1392 71.8058 61.254 72.0945C60.3689 72.3831 59.5652 72.8786 58.9097 73.5397L45.3097 84.8397C45.0128 85.0277 44.7624 85.2806 44.5775 85.5794C44.3926 85.8783 44.2781 86.2152 44.2424 86.5648C44.2068 86.9144 44.251 87.2675 44.3718 87.5975C44.4926 87.9275 44.6868 88.2257 44.9397 88.4697C47.2097 90.6197 51.8697 92.4697 59.9397 85.2397C59.9397 85.2397 66.2197 95.1197 79.2297 91.0097L92.2297 100.57L100.32 95.3697L100.72 94.4997L92.4297 72.7097Z" fill="#FFCFBC"/>
<path d="M92.4304 72.71L91.0004 72L87.4004 73.28L84.6004 76.09L69.1504 91.53C72.4903 92.3015 75.9799 92.1178 79.2204 91L92.2204 100.56L100.31 95.36L100.71 94.49L92.4304 72.71Z" fill="#FFB89B"/>
<path d="M86.6301 67.4698L96.5101 62.6298C97.3496 62.2771 98.2948 62.2717 99.1383 62.6147C99.9818 62.9578 100.655 63.6213 101.01 64.4598L113.73 90.4598C114.173 91.2549 114.284 92.193 114.039 93.0696C113.794 93.9463 113.212 94.6904 112.42 95.1398L102.53 99.9798C102.11 100.159 101.658 100.253 101.201 100.255C100.744 100.257 100.292 100.168 99.8695 99.9929C99.4476 99.8177 99.0648 99.5601 98.7438 99.235C98.4228 98.9099 98.1699 98.524 98.0001 98.0998L85.3201 72.1498C84.8741 71.3553 84.7616 70.4163 85.0072 69.5389C85.2528 68.6615 85.8365 67.9174 86.6301 67.4698Z" fill="#2E475D"/>
<path d="M103.83 90.0601C104.253 89.8535 104.727 89.7768 105.193 89.8397C105.659 89.9026 106.097 90.1022 106.449 90.4134C106.802 90.7245 107.055 91.1332 107.175 91.5879C107.296 92.0425 107.279 92.5228 107.127 92.9679C106.975 93.413 106.695 93.8031 106.321 94.0889C105.947 94.3746 105.497 94.5433 105.028 94.5735C104.558 94.6036 104.091 94.494 103.683 94.2585C103.276 94.023 102.948 93.672 102.74 93.2501C102.602 92.9691 102.52 92.6636 102.5 92.3511C102.48 92.0386 102.522 91.7252 102.623 91.4288C102.724 91.1325 102.883 90.859 103.09 90.6241C103.297 90.3893 103.549 90.1976 103.83 90.0601Z" fill="#516F90"/>
<path d="M37.5903 63.2997L46.5903 69.5997C46.9452 69.8779 47.2417 70.2233 47.463 70.6162C47.6843 71.0091 47.8259 71.4418 47.8797 71.8895C47.9336 72.3371 47.8987 72.7911 47.777 73.2252C47.6552 73.6594 47.4491 74.0653 47.1703 74.4197L30.6703 98.1297C30.1934 98.8905 29.4372 99.434 28.564 99.6434C27.6909 99.8528 26.7704 99.7115 26.0003 99.2497L17.0003 92.9597C16.2881 92.3948 15.8277 91.5716 15.7191 90.669C15.6105 89.7664 15.8625 88.8575 16.4203 88.1397L32.8703 64.4297C33.3479 63.6557 34.1125 63.1022 34.9971 62.8904C35.8816 62.6787 36.814 62.8258 37.5903 63.2997Z" fill="#2E475D"/>
<path d="M26.1799 89.2999C26.5656 89.5689 26.863 89.9462 27.0345 90.384C27.206 90.8218 27.244 91.3007 27.1436 91.7601C27.0433 92.2195 26.8091 92.6389 26.4706 92.9653C26.1321 93.2917 25.7045 93.5105 25.2417 93.5942C24.779 93.6778 24.3018 93.6225 23.8705 93.4352C23.4392 93.2479 23.073 92.937 22.8182 92.5418C22.5634 92.1466 22.4314 91.6847 22.4388 91.2146C22.4462 90.7444 22.5927 90.2869 22.8599 89.8999C23.223 89.3832 23.7752 89.0305 24.3967 88.9182C25.0182 88.8058 25.6589 88.943 26.1799 89.2999Z" fill="#516F90"/>
<path d="M16.0502 30.4205C17.2489 30.1782 18.3527 29.54 19.2153 28.5903C20.078 27.6406 20.6588 26.4242 20.8809 25.1023C20.8809 25.0751 20.8907 25.0491 20.9081 25.03C20.9255 25.0108 20.949 25 20.9736 25C20.9982 25 21.0218 25.0108 21.0392 25.03C21.0566 25.0491 21.0663 25.0751 21.0663 25.1023C21.2929 26.4217 21.8769 27.6342 22.7412 28.5796C23.6055 29.5251 24.7095 30.1591 25.9073 30.3977C25.9319 30.3977 25.9555 30.4085 25.9728 30.4277C25.9902 30.4469 26 30.4729 26 30.5C26 30.5271 25.9902 30.5531 25.9728 30.5723C25.9555 30.5915 25.9319 30.6023 25.9073 30.6023C24.7084 30.8379 23.6029 31.4709 22.7381 32.4169C21.8733 33.3629 21.2902 34.577 21.0663 35.8977C21.0663 35.9249 21.0566 35.9509 21.0392 35.97C21.0218 35.9892 20.9982 36 20.9736 36C20.949 36 20.9255 35.9892 20.9081 35.97C20.8907 35.9509 20.8809 35.9249 20.8809 35.8977C20.6564 34.5793 20.0743 33.367 19.2117 32.4215C18.3492 31.4759 17.2467 30.8415 16.0502 30.6023C16.0351 30.5937 16.0224 30.5806 16.0135 30.5646C16.0047 30.5486 16 30.5301 16 30.5114C16 30.4926 16.0047 30.4742 16.0135 30.4581C16.0224 30.4421 16.0351 30.4291 16.0502 30.4205Z" fill="#57D2D2"/>
<path d="M23.0502 21.4205C24.2489 21.1782 25.3527 20.54 26.2153 19.5903C27.078 18.6406 27.6588 17.4242 27.8809 16.1023C27.8809 16.0751 27.8907 16.0491 27.9081 16.03C27.9255 16.0108 27.949 16 27.9736 16C27.9982 16 28.0218 16.0108 28.0392 16.03C28.0566 16.0491 28.0663 16.0751 28.0663 16.1023C28.2929 17.4217 28.8769 18.6342 29.7412 19.5796C30.6055 20.5251 31.7095 21.1591 32.9073 21.3977C32.9319 21.3977 32.9555 21.4085 32.9728 21.4277C32.9902 21.4469 33 21.4729 33 21.5C33 21.5271 32.9902 21.5531 32.9728 21.5723C32.9555 21.5915 32.9319 21.6023 32.9073 21.6023C31.7084 21.8379 30.6029 22.4709 29.7381 23.4169C28.8733 24.3629 28.2902 25.577 28.0663 26.8977C28.0663 26.9249 28.0566 26.9509 28.0392 26.97C28.0218 26.9892 27.9982 27 27.9736 27C27.949 27 27.9255 26.9892 27.9081 26.97C27.8907 26.9509 27.8809 26.9249 27.8809 26.8977C27.6564 25.5793 27.0743 24.367 26.2117 23.4215C25.3492 22.4759 24.2467 21.8415 23.0502 21.6023C23.0351 21.5937 23.0224 21.5806 23.0135 21.5646C23.0047 21.5486 23 21.5301 23 21.5114C23 21.4926 23.0047 21.4742 23.0135 21.4581C23.0224 21.4421 23.0351 21.4291 23.0502 21.4205Z" fill="#0FBFBF"/>
<path d="M104.867 13.8652C103.198 13.5608 101.66 12.7499 100.454 11.5395C99.2483 10.329 98.4324 8.77577 98.1138 7.08479C98.104 7.05976 98.087 7.0383 98.065 7.02319C98.043 7.00808 98.0171 7 97.9905 7C97.964 7 97.938 7.00808 97.916 7.02319C97.8941 7.0383 97.8771 7.05976 97.8672 7.08479C97.5549 8.77535 96.7434 10.3294 95.5405 11.5405C94.3376 12.7516 92.8003 13.5624 91.1328 13.8652C91.0976 13.8652 91.0638 13.8794 91.0389 13.9047C91.014 13.9299 91 13.9642 91 14C91 14.0358 91.014 14.0701 91.0389 14.0953C91.0638 14.1206 91.0976 14.1348 91.1328 14.1348C92.8003 14.4376 94.3376 15.2484 95.5405 16.4595C96.7434 17.6706 97.5549 19.2246 97.8672 20.9152C97.8771 20.9402 97.8941 20.9617 97.916 20.9768C97.938 20.9919 97.964 21 97.9905 21C98.0171 21 98.043 20.9919 98.065 20.9768C98.087 20.9617 98.104 20.9402 98.1138 20.9152C98.4324 19.2242 99.2483 17.671 100.454 16.4605C101.66 15.2501 103.198 14.4392 104.867 14.1348C104.902 14.1348 104.936 14.1206 104.961 14.0953C104.986 14.0701 105 14.0358 105 14C105 13.9642 104.986 13.9299 104.961 13.9047C104.936 13.8794 104.902 13.8652 104.867 13.8652Z" fill="#57D2D2"/>
</svg>
