<svg width="128" height="128" viewBox="0 0 128 128" fill="none" xmlns="http://www.w3.org/2000/svg">
<path d="M57.9498 42.5505L55.5898 40.2505L75.8098 19.5905L95.8598 29.5505L114.96 13.7305L117.07 16.2705L96.3098 33.4605L76.4898 23.6105L57.9498 42.5505Z" fill="#2E475D"/>
<path d="M17.1398 57.1296C15.1763 59.0927 13.6186 61.4234 12.556 63.9885C11.4933 66.5537 10.9463 69.303 10.9463 72.0796C10.9463 74.8562 11.4933 77.6055 12.556 80.1707C13.6186 82.7358 15.1763 85.0665 17.1398 87.0296L46.9998 57.1296C43.0368 53.1762 37.6676 50.9561 32.0698 50.9561C26.4721 50.9561 21.1028 53.1762 17.1398 57.1296Z" fill="white"/>
<path d="M124.27 24.9004H107.77V90.9004H124.27V24.9004Z" fill="#57D2D2"/>
<path d="M104.54 41.4004H88.04V90.9004H104.54V41.4004Z" fill="#57D2D2"/>
<path d="M84.4004 34.2598H67.9004V90.8998H84.4004V34.2598Z" fill="#57D2D2"/>
<path d="M64.8701 51.2998H48.3701V90.8998H64.8701V51.2998Z" fill="#57D2D2"/>
<path d="M124.27 24.9004H116.02V90.9004H124.27V24.9004Z" fill="#0FBFBF"/>
<path d="M104.55 41.4004H96.2998V90.9004H104.55V41.4004Z" fill="#0FBFBF"/>
<path d="M84.4004 34.2598H76.1504V90.8998H84.4004V34.2598Z" fill="#0FBFBF"/>
<path d="M64.8701 51.2998H56.6201V90.8998H64.8701V51.2998Z" fill="#0FBFBF"/>
<path d="M116.02 18.3002C117.842 18.3002 119.32 16.8227 119.32 15.0002C119.32 13.1777 117.842 11.7002 116.02 11.7002C114.197 11.7002 112.72 13.1777 112.72 15.0002C112.72 16.8227 114.197 18.3002 116.02 18.3002Z" fill="#0FBFBF"/>
<path d="M96.0803 34.8002C97.9028 34.8002 99.3803 33.3227 99.3803 31.5002C99.3803 29.6777 97.9028 28.2002 96.0803 28.2002C94.2577 28.2002 92.7803 29.6777 92.7803 31.5002C92.7803 33.3227 94.2577 34.8002 96.0803 34.8002Z" fill="#0FBFBF"/>
<path d="M76.1496 24.8998C77.9722 24.8998 79.4496 23.4223 79.4496 21.5998C79.4496 19.7773 77.9722 18.2998 76.1496 18.2998C74.3271 18.2998 72.8496 19.7773 72.8496 21.5998C72.8496 23.4223 74.3271 24.8998 76.1496 24.8998Z" fill="#0FBFBF"/>
<path d="M56.7697 44.6996C58.5923 44.6996 60.0697 43.2222 60.0697 41.3996C60.0697 39.5771 58.5923 38.0996 56.7697 38.0996C54.9472 38.0996 53.4697 39.5771 53.4697 41.3996C53.4697 43.2222 54.9472 44.6996 56.7697 44.6996Z" fill="#0FBFBF"/>
<path d="M36.9999 22.4102H27.1699V36.1502H36.9999V22.4102Z" fill="#FF5C35"/>
<path d="M15.1699 22.9696L32.0799 6.05957L48.9999 22.9696H15.1699Z" fill="#FF5C35"/>
<path d="M36.9999 22.9697H27.1699V29.3597L36.9999 22.9697Z" fill="#D44325"/>
<path d="M87.5979 120.275C86.841 121.2 85.7485 121.788 84.5594 121.91C83.3703 122.031 82.1814 121.677 81.2529 120.924L51.7339 96.9946C50.8912 96.3116 50.3544 95.3217 50.2416 94.2428C50.1288 93.164 50.4492 92.0845 51.1323 91.2419L51.6801 90.566C52.3669 89.7398 53.3511 89.2169 54.4202 89.1104C55.4894 89.0039 56.5574 89.3224 57.3936 89.997L86.9127 113.927C87.8439 114.682 88.4371 115.775 88.5618 116.968C88.6865 118.16 88.3324 119.353 87.5775 120.284L87.5979 120.275Z" fill="#2E475D"/>
<path d="M13.1404 97.4105C17.5246 101.471 23.0424 104.098 28.958 104.942C34.8736 105.786 40.906 104.807 46.251 102.136C51.596 99.4638 55.9995 95.2262 58.8746 89.9878C61.7497 84.7494 62.9597 78.759 62.3433 72.8153C61.7269 66.8717 59.3134 61.2571 55.4245 56.7201C51.5356 52.1832 46.3562 48.9394 40.5767 47.4213C34.7972 45.9032 28.6923 46.1829 23.0758 48.2231C17.4593 50.2632 12.5981 53.967 9.14035 58.8405C5.00961 64.6588 3.13753 71.7816 3.87359 78.8791C4.60965 85.9766 7.90355 92.5636 13.1404 97.4105ZM52.6903 75.8305C52.6923 79.7074 51.5445 83.4978 49.392 86.7224C47.2395 89.9469 44.1791 92.4606 40.5979 93.9456C37.0166 95.4306 33.0754 95.8202 29.2727 95.0651C25.47 94.3099 21.9767 92.444 19.2346 89.7033C16.4925 86.9626 14.6248 83.4702 13.8677 79.6679C13.1106 75.8656 13.4982 71.9242 14.9814 68.3422C16.4645 64.7602 18.9767 61.6985 22.2001 59.5444C25.4236 57.3902 29.2134 56.2405 33.0904 56.2405C35.6638 56.2392 38.2123 56.7449 40.5902 57.7288C42.9681 58.7127 45.1289 60.1555 46.949 61.9747C48.7692 63.7939 50.2131 65.954 51.1982 68.3314C52.1833 70.7088 52.6903 73.257 52.6903 75.8305Z" fill="#2E475D"/>
<mask id="mask0_7454_48725" style="mask-type:luminance" maskUnits="userSpaceOnUse" x="7" y="49" width="53" height="53">
<path d="M33.09 49.71C38.2601 49.7021 43.3164 51.2281 47.619 54.0949C51.9215 56.9618 55.2769 61.0405 57.2604 65.815C59.244 70.5895 59.7666 75.8452 58.7621 80.9168C57.7575 85.9884 55.2711 90.6481 51.6173 94.306C47.9636 97.964 43.3068 100.456 38.2363 101.466C33.1658 102.477 27.9096 101.96 23.1328 99.9819C18.356 98.0038 14.2734 94.6531 11.4016 90.3539C8.52986 86.0547 6.99803 81.0001 7 75.83C7 68.9077 9.7478 62.2685 14.6398 57.371C19.5317 52.4734 26.1677 49.7179 33.09 49.71Z" fill="white"/>
</mask>
<g mask="url(#mask0_7454_48725)">
<path d="M33.0902 56.2404V46.4404H3.7002V75.8304H13.5002C13.5002 70.6348 15.5641 65.652 19.238 61.9782C22.9118 58.3044 27.8946 56.2404 33.0902 56.2404Z" fill="#3E5974"/>
<path d="M52.6898 75.8301C52.6912 78.4044 52.1851 80.9537 51.2006 83.3322C50.216 85.7108 48.7724 87.872 46.9521 89.6923C45.1318 91.5126 42.9706 92.9563 40.592 93.9408C38.2134 94.9253 35.6641 95.4314 33.0898 95.4301V105.23H62.4898V75.8301H52.6898Z" fill="#3E5974"/>
</g>
<path d="M47.4903 58.0802C43.9784 55.2322 39.7008 53.4897 35.1986 53.0729C30.6963 52.6561 26.1716 53.5839 22.1966 55.7388C18.2216 57.8937 14.975 61.179 12.8672 65.1792C10.7595 69.1793 9.88531 73.7147 10.3553 78.2118C10.8253 82.7088 12.6183 86.9654 15.5076 90.4434C18.3969 93.9213 22.2527 96.4643 26.5873 97.7508C30.9219 99.0373 35.5407 99.0094 39.8595 97.6707C44.1783 96.3321 48.0031 93.7427 50.8503 90.2302C52.7428 87.8995 54.1573 85.2186 55.0128 82.3407C55.8682 79.4629 56.148 76.4446 55.8359 73.4586C55.5238 70.4725 54.6261 67.5773 53.1941 64.9385C51.762 62.2998 49.8238 59.9692 47.4903 58.0802ZM33.0903 95.4302C29.2137 95.4302 25.4243 94.2807 22.2011 92.127C18.9779 89.9733 16.4657 86.9122 14.9822 83.3308C13.4987 79.7494 13.1106 75.8085 13.8669 72.0064C14.6231 68.2044 16.4899 64.712 19.231 61.9709C21.9721 59.2298 25.4645 57.3631 29.2665 56.6068C33.0685 55.8505 37.0094 56.2387 40.5909 57.7222C44.1723 59.2056 47.2334 61.7178 49.3871 64.941C51.5407 68.1642 52.6903 71.9537 52.6903 75.8302C52.6916 78.4045 52.1855 80.9538 51.201 83.3324C50.2165 85.7109 48.7728 87.8721 46.9525 89.6924C45.1322 91.5127 42.971 92.9564 40.5924 93.9409C38.2138 94.9255 35.6645 95.4315 33.0903 95.4302Z" fill="#516F90"/>
<mask id="mask1_7454_48725" style="mask-type:luminance" maskUnits="userSpaceOnUse" x="13" y="56" width="40" height="40">
<path d="M33.0902 95.4305C43.915 95.4305 52.6902 86.6553 52.6902 75.8305C52.6902 65.0057 43.915 56.2305 33.0902 56.2305C22.2655 56.2305 13.4902 65.0057 13.4902 75.8305C13.4902 86.6553 22.2655 95.4305 33.0902 95.4305Z" fill="white"/>
</mask>
<g mask="url(#mask1_7454_48725)">
<path d="M37.2602 80.6299H28.9102V86.2299H37.2602V80.6299Z" fill="#F9B485"/>
<path opacity="0.65" d="M37.2596 83.2799C36.3989 83.436 35.5236 83.4963 34.6497 83.4599C33.1897 83.5599 29.6496 83.6099 28.3896 80.8399V80.6299H37.2596V83.2799Z" fill="#CC6D29"/>
<path d="M32.9999 58.6797C31.9122 58.6836 30.8359 58.9021 29.8328 59.3226C28.8296 59.7431 27.9192 60.3573 27.1538 61.1302C26.3884 61.903 25.783 62.8193 25.3722 63.8265C24.9614 64.8336 24.7533 65.912 24.7599 66.9997V74.5597C24.7731 76.7392 25.6461 78.8253 27.1891 80.3646C28.7321 81.9039 30.8204 82.7718 32.9999 82.7797C35.1933 82.7797 37.2968 81.9084 38.8477 80.3575C40.3986 78.8065 41.2699 76.703 41.2699 74.5097V66.9997C41.2765 65.9095 41.0675 64.8287 40.6548 63.8195C40.2422 62.8104 39.634 61.8928 38.8654 61.1196C38.0968 60.3463 37.1829 59.7327 36.1763 59.314C35.1697 58.8952 34.0902 58.6797 32.9999 58.6797Z" fill="#F9B485"/>
<path d="M31.54 71.9199C31.5712 72.3056 31.7464 72.6655 32.0309 72.9279C32.3153 73.1902 32.6881 73.3359 33.075 73.3359C33.462 73.3359 33.8348 73.1902 34.1192 72.9279C34.4037 72.6655 34.5789 72.3056 34.61 71.9199H31.54Z" fill="#FFA766"/>
<path d="M32.9998 58.6602C32.2425 58.6608 31.4888 58.7651 30.7598 58.9702C32.4961 59.4658 34.0225 60.516 35.1059 61.9606C36.1893 63.4051 36.7702 65.1645 36.7598 66.9702V74.5502C36.7702 76.3558 36.1893 78.1152 35.1059 79.5598C34.0225 81.0043 32.4961 82.0546 30.7598 82.5502C31.4888 82.7552 32.2425 82.8595 32.9998 82.8602C35.1931 82.8602 37.2966 81.9889 38.8475 80.4379C40.3985 78.887 41.2698 76.7835 41.2698 74.5902V66.9302C41.2698 65.8441 41.0559 64.7687 40.6402 63.7654C40.2246 62.762 39.6155 61.8503 38.8475 61.0824C38.0796 60.3144 37.1679 59.7053 36.1646 59.2897C35.1612 58.8741 34.0858 58.6602 32.9998 58.6602Z" fill="#FFA766"/>
<path d="M24.6998 69.1904H24.6898C24.0823 69.1904 23.5898 69.6829 23.5898 70.2904V73.6904C23.5898 74.2979 24.0823 74.7904 24.6898 74.7904H24.6998C25.3074 74.7904 25.7998 74.2979 25.7998 73.6904V70.2904C25.7998 69.6829 25.3074 69.1904 24.6998 69.1904Z" fill="#F9B485"/>
<path d="M41.3004 69.1904H41.2904C40.6829 69.1904 40.1904 69.6829 40.1904 70.2904V73.6904C40.1904 74.2979 40.6829 74.7904 41.2904 74.7904H41.3004C41.9079 74.7904 42.4004 74.2979 42.4004 73.6904V70.2904C42.4004 69.6829 41.9079 69.1904 41.3004 69.1904Z" fill="#FFA766"/>
<path d="M37.5001 84C36.275 85.1297 34.6664 85.7517 33.0001 85.74C31.3455 85.7363 29.7517 85.1159 28.5301 84C26.0911 84.9175 23.9909 86.5587 22.511 88.7035C21.0311 90.8483 20.2422 93.3942 20.2501 96V102.33H45.8101V96C45.8128 93.3913 45.0184 90.8441 43.5332 88.6994C42.048 86.5547 39.943 84.9151 37.5001 84Z" fill="#FF8933"/>
<path d="M32.9996 86.8102C34.0004 86.8106 34.9884 86.584 35.889 86.1476C36.7897 85.7111 37.5797 85.076 38.1996 84.2902C37.9648 84.1782 37.7244 84.0781 37.4796 83.9902C36.2611 85.1189 34.6604 85.7441 32.9996 85.7402C31.345 85.7365 29.7512 85.1161 28.5296 84.0002L27.8096 84.2902C28.4289 85.0742 29.2174 85.708 30.1161 86.1444C31.0148 86.5807 32.0005 86.8084 32.9996 86.8102Z" fill="white"/>
</g>
</svg>
