<?xml version="1.0" encoding="UTF-8" standalone="no"?>
<svg
   width="1530px"
   height="1202px"
   viewBox="0 0 1530 1202"
   version="1.1"
   id="svg1133"
   sodipodi:docname="about.svg"
   inkscape:version="1.1.2 (0a00cf5339, 2022-02-04)"
   xmlns:inkscape="http://www.inkscape.org/namespaces/inkscape"
   xmlns:sodipodi="http://sodipodi.sourceforge.net/DTD/sodipodi-0.dtd"
   xmlns="http://www.w3.org/2000/svg"
   xmlns:svg="http://www.w3.org/2000/svg">
  <sodipodi:namedview
     id="namedview1135"
     pagecolor="#ffffff"
     bordercolor="#666666"
     borderopacity="1.0"
     inkscape:pageshadow="2"
     inkscape:pageopacity="0.0"
     inkscape:pagecheckerboard="0"
     showgrid="false"
     inkscape:zoom="0.47088186"
     inkscape:cx="765.58481"
     inkscape:cy="599.93817"
     inkscape:window-width="1482"
     inkscape:window-height="800"
     inkscape:window-x="0"
     inkscape:window-y="0"
     inkscape:window-maximized="1"
     inkscape:current-layer="svg1133" />
  <!-- Generator: Sketch 50.2 (55047) - http://www.bohemiancoding.com/sketch -->
  <title
     id="title2">Asset 1</title>
  <desc
     id="desc4">Created with Sketch.</desc>
  <defs
     id="defs6" />
  <polygon
     id="polygon9"
     fill="#414042"
     points="0.73591788,431.12 615.04592,774.98 1358.8959,344.27 744.58592,0.41 "
     transform="matrix(-1,0,0,1,1530,373)"
     style="fill-rule:nonzero;stroke:none;stroke-width:1" />
  <g
     id="Group"
     transform="matrix(-1,0,0,1,1375,289)"
     fill-rule="nonzero"
     style="fill:none;stroke:none;stroke-width:1">
    <g
       id="g23">
      <polygon
         fill="#ccc6ab"
         points="1109.96,260.28 450.5,643.52 0.36,383.63 659.82,0.4 "
         id="polygon15" />
      <polygon
         fill="#8c8875"
         points="659.82,0.4 659.47,124.08 0.01,507.32 0.36,383.63 "
         id="polygon17" />
      <polygon
         fill="#b2ae96"
         points="1109.96,261.01 1109.61,384.7 659.47,124.81 659.82,1.13 "
         id="polygon19" />
      <polygon
         fill="#b2ae96"
         points="450.5,643.52 450.14,767.2 0.01,507.32 0.36,383.63 "
         id="polygon21" />
    </g>
  </g>
  <g
     id="g64"
     transform="matrix(-1,0,0,1,1270,568)"
     fill-rule="nonzero"
     style="fill:none;stroke:none;stroke-width:1">
    <g
       transform="translate(75)"
       fill="#f7e221"
       id="g34">
      <polygon
         points="194.82,79.19 144.44,172.1 11.28,95.04 66.49,4.61 "
         id="polygon26" />
      <g
         id="g32">
        <path
           d="m 37.82,6.05 c 10.41,-6 19.85,-6.56 26.68,-2.59 l 130.32,75.73 c -6.83,-4 -16.27,-3.42 -26.68,2.59 -20.78,12 -37.56,41.08 -37.5,65 0,11.81 4.22,20.12 11,24 L 11.28,95 C 4.54,91.08 0.36,82.76 0.33,71 0.26,47.12 17.05,18.05 37.82,6.05 Z"
           id="path28" />
        <path
           d="m 168.14,81.78 c -20.78,12 -37.56,41.08 -37.5,65 0.06,23.92 17,33.41 37.75,21.42 20.75,-11.99 37.48,-41 37.41,-64.81 -0.07,-23.81 -16.96,-33.56 -37.66,-21.61 z"
           id="path30" />
      </g>
    </g>
    <g
       transform="translate(75)"
       id="g40">
      <path
         d="m 37.82,6.05 c 10.41,-6 19.85,-6.56 26.68,-2.59 l 43.44,25.24 c -6.83,-4 -16.27,-3.41 -26.68,2.59 -20.78,12 -37.56,41.08 -37.49,65 0,11.84 4.2,20.15 10.93,24.07 L 11.26,95.11 C 4.53,91.2 0.36,82.89 0.33,71.05 0.26,47.12 17.05,18.05 37.82,6.05 Z"
         fill="#62ed72"
         id="path36" />
      <path
         d="m 168.17,98.92 c -13.15,7.59 -23.77,26 -23.73,41.11 0.04,15.11 10.74,21.15 23.89,13.56 13.15,-7.59 23.72,-25.92 23.68,-41 -0.04,-15.08 -10.74,-21.23 -23.84,-13.67 z"
         fill="#e8e8e8"
         id="path38" />
    </g>
    <g
       transform="translate(233,109)"
       id="g46">
      <path
         d="m 14.22,2 c 3.84,-2.22 7.3,-2.43 9.8,-1 l 13.65,8 c -2.49,-1.46 -6,-1.25 -9.8,1 -7.61,4.39 -13.77,15.07 -13.75,23.89 0,4.34 1.55,7.4 4,8.84 L 4.46,34.79 c -2.47,-1.44 -4,-4.5 -4,-8.84 C 0.44,17.11 6.61,6.43 14.22,2 Z"
         fill="#b2b2b2"
         id="path42" />
      <path
         d="M 27.87,10 C 20.26,14.39 14.1,25.07 14.12,33.89 14.14,42.71 20.35,46.16 27.96,41.77 35.57,37.38 41.73,26.7 41.71,17.96 41.69,9.22 35.54,5.54 27.87,10 Z"
         fill="#d3d3d3"
         id="path44" />
    </g>
    <g
       transform="translate(3,88)"
       id="g52">
      <path
         d="m 14,2 c 3.84,-2.22 7.31,-2.43 9.8,-1 l 13.66,7.94 c -2.5,-1.46 -6,-1.25 -9.8,1 -7.61,4.4 -13.78,15.07 -13.75,23.89 0,4.34 1.55,7.4 4,8.84 L 4.25,34.73 c -2.48,-1.44 -4,-4.49 -4,-8.84 C 0.18,17 6.34,6.35 14,2 Z"
         fill="#b2b2b2"
         id="path48" />
      <path
         d="M 27.61,9.89 C 20,14.29 13.83,24.96 13.86,33.78 13.89,42.6 20.09,46.06 27.7,41.66 35.31,37.26 41.47,26.59 41.44,17.85 41.41,9.11 35.28,5.47 27.61,9.89 Z"
         fill="#d3d3d3"
         id="path50" />
    </g>
    <g
       transform="translate(0,69)"
       id="g60">
      <path
         d="m 37.66,5.5 c 10.41,-6 19.85,-6.56 26.68,-2.59 l 130.32,75.73 c -6.83,-4 -16.27,-3.41 -26.68,2.6 -20.78,12 -37.56,41.07 -37.5,64.94 0,11.81 4.22,20.13 11,24 L 11.12,94.49 C 4.38,90.57 0.2,82.26 0.12,70.49 0.1,46.58 16.88,17.5 37.66,5.5 Z"
         fill="#f7e221"
         id="path54" />
      <path
         d="m 168,81.24 c -20.78,12 -37.56,41.07 -37.5,64.94 0.06,23.87 17,33.42 37.74,21.42 20.74,-12 37.49,-41 37.42,-64.81 C 205.59,78.98 188.68,69.29 168,81.24 Z"
         fill="#62ed72"
         id="path56" />
      <path
         d="M 167.92,93.68 C 153.1,102.24 141.13,123 141.18,140 c 0.05,17 12.1,23.83 26.92,15.28 14.82,-8.55 26.73,-29.26 26.68,-46.23 -0.05,-16.97 -12.1,-23.89 -26.86,-15.37 z"
         fill="#e8e8e8"
         id="path58" />
    </g>
    <path
       d="m 124.54,125 c 10.41,-6 19.85,-6.56 26.68,-2.59 l 43.44,25.24 c -6.83,-4 -16.27,-3.42 -26.68,2.59 -20.78,12 -37.56,41.08 -37.5,64.95 0,11.84 4.21,20.15 10.94,24.06 L 98,214 C 91.27,210.09 87.1,201.77 87.06,189.94 87,166 103.76,137 124.54,125 Z"
       id="path62"
       fill="#62ed72" />
  </g>
  <g
     id="g216"
     transform="matrix(-1,0,0,1,1105,698)"
     fill-rule="nonzero"
     style="fill:none;stroke:none;stroke-width:1">
    <g
       transform="translate(4,22)"
       id="g130">
      <g
         transform="translate(107)"
         id="g72">
        <polygon
           fill="#cccccc"
           points="0.52,5.19 3.15,6.72 11.21,2.07 8.58,0.54 "
           id="polygon66" />
        <polygon
           fill="#8c8c8c"
           points="0.52,5.19 0.62,37.92 3.24,39.44 3.15,6.72 "
           id="polygon68" />
        <polygon
           fill="#b2b2b2"
           points="3.15,6.72 3.24,39.44 11.3,34.79 11.21,2.07 "
           id="polygon70" />
      </g>
      <g
         transform="translate(92,9)"
         id="g80">
        <polygon
           fill="#cccccc"
           points="0.19,5.2 2.82,6.73 10.87,2.08 8.24,0.55 "
           id="polygon74" />
        <polygon
           fill="#8c8c8c"
           points="0.19,5.2 0.28,37.92 2.91,39.45 2.82,6.73 "
           id="polygon76" />
        <polygon
           fill="#b2b2b2"
           points="2.82,6.73 2.91,39.45 10.96,34.8 10.87,2.08 "
           id="polygon78" />
      </g>
      <g
         transform="translate(76,18)"
         id="g88">
        <polygon
           fill="#cccccc"
           points="0.86,5.21 3.48,6.73 11.54,2.08 8.91,0.56 "
           id="polygon82" />
        <polygon
           fill="#8c8c8c"
           points="0.86,5.21 0.95,37.93 3.58,39.46 3.48,6.73 "
           id="polygon84" />
        <polygon
           fill="#b2b2b2"
           points="3.48,6.73 3.58,39.46 11.63,34.81 11.54,2.08 "
           id="polygon86" />
      </g>
      <g
         transform="translate(61,27)"
         id="g96">
        <polygon
           fill="#cccccc"
           points="0.52,5.21 3.15,6.74 11.2,2.09 8.58,0.56 "
           id="polygon90" />
        <polygon
           fill="#8c8c8c"
           points="0.52,5.21 0.62,37.94 3.24,39.47 3.15,6.74 "
           id="polygon92" />
        <polygon
           fill="#b2b2b2"
           points="3.15,6.74 3.24,39.47 11.3,34.82 11.2,2.09 "
           id="polygon94" />
      </g>
      <g
         transform="translate(46,36)"
         id="g104">
        <polygon
           fill="#cccccc"
           points="0.19,5.22 2.82,6.75 10.87,2.1 8.24,0.57 "
           id="polygon98" />
        <polygon
           fill="#8c8c8c"
           points="0.19,5.22 0.28,37.95 2.91,39.48 2.82,6.75 "
           id="polygon100" />
        <polygon
           fill="#b2b2b2"
           points="2.82,6.75 2.91,39.48 10.96,34.83 10.87,2.1 "
           id="polygon102" />
      </g>
      <g
         transform="translate(30,45)"
         id="g112">
        <polygon
           fill="#cccccc"
           points="0.86,5.23 3.48,6.76 11.54,2.11 8.91,0.58 "
           id="polygon106" />
        <polygon
           fill="#8c8c8c"
           points="0.86,5.23 0.95,37.96 3.58,39.48 3.48,6.76 "
           id="polygon108" />
        <polygon
           fill="#b2b2b2"
           points="3.48,6.76 3.58,39.48 11.63,34.83 11.54,2.11 "
           id="polygon110" />
      </g>
      <g
         transform="translate(15,54)"
         id="g120">
        <polygon
           fill="#cccccc"
           points="0.52,5.24 3.15,6.76 11.2,2.12 8.58,0.59 "
           id="polygon114" />
        <polygon
           fill="#8c8c8c"
           points="0.52,5.24 0.62,37.96 3.24,39.49 3.15,6.76 "
           id="polygon116" />
        <polygon
           fill="#b2b2b2"
           points="3.15,6.76 3.24,39.49 11.3,34.84 11.2,2.12 "
           id="polygon118" />
      </g>
      <g
         transform="translate(0,63)"
         id="g128">
        <polygon
           fill="#cccccc"
           points="0.19,5.25 2.82,6.77 10.87,2.12 8.24,0.6 "
           id="polygon122" />
        <polygon
           fill="#8c8c8c"
           points="0.19,5.25 0.28,37.97 2.91,39.5 2.82,6.77 "
           id="polygon124" />
        <polygon
           fill="#b2b2b2"
           points="2.82,6.77 2.91,39.5 10.96,34.85 10.87,2.12 "
           id="polygon126" />
      </g>
    </g>
    <g
       id="g148">
      <polygon
         fill="#656565"
         points="40.74,129.15 0.67,105.87 0.57,71.56 122.88,0.95 162.95,24.24 163.05,58.54 "
         id="polygon132" />
      <g
         id="g140">
        <polygon
           fill="#7c7c7c"
           points="0.57,71.56 40.64,94.85 162.95,24.24 122.88,0.95 "
           id="polygon134" />
        <polygon
           fill="#656565"
           points="0.57,71.56 0.67,105.87 40.74,129.15 40.64,94.85 "
           id="polygon136" />
        <polygon
           fill="#3d3d3d"
           points="40.64,94.85 40.74,129.15 163.05,58.54 162.95,24.24 "
           id="polygon138" />
      </g>
      <g
         transform="translate(25,63)"
         id="g146">
        <path
           d="m 4.62,3.12 c -5.2,3 -5.23,7.88 -0.06,10.89 5.17,3.01 13.59,3 18.79,0 5.2,-3 5.24,-7.88 0.07,-10.89 -5.17,-3.01 -13.59,-3 -18.8,0 z"
           fill="#656565"
           id="path142" />
        <path
           d="m 4.62,7 c 5.21,-3 13.62,-3 18.8,0 1.932997,0.01933 3.48433,1.6020034 3.465,3.535 C 26.86567,12.467997 25.282997,14.01933 23.35,14 18.15,17 9.74,17 4.56,14 3.3095704,13.989282 2.1598438,13.312282 1.5439111,12.224019 0.92797834,11.135756 0.93941427,9.801564 1.5739111,8.7240192 2.2084079,7.6464745 3.3695704,6.989282 4.62,7 Z"
           fill="#7c7c7c"
           id="path144" />
      </g>
    </g>
    <g
       transform="translate(45,47)"
       id="g214">
      <g
         transform="translate(107)"
         id="g156">
        <polygon
           fill="#cccccc"
           points="0.52,4.65 3.15,6.17 11.21,1.52 8.58,0 "
           id="polygon150" />
        <polygon
           fill="#8c8c8c"
           points="0.52,4.65 0.62,37.37 3.24,38.9 3.15,6.17 "
           id="polygon152" />
        <polygon
           fill="#b2b2b2"
           points="3.15,6.17 3.24,38.9 11.3,34.25 11.21,1.52 "
           id="polygon154" />
      </g>
      <g
         transform="translate(92,9)"
         id="g164">
        <polygon
           fill="#cccccc"
           points="0.19,4.65 2.82,6.18 10.87,1.53 8.24,0 "
           id="polygon158" />
        <polygon
           fill="#8c8c8c"
           points="0.19,4.65 0.28,37.38 2.91,38.91 2.82,6.18 "
           id="polygon160" />
        <polygon
           fill="#b2b2b2"
           points="2.82,6.18 2.91,38.91 10.96,34.26 10.87,1.53 "
           id="polygon162" />
      </g>
      <g
         transform="translate(76,18)"
         id="g172">
        <polygon
           fill="#cccccc"
           points="0.86,4.66 3.48,6.19 11.54,1.54 8.91,0.01 "
           id="polygon166" />
        <polygon
           fill="#8c8c8c"
           points="0.86,4.66 0.95,37.39 3.58,38.92 3.48,6.19 "
           id="polygon168" />
        <polygon
           fill="#b2b2b2"
           points="3.48,6.19 3.58,38.92 11.63,34.27 11.54,1.54 "
           id="polygon170" />
      </g>
      <g
         transform="translate(61,27)"
         id="g180">
        <polygon
           fill="#cccccc"
           points="0.52,4.67 3.15,6.2 11.21,1.55 8.58,0.02 "
           id="polygon174" />
        <polygon
           fill="#8c8c8c"
           points="0.52,4.67 0.62,37.4 3.24,38.92 3.15,6.2 "
           id="polygon176" />
        <polygon
           fill="#b2b2b2"
           points="3.15,6.2 3.24,38.92 11.3,34.27 11.21,1.55 "
           id="polygon178" />
      </g>
      <g
         transform="translate(46,36)"
         id="g188">
        <polygon
           fill="#cccccc"
           points="0.19,4.68 2.82,6.21 10.87,1.55 8.24,0.03 "
           id="polygon182" />
        <polygon
           fill="#8c8c8c"
           points="0.19,4.68 0.28,37.4 2.91,38.93 2.82,6.21 "
           id="polygon184" />
        <polygon
           fill="#b2b2b2"
           points="2.82,6.21 2.91,38.93 10.96,34.28 10.87,1.55 "
           id="polygon186" />
      </g>
      <g
         transform="translate(30,45)"
         id="g196">
        <polygon
           fill="#cccccc"
           points="0.86,4.68 3.48,6.21 11.54,1.56 8.91,0.04 "
           id="polygon190" />
        <polygon
           fill="#8c8c8c"
           points="0.86,4.68 0.95,37.41 3.58,38.94 3.48,6.21 "
           id="polygon192" />
        <polygon
           fill="#b2b2b2"
           points="3.48,6.21 3.58,38.94 11.63,34.29 11.54,1.56 "
           id="polygon194" />
      </g>
      <g
         transform="translate(15,54)"
         id="g204">
        <polygon
           fill="#cccccc"
           points="0.52,4.69 3.15,6.22 11.2,1.57 8.58,0.04 "
           id="polygon198" />
        <polygon
           fill="#8c8c8c"
           points="0.52,4.69 0.62,37.42 3.24,38.95 3.15,6.22 "
           id="polygon200" />
        <polygon
           fill="#b2b2b2"
           points="3.15,6.22 3.24,38.95 11.3,34.3 11.2,1.57 "
           id="polygon202" />
      </g>
      <g
         transform="translate(0,63)"
         id="g212">
        <polygon
           fill="#cccccc"
           points="0.19,4.7 2.82,6.23 10.87,1.58 8.24,0.05 "
           id="polygon206" />
        <polygon
           fill="#8c8c8c"
           points="0.19,4.7 0.28,37.43 2.91,38.96 2.82,6.23 "
           id="polygon208" />
        <polygon
           fill="#b2b2b2"
           points="2.82,6.23 2.91,38.96 10.96,34.3 10.87,1.58 "
           id="polygon210" />
      </g>
    </g>
  </g>
  <g
     id="g317"
     transform="matrix(-1,0,0,1,686,419)"
     fill-rule="nonzero"
     style="fill:none;stroke:none;stroke-width:1">
    <g
       transform="translate(23,14)"
       id="g236">
      <polygon
         fill="#6d6d6d"
         points="13.2,50.25 99.53,0.08 155.33,32.3 155.71,98.12 68.82,148.6 13.01,116.38 "
         id="polygon218" />
      <g
         id="g228">
        <polygon
           fill="#cecece"
           points="12.63,50.56 99,0.4 99.57,0.08 13.2,50.25 "
           id="polygon220" />
        <polygon
           fill="#9b9b9b"
           points="13.2,50.25 99.53,0.08 155.33,32.3 69.01,82.47 "
           id="polygon222" />
        <path
           d="m 155.71,98.12 -86.32,50.17 c 7.2,-4.19 11.67,-13.07 11.71,-25.72 0,-13 -4.61,-27.39 -12.09,-40.1 L 155.33,32.3 c 7.49,12.71 12.13,27.13 12.09,40.1 -0.03,12.65 -4.51,21.54 -11.71,25.72 z"
           fill="#6d6d6d"
           id="path224" />
        <path
           d="m 69,82.47 c 7.48,12.71 12.12,27.12 12.09,40.1 -0.03,12.98 -4.75,22 -12.28,26 L 13,116.38 C 5.52,103.68 0.88,89.26 0.91,76.28 c 0.03,-12.98 4.75,-22 12.28,-26 z"
           fill="#4c4c4c"
           id="path226" />
      </g>
      <path
         d="m 27.42,48.84 39.61,-23 c 4.358908,-2.519001 9.731092,-2.519001 14.09,0 L 114.44,45 c 0.78177,0.452213 1.26319,1.286864 1.26319,2.19 0,0.903136 -0.48142,1.737787 -1.26319,2.19 l -39.64,23 c -4.351899,2.531769 -9.728101,2.531769 -14.08,0 L 27.42,53.16 C 26.676613,52.693551 26.225323,51.87761 26.225323,51 c 0,-0.87761 0.45129,-1.693551 1.194677,-2.16 z"
         fill="#c2c4bb"
         id="path230" />
      <path
         d="m 61.08,107.25 c 2.595266,1.68946 4.226732,4.51758 4.39,7.61 0,2.8 -2,3.92 -4.42,2.51 -2.593722,-1.68627 -4.225206,-4.51071 -4.39,-7.6 0.01,-2.77 1.99,-3.92 4.42,-2.52 z"
         fill="#333333"
         id="path232" />
      <path
         d="m 16.66,79.34 c 2.594936,1.685117 4.22681,4.510229 4.39,7.6 0,2.8 -2,3.92 -4.42,2.52 -2.593722,-1.686269 -4.225206,-4.510706 -4.39,-7.6 0.01,-2.8 1.99,-3.92 4.42,-2.52 z"
         fill="#333333"
         id="path234" />
    </g>
    <g
       transform="translate(96,14)"
       id="g244">
      <polygon
         fill="#6dcc62"
         points="0.06,15.45 26,0.4 26.57,0.08 0.67,15.13 "
         id="polygon238" />
      <polygon
         fill="#6dcc62"
         points="0.63,15.13 26.53,0.08 82.33,32.3 56.43,47.35 "
         id="polygon240" />
      <path
         d="m 82.74,98.1 -25.9,15 c 7.2,-4.18 11.65,-13.07 11.69,-25.7 0,-13 -4.61,-27.39 -12.1,-40.1 L 82.33,32.25 C 89.82,44.96 94.46,59.38 94.42,72.35 94.39,85 89.94,93.92 82.74,98.1 Z"
         fill="#63a85a"
         id="path242" />
    </g>
    <g
       transform="translate(35,96)"
       id="g257">
      <g
         transform="translate(6)"
         id="g250">
        <path
           d="M 12.35,7.17 C 18.67,10.83 23.78,19.68 23.76,26.95 23.74,34.22 18.6,37.12 12.27,33.47 5.94,29.82 0.85,21 0.87,13.73 0.89,6.46 6,3.53 12.35,7.17 Z"
           fill="#494949"
           id="path246" />
        <path
           d="m 13.4,1 c 2.08,-1.2 5,-1 8.13,0.8 6.33,3.65 11.44,12.5 11.42,19.77 0,3.6 -1.28,6.14 -3.33,7.33 l -9.19,5.34 c 2.05,-1.2 3.32,-3.73 3.33,-7.33 C 23.76,19.64 18.67,10.79 12.35,7.13 9.17,5.3 6.3,5.13 4.22,6.34 Z"
           fill="#7a7a7a"
           id="path248" />
      </g>
      <g
         transform="translate(0,5)"
         id="Oval">
        <ellipse
           fill="#fee53f"
           transform="rotate(-30.17352,12.8026,15.0438)"
           cx="12.8026"
           cy="15.0438"
           rx="7.2818365"
           ry="12.5741"
           id="ellipse252" />
        <ellipse
           fill="#707070"
           transform="rotate(-30.16,18.162984,15.405668)"
           cx="18.162985"
           cy="15.405668"
           rx="5.1500001"
           ry="8.8999996"
           id="ellipse254" />
      </g>
    </g>
    <g
       transform="translate(0,110)"
       id="g263">
      <path
         d="m 5.78,28.44 c 2.8751456,1.866209 4.682174,4.996905 4.86,8.42 0,3 -2.24,4.33 -4.89,2.79 C 2.8710427,37.78603 1.0600792,34.65496 0.88,31.23 0.89,28.08 3,26.85 5.78,28.44 Z"
         fill="#a8a8a8"
         id="path259" />
      <path
         d="M 49.55,0.6 C 50.68879,0.10681932 52.004264,0.25933812 53,1 c 2.881723,1.8660057 4.693061,5.0014441 4.87,8.43 0.109939,1.216674 -0.439366,2.399206 -1.44,3.1 L 9.21,40 c 1.001802,-0.703623 1.547991,-1.891488 1.43,-3.11 C 10.462174,33.466905 8.6551456,30.336209 5.78,28.47 4.7718011,27.717885 3.433489,27.576 2.29,28.1 Z"
         fill="#e5e5e5"
         id="path261" />
    </g>
    <g
       transform="translate(79)"
       id="g315">
      <g
         id="g283">
        <g
           id="g271">
          <path
             d="M 43.25,14.81 26,24.86 4.51,12.45 C -0.3,9.67 -0.33,5.18 4.44,2.4 9.21,-0.38 16.99,-0.38 21.8,2.4 Z"
             fill="#ffc82e"
             id="path265" />
          <polygon
             fill="#ffc82e"
             points="43.25,14.81 43.24,18.18 25.96,28.23 25.96,24.86 "
             id="polygon267" />
          <path
             d="m 0.84,7.38 c 0,1.84 1.21,3.67 3.63,5.07 L 26,24.86 v 3.37 L 4.51,15.82 C 2.09,14.42 0.88,12.58 0.88,10.75 Z"
             fill="#ddad36"
             id="path269" />
        </g>
        <g
           transform="translate(3,1)"
           id="g281">
          <path
             d="m 3.25,10.77 c 4.442331,2.260375 9.697669,2.260375 14.14,0 3.88,-2.25 3.86,-5.92 -0.06,-8.18 -4.435346,-2.26010225 -9.6846539,-2.26010225 -14.12,0 -3.89,2.26 -3.87,5.93 0.04,8.18 z"
             fill="#fcdb54"
             id="path273" />
          <g
             transform="translate(5,3)"
             id="g279">
            <path
               d="m 1.63,5.81 c 2.3101521,1.1706877 5.0398479,1.1706877 7.35,0 2,-1.18 2,-3.08 0,-4.26 C 6.6733364,0.37946018 3.9466636,0.37946018 1.64,1.55 -0.41,2.73 -0.4,4.64 1.63,5.81 Z"
               fill="#a88f63"
               id="path275" />
            <path
               d="m 1.62,5.81 c 2.3101521,1.1706877 5.0398479,1.1706877 7.35,0 -2.3089875,-1.175552 -5.0410125,-1.175552 -7.35,0"
               fill="#ffffff"
               id="path277" />
          </g>
        </g>
      </g>
      <g
         transform="translate(26,9)"
         id="g295">
        <polygon
           fill="#5fb753"
           points="57.41,23.19 57.38,37.68 39.78,47.95 0.04,25.01 0.07,10.47 17.66,0.24 "
           id="polygon285" />
        <g
           id="g293">
          <polygon
             fill="#75ea60"
             points="57.41,23.19 39.81,33.42 0.07,10.47 17.66,0.24 "
             id="polygon287" />
          <polygon
             fill="#58b54b"
             points="57.41,23.19 57.38,37.68 39.78,47.91 39.81,33.42 "
             id="polygon289" />
          <polygon
             fill="#5fb753"
             points="39.81,33.42 39.78,47.95 0.04,25.01 0.07,10.47 "
             id="polygon291" />
        </g>
      </g>
      <g
         transform="translate(66,37)"
         id="g313">
        <g
           id="g301">
          <path
             d="m 0.21,10.35 21.51,12.42 c 4.8,2.77 12.58,2.77 17.36,0 2.37,-1.38 3.56,-3.19 3.56,-5 v 3.37 c 0,1.8 -1.19,3.61 -3.56,5 -4.77,2.77 -12.56,2.77 -17.36,0 L 0.2,13.72 Z"
             fill="#ddad36"
             id="path297" />
          <path
             d="m 39,12.71 c 4.8,2.78 4.84,7.28 0.06,10.06 -4.78,2.78 -12.56,2.77 -17.36,0 L 0.19,10.35 17.49,0.3 Z"
             fill="#ffc82e"
             id="path299" />
        </g>
        <g
           transform="translate(20,11)"
           id="g311">
          <path
             d="m 3.37,10.3 c 4.442331,2.260375 9.697669,2.260375 14.14,0 3.88,-2.25 3.86,-5.92 -0.06,-8.18 -4.431853,-2.25996868 -9.6781475,-2.25996868 -14.11,0 -3.9,2.26 -3.88,5.93 0.03,8.18 z"
             fill="#fcdb54"
             id="path303" />
          <g
             transform="translate(5,3)"
             id="g309">
            <path
               d="m 1.75,5.34 c 2.3140226,1.1692316 5.0459774,1.1692316 7.36,0 2,-1.17 2,-3.08 0,-4.26 -2.3031738,-1.17039573 -5.0268262,-1.17039573 -7.33,0 -2.07,1.18 -2.06,3.09 -0.03,4.26 z"
               fill="#a88f63"
               id="path305" />
            <path
               d="m 1.74,5.34 c 2.3101521,1.1706877 5.0398479,1.1706877 7.35,0 -2.3101521,-1.1706877 -5.0398479,-1.1706877 -7.35,0"
               fill="#ffffff"
               id="path307" />
          </g>
        </g>
      </g>
    </g>
  </g>
  <g
     id="g373"
     transform="matrix(-1,0,0,1,550,474)"
     fill-rule="nonzero"
     style="fill:none;stroke:none;stroke-width:1">
    <g
       id="g369">
      <g
         transform="translate(0,1)"
         id="g329">
        <polygon
           fill="#fff200"
           points="141.25,207.97 238.18,157.44 239.17,80.81 101.26,1.62 5.52,57.13 3.95,129.29 "
           id="polygon319" />
        <g
           id="g327">
          <path
             d="m 245.13,93.71 c 0,-12.76 -8.93,-17.94 -19.9,-11.65 L 158,120.61 c -11,6.31 -19.9,21.72 -19.91,34.47 v 42.24 c 0,12.76 8.9,18 19.91,11.65 l 67.21,-38.55 c 11,-6.29 19.91,-21.72 19.91,-34.48 z"
             fill="#19ff00"
             id="path321" />
          <path
             d="m 233.6,104.88 c 0,-10 -7,-14.07 -15.62,-9.14 L 165.26,126 c -8.64,4.95 -15.62,17 -15.62,27 v 33.14 c 0,10 7,14.08 15.61,9.13 L 218,165.05 c 8.6,-4.93 15.61,-17 15.61,-27 z"
             fill="#515151"
             id="path323" />
          <path
             d="M 225.23,82.06 158,120.61 c -11,6.31 -19.9,21.72 -19.91,34.47 v 42.24 c 0,6.42 2.25,10.93 5.89,13 L 6.05,131.2 c -3.65,-2.09 -5.9,-6.6 -5.9,-13 V 76 c 0,-12.76 8.9,-28.17 19.91,-34.48 L 87.27,2.97 c 5.45,-3.12 10.41,-3.42 14,-1.35 l 137.94,79.14 c -3.58,-2.12 -8.53,-1.83 -13.98,1.3 z"
             fill="#19ff00"
             id="path325" />
        </g>
      </g>
      <path
         d="M 198.12,67.44 130.88,106 c -11,6.3 -19.88,21.71 -19.88,34.42 v 42.31 c 0,6.43 2.26,10.94 5.9,13 L 5.56,131.92 c -3.65,-2.09 -5.44,-6.61 -5.44,-13 V 76.57 C 0.12,63.86 9.02,48.44 20,42.15 L 87.24,3.59 c 5.48,-3.14 10.43,-3.43 14,-1.37 L 212.11,66.07 C 208.56,64 203.6,64.3 198.12,67.44 Z"
         id="path331"
         fill="#ed64d9" />
      <path
         d="m 204.54,71 -67.24,38.57 c -11,6.29 -19.88,21.71 -19.88,34.42 v 42.31 c 0,6.42 2.56,11.24 6.21,13.33 l -20.15,-11.59 c -3.65,-2.09 -5.9,-6.6 -5.9,-13 v -42.3 c 0,-12.71 8.9,-28.13 19.88,-34.43 L 184.7,59.75 c 5.48,-3.14 10.43,-3.43 14,-1.37 l 19.84,11.29 C 215,67.59 210,67.88 204.54,71 Z"
         id="path333"
         fill="#efefef" />
      <path
         d="m 225.83,94.7 c 1.54046,2.356268 2.29971,5.137847 2.17,7.95 v 33.14 c 0,10 -7,22.11 -15.62,27 l -52.72,30.24 c -2.35176,1.46829 -5.10257,2.16735 -7.87,2 -1.53898,-2.37513 -2.29442,-5.17306 -2.16,-8 V 154 c 0,-10 7,-22.09 15.61,-27 L 218,96.75 c 2.3499,-1.47264 5.10213,-2.172062 7.87,-2"
         id="path335"
         fill="#878787" />
      <g
         transform="translate(190,113)"
         id="g357">
        <g
           id="g349">
          <g
             id="g341">
            <path
               d="M 29.44,5.69 26.84,4.22 C 24.41,2.83 21.08,3.02 17.39,5.14 10,9.39 4,19.81 4,28.4 c 0,4.32 1.52,7.36 4,8.77 l 2.6,1.48 c -2.46,-1.41 -4,-4.45 -4,-8.78 0,-8.59 6,-19 13.43,-23.26 C 23.67,4.5 27,4.3 29.44,5.69 Z"
               id="path337"
               fill="#eaeaea" />
            <ellipse
               id="ellipse339"
               fill="#bababa"
               transform="rotate(-60.16,19.963578,22.135038)"
               cx="19.963577"
               cy="22.135038"
               rx="18.99"
               ry="11" />
          </g>
          <g
             transform="translate(10,9)"
             fill="#eaeaea"
             id="g347">
            <path
               d="M 24.8,5.18 17.57,1.02 c -1.83,-1 -4.36,-0.9 -7.14,0.69 -5.6,3.22 -10.14,11.08 -10.14,17.57 0,3.26 1.15,5.55 3,6.62 l 7.23,4.16 C 8.67,28.99 7.52,26.7 7.52,23.43 7.52,16.95 12.06,9.08 17.66,5.87 20.45,4.28 23,4.13 24.8,5.18 Z"
               id="path343" />
            <path
               d="M 27.81,11.8 C 27.81,5.32 23.27,2.66 17.67,5.87 12.07,9.08 7.53,16.95 7.53,23.43 c 0,6.48 4.54,9.15 10.14,5.93 5.6,-3.22 10.14,-11.07 10.14,-17.56 z"
               id="path345" />
          </g>
        </g>
        <g
           transform="translate(20,16)"
           id="g355">
          <path
             d="M 0.2,14.91 C 0.48005178,9.6458658 3.2600489,4.8329028 7.68,1.96 11.79,-0.4 15.14,1.56 15.14,6.34 14.859813,11.593699 12.088031,16.397872 7.68,19.27 3.54,21.64 0.2,19.68 0.2,14.91 Z"
             fill="#a8a8a8"
             id="path351" />
          <path
             d="M 0.19,14.93 C 0.46289106,9.6689421 3.240539,4.857327 7.66,1.99 7.3726989,7.2467832 4.5985528,12.052332 0.19,14.93"
             fill="#666666"
             id="path353" />
        </g>
      </g>
      <g
         transform="translate(156,139)"
         id="g367">
        <path
           d="m 36.21,12.21 c 0,-4 -2.81,-5.62 -6.29,-3.63 l -10.43,6 c -3.707835,2.405813 -6.044727,6.436858 -6.29,10.85 v 12.13 c 0,4 2.81,5.63 6.29,3.63 l 10.43,-6 c 3.710254,-2.403512 6.047925,-6.435903 6.29,-10.85 z"
           fill="#eaeaea"
           id="path359" />
        <path
           d="m 37.48,13 c 0,-4 -2.81,-5.63 -6.29,-3.63 l -10.43,6 c -3.705088,2.403767 -6.041607,6.430457 -6.29,10.84 v 12.13 c 0,4 2.81,5.63 6.29,3.64 l 10.43,-6 c 3.707835,-2.405813 6.044727,-6.436858 6.29,-10.85 z"
           fill="#eaeaea"
           id="path361" />
        <path
           d="m 31.19,9.32 -10.43,6 c -3.705088,2.403767 -6.041607,6.430457 -6.29,10.84 v 12.13 c 0,2 0.71,3.41 1.85,4.07 L 2.58,34.44 C 1.43,33.79 0.77,32.38 0.77,30.38 V 18.23 C 0.9991795,13.824724 3.317587,9.7935182 7.01,7.38 l 10.41,-6 c 1.73,-1 3.29,-1.08 4.43,-0.43 L 35.63,8.87 C 34.5,8.23 32.92,8.32 31.19,9.32 Z"
           fill="#eaeaea"
           id="path363" />
        <path
           d="m 33.53,17.29 c 0,-2.61 -1.84,-3.68 -4.12,-2.38 l -6.83,3.92 c -2.429757,1.57626 -3.960629,4.21813 -4.12,7.11 v 7.94 c 0,2.61 1.84,3.69 4.12,2.38 l 6.83,-3.92 c 2.429424,-1.571914 3.960705,-4.210772 4.12,-7.1 z"
           fill="#666666"
           id="path365" />
      </g>
    </g>
    <polygon
       id="polygon371"
       fill="#fff200"
       points="142.02,62.07 116.97,51.16 130.59,43.3 75.58,40 100.63,50.91 87.01,58.77 " />
  </g>
  <g
     id="g919"
     transform="matrix(-1,0,0,1,914,569)"
     fill-rule="nonzero"
     style="fill:none;stroke:none;stroke-width:1">
    <g
       transform="translate(0,39)"
       id="g385">
      <polygon
         fill="#428489"
         points="204.07,293.47 464.08,142.36 464.15,117.85 260.29,0.15 0.27,151.25 0.2,175.77 "
         id="polygon375" />
      <g
         id="g383">
        <polygon
           fill="#51a89f"
           points="464.15,117.85 204.13,268.95 0.27,151.25 260.29,0.15 "
           id="polygon377" />
        <polygon
           fill="#51918c"
           points="464.15,117.85 464.08,142.36 204.07,293.47 204.13,268.95 "
           id="polygon379" />
        <polygon
           fill="#428489"
           points="204.13,268.95 204.07,293.47 0.2,175.77 0.27,151.25 "
           id="polygon381" />
      </g>
    </g>
    <g
       transform="translate(331,30)"
       id="g403">
      <polygon
         fill="#ababab"
         points="47.27,113.14 110.3,76.47 110.44,27.43 63.66,0.43 0.55,37.1 0.42,86.13 "
         id="polygon387" />
      <g
         id="g395">
        <polygon
           fill="#c6c6c6"
           points="110.44,27.43 47.33,64.11 0.55,37.1 63.66,0.43 "
           id="polygon389" />
        <polygon
           fill="#ababab"
           points="110.44,27.43 110.3,76.47 47.19,113.14 47.33,64.11 "
           id="polygon391" />
        <polygon
           fill="#777777"
           points="47.33,64.11 47.19,113.14 0.42,86.13 0.55,37.1 "
           id="polygon393" />
      </g>
      <polygon
         fill="#d6d6d6"
         points="64.91,53.96 47.33,64.11 0.55,37.1 18.14,26.95 "
         id="polygon397" />
      <polygon
         fill="#bcbcbc"
         points="64.91,53.96 64.77,102.99 47.27,113.14 47.41,64.11 "
         id="polygon399" />
      <polygon
         fill="#8e8e8e"
         points="30.31,103.5 14.46,94.29 14.42,77.67 30.26,86.88 "
         id="polygon401" />
    </g>
    <g
       transform="translate(126,152)"
       id="g411">
      <polygon
         fill="#707070"
         points="62.71,18.53 31.64,36.59 0.36,18.53 31.43,0.47 "
         id="polygon405" />
      <polygon
         fill="#565656"
         points="62.71,18.53 62.69,25.88 31.62,43.95 31.64,36.59 "
         id="polygon407" />
      <polygon
         fill="#505050"
         points="31.64,36.59 31.62,43.95 0.34,25.89 0.36,18.53 "
         id="polygon409" />
    </g>
    <g
       transform="translate(402,118)"
       id="g463">
      <polygon
         fill="#4f4f4f"
         points="31.54,56.29 62.12,38.52 62.14,19.91 31.36,2.14 0.78,19.91 0.76,38.52 "
         id="polygon413" />
      <g
         transform="translate(0,8)"
         id="g421">
        <polygon
           fill="#585858"
           points="62.15,18.42 31.57,36.19 0.79,18.42 31.37,0.65 "
           id="polygon415" />
        <polygon
           fill="#4f4f4f"
           points="62.15,18.42 62.12,30.52 31.54,48.29 31.57,36.19 "
           id="polygon417" />
        <polygon
           fill="#373737"
           points="31.57,36.19 31.54,48.29 0.76,30.52 0.79,18.42 "
           id="polygon419" />
      </g>
      <g
         transform="translate(0,2)"
         id="g429">
        <polygon
           fill="#dcdcdc"
           points="62.14,17.91 31.56,35.68 0.78,17.91 31.36,0.14 "
           id="polygon423" />
        <polygon
           fill="#c5c5c5"
           points="62.14,17.91 62.12,23.97 31.55,41.74 31.56,35.68 "
           id="polygon425" />
        <polygon
           fill="#898989"
           points="31.56,35.68 31.55,41.74 0.77,23.97 0.78,17.91 "
           id="polygon427" />
      </g>
      <path
         d="m 40.77,14.4 c 5.16,3 5.2,7.82 0.06,10.81 -5.14,2.99 -13.49,3 -18.66,0 -5.17,-3 -5.2,-7.82 -0.06,-10.81 5.14,-2.99 13.48,-2.99 18.66,0 z"
         fill="#ffffff"
         id="path431" />
      <g
         transform="translate(46,15)"
         id="g437">
        <path
           d="M 10.1,2.92 V 5.45 C 10.0347,6.3227052 9.4976401,7.089932 8.7,7.45 6.5643378,8.5398505 4.0356622,8.5398505 1.9,7.45 1.0988456,7.0903605 0.55539104,6.3249315 0.48,5.45 V 2.91 c 0.0793616,0.8764179 0.6263555,1.6414444 1.43,2 2.1356622,1.0898505 4.6643378,1.0898505 6.8,0 0.7879556,-0.3645385 1.318936,-1.1247184 1.39,-1.99 z"
           fill="#727272"
           id="path433" />
        <path
           d="m 8.68,0.94 c 1.88,1.09 1.89,2.85 0,3.94 -2.1356622,1.0898505 -4.6643378,1.0898505 -6.8,0 -1.89,-1.09 -1.9,-2.85 0,-3.94 2.136445,-1.08658938 4.663555,-1.08658938 6.8,0 z"
           fill="#9b9b9b"
           id="path435" />
      </g>
      <g
         transform="translate(26,26)"
         id="g443">
        <path
           d="m 10.29,3.66 v 2.53 c -0.0695,0.8712003 -0.6052121,1.6364991 -1.4,2 -2.1356622,1.0898505 -4.6643378,1.0898505 -6.8,0 C 1.2860129,7.8338177 0.74119321,7.066466 0.67,6.19 V 3.66 c 0.075391,0.8749315 0.6188456,1.6403605 1.42,2 2.1379889,1.0801288 4.6620111,1.0801288 6.8,0 0.7962073,-0.3617946 1.332586,-1.12805 1.4,-2 z"
           fill="#727272"
           id="path439" />
        <path
           d="m 8.87,1.68 c 1.89,1.08 1.9,2.85 0,3.94 -2.1379889,1.0801288 -4.6620111,1.0801288 -6.8,0 -1.89,-1.09 -1.9,-2.86 0,-3.94 2.1356622,-1.08985053 4.6643378,-1.08985053 6.8,0 z"
           fill="#9b9b9b"
           id="path441" />
      </g>
      <g
         transform="translate(7,15)"
         id="g449">
        <path
           d="M 9.65,2.92 V 5.45 C 9.584699,6.3227052 9.0476401,7.089932 8.25,7.45 6.1143378,8.5398505 3.5856622,8.5398505 1.45,7.45 0.64884563,7.0903605 0.10539104,6.3249315 0.03,5.45 V 2.91 c 0.07518892,0.8779614 0.62354544,1.6448936 1.43,2 2.1321668,1.0897221 4.6578332,1.0897221 6.79,0 0.7975395,-0.3548852 1.3354299,-1.119458 1.4,-1.99 z"
           fill="#727272"
           id="path445" />
        <path
           d="m 8.24,0.94 c 1.88,1.09 1.89,2.85 0,3.94 -2.1321668,1.0897221 -4.6578332,1.0897221 -6.79,0 -1.89,-1.09 -1.9,-2.85 0,-3.94 2.1337318,-1.08320187 4.6562682,-1.08320187 6.79,0 z"
           fill="#9b9b9b"
           id="path447" />
      </g>
      <g
         transform="translate(26,4)"
         id="g455">
        <path
           d="M 10.29,3.66 V 6.19 C 10.205277,7.0434573 9.671566,7.7868399 8.89,8.14 6.7543378,9.2298505 4.2256622,9.2298505 2.09,8.14 1.2816635,7.7891598 0.7347158,7.0188109 0.67,6.14 V 3.61 c 0.0711932,0.876466 0.6160129,1.6438177 1.42,2 2.1356622,1.0898505 4.6643378,1.0898505 6.8,0 0.7829261,-0.3514975 1.317287,-1.0957856 1.4,-1.95 z"
           fill="#727272"
           id="path451" />
        <path
           d="m 8.87,1.67 c 1.89,1.09 1.9,2.85 0,3.94 -2.1356622,1.0898505 -4.6643378,1.0898505 -6.8,0 -1.89,-1.09 -1.9,-2.85 0,-3.94 2.1356622,-1.08985053 4.6643378,-1.08985053 6.8,0 z"
           fill="#9b9b9b"
           id="path453" />
      </g>
      <g
         transform="translate(19)"
         id="g461">
        <path
           d="m 24,6.94 v 12.1 c 0,1.7 -1.12,3.39 -3.34,4.69 -4.48,2.6 -11.76,2.6 -16.26,0 C 2.13,22.41 0.99,20.73 1,18.98 L 0.99993478,6.87 C 1,8.59 2.13,10.31 4.4,11.62 c 4.51,2.6 11.78,2.6 16.26,0 C 22.86,10.32 24,8.63 24,6.94 Z"
           fill="#ea541f"
           id="path457" />
        <path
           d="m 20.59,2.2 c 4.5,2.6 4.52,6.81 0,9.42 -4.52,2.61 -11.75,2.6 -16.26,0 C -0.18,9.02 -0.2,4.8 4.27,2.2 c 4.47,-2.6 11.8,-2.61 16.32,0 z"
           fill="#f2b164"
           id="path459" />
      </g>
    </g>
    <g
       transform="translate(178,54)"
       id="g491">
      <g
         transform="translate(0,15)"
         id="g475">
        <polygon
           fill="#505050"
           points="0.17,31.35 0.15,38.7 26.28,53.79 78.69,23.34 78.71,15.98 52.58,0.89 "
           id="polygon465" />
        <g
           id="g473">
          <polygon
             fill="#696969"
             points="78.71,15.98 26.3,46.43 0.17,31.35 52.58,0.89 "
             id="polygon467" />
          <polygon
             fill="#515151"
             points="78.71,15.98 78.69,23.34 26.28,53.79 26.3,46.43 "
             id="polygon469" />
          <polygon
             fill="#4c4c4c"
             points="26.3,46.43 26.28,53.79 0.15,38.7 0.17,31.35 "
             id="polygon471" />
        </g>
      </g>
      <g
         transform="translate(9)"
         id="g489">
        <g
           transform="translate(27)"
           id="g481">
          <path
             d="m 32.93,9.94 -0.06,20.37 c 0,2.35 -1.56,4.7 -4.65,6.5 -6.21,3.61 -16.32,3.61 -22.59,0 C 2.48,34.99 0.91,32.61 0.92,30.23 L 0.97,9.86 c 0,2.38 1.57,4.77 4.71,6.58 6.27,3.62 16.39,3.62 22.6,0 3.09,-1.8 4.64,-4.15 4.65,-6.5 z"
             fill="#afafaf"
             id="path477" />
          <path
             d="m 28.2,3.35 c 6.27,3.62 6.31,9.47 0.08,13.09 -6.23,3.62 -16.33,3.61 -22.6,0 C -0.59,12.83 -0.6,6.98 5.61,3.37 11.82,-0.24 22,-0.26 28.2,3.35 Z"
             fill="#dbdbdb"
             id="path479" />
        </g>
        <g
           transform="translate(0,16)"
           id="g487">
          <path
             d="m 32.92,9.44 -0.06,20.37 c 0,2.35 -1.55,4.7 -4.64,6.5 -6.22,3.61 -16.33,3.61 -22.6,0 C 2.48,34.49 0.9,32.11 0.91,29.72 L 0.97,9.36 c 0,2.38 1.56,4.77 4.71,6.58 6.27,3.62 16.38,3.62 22.59,0 3.1,-1.8 4.65,-4.15 4.65,-6.5 z"
             fill="#afafaf"
             id="path483" />
          <path
             d="m 28.2,2.85 c 6.27,3.62 6.3,9.47 0.07,13.09 -6.23,3.62 -16.32,3.61 -22.59,0 C -0.59,12.33 -0.61,6.48 5.61,2.87 11.83,-0.74 22,-0.76 28.2,2.85 Z"
             fill="#dbdbdb"
             id="path485" />
        </g>
      </g>
    </g>
    <g
       transform="translate(77,101)"
       id="g503">
      <polygon
         fill="#3e3e3e"
         points="37.11,129.48 172.72,50.67 172.8,21.94 135.97,0.67 0.36,79.48 0.28,108.21 "
         id="polygon493" />
      <g
         id="g501">
        <polygon
           fill="#545454"
           points="172.8,21.94 37.19,100.75 0.36,79.48 135.97,0.67 "
           id="polygon495" />
        <polygon
           fill="#424242"
           points="172.8,21.94 172.72,50.67 37.11,129.48 37.19,100.75 "
           id="polygon497" />
        <polygon
           fill="#383838"
           points="37.19,100.75 37.11,129.48 0.28,108.21 0.36,79.48 "
           id="polygon499" />
      </g>
    </g>
    <g
       transform="translate(238,250)"
       id="g511">
      <path
         d="m 5.2,16.78 c 6.47,3.74 16.93,3.74 23.36,0 6.43,-3.74 6.37,-9.78 -0.1,-13.52 -6.47,-3.74 -16.91,-3.72 -23.31,0 -6.4,3.72 -6.4,9.8 0.05,13.52 z"
         fill="#7accc2"
         id="path505" />
      <path
         d="m 9.17,14.48 c 4.27,2.46 11.16,2.46 15.39,0 C 28.79,12.02 28.76,8.03 24.5,5.57 20.24,3.11 13.36,3.12 9.14,5.57 4.92,8.02 4.92,12 9.17,14.48 Z"
         fill="#afab95"
         id="path507" />
      <path
         d="m 9.16,14.48 c 4.828127,2.459627 10.541873,2.459627 15.37,0 -4.25,-2.46 -11.15,-2.46 -15.37,0"
         fill="#ffffff"
         id="path509" />
    </g>
    <g
       transform="translate(122,202)"
       id="g587">
      <polygon
         fill="#3e3e3e"
         points="37.44,56.1 66.19,39.39 66.21,34.78 29.07,13.57 0.31,30.28 0.3,34.89 "
         id="polygon513" />
      <g
         id="g537">
        <g
           transform="translate(0,13)"
           id="g521">
          <polygon
             fill="#707070"
             points="41.45,7.71 12.69,24.42 0.31,17.28 29.07,0.57 "
             id="polygon515" />
          <polygon
             fill="#565656"
             points="41.45,7.71 41.43,12.32 12.68,29.03 12.69,24.42 "
             id="polygon517" />
          <polygon
             fill="#505050"
             points="12.69,24.42 12.68,29.03 0.3,21.89 0.31,17.28 "
             id="polygon519" />
        </g>
        <g
           transform="translate(10)"
           id="g535">
          <g
             transform="translate(0,7)"
             id="g527">
            <path
               d="M 8.9,3.43 8.84,22.56 c -0.071615,0.778849 -0.5568181,1.458898 -1.27,1.78 -1.9421292,1.000169 -4.2478708,1.000169 -6.19,0 C 0.65457518,24.01934 0.16054235,23.329992 0.09,22.54 V 3.4 c 0.07516383,0.7936428 0.5719306,1.4852949 1.3,1.81 1.9410186,0.9901548 4.2389814,0.9901548 6.18,0 C 8.3024097,4.9005903 8.8108854,4.220074 8.9,3.43 Z"
               fill="#e2a966"
               id="path523" />
            <path
               d="m 7.6,1.62 c 1.73,1 1.72,2.6 0,3.59 -1.9410186,0.9901548 -4.2389814,0.9901548 -6.18,0 -1.71,-1 -1.73,-2.59 0,-3.59 1.9433398,-0.98044899 4.2366602,-0.98044899 6.18,0 z"
               fill="#ffe180"
               id="path525" />
          </g>
          <g
             transform="translate(12)"
             id="g533">
            <path
               d="M 9,3.39 8.94,22.53 c -0.067481,0.780379 -0.554027,1.462309 -1.27,1.78 -1.9386246,1.000067 -4.2413754,1.000067 -6.18,0 -0.72516484,-0.322973 -1.2213983,-1.010065 -1.3,-1.8 L 0.25,3.37 c 0.0705423,0.7899921 0.56457518,1.4793403 1.29,1.8 1.9421292,1.0001692 4.2478708,1.0001692 6.19,0 C 8.4431819,4.8488978 8.928385,4.1688493 9,3.39 Z"
               fill="#e2a966"
               id="path529" />
            <path
               d="m 7.69,1.59 c 1.72,1 1.71,2.6 0,3.58 -1.9421292,1.0001692 -4.2478708,1.0001692 -6.19,0 -1.71,-1 -1.73,-2.58 0,-3.58 1.9445121,-0.99028864 4.2454879,-0.99028864 6.19,0 z"
               fill="#ffe180"
               id="path531" />
          </g>
        </g>
      </g>
      <g
         transform="translate(12,7)"
         id="g561">
        <g
           transform="translate(0,13)"
           id="g545">
          <polygon
             fill="#707070"
             points="41.83,7.75 13.07,24.46 0.69,17.31 29.45,0.6 "
             id="polygon539" />
          <polygon
             fill="#565656"
             points="41.83,7.75 41.81,12.36 13.06,29.07 13.07,24.46 "
             id="polygon541" />
          <polygon
             fill="#505050"
             points="13.07,24.46 13.06,29.07 0.68,21.92 0.69,17.31 "
             id="polygon543" />
        </g>
        <g
           transform="translate(10)"
           id="g559">
          <g
             transform="translate(0,7)"
             id="g551">
            <path
               d="M 9.27,3.46 V 22.6 C 9.1963561,23.378094 8.7118076,24.057225 8,24.38 6.0554879,25.370289 3.7545121,25.370289 1.81,24.38 1.0844332,24.054206 0.59120704,23.36216 0.52,22.57 V 3.44 C 0.5986017,4.2299349 1.0948352,4.9170274 1.82,5.24 3.7586246,6.2400668 6.0613754,6.2400668 8,5.24 8.715973,4.9223094 9.202519,4.2403787 9.27,3.46 Z"
               fill="#e2a966"
               id="path547" />
            <path
               d="m 8,1.66 c 1.73,1 1.72,2.59 0,3.58 -1.9386246,1.0000668 -4.2413754,1.0000668 -6.18,0 -1.71,-1 -1.74,-2.59 0,-3.58 1.9410186,-0.99015477 4.2389814,-0.99015477 6.18,0 z"
               fill="#ffe180"
               id="path549" />
          </g>
          <g
             transform="translate(12)"
             id="g557">
            <path
               d="M 9.36,3.43 9.3,22.56 c -0.067481,0.780379 -0.554027,1.462309 -1.27,1.78 -1.9386246,1.000067 -4.2413754,1.000067 -6.18,0 -0.7293151,-0.317842 -1.22757362,-1.007738 -1.3,-1.8 L 0.61,3.4 C 0.681207,4.1921604 1.1744332,4.8842065 1.9,5.21 3.8445121,6.2002886 6.1454879,6.2002886 8.09,5.21 8.8018076,4.887225 9.2863561,4.208094 9.36,3.43 Z"
               fill="#e2a966"
               id="path553" />
            <path
               d="m 8.07,1.62 c 1.72,1 1.71,2.6 0,3.59 -1.9445121,0.9902886 -4.2454879,0.9902886 -6.19,0 -1.71,-1 -1.73,-2.59 0,-3.59 1.9468226,-0.98061299 4.2431774,-0.98061299 6.19,0 z"
               fill="#ffe180"
               id="path555" />
          </g>
        </g>
      </g>
      <g
         transform="translate(25,14)"
         id="g585">
        <g
           transform="translate(0,13)"
           id="g569">
          <polygon
             fill="#707070"
             points="41.21,7.78 12.45,24.49 0.07,17.35 28.83,0.63 "
             id="polygon563" />
          <polygon
             fill="#565656"
             points="41.21,7.78 41.19,12.39 12.44,29.1 12.45,24.49 "
             id="polygon565" />
          <polygon
             fill="#505050"
             points="12.45,24.49 12.44,29.1 0.06,21.95 0.07,17.35 "
             id="polygon567" />
        </g>
        <g
           transform="translate(9)"
           id="g583">
          <g
             transform="translate(0,7)"
             id="g575">
            <path
               d="m 9.65,3.5 v 19.13 c -0.071615,0.778849 -0.5568181,1.458898 -1.27,1.78 -1.9421292,1.000169 -4.2478708,1.000169 -6.19,0 C 1.4673522,24.085934 0.97466076,23.398457 0.9,22.61 V 3.47 c 0.0731085,0.7944117 0.5705455,1.4869971 1.3,1.81 1.9410186,0.9901548 4.2389814,0.9901548 6.18,0 C 9.0918076,4.957225 9.5763561,4.278094 9.65,3.5 Z"
               fill="#e2a966"
               id="path571" />
            <path
               d="m 8.36,1.69 c 1.72,1 1.72,2.6 0,3.59 -1.9410186,0.9901548 -4.2389814,0.9901548 -6.18,0 -1.71,-1 -1.74,-2.59 0,-3.59 1.9433398,-0.98044899 4.2366602,-0.98044899 6.18,0 z"
               fill="#ffe180"
               id="path573" />
          </g>
          <g
             transform="translate(12)"
             id="g581">
            <path
               d="M 9.74,3.46 9.68,22.6 c -0.069561,0.779611 -0.5554298,1.460592 -1.27,1.78 -1.9410186,0.990155 -4.2389814,0.990155 -6.18,0 C 1.4991464,24.058721 1.0010278,23.365187 0.93,22.57 L 0.99,3.44 c 0.0705423,0.7899921 0.5645752,1.4793403 1.29,1.8 1.9386246,1.0000668 4.2413754,1.0000668 6.18,0 C 9.1784588,4.9233921 9.6685436,4.241868 9.74,3.46 Z"
               fill="#e2a966"
               id="path577" />
            <path
               d="m 8.44,1.66 c 1.73,1 1.72,2.59 0,3.58 -1.9386246,1.0000668 -4.2413754,1.0000668 -6.18,0 -1.71,-1 -1.73,-2.59 0,-3.58 1.9410186,-0.99015477 4.2389814,-0.99015477 6.18,0 z"
               fill="#ffe180"
               id="path579" />
          </g>
        </g>
      </g>
    </g>
    <g
       transform="translate(105,107)"
       fill="#9ab2af"
       id="g605">
      <polygon
         points="18.19,41.74 11.03,45.9 0.7,39.93 7.85,35.77 "
         id="polygon589" />
      <polygon
         points="26.93,36.68 19.78,40.83 9.44,34.87 16.59,30.71 "
         id="polygon591" />
      <polygon
         points="35.68,31.62 28.52,35.77 18.19,29.8 25.34,25.65 "
         id="polygon593" />
      <polygon
         points="44.42,26.55 37.27,30.71 26.93,24.74 34.08,20.58 "
         id="polygon595" />
      <polygon
         points="53.17,21.49 46.01,25.65 35.68,19.68 42.83,15.52 "
         id="polygon597" />
      <polygon
         points="61.91,16.43 54.76,20.58 44.42,14.62 51.57,10.46 "
         id="polygon599" />
      <polygon
         points="70.66,11.37 63.5,15.52 53.17,9.55 60.32,5.4 "
         id="polygon601" />
      <polygon
         points="79.4,6.3 72.25,10.46 61.91,4.49 69.06,0.33 "
         id="polygon603" />
    </g>
    <g
       transform="translate(244,159)"
       id="g645">
      <polygon
         fill="#444444"
         points="39.89,20.71 34.39,23.9 24.73,18.33 30.23,15.13 "
         id="polygon607" />
      <g
         transform="translate(10,7)"
         id="g619">
        <polygon
           fill="#c1c1c1"
           points="22.84,4.17 7.28,13.21 0.58,9.34 16.14,0.3 "
           id="polygon609" />
        <g
           transform="translate(5)"
           fill="#ffe000"
           id="g617">
          <polygon
             points="13.62,4.18 6.96,8.05 0.27,4.18 6.92,0.32 "
             id="polygon611" />
          <polygon
             points="13.62,4.18 13.61,6.67 6.95,10.54 6.96,8.05 "
             id="polygon613" />
          <polygon
             points="6.96,8.05 6.95,10.54 0.26,6.68 0.27,4.18 "
             id="polygon615" />
        </g>
      </g>
      <g
         id="g631">
        <polygon
           fill="#c1c1c1"
           points="22.37,4.79 6.81,13.83 0.12,9.96 15.67,0.92 "
           id="polygon621" />
        <g
           transform="translate(4)"
           fill="#ffe000"
           id="g629">
          <polygon
             points="14.15,4.8 7.49,8.67 0.8,4.8 7.46,0.94 "
             id="polygon623" />
          <polygon
             points="14.15,4.8 14.14,7.29 7.49,11.16 7.49,8.67 "
             id="polygon625" />
          <polygon
             points="7.49,8.67 7.49,11.16 0.8,7.3 0.8,4.8 "
             id="polygon627" />
        </g>
      </g>
      <g
         transform="translate(32,19)"
         id="g643">
        <polygon
           fill="#c1c1c1"
           points="22.57,4.37 7.01,13.41 0.31,9.54 15.87,0.5 "
           id="polygon633" />
        <g
           transform="translate(4)"
           fill="#ffe000"
           id="g641">
          <polygon
             points="14.34,4.38 7.69,8.25 1,4.38 7.65,0.52 "
             id="polygon635" />
          <polygon
             points="14.34,4.38 14.34,6.87 7.68,10.74 7.69,8.25 "
             id="polygon637" />
          <polygon
             points="7.69,8.25 7.68,10.74 0.99,6.88 1,4.38 "
             id="polygon639" />
        </g>
      </g>
    </g>
    <g
       transform="translate(299,80)"
       id="g653">
      <polygon
         fill="#b8a96e"
         points="30.9,11.19 19.23,17.97 0.03,6.89 11.7,0.1 "
         id="polygon647" />
      <polygon
         fill="#8d8254"
         points="30.9,11.19 30.89,13.64 19.22,20.42 19.23,17.97 "
         id="polygon649" />
      <polygon
         fill="#847a4f"
         points="19.23,17.97 19.22,20.42 0.02,9.34 0.03,6.89 "
         id="polygon651" />
    </g>
    <g
       transform="translate(34,188)"
       id="g661">
      <path
         d="m 5.21,16.49 c 6.48,3.74 16.94,3.74 23.37,0 6.43,-3.74 6.37,-9.78 -0.1,-13.52 -6.47,-3.74 -16.91,-3.72 -23.32,0 -6.41,3.72 -6.39,9.8 0.05,13.52 z"
         fill="#7accc2"
         id="path655" />
      <path
         d="m 9.19,14.19 c 4.836278,2.455032 10.553722,2.455032 15.39,0 C 28.8,11.73 28.77,7.74 24.51,5.28 20.25,2.82 13.37,2.83 9.15,5.28 4.93,7.73 4.94,11.73 9.19,14.19 Z"
         fill="#afab95"
         id="path657" />
      <path
         d="m 9.17,14.19 c 4.828127,2.459627 10.541873,2.459627 15.37,0 -4.24,-2.46 -11.15,-2.46 -15.37,0"
         fill="#ffffff"
         id="path659" />
    </g>
    <g
       transform="translate(171,266)"
       id="g669">
      <path
         d="m 5.27,17.16 c 6.47,3.74 16.93,3.74 23.36,0 6.43,-3.74 6.37,-9.78 -0.1,-13.52 -6.47,-3.74 -16.91,-3.72 -23.31,0 -6.4,3.72 -6.4,9.8 0.05,13.52 z"
         fill="#7accc2"
         id="path663" />
      <path
         d="m 9.24,14.85 c 4.832757,2.4697 10.557243,2.4697 15.39,0 4.22,-2.45 4.2,-6.44 -0.07,-8.9 C 19.734588,3.5084827 14.035412,3.5084827 9.21,5.95 5,8.41 5,12.4 9.24,14.85 Z"
         fill="#afab95"
         id="path665" />
      <path
         d="m 9.22,14.85 c 4.829261,2.469575 10.550739,2.469575 15.38,0 -4.25,-2.45 -11.16,-2.45 -15.38,0"
         fill="#ffffff"
         id="path667" />
    </g>
    <g
       transform="translate(279,126)"
       id="g681">
      <polygon
         fill="#505050"
         points="31.87,44.4 62.96,26.33 62.98,18.98 31.7,0.92 0.61,18.99 0.59,26.34 "
         id="polygon671" />
      <g
         id="g679">
        <polygon
           fill="#707070"
           points="62.98,18.98 31.89,37.05 0.61,18.99 31.7,0.92 "
           id="polygon673" />
        <polygon
           fill="#565656"
           points="62.98,18.98 62.96,26.33 31.87,44.4 31.89,37.05 "
           id="polygon675" />
        <polygon
           fill="#505050"
           points="31.89,37.05 31.87,44.4 0.59,26.34 0.61,18.99 "
           id="polygon677" />
      </g>
    </g>
    <g
       transform="translate(258,109)"
       id="g691">
      <path
         d="M 39,6.65 V 19 c 0,1.48 -1,3 -2.92,4.08 V 10.74 C 38.05,9.61 39,8.13 39,6.65 Z"
         fill="#aaaaaa"
         id="path683" />
      <polygon
         fill="#aaaaaa"
         points="36.11,10.73 36.07,23.07 17.17,34.05 17.21,21.71 "
         id="polygon685" />
      <path
         d="M 0.06,29.92 V 17.58 c 0,1.49 1,3 3,4.13 4.4399747,2.270181 9.700025,2.270181 14.14,0 v 12.34 c -4.445822,2.260515 -9.7041776,2.260515 -14.15,0 -2,-1.14 -2.99,-2.64 -2.99,-4.13 z"
         fill="#aaaaaa"
         id="path687" />
      <path
         d="m 36.08,2.53 c 3.92,2.26 3.92,5.94 0,8.2 l -18.9,11 c -4.439975,2.270181 -9.7000253,2.270181 -14.14,0 -3.94,-2.27 -4,-5.93 -0.06,-8.2 l 18.89,-11 c 4.463259,-2.27599588 9.746741,-2.27599588 14.21,0 z"
         fill="#c9c9c9"
         id="path689" />
    </g>
    <g
       transform="translate(241,103)"
       id="g703">
      <polygon
         fill="#505050"
         points="11.84,21.31 23.29,14.66 23.31,7.31 11.79,0.65 0.34,7.31 0.32,14.66 "
         id="polygon693" />
      <g
         id="g701">
        <polygon
           fill="#707070"
           points="23.31,7.31 11.86,13.96 0.34,7.31 11.79,0.65 "
           id="polygon695" />
        <polygon
           fill="#565656"
           points="23.31,7.31 23.29,14.66 11.84,21.31 11.86,13.96 "
           id="polygon697" />
        <polygon
           fill="#505050"
           points="11.86,13.96 11.84,21.31 0.32,14.66 0.34,7.31 "
           id="polygon699" />
      </g>
    </g>
    <g
       transform="translate(317,136)"
       id="g777">
      <g
         transform="translate(25)"
         id="g727">
        <g
           transform="translate(0,13)"
           id="g711">
          <polygon
             fill="#707070"
             points="0.16,7.08 28.41,23.49 40.57,16.47 12.32,0.06 "
             id="polygon705" />
          <polygon
             fill="#565656"
             points="0.16,7.08 0.17,11.6 28.42,28.02 28.41,23.49 "
             id="polygon707" />
          <polygon
             fill="#505050"
             points="28.41,23.49 28.42,28.02 40.58,21 40.57,16.47 "
             id="polygon709" />
        </g>
        <g
           transform="translate(10)"
           id="g725">
          <g
             transform="translate(12,7)"
             id="g717">
            <path
               d="m 0.32,3 v 18.8 c 0.072014,0.765539 0.54919727,1.433596 1.25,1.75 1.9045212,0.980605 4.1654788,0.980605 6.07,0 0.715849,-0.312511 1.2032263,-0.991769 1.27,-1.77 L 8.86,2.98 C 8.7890338,3.7566753 8.3030322,4.4340161 7.59,4.75 5.6854788,5.7306051 3.4245212,5.7306051 1.52,4.75 0.8358459,4.4232176 0.37828892,3.7559471 0.32,3 Z"
               fill="#e2a966"
               id="path713" />
            <path
               d="m 1.59,1.2 c -1.7,1 -1.69,2.55 0,3.52 1.9045212,0.9806051 4.1654788,0.9806051 6.07,0 1.68,-1 1.7,-2.54 0,-3.52 C 5.753098,0.22926971 3.496902,0.22926971 1.59,1.2 Z"
               fill="#ffe180"
               id="path715" />
          </g>
          <g
             id="g723">
            <path
               d="m 0.45,3.06 v 18.8 c 0.0679099,0.767063 0.54642422,1.436983 1.25,1.75 1.9045212,0.980605 4.1654788,0.980605 6.07,0 0.715533,-0.314896 1.2050748,-0.99184 1.28,-1.77 L 9,3 C 8.9290338,3.7766753 8.4430322,4.4540161 7.73,4.77 5.8254788,5.7506051 3.5645212,5.7506051 1.66,4.77 0.98355559,4.4529996 0.52388046,3.8033761 0.45,3.06 Z"
               fill="#e2a966"
               id="path719" />
            <path
               d="m 1.72,1.29 c -1.7,1 -1.69,2.55 0,3.52 1.9045212,0.9806051 4.1654788,0.9806051 6.07,0 1.68,-1 1.7,-2.54 0,-3.52 -1.906902,-0.97073029 -4.163098,-0.97073029 -6.07,0 z"
               fill="#ffe180"
               id="path721" />
          </g>
        </g>
      </g>
      <g
         transform="translate(13,7)"
         id="g751">
        <g
           transform="translate(0,12)"
           id="g735">
          <polygon
             fill="#707070"
             points="0,7.99 28.25,24.4 40.41,17.38 12.16,0.97 "
             id="polygon729" />
          <polygon
             fill="#565656"
             points="0,7.99 0.01,12.51 28.26,28.93 28.25,24.4 "
             id="polygon731" />
          <polygon
             fill="#505050"
             points="28.25,24.4 28.26,28.93 40.42,21.91 40.41,17.38 "
             id="polygon733" />
        </g>
        <g
           transform="translate(10)"
           id="g749">
          <g
             transform="translate(12,7)"
             id="g741">
            <path
               d="m 0.15,2.88 0.06,18.8 c 0.072014,0.765539 0.54919727,1.433596 1.25,1.75 1.9045212,0.980605 4.1654788,0.980605 6.07,0 0.715849,-0.31251 1.2032263,-0.991769 1.27,-1.77 V 2.86 C 8.7290338,3.6366753 8.2430322,4.3140161 7.53,4.63 5.6254788,5.6106051 3.3645212,5.6106051 1.46,4.63 0.73586076,4.3305126 0.23332326,3.6591839 0.15,2.88 Z"
               fill="#e2a966"
               id="path737" />
            <path
               d="m 1.42,1.11 c -1.69,1 -1.68,2.55 0,3.52 1.9045212,0.9806051 4.1654788,0.9806051 6.07,0 1.68,-1 1.7,-2.54 0,-3.52 -1.9080646,-0.9658716 -4.1619354,-0.9658716 -6.07,0 z"
               fill="#ffe180"
               id="path739" />
          </g>
          <g
             id="g747">
            <path
               d="m 0.29,3 0.05,18.8 c 0.072014,0.765539 0.54919727,1.433596 1.25,1.75 1.9045212,0.980605 4.1654788,0.980605 6.07,0 0.715849,-0.312511 1.2032263,-0.991769 1.27,-1.77 V 2.98 C 8.8590338,3.7566753 8.3730322,4.4340161 7.66,4.75 5.7554788,5.7306051 3.4945212,5.7306051 1.59,4.75 0.86696153,4.4512194 0.36723967,3.7785169 0.29,3 Z"
               fill="#e2a966"
               id="path743" />
            <path
               d="m 1.56,1.2 c -1.7,1 -1.69,2.55 0,3.52 1.9045212,0.9806051 4.1654788,0.9806051 6.07,0 1.68,-1 1.7,-2.54 0,-3.52 C 5.723098,0.22926971 3.466902,0.22926971 1.56,1.2 Z"
               fill="#ffe180"
               id="path745" />
          </g>
        </g>
      </g>
      <g
         transform="translate(0,14)"
         id="g775">
        <g
           transform="translate(0,12)"
           id="g759">
          <polygon
             fill="#707070"
             points="0.84,7.9 29.09,24.31 41.25,17.29 13,0.88 "
             id="polygon753" />
          <polygon
             fill="#565656"
             points="0.84,7.9 0.85,12.42 29.1,28.84 29.09,24.31 "
             id="polygon755" />
          <polygon
             fill="#505050"
             points="29.09,24.31 29.1,28.84 41.26,21.82 41.25,17.29 "
             id="polygon757" />
        </g>
        <g
           transform="translate(11)"
           id="g773">
          <g
             transform="translate(11,7)"
             id="g765">
            <path
               d="m 1,2.79 0.06,18.8 c 0.072014,0.765539 0.5491973,1.433596 1.25,1.75 1.9045212,0.980605 4.1654788,0.980605 6.07,0 0.715849,-0.31251 1.2032263,-0.991769 1.27,-1.77 V 2.77 C 9.5790338,3.5466753 9.0930322,4.2240161 8.38,4.54 6.4754788,5.5206051 4.2145212,5.5206051 2.31,4.54 1.5858608,4.2405126 1.0833233,3.5691839 1,2.79 Z"
               fill="#e2a966"
               id="path761" />
            <path
               d="m 2.26,1 c -1.69,1 -1.68,2.55 0,3.52 1.9045212,0.9806051 4.1654788,0.9806051 6.07,0 1.68,-1 1.7,-2.54 0,-3.52 C 6.4219354,0.0341284 4.1680646,0.0341284 2.26,1 Z"
               fill="#ffe180"
               id="path763" />
          </g>
          <g
             id="g771">
            <path
               d="m 0.13,2.88 v 18.8 c 0.072014,0.765539 0.54919727,1.433596 1.25,1.75 1.9045212,0.980605 4.1654788,0.980605 6.07,0 0.715849,-0.31251 1.2032263,-0.991769 1.27,-1.77 V 2.86 C 8.6490338,3.6366753 8.1630322,4.3140161 7.45,4.63 5.5454788,5.6106051 3.2845212,5.6106051 1.38,4.63 0.67642422,4.3169835 0.19790994,3.6470635 0.13,2.88 Z"
               fill="#e2a966"
               id="path767" />
            <path
               d="m 1.4,1.11 c -1.7,1 -1.69,2.55 0,3.52 1.9045212,0.9806051 4.1654788,0.9806051 6.07,0 1.68,-1 1.7,-2.54 0,-3.52 C 5.563098,0.13926971 3.306902,0.13926971 1.4,1.11 Z"
               fill="#ffe180"
               id="path769" />
          </g>
        </g>
      </g>
    </g>
    <g
       transform="translate(23,43)"
       id="g889">
      <g
         transform="translate(278,86)"
         id="g807">
        <polygon
           fill="#191919"
           points="103.65,6.81 99,9.52 94.33,6.82 98.98,4.12 "
           id="polygon779" />
        <polygon
           fill="#363636"
           points="0.68,58.04 0.55,107.07 10.65,112.9 108.87,55.82 109.01,6.79 98.91,0.91 "
           id="polygon781" />
        <path
           d="M 98.91,0.92 109.01,6.75 10.78,63.83 0.68,58 Z m -59.15,43 4.66,-2.7 -4.67,-2.7 -4.65,2.71 z m 39.49,-23 4.66,-2.7 -4.67,-2.7 -4.65,2.71 z M 99,9.52 103.65,6.81 99,4.12 l -4.65,2.7 4.67,2.7 z m -88.25,51.29 4.65,-2.7 -4.66,-2.7 -4.66,2.71 z m 48.78,-28.34 4.65,-2.71 -4.66,-2.69 -4.66,2.7 z m -29.61,17.2 4.64,-2.69 -4.67,-2.7 -4.64,2.7 z m 59.23,-34.42 4.64,-2.69 -4.67,-2.7 -4.63,2.7 z m -39.49,23 4.64,-2.7 -4.67,-2.69 -4.63,2.64 4.66,2.7 z m -29,16.82 4.63,-2.69 -4.66,-2.7 -4.64,2.7 z M 69.44,26.72 74,24 69.34,21.31 64.72,24 l 4.67,2.69 z"
           fill="#7a7a7a"
           id="path783" />
        <polygon
           fill="#191919"
           points="93.77,12.55 89.13,15.25 84.47,12.55 89.1,9.86 "
           id="polygon785" />
        <polygon
           fill="#191919"
           points="83.91,18.29 79.25,20.99 74.59,18.3 79.24,15.59 "
           id="polygon787" />
        <polygon
           fill="#191919"
           points="74.02,24.03 69.39,26.72 64.72,24.03 69.36,21.34 "
           id="polygon789" />
        <polygon
           fill="#191919"
           points="64.16,29.76 59.51,32.47 54.84,29.77 59.5,27.07 "
           id="polygon791" />
        <polygon
           fill="#191919"
           points="54.28,35.5 49.64,38.2 44.98,35.5 49.61,32.81 "
           id="polygon793" />
        <polygon
           fill="#191919"
           points="44.42,41.24 39.76,43.94 35.1,41.25 39.75,38.54 "
           id="polygon795" />
        <polygon
           fill="#191919"
           points="34.53,46.98 29.9,49.67 25.23,46.98 29.87,44.28 "
           id="polygon797" />
        <polygon
           fill="#191919"
           points="25.25,52.38 20.61,55.07 15.94,52.38 20.58,49.68 "
           id="polygon799" />
        <polygon
           fill="#191919"
           points="15.38,58.11 10.73,60.81 6.06,58.12 10.72,55.41 "
           id="polygon801" />
        <polygon
           fill="#3e3e3e"
           points="109.01,6.79 108.87,55.82 10.65,112.9 10.78,63.87 "
           id="polygon803" />
        <polygon
           fill="#363636"
           points="10.78,63.87 10.65,112.9 0.55,107.07 0.68,58.04 "
           id="polygon805" />
      </g>
      <g
         transform="translate(189,149)"
         id="g833">
        <polygon
           fill="#363636"
           points="0.75,46.73 0.61,95.76 10.71,101.59 89.69,55.69 89.83,6.62 79.73,0.78 "
           id="polygon809" />
        <polygon
           fill="#191919"
           points="84.47,6.68 79.81,9.39 75.15,6.69 79.8,3.99 "
           id="polygon811" />
        <polygon
           fill="#191919"
           points="74.59,12.42 69.95,15.12 65.28,12.42 69.92,9.73 "
           id="polygon813" />
        <polygon
           fill="#191919"
           points="64.72,18.16 60.07,20.86 55.4,18.17 60.06,15.46 "
           id="polygon815" />
        <polygon
           fill="#191919"
           points="54.84,23.9 50.21,26.59 45.54,23.9 50.17,21.21 "
           id="polygon817" />
        <polygon
           fill="#191919"
           points="44.98,29.63 40.32,32.34 35.66,29.64 40.31,26.94 "
           id="polygon819" />
        <polygon
           fill="#191919"
           points="35.1,35.37 30.46,38.07 25.79,35.37 30.43,32.68 "
           id="polygon821" />
        <polygon
           fill="#191919"
           points="25.23,41.11 20.6,43.8 15.93,41.11 20.57,38.41 "
           id="polygon823" />
        <polygon
           fill="#191919"
           points="15.37,46.84 10.72,49.54 6.05,46.85 10.7,44.14 "
           id="polygon825" />
        <polygon
           fill="#3e3e3e"
           points="89.83,6.66 89.69,55.69 10.71,101.59 10.85,52.56 "
           id="polygon827" />
        <path
           d="m 79.72,0.78 10.1,5.84 -79,45.89 -10.1,-5.83 z m -19.65,20.08 4.65,-2.7 -4.66,-2.7 -4.66,2.71 z M 79.81,9.39 84.47,6.68 79.8,4 75.15,6.7 79.81,9.4 Z M 40.32,32.4 44.98,29.69 40.31,27 35.66,29.7 Z m -29.6,17.2 4.65,-2.7 -4.67,-2.7 -4.65,2.71 z m 19.74,-11.47 4.64,-2.7 -4.67,-2.69 -4.64,2.69 z m 19.74,-11.48 4.64,-2.69 -4.67,-2.69 -4.63,2.69 z m -29.6,17.15 4.63,-2.69 -4.66,-2.7 -4.64,2.7 z M 70,15.12 l 4.63,-2.69 -4.66,-2.7 -4.64,2.7 z"
           fill="#7a7a7a"
           id="path829" />
        <polygon
           fill="#363636"
           points="10.85,52.56 10.71,101.59 0.61,95.76 0.75,46.73 "
           id="polygon831" />
      </g>
      <g
         transform="translate(70)"
         id="g865">
        <polygon
           fill="#3e3e3e"
           points="0.17,46.42 0.03,95.45 10.13,101.28 89.09,55.39 89.23,6.36 79.13,0.49 "
           id="polygon835" />
        <g
           transform="translate(5,43)"
           fill="#3e3e3e"
           id="g841">
          <path
             d="m 4.95,49.87 -4.66,2.7"
             id="path837" />
          <path
             d="M 0.43,3.54 5.09,0.84"
             id="path839" />
        </g>
        <path
           d="m 79.13,0.49 10.1,5.83 -79,45.89 -10.1,-5.84 z m 0.08,8.6 4.66,-2.7 -4.69,-2.71 -4.65,2.71 z m -19.74,11.48 4.65,-2.71 -4.68,-2.7 -4.66,2.7 z m -49.35,28.68 4.65,-2.71 -4.68,-2.7 -4.66,2.7 z m 39.49,-23 4.65,-2.71 -4.68,-2.7 -4.66,2.7 z m -19.75,11.47 4.66,-2.7 -4.69,-2.71 -4.65,2.71 z m 9.88,-5.74 4.64,-2.69 -4.69,-2.71 -4.63,2.69 z M 20,43.5 24.63,40.81 20,38.1 l -4.64,2.7 4.69,2.7 z m 49.4,-28.68 4.64,-2.69 -4.69,-2.71 -4.63,2.7 z"
           fill="#7a7a7a"
           id="path843" />
        <polygon
           fill="#191919"
           points="83.87,6.39 79.21,9.09 74.53,6.39 79.18,3.68 "
           id="polygon845" />
        <polygon
           fill="#191919"
           points="73.99,12.13 69.35,14.82 64.66,12.12 69.3,9.42 "
           id="polygon847" />
        <polygon
           fill="#191919"
           points="64.12,17.86 59.47,20.57 54.78,17.86 59.44,15.16 "
           id="polygon849" />
        <polygon
           fill="#191919"
           points="54.26,23.59 49.61,26.3 44.92,23.59 49.58,20.89 "
           id="polygon851" />
        <polygon
           fill="#191919"
           points="44.38,29.34 39.74,32.03 35.06,29.32 39.69,26.63 "
           id="polygon853" />
        <polygon
           fill="#191919"
           points="34.52,35.07 29.86,37.77 25.18,35.07 29.83,32.36 "
           id="polygon855" />
        <polygon
           fill="#191919"
           points="24.63,40.81 20,43.5 15.31,40.8 19.95,38.1 "
           id="polygon857" />
        <polygon
           fill="#191919"
           points="14.77,46.54 10.12,49.25 5.43,46.54 10.09,43.84 "
           id="polygon859" />
        <polygon
           fill="#3e3e3e"
           points="89.23,6.36 89.09,55.39 10.13,101.28 10.27,52.25 "
           id="polygon861" />
        <polygon
           fill="#363636"
           points="10.27,52.25 10.13,101.28 0.03,95.45 0.17,46.42 "
           id="polygon863" />
      </g>
      <g
         transform="translate(0,52)"
         id="g887">
        <polygon
           fill="#363636"
           points="0.81,34.73 0.67,83.76 10.77,89.59 69.75,55.31 69.89,6.28 59.79,0.41 "
           id="polygon867" />
        <polygon
           fill="#191919"
           points="54.65,12.05 50.01,14.74 45.33,12.03 49.97,9.34 "
           id="polygon869" />
        <path
           d="m 59.79,0.41 10.1,5.83 -59,34.28 -10.1,-5.84 z M 20.39,32 l 4.65,-2.71 -4.68,-2.7 -4.66,2.7 z M 59.88,9 64.53,6.29 59.85,3.59 55.19,6.29 Z m -19.75,11.47 4.66,-2.7 -4.69,-2.71 -4.65,2.71 z m -29.6,17.21 4.63,-2.7 -4.68,-2.7 -4.64,2.72 4.69,2.71 z M 50.01,14.71 54.65,12.02 50,9.34 45.33,12 Z m -19.74,11.47 4.64,-2.69 -4.69,-2.7 -4.64,2.69 z"
           fill="#7a7a7a"
           id="path871" />
        <polygon
           fill="#191919"
           points="64.53,6.3 59.88,9.01 55.19,6.3 59.85,3.6 "
           id="polygon873" />
        <polygon
           fill="#191919"
           points="44.79,17.78 40.13,20.48 35.45,17.78 40.1,15.07 "
           id="polygon875" />
        <polygon
           fill="#191919"
           points="34.91,23.52 30.27,26.21 25.59,23.51 30.22,20.82 "
           id="polygon877" />
        <polygon
           fill="#191919"
           points="25.04,29.25 20.39,31.96 15.7,29.25 20.36,26.55 "
           id="polygon879" />
        <polygon
           fill="#191919"
           points="15.16,34.99 10.53,37.69 5.84,34.98 10.48,32.29 "
           id="polygon881" />
        <polygon
           fill="#363636"
           points="10.91,40.56 10.77,89.59 0.67,83.76 0.81,34.73 "
           id="polygon883" />
        <polygon
           fill="#3e3e3e"
           points="69.89,6.28 69.75,55.31 10.77,89.59 10.91,40.56 "
           id="polygon885" />
      </g>
    </g>
    <g
       transform="translate(248)"
       id="g909">
      <polygon
         fill="#595959"
         points="0.2,31.77 0.3,69.57 36.34,90.51 77.51,66.74 77.51,68.66 88.28,62.44 88.17,21.18 52.13,0.24 41.36,6.46 41.37,8.01 "
         id="polygon891" />
      <g
         id="g907">
        <polygon
           fill="#383838"
           points="77.51,68.66 41.48,47.72 41.47,45.8 77.51,66.74 "
           id="polygon893" />
        <polygon
           fill="#383838"
           points="77.4,28.95 41.37,8.01 41.36,6.46 77.39,27.4 "
           id="polygon895" />
        <polygon
           fill="#595959"
           points="77.39,27.4 41.36,6.46 52.13,0.24 88.17,21.18 "
           id="polygon897" />
        <polygon
           fill="#505050"
           points="88.17,21.18 88.28,62.44 77.51,68.66 77.51,66.74 36.34,90.51 36.23,52.72 77.4,28.95 77.39,27.4 "
           id="polygon899" />
        <polygon
           fill="#383838"
           points="36.34,90.51 0.3,69.57 0.2,31.77 36.23,52.72 "
           id="polygon901" />
        <polygon
           fill="#7f7f7f"
           points="26.21,84.72 10.37,75.51 10.32,58.89 26.17,68.1 "
           id="polygon903" />
        <polygon
           fill="#595959"
           points="36.23,52.72 0.2,31.77 41.37,8.01 77.4,28.95 "
           id="polygon905" />
      </g>
    </g>
    <g
       transform="translate(176,182)"
       fill="#f2f2f2"
       id="g917">
      <path
         d="M 56.42,0.89 88,19.13 62.21,34.13 55.51,38.02 31.79,51.81 0.2,33.56 23.93,19.77 30.63,15.88 Z M 56.59,29.76 74.89,19.13 56.47,8.49 38.16,19.13 Z M 31.75,44.2 50.05,33.57 31.62,22.93 13.33,33.56 Z"
         id="path911" />
      <polygon
         points="62.79,19.3 56.68,22.85 50.53,19.3 56.64,15.76 "
         id="polygon913" />
      <polygon
         points="38.19,33.6 32.08,37.15 25.93,33.6 32.04,30.05 "
         id="polygon915" />
    </g>
  </g>
  <g
     id="g1015"
     transform="matrix(-1,0,0,1,1376,0)"
     style="fill:none;fill-rule:evenodd;stroke:none;stroke-width:1">
    <g
       fill-rule="nonzero"
       id="g981">
      <g
         id="g949">
        <g
           id="g931">
          <polygon
             fill="#f7f7f7"
             points="1110.44,259.89 450.99,643.12 0.85,383.24 660.31,0 "
             id="polygon921" />
          <polygon
             fill="#ff8c3e"
             points="1110.44,259.89 450.99,643.12 345.73,582.3 1005.18,199.07 "
             id="polygon923" />
          <polygon
             fill="#ff6d00"
             points="1110.44,259.89 844.76,414.25 739.5,353.44 1005.18,199.07 "
             id="polygon925" />
          <polygon
             fill="#989898"
             points="1110.44,259.89 1110.09,383.57 450.63,766.8 450.99,643.12 "
             id="polygon927" />
          <polygon
             fill="#c2c2c2"
             points="450.99,643.12 450.63,766.8 0.5,506.92 0.85,383.24 "
             id="polygon929" />
        </g>
        <g
           transform="translate(44,14)"
           fill="#ffd41d"
           id="g947">
          <polygon
             points="694.21,74.16 665.58,13.4 732.39,51.97 "
             id="polygon933" />
          <polygon
             points="163.19,249.74 212.38,354.17 157.07,386.31 107.87,281.89 "
             id="polygon935" />
          <polygon
             points="378.04,124.89 427.24,229.31 371.93,261.45 322.73,157.03 "
             id="polygon937" />
          <polygon
             points="270.62,187.31 319.81,291.74 264.5,323.88 215.3,219.46 "
             id="polygon939" />
          <polygon
             points="485.47,62.45 534.67,166.88 479.35,199.02 430.16,94.6 "
             id="polygon941" />
          <polygon
             points="592.9,0.02 642.1,104.44 586.78,136.59 537.59,32.17 "
             id="polygon943" />
          <polygon
             points="32.44,412.22 0.45,344.32 55.76,312.18 104.96,416.6 72.59,435.4 "
             id="polygon945" />
        </g>
      </g>
      <g
         transform="translate(336,89)"
         id="g979">
        <polygon
           id="polygon951"
           fill="#7a7a7a"
           points="93.14,142.78 27.36,181.01 7.61,169.61 73.4,131.38 " />
        <polygon
           id="polygon953"
           fill="#d3d3d3"
           points="502.9,84.45 469.1,104.09 432.5,125.36 380.36,95.25 416.95,73.99 450.76,54.34 " />
        <ellipse
           id="ellipse955"
           fill="#d3d3d3"
           transform="rotate(-89.84,260.91617,67.931116)"
           cx="260.91617"
           cy="67.931114"
           rx="13.69"
           ry="23.639999" />
        <polygon
           id="polygon957"
           fill="#5b5b5b"
           points="361.49,24.25 346.2,33.14 297.2,61.61 256.42,38.07 305.42,9.59 320.72,0.7 " />
        <g
           transform="translate(0,1)"
           id="g977">
          <path
             d="m 474.86,113.91 30,17.32 -29.81,17.33 -30,-17.33 z m -10.25,23.32 c 5.74,3.31 15,3.31 20.71,0 5.71,-3.31 5.67,-8.68 -0.07,-12 -5.74,-3.32 -15,-3.32 -20.7,0 -5.7,3.32 -5.65,8.69 0.06,12 z"
             fill="#d3d3d3"
             id="path959" />
          <path
             d="m 485.25,125.24 c 5.74,3.31 5.77,8.68 0.07,12 -5.7,3.32 -15,3.31 -20.71,0 -5.71,-3.31 -5.77,-8.68 -0.06,-12 5.71,-3.32 14.98,-3.3 20.7,0 z"
             fill="#727272"
             id="path961" />
          <polygon
             fill="#5b5b5b"
             points="259.62,135.31 111.2,221.57 65.57,195.22 213.99,108.97 "
             id="polygon963" />
          <polygon
             fill="#7a7a7a"
             points="438.34,175.37 328.79,239.04 309.04,227.64 418.59,163.97 "
             id="polygon965" />
          <polygon
             fill="#7a7a7a"
             points="317.68,245.49 229.6,296.68 209.86,285.28 297.94,234.09 "
             id="polygon967" />
          <path
             d="m 469.1,103.09 50.24,29 -290,168.53 L 0.87,168.74 290.87,0.2 l 14.54,8.39 -49,28.48 40.78,23.54 49,-28.47 L 417,73 380.41,94.26 432.55,124.37 Z M 111.2,221.57 259.62,135.31 214,109 65.57,195.22 Z M 328.79,239 438.34,175.33 418.59,164 309,227.64 Z M 175.38,258.62 211,237.91 156.54,206.47 120.9,227.18 175.36,258.62 Z M 104.7,135.07 192.78,83.88 173,72.48 l -88,51.19 19.75,11.4 z m 124.9,161.61 88.08,-51.19 -19.74,-11.4 -88.08,51.19 z M 27.36,180 93.14,141.77 73.4,130.37 7.61,168.6 Z m 179.1,-81.4 c 9.23,5.32 24.28,5.31 33.42,0 9.14,-5.31 9.15,-14.05 -0.08,-19.38 -9.23,-5.33 -24.28,-5.32 -33.45,0 -9.17,5.32 -9.12,14 0.11,19.37 z M 277.6,57.24 c -9.23,-5.33 -24.25,-5.33 -33.42,0 -9.17,5.33 -9.12,14 0.11,19.36 9.23,5.36 24.25,5.33 33.42,0 9.17,-5.33 9.12,-14 -0.11,-19.36 z m 197.26,56.65 -29.81,17.32 30,17.33 29.81,-17.33 z"
             fill="#57bab3"
             id="path969" />
          <path
             d="m 239.8,79.23 c 9.23,5.33 9.25,14.05 0.08,19.38 -9.17,5.33 -24.19,5.32 -33.42,0 -9.23,-5.32 -9.26,-14.05 -0.11,-19.37 9.15,-5.32 24.22,-5.34 33.45,-0.01 z"
             fill="#d3d3d3"
             id="path971" />
          <polygon
             fill="#7a7a7a"
             points="192.78,83.88 104.7,135.07 84.95,123.67 173.03,72.48 "
             id="polygon973" />
          <polygon
             fill="#5b5b5b"
             points="211.02,237.91 175.38,258.62 120.92,227.18 156.56,206.47 "
             id="polygon975" />
        </g>
      </g>
    </g>
    <g
       transform="translate(107,209)"
       id="g1013">
      <g
         transform="translate(301,66)"
         id="g989">
        <g
           transform="translate(112,241)"
           fill="#ff8c3e"
           fill-rule="nonzero"
           id="g985">
          <polygon
             points="7.65,16.6 0.83,12.66 21.15,0.85 27.97,4.78 "
             id="polygon983" />
        </g>
        <g
           id="g987" />
      </g>
      <g
         transform="translate(863)"
         fill-rule="nonzero"
         id="g995">
        <path
           d="m 40.77,7.74 70.85,40.75 c 1.57674,0.908735 2.54835,2.590138 2.54835,4.41 0,1.819862 -0.97161,3.501265 -2.54835,4.41 L 9,116.74 c -1.7895312,1.03557 -3.9954723,1.03831 -5.7875694,0.007 C 1.4203334,115.71606 0.31406748,113.80756 0.31,111.74 V 29.57 c -2.9184e-4,-3.651134 1.9528701,-7.023391 5.12,-8.84 l 22.66,-13 c 3.92827,-2.2496644 8.755283,-2.2458576 12.68,0.01 z"
           fill="#f2f2f2"
           id="path991" />
        <path
           d="m 40.77,2.57 70.85,40.74 c 1.57674,0.908734 2.54835,2.590138 2.54835,4.41 0,1.819862 -0.97161,3.501265 -2.54835,4.41 L 9,111.57 c -1.7895312,1.03557 -3.9954723,1.03831 -5.7875694,0.007 C 1.4203334,110.54606 0.31406748,108.63756 0.31,106.57 V 24.39 c -2.9184e-4,-3.651134 1.9528701,-7.023391 5.12,-8.84 l 22.66,-13 c 3.928963,-2.25065714 8.758157,-2.24304011 12.68,0.02 z"
           fill="#ffd731"
           id="path993" />
      </g>
      <g
         transform="translate(0,104)"
         fill="#1dd8d8"
         fill-rule="nonzero"
         id="g1007">
        <g
           id="g1003">
          <path
             d="m 126.16,0.5 70.49,40.7 -57.56,33.45 -14.94,8.69 -53,30.78 -70.49,-40.7 53,-30.78 15,-8.69 z M 126.55,64.95 167.41,41.2 126.28,17.46 85.42,41.2 126.55,65 Z M 71.11,97.21 112,73.43 70.87,49.69 30,73.42 71.13,97.16 Z"
             id="path997" />
          <polygon
             points="140.38,41.6 126.75,49.52 113.03,41.6 126.66,33.68 "
             id="polygon999" />
          <polygon
             points="85.47,73.51 71.84,81.43 58.12,73.51 71.75,65.59 "
             id="polygon1001" />
        </g>
        <polygon
           points="230.8,61.01 105.21,133.97 85.47,122.57 211.05,49.61 "
           id="polygon1005" />
      </g>
      <polygon
         id="polygon1009"
         fill="#c1b67e"
         fill-rule="nonzero"
         points="435.29,238.49 238.66,352.86 218.91,341.46 415.55,227.09 " />
      <polygon
         id="polygon1011"
         fill="#c1b67e"
         fill-rule="nonzero"
         points="404.21,219.7 207.57,334.06 168.97,311.97 365.61,197.61 " />
    </g>
  </g>
  <g
     id="g1127"
     transform="matrix(-1,0,0,1,1027,777)"
     fill-rule="nonzero"
     style="fill:none;stroke:none;stroke-width:1">
    <g
       transform="translate(0,24)"
       id="g1047">
      <g
         transform="translate(0,24)"
         id="g1021">
        <path
           d="M 23.06,17.84 1.23,5.34 C 0.8031251,5.0425162 0.56992731,4.5378914 0.62,4.02 0.68334267,2.5964298 1.4276109,1.290239 2.62,0.51 3.0431146,0.18994905 3.6079381,0.12847166 4.09,0.35 l 21.83,12.49 c -0.483114,-0.214932 -1.044439,-0.153835 -1.47,0.16 -1.191479,0.785737 -1.93495,2.094246 -2,3.52 -0.05225,0.518259 0.181433,1.023937 0.61,1.32 z"
           fill="#ffc25f"
           id="path1017" />
        <path
           d="m 24.5,17.69 c -1.12,0.65 -2,0.14 -2,-1.17 0.06505,-1.425754 0.808521,-2.734263 2,-3.52 1.14,-0.67 2.06,-0.15 2.07,1.14 -0.07292,1.449166 -0.844717,2.772774 -2.07,3.55 z"
           fill="#ffdeae"
           id="path1019" />
      </g>
      <g
         transform="translate(10,18)"
         id="g1027">
        <path
           d="M 23,18 1.17,5.5 C 0.74478992,5.2011238 0.51206664,4.6975258 0.56,4.18 0.62665584,2.7547101 1.3697415,1.4468793 2.56,0.66 2.9827568,0.34713048 3.542458,0.28962694 4.02,0.51 L 25.85,13 c -0.482774,-0.217092 -1.045236,-0.155872 -1.47,0.16 -1.192389,0.780239 -1.936657,2.08643 -2,3.51 -0.04521,0.52216 0.191012,1.028895 0.62,1.33 z"
           fill="#ffc25f"
           id="path1023" />
        <path
           d="m 24.43,17.86 c -1.12,0.66 -2,0.15 -2,-1.17 0.06334,-1.42357 0.807611,-2.729761 2,-3.51 1.12,-0.66 2,-0.16 2.07,1.13 -0.07458,1.448674 -0.84596,2.771578 -2.07,3.55 z"
           fill="#ffdeae"
           id="path1025" />
      </g>
      <g
         transform="translate(20,12)"
         id="g1033">
        <path
           d="M 23.09,18.29 1.26,5.8 C 0.83678213,5.5094455 0.60652936,5.0105645 0.66,4.5 0.71215293,3.0652062 1.4579547,1.7451371 2.66,0.96 3.078832,0.64679641 3.6359228,0.58916631 4.11,0.81 L 25.94,13.3 c -0.475162,-0.21425 -1.028758,-0.156981 -1.45,0.15 -1.198284,0.788658 -1.94289,2.106611 -2,3.54 -0.05347,0.510564 0.176782,1.009445 0.6,1.3 z"
           fill="#ffc25f"
           id="path1029" />
        <path
           d="m 24.53,18.14 c -1.12,0.65 -2,0.14 -2,-1.15 0.05711,-1.433389 0.801716,-2.751342 2,-3.54 1.12,-0.65 2,-0.15 2.06,1.16 -0.08189,1.438618 -0.847766,2.751015 -2.06,3.53 z"
           fill="#ffdeae"
           id="path1031" />
      </g>
      <g
         transform="translate(30,6)"
         id="g1039">
        <path
           d="M 23,18.47 1.17,6 C 0.74842076,5.7126921 0.51811081,5.2175257 0.57,4.71 0.62883335,3.2744188 1.3726418,1.9541588 2.57,1.16 2.9823562,0.85122644 3.5295988,0.7899965 4,1 l 21.84,12.49 c -0.479681,-0.21532 -1.038338,-0.154097 -1.46,0.16 -1.197358,0.794159 -1.941167,2.114419 -2,3.55 -0.04448,0.505487 0.194081,0.994158 0.62,1.27 z"
           fill="#ffc25f"
           id="path1035" />
        <path
           d="m 24.46,18.32 c -1.12,0.66 -2.05,0.16 -2.06,-1.13 0.05883,-1.435581 0.802642,-2.755841 2,-3.55 1.12,-0.66 2.05,-0.16 2.06,1.15 -0.06672,1.427953 -0.80941,2.7388 -2,3.53 z"
           fill="#ffdeae"
           id="path1037" />
      </g>
      <g
         transform="translate(40)"
         id="g1045">
        <path
           d="M 22.71,18.58 0.88,6.09 C 0.4634786,5.7984247 0.23463319,5.306407 0.28,4.8 0.34205541,3.3653368 1.0850965,2.0464389 2.28,1.25 2.7027568,0.93713048 3.262458,0.87962694 3.74,1.1 l 21.83,12.49 c -0.478599,-0.213907 -1.034894,-0.156753 -1.46,0.15 -1.193685,0.797569 -1.936347,2.115794 -2,3.55 -0.04327,0.506039 0.18511,0.99706 0.6,1.29 z"
           fill="#ffc25f"
           id="path1041" />
        <path
           d="m 24.17,18.43 c -1.11,0.66 -2,0.15 -2.06,-1.14 0.06365,-1.434206 0.806315,-2.752431 2,-3.55 1.12,-0.65 2,-0.15 2.06,1.16 -0.06512,1.428414 -0.808194,2.739933 -2,3.53 z"
           fill="#ffdeae"
           id="path1043" />
      </g>
    </g>
    <g
       transform="translate(11)"
       id="g1073">
      <g
         transform="translate(1,18)"
         id="g1059">
        <polygon
           fill="#686868"
           points="199.54,95.53 116.9,143.98 0.8,77.53 0.53,48.79 83.18,0.35 199.27,66.79 "
           id="polygon1049" />
        <g
           id="g1057">
          <polygon
             fill="#5b5b5b"
             points="116.63,115.24 0.53,48.79 83.18,0.35 199.27,66.79 "
             id="polygon1051" />
          <polygon
             fill="#474747"
             points="116.63,115.24 116.9,143.98 0.8,77.53 0.53,48.79 "
             id="polygon1053" />
          <polygon
             fill="#686868"
             points="199.27,66.79 199.54,95.53 116.9,143.98 116.63,115.24 "
             id="polygon1055" />
        </g>
      </g>
      <g
         id="g1071">
        <polygon
           fill="#e2e2e2"
           points="199.57,84.4 116.92,132.85 0.87,66.43 0.71,49.19 83.36,0.74 199.41,67.16 "
           id="polygon1061" />
        <g
           id="g1069">
          <polygon
             fill="#f4f4f4"
             points="116.76,115.61 0.71,49.19 83.36,0.74 199.41,67.16 "
             id="polygon1063" />
          <polygon
             fill="#bfbfbf"
             points="116.76,115.61 116.92,132.85 0.87,66.43 0.71,49.19 "
             id="polygon1065" />
          <polygon
             fill="#e2e2e2"
             points="199.41,67.16 199.57,84.4 116.92,132.85 116.76,115.61 "
             id="polygon1067" />
        </g>
      </g>
    </g>
    <g
       transform="translate(55,25)"
       fill="#76e862"
       id="g1093">
      <polygon
         points="73.2,13.93 48.74,0.04 38.69,0.15 38.64,5.95 63.21,19.77 73.16,19.74 "
         id="polygon1075" />
      <polygon
         points="86.44,21.46 76.48,21.49 76.43,27.28 100.92,41.19 110.95,41.08 110.87,35.34 "
         id="polygon1077" />
      <polygon
         points="75.59,63.54 85.64,63.44 110.93,48.62 110.86,42.87 100.89,42.91 75.5,57.79 "
         id="polygon1079" />
      <g
         transform="translate(0,22)"
         id="g1085">
        <polygon
           points="34.74,14.49 10.25,0.58 0.22,0.7 0.29,6.44 24.73,20.32 34.68,20.29 "
           id="polygon1081" />
        <polygon
           points="47.95,22 38,22.04 37.96,27.84 62.42,41.74 72.48,41.63 72.52,35.84 "
           id="polygon1083" />
      </g>
      <polygon
         points="35.59,0.23 25.52,0.34 0.23,15.17 0.3,20.91 10.27,20.88 35.65,5.99 "
         id="polygon1087" />
      <polygon
         points="73.23,27.33 73.27,21.52 63.22,21.63 37.82,36.52 37.78,42.33 47.84,42.22 "
         id="polygon1089" />
      <polygon
         points="138.57,42.92 132.27,39.32 125.99,43 132.28,46.61 "
         id="polygon1091" />
    </g>
    <g
       transform="translate(148,108)"
       id="g1125">
      <g
         transform="translate(0,24)"
         id="g1099">
        <path
           d="M 22.6,17.73 0.77,5.24 C 0.34521789,4.9415345 0.11556248,4.4362926 0.17,3.92 0.23343492,2.4937799 0.97729364,1.1845886 2.17,0.4 2.5916623,0.08590277 3.1503194,0.02468008 3.63,0.24 l 21.83,12.49 c -0.480348,-0.211034 -1.036758,-0.150058 -1.46,0.16 -1.190259,0.786879 -1.933344,2.09471 -2,3.52 -0.05227,0.515939 0.176907,1.020136 0.6,1.32 z"
           fill="#ffc25f"
           id="path1095" />
        <path
           d="m 24,17.58 c -1.12,0.66 -2,0.14 -2,-1.17 0.06666,-1.42529 0.809741,-2.733121 2,-3.52 1.14,-0.66 2,-0.15 2.06,1.14 -0.07069,1.447275 -0.838535,2.770497 -2.06,3.55 z"
           fill="#ffdeae"
           id="path1097" />
      </g>
      <g
         transform="translate(10,18)"
         id="g1105">
        <path
           d="M 22.53,17.91 0.7,5.41 C 0.27350047,5.1129621 0.04335763,4.6066479 0.1,4.09 0.16504992,2.6642458 0.9085206,1.3557374 2.1,0.57 2.5282039,0.26147109 3.0883052,0.20431789 3.57,0.42 l 21.83,12.5 c -0.477542,-0.220373 -1.037243,-0.162869 -1.46,0.15 -1.193939,0.783433 -1.938189,2.093312 -2,3.52 -0.05664,0.514339 0.168996,1.019153 0.59,1.32 z"
           fill="#ffc25f"
           id="path1101" />
        <path
           d="m 24,17.76 c -1.12,0.65 -2,0.14 -2,-1.17 0.06181,-1.426688 0.806061,-2.736567 2,-3.52 1.11,-0.66 2.05,-0.16 2.06,1.14 -0.07723,1.445335 -0.843464,2.765782 -2.06,3.55 z"
           fill="#ffdeae"
           id="path1103" />
      </g>
      <g
         transform="translate(20,12)"
         id="g1111">
        <path
           d="M 22.63,18.18 0.8,5.69 C 0.38018433,5.3965875 0.15091156,4.8998298 0.2,4.39 0.26036824,2.9575396 1.0041931,1.6409696 2.2,0.85 2.6227568,0.53713048 3.182458,0.47962694 3.66,0.7 l 21.83,12.49 c -0.479681,-0.21532 -1.038338,-0.154097 -1.46,0.16 -1.199531,0.787492 -1.944533,2.106144 -2,3.54 -0.05189,0.507526 0.178421,1.002692 0.6,1.29 z"
           fill="#ffc25f"
           id="path1107" />
        <path
           d="m 24.07,18 c -1.11,0.66 -2,0.15 -2,-1.14 0.05547,-1.433856 0.800469,-2.752508 2,-3.54 1.12,-0.66 2.05,-0.16 2.06,1.15 -0.07539,1.440569 -0.84287,2.755717 -2.06,3.53 z"
           fill="#ffdeae"
           id="path1109" />
      </g>
      <g
         transform="translate(30,6)"
         id="g1117">
        <path
           d="M 22.54,18.37 0.71,5.87 C 0.29510971,5.57706 0.06672776,5.0860388 0.11,4.58 0.17365298,3.1457935 0.91631485,1.8275687 2.11,1.03 2.534341,0.72124253 3.091743,0.66397519 3.57,0.88 l 21.83,12.5 c -0.477542,-0.220373 -1.037243,-0.162869 -1.46,0.15 -1.194904,0.796439 -1.937945,2.115337 -2,3.55 -0.04122,0.505673 0.186715,0.995723 0.6,1.29 z"
           fill="#ffc25f"
           id="path1113" />
        <path
           d="m 24,18.21 c -1.11,0.66 -2,0.16 -2.06,-1.13 0.06205,-1.434663 0.805096,-2.753561 2,-3.55 1.12,-0.66 2,-0.16 2.06,1.16 -0.06181,1.426688 -0.806061,2.736567 -2,3.52 z"
           fill="#ffdeae"
           id="path1115" />
      </g>
      <g
         transform="translate(39)"
         id="g1123">
        <path
           d="M 23.25,18.48 1.42,6 C 1.0051097,5.70706 0.77672776,5.2160388 0.82,4.71 0.88365298,3.2757935 1.6263148,1.9575687 2.82,1.16 3.2427568,0.84713048 3.802458,0.78962694 4.28,1.01 L 26.11,13.5 c -0.480348,-0.211034 -1.036758,-0.150058 -1.46,0.16 -1.197358,0.794159 -1.941167,2.114419 -2,3.55 -0.03402,0.498786 0.193099,0.979525 0.6,1.27 z"
           fill="#ffc25f"
           id="path1119" />
        <path
           d="m 24.72,18.32 c -1.12,0.66 -2.05,0.16 -2.07,-1.13 0.05883,-1.435581 0.802642,-2.755841 2,-3.55 1.12,-0.66 2.05,-0.16 2.07,1.15 -0.06672,1.427953 -0.80941,2.7388 -2,3.53 z"
           fill="#ffdeae"
           id="path1121" />
      </g>
    </g>
  </g>
  <polygon
     id="polygon1129"
     fill="#8c8875"
     fill-rule="nonzero"
     points="605.5,932.52 1264.96,549.28 1264.61,672.96 605.14,1056.2 "
     transform="matrix(-1,0,0,1,1530,0)"
     style="stroke:none;stroke-width:1" />
</svg>
