<?xml version="1.0" encoding="UTF-8"?>
<svg width="169px" height="122px" viewBox="0 0 169 122" version="1.1" xmlns="http://www.w3.org/2000/svg" xmlns:xlink="http://www.w3.org/1999/xlink">
    <!-- Generator: Sketch 50.2 (55047) - http://www.bohemiancoding.com/sketch -->
    <title>features-run</title>
    <desc>Created with Sketch.</desc>
    <defs></defs>
    <g id="Page-1" stroke="none" stroke-width="1" fill="none" fill-rule="evenodd">
        <g id="features-run" transform="translate(84.500000, 61.000000) scale(-1, 1) translate(-84.500000, -61.000000) " fill-rule="nonzero">
            <g id="Group">
                <polygon id="Shape" fill="#624E82" points="0.08 58.88 0 30.39 52.64 0 124.48 41.74 124.56 70.23 71.91 100.63"></polygon>
                <g id="Shape">
                    <polygon fill="#624E82" points="124.48 41.74 124.56 70.23 71.91 100.63 71.83 72.14"></polygon>
                    <polygon fill="#5C497A" points="71.91 100.63 0.08 58.88 0 30.39 71.83 72.14"></polygon>
                    <polygon fill="#8E71BC" points="71.83 72.14 0 30.39 52.64 0 124.48 41.74"></polygon>
                </g>
            </g>
            <g id="Group" transform="translate(76.000000, 50.000000)">
                <polygon id="Shape" fill="#999999" points="45 0 0.93 25.45 0.98 43.39 48.87 71.22 92.94 45.77 92.89 27.83"></polygon>
                <polygon id="Shape" fill="#A5A5A5" points="92.89 27.83 92.94 45.77 48.87 71.22 48.82 53.28"></polygon>
                <polygon id="Shape" fill="#3A3A3A" points="90.41 32.37 90.44 44.41 51.36 67.07 51.33 55.03"></polygon>
                <polygon id="Shape" fill="#D8D8D8" points="90.41 38.39 90.44 44.41 51.36 67.07 51.33 61.05"></polygon>
                <polygon id="Shape" fill="#999999" points="48.87 71.22 0.98 43.39 0.93 25.45 48.82 53.28"></polygon>
                <polygon id="Shape" fill="#D6D6D6" points="48.82 53.28 0.93 25.45 45 0 92.89 27.83"></polygon>
                <g transform="translate(26.000000, 15.000000)" fill="#878787" id="Shape">
                    <polygon points="11.04 23.22 0.32 16.99 10.19 11.29 20.91 17.52"></polygon>
                    <polygon points="30.34 11.98 19.62 5.75 29.49 0.05 40.21 6.28"></polygon>
                </g>
            </g>
        </g>
    </g>
</svg>