<svg xmlns="http://www.w3.org/2000/svg" viewBox="0 0 314.81 264.36">
  <defs>
    <style>
      .cls-1 {
        fill: #c2c2c2;
      }

      .cls-2 {
        isolation: isolate;
      }

      .cls-3 {
        fill: #cecece;
      }

      .cls-4 {
        fill: #8d8d8d;
      }

      .cls-5 {
        fill: #b5b5b5;
      }

      .cls-6 {
        fill: #fff;
      }

      .cls-7 {
        fill: #e8e8e8;
      }

      .cls-8 {
        fill: #434343;
      }

      .cls-9 {
        fill: #464646;
      }

      .cls-10, .cls-20 {
        fill: #eaeaea;
      }

      .cls-11 {
        fill: #787878;
      }

      .cls-12 {
        fill: #343434;
      }

      .cls-13 {
        fill: #6bb566;
      }

      .cls-14 {
        fill: #f9f9f9;
      }

      .cls-15 {
        fill: #ddd;
      }

      .cls-16 {
        fill: #a5a5a5;
      }

      .cls-17 {
        fill: #6b6b6b;
      }

      .cls-18 {
        fill: #935850;
      }

      .cls-19 {
        fill: #3c3849;
      }

      .cls-20 {
        opacity: 0.2;
      }

      .cls-21 {
        opacity: 0.8;
      }

      .cls-22 {
        fill: #5298a0;
      }

      .cls-23 {
        fill: #ff9255;
      }

      .cls-24 {
        fill: #4c4c4c;
      }

      .cls-25 {
        fill: #ffc49c;
      }

      .cls-26 {
        fill: #9e9e9e;
      }

      .cls-27 {
        fill: #d8d8d8;
      }

      .cls-28 {
        fill: #426d7a;
      }

      .cls-29 {
        fill: #ffe357;
      }

      .cls-30 {
        fill: #63db65;
      }

      .cls-31 {
        fill: #ededed;
      }

      .cls-32 {
        fill: #93e5db;
      }

      .cls-33 {
        fill: #e5e5e5;
      }
    </style>
  </defs>
  <title>Asset 1</title>
  <g id="Layer_2" data-name="Layer 2">
    <g id="elements">
      <g>
        <g>
          <g>
            <g>
              <polygon class="cls-1" points="96.18 118.24 0.01 174.13 0 179.23 147.45 264.36 243.62 208.47 243.63 203.37 96.18 118.24"/>
              <g class="cls-2">
                <polygon class="cls-3" points="243.63 203.37 147.46 259.26 0.01 174.13 96.18 118.24 243.63 203.37"/>
                <polygon class="cls-4" points="243.63 203.37 243.62 208.47 147.45 264.36 147.46 259.26 243.63 203.37"/>
                <polygon class="cls-5" points="147.46 259.26 147.45 264.36 0 179.23 0.01 174.13 147.46 259.26"/>
              </g>
            </g>
            <polygon class="cls-6" points="121.24 208.23 94.44 223.8 58.86 203.26 85.66 187.69 121.24 208.23"/>
            <polygon class="cls-7" points="229.18 202.58 174.36 234.44 42.68 158.41 97.49 126.56 229.18 202.58"/>
            <polygon class="cls-8" points="216.46 220.25 216.47 223.21 201 232.15 200.99 229.19 216.46 220.25"/>
            <polygon class="cls-9" points="226.66 193.65 223.12 195.7 104.85 127.42 108.39 125.36 226.66 193.65"/>
            <g class="cls-2">
              <rect class="cls-10" x="136.81" y="16.52" width="136.45" height="170.26" transform="translate(14.48 228.39) rotate(-60)"/>
              <rect class="cls-4" x="211.51" y="143.66" width="136.45" height="2.24" transform="translate(14.49 314.65) rotate(-60)"/>
              <polygon class="cls-11" points="165.42 0 167.36 1.13 314.81 86.26 312.87 85.13 165.42 0"/>
            </g>
            <rect class="cls-12" x="136.8" y="16.52" width="136.46" height="170.26" transform="translate(14.48 228.39) rotate(-60)"/>
            <polygon class="cls-8" points="238.47 207.53 238.48 210.48 231.12 214.73 231.11 211.77 238.47 207.53"/>
            <polygon class="cls-8" points="229.17 212.93 229.18 215.88 221.82 220.13 221.81 217.18 229.17 212.93"/>
            <rect class="cls-13" x="142.75" y="24.18" width="120.97" height="159.92" transform="translate(11.43 228.08) rotate(-60)"/>
            <rect class="cls-14" x="230.25" y="-26.34" width="4.3" height="159.92" transform="translate(69.71 228.02) rotate(-59.98)"/>
            <rect class="cls-15" x="184.41" y="0.12" width="4.3" height="54.06" transform="translate(69.71 175.1) rotate(-59.98)"/>
            <rect class="cls-16" x="163.84" y="13.71" width="1.99" height="1.8" transform="translate(69.72 150.02) rotate(-59.98)"/>
            <rect class="cls-15" x="286.04" y="70.29" width="4.3" height="31.08" transform="translate(69.69 292.42) rotate(-59.98)"/>
            <g>
              <path class="cls-17" d="M103.68,133.43c.6.35.6.91,0,1.25l-2.43,1.41a2.35,2.35,0,0,1-2.16,0l-5.73-3.3c-.6-.35-.61-.91,0-1.26l2.43-1.41a2.41,2.41,0,0,1,2.16,0Z"/>
              <path class="cls-17" d="M98.32,136.55a.66.66,0,0,1,0,1.25l-5.7,3.31a2.35,2.35,0,0,1-2.16,0l-5.73-3.31a.66.66,0,0,1,0-1.25l5.7-3.31a2.41,2.41,0,0,1,2.16,0Z"/>
              <path class="cls-17" d="M112.93,138.77c.6.35.61.91,0,1.26l-2.43,1.41a2.4,2.4,0,0,1-2.17,0l-5.72-3.31a.66.66,0,0,1,0-1.25l2.43-1.41a2.35,2.35,0,0,1,2.16,0Z"/>
              <path class="cls-17" d="M107.12,141.63c.6.35.6.91,0,1.25l-5.69,3.31a2.37,2.37,0,0,1-2.17,0l-5.72-3.3c-.6-.35-.61-.91,0-1.26l5.69-3.31a2.4,2.4,0,0,1,2.17,0Z"/>
              <path class="cls-17" d="M122,144c.6.35.61.91,0,1.25l-2.43,1.41a2.35,2.35,0,0,1-2.16,0l-5.73-3.31a.66.66,0,0,1,0-1.25l2.43-1.41a2.35,2.35,0,0,1,2.16,0Z"/>
              <path class="cls-17" d="M115.93,146.71a.67.67,0,0,1,0,1.26l-5.69,3.31a2.41,2.41,0,0,1-2.16,0L102.35,148c-.6-.35-.61-.91,0-1.26l5.69-3.3a2.37,2.37,0,0,1,2.17,0Z"/>
              <path class="cls-17" d="M131.24,149.34c.6.35.61.91,0,1.26L128.82,152a2.41,2.41,0,0,1-2.16,0l-5.73-3.31c-.6-.35-.6-.91,0-1.25l2.43-1.41a2.35,2.35,0,0,1,2.16,0Z"/>
              <path class="cls-17" d="M124.73,151.8a.66.66,0,0,1,0,1.25l-5.69,3.31a2.44,2.44,0,0,1-2.17,0l-5.72-3.31a.66.66,0,0,1,0-1.25l5.69-3.31a2.44,2.44,0,0,1,2.17,0Z"/>
              <path class="cls-17" d="M140.21,154.52a.67.67,0,0,1,0,1.26l-2.43,1.41a2.41,2.41,0,0,1-2.16,0l-5.73-3.31c-.6-.35-.6-.91,0-1.25l2.43-1.42a2.41,2.41,0,0,1,2.16,0Z"/>
              <path class="cls-17" d="M133.6,156.92c.6.34.59.9,0,1.25l-5.69,3.31a2.41,2.41,0,0,1-2.16,0L120,158.17c-.6-.35-.61-.91,0-1.25l5.69-3.31a2.37,2.37,0,0,1,2.17,0Z"/>
              <path class="cls-17" d="M149.47,159.87c.6.34.6.9,0,1.25l-2.42,1.41a2.37,2.37,0,0,1-2.17,0l-5.72-3.31a.66.66,0,0,1,0-1.25l2.42-1.41a2.37,2.37,0,0,1,2.17,0Z"/>
              <path class="cls-17" d="M142.4,162a.66.66,0,0,1,0,1.25l-5.7,3.31a2.35,2.35,0,0,1-2.16,0l-5.72-3.31c-.6-.34-.61-.91,0-1.25l5.7-3.31a2.41,2.41,0,0,1,2.16,0Z"/>
              <path class="cls-17" d="M158.59,165.13a.67.67,0,0,1,0,1.26l-2.43,1.41a2.41,2.41,0,0,1-2.16,0l-5.73-3.31c-.6-.35-.61-.91,0-1.25l2.43-1.41a2.35,2.35,0,0,1,2.16,0Z"/>
              <path class="cls-17" d="M151.21,167.08a.66.66,0,0,1,0,1.25l-5.69,3.31a2.35,2.35,0,0,1-2.16,0l-5.73-3.3c-.6-.35-.61-.91,0-1.26l5.69-3.31a2.4,2.4,0,0,1,2.17,0Z"/>
              <path class="cls-17" d="M167.84,170.48a.66.66,0,0,1,0,1.25l-2.43,1.41a2.35,2.35,0,0,1-2.16,0l-5.73-3.31a.66.66,0,0,1,0-1.25l2.43-1.41a2.35,2.35,0,0,1,2.16,0Z"/>
              <path class="cls-17" d="M160,172.17a.66.66,0,0,1,0,1.25l-5.7,3.31a2.41,2.41,0,0,1-2.16,0l-5.73-3.31c-.59-.35-.6-.91,0-1.25l5.7-3.31a2.35,2.35,0,0,1,2.16,0Z"/>
              <path class="cls-17" d="M176.89,175.7c.6.35.61.91,0,1.25l-2.43,1.41a2.35,2.35,0,0,1-2.16,0l-5.73-3.3a.67.67,0,0,1,0-1.26l2.43-1.41a2.41,2.41,0,0,1,2.16,0Z"/>
              <path class="cls-17" d="M168.87,177.28c.6.35.6.91,0,1.25l-5.69,3.31a2.35,2.35,0,0,1-2.16,0l-5.73-3.3c-.6-.35-.61-.91,0-1.26L161,174a2.4,2.4,0,0,1,2.17,0Z"/>
              <path class="cls-17" d="M186.15,181a.67.67,0,0,1,0,1.26l-2.42,1.41a2.41,2.41,0,0,1-2.16,0l-5.74-3.31c-.6-.35-.6-.91,0-1.25l2.42-1.41a2.37,2.37,0,0,1,2.17,0Z"/>
              <path class="cls-17" d="M177.74,182.4a.67.67,0,0,1,0,1.26l-5.69,3.3a2.37,2.37,0,0,1-2.17,0l-5.73-3.3a.67.67,0,0,1,0-1.26l5.69-3.31a2.41,2.41,0,0,1,2.16,0Z"/>
              <path class="cls-17" d="M195.12,186.22a.67.67,0,0,1,0,1.26l-2.42,1.41a2.41,2.41,0,0,1-2.16,0l-5.74-3.31a.67.67,0,0,1,0-1.26l2.42-1.41a2.44,2.44,0,0,1,2.17,0Z"/>
              <path class="cls-17" d="M186.54,187.48c.6.35.61.92,0,1.26l-5.69,3.31a2.44,2.44,0,0,1-2.17,0L173,188.74c-.6-.35-.61-.91,0-1.25l5.69-3.31a2.37,2.37,0,0,1,2.17,0Z"/>
              <path class="cls-17" d="M204.38,191.57a.66.66,0,0,1,0,1.25L202,194.23a2.37,2.37,0,0,1-2.17,0l-5.73-3.31c-.6-.34-.6-.9,0-1.25l2.42-1.41a2.37,2.37,0,0,1,2.17,0Z"/>
              <path class="cls-17" d="M195.26,192.62a.61.61,0,0,1,0,1.15l-5.69,3.31a2.22,2.22,0,0,1-2,0l-5.73-3.31a.61.61,0,0,1,0-1.15l5.69-3.31a2.22,2.22,0,0,1,2,0Z"/>
              <path class="cls-17" d="M213.47,196.82c.6.34.6.9,0,1.25l-2.42,1.41a2.37,2.37,0,0,1-2.17,0l-5.73-3.31c-.6-.35-.6-.91,0-1.25l2.42-1.41a2.35,2.35,0,0,1,2.16,0Z"/>
              <path class="cls-17" d="M204.15,197.65a.67.67,0,0,1,0,1.26l-5.69,3.3a2.37,2.37,0,0,1-2.17,0l-5.72-3.3c-.6-.35-.61-.91,0-1.26l5.69-3.31a2.44,2.44,0,0,1,2.17,0Z"/>
              <path class="cls-17" d="M94.18,144a.66.66,0,0,1,0,1.25l-5.7,3.31a2.35,2.35,0,0,1-2.16,0l-10-5.8a.66.66,0,0,1,0-1.25l5.7-3.31a2.38,2.38,0,0,1,2.16,0Z"/>
              <path class="cls-17" d="M103.08,149.08c.6.35.6.91,0,1.25l-5.69,3.31a2.35,2.35,0,0,1-2.16,0l-5.73-3.31a.66.66,0,0,1,0-1.25l5.69-3.31a2.41,2.41,0,0,1,2.16,0Z"/>
              <path class="cls-17" d="M111.94,154.2c.6.35.6.91,0,1.25l-5.7,3.31a2.35,2.35,0,0,1-2.16,0l-5.72-3.3c-.6-.35-.61-.91,0-1.26l5.7-3.31a2.41,2.41,0,0,1,2.16,0Z"/>
              <path class="cls-17" d="M120.74,159.28c.6.35.61.91,0,1.26l-5.69,3.31a2.41,2.41,0,0,1-2.16,0l-5.73-3.31c-.6-.35-.61-.91,0-1.26l5.69-3.3a2.37,2.37,0,0,1,2.17,0Z"/>
              <path class="cls-17" d="M129.49,164.33c.6.35.6.91,0,1.25l-5.7,3.31a2.35,2.35,0,0,1-2.16,0l-5.73-3.31a.66.66,0,0,1,0-1.25l5.7-3.31a2.41,2.41,0,0,1,2.16,0Z"/>
              <path class="cls-17" d="M138.35,169.45c.6.35.61.91,0,1.25L132.67,174a2.35,2.35,0,0,1-2.16,0l-5.73-3.3c-.6-.35-.61-.91,0-1.26l5.69-3.31a2.44,2.44,0,0,1,2.17,0Z"/>
              <path class="cls-17" d="M147.16,174.53a.67.67,0,0,1,0,1.26l-5.7,3.3a2.35,2.35,0,0,1-2.16,0l-5.73-3.3a.67.67,0,0,1,0-1.26l5.7-3.31a2.38,2.38,0,0,1,2.16,0Z"/>
              <path class="cls-17" d="M156,179.62a.66.66,0,0,1,0,1.25l-5.69,3.31a2.44,2.44,0,0,1-2.17,0l-5.72-3.31a.66.66,0,0,1,0-1.25l5.69-3.31a2.37,2.37,0,0,1,2.17,0Z"/>
              <path class="cls-17" d="M164.77,184.7c.6.35.6.91,0,1.25l-5.69,3.31a2.35,2.35,0,0,1-2.16,0L151.19,186a.66.66,0,0,1,0-1.25l5.69-3.31a2.4,2.4,0,0,1,2.17,0Z"/>
              <path class="cls-17" d="M173.54,189.87a.61.61,0,0,1,0,1.15l-5.7,3.31a2.22,2.22,0,0,1-2,0L160.15,191a.61.61,0,0,1,0-1.15l5.69-3.31a2.25,2.25,0,0,1,2,0Z"/>
              <path class="cls-17" d="M182.5,194.94a.66.66,0,0,1,0,1.25l-5.7,3.31a2.38,2.38,0,0,1-2.16,0l-5.73-3.31c-.6-.35-.6-.91,0-1.25l5.7-3.31a2.35,2.35,0,0,1,2.16,0Z"/>
              <path class="cls-17" d="M191.3,200c.6.35.61.91,0,1.25l-5.69,3.31a2.37,2.37,0,0,1-2.17,0l-5.72-3.31a.66.66,0,0,1,0-1.25l5.69-3.31a2.41,2.41,0,0,1,2.16,0Z"/>
              <path class="cls-17" d="M222.72,202.16c.6.35.61.91,0,1.25l-2.43,1.42a2.38,2.38,0,0,1-2.16,0l-5.73-3.3a.67.67,0,0,1,0-1.26l2.43-1.41a2.41,2.41,0,0,1,2.16,0Z"/>
              <path class="cls-17" d="M217.36,205.28a.66.66,0,0,1,0,1.25l-5.69,3.31a2.4,2.4,0,0,1-2.17,0l-10.31-6a.66.66,0,0,1,0-1.25l5.69-3.31a2.44,2.44,0,0,1,2.17,0Z"/>
              <path class="cls-17" d="M200.1,205.1c.6.35.61.91,0,1.26l-5.7,3.31a2.38,2.38,0,0,1-2.16,0l-5.73-3.3c-.6-.35-.6-.91,0-1.25l5.7-3.31a2.35,2.35,0,0,1,2.16,0Z"/>
              <path class="cls-17" d="M208.91,210.19a.66.66,0,0,1,0,1.25l-5.69,3.31a2.4,2.4,0,0,1-2.17,0l-5.73-3.31c-.6-.35-.6-.91,0-1.25l5.69-3.31a2.35,2.35,0,0,1,2.16,0Z"/>
              <path class="cls-17" d="M87.81,150.27a.66.66,0,0,1,0,1.25l-5.69,3.31a2.44,2.44,0,0,1-2.17,0l-12.3-7.11a.66.66,0,0,1,0-1.25l5.7-3.31a2.41,2.41,0,0,1,2.16,0Z"/>
              <path class="cls-17" d="M96.59,155.33a.67.67,0,0,1,0,1.26l-5.7,3.31a2.38,2.38,0,0,1-2.16,0L83,156.59a.67.67,0,0,1,0-1.26l5.7-3.3a2.35,2.35,0,0,1,2.16,0Z"/>
              <path class="cls-17" d="M105.46,160.45c.6.35.6.91,0,1.25L99.77,165a2.35,2.35,0,0,1-2.16,0l-5.73-3.31a.66.66,0,0,1,0-1.25l5.69-3.31a2.41,2.41,0,0,1,2.16,0Z"/>
              <path class="cls-17" d="M114.26,165.54a.66.66,0,0,1,0,1.25l-5.7,3.31a2.41,2.41,0,0,1-2.16,0l-5.73-3.31c-.6-.35-.6-.91,0-1.25l5.7-3.31a2.35,2.35,0,0,1,2.16,0Z"/>
              <path class="cls-17" d="M123,170.58c.6.35.61.91,0,1.26l-5.69,3.31a2.41,2.41,0,0,1-2.16,0l-5.73-3.31a.67.67,0,0,1,0-1.26l5.69-3.3a2.35,2.35,0,0,1,2.16,0Z"/>
              <path class="cls-17" d="M131.87,175.7c.6.35.6.91,0,1.25l-5.7,3.31a2.35,2.35,0,0,1-2.16,0L118.29,177a.66.66,0,0,1,0-1.25l5.7-3.31a2.41,2.41,0,0,1,2.16,0Z"/>
              <path class="cls-17" d="M140.67,180.79a.66.66,0,0,1,0,1.25L135,185.35a2.41,2.41,0,0,1-2.16,0L127.09,182a.66.66,0,0,1,0-1.25l5.69-3.31a2.35,2.35,0,0,1,2.16,0Z"/>
              <path class="cls-17" d="M149.48,185.87a.66.66,0,0,1,0,1.25l-5.7,3.31a2.38,2.38,0,0,1-2.16,0l-5.73-3.31c-.6-.35-.6-.91,0-1.25l5.7-3.31a2.35,2.35,0,0,1,2.16,0Z"/>
              <path class="cls-17" d="M158.28,191c.6.35.61.91,0,1.25l-5.69,3.31a2.37,2.37,0,0,1-2.17,0l-5.73-3.31c-.6-.34-.6-.9,0-1.25l5.69-3.31a2.41,2.41,0,0,1,2.16,0Z"/>
              <path class="cls-17" d="M167.15,196.07c.6.35.6.91,0,1.25l-5.69,3.31a2.38,2.38,0,0,1-2.16,0l-5.73-3.31a.66.66,0,0,1,0-1.25l5.69-3.31a2.37,2.37,0,0,1,2.17,0Z"/>
              <path class="cls-17" d="M176,201.19a.66.66,0,0,1,0,1.25l-5.7,3.31a2.41,2.41,0,0,1-2.16,0l-5.73-3.31c-.6-.35-.6-.91,0-1.25l5.7-3.31a2.35,2.35,0,0,1,2.16,0Z"/>
              <path class="cls-17" d="M184.82,206.27c.6.35.6.91,0,1.25l-5.69,3.31a2.35,2.35,0,0,1-2.16,0l-5.73-3.31a.66.66,0,0,1,0-1.25l5.69-3.31a2.41,2.41,0,0,1,2.16,0Z"/>
              <path class="cls-17" d="M83.8,157.84c.6.35.6.91,0,1.25l-5.69,3.31a2.37,2.37,0,0,1-2.17,0l-16.83-9.71a.67.67,0,0,1,0-1.26l5.69-3.3a2.35,2.35,0,0,1,2.16,0Z"/>
              <path class="cls-17" d="M92.42,162.82a.66.66,0,0,1,0,1.25l-5.69,3.31a2.37,2.37,0,0,1-2.17,0l-5.72-3.31a.66.66,0,0,1,0-1.25l5.69-3.31a2.41,2.41,0,0,1,2.16,0Z"/>
              <path class="cls-17" d="M101.29,167.94a.66.66,0,0,1,0,1.25l-5.69,3.31a2.44,2.44,0,0,1-2.17,0l-5.73-3.31c-.6-.35-.6-.91,0-1.25l5.69-3.31a2.35,2.35,0,0,1,2.16,0Z"/>
              <path class="cls-17" d="M110.09,173c.6.35.61.91,0,1.25l-5.69,3.31a2.35,2.35,0,0,1-2.16,0l-5.74-3.31c-.6-.34-.59-.9,0-1.25l5.69-3.31a2.41,2.41,0,0,1,2.16,0Z"/>
              <path class="cls-17" d="M118.83,178.07c.6.34.61.91,0,1.25l-5.69,3.31a2.39,2.39,0,0,1-2.18,0l-5.72-3.31a.66.66,0,0,1,0-1.25l5.69-3.31a2.41,2.41,0,0,1,2.16,0Z"/>
              <path class="cls-17" d="M127.7,183.19a.66.66,0,0,1,0,1.25L122,187.75a2.44,2.44,0,0,1-2.17,0l-5.73-3.31a.66.66,0,0,1,0-1.25l5.69-3.31a2.35,2.35,0,0,1,2.16,0Z"/>
              <path class="cls-17" d="M136.51,188.27c.6.35.6.91,0,1.25l-5.68,3.31a2.37,2.37,0,0,1-2.17,0l-5.73-3.31c-.6-.34-.6-.9,0-1.25l5.68-3.31a2.44,2.44,0,0,1,2.17,0Z"/>
              <path class="cls-17" d="M145.31,193.35a.67.67,0,0,1,0,1.26l-5.69,3.3a2.4,2.4,0,0,1-2.17,0l-5.73-3.31a.67.67,0,0,1,0-1.26l5.69-3.3a2.35,2.35,0,0,1,2.16,0Z"/>
              <path class="cls-17" d="M154.12,198.44c.6.34.6.9,0,1.25L148.43,203a2.38,2.38,0,0,1-2.16,0l-5.73-3.31c-.6-.35-.6-.91,0-1.25l5.69-3.31a2.35,2.35,0,0,1,2.16,0Z"/>
              <path class="cls-17" d="M163,203.56a.66.66,0,0,1,0,1.25l-5.69,3.3a2.4,2.4,0,0,1-2.17,0l-5.73-3.31a.67.67,0,0,1,0-1.26l5.69-3.3a2.35,2.35,0,0,1,2.16,0Z"/>
              <path class="cls-17" d="M171.84,208.67c.6.35.61.91,0,1.26l-5.69,3.3a2.38,2.38,0,0,1-2.16,0l-5.74-3.31a.67.67,0,0,1,0-1.26l5.69-3.31a2.41,2.41,0,0,1,2.16,0Z"/>
              <path class="cls-17" d="M64.14,156.41c.6.35.53,1-.14,1.34l-6.45,3.75a2.55,2.55,0,0,1-2.31.08l-5.73-3.31c-.6-.34-.54-.94.14-1.33l6.45-3.75a2.59,2.59,0,0,1,2.31-.09Z"/>
              <path class="cls-17" d="M72.94,161.49c.6.35.54.95-.14,1.34l-6.45,3.75a2.59,2.59,0,0,1-2.31.09l-5.72-3.31c-.6-.35-.54-1,.13-1.34l6.45-3.75a2.57,2.57,0,0,1,2.32-.08Z"/>
              <path class="cls-17" d="M81.75,166.58c.6.34.53.94-.14,1.34l-6.45,3.74a2.52,2.52,0,0,1-2.31.09l-5.73-3.31c-.6-.34-.54-.95.14-1.34l6.45-3.75a2.55,2.55,0,0,1,2.31-.08Z"/>
              <path class="cls-17" d="M92.73,172.92a.66.66,0,0,1,0,1.25L86,178.09a2.41,2.41,0,0,1-2.16,0l-7.9-4.56c-.6-.35-.61-.91,0-1.26l6.73-3.92a2.46,2.46,0,0,1,2.18,0Z"/>
              <path class="cls-17" d="M136.75,198.33a.67.67,0,0,1,0,1.26L130,203.5a2.35,2.35,0,0,1-2.16,0L86.9,179.86a.66.66,0,0,1,0-1.25l6.73-3.92a2.4,2.4,0,0,1,2.17,0Z"/>
              <path class="cls-17" d="M147.69,204.65c.6.35.6.91,0,1.25L141,209.82a2.37,2.37,0,0,1-2.17,0l-7.9-4.56a.66.66,0,0,1,0-1.25l6.73-3.92a2.4,2.4,0,0,1,2.17,0Z"/>
              <path class="cls-17" d="M156.77,209.89c.6.34.53,1-.14,1.34L150.18,215a2.57,2.57,0,0,1-2.32.08l-5.72-3.3c-.6-.35-.54-.95.14-1.34l6.45-3.75a2.59,2.59,0,0,1,2.31-.09Z"/>
              <path class="cls-17" d="M200.28,215.2c.6.35.61.91,0,1.25l-5.69,3.31a2.37,2.37,0,0,1-2.17,0L180,212.59c-.6-.35-.6-.91,0-1.25l5.7-3.31a2.35,2.35,0,0,1,2.16,0Z"/>
              <path class="cls-17" d="M191.74,220.16c.6.35.61.91,0,1.26l-5.69,3.3a2.37,2.37,0,0,1-2.17,0L167.13,215c-.6-.34-.6-.9,0-1.25l5.69-3.31a2.41,2.41,0,0,1,2.16,0Z"/>
              <path class="cls-17" d="M161.12,217.56a.66.66,0,0,1,0,1.25l-2.29,1.33a2.37,2.37,0,0,1-2.17,0l-5.73-3.3a.67.67,0,0,1,0-1.26l2.29-1.33a2.4,2.4,0,0,1,2.17,0Z"/>
              <path class="cls-17" d="M174.37,220.05c.6.35.61.92,0,1.26l-6.74,3.92a2.44,2.44,0,0,1-2.17,0l-5.72-3.31a.66.66,0,0,1,0-1.25l6.74-3.92a2.4,2.4,0,0,1,2.17,0Z"/>
              <path class="cls-17" d="M178.73,227.72a.67.67,0,0,1,0,1.26l-2.29,1.33a2.37,2.37,0,0,1-2.17,0L168.55,227c-.6-.34-.6-.9,0-1.25l2.29-1.33a2.35,2.35,0,0,1,2.16,0Z"/>
            </g>
            <g>
              <path class="cls-18" d="M232.58,44.29a1,1,0,0,1,.22,1.34.87.87,0,1,1-1.49-.85A1,1,0,0,1,232.58,44.29Z"/>
              <path class="cls-19" d="M233.16,43.28a2.27,2.27,0,0,1-2.22,3.85,2.27,2.27,0,0,1,2.22-3.85Zm-1.63,2.82a1,1,0,0,0,1.27-.47,1,1,0,0,0-.22-1.34,1,1,0,0,0-1.27.49,1,1,0,0,0,.22,1.32"/>
            </g>
          </g>
          <polygon class="cls-20" points="136.53 140.88 272.88 62.04 312.87 85.13 244.65 203.31 136.53 140.88"/>
        </g>
        <g class="cls-21">
          <rect class="cls-22" x="195.02" y="66.47" width="5.8" height="38.51" transform="translate(24.72 214.27) rotate(-60)"/>
          <g class="cls-2">
            <path class="cls-23" d="M181,60.86a1.41,1.41,0,1,1-1.67.63A1.28,1.28,0,0,1,181,60.86Z"/>
            <rect class="cls-15" x="147.72" y="86.78" width="33.29" height="4.26" transform="translate(5.18 186.79) rotate(-60)"/>
            <path class="cls-22" d="M178.43,65.33a2.16,2.16,0,1,1-2.56,1A1.95,1.95,0,0,1,178.43,65.33Z"/>
            <path class="cls-22" d="M182.79,67.85a2.16,2.16,0,1,1-2.56,1A1.95,1.95,0,0,1,182.79,67.85Z"/>
            <path class="cls-24" d="M151.3,107.28l42.3,24.43-5.14,8.91-42.31-24.43Zm6.32,14.12,1.58-2.75L149,112.78l-1.58,2.74,10.17,5.88m2.33-4,1.58-2.74-10.17-5.87-1.58,2.74L160,117.36"/>
            <rect class="cls-5" x="151.74" y="111.22" width="3.17" height="11.74" transform="translate(-24.74 191.33) rotate(-60)"/>
            <rect class="cls-5" x="154.07" y="107.18" width="3.16" height="11.74" transform="translate(-20.08 191.33) rotate(-60)"/>
            <rect class="cls-22" x="184.53" y="70.79" width="4.23" height="3.47" transform="translate(30.52 197.9) rotate(-60)"/>
            <rect class="cls-25" x="173.68" y="92.68" width="3.17" height="6.15" transform="translate(4.7 199.67) rotate(-60)"/>
            <rect class="cls-25" x="175.74" y="79.99" width="3.17" height="12.3" transform="translate(14.06 196.64) rotate(-60)"/>
            <rect class="cls-25" x="178.08" y="75.94" width="3.17" height="12.3" transform="translate(18.74 196.64) rotate(-60)"/>
            <rect class="cls-22" x="189.29" y="73.53" width="4.23" height="3.47" transform="translate(30.52 203.4) rotate(-60)"/>
            <rect class="cls-26" x="191.38" y="80.57" width="3.17" height="18.4" transform="translate(18.74 212) rotate(-60)"/>
            <path class="cls-6" d="M179.8,78.61l33.34,19.25L196.5,126.69l-38.62-22.3,16.64-28.83-3.68-2.13,2.9-5,9,5.18Zm11,33.34,1.59-2.74-26.6-15.36-1.58,2.75L190.78,112m9.36-16.21L201.72,93l-15.93-9.2-10.66-6.15-1.58,2.74,10.65,6.15,15.94,9.2m-27.35-14-1.58,2.74,10.65,6.15,8,4.6,1.59-2.74-8-4.6L172.79,81.7m5.93,14.23-5.33-3.08-1.58,2.74,5.33,3.08,1.58-2.74"/>
            <rect class="cls-26" x="185.06" y="86.92" width="3.17" height="9.2" transform="translate(14.06 207.4) rotate(-60)"/>
            <rect class="cls-27" x="176.7" y="87.55" width="3.17" height="30.71" transform="translate(0.02 205.84) rotate(-60)"/>
            <path class="cls-28" d="M176.63,63.39l42.31,24.43-2.9,5L182.7,73.59l-9-5.18ZM191.85,78,194,74.3l-3-1.73-2.11,3.66,3,1.74m-15.54-9a2.16,2.16,0,1,0-.44-2.7,2,2,0,0,0,.44,2.7m10.78,6.22,2.11-3.67-3-1.73-2.12,3.66,3,1.74m-6.42-3.71a2.16,2.16,0,1,0-.44-2.69,2,2,0,0,0,.44,2.69"/>
            <rect class="cls-22" x="162.96" y="106.49" width="5.79" height="48.85" transform="matrix(0.5, -0.87, 0.87, 0.5, -30.45, 209.09)"/>
          </g>
          <path class="cls-29" d="M183.87,62.51a1.41,1.41,0,1,1-1.67.63A1.27,1.27,0,0,1,183.87,62.51Z"/>
          <path class="cls-30" d="M186.72,64.15a1.41,1.41,0,1,1-1.67.63A1.28,1.28,0,0,1,186.72,64.15Z"/>
          <path class="cls-31" d="M179.7,58.07,222,82.5l-3.07,5.32L176.63,63.39Zm-.06,5.19a1.41,1.41,0,1,0-.29-1.77,1.28,1.28,0,0,0,.29,1.77m5.7,3.29a1.41,1.41,0,1,0-.29-1.77,1.28,1.28,0,0,0,.29,1.77m-2.85-1.65a1.41,1.41,0,1,0-.29-1.76,1.27,1.27,0,0,0,.29,1.76"/>
          <rect class="cls-22" x="171" y="92.56" width="5.8" height="48.85" transform="translate(-14.36 209.09) rotate(-60)"/>
        </g>
        <g>
          <path class="cls-22" d="M166,34.58a2.15,2.15,0,0,1-2.11,3.66A2.15,2.15,0,0,1,166,34.58Z"/>
          <path class="cls-22" d="M170.36,37.09a2.16,2.16,0,0,1-2.11,3.67,2.16,2.16,0,0,1,2.11-3.67Z"/>
          <rect class="cls-22" x="172.1" y="40.03" width="4.23" height="3.47" transform="translate(50.94 171.76) rotate(-60)"/>
          <rect class="cls-5" x="139.32" y="80.46" width="3.17" height="11.74" transform="translate(-4.32 165.19) rotate(-60)"/>
          <g class="cls-2">
            <path class="cls-23" d="M168.6,30.1a1.41,1.41,0,0,1-1.39,2.4,1.41,1.41,0,0,1,1.39-2.4Z"/>
            <rect class="cls-15" x="135.29" y="56.03" width="33.29" height="4.26" transform="translate(25.6 160.65) rotate(-60)"/>
            <path class="cls-29" d="M171.45,31.75a1.42,1.42,0,0,1-1.39,2.4,1.41,1.41,0,0,1,1.39-2.4Z"/>
            <path class="cls-30" d="M174.3,33.39a1.41,1.41,0,1,1-1.68.63A1.29,1.29,0,0,1,174.3,33.39Z"/>
            <path class="cls-24" d="M138.87,76.53,181.17,101,176,109.86,133.72,85.44Zm6.32,14.11,1.59-2.74L136.61,82,135,84.77l10.17,5.87m2.33-4,1.58-2.74L138.93,78l-1.58,2.74,10.17,5.87"/>
            <rect class="cls-5" x="141.65" y="76.43" width="3.16" height="11.74" transform="translate(0.34 165.19) rotate(-60)"/>
            <rect class="cls-26" x="154.31" y="73.95" width="3.17" height="6.15" transform="translate(11.24 173.52) rotate(-60)"/>
            <rect class="cls-26" x="163.59" y="57.87" width="3.17" height="6.15" transform="translate(29.8 173.52) rotate(-60)"/>
            <rect class="cls-25" x="165.66" y="45.18" width="3.17" height="12.31" transform="translate(39.16 170.5) rotate(-60)"/>
            <rect class="cls-25" x="159.64" y="77.02" width="3.17" height="6.15" transform="translate(11.24 179.68) rotate(-60)"/>
            <rect class="cls-26" x="167.26" y="70.07" width="3.17" height="18.4" transform="translate(15.77 185.86) rotate(-60)"/>
            <rect class="cls-27" x="164.27" y="56.79" width="3.17" height="30.71" transform="translate(20.45 179.7) rotate(-60)"/>
            <rect class="cls-26" x="171.91" y="61.93" width="3.17" height="18.46" transform="translate(25.12 185.83) rotate(-60)"/>
            <path class="cls-6" d="M167.37,47.85,200.72,67.1,184.07,95.93l-38.62-22.3L162.1,44.81l-3.69-2.13,2.9-5,9,5.17ZM176,85.24l1.58-2.74-15.94-9.2L151,67.15l-1.59,2.74L160.08,76,176,85.24M187.71,65l1.59-2.74L173.36,53,162.7,46.89l-1.58,2.74,10.66,6.16L187.71,65M185.37,69,187,66.29,171,57.09l-10.66-6.15-1.58,2.74,10.66,6.16L185.37,69m-7,12.15,1.59-2.74L153.35,63.1l-1.59,2.74,26.59,15.35m2.34-4,1.59-2.74-16-9.23L161,62.09l-1.58,2.75,5.33,3.07,16,9.23m-19-16.36,5.33,3.08,5.33,3.08L174,64.19l-5.33-3.07L163.3,58l-1.58,2.74M163.1,83l1.58-2.74-5.33-3.08L154,74.12l-1.58,2.74,5.33,3.07L163.1,83m5.35,3.09L170,83.36l-5.33-3.08L163.12,83l5.33,3.08"/>
            <rect class="cls-25" x="161.25" y="61.93" width="3.17" height="6.15" transform="translate(25.12 173.52) rotate(-60)"/>
            <rect class="cls-25" x="153.96" y="65.44" width="3.17" height="12.31" transform="translate(15.77 170.5) rotate(-60)"/>
            <rect class="cls-25" x="163.32" y="49.24" width="3.17" height="12.31" transform="translate(34.48 170.5) rotate(-60)"/>
            <path class="cls-28" d="M164.2,32.64l42.31,24.42-2.9,5L170.27,42.83l-9-5.17Zm-.31,5.6a2.15,2.15,0,1,0-.45-2.69,1.94,1.94,0,0,0,.45,2.69m4.36,2.52a2.16,2.16,0,0,0,2.11-3.67,2.16,2.16,0,0,0-2.11,3.67m6.41,3.7,2.12-3.66-3-1.73-2.11,3.66,3,1.73m4.76,2.75,2.11-3.66-3-1.74-2.11,3.67,3,1.73"/>
            <rect class="cls-22" x="176.86" y="42.78" width="4.23" height="3.47" transform="translate(50.94 177.25) rotate(-60)"/>
            <rect class="cls-25" x="168.92" y="60.95" width="3.17" height="6.15" transform="translate(29.8 179.68) rotate(-60)"/>
            <rect class="cls-32" x="164.99" y="80.11" width="3.17" height="6.15" transform="translate(11.24 185.86) rotate(-60)"/>
            <rect class="cls-26" x="176.61" y="53.87" width="3.17" height="18.4" transform="translate(34.48 185.86) rotate(-60)"/>
            <rect class="cls-26" x="178.95" y="49.81" width="3.17" height="18.4" transform="translate(39.16 185.86) rotate(-60)"/>
            <path class="cls-31" d="M167.28,27.32l42.3,24.42-3.07,5.32L164.2,32.64Zm5.63,8.47a1.41,1.41,0,0,0,1.39-2.4,1.41,1.41,0,0,0-1.39,2.4m-5.7-3.29a1.41,1.41,0,1,0-.29-1.77,1.29,1.29,0,0,0,.29,1.77m2.85,1.65a1.41,1.41,0,1,0-.29-1.77,1.29,1.29,0,0,0,.29,1.77"/>
            <rect class="cls-22" x="150.53" y="75.73" width="5.79" height="48.85" transform="matrix(0.5, -0.87, 0.87, 0.5, -10.03, 182.95)"/>
            <rect class="cls-22" x="158.57" y="61.8" width="5.8" height="48.85" transform="matrix(0.5, -0.87, 0.87, 0.5, 6.06, 182.95)"/>
            <rect class="cls-22" x="182.59" y="35.72" width="5.8" height="38.5" transform="translate(45.14 188.13) rotate(-60)"/>
          </g>
        </g>
        <g>
          <rect class="cls-33" x="279.94" y="96.14" width="11.23" height="9.2" transform="translate(55.54 297.67) rotate(-60)"/>
          <rect class="cls-33" x="271.38" y="110.98" width="11.23" height="9.2" transform="translate(38.4 297.67) rotate(-60)"/>
          <rect class="cls-33" x="262.81" y="125.81" width="11.23" height="9.2" transform="translate(21.27 297.67) rotate(-60)"/>
          <rect class="cls-33" x="254.24" y="140.65" width="11.23" height="9.2" transform="translate(4.14 297.67) rotate(-60)"/>
        </g>
      </g>
    </g>
  </g>
</svg>
