<?xml version="1.0" encoding="UTF-8" standalone="no"?>
<svg
   viewBox="0 0 427.11 419.09"
   version="1.1"
   id="svg98"
   sodipodi:docname="img01002.svg"
   inkscape:version="1.1.2 (0a00cf5339, 2022-02-04)"
   xmlns:inkscape="http://www.inkscape.org/namespaces/inkscape"
   xmlns:sodipodi="http://sodipodi.sourceforge.net/DTD/sodipodi-0.dtd"
   xmlns="http://www.w3.org/2000/svg"
   xmlns:svg="http://www.w3.org/2000/svg">
  <sodipodi:namedview
     id="namedview100"
     pagecolor="#ffffff"
     bordercolor="#666666"
     borderopacity="1.0"
     inkscape:pageshadow="2"
     inkscape:pageopacity="0.0"
     inkscape:pagecheckerboard="0"
     showgrid="false"
     inkscape:zoom="1.3505452"
     inkscape:cx="213.61743"
     inkscape:cy="209.91523"
     inkscape:window-width="1482"
     inkscape:window-height="800"
     inkscape:window-x="0"
     inkscape:window-y="0"
     inkscape:window-maximized="1"
     inkscape:current-layer="svg98" />
  <defs
     id="defs4">
    <style
       id="style2">
      .cls-1 {
        fill: #ff7550;
      }

      .cls-2 {
        fill: #d8cabf;
      }

      .cls-3 {
        fill: #58595b;
      }

      .cls-4 {
        fill: #28e0d6;
      }

      .cls-5 {
        fill: #fff;
      }

      .cls-6 {
        fill: #9b8579;
      }

      .cls-7 {
        fill: #f7c7ba;
      }

      .cls-8 {
        fill: #ffe6de;
      }

      .cls-9 {
        isolation: isolate;
      }
    </style>
  </defs>
  <title
     id="title6">Asset 10</title>
  <path
     class="cls-1"
     d="m 254.38,317.56 a 5.52,5.52 0 0 1 -2.75,-0.74 l -62,-35.86 a 30.84,30.84 0 0 1 -15.36,-26.62 v -32.86 a 5.5,5.5 0 0 1 11,0 v 32.86 a 19.78,19.78 0 0 0 9.87,17.09 l 62,35.86 a 5.5,5.5 0 0 1 -2.76,10.27 z"
     id="path8" />
  <path
     class="cls-2"
     d="M 192.05,2.46 C 201.94,-3.26 210,1.33 210,12.7 v 100.15 c 0,11.37 -8,25.22 -17.86,30.93 L 18,244.35 C 8.07,250.06 0,245.47 0,234.1 V 134 c 0,-11.41 8,-25.26 17.85,-31 z"
     id="path10" />
  <path
     class="cls-3"
     d="m 229.52,24.09 c 9.89,-5.72 17.94,-1.13 18,10.24 v 100.15 c 0,11.37 -8,25.22 -17.86,30.93 L 55.44,266 c -9.9,5.71 -17.94,1.12 -18,-10.25 V 155.59 c 0,-11.37 8,-25.22 17.85,-30.93 z"
     id="path12" />
  <path
     class="cls-4"
     d="M 267,45.72 C 276.88,40 284.93,44.59 285,56 v 100.11 c 0,11.37 -8,25.22 -17.86,30.93 L 92.91,287.61 c -9.9,5.71 -17.94,1.12 -18,-10.25 V 177.22 c 0,-11.37 8,-25.22 17.85,-30.93 z"
     id="path14" />
  <g
     id="g34">
    <polygon
       class="cls-5"
       points="113.49,154.36 139.95,139.09 140,155.77 113.54,171.05 "
       id="polygon18" />
    <polygon
       class="cls-5"
       points="153.43,218.29 210.33,185.43 210.38,202.12 153.47,234.97 "
       id="polygon20" />
    <polygon
       class="cls-5"
       points="179.81,174.06 236.71,141.21 236.75,157.9 179.85,190.75 "
       id="polygon22" />
    <polygon
       class="cls-5"
       points="153.18,131.45 210.09,98.59 210.13,115.28 153.23,148.13 "
       id="polygon24" />
    <polygon
       class="cls-5"
       points="140.12,196.98 166.57,181.7 166.62,198.39 140.16,213.66 "
       id="polygon26" />
    <polygon
       class="cls-5"
       points="140.03,168.03 166.49,152.76 166.54,169.44 140.08,184.72 "
       id="polygon28" />
    <polygon
       class="cls-5"
       points="179.72,145.12 236.63,112.27 236.67,128.95 179.77,161.81 "
       id="polygon30" />
    <polygon
       class="cls-5"
       points="113.74,241.2 140.2,225.93 140.24,242.61 113.78,257.88 "
       id="polygon32" />
  </g>
  <g
     id="g72">
    <g
       class="cls-9"
       id="g66">
      <path
         class="cls-1"
         d="m 272.8,297.28 c 11.92,6.88 12,18 0.14,24.92 -11.86,6.92 -31.11,6.89 -43,0 -11.89,-6.89 -12,-18 -0.14,-24.93 11.86,-6.93 31.08,-6.87 43,0.01 z"
         id="path64" />
    </g>
    <g
       class="cls-9"
       id="g70">
      <path
         class="cls-5"
         d="m 262.3,303.38 c 6.09,3.51 6.12,9.21 0.07,12.72 -6.05,3.51 -15.88,3.52 -22,0 -6.12,-3.52 -6.12,-9.21 -0.07,-12.72 6.05,-3.51 15.92,-3.51 22,0 z"
         id="path68" />
    </g>
  </g>
</svg>
