<svg xmlns="http://www.w3.org/2000/svg" viewBox="0 0 358.95 419.31">
  <defs>
    <style>
      .cls-1, .cls-2 {
        fill: #28e0d6;
      }

      .cls-1 {
        fill-rule: evenodd;
      }

      .cls-3 {
        fill: #58595b;
      }

      .cls-4 {
        fill: #ff7550;
      }

      .cls-5 {
        isolation: isolate;
      }

      .cls-6 {
        fill: #fff;
      }
    </style>
  </defs>
  <title>Asset 7</title>
  <g id="Layer_2" data-name="Layer 2">
    <g id="elements">
      <g>
        <g>
          <path class="cls-1" d="M34.92,77.68c0,79.28,109,108.8,162.84,28.07,55.8,83.7,160.43,48.61,160.43-28.19s-104.13-113.73-160.43-28C144.41-35.18,34.92-1.59,34.92,77.68Zm28.62,0c0-57.2,80.84-75.26,118.45,0-38.35,72.47-118.45,57.21-118.45,0Zm150,0c33.88-76.74,116.92-55.6,116.67.13S246.41,150.89,213.52,77.68Z"/>
          <rect class="cls-2" x="93.92" y="69.65" width="47.98" height="15.83"/>
          <polygon class="cls-1" points="268.02 85.23 252.19 85.23 252.19 68.41 268.02 68.41 268.02 52.59 284.84 52.59 284.84 68.41 300.66 68.41 300.66 85.23 284.84 85.23 284.84 101.06 268.02 101.06 268.02 85.23"/>
        </g>
        <g>
          <path class="cls-3" d="M350,242.29c-11.91-6.87-31.16-6.87-43,0-9.65,5.61-11.38,14.07-5.21,20.73l-92.16,53.56L174,296l27.34-15.79-11.43-46.42L220.41,216c11.51,3.55,26.12,2.53,35.77-3.08,11.83-6.88,11.77-18-.14-24.9s-31.15-6.88-43,0c-9.66,5.61-11.39,14.07-5.21,20.72l-36.76,21.36,11.44,46.42-21.12,12.18-55.53-32.06L0,318.21l175,101L280.86,357.7l-58.67-33.87,92.16-53.56c11.51,3.56,26.11,2.53,35.77-3.08C362,260.31,361.88,249.17,350,242.29ZM224.52,194.68c5.55-3.22,14.56-3.22,20.13,0s5.61,8.44.07,11.67-14.55,3.21-20.13,0S219,197.89,224.52,194.68Zm114.14,65.89c-5.54,3.22-14.55,3.22-20.13,0s-5.61-8.44-.07-11.66,14.56-3.22,20.13,0S344.2,257.35,338.66,260.57Z"/>
          <path class="cls-3" d="M251.56,236.44c-11.51-3.55-26.11-2.52-35.76,3.09-11.84,6.88-11.78,18,.13,24.9s31.15,6.87,43,0c9.65-5.61,11.38-14.07,5.21-20.72l45.15-26.24c11.52,3.55,26.11,2.52,35.77-3.09,11.83-6.88,11.77-18-.14-24.9s-31.15-6.87-43,0c-9.66,5.62-11.38,14.07-5.22,20.73Zm-4.11,21.36c-5.54,3.23-14.55,3.23-20.13,0s-5.61-8.44-.06-11.67,14.55-3.21,20.13,0S253,254.59,247.45,257.8Zm65.94-61.71c5.54-3.22,14.55-3.22,20.13,0s5.6,8.44.07,11.66-14.55,3.22-20.13,0S307.85,199.31,313.39,196.09Z"/>
        </g>
        <polygon class="cls-4" points="0.35 166.97 0 318.29 174.98 419.31 175.32 267.99 0.35 166.97"/>
        <g>
          <g class="cls-5">
            <polygon class="cls-6" points="75.84 233.22 75.79 250 49.17 234.64 49.22 217.85 75.84 233.22"/>
          </g>
          <polygon class="cls-6" points="146.14 361.3 146.09 378.08 88.85 345.04 88.89 328.25 146.14 361.3"/>
          <polygon class="cls-6" points="119.61 316.82 119.56 333.6 62.31 300.55 62.36 283.77 119.61 316.82"/>
          <polygon class="cls-6" points="146.3 303.07 146.26 319.85 89.01 286.8 89.06 270.02 146.3 303.07"/>
          <polygon class="cls-6" points="146.39 273.95 146.34 290.74 89.09 257.69 89.14 240.9 146.39 273.95"/>
          <polygon class="cls-6" points="75.75 262.34 75.71 279.12 49.09 263.75 49.14 246.97 75.75 262.34"/>
          <polygon class="cls-6" points="49.06 276.09 49.01 292.87 22.39 277.51 22.44 260.72 49.06 276.09"/>
          <polygon class="cls-6" points="75.59 320.57 75.54 337.35 48.93 321.99 48.97 305.21 75.59 320.57"/>
        </g>
      </g>
    </g>
  </g>
</svg>