<?xml version="1.0" encoding="UTF-8"?>
<svg width="1422px" height="965px" viewBox="0 0 1422 965" version="1.1" xmlns="http://www.w3.org/2000/svg" xmlns:xlink="http://www.w3.org/1999/xlink">
    <!-- Generator: Sketch 50.2 (55047) - http://www.bohemiancoding.com/sketch -->
    <title>Asset 2</title>
    <desc>Created with Sketch.</desc>
    <defs></defs>
    <g id="Page-1" stroke="none" stroke-width="1" fill="none" fill-rule="evenodd">
        <g id="Asset-2" fill-rule="nonzero">
            <g id="Group" opacity="0.5" transform="translate(24.000000, 0.000000)">
                <path d="M346.23,40.09 L89.23,189.34 L0.84,239.5 L0.84,199.41 L346.23,0 L346.23,40.09 Z M46.52,203.32 C50.95,200.77 54.52,194.58 54.52,189.49 C54.52,184.4 50.9,182.36 46.52,184.92 C42.14,187.48 38.52,193.66 38.52,198.75 C38.52,203.84 42.13,205.88 46.52,203.32 Z M69.81,189.88 C74.23,187.33 77.81,181.14 77.81,176.05 C77.81,170.96 74.2,168.92 69.81,171.47 C65.42,174.02 61.81,180.22 61.81,185.31 C61.81,190.4 65.42,192.44 69.81,189.88 Z M23.25,216.76 C27.67,214.21 31.25,208.02 31.25,202.93 C31.25,197.84 27.64,195.8 23.25,198.36 C18.86,200.92 15.25,207.1 15.25,212.18 C15.25,217.26 18.86,219.32 23.25,216.76 Z" id="Shape" fill="#58595B"></path>
                <polygon id="Shape" fill="#D1D3D4" points="346.35 213.77 1 413.18 0.84 239.5 346.23 40.09"></polygon>
            </g>
            <g id="Group" opacity="0.8" transform="translate(85.000000, 35.000000)">
                <path d="M345.93,40.33 L88.93,189.58 L0.54,239.75 L0.54,199.66 L345.93,0.24 L345.93,40.33 Z M46.22,203.57 C50.65,201.01 54.22,194.82 54.22,189.74 C54.22,184.66 50.59,182.61 46.17,185.16 C41.75,187.71 38.17,193.91 38.17,198.99 C38.17,204.07 41.78,206.12 46.17,203.57 L46.22,203.57 Z M69.46,190.13 C73.88,187.57 77.46,181.38 77.46,176.3 C77.46,171.22 73.85,169.16 69.46,171.72 C65.07,174.28 61.46,180.47 61.46,185.55 C61.46,190.63 65.07,192.69 69.46,190.13 Z M23,217 C27.42,214.44 31,208.25 31,203.17 C31,198.09 27.39,196.03 23,198.59 C18.61,201.15 15,207.33 15,212.42 C15,217.51 18.61,219.55 23,217 Z" id="Shape" fill="#58595B"></path>
                <polygon id="Shape" fill="#939598" points="346.05 214 0.66 413.42 0.54 239.75 345.93 40.33"></polygon>
            </g>
            <g id="Group" transform="translate(146.000000, 70.000000)" fill="#58595B">
                <path d="M345.63,40.58 L88.63,189.83 L0.24,240 L0.24,199.9 L345.63,0.49 L345.63,40.58 Z M45.92,203.81 C50.35,201.26 53.92,195.07 53.92,189.98 C53.92,184.89 50.3,182.85 45.92,185.41 C41.54,187.97 37.92,194.15 37.92,199.23 C37.92,204.31 41.54,206.37 45.92,203.81 Z M69.2,190.37 C73.63,187.82 77.2,181.63 77.2,176.54 C77.2,171.45 73.59,169.41 69.2,171.96 C64.81,174.51 61.2,180.71 61.2,185.8 C61.2,190.89 64.81,192.93 69.2,190.37 Z M22.65,217.25 C27.07,214.7 30.65,208.51 30.65,203.42 C30.65,198.33 27.04,196.29 22.65,198.84 C18.26,201.39 14.65,207.59 14.65,212.67 C14.65,217.75 18.26,219.81 22.65,217.25 Z" id="Shape"></path>
                <polygon id="Shape" points="345.75 214.25 0.36 413.67 0.24 240 345.63 40.58"></polygon>
            </g>
            <g id="Group" transform="translate(0.000000, 191.000000)">
                <path d="M1403.41,409.29 C1379.76,395.54 1341.29,395.54 1317.48,409.29 C1312.2631,412.135626 1307.71747,416.067444 1304.15,420.82 L1168.27,420.82 L1141.27,405.39 L1250.01,342.39 L743.85,53.09 L0,483.8 L506.11,773.14 L1114.47,420.88 L1161.19,447.53 L1304,447.53 C1307.51936,452.278133 1312.02181,456.210962 1317.2,459.06 C1340.85,472.81 1379.33,472.81 1403.13,459.06 C1426.93,445.31 1427.06,423 1403.41,409.29 Z M1377.77,444.29 C1368.06,449.89 1352.37,449.89 1342.77,444.29 C1333.17,438.69 1333.17,429.6 1342.88,423.99 C1352.59,418.38 1368.28,418.39 1377.93,423.99 C1387.58,429.59 1387.48,438.72 1377.77,444.33 L1377.77,444.29 Z" id="Shape" fill="#A7A9AC" opacity="0.3"></path>
                <polygon id="Shape" fill="#9D89EF" points="0 430.72 506.11 720.06 1249.96 289.35 743.85 0.01"></polygon>
                <polygon id="Shape" fill="#414042" points="361.8 583.12 506.11 666.98 1249.96 236.27 1105.65 152.41"></polygon>
                <polygon id="Shape" fill="#414042" points="1161.19 407.56 1318.93 407.56 1318.93 380.85 1168.27 380.85 989.84 279.07 976.61 302.27"></polygon>
                <g transform="translate(1299.000000, 359.000000)" id="Shape">
                    <path d="M18.48,10.32 C-5.33,24.06 -5.45,46.32 18.2,60.09 C41.85,73.86 80.33,73.84 104.13,60.09 C127.93,46.34 128.06,24.09 104.41,10.32 C80.76,-3.45 42.29,-3.43 18.48,10.32 Z" fill="#414042"></path>
                    <path d="M43.84,25.05 C34.13,30.66 34.08,39.75 43.73,45.35 C53.38,50.95 69.06,50.96 78.73,45.35 C88.4,39.74 88.49,30.65 78.85,25.04 C69.21,19.43 53.55,19.45 43.84,25.05 Z" fill="#FFFFFF"></path>
                </g>
            </g>
            <g id="Group" transform="translate(326.000000, 115.000000)">
                <g transform="translate(52.000000, 309.000000)" fill="#FFDC48" id="Shape">
                    <path d="M364.44,20.16 C356.63,24.67 356.58,31.99 364.35,36.5 C372.12,41.01 384.74,41.01 392.56,36.5 L421.2,20 C429.01,15.49 429.05,8.17 421.29,3.66 C413.53,-0.85 400.89,-0.85 393.08,3.66 L364.44,20.16 Z"></path>
                    <path d="M349.68,77.54 C341.86,82.06 341.83,89.37 349.59,93.88 C357.35,98.39 369.98,98.4 377.8,93.88 L463.38,44.48 C471.19,39.96 471.23,32.65 463.47,28.13 C455.71,23.61 443.07,23.62 435.26,28.13 L349.68,77.54 Z"></path>
                    <g transform="translate(0.000000, 65.000000)">
                        <path d="M283.29,148.6 C275.48,153.11 275.44,160.43 283.2,164.94 C290.96,169.45 303.6,169.45 311.41,164.94 L547.74,28.5 C555.55,23.99 555.59,16.67 547.83,12.16 C540.07,7.65 527.43,7.65 519.62,12.16 L283.29,148.6 Z"></path>
                        <path d="M6,162.1 C-1.82,166.61 -1.86,173.93 5.91,178.44 C13.68,182.95 26.3,182.95 34.12,178.44 L307.32,20.71 C315.13,16.2 315.17,8.88 307.41,4.37 C299.65,-0.14 287.01,-0.14 279.2,4.37 L6,162.1 Z"></path>
                        <path d="M48.19,186.61 C40.37,191.12 40.33,198.44 48.1,202.95 C55.87,207.46 68.49,207.46 76.31,202.95 L292.55,78.1 C300.37,73.59 300.41,66.27 292.65,61.76 C284.89,57.25 272.25,57.25 264.44,61.76 L48.19,186.61 Z"></path>
                        <path d="M90.37,211.12 C82.55,215.63 82.51,222.95 90.27,227.46 C98.03,231.97 110.67,231.97 118.49,227.46 L391.68,69.74 C399.49,65.22 399.53,57.91 391.77,53.39 C384.01,48.87 371.37,48.88 363.56,53.39 L90.37,211.12 Z"></path>
                        <path d="M132.55,235.63 C124.73,240.14 124.69,247.46 132.45,251.97 C140.21,256.48 152.85,256.49 160.66,251.97 L226.17,214.16 C233.99,209.64 234.02,202.33 226.26,197.82 C218.5,193.31 205.87,193.3 198.05,197.82 L132.55,235.63 Z"></path>
                    </g>
                    <path d="M448.8,69.18 C440.98,73.69 440.94,81.01 448.71,85.52 C456.48,90.03 469.1,90.03 476.92,85.52 L505.56,69 C513.37,64.49 513.41,57.17 505.65,52.66 C497.89,48.15 485.25,48.14 477.44,52.66 L448.8,69.18 Z"></path>
                </g>
                <g>
                    <g id="Shape">
                        <path d="M68.93,271.89 C70.66,270.89 72.38,270 74.09,269.16 C74.03,267.4 73.99,265.63 73.99,263.84 C73.73,174.15 136.8,64.91 214.86,19.84 C254.14,-2.84 289.72,-4.94 315.41,9.99 L368.17,40.65 C389.69,31.29 408.99,31.54 423.53,40 L585.84,134.32 L585.68,134.23 C602.68,144.02 613.24,164.95 613.32,194.74 C613.49,254.52 571.46,327.34 519.43,357.37 L231.69,523.5 C212.12,534.8 194.46,535.5 181.94,527.6 C182.29,527.82 182.63,528.06 182.99,528.27 L20.68,433.94 C8.39,426.8 0.77,411.62 0.68,390.05 C0.59,346.61 31.13,293.71 68.93,271.89 Z" fill="#4AF6FF"></path>
                        <path d="M377.17,114.15 C299.17,159.22 236.05,268.46 236.3,358.15 C236.3,359.94 236.35,361.71 236.4,363.46 C234.7,364.3 232.98,365.19 231.24,366.19 C193.45,388 162.9,440.93 163,484.36 C163.1,527.79 193.86,545.31 231.66,523.49 L519.43,357.36 C571.43,327.36 613.49,254.51 613.32,194.73 C613.15,134.95 570.84,110.83 518.81,140.87 C516.143333,142.41 513.506667,144.076667 510.9,145.87 C491.43,93.66 438.86,78.54 377.17,114.15 Z" fill="#4AF6FF"></path>
                        <path d="M389.29,131.78 C322.29,170.49 268.09,264.31 268.29,341.33 C268.29,342.87 268.29,344.39 268.38,345.9 C266.91,346.62 244.95,359.35 243.46,360.21 C211,379 184.79,424.38 184.9,461.68 C185.01,498.98 211.41,514.02 243.9,495.28 L511.46,340.65 C556.14,314.85 592.24,252.32 592.09,200.98 C591.94,149.64 555.61,128.93 510.93,154.73 C508.643333,156.063333 506.376667,157.483333 504.13,158.99 C487.41,114.19 442.26,101.2 389.29,131.78 Z" fill="#414042"></path>
                        <path d="M215.11,478.62 L482.7,324 C527.38,298.2 563.48,235.67 563.33,184.34 C563.33,167.72 558.95,153.57 552.27,143.91 C576.47,145.63 592.65,167.99 592.74,201.83 C592.89,253.16 556.29,315.57 511.61,341.36 L243.79,496.36 C219.72,510.25 199.07,505.36 189.91,486.79 C197.51,486.5 206.16,483.79 215.11,478.62 Z" fill="#37C6F7"></path>
                    </g>
                    <polygon id="Shape" fill="#FFDC48" points="376.58 162.08 376.84 251.81 334.03 276.52 400.4 349.55 400.15 259.83 442.96 235.11"></polygon>
                    <g transform="translate(131.000000, 86.000000)">
                        <g id="Shape">
                            <path d="M49.7,162.92 L0.51,134.48 C15.22,85.69 43.67,37.27 79.14,0.85 L128.51,29.39 C93,65.74 64.49,114.12 49.7,162.92 Z" fill="#37C6F7"></path>
                            <path d="M69.59,174.44 L20.4,146 C35.11,97.2 63.56,48.79 99.03,12.36 L148.4,40.9 C112.89,77.26 84.38,125.64 69.59,174.44 Z" fill="#2C7D99"></path>
                        </g>
                        <g transform="translate(21.000000, 21.000000)">
                            <g id="Shape">
                                <path d="M3.61,74.3 L16,67.18 C17.4806877,66.2153799 18.5636525,64.7489391 19.05,63.05 C20.1080909,59.425721 21.4764847,55.8993467 23.14,52.51 C23.96,50.8 24.06,49.08 23.38,48.12 L17.18,39.4 C16.26,38.11 16.8,35.48 18.38,33.52 L28.21,21.29 C28.6668935,20.7045458 29.2258865,20.2065338 29.86,19.82 C30.5504943,19.3309906 31.4480803,19.243514 32.22,19.59 L44.83,27 C45.32,26.69 45.83,26.37 46.31,26.08 C47.6333961,25.328057 49.0027646,24.6600724 50.41,24.08 C50.5732341,24.0175533 50.7305321,23.9405777 50.88,23.85 C52.1892209,23.010808 53.1896361,21.7681871 53.73,20.31 L59.86,4.47 C60.4037036,3.00552219 61.4071056,1.75653236 62.72,0.91 C63.2162205,0.599102945 63.7949344,0.445708912 64.38,0.47 L74.25,1.32 C74.4972252,1.33811765 74.7368594,1.41343126 74.95,1.54 L108.95,21.29 L108.84,21.29 C109.95,21.83 110.25,23.59 109.47,25.61 L106.42,33.5 L125.49,44.58 C126.183741,45.052503 126.566586,45.864135 126.49,46.7 L126.49,59.78 C126.364636,62.1010109 125.138481,64.2226293 123.19,65.49 L110.86,72.61 C109.373666,73.5708378 108.2864,75.0382914 107.8,76.74 C106.740999,80.365788 105.376098,83.8951274 103.72,87.29 C102.89,88.98 102.8,90.72 103.47,91.67 L109.68,100.38 C110.59,101.67 110.06,104.31 108.48,106.28 L98.64,118.5 C98.1893311,119.084836 97.6330659,119.580048 97,119.96 C96.2581706,120.520137 95.247477,120.563907 94.46,120.07 L94.64,120.2 L82,112.7 C81.5,113.01 81,113.33 80.51,113.62 C79.1888444,114.376184 77.8191982,115.044304 76.41,115.62 C76.2527695,115.688611 76.0992273,115.765382 75.95,115.85 C74.640564,116.693404 73.6404106,117.939209 73.1,119.4 L66.96,135.24 C66.4194897,136.706287 65.4153497,137.956196 64.1,138.8 C63.6073844,139.110685 63.0319042,139.264147 62.45,139.24 L52.57,138.39 C52.2436259,138.363303 51.9331523,138.237718 51.68,138.03 C51.75,138.08 51.8,138.14 51.87,138.18 L17.87,118.43 C16.87,117.83 16.58,116.1 17.34,114.15 L20.39,106.26 L1.32,95.18 C0.626303422,94.7028298 0.244002547,93.8885289 0.32,93.05 L0.32,79.98 C0.450862246,77.6711629 1.67236435,75.5623082 3.61,74.3 Z" fill="#414042"></path>
                                <path d="M63.8,39.57 C63.1658865,39.9565338 62.6068935,40.4545458 62.15,41.04 L52.31,53.27 C50.73,55.27 50.2,57.86 51.11,59.16 L57.32,67.87 C57.99,68.87 57.9,70.55 57.07,72.26 C55.4145514,75.6505374 54.0528966,79.1767883 53,82.8 C52.528771,84.4924351 51.4637926,85.9585554 50,86.93 L37.66,94.05 C35.7129023,95.3173023 34.4899,97.4398991 34.37,99.76 L34.37,112.84 C34.37,114.94 35.86,115.78 37.69,114.73 L50,107.61 C51.35,106.83 52.56,107.06 53.07,108.21 C54.0137222,110.417743 55.422402,112.396034 57.2,114.01 C58.04,114.75 58.14,116.37 57.47,118.09 L51.34,133.93 C50.43,136.27 50.98,138.29 52.56,138.42 L62.44,139.27 C63.0219042,139.294147 63.5973844,139.140685 64.09,138.83 C65.4053497,137.986196 66.4094897,136.736287 66.95,135.27 L73.09,119.43 C73.6304106,117.969209 74.630564,116.723404 75.94,115.88 C76.0892273,115.795382 76.2427695,115.718611 76.4,115.65 C77.8091982,115.074304 79.1788444,114.406184 80.5,113.65 C81.9167631,112.82848 83.2856415,111.927023 84.6,110.95 C84.747845,110.841827 84.9014,110.741682 85.06,110.65 C86.23,109.97 87.33,110.05 87.93,110.89 L94.13,119.61 C94.75,120.47 95.86,120.51 97.01,119.85 C97.6430659,119.470048 98.1993311,118.974836 98.65,118.39 L108.49,106.17 C110.07,104.17 110.6,101.56 109.69,100.27 L103.48,91.56 C102.81,90.61 102.9,88.87 103.73,87.18 C105.386098,83.7851274 106.750999,80.255788 107.81,76.63 C108.2964,74.9282914 109.383666,73.4608378 110.87,72.5 L123.2,65.38 C125.148481,64.1126293 126.374636,61.9910109 126.5,59.67 L126.5,46.59 C126.5,44.5 125.01,43.65 123.18,44.7 L110.85,51.82 C109.5,52.6 108.29,52.36 107.78,51.23 C106.835327,49.0198981 105.426885,47.0385298 103.65,45.42 C102.81,44.68 102.71,43.07 103.38,41.34 L109.51,25.5 C110.42,23.15 109.87,21.14 108.29,21.01 L98.42,20.16 C97.8352079,20.1381889 97.2572113,20.2913928 96.76,20.6 C95.4471056,21.4465324 94.4437036,22.6955222 93.9,24.16 L87.71,40 C87.1827422,41.462654 86.183535,42.7081446 84.87,43.54 C84.719493,43.6286613 84.5623584,43.7055569 84.4,43.77 C82.9916654,44.3666116 81.6222901,45.0512993 80.3,45.82 C78.8819064,46.6357199 77.512888,47.5339295 76.2,48.51 C76.04,48.62 75.89,48.73 75.73,48.82 C74.56,49.49 73.47,49.41 72.87,48.57 L66.67,39.85 C66.05,39 64.94,38.92 63.8,39.57 Z" fill="#808285"></path>
                            </g>
                            <g transform="translate(52.000000, 48.000000)" id="Oval">
                                <ellipse fill="#FFDC48" transform="translate(28.382848, 31.666928) rotate(-58.940000) translate(-28.382848, -31.666928) " cx="28.3828482" cy="31.6669278" rx="27.14" ry="15.67"></ellipse>
                                <ellipse fill="#414042" transform="translate(29.069881, 32.427966) rotate(-58.940000) translate(-29.069881, -32.427966) " cx="29.0698805" cy="32.4279657" rx="13.49" ry="7.79"></ellipse>
                            </g>
                        </g>
                        <path d="M119.21,202.9 L70,174.47 C84.71,125.67 113.16,77.25 148.63,40.83 L198,69.37 C162.51,105.73 134,154.11 119.21,202.9 Z" id="Shape" fill="#4AF6FF"></path>
                    </g>
                    <g transform="translate(66.000000, 129.000000)">
                        <g id="Shape">
                            <path d="M3.57,74 L15.9,66.88 C17.3825754,65.9173833 18.4661225,64.4501539 18.95,62.75 C19.9984703,59.1378035 21.3533894,55.6217048 23,52.24 C23.83,50.53 23.92,48.81 23.25,47.85 L17.04,39.13 C16.12,37.84 16.66,35.21 18.24,33.25 L28.11,21 C28.5672011,20.4111245 29.1301453,19.9126137 29.77,19.53 C30.4566617,19.0407962 31.3515181,18.9532145 32.12,19.3 L44.78,26.66 C45.27,26.35 45.78,26.03 46.27,25.75 C47.5925167,24.9963905 48.9619926,24.3283535 50.37,23.75 C50.5315187,23.6836736 50.6885212,23.6068426 50.84,23.52 C52.1459825,22.6797292 53.1428893,21.4371059 53.68,19.98 L59.82,4.14 C60.3566098,2.67443119 61.3573905,1.42433312 62.67,0.58 C63.1662205,0.269102945 63.7449344,0.115708912 64.33,0.14 L74.2,0.99 C74.4503191,1.00837736 74.6931466,1.0836197 74.91,1.21 L108.91,20.96 L108.8,20.91 C109.91,21.45 110.22,23.21 109.44,25.23 L106.38,33.12 L125.46,44.2 C126.157148,44.6695859 126.541004,45.4833612 126.46,46.32 L126.46,59.4 C126.334636,61.7210109 125.108481,63.8426293 123.16,65.11 L110.83,72.23 C109.346806,73.19418 108.260512,74.6603217 107.77,76.36 C106.710999,79.985788 105.346098,83.5151274 103.69,86.91 C102.86,88.6 102.77,90.34 103.44,91.29 L109.65,100 C110.57,101.29 110.03,103.94 108.45,105.9 L98.62,118.12 C98.1658565,118.705301 97.6062321,119.200484 96.97,119.58 C96.2323268,120.14124 95.2236009,120.185097 94.44,119.69 L94.61,119.82 L81.95,112.46 C81.46,112.77 80.95,113.09 80.46,113.38 C79.1388444,114.136184 77.7691982,114.804304 76.36,115.38 C76.2060493,115.448678 76.0558394,115.525452 75.91,115.61 C74.59486,116.449579 73.5904535,117.696307 73.05,119.16 L66.89,135 C66.3494897,136.466287 65.3453497,137.716196 64.03,138.56 C63.5376414,138.871274 62.9619743,139.024785 62.38,139 L52.51,138.15 C52.1827099,138.127216 51.8710904,138.001167 51.62,137.79 C51.6788507,137.84543 51.742425,137.895621 51.81,137.94 L17.81,118.19 C16.81,117.59 16.53,115.87 17.28,113.91 L20.34,106.02 L1.26,94.94 C0.567936619,94.4660661 0.185584839,93.6554804 0.26,92.82 L0.26,79.74 C0.38144101,77.4072923 1.61186383,75.2735681 3.57,74 Z" fill="#414042"></path>
                            <path d="M63.75,39.31 C63.1137679,39.689516 62.5541435,40.1846989 62.1,40.77 L52.27,53 C50.69,55 50.15,57.59 51.07,58.89 L57.27,67.6 C57.95,68.6 57.85,70.28 57.03,71.99 C55.3681121,75.38006 53.9997735,78.9062922 52.94,82.53 C52.4561225,84.2301539 51.3725754,85.6973833 49.89,86.66 L37.55,93.78 C35.6065366,95.0507409 34.3846976,97.1713187 34.26,99.49 L34.26,112.57 C34.26,114.67 35.74,115.51 37.57,114.46 L50,107.34 C51.34,106.56 52.55,106.79 53.06,107.94 C54.011821,110.143188 55.4193555,112.119871 57.19,113.74 C58.03,114.48 58.13,116.1 57.46,117.82 L51.33,133.66 C50.42,136.01 50.97,138.02 52.56,138.15 L62.43,139 C63.0119743,139.024785 63.5876414,138.871274 64.08,138.56 C65.3953497,137.716196 66.3994897,136.466287 66.94,135 L73,119.16 C73.5404535,117.696307 74.54486,116.449579 75.86,115.61 C76.0058394,115.525452 76.1560493,115.448678 76.31,115.38 C77.7191982,114.804304 79.0888444,114.136184 80.41,113.38 C81.8282131,112.560826 83.1972244,111.659282 84.51,110.68 L84.97,110.38 C86.14,109.7 87.24,109.78 87.84,110.62 L94.04,119.34 C94.66,120.21 95.77,120.24 96.92,119.58 C97.5562321,119.200484 98.1158565,118.705301 98.57,118.12 L108.4,105.9 C109.98,103.9 110.52,101.29 109.6,100 L103.39,91.29 C102.72,90.34 102.81,88.61 103.64,86.91 C105.296098,83.5151274 106.660999,79.985788 107.72,76.36 C108.210512,74.6603217 109.296806,73.19418 110.78,72.23 L123.11,65.11 C125.058481,63.8426293 126.284636,61.7210109 126.41,59.4 L126.41,46.32 C126.41,44.23 124.92,43.38 123.09,44.43 L110.76,51.55 C109.41,52.33 108.2,52.09 107.69,50.96 C106.747935,48.7513275 105.339019,46.7727037 103.56,45.16 C102.73,44.41 102.62,42.8 103.29,41.07 L109.43,25.23 C110.33,22.88 109.78,20.88 108.2,20.74 L98.33,19.89 C97.7456128,19.871774 97.1686354,20.0247078 96.67,20.33 C95.3571056,21.1765324 94.3537036,22.4255222 93.81,23.89 L87.68,39.73 C87.1422143,41.1896492 86.1411998,42.4330146 84.83,43.27 C84.6805321,43.3605777 84.5232341,43.4375533 84.36,43.5 C82.9529048,44.0803843 81.5835556,44.7483595 80.26,45.5 C78.8455409,46.3216163 77.4768499,47.2196112 76.16,48.19 C76.0120149,48.3059297 75.8548279,48.4096062 75.69,48.5 C74.53,49.17 73.43,49.09 72.84,48.25 L66.63,39.53 C66,38.69 64.89,38.65 63.75,39.31 Z" fill="#808285"></path>
                        </g>
                        <g transform="translate(52.000000, 48.000000)" id="Oval">
                            <ellipse fill="#FFDC48" transform="translate(28.331121, 31.400999) rotate(-58.940000) translate(-28.331121, -31.400999) " cx="28.3311209" cy="31.4009994" rx="27.14" ry="15.67"></ellipse>
                            <ellipse fill="#414042" transform="translate(29.028153, 32.162037) rotate(-58.940000) translate(-29.028153, -32.162037) " cx="29.0281532" cy="32.1620373" rx="13.49" ry="7.79"></ellipse>
                        </g>
                    </g>
                </g>
            </g>
        </g>
    </g>
</svg>