<?xml version="1.0" encoding="UTF-8"?>
<svg width="1422px" height="1029px" viewBox="0 0 1422 1029" version="1.1" xmlns="http://www.w3.org/2000/svg" xmlns:xlink="http://www.w3.org/1999/xlink">
    <!-- Generator: Sketch 50.2 (55047) - http://www.bohemiancoding.com/sketch -->
    <title>Asset 3</title>
    <desc>Created with Sketch.</desc>
    <defs></defs>
    <g id="Page-1" stroke="none" stroke-width="1" fill="none" fill-rule="evenodd">
        <g id="Asset-3" fill-rule="nonzero">
            <g id="Group" opacity="0.3" transform="translate(0.000000, 574.000000)" fill="#A7A9AC">
                <polygon id="Shape" points="259.88 129.02 102.14 129.02 102.14 102.31 252.8 102.31 431.23 0.53 444.46 23.73"></polygon>
                <path d="M103.59,90.78 C79.78,77 41.31,77 17.66,90.78 C-5.99,104.56 -5.87,126.78 17.94,140.55 C41.75,154.32 80.22,154.3 103.87,140.55 C127.52,126.8 127.4,104.52 103.59,90.78 Z M78.34,125.78 C68.7,131.39 53.01,131.39 43.34,125.78 C33.67,120.17 33.58,111.09 43.22,105.48 C52.86,99.87 68.56,99.88 78.27,105.48 C87.98,111.08 88,120.21 78.34,125.81 L78.34,125.78 Z" id="Shape"></path>
            </g>
            <g id="Group" opacity="0.3" transform="translate(171.000000, 308.000000)" fill="#A7A9AC">
                <polygon id="Shape" points="1250.07 431.28 743.96 720.63 0.11 289.92 506.22 0.58"></polygon>
            </g>
            <polygon id="Shape" fill="#6BD1D1" points="1421.07 686.21 914.96 975.55 171.11 544.84 677.22 255.5"></polygon>
            <polygon id="Shape" fill="#414042" points="1059.27 838.61 914.96 922.47 171.11 491.76 315.42 407.9"></polygon>
            <g id="Group" transform="translate(0.000000, 534.000000)">
                <polygon id="Shape" fill="#414042" points="259.88 129.05 102.14 129.05 102.14 102.34 252.8 102.34 431.23 0.56 444.46 23.76"></polygon>
                <g transform="translate(0.000000, 80.000000)" id="Shape">
                    <path d="M103.59,10.55 C127.4,24.29 127.52,46.55 103.87,60.32 C80.22,74.09 41.74,74.07 17.94,60.32 C-5.86,46.57 -5.99,24.32 17.66,10.54 C41.31,-3.24 79.78,-3.2 103.59,10.55 Z" fill="#414042"></path>
                    <path d="M78.23,25.29 C87.94,30.89 87.99,39.98 78.34,45.59 C68.69,51.2 53.01,51.19 43.34,45.59 C33.67,39.99 33.58,30.89 43.22,25.29 C52.86,19.69 68.52,19.68 78.23,25.29 Z" fill="#FFFFFF"></path>
                </g>
            </g>
            <g id="Group" opacity="0.3" transform="translate(341.000000, 807.000000)" fill="#A7A9AC">
                <polygon id="Shape" points="0.52 65.58 49.13 93.83 161.83 28.68 113.23 0.44"></polygon>
            </g>
            <polygon id="Shape" fill="#FFFFFF" points="1059.27 785.53 914.96 869.39 741.32 768.5 885.63 684.63"></polygon>
            <g id="Group" transform="translate(298.000000, 477.000000)">
                <path d="M119.4,283.44 C127.95,283.86 127.54,292.89 126.8,301 C126.06,309.11 128.35,332 114.37,330.35 C100.39,328.7 104.1,310 106.53,301.17 C108.96,292.34 110.83,283 119.4,283.44 Z" id="Shape" fill="#A8968E"></path>
                <path d="M166.25,279.2 C174.51,277.27 176.56,286 178.06,293.93 C179.56,301.86 187.95,323.07 174.17,325.29 C160.39,327.51 158.87,308.7 158.78,299.6 C158.69,290.5 158,281.13 166.25,279.2 Z" id="Shape" fill="#A8968E"></path>
                <path d="M177.71,56.64 C177.71,56.64 169.46,56.52 168.27,53.45 C167.08,50.38 167.78,44.98 167.16,43.51 C166.54,42.04 165.44,37.86 160.54,37.74 C155.64,37.62 153.54,39.97 153.17,42.41 C152.695629,44.6787824 152.050458,46.9084663 151.24,49.08 L136.85,57.25 C136.85,57.25 141.27,75.54 155.85,75.54 C175,75.54 177.71,56.64 177.71,56.64 Z" id="Shape" fill="#FFD0C5"></path>
                <g transform="translate(112.000000, 149.000000)" fill="#555456" id="Shape">
                    <path d="M73.3,0.58 L60.1,141.77 C60.1,141.77 58.93,144.71 56.58,144.41 C52.19,143.87 51.4,140.88 51.4,140.88 L43.4,12.42 L73.3,0.58 Z"></path>
                    <path d="M65.66,13.14 L49.1,30.58 L12.1,144.15 C12.1,144.15 10.03,149.84 5.63,149.33 C1.23,148.82 0.71,142.85 0.71,142.85 L19.82,4 L65.66,13.14 Z"></path>
                </g>
                <path d="M276.45,66.65 L296.31,62.06 C296.31,62.06 299.97,55.35 305.38,52.96 C309.48,51.15 309.79,56.25 309.79,56.25 C309.79,56.25 324.37,51.25 329.52,54.01 C334.67,56.77 327.78,66.01 314.52,69.3 C301.26,72.59 294.52,70.99 294.52,70.99 L277.9,75.54 L276.45,66.65 Z" id="Shape" fill="#FFE6DE"></path>
                <path d="M47.25,110.64 L35.08,115.53 C35.08,115.53 30.24,105.75 26.29,106.86 C23.53,107.63 25.2,116.07 25.2,116.07 C25.2,116.07 19.83,117.3 14.89,118.51 C8.36,120.1 -0.67,121.76 0.07,126.83 C1.07,133.58 13.15,134.92 22.07,132.61 C33.15,129.73 37.88,122.55 37.88,122.55 L50,119.44 L47.25,110.64 Z" id="Shape" fill="#FFE6DE"></path>
                <path d="M173.4,53.1 L171.4,56.31 C167.286067,62.8800954 158.658625,64.928946 152.03,60.91 L139.15,53.1 L40.02,108.1 L48.53,123.82 L130.1,86.82 L126.42,157.48 C136.354672,166.284829 149.145428,171.187952 162.42,171.28 C184.42,171.28 186.24,160.17 186.24,160.17 L200.9,81.57 L290,78.1 L287.55,61.1 L173.4,53.1 Z" id="Shape" fill="#F769BA"></path>
                <path d="M176.31,20 C176.43,25.67 174.83,28.15 175.55,34.85 C176.6,44.64 169.55,50.1 164.13,50.11 C157.8,50.11 153.4,46.65 149.78,41.57 C146.16,36.49 137.57,20.12 148.4,11.14 C159.23,2.16 176.1,9.82 176.31,20 Z" id="Shape" fill="#FFE6DE"></path>
                <path d="M179.3,21.07 C180.94,17.14 180.15,12.57 177.23,8.27 C172.32,1.02 157.63,-2.1 147.14,4.32 C135.4,11.5 137.81,24.02 140.14,28.43 C142.204472,32.2040436 144.81233,35.6542325 147.88,38.67 C147.88,38.67 141.16,25.41 144.66,23.89 C148.16,22.37 149.4,32.29 149.4,32.29 L152.46,31.95 L152.21,24.87 L172.96,18.07 L175.96,25.74 C177.494671,24.532525 178.653286,22.9125446 179.3,21.07 Z" id="Shape" fill="#F769BA"></path>
            </g>
            <g id="Group" transform="translate(664.000000, 171.000000)">
                <path d="M289.11,260.28 C281.27,263.41 284.34,271.72 287.17,279.28 C290.39,287.82 296.4,308.45 308.9,302.41 C321.4,296.37 311.9,280.18 306.81,272.7 C301.72,265.22 297,257.13 289.11,260.28 Z" id="Shape" fill="#726658"></path>
                <path d="M230.65,247.42 C222.54,248.26 223.65,256.2 224.22,263.93 C224.77,271.88 224.7,294.03 237.91,291.72 C251.12,289.41 246.59,271.88 243.82,263.58 C241.05,255.28 238.77,246.57 230.65,247.42 Z" id="Shape" fill="#726658"></path>
                <path d="M147.54,60.23 C147.54,60.23 155.29,57.42 155.42,54.13 C155.55,50.84 153.12,45.97 153.22,44.38 C153.32,42.79 153,38.48 157.6,36.76 C162.2,35.04 164.94,36.58 166.08,38.76 C167.265944,40.7497894 168.603224,42.6453836 170.08,44.43 L186.35,47.43 C186.35,47.43 188.14,66.16 174.35,70.9 C156.26,77.22 147.54,60.23 147.54,60.23 Z" id="Shape" fill="#FFD0C5"></path>
                <g transform="translate(170.000000, 137.000000)" fill="#555456" id="Shape">
                    <path d="M0.72,13.55 L12.72,81 L57.6,121.21 C57.6,121.21 60.47,123.63 63.18,122.14 C64.9529363,121.130033 65.9642203,119.17018 65.76,117.14 L33.86,74.88 L38.33,22.88 L0.72,13.55 Z"></path>
                    <path d="M14.34,21.61 L35.68,32.69 L116.68,131.04 C116.68,131.04 120.5,135.75 124.49,133.82 C128.48,131.89 127.02,126.09 127.02,126.09 L52.48,0.68 L14.34,21.61 Z"></path>
                </g>
                <path d="M57.48,101.94 L37.21,104.09 C37.21,104.09 28.67,91.84 23.59,94.88 C20.21,96.88 24.2,102.98 24.2,102.98 C24.2,102.98 2.58,103.22 0.95,108.86 C-1.16,116.16 8.95,118.86 22.59,117.92 C28.5542866,117.547552 34.296302,115.518106 39.17,112.06 L59,110.82 L57.48,101.94 Z" id="Shape" fill="#FFE6DE"></path>
                <path d="M276,90.84 L288.21,98.45 C288.21,98.45 296.35,89.99 298.78,91.5 C301.21,93.01 296.03,101.25 296.03,101.25 C296.03,101.25 300.97,104.36 305.44,106.8 C308.75,108.6 317.53,114.23 316.52,119.25 C315.13,126.19 298.59,121.54 291.06,116.25 C286.590995,113.162672 283.365504,108.586729 281.96,103.34 L271.45,96.52 L276,90.84 Z" id="Shape" fill="#FFE6DE"></path>
                <path d="M150.45,55.48 L153.4,57.86 C159.438067,62.7265739 168.266515,61.8352616 173.21,55.86 L182.84,44.27 L284.13,90.57 L275,105.73 L208.72,82 L225.72,136.87 C225.72,136.87 225.32,154.38 200.94,163.09 C180.23,170.49 168.71,158.73 168.71,158.73 L135.4,94.49 C121.073293,101.217875 106.265729,106.870153 91.1,111.4 C78.01,115.13 48.4,117.19 48.4,117.19 L45.18,100.37 C45.18,100.37 70.54,96.04 85.18,90.68 C106.1,83 150.45,55.48 150.45,55.48 Z" id="Shape" fill="#FF7640"></path>
                <path d="M136.89,25.14 C138.63,30.53 140.95,32.35 142.46,38.93 C144.66,48.52 153.11,51.38 158.24,49.62 C164.24,47.57 167.24,42.84 169.01,36.86 C170.78,30.88 173.54,12.6 160.37,7.65 C147.2,2.7 133.77,15.46 136.89,25.14 Z" id="Shape" fill="#FFE6DE"></path>
                <path d="M134.42,27.14 C131.59,23.96 130.84,19.38 132.19,14.36 C134.47,5.91 147.33,-1.85 159.34,0.8 C172.78,3.8 174.6,16.37 173.88,21.29 C173.150348,25.530369 171.80267,29.6407844 169.88,33.49 C169.88,33.49 171.88,18.76 168.1,18.49 C164.32,18.22 166.36,27.99 166.36,27.99 L163.36,28.66 L161.29,21.89 L139.45,22.23 L139.15,30.45 C137.289531,29.8211242 135.64813,28.6724904 134.42,27.14 Z" id="Shape" fill="#FF7640"></path>
            </g>
            <g id="Group" transform="translate(553.000000, 348.000000)">
                <polygon id="Shape" fill="#FFC950" points="90.65 0.98 0.98 53.09 0.98 152.41 91.27 204.54 156.06 166.87 156.03 138.27 180.94 123.86 180.94 53.11"></polygon>
                <polygon id="Shape" fill="#FFDE52" points="180.94 53.11 91.27 105.22 0.98 53.09 90.65 0.98"></polygon>
                <polygon id="Shape" fill="#FFBE55" points="0.98 53.09 0.98 152.41 91.27 204.54 91.27 105.22"></polygon>
                <g transform="translate(42.000000, 49.000000)" id="Shape">
                    <polygon fill="#FFC950" points="49.13 109.48 97.27 81.5 97.27 28.19 48.79 0.2 0.65 28.18 0.65 81.5"></polygon>
                    <polygon fill="#FFDE52" points="0.65 81.5 48.79 53.52 97.27 81.5 49.13 109.48"></polygon>
                    <polygon fill="#FFBE55" points="97.27 81.5 97.27 28.19 48.79 0.2 48.79 53.52"></polygon>
                </g>
            </g>
            <g id="Group" transform="translate(595.000000, 199.000000)">
                <polygon id="Shape" fill="#FFC950" points="49.13 109.3 97.27 81.32 97.27 28 48.79 0.01 0.65 27.99 0.65 81.31"></polygon>
                <polygon id="Shape" fill="#FFDE52" points="0.65 27.99 48.79 0.01 97.27 28 49.13 55.97"></polygon>
            </g>
            <g id="Group" transform="translate(1006.000000, 25.000000)">
                <polygon id="Shape" fill="#FFC950" points="14.75 92.37 68.57 106.63 106.27 68.92 91.79 14.86 37.96 0.6 0.26 38.31"></polygon>
                <polygon id="Shape" fill="#FFDE52" points="37.96 0.6 91.79 14.86 106.27 68.92 52.45 54.67"></polygon>
            </g>
            <g id="Group" transform="translate(1206.000000, 401.000000)">
                <polygon id="Shape" fill="#FFC950" points="58.64 58.06 67.64 24.09 43.85 0.3 9.72 9.44 0.73 43.41 24.52 67.2"></polygon>
                <polygon id="Shape" fill="#FFDE52" points="0.73 43.41 9.72 9.44 43.85 0.3 34.85 34.27"></polygon>
            </g>
            <g id="Group" transform="translate(308.000000, 45.000000)">
                <polygon id="Shape" fill="#FFC950" points="9.21 58.07 43.18 67.07 66.97 43.28 57.83 9.16 23.86 0.16 0.07 23.95"></polygon>
                <polygon id="Shape" fill="#FFDE52" points="23.86 0.16 57.83 9.16 66.97 43.28 33.01 34.28"></polygon>
            </g>
            <g id="Group" transform="translate(1025.000000, 555.000000)">
                <polygon id="Shape" fill="#FFC950" points="9.96 58.66 43.92 67.66 67.72 43.87 58.58 9.75 24.61 0.75 0.81 24.54"></polygon>
                <polygon id="Shape" fill="#FFDE52" points="24.61 0.75 58.58 9.75 67.72 43.87 33.75 34.87"></polygon>
            </g>
            <g id="Group" transform="translate(726.000000, 498.000000)">
                <polygon id="Shape" fill="#FFC950" points="26.25 58.01 51.52 43.32 51.52 15.32 26.07 0.63 0.8 15.32 0.8 43.31"></polygon>
                <polygon id="Shape" fill="#FFDE52" points="0.8 15.32 26.07 0.63 51.52 15.32 26.25 30.01"></polygon>
            </g>
            <g id="Group" transform="translate(463.000000, 332.000000)">
                <polygon id="Shape" fill="#FFC950" points="26.29 57.57 51.57 42.89 51.57 14.89 26.12 0.2 0.84 14.88 0.84 42.88"></polygon>
                <polygon id="Shape" fill="#FFDE52" points="0.84 14.88 26.12 0.2 51.57 14.89 26.29 29.58"></polygon>
            </g>
            <rect id="Rectangle-path" fill="#FFDE52" transform="translate(418.518348, 178.698312) rotate(45.000000) translate(-418.518348, -178.698312) " x="402.188348" y="162.368312" width="32.66" height="32.66"></rect>
            <rect id="Rectangle-path" fill="#FFDE52" transform="translate(726.793195, 19.417222) rotate(45.000000) translate(-726.793195, -19.417222) " x="713.063195" y="5.68722226" width="27.46" height="27.46"></rect>
            <rect id="Rectangle-path" fill="#FFDE52" x="410.25" y="241.58" width="16.54" height="113.58" rx="8.11"></rect>
            <rect id="Rectangle-path" fill="#FFDE52" transform="translate(1326.626778, 150.307218) rotate(45.000000) translate(-1326.626778, -150.307218) " x="1310.29678" y="133.977218" width="32.66" height="32.66"></rect>
            <rect id="Rectangle-path" fill="#FFDE52" x="1318.36" y="213.19" width="16.54" height="113.58" rx="8.11"></rect>
            <rect id="Rectangle-path" fill="#FFDE52" x="718.53" y="78.62" width="16.54" height="76.98" rx="8.11"></rect>
            <g id="Group" opacity="0.3" transform="translate(787.000000, 730.000000)" fill="#A7A9AC">
                <polygon id="Shape" points="0.54 65.46 49.15 93.71 161.85 28.56 113.25 0.32"></polygon>
            </g>
            <g id="Group" transform="translate(741.000000, 462.000000)">
                <path d="M146.88,152.51 C144.816351,166.620973 141.380054,180.496782 136.62,193.94 C132.76,205 136.04,219.38 136.72,222.53 C144.3,257.53 136.32,289.34 139.12,301.13 C139.97,304.71 138.32,311.28 129.58,312.33 C128.32,312.48 126.33,312.26 126.46,311.05 C126.46,310.48 129.46,307.4 129.7,302.83 C130.02,295.51 120.15,226.59 120.15,226.59 C117.973493,218.755085 116.379148,210.769993 115.38,202.7 C113.38,188.78 110.87,134.96 110.87,134.96 C110.87,134.96 150.88,124.39 146.88,152.51 Z" id="Shape" fill="#7690B7"></path>
                <path d="M140.55,301.44 C143.04,302.91 146.45,317.17 144.22,319.11 C141.99,321.05 140.74,321.71 139.45,321.6 C137.966338,321.382893 136.560431,320.79853 135.36,319.9 C134.832828,319.160862 134.52754,318.286629 134.48,317.38 C134.48,317.38 130.92,317.93 129.38,318.19 C127.84,318.45 120.84,316.42 120.07,313.69 C119.3,310.96 129.13,305.9 128.82,306.85 C128.58,307.59 126.36,310.44 128.13,310.62 C129.9,310.8 134.96,304.7 136.48,303.34 C138,301.98 138.92,300.47 140.55,301.44 Z" id="Shape" fill="#58595B"></path>
                <g id="Shape">
                    <path d="M55.13,37.63 C57.57,38.89 73.95,51.72 91.86,56.13 C102.4,58.71 125.31,59.66 135.42,63.38 C143.53,66.38 144.21,69.11 142.94,71.73 C140.29,77.19 134.27,77.49 123.88,76.79 C118.98,76.47 109.2,73.52 86.14,69.12 C77.14,67.4 54.82,48.5 54.82,48.5 C54.82,48.5 49.82,49.61 46.82,47.07 C43.82,44.53 37.66,46.96 34.14,46.67 C30.62,46.38 31.94,38.93 31.94,38.93 C34.5242006,37.6334575 37.2441372,36.6273158 40.05,35.93 C46.54,34.47 50.73,35.36 55.13,37.63 Z" fill="#FFE6DE"></path>
                    <path d="M132.89,169.6 C128.693149,183.234198 123.184033,196.429283 116.44,209 C110.94,219.34 112.01,234 112.2,237.27 C114.36,273.03 103.59,303.89 101.45,316.18 C99.74,326 94.63,325.08 91.45,324.94 C90.19,324.88 88.25,324.37 88.56,323.2 C88.7,322.64 92.12,320.05 93.01,315.57 C94.44,308.38 95.17,238.76 95.17,238.76 C94.2101549,230.68441 93.8491694,222.548866 94.09,214.42 C94.22,200.36 99.94,146.78 99.94,146.78 C99.94,146.78 141.12,142.42 132.89,169.6 Z" fill="#6D81A0"></path>
                    <path d="M114.47,58.67 C125.41,53.67 127.7,52.34 137.09,58.45 C141.09,61.02 145.09,65.92 144.66,76.65 C144.04,92.39 131.02,102.65 137.66,116.86 C151.51,146.52 156.8,157 147.91,181 C145.71,186.94 126.07,202.65 113.08,201.18 C94.83,199.11 85.25,191.27 91.98,167.18 C95.42,154.84 101.9,134.48 100.51,123.69 C98.43,107.48 93.45,102.25 93.27,95.37 C92.92,82.37 97.07,81.37 100.71,72.37 C103,66.74 106.83,62.16 114.47,58.67 Z" fill="#9B8579"></path>
                    <path d="M107.2,9.25 C100.3,10.05 95.84,16.76 95.45,21.96 C95.06,27.16 98.72,33.33 98.53,38.34 C98.34,43.35 96.61,55.87 107.2,56.06 C117.79,56.25 128.39,43.06 129.55,30.06 C130.49,19.42 123.46,7.35 107.2,9.25 Z" fill="#FFE6DE"></path>
                    <path d="M24.11,60.86 C26.55,62.12 42.93,74.95 60.85,79.35 C71.39,81.94 94.3,82.89 104.4,86.61 C112.51,89.61 113.2,92.34 111.93,94.96 C109.27,100.42 103.25,100.71 92.86,100.02 C87.97,99.7 78.19,96.74 55.12,92.35 C46.12,90.63 23.81,71.73 23.81,71.73 C23.81,71.73 18.81,72.83 15.81,70.3 C12.81,67.77 6.65,70.19 3.13,69.9 C-0.39,69.61 0.93,62.16 0.93,62.16 C3.51507884,60.865481 6.23478726,59.8594237 9.04,59.16 C15.52,57.7 19.71,58.58 24.11,60.86 Z" fill="#FFE6DE"></path>
                    <path d="M120,98.58 C125.74,102.18 140.4,91.93 145,88.7 C157.2,80.11 146.23,53.29 143.46,39.17 C141.31,28.17 146.46,17.76 134.19,6.52 C121.19,-5.33 104.7,2.05 99.19,8.13 C89.49,18.79 102.05,31.13 108.36,44.89 C112.41,53.84 109.76,92.16 120,98.58 Z" fill="#00A79D"></path>
                </g>
                <path d="M101.79,316.4 C104.02,318.23 107.41,332.28 104.92,333.85 C102.43,335.42 101.08,335.85 99.82,335.59 C98.3916526,335.142261 97.0941276,334.352761 96.04,333.29 C95.6307275,332.477485 95.4607932,331.565388 95.55,330.66 L90.39,330.66 C88.82,330.66 82.22,327.66 81.88,324.81 C81.54,321.96 92.01,318.49 91.56,319.37 C91.21,320.07 88.56,322.55 90.31,323 C92.06,323.45 95.76,318.76 97.47,317.64 C99.18,316.52 100.32,315.19 101.79,316.4 Z" id="Shape" fill="#58595B"></path>
            </g>
        </g>
    </g>
</svg>