<svg xmlns="http://www.w3.org/2000/svg" viewBox="0 0 427.11 419.09">
  <defs>
    <style>
      .cls-1 {
        fill: #ff7550;
      }

      .cls-2 {
        fill: #d8cabf;
      }

      .cls-3 {
        fill: #58595b;
      }

      .cls-4 {
        fill: #28e0d6;
      }

      .cls-5 {
        fill: #fff;
      }

      .cls-6 {
        fill: #9b8579;
      }

      .cls-7 {
        fill: #f7c7ba;
      }

      .cls-8 {
        fill: #ffe6de;
      }

      .cls-9 {
        isolation: isolate;
      }
    </style>
  </defs>
  <title>Asset 10</title>
  <g id="Layer_2" data-name="Layer 2">
    <g id="elements">
      <g>
        <path class="cls-1" d="M254.38,317.56a5.52,5.52,0,0,1-2.75-.74l-62-35.86a30.84,30.84,0,0,1-15.36-26.62V221.48a5.5,5.5,0,0,1,11,0v32.86a19.78,19.78,0,0,0,9.87,17.09l62,35.86a5.5,5.5,0,0,1-2.76,10.27Z"/>
        <path class="cls-2" d="M192.05,2.46C201.94-3.26,210,1.33,210,12.7V112.85c0,11.37-8,25.22-17.86,30.93L18,244.35C8.07,250.06,0,245.47,0,234.1V134C0,122.59,8,108.74,17.85,103Z"/>
        <path class="cls-3" d="M229.52,24.09c9.89-5.72,17.94-1.13,18,10.24V134.48c0,11.37-8,25.22-17.86,30.93L55.44,266c-9.9,5.71-17.94,1.12-18-10.25V155.59c0-11.37,8-25.22,17.85-30.93Z"/>
        <path class="cls-4" d="M267,45.72C276.88,40,284.93,44.59,285,56V156.11c0,11.37-8,25.22-17.86,30.93L92.91,287.61c-9.9,5.71-17.94,1.12-18-10.25V177.22c0-11.37,8-25.22,17.85-30.93Z"/>
        <path class="cls-1" d="M248.36,407a5.52,5.52,0,0,1-2.75-.74l-55-31.84a21.07,21.07,0,0,1,0-36.45l104.66-60.82a52.65,52.65,0,0,1,52.7-.05l54.66,31.63a5.5,5.5,0,1,1-5.51,9.52L342.4,286.59a41.62,41.62,0,0,0-41.66,0L196.08,347.45a10.07,10.07,0,0,0,0,17.42l55,31.84A5.5,5.5,0,0,1,248.36,407Z"/>
        <g>
          <polygon class="cls-5" points="139.95 139.09 140 155.77 113.54 171.05 113.49 154.36 139.95 139.09"/>
          <polygon class="cls-5" points="210.33 185.43 210.38 202.12 153.47 234.97 153.43 218.29 210.33 185.43"/>
          <polygon class="cls-5" points="236.71 141.21 236.75 157.9 179.85 190.75 179.81 174.06 236.71 141.21"/>
          <polygon class="cls-5" points="210.09 98.59 210.13 115.28 153.23 148.13 153.18 131.45 210.09 98.59"/>
          <polygon class="cls-5" points="166.57 181.7 166.62 198.39 140.16 213.66 140.12 196.98 166.57 181.7"/>
          <polygon class="cls-5" points="166.49 152.76 166.54 169.44 140.08 184.72 140.03 168.03 166.49 152.76"/>
          <polygon class="cls-5" points="236.63 112.27 236.67 128.95 179.77 161.81 179.72 145.12 236.63 112.27"/>
          <polygon class="cls-5" points="140.2 225.93 140.24 242.61 113.78 257.88 113.74 241.2 140.2 225.93"/>
        </g>
        <g>
          <g>
            <path class="cls-6" d="M317.27,303.47c3,.67,3.5,2.56,3.67,3.51s.85,3.56.88,4.47c0,1.15-3.71,4.15-5,4.81a1.8,1.8,0,0,1-2,.07,18.74,18.74,0,0,1-5.48,4.07c-3.85,1.9-8.58,1.12-8.71-2.49-.1-2.86,2.95-4.31,6.42-7.43s4.33-4.87,5.46-5.8A5.42,5.42,0,0,1,317.27,303.47Z"/>
            <path class="cls-6" d="M338.12,313c-4.32-.48-4.84,4.08-5.13,8.21s-3.28,15.45,3.88,15.74,6.79-9.37,6.29-14S342.46,313.51,338.12,313Z"/>
            <path class="cls-7" d="M314.1,163.11s5,.73,6-1,1.12-5.08,1.64-5.92,1.59-3.25,4.58-2.85,4,2,4,3.55a27.46,27.46,0,0,0,.52,4.23l7.93,6.36s-8.63,11.63-17.45,10.21C309.73,175.8,314.1,163.11,314.1,163.11Z"/>
            <g>
              <path class="cls-3" d="M310,226.47,313.82,305s.43,1.9,1.88,2c2.72.09,3.41-2.7,3.41-2.7L329.26,229Z"/>
              <path class="cls-3" d="M314.91,229.57l8.41,12,11.28,72.68s.7,3.66,3.42,3.77,3.61-3.44,3.61-3.44l2-86.09Z"/>
            </g>
            <path class="cls-8" d="M265.72,148.18,260.1,137s1.74-4.36.75-7.86c-.75-2.64-3.28-.8-3.28-.8s-3.33-8.87-6.68-10.2-5,5.51-1.33,13.1,7,10.1,7,10.1l4.36,9.64Z"/>
            <path class="cls-1" d="M316.62,162.78l2.55,10.39,14.14-10.93s26.53,4.42,30.88,20.48C371,207.67,335.6,205.1,335.6,205.1l-.43-10.57L351.08,188l-4.5,40.51s-3.19,8.64-21,5.93c-13.35-2-16.54-6.91-16.54-6.91L298,179a151.2,151.2,0,0,1-20.17-8.78c-11.87-6.27-21.25-25.34-21.25-25.34l7.3-3.82s6.63,12.44,24.57,17.1A167.35,167.35,0,0,0,316.62,162.78Z"/>
            <path class="cls-8" d="M315.36,139.65c-.66,3.64.11,5.41-1.05,9.66-1.69,6.21-.65,9.37,2.67,10.59,6,2.23,10.4-.67,13.27-3.57s10.1-12.59,4-19.51S316.55,133.11,315.36,139.65Z"/>
            <path class="cls-2" d="M313.32,140c-.05-5,8.71-15,22.49-7.48,7.91,4.29,4,13.68,2.05,16.29a28.66,28.66,0,0,1-6.06,5.81s5.72-7.87,3.61-9.21-3.79,5.3-3.79,5.3l-1.25-.05,0-6.15A28.2,28.2,0,0,1,323,145c-4.65-.24-6.42-2.93-6.42-2.93L315,143.4A3.86,3.86,0,0,1,313.32,140Z"/>
          </g>
          <path class="cls-3" d="M290.05,177.81,324.67,189a2.36,2.36,0,0,1,1.12.77l11.42,14a2.39,2.39,0,0,1-2.63,3.77l-32.08-11a2.33,2.33,0,0,1-.92-.58l-14-14.17A2.39,2.39,0,0,1,290.05,177.81Z"/>
          <path class="cls-8" d="M316.45,198.17a1.78,1.78,0,0,1,2.09-2.45c2.78.77,6.7,2.17,8.13,2.34,3.7.45,3-3.62,3-3.62l-1.76-2.17a6.47,6.47,0,0,1,7.3,2.26c3.21,3.93,3.91,8.61-2.2,10.11a15.91,15.91,0,0,1-14.69-3.84A8.1,8.1,0,0,1,316.45,198.17Z"/>
        </g>
        <g>
          <g class="cls-9">
            <path class="cls-1" d="M272.8,297.28c11.92,6.88,12,18,.14,24.92s-31.11,6.89-43,0-12-18-.14-24.93S260.88,290.4,272.8,297.28Z"/>
          </g>
          <g class="cls-9">
            <path class="cls-5" d="M262.3,303.38c6.09,3.51,6.12,9.21.07,12.72s-15.88,3.52-22,0-6.12-9.21-.07-12.72S256.22,299.87,262.3,303.38Z"/>
          </g>
        </g>
        <g>
          <g class="cls-9">
            <path class="cls-1" d="M269.76,389c11.93,6.88,12,18,.14,24.92s-31.1,6.89-43,0-12-18-.14-24.92S257.84,382.12,269.76,389Z"/>
          </g>
          <g class="cls-9">
            <path class="cls-5" d="M259.27,395.11c6.08,3.51,6.11,9.21.07,12.72s-15.88,3.51-22,0-6.11-9.21-.07-12.72S253.18,391.6,259.27,395.11Z"/>
          </g>
        </g>
        <g>
          <g class="cls-9">
            <path class="cls-1" d="M418.13,299.59c11.92,6.89,12,18,.14,24.93s-31.11,6.88-43,0-12-18-.14-24.93S406.2,292.71,418.13,299.59Z"/>
          </g>
          <g class="cls-9">
            <path class="cls-5" d="M407.63,305.69c6.08,3.52,6.11,9.21.07,12.73s-15.88,3.51-22,0-6.11-9.21-.07-12.73S401.54,302.18,407.63,305.69Z"/>
          </g>
        </g>
      </g>
    </g>
  </g>
</svg>