<svg xmlns="http://www.w3.org/2000/svg" xmlns:xlink="http://www.w3.org/1999/xlink" viewBox="0 0 493.75 418.49">
  <defs>
    <style>
      .cls-1 {
        fill: #43cfef;
      }

      .cls-2 {
        isolation: isolate;
      }

      .cls-3 {
        fill: #fff;
      }

      .cls-4 {
        fill: #e6e7e8;
      }

      .cls-5 {
        fill: #f1f2f2;
      }

      .cls-6 {
        fill: #ed635d;
      }

      .cls-7 {
        fill: #d1d3d4;
      }

      .cls-8 {
        fill: #ffe05c;
      }

      .cls-9 {
        opacity: 0.1;
        fill: url(#linear-gradient);
      }

      .cls-10 {
        fill: #5aad82;
      }

      .cls-11 {
        fill: #2b3990;
      }

      .cls-11, .cls-12, .cls-13 {
        opacity: 0.05;
      }

      .cls-12 {
        fill: #ef4136;
      }

      .cls-13 {
        fill: #9e1f63;
      }
    </style>
    <linearGradient id="linear-gradient" x1="96.56" y1="193.09" x2="96.56" y2="96.56" gradientUnits="userSpaceOnUse">
      <stop offset="0.4" stop-color="#7593ca" stop-opacity="0"/>
      <stop offset="0.47" stop-color="#6c97ce" stop-opacity="0.12"/>
      <stop offset="1" stop-color="#29b6ed"/>
    </linearGradient>
  </defs>
  <title>Asset 11</title>
  <g id="Layer_2" data-name="Layer 2">
    <g id="elements">
      <g>
        <g>
          <path class="cls-1" d="M481.92,111.65c6.45,3.73,11.68,12.78,11.66,20.2l.17,139.72c0,7.42-5.28,10.4-11.74,6.67L292.75,169c-6.46-3.73-11.67-12.76-11.65-20.18L280.93,9.08c0-7.42,5.26-10.43,11.72-6.7Z"/>
          <g>
            <g class="cls-2">
              <path class="cls-3" d="M457.87,124.88l-189-109.1c-3.24-1.87-6.18-2-8.3-.81l-9.11,5.65h0c-2.11,1.21-3.41,3.81-3.42,7.5l.17,139.49c0,7.41,5.18,16.42,11.63,20.15l189,109.1c3.34,1.92,6.36,2,8.49.7l-.17.11,9.11-5.65c2.09-1.21,3.39-3.8,3.4-7.47l-.17-139.49C469.54,137.64,464.32,128.6,457.87,124.88Z"/>
              <path class="cls-4" d="M460.58,287.77v2.41c0,7.41-5.27,10.39-11.72,6.66l-189-109.09C253.45,184,248.25,175,248.27,167.6v-2.41Z"/>
            </g>
            <path class="cls-5" d="M460.41,150.69c0-7.41-5.2-16.44-11.64-20.17L259.8,21.43c-6.44-3.73-11.68-.73-11.7,6.68l.17,137.08L460.58,287.77Z"/>
            <g>
              <g class="cls-2">
                <polygon class="cls-4" points="442.52 145.92 442.52 253.35 272.85 155.53 272.85 48.1 442.52 145.92"/>
              </g>
              <g class="cls-2">
                <polygon class="cls-6" points="431.96 162.93 431.96 259.5 262.29 161.68 262.29 65.11 431.96 162.93"/>
              </g>
              <g class="cls-2">
                <polygon class="cls-3" points="431.96 152.11 431.96 162.93 262.29 65.11 262.29 54.29 431.96 152.11"/>
              </g>
              <g>
                <path class="cls-7" d="M267.33,59.69a5.59,5.59,0,0,1,2.53,4.39c0,1.61-1.15,2.26-2.55,1.45a5.59,5.59,0,0,1-2.53-4.39C264.78,59.53,265.92,58.88,267.33,59.69Z"/>
                <path class="cls-7" d="M274.13,63.62A5.56,5.56,0,0,1,276.66,68c0,1.62-1.14,2.26-2.55,1.46a5.61,5.61,0,0,1-2.53-4.39C271.59,63.46,272.73,62.81,274.13,63.62Z"/>
                <path class="cls-7" d="M280.93,67.55a5.58,5.58,0,0,1,2.54,4.38c0,1.61-1.15,2.26-2.55,1.45A5.54,5.54,0,0,1,278.39,69C278.39,67.39,279.53,66.74,280.93,67.55Z"/>
              </g>
            </g>
          </g>
          <g>
            <path class="cls-8" d="M450.05,332.84c6.38,3.69,6.43,9.68.07,13.38l-119.59,69.5c-6.36,3.7-16.72,3.7-23.1,0L119.82,307.41c-6.39-3.69-6.42-9.68-.06-13.38l119.59-69.5c6.36-3.7,16.7-3.69,23.09,0Z"/>
            <path class="cls-3" d="M454.83,298.83c.21-2.58-1.37-5.21-4.78-7.18L262.44,183.34c-6.39-3.69-16.73-3.7-23.09,0l-119.59,69.5c-3.17,1.84-4.75,4.25-4.75,6.67V275c0,2.44,1.6,4.88,4.81,6.74L307.43,390.07c6.38,3.69,16.74,3.69,23.1,0l119.59-69.5c3.16-1.83,4.74-4.23,4.74-6.64V298.39C454.86,298.53,454.84,298.68,454.83,298.83Z"/>
            <path class="cls-5" d="M450.05,291.68c6.38,3.68,6.43,9.68.07,13.37l-119.59,69.5c-6.36,3.7-16.72,3.7-23.1,0L119.82,266.24c-6.39-3.68-6.42-9.68-.06-13.38l119.59-69.5c6.36-3.69,16.7-3.69,23.09,0Z"/>
            <polygon class="cls-3" points="329.44 299.48 268.22 335.06 186.95 288.14 248.17 252.56 329.44 299.48"/>
            <g>
              <path class="cls-3" d="M415.61,291.28c-4.55,2.62-4.57,6.87-.06,9.49l4.23,2.46c4.51,2.62,11.85,2.62,16.4,0s4.56-6.87.05-9.5L432,291.28C427.49,288.65,420.15,288.65,415.61,291.28Z"/>
              <g class="cls-2">
                <path class="cls-3" d="M243.57,191.3c-4.54,2.62-4.56,6.88,0,9.5l4.23,2.46c4.51,2.62,11.85,2.62,16.39,0s4.57-6.88.06-9.5L260,191.3C255.46,188.68,248.12,188.68,243.57,191.3Z"/>
                <path class="cls-3" d="M217.72,206.23c-4.55,2.62-4.57,6.88-.06,9.5l24.8,14.41c4.51,2.62,11.85,2.62,16.4,0s4.56-6.88.05-9.5l-24.8-14.41C229.6,203.61,222.26,203.61,217.72,206.23Z"/>
                <path class="cls-3" d="M273.49,208.69c-4.54,2.62-4.57,6.87-.05,9.49l45.37,26.37c4.51,2.62,11.85,2.62,16.39,0s4.57-6.87.05-9.5l-45.36-26.36C285.37,206.06,278,206.06,273.49,208.69Z"/>
                <path class="cls-3" d="M344.55,250c-4.54,2.62-4.57,6.88-.06,9.5l45.37,26.36c4.52,2.63,11.86,2.63,16.4,0s4.57-6.88.05-9.5L360.94,250C356.43,247.36,349.09,247.36,344.55,250Z"/>
                <path class="cls-3" d="M268.2,235.57c-4.54,2.62-4.57,6.88-.05,9.5l75.28,43.75c4.52,2.62,11.86,2.62,16.4,0s4.57-6.88.06-9.5L284.6,235.57C280.09,233,272.75,233,268.2,235.57Z"/>
                <path class="cls-3" d="M369.18,294.25c-4.54,2.62-4.57,6.88-.06,9.5l24.8,14.41c4.51,2.62,11.86,2.62,16.4,0s4.57-6.88.05-9.5l-24.8-14.41C381.06,291.63,373.72,291.63,369.18,294.25Z"/>
              </g>
            </g>
          </g>
        </g>
        <g>
          <circle class="cls-5" cx="96.56" cy="96.56" r="96.56"/>
          <g>
            <rect class="cls-9" x="17.3" y="96.56" width="158.52" height="96.53"/>
            <path class="cls-8" d="M128.23,114.85,89.49,175.33h0c2.33.2,4.68.32,7.07.32A79.11,79.11,0,0,0,166.63,59.86H96.48Z"/>
            <path class="cls-10" d="M64.68,114.76,31.82,50.9h0c-1.34,1.91-2.62,3.89-3.82,6A79.12,79.12,0,0,0,93,175.58l35.22-60.67Z"/>
            <path class="cls-6" d="M94.81,59.9l71.82,0h0c-1.08-2.07-2.26-4.12-3.54-6.12A79.1,79.1,0,0,0,27.79,57.2l37.82,59.09Z"/>
            <polygon class="cls-11" points="96.56 96.56 92.96 175.58 128.18 115.19 96.56 96.56"/>
            <polygon class="cls-12" points="166.63 59.93 96.56 96.56 96.56 59.86 166.63 59.93"/>
            <polygon class="cls-13" points="27.79 57.2 96.56 96.56 65.61 116.28 27.79 57.2"/>
            <circle class="cls-3" cx="96.56" cy="96.56" r="36.7"/>
            <circle class="cls-1" cx="96.56" cy="96.56" r="23.68"/>
          </g>
        </g>
        <g>
          <g class="cls-2">
            <polygon class="cls-3" points="323.22 113.34 323.17 130.13 296.56 114.76 296.61 97.98 323.22 113.34"/>
          </g>
          <polygon class="cls-3" points="366.99 196.94 366.94 213.73 309.7 180.68 309.75 163.89 366.99 196.94"/>
          <polygon class="cls-3" points="393.69 183.19 393.64 199.97 336.4 166.92 336.44 150.14 393.69 183.19"/>
          <polygon class="cls-3" points="393.77 154.07 393.72 170.86 336.48 137.81 336.53 121.03 393.77 154.07"/>
          <polygon class="cls-3" points="323.14 142.46 323.09 159.24 296.48 143.88 296.52 127.1 323.14 142.46"/>
          <polygon class="cls-3" points="296.44 156.21 296.39 173 269.78 157.63 269.83 140.84 296.44 156.21"/>
        </g>
      </g>
    </g>
  </g>
</svg>