<?xml version="1.0" encoding="UTF-8"?>
<svg width="450px" height="401px" viewBox="0 0 450 401" version="1.1" xmlns="http://www.w3.org/2000/svg" xmlns:xlink="http://www.w3.org/1999/xlink">
    <!-- Generator: Sketch 50.2 (55047) - http://www.bohemiancoding.com/sketch -->
    <title>monitor</title>
    <desc>Created with Sketch.</desc>
    <defs></defs>
    <g id="Page-1" stroke="none" stroke-width="1" fill="none" fill-rule="evenodd">
        <g id="monitor" fill-rule="nonzero">
            <polygon id="Shape-Copy" fill="#414042" points="450 281.576827 245.21828 400.580796 0 259.008411 204.78172 140"></polygon>
            <polygon id="Shape" fill="#5298A0" points="450 241.576827 245.21828 360.580796 0 219.008411 204.78172 100"></polygon>
            <g id="Group" transform="translate(116.000000, 0.000000)">
                <polygon id="Shape" fill="#B5B5B5" points="0.19 170.29 192.05 281.06 195.64 278.98 196.11 110.77 4.25 0 0.63 2.08"></polygon>
                <g id="Shape" transform="translate(44.000000, 93.000000)">
                    <polygon fill="#B5B5B5" points="0.1 139.92 50.36 169.03 82.42 150.35 82.42 147.06 31.48 117.98 29.34 119.33 0.06 136.23"></polygon>
                    <g id="Group">
                        <polygon id="Shape" fill="#B5B5B5" points="50.31 168.94 0.07 139.74 0.06 136.23 50.3 165.43"></polygon>
                        <path d="M95.09,29.8 L95.37,126.16 C95.37,135.41 88.9,146.66 80.86,151.3 L50.31,168.94 L50.31,165.43 L80.31,148.13 C86.69,144.45 91.85,135.51 91.83,128.18 L91.56,31.87 L95.09,29.8 Z" id="Shape" fill="#8D8D8D"></path>
                        <path d="M91.78,128.18 L91.51,31.87 L41.27,2.67 L41.54,98.98 C41.54,106.32 36.4,115.25 30.02,118.98 L0.02,136.27 L50.26,165.47 L80.26,148.17 C86.64,144.49 91.8,135.55 91.78,128.22 L91.78,128.18 Z" id="Shape" fill="#D3D3D3"></path>
                        <polygon id="Shape" fill="#EDEDED" points="91.51 31.87 41.27 2.67 44.85 0.6 95.09 29.8"></polygon>
                    </g>
                </g>
                <g id="Shape">
                    <polygon fill="#B5B5B5" points="192.52 112.86 192.05 281.06 0.19 170.29 0.67 2.08"></polygon>
                    <polygon fill="#8D8D8D" points="192.52 112.86 196.11 110.77 195.64 278.98 192.05 281.06"></polygon>
                    <polygon fill="#CECECE" points="0.67 2.08 4.25 0 196.11 110.77 192.52 112.86"></polygon>
                </g>
                <polygon id="Shape" fill="#343434" points="192.49 112.86 192.08 257.58 0.22 146.81 0.63 2.08"></polygon>
                <polygon id="Shape" fill="#FF8C3E" points="187.44 116.48 187.07 247.69 5.27 142.73 5.64 11.52"></polygon>
                <polygon id="Shape" fill="#343434" points="88.9 205.11 88.88 213.52 81.63 209.34 81.65 200.92"></polygon>
            </g>
            <g id="Group" transform="translate(100.000000, 222.000000)">
                <g id="Shape">
                    <g id="Group">
                        <polygon id="Shape" fill="#C2C2C2" points="32.95 0.18 0.02 21.66 0 25.05 79.1 70.72 112.03 51.58 112.05 45.85"></polygon>
                        <g id="Shape">
                            <polygon fill="#DEDEDE" points="112.05 45.85 79.12 67.33 0.02 21.66 32.95 0.18"></polygon>
                            <polygon fill="#989898" points="112.05 45.85 112.03 51.58 79.1 70.72 79.12 67.33"></polygon>
                            <polygon fill="#C2C2C2" points="79.12 67.33 79.1 70.72 0 25.05 0.02 21.66"></polygon>
                        </g>
                    </g>
                    <g id="Group" transform="translate(4.000000, 3.000000)">
                        <g id="Shape" fill="#B2B2B2">
                            <path d="M31.94,2.9 C32.1015785,2.95916657 32.2090213,3.11292939 32.2090213,3.285 C32.2090213,3.45707061 32.1015785,3.61083343 31.94,3.67 L30.55,4.58 C30.1575783,4.79524757 29.6824217,4.79524757 29.29,4.58 L25.89,2.58 C25.7368625,2.5132344 25.6378541,2.36205909 25.6378541,2.195 C25.6378541,2.02794091 25.7368625,1.8767656 25.89,1.81 L27.29,0.91 C27.6824217,0.694752428 28.1575783,0.694752428 28.55,0.91 L31.94,2.9 Z"></path>
                            <path d="M28.87,4.9 C29.0315785,4.95916657 29.1390213,5.11292939 29.1390213,5.285 C29.1390213,5.45707061 29.0315785,5.61083343 28.87,5.67 L25.61,7.8 C25.2175783,8.01524757 24.7424217,8.01524757 24.35,7.8 L20.95,5.8 C20.7968625,5.7332344 20.6978541,5.58205909 20.6978541,5.415 C20.6978541,5.24794091 20.7968625,5.0967656 20.95,5.03 L24.21,3 C24.6038055,2.79022197 25.0761945,2.79022197 25.47,3 L28.87,4.9 Z"></path>
                            <path d="M37.43,6.05 C37.5831375,6.1167656 37.6821459,6.26794091 37.6821459,6.435 C37.6821459,6.60205909 37.5831375,6.7532344 37.43,6.82 L36.04,7.73 C35.6426593,7.93979558 35.1673407,7.93979558 34.77,7.73 L31.38,5.78 C31.2184215,5.72083343 31.1109787,5.56707061 31.1109787,5.395 C31.1109787,5.22292939 31.2184215,5.06916657 31.38,5.01 L32.77,4.1 C33.1638055,3.89022197 33.6361945,3.89022197 34.03,4.1 L37.43,6.05 Z"></path>
                            <path d="M34.09,7.9 C34.2515785,7.95916657 34.3590213,8.11292939 34.3590213,8.285 C34.3590213,8.45707061 34.2515785,8.61083343 34.09,8.67 L30.83,10.79 C30.4375783,11.0052476 29.9624217,11.0052476 29.57,10.79 L26.17,8.79 C26.0168625,8.7232344 25.9178541,8.57205909 25.9178541,8.405 C25.9178541,8.23794091 26.0168625,8.0867656 26.17,8.02 L29.43,6 C29.8273407,5.79020442 30.3026593,5.79020442 30.7,6 L34.09,7.9 Z"></path>
                            <path d="M42.79,9.13 C42.9515785,9.18916657 43.0590213,9.34292939 43.0590213,9.515 C43.0590213,9.68707061 42.9515785,9.84083343 42.79,9.9 L41.4,10.8 C41.0061945,11.009778 40.5338055,11.009778 40.14,10.8 L36.74,8.8 C36.5784215,8.74083343 36.4709787,8.58707061 36.4709787,8.415 C36.4709787,8.24292939 36.5784215,8.08916657 36.74,8.03 L38.13,7.12 C38.5224217,6.90475243 38.9975783,6.90475243 39.39,7.12 L42.79,9.13 Z"></path>
                            <path d="M39.31,10.89 C39.4715785,10.9491666 39.5790213,11.1029294 39.5790213,11.275 C39.5790213,11.4470706 39.4715785,11.6008334 39.31,11.66 L36.05,13.79 C35.6561945,13.999778 35.1838055,13.999778 34.79,13.79 L31.39,11.84 C31.2368625,11.7732344 31.1378541,11.6220591 31.1378541,11.455 C31.1378541,11.2879409 31.2368625,11.1367656 31.39,11.07 L34.65,9 C35.0459914,8.78482798 35.5240086,8.78482798 35.92,9 L39.31,10.89 Z"></path>
                            <path d="M48.28,12.27 C48.4395091,12.3337564 48.5441154,12.488221 48.5441154,12.66 C48.5441154,12.831779 48.4395091,12.9862436 48.28,13.05 L46.89,13.95 C46.4975783,14.1652476 46.0224217,14.1652476 45.63,13.95 L42.26,12 C42.1004909,11.9362436 41.9958846,11.781779 41.9958846,11.61 C41.9958846,11.438221 42.1004909,11.2837564 42.26,11.22 L43.65,10.32 C44.0424217,10.1047524 44.5175783,10.1047524 44.91,10.32 L48.28,12.27 Z"></path>
                            <path d="M44.53,13.88 C44.6895091,13.9437564 44.7941154,14.098221 44.7941154,14.27 C44.7941154,14.441779 44.6895091,14.5962436 44.53,14.66 L41.27,16.78 C40.8775783,16.9952476 40.4024217,16.9952476 40.01,16.78 L36.61,14.84 C36.4504909,14.7762436 36.3458846,14.621779 36.3458846,14.45 C36.3458846,14.278221 36.4504909,14.1237564 36.61,14.06 L39.87,12 C40.2659914,11.784828 40.7440086,11.784828 41.14,12 L44.53,13.88 Z"></path>
                            <path d="M53.6,15.32 C53.7595091,15.3837564 53.8641154,15.538221 53.8641154,15.71 C53.8641154,15.881779 53.7595091,16.0362436 53.6,16.1 L52.21,17 C51.830827,17.1974303 51.379173,17.1974303 51,17 L47.6,15.06 C47.4404909,14.9962436 47.3358846,14.841779 47.3358846,14.67 C47.3358846,14.498221 47.4404909,14.3437564 47.6,14.28 L48.99,13.38 C49.3824217,13.1647524 49.8575783,13.1647524 50.25,13.38 L53.6,15.32 Z"></path>
                            <path d="M49.79,16.9 C49.9431375,16.9667656 50.0421459,17.1179409 50.0421459,17.285 C50.0421459,17.4520591 49.9431375,17.6032344 49.79,17.67 L46.53,19.79 C46.1375783,20.0052476 45.6624217,20.0052476 45.27,19.79 L41.88,17.79 C41.7184215,17.7308334 41.6109787,17.5770706 41.6109787,17.405 C41.6109787,17.2329294 41.7184215,17.0791666 41.88,17.02 L45.13,15 C45.5238055,14.790222 45.9961945,14.790222 46.39,15 L49.79,16.9 Z"></path>
                            <path d="M59.09,18.47 C59.2431375,18.5367656 59.3421459,18.6879409 59.3421459,18.855 C59.3421459,19.0220591 59.2431375,19.1732344 59.09,19.24 L57.7,20.15 C57.3075783,20.3652476 56.8324217,20.3652476 56.44,20.15 L53.05,18.15 C52.8884215,18.0908334 52.7809787,17.9370706 52.7809787,17.765 C52.7809787,17.5929294 52.8884215,17.4391666 53.05,17.38 L54.44,16.48 C54.8324217,16.2647524 55.3075783,16.2647524 55.7,16.48 L59.09,18.47 Z"></path>
                            <path d="M55,19.89 C55.1531375,19.9567656 55.2521459,20.1079409 55.2521459,20.275 C55.2521459,20.4420591 55.1531375,20.5932344 55,20.66 L51.74,22.79 C51.3475783,23.0052476 50.8724217,23.0052476 50.48,22.79 L47.09,20.85 C46.9304909,20.7862436 46.8258846,20.631779 46.8258846,20.46 C46.8258846,20.288221 46.9304909,20.1337564 47.09,20.07 L50.35,18 C50.7424217,17.7847524 51.2175783,17.7847524 51.61,18 L55,19.89 Z"></path>
                            <path d="M64.5,21.57 C64.6531375,21.6367656 64.7521459,21.7879409 64.7521459,21.955 C64.7521459,22.1220591 64.6531375,22.2732344 64.5,22.34 L63.11,23.25 C62.7175783,23.4652476 62.2424217,23.4652476 61.85,23.25 L58.45,21.31 C58.2904909,21.2462436 58.1858846,21.091779 58.1858846,20.92 C58.1858846,20.748221 58.2904909,20.5937564 58.45,20.53 L59.84,19.63 C60.2338055,19.420222 60.7061945,19.420222 61.1,19.63 L64.5,21.57 Z"></path>
                            <path d="M60.23,22.89 C60.3831375,22.9567656 60.4821459,23.1079409 60.4821459,23.275 C60.4821459,23.4420591 60.3831375,23.5932344 60.23,23.66 L57,25.78 C56.6075783,25.9952476 56.1324217,25.9952476 55.74,25.78 L52.34,23.83 C52.1868625,23.7632344 52.0878541,23.6120591 52.0878541,23.445 C52.0878541,23.2779409 52.1868625,23.1267656 52.34,23.06 L55.57,21 C55.9638055,20.790222 56.4361945,20.790222 56.83,21 L60.23,22.89 Z"></path>
                            <path d="M70,24.72 C70.1615785,24.7791666 70.2690213,24.9329294 70.2690213,25.105 C70.2690213,25.2770706 70.1615785,25.4308334 70,25.49 L68.61,26.4 C68.2161945,26.609778 67.7438055,26.609778 67.35,26.4 L63.95,24.4 C63.7884215,24.3408334 63.6809787,24.1870706 63.6809787,24.015 C63.6809787,23.8429294 63.7884215,23.6891666 63.95,23.63 L65.34,22.73 C65.7324217,22.5147524 66.2075783,22.5147524 66.6,22.73 L70,24.72 Z"></path>
                            <path d="M65.45,25.88 C65.6031375,25.9467656 65.7021459,26.0979409 65.7021459,26.265 C65.7021459,26.4320591 65.6031375,26.5832344 65.45,26.65 L62.19,28.78 C61.7961945,28.989778 61.3238055,28.989778 60.93,28.78 L57.53,26.83 C57.3684215,26.7708334 57.2609787,26.6170706 57.2609787,26.445 C57.2609787,26.2729294 57.3684215,26.1191666 57.53,26.06 L60.79,24 C61.1824217,23.7847524 61.6575783,23.7847524 62.05,24 L65.45,25.88 Z"></path>
                            <path d="M75.34,27.8 C75.5015785,27.8591666 75.6090213,28.0129294 75.6090213,28.185 C75.6090213,28.3570706 75.5015785,28.5108334 75.34,28.57 L73.95,29.47 C73.5575783,29.6852476 73.0824217,29.6852476 72.69,29.47 L69.29,27.52 C69.1368625,27.4532344 69.0378541,27.3020591 69.0378541,27.135 C69.0378541,26.9679409 69.1368625,26.8167656 69.29,26.75 L70.68,25.84 C71.0724217,25.6247524 71.5475783,25.6247524 71.94,25.84 L75.34,27.8 Z"></path>
                            <path d="M70.7,28.89 C70.8595091,28.9537564 70.9641154,29.108221 70.9641154,29.28 C70.9641154,29.451779 70.8595091,29.6062436 70.7,29.67 L67.43,31.79 C67.0375783,32.0052476 66.5624217,32.0052476 66.17,31.79 L62.78,29.85 C62.6204909,29.7862436 62.5158846,29.631779 62.5158846,29.46 C62.5158846,29.288221 62.6204909,29.1337564 62.78,29.07 L66,27 C66.3959914,26.784828 66.8740086,26.784828 67.27,27 L70.7,28.89 Z"></path>
                            <path d="M80.83,30.94 C80.9895091,31.0037564 81.0941154,31.158221 81.0941154,31.33 C81.0941154,31.501779 80.9895091,31.6562436 80.83,31.72 L79.44,32.62 C79.0475783,32.8352476 78.5724217,32.8352476 78.18,32.62 L74.78,30.68 C74.6184215,30.6208334 74.5109787,30.4670706 74.5109787,30.295 C74.5109787,30.1229294 74.6184215,29.9691666 74.78,29.91 L76.17,29 C76.5624217,28.7847524 77.0375783,28.7847524 77.43,29 L80.83,30.94 Z"></path>
                            <path d="M76,31.91 C76.1531375,31.9767656 76.2521459,32.1279409 76.2521459,32.295 C76.2521459,32.4620591 76.1531375,32.6132344 76,32.68 L72.74,34.81 C72.3461945,35.019778 71.8738055,35.019778 71.48,34.81 L68.09,32.86 C67.9284215,32.8008334 67.8209787,32.6470706 67.8209787,32.475 C67.8209787,32.3029294 67.9284215,32.1491666 68.09,32.09 L71.3,30 C71.6924217,29.7847524 72.1675783,29.7847524 72.56,30 L76,31.91 Z"></path>
                            <path d="M86.15,34 C86.3095091,34.0637564 86.4141154,34.218221 86.4141154,34.39 C86.4141154,34.561779 86.3095091,34.7162436 86.15,34.78 L84.76,35.68 C84.3675783,35.8952476 83.8924217,35.8952476 83.5,35.68 L80.1,33.74 C79.9404909,33.6762436 79.8358846,33.521779 79.8358846,33.35 C79.8358846,33.178221 79.9404909,33.0237564 80.1,32.96 L81.49,32.06 C81.8824217,31.8447524 82.3575783,31.8447524 82.75,32.06 L86.15,34 Z"></path>
                            <path d="M81.18,34.9 C81.3395091,34.9637564 81.4441154,35.118221 81.4441154,35.29 C81.4441154,35.461779 81.3395091,35.6162436 81.18,35.68 L77.92,37.8 C77.5275783,38.0152476 77.0524217,38.0152476 76.66,37.8 L73.26,35.86 C73.1004909,35.7962436 72.9958846,35.641779 72.9958846,35.47 C72.9958846,35.298221 73.1004909,35.1437564 73.26,35.08 L76.52,33 C76.9124217,32.7847524 77.3875783,32.7847524 77.78,33 L81.18,34.9 Z"></path>
                            <path d="M91.64,37.14 C91.7931375,37.2067656 91.8921459,37.3579409 91.8921459,37.525 C91.8921459,37.6920591 91.7931375,37.8432344 91.64,37.91 L90.25,38.82 C89.8575783,39.0352476 89.3824217,39.0352476 88.99,38.82 L85.59,36.82 C85.4284215,36.7608334 85.3209787,36.6070706 85.3209787,36.435 C85.3209787,36.2629294 85.4284215,36.1091666 85.59,36.05 L86.98,35.15 C87.3738055,34.940222 87.8461945,34.940222 88.24,35.15 L91.64,37.14 Z"></path>
                            <path d="M86.34,37.93 C86.4872026,37.9862083 86.5844456,38.127431 86.5844456,38.285 C86.5844456,38.442569 86.4872026,38.5837917 86.34,38.64 L83.08,40.76 C82.7190151,40.9593018 82.2809849,40.9593018 81.92,40.76 L78.53,38.82 C78.3827974,38.7637917 78.2855544,38.622569 78.2855544,38.465 C78.2855544,38.307431 78.3827974,38.1662083 78.53,38.11 L81.79,36 C82.16646,35.79178 82.62354,35.79178 83,36 L86.34,37.93 Z"></path>
                            <path d="M97,40.23 C97.1615785,40.2891666 97.2690213,40.4429294 97.2690213,40.615 C97.2690213,40.7870706 97.1615785,40.9408334 97,41 L95.61,41.91 C95.2175783,42.1252476 94.7424217,42.1252476 94.35,41.91 L91,40 C90.8404909,39.9362436 90.7358846,39.781779 90.7358846,39.61 C90.7358846,39.438221 90.8404909,39.2837564 91,39.22 L92.39,38.32 C92.7838055,38.110222 93.2561945,38.110222 93.65,38.32 L97,40.23 Z"></path>
                            <path d="M91.61,40.89 C91.7715785,40.9491666 91.8790213,41.1029294 91.8790213,41.275 C91.8790213,41.4470706 91.7715785,41.6008334 91.61,41.66 L88.35,43.79 C87.9561945,43.999778 87.4838055,43.999778 87.09,43.79 L83.69,41.84 C83.5368625,41.7732344 83.4378541,41.6220591 83.4378541,41.455 C83.4378541,41.2879409 83.5368625,41.1367656 83.69,41.07 L87,39 C87.3938055,38.790222 87.8661945,38.790222 88.26,39 L91.61,40.89 Z"></path>
                            <path d="M26.59,9.52 C26.7515785,9.57916657 26.8590213,9.73292939 26.8590213,9.905 C26.8590213,10.0770706 26.7515785,10.2308334 26.59,10.29 L23.33,12.42 C22.9375783,12.6352476 22.4624217,12.6352476 22.07,12.42 L16.14,9 C15.9868625,8.9332344 15.8878541,8.78205909 15.8878541,8.615 C15.8878541,8.44794091 15.9868625,8.2967656 16.14,8.23 L19.4,6.1 C19.7938055,5.89022197 20.2661945,5.89022197 20.66,6.1 L26.59,9.52 Z"></path>
                            <path d="M31.86,12.55 C32.0215785,12.6091666 32.1290213,12.7629294 32.1290213,12.935 C32.1290213,13.1070706 32.0215785,13.2608334 31.86,13.32 L28.6,15.44 C28.2075783,15.6552476 27.7324217,15.6552476 27.34,15.44 L24,13.53 C23.8468625,13.4632344 23.7478541,13.3120591 23.7478541,13.145 C23.7478541,12.9779409 23.8468625,12.8267656 24,12.76 L27.26,10.63 C27.6538055,10.420222 28.1261945,10.420222 28.52,10.63 L31.86,12.55 Z"></path>
                            <path d="M37.12,15.56 C37.2731375,15.6267656 37.3721459,15.7779409 37.3721459,15.945 C37.3721459,16.1120591 37.2731375,16.2632344 37.12,16.33 L33.86,18.46 C33.4661945,18.669778 32.9938055,18.669778 32.6,18.46 L29.21,16.46 C29.0484215,16.4008334 28.9409787,16.2470706 28.9409787,16.075 C28.9409787,15.9029294 29.0484215,15.7491666 29.21,15.69 L32.47,13.57 C32.8624217,13.3547524 33.3375783,13.3547524 33.73,13.57 L37.12,15.56 Z"></path>
                            <path d="M42.34,18.56 C42.4931375,18.6267656 42.5921459,18.7779409 42.5921459,18.945 C42.5921459,19.1120591 42.4931375,19.2632344 42.34,19.33 L39.08,21.45 C38.6875783,21.6652476 38.2124217,21.6652476 37.82,21.45 L34.43,19.51 C34.2684215,19.4508334 34.1609787,19.2970706 34.1609787,19.125 C34.1609787,18.9529294 34.2684215,18.7991666 34.43,18.74 L37.69,16.61 C38.0824217,16.3947524 38.5575783,16.3947524 38.95,16.61 L42.34,18.56 Z"></path>
                            <path d="M47.52,21.53 C47.6815785,21.5891666 47.7890213,21.7429294 47.7890213,21.915 C47.7890213,22.0870706 47.6815785,22.2408334 47.52,22.3 L44.25,24.43 C43.8597401,24.6397885 43.3902599,24.6397885 43,24.43 L39.6,22.43 C39.4384215,22.3708334 39.3309787,22.2170706 39.3309787,22.045 C39.3309787,21.8729294 39.4384215,21.7191666 39.6,21.66 L42.86,19.53 C43.2538055,19.320222 43.7261945,19.320222 44.12,19.53 L47.52,21.53 Z"></path>
                            <path d="M52.78,24.54 C52.9331375,24.6067656 53.0321459,24.7579409 53.0321459,24.925 C53.0321459,25.0920591 52.9331375,25.2432344 52.78,25.31 L49.52,27.44 C49.1275783,27.6552476 48.6524217,27.6552476 48.26,27.44 L44.87,25.5 C44.7104909,25.4362436 44.6058846,25.281779 44.6058846,25.11 C44.6058846,24.938221 44.7104909,24.7837564 44.87,24.72 L48.13,22.6 C48.5224217,22.3847524 48.9975783,22.3847524 49.39,22.6 L52.78,24.54 Z"></path>
                            <path d="M58,27.54 C58.1531375,27.6067656 58.2521459,27.7579409 58.2521459,27.925 C58.2521459,28.0920591 58.1531375,28.2432344 58,28.31 L54.74,30.43 C54.3475783,30.6452476 53.8724217,30.6452476 53.48,30.43 L50.09,28.48 C49.9284215,28.4208334 49.8209787,28.2670706 49.8209787,28.095 C49.8209787,27.9229294 49.9284215,27.7691666 50.09,27.71 L53.35,25.58 C53.7438055,25.370222 54.2161945,25.370222 54.61,25.58 L58,27.54 Z"></path>
                            <path d="M63.22,30.53 C63.3731375,30.5967656 63.4721459,30.7479409 63.4721459,30.915 C63.4721459,31.0820591 63.3731375,31.2332344 63.22,31.3 L60,33.43 C59.6061945,33.639778 59.1338055,33.639778 58.74,33.43 L55.34,31.48 C55.1784215,31.4208334 55.0709787,31.2670706 55.0709787,31.095 C55.0709787,30.9229294 55.1784215,30.7691666 55.34,30.71 L58.6,28.59 C58.9924217,28.3747524 59.4675783,28.3747524 59.86,28.59 L63.22,30.53 Z"></path>
                            <path d="M68.43,33.52 C68.5895091,33.5837564 68.6941154,33.738221 68.6941154,33.91 C68.6941154,34.081779 68.5895091,34.2362436 68.43,34.3 L65.17,36.42 C64.7775783,36.6352476 64.3024217,36.6352476 63.91,36.42 L60.51,34.48 C60.3504909,34.4162436 60.2458846,34.261779 60.2458846,34.09 C60.2458846,33.918221 60.3504909,33.7637564 60.51,33.7 L63.77,31.58 C64.1624217,31.3647524 64.6375783,31.3647524 65.03,31.58 L68.43,33.52 Z"></path>
                            <path d="M73.64,36.57 C73.7872026,36.6262083 73.8844456,36.767431 73.8844456,36.925 C73.8844456,37.082569 73.7872026,37.2237917 73.64,37.28 L70.4,39.4 C70.0416291,39.5956417 69.6083709,39.5956417 69.25,39.4 L65.85,37.45 C65.7027974,37.3937917 65.6055544,37.252569 65.6055544,37.095 C65.6055544,36.937431 65.7027974,36.7962083 65.85,36.74 L69.11,34.62 C69.4673939,34.4205662 69.9026061,34.4205662 70.26,34.62 L73.64,36.57 Z"></path>
                            <path d="M79,39.55 C79.1595091,39.6137564 79.2641154,39.768221 79.2641154,39.94 C79.2641154,40.111779 79.1595091,40.2662436 79,40.33 L75.74,42.45 C75.3475783,42.6652476 74.8724217,42.6652476 74.48,42.45 L71.08,40.51 C70.9204909,40.4462436 70.8158846,40.291779 70.8158846,40.12 C70.8158846,39.948221 70.9204909,39.7937564 71.08,39.73 L74.34,37.61 C74.7324217,37.3947524 75.2075783,37.3947524 75.6,37.61 L79,39.55 Z"></path>
                            <path d="M84.16,42.55 C84.3215785,42.6091666 84.4290213,42.7629294 84.4290213,42.935 C84.4290213,43.1070706 84.3215785,43.2608334 84.16,43.32 L80.9,45.45 C80.5061945,45.659778 80.0338055,45.659778 79.64,45.45 L76.24,43.45 C76.0868625,43.3832344 75.9878541,43.2320591 75.9878541,43.065 C75.9878541,42.8979409 76.0868625,42.7467656 76.24,42.68 L79.5,40.55 C79.8938055,40.340222 80.3661945,40.340222 80.76,40.55 L84.16,42.55 Z"></path>
                            <path d="M102.51,43.38 C102.671578,43.4391666 102.779021,43.5929294 102.779021,43.765 C102.779021,43.9370706 102.671578,44.0908334 102.51,44.15 L101.12,45.06 C100.726195,45.269778 100.253805,45.269778 99.86,45.06 L96.47,43.11 C96.3084215,43.0508334 96.2009787,42.8970706 96.2009787,42.725 C96.2009787,42.5529294 96.3084215,42.3991666 96.47,42.34 L97.86,41.44 C98.2524217,41.2247524 98.7275783,41.2247524 99.12,41.44 L102.51,43.38 Z"></path>
                            <path d="M99.44,45.38 C99.6015785,45.4391666 99.7090213,45.5929294 99.7090213,45.765 C99.7090213,45.9370706 99.6015785,46.0908334 99.44,46.15 L96.18,48.28 C95.7861945,48.489778 95.3138055,48.489778 94.92,48.28 L88.81,44.78 C88.6504909,44.7162436 88.5458846,44.561779 88.5458846,44.39 C88.5458846,44.218221 88.6504909,44.0637564 88.81,44 L92.07,41.88 C92.4624217,41.6647524 92.9375783,41.6647524 93.33,41.88 L99.44,45.38 Z"></path>
                            <path d="M89.38,45.54 C89.5415785,45.5991666 89.6490213,45.7529294 89.6490213,45.925 C89.6490213,46.0970706 89.5415785,46.2508334 89.38,46.31 L86.12,48.44 C85.7261945,48.649778 85.2538055,48.649778 84.86,48.44 L81.46,46.44 C81.3068625,46.3732344 81.2078541,46.2220591 81.2078541,46.055 C81.2078541,45.8879409 81.3068625,45.7367656 81.46,45.67 L84.72,43.55 C85.1138055,43.340222 85.5861945,43.340222 85.98,43.55 L89.38,45.54 Z"></path>
                            <path d="M94.6,48.54 C94.7615785,48.5991666 94.8690213,48.7529294 94.8690213,48.925 C94.8690213,49.0970706 94.7615785,49.2508334 94.6,49.31 L91.34,51.43 C90.9485657,51.649067 90.4714343,51.649067 90.08,51.43 L86.68,49.49 C86.5268625,49.4232344 86.4278541,49.2720591 86.4278541,49.105 C86.4278541,48.9379409 86.5268625,48.7867656 86.68,48.72 L90,46.62 C90.3924217,46.4047524 90.8675783,46.4047524 91.26,46.62 L94.6,48.54 Z"></path>
                            <path d="M23,13.51 C23.1615785,13.5691666 23.2690213,13.7229294 23.2690213,13.895 C23.2690213,14.0670706 23.1615785,14.2208334 23,14.28 L19.74,16.41 C19.3461945,16.619778 18.8738055,16.619778 18.48,16.41 L11.19,12.23 C11.0284215,12.1708334 10.9209787,12.0170706 10.9209787,11.845 C10.9209787,11.6729294 11.0284215,11.5191666 11.19,11.46 L14.45,9.33 C14.8438055,9.12022197 15.3161945,9.12022197 15.71,9.33 L23,13.51 Z"></path>
                            <path d="M28.19,16.49 C28.3495091,16.5537564 28.4541154,16.708221 28.4541154,16.88 C28.4541154,17.051779 28.3495091,17.2062436 28.19,17.27 L25,19.39 C24.6075783,19.6052476 24.1324217,19.6052476 23.74,19.39 L20.35,17.45 C20.1884215,17.3908334 20.0809787,17.2370706 20.0809787,17.065 C20.0809787,16.8929294 20.1884215,16.7391666 20.35,16.68 L23.61,14.55 C24.0024217,14.3347524 24.4775783,14.3347524 24.87,14.55 L28.19,16.49 Z"></path>
                            <path d="M33.45,19.51 C33.6031375,19.5767656 33.7021459,19.7279409 33.7021459,19.895 C33.7021459,20.0620591 33.6031375,20.2132344 33.45,20.28 L30.19,22.41 C29.7961945,22.619778 29.3238055,22.619778 28.93,22.41 L25.53,20.46 C25.3768625,20.3932344 25.2778541,20.2420591 25.2778541,20.075 C25.2778541,19.9079409 25.3768625,19.7567656 25.53,19.69 L28.79,17.57 C29.1824217,17.3547524 29.6575783,17.3547524 30.05,17.57 L33.45,19.51 Z"></path>
                            <path d="M38.67,22.5 C38.8295091,22.5637564 38.9341154,22.718221 38.9341154,22.89 C38.9341154,23.061779 38.8295091,23.2162436 38.67,23.28 L35.41,25.4 C35.0175783,25.6152476 34.5424217,25.6152476 34.15,25.4 L30.75,23.46 C30.5904909,23.3962436 30.4858846,23.241779 30.4858846,23.07 C30.4858846,22.898221 30.5904909,22.7437564 30.75,22.68 L34,20.59 C34.3924217,20.3747524 34.8675783,20.3747524 35.26,20.59 L38.67,22.5 Z"></path>
                            <path d="M43.85,25.48 C44.0031375,25.5467656 44.1021459,25.6979409 44.1021459,25.865 C44.1021459,26.0320591 44.0031375,26.1832344 43.85,26.25 L40.58,28.37 C40.1861945,28.579778 39.7138055,28.579778 39.32,28.37 L36,26.46 C35.8384215,26.4008334 35.7309787,26.2470706 35.7309787,26.075 C35.7309787,25.9029294 35.8384215,25.7491666 36,25.69 L39.26,23.56 C39.6538055,23.350222 40.1261945,23.350222 40.52,23.56 L43.85,25.48 Z"></path>
                            <path d="M49.1,28.49 C49.2615785,28.5491666 49.3690213,28.7029294 49.3690213,28.875 C49.3690213,29.0470706 49.2615785,29.2008334 49.1,29.26 L45.84,31.39 C45.4475783,31.6052476 44.9724217,31.6052476 44.58,31.39 L41.18,29.39 C41.0268625,29.3232344 40.9278541,29.1720591 40.9278541,29.005 C40.9278541,28.8379409 41.0268625,28.6867656 41.18,28.62 L44.44,26.5 C44.8324217,26.2847524 45.3075783,26.2847524 45.7,26.5 L49.1,28.49 Z"></path>
                            <path d="M54.32,31.49 C54.4815785,31.5491666 54.5890213,31.7029294 54.5890213,31.875 C54.5890213,32.0470706 54.4815785,32.2008334 54.32,32.26 L51.06,34.38 C50.6661945,34.589778 50.1938055,34.589778 49.8,34.38 L46.4,32.43 C46.2468625,32.3632344 46.1478541,32.2120591 46.1478541,32.045 C46.1478541,31.8779409 46.2468625,31.7267656 46.4,31.66 L49.67,29.53 C50.0624217,29.3147524 50.5375783,29.3147524 50.93,29.53 L54.32,31.49 Z"></path>
                            <path d="M59.54,34.48 C59.7015785,34.5391666 59.8090213,34.6929294 59.8090213,34.865 C59.8090213,35.0370706 59.7015785,35.1908334 59.54,35.25 L56.28,37.38 C55.8861945,37.589778 55.4138055,37.589778 55.02,37.38 L51.62,35.38 C51.4668625,35.3132344 51.3678541,35.1620591 51.3678541,34.995 C51.3678541,34.8279409 51.4668625,34.6767656 51.62,34.61 L54.89,32.48 C55.2838055,32.270222 55.7561945,32.270222 56.15,32.48 L59.54,34.48 Z"></path>
                            <path d="M64.76,37.47 C64.9195091,37.5337564 65.0241154,37.688221 65.0241154,37.86 C65.0241154,38.031779 64.9195091,38.1862436 64.76,38.25 L61.5,40.37 C61.1075783,40.5852476 60.6324217,40.5852476 60.24,40.37 L56.84,38.42 C56.6868625,38.3532344 56.5878541,38.2020591 56.5878541,38.035 C56.5878541,37.8679409 56.6868625,37.7167656 56.84,37.65 L60.11,35.53 C60.5024217,35.3147524 60.9775783,35.3147524 61.37,35.53 L64.76,37.47 Z"></path>
                            <path d="M70,40.49 C70.1615785,40.5491666 70.2690213,40.7029294 70.2690213,40.875 C70.2690213,41.0470706 70.1615785,41.2008334 70,41.26 L66.74,43.38 C66.3475783,43.5952476 65.8724217,43.5952476 65.48,43.38 L62.09,41.43 C61.9284215,41.3708334 61.8209787,41.2170706 61.8209787,41.045 C61.8209787,40.8729294 61.9284215,40.7191666 62.09,40.66 L65.35,38.53 C65.7438055,38.320222 66.2161945,38.320222 66.61,38.53 L70,40.49 Z"></path>
                            <path d="M75.27,43.5 C75.4315785,43.5591666 75.5390213,43.7129294 75.5390213,43.885 C75.5390213,44.0570706 75.4315785,44.2108334 75.27,44.27 L72,46.4 C71.6075783,46.6152476 71.1324217,46.6152476 70.74,46.4 L67.34,44.45 C67.1868625,44.3832344 67.0878541,44.2320591 67.0878541,44.065 C67.0878541,43.8979409 67.1868625,43.7467656 67.34,43.68 L70.61,41.56 C71.0024217,41.3447524 71.4775783,41.3447524 71.87,41.56 L75.27,43.5 Z"></path>
                            <path d="M80.49,46.5 C80.6515785,46.5591666 80.7590213,46.7129294 80.7590213,46.885 C80.7590213,47.0570706 80.6515785,47.2108334 80.49,47.27 L77.23,49.39 C76.8361945,49.599778 76.3638055,49.599778 75.97,49.39 L72.57,47.44 C72.4168625,47.3732344 72.3178541,47.2220591 72.3178541,47.055 C72.3178541,46.8879409 72.4168625,46.7367656 72.57,46.67 L75.84,44.54 C76.2324217,44.3247524 76.7075783,44.3247524 77.1,44.54 L80.49,46.5 Z"></path>
                            <path d="M20.78,18.24 C20.9415785,18.2991666 21.0490213,18.4529294 21.0490213,18.625 C21.0490213,18.7970706 20.9415785,18.9508334 20.78,19.01 L17.53,21.13 C17.1326593,21.3397956 16.6573407,21.3397956 16.26,21.13 L6.26,15.4 C6.0984215,15.3408334 5.99097872,15.1870706 5.99097872,15.015 C5.99097872,14.8429294 6.0984215,14.6891666 6.26,14.63 L9.52,12.51 C9.91380546,12.300222 10.3861945,12.300222 10.78,12.51 L20.78,18.24 Z"></path>
                            <path d="M25.89,21.17 C26.0431375,21.2367656 26.1421459,21.3879409 26.1421459,21.555 C26.1421459,21.7220591 26.0431375,21.8732344 25.89,21.94 L22.63,24.06 C22.2340086,24.275172 21.7559914,24.275172 21.36,24.06 L18,22.15 C17.8384215,22.0908334 17.7309787,21.9370706 17.7309787,21.765 C17.7309787,21.5929294 17.8384215,21.4391666 18,21.38 L21.25,19.25 C21.6438055,19.040222 22.1161945,19.040222 22.51,19.25 L25.89,21.17 Z"></path>
                            <path d="M31.15,24.18 C31.3095091,24.2437564 31.4141154,24.398221 31.4141154,24.57 C31.4141154,24.741779 31.3095091,24.8962436 31.15,24.96 L27.89,27.08 C27.4975783,27.2952476 27.0224217,27.2952476 26.63,27.08 L23.23,25.08 C23.0768625,25.0132344 22.9778541,24.8620591 22.9778541,24.695 C22.9778541,24.5279409 23.0768625,24.3767656 23.23,24.31 L26.49,22.19 C26.8824217,21.9747524 27.3575783,21.9747524 27.75,22.19 L31.15,24.18 Z"></path>
                            <path d="M36.37,27.18 C36.5231375,27.2467656 36.6221459,27.3979409 36.6221459,27.565 C36.6221459,27.7320591 36.5231375,27.8832344 36.37,27.95 L33.11,30.07 C32.7175783,30.2852476 32.2424217,30.2852476 31.85,30.07 L28.45,28.07 C28.2968625,28.0032344 28.1978541,27.8520591 28.1978541,27.685 C28.1978541,27.5179409 28.2968625,27.3667656 28.45,27.3 L31.71,25.17 C32.1038055,24.960222 32.5761945,24.960222 32.97,25.17 L36.37,27.18 Z"></path>
                            <path d="M41.55,30.15 C41.7031375,30.2167656 41.8021459,30.3679409 41.8021459,30.535 C41.8021459,30.7020591 41.7031375,30.8532344 41.55,30.92 L38.29,33.05 C37.8926593,33.2597956 37.4173407,33.2597956 37.02,33.05 L33.63,31.1 C33.4684215,31.0408334 33.3609787,30.8870706 33.3609787,30.715 C33.3609787,30.5429294 33.4684215,30.3891666 33.63,30.33 L36.89,28.21 C37.2824217,27.9947524 37.7575783,27.9947524 38.15,28.21 L41.55,30.15 Z"></path>
                            <path d="M46.81,33.17 C46.9631375,33.2367656 47.0621459,33.3879409 47.0621459,33.555 C47.0621459,33.7220591 46.9631375,33.8732344 46.81,33.94 L43.55,36.06 C43.1561945,36.269778 42.6838055,36.269778 42.29,36.06 L38.89,34.06 C38.7304909,33.9962436 38.6258846,33.841779 38.6258846,33.67 C38.6258846,33.498221 38.7304909,33.3437564 38.89,33.28 L42.15,31.16 C42.5424217,30.9447524 43.0175783,30.9447524 43.41,31.16 L46.81,33.17 Z"></path>
                            <path d="M52,36.16 C52.1531375,36.2267656 52.2521459,36.3779409 52.2521459,36.545 C52.2521459,36.7120591 52.1531375,36.8632344 52,36.93 L48.74,39.05 C48.3475783,39.2652476 47.8724217,39.2652476 47.48,39.05 L44.08,37.1 C43.9268625,37.0332344 43.8278541,36.8820591 43.8278541,36.715 C43.8278541,36.5479409 43.9268625,36.3967656 44.08,36.33 L47.34,34.2 C47.7338055,33.990222 48.2061945,33.990222 48.6,34.2 L52,36.16 Z"></path>
                            <path d="M57.25,39.15 C57.4031375,39.2167656 57.5021459,39.3679409 57.5021459,39.535 C57.5021459,39.7020591 57.4031375,39.8532344 57.25,39.92 L54,42.05 C53.6075783,42.2652476 53.1324217,42.2652476 52.74,42.05 L49.34,40.1 C49.1868625,40.0332344 49.0878541,39.8820591 49.0878541,39.715 C49.0878541,39.5479409 49.1868625,39.3967656 49.34,39.33 L52.6,37.21 C52.9924217,36.9947524 53.4675783,36.9947524 53.86,37.21 L57.25,39.15 Z"></path>
                            <path d="M62.46,42.15 C62.6215785,42.2091666 62.7290213,42.3629294 62.7290213,42.535 C62.7290213,42.7070706 62.6215785,42.8608334 62.46,42.92 L59.23,45 C58.8361945,45.209778 58.3638055,45.209778 57.97,45 L54.57,43.05 C54.4168625,42.9832344 54.3178541,42.8320591 54.3178541,42.665 C54.3178541,42.4979409 54.4168625,42.3467656 54.57,42.28 L57.83,40.15 C58.2238055,39.940222 58.6961945,39.940222 59.09,40.15 L62.46,42.15 Z"></path>
                            <path d="M67.72,45.16 C67.8815785,45.2191666 67.9890213,45.3729294 67.9890213,45.545 C67.9890213,45.7170706 67.8815785,45.8708334 67.72,45.93 L64.46,48.06 C64.0640086,48.275172 63.5859914,48.275172 63.19,48.06 L59.8,46.11 C59.6384215,46.0508334 59.5309787,45.8970706 59.5309787,45.725 C59.5309787,45.5529294 59.6384215,45.3991666 59.8,45.34 L63.06,43.22 C63.4524217,43.0047524 63.9275783,43.0047524 64.32,43.22 L67.72,45.16 Z"></path>
                            <path d="M73,48.18 C73.1531375,48.2467656 73.2521459,48.3979409 73.2521459,48.565 C73.2521459,48.7320591 73.1531375,48.8832344 73,48.95 L69.74,51.07 C69.3461945,51.279778 68.8738055,51.279778 68.48,51.07 L65.08,49.12 C64.9204909,49.0562436 64.8158846,48.901779 64.8158846,48.73 C64.8158846,48.558221 64.9204909,48.4037564 65.08,48.34 L68.34,46.22 C68.7324217,46.0047524 69.2075783,46.0047524 69.6,46.22 L73,48.18 Z"></path>
                            <path d="M9.29,17.66 C9.65,17.86 9.62,18.23 9.23,18.49 L5.54,20.89 C5.14260709,21.1564902 4.6355322,21.1981158 4.2,21 L0.8,19 C0.45,18.8 0.47,18.43 0.86,18.18 L4.55,15.77 C4.95756395,15.5190228 5.46272725,15.4853452 5.9,15.68 L9.29,17.66 Z"></path>
                            <path d="M14.51,20.65 C14.87,20.86 14.84,21.23 14.45,21.48 L10.76,23.89 C10.3560794,24.1409291 9.85384825,24.1746611 9.42,23.98 L6,22 C5.64,21.79 5.67,21.42 6.06,21.17 L9.75,18.76 C10.1575961,18.5070045 10.6653768,18.4769138 11.1,18.68 L14.51,20.65 Z"></path>
                            <path d="M19.73,23.65 C20.09,23.85 20.06,24.22 19.67,24.47 L16,26.88 C15.5960794,27.1309291 15.0938483,27.1646611 14.66,26.97 L11.24,25 C10.88,24.8 10.91,24.43 11.3,24.17 L14.99,21.77 C15.397564,21.5190228 15.9027272,21.4853452 16.34,21.68 L19.73,23.65 Z"></path>
                            <path d="M26.24,27.38 C26.4015785,27.4391666 26.5090213,27.5929294 26.5090213,27.765 C26.5090213,27.9370706 26.4015785,28.0908334 26.24,28.15 L22.39,30.67 C21.9940086,30.885172 21.5159914,30.885172 21.12,30.67 L16.46,28 C16.3004909,27.9362436 16.1958846,27.781779 16.1958846,27.61 C16.1958846,27.438221 16.3004909,27.2837564 16.46,27.22 L20.32,24.71 C20.7173407,24.5002044 21.1926593,24.5002044 21.59,24.71 L26.24,27.38 Z"></path>
                            <path d="M52.34,42.35 C52.5015785,42.4091666 52.6090213,42.5629294 52.6090213,42.735 C52.6090213,42.9070706 52.5015785,43.0608334 52.34,43.12 L48.48,45.64 C48.0875783,45.8552476 47.6124217,45.8552476 47.22,45.64 L23,31.75 C22.8384215,31.6908334 22.7309787,31.5370706 22.7309787,31.365 C22.7309787,31.1929294 22.8384215,31.0391666 23,30.98 L26.86,28.46 C27.2524217,28.2447524 27.7275783,28.2447524 28.12,28.46 L52.34,42.35 Z"></path>
                            <path d="M58.83,46.07 C58.9831375,46.1367656 59.0821459,46.2879409 59.0821459,46.455 C59.0821459,46.6220591 58.9831375,46.7732344 58.83,46.84 L55,49.36 C54.6075783,49.5752476 54.1324217,49.5752476 53.74,49.36 L49.06,46.68 C48.9004909,46.6162436 48.7958846,46.461779 48.7958846,46.29 C48.7958846,46.118221 48.9004909,45.9637564 49.06,45.9 L52.92,43.39 C53.3124217,43.1747524 53.7875783,43.1747524 54.18,43.39 L58.83,46.07 Z"></path>
                            <path d="M64.21,49.16 C64.56,49.36 64.54,49.73 64.15,49.99 L60.46,52.39 C60.052436,52.6409772 59.5472728,52.6746548 59.11,52.48 L55.71,50.48 C55.36,50.28 55.39,49.91 55.77,49.66 L59.47,47.25 C59.8739206,46.9990709 60.3761517,46.9653389 60.81,47.16 L64.21,49.16 Z"></path>
                            <path d="M89.66,51.76 C89.8215785,51.8191666 89.9290213,51.9729294 89.9290213,52.145 C89.9290213,52.3170706 89.8215785,52.4708334 89.66,52.53 L86.4,54.65 C86.0075783,54.8652476 85.5324217,54.8652476 85.14,54.65 L77.77,50.43 C77.6168625,50.3632344 77.5178541,50.2120591 77.5178541,50.045 C77.5178541,49.8779409 77.6168625,49.7267656 77.77,49.66 L81,47.56 C81.3938055,47.350222 81.8661945,47.350222 82.26,47.56 L89.66,51.76 Z"></path>
                            <path d="M84.77,54.94 C84.9295091,55.0037564 85.0341154,55.158221 85.0341154,55.33 C85.0341154,55.501779 84.9295091,55.6562436 84.77,55.72 L81.51,57.84 C81.1175783,58.0552476 80.6424217,58.0552476 80.25,57.84 L70.31,52.14 C70.1484215,52.0808334 70.0409787,51.9270706 70.0409787,51.755 C70.0409787,51.5829294 70.1484215,51.4291666 70.31,51.37 L73.57,49.25 C73.9624217,49.0347524 74.4375783,49.0347524 74.83,49.25 L84.77,54.94 Z"></path>
                            <path d="M66.88,53.81 C67.0395091,53.8737564 67.1441154,54.028221 67.1441154,54.2 C67.1441154,54.371779 67.0395091,54.5262436 66.88,54.59 L65.57,55.44 C65.1775783,55.6552476 64.7024217,55.6552476 64.31,55.44 L60.91,53.5 C60.7504909,53.4362436 60.6458846,53.281779 60.6458846,53.11 C60.6458846,52.938221 60.7504909,52.7837564 60.91,52.72 L62.22,51.87 C62.6138055,51.660222 63.0861945,51.660222 63.48,51.87 L66.88,53.81 Z"></path>
                            <path d="M74.65,55.14 C74.8095091,55.2037564 74.9141154,55.358221 74.9141154,55.53 C74.9141154,55.701779 74.8095091,55.8562436 74.65,55.92 L70.79,58.43 C70.3975783,58.6452476 69.9224217,58.6452476 69.53,58.43 L66.13,56.43 C65.9768625,56.3632344 65.8778541,56.2120591 65.8778541,56.045 C65.8778541,55.8779409 65.9768625,55.7267656 66.13,55.66 L70,53.23 C70.3924217,53.0147524 70.8675783,53.0147524 71.26,53.23 L74.65,55.14 Z"></path>
                            <path d="M77.32,59.8 C77.4815785,59.8591666 77.5890213,60.0129294 77.5890213,60.185 C77.5890213,60.3570706 77.4815785,60.5108334 77.32,60.57 L76.01,61.43 C75.6161945,61.639778 75.1438055,61.639778 74.75,61.43 L71.35,59.48 C71.1968625,59.4132344 71.0978541,59.2620591 71.0978541,59.095 C71.0978541,58.9279409 71.1968625,58.7767656 71.35,58.71 L72.66,57.86 C73.0524217,57.6447524 73.5275783,57.6447524 73.92,57.86 L77.32,59.8 Z"></path>
                        </g>
                        <g id="Shape" fill="#FFFFFF">
                            <path d="M32,2.21 C32.1531375,2.2767656 32.2521459,2.42794091 32.2521459,2.595 C32.2521459,2.76205909 32.1531375,2.9132344 32,2.98 L30.61,3.89 C30.2161945,4.09977803 29.7438055,4.09977803 29.35,3.89 L26,2 C25.8468625,1.9332344 25.7478541,1.78205909 25.7478541,1.615 C25.7478541,1.44794091 25.8468625,1.2967656 26,1.23 L27.39,0.32 C27.7838055,0.110221972 28.2561945,0.110221972 28.65,0.32 L32,2.21 Z"></path>
                            <path d="M29,4.21 C29.1531375,4.2767656 29.2521459,4.42794091 29.2521459,4.595 C29.2521459,4.76205909 29.1531375,4.9132344 29,4.98 L25.74,7.11 C25.3461945,7.31977803 24.8738055,7.31977803 24.48,7.11 L21.08,5.16 C20.9184215,5.10083343 20.8109787,4.94707061 20.8109787,4.775 C20.8109787,4.60292939 20.9184215,4.44916657 21.08,4.39 L24.34,2.26 C24.7338055,2.05022197 25.2061945,2.05022197 25.6,2.26 L29,4.21 Z"></path>
                            <path d="M37.51,5.36 C37.6715785,5.41916657 37.7790213,5.57292939 37.7790213,5.745 C37.7790213,5.91707061 37.6715785,6.07083343 37.51,6.13 L36.12,7.03 C35.7275783,7.24524757 35.2524217,7.24524757 34.86,7.03 L31.46,5.08 C31.3068625,5.0132344 31.2078541,4.86205909 31.2078541,4.695 C31.2078541,4.52794091 31.3068625,4.3767656 31.46,4.31 L32.85,3.4 C33.2424217,3.18475243 33.7175783,3.18475243 34.11,3.4 L37.51,5.36 Z"></path>
                            <path d="M34.17,7.2 C34.3315785,7.25916657 34.4390213,7.41292939 34.4390213,7.585 C34.4390213,7.75707061 34.3315785,7.91083343 34.17,7.97 L30.91,10.1 C30.5175783,10.3152476 30.0424217,10.3152476 29.65,10.1 L26.25,8.16 C26.0904909,8.09624358 25.9858846,7.94177901 25.9858846,7.77 C25.9858846,7.59822099 26.0904909,7.44375642 26.25,7.38 L29.51,5.26 C29.9024217,5.04475243 30.3775783,5.04475243 30.77,5.26 L34.17,7.2 Z"></path>
                            <path d="M42.88,8.43 C43.0331375,8.4967656 43.1321459,8.64794091 43.1321459,8.815 C43.1321459,8.98205909 43.0331375,9.1332344 42.88,9.2 L41.49,10.11 C41.0975783,10.3252476 40.6224217,10.3252476 40.23,10.11 L36.83,8.16 C36.6768625,8.0932344 36.5778541,7.94205909 36.5778541,7.775 C36.5778541,7.60794091 36.6768625,7.4567656 36.83,7.39 L38.22,6.49 C38.6138055,6.28022197 39.0861945,6.28022197 39.48,6.49 L42.88,8.43 Z"></path>
                            <path d="M39.39,10.2 C39.5515785,10.2591666 39.6590213,10.4129294 39.6590213,10.585 C39.6590213,10.7570706 39.5515785,10.9108334 39.39,10.97 L36.13,13.09 C35.7375783,13.3052476 35.2624217,13.3052476 34.87,13.09 L31.47,11.14 C31.3084215,11.0808334 31.2009787,10.9270706 31.2009787,10.755 C31.2009787,10.5829294 31.3084215,10.4291666 31.47,10.37 L34.73,8.24 C35.1238055,8.03022197 35.5961945,8.03022197 35.99,8.24 L39.39,10.2 Z"></path>
                            <path d="M48.36,11.58 C48.5215785,11.6391666 48.6290213,11.7929294 48.6290213,11.965 C48.6290213,12.1370706 48.5215785,12.2908334 48.36,12.35 L46.97,13.26 C46.5761945,13.469778 46.1038055,13.469778 45.71,13.26 L42.31,11.31 C42.1568625,11.2432344 42.0578541,11.0920591 42.0578541,10.925 C42.0578541,10.7579409 42.1568625,10.6067656 42.31,10.54 L43.7,9.64 C44.0924217,9.42475243 44.5675783,9.42475243 44.96,9.64 L48.36,11.58 Z"></path>
                            <path d="M44.61,13.19 C44.7715785,13.2491666 44.8790213,13.4029294 44.8790213,13.575 C44.8790213,13.7470706 44.7715785,13.9008334 44.61,13.96 L41.35,16.09 C40.9561945,16.299778 40.4838055,16.299778 40.09,16.09 L36.69,14.09 C36.5368625,14.0232344 36.4378541,13.8720591 36.4378541,13.705 C36.4378541,13.5379409 36.5368625,13.3867656 36.69,13.32 L40,11.28 C40.3938055,11.070222 40.8661945,11.070222 41.26,11.28 L44.61,13.19 Z"></path>
                            <path d="M53.68,14.63 C53.8415785,14.6891666 53.9490213,14.8429294 53.9490213,15.015 C53.9490213,15.1870706 53.8415785,15.3408334 53.68,15.4 L52.29,16.31 C51.8975783,16.5252476 51.4224217,16.5252476 51.03,16.31 L47.63,14.31 C47.4684215,14.2508334 47.3609787,14.0970706 47.3609787,13.925 C47.3609787,13.7529294 47.4684215,13.5991666 47.63,13.54 L49.02,12.64 C49.4124217,12.4247524 49.8875783,12.4247524 50.28,12.64 L53.68,14.63 Z"></path>
                            <path d="M49.87,16.21 C50.0231375,16.2767656 50.1221459,16.4279409 50.1221459,16.595 C50.1221459,16.7620591 50.0231375,16.9132344 49.87,16.98 L46.6,19.1 C46.2061945,19.309778 45.7338055,19.309778 45.34,19.1 L42,17.19 C41.8384215,17.1308334 41.7309787,16.9770706 41.7309787,16.805 C41.7309787,16.6329294 41.8384215,16.4791666 42,16.42 L45.26,14.29 C45.6524217,14.0747524 46.1275783,14.0747524 46.52,14.29 L49.87,16.21 Z"></path>
                            <path d="M59.17,17.78 C59.3315785,17.8391666 59.4390213,17.9929294 59.4390213,18.165 C59.4390213,18.3370706 59.3315785,18.4908334 59.17,18.55 L57.78,19.46 C57.3861945,19.669778 56.9138055,19.669778 56.52,19.46 L53.12,17.46 C52.9668625,17.3932344 52.8678541,17.2420591 52.8678541,17.075 C52.8678541,16.9079409 52.9668625,16.7567656 53.12,16.69 L54.51,15.78 C54.9073407,15.5702044 55.3826593,15.5702044 55.78,15.78 L59.17,17.78 Z"></path>
                            <path d="M55.09,19.2 C55.2431375,19.2667656 55.3421459,19.4179409 55.3421459,19.585 C55.3421459,19.7520591 55.2431375,19.9032344 55.09,19.97 L51.83,22.1 C51.4361945,22.309778 50.9638055,22.309778 50.57,22.1 L47.18,20.15 C47.0184215,20.0908334 46.9109787,19.9370706 46.9109787,19.765 C46.9109787,19.5929294 47.0184215,19.4391666 47.18,19.38 L50.44,17.25 C50.8338055,17.040222 51.3061945,17.040222 51.7,17.25 L55.09,19.2 Z"></path>
                            <path d="M64.58,20.88 C64.7331375,20.9467656 64.8321459,21.0979409 64.8321459,21.265 C64.8321459,21.4320591 64.7331375,21.5832344 64.58,21.65 L63.18,22.56 C62.7861945,22.769778 62.3138055,22.769778 61.92,22.56 L58.53,20.56 C58.3684215,20.5008334 58.2609787,20.3470706 58.2609787,20.175 C58.2609787,20.0029294 58.3684215,19.8491666 58.53,19.79 L59.92,18.89 C60.3124217,18.6747524 60.7875783,18.6747524 61.18,18.89 L64.58,20.88 Z"></path>
                            <path d="M60.31,22.19 C60.4631375,22.2567656 60.5621459,22.4079409 60.5621459,22.575 C60.5621459,22.7420591 60.4631375,22.8932344 60.31,22.96 L57.05,25.09 C56.6575783,25.3052476 56.1824217,25.3052476 55.79,25.09 L52.4,23.15 C52.2404909,23.0862436 52.1358846,22.931779 52.1358846,22.76 C52.1358846,22.588221 52.2404909,22.4337564 52.4,22.37 L55.66,20.25 C56.0524217,20.0347524 56.5275783,20.0347524 56.92,20.25 L60.31,22.19 Z"></path>
                            <path d="M70.07,24 C70.2231375,24.0667656 70.3221459,24.2179409 70.3221459,24.385 C70.3221459,24.5520591 70.2231375,24.7032344 70.07,24.77 L68.68,25.67 C68.2875783,25.8852476 67.8124217,25.8852476 67.42,25.67 L64.02,23.67 C63.8668625,23.6032344 63.7678541,23.4520591 63.7678541,23.285 C63.7678541,23.1179409 63.8668625,22.9667656 64.02,22.9 L65.41,21.99 C65.8024217,21.7747524 66.2775783,21.7747524 66.67,21.99 L70.07,24 Z"></path>
                            <path d="M65.53,25.19 C65.6831375,25.2567656 65.7821459,25.4079409 65.7821459,25.575 C65.7821459,25.7420591 65.6831375,25.8932344 65.53,25.96 L62.27,28.08 C61.8775783,28.2952476 61.4024217,28.2952476 61.01,28.08 L57.62,26.08 C57.4584215,26.0208334 57.3509787,25.8670706 57.3509787,25.695 C57.3509787,25.5229294 57.4584215,25.3691666 57.62,25.31 L60.88,23.18 C61.2738055,22.970222 61.7461945,22.970222 62.14,23.18 L65.53,25.19 Z"></path>
                            <path d="M75.43,27.1 C75.5895091,27.1637564 75.6941154,27.318221 75.6941154,27.49 C75.6941154,27.661779 75.5895091,27.8162436 75.43,27.88 L74.04,28.78 C73.6440086,28.995172 73.1659914,28.995172 72.77,28.78 L69.38,26.84 C69.2184215,26.7808334 69.1109787,26.6270706 69.1109787,26.455 C69.1109787,26.2829294 69.2184215,26.1291666 69.38,26.07 L70.77,25.16 C71.1624217,24.9447524 71.6375783,24.9447524 72.03,25.16 L75.43,27.1 Z"></path>
                            <path d="M70.78,28.2 C70.9415785,28.2591666 71.0490213,28.4129294 71.0490213,28.585 C71.0490213,28.7570706 70.9415785,28.9108334 70.78,28.97 L67.52,31.1 C67.1275783,31.3152476 66.6524217,31.3152476 66.26,31.1 L62.86,29.15 C62.7068625,29.0832344 62.6078541,28.9320591 62.6078541,28.765 C62.6078541,28.5979409 62.7068625,28.4467656 62.86,28.38 L66.13,26.26 C66.5238055,26.050222 66.9961945,26.050222 67.39,26.26 L70.78,28.2 Z"></path>
                            <path d="M80.92,30.25 C81.0731375,30.3167656 81.1721459,30.4679409 81.1721459,30.635 C81.1721459,30.8020591 81.0731375,30.9532344 80.92,31.02 L79.53,31.93 C79.1375783,32.1452476 78.6624217,32.1452476 78.27,31.93 L74.89,30 C74.7368625,29.9332344 74.6378541,29.7820591 74.6378541,29.615 C74.6378541,29.4479409 74.7368625,29.2967656 74.89,29.23 L76.28,28.33 C76.6724217,28.1147524 77.1475783,28.1147524 77.54,28.33 L80.92,30.25 Z"></path>
                            <path d="M76,31.22 C76.1531375,31.2867656 76.2521459,31.4379409 76.2521459,31.605 C76.2521459,31.7720591 76.1531375,31.9232344 76,31.99 L72.74,34.11 C72.3440086,34.325172 71.8659914,34.325172 71.47,34.11 L68.08,32.16 C67.9184215,32.1008334 67.8109787,31.9470706 67.8109787,31.775 C67.8109787,31.6029294 67.9184215,31.4491666 68.08,31.39 L71.34,29.26 C71.7338055,29.050222 72.2061945,29.050222 72.6,29.26 L76,31.22 Z"></path>
                            <path d="M86.23,33.3 C86.3915785,33.3591666 86.4990213,33.5129294 86.4990213,33.685 C86.4990213,33.8570706 86.3915785,34.0108334 86.23,34.07 L84.84,34.98 C84.4475783,35.1952476 83.9724217,35.1952476 83.58,34.98 L80.18,33.03 C80.0184215,32.9708334 79.9109787,32.8170706 79.9109787,32.645 C79.9109787,32.4729294 80.0184215,32.3191666 80.18,32.26 L81.57,31.36 C81.9624217,31.1447524 82.4375783,31.1447524 82.83,31.36 L86.23,33.3 Z"></path>
                            <path d="M81.26,34.21 C81.4131375,34.2767656 81.5121459,34.4279409 81.5121459,34.595 C81.5121459,34.7620591 81.4131375,34.9132344 81.26,34.98 L78,37.11 C77.6026593,37.3197956 77.1273407,37.3197956 76.73,37.11 L73.34,35.16 C73.1784215,35.1008334 73.0709787,34.9470706 73.0709787,34.775 C73.0709787,34.6029294 73.1784215,34.4491666 73.34,34.39 L76.6,32.27 C76.9938055,32.060222 77.4661945,32.060222 77.86,32.27 L81.26,34.21 Z"></path>
                            <path d="M91.72,36.45 C91.8815785,36.5091666 91.9890213,36.6629294 91.9890213,36.835 C91.9890213,37.0070706 91.8815785,37.1608334 91.72,37.22 L90.33,38.13 C89.9361945,38.339778 89.4638055,38.339778 89.07,38.13 L85.67,36.13 C85.5084215,36.0708334 85.4009787,35.9170706 85.4009787,35.745 C85.4009787,35.5729294 85.5084215,35.4191666 85.67,35.36 L87.06,34.45 C87.4538055,34.240222 87.9261945,34.240222 88.32,34.45 L91.72,36.45 Z"></path>
                            <path d="M86.43,37.24 C86.5706294,37.2994607 86.6620135,37.4373166 86.6620135,37.59 C86.6620135,37.7426834 86.5706294,37.8805393 86.43,37.94 L83.17,40.07 C82.8080657,40.2655832 82.3719343,40.2655832 82.01,40.07 L78.62,38.07 C78.4793706,38.0105393 78.3879865,37.8726834 78.3879865,37.72 C78.3879865,37.5673166 78.4793706,37.4294607 78.62,37.37 L81.89,35.24 C82.2483709,35.0443583 82.6816291,35.0443583 83.04,35.24 L86.43,37.24 Z"></path>
                            <path d="M97.11,39.54 C97.2715785,39.5991666 97.3790213,39.7529294 97.3790213,39.925 C97.3790213,40.0970706 97.2715785,40.2508334 97.11,40.31 L95.72,41.22 C95.3261945,41.429778 94.8538055,41.429778 94.46,41.22 L91.06,39.27 C90.8984215,39.2108334 90.7909787,39.0570706 90.7909787,38.885 C90.7909787,38.7129294 90.8984215,38.5591666 91.06,38.5 L92.45,37.6 C92.8424217,37.3847524 93.3175783,37.3847524 93.71,37.6 L97.11,39.54 Z"></path>
                            <path d="M91.7,40.2 C91.8531375,40.2667656 91.9521459,40.4179409 91.9521459,40.585 C91.9521459,40.7520591 91.8531375,40.9032344 91.7,40.97 L88.43,43.1 C88.0361945,43.309778 87.5638055,43.309778 87.17,43.1 L83.78,41.15 C83.6184215,41.0908334 83.5109787,40.9370706 83.5109787,40.765 C83.5109787,40.5929294 83.6184215,40.4391666 83.78,40.38 L87,38.28 C87.3938055,38.070222 87.8661945,38.070222 88.26,38.28 L91.7,40.2 Z"></path>
                            <path d="M26.67,8.83 C26.8315785,8.88916657 26.9390213,9.04292939 26.9390213,9.215 C26.9390213,9.38707061 26.8315785,9.54083343 26.67,9.6 L23.41,11.73 C23.0161945,11.939778 22.5438055,11.939778 22.15,11.73 L16.15,8.31 C15.9884215,8.25083343 15.8809787,8.09707061 15.8809787,7.925 C15.8809787,7.75292939 15.9884215,7.59916657 16.15,7.54 L19.41,5.42 C19.8038055,5.21022197 20.2761945,5.21022197 20.67,5.42 L26.67,8.83 Z"></path>
                            <path d="M31.94,11.85 C32.0995091,11.9137564 32.2041154,12.068221 32.2041154,12.24 C32.2041154,12.411779 32.0995091,12.5662436 31.94,12.63 L28.68,14.75 C28.2875783,14.9652476 27.8124217,14.9652476 27.42,14.75 L24.02,12.8 C23.8584215,12.7408334 23.7509787,12.5870706 23.7509787,12.415 C23.7509787,12.2429294 23.8584215,12.0891666 24.02,12.03 L27.28,9.91 C27.6724217,9.69475243 28.1475783,9.69475243 28.54,9.91 L31.94,11.85 Z"></path>
                            <path d="M37.2,14.87 C37.3615785,14.9291666 37.4690213,15.0829294 37.4690213,15.255 C37.4690213,15.4270706 37.3615785,15.5808334 37.2,15.64 L34,17.76 C33.6075783,17.9752476 33.1324217,17.9752476 32.74,17.76 L29.35,15.76 C29.1884215,15.7008334 29.0809787,15.5470706 29.0809787,15.375 C29.0809787,15.2029294 29.1884215,15.0491666 29.35,14.99 L32.54,13 C32.9373407,12.7902044 33.4126593,12.7902044 33.81,13 L37.2,14.87 Z"></path>
                            <path d="M42.42,17.86 C42.5815785,17.9191666 42.6890213,18.0729294 42.6890213,18.245 C42.6890213,18.4170706 42.5815785,18.5708334 42.42,18.63 L39.15,20.76 C38.7575783,20.9752476 38.2824217,20.9752476 37.89,20.76 L34.5,18.81 C34.3384215,18.7508334 34.2309787,18.5970706 34.2309787,18.425 C34.2309787,18.2529294 34.3384215,18.0991666 34.5,18.04 L37.76,16 C38.1514343,15.780933 38.6285657,15.780933 39.02,16 L42.42,17.86 Z"></path>
                            <path d="M47.6,20.84 C47.7615785,20.8991666 47.8690213,21.0529294 47.8690213,21.225 C47.8690213,21.3970706 47.7615785,21.5508334 47.6,21.61 L44.34,23.73 C43.9461945,23.939778 43.4738055,23.939778 43.08,23.73 L39.68,21.73 C39.5268625,21.6632344 39.4278541,21.5120591 39.4278541,21.345 C39.4278541,21.1779409 39.5268625,21.0267656 39.68,20.96 L43,18.92 C43.3924217,18.7047524 43.8675783,18.7047524 44.26,18.92 L47.6,20.84 Z"></path>
                            <path d="M52.86,23.85 C53.0215785,23.9091666 53.1290213,24.0629294 53.1290213,24.235 C53.1290213,24.4070706 53.0215785,24.5608334 52.86,24.62 L49.6,26.75 C49.2061945,26.959778 48.7338055,26.959778 48.34,26.75 L45,24.83 C44.8384215,24.7708334 44.7309787,24.6170706 44.7309787,24.445 C44.7309787,24.2729294 44.8384215,24.1191666 45,24.06 L48.26,21.93 C48.6538055,21.720222 49.1261945,21.720222 49.52,21.93 L52.86,23.85 Z"></path>
                            <path d="M58.08,26.84 C58.2395091,26.9037564 58.3441154,27.058221 58.3441154,27.23 C58.3441154,27.401779 58.2395091,27.5562436 58.08,27.62 L54.82,29.74 C54.4275783,29.9552476 53.9524217,29.9552476 53.56,29.74 L50.17,27.8 C50.0104909,27.7362436 49.9058846,27.581779 49.9058846,27.41 C49.9058846,27.238221 50.0104909,27.0837564 50.17,27.02 L53.43,24.9 C53.8224217,24.6847524 54.2975783,24.6847524 54.69,24.9 L58.08,26.84 Z"></path>
                            <path d="M63.3,29.84 C63.4615785,29.8991666 63.5690213,30.0529294 63.5690213,30.225 C63.5690213,30.3970706 63.4615785,30.5508334 63.3,30.61 L60.04,32.73 C59.6475783,32.9452476 59.1724217,32.9452476 58.78,32.73 L55.39,30.78 C55.2284215,30.7208334 55.1209787,30.5670706 55.1209787,30.395 C55.1209787,30.2229294 55.2284215,30.0691666 55.39,30.01 L58.65,27.88 C59.0438055,27.670222 59.5161945,27.670222 59.91,27.88 L63.3,29.84 Z"></path>
                            <path d="M68.52,32.83 C68.6815785,32.8891666 68.7890213,33.0429294 68.7890213,33.215 C68.7890213,33.3870706 68.6815785,33.5408334 68.52,33.6 L65.26,35.73 C64.8675783,35.9452476 64.3924217,35.9452476 64,35.73 L60.61,33.78 C60.4484215,33.7208334 60.3409787,33.5670706 60.3409787,33.395 C60.3409787,33.2229294 60.4484215,33.0691666 60.61,33.01 L63.87,30.89 C64.2624217,30.6747524 64.7375783,30.6747524 65.13,30.89 L68.52,32.83 Z"></path>
                            <path d="M73.72,35.88 C73.8672026,35.9362083 73.9644456,36.077431 73.9644456,36.235 C73.9644456,36.392569 73.8672026,36.5337917 73.72,36.59 L70.45,38.71 C70.0916291,38.9056417 69.6583709,38.9056417 69.3,38.71 L65.9,36.77 C65.7608232,36.7066932 65.6714776,36.5678984 65.6714776,36.415 C65.6714776,36.2621016 65.7608232,36.1233068 65.9,36.06 L69.17,34 C69.5332586,33.8097253 69.9667414,33.8097253 70.33,34 L73.72,35.88 Z"></path>
                            <path d="M79,38.86 C79.1531375,38.9267656 79.2521459,39.0779409 79.2521459,39.245 C79.2521459,39.4120591 79.1531375,39.5632344 79,39.63 L75.74,41.76 C75.3426593,41.9697956 74.8673407,41.9697956 74.47,41.76 L71.08,39.76 C70.9184215,39.7008334 70.8109787,39.5470706 70.8109787,39.375 C70.8109787,39.2029294 70.9184215,39.0491666 71.08,38.99 L74.37,37 C74.7624217,36.7847524 75.2375783,36.7847524 75.63,37 L79,38.86 Z"></path>
                            <path d="M84.25,41.85 C84.4095091,41.9137564 84.5141154,42.068221 84.5141154,42.24 C84.5141154,42.411779 84.4095091,42.5662436 84.25,42.63 L81,44.75 C80.6040086,44.965172 80.1259914,44.965172 79.73,44.75 L76.34,42.81 C76.1784215,42.7508334 76.0709787,42.5970706 76.0709787,42.425 C76.0709787,42.2529294 76.1784215,42.0991666 76.34,42.04 L79.6,39.91 C79.9924217,39.6947524 80.4675783,39.6947524 80.86,39.91 L84.25,41.85 Z"></path>
                            <path d="M102.6,42.69 C102.753137,42.7567656 102.852146,42.9079409 102.852146,43.075 C102.852146,43.2420591 102.753137,43.3932344 102.6,43.46 L101.21,44.37 C100.812659,44.5797956 100.337341,44.5797956 99.94,44.37 L96.55,42.42 C96.3884215,42.3608334 96.2809787,42.2070706 96.2809787,42.035 C96.2809787,41.8629294 96.3884215,41.7091666 96.55,41.65 L97.94,40.74 C98.3338055,40.530222 98.8061945,40.530222 99.2,40.74 L102.6,42.69 Z"></path>
                            <path d="M99.53,44.69 C99.6831375,44.7567656 99.7821459,44.9079409 99.7821459,45.075 C99.7821459,45.2420591 99.6831375,45.3932344 99.53,45.46 L96.26,47.59 C95.8661945,47.799778 95.3938055,47.799778 95,47.59 L88.89,44.08 C88.7284215,44.0208334 88.6209787,43.8670706 88.6209787,43.695 C88.6209787,43.5229294 88.7284215,43.3691666 88.89,43.31 L92.15,41.19 C92.5459914,40.974828 93.0240086,40.974828 93.42,41.19 L99.53,44.69 Z"></path>
                            <path d="M89.47,44.85 C89.6231375,44.9167656 89.7221459,45.0679409 89.7221459,45.235 C89.7221459,45.4020591 89.6231375,45.5532344 89.47,45.62 L86.2,47.75 C85.8061945,47.959778 85.3338055,47.959778 84.94,47.75 L81.55,45.8 C81.3884215,45.7408334 81.2809787,45.5870706 81.2809787,45.415 C81.2809787,45.2429294 81.3884215,45.0891666 81.55,45.03 L84.81,42.9 C85.2038055,42.690222 85.6761945,42.690222 86.07,42.9 L89.47,44.85 Z"></path>
                            <path d="M94.69,47.84 C94.8431375,47.9067656 94.9421459,48.0579409 94.9421459,48.225 C94.9421459,48.3920591 94.8431375,48.5432344 94.69,48.61 L91.42,50.74 C91.0275783,50.9552476 90.5524217,50.9552476 90.16,50.74 L86.77,48.79 C86.6084215,48.7308334 86.5009787,48.5770706 86.5009787,48.405 C86.5009787,48.2329294 86.6084215,48.0791666 86.77,48.02 L90,45.93 C90.3924217,45.7147524 90.8675783,45.7147524 91.26,45.93 L94.69,47.84 Z"></path>
                            <path d="M23.07,12.82 C23.2231375,12.8867656 23.3221459,13.0379409 23.3221459,13.205 C23.3221459,13.3720591 23.2231375,13.5232344 23.07,13.59 L19.81,15.72 C19.4126593,15.9297956 18.9373407,15.9297956 18.54,15.72 L11.25,11.53 C11.0968625,11.4632344 10.9978541,11.3120591 10.9978541,11.145 C10.9978541,10.9779409 11.0968625,10.8267656 11.25,10.76 L14.52,8.64 C14.9124217,8.42475243 15.3875783,8.42475243 15.78,8.64 L23.07,12.82 Z"></path>
                            <path d="M28.27,15.8 C28.4315785,15.8591666 28.5390213,16.0129294 28.5390213,16.185 C28.5390213,16.3570706 28.4315785,16.5108334 28.27,16.57 L25,18.7 C24.6075783,18.9152476 24.1324217,18.9152476 23.74,18.7 L20.34,16.75 C20.1868625,16.6832344 20.0878541,16.5320591 20.0878541,16.365 C20.0878541,16.1979409 20.1868625,16.0467656 20.34,15.98 L23.61,13.86 C24.0038055,13.650222 24.4761945,13.650222 24.87,13.86 L28.27,15.8 Z"></path>
                            <path d="M33.53,18.82 C33.6915785,18.8791666 33.7990213,19.0329294 33.7990213,19.205 C33.7990213,19.3770706 33.6915785,19.5308334 33.53,19.59 L30.27,21.71 C29.8761945,21.919778 29.4038055,21.919778 29.01,21.71 L25.62,19.76 C25.4584215,19.7008334 25.3509787,19.5470706 25.3509787,19.375 C25.3509787,19.2029294 25.4584215,19.0491666 25.62,18.99 L28.88,16.86 C29.2738055,16.650222 29.7461945,16.650222 30.14,16.86 L33.53,18.82 Z"></path>
                            <path d="M38.75,21.81 C38.9115785,21.8691666 39.0190213,22.0229294 39.0190213,22.195 C39.0190213,22.3670706 38.9115785,22.5208334 38.75,22.58 L35.49,24.71 C35.0975783,24.9252476 34.6224217,24.9252476 34.23,24.71 L30.84,22.71 C30.6784215,22.6508334 30.5709787,22.4970706 30.5709787,22.325 C30.5709787,22.1529294 30.6784215,21.9991666 30.84,21.94 L34.1,19.82 C34.4924217,19.6047524 34.9675783,19.6047524 35.36,19.82 L38.75,21.81 Z"></path>
                            <path d="M43.93,24.79 C44.0915785,24.8491666 44.1990213,25.0029294 44.1990213,25.175 C44.1990213,25.3470706 44.0915785,25.5008334 43.93,25.56 L40.67,27.68 C40.2775783,27.8952476 39.8024217,27.8952476 39.41,27.68 L36,25.77 C35.8384215,25.7108334 35.7309787,25.5570706 35.7309787,25.385 C35.7309787,25.2129294 35.8384215,25.0591666 36,25 L39.26,22.87 C39.6524217,22.6547524 40.1275783,22.6547524 40.52,22.87 L43.93,24.79 Z"></path>
                            <path d="M49.19,27.8 C49.3431375,27.8667656 49.4421459,28.0179409 49.4421459,28.185 C49.4421459,28.3520591 49.3431375,28.5032344 49.19,28.57 L46,30.7 C45.6061945,30.909778 45.1338055,30.909778 44.74,30.7 L41.34,28.75 C41.1868625,28.6832344 41.0878541,28.5320591 41.0878541,28.365 C41.0878541,28.1979409 41.1868625,28.0467656 41.34,27.98 L44.6,25.85 C44.9938055,25.640222 45.4661945,25.640222 45.86,25.85 L49.19,27.8 Z"></path>
                            <path d="M54.41,30.79 C54.5631375,30.8567656 54.6621459,31.0079409 54.6621459,31.175 C54.6621459,31.3420591 54.5631375,31.4932344 54.41,31.56 L51.15,33.69 C50.7575783,33.9052476 50.2824217,33.9052476 49.89,33.69 L46.49,31.69 C46.3368625,31.6232344 46.2378541,31.4720591 46.2378541,31.305 C46.2378541,31.1379409 46.3368625,30.9867656 46.49,30.92 L49.75,28.8 C50.1438055,28.590222 50.6161945,28.590222 51.01,28.8 L54.41,30.79 Z"></path>
                            <path d="M59.63,33.79 C59.7831375,33.8567656 59.8821459,34.0079409 59.8821459,34.175 C59.8821459,34.3420591 59.7831375,34.4932344 59.63,34.56 L56.37,36.68 C55.9761945,36.889778 55.5038055,36.889778 55.11,36.68 L51.71,34.68 C51.5568625,34.6132344 51.4578541,34.4620591 51.4578541,34.295 C51.4578541,34.1279409 51.5568625,33.9767656 51.71,33.91 L55,31.87 C55.3924217,31.6547524 55.8675783,31.6547524 56.26,31.87 L59.63,33.79 Z"></path>
                            <path d="M64.85,36.78 C65.0031375,36.8467656 65.1021459,36.9979409 65.1021459,37.165 C65.1021459,37.3320591 65.0031375,37.4832344 64.85,37.55 L61.59,39.68 C61.1961945,39.889778 60.7238055,39.889778 60.33,39.68 L57,37.76 C56.8468625,37.6932344 56.7478541,37.5420591 56.7478541,37.375 C56.7478541,37.2079409 56.8468625,37.0567656 57,36.99 L60.26,34.87 C60.6524217,34.6547524 61.1275783,34.6547524 61.52,34.87 L64.85,36.78 Z"></path>
                            <path d="M70.1,39.8 C70.2615785,39.8591666 70.3690213,40.0129294 70.3690213,40.185 C70.3690213,40.3570706 70.2615785,40.5108334 70.1,40.57 L66.84,42.69 C66.4461945,42.899778 65.9738055,42.899778 65.58,42.69 L62.18,40.69 C62.0184215,40.6308334 61.9109787,40.4770706 61.9109787,40.305 C61.9109787,40.1329294 62.0184215,39.9791666 62.18,39.92 L65.44,37.79 C65.8324217,37.5747524 66.3075783,37.5747524 66.7,37.79 L70.1,39.8 Z"></path>
                            <path d="M75.36,42.81 C75.5131375,42.8767656 75.6121459,43.0279409 75.6121459,43.195 C75.6121459,43.3620591 75.5131375,43.5132344 75.36,43.58 L72.1,45.71 C71.7061945,45.919778 71.2338055,45.919778 70.84,45.71 L67.44,43.76 C67.2868625,43.6932344 67.1878541,43.5420591 67.1878541,43.375 C67.1878541,43.2079409 67.2868625,43.0567656 67.44,42.99 L70.7,40.86 C71.0938055,40.650222 71.5661945,40.650222 71.96,40.86 L75.36,42.81 Z"></path>
                            <path d="M80.58,45.8 C80.7331375,45.8667656 80.8321459,46.0179409 80.8321459,46.185 C80.8321459,46.3520591 80.7331375,46.5032344 80.58,46.57 L77.32,48.7 C76.9275783,48.9152476 76.4524217,48.9152476 76.06,48.7 L72.66,46.7 C72.5068625,46.6332344 72.4078541,46.4820591 72.4078541,46.315 C72.4078541,46.1479409 72.5068625,45.9967656 72.66,45.93 L75.92,43.81 C76.3138055,43.600222 76.7861945,43.600222 77.18,43.81 L80.58,45.8 Z"></path>
                            <path d="M20.86,17.54 C21.0195091,17.6037564 21.1241154,17.758221 21.1241154,17.93 C21.1241154,18.101779 21.0195091,18.2562436 20.86,18.32 L17.6,20.44 C17.2075783,20.6552476 16.7324217,20.6552476 16.34,20.44 L6.34,14.72 C6.1784215,14.6608334 6.07097872,14.5070706 6.07097872,14.335 C6.07097872,14.1629294 6.1784215,14.0091666 6.34,13.95 L9.59,11.83 C9.98242172,11.6147524 10.4575783,11.6147524 10.85,11.83 L20.86,17.54 Z"></path>
                            <path d="M26,20.48 C26.1615785,20.5391666 26.2690213,20.6929294 26.2690213,20.865 C26.2690213,21.0370706 26.1615785,21.1908334 26,21.25 L22.74,23.37 C22.3461945,23.579778 21.8738055,23.579778 21.48,23.37 L18.08,21.42 C17.9268625,21.3532344 17.8278541,21.2020591 17.8278541,21.035 C17.8278541,20.8679409 17.9268625,20.7167656 18.08,20.65 L21.34,18.52 C21.7324217,18.3047524 22.2075783,18.3047524 22.6,18.52 L26,20.48 Z"></path>
                            <path d="M31.23,23.49 C31.3831375,23.5567656 31.4821459,23.7079409 31.4821459,23.875 C31.4821459,24.0420591 31.3831375,24.1932344 31.23,24.26 L28,26.39 C27.6026593,26.5997956 27.1273407,26.5997956 26.73,26.39 L23.34,24.44 C23.1784215,24.3808334 23.0709787,24.2270706 23.0709787,24.055 C23.0709787,23.8829294 23.1784215,23.7291666 23.34,23.67 L26.6,21.55 C26.9924217,21.3347524 27.4675783,21.3347524 27.86,21.55 L31.23,23.49 Z"></path>
                            <path d="M36.45,26.49 C36.6031375,26.5567656 36.7021459,26.7079409 36.7021459,26.875 C36.7021459,27.0420591 36.6031375,27.1932344 36.45,27.26 L33.19,29.38 C32.7940086,29.595172 32.3159914,29.595172 31.92,29.38 L28.53,27.44 C28.3704909,27.3762436 28.2658846,27.221779 28.2658846,27.05 C28.2658846,26.878221 28.3704909,26.7237564 28.53,26.66 L31.79,24.54 C32.1824217,24.3247524 32.6575783,24.3247524 33.05,24.54 L36.45,26.49 Z"></path>
                            <path d="M41.63,29.46 C41.7915785,29.5191666 41.8990213,29.6729294 41.8990213,29.845 C41.8990213,30.0170706 41.7915785,30.1708334 41.63,30.23 L38.37,32.35 C37.9775783,32.5652476 37.5024217,32.5652476 37.11,32.35 L33.71,30.4 C33.5484215,30.3408334 33.4409787,30.1870706 33.4409787,30.015 C33.4409787,29.8429294 33.5484215,29.6891666 33.71,29.63 L37,27.54 C37.3938055,27.330222 37.8661945,27.330222 38.26,27.54 L41.63,29.46 Z"></path>
                            <path d="M46.89,32.47 C47.0515785,32.5291666 47.1590213,32.6829294 47.1590213,32.855 C47.1590213,33.0270706 47.0515785,33.1808334 46.89,33.24 L43.64,35.37 C43.2426593,35.5797956 42.7673407,35.5797956 42.37,35.37 L39,33.45 C38.8384215,33.3908334 38.7309787,33.2370706 38.7309787,33.065 C38.7309787,32.8929294 38.8384215,32.7391666 39,32.68 L42.26,30.56 C42.6538055,30.350222 43.1261945,30.350222 43.52,30.56 L46.89,32.47 Z"></path>
                            <path d="M52.11,35.47 C52.2715785,35.5291666 52.3790213,35.6829294 52.3790213,35.855 C52.3790213,36.0270706 52.2715785,36.1808334 52.11,36.24 L48.86,38.36 C48.4626593,38.5697956 47.9873407,38.5697956 47.59,38.36 L44.2,36.41 C44.0384215,36.3508334 43.9309787,36.1970706 43.9309787,36.025 C43.9309787,35.8529294 44.0384215,35.6991666 44.2,35.64 L47.46,33.51 C47.8524217,33.2947524 48.3275783,33.2947524 48.72,33.51 L52.11,35.47 Z"></path>
                            <path d="M57.33,38.46 C57.4915785,38.5191666 57.5990213,38.6729294 57.5990213,38.845 C57.5990213,39.0170706 57.4915785,39.1708334 57.33,39.23 L54.08,41.36 C53.6826593,41.5697956 53.2073407,41.5697956 52.81,41.36 L49.41,39.41 C49.2568625,39.3432344 49.1578541,39.1920591 49.1578541,39.025 C49.1578541,38.8579409 49.2568625,38.7067656 49.41,38.64 L52.67,36.52 C53.0624217,36.3047524 53.5375783,36.3047524 53.93,36.52 L57.33,38.46 Z"></path>
                            <path d="M62.55,41.46 C62.7031375,41.5267656 62.8021459,41.6779409 62.8021459,41.845 C62.8021459,42.0120591 62.7031375,42.1632344 62.55,42.23 L59.3,44.35 C58.9040086,44.565172 58.4259914,44.565172 58.03,44.35 L54.63,42.41 C54.4704909,42.3462436 54.3658846,42.191779 54.3658846,42.02 C54.3658846,41.848221 54.4704909,41.6937564 54.63,41.63 L57.89,39.51 C58.2824217,39.2947524 58.7575783,39.2947524 59.15,39.51 L62.55,41.46 Z"></path>
                            <path d="M67.8,44.47 C67.9615785,44.5291666 68.0690213,44.6829294 68.0690213,44.855 C68.0690213,45.0270706 67.9615785,45.1808334 67.8,45.24 L64.54,47.36 C64.1475783,47.5752476 63.6724217,47.5752476 63.28,47.36 L59.88,45.41 C59.7184215,45.3508334 59.6109787,45.1970706 59.6109787,45.025 C59.6109787,44.8529294 59.7184215,44.6991666 59.88,44.64 L63.14,42.51 C63.5338055,42.300222 64.0061945,42.300222 64.4,42.51 L67.8,44.47 Z"></path>
                            <path d="M73.06,47.48 C73.2215785,47.5391666 73.3290213,47.6929294 73.3290213,47.865 C73.3290213,48.0370706 73.2215785,48.1908334 73.06,48.25 L69.81,50.38 C69.4140086,50.595172 68.9359914,50.595172 68.54,50.38 L65.14,48.38 C64.9868625,48.3132344 64.8878541,48.1620591 64.8878541,47.995 C64.8878541,47.8279409 64.9868625,47.6767656 65.14,47.61 L68.4,45.49 C68.7938055,45.280222 69.2661945,45.280222 69.66,45.49 L73.06,47.48 Z"></path>
                            <path d="M9.38,17 C9.73,17.2 9.7,17.57 9.32,17.82 L5.62,20.23 C5.21607945,20.4809291 4.71384825,20.5146611 4.28,20.32 L0.88,18.37 C0.53,18.17 0.55,17.8 0.94,17.54 L4.63,15.14 C5.03395699,14.865616 5.54889374,14.8129947 6,15 L9.38,17 Z"></path>
                            <path d="M14.6,20 C14.95,20.2 14.92,20.58 14.54,20.83 L10.84,23.23 C10.4396804,23.4918928 9.93174575,23.5260078 9.5,23.32 L6.1,21.38 C5.75,21.17 5.77,20.8 6.16,20.55 L9.85,18.14 C10.2490335,17.8726075 10.7545889,17.8201795 11.2,18 L14.6,20 Z"></path>
                            <path d="M19.82,23 C20.17,23.21 20.14,23.58 19.76,23.83 L16.06,26.24 C15.6560794,26.4909291 15.1538483,26.5246611 14.72,26.33 L11.32,24.38 C10.97,24.18 10.99,23.8 11.38,23.55 L15.07,21.14 C15.4775961,20.8870045 15.9853768,20.8569138 16.42,21.06 L19.82,23 Z"></path>
                            <path d="M26.32,26.69 C26.4815785,26.7491666 26.5890213,26.9029294 26.5890213,27.075 C26.5890213,27.2470706 26.4815785,27.4008334 26.32,27.46 L22.49,30 C22.0975783,30.2152476 21.6224217,30.2152476 21.23,30 L16.54,27.31 C16.3868625,27.2432344 16.2878541,27.0920591 16.2878541,26.925 C16.2878541,26.7579409 16.3868625,26.6067656 16.54,26.54 L20.38,24 C20.7738055,23.790222 21.2461945,23.790222 21.64,24 L26.32,26.69 Z"></path>
                            <path d="M52.42,41.66 C52.5815785,41.7191666 52.6890213,41.8729294 52.6890213,42.045 C52.6890213,42.2170706 52.5815785,42.3708334 52.42,42.43 L48.56,44.94 C48.1640086,45.155172 47.6859914,45.155172 47.29,44.94 L23.05,31.06 C22.8904909,30.9962436 22.7858846,30.841779 22.7858846,30.67 C22.7858846,30.498221 22.8904909,30.3437564 23.05,30.28 L26.9,27.77 C27.2973407,27.5602044 27.7726593,27.5602044 28.17,27.77 L52.42,41.66 Z"></path>
                            <path d="M58.91,45.38 C59.0715785,45.4391666 59.1790213,45.5929294 59.1790213,45.765 C59.1790213,45.9370706 59.0715785,46.0908334 58.91,46.15 L55.05,48.67 C54.6561945,48.879778 54.1838055,48.879778 53.79,48.67 L49.13,46 C48.9684215,45.9408334 48.8609787,45.7870706 48.8609787,45.615 C48.8609787,45.4429294 48.9684215,45.2891666 49.13,45.23 L53,42.73 C53.3959914,42.514828 53.8740086,42.514828 54.27,42.73 L58.91,45.38 Z"></path>
                            <path d="M64.29,48.46 C64.65,48.67 64.62,49.04 64.23,49.29 L60.54,51.7 C60.132436,51.9509772 59.6272728,51.9846548 59.19,51.79 L55.8,49.79 C55.44,49.59 55.47,49.21 55.86,48.96 L59.55,46.56 C59.954049,46.2982357 60.4647792,46.2641871 60.9,46.47 L64.29,48.46 Z"></path>
                            <path d="M89.75,51.06 C89.9095091,51.1237564 90.0141154,51.278221 90.0141154,51.45 C90.0141154,51.621779 89.9095091,51.7762436 89.75,51.84 L86.51,54 C86.1175783,54.2152476 85.6424217,54.2152476 85.25,54 L77.89,49.78 C77.7284215,49.7208334 77.6209787,49.5670706 77.6209787,49.395 C77.6209787,49.2229294 77.7284215,49.0691666 77.89,49.01 L81.15,46.88 C81.5424217,46.6647524 82.0175783,46.6647524 82.41,46.88 L89.75,51.06 Z"></path>
                            <path d="M84.85,54.25 C85.0115785,54.3091666 85.1190213,54.4629294 85.1190213,54.635 C85.1190213,54.8070706 85.0115785,54.9608334 84.85,55.02 L81.59,57.15 C81.1961945,57.359778 80.7238055,57.359778 80.33,57.15 L70.39,51.45 C70.2284215,51.3908334 70.1209787,51.2370706 70.1209787,51.065 C70.1209787,50.8929294 70.2284215,50.7391666 70.39,50.68 L73.65,48.55 C74.0438055,48.340222 74.5161945,48.340222 74.91,48.55 L84.85,54.25 Z"></path>
                            <path d="M67,53.12 C67.1615785,53.1791666 67.2690213,53.3329294 67.2690213,53.505 C67.2690213,53.6770706 67.1615785,53.8308334 67,53.89 L65.69,54.75 C65.2926593,54.9597956 64.8173407,54.9597956 64.42,54.75 L61,52.83 C60.8384215,52.7708334 60.7309787,52.6170706 60.7309787,52.445 C60.7309787,52.2729294 60.8384215,52.1191666 61,52.06 L62.31,51.21 C62.7059914,50.994828 63.1840086,50.994828 63.58,51.21 L67,53.12 Z"></path>
                            <path d="M74.73,54.45 C74.8895091,54.5137564 74.9941154,54.668221 74.9941154,54.84 C74.9941154,55.011779 74.8895091,55.1662436 74.73,55.23 L70.87,57.74 C70.4740086,57.955172 69.9959914,57.955172 69.6,57.74 L66.21,55.8 C66.0504909,55.7362436 65.9458846,55.581779 65.9458846,55.41 C65.9458846,55.238221 66.0504909,55.0837564 66.21,55.02 L70.07,52.51 C70.4638055,52.300222 70.9361945,52.300222 71.33,52.51 L74.73,54.45 Z"></path>
                            <path d="M77.4,59.11 C77.5615785,59.1691666 77.6690213,59.3229294 77.6690213,59.495 C77.6690213,59.6670706 77.5615785,59.8208334 77.4,59.88 L76.09,60.73 C75.6940086,60.945172 75.2159914,60.945172 74.82,60.73 L71.43,58.78 C71.2684215,58.7208334 71.1609787,58.5670706 71.1609787,58.395 C71.1609787,58.2229294 71.2684215,58.0691666 71.43,58.01 L72.74,57.15 C73.1359914,56.934828 73.6140086,56.934828 74.01,57.15 L77.4,59.11 Z"></path>
                        </g>
                    </g>
                </g>
                <g id="Shape" transform="translate(80.000000, 47.000000)">
                    <polygon fill="#C2C2C2" points="33.58 0.06 0.65 21.54 0.63 24.93 33.78 44.06 66.71 24.93 66.72 19.19"></polygon>
                    <g id="Group">
                        <polygon id="Shape" fill="#DEDEDE" points="66.72 19.19 33.79 40.68 0.65 21.54 33.58 0.06"></polygon>
                        <polygon id="Shape" fill="#989898" points="66.72 19.19 66.71 24.93 33.78 44.06 33.79 40.68"></polygon>
                        <polygon id="Shape" fill="#C2C2C2" points="33.79 40.68 33.78 44.06 0.63 24.93 0.65 21.54"></polygon>
                    </g>
                </g>
            </g>
            <g id="Group" transform="translate(289.000000, 124.000000)" fill="#FFC536">
                <polygon id="Shape" points="9.17 6 9.14 16.21 0.26 11.08 0.29 0.87"></polygon>
                <polygon id="Shape" points="9.17 22.56 9.14 32.77 0.26 27.64 0.29 17.43"></polygon>
                <polygon id="Shape" points="9.17 39.12 9.14 49.33 0.26 44.2 0.29 33.99"></polygon>
                <polygon id="Shape" points="9.17 55.67 9.14 65.88 0.26 60.75 0.29 50.54"></polygon>
                <polygon id="Shape" points="9.17 72.23 9.14 82.44 0.26 77.31 0.29 67.1"></polygon>
            </g>
            <g id="Group" transform="translate(121.000000, 11.000000)">
                <polygon id="Shape" fill="#FFFFFF" points="182.44 105.48 182.44 113.87 0.64 8.91 0.64 0.52"></polygon>
                <polygon id="Shape" fill="#DDDDDD" points="182.44 105.47 182.44 113.86 149.89 95.05 149.89 86.66"></polygon>
                <polygon id="Shape" fill="#DDDDDD" points="84.98 49.2 84.98 57.58 0.64 8.9 0.64 0.52"></polygon>
                <polygon id="Shape" fill="#A0A0A0" points="5.85 5.71 5.85 9.45 2.63 7.6 2.63 3.85"></polygon>
            </g>
            <g id="Group" transform="translate(126.000000, 28.000000)">
                <path d="M4.59,13.24 C6.18968409,14.2755585 7.19424184,16.0167919 7.29,17.92 C7.29,19.65 6.07,20.34 4.57,19.47 C2.97498201,18.4286291 1.96921814,16.6917379 1.86,14.79 C1.87,13.07 3.09,12.37 4.59,13.24 Z" id="Shape" fill="#5298A0"></path>
                <polygon id="Shape" fill="#FFC49C" points="28.84 65.56 28.82 70.23 19.19 64.67 19.2 60"></polygon>
                <g id="Shape">
                    <polygon fill="#B5B5B5" points="38.44 115.18 38.42 119.85 1.63 98.6 1.64 93.93"></polygon>
                    <polygon fill="#9E9E9E" points="28.78 86.03 28.77 90.7 19.13 85.14 19.14 80.47"></polygon>
                    <polygon fill="#FFC49C" points="28.89 79.41 28.87 84.08 9.59 72.95 9.61 68.28"></polygon>
                    <polygon fill="#FFC49C" points="38.42 91.6 38.41 96.27 28.77 90.7 28.78 86.03"></polygon>
                    <polygon fill="#FFC49C" points="28.82 72.46 28.8 77.13 19.17 71.57 19.18 66.9"></polygon>
                    <polygon fill="#B5B5B5" points="57.64 119.39 57.63 124.06 1.65 91.74 1.66 87.07"></polygon>
                    <polygon fill="#9E9E9E" points="38.52 84.97 38.51 89.64 28.87 84.08 28.89 79.41"></polygon>
                    <polygon fill="#DDDDDD" points="7.26 30.74 7.12 79.83 0.45 75.98 0.59 26.89"></polygon>
                    <polygon fill="#5298A0" points="76.91 146.89 76.88 155.43 0.35 111.25 0.37 102.7"></polygon>
                    <polygon fill="#9E9E9E" points="28.86 58.66 28.84 63.33 19.21 57.77 19.22 53.1"></polygon>
                    <polygon fill="#9E9E9E" points="48.1 83.59 48.08 88.26 28.8 77.13 28.82 72.46"></polygon>
                    <polygon fill="#FFC49C" points="38.5 64.23 38.48 68.9 28.84 63.33 28.86 58.66"></polygon>
                    <path d="M14.94,11.57 C15.9852751,12.2530268 16.6426213,13.3931697 16.71,14.64 C16.71,15.77 15.91,16.22 14.93,15.64 C13.8801591,14.9659764 13.220821,13.8261038 13.16,12.58 C13.16,11.46 14,11 14.94,11.57 Z" fill="#63DB65"></path>
                    <path d="M0.66,0.74 L77.19,44.93 L77.19,53.99 L0.63,9.8 L0.66,0.74 Z M9.77,12.67 C10.77,13.24 11.55,12.79 11.55,11.67 C11.4874404,10.4217447 10.8289229,9.27957024 9.78,8.6 C8.78,8.04 8,8.49 8,9.6 C8.06082102,10.8461038 8.72015908,11.9859764 9.77,12.66 L9.77,12.67 Z M14.93,15.66 C15.93,16.23 16.71,15.78 16.71,14.66 C16.6426213,13.4131697 15.9852751,12.2730268 14.94,11.59 C13.94,11.03 13.16,11.48 13.16,12.59 C13.220821,13.8361038 13.8801591,14.9759764 14.93,15.65 L14.93,15.66 Z M4.61,9.65 C5.61,10.22 6.39,9.77 6.39,8.65 C6.32262134,7.40316974 5.66527508,6.26302679 4.62,5.58 C3.62,5.02 2.84,5.47 2.84,6.58 C2.90570247,7.82465993 3.56384453,8.96246484 4.61,9.64 L4.61,9.65 Z" fill="#EDEDED"></path>
                    <path d="M4.62,5.61 C5.66527508,6.29302679 6.32262134,7.43316974 6.39,8.68 C6.39,9.81 5.59,10.26 4.61,9.68 C3.56384453,9.00246484 2.90570247,7.86465993 2.84,6.62 C2.84,5.5 3.64,5.05 4.62,5.61 Z" fill="#FF9255"></path>
                    <polygon fill="#FFC49C" points="28.98 44.92 28.97 49.58 9.69 38.45 9.71 33.78"></polygon>
                    <path d="M12.47,17.79 C14.065018,18.8313709 15.0707819,20.5682621 15.18,22.47 C15.18,24.2 13.95,24.89 12.46,24.03 C10.8622432,22.9865745 9.85611158,21.2453356 9.75,19.34 C9.75,17.62 11,16.92 12.47,17.79 Z" fill="#5298A0"></path>
                    <polygon fill="#9E9E9E" points="48.12 76.69 48.1 81.36 28.82 70.23 28.84 65.56"></polygon>
                    <path d="M9.78,8.59 C10.8289229,9.26957024 11.4874404,10.4117447 11.55,11.66 C11.55,12.79 10.75,13.24 9.77,12.66 C8.72294101,11.9879983 8.06398405,10.8525075 8,9.61 C8,8.48 8.8,8 9.78,8.59 Z" fill="#FFE357"></path>
                    <polygon fill="#93E5DB" points="57.73 89.15 57.72 93.82 48.08 88.26 48.1 83.59"></polygon>
                    <polygon fill="#5298A0" points="76.98 120.16 76.96 128.71 0.42 84.52 0.45 75.98"></polygon>
                    <polygon fill="#9E9E9E" points="38.62 50.48 38.61 55.15 28.97 49.58 28.98 44.92"></polygon>
                    <path d="M0.63,9.8 L77.17,54 L77.17,62.54 L16.82,27.7 L0.61,18.34 L0.63,9.8 Z M75,60.14 L75,53.9 L69.57,50.76 L69.57,57 L75,60.14 Z M24.06,30.73 L24.06,24.49 L18.63,21.35 L18.63,27.59 L24.06,30.73 Z M4.57,19.47 C6.07,20.34 7.29,19.65 7.29,17.92 C7.19424184,16.0167919 6.18968409,14.2755585 4.59,13.24 C3.09,12.37 1.87,13.07 1.86,14.79 C1.96921814,16.6917379 2.97498201,18.4286291 4.57,19.47 Z M12.46,24 C13.95,24.86 15.17,24.17 15.18,22.44 C15.0707819,20.5382621 14.065018,18.8013709 12.47,17.76 C10.98,16.89 9.75,17.59 9.75,19.31 C9.85611158,21.2153356 10.8622432,22.9565745 12.46,24 Z M32.67,35.7 L32.67,29.46 L27.24,26.33 L27.24,32.57 L32.67,35.7 Z M41.28,40.7 L41.28,34.46 L35.87,31.3 L35.87,37.54 L41.3,40.67 L41.28,40.7 Z" fill="#426D7A"></path>
                    <polygon fill="#5298A0" points="24.08 24.49 24.06 30.73 18.63 27.59 18.65 21.35"></polygon>
                    <polygon fill="#93E5DB" points="57.75 82.25 57.74 86.92 48.1 81.36 48.12 76.69"></polygon>
                    <path d="M16.8,36.25 L77.12,71.08 L77,120.16 L7.12,79.83 L7.26,30.75 L0.58,26.89 L0.58,18.34 L16.82,27.7 L16.8,36.25 Z M57.72,93.82 L57.72,89.15 L48.09,83.59 L28.82,72.46 L19.18,66.9 L19.18,71.57 L28.81,77.13 L48.09,88.26 L57.73,93.82 L57.72,93.82 Z M57.73,86.92 L57.73,82.25 L48.1,76.69 L28.84,65.56 L19.2,60 L19.2,64.67 L28.83,70.23 L48.1,81.36 L57.74,86.92 L57.73,86.92 Z M9.74,33.78 L9.74,38.45 L29,49.58 L38.64,55.15 L38.64,50.48 L29,44.92 L9.71,33.78 L9.74,33.78 Z M38.51,89.64 L38.51,85 L28.88,79.44 L9.61,68.28 L9.61,73 L28.88,84.13 L38.52,89.69 L38.51,89.64 Z M29,56.48 L48.23,67.61 L48.23,62.94 L29,51.81 L29,56.48 Z M38.55,64.23 L28.91,58.66 L19.22,53.1 L19.22,57.77 L28.85,63.33 L38.49,68.9 L38.49,64.23 L38.55,64.23 Z M38.39,96.23 L38.39,91.56 L28.78,86 L19.14,80.44 L19.14,85.11 L28.78,90.67 L38.41,96.24 L38.39,96.23 Z" fill="#FFFFFF"></path>
                    <polygon fill="#FFC49C" points="48.24 62.94 48.23 67.61 28.95 56.48 28.97 51.81"></polygon>
                    <polygon fill="#5298A0" points="32.69 29.46 32.67 35.7 27.24 32.56 27.26 26.33"></polygon>
                    <polygon fill="#5298A0" points="41.3 34.43 41.28 40.67 35.85 37.54 35.87 31.3"></polygon>
                    <polygon fill="#5298A0" points="77.14 62.53 77.12 71.08 16.8 36.25 16.82 27.7"></polygon>
                    <polygon fill="#5298A0" points="75.02 53.9 75 60.14 69.57 57 69.59 50.77"></polygon>
                </g>
                <path d="M0.42,84.52 L77,128.71 L77,146.89 L0.37,102.7 L0.42,84.52 Z M57.63,124.06 L57.63,119.39 L1.63,87.07 L1.63,91.74 L57.63,124.06 Z M38.42,119.85 L38.42,115.18 L1.62,93.93 L1.62,98.6 L38.41,119.85 L38.42,119.85 Z" id="Shape" fill="#4C4C4C"></path>
            </g>
            <g id="Group" transform="translate(207.000000, 75.000000)">
                <g id="Shape" transform="translate(0.000000, 5.000000)">
                    <polygon fill="#C9C9C9" points="76.85 98.54 76.83 107.04 0.76 63.12 0.78 54.63 0.76 63.12 38.79 85.08 38.82 76.58"></polygon>
                    <polygon fill="#E2E2E2" points="38.82 76.58 38.79 85.08 0.76 63.12 0.78 54.63"></polygon>
                    <polygon fill="#B5B5B5" points="29.21 31.5 29.2 36.14 2.12 20.5 2.13 15.86"></polygon>
                    <polygon fill="#E2E2E2" points="57.56 37.52 57.53 46.02 0.9 13.32 0.93 4.83"></polygon>
                    <polygon fill="#C9C9C9" points="76.99 48.74 76.97 57.24 0.9 13.32 0.93 4.83 0.9 13.32 57.53 46.02 57.56 37.52"></polygon>
                    <path d="M0.79,54.62 L0.9,13.32 L77,57.24 L76.88,98.54 L38.88,76.54 L0.79,54.62 Z M2.08,35.62 L2.08,40.26 L29.16,55.9 L29.16,51.26 L2.08,35.62 Z M2.08,42.2 L2.08,46.84 L29.17,62.47 L29.17,57.8 L2.09,42.17 L2.08,42.2 Z M2.09,22.44 L2.09,27.08 L29.17,42.72 L29.17,38.08 L2.08,22.44 L2.09,22.44 Z M2.08,15.86 L2.08,20.5 L29.16,36.14 L29.16,31.5 L2.13,15.86 L2.08,15.86 Z M2.13,29.02 L2.13,33.66 L29.21,49.29 L29.21,44.65 L2.09,29 L2.13,29.02 Z" fill="#FFFFFF"></path>
                    <polygon fill="#B5B5B5" points="29.14 57.8 29.13 62.44 2.04 46.81 2.06 42.17"></polygon>
                    <polygon fill="#B5B5B5" points="29.16 51.23 29.15 55.87 2.06 40.23 2.08 35.59"></polygon>
                    <polygon fill="#B5B5B5" points="29.18 44.65 29.16 49.29 2.08 33.66 2.09 29.02"></polygon>
                    <path d="M4.89,0.67 C5.91830741,1.33518329 6.5710708,2.44784816 6.65,3.67 C6.65,4.79 5.85,5.24 4.88,4.67 C3.85050739,4.00595206 3.1973599,2.89263247 3.12,1.67 C3.12,0.56 3.91,0.11 4.89,0.67 Z" fill="#FF9255"></path>
                    <polygon fill="#B5B5B5" points="29.19 38.08 29.18 42.72 2.1 27.08 2.11 22.44"></polygon>
                    <path d="M10,3.63 C11.038382,4.30886754 11.691834,5.44127015 11.76,6.68 C11.76,7.8 10.96,8.25 9.99,7.68 C8.95691102,7.01940622 8.30259009,5.90408646 8.23,4.68 C8.25,3.52 9,3.07 10,3.63 Z" fill="#FFE357"></path>
                    <path d="M15.14,6.59 C16.1694926,7.25404794 16.8226401,8.36736753 16.9,9.59 C16.9,10.71 16.11,11.17 15.13,10.59 C14.1028711,9.92368925 13.4504884,8.81167321 13.37,7.59 C13.38,6.48 14.17,6 15.14,6.59 Z" fill="#63DB65"></path>
                </g>
                <path d="M1,0.82 L77,44.74 L77,53.74 L57.57,42.52 L0.93,9.83 L1,0.82 Z M10,12.68 C11,13.25 11.76,12.8 11.77,11.68 C11.6864233,10.4592781 11.0347917,9.34854239 10.01,8.68 C9.01,8.12 8.24,8.57 8.24,9.68 C8.31259009,10.9040865 8.96691102,12.0194062 10,12.68 Z M4.87,9.68 C5.87,10.25 6.64,9.8 6.64,8.68 C6.5610708,7.45784816 5.90830741,6.34518329 4.88,5.68 C3.88,5.12 3.11,5.57 3.11,6.68 C3.1873599,7.90263247 3.84050739,9.01595206 4.87,9.68 Z M15.12,15.6 C16.12,16.17 16.89,15.71 16.89,14.6 C16.8126401,13.3773675 16.1594926,12.2640479 15.13,11.6 C14.13,11.04 13.37,11.49 13.36,12.6 C13.4404884,13.8216732 14.0928711,14.9336892 15.12,15.6 Z" id="Shape" fill="#EDEDED"></path>
            </g>
            <polygon id="Shape" fill="#EAEAEA" opacity="0.2" points="278.8 95.67 153.13 168.1 308.11 257.58 308.52 112.86"></polygon>
        </g>
    </g>
</svg>