<?xml version="1.0"?>
<svg xmlns="http://www.w3.org/2000/svg" width="174" height="235" viewBox="0 0 174 235" fill="none">
<path d="M91.5935 206.467C108.958 206.467 123.035 192.39 123.035 175.026C123.035 157.661 108.958 143.584 91.5935 143.584C74.229 143.584 60.1523 157.661 60.1523 175.026C60.1523 192.39 74.229 206.467 91.5935 206.467Z" fill="#51E8D4"/>
<path d="M146.829 162.768C161.432 123.313 165.539 88.4658 156.002 84.9361C146.465 81.4064 126.896 110.53 112.293 149.986C97.6896 189.442 93.5827 224.289 103.12 227.819C112.656 231.348 132.226 202.224 146.829 162.768Z" fill="#04454D"/>
<path d="M99.4141 139.717C99.615 140.328 104.187 191.556 110.983 197.564C128.559 213.106 152.856 133.488 149.809 121.013C148.169 114.313 136.961 100.14 128.03 107.042C119.098 113.944 99.4141 139.717 99.4141 139.717Z" fill="#F5F2EB"/>
<path d="M99.4141 139.717C99.615 140.328 104.187 191.556 110.983 197.564C128.559 213.106 125.076 208.607 125.076 208.607C125.076 208.607 145.785 174.365 154.807 138.483C151.358 127.39 152.869 133.488 149.838 121.013C148.198 114.313 136.99 100.14 128.058 107.042C119.127 113.944 99.4141 139.717 99.4141 139.717Z" fill="#F5F2EB"/>
<path d="M129.1 152.18C129.1 152.18 130.08 171.228 131.084 180.188C137.166 183.814 137.583 185.232 137.583 185.232L140.864 178.056L129.1 152.18Z" fill="#04454D"/>
<path d="M72.4101 6.5383C69.0269 10.3521 68.0427 15.0517 67.8007 20.0137C67.5014 26.2388 67.5834 32.4228 63.7368 37.6227C62.1621 39.7428 60.4069 41.8261 59.6359 44.3481C58.865 46.8701 59.3612 50.0277 61.5756 51.4671L61.1655 50.5035C61.2314 50.6856 61.3566 50.8404 61.5209 50.943C61.6852 51.0456 61.8792 51.0901 62.0719 51.0694C61.4936 50.2697 60.9318 49.1871 61.4731 48.3628C61.6577 48.1215 61.8727 47.9051 62.1129 47.719C62.7314 47.1406 63.1543 46.3837 63.3226 45.5537C63.1298 47.6534 62.4532 49.6833 62.5024 51.8239C62.5311 52.8655 62.7116 53.9646 63.3841 54.7601C64.0566 55.5557 65.3402 55.9084 66.1645 55.2727C65.9917 55.2922 65.8168 55.2643 65.6586 55.192C65.5005 55.1198 65.3649 55.006 65.2664 54.8626C65.2956 54.8379 65.3305 54.8208 65.368 54.8129C65.4055 54.8051 65.4444 54.8067 65.481 54.8178C65.5177 54.8288 65.551 54.8488 65.578 54.8759C65.605 54.9031 65.6247 54.9366 65.6355 54.9734C64.6144 53.5381 64.9383 51.5697 65.4263 49.876C65.9987 47.8973 66.7325 45.9689 67.6203 44.1102C68.4404 42.3961 69.5887 40.7762 70.2284 38.976C69.3262 41.5226 68.4117 44.2579 69.1048 46.8701C69.349 47.7662 69.7735 48.603 70.3524 49.3293C70.9314 50.0556 71.6525 50.6561 72.4716 51.094C75.1658 52.517 77.8601 51.4631 80.5871 50.7864C82.2521 50.3763 83.9744 49.6628 84.8971 48.2152C85.4835 47.3007 85.6763 46.1976 85.8485 45.1272C87.2961 36.2079 88.7191 27.1245 86.6687 18.1888C85.4385 12.9848 84.8685 0.399337 79.6563 1.84693C77.8396 2.35954 73.6116 5.18092 72.4101 6.5383Z" fill="#04454D"/>
<path d="M6.66898 92.5289C7.27989 92.8707 7.9193 93.1588 8.57999 93.3901C9.54163 93.7658 10.5586 93.9805 11.59 94.0257C12.5691 94.0236 13.5404 93.8516 14.4606 93.5172C17.2368 92.5535 13.3206 89.687 12.2995 88.7069C10.8632 87.2499 9.32706 85.8947 7.7024 84.6512C6.7182 83.9418 5.97186 83.3881 4.94665 83.9992C3.92144 84.6102 3.18327 86.2751 3.19147 87.4808C3.25093 88.9155 3.87255 90.2693 4.92202 91.2495C5.44563 91.7508 6.03301 92.181 6.66898 92.5289V92.5289Z" fill="#BF5C43"/>
<path d="M31.3643 108.059C31.8313 108.073 32.2807 108.24 32.6437 108.535C34.2841 109.527 36.2279 109.896 37.9256 110.79C38.051 110.849 38.1649 110.929 38.2619 111.028C38.352 111.151 38.4174 111.29 38.4546 111.438C38.6068 111.951 38.7206 112.475 38.795 113.004C38.6739 113.049 38.5439 113.065 38.4156 113.05C38.2873 113.035 38.1644 112.99 38.0568 112.918C37.3351 112.578 36.6256 112.201 35.8916 111.881C35.1575 111.561 34.4522 111.471 33.7345 111.229C32.492 110.831 31.6103 109.273 31.3643 108.059Z" fill="#BF5C43"/>
<path d="M77.9704 50.2165C76.8022 50.9381 75.5375 51.4904 74.2141 51.8568C72.8731 52.1603 71.3763 52.0496 70.2691 51.2376C69.2521 50.4913 68.6944 49.2651 68.3786 48.0431C67.6548 45.1967 68.0097 42.1832 69.3751 39.583" stroke="#04454D" stroke-width="0.31163" stroke-linecap="round" stroke-linejoin="round"/>
<path d="M80.3696 48.7606C80.3696 48.7606 71.9506 51.5615 69.2973 54.3911C66.6441 57.2207 54.973 82.4572 54.973 82.4572L25.6479 81.1245C25.6479 81.1245 22.1991 85.8733 23.9789 91.4545C25.7586 97.0357 27.645 100.12 27.645 100.12C27.645 100.12 58.0363 103.257 62.6416 101.456C67.2468 99.6562 86.3035 77.4583 86.3035 77.4583L80.3696 48.7606Z" fill="#08CF65"/>
<path d="M74.0212 7.12484C73.4376 8.01224 72.9393 8.95278 72.5326 9.93392C71.6632 11.9146 70.8922 13.9117 70.7405 16.0852C70.6093 18.1356 71.0481 18.476 71.4336 19.4766C71.8191 20.4772 71.2696 21.7566 71.1383 22.7573C70.9743 24.0367 71.2614 25.3244 71.5484 26.5833C72.3317 30.0075 74.2468 37.1881 74.419 37.3029C74.5912 37.4178 76.0593 39.5789 81.6939 37.8935C82.4649 37.6597 84.9746 45.2996 84.9746 45.2996C84.9746 45.2996 78.2943 50.278 79.0693 50.073C80.2996 49.7367 84.1257 67.6246 87.7672 65.7997C90.728 64.3193 93.6601 43.1097 94.3286 42.5274C96.379 40.6984 97.1253 37.8032 97.5641 35.0762C97.843 33.3292 98.0521 31.57 98.2449 29.8066C98.5787 27.2773 98.6981 24.7243 98.6017 22.1749C98.3894 18.1012 97.0147 14.1735 94.6402 10.8566C92.2375 7.54383 88.7166 5.21306 84.7285 4.29526C81.3248 3.56531 76.8754 3.61451 74.501 6.53021C74.3124 6.71475 74.1483 6.91569 74.0212 7.12484Z" fill="#E8A984"/>
<path d="M75.8666 23.7742C76.2767 23.8644 76.5637 24.295 76.7975 24.6231C76.6621 24.8322 75.9773 24.6641 75.7477 24.6231C75.5658 24.5937 75.3978 24.5076 75.2679 24.3771C75.2079 24.3083 75.1748 24.2202 75.1748 24.1289C75.1748 24.0377 75.2079 23.9496 75.2679 23.8808C75.3681 23.8024 75.4934 23.763 75.6205 23.7701C75.7025 23.7643 75.7848 23.7657 75.8666 23.7742V23.7742Z" fill="#BF5C43"/>
<path d="M76.0228 27.3911C76.7855 27.51 79.2747 28.1867 81.0094 28.0514C80.4596 28.8186 79.839 29.5325 79.1558 30.1838C78.6828 30.6377 78.171 31.0494 77.6262 31.4141C76.9742 31.7913 75.748 32.3285 75.1657 31.5904C74.9933 31.342 74.8682 31.064 74.7966 30.7702C74.727 30.4786 74.6077 30.2012 74.444 29.9501C74.1085 29.57 73.7511 29.2099 73.3737 28.8715C73.3488 28.5408 73.3864 28.2083 73.4844 27.8914C73.597 27.6996 73.7744 27.5542 73.9847 27.4813C74.6513 27.3161 75.3442 27.2854 76.0228 27.3911V27.3911Z" fill="#BF5C43"/>
<path d="M72.7368 25.1316C72.8809 25.2333 73.0459 25.3015 73.2197 25.3313C73.3935 25.3611 73.5718 25.3517 73.7415 25.3039C73.4586 25.3818 73.2002 24.9307 73.0567 24.7625C72.8158 24.4984 72.5539 24.2543 72.2734 24.0326C72.2861 24.276 72.3388 24.5157 72.4293 24.742C72.4934 24.8981 72.5999 25.0331 72.7368 25.1316V25.1316Z" fill="#BF5C43"/>
<path d="M83.2561 55.4737L86.5081 63.3268L92.0893 51.2785L96.1286 43.5525C96.1286 43.5525 96.1492 39.1605 98.1012 38.7299C100.053 38.2993 102.001 43.4992 102.001 43.4992L113.697 46.1935C115.48 46.5921 117.116 47.4815 118.421 48.7613C119.725 50.041 120.646 51.6601 121.078 53.4356C123.604 63.7861 128.747 89.1498 128.907 89.6337C129.124 90.2857 141.771 105.434 141.771 105.434C141.771 105.434 145.708 115.654 138.732 130.38C124.625 160.16 96.7807 142.727 96.7807 142.727C96.7807 142.727 84.1419 102.022 82.8378 97.901C81.5337 93.7797 68.8458 69.9414 70.3631 60.6202C71.8804 51.299 81.8454 49.7161 81.706 46.6159C81.5297 43.327 83.2561 55.4737 83.2561 55.4737Z" fill="#08CF65"/>
<path d="M69.7478 16.8151C69.6423 16.5697 69.6037 16.3007 69.6362 16.0356C69.6686 15.7705 69.7708 15.5187 69.9324 15.306C70.2413 14.8748 70.6861 14.56 71.1954 14.412L71.3841 14.3628C71.4594 14.3446 71.5363 14.3337 71.6137 14.33C71.7967 14.3109 71.9817 14.3262 72.1591 14.3751C72.4369 14.4478 72.692 14.5888 72.9014 14.7852C73.2112 15.0867 73.4338 15.4665 73.5452 15.8842L73.5698 15.9703C73.5865 16.028 73.58 16.0898 73.5516 16.1427C73.5233 16.1956 73.4753 16.2353 73.4181 16.2533H73.3648C73.1212 16.255 72.8789 16.2176 72.6471 16.1426L72.1222 15.9785C72.0206 15.9437 71.9139 15.9257 71.8065 15.9252C71.7819 15.9252 71.7736 15.9252 71.7736 15.9252H71.7162L71.6219 15.9457C71.3654 15.9992 71.1162 16.0831 70.8797 16.1959C70.5907 16.317 70.3419 16.5175 70.162 16.7741V16.7987C70.1257 16.8493 70.071 16.8837 70.0097 16.8944C69.9484 16.9051 69.8853 16.8914 69.8339 16.8561C69.8029 16.8479 69.7737 16.834 69.7478 16.8151V16.8151Z" fill="#04454D"/>
<path d="M77.4287 14.7687C77.497 14.4055 77.6727 14.0712 77.9331 13.8091C78.2033 13.5412 78.5426 13.3538 78.9132 13.2678C79.0991 13.227 79.2888 13.2064 79.4791 13.2063C79.6539 13.1939 79.8293 13.1939 80.0041 13.2063C80.3488 13.2177 80.6913 13.2672 81.0252 13.3539C81.6448 13.5234 82.2372 13.7802 82.7844 14.1167C83.31 14.4246 83.8154 14.7657 84.2976 15.1378C84.3164 15.1519 84.3322 15.1696 84.3441 15.1899C84.3559 15.2102 84.3637 15.2326 84.3667 15.2559C84.3698 15.2792 84.3681 15.3029 84.3619 15.3256C84.3557 15.3483 84.345 15.3695 84.3304 15.3879C84.3124 15.4107 84.2893 15.4288 84.2629 15.4409C84.2365 15.453 84.2077 15.4588 84.1787 15.4576C83.5686 15.4126 82.9636 15.3152 82.3703 15.1665C81.792 15.0435 81.2466 14.9081 80.7299 14.8507C80.4823 14.8215 80.2328 14.8106 79.9835 14.8179C79.7482 14.8239 79.5137 14.8486 79.2823 14.8917C79.0732 14.9327 78.8722 14.9614 78.6098 14.9983C78.2953 15.0493 77.9769 15.0713 77.6584 15.064C77.5993 15.0608 77.5437 15.0345 77.5038 14.9907C77.464 14.947 77.4429 14.8894 77.4451 14.8302C77.4451 14.8302 77.4287 14.781 77.4287 14.7687Z" fill="#04454D"/>
<path d="M81.7881 37.8647C81.7881 37.8647 83.0183 37.6269 85.0688 36.2736C87.1192 34.9203 88.2469 33.973 88.2469 33.973C88.2469 33.973 84.1173 42.7857 83.6129 41.4161C83.0684 40.2006 82.4592 39.0151 81.7881 37.8647V37.8647Z" fill="#BF5C43"/>
<path d="M68.5551 22.097C68.6904 25.0989 68.8011 28.2237 67.5709 30.9631C66.6687 32.9766 65.1104 34.6128 63.5931 36.2122C62.0758 37.8115 60.5338 39.4682 59.6768 41.5022C58.8197 43.5363 58.7746 46.0542 60.1279 47.8011" stroke="#04454D" stroke-width="0.31163" stroke-linecap="round" stroke-linejoin="round"/>
<path d="M72.5078 68.7727C74.6156 78.7911 74.8658 81.4484 79.9509 90.7901" stroke="#04454D" stroke-width="0.31163" stroke-linecap="round" stroke-linejoin="round"/>
<path d="M92.2652 56.2201C92.5563 55.9207 92.8516 55.6255 93.1591 55.3343C95.6934 52.9558 100.131 50.2288 103.169 48.5351C102.206 45.521 99.6261 38.1354 99.417 38.0985C98.4779 37.9221 94.496 38.3609 93.7168 38.9596C92.9377 39.5583 88.4595 52.3981 87.7747 55.0349C87.2416 57.0854 85.9499 60.8869 86.7167 62.8922C88.6318 60.6982 90.2434 58.3156 92.2652 56.2201Z" fill="white"/>
<path d="M61.0666 73.1525L25.4877 106.296L0.665339 80.4602C0.441679 80.2283 0.26752 79.9533 0.153535 79.652C0.0395502 79.3506 -0.0118884 79.0292 0.00230639 78.7074C0.0165012 78.3855 0.0960625 78.0699 0.236133 77.7797C0.376203 77.4896 0.573861 77.2309 0.817069 77.0196L34.3209 47.9036C34.784 47.5034 35.3838 47.2975 35.9951 47.3288C36.6063 47.3601 37.1819 47.6263 37.6016 48.0718L61.0666 73.1525Z" fill="#EBEDF5"/>
<path d="M59.241 74.6123L26.5204 105.065L3.28088 79.968C3.07738 79.7575 2.91896 79.5077 2.81528 79.2339C2.71161 78.9601 2.66487 78.6681 2.67792 78.3756C2.69097 78.0831 2.76352 77.7963 2.89117 77.5328C3.01882 77.2694 3.19891 77.0347 3.42035 76.8432L33.8568 50.3968C34.2786 50.0301 34.826 49.8411 35.3842 49.8694C35.9424 49.8976 36.4679 50.1411 36.8504 50.5486L59.241 74.6123Z" fill="white"/>
<path d="M3.28088 79.9763C3.07738 79.7658 2.91896 79.516 2.81528 79.2422C2.71161 78.9684 2.66487 78.6763 2.67792 78.3838C2.69097 78.0914 2.76352 77.8046 2.89117 77.5411C3.01882 77.2776 3.19891 77.043 3.42035 76.8514L33.8568 50.4051C34.2786 50.0384 34.826 49.8494 35.3842 49.8777C35.9424 49.9059 36.4679 50.1494 36.8504 50.5568L3.28088 79.9763Z" fill="#04454D"/>
<path d="M27.7265 70.7288L23.4493 74.5057C23.3997 74.5497 23.3348 74.5722 23.2687 74.5684C23.2026 74.5645 23.1407 74.5346 23.0966 74.4852L20.0128 71.1594C19.9831 71.1311 19.9595 71.0971 19.9434 71.0593C19.9273 71.0216 19.9189 70.9811 19.9189 70.94C19.9189 70.899 19.9273 70.8584 19.9434 70.8207C19.9595 70.783 19.9831 70.749 20.0128 70.7206L24.2694 67.0299C24.3275 66.9804 24.4023 66.9549 24.4785 66.9587C24.5548 66.9626 24.6267 66.9953 24.6795 67.0504L27.7183 70.3721C27.7662 70.4185 27.7939 70.482 27.7954 70.5488C27.797 70.6155 27.7722 70.6802 27.7265 70.7288V70.7288Z" fill="#EBEDF5"/>
<path d="M33.4151 65.7791L29.1338 69.556C29.087 69.6026 29.0236 69.6287 28.9575 69.6287C28.8914 69.6287 28.828 69.6026 28.7812 69.556L25.6973 66.2302C25.6689 66.2005 25.6469 66.1653 25.6325 66.1269C25.6181 66.0884 25.6117 66.0474 25.6136 66.0064C25.6155 65.9654 25.6257 65.9252 25.6436 65.8882C25.6616 65.8513 25.6868 65.8183 25.7178 65.7914L29.9745 62.1007C30.033 62.0521 30.1076 62.0272 30.1836 62.031C30.2595 62.0348 30.3312 62.067 30.3846 62.1211L33.4233 65.4428C33.464 65.4899 33.4857 65.5504 33.4842 65.6125C33.4826 65.6747 33.4581 65.7341 33.4151 65.7791V65.7791Z" fill="#EBEDF5"/>
<path d="M38.946 60.8376L34.6647 64.6145C34.6173 64.6601 34.5541 64.6856 34.4884 64.6856C34.4226 64.6856 34.3594 64.6601 34.312 64.6145L31.2323 61.2846C31.2033 61.2563 31.1802 61.2225 31.1645 61.1852C31.1487 61.1479 31.1406 61.1078 31.1406 61.0673C31.1406 61.0267 31.1487 60.9866 31.1645 60.9493C31.1802 60.912 31.2033 60.8782 31.2323 60.8499L35.4889 57.1592C35.547 57.1097 35.6218 57.0842 35.698 57.088C35.7743 57.0918 35.8462 57.1246 35.899 57.1797L38.9419 60.5013C38.9834 60.5473 39.0067 60.6068 39.0074 60.6687C39.0082 60.7306 38.9863 60.7907 38.946 60.8376Z" fill="#EBEDF5"/>
<path d="M25.4873 106.296L54.8371 118.377C55.3406 118.584 55.8937 118.639 56.4284 118.537C56.963 118.434 57.4561 118.177 57.8471 117.798L92.0522 84.6924C92.2158 84.5351 92.3354 84.3378 92.3991 84.1201C92.4628 83.9023 92.4683 83.6716 92.4153 83.451C92.3622 83.2304 92.2523 83.0276 92.0965 82.8626C91.9408 82.6977 91.7445 82.5763 91.5273 82.5107L61.0662 73.1731L25.4873 106.296Z" fill="#EBEDF5"/>
<path d="M65.844 108.346L57.7859 115.974C57.3275 116.409 56.7521 116.702 56.1301 116.815C55.5081 116.929 54.8665 116.859 54.2838 116.613L27.3945 105.131" stroke="white" stroke-width="0.31163" stroke-linecap="round" stroke-linejoin="round"/>
<path d="M7.64062 79.5088L11.9424 75.8221" stroke="#EBEDF5" stroke-width="0.31163" stroke-linecap="round" stroke-linejoin="round"/>
<path d="M18.7051 69.6217L23.0069 65.9351" stroke="#EBEDF5" stroke-width="0.31163" stroke-linecap="round" stroke-linejoin="round"/>
<path d="M33.0332 57.0484L34.571 55.7321" stroke="#08CF65" stroke-width="0.31163" stroke-linecap="round" stroke-linejoin="round"/>
<path d="M33.96 77.4912L29.6993 81.2804C29.6497 81.3243 29.5848 81.3469 29.5187 81.343C29.4526 81.3392 29.3907 81.3093 29.3466 81.2599L26.2628 77.9341C26.2331 77.9057 26.2095 77.8717 26.1934 77.834C26.1773 77.7963 26.1689 77.7557 26.1689 77.7147C26.1689 77.6737 26.1773 77.6331 26.1934 77.5954C26.2095 77.5577 26.2331 77.5236 26.2628 77.4953L30.5194 73.8045C30.5749 73.7523 30.6483 73.7233 30.7245 73.7233C30.8007 73.7233 30.874 73.7523 30.9295 73.8045L33.9683 77.1262C33.9927 77.1502 34.0119 77.1789 34.0248 77.2106C34.0377 77.2423 34.044 77.2763 34.0432 77.3105C34.0425 77.3447 34.0347 77.3784 34.0204 77.4095C34.0061 77.4405 33.9855 77.4684 33.96 77.4912V77.4912Z" fill="#EBEDF5"/>
<path d="M39.6646 72.5414L35.3833 76.3183C35.336 76.3639 35.2728 76.3894 35.207 76.3894C35.1413 76.3894 35.078 76.3639 35.0307 76.3183L31.9509 72.9884C31.9214 72.9605 31.8979 72.9268 31.8818 72.8894C31.8657 72.852 31.8574 72.8118 31.8574 72.7711C31.8574 72.7304 31.8657 72.6902 31.8818 72.6528C31.8979 72.6154 31.9214 72.5817 31.9509 72.5537L36.2076 68.863C36.2631 68.8108 36.3365 68.7817 36.4127 68.7817C36.4889 68.7817 36.5622 68.8108 36.6177 68.863L39.6564 72.1847C39.6807 72.2074 39.7001 72.2347 39.7137 72.2651C39.7272 72.2954 39.7346 72.3281 39.7353 72.3613C39.7361 72.3945 39.7303 72.4276 39.7181 72.4585C39.706 72.4894 39.6878 72.5176 39.6646 72.5414Z" fill="#EBEDF5"/>
<path d="M45.1966 67.5999L40.9317 71.3768C40.881 71.42 40.8156 71.442 40.7492 71.4382C40.6827 71.4344 40.6203 71.405 40.5749 71.3563L37.4952 68.0305C37.4668 68.0008 37.4448 67.9657 37.4304 67.9272C37.416 67.8888 37.4095 67.8478 37.4115 67.8067C37.4134 67.7657 37.4236 67.7255 37.4415 67.6885C37.4594 67.6516 37.4847 67.6187 37.5157 67.5917L41.7683 63.901C41.8264 63.8515 41.9011 63.826 41.9774 63.8298C42.0536 63.8337 42.1255 63.8664 42.1784 63.9215L45.2212 67.2432C45.2649 67.2939 45.2868 67.3598 45.2822 67.4266C45.2776 67.4934 45.2468 67.5557 45.1966 67.5999Z" fill="#EBEDF5"/>
<path d="M38.4712 82.3957L34.194 86.1726C34.146 86.2185 34.0821 86.2441 34.0157 86.2441C33.9492 86.2441 33.8853 86.2185 33.8373 86.1726L30.7575 82.8427C30.728 82.8147 30.7045 82.781 30.6884 82.7437C30.6723 82.7063 30.6641 82.666 30.6641 82.6254C30.6641 82.5847 30.6723 82.5444 30.6884 82.5071C30.7045 82.4697 30.728 82.436 30.7575 82.408L35.0102 78.7173C35.0682 78.6678 35.143 78.6423 35.2192 78.6461C35.2955 78.6499 35.3674 78.6827 35.4202 78.7378L38.463 82.0594C38.5051 82.1049 38.5292 82.1641 38.5307 82.226C38.5322 82.2879 38.5111 82.3483 38.4712 82.3957V82.3957Z" fill="#EBEDF5"/>
<path d="M44.1463 77.4501L39.8692 81.227C39.8197 81.271 39.7547 81.2935 39.6886 81.2896C39.6225 81.2858 39.5606 81.2559 39.5165 81.2065L36.4327 77.8807C36.403 77.8524 36.3794 77.8183 36.3633 77.7806C36.3472 77.7429 36.3389 77.7023 36.3389 77.6613C36.3389 77.6203 36.3472 77.5797 36.3633 77.542C36.3794 77.5043 36.403 77.4703 36.4327 77.4419L40.6894 73.7512C40.7483 73.7031 40.8233 73.679 40.8992 73.6835C40.9752 73.6881 41.0466 73.721 41.0994 73.7758L44.1381 77.0934C44.1851 77.1404 44.2122 77.2036 44.2138 77.2701C44.2153 77.3365 44.1911 77.401 44.1463 77.4501Z" fill="#EBEDF5"/>
<path d="M24.9541 76.3839L27.2424 74.4237" stroke="#EBEDF5" stroke-width="0.31163" stroke-linecap="round" stroke-linejoin="round"/>
<path d="M8.53516 80.5462L10.9916 78.4425" stroke="#EBEDF5" stroke-width="0.31163" stroke-linecap="round" stroke-linejoin="round"/>
<path d="M12.0703 81.5551L14.5267 79.4473" stroke="#EBEDF5" stroke-width="0.31163" stroke-linecap="round" stroke-linejoin="round"/>
<path d="M11.1837 83.1053C11.5483 83.1053 11.8439 82.8097 11.8439 82.445C11.8439 82.0804 11.5483 81.7848 11.1837 81.7848C10.819 81.7848 10.5234 82.0804 10.5234 82.445C10.5234 82.8097 10.819 83.1053 11.1837 83.1053Z" fill="#EBEDF5"/>
<path d="M13.8047 83.3061L15.5762 81.7888" stroke="#EBEDF5" stroke-width="0.31163" stroke-linecap="round" stroke-linejoin="round"/>
<path d="M12.8536 84.8439C13.2182 84.8439 13.5138 84.5483 13.5138 84.1837C13.5138 83.819 13.2182 83.5234 12.8536 83.5234C12.489 83.5234 12.1934 83.819 12.1934 84.1837C12.1934 84.5483 12.489 84.8439 12.8536 84.8439Z" fill="#EBEDF5"/>
<path d="M15.4482 85.1679L17.9088 83.0642" stroke="#EBEDF5" stroke-width="0.31163" stroke-linecap="round" stroke-linejoin="round"/>
<path d="M14.5909 86.6485C14.9555 86.6485 15.2511 86.3529 15.2511 85.9882C15.2511 85.6236 14.9555 85.328 14.5909 85.328C14.2263 85.328 13.9307 85.6236 13.9307 85.9882C13.9307 86.3529 14.2263 86.6485 14.5909 86.6485Z" fill="#EBEDF5"/>
<path d="M17.1504 86.9395L19.6068 84.8317" stroke="#EBEDF5" stroke-width="0.31163" stroke-linecap="round" stroke-linejoin="round"/>
<path d="M16.2569 88.3174C16.6215 88.3174 16.9171 88.0218 16.9171 87.6572C16.9171 87.2925 16.6215 86.9969 16.2569 86.9969C15.8923 86.9969 15.5967 87.2925 15.5967 87.6572C15.5967 88.0218 15.8923 88.3174 16.2569 88.3174Z" fill="#EBEDF5"/>
<path d="M18.5371 88.5142L20.9935 86.4105" stroke="#EBEDF5" stroke-width="0.31163" stroke-linecap="round" stroke-linejoin="round"/>
<path d="M17.6514 90.0644C18.0161 90.0644 18.3117 89.7688 18.3117 89.4041C18.3117 89.0395 18.0161 88.7439 17.6514 88.7439C17.2868 88.7439 16.9912 89.0395 16.9912 89.4041C16.9912 89.7688 17.2868 90.0644 17.6514 90.0644Z" fill="#EBEDF5"/>
<path d="M37.2861 87.2594L43.9992 81.3419" stroke="#EBEDF5" stroke-width="0.31163" stroke-linecap="round" stroke-linejoin="round"/>
<path d="M36.4005 88.8095C36.7651 88.8095 37.0607 88.5139 37.0607 88.1492C37.0607 87.7846 36.7651 87.489 36.4005 87.489C36.0358 87.489 35.7402 87.7846 35.7402 88.1492C35.7402 88.5139 36.0358 88.8095 36.4005 88.8095Z" fill="#EBEDF5"/>
<path d="M39.0371 89.2442L42.8509 85.8815" stroke="#EBEDF5" stroke-width="0.31163" stroke-linecap="round" stroke-linejoin="round"/>
<path d="M38.1505 90.7943C38.5151 90.7943 38.8107 90.4988 38.8107 90.1341C38.8107 89.7695 38.5151 89.4739 38.1505 89.4739C37.7858 89.4739 37.4902 89.7695 37.4902 90.1341C37.4902 90.4988 37.7858 90.7943 38.1505 90.7943Z" fill="#EBEDF5"/>
<path d="M68.2106 105.172L60.9973 102.301C60.8285 102.235 60.6791 102.128 60.5628 101.989C60.4465 101.85 60.3671 101.684 60.332 101.506C60.2968 101.328 60.3071 101.144 60.3617 100.972C60.4164 100.799 60.5136 100.643 60.6446 100.517L69.5557 91.9671C69.7004 91.8292 69.8802 91.7337 70.0754 91.691C70.2707 91.6484 70.4739 91.6602 70.6629 91.7252L79.0164 94.6531L68.2106 105.172Z" stroke="white" stroke-width="0.31163" stroke-linecap="round" stroke-linejoin="round"/>
<path d="M66.5253 88.543L44.7211 108.613L34.6289 104.475L43.782 95.4734" stroke="white" stroke-width="0.31163" stroke-linecap="round" stroke-linejoin="round"/>
<path d="M111.876 89.5886C111.876 89.5886 103.58 101.715 98.2611 107.973C95.7186 110.966 90.7114 112.787 87.7178 113.636L89.0178 117.761C89.0178 117.761 98.7942 119.016 103.055 111.508C108.685 101.6 111.876 89.5886 111.876 89.5886Z" fill="#04454D"/>
<path d="M82.1076 42.9703C82.895 43.8807 85.4416 45.1971 86.5119 45.7425C86.1469 51.8405 84.4615 57.5652 86.5119 63.3146C85.1914 60.4891 83.7028 57.7334 82.6612 54.7931C81.6196 51.8528 81.0209 48.6787 81.595 45.6113C81.7146 45.1228 81.7738 44.6215 81.7713 44.1186C81.7205 43.7188 81.6493 43.3219 81.5581 42.9293C81.5064 42.7144 81.5192 42.489 81.595 42.2814C81.6827 42.1228 81.8012 41.9834 81.9436 41.8713L83.2804 40.7067C84.5558 41.4612 81.8657 42.6833 82.1076 42.9703Z" fill="white"/>
<path d="M87.5253 14.084C88.7269 15.8555 88.9729 18.1028 88.9032 20.2352C88.8335 22.3677 88.4931 24.5042 88.6039 26.6367C88.7802 29.5688 88.7392 31.8939 90.1376 34.6333C91.2817 36.8683 92.7498 38.9474 93.5946 41.3095C94.4804 43.77 94.6526 46.4642 95.6163 48.9001C96.58 51.3361 98.7206 53.6407 101.357 53.5423C100.925 53.415 100.53 53.1869 100.203 52.8768C99.8768 52.5666 99.6286 52.1833 99.4793 51.7584C99.8692 52.1717 100.379 52.4516 100.937 52.5584C101.495 52.6651 102.073 52.5933 102.588 52.3531C100.947 51.3812 99.914 49.6506 99.1841 47.8913C97.9267 44.8641 97.3904 41.586 97.6175 38.3159C98.3721 40.9773 99.2579 43.8397 101.534 45.4349C102.935 46.3427 104.572 46.8177 106.242 46.8005C108.185 46.8497 110.117 46.4848 111.909 45.7302C108.903 44.0406 106.676 41.1537 105.397 37.9386C103.301 32.6936 104.31 27.7398 104.167 22.3226C104.052 17.8855 103.609 13.4196 102.116 9.19987C100.886 5.65674 98.6509 2.14232 95.1447 0.858757C93.0943 0.108303 90.8347 0.206725 88.6572 0.399465C86.8145 0.558031 84.9801 0.78221 83.1538 1.072C81.4479 1.33856 79.6722 1.68303 78.1467 2.54011C77.5029 2.90098 76.3916 3.45869 76.5638 4.22965C76.6868 4.77506 78.2615 5.74696 78.6962 6.12014C80.8082 7.94092 82.9406 9.74529 85.0689 11.5497C86.0001 12.2778 86.8266 13.1306 87.5253 14.084V14.084Z" fill="#04454D"/>
<path d="M41.2061 110.044H41.0626C40.2424 110.101 39.3771 109.892 38.5652 110.093C37.7532 110.294 37.0069 111.184 37.3882 111.93C37.0151 111.204 34.5914 110.392 33.8328 110.195C32.0612 109.736 32.5205 110.659 33.4227 111.622C35.0179 113.32 36.728 114.903 38.4381 116.494C39.5125 117.491 40.6115 118.508 41.9279 119.156C45.8729 121.112 63.1866 117.056 63.445 116.564C64.9459 113.714 63.6131 108.169 60.5744 109.211C55.7723 110.851 51.9626 108.801 50.3223 108.329C48.6233 107.842 46.8133 107.91 45.1553 108.522C43.8553 109.035 42.6168 109.896 41.2061 110.044Z" fill="#E8A984"/>
<path d="M56.1455 109.814C55.6849 111.31 55.3959 112.854 55.2843 114.415C55.1941 116.445 55.8912 118.27 56.2972 118.405C56.3957 118.438 59.3442 117.798 59.3442 117.798L56.1455 109.814Z" fill="#BF5C43"/>
<path d="M117.793 77.9628C116.538 83.909 97.6992 109.99 97.1784 110.282C95.8825 111.016 61.4354 122.289 61.05 121.879C59.4096 120.05 55.928 114.71 55.9116 112.447C55.887 108.793 56.8548 106.574 56.8548 106.574C56.8548 106.574 84.4657 93.1236 85.048 92.5413C87.8694 88.8833 109.182 49.1339 111.822 50.6594C115.657 52.8492 118.605 74.1244 117.793 77.9628Z" fill="#08CF65"/>
<path d="M85.1914 92.3403L100.369 65.5782" stroke="#04454D" stroke-width="0.31163" stroke-linecap="round" stroke-linejoin="round"/>
<path d="M64.7035 118.655C65.4011 118.655 65.9666 118.09 65.9666 117.392C65.9666 116.695 65.4011 116.129 64.7035 116.129C64.0059 116.129 63.4404 116.695 63.4404 117.392C63.4404 118.09 64.0059 118.655 64.7035 118.655Z" fill="#04454D"/>
<path d="M69.9818 116.826C70.6794 116.826 71.2449 116.261 71.2449 115.563C71.2449 114.866 70.6794 114.3 69.9818 114.3C69.2842 114.3 68.7188 114.866 68.7188 115.563C68.7188 116.261 69.2842 116.826 69.9818 116.826Z" fill="#04454D"/>
<path d="M37.3223 111.376C37.3223 111.787 37.7693 112.049 38.1424 112.197C39.2432 112.645 40.4155 112.892 41.6036 112.927C41.8785 112.918 42.1536 112.94 42.4237 112.992C42.711 113.085 42.9862 113.212 43.2439 113.369C44.4373 113.985 45.0975 114.821 46.4344 114.641" stroke="#BF5C43" stroke-width="0.31163" stroke-linecap="round" stroke-linejoin="round"/>
<path d="M6.63569 93.0785C6.17857 93.0709 5.72677 92.9792 5.30292 92.8078C4.84699 92.6254 4.44828 92.3242 4.14825 91.9355C3.84823 91.5468 3.65784 91.0847 3.59695 90.5975C3.35665 90.6438 3.10948 90.6407 2.87039 90.5885C2.63131 90.5362 2.40535 90.4359 2.20626 90.2936C2.00717 90.1513 1.83908 89.9699 1.71228 89.7606C1.58547 89.5513 1.5026 89.3184 1.46864 89.0761C1.41533 88.506 1.58757 87.7925 1.11597 87.4644C1.02165 87.3988 0.906825 87.3619 0.804304 87.2963C0.617878 87.143 0.483482 86.9357 0.4196 86.7029C0.355718 86.4702 0.365484 86.2233 0.447533 85.9963C0.697684 85.0613 1.49325 84.3847 2.2437 83.7737C3.09668 83.0806 3.93734 82.404 4.84773 81.8012C5.12527 81.5587 5.48403 81.4298 5.85242 81.4403C6.02973 81.4929 6.18555 81.6009 6.29699 81.7485C6.40843 81.8961 6.46964 82.0755 6.47165 82.2605C6.4712 82.6277 6.37054 82.9878 6.1805 83.3021C6.59958 82.8545 7.08172 82.4704 7.61169 82.162C7.84911 81.9921 8.14281 81.9202 8.43186 81.9611C8.88706 82.0841 9.03876 82.6582 9.02236 83.1298C9.00232 83.6059 8.89535 84.0743 8.70664 84.5118C8.73069 84.4241 8.77335 84.3427 8.83178 84.273C8.89021 84.2034 8.96303 84.1472 9.04519 84.1083C9.12734 84.0693 9.21689 84.0486 9.3078 84.0474C9.3987 84.0463 9.48882 84.0648 9.57191 84.1017C9.73462 84.1888 9.8708 84.3183 9.96607 84.4763C10.0613 84.6344 10.1122 84.8153 10.1132 84.9998C10.1104 85.3699 10.0366 85.736 9.89584 86.0783C9.75891 86.4209 9.68128 86.7842 9.66622 87.1528C9.73984 87.0887 9.82631 87.0411 9.91982 87.0132C10.0133 86.9853 10.1117 86.9777 10.2084 86.9909C10.3051 87.0041 10.3978 87.0378 10.4804 87.0897C10.563 87.1417 10.6336 87.2107 10.6873 87.2922C10.8846 87.6377 10.9678 88.0366 10.9252 88.4322C10.9143 89.2917 10.8583 90.1499 10.7571 91.0034C10.6767 91.5146 10.6492 92.0327 10.675 92.5495C10.7009 93.1048 10.9267 93.632 11.3107 94.034C11.1548 93.9068 10.716 94.1734 9.55959 93.8002C8.9579 93.5535 8.34161 93.3439 7.71421 93.1728C7.35684 93.1205 6.99672 93.089 6.63569 93.0785V93.0785Z" fill="#E8A984"/>
<path d="M2.94531 86.4147C4.43802 84.9876 5.79131 83.704 6.7017 82.8306" stroke="#BF5C43" stroke-width="0.31163" stroke-linecap="round" stroke-linejoin="round"/>
<path d="M8.94456 84.1755C7.64025 85.5465 6.6053 87.1505 5.89355 88.9038" stroke="#BF5C43" stroke-width="0.31163" stroke-linecap="round" stroke-linejoin="round"/>
<path d="M9.56837 87.083C9.29758 88.6201 8.91237 90.1348 8.41602 91.6144" stroke="#BF5C43" stroke-width="0.31163" stroke-linecap="round" stroke-linejoin="round"/>
<path d="M80.0409 18.6728C80.3853 19.5545 81.0168 20.1245 81.4556 19.9522C81.8944 19.78 81.4885 17.6189 81.4885 17.6189C81.4885 17.6189 80.6478 16.6019 80.209 16.77C79.7702 16.9381 79.6964 17.7952 80.0409 18.6728Z" fill="#0D3145"/>
<path d="M72.1629 19.6528C72.4582 20.4115 72.9831 20.9036 73.3932 20.7559C73.8033 20.6083 73.4178 18.7424 73.4178 18.7424C73.4178 18.7424 72.696 17.8689 72.3146 18.0166C71.9333 18.1642 71.8677 18.8982 72.1629 19.6528Z" fill="#0D3145"/>
<path d="M74.9689 29.8476C74.9689 29.8476 73.9026 32.4352 76.1991 32.144C78.9426 31.8037 81.0381 28.1129 81.0381 28.1129L74.9689 29.8476Z" fill="#181F38"/>
<path d="M79.7744 28.5886C80.1126 28.492 80.4376 28.3542 80.7422 28.1785C80.9391 28.076 81.1277 27.9653 81.3163 27.8504C81.3491 27.8504 81.3861 27.7848 81.3614 27.7561C81.3368 27.7274 81.222 27.7561 81.181 27.7971C81.1068 27.908 81.0138 28.0052 80.9063 28.0842" stroke="#181F38" stroke-width="0.31163" stroke-linecap="round" stroke-linejoin="round"/>
<path d="M77.4947 14.9903C77.4259 14.5812 77.4427 14.1623 77.5439 13.76" stroke="#04454D" stroke-width="0.31163" stroke-linecap="round" stroke-linejoin="round"/>
<path d="M73.8611 19.4355L72.6309 21.8181C72.6309 21.8181 73.3936 22.8351 74.0292 22.0724C74.6648 21.3096 73.8611 19.4355 73.8611 19.4355Z" fill="#E8A984"/>
<path d="M74.0657 17.0857C74.1875 17.2061 74.2796 17.3534 74.3344 17.5158C74.3892 17.6781 74.4053 17.851 74.3814 18.0207C74.3278 18.3598 74.2198 18.688 74.0616 18.9926C73.5022 20.2048 72.8808 21.3874 72.1997 22.5357C72.0055 22.7902 71.9004 23.1014 71.9004 23.4215C71.9567 23.6961 72.1006 23.945 72.3105 24.1309C72.775 24.6385 73.3127 25.0739 73.9057 25.4227" stroke="#BF5C43" stroke-width="0.31163" stroke-linecap="round" stroke-linejoin="round"/>
<path d="M31.5984 13.1384C32.8778 11.5288 32.7927 9.98371 32.7927 9.98371L31.3276 9.96823C31.3276 9.96823 31.3714 11.1522 30.4918 12.2588C29.2524 13.8181 26.9051 14.0863 25.3458 12.8469C23.7865 11.6075 23.5183 9.26017 24.7577 7.70088C26.0771 6.041 28.2438 5.79337 29.7025 6.95284C30.5073 7.59255 30.5692 8.13423 30.2894 8.48633C30.0894 8.73783 29.638 8.78942 29.3362 8.54953L27.2237 6.8703L26.3041 8.02719L26.6562 8.30706L26.6162 8.35736C26.6162 8.35736 26.0139 8.289 25.5341 8.89259C24.8944 9.69739 25.0492 11.0516 26.1558 11.9312C27.2624 12.8108 28.6166 12.656 29.2963 11.8009C29.976 10.9458 29.5116 10.0843 29.5116 10.0843L29.5516 10.034C29.5516 10.034 30.5357 10.2417 31.2554 9.33626C32.135 8.22967 31.9802 6.87546 30.6221 5.79595C28.5799 4.1727 25.4903 4.50751 23.6511 6.82129C21.8919 9.03446 22.2634 12.2846 24.4262 14.0038C26.5891 15.723 29.8392 15.3516 31.5984 13.1384ZM28.2993 10.6802C28.0194 11.0323 27.4777 11.0942 27.0753 10.7743C26.673 10.4545 26.611 9.91277 26.8909 9.56067C27.1708 9.20858 27.7125 9.14667 28.1149 9.46652C28.5173 9.78638 28.5792 10.3281 28.2993 10.6802Z" fill="#08CF65"/>
<path d="M18.3772 42.1542H11.9512V48.5802H18.3772V42.1542Z" fill="#51E8D4"/>
<path d="M32.8564 32.7058L34.0129 35.0269L38.6427 32.9642" stroke="#04454D" stroke-width="1.66202" stroke-linecap="round" stroke-linejoin="round"/>
<path d="M19.9473 144.191C22.1546 145.949 23.5733 148.511 23.8913 151.315C24.2093 154.119 23.4005 156.934 21.643 159.141C19.8854 161.348 17.323 162.767 14.5194 163.085C11.7158 163.403 8.90067 162.594 6.69336 160.837" fill="#EBEDF5"/>
<path d="M76.6822 28.4574C77.7331 28.5053 78.7859 28.4957 79.8357 28.4287C78.9869 29.0561 77.9863 29.577 75.4028 29.9583C75.1474 29.9995 74.8871 29.9995 74.6318 29.9583C74.4284 29.6237 74.3232 29.2386 74.3283 28.847C74.3775 28.642 74.5252 28.5845 74.7015 28.5558C75.3576 28.4657 76.0204 28.4327 76.6822 28.4574Z" fill="white"/>
<path d="M137.425 99.4143C144.807 88.8997 151.54 83.3021 156.039 84.967C165.577 88.4978 161.468 123.343 146.861 162.797C132.254 202.251 112.697 231.371 103.146 227.845C95.859 225.146 96.5397 204.174 103.778 176.834" stroke="#04454D" stroke-width="0.31163" stroke-miterlimit="10"/>
<path fill-rule="evenodd" clip-rule="evenodd" d="M90.6512 120.035C90.2637 118.788 89.8725 117.53 89.4824 116.275C93.0045 117.717 96.697 118.706 100.471 119.217C102.587 119.534 104.728 119.638 106.864 119.529C107.815 119.477 108.761 119.356 109.694 119.168C110.106 119.084 110.533 118.92 110.959 118.758C111.269 118.639 111.579 118.521 111.883 118.433C111.889 118.426 111.894 118.42 111.9 118.413C112.205 118.105 112.413 117.715 112.499 117.29C112.552 116.49 111.937 115.945 111.384 115.465C111.099 115.218 110.783 114.974 110.458 114.724C109.296 113.829 108.033 112.856 107.783 111.385C107.676 110.749 107.879 110.315 108.231 109.972C108.218 109.977 108.206 109.981 108.193 109.986L108.257 109.947C108.558 109.663 108.96 109.441 109.366 109.217C109.556 109.113 109.746 109.008 109.928 108.895C109.967 108.871 110.006 108.847 110.044 108.824C110.428 108.587 110.761 108.381 111.072 108.219L111.687 107.841C111.608 107.903 111.537 107.966 111.474 108.029C111.834 107.88 112.181 107.802 112.567 107.814C113.45 105.535 112.973 102.94 112.492 100.328C112.132 98.3698 111.77 96.4023 111.978 94.5506C112.515 89.769 115.345 85.3483 118.695 82.0102C121.089 79.6993 123.779 77.7228 126.689 76.1304C126.721 76.279 126.751 76.4267 126.782 76.5734C126.247 76.7892 125.72 77.0241 125.201 77.2777C125.183 77.2911 125.165 77.3048 125.146 77.3189C124.662 77.6797 124.186 78.0406 123.727 78.4507C122.08 79.8556 120.607 81.4526 119.339 83.2077C116.952 86.517 115.156 90.5646 115.435 94.7187C115.512 95.9144 115.742 97.1442 115.971 98.3742C116.64 101.953 117.309 105.533 114.205 108.28C113.951 108.505 112.472 109.579 111.51 110.123C112.022 110.857 112.894 111.618 113.734 112.351C114.927 113.391 116.054 114.374 115.993 115.145C115.888 116.441 114.176 117.435 112.958 118.142C112.75 118.263 112.557 118.375 112.388 118.479C111.167 119.311 109.874 120.033 108.525 120.636C104.748 122.137 100.348 121.883 96.4114 121.28C94.464 120.992 92.5399 120.576 90.6512 120.035Z" fill="white"/>
<path fill-rule="evenodd" clip-rule="evenodd" d="M92.2875 125.299C91.9501 124.213 91.6036 123.098 91.252 121.966C91.6825 122.101 92.0976 122.244 92.4904 122.387C97.079 124.068 101.366 126.735 105.232 129.701C106.284 128.999 107.619 128.551 109.046 128.333C110.907 128.049 112.792 128.106 114.673 128.162C116.592 128.219 118.508 128.277 120.393 127.972C122.964 127.554 124.723 125.902 125.724 123.535C126.421 122.024 126.746 120.367 126.671 118.705C126.658 118.539 126.622 118.369 126.586 118.2C126.542 117.995 126.498 117.79 126.495 117.589C126.647 117.831 126.856 118.139 127.135 118.524C126.906 118.207 126.695 117.864 126.49 117.515C126.441 117.05 126.075 116.657 126.132 116.895C125.99 116.65 125.847 116.407 125.699 116.174C122.804 111.606 119.552 105.676 120.425 100.124C121.281 94.6883 125.596 90.4001 130.791 89.1458C131.586 90.1364 132.569 91.3449 133.619 92.6257C127.237 93.6368 121.966 99.2315 122.037 105.91C122.059 106.954 122.196 107.992 122.447 109.006C122.541 109.409 122.719 109.844 122.897 110.281C123.068 110.698 123.239 111.118 123.341 111.518L123.362 111.553C123.501 111.787 123.647 112.012 123.795 112.24C123.903 112.408 124.012 112.576 124.12 112.75C124.469 113.283 124.821 113.829 125.145 114.39C126.228 116.225 127.158 118.145 127.926 120.132C129.788 125.114 126.716 131.364 121.213 131.749C119.751 131.853 118.286 131.821 116.822 131.789C114.561 131.74 112.303 131.691 110.063 132.139C109.561 132.24 109.047 132.366 108.545 132.533C109.835 133.82 110.937 135.247 111.785 137.003C111.897 137.236 112.037 137.495 112.185 137.772C112.858 139.023 113.724 140.634 113.167 141.866C112.58 143.17 110.866 143.318 109.636 143.125C106.044 142.571 103.944 138.544 103.173 135.305C102.756 133.555 103.045 132.158 103.795 131.08C102.746 130.383 101.673 129.721 100.577 129.096C98.641 127.981 95.4571 126.2 92.2875 125.299ZM106.894 133.298C106.446 133.584 106.042 133.931 105.707 134.353C105.208 134.996 104.895 135.764 104.801 136.572C104.751 136.941 104.807 137.47 104.868 137.938C106.723 139.479 109.771 140.555 111.219 138.467C111.477 138.089 111.498 137.751 111.501 137.383C110.824 136.628 110.094 135.923 109.316 135.272C108.527 134.591 107.72 133.933 106.894 133.298ZM126.132 116.895C126.156 116.997 126.258 117.214 126.495 117.589C126.495 117.582 126.495 117.576 126.495 117.569C126.494 117.551 126.492 117.533 126.49 117.515C126.411 117.379 126.333 117.243 126.254 117.108C126.214 117.037 126.173 116.966 126.132 116.895Z" fill="white"/>
<path fill-rule="evenodd" clip-rule="evenodd" d="M142.198 117.067C141.968 118.242 141.671 119.475 141.292 120.758C137.416 118.477 134.265 115.007 133.25 110.655C132.651 107.785 132.672 104.821 133.311 101.961C133.812 99.8776 135.082 97.9319 136.732 96.4069C137.448 97.2722 138.139 98.1064 138.768 98.8647C136.654 100.121 134.929 101.97 133.824 104.208C133.682 104.496 133.548 104.989 133.433 105.406C133.393 105.554 133.355 105.693 133.32 105.809C133.341 106.005 133.364 106.175 133.389 106.291C133.691 107.69 134.217 109.031 134.947 110.261C136.638 113.141 139.226 115.451 142.198 117.067Z" fill="white"/>
</svg>
