<?xml version="1.0"?>
<svg xmlns="http://www.w3.org/2000/svg" id="Layer_1" data-name="Layer 1" viewBox="0 0 153.76 236.15">
  <defs>
    <style>.cls-1{fill:#03454d;}.cls-10,.cls-2,.cls-4{fill:#fff;}.cls-2{fill-rule:evenodd;}.cls-3{fill:#ffc000;}.cls-5{fill:#e8a984;}.cls-6{fill:#bf5c43;}.cls-7{fill:#0c3245;}.cls-11,.cls-13,.cls-14,.cls-8{fill:none;}.cls-10,.cls-8{stroke:#bf5c43;}.cls-10,.cls-11,.cls-13,.cls-14,.cls-8{stroke-linecap:round;stroke-linejoin:round;}.cls-10,.cls-11,.cls-14,.cls-8{stroke-width:0.38px;}.cls-9{fill:#0d3145;}.cls-11{stroke:#0c3245;}.cls-12{fill:#ebedf5;}.cls-13{stroke:#04cf64;stroke-width:2.04px;}.cls-14{stroke:#ffc000;}</style>
  </defs>
  <path class="cls-1" d="M58.88,236.15a35.67,35.67,0,1,1,35.68-35.66A35.67,35.67,0,0,1,58.88,236.15Z" transform="translate(-18.11)"/>
  <path class="cls-2" d="M83.57,174.74c.73.7,1.44,1.44,2.11,2.21a81,81,0,0,1-9.33,1c-.49,0-1.07,0-1.71.05-3.5,0-8.79.1-10,3.2a5.52,5.52,0,0,0-.31,1.73,4.05,4.05,0,0,1-.63,2.27c-1.09,1.42-3.12,1.31-4.59.66a19.83,19.83,0,0,1-4.75-3.38,25.12,25.12,0,0,0-3.81-2.91c-2.35-1.34-7.13-3.53-9.2-.52-1.07,1.58-.27,3.17,1,4.57a14.46,14.46,0,0,1,2.16-.42c2.6-.28,5.31.32,6.56,2.86l0,.1A6.9,6.9,0,0,1,52,189c-.22,2.39-3.51,1.36-4.79.58A15.76,15.76,0,0,1,43.3,186l-.61.16c-.64.18-1.28.4-1.91.61a15.35,15.35,0,0,1-5.21,1.08,16.33,16.33,0,0,1-3.59-.66c-.75-.2-1.5-.39-2.25-.52s-2.11-.34-3.54-.47c.32-.74.67-1.47,1-2.18a29.45,29.45,0,0,1,3.24.64,29.37,29.37,0,0,0,3.36.67,14.83,14.83,0,0,0,6.31-1.08c.54-.17,1.09-.35,1.64-.51-1.15-2-2.34-4.88-1.58-6.67,2.18-5.16,10.69.44,13.15,2.55q.55.48,1.14,1c1.45,1.34,3,2.77,4.92,3.14a3.55,3.55,0,0,0,3.41-1,4.15,4.15,0,0,0,.61-2.24,6.71,6.71,0,0,1,.23-1.5c.84-2.74,4.47-3,7.06-3.21l.8-.06c1.3-.12,2.61-.18,3.92-.25,1.6-.08,3.21-.16,4.8-.33C81.35,175,82.46,174.9,83.57,174.74Zm-39,11c2.29-.39,4.77-.26,6.38,1.33-.45,1-2,1.08-3.11.75A9.21,9.21,0,0,1,44.53,185.74Z" transform="translate(-18.11)"/>
  <path class="cls-2" d="M90.68,184.3,89.16,184l-1.78-.37-.86-.23-.62-.17L85,183c-.22-.05-.44-.08-.66-.12l-.16,0-.4,0-.43,0-.25,0a4.19,4.19,0,0,0-.5,0,12.34,12.34,0,0,0-1.72,0,4.91,4.91,0,0,0-.77.09l-.75.16a5.68,5.68,0,0,0-1.19.44,4.65,4.65,0,0,0-.85.6l-.22.24a4,4,0,0,0,.16,1,6,6,0,0,0,.35.92,4,4,0,0,0,.57.9,3.44,3.44,0,0,0,1.35.94c.35.13.7.22,1.05.32l.45.13a10.48,10.48,0,0,1,1.23.42c.2.09.41.18.6.28s.37.2.56.32c.37.22.74.47,1.08.71l.34.23c.23.16.46.32.67.49a4.22,4.22,0,0,1,1.41,1.5,1.6,1.6,0,0,1,.18.67,2.54,2.54,0,0,1-.11.78,5.15,5.15,0,0,1-1,1.86l-.21.2a1.51,1.51,0,0,1-.26.18,1.79,1.79,0,0,1-.45.19,5.1,5.1,0,0,1-1,.16,7.49,7.49,0,0,1-.81,0,14.27,14.27,0,0,1-1.6-.07c-.55-.06-1.11-.16-1.63-.27l-1-.23-.52-.13c-.67-.15-1.35-.28-2-.42l-1.34-.26-1.6-.37-.15,0a3.66,3.66,0,0,0-.63-.14l-.25,0-.55-.08-.23,0a5.78,5.78,0,0,0-.71,0l-.83,0H68.51c-.51,0-1,0-1.51-.08l-.23,0c-.49,0-.92-.07-1.48-.13h0c-.56-.06-1.12-.11-1.67-.19l-1.74-.26a1.08,1.08,0,0,1-.19,0,4.07,4.07,0,0,0-.6-.06,1.23,1.23,0,0,0-.38,0h-.49a1.82,1.82,0,0,0-.33,0h-.51a6.76,6.76,0,0,0-.9.15,4.52,4.52,0,0,0-.71.23l-.09,0-.21.1a6.8,6.8,0,0,0,.07.8,6.91,6.91,0,0,0,.16.79c.06.23.13.47.21.7,0,0,0,.08,0,.11a1.57,1.57,0,0,0,.09.23l.13.28,0,.05a8,8,0,0,0,1.28,1.83l.22.21h.05l.27.07.4.1.61.14.28.07.81.15c.48.08,1,.14,1.46.2l.21,0,1.67.19c.52.07,1,.11,1.56.14.29,0,.57,0,.85,0s.52,0,.77,0a15.41,15.41,0,0,1,1.65.18c.33,0,.66.13,1,.19l.57.13c.53.1,1.1.18,1.62.23l.84.1c.3,0,.59.08.89.12a8.41,8.41,0,0,1,1.7.47c.35.15.68.31,1,.47s1,.5,1.42.77.91.54,1.35.84l.27.18c.15.1.3.19.44.3l.76.55a4.7,4.7,0,0,1,.43.35h0c.14.12.28.24.41.37a9.58,9.58,0,0,1,.76.8,6.11,6.11,0,0,1,.66.94,3.68,3.68,0,0,1,.35.82,2.71,2.71,0,0,1,.1,1,3,3,0,0,1-.27.92c-.07.15-.14.28-.22.42a2.36,2.36,0,0,1-.26.36,2,2,0,0,1-.7.49h-.19a6.33,6.33,0,0,1-1,.26l-.2,0a4.2,4.2,0,0,1-.62.07A5.92,5.92,0,0,1,79,211.3a9,9,0,0,1-.86-.33c-.38-.18-.76-.38-1.13-.57l-.36-.19-.62-.33-.85-.44-.38-.19c-.36-.17-.71-.35-1.06-.54-.7-.37-1.38-.8-2-1.22-.3-.19-.6-.38-.91-.56a9.64,9.64,0,0,0-1.36-.69c-.29-.12-.58-.25-.88-.36l-.68-.26-1.1-.47-.46-.2c-.41-.18-.81-.39-1.21-.6l-.26-.14-.31-.16-1.14-.58c-.44-.21-.92-.42-1.34-.6l-.22-.1-.37-.16c-.35-.15-.71-.31-1.05-.49l-.15-.07-.28-.16-.41-.26-.26-.17-.08-.06a3.49,3.49,0,0,1-.32-.25c-.15-.11-.3-.24-.44-.36-.42-.09-.83-.17-1.26-.23a15.09,15.09,0,0,0-1.64-.13l-1.52-.1-1.8-.2L51.14,200c-.71-.08-1.41-.15-2.12-.26a16.35,16.35,0,0,1-1.69-.35c-.5-.12-1-.24-1.51-.32s-1-.14-1.52-.2-1.13-.14-1.69-.23l-.63-.12c-.31-.06-.62-.13-.93-.18l-.88-.12h-.1a4.76,4.76,0,0,0-.75-.07,16.1,16.1,0,0,0-1.7-.06h0a11,11,0,0,0-2.56.25,12.21,12.21,0,0,0-1.71.56,5.28,5.28,0,0,0-.76.36,4,4,0,0,0-.47.33,2.43,2.43,0,0,0-.29.26l.07-.08q-.2.21-.36.42l-.16.23v.09l0,.08a.53.53,0,0,0,0,.17,6.8,6.8,0,0,0-.11.77,2.93,2.93,0,0,0,.09.84,5.73,5.73,0,0,0,.26.73,4.16,4.16,0,0,0,.47.71,7,7,0,0,0,.62.6,4.51,4.51,0,0,0,.61.44,4.57,4.57,0,0,0,.42.23l.09.05.21.1.35.14.63.24.73.22.47.14.65.21.11,0,.51.18c.4.16.78.31,1.18.49s.8.39,1.19.61a5.48,5.48,0,0,1,.52.31,1.55,1.55,0,0,1,.66.61.21.21,0,0,1,0,.11.24.24,0,0,1,0,.12v.11a2,2,0,0,1-.11.35,3.75,3.75,0,0,1-.4.77,1.5,1.5,0,0,1-.52.48,3.45,3.45,0,0,1-.63.25,13.82,13.82,0,0,1-2.22.43,11.67,11.67,0,0,1-1.56.1c-.57,0-1.18-.05-1.7-.1s-1-.11-1.57-.21l-.2,0-.67-.14-.79-.17c-.54-.14-1.09-.25-1.64-.34a5.52,5.52,0,0,0-.81-.06l-.89,0a12.53,12.53,0,0,0-1.61.25l-.11,0-.37.1a2.66,2.66,0,0,0-.52.23l-.24-.87a3.14,3.14,0,0,1,.75-.75,2.13,2.13,0,0,1,.69-.3,3.2,3.2,0,0,1,.42-.1,7.72,7.72,0,0,1,.79-.14l.17,0a4.76,4.76,0,0,1,.64-.06,7.22,7.22,0,0,1,1.61,0,14.61,14.61,0,0,1,1.6.32l.13,0c.51.14,1,.27,1.51.37s1,.21,1.56.28l.19,0c.5.06,1,.12,1.5.14h1.05a.79.79,0,0,0,.21,0,3,3,0,0,1,.42,0h0l.2,0,.6-.07c.37,0,.75-.11,1.12-.19l.37-.1-.1-.08a15.67,15.67,0,0,0-1.35-.82,17.1,17.1,0,0,0-1.57-.71c-.23-.1-.47-.18-.71-.26l-.76-.25a14.76,14.76,0,0,1-1.59-.52l-.15-.06a2.52,2.52,0,0,1-.29-.12l-.41-.21a3.75,3.75,0,0,1-.66-.43,5.81,5.81,0,0,1-.74-.66,3.82,3.82,0,0,1-.93-1.82,2.24,2.24,0,0,1-.06-.52v-.43a5.25,5.25,0,0,1,.14-.87,5.53,5.53,0,0,1,.4-1.12,6.39,6.39,0,0,1,.52-1A5,5,0,0,1,33.17,198a9.88,9.88,0,0,1,2.15-.9,11.19,11.19,0,0,1,2-.39,3.83,3.83,0,0,1,.56,0h1.38c.49,0,1,0,1.46.06h0c.31,0,.62.05.92.09l.8.11,1.63.2,1.18.11c.71.06,1.41.12,2.11.23.36.06.72.14,1.07.21l.61.13c.19,0,.4.06.6.09l.26,0,.67.08h0l1.75.16,1.56.16c.58.07,1.15.12,1.73.16l1.29.08v0c-.09-.22-.19-.44-.28-.67s-.16-.5-.22-.76a4.91,4.91,0,0,1-.13-.75,4,4,0,0,1,0-.6,4.36,4.36,0,0,1,0-.52v0a3.62,3.62,0,0,1,.13-.58,5.8,5.8,0,0,1,.19-.59l0-.06.24-.52.19-.37a4.92,4.92,0,0,1,.73-1,1.9,1.9,0,0,1,.4-.35,5.39,5.39,0,0,1,1.78-.62l.21,0a4,4,0,0,1,.59-.07l.52,0h.4a5.36,5.36,0,0,1,.7.06c.47.06.92.13,1.38.21s1.21.2,1.86.27c1.14.14,2.27.26,3.41.35.54,0,1.1.07,1.62.07l.9,0,.79.07h0l.44.05.09,0,.25,0,.1,0c.25,0,.47.09.71.15l.78.21.78.21c.64.18,1.28.34,1.92.49l1.37.34c.32.08.63.17.95.27l.57.16c.54.15,1.07.29,1.61.4a12.31,12.31,0,0,0,1.59.19,8,8,0,0,0,2.08-.08,1.79,1.79,0,0,0,.46-.16c0-.1-.06-.2-.1-.3a3.77,3.77,0,0,0-.91-1,4.57,4.57,0,0,0-.52-.43l-1.17-.84,0,0a4.73,4.73,0,0,0-.49-.35l-.22-.14-.33-.21-.61-.33,0,0c-.18-.09-.35-.17-.57-.26l-.73-.26-.65-.22a7.92,7.92,0,0,1-.93-.33,4,4,0,0,1-.71-.43,3.41,3.41,0,0,1-.59-.61,4.23,4.23,0,0,1-.41-.68l-.16-.35a5.71,5.71,0,0,1-.4-1.23,2.31,2.31,0,0,1-.09-.74,3.78,3.78,0,0,1,.08-.6,4,4,0,0,1,.67-1.48,4.06,4.06,0,0,1,1.48-1.28,6.18,6.18,0,0,1,1-.33l.49-.11a7.53,7.53,0,0,1,1.56-.17h.15a13.6,13.6,0,0,1,1.42.06l.21,0c.24,0,.47,0,.7.08l.17,0,.26,0,.43.09c.54.11,1.06.26,1.58.42l.32.09,1.25.38c.63.18,1.29.33,1.94.47C90.31,183.58,90.5,183.94,90.68,184.3ZM31.4,200.65l.05-.12Zm51.94,9.79a2.27,2.27,0,0,0,.57-.2,2.57,2.57,0,0,0,.41-.26l.1-.12v-.17a2.26,2.26,0,0,0-.06-.73,4.57,4.57,0,0,0-.22-.62,6.93,6.93,0,0,0-1.56-2,10,10,0,0,0-.86-.73l-.37-.25c-.47-.33-.95-.66-1.44-.95l-.18-.11a14.87,14.87,0,0,0-1.29-.74l-.62-.31c-.31-.16-.63-.33-.95-.46a7.4,7.4,0,0,0-2-.57l-.22,0a4.07,4.07,0,0,0-.61-.06c-.33,0-.67-.05-1-.06l-.74-.05c-.56,0-1.12-.1-1.67-.18s-1.12-.15-1.68-.19a14.41,14.41,0,0,0-1.61,0h-.57c-.39,0-.77,0-1.14,0s-.89-.06-1.34-.09l-.32,0h-.15l.21.11,1.56.89q.23.12.45.27c.28.17.57.34.89.5l.82.4c.25.12.49.25.72.35s.48.22.73.33l.72.33a11.1,11.1,0,0,1,1.45.76c.47.3,1,.64,1.39.93l0,0c.45.3.87.58,1.35.87s.67.39,1,.58l.43.23.23.13c.44.24.88.49,1.27.73s.91.57,1.38.81l.33.17.48.23a4.17,4.17,0,0,0,.84.29,5.53,5.53,0,0,0,1.08.17A8.54,8.54,0,0,0,83.34,210.44Zm1.1-.65v0Z" transform="translate(-18.11)"/>
  <path class="cls-2" d="M87.71,221.5A4.75,4.75,0,0,1,86,222q-.37,0-.75,0l-.43,0-.13,0-.16,0-.29,0-1.06-.23c-.63-.14-1.26-.29-1.9-.39l-1.4-.21a8.87,8.87,0,0,1-1.43-.3c-.3-.1-.6-.2-.89-.33l-.79-.36a15.73,15.73,0,0,0-1.53-.61c-.56-.19-1.15-.37-1.72-.52l-.53-.15-1.15-.32c-1-.29-1.92-.63-2.88-1l-.5-.17-1.8-.64c-.55-.19-1.08-.39-1.6-.6l-.73-.33c-.26-.12-.53-.24-.83-.36-.57-.24-1.21-.5-1.73-.69l-1.1-.4-.46-.16-.43-.15-1.29-.45-.94-.32c-.23-.07-.47-.14-.71-.19-.59-.14-1.19-.27-1.79-.37s-1.19-.19-1.78-.27h0a5.79,5.79,0,0,0-.82-.07h-.58a6,6,0,0,0-1,.12,3,3,0,0,0-.7.27,2.8,2.8,0,0,0-.4.27l0,.13a3,3,0,0,0,0,.31,5.69,5.69,0,0,0,.05,1.09v0l.09.54c.05.18.09.37.14.56l.11.36a5,5,0,0,0,.23.58l.07.12,1,.16.45.07c.6.11,1.2.2,1.81.3h0l1,.16.31.07.16,0,.29.06.28.08.59.17.83.27c.57.18,1.09.38,1.61.6A9.09,9.09,0,0,1,61.9,221a4,4,0,0,1,.67,1,1.82,1.82,0,0,1,.22,1,3.19,3.19,0,0,1-.3.95,2.39,2.39,0,0,1-.59.81,2.61,2.61,0,0,1-1,.57.84.84,0,0,1-.31.05h-.15a2.38,2.38,0,0,1-.37-.06,6.8,6.8,0,0,1-.86-.31l-.35-.18c-.41-.19-.82-.39-1.21-.6s-1-.54-1.5-.84-1-.59-1.44-.9-1-.6-1.53-.87l-.86-.45c-.24-.12-.47-.24-.7-.38A5.5,5.5,0,0,1,50,219.41a5.45,5.45,0,0,1-.82-1.24v0h-.16l-.44,0a31.68,31.68,0,0,0-3.51.13c-1.17.09-2.34.09-3.51.09H39.88a8.24,8.24,0,0,0-1.72.09,1.76,1.76,0,0,0-.3.1l-.21.14-.14.44,0,.05a5.79,5.79,0,0,1-.24.61,9.3,9.3,0,0,1-.41.84,5,5,0,0,1-.32.52c-.05.07-.11.14-.16.22l-.07.09a5.8,5.8,0,0,1-.47.52,5.3,5.3,0,0,1-.52.42l-.24.15a3,3,0,0,1-1.14.43,4.21,4.21,0,0,1-1.46,0,7.86,7.86,0,0,1-1.15-.32l-.6-.22c-.67-.87-1.31-1.77-1.9-2.69a4,4,0,0,1,.58.11,4.6,4.6,0,0,1,.52.19l.7.3.49.22.26.11a7.28,7.28,0,0,0,.77.31,5.24,5.24,0,0,0,.88.26,4.21,4.21,0,0,0,.71.12h.59a4.67,4.67,0,0,0,.52-.08,2.78,2.78,0,0,0,.57-.21l.36-.21a4,4,0,0,0,.67-.49,4.17,4.17,0,0,0,.34-.38l0-.05,0-.08c.15-.46.33-.91.52-1.35a5.48,5.48,0,0,1,.72-1.18l.21-.19a.91.91,0,0,1,.23-.15,2.09,2.09,0,0,1,.35-.13,4.63,4.63,0,0,1,1.11-.14H44.8q.86,0,1.71-.06c.63,0,1.27,0,1.9,0h.34s0-.09,0-.13a1.54,1.54,0,0,1,0-.31,7.51,7.51,0,0,1,0-1.06,4.35,4.35,0,0,1,.06-.52,5.6,5.6,0,0,1,.12-.59,6.89,6.89,0,0,1,.42-1.18,6.79,6.79,0,0,1,.62-1.12,3.05,3.05,0,0,1,1.66-1.29,6.14,6.14,0,0,1,.93-.19h.81c.57,0,1.13.1,1.69.19s1.18.19,1.76.32l1,.22.2.06a4.94,4.94,0,0,1,.55.15c.52.18,1,.38,1.56.58l1,.38c.77.29,1.54.57,2.31.89.37.15.74.32,1.11.49l.56.25.78.38c.26.13.52.26.79.37.91.41,1.85.78,2.77,1.15l.55.22c1.1.43,2.19.87,3.32,1.21l.88.27.8.25.21.07c.47.15.93.3,1.42.51l1.3.61.36.16a7.19,7.19,0,0,0,.76.32c.26.09.52.17.79.24.57.12,1.18.22,1.73.31h0c.57.09,1.11.2,1.68.33l.59.14,1.11.25c.27,0,.54.09.82.12s.41,0,.61,0a6.38,6.38,0,0,0,1-.1,4.88,4.88,0,0,0,.86-.31,2.51,2.51,0,0,0,.52-.32,11.4,11.4,0,0,0-.11-1.3,3.35,3.35,0,0,1,.06-1,6.65,6.65,0,0,1,.55-1.74,3.46,3.46,0,0,1,.32-.52,1.09,1.09,0,0,1,.22-.26l.09-.08a2.83,2.83,0,0,1,.57-.23c.29-.07.54-.12.81-.16l.11,0,.36,0q-.3.69-.63,1.38l-.26,0a8.7,8.7,0,0,0-1,.18l-.18.05-.24.1,0,.12a2.12,2.12,0,0,0-.06.43,5.2,5.2,0,0,0,.06.68,5.51,5.51,0,0,1,.06.71,4.21,4.21,0,0,1,0,.71.36.36,0,0,1,0,.1C88.85,219.88,88.29,220.7,87.71,221.5Zm6.46-15.74c-.06.42-.13.83-.2,1.24h0a5.07,5.07,0,0,0-.48-.56l0,0-.16-.15-.14-.12-.08-.07c-.08-.06-.16-.13-.24-.18a5.87,5.87,0,0,0-.75-.47,10.1,10.1,0,0,0-1.62-.59,5.34,5.34,0,0,1-.52-.18,2.44,2.44,0,0,1-.75-.43A1,1,0,0,1,89,204l-.08-.17a.76.76,0,0,1-.06-.37,1.4,1.4,0,0,1,.08-.34,1.79,1.79,0,0,1,.19-.45,1.69,1.69,0,0,1,.62-.73,3.71,3.71,0,0,1,.46-.19,4.12,4.12,0,0,1,.69-.18,11.77,11.77,0,0,1,1.78-.15l.88,0,.78,0h.25c0,.34,0,.68,0,1l-.25,0H91.81a9.72,9.72,0,0,0-1.71.18l-.39.11-.22.08-.11.05.06.12a1,1,0,0,0,.21.25,1.56,1.56,0,0,0,.2.16,2.42,2.42,0,0,0,.39.21,6,6,0,0,0,.62.23l.29.09a5.08,5.08,0,0,1,.51.17,4.66,4.66,0,0,1,.73.3h0a3.42,3.42,0,0,1,.42.23c.14.08.27.17.4.26a8.06,8.06,0,0,1,.64.52,4.12,4.12,0,0,1,.28.31Zm0-10.54c.09.59.16,1.18.22,1.78l-.58-.35-.31-.19-.4-.22-.35-.2a7,7,0,0,1-.81-.52,4.29,4.29,0,0,1-1.14-1.26,3.29,3.29,0,0,1-.62-2,3.15,3.15,0,0,1,.32-1.07,3.74,3.74,0,0,1,.28-.52.91.91,0,0,1,.18-.21l.13-.12a.78.78,0,0,1,.33-.07,2.27,2.27,0,0,1,.52.09l.39.13a6.51,6.51,0,0,1,.71.33.41.41,0,0,0,.11.07l.13.07c.18.65.34,1.31.49,2a11.1,11.1,0,0,0-1.29-.75,7,7,0,0,0-.74-.34l-.31-.11-.33-.09h-.18l0,.14a5.33,5.33,0,0,0,.3.75,4,4,0,0,0,.67,1,4,4,0,0,0,.35.36,5.42,5.42,0,0,0,.91.66l.78.48ZM36.85,219.85l.07-.11ZM61.28,224a.62.62,0,0,0,.3,0h-.07a1.86,1.86,0,0,0,.46-.19l.18-.13a.53.53,0,0,0,0-.17,1.51,1.51,0,0,0-.14-.35v0a4.78,4.78,0,0,0-.38-.61c-.17-.21-.34-.41-.52-.6a9.46,9.46,0,0,0-1-.89A8.92,8.92,0,0,0,58.22,220l-.21-.08-.31-.13-.59-.2-.77-.25-.09,0-.21-.06c-.24-.07-.49-.15-.74-.21l-.59-.14-.28-.06-.2,0c-.46-.08-.93-.14-1.4-.2l-.56-.08-.46,0,.45.33a15.78,15.78,0,0,0,1.51.89h0a24.58,24.58,0,0,1,2.32,1.48c.38.28.75.54,1.18.8s.88.54,1.29.79l.16.09c.37.22.73.43,1.11.63l.58.28a2.64,2.64,0,0,0,.47.17A1.76,1.76,0,0,0,61.28,224Z" transform="translate(-18.11)"/>
  <path class="cls-3" d="M48.09,182.28c-26.56-26.55-37.37-58.79-24.14-72s45.48-2.42,72,24.13,37.37,58.79,24.14,72S74.65,208.83,48.09,182.28Z" transform="translate(-18.11)"/>
  <path class="cls-4" d="M120.34,200.5c.52,2.08,1,3.68,0,5.56a7.84,7.84,0,0,1-2.9,2.79A24.16,24.16,0,0,1,103.16,212a56.88,56.88,0,0,1-12.91-2.6,79.92,79.92,0,0,1-18.83-8.58c-12-7.93-17.71-22.38-18.23-36.77a7.3,7.3,0,0,1,.39-3.21c1-2.28,3.85-3,6.31-3.35a141,141,0,0,1,37.28-.64c5.35.65,6.58,4.83,9.14,9.28a140.39,140.39,0,0,1,14.06,34.36Z" transform="translate(-18.11)"/>
  <path class="cls-5" d="M93.31,46.68a12.28,12.28,0,0,1,1.44,3L96,53.37a3.25,3.25,0,0,1,.17.7c.07,1-.62,2-.52,3.13s.52,2.14.22,3.22c-1.4,5.1-2.26,14.66-3.57,16.65-.84,1.26-4.5,1.63-7.35.81l-.29,4.8s7.55,1.12,7.71,3.39c1,14.53-37.68,3.54-37.68,3.54l10.54-6.85a5.87,5.87,0,0,0,1.67-1.66,5.73,5.73,0,0,0,.86-2.18c.68-3.94,1.94-11.34,2.15-12.73.27-1.93-2.87-17.41,5.64-20.82,3.82-1.53,8.18-2.73,12.31-2A7.77,7.77,0,0,1,93.31,46.68Z" transform="translate(-18.11)"/>
  <path class="cls-6" d="M86.45,78.2a70.22,70.22,0,0,1-7.21-2.31s2.43,3.65,3.38,4.22a1.45,1.45,0,0,0,.86.25,1.51,1.51,0,0,0,.85-.3l.78-1.86Z" transform="translate(-18.11)"/>
  <path class="cls-7" d="M65.33,48.93c-.79,3.8-.11,7.8.85,11.71,1,4.11,2.3,8.21,2.4,12.44a30.84,30.84,0,0,0,3.2-8.29A28.19,28.19,0,0,1,73,59.62c.7-1.57,1.94-1.89,3.24-3a13.72,13.72,0,0,0,3.05-3.73A6,6,0,0,0,80.11,49a4.48,4.48,0,0,0-1.71-2.78c.63.52,2.51.52,3.32.71,1.1.23,2.25.4,3.32.71,2.15.61,4.26,1.48,6.48.57a6.17,6.17,0,0,1,1.62-.59c.58,0,1.25.31,1.28.88a15.75,15.75,0,0,0-3.55-5.7,15.48,15.48,0,0,0-5.62-3.67,13.51,13.51,0,0,0-5.08-.78c-1.23,0-2.73.76-3.9.61A1.52,1.52,0,0,0,77,36.69a4,4,0,0,0-2.22-1.49c-2.2-.78-4.69-1.22-6.85-.35a3.55,3.55,0,0,0-2.11,1.91,4,4,0,0,0-.13,1.76,11.38,11.38,0,0,0,1.44,4.64,1.43,1.43,0,0,1,.22.56,1.47,1.47,0,0,1-.29.88A13.75,13.75,0,0,0,65.33,48.93Z" transform="translate(-18.11)"/>
  <path class="cls-8" d="M87.67,64.71a4,4,0,0,0,.46,1.66.31.31,0,0,0,.13.17.39.39,0,0,0,.15,0l.15,0a5,5,0,0,1,1.51-.42" transform="translate(-18.11)"/>
  <path class="cls-7" d="M81.75,55.69l1.69-.52a11.07,11.07,0,0,1,1.62-.33,4.5,4.5,0,0,1,1.51.07,6,6,0,0,0,1.69.15l.07,0a.18.18,0,0,0,.07,0,.16.16,0,0,0,0-.07.19.19,0,0,0,0-.08v-.05a2.14,2.14,0,0,0-.62-.83,2.1,2.1,0,0,0-.94-.42,4.63,4.63,0,0,0-2,0,6.46,6.46,0,0,0-1.79.72,7.24,7.24,0,0,0-1.47,1.12.13.13,0,0,0,0,.11.13.13,0,0,0,0,.12.12.12,0,0,0,.06.06A.15.15,0,0,0,81.75,55.69Z" transform="translate(-18.11)"/>
  <path class="cls-9" d="M85.62,59c-.41.9-1.1,1.47-1.56,1.27s.08-2.46.08-2.46.94-1,1.39-.82S86,58.05,85.62,59Z" transform="translate(-18.11)"/>
  <path class="cls-9" d="M94.22,59.08c-.35.81-.93,1.34-1.31,1.18S93,58.1,93,58.1s.79-.93,1.16-.77S94.57,58.29,94.22,59.08Z" transform="translate(-18.11)"/>
  <path class="cls-5" d="M76,59.54c.52,2.9-.43,5.5-2.15,5.82-1.3.24-2.51-.9-3-2a17.61,17.61,0,0,1-1.69-4.75,3.5,3.5,0,0,1,.74-3.27,2.64,2.64,0,0,1,1.31-.55C74,54.39,75.56,57.16,76,59.54Z" transform="translate(-18.11)"/>
  <path class="cls-8" d="M70.16,62a8.1,8.1,0,0,0,1.31,2.14,2.74,2.74,0,0,0,1.11.85,1.17,1.17,0,0,0,.69.07,1.13,1.13,0,0,0,.61-.32" transform="translate(-18.11)"/>
  <path class="cls-8" d="M71.8,56.09c1.56.83,2.16,2.77,2.61,4.51" transform="translate(-18.11)"/>
  <path class="cls-10" d="M83.92,69.23a14,14,0,0,0,6,.69l2.19-.07-.1.32,1-.9a3.38,3.38,0,0,1-1.82,1.63C88.47,71.83,83.92,69.23,83.92,69.23Z" transform="translate(-18.11)"/>
  <path class="cls-8" d="M83.32,68.67a1.44,1.44,0,0,0-.43.38" transform="translate(-18.11)"/>
  <path class="cls-11" d="M67.39,43.72a14.1,14.1,0,0,1-2.89-6.59,3.58,3.58,0,0,1,.06-1.78,2.5,2.5,0,0,1,.62-.91,2.55,2.55,0,0,1,.94-.58,5.34,5.34,0,0,1,2.21-.26A12.48,12.48,0,0,1,73,34.75" transform="translate(-18.11)"/>
  <path class="cls-11" d="M92.69,62.59a1,1,0,0,0,.29.51,1.09,1.09,0,0,0,.52.27A4.26,4.26,0,0,0,97.77,61a6.74,6.74,0,0,0,.79-4l-1-.07" transform="translate(-18.11)"/>
  <path class="cls-8" d="M92.9,56.41a3.42,3.42,0,0,0-1,2.08,7.7,7.7,0,0,0,.31,2.61c.34,1.21.85,2.36,1.21,3.56a1.11,1.11,0,0,1,.06.57,1.07,1.07,0,0,1-.31.52A9.78,9.78,0,0,1,91.84,67" transform="translate(-18.11)"/>
  <path class="cls-11" d="M92.35,60.31a10.5,10.5,0,0,0-2.17-.11,14.59,14.59,0,0,1-2.84,3.13,4.07,4.07,0,0,1-1.37.82,4.26,4.26,0,0,1-1.58.22A3.85,3.85,0,0,1,81.06,62a7.34,7.34,0,0,1-.7-3.19,44.86,44.86,0,0,1-4.69-1.64" transform="translate(-18.11)"/>
  <path class="cls-8" d="M73.64,55.3a5.85,5.85,0,0,1,2.24,3" transform="translate(-18.11)"/>
  <path class="cls-11" d="M79.4,46.24a3.76,3.76,0,0,1,1.18,1.44,3.89,3.89,0,0,1,.34,1.84,5.71,5.71,0,0,1-1.43,3.42,12.41,12.41,0,0,1-2.9,2.41" transform="translate(-18.11)"/>
  <path class="cls-9" d="M84.73,79.75s.58,2.63-5.06,1.83-11.51-4.93-11.51-4.93L67,77.33l-1.62,3.44S48.67,91.64,46.06,96.87s-.53,41.73-.18,49.12c0,1.16.09,2.27.13,3.35.38,11.27,5.37,21.91,16.62,22.61,17.18,1.08,41.88-8.84,41.88-8.84a80,80,0,0,1-5-24.29c-.8-14.29,5.92-29.83,4.44-39.52-1.9-12.41-2.85-14.51-8.28-16.72s-7.39,0-8.6-.21a1.93,1.93,0,0,1-.9-.43,2,2,0,0,1-.55-.83C85.22,80.11,84.93,79.73,84.73,79.75Z" transform="translate(-18.11)"/>
  <path class="cls-12" d="M99.66,183.8l52.07-10.41,20-34.6a1.35,1.35,0,0,0,.16-.71,1.28,1.28,0,0,0-.25-.68,1.26,1.26,0,0,0-.57-.45,1.29,1.29,0,0,0-.73-.06l-46.63,9.32a5.81,5.81,0,0,0-2.28,1,6,6,0,0,0-1.67,1.84L116,155.56Z" transform="translate(-18.11)"/>
  <path class="cls-12" d="M99.66,183.8l-28.3-14.12a.89.89,0,0,1-.4-.39,1,1,0,0,1-.11-.55.92.92,0,0,1,.23-.51,1,1,0,0,1,.48-.29L118,156.61l33.78,16.77Z" transform="translate(-18.11)"/>
  <path class="cls-4" d="M138.07,163c-.94-.46-1-2.17-.24-3.82s2.23-2.61,3.17-2.15,1.05,2.17.24,3.82S139,163.48,138.07,163Z" transform="translate(-18.11)"/>
  <path class="cls-9" d="M112.53,64.19c.55-6.57,2.6-25.62,2.8-30.64,0-1.48,8.34-2.09,12-2.56a1.84,1.84,0,0,1,2,1.43c2.55,12,4.75,29.25,1.94,37.16C127,81.72,101.2,105.66,101,105.14a20.18,20.18,0,0,0-3.18-5.21,30.84,30.84,0,0,1-3-3.25c-.92-1.48-.92-2.9-2.28-4.25s-3-2.32-4.44-3.64a12,12,0,0,1-3.31-5.46.91.91,0,0,1-.1-.33.75.75,0,0,1,.06-.33.79.79,0,0,1,.18-.29.88.88,0,0,1,.29-.18c2.24-1.27,5-1.18,7.48-1.83,3.7-1,6.76-3.52,9.6-6.09,2.22-2,4.39-4.07,6.6-6.08C109.86,67.32,112.42,65.7,112.53,64.19Z" transform="translate(-18.11)"/>
  <path class="cls-9" d="M46.06,96.87s-14.55,34.25-11.73,44S76.92,164.7,76.92,164.7l12.56-4.61L61,136.24s3.34-25.64-1.28-32.56S46.06,96.87,46.06,96.87Z" transform="translate(-18.11)"/>
  <path class="cls-7" d="M93,56a5.73,5.73,0,0,0,1-.15c.3-.08.6-.15.86-.23l.71-.19c.2-.06.28-.18.62,0h.07l.1,0,.09,0,.08-.06a.22.22,0,0,0,0-.08v-.06a.78.78,0,0,0-.06-.37.75.75,0,0,0-.21-.32,1.31,1.31,0,0,0-.68-.35,2.22,2.22,0,0,0-1.22.13,3.46,3.46,0,0,0-.94.52,3.06,3.06,0,0,0-.72.8.28.28,0,0,0,0,.13.22.22,0,0,0,0,.13.26.26,0,0,0,.09.09.2.2,0,0,0,.13,0Z" transform="translate(-18.11)"/>
  <path class="cls-5" d="M116.35,23.65a18.86,18.86,0,0,1-1.48-4c-.36-2.13.36-4.34-.09-6.46s-1.85-3.72-2.11-5.76c.66-.52,1.62,0,2.26.52a14.54,14.54,0,0,1,3.26,3.94c-.2-.35,4.65-5.08,5.15-5.58,1.91-1.93,3.88-3.82,5.88-5.65a1.56,1.56,0,0,1,1-.52,1.07,1.07,0,0,1,.69.44,1.05,1.05,0,0,1,.18.79,3.09,3.09,0,0,1-.78,1.47L133,.52A1.56,1.56,0,0,1,134,0a1.07,1.07,0,0,1,.69.39,1.11,1.11,0,0,1,.23.76,3,3,0,0,1-.6,1.5c.47-.37,1.22.07,1.37.65a2.57,2.57,0,0,1-.4,1.71c-.39.73-.82,1.44-1.28,2.13a3.4,3.4,0,0,0-.38.67A3.93,3.93,0,0,0,133.42,9c-.2,3.2-2.4,5.87-4.49,8.29-1.32,1.53-2.73,3.31-2.55,5.33s.2,3.81.43,5.75a52.67,52.67,0,0,1,.75,6.18c.12,1-5.28,1.7-6,1.67-1.35,0-4.11.3-4.22-1.06C117.21,32.89,117.21,25.78,116.35,23.65Z" transform="translate(-18.11)"/>
  <path class="cls-8" d="M133.35,8.38c-.09-2.2-2,1.75-2.18,2.08-.62,1.19-2,1.85-2.55,3.08" transform="translate(-18.11)"/>
  <path class="cls-8" d="M134.12,2.85c-1.19,1.35-2,3-3.17,4.34a13.5,13.5,0,0,0-2.28,2.74" transform="translate(-18.11)"/>
  <path class="cls-8" d="M130.84,2.29,126.29,8" transform="translate(-18.11)"/>
  <path class="cls-8" d="M125,13.61a8.86,8.86,0,0,0-5.27,2.29" transform="translate(-18.11)"/>
  <path class="cls-8" d="M118.54,13.53l-.11-1.74" transform="translate(-18.11)"/>
  <path class="cls-6" d="M98.67,162.07c.76.63,1.44,1.35,2.2,2s2.85,1.41,3.12,2.6a.82.82,0,0,1,0,.27.75.75,0,0,1-.09.25.78.78,0,0,1-.37.22c-1.43.46-3-.26-4.25-1s-2.73-1.44-4-2.31c-.76-.53-1.5-1.08-2.24-1.65-.26-.2-1.66-1.56-1.92-1.49a8.76,8.76,0,0,1,6,.19A7.09,7.09,0,0,1,98.67,162.07Z" transform="translate(-18.11)"/>
  <path class="cls-5" d="M92,160.39c1.89.12,3.86.15,5.38,1.36a8.46,8.46,0,0,1,1.74,2.12q2.15,3.25,4.26,6.53c.24.38.52.87.27,1.26-.12.22-.39.35-.48.59-.2.46.42,1.88-.75,1.5a.86.86,0,0,0-.23-.06c-.21,0-.31.24-.45.39a1,1,0,0,1-.41.21.9.9,0,0,1-.46,0,2.44,2.44,0,0,1-.83-.43c-1-.67-1.89-1.51-2.9-2.08-.27.4-.41,1-1,1a2.28,2.28,0,0,1-1.4-.81,19.15,19.15,0,0,1-1.6-1.65A4,4,0,0,0,92,169.2a3.49,3.49,0,0,0-1-.29,35.38,35.38,0,0,1-4.48-.7,6.13,6.13,0,0,1-2.76-2.47s-6.93-1.92-9.1-3.12a3.75,3.75,0,0,1-1.1-.83c-1.63-2,.57-5.18,2.38-6.14,2.88-1.53,4.92,0,7.24,1.52a18.81,18.81,0,0,0,7.18,3.08C90.91,160.31,91.45,160.35,92,160.39Z" transform="translate(-18.11)"/>
  <path class="cls-8" d="M96.82,171.57c-.72-1-1.24-1.94-1.89-3a3.82,3.82,0,0,0-.7-.85c-.59-.47-1.44-.6-1.94-1.18" transform="translate(-18.11)"/>
  <path class="cls-8" d="M103.16,172.62c-1.57-2.84-3.69-5.47-5.21-7.78" transform="translate(-18.11)"/>
  <path class="cls-8" d="M101.49,173.76c-.77-2-3.24-4.94-4.56-6.59" transform="translate(-18.11)"/>
  <path class="cls-11" d="M118,152.26l-17.8,29.87-28.63-14.2" transform="translate(-18.11)"/>
  <path class="cls-13" d="M147.27,109.29l3.54,1.15,2.54-6.79" transform="translate(-18.11)"/>
  <path class="cls-13" d="M119,134.18l2.66,2.59,5.3-5" transform="translate(-18.11)"/>
  <path class="cls-14" d="M124.38,180.2c2.72,11,1.54,20.43-4.25,26.21-13.22,13.22-45.48,2.42-72-24.13s-37.37-58.82-24.14-72" transform="translate(-18.11)"/>
  <path class="cls-14" d="M92.35,182.21c4.65,8.1,11.84,20.91,15.91,29.31" transform="translate(-18.11)"/>
  <path class="cls-3" d="M36.07,76a7.36,7.36,0,1,1,7.36-7.36A7.36,7.36,0,0,1,36.07,76Z" transform="translate(-18.11)"/>
</svg>
