<svg xmlns="http://www.w3.org/2000/svg" width="64" height="64" viewBox="0 0 64 64">
  <title>features-extra-reverse-proxy</title>
  <g id="8071739b-0bbe-4f89-b0e8-9495720fdaf5" data-name="figures and interactions">
    <g>
      <polygon points="30.97 28.47 25.33 28.47 22.51 33.36 25.33 38.24 30.97 38.24 33.8 33.36 30.97 28.47" style="fill: none;stroke: #2cd4d9;stroke-linecap: round;stroke-linejoin: round;stroke-width: 3px"/>
      <line x1="14.14" y1="33.36" x2="22.51" y2="33.36" style="fill: none;stroke: #2cd4d9;stroke-linecap: round;stroke-linejoin: round;stroke-width: 3px"/>
      <g>
        <line x1="45.34" y1="33.36" x2="43.84" y2="33.36" style="fill: none;stroke: #2cd4d9;stroke-linecap: round;stroke-linejoin: round;stroke-width: 3px"/>
        <line x1="40.56" y1="33.36" x2="36.94" y2="33.36" style="fill: none;stroke: #2cd4d9;stroke-linecap: round;stroke-linejoin: round;stroke-width: 3px;stroke-dasharray: 1.9723279476165771,3.287213087081909"/>
        <line x1="35.3" y1="33.36" x2="33.8" y2="33.36" style="fill: none;stroke: #2cd4d9;stroke-linecap: round;stroke-linejoin: round;stroke-width: 3px"/>
      </g>
      <g>
        <line x1="30.97" y1="28.47" x2="32.03" y2="27.41" style="fill: none;stroke: #2cd4d9;stroke-linecap: round;stroke-linejoin: round;stroke-width: 3px"/>
        <polyline points="35.84 23.61 37.27 22.18 41.16 22.18" style="fill: none;stroke: #2cd4d9;stroke-linecap: round;stroke-linejoin: round;stroke-width: 3px;stroke-dasharray: 3.2250618934631348,5.375102996826172"/>
        <line x1="43.84" y1="22.18" x2="45.34" y2="22.18" style="fill: none;stroke: #2cd4d9;stroke-linecap: round;stroke-linejoin: round;stroke-width: 3px"/>
      </g>
      <g>
        <line x1="30.97" y1="38.24" x2="32.03" y2="39.3" style="fill: none;stroke: #2cd4d9;stroke-linecap: round;stroke-linejoin: round;stroke-width: 3px"/>
        <polyline points="35.76 43.03 36.56 43.83 41.21 43.83" style="fill: none;stroke: #2cd4d9;stroke-linecap: round;stroke-linejoin: round;stroke-width: 3px;stroke-dasharray: 3.157874584197998,5.263123989105225"/>
        <line x1="43.84" y1="43.83" x2="45.34" y2="43.83" style="fill: none;stroke: #2cd4d9;stroke-linecap: round;stroke-linejoin: round;stroke-width: 3px"/>
      </g>
      <polygon points="54.21 40.59 50.47 40.59 48.6 43.83 50.47 47.08 54.21 47.08 56.09 43.83 54.21 40.59" style="fill: none;stroke: #5333ed;stroke-linecap: round;stroke-linejoin: round;stroke-width: 3px"/>
      <polygon points="54.21 30.11 50.47 30.11 48.6 33.36 50.47 36.6 54.21 36.6 56.09 33.36 54.21 30.11" style="fill: none;stroke: #5333ed;stroke-linecap: round;stroke-linejoin: round;stroke-width: 3px"/>
      <polygon points="54.21 18.93 50.47 18.93 48.6 22.18 50.47 25.42 54.21 25.42 56.09 22.18 54.21 18.93" style="fill: none;stroke: #5333ed;stroke-linecap: round;stroke-linejoin: round;stroke-width: 3px"/>
      <polygon points="12.3 30.11 8.56 30.11 6.69 33.36 8.56 36.6 12.3 36.6 14.17 33.36 12.3 30.11" style="fill: none;stroke: #5333ed;stroke-linecap: round;stroke-linejoin: round;stroke-width: 3px"/>
    </g>
  </g>
</svg>
