<?xml version="1.0" encoding="UTF-8"?>
<svg width="128px" height="128px" viewBox="0 0 128 128" version="1.1" xmlns="http://www.w3.org/2000/svg" xmlns:xlink="http://www.w3.org/1999/xlink">
    <!-- Generator: Sketch 58 (84663) - https://sketch.com -->
    <title>Custom Preset</title>
    <desc>Created with Sketch.</desc>
    <g id="Custom-Preset" stroke="none" stroke-width="1" fill="none" fill-rule="evenodd">
        <g id="features-google-cloud-platform-v2" transform="translate(8.000000, 19.000000)" fill-rule="nonzero">
            <path d="M70.863281,25.085938 L74.238281,25.085938 L83.859375,15.464844 L84.332031,11.378906 C76.433594,4.410156 66.253906,0.558594 55.71875,0.558594 C36.257812,0.558594 19.082031,13.695312 13.988281,32.476562 C15.058594,32.039062 16.246094,31.96875 17.363281,32.273438 L36.601562,29.101562 C36.601562,29.101562 37.582031,27.480469 38.089844,27.582031 C46.597656,18.238281 61.105469,17.132812 70.933594,25.085938 L70.863281,25.085938 Z" id="Path" fill="#EA4335"></path>
            <path d="M97.5625,32.476562 C95.351562,24.335938 90.8125,17.011719 84.5,11.414062 L71,24.914062 C76.695312,29.570312 79.949219,36.597656 79.808594,43.953125 L79.808594,46.351562 C86.402344,46.351562 91.824219,51.773438 91.824219,58.367188 C91.824219,64.960938 86.402344,70.382812 79.808594,70.382812 L55.777344,70.382812 L53.378906,72.8125 L53.378906,87.226562 L55.777344,89.625 L79.808594,89.625 C79.890625,89.625 79.972656,89.625 80.054688,89.625 C97.199219,89.625 111.308594,75.515625 111.308594,58.367188 C111.308594,48 106.152344,38.285156 97.5625,32.476562 Z" id="Path" fill="#4285F4"></path>
            <path d="M31.710938,89.488281 L55.742188,89.488281 L55.742188,70.25 L31.710938,70.25 C29.996094,70.246094 28.304688,69.878906 26.746094,69.167969 L23.371094,70.214844 L13.683594,79.835938 L12.839844,83.210938 C18.273438,87.3125 24.902344,89.519531 31.710938,89.488281 Z" id="Path" fill="#34A853"></path>
            <path d="M31.710938,27.0740164 C14.632812,27.179688 0.640625,41.257812 0.640625,58.332031 C0.640625,68.03125 5.152344,77.195312 12.839844,83.109375 L26.78125,69.167969 C22.484375,67.226562 19.710938,62.929688 19.710938,58.21875 C19.710938,51.625 25.136719,46.199219 31.726562,46.199219 C36.441406,46.199219 40.738281,48.972656 42.679688,53.269531 L56.621094,39.328125 C50.691406,31.582031 41.464844,27.039062 31.710938,27.0740164 Z" id="Path" fill="#FBBC05"></path>
        </g>
    </g>
</svg>