<svg xmlns="http://www.w3.org/2000/svg" id="Layer_1" viewBox="0 0 240 173.7">
  <style>
    .st2{fill:#d8dcdc}.st3{fill:none;stroke:#d8dcdc;stroke-width:.6;stroke-linecap:round;stroke-linejoin:round;stroke-miterlimit:10}.st4{fill:#f2f2f2}.st5{fill:#fff;stroke:#f2f2f2;stroke-width:.6;stroke-linecap:round;stroke-linejoin:round;stroke-miterlimit:10}.st6{fill:#e2e6e7}.st7{fill:#bdbebd}.st8{fill:none;stroke:#aaa;stroke-width:.6;stroke-linecap:round;stroke-linejoin:round;stroke-miterlimit:10}.st9{fill:#8599ce}.st13{fill:#33bdb1}.st14,.st15{fill:none;stroke:#fff;stroke-width:.6;stroke-linecap:round;stroke-linejoin:round;stroke-miterlimit:10}.st15{stroke:#686968}
  </style>
  <path fill="#f6f6f6" d="M22 149.5c-3.2 1.7-7.4 1.6-10.1-1.1-1.4-1.4-2.3-3.3-3-5.3-3.9-11.6.3-38.2 16.1-30.6 14.7 7.1 8.9 30.9-3 37z"/>
  <path fill="none" stroke="#d8dcdc" stroke-linecap="round" stroke-linejoin="round" stroke-miterlimit="10" stroke-width=".6" d="M146.6 129.5v43.6m80.3-43.6v43.6M148 122.9l-1.4-46.6 77-1.3v47.9" opacity=".7"/>
  <path d="M59.2 65.3l-9.8-.4c-.8 0-1.4.6-1.4 1.3 0 .8.6 1.4 1.4 1.3l9.8-.3" class="st2"/>
  <path d="M63.4 64c.5-.4.8-1 .8-1.7 0-1.2-1-2.2-2.2-2.2s-2.2 1-2.2 2.2c0 .6.2 1.1.6 1.5l-1.1-.1v4.9l5.5.3V64h-1.4z" class="st3"/>
  <path d="M80.5 173.4L64.3 73.1H71l16.2 100.3m-18.5 0L47.9 71.9l-3.6 14.2 17.6 87.3" class="st4"/>
  <path d="M20.6 173.4L40.8 73.1h6.8L27.4 173.4m201-43.9h-83.3l-.3-6.6h83.4zm-43 11.4l-35.6.5.8-9.7h34.8zm38.2.5l-34.8-.4-.2-9.3 34.8.3zM39 173.4L59.2 73.1H66L45.8 173.4" class="st4"/>
  <circle cx="153.7" cy="82.7" r="1" class="st2"/>
  <circle cx="164.1" cy="82.7" r="1" class="st2"/>
  <circle cx="173.6" cy="83.7" r="1" class="st2"/>
  <circle cx="184.9" cy="82.7" r="1" class="st2"/>
  <circle cx="195.4" cy="83.3" r="1" class="st2"/>
  <circle cx="205.8" cy="82.7" r="1" class="st2"/>
  <circle cx="216.2" cy="83" r="1" class="st2"/>
  <circle cx="154.6" cy="93.2" r="1" class="st2"/>
  <circle cx="164.1" cy="93.2" r="1" class="st2"/>
  <circle cx="174.5" cy="93.2" r="1" class="st2"/>
  <circle cx="184.9" cy="93.2" r="1" class="st2"/>
  <circle cx="194.4" cy="93.9" r="1" class="st2"/>
  <circle cx="205.8" cy="93.2" r="1" class="st2"/>
  <circle cx="216.2" cy="93.2" r="1" class="st2"/>
  <circle cx="153.7" cy="103.6" r="1" class="st2"/>
  <circle cx="164.1" cy="103.6" r="1" class="st2"/>
  <circle cx="174.5" cy="103.6" r="1" class="st2"/>
  <circle cx="185.9" cy="104" r="1" class="st2"/>
  <circle cx="195.4" cy="103.6" r="1" class="st2"/>
  <circle cx="206.1" cy="103.1" r="1" class="st2"/>
  <circle cx="215.8" cy="103.6" r="1" class="st2"/>
  <circle cx="154.6" cy="115" r="1" class="st2"/>
  <circle cx="164.1" cy="114" r="1" class="st2"/>
  <circle cx="174.5" cy="114" r="1" class="st2"/>
  <circle cx="184.9" cy="114" r="1" class="st2"/>
  <circle cx="195.4" cy="115" r="1" class="st2"/>
  <circle cx="205.8" cy="114" r="1" class="st2"/>
  <circle cx="216.2" cy="114" r="1" class="st2"/>
  <path d="M184.6 171.5l-32.9-.8v-26l33.3-.7zm37.8-.7l-32.3-.1v-27l32.8.3z" class="st4"/>
  <path d="M165.1 136.6h5.3m32.7 0h5.4M181.3 150v5.3m12.7-7.8l.3 6.7" class="st3"/>
  <path d="M57.4 83.4H43.8l.5-3.3h13.5zm-5 23.8l-13.1-.7.6-3.3 13 .8zm-2.2 10.9l-13.2.1.5-3.3h13.2z" class="st5"/>
  <path d="M78.8 135.2H53.1c-.7 0-1.2-.7-1.1-1.3.1-.5.6-.8 1.1-.8h25.7c.6 0 1 .4 1.1 1 0 .5-.5 1.1-1.1 1.1z" class="st4"/>
  <path d="M45.6 141.6l-12.9-.4.5-3.3 12.9.4zm-2.3 11.8l-13-.6.6-3.2 12.9.5zm-2.3 11l-13-.1.5-3.2h13zm13.9-69.2l-13.1-.1.5-3.3 13 .2zm-7 34.2l-12.8-.3.5-3.3 13 .2z" class="st5"/>
  <path d="M72.8 74.1H39.3l.2-6.4 33.3.6z" class="st4"/>
  <path d="M60.3 63.8h.7" class="st3"/>
  <path d="M224.5 173.5h4.6l1.7-3-1.7-3.1h-4.6l-1.8 3.1z" class="st2"/>
  <path d="M220.3 169.1h5.7c.8 0 1.4.6 1.4 1.4 0 .8-.6 1.4-1.4 1.4h-5.7v-2.8z" class="st4"/>
  <circle cx="220.3" cy="170.5" r="1.4" class="st2"/>
  <path d="M.3 173.4h239.4" class="st3"/>
  <path d="M160.3 162.8l-85.4-1.2 6.7-13.7h72.8z" class="st2"/>
  <path d="M167.2 163l-99.6-1.5v11.9h99.6z" class="st6"/>
  <path d="M75 173.1l.7-7.7c-7.4-1-17.1-1.6-25.6.5l.7 7.2H75z" class="st7"/>
  <path d="M73.3 165.3c-7-.7-15.4-1.1-23 .8l.5 5.6" class="st8"/>
  <path d="M43.2 167.4h-4.5l-1.8 3.1 1.8 3h4.5l1.8-3z" class="st2"/>
  <path d="M47.5 171.9h-5.7c-.8 0-1.4-.6-1.4-1.4 0-.8.6-1.4 1.4-1.4h5.7v2.8z" class="st4"/>
  <circle cx="47.5" cy="170.5" r="1.4" class="st2"/>
  <path d="M144.6 45.1c-.4 1.7.4 3.4 1.3 4.7.9 1.4 1.9 2.8 1.9 4.5m.7-9.9c1.4 4.2.1 9 .4 13.5" class="st8"/>
  <path d="M142.3 45.2c.3 1.5.7 3.1 1.4 4.4.7 1.3 2 2.3 3.3 2.2 1.3-.2.1-3.3.6-4.7.5-1.5.6-3.1.7-4.7m-1.6 3.9c-.5 3.2-1.2 6.5-1.4 9.8" class="st8"/>
  <path d="M122.9 75.9l-7.3.9.3-47.7h6.7z" class="st9"/>
  <path d="M106.8 66.2L91.6 35.4h55l-14.2 30.3z" class="st6"/>
  <circle cx="88.6" cy="103.4" r="7.5" class="st6"/>
  <path d="M95.3 42.2l-6.1 32.5-5.8-1.2 4.4-34.1zm1.4 55.2c1.8 0 3.3 1.5 3.3 3.3 0 1.8-1.5 3.3-3.3 3.3" class="st6"/>
  <path d="M80.3 68.4s-5 23.7-.1 38.3c0 0 9.1 2.9 18.3-3.2 0 0-1-17.2-4.9-25.8-2-4.4-5.9-7.6-10.6-8.7l-2.7-.6z" class="st7"/>
  <path d="M79.4 78.4l5.6.7.2 9.6-7.2.9m6.2-22.9l5.6 2.6M85 62.2l6 1.8m-4.9-6.5l5.9 1.9m-4.8-7.7l5.7 2.3M88 47.5l6 1.4" class="st8"/>
  <circle cx="93.2" cy="38.8" r="5.5" class="st7"/>
  <circle cx="146.2" cy="38.6" r="5.5" class="st7"/>
  <path d="M111.5 81.4l-1.2 37.7-7.4.5-1.2-40.1z" class="st6"/>
  <circle cx="106.6" cy="80.3" r="6" class="st7"/>
  <path d="M99.6 114.3c-1.6 6.7-5.8 20.9-3.9 33.6h15.5c2.9 0 5.2-2.4 5.1-5.3-.2-5.8-.9-15.2-2.9-21-1.9-5.7-6.5-8.3-9.6-9.4-1.6-.6-3.8.4-4.2 2.1z" class="st7"/>
  <path d="M102.2 91.1l8.4-.4m-8.2 5.4l7.6.4m-7.1 5.3l7.6-.2m-7.7 5l7.6.4m-.2 5.5l-4.6.3m-2.7 34.6l2.2-23.5-7.2-1.5" class="st8"/>
  <circle cx="107.7" cy="129" r="1" class="st6"/>
  <path d="M126.7 81.4l1.2 37.7 7.4.5 1.2-40.1z" class="st6"/>
  <circle cx="131.6" cy="80.3" r="6.5" class="st7"/>
  <path d="M138.6 114.3c1.6 6.7 5.8 20.9 3.9 33.6H127c-2.9 0-5.2-2.4-5.1-5.3.2-5.8.9-15.2 2.9-21 1.9-5.7 6.5-8.3 9.6-9.4 1.6-.6 3.8.4 4.2 2.1z" class="st7"/>
  <path d="M135.9 91.1l-8.3-.4m8.2 5.4l-7.6.4m7.1 5.3l-7.7-.2m7.8 5l-7.6.4m.2 5.5l4.5.3m2.8 34.6l-2.2-23.5 7.2-1.5" class="st8"/>
  <circle cx="130.5" cy="129" r="1" class="st6"/>
  <path d="M104 67.7l-.2 14.4h31.4l.4-14.4z" class="st6"/>
  <path fill="#fff" d="M135.5 40h-19c-.6 0-1.1-.5-1.1-1.1 0-.6.5-1.1 1.1-1.1h19c.6 0 1.1.5 1.1 1.1 0 .6-.5 1.1-1.1 1.1z"/>
  <circle cx="104.7" cy="38.9" r="1.1" fill="#e8665b"/>
  <circle cx="108" cy="38.9" r="1.1" fill="#f8de70"/>
  <circle cx="111.2" cy="38.9" r="1.1" class="st13"/>
  <path d="M105.9 54.1h13.3m-11.3 2.7l9.6-.2" class="st14"/>
  <path d="M112 53.3v1.8h.7l.1-1.9zm3.8 2.5v1.7l-.7.2-.1-1.9z" class="st7"/>
  <path d="M115 60.1l-7.1.1" class="st14"/>
  <path d="M109.6 61.1v-1.8l.7-.1.1 1.8z" class="st7"/>
  <path d="M103.9 70.8l8.4-.4.2 8.3h-8.7m31.5-.4H127l-.3-7.5 8.8-.4m-30.4-20.9h17.1c.4 0 .7-.3.7-.7v-4.5c0-.4-.3-.7-.7-.7h-17.1c-.4 0-.7.3-.7.7v4.5c-.1.3.3.7.7.7z" class="st13"/>
  <path d="M112.6 44.5l2.1 3.9m-3.8-2.9l-1.8 1 1.8 1m5.4 0l1.7-1-1.7-1" class="st14"/>
  <path d="M87.7 146.6v1.3h12.8l-4.4-7.8-7.1 4.1c-.8.5-1.3 1.4-1.3 2.4zm62.9 0v1.3h-12.8l4.4-7.8 7.1 4.1c.8.5 1.3 1.4 1.3 2.4z" class="st6"/>
  <path d="M118.1 1.8l.3 6.5" class="st15"/>
  <circle cx="118.1" cy="1.8" r="1.8" class="st13"/>
  <path d="M133.6 33.7l-29-.1V19.1c0-5.5 6.5-12 14.5-12s14.5 6.5 14.5 14.5v12.1z" class="st6"/>
  <path d="M113.4 21.8v.9c0 .7-.6 1.3-1.3 1.3-.7 0-1.3-.6-1.3-1.3v-.9m17 0v.9c0 .7-.6 1.3-1.3 1.3-.7 0-1.3-.6-1.3-1.3v-.9" class="st15"/>
  <path d="M119.1 7.2c-1.7 0-3.3.3-4.8.8l1 8.8h7l.7-9.1c-1.3-.3-2.6-.5-3.9-.5z" class="st13"/>
  <path d="M125.2 29.4h-5.4c-.3 0-.6-.3-.6-.6s.3-.6.6-.6h5.4c.3 0 .6.3.6.6s-.3.6-.6.6z" class="st7"/>
  <path d="M128.1 55.1c-1-1-2.6-.9-3.5.2-.8.9-.6 2.3.2 3.2l2.6 2.6c.4.4 1 .4 1.3 0l2.6-2.6c.9-.9 1-2.3.2-3.2-.8-1.1-2.4-1.2-3.4-.2z" class="st9"/>
  <circle cx="128.3" cy="46.7" r="1" class="st7"/>
  <circle cx="132.1" cy="46.7" r="1" class="st7"/>
  <circle cx="135.7" cy="46.7" r="1" class="st7"/>
  <path d="M209.8 103.9c-.1-1.8 1.3-3.3 3.2-3.4 1.8-.1 3.3 1.3 3.4 3.2" class="st6"/>
  <circle cx="216.2" cy="111.8" r="7.5" class="st6"/>
  <path d="M154.7 107.9l32.8 4.6-.9 5.8-34.3-2.9z" class="st6"/>
  <path d="M181.6 121.6s23.9 3.9 38.2-1.6c0 0 2.4-9.2-4-18.1 0 0-17.1 1.8-25.6 6-4.3 2.2-7.4 6.3-8.2 11l-.4 2.7z" class="st7"/>
  <path d="M191.6 122.1l.5-5.7 9.6-.6 1.2 7.2m-23.1-5.2l2.3-5.7m-6.9 5.1l1.6-6m-6.3 5.2l1.6-6m-7.7 5.9l2.2-6.6m-6.4 6.2l1.3-7" class="st8"/>
</svg>
