<svg xmlns="http://www.w3.org/2000/svg" width="1109.44" height="157.23" viewBox="0 0 1109.44 157.23">
  <title>newsletter-bg</title>
  <g id="b473400f-f8f3-4fc9-b707-643aea8e253c" data-name="figures and interactions">
    <rect x="0.52" width="1108.92" height="157.23" style="fill: #f1f7ff"/>
    <g style="opacity: 0.3">
      <g>
        <rect x="0.02" y="133.93" width="1109" height="0.88" style="fill: #efefef"/>
        <rect x="0.02" y="133.93" width="1109" height="0.88" style="fill: #8e8e8e"/>
        <g>
          <path d="M1,124.34l1.75.38a27.48,27.48,0,0,1,1.75,4.82l1.75.57A26.09,26.09,0,0,1,8,126.56c.7-.43,1-.63,1.75-1,.7.54,1,.83,1.75,1.46l1.75-.62c.7.43,1,.66,1.75,1.15a25.86,25.86,0,0,1,1.75,2.83l1.75.51a37.7,37.7,0,0,1,1.75-7.55c.7-.9,1-1.28,1.75-2A25.42,25.42,0,0,1,23.7,124l1.75.64c.7-.32,1-.47,1.75-.76a27.65,27.65,0,0,1,1.75,5.25l1.75.78a27.11,27.11,0,0,1,1.75-4.32l1.75-.33c.7.45,1,.68,1.75,1.19l1.75-.09c.7.47,1,.73,1.75,1.26a26.88,26.88,0,0,1,1.75,3.12c.7.46,1,.7,1.75,1.2.7-1,1-1.45,1.75-2.29a24.29,24.29,0,0,1,1.75-2.55,20.86,20.86,0,0,1,1.75-2,21.5,21.5,0,0,1,1.75,1.8c.7.56,1,.86,1.75,1.5s1,1.06,1.75,1.86c.7.33,1,.5,1.75.85a28.73,28.73,0,0,1,1.75-3.66,20.78,20.78,0,0,1,1.75-2.17h1.75l1.75-.4c.7.36,1,.54,1.75.94a23,23,0,0,1,1.75,3.14l1.75.13a23.41,23.41,0,0,1,1.75-3.26l1.75-.41,1.75,0,1.75,0,1.75-.48a20.22,20.22,0,0,1,1.75,2.44h1.75a20.13,20.13,0,0,1,1.75-2.78l1.75-.37,1.75.29,1.75.1,1.75.64a20.65,20.65,0,0,1,1.75,2.33l1.75.13a21.09,21.09,0,0,1,1.75-3.3l1.75-.4,1.75.34,1.75.12,1.75.16a20.69,20.69,0,0,1,1.75,3l1.75.56a23.56,23.56,0,0,1,1.75-4.18l1.75-.11c.7.42,1,.64,1.75,1.12.7-.47,1-.69,1.75-1.1l1.75.53a20.49,20.49,0,0,1,1.75,3l1.75.61a23.3,23.3,0,0,1,1.75-4.15c.7-.34,1-.5,1.75-.81.7.36,1,.55,1.75,1,.7-.28,1-.42,1.75-.68.7.4,1,.62,1.75,1.07a21.41,21.41,0,0,1,1.75,3.36l1.75.23a28.22,28.22,0,0,1,1.75-5.77c.7.46,1,.7,1.75,1.22.7.32,1,.48,1.75.83l1.75-.24,1.75.25a20.8,20.8,0,0,1,1.75,3.19l1.75.38a21.13,21.13,0,0,1,1.75-3c.7-.32,1-.47,1.75-.76l1.75-.3,1.75.08c.7.31,1,.48,1.75.82a20.45,20.45,0,0,1,1.75,2.85l1.75.56a22.07,22.07,0,0,1,1.75-3.49l1.75-.33c.7-.63,1-.91,1.75-1.44l1.75.62,1.75.27a20.52,20.52,0,0,1,1.75,3.34c.7.39,1,.59,1.75,1a23.31,23.31,0,0,1,1.75-4.13l1.75-.28,1.75.13,1.75.34,1.75,0a21.4,21.4,0,0,1,1.75,3.48l1.75-.32a20.36,20.36,0,0,1,1.75-3c.7-.51,1-.75,1.75-1.19l1.75.18,1.75-.41,1.75-.17a21.13,21.13,0,0,1,1.75,3.69c.7.52,1,.79,1.75,1.38a22.24,22.24,0,0,1,1.75-3.84l1.75-.32,1.75.27,1.75,0,1.75.56a21.48,21.48,0,0,1,1.75,3.37l1.75.59a23.66,23.66,0,0,1,1.68-3.81,22.23,22.23,0,0,1,1.75-1.58l1.75-.44L209,122c.7.4,1,.6,1.75,1a22.87,22.87,0,0,1,1.75,4.27c.7.34,1,.52,1.75.89a23.23,23.23,0,0,1,1.75-4c.7-.5,1-.73,1.75-1.17l1.75-.43,1.75,0,1.75-.27a20.11,20.11,0,0,1,1.75,2.74c.7.36,1,.55,1.75.95a22,22,0,0,1,1.75-3.83L230,122l1.75.5,1.75-.76a23.34,23.34,0,0,1,1.75,2.2,20,20,0,0,1,1.75,3c.7.5,1,.76,1.75,1.33a23.76,23.76,0,0,1,1.75-4.21,22.23,22.23,0,0,1,1.75-2l1.75.45h1.75c.7.37,1,.57,1.75,1a23.11,23.11,0,0,1,1.75,4.22c.7.29,1,.44,1.75.75a24.27,24.27,0,0,1,1.75-4.28,21.6,21.6,0,0,1,1.75-2c.7-.38,1-.56,1.75-.91l1.75.79,1.75.28a23.17,23.17,0,0,1,1.75,4.36c.7.55,1,.84,1.75,1.47a21.57,21.57,0,0,1,1.75-2.92,20,20,0,0,1,1.75-2.91l1.75.21,1.75-.15,1.75.3a22.68,22.68,0,0,1,1.75,4.23c.7.39,1,.6,1.75,1a24.45,24.45,0,0,1,1.75-4.62L279,123l1.75.32c.7-.47,1-.68,1.75-1.1.7.37,1,.56,1.75,1a19.81,19.81,0,0,1,1.75,3c.7.61,1,.94,1.75,1.66a23.88,23.88,0,0,1,1.75-4.28l1.75-.32c.7-.71,1-1,1.75-1.66l1.75.49,1.75-.56a24.85,24.85,0,0,1,1.75,3.82c.7.57,1,.87,1.75,1.54a24.88,24.88,0,0,1,1.75-4.4l1.75-.21,1.75,0,1.75.18,1.75-.49a27.1,27.1,0,0,1,1.75,4.81l1.75.67a22.38,22.38,0,0,1,1.75-3c.7-.69,1-1,1.75-1.59.7-2.29,1-2.93,1.75-5.52a32.27,32.27,0,0,0,1.75,3.16c.7.56,1,.84,1.75,1.42a25.1,25.1,0,0,1,1.75,3.74l1.75.69a25.1,25.1,0,0,1,1.75-3.72c.7-.49,1-.72,1.75-1.19l1.75.38,1.75.48c.7.36,1,.54,1.75.92a24.27,24.27,0,0,1,1.75,3.6c.7.34,1,.52,1.75.9a37.27,37.27,0,0,1,1.75-6.19c.7-.87,1-1.28,1.75-2.16.7.78,1,1.15,1.75,1.93l1.75.78,1.75-1a34.07,34.07,0,0,1,1.75,5c.7.6,1,.92,1.75,1.61a32.51,32.51,0,0,1,1.75-5l1.75-.48,1.75-.23,1.75-.39,1.75.69a31.81,31.81,0,0,1,1.75,4.77c.7.31,1,.47,1.75.8a37.22,37.22,0,0,1,1.75-5.55c.7-1.42,1-2,1.75-3.35l1.75.86,1.75.54c.7.43,1,.65,1.75,1.1a36.46,36.46,0,0,1,1.75,5.13l1.75.68a35.51,35.51,0,0,1,1.75-4.77c.7-1,1-1.43,1.75-2.34l1.75.37,1.75-.25,1.75.2a43.19,43.19,0,0,1,1.75,5.35c.7.34,1,.51,1.75.87a45.51,45.51,0,0,1,1.75-5.75l1.75-.46,1.75-1.29,1.75.73c.7.56,1,.84,1.75,1.42a35.21,35.21,0,0,1,1.75,3.88c.7.54,1,.83,1.75,1.44a54.39,54.39,0,0,1,1.75-6.41c.7-.92,1-1.36,1.75-2.29l1.75.43,1.75-.72c.7.83,1,1.23,1.75,2.06a50.38,50.38,0,0,1,1.75,4.82c.7.5,1,.76,1.75,1.32a58.88,58.88,0,0,1,1.75-6.1l1.75-1.28,1.75-.52,1.75.69,1.75.79c.7,1.88,1,2.78,1.75,5.22l1.75,0c.7-2.45,1-3.37,1.75-5.28l1.75-1.06,1.75,0,1.75-.54,1.75.61c.7,2.24,1,3.25,1.75,6.15l1.75.29c.7-2.38,1-3.31,1.75-5.17.7-1,1-1.49,1.75-2.51l1.75,1.07,1.75-.21c.7.71,1,1.06,1.75,1.79.7,1.72,1,2.59,1.75,4.76.7.5,1,.76,1.75,1.3.7-2.63,1-3.64,1.75-5.64l1.75-1.19,1.75-1,1.75-.55c.7-1.07,1-1.61,1.75-2.76.7,3.32,1,4.48,1.75,8.14.7.59,1,.9,1.75,1.55.7-3.15,1-4.28,1.75-6.79.7-1.55,1-2.3,1.75-4l1.75,1.07,1.75.11c.7,1.18,1,1.73,1.75,2.86.7,2.39,1,3.49,1.75,6.48l1.75.2c.7-2.78,1-3.85,1.75-6.08.7-1.13,1-1.68,1.75-2.85l1.75.65,1.75-1c.7,1.05,1,1.55,1.75,2.58.7,2.27,1,3.35,1.75,6.14l1.75.75c.7-2.2,1-3.12,1.75-4.93.7-1.11,1-1.64,1.75-2.72s1-1.48,1.75-2.52l1.75-.81c.7,1.2,1,1.76,1.75,2.89.7,2.35,1,3.42,1.75,6.13.7.47,1,.72,1.75,1.22.7-3.48,1-4.74,1.75-7.62.7-1.16,1-1.73,1.75-3l1.75.65,1.75.44,1.75,0c.7,2.88,1,4.07,1.75,7.15.7.58,1,.88,1.75,1.51.7-3.56,1-4.85,1.75-8,.7-.73,1-1.1,1.75-1.87l1.75,1.32,1.75.72,1.75,1.28c.7,2.39,1,3.5,1.75,6.28l1.75.5c.7-3.37,1-4.64,1.75-7.52.7-1.19,1-1.79,1.75-3.07l1.75.69,1.75.08c.7.77,1,1.14,1.75,1.88.7,2.77,1,4,1.75,7.15l1.75,1c.7-3,1-4.15,1.75-6.66.7-1.74,1-2.59,1.75-4.47.7-3.13,1-4.78,1.75-9.38.7.51,1,.76,1.75,1.24.7,3.39,1,4.73,1.75,7.23.7,4,1,5.43,1.75,9.31.7.84,1,1.27,1.75,2.18.7-6.7,1-8.09,1.75-15.7l1.75.32c.7,1.24,1,1.82,1.75,2.92l1.75-.42c.7,1,1,1.53,1.75,2.48.7,2.72,1,3.87,1.75,6.48.7.54,1,.82,1.75,1.38.7-3.93,1-5.42,1.75-9.62l1.75,0c.7,1.08,1,1.58,1.75,2.58.7-.71,1-1.07,1.75-1.81l1.75.17c.7,2.38,1,3.42,1.75,5.62.7,1.12,1,1.69,1.75,2.87.7-3.56,1-5,1.75-8.72l1.75-1,1.75.81,1.75.82c.7,1.13,1,1.68,1.75,2.76.7,2.65,1,3.87,1.75,6.76l1.75-.3c.73-4.44,1.09-6.1,1.82-10.66l1.75-.18c.7.89,1,1.32,1.75,2.17.7-1,1-1.5,1.75-2.56.7,2.58,1,3.71,1.75,6.06.7,2.15,1,3.19,1.75,5.54l1.75,1c.7-5,1-6.74,1.75-11.52l1.75-.37c.7-.69,1-1,1.75-1.76l1.75-.6c.7,1.73,1,2.52,1.75,4.1.7,3.14,1,4.53,1.75,7.76l1.75.88c.7-4.64,1-6.46,1.75-11.17.7-1.94,1-3,1.75-5.21.7,1.23,1,1.81,1.75,2.94.7-1.65,1-2.52,1.75-4.41l1.75-1.28c.7,7.08,1,9.31,1.75,14.72.7,1.05,1,1.59,1.75,2.68.7-5.25,1-7.34,1.75-13.25.7-1.45,1-2.2,1.75-3.81l1.75-.4c.7,1.33,1,2,1.75,3.17.7,2.14,1,3.12,1.75,5,.7,3.31,1,4.8,1.75,8.07.7.65,1,1,1.75,1.65.7-5.31,1-7.46,1.75-13.13,1.1-6.43,1.65-10,2.75-20.89.7-2.5,1-3.81,1.75-6.48.46,10,.91,19.94,1.75,29.89l1.75.72c.3,1.66.45,2.47.75,4.09.7,1.17,1,1.76,1.75,3,.7-6.65,1-9.37,1.75-17.82.7-1.17,1-1.77,1.75-3s1-2,1.75-3.41c.7-4.3,1-7,1.75-12.41.7,4.68,1,6.9,1.75,10.88.7,12.73,1,15.43,1.75,23.69.7,1,1,1.57,1.75,2.64.7-7.28,1-10.21,1.75-19.14.7-2.9,1-4.34,1.75-7.92.7-1.45,1-2.2,1.75-3.73L662.18,85c.7,1.25,1,1.86,1.75,3,.5,9.72,1.06,19.43,1.75,29.15.7,1.2,1,1.82,1.75,3.07.7-5,1-7.22,1.75-12.18.7-1,1-1.46,1.75-2.46l1.75,1.82,1.75-1.62,1.75.3c.7,3.61,1,5.29,1.75,8.82.7,2.3,1,3.45,1.75,5.89.7-1.82,1-2.7,1.75-4.47l1.75-2.74c.7-2.28,1-3.42,1.75-5.76.7-.91,1-1.36,1.75-2.29l1.75,2.3c.7,2.46,1,3.66,1.75,6.12.7,1,1,1.54,1.75,2.58l1.75-.92c.7-4.9,1-7.21,1.75-12.33.7-2.3,1-3.48,1.75-6,.7-1.19,1-1.8,1.75-3.05l1.75.92c.7,6.41,1,9.14,1.75,14.8l1.75,1.78c.7-6.39,1-9.44,1.75-16.72.7-4.17,1-6.42,1.75-11.21.7,1.08,1,1.6,1.75,2.65l1.75.38,1.75.3c.7,9.1,1,12.72,1.75,20.2l1.75-1.32c.7-9.16,1-13.93,1.75-25.6.7-2.47,1-3.75,1.75-6.35.7,1.79,1,2.67,1.75,4.38.7,1.12,1,1.67,1.75,2.75.7-3.37,1-5.14,1.75-8.74q.76,14,1.75,28.07h1.75q1-14.52,1.75-29.06l1.75-3.68c.7,3.51,1,5.23,1.75,8.53l1.75-2c.7,4.78,1,7,1.75,11.44.7,8.46,1,12.1,1.75,19.48l1.75,1.94c.65-10.33,1.2-20.66,1.75-31,.7-3.08,1-4.67,1.75-7.88l1.75.19L747.89,70c.7,1.71,1,2.55,1.75,4.2q.81,14,1.75,28l1.75,3.1c.64-11.15,1.19-22.31,1.75-33.47.7-1.66,1-2.5,1.75-4.18l1.75,2.71,1.75.8c.7,1.5,1,2.24,1.75,3.7q.82,15.24,1.75,30.48l1.75,1.47c.7-9.58,1-14.28,1.75-25,.7-1.78,1-2.58,1.75-4.3l1.75,1.47,1.75-1.7c.7,2.75,1,4.15,1.75,7,.7,9.13,1,13.28,1.75,21.77l1.75.52c.7-8.8,1-13.15,1.75-22.65.7-3.1,1-4.64,1.75-7.68.7-2.25,1-3.39,1.75-5.7l1.75.33,1.75-.57c.58,10.41,1.14,20.82,1.75,31.22l1.75,2.14q.91-15,1.75-30c.7-7.9,1-12,1.75-20.26.7-4.29,1-6.45,1.75-10.71l1.75,8.58,1.75,5.24q.86,20.65,1.75,41.31l1.75,2.24q.9-16.17,1.75-32.35l1.75-5.49,1.75-.48,1.75,1.8,1.75,4.37q.89,15.3,1.75,30.6l1.75,3q.88-16.69,1.75-33.38c.7-3.5,1-5.27,1.75-8.79L819.61,62l1.75-3.42L823.11,64q.88,16.14,1.75,32.28l1.75,3.1q.88-18.05,1.75-36.1l1.75-12.12,1.75,3.58,1.75,4.76,1.75,7.49,1.75,29.57,1.75,4.84,1.68-36.14,1.75-6.1,1.75.35,1.75,6,1.75,6.93,1.75,21.9L851,99.89l1.75-29.62,1.75-24.56,1.75,3.06L858,40.87,859.77,59l1.75,35.63,1.75,2L865,61l1.75-13,1.75,2.7,1.75,1L872,58.66l1.75,36.58,1.75,2.42,1.75-41L879,45.8l1.75,1.32,1.75-.54,1.75,7.64L886,93.55,887.76,97l1.75-39.45,1.75-6.42L893,56.42l1.75-2.78,1.75,10,1.75,31.14L900,96.37l1.75-32.65,1.75,2.81,1.75-20.59L907,47.57l1.75,2.4,1.75,42.13,1.75,2.64L914,55.3l1.75-12,1.75,2,1.75,2.45,1.75,1.6,1.75,40.89,1.75,3.3,1.75-44.18L928,38.19l1.75,5.6,1.75-1.23,1.75,10L935,90.49l1.75,2.9,1.75-41.49,1.75-12.22L942,38.58l1.75,5.26L945.49,49l1.75,38.22,1.75,4.5,1.75-36.07L952.48,43l1.75-4.93L956,48l1.75-2,1.75,29.49,1.75,9.2L963,43.17l1.75-4.1,1.75,2,1.75-.3L970,52.11l1.75,36.63,1.75,3.94,1.75-44.12L977,36.92l1.75,3.68,1.75,3,1.75,7.27L984,92.57l1.75,1.49,1.75-42.9,1.75-8.56,1.75-.2,1.75,5,1.75,9.66,1.75,32.87,1.75,3.3,1.75-42.33,1.75-8.66,1.75,5.93,1.75.42,1.75,8.15,1.75,34.92,1.75,1.65L1012,51.18l1.75-14,1.75,17.19,1.75-6.26,1.75,7.53,1.75,34.87,1.75,2.4,1.75-44.15,1.75-4.93,1.75,1.75,1.75-.34,1.75,8.11L1033,86.76l1.75,6.2,1.75-43.12,1.75-7.73,1.75-3.07,1.75,4.61,1.75,9.39,1.75,34.82,1.75.14,1.75-47.34,1.75-20.26,1.75,6.67,1.75,2,1.75,11.88L1057.44,85l1.75,2.9,1.75-53.1,1.75-6.64,1.75,6.72,1.75-.31,1.75-1.22,1.75,45.37,1.75,3.64,1.75-49.55,1.75-7,1.75,2.07,1.75,2.62L1080.18,42l1.75,37.36,1.75,3.45,1.75-45.18,1.75-6.79,1.75,8.33,1.75-9.37,1.75,14.58,1.75,36.86,1.75,3.76,1.75-46.38,1.75-5.1,1.75,3.77,1.75-.43,1.75,5.06,1.75,37.33,1.75,3.82" style="fill: none;stroke: #058dc7;stroke-width: 1.9360798376905222px"/>
          <path d="M1,136.31H1v-12l1.75.38a27.48,27.48,0,0,1,1.75,4.82l1.75.57A26.09,26.09,0,0,1,8,126.56c.7-.43,1-.63,1.75-1,.7.54,1,.83,1.75,1.46l1.75-.62c.7.43,1,.66,1.75,1.15a25.86,25.86,0,0,1,1.75,2.83l1.75.51a37.7,37.7,0,0,1,1.75-7.55c.7-.9,1-1.28,1.75-2A25.42,25.42,0,0,1,23.7,124l1.75.64c.7-.32,1-.47,1.75-.76a27.65,27.65,0,0,1,1.75,5.25l1.75.78a27.11,27.11,0,0,1,1.75-4.32l1.75-.33c.7.45,1,.68,1.75,1.19l1.75-.09c.7.47,1,.73,1.75,1.26a26.88,26.88,0,0,1,1.75,3.12c.7.46,1,.7,1.75,1.2.7-1,1-1.45,1.75-2.29a24.29,24.29,0,0,1,1.75-2.55,20.86,20.86,0,0,1,1.75-2,21.5,21.5,0,0,1,1.75,1.8c.7.56,1,.86,1.75,1.5s1,1.06,1.75,1.86c.7.33,1,.5,1.75.85a28.73,28.73,0,0,1,1.75-3.66,20.78,20.78,0,0,1,1.75-2.17h1.75l1.75-.4c.7.36,1,.54,1.75.94a23,23,0,0,1,1.75,3.14l1.75.13a23.41,23.41,0,0,1,1.75-3.26l1.75-.41,1.75,0,1.75,0,1.75-.48a20.22,20.22,0,0,1,1.75,2.44h1.75a20.13,20.13,0,0,1,1.75-2.78l1.75-.37,1.75.29,1.75.1,1.75.64a20.65,20.65,0,0,1,1.75,2.33l1.75.13a21.09,21.09,0,0,1,1.75-3.3l1.75-.4,1.75.34,1.75.12,1.75.16a20.69,20.69,0,0,1,1.75,3l1.75.56a23.56,23.56,0,0,1,1.75-4.18l1.75-.11c.7.42,1,.64,1.75,1.12.7-.47,1-.69,1.75-1.1l1.75.53a20.49,20.49,0,0,1,1.75,3l1.75.61a23.3,23.3,0,0,1,1.75-4.15c.7-.34,1-.5,1.75-.81.7.36,1,.55,1.75,1,.7-.28,1-.42,1.75-.68.7.4,1,.62,1.75,1.07a21.41,21.41,0,0,1,1.75,3.36l1.75.23a28.22,28.22,0,0,1,1.75-5.77c.7.46,1,.7,1.75,1.22.7.32,1,.48,1.75.83l1.75-.24,1.75.25a20.8,20.8,0,0,1,1.75,3.19l1.75.38a21.13,21.13,0,0,1,1.75-3c.7-.32,1-.47,1.75-.76l1.75-.3,1.75.08c.7.31,1,.48,1.75.82a20.45,20.45,0,0,1,1.75,2.85l1.75.56a22.07,22.07,0,0,1,1.75-3.49l1.75-.33c.7-.63,1-.91,1.75-1.44l1.75.62,1.75.27a20.52,20.52,0,0,1,1.75,3.34c.7.39,1,.59,1.75,1a23.31,23.31,0,0,1,1.75-4.13l1.75-.28,1.75.13,1.75.34,1.75,0a21.4,21.4,0,0,1,1.75,3.48l1.75-.32a20.36,20.36,0,0,1,1.75-3c.7-.51,1-.75,1.75-1.19l1.75.18,1.75-.41,1.75-.17a21.13,21.13,0,0,1,1.75,3.69c.7.52,1,.79,1.75,1.38a22.24,22.24,0,0,1,1.75-3.84l1.75-.32,1.75.27,1.75,0,1.75.56a21.48,21.48,0,0,1,1.75,3.37l1.75.59a23.66,23.66,0,0,1,1.68-3.81,22.23,22.23,0,0,1,1.75-1.58l1.75-.44L209,122c.7.4,1,.6,1.75,1a22.87,22.87,0,0,1,1.75,4.27c.7.34,1,.52,1.75.89a23.23,23.23,0,0,1,1.75-4c.7-.5,1-.73,1.75-1.17l1.75-.43,1.75,0,1.75-.27a20.11,20.11,0,0,1,1.75,2.74c.7.36,1,.55,1.75.95a22,22,0,0,1,1.75-3.83L230,122l1.75.5,1.75-.76a23.34,23.34,0,0,1,1.75,2.2,20,20,0,0,1,1.75,3c.7.5,1,.76,1.75,1.33a23.76,23.76,0,0,1,1.75-4.21,22.23,22.23,0,0,1,1.75-2l1.75.45h1.75c.7.37,1,.57,1.75,1a23.11,23.11,0,0,1,1.75,4.22c.7.29,1,.44,1.75.75a24.27,24.27,0,0,1,1.75-4.28,21.6,21.6,0,0,1,1.75-2c.7-.38,1-.56,1.75-.91l1.75.79,1.75.28a23.17,23.17,0,0,1,1.75,4.36c.7.55,1,.84,1.75,1.47a21.57,21.57,0,0,1,1.75-2.92,20,20,0,0,1,1.75-2.91l1.75.21,1.75-.15,1.75.3a22.68,22.68,0,0,1,1.75,4.23c.7.39,1,.6,1.75,1a24.45,24.45,0,0,1,1.75-4.62L279,123l1.75.32c.7-.47,1-.68,1.75-1.1.7.37,1,.56,1.75,1a19.81,19.81,0,0,1,1.75,3c.7.61,1,.94,1.75,1.66a23.88,23.88,0,0,1,1.75-4.28l1.75-.32c.7-.71,1-1,1.75-1.66l1.75.49,1.75-.56a24.85,24.85,0,0,1,1.75,3.82c.7.57,1,.87,1.75,1.54a24.88,24.88,0,0,1,1.75-4.4l1.75-.21,1.75,0,1.75.18,1.75-.49a27.1,27.1,0,0,1,1.75,4.81l1.75.67a22.38,22.38,0,0,1,1.75-3c.7-.69,1-1,1.75-1.59.7-2.29,1-2.93,1.75-5.52a32.27,32.27,0,0,0,1.75,3.16c.7.56,1,.84,1.75,1.42a25.1,25.1,0,0,1,1.75,3.74l1.75.69a25.1,25.1,0,0,1,1.75-3.72c.7-.49,1-.72,1.75-1.19l1.75.38,1.75.48c.7.36,1,.54,1.75.92a24.27,24.27,0,0,1,1.75,3.6c.7.34,1,.52,1.75.9a37.27,37.27,0,0,1,1.75-6.19c.7-.87,1-1.28,1.75-2.16.7.78,1,1.15,1.75,1.93l1.75.78,1.75-1a34.07,34.07,0,0,1,1.75,5c.7.6,1,.92,1.75,1.61a32.51,32.51,0,0,1,1.75-5l1.75-.48,1.75-.23,1.75-.39,1.75.69a31.81,31.81,0,0,1,1.75,4.77c.7.31,1,.47,1.75.8a37.22,37.22,0,0,1,1.75-5.55c.7-1.42,1-2,1.75-3.35l1.75.86,1.75.54c.7.43,1,.65,1.75,1.1a36.46,36.46,0,0,1,1.75,5.13l1.75.68a35.51,35.51,0,0,1,1.75-4.77c.7-1,1-1.43,1.75-2.34l1.75.37,1.75-.25,1.75.2a43.19,43.19,0,0,1,1.75,5.35c.7.34,1,.51,1.75.87a45.51,45.51,0,0,1,1.75-5.75l1.75-.46,1.75-1.29,1.75.73c.7.56,1,.84,1.75,1.42a35.21,35.21,0,0,1,1.75,3.88c.7.54,1,.83,1.75,1.44a54.39,54.39,0,0,1,1.75-6.41c.7-.92,1-1.36,1.75-2.29l1.75.43,1.75-.72c.7.83,1,1.23,1.75,2.06a50.38,50.38,0,0,1,1.75,4.82c.7.5,1,.76,1.75,1.32a58.88,58.88,0,0,1,1.75-6.1l1.75-1.28,1.75-.52,1.75.69,1.75.79c.7,1.88,1,2.78,1.75,5.22l1.75,0c.7-2.45,1-3.37,1.75-5.28l1.75-1.06,1.75,0,1.75-.54,1.75.61c.7,2.24,1,3.25,1.75,6.15l1.75.29c.7-2.38,1-3.31,1.75-5.17.7-1,1-1.49,1.75-2.51l1.75,1.07,1.75-.21c.7.71,1,1.06,1.75,1.79.7,1.72,1,2.59,1.75,4.76.7.5,1,.76,1.75,1.3.7-2.63,1-3.64,1.75-5.64l1.75-1.19,1.75-1,1.75-.55c.7-1.07,1-1.61,1.75-2.76.7,3.32,1,4.48,1.75,8.14.7.59,1,.9,1.75,1.55.7-3.15,1-4.28,1.75-6.79.7-1.55,1-2.3,1.75-4l1.75,1.07,1.75.11c.7,1.18,1,1.73,1.75,2.86.7,2.39,1,3.49,1.75,6.48l1.75.2c.7-2.78,1-3.85,1.75-6.08.7-1.13,1-1.68,1.75-2.85l1.75.65,1.75-1c.7,1.05,1,1.55,1.75,2.58.7,2.27,1,3.35,1.75,6.14l1.75.75c.7-2.2,1-3.12,1.75-4.93.7-1.11,1-1.64,1.75-2.72s1-1.48,1.75-2.52l1.75-.81c.7,1.2,1,1.76,1.75,2.89.7,2.35,1,3.42,1.75,6.13.7.47,1,.72,1.75,1.22.7-3.48,1-4.74,1.75-7.62.7-1.16,1-1.73,1.75-3l1.75.65,1.75.44,1.75,0c.7,2.88,1,4.07,1.75,7.15.7.58,1,.88,1.75,1.51.7-3.56,1-4.85,1.75-8,.7-.73,1-1.1,1.75-1.87l1.75,1.32,1.75.72,1.75,1.28c.7,2.39,1,3.5,1.75,6.28l1.75.5c.7-3.37,1-4.64,1.75-7.52.7-1.19,1-1.79,1.75-3.07l1.75.69,1.75.08c.7.77,1,1.14,1.75,1.88.7,2.77,1,4,1.75,7.15l1.75,1c.7-3,1-4.15,1.75-6.66.7-1.74,1-2.59,1.75-4.47.7-3.13,1-4.78,1.75-9.38.7.51,1,.76,1.75,1.24.7,3.39,1,4.73,1.75,7.23.7,4,1,5.43,1.75,9.31.7.84,1,1.27,1.75,2.18.7-6.7,1-8.09,1.75-15.7l1.75.32c.7,1.24,1,1.82,1.75,2.92l1.75-.42c.7,1,1,1.53,1.75,2.48.7,2.72,1,3.87,1.75,6.48.7.54,1,.82,1.75,1.38.7-3.93,1-5.42,1.75-9.62l1.75,0c.7,1.08,1,1.58,1.75,2.58.7-.71,1-1.07,1.75-1.81l1.75.17c.7,2.38,1,3.42,1.75,5.62.7,1.12,1,1.69,1.75,2.87.7-3.56,1-5,1.75-8.72l1.75-1,1.75.81,1.75.82c.7,1.13,1,1.68,1.75,2.76.7,2.65,1,3.87,1.75,6.76l1.75-.3c.73-4.44,1.09-6.1,1.82-10.66l1.75-.18c.7.89,1,1.32,1.75,2.17.7-1,1-1.5,1.75-2.56.7,2.58,1,3.71,1.75,6.06.7,2.15,1,3.19,1.75,5.54l1.75,1c.7-5,1-6.74,1.75-11.52l1.75-.37c.7-.69,1-1,1.75-1.76l1.75-.6c.7,1.73,1,2.52,1.75,4.1.7,3.14,1,4.53,1.75,7.76l1.75.88c.7-4.64,1-6.46,1.75-11.17.7-1.94,1-3,1.75-5.21.7,1.23,1,1.81,1.75,2.94.7-1.65,1-2.52,1.75-4.41l1.75-1.28c.7,7.08,1,9.31,1.75,14.72.7,1.05,1,1.59,1.75,2.68.7-5.25,1-7.34,1.75-13.25.7-1.45,1-2.2,1.75-3.81l1.75-.4c.7,1.33,1,2,1.75,3.17.7,2.14,1,3.12,1.75,5,.7,3.31,1,4.8,1.75,8.07.7.65,1,1,1.75,1.65.7-5.31,1-7.46,1.75-13.13,1.1-6.43,1.65-10,2.75-20.89.7-2.5,1-3.81,1.75-6.48.46,10,.91,19.94,1.75,29.89l1.75.72c.3,1.66.45,2.47.75,4.09.7,1.17,1,1.76,1.75,3,.7-6.65,1-9.37,1.75-17.82.7-1.17,1-1.77,1.75-3s1-2,1.75-3.41c.7-4.3,1-7,1.75-12.41.7,4.68,1,6.9,1.75,10.88.7,12.73,1,15.43,1.75,23.69.7,1,1,1.57,1.75,2.64.7-7.28,1-10.21,1.75-19.14.7-2.9,1-4.34,1.75-7.92.7-1.45,1-2.2,1.75-3.73L662.18,85c.7,1.25,1,1.86,1.75,3,.5,9.72,1.06,19.43,1.75,29.15.7,1.2,1,1.82,1.75,3.07.7-5,1-7.22,1.75-12.18.7-1,1-1.46,1.75-2.46l1.75,1.82,1.75-1.62,1.75.3c.7,3.61,1,5.29,1.75,8.82.7,2.3,1,3.45,1.75,5.89.7-1.82,1-2.7,1.75-4.47l1.75-2.74c.7-2.28,1-3.42,1.75-5.76.7-.91,1-1.36,1.75-2.29l1.75,2.3c.7,2.46,1,3.66,1.75,6.12.7,1,1,1.54,1.75,2.58l1.75-.92c.7-4.9,1-7.21,1.75-12.33.7-2.3,1-3.48,1.75-6,.7-1.19,1-1.8,1.75-3.05l1.75.92c.7,6.41,1,9.14,1.75,14.8l1.75,1.78c.7-6.39,1-9.44,1.75-16.72.7-4.17,1-6.42,1.75-11.21.7,1.08,1,1.6,1.75,2.65l1.75.38,1.75.3c.7,9.1,1,12.72,1.75,20.2l1.75-1.32c.7-9.16,1-13.93,1.75-25.6.7-2.47,1-3.75,1.75-6.35.7,1.79,1,2.67,1.75,4.38.7,1.12,1,1.67,1.75,2.75.7-3.37,1-5.14,1.75-8.74q.76,14,1.75,28.07h1.75q1-14.52,1.75-29.06l1.75-3.68c.7,3.51,1,5.23,1.75,8.53l1.75-2c.7,4.78,1,7,1.75,11.44.7,8.46,1,12.1,1.75,19.48l1.75,1.94c.65-10.33,1.2-20.66,1.75-31,.7-3.08,1-4.67,1.75-7.88l1.75.19L747.89,70c.7,1.71,1,2.55,1.75,4.2q.81,14,1.75,28l1.75,3.1c.64-11.15,1.19-22.31,1.75-33.47.7-1.66,1-2.5,1.75-4.18l1.75,2.71,1.75.8c.7,1.5,1,2.24,1.75,3.7q.82,15.24,1.75,30.48l1.75,1.47c.7-9.58,1-14.28,1.75-25,.7-1.78,1-2.58,1.75-4.3l1.75,1.47,1.75-1.7c.7,2.75,1,4.15,1.75,7,.7,9.13,1,13.28,1.75,21.77l1.75.52c.7-8.8,1-13.15,1.75-22.65.7-3.1,1-4.64,1.75-7.68.7-2.25,1-3.39,1.75-5.7l1.75.33,1.75-.57c.58,10.41,1.14,20.82,1.75,31.22l1.75,2.14q.91-15,1.75-30c.7-7.9,1-12,1.75-20.26.7-4.29,1-6.45,1.75-10.71l1.75,8.58,1.75,5.24q.86,20.65,1.75,41.31l1.75,2.24q.9-16.17,1.75-32.35l1.75-5.49,1.75-.48,1.75,1.8,1.75,4.37q.89,15.3,1.75,30.6l1.75,3q.88-16.69,1.75-33.38c.7-3.5,1-5.27,1.75-8.79L819.61,62l1.75-3.42L823.11,64q.88,16.14,1.75,32.28l1.75,3.1q.88-18.05,1.75-36.1l1.75-12.12,1.75,3.58,1.75,4.76,1.75,7.49,1.75,29.57,1.75,4.84,1.68-36.14,1.75-6.1,1.75.35,1.75,6,1.75,6.93,1.75,21.9L851,99.89l1.75-29.62,1.75-24.56,1.75,3.06L858,40.87,859.77,59l1.75,35.63,1.75,2L865,61l1.75-13,1.75,2.7,1.75,1L872,58.66l1.75,36.58,1.75,2.42,1.75-41L879,45.8l1.75,1.32,1.75-.54,1.75,7.64L886,93.55,887.76,97l1.75-39.45,1.75-6.42L893,56.42l1.75-2.78,1.75,10,1.75,31.14L900,96.37l1.75-32.65,1.75,2.81,1.75-20.59L907,47.57l1.75,2.4,1.75,42.13,1.75,2.64L914,55.3l1.75-12,1.75,2,1.75,2.45,1.75,1.6,1.75,40.89,1.75,3.3,1.75-44.18L928,38.19l1.75,5.6,1.75-1.23,1.75,10L935,90.49l1.75,2.9,1.75-41.49,1.75-12.22L942,38.58l1.75,5.26L945.49,49l1.75,38.22,1.75,4.5,1.75-36.07L952.48,43l1.75-4.93L956,48l1.75-2,1.75,29.49,1.75,9.2L963,43.17l1.75-4.1,1.75,2,1.75-.3L970,52.11l1.75,36.63,1.75,3.94,1.75-44.12L977,36.92l1.75,3.68,1.75,3,1.75,7.27L984,92.57l1.75,1.49,1.75-42.9,1.75-8.56,1.75-.2,1.75,5,1.75,9.66,1.75,32.87,1.75,3.3,1.75-42.33,1.75-8.66,1.75,5.93,1.75.42,1.75,8.15,1.75,34.92,1.75,1.65L1012,51.18l1.75-14,1.75,17.19,1.75-6.26,1.75,7.53,1.75,34.87,1.75,2.4,1.75-44.15,1.75-4.93,1.75,1.75,1.75-.34,1.75,8.11L1033,86.76l1.75,6.2,1.75-43.12,1.75-7.73,1.75-3.07,1.75,4.61,1.75,9.39,1.75,34.82,1.75.14,1.75-47.34,1.75-20.26,1.75,6.67,1.75,2,1.75,11.88L1057.44,85l1.75,2.9,1.75-53.1,1.75-6.64,1.75,6.72,1.75-.31,1.75-1.22,1.75,45.37,1.75,3.64,1.75-49.55,1.75-7,1.75,2.07,1.75,2.62L1080.18,42l1.75,37.36,1.75,3.45,1.75-45.18,1.75-6.79,1.75,8.33,1.75-9.37,1.75,14.58,1.75,36.86,1.75,3.76,1.75-46.38,1.75-5.1,1.75,3.77,1.75-.43,1.75,5.06,1.75,37.33,1.75,3.82v53.22H1Z" style="fill: #058dc7;opacity: 0.10000000149011612"/>
        </g>
      </g>
    </g>
    <g style="opacity: 0.15">
      <text transform="translate(21.45 148.66)" style="isolation: isolate;font-size: 11px;fill: #444;font-family: ArialMT, Arial">January 2017</text>
      <text transform="translate(187.49 148.66)" style="isolation: isolate;font-size: 11px;fill: #444;font-family: ArialMT, Arial">April 2017</text>
      <text transform="translate(348.01 148.66)" style="isolation: isolate;font-size: 11px;fill: #444;font-family: ArialMT, Arial">July 2017</text>
      <text transform="translate(499.27 148.66)" style="isolation: isolate;font-size: 11px;fill: #444;font-family: ArialMT, Arial">October 2017</text>
      <text transform="translate(660.39 148.66)" style="isolation: isolate;font-size: 11px;fill: #444;font-family: ArialMT, Arial">January 2018</text>
      <text transform="translate(826.43 148.66)" style="isolation: isolate;font-size: 11px;fill: #444;font-family: ArialMT, Arial">April 2018</text>
      <text transform="translate(986.94 148.66)" style="isolation: isolate;font-size: 11px;fill: #444;font-family: ArialMT, Arial">July 2018</text>
    </g>
  </g>
</svg>
