<?xml version="1.0" encoding="UTF-8" standalone="no"?>
<svg
   viewBox="0 0 500 500"
   version="1.1"
   id="svg474"
   sodipodi:docname="101.svg"
   inkscape:version="1.1.2 (0a00cf5339, 2022-02-04)"
   xmlns:inkscape="http://www.inkscape.org/namespaces/inkscape"
   xmlns:sodipodi="http://sodipodi.sourceforge.net/DTD/sodipodi-0.dtd"
   xmlns="http://www.w3.org/2000/svg"
   xmlns:svg="http://www.w3.org/2000/svg">
  <defs
     id="defs478" />
  <sodipodi:namedview
     id="namedview476"
     pagecolor="#ffffff"
     bordercolor="#666666"
     borderopacity="1.0"
     inkscape:pageshadow="2"
     inkscape:pageopacity="0.0"
     inkscape:pagecheckerboard="0"
     showgrid="false"
     inkscape:zoom="1.132"
     inkscape:cx="250"
     inkscape:cy="250.4417"
     inkscape:window-width="1478"
     inkscape:window-height="800"
     inkscape:window-x="0"
     inkscape:window-y="0"
     inkscape:window-maximized="1"
     inkscape:current-layer="svg474" />
  <g
     id="freepik--background-complete--inject-152">
    <rect
       x="118.33"
       y="128.29"
       width="57.76"
       height="91.08"
       transform="translate(-44.92 296.2) rotate(-82.23)"
       style="fill:#ebebeb"
       id="rect2" />
    <path
       d="M106,139.06c3.17,4,6.43,7.83,9.63,11.76s6.5,7.73,9.78,11.55c3.41,4,6.85,8,10.28,11.91.11.12.2.25.31.38q4.57,5.22,9.17,10.43l.45.5.56-.36q5.82-3.79,11.62-7.62a4.53,4.53,0,0,0,.4-.26q6.59-4.32,13.12-8.73c4.16-2.8,8.34-5.65,12.49-8.5s8.31-5.76,12.43-8.75c-4.28,2.46-8.52,5.07-12.77,7.61s-8.49,5.19-12.72,7.85q-7.06,4.39-14.12,8.93s0,0,0,0q-5.29,3.36-10.58,6.76c-2.77-3.12-5.56-6.26-8.36-9.35,0,0,0,0,0,0q-5.58-6.22-11.21-12.38-5.06-5.52-10.15-11C112.84,146.23,109.46,142.58,106,139.06Z"
       style="fill:#fff"
       id="path4" />
    <path
       d="M156.3,177.05a1.09,1.09,0,0,1,.1.11l1.26,1.4c2,2.22,4.07,4.36,6.18,6.46,2.58,2.58,5.23,5.09,7.9,7.58s5.39,4.89,8.18,7.25,5.6,4.7,8.54,6.88c-2.41-2.77-5-5.39-7.53-8s-5.24-5.09-7.89-7.57-5.41-4.91-8.19-7.28c-2.21-1.89-4.47-3.75-6.8-5.53q-.8-.63-1.62-1.23Z"
       style="fill:#fff"
       id="path6" />
    <path
       d="M98.65,194.49c3.43-1.32,6.78-2.81,10.08-4.34s6.57-3.17,9.83-4.81,6.47-3.38,9.64-5.18c2.59-1.46,5.15-3,7.66-4.56.55-.34,1.08-.68,1.61-1l.12-.08a.3.3,0,0,1-.15,0l-1.9.77c-2.71,1.09-5.37,2.29-8,3.51-3.31,1.54-6.57,3.16-9.82,4.82s-6.46,3.38-9.64,5.19S101.72,192.46,98.65,194.49Z"
       style="fill:#fff"
       id="path8" />
    <rect
       x="59.19"
       y="64.97"
       width="77"
       height="48.83"
       transform="translate(-18.99 26.78) rotate(-14.24)"
       style="fill:#ebebeb"
       id="rect10" />
    <path
       d="M54.36,75.19c3.75,2.12,7.52,4.1,11.28,6.16s7.54,4,11.32,6c3.94,2.06,7.89,4.07,11.84,6.08l.36.2,10.49,5.27.51.25.33-.46c2.24-3.21,4.46-6.43,6.69-9.65a4,4,0,0,0,.23-.34q3.8-5.46,7.52-11c2.38-3.51,4.75-7.07,7.1-10.62s4.69-7.15,7-10.79c-2.58,3.28-5.07,6.67-7.6,10s-5,6.76-7.48,10.18q-4.14,5.69-8.25,11.48s0,0,0,0q-3.07,4.31-6.15,8.65C96.35,95,93.17,93.45,90,91.91c0,0,0,0,0,0q-6.36-3.12-12.72-6.16c-3.8-1.81-7.61-3.61-11.42-5.37S58.2,76.85,54.36,75.19Z"
       style="fill:#fff"
       id="path12" />
    <path
       d="M105.84,89a.6.6,0,0,0,.11.06l1.43.7q3.41,1.65,6.89,3.1c2.84,1.22,5.71,2.34,8.59,3.44s5.78,2.13,8.71,3.1,5.88,1.91,8.88,2.69c-2.77-1.41-5.59-2.66-8.42-3.87s-5.73-2.33-8.6-3.43-5.79-2.14-8.72-3.11c-2.33-.78-4.69-1.53-7.08-2.19-.55-.16-1.1-.3-1.66-.45Z"
       style="fill:#fff"
       id="path14" />
    <path
       d="M66.17,121c2.27-2.11,4.42-4.34,6.52-6.6s4.16-4.56,6.19-6.87,4-4.71,5.91-7.12c1.57-2,3.11-4,4.57-6l.93-1.31s0-.07.07-.1l-.1.09c-.42.4-.84.79-1.25,1.2-1.78,1.71-3.49,3.49-5.18,5.3-2.11,2.25-4.15,4.56-6.17,6.88s-4,4.7-5.91,7.12S67.93,118.4,66.17,121Z"
       style="fill:#fff"
       id="path16" />
    <rect
       x="364.39"
       y="265.85"
       width="77"
       height="48.83"
       transform="translate(-31.06 48.89) rotate(-6.69)"
       style="fill:#ebebeb"
       id="rect18" />
    <path
       d="M361.81,270.5c3.44,2.59,6.92,5.05,10.37,7.6s6.95,4.95,10.44,7.39,7.29,5.07,10.94,7.58l.33.24q4.83,3.31,9.7,6.61l.48.31.38-.41q4-4.33,7.9-8.69a2.68,2.68,0,0,0,.28-.3q4.47-4.92,8.9-9.92c2.82-3.16,5.63-6.38,8.43-9.59s5.59-6.47,8.33-9.79c-3,2.92-5.9,6-8.85,8.93s-5.85,6-8.76,9.11q-4.85,5.08-9.67,10.29s0,0,0,0c-2.41,2.58-4.81,5.18-7.22,7.77-2.94-2-5.88-3.95-8.82-5.89,0,0,0,0,0,0q-5.88-3.93-11.8-7.78-5.28-3.45-10.61-6.82C368.93,274.93,365.39,272.65,361.81,270.5Z"
       style="fill:#fff"
       id="path20" />
    <path
       d="M411,291l.1.07c.44.3.89.6,1.33.88,2.11,1.4,4.25,2.72,6.43,4,2.65,1.57,5.35,3.06,8.06,4.54s5.45,2.86,8.23,4.21,5.57,2.67,8.44,3.83c-2.55-1.76-5.19-3.37-7.84-4.93s-5.37-3.07-8.07-4.54-5.46-2.88-8.23-4.23c-2.21-1.08-4.46-2.13-6.74-3.1q-.78-.34-1.59-.66Z"
       style="fill:#fff"
       id="path22" />
    <path
       d="M367.5,317.43c2.53-1.8,5-3.73,7.33-5.68s4.72-4,7-6,4.58-4.13,6.8-6.28c1.81-1.74,3.59-3.51,5.31-5.35l1.1-1.18a.73.73,0,0,0,.08-.09.34.34,0,0,1-.11.07l-1.39,1c-2,1.47-3.92,3-5.84,4.57-2.39,2-4.71,4-7,6s-4.58,4.13-6.8,6.28S369.58,315.12,367.5,317.43Z"
       style="fill:#fff"
       id="path24" />
    <path
       d="M378.13,159.62,365,159.9l-6.66.11c-2.23.05-4.47,0-6.7.06h-.44v-.45l-.06-11.19v-.5h.5l13.24.06c4.41,0,8.83.12,13.24.17h.28v.27c0,1.9-.08,3.79-.13,5.65Zm0,0L378,154c-.05-1.87-.11-3.71-.13-5.54l.27.27c-4.41.05-8.83.16-13.24.17l-13.24.06.5-.5,0,11.19-.45-.45c2.18,0,4.36,0,6.55.06l6.58.11Z"
       style="fill:#ebebeb"
       id="path26" />
    <path
       d="M363.36,173.73l-13.13.28-6.66.11c-2.22,0-4.46,0-6.69.06h-.44v-.45l-.05-11.19V162h.5l13.24.06c4.41,0,8.83.12,13.24.17h.28v.27c0,1.9-.08,3.79-.13,5.65Zm0,0-.14-5.65c-.05-1.87-.11-3.71-.13-5.54l.27.27c-4.41.05-8.83.16-13.24.17l-13.24.06.5-.5-.06,11.19-.44-.45c2.18,0,4.36,0,6.54.06l6.58.11Z"
       style="fill:#ebebeb"
       id="path28" />
    <path
       d="M392.9,173.73l-13.12.28-6.66.11c-2.23,0-4.47,0-6.7.06H366v-.45l-.06-11.19V162h.5l13.24.06c4.42,0,8.83.12,13.24.17h.28v.27c0,1.9-.09,3.79-.14,5.65Zm0,0-.14-5.65c0-1.87-.11-3.71-.13-5.54l.27.27c-4.41.05-8.82.16-13.24.17l-13.24.06.5-.5-.05,11.19-.45-.45c2.18,0,4.36,0,6.55.06l6.58.11Z"
       style="fill:#ebebeb"
       id="path30" />
    <path
       d="M443.35,58.29l-13.13.28-6.66.11c-2.23,0-4.46,0-6.69.06h-.45v-.45l-.05-11.19v-.5h.51l13.24.06c4.41,0,8.82.12,13.24.17h.27v.27c0,1.9-.09,3.79-.13,5.65Zm0,0-.15-5.65c0-1.87-.11-3.71-.13-5.54l.28.27c-4.42.05-8.83.16-13.24.17l-13.24.06.49-.5-.05,11.19-.44-.45c2.18,0,4.35,0,6.54.06L430,58Z"
       style="fill:#ebebeb"
       id="path32" />
    <path
       d="M458.12,72.4,445,72.68l-6.66.11c-2.22,0-4.46,0-6.69.06h-.45V72.4l-.05-11.19v-.5h.5l13.24.06c4.41,0,8.82.12,13.24.17h.27v.27c0,1.9-.09,3.79-.13,5.65Zm0,0L458,66.75c-.05-1.87-.12-3.71-.14-5.54l.28.27c-4.42.05-8.83.16-13.24.17l-13.24.06.5-.5-.06,11.19-.44-.45c2.18,0,4.35,0,6.54.06l6.58.11Z"
       style="fill:#ebebeb"
       id="path34" />
    <path
       d="M68.36,58.3l-13.12.28-6.66.11c-2.23.05-4.47,0-6.7.06h-.44V58.3l-.06-11.19v-.5h.5l13.24.07c4.42,0,8.83.11,13.24.16h.28v.27c0,1.9-.09,3.79-.14,5.66Zm0,0-.14-5.65c0-1.86-.11-3.71-.13-5.54l.27.28c-4.41,0-8.82.15-13.24.16l-13.24.06.5-.5L42.33,58.3l-.45-.44c2.18,0,4.36,0,6.55,0L55,58Z"
       style="fill:#ebebeb"
       id="path36" />
    <path
       d="M431.64,318.51l13.12-.28,6.66-.11c2.23-.05,4.47,0,6.7-.06h.44v.45l.06,11.19v.5h-.5l-13.24-.07c-4.42,0-8.83-.11-13.24-.16h-.28v-.27c0-1.9.09-3.79.13-5.66Zm0,0,.14,5.65c0,1.86.11,3.71.13,5.54l-.27-.28c4.41-.05,8.82-.15,13.24-.16l13.24-.06-.5.5.05-11.19.45.44c-2.18,0-4.36,0-6.55-.05l-6.58-.11Z"
       style="fill:#ebebeb"
       id="path38" />
    <path
       d="M41.88,318.51,55,318.23l6.66-.11c2.22-.05,4.46,0,6.69-.06h.45v.45l0,11.19v.5h-.5l-13.24-.07c-4.41,0-8.82-.11-13.24-.16h-.27v-.27c0-1.9.09-3.79.13-5.66Zm0,0,.14,5.65c0,1.86.12,3.71.14,5.54l-.28-.28c4.42-.05,8.83-.15,13.24-.16l13.24-.06-.5.5.06-11.19.44.44c-2.18,0-4.35,0-6.54-.05l-6.58-.11Z"
       style="fill:#ebebeb"
       id="path40" />
    <path
       d="M56.65,304.4l13.13-.28,6.66-.11c2.23-.05,4.46,0,6.69-.06h.45v.45l0,11.19v.5h-.51L69.89,316c-4.41,0-8.82-.11-13.24-.16h-.27v-.27c0-1.9.09-3.79.13-5.66Zm0,0,.15,5.65c0,1.86.11,3.71.13,5.54l-.28-.28c4.42-.05,8.83-.15,13.24-.16l13.24-.06-.49.5,0-11.19.44.44c-2.18,0-4.35,0-6.54,0L70,304.68Z"
       style="fill:#ebebeb"
       id="path42" />
    <rect
       x="323.78"
       y="128.12"
       width="136.25"
       height="8.09"
       transform="translate(783.8 264.33) rotate(180)"
       style="fill:#ebebeb"
       id="rect44" />
    <rect
       x="441.59"
       y="136.21"
       width="8.09"
       height="26.76"
       style="fill:#ebebeb"
       id="rect46" />
    <rect
       x="441.59"
       y="136.21"
       width="8.09"
       height="8.27"
       style="fill:#dbdbdb"
       id="rect48" />
    <rect
       x="334.11"
       y="136.21"
       width="8.09"
       height="26.76"
       style="fill:#ebebeb"
       id="rect50" />
    <rect
       x="334.11"
       y="136.21"
       width="8.09"
       height="8.27"
       style="fill:#dbdbdb"
       id="rect52" />
    <rect
       x="393.32"
       y="95.85"
       width="51.56"
       height="12.98"
       transform="translate(521.44 -316.76) rotate(90)"
       style="fill:#c7c7c7"
       id="rect54" />
    <rect
       x="416.27"
       y="70.14"
       width="5.67"
       height="12.98"
       transform="translate(495.74 -342.46) rotate(90)"
       style="fill:#dbdbdb"
       id="rect56" />
    <rect
       x="418.05"
       y="81.29"
       width="2.1"
       height="12.98"
       transform="translate(506.88 -331.32) rotate(90)"
       style="fill:#dbdbdb"
       id="rect58" />
    <rect
       x="415.46"
       y="111.22"
       width="5.67"
       height="14.6"
       transform="translate(536.82 -299.76) rotate(90)"
       style="fill:#dbdbdb"
       id="rect60" />
    <rect
       x="378"
       y="93.51"
       width="60.15"
       height="9.07"
       transform="translate(506.12 -310.02) rotate(90)"
       style="fill:#dbdbdb"
       id="rect62" />
    <rect
       x="396.54"
       y="82.47"
       width="23.13"
       height="5.45"
       transform="translate(493.31 -322.91) rotate(90)"
       style="fill:#ebebeb"
       id="rect64" />
    <rect
       x="333.48"
       y="99.23"
       width="60.15"
       height="9.07"
       transform="translate(695.06 -78) rotate(135.33)"
       style="fill:#c7c7c7"
       id="rect66" />
    <rect
       x="348.84"
       y="104.11"
       width="23.13"
       height="5.45"
       transform="translate(691.83 -70.54) rotate(135.33)"
       style="fill:#dbdbdb"
       id="rect68" />
    <rect
       x="372.99"
       y="97.58"
       width="45.69"
       height="15.41"
       transform="translate(501.12 -290.54) rotate(90)"
       style="fill:#a6a6a6"
       id="rect70" />
    <rect
       x="393.7"
       y="113.46"
       width="4.26"
       height="15.41"
       transform="translate(516.99 -274.67) rotate(90)"
       style="fill:#c7c7c7"
       id="rect72" />
    <rect
       x="395.01"
       y="107.71"
       width="1.65"
       height="15.41"
       transform="translate(511.24 -280.42) rotate(90)"
       style="fill:#c7c7c7"
       id="rect74" />
    <rect
       x="409.45"
       y="101.34"
       width="42.94"
       height="10.65"
       transform="translate(537.58 -324.25) rotate(90)"
       style="fill:#a6a6a6"
       id="rect76" />
    <rect
       x="428.91"
       y="116.26"
       width="4"
       height="10.65"
       transform="translate(552.5 -309.33) rotate(90)"
       style="fill:#c7c7c7"
       id="rect78" />
    <rect
       x="428.91"
       y="90.73"
       width="4"
       height="10.65"
       transform="translate(526.96 -334.87) rotate(90)"
       style="fill:#c7c7c7"
       id="rect80" />
    <rect
       x="430.14"
       y="96.24"
       width="1.55"
       height="10.65"
       transform="translate(532.48 -329.35) rotate(90)"
       style="fill:#c7c7c7"
       id="rect82" />
  </g>
  <g
     id="freepik--Table--inject-152">
    <polygon
       points="39.97 448.53 92.48 448.29 144.99 448.2 250 448.03 355.01 448.2 407.52 448.29 460.03 448.53 407.52 448.78 355.01 448.86 250 449.03 144.99 448.86 92.48 448.77 39.97 448.53"
       style="fill:#263238"
       id="polygon85" />
  </g>
  <g
     id="freepik--Plant--inject-152">
    <path
       d="M409.13,360.17c14.57,14.26,17,36.33,13.94,55.66-.08.44-.76.32-.76-.09,0-4.4.14-8.76.12-13.11-.08-.2-.14-.39-.22-.59-3.8-2.76-7.3-5.88-9.47-10.17-2.43-4.78-3.39-10.18-5.25-15.18-.17-.48.34-.34.67-.09,8.87,6.54,11.69,13.57,14.23,23a78.27,78.27,0,0,0-1.54-14.64c-1.91-8.92-5.7-17.76-12.11-24.38A.27.27,0,0,1,409.13,360.17Z"
       style="fill:#263238"
       id="path88" />
    <path
       d="M406.39,361.83c-2.51.09-4.08,4.09-6,5.26a1.89,1.89,0,0,1-2.77-.43c-1.94-2.71.72-6,3.22-7.9-1.79.73-3.27,2-5.2,2.39a1.81,1.81,0,0,1-2.34-1.41c-.85-3.68,3.77-5.32,6.94-5.4-1.54-1.06-5.94-4-3.6-5.4s7.54,2.72,9.23,4.09c2.47,2,5.43,5,5.54,8.16C411.53,364.86,408.32,362.6,406.39,361.83Z"
       style="fill:#FFC727"
       id="path90" />
    <path
       d="M406.39,361.83c-2.51.09-4.08,4.09-6,5.26a1.89,1.89,0,0,1-2.77-.43c-1.94-2.71.72-6,3.22-7.9-1.79.73-3.27,2-5.2,2.39a1.81,1.81,0,0,1-2.34-1.41c-.85-3.68,3.77-5.32,6.94-5.4-1.54-1.06-5.94-4-3.6-5.4s7.54,2.72,9.23,4.09c2.47,2,5.43,5,5.54,8.16C411.53,364.86,408.32,362.6,406.39,361.83Z"
       style="opacity:0.1"
       id="path92" />
    <path
       d="M407.11,362.45c-3.2-1.46-9.36.64-9.88-.57-1.06-2.47,3.86-4.17,6.51-4.49-2.44-.67-7.13-1.72-7-4.08.18-2.88,7.19-.4,10.74,2.32,4.47,3.43,4.44,6.73,3.7,7.4C410.18,363.93,407.64,362.69,407.11,362.45Z"
       style="fill:#FFC727"
       id="path94" />
    <path
       d="M442.31,358.76c-15.1,13.7-18.39,35.66-16.05,55.09.06.44.74.35.76-.07.16-4.39.2-8.76.38-13.1l.24-.58c3.91-2.61,7.52-5.6,9.85-9.8,2.61-4.69,3.77-10.05,5.82-15,.2-.47-.32-.35-.66-.12-9.11,6.2-12.2,13.12-15.1,22.42a79,79,0,0,1,2.1-14.57c2.25-8.84,6.37-17.53,13-23.9C442.93,358.91,442.57,358.51,442.31,358.76Z"
       style="fill:#263238"
       id="path96" />
    <path
       d="M445,360.52c2.5.18,3.92,4.24,5.83,5.49a1.88,1.88,0,0,0,2.78-.33c2-2.63-.49-6.06-2.91-8,1.75.8,3.18,2.15,5.09,2.59a1.81,1.81,0,0,0,2.4-1.32c1-3.64-3.57-5.46-6.73-5.66,1.58-1,6.09-3.74,3.8-5.26s-7.63,2.43-9.37,3.74c-2.55,1.91-5.62,4.8-5.85,7.94C439.73,363.35,443,361.22,445,360.52Z"
       style="fill:#FFC727"
       id="path98" />
    <path
       d="M445,360.52c2.5.18,3.92,4.24,5.83,5.49a1.88,1.88,0,0,0,2.78-.33c2-2.63-.49-6.06-2.91-8,1.75.8,3.18,2.15,5.09,2.59a1.81,1.81,0,0,0,2.4-1.32c1-3.64-3.57-5.46-6.73-5.66,1.58-1,6.09-3.74,3.8-5.26s-7.63,2.43-9.37,3.74c-2.55,1.91-5.62,4.8-5.85,7.94C439.73,363.35,443,361.22,445,360.52Z"
       style="opacity:0.1"
       id="path100" />
    <path
       d="M444.23,361.11c3.26-1.33,9.33,1,9.9-.19,1.16-2.43-3.69-4.31-6.34-4.74,2.47-.57,7.2-1.45,7.14-3.81-.06-2.88-7.16-.67-10.81,1.91-4.6,3.26-4.7,6.56-4,7.25C441.11,362.48,443.7,361.33,444.23,361.11Z"
       style="fill:#FFC727"
       id="path102" />
    <path
       d="M426.87,394.94a149.51,149.51,0,0,1-4.69,21.66.54.54,0,0,1-1.06-.21c1-6.68,2.8-13.23,3.79-19.91a99.8,99.8,0,0,0,1.16-20.43c-.63-11.25-3.69-23.21-11-32-.16-.2.18-.5.35-.31,14.69,17.14,12.36,38.15,12.34,40,2.08-7.09,4.23-15.22,12.1-22.45.34-.31.6-.16.55.37-1.41,13.16-5.07,20-12.7,27.06C427.47,390.81,427.2,392.89,426.87,394.94Z"
       style="fill:#263238"
       id="path104" />
    <path
       d="M414.91,346c-2.64-1.18-6.29,2.19-8.91,2.42a2.17,2.17,0,0,1-2.65-1.85c-.65-3.77,3.79-5.9,7.32-6.57-2.23-.14-4.41.45-6.59-.14a2.08,2.08,0,0,1-1.73-2.63c1-4.25,6.59-3.63,9.92-2.11-1.06-1.88-4.17-7.12-1-7.42s6.46,6.62,7.52,8.89c1.56,3.33,3.11,7.93,1.64,11.25C418.72,351.73,416.52,347.77,414.91,346Z"
       style="fill:#FFC727"
       id="path106" />
    <path
       d="M414.91,346c-2.64-1.18-6.29,2.19-8.91,2.42a2.17,2.17,0,0,1-2.65-1.85c-.65-3.77,3.79-5.9,7.32-6.57-2.23-.14-4.41.45-6.59-.14a2.08,2.08,0,0,1-1.73-2.63c1-4.25,6.59-3.63,9.92-2.11-1.06-1.88-4.17-7.12-1-7.42s6.46,6.62,7.52,8.89c1.56,3.33,3.11,7.93,1.64,11.25C418.72,351.73,416.52,347.77,414.91,346Z"
       style="opacity:0.1"
       id="path108" />
    <path
       d="M415.35,347c-2.59-3.12-10-4.05-10-5.57.14-3.09,6.1-2.38,9-1.38-2.2-1.92-6.53-5.37-5.2-7.75,1.64-2.9,7.66,3.2,10,7.81,2.91,5.81,1.21,9.23.11,9.54C417.78,350.1,415.78,347.53,415.35,347Z"
       style="fill:#FFC727"
       id="path110" />
    <path
       d="M436.53,398.9,443,448.42H403.58c.81-4.39,8.15-49.58,8.15-49.58Z"
       style="fill:#FFC727"
       id="path112" />
  </g>
  <g
     id="freepik--Device--inject-152"
     transform="matrix(1.0398569,0,0,1,-50.180327,4.1700116)">
    <path
       d="M 374.66,58.3 H 202.35 a 17.59,17.59 0 0 0 -17.43,17.76 v 354.71 a 17.61,17.61 0 0 0 17.43,17.76 h 172.31 a 17.62,17.62 0 0 0 17.45,-17.76 V 76.06 A 17.6,17.6 0 0 0 374.66,58.3 Z m 6.55,361.5 c 0,9.34 -7,16.89 -15.62,16.89 H 211.44 c -8.64,0 -15.64,-7.55 -15.64,-16.89 V 89.5 c 0,-19 7,-20 15.64,-20 h 30.88 c 1.8,0 3.27,2 3.27,4.57 v 1.09 c 0,5.92 3.24,5.94 7.21,5.94 h 71.41 c 4,0 7.24,0 7.24,-5.94 v -1.04 c 0,-2.53 1.45,-4.57 3.27,-4.57 h 30.87 c 8.63,0 15.62,2.53 15.62,20 z"
       style="fill:#263238"
       id="path115" />
    <path
       d="m 381.22,89.5 v 330.3 c 0,9.34 -7,16.89 -15.62,16.89 H 211.45 c -8.64,0 -15.64,-7.55 -15.64,-16.89 V 89.5 c 0,-19 7,-20 15.64,-20 h 30.88 c 1.8,0 3.27,2 3.27,4.57 v 1.09 c 0,5.92 3.24,5.94 7.21,5.94 h 71.41 c 4,0 7.24,0 7.24,-5.94 v -1.04 c 0,-2.53 1.45,-4.57 3.27,-4.57 h 30.87 c 8.63,0 15.62,2.53 15.62,19.95 z"
       style="fill:#ffffff"
       id="path117" />
    <path
       d="m 381.22,89.51 v 30 H 195.81 v -30 c 0,-19 7,-20 15.64,-20 h 30.88 c 1.8,0 3.27,2 3.27,4.57 v 1.09 c 0,5.92 3.24,5.94 7.21,5.94 h 71.41 c 4,0 7.24,0 7.24,-5.94 v -1.04 c 0,-2.53 1.45,-4.57 3.27,-4.57 h 30.87 c 8.63,0 15.62,2.53 15.62,19.95 z"
       style="fill:#ffc727"
       id="path119" />
    <path
       d="m 298.25,73.47 h -19.48 a 1.21,1.21 0 0 1 -1.2,-1.21 v 0 a 1.2,1.2 0 0 1 1.2,-1.2 h 19.48 a 1.2,1.2 0 0 1 1.2,1.2 v 0 a 1.2,1.2 0 0 1 -1.2,1.21 z"
       style="fill:#ffffff"
       id="path121" />
    <rect
       x="207.89999"
       y="97.800003"
       width="16.09"
       height="10.2"
       style="fill:#ffffff"
       id="rect123" />
    <path
       d="m 224,97.8 c -0.65,0.62 -1.31,1.22 -2,1.83 l -2,1.79 -2,1.84 -0.06,0.06 -1.94,1.61 -0.09,0.07 -0.09,-0.07 -1.82,-1.62 h -0.06 c -0.7,-0.61 -1.4,-1.22 -2.09,-1.84 l -2,-1.79 c -0.65,-0.61 -1.31,-1.21 -2,-1.83 0.69,0.54 1.37,1.09 2,1.64 0.63,0.55 1.36,1.11 2,1.68 0.64,0.57 1.51,1.26 2.26,1.9 v 0 l 1.68,1.44 1.69,-1.44 v 0 l 2.25,-1.9 2,-1.67 z"
       style="fill:#ffc727"
       id="path125" />
    <path
       d="m 214.27,103.25 c 0,0 0,0 0,0 l -0.26,0.21 c -0.4,0.34 -0.82,0.67 -1.24,1 -0.42,0.33 -1,0.76 -1.56,1.13 -0.56,0.37 -1.06,0.73 -1.6,1.08 -0.54,0.35 -1.1,0.69 -1.66,1 0.48,-0.43 1,-0.83 1.5,-1.22 0.5,-0.39 1,-0.76 1.57,-1.13 0.57,-0.37 1.06,-0.73 1.6,-1.08 0.54,-0.35 0.88,-0.55 1.33,-0.81 a 3.07,3.07 0 0 1 0.31,-0.17 z"
       style="fill:#ffc727"
       id="path127" />
    <path
       d="m 224,107.68 c -0.57,-0.31 -1.12,-0.65 -1.66,-1 -0.54,-0.35 -1.08,-0.71 -1.61,-1.08 -0.53,-0.37 -1.05,-0.74 -1.56,-1.13 -0.51,-0.39 -0.83,-0.64 -1.23,-1 l -0.26,-0.21 v 0 0 l 0.31,0.18 q 0.68,0.39 1.32,0.81 c 0.55,0.35 1.08,0.71 1.61,1.08 0.53,0.37 1.05,0.74 1.56,1.13 0.51,0.39 0.98,0.79 1.52,1.22 z"
       style="fill:#ffc727"
       id="path129" />
    <path
       d="M 227.44,97.8 A 3.45,3.45 0 1 1 224,94.35 3.45,3.45 0 0 1 227.44,97.8 Z"
       style="fill:#455a64"
       id="path131" />
    <path
       d="m 225.13,98.49 a 0.28,0.28 0 0 1 -0.28,0.27 v 0 0.38 a 0.28,0.28 0 0 1 -0.55,0 v -0.38 h -1.56 a 0.22,0.22 0 0 1 -0.17,-0.06 0.26,0.26 0 0 1 0,-0.38 L 224.31,96 c 0,0 0,0 0,0 0,0 0,0 0,0 v 0 0 h 0.08 c 0,0 0,0 0,0 h 0.16 v 0 0 0 0 0 0 c 0,0 0,0 0,0 v 0 c 0,0 0,0 0,0 v 2 0 a 0.37963799,0.37963799 0 0 1 0.58,0.49 z m -0.88,-1.5 -1,1.23 h 1 z"
       style="fill:#ffffff"
       id="path133" />
    <g
       id="freepik--u5Zjqx--inject-152">
      <path
         d="m 237,76.68 -0.3,0.3 -0.17,0.17 a 4.07,4.07 0 0 0 -5.75,0 l -0.16,-0.17 c -0.1,-0.1 -0.2,-0.19 -0.29,-0.29 v 0 0 l 0.38,-0.34 a 4.13,4.13 0 0 1 0.87,-0.55 4.29,4.29 0 0 1 1.16,-0.39 c 0.19,0 0.38,0 0.57,-0.08 h 0.51 0.39 a 4.22,4.22 0 0 1 1.06,0.26 4.69,4.69 0 0 1 0.72,0.33 5.33,5.33 0 0 1 0.69,0.48 l 0.31,0.29 z"
         style="fill:#ffffff"
         id="path135" />
      <path
         d="m 231.72,78.09 -0.47,-0.47 a 3.27,3.27 0 0 1 1.91,-1 3.36,3.36 0 0 1 2.89,1 l -0.47,0.47 a 2.73,2.73 0 0 0 -1.93,-0.79 2.7,2.7 0 0 0 -1.93,0.79 z"
         style="fill:#ffffff"
         id="path137" />
      <path
         d="m 235.11,78.56 c -0.16,0.15 -0.32,0.31 -0.47,0.47 a 1.37,1.37 0 0 0 -1,-0.41 1.35,1.35 0 0 0 -1,0.41 l -0.47,-0.47 a 2.06,2.06 0 0 1 2.94,0 z"
         style="fill:#ffffff"
         id="path139" />
      <path
         d="m 234.07,79.45 a 0.43,0.43 0 1 1 -0.42,-0.42 0.42,0.42 0 0 1 0.42,0.42 z"
         style="fill:#ffffff"
         id="path141" />
    </g>
    <path
       d="m 207.9,77.58 a 1.23,1.23 0 1 1 1.23,1.23 1.23,1.23 0 0 1 -1.23,-1.23 z"
       style="fill:#ffffff"
       id="path144" />
    <path
       d="m 211.77,77.58 a 1.23,1.23 0 1 1 1.23,1.23 1.23,1.23 0 0 1 -1.23,-1.23 z"
       style="fill:#ffffff"
       id="path146" />
    <path
       d="m 215.64,77.58 a 1.23,1.23 0 1 1 1.23,1.23 1.23,1.23 0 0 1 -1.23,-1.23 z"
       style="fill:#ffffff"
       id="path148" />
    <path
       d="m 219.51,77.58 a 1.23,1.23 0 1 1 1.23,1.23 1.23,1.23 0 0 1 -1.23,-1.23 z"
       style="fill:#ffffff"
       id="path150" />
    <path
       d="m 223.38,77.58 a 1.23,1.23 0 1 1 1.23,1.23 1.23,1.23 0 0 1 -1.23,-1.23 z"
       style="fill:#ffffff"
       id="path152" />
    <path
       d="m 367.3,80.27 h -10 v -4.64 h 10 z m -9.49,-0.51 h 9 v -3.62 h -9 z"
       style="fill:#ffffff"
       id="path154" />
    <rect
       x="358.13"
       y="76.419998"
       width="6.4499998"
       height="3.0599999"
       style="fill:#ffffff"
       id="rect156" />
    <rect
       x="367.31"
       y="76.709999"
       width="0.88999999"
       height="2.48"
       style="fill:#ffffff"
       id="rect158" />
    <path
       d="m 272.56,99.78 a 0.59,0.59 0 0 1 0.6,-0.6 0.6,0.6 0 0 1 0.61,0.6 v 6.41 a 0.6,0.6 0 0 1 -0.61,0.6 0.59,0.59 0 0 1 -0.6,-0.6 z"
       style="fill:#ffffff"
       id="path160" />
    <path
       d="m 277,106.19 a 0.6,0.6 0 0 1 -0.59,0.6 0.59,0.59 0 0 1 -0.59,-0.6 v -6.32 0 a 0.57,0.57 0 0 1 0.23,-0.5 0.61,0.61 0 0 1 0.83,0.13 l 3.51,4.86 v -4.49 a 0.59,0.59 0 0 1 0.59,-0.58 0.6,0.6 0 0 1 0.6,0.58 v 6.32 a 0.6,0.6 0 0 1 -0.6,0.6 0.61,0.61 0 0 1 -0.45,-0.22 v -0.06 L 277,101.68 Z"
       style="fill:#ffffff"
       id="path162" />
    <path
       d="m 284.19,106.19 v -6.41 a 0.6,0.6 0 0 1 0.6,-0.6 h 1.54 a 2.07,2.07 0 0 1 2.07,2.06 2,2 0 0 1 -0.42,1.24 2.33,2.33 0 0 1 -1.22,4.31 h -1.93 v 0 a 0.6,0.6 0 0 1 -0.64,-0.6 z m 1.21,-4.06 h 0.93 a 0.88,0.88 0 0 0 0.86,-0.89 0.85,0.85 0 0 0 -0.86,-0.85 h -0.93 z m 0,3.45 h 1.36 a 1.13,1.13 0 0 0 0,-2.25 h -1.36 z"
       style="fill:#ffffff"
       id="path164" />
    <path
       d="m 296.65,100.12 a 4,4 0 0 1 0,5.51 3.58,3.58 0 0 1 -2.6,1.16 3.69,3.69 0 0 1 -2.66,-1.16 4.05,4.05 0 0 1 0,-5.51 3.65,3.65 0 0 1 2.66,-1.12 3.55,3.55 0 0 1 2.6,1.12 z m -0.14,2.75 a 2.81,2.81 0 0 0 -0.74,-1.9 2.32,2.32 0 0 0 -1.72,-0.77 2.37,2.37 0 0 0 -1.76,0.77 2.81,2.81 0 0 0 -0.74,1.9 2.77,2.77 0 0 0 0.74,1.9 2.38,2.38 0 0 0 1.76,0.78 2.33,2.33 0 0 0 1.72,-0.78 2.77,2.77 0 0 0 0.74,-1.9 z"
       style="fill:#ffffff"
       id="path166" />
    <path
       d="m 304.8,100.21 -2.07,2.79 2.07,2.82 a 0.6,0.6 0 0 1 -0.13,0.83 0.59,0.59 0 0 1 -0.35,0.12 0.64,0.64 0 0 1 -0.49,-0.25 L 302,104 l -1.84,2.51 a 0.64,0.64 0 0 1 -0.48,0.25 0.55,0.55 0 0 1 -0.35,-0.12 0.6,0.6 0 0 1 -0.14,-0.83 l 2.07,-2.82 -2.07,-2.81 a 0.59,0.59 0 0 1 0.14,-0.82 0.56,0.56 0 0 1 0.83,0.13 l 1.84,2.51 1.82,-2.5 a 0.57,0.57 0 0 1 0.84,-0.13 0.59,0.59 0 0 1 0.14,0.84 z"
       style="fill:#ffffff"
       id="path168" />
    <path
       d="m 355.68,106.73 -1.26,1 -2.33,-3.08 -0.85,-1.13 a 2.15,2.15 0 0 0 0.49,-0.27 2.08,2.08 0 0 0 0.64,-0.84 l 0.91,1.19 z"
       style="fill:#ffffff"
       id="path170" />
    <path
       d="m 353.2,99.47 a 3.44,3.44 0 1 0 -1.11,5.13 3,3 0 0 0 0.48,-0.31 3.11,3.11 0 0 0 0.71,-0.74 3.44,3.44 0 0 0 -0.08,-4.08 z m -1.47,3.73 a 2.15,2.15 0 0 1 -0.49,0.27 2.05,2.05 0 1 1 1.13,-1.11 2.08,2.08 0 0 1 -0.64,0.84 z"
       style="fill:#ffffff"
       id="path172" />
    <rect
       x="329.44"
       y="98.330002"
       width="9.1400003"
       height="9.1400003"
       style="fill:#ffffff"
       id="rect174" />
    <rect
       x="333.51001"
       y="100.03"
       width="1"
       height="5.75"
       style="fill:#ffc727"
       id="rect176" />
    <rect
       x="333.51001"
       y="100.03"
       width="1"
       height="5.75"
       transform="rotate(-90,334.005,102.905)"
       style="fill:#ffc727"
       id="rect178" />
    <path
       d="m 367.3,98.92 a 0.79,0.79 0 1 1 -0.79,-0.79 0.79,0.79 0 0 1 0.79,0.79 z"
       style="fill:#ffffff"
       id="path180" />
    <path
       d="m 367.3,103 a 0.79,0.79 0 0 1 -1.58,0 0.79,0.79 0 1 1 1.58,0 z"
       style="fill:#ffffff"
       id="path182" />
    <path
       d="m 367.3,107.12 a 0.79,0.79 0 1 1 -1.58,0 0.79,0.79 0 0 1 1.58,0 z"
       style="fill:#ffffff"
       id="path184" />
    <rect
       x="195.81"
       y="119.47"
       width="185.39999"
       height="28.629999"
       style="fill:#ebebeb"
       id="rect186" />
    <path
       d="m 226,139.32 a 6.38,6.38 0 0 1 -1.88,0.78 6.48,6.48 0 1 1 1.88,-0.78 z"
       style="fill:#ffc727"
       id="path188" />
    <path
       d="m 224.51,133 a 2,2 0 1 1 -2,-2 2,2 0 0 1 2,2 z"
       style="fill:#ffffff"
       id="path190" />
    <path
       d="m 226,138.5 v 0.82 a 6.38,6.38 0 0 1 -1.88,0.78 6.5,6.5 0 0 1 -5,-0.78 v -0.82 a 3.42,3.42 0 0 1 6.84,0 z"
       style="fill:#ffffff"
       id="path192" />
    <polygon
       points="263.36,138.09 254.76,138.09 258.27,133.79 254.76,129.49 263.36,129.49 266.87,133.79 "
       style="fill:#ffffff"
       id="polygon194" />
    <polygon
       points="241.26,129.49 242.66,132.32 245.78,132.77 243.52,134.98 244.06,138.09 241.26,136.62 238.47,138.09 239,134.98 236.74,132.77 239.86,132.32 "
       style="fill:#ffc727"
       id="polygon196" />
    <rect
       x="273.04001"
       y="132.03999"
       width="50.740002"
       height="3.5"
       style="fill:#263238"
       id="rect198" />
    <rect
       x="344.69"
       y="132.03999"
       width="19.889999"
       height="3.5"
       style="fill:#455a64"
       id="rect200" />
    <path
       d="m 226,168 a 6.38,6.38 0 0 1 -1.88,0.78 A 6.48,6.48 0 1 1 226,168 Z"
       style="fill:#455a64"
       id="path202" />
    <path
       d="m 224.51,161.68 a 2,2 0 1 1 -2,-2 2,2 0 0 1 2,2 z"
       style="fill:#ffffff"
       id="path204" />
    <path
       d="M 226,167.13 V 168 a 6.38,6.38 0 0 1 -1.88,0.78 6.45,6.45 0 0 1 -5,-0.78 v -0.82 a 3.42,3.42 0 0 1 6.84,0 z"
       style="fill:#ffffff"
       id="path206" />
    <polygon
       points="263.36,166.72 254.76,166.72 258.27,162.42 254.76,158.12 263.36,158.12 266.87,162.42 "
       style="fill:#ffffff"
       id="polygon208" />
    <path
       d="m 263.48,167 h -9.25 l 3.72,-4.55 -3.72,-4.55 h 9.25 l 3.71,4.55 z m -8.19,-0.5 h 8 l 3.3,-4.05 -3.3,-4 h -8 l 3.3,4 z"
       style="fill:#ebebeb"
       id="path210" />
    <polygon
       points="241.26,158.12 242.66,160.95 245.78,161.4 243.52,163.61 244.06,166.72 241.26,165.25 238.47,166.72 239,163.61 236.74,161.4 239.86,160.95 "
       style="fill:#ffc727"
       id="polygon212" />
    <rect
       x="273.04001"
       y="160.67"
       width="50.740002"
       height="3.5"
       style="fill:#263238"
       id="rect214" />
    <rect
       x="344.69"
       y="160.67"
       width="19.889999"
       height="3.5"
       style="fill:#455a64"
       id="rect216" />
    <rect
       x="195.81"
       y="176.73"
       width="185.39999"
       height="28.629999"
       style="fill:#ebebeb"
       id="rect218" />
    <path
       d="m 226,196.58 a 6.68,6.68 0 0 1 -1.88,0.79 6.52,6.52 0 1 1 1.88,-0.79 z"
       style="fill:#ffc727"
       id="path220" />
    <path
       d="m 224.51,190.31 a 2,2 0 1 1 -2,-2 2,2 0 0 1 2,2 z"
       style="fill:#ffffff"
       id="path222" />
    <path
       d="m 226,195.76 v 0.82 a 6.68,6.68 0 0 1 -1.88,0.79 6.46,6.46 0 0 1 -5,-0.79 v -0.82 a 3.42,3.42 0 0 1 6.84,0 z"
       style="fill:#ffffff"
       id="path224" />
    <polygon
       points="263.36,195.35 254.76,195.35 258.27,191.05 254.76,186.75 263.36,186.75 266.87,191.05 "
       style="fill:#ffffff"
       id="polygon226" />
    <polygon
       points="241.26,186.75 242.66,189.58 245.78,190.03 243.52,192.24 244.06,195.35 241.26,193.88 238.47,195.35 239,192.24 236.74,190.03 239.86,189.58 "
       style="fill:#ffffff"
       id="polygon228" />
    <rect
       x="273.04001"
       y="189.3"
       width="50.740002"
       height="3.5"
       style="fill:#dbdbdb"
       id="rect230" />
    <rect
       x="344.69"
       y="189.3"
       width="19.889999"
       height="3.5"
       style="fill:#c7c7c7"
       id="rect232" />
    <path
       d="M 226,225.21 A 6.68,6.68 0 0 1 224.12,226 6.52,6.52 0 1 1 226,225.21 Z"
       style="fill:#a6a6a6"
       id="path234" />
    <path
       d="m 224.51,218.94 a 2,2 0 1 1 -2,-2 2,2 0 0 1 2,2 z"
       style="fill:#ffffff"
       id="path236" />
    <path
       d="m 226,224.4 v 0.81 a 6.68,6.68 0 0 1 -1.88,0.79 6.46,6.46 0 0 1 -5,-0.79 v -0.81 a 3.42,3.42 0 1 1 6.84,0 z"
       style="fill:#ffffff"
       id="path238" />
    <polygon
       points="263.36,223.98 254.76,223.98 258.27,219.68 254.76,215.38 263.36,215.38 266.87,219.68 "
       style="fill:#ffffff"
       id="polygon240" />
    <path
       d="m 263.48,224.23 h -9.25 l 3.72,-4.55 -3.72,-4.55 h 9.25 l 3.71,4.55 z m -8.19,-0.5 h 8 l 3.3,-4 -3.3,-4.05 h -8 l 3.3,4.05 z"
       style="fill:#ebebeb"
       id="path242" />
    <polygon
       points="241.26,215.38 242.66,218.21 245.78,218.67 243.52,220.87 244.06,223.98 241.26,222.51 238.47,223.98 239,220.87 236.74,218.67 239.86,218.21 "
       style="fill:#ffc727"
       id="polygon244" />
    <rect
       x="273.04001"
       y="217.92999"
       width="50.740002"
       height="3.5"
       style="fill:#dbdbdb"
       id="rect246" />
    <rect
       x="344.69"
       y="217.92999"
       width="19.889999"
       height="3.5"
       style="fill:#c7c7c7"
       id="rect248" />
    <rect
       x="195.81"
       y="234"
       width="185.39999"
       height="28.629999"
       style="fill:#ebebeb"
       id="rect250" />
    <path
       d="m 226,253.84 a 6.68,6.68 0 0 1 -1.88,0.79 6.52,6.52 0 1 1 1.88,-0.79 z"
       style="fill:#37474f"
       id="path252" />
    <path
       d="m 224.51,247.57 a 2,2 0 1 1 -2,-2 2,2 0 0 1 2,2 z"
       style="fill:#ffffff"
       id="path254" />
    <path
       d="m 226,253 v 0.81 a 6.68,6.68 0 0 1 -1.88,0.79 6.46,6.46 0 0 1 -5,-0.79 V 253 a 3.42,3.42 0 0 1 6.84,0 z"
       style="fill:#ffffff"
       id="path256" />
    <polygon
       points="263.36,252.61 254.76,252.61 258.27,248.31 254.76,244.01 263.36,244.01 266.87,248.31 "
       style="fill:#ffffff"
       id="polygon258" />
    <polygon
       points="241.26,244.01 242.66,246.84 245.78,247.3 243.52,249.5 244.06,252.61 241.26,251.14 238.47,252.61 239,249.5 236.74,247.3 239.86,246.84 "
       style="fill:#ffc727"
       id="polygon260" />
    <rect
       x="273.04001"
       y="246.56"
       width="50.740002"
       height="3.5"
       style="fill:#dbdbdb"
       id="rect262" />
    <rect
       x="344.69"
       y="246.56"
       width="19.889999"
       height="3.5"
       style="fill:#c7c7c7"
       id="rect264" />
    <path
       d="m 381.22,405.78 v 14 a 17.15,17.15 0 0 1 -7.78,14.61 H 203.6 a 17.14,17.14 0 0 1 -7.78,-14.61 v -14 z"
       style="fill:#ebebeb"
       id="path266" />
    <path
       d="m 226,425.63 a 6.68,6.68 0 0 1 -1.88,0.79 6.52,6.52 0 1 1 1.88,-0.79 z"
       style="fill:#ffc727"
       id="path268" />
    <path
       d="m 224.51,419.36 a 2,2 0 1 1 -2,-2 2,2 0 0 1 2,2 z"
       style="fill:#ffffff"
       id="path270" />
    <path
       d="m 226,424.81 v 0.82 a 6.68,6.68 0 0 1 -1.88,0.79 6.5,6.5 0 0 1 -5,-0.79 v -0.82 a 3.42,3.42 0 0 1 6.84,0 z"
       style="fill:#ffffff"
       id="path272" />
    <polygon
       points="263.36,424.4 254.76,424.4 258.27,420.1 254.76,415.8 263.36,415.8 266.87,420.1 "
       style="fill:#ffffff"
       id="polygon274" />
    <polygon
       points="241.26,415.8 242.66,418.63 245.78,419.08 243.52,421.29 244.06,424.4 241.26,422.93 238.47,424.4 239,421.29 236.74,419.08 239.86,418.63 "
       style="fill:#ffc727"
       id="polygon276" />
    <rect
       x="273.04001"
       y="418.35001"
       width="50.740002"
       height="3.5"
       style="fill:#dbdbdb"
       id="rect278" />
    <rect
       x="344.69"
       y="418.35001"
       width="19.889999"
       height="3.5"
       style="fill:#c7c7c7"
       id="rect280" />
    <path
       d="m 226,282.47 a 6.51,6.51 0 0 1 -9.74,-4 6.51,6.51 0 1 1 9.74,4 z"
       style="fill:#263238"
       id="path282" />
    <path
       d="m 224.51,276.2 a 2,2 0 1 1 -2,-2 2,2 0 0 1 2,2 z"
       style="fill:#ffffff"
       id="path284" />
    <path
       d="m 226,281.66 v 0.81 a 6.48,6.48 0 0 1 -6.84,0 v -0.81 a 3.42,3.42 0 1 1 6.84,0 z"
       style="fill:#ffffff"
       id="path286" />
    <polygon
       points="263.36,281.24 254.76,281.24 258.27,276.94 254.76,272.64 263.36,272.64 266.87,276.94 "
       style="fill:#ffffff"
       id="polygon288" />
    <path
       d="m 263.48,281.49 h -9.25 l 3.72,-4.55 -3.72,-4.55 h 9.25 l 3.71,4.55 z m -8.19,-0.5 h 8 l 3.3,-4.05 -3.3,-4.05 h -8 l 3.3,4.05 z"
       style="fill:#ebebeb"
       id="path290" />
    <polygon
       points="241.26,272.64 242.66,275.47 245.78,275.93 243.52,278.13 244.06,281.24 241.26,279.77 238.47,281.24 239,278.13 236.74,275.93 239.86,275.47 "
       style="fill:#ffffff"
       id="polygon292" />
    <path
       d="m 244.39,281.7 -3.13,-1.64 -3.13,1.64 0.6,-3.48 -2.53,-2.47 3.5,-0.5 1.56,-3.17 1.56,3.17 3.5,0.5 -2.53,2.47 z m -3.13,-2.21 2.46,1.3 -0.47,-2.75 2,-1.94 -2.76,-0.4 -1.23,-2.49 -1.26,2.49 -2.75,0.4 2,1.94 -0.47,2.75 z"
       style="fill:#ebebeb"
       id="path294" />
    <rect
       x="273.04001"
       y="275.19"
       width="50.740002"
       height="3.5"
       style="fill:#dbdbdb"
       id="rect296" />
    <rect
       x="344.69"
       y="275.19"
       width="19.889999"
       height="3.5"
       style="fill:#c7c7c7"
       id="rect298" />
    <rect
       x="195.81"
       y="291.26001"
       width="185.39999"
       height="28.629999"
       style="fill:#ebebeb"
       id="rect300" />
    <path
       d="m 226,311.11 a 6.66,6.66 0 0 1 -1.88,0.78 6.5,6.5 0 1 1 4.78,-7.86 6.52,6.52 0 0 1 -2.9,7.08 z"
       style="fill:#ffc727"
       id="path302" />
    <path
       d="m 224.51,304.83 a 2,2 0 1 1 -2,-2 2,2 0 0 1 2,2 z"
       style="fill:#ffffff"
       id="path304" />
    <path
       d="m 226,310.29 v 0.82 a 6.66,6.66 0 0 1 -1.88,0.78 6.46,6.46 0 0 1 -5,-0.79 v -0.81 a 3.42,3.42 0 1 1 6.84,0 z"
       style="fill:#ffffff"
       id="path306" />
    <polygon
       points="263.36,309.88 254.76,309.88 258.27,305.57 254.76,301.27 263.36,301.27 266.87,305.57 "
       style="fill:#ffffff"
       id="polygon308" />
    <polygon
       points="241.26,301.27 242.66,304.11 245.78,304.56 243.52,306.76 244.06,309.88 241.26,308.41 238.47,309.88 239,306.76 236.74,304.56 239.86,304.11 "
       style="fill:#ffc727"
       id="polygon310" />
    <rect
       x="273.04001"
       y="303.82999"
       width="50.740002"
       height="3.5"
       style="fill:#263238"
       id="rect312" />
    <rect
       x="344.69"
       y="303.82999"
       width="19.889999"
       height="3.5"
       style="fill:#455a64"
       id="rect314" />
    <path
       d="m 226,339.74 a 6.38,6.38 0 0 1 -1.88,0.78 6.5,6.5 0 1 1 4.78,-7.86 6.52,6.52 0 0 1 -2.9,7.08 z"
       style="fill:#ffc727"
       id="path316" />
    <path
       d="m 224.51,333.46 a 2,2 0 1 1 -2,-2 2,2 0 0 1 2,2 z"
       style="fill:#ffffff"
       id="path318" />
    <path
       d="m 226,338.92 v 0.82 a 6.38,6.38 0 0 1 -1.88,0.78 6.46,6.46 0 0 1 -5,-0.79 v -0.81 a 3.42,3.42 0 1 1 6.84,0 z"
       style="fill:#ffffff"
       id="path320" />
    <polygon
       points="263.36,338.51 254.76,338.51 258.27,334.21 254.76,329.91 263.36,329.91 266.87,334.21 "
       style="fill:#ffffff"
       id="polygon322" />
    <path
       d="m 263.48,338.76 h -9.25 l 3.72,-4.55 -3.72,-4.55 h 9.25 l 3.71,4.55 z m -8.19,-0.5 h 8 l 3.3,-4.05 -3.3,-4 h -8 l 3.3,4 z"
       style="fill:#ebebeb"
       id="path324" />
    <polygon
       points="241.26,329.91 242.66,332.74 245.78,333.19 243.52,335.39 244.06,338.51 241.26,337.04 238.47,338.51 239,335.39 236.74,333.19 239.86,332.74 "
       style="fill:#ffffff"
       id="polygon326" />
    <path
       d="m 244.39,339 -3.13,-1.64 -3.13,1.64 0.6,-3.48 -2.53,-2.52 3.5,-0.51 1.56,-3.17 1.56,3.17 3.5,0.51 -2.53,2.46 z m -7.11,-5.59 2,1.94 -0.47,2.74 2.46,-1.3 2.46,1.3 -0.47,-2.74 2,-1.94 L 242.5,333 241.27,330.51 240,333 Z"
       style="fill:#ebebeb"
       id="path328" />
    <rect
       x="273.04001"
       y="332.45999"
       width="50.740002"
       height="3.5"
       style="fill:#dbdbdb"
       id="rect330" />
    <rect
       x="344.69"
       y="332.45999"
       width="19.889999"
       height="3.5"
       style="fill:#c7c7c7"
       id="rect332" />
    <rect
       x="195.81"
       y="348.51999"
       width="185.39999"
       height="28.629999"
       style="fill:#ebebeb"
       id="rect334" />
    <path
       d="m 226,368.37 a 6.38,6.38 0 0 1 -1.88,0.78 6.48,6.48 0 1 1 1.88,-0.78 z"
       style="fill:#455a64"
       id="path336" />
    <path
       d="m 224.51,362.09 a 2,2 0 1 1 -2,-2 2,2 0 0 1 2,2 z"
       style="fill:#ffffff"
       id="path338" />
    <path
       d="m 226,367.55 v 0.82 a 6.38,6.38 0 0 1 -1.88,0.78 6.5,6.5 0 0 1 -5,-0.78 v -0.82 a 3.42,3.42 0 0 1 6.84,0 z"
       style="fill:#ffffff"
       id="path340" />
    <polygon
       points="263.36,367.14 254.76,367.14 258.27,362.84 254.76,358.54 263.36,358.54 266.87,362.84 "
       style="fill:#ffffff"
       id="polygon342" />
    <polygon
       points="241.26,358.54 242.66,361.37 245.78,361.82 243.52,364.02 244.06,367.14 241.26,365.67 238.47,367.14 239,364.02 236.74,361.82 239.86,361.37 "
       style="fill:#ffffff"
       id="polygon344" />
    <rect
       x="273.04001"
       y="361.09"
       width="50.740002"
       height="3.5"
       style="fill:#dbdbdb"
       id="rect346" />
    <rect
       x="344.69"
       y="361.09"
       width="19.889999"
       height="3.5"
       style="fill:#c7c7c7"
       id="rect348" />
    <path
       d="m 226,397 a 6.38,6.38 0 0 1 -1.88,0.78 A 6.48,6.48 0 1 1 226,397 Z"
       style="fill:#a6a6a6"
       id="path350" />
    <path
       d="m 224.51,390.73 a 2,2 0 1 1 -2,-2 2,2 0 0 1 2,2 z"
       style="fill:#ffffff"
       id="path352" />
    <path
       d="M 226,396.18 V 397 a 6.38,6.38 0 0 1 -1.88,0.78 6.45,6.45 0 0 1 -5,-0.78 v -0.82 a 3.42,3.42 0 0 1 6.84,0 z"
       style="fill:#ffffff"
       id="path354" />
    <polygon
       points="263.36,395.77 254.76,395.77 258.27,391.47 254.76,387.17 263.36,387.17 266.87,391.47 "
       style="fill:#ffffff"
       id="polygon356" />
    <path
       d="m 263.48,396 h -9.25 l 3.72,-4.55 -3.72,-4.55 h 9.25 l 3.71,4.55 z m -8.19,-0.5 h 8 l 3.3,-4 -3.3,-4.05 h -8 l 3.3,4.05 z"
       style="fill:#ebebeb"
       id="path358" />
    <polygon
       points="241.26,387.17 242.66,390 245.78,390.45 243.52,392.66 244.06,395.77 241.26,394.3 238.47,395.77 239,392.66 236.74,390.45 239.86,390 "
       style="fill:#ffffff"
       id="polygon360" />
    <path
       d="m 244.39,396.23 -3.13,-1.65 -3.13,1.65 0.6,-3.49 -2.53,-2.46 3.5,-0.51 1.56,-3.17 1.56,3.17 3.5,0.51 -2.53,2.46 z m -3.13,-2.23 2.46,1.29 -0.47,-2.74 2,-1.94 -2.76,-0.4 -1.23,-2.5 -1.23,2.5 -2.75,0.4 2,1.94 -0.47,2.74 z"
       style="fill:#ebebeb"
       id="path362" />
    <rect
       x="273.04001"
       y="389.72"
       width="50.740002"
       height="3.5"
       style="fill:#dbdbdb"
       id="rect364" />
    <rect
       x="344.69"
       y="389.72"
       width="19.889999"
       height="3.5"
       style="fill:#c7c7c7"
       id="rect366" />
  </g>
  <g
     id="freepik--Character--inject-152"
     transform="translate(-102.42,-6.57)">
    <path
       d="m 224.73,448.72 h -81.18 c -9.71,-34.06 -17.52,-60 -17.52,-60 H 203 c 0,0 9.51,25.69 21.73,60 z"
       style="fill:#37474f"
       id="path369" />
    <path
       d="m 155.44,448.72 h -1.67 c -4.81,-16.05 -9.81,-32 -14.71,-48.07 -0.07,-0.21 0.26,-0.31 0.34,-0.1 1,2.78 2,5.56 3,8.35 4.68,13.16 8.97,26.46 13.04,39.82 z"
       style="fill:#263238"
       id="path371" />
    <path
       d="m 201.24,388.75 c -0.09,1.61 -4.38,16.34 -6.6,38.38 -0.81,8.13 -1.73,15.78 -2.71,21.59 H 84.2 c -10.66,-32.94 5.16,-60 5.16,-60 0,0 111.89,-0.04 111.88,0.03 z"
       style="fill:#37474f"
       id="path373" />
    <path
       d="m 179.71,425.23 c 0.38,5.53 0.51,11.07 0.44,16.6 a 51,51 0 0 0 -0.06,6.89 h -1.87 c -0.45,-3.51 0,-7.88 0,-11.33 -0.06,-14.29 -1.88,-28.42 -4.08,-42.52 a 0.27,0.27 0 0 1 0.52,-0.11 150.36,150.36 0 0 1 5.05,30.47 z"
       style="fill:#263238"
       id="path375" />
    <path
       d="m 193.07,432.37 c -0.1,2.94 -0.9,10.77 -3.21,16.35 h -1.61 c 3.13,-7.63 2.95,-22.52 2.72,-26 -0.65,-10.2 -1.44,-19.78 -3.17,-30.52 -0.06,-0.34 0.5,-0.36 0.57,-0.05 3.05,12.96 5.12,26.92 4.7,40.22 z"
       style="fill:#263238"
       id="path377" />
    <path
       d="m 90.85,403.05 c -3.12,13.49 -1.6,28 1.38,41.35 0.31,1.45 0.66,2.89 1,4.32 h -1.62 c -4.41,-18.61 -5.76,-37.87 2,-55.92 0.1,-0.22 0.43,0 0.34,0.19 a 69.17,69.17 0 0 0 -3.1,10.06 z"
       style="fill:#263238"
       id="path379" />
    <path
       d="M 269.7,192 252,248.34 c -0.71,1.64 0.06,3.06 1.7,3.15 l 29.48,1.68 a 4.75,4.75 0 0 0 4.26,-2.8 l 17.66,-56.3 c 0.71,-1.65 -0.06,-3.06 -1.7,-3.15 L 274,189.24 a 4.75,4.75 0 0 0 -4.3,2.76 z"
       style="fill:#37474f"
       id="path381" />
    <path
       d="m 273.2,192.21 -17.66,56.3 c -0.71,1.64 0.06,3.05 1.71,3.15 l 29.47,1.68 a 4.78,4.78 0 0 0 4.27,-2.8 l 17.65,-56.31 c 0.71,-1.64 -0.05,-3 -1.7,-3.14 l -29.48,-1.69 a 4.78,4.78 0 0 0 -4.26,2.81 z"
       style="fill:#455a64"
       id="path383" />
    <path
       d="m 281.13,195.28 a 2.51,2.51 0 1 1 -2.3,-2.7 2.51,2.51 0 0 1 2.3,2.7 z"
       style="fill:#263238"
       id="path385" />
    <path
       d="m 169.73,273.11 c 14.33,36.61 48.72,85.19 64.2,86.41 7.36,0.59 20.4,3.22 30.63,-4.61 22.32,-17.08 42.29,-51.26 47.22,-71.25 1.76,-7.11 -32.22,-25 -37.78,-19.49 -13,12.92 -28.85,38.91 -31,38.61 -7.88,-1.12 -37.18,-29 -57.61,-48.59 -24.8,-23.8 -21.39,4.33 -15.66,18.92 z"
       style="fill:#eb9481"
       id="path387" />
    <path
       d="m 315.1,246.54 c -2.74,-14.86 -5.72,-18.25 -1.38,-32 2.85,-9 -1.69,-14.73 -8.68,-7.79 -11.44,11.34 -11.93,31.25 -10.11,38.2 z"
       style="fill:#eb9481"
       id="path389" />
    <path
       d="m 309.66,289.82 c 0,0 7.86,-19.93 6.51,-36 -0.94,-11.14 -5.68,-35.16 -35.75,-49.66 -7.13,-3.44 -19.73,-3.28 -10.12,6.57 6.82,7 13.27,9.37 16.5,14.16 0,0 -16,2.1 -19.18,9.38 a 147.47,147.47 0 0 0 -6.91,19.61 30.48,30.48 0 0 0 3.55,1.63 c 0,0 -2.75,6.91 1.82,17.27 z"
       style="fill:#eb9481"
       id="path391" />
    <path
       d="m 313.58,243.28 c -4.21,-4.08 -13.28,-12.57 -23.12,-16.94 -10.92,-4.85 -33.28,-11.25 -36.78,-3.15 -2.56,5.94 5.76,9.14 5.76,9.14 0,0 -9.8,-0.7 -10.94,5.17 -1,5.35 5.54,7.44 5.54,7.44 0,0 -6,0.6 -6,5.95 0,6.43 12.59,4.12 18.21,10.65 1.24,1.46 47.33,-18.26 47.33,-18.26 z"
       style="fill:#eb9481"
       id="path393" />
    <path
       d="m 287.26,238.74 c -4.59,-3.19 -16.87,-7.75 -27.62,-6.56 -0.25,0 -0.36,0.22 -0.13,0.24 a 117.75,117.75 0 0 1 27.71,6.42 c 0.06,0.03 0.09,-0.07 0.04,-0.1 z"
       style="fill:#263238"
       id="path395" />
    <path
       d="m 282,249.63 c -4.24,-2.35 -17.1,-6.48 -28,-4.91 -0.24,0 -0.34,0.24 -0.11,0.26 a 125.47,125.47 0 0 1 28,4.75 0.07433034,0.07433034 0 0 0 0.11,-0.1 z"
       style="fill:#263238"
       id="path397" />
    <path
       d="m 214.46,276.09 -5.46,6.63 -1.13,1.38 -21.87,26.42 c 0,0 -19.79,-32.32 -23.79,-50.7 -2.39,-11 -0.67,-17.55 4.14,-18.74 a 6.51,6.51 0 0 1 1.09,-0.16 c 3.11,-0.27 7.29,1.37 12.29,5.06 14.08,10.4 34.73,30.11 34.73,30.11 z"
       style="fill:#ffc727"
       id="path399" />
    <path
       d="m 213.24,275 a 37.84,37.84 0 0 1 -1.85,4.85 l 3,-3.6 v 0 a 0.38,0.38 0 0 0 0,-0.13 c -0.09,-0.18 -0.5,-0.57 -1.15,-1.12 z m -33.59,-29 a 27.51,27.51 0 0 0 -5.3,4.39 27,27 0 0 0 -7.48,18.61 49.29,49.29 0 0 0 0.36,5.57 q 0.74,1.71 1.5,3.42 c -0.09,-0.74 -0.19,-1.47 -0.29,-2.22 a 38,38 0 0 1 -0.16,-12.08 26.51,26.51 0 0 1 3.55,-8.91 28.25,28.25 0 0 1 8.26,-8.57 c -0.13,-0.08 -0.24,-0.17 -0.36,-0.26 z"
       style="fill:#ffffff"
       id="path401" />
    <path
       d="m 181.75,299.53 c 1.18,-2.78 13.33,-19.47 23.45,-30.07 a 0.17356555,0.17356555 0 0 1 0.26,0.23 c -1,1.3 -21,28.11 -23.36,30.14 -0.19,0.17 -0.43,-0.1 -0.35,-0.3 z"
       style="fill:#263238"
       id="path403" />
    <path
       d="m 200,293.63 -14,16.88 c 0,0 -19.79,-32.31 -23.79,-50.69 -2.76,-12.68 -0.07,-19.42 6.5,-18.91 z"
       style="opacity:0.05"
       id="path405" />
    <path
       d="m 204,393.19 c -2.8,3 -121.19,15.65 -121.87,14.83 -1.81,-2.21 9.08,-121.86 57.58,-165.69 8.55,-7.72 23.65,-5.52 30.65,-1.55 3.49,2 9.57,18.52 15.52,37.83 4.5,14.75 19.84,112.64 18.12,114.58 z"
       style="fill:#ffc727"
       id="path407" />
    <path
       d="m 204,393.19 c -0.62,0.67 -7,1.83 -16.53,3.21 l -1.08,0.15 c -4.82,0.69 -10.38,1.43 -16.38,2.18 l -1.3,0.17 c -17.13,2.15 -37.56,4.45 -54.28,6.21 l -0.54,0.05 c -18,1.9 -31.53,3.14 -31.76,2.86 -0.23,-0.28 -0.23,-5.27 0.56,-13.13 0,-0.33 0.07,-0.68 0.1,-1 1.89,-18.17 7.13,-51.18 17.79,-83.11 0.17,-0.52 0.35,-1 0.52,-1.55 a 248.57,248.57 0 0 1 11.27,-27.9 c 0.13,-0.27 0.25,-0.53 0.39,-0.8 a 149.91,149.91 0 0 1 15.2,-25.24 c 0.2,-0.26 0.39,-0.51 0.6,-0.75 a 92,92 0 0 1 11.15,-12.19 18.17,18.17 0 0 1 3.77,-2.59 c 0.31,-0.16 0.63,-0.31 0.95,-0.45 a 27.55,27.55 0 0 1 13.51,-2 l 1.14,0.12 a 30.6,30.6 0 0 1 11.28,3.38 c 1.37,0.79 3.15,3.81 5.16,8.4 0.1,0.2 0.19,0.42 0.28,0.64 3,7 6.59,17.44 10.08,28.79 1.23,4 3.28,14.2 5.55,26.92 l 0.15,0.86 c 0.79,4.39 1.6,9.09 2.41,13.93 0.12,0.69 0.24,1.37 0.35,2.06 1.65,9.88 3.3,20.26 4.77,29.94 0.05,0.39 0.11,0.79 0.18,1.17 1.24,8.28 2.34,16 3.19,22.39 0.06,0.51 0.12,1 0.19,1.5 1.13,9.18 1.71,15.31 1.33,15.78 z"
       style="fill:#ffc727"
       id="path409" />
    <path
       d="m 165.48,381.59 a 25.64,25.64 0 0 0 -7.55,-7 28.63,28.63 0 0 0 -10.34,-3.59 c -3.82,-0.66 -7.83,-1 -11.41,-2.66 -3.42,-1.55 -5.82,-4.32 -8.21,-7.11 -0.63,-0.73 -1.28,-1.46 -1.94,-2.16 0.75,-0.51 1.51,-1 2.29,-1.51 4.49,-2.76 9.45,-4.84 13.6,-8.12 a 20.53,20.53 0 0 0 7.44,-11.67 24,24 0 0 0 -1,-13.7 26.76,26.76 0 0 0 -8.42,-11.19 36.23,36.23 0 0 0 -27.29,-7.08 40,40 0 0 0 -11.58,3.38 c -0.17,0.52 -0.35,1 -0.52,1.55 a 37.59,37.59 0 0 1 5.52,-2.25 36.8,36.8 0 0 1 27.75,1.95 28.94,28.94 0 0 1 10.51,8.88 23.29,23.29 0 0 1 4.27,12.69 20.38,20.38 0 0 1 -3.67,12.64 c -3,4.07 -7.57,6.53 -11.91,8.88 -2.68,1.46 -5.28,3 -7.81,4.71 a 15.58,15.58 0 0 0 -5.16,-3.54 14.83,14.83 0 0 0 -10,-0.06 C 103,357 98.81,363.83 98,371 a 28.21,28.21 0 0 0 1.36,11.84 53.13,53.13 0 0 1 -9.79,7.9 30,30 0 0 1 -6.84,3.12 c 0,0.34 -0.07,0.69 -0.1,1 0.43,-0.12 0.86,-0.25 1.28,-0.4 6.13,-2.07 11.23,-6.05 15.84,-10.52 a 48.35,48.35 0 0 0 5,9.87 71.21,71.21 0 0 0 9.1,11.32 l 0.54,-0.05 a 72.37,72.37 0 0 1 -5.53,-6.58 56,56 0 0 1 -8.43,-15.21 c 1.71,-1.7 3.36,-3.47 5,-5.22 3.16,-3.44 6.27,-7 9.64,-10.21 a 78.33,78.33 0 0 1 10.13,-8.23 c 2.15,2.29 4,4.88 6.34,7 a 20.32,20.32 0 0 0 9.62,4.41 c 3.67,0.77 7.45,1.08 11.06,2.19 a 23.05,23.05 0 0 1 8.65,5 23.88,23.88 0 0 1 8,17.73 20.82,20.82 0 0 1 -0.23,2.95 l 1.3,-0.17 a 24.36,24.36 0 0 0 -4.46,-17.15 z m -45.79,-19.31 a 99.15,99.15 0 0 0 -10.63,10.17 c -3,3.22 -5.89,6.59 -9,9.74 a 30,30 0 0 1 -1.14,-5.45 c -0.78,-7 1.35,-15 7.37,-19.18 a 15.36,15.36 0 0 1 9.42,-2.79 13.22,13.22 0 0 1 8.66,4.07 c -1.59,1.09 -3.16,2.22 -4.68,3.44 z m 79.37,-10 c -3.46,2.77 -6.75,5.79 -10.62,8 -5.57,3.18 -13.23,4.87 -18.3,-0.18 a 11.84,11.84 0 0 1 -1,-15.89 c 2,-2.8 4.47,-5.15 6.41,-8 a 51.34,51.34 0 0 0 4.15,-7.51 11.78,11.78 0 0 0 7.57,-0.27 14.09,14.09 0 0 0 7,-6.12 c -0.11,-0.69 -0.23,-1.37 -0.35,-2.06 a 17.15,17.15 0 0 1 -3,4.18 10.91,10.91 0 0 1 -8.74,3.41 12.72,12.72 0 0 1 -1.94,-0.35 c 0.15,-0.31 0.29,-0.63 0.43,-1 2.81,-6.42 5.16,-13.21 9.58,-18.77 a 19,19 0 0 1 1.25,-1.44 l -0.15,-0.86 c -4.16,4.32 -6.84,9.94 -9.21,15.37 -0.93,2.13 -1.84,4.27 -2.83,6.39 a 15.53,15.53 0 0 1 -5.88,-3.76 c -5.43,-5.53 -5.84,-14.07 -5.28,-21.35 0.36,-4.44 1,-8.86 1.22,-13.3 a 75.54,75.54 0 0 0 -1,-13.09 38,38 0 0 1 -0.16,-12.08 26.51,26.51 0 0 1 3.55,-8.91 27.06,27.06 0 0 1 3.92,-5 c -0.09,-0.22 -0.18,-0.44 -0.28,-0.64 -0.38,0.36 -0.75,0.73 -1.12,1.12 A 27,27 0 0 0 166.87,269 c 0,4.56 0.91,9.05 1.26,13.59 a 71.12,71.12 0 0 1 -0.67,14 c -0.93,8.09 -1.76,17 2.46,24.36 a 17.17,17.17 0 0 0 8.87,7.52 c -0.47,1 -0.95,2 -1.47,2.92 a 45.07,45.07 0 0 1 -3.08,4.93 c -1.07,1.46 -2.27,2.82 -3.45,4.19 -2.17,2.53 -4.38,5.29 -5,8.63 a 13.06,13.06 0 0 0 1.26,8.42 12.47,12.47 0 0 0 6.17,5.88 15.15,15.15 0 0 0 10.14,0.27 c 6.26,-1.83 11,-6.24 15.93,-10.22 -0.12,-0.38 -0.18,-0.78 -0.23,-1.17 z m 3.56,25.06 c -3.15,-2.5 -6.51,-5 -10.63,-5.33 a 8.45,8.45 0 0 0 -5.72,1.41 9.4,9.4 0 0 0 -3.27,4.58 17.31,17.31 0 0 0 0.45,12.31 20.54,20.54 0 0 0 4,6.14 l -1.08,0.15 a 21.2,21.2 0 0 1 -2.91,-4 19.35,19.35 0 0 1 -2.25,-6.64 c -0.62,-4.05 0,-8.61 2.66,-11.86 2.89,-3.52 7.6,-3.88 11.65,-2.4 a 25.44,25.44 0 0 1 6.94,4.2 c 0.03,0.49 0.09,0.99 0.16,1.48 z M 158,238.94 c 0.36,-0.5 0.69,-1 1,-1.54 l -1.14,-0.12 a 50.79,50.79 0 0 1 -8.21,9.69 l -0.62,0.59 a 20.94,20.94 0 0 0 -2.93,-6.19 17.36,17.36 0 0 0 -1.75,-2.08 c -0.32,0.14 -0.64,0.29 -0.95,0.45 a 18.67,18.67 0 0 1 4.53,7.59 c 0.1,0.33 0.19,0.66 0.28,1 a 31.74,31.74 0 0 1 -9.36,6.42 c -3.28,1.33 -7.28,1.6 -10.37,-0.22 -0.21,0.24 -0.4,0.49 -0.6,0.75 a 11.91,11.91 0 0 0 8.45,1.31 c 4.59,-0.87 8.51,-3.9 11.94,-6.91 l 0.23,-0.2 c 1.44,6.18 0.9,12.7 1.87,19 1.11,7.17 4.55,14.42 2.78,21.76 a 12.63,12.63 0 0 1 -4.43,7.31 10.35,10.35 0 0 1 -9.49,1.14 c -7.08,-2.27 -11.21,-9 -17.07,-13.14 a 59.9,59.9 0 0 0 -9.48,-5 c -0.14,0.27 -0.26,0.53 -0.39,0.8 2,0.95 4,1.84 5.82,2.85 a 31.12,31.12 0 0 1 4.1,2.59 47.76,47.76 0 0 1 4.32,3.84 c 2.71,2.64 5.37,5.45 8.67,7.38 3,1.75 6.59,2.86 10.07,2.19 a 10.8,10.8 0 0 0 7.11,-5.3 17.7,17.7 0 0 0 2.28,-8.86 c 0,-4 -1.09,-8 -2.06,-11.87 a 59.76,59.76 0 0 1 -1.31,-6.25 c -0.26,-1.86 -0.41,-3.72 -0.52,-5.59 a 105.23,105.23 0 0 0 -0.92,-11.07 c -0.14,-0.85 -0.31,-1.69 -0.51,-2.53 a 58.57,58.57 0 0 0 8.66,-9.79 z"
       style="fill:#ffffff"
       id="path411" />
    <path
       d="m 128.19,259 c -19.49,40.57 -45.58,141.39 -49.41,156.21 -2.61,10.06 49.92,20.25 51.31,13.26 1.6,-8 21.69,-126 19.69,-168.5 C 148.69,236.71 134.93,245 128.19,259 Z"
       style="fill:#eb9481"
       id="path413" />
    <path
       d="m 130.74,423.82 c -0.62,7.64 -5,23.18 -8.68,25.71 -3.68,2.53 -23.87,3.09 -34,3.63 C 77.93,453.7 75.75,451 75.73,447.47 75.71,443.94 97,442.18 97,442.18 c 0,0 -28,9.65 -35.09,11.35 -7.09,1.7 -23.34,6.73 -26,0.93 -1.28,-2.62 3.09,-5.56 3.09,-5.56 0,0 -6.81,2.38 -8.09,-1 -1.46,-3.85 3.93,-6.29 3.93,-6.29 0,0 -4.28,1.1 -4.54,-2.09 -0.6,-7.11 26.26,-12 26.26,-12 0,0 -20.18,11.17 -21.15,5.39 -1.34,-8 40.63,-19.06 44.86,-22.8 a 82,82 0 0 0 8.53,-9.21 z"
       style="fill:#eb9481"
       id="path415" />
    <path
       d="m 76,449.23 a 3.12,3.12 0 0 1 0.82,-2.77 8.87,8.87 0 0 1 2.39,-1.73 33.21,33.21 0 0 1 5.71,-2.19 c 3.95,-1.23 8,-2.16 12,-3.43 a 49.44,49.44 0 0 0 -12.46,2.07 22.86,22.86 0 0 0 -5.86,2.6 8,8 0 0 0 -2.38,2.27 3.25,3.25 0 0 0 -0.22,3.18 z"
       style="fill:#263238"
       id="path417" />
    <path
       d="m 39,448.9 c 2.89,-0.87 5.73,-1.85 8.56,-2.83 2.83,-0.98 5.65,-2 8.47,-3 l 8.43,-3.14 c 2.81,-1 5.61,-2.08 8.45,-3.09 a 68.07,68.07 0 0 0 -8.8,2.05 c -2.9,0.82 -5.74,1.82 -8.57,2.84 -2.83,1.02 -5.62,2.14 -8.37,3.35 -2.75,1.21 -5.5,2.4 -8.17,3.82 z"
       style="fill:#263238"
       id="path419" />
    <path
       d="m 65.67,430.07 a 57.87,57.87 0 0 0 -8.14,1.56 78.18,78.18 0 0 0 -7.92,2.49 72.3,72.3 0 0 0 -7.61,3.31 58.16,58.16 0 0 0 -7.16,4.18 c 2.57,-1 5.06,-2.18 7.61,-3.18 2.55,-1 5.09,-2 7.66,-3 2.57,-1 5.15,-1.87 7.73,-2.78 2.58,-0.91 5.21,-1.72 7.83,-2.58 z"
       style="fill:#263238"
       id="path421" />
    <path
       d="m 61.13,423.5 a 51.11,51.11 0 0 0 -12.91,3.44 50.83,50.83 0 0 0 -11.71,6.45 c 4.13,-1.72 8.14,-3.51 12.24,-5.12 4.1,-1.61 8.25,-3.18 12.38,-4.77 z"
       style="fill:#263238"
       id="path423" />
    <path
       d="m 150.79,305.61 -46.82,0.23 c 0,0 12.71,-37.63 24.81,-53.18 12.1,-15.55 21.81,-13.5 22.89,4.8 1.08,18.3 -0.88,48.15 -0.88,48.15 z"
       style="fill:#ffc727"
       id="path425" />
    <path
       d="m 151.67,257.46 c 0.06,0.83 0.1,1.7 0.13,2.57 0,0.39 0,0.78 0.06,1.18 0.66,18.33 -1.06,44.4 -1.06,44.4 l -12.72,0.07 h -1.27 l -32.83,0.18 c 0,0 5.39,-16 12.47,-31.38 0.24,-0.51 0.47,-1 0.73,-1.54 3.61,-7.72 7.63,-15.17 11.59,-20.26 12.11,-15.57 21.81,-13.51 22.9,4.78 z"
       style="fill:#ffc727"
       id="path427" />
    <path
       d="m 112.85,305.8 9.51,-0.06 a 38.8,38.8 0 0 0 -9.51,0.06 z m 38.47,-37.92 c -0.26,-1.86 -0.41,-3.72 -0.52,-5.59 a 105.23,105.23 0 0 0 -0.92,-11.07 c -0.14,-0.85 -0.31,-1.69 -0.51,-2.53 0.18,-0.18 0.37,-0.34 0.56,-0.53 -0.14,-0.36 -0.28,-0.7 -0.43,-1 -0.14,0.15 -0.3,0.28 -0.44,0.43 a 22.61,22.61 0 0 0 -1,-2.82 6.85,6.85 0 0 0 -2,-1.76 19.9,19.9 0 0 1 2,4.35 c 0.1,0.33 0.19,0.66 0.28,1 a 31.74,31.74 0 0 1 -9.36,6.42 c -3.55,1.45 -7.95,1.64 -11.12,-0.72 -0.19,0.26 -0.37,0.51 -0.55,0.78 a 11.72,11.72 0 0 0 9.15,1.78 c 4.59,-0.87 8.51,-3.9 11.94,-6.91 l 0.23,-0.2 c 1.44,6.18 0.9,12.7 1.87,19 0.37,2.34 1,4.7 1.58,7.06 0,-1.33 0,-2.66 0,-4 -0.35,-1.26 -0.59,-2.47 -0.76,-3.69 z m -2.57,29.62 a 10.35,10.35 0 0 1 -9.49,1.14 c -7.08,-2.27 -11.21,-9 -17.07,-13.14 a 54,54 0 0 0 -8.59,-4.58 c -0.13,0.27 -0.24,0.55 -0.36,0.83 1.66,0.79 3.33,1.56 4.9,2.41 a 31.12,31.12 0 0 1 4.1,2.59 47.76,47.76 0 0 1 4.32,3.84 c 2.71,2.64 5.37,5.45 8.67,7.38 3,1.75 6.59,2.86 10.07,2.19 a 10.4,10.4 0 0 0 6,-3.72 c 0,-0.59 0.06,-1.21 0.08,-1.85 a 10.34,10.34 0 0 1 -2.63,2.91 z"
       style="fill:#ffffff"
       id="path429" />
    <path
       d="m 110,295 c 3,-0.92 24.61,-2.35 39.93,-1.33 a 0.18,0.18 0 0 1 0,0.36 c -1.69,0.1 -36.73,2 -39.93,1.46 -0.31,-0.01 -0.26,-0.38 0,-0.49 z"
       style="fill:#263238"
       id="path431" />
    <path
       d="m 153.76,277.23 a 0.12,0.12 0 0 0 -0.24,0 42,42 0 0 0 -1,4.84 c -0.07,0.37 -0.12,0.75 -0.19,1.12 -0.13,-4 -0.32,-7.89 -0.53,-11.81 0,-0.18 -0.3,-0.18 -0.29,0 0.12,13.59 -0.24,26 -1.07,33.86 l -4.06,0.34 a 0.25,0.25 0 0 0 0,0.49 l 5.16,0.18 c 0.22,0 1.08,-11.32 0.87,-20.24 0.28,-1.29 0.58,-2.57 0.79,-3.87 a 32.28,32.28 0 0 0 0.56,-4.91 z"
       style="fill:#263238"
       id="path433" />
    <path
       d="m 110.3,305.85 c -2.11,0.13 -4.22,0.24 -6.32,0.3 h -0.42 l 0.13,-0.41 c 0.82,-2.58 1.66,-5.15 2.58,-7.69 0.92,-2.54 1.85,-5.09 2.85,-7.6 1,-2.51 2,-5 3.17,-7.48 1.17,-2.48 2.29,-4.91 3.6,-7.28 l -3,7.56 -2.88,7.56 -2.88,7.57 -2.87,7.62 -0.28,-0.4 c 2.1,0.01 4.21,0.12 6.32,0.25 z"
       style="fill:#263238"
       id="path435" />
    <path
       d="m 167.48,261.51 c -7.12,2.35 -20.56,-7.66 -26.27,-16.22 -0.39,-0.59 0,-25.47 -0.4,-30.4 -0.09,-1 31.67,4.82 31.67,4.82 0,0 -2.15,10.62 -1.35,19.22 0.08,0.72 3.23,20.31 -3.65,22.58 z"
       style="fill:#eb9481"
       id="path437" />
    <path
       d="m 172.49,219.7 v 0 c 0,0.15 -0.15,0.77 -0.31,1.77 -0.28,1.7 -0.7,4.45 -0.95,7.57 a 56.89,56.89 0 0 0 -0.07,9.86 4.7,4.7 0 0 0 0.08,0.68 v 0.11 c 0.07,0.4 0.13,0.94 0.2,1.58 a 19.48,19.48 0 0 1 -3,0.43 c -16.91,1.08 -24.39,-19.13 -26.65,-26.95 l 0.54,0.05 c 0.83,0.06 1.93,0.19 3.25,0.36 l 1,0.14 c 2.11,0.3 4.63,0.7 7.25,1.12 0.86,0.14 1.72,0.27 2.6,0.43 1.88,0.33 3.78,0.65 5.54,0.94 0.76,0.15 1.51,0.28 2.21,0.4 0.7,0.12 1.55,0.27 2.26,0.39 l 1,0.18 0.49,0.1 2.63,0.47 1.26,0.22 a 4.57,4.57 0 0 1 0.53,0.12 c 0.05,0 0.07,0 0.09,0 z"
       style="fill:#263238"
       id="path439" />
    <path
       d="m 134.73,178.64 c -3,11.13 3.86,42.76 11.93,49.6 11.72,9.91 30.37,10.28 38.68,-3.66 8,-13.51 -1.63,-54.59 -10.6,-60.75 -13.22,-9.07 -35.57,-1.63 -40.01,14.81 z"
       style="fill:#eb9481"
       id="path441" />
    <path
       d="m 139.32,209.6 c 5.65,-1.82 3.15,-16.52 3.15,-16.52 0,0 6.74,-4 6.65,-17.76 0,0 7.28,12.27 30.83,5.05 a 21,21 0 0 0 -4,-12.23 89.09,89.09 0 0 1 8.4,11.86 c 0,0 2.17,-21 -16.17,-25 -7.3,-1.59 -17.53,0.83 -31.85,11.4 0,0 -4.69,-8.87 -6.28,-7.31 -1.59,1.56 3.47,9.72 3.47,9.72 0,0 -7.28,-0.9 -8.18,0.75 -0.78,1.42 6.18,2 6.18,2 0,0 -10,5.25 -6,17.1 3.59,10.84 11,21.85 13.8,20.94 z"
       style="fill:#263238"
       id="path443" />
    <path
       d="m 133.4,171 a 12.68,12.68 0 0 0 -10.86,12.81 c 0.11,3.53 1.64,7.09 3.32,10.15 a 43.8,43.8 0 0 0 6.85,8.9 c 0.14,0.15 0.36,-0.1 0.21,-0.25 a 33.52,33.52 0 0 1 -5.75,-8.52 30.9,30.9 0 0 1 -3.24,-9.3 12.17,12.17 0 0 1 9.54,-13.44 0.18,0.18 0 0 0 -0.07,-0.35 z"
       style="fill:#263238"
       id="path445" />
    <path
       d="m 153.83,154.11 a 48.67,48.67 0 0 0 -11,6.45 35.47,35.47 0 0 0 -8.56,8.55 c -0.11,0.17 0.11,0.37 0.25,0.21 5.25,-5.63 12.09,-9.89 19,-13.25 6.43,-3.15 14.46,-4.58 20.62,0 a 0.1,0.1 0 1 0 0.12,-0.15 c -5.68,-4.92 -13.86,-4.47 -20.43,-1.81 z"
       style="fill:#263238"
       id="path447" />
    <path
       d="m 142.77,204.55 c 0,0 -7.36,-10.19 -12,-7.55 -4.64,2.64 1,17.48 6.52,19.44 a 5.59,5.59 0 0 0 7.44,-3.11 z"
       style="fill:#eb9481"
       id="path449" />
    <path
       d="m 132.49,201.21 c -0.09,0 -0.1,0.12 0,0.15 3.87,1.5 5.95,5 7.42,8.71 -1.16,-1.4 -2.73,-2.16 -4.62,-0.77 -0.1,0.07 0,0.23 0.1,0.2 a 3.44,3.44 0 0 1 3.8,1.14 17.11,17.11 0 0 1 1.86,3 c 0.18,0.34 0.8,0.15 0.67,-0.25 a 0.59,0.59 0 0 1 0,-0.08 c -0.03,-4.88 -3.95,-11.68 -9.23,-12.1 z"
       style="fill:#263238"
       id="path451" />
    <path
       d="m 167.71,196.8 c 0,-0.07 -0.14,0.13 -0.13,0.22 0.45,2.1 0.6,4.59 -1.19,5.63 a 0.06,0.06 0 0 0 0,0.11 c 2.31,-0.76 2.08,-4.03 1.32,-5.96 z"
       style="fill:#263238"
       id="path453" />
    <path
       d="m 165.43,194.93 c -3.44,0.35 -2.5,7.22 0.69,6.9 3.19,-0.32 2.2,-7.19 -0.69,-6.9 z"
       style="fill:#263238"
       id="path455" />
    <path
       d="m 179.82,194.32 c 0,-0.08 0.18,0.08 0.19,0.17 0.23,2.13 0.85,4.54 2.87,5 0.06,0 0.07,0.12 0,0.12 -2.4,-0.02 -3.19,-3.23 -3.06,-5.29 z"
       style="fill:#263238"
       id="path457" />
    <path
       d="m 181.42,191.84 c 3.39,-0.73 4.6,6.1 1.46,6.77 -3.14,0.67 -4.3,-6.16 -1.46,-6.77 z"
       style="fill:#263238"
       id="path459" />
    <path
       d="m 162.21,193 a 26.31,26.31 0 0 0 2.53,-1.31 4.55,4.55 0 0 0 2.33,-1.82 1.47,1.47 0 0 0 -0.47,-1.72 3.65,3.65 0 0 0 -3.69,0.13 5.33,5.33 0 0 0 -2.73,2.7 1.57,1.57 0 0 0 2.03,2.02 z"
       style="fill:#263238"
       id="path461" />
    <path
       d="m 183.08,188.08 a 26.66,26.66 0 0 1 -2.83,-0.34 4.62,4.62 0 0 1 -2.82,-0.89 1.46,1.46 0 0 1 -0.16,-1.78 3.63,3.63 0 0 1 3.49,-1.17 5.27,5.27 0 0 1 3.51,1.58 1.56,1.56 0 0 1 -1.19,2.6 z"
       style="fill:#263238"
       id="path463" />
    <path
       d="m 168.11,215.73 c 0.58,0.43 1.18,1 2,1 a 5.59,5.59 0 0 0 2.21,-0.85 c 0.07,0 0.15,0 0.11,0.1 a 2.91,2.91 0 0 1 -2.54,1.53 2.29,2.29 0 0 1 -1.93,-1.66 c -0.09,-0.12 0.04,-0.18 0.15,-0.12 z"
       style="fill:#263238"
       id="path465" />
    <path
       d="m 169.47,209.05 a 7.32,7.32 0 0 0 5.28,2.56 9.28,9.28 0 0 0 2.62,-0.24 3.51,3.51 0 0 0 0.49,-0.12 l 0.46,-0.14 a 0.53,0.53 0 0 0 0.36,-0.53 v 0 l -0.05,-0.22 v 0 -0.19 c -0.19,-1.64 -0.69,-4.11 -0.69,-4.11 0.64,0.22 3.88,1.17 3.72,0.32 -1.4,-7 -2.95,-14.84 -5.82,-21.54 a 0.202608,0.202608 0 0 0 -0.39,0.11 c 1.08,6.81 3.34,13.38 4.53,20.2 a 12.48,12.48 0 0 0 -3.56,-0.57 c -0.22,0.1 1.05,4.76 1.08,5.5 a 0.45,0.45 0 0 1 0,0.08 c -2.7,0.73 -4.89,0.18 -7.82,-1.3 -0.21,-0.13 -0.36,0.04 -0.21,0.19 z"
       style="fill:#263238"
       id="path467" />
    <path
       d="m 176.29,210.67 a 8.66,8.66 0 0 1 -3.07,3.14 3.86,3.86 0 0 1 -2.33,0.47 c -1.76,-0.21 -2,-1.76 -1.89,-3.14 a 9.33,9.33 0 0 1 0.48,-2.15 11.24,11.24 0 0 0 6.81,1.68 z"
       style="fill:#263238"
       id="path469" />
    <path
       d="m 173.22,213.81 a 3.86,3.86 0 0 1 -2.33,0.47 c -1.76,-0.21 -2,-1.76 -1.89,-3.14 1.85,-0.06 3.82,0.92 4.22,2.67 z"
       style="fill:#ff9abb"
       id="path471" />
  </g>
</svg>
