<?xml version="1.0" encoding="UTF-8" standalone="no"?>
<svg
   viewBox="0 0 500 500"
   version="1.1"
   id="svg483"
   sodipodi:docname="101.svg"
   inkscape:version="1.1.2 (0a00cf5339, 2022-02-04)"
   xmlns:inkscape="http://www.inkscape.org/namespaces/inkscape"
   xmlns:sodipodi="http://sodipodi.sourceforge.net/DTD/sodipodi-0.dtd"
   xmlns="http://www.w3.org/2000/svg"
   xmlns:svg="http://www.w3.org/2000/svg">
  <defs
     id="defs487" />
  <sodipodi:namedview
     id="namedview485"
     pagecolor="#ffffff"
     bordercolor="#666666"
     borderopacity="1.0"
     inkscape:pageshadow="2"
     inkscape:pageopacity="0.0"
     inkscape:pagecheckerboard="0"
     showgrid="false"
     inkscape:zoom="1.132"
     inkscape:cx="185.07067"
     inkscape:cy="250.4417"
     inkscape:window-width="1478"
     inkscape:window-height="800"
     inkscape:window-x="0"
     inkscape:window-y="0"
     inkscape:window-maximized="1"
     inkscape:current-layer="svg483" />
  <g
     id="freepik--background-complete--inject-87"
     transform="matrix(0.5,0,0,0.5,264.60453,49.606514)">
    <rect
       x="46.990002"
       y="40.91"
       width="136.06"
       height="207.55"
       transform="rotate(180,115.015,144.69)"
       style="fill:#ebebeb"
       id="rect2" />
    <rect
       x="125.54"
       y="49.23"
       width="57.509998"
       height="92.32"
       transform="rotate(180,154.29,95.385)"
       style="fill:#ffffff"
       id="rect4" />
    <rect
       x="61.740002"
       y="49.23"
       width="57.509998"
       height="92.32"
       transform="rotate(180,90.495,95.385)"
       style="fill:#ffffff"
       id="rect6" />
    <rect
       x="125.54"
       y="147.83"
       width="57.509998"
       height="92.32"
       transform="rotate(180,154.29,193.99)"
       style="fill:#ffffff"
       id="rect8" />
    <rect
       x="61.740002"
       y="147.83"
       width="57.509998"
       height="92.32"
       transform="rotate(180,90.495,193.99)"
       style="fill:#ffffff"
       id="rect10" />
    <polygon
       points="46.98,337.85 77.36,337.85 56.16,186.75 99.47,40.91 46.98,40.91 "
       style="fill:#dbdbdb"
       id="polygon12" />
    <polygon
       points="73.59,117.93 56.64,186.87 56.65,186.7 64.49,258.75 68.41,294.78 72.16,330.82 67.92,294.83 63.83,258.82 55.66,186.81 55.66,186.72 55.68,186.63 72.95,117.77 81.59,83.34 90.38,48.94 82.06,83.45 "
       style="fill:#ebebeb"
       id="polygon14" />
    <polygon
       points="50.49,114.59 50.61,174.15 50.49,233.7 50.35,263.48 50.11,293.26 49.86,263.48 49.72,233.7 49.61,174.15 49.73,114.59 49.87,84.81 50.11,55.03 50.35,84.81 "
       style="fill:#ebebeb"
       id="polygon16" />
    <path
       d="M 59.92,60.61 58.29,92.26 56.52,123.91 53,187.19 v 0 c 0.35,11.76 0.58,23.51 0.87,35.26 l 0.83,35.26 0.83,35.26 0.67,35.27 L 55,293 54,257.74 53,222.49 c -0.32,-11.76 -0.71,-23.51 -1,-35.26 v 0 l 3.88,-63.27 1.95,-31.63 z"
       style="fill:#ebebeb"
       id="path18" />
    <path
       d="M 66.75,323.63 63.31,289.47 60,255.29 C 57.87,232.5 55.65,209.72 53.6,186.92 v -0.13 l 9.73,-53.21 4.93,-26.58 5,-26.58 -4.59,26.66 L 64,133.71 54.53,187 v -0.13 c 2.18,22.79 4.19,45.59 6.29,68.39 l 3,34.2 z"
       style="fill:#ebebeb"
       id="path20" />
    <rect
       x="46.990002"
       y="184.25999"
       width="11.85"
       height="6.9200001"
       transform="rotate(180,52.91,187.725)"
       style="fill:#dbdbdb"
       id="rect22" />
    <polygon
       points="183.05,337.85 152.67,337.85 173.87,186.75 130.56,40.91 183.05,40.91 "
       style="fill:#dbdbdb"
       id="polygon24" />
    <polygon
       points="157.08,117.77 174.35,186.63 174.38,186.72 174.37,186.81 166.2,258.82 162.11,294.83 157.87,330.82 161.62,294.78 165.54,258.75 173.38,186.7 173.39,186.87 156.44,117.93 147.97,83.45 139.65,48.94 148.44,83.34 "
       style="fill:#ebebeb"
       id="polygon26" />
    <polygon
       points="180.31,114.59 180.42,174.15 180.31,233.7 180.17,263.48 179.92,293.26 179.68,263.48 179.54,233.7 179.42,174.15 179.54,114.59 179.68,84.81 179.92,55.03 180.17,84.81 "
       style="fill:#ebebeb"
       id="polygon28" />
    <path
       d="m 170.12,60.61 2.08,31.63 2,31.63 3.8,63.27 v 0 c -0.26,11.75 -0.65,23.5 -1,35.26 l -1,35.25 -1,35.35 -1.17,35.25 0.67,-35.27 0.83,-35.26 0.83,-35.26 c 0.3,-11.75 0.52,-23.5 0.87,-35.26 v 0 l -3.56,-63.28 -1.77,-31.65 z"
       style="fill:#ebebeb"
       id="path30" />
    <path
       d="m 163.28,323.63 2.91,-34.21 3,-34.2 c 2.1,-22.8 4.11,-45.6 6.29,-68.39 V 187 l -9.48,-53.29 -4.67,-26.64 -4.6,-26.66 5,26.58 4.94,26.59 9.73,53.21 v 0.13 c -2.06,22.8 -4.27,45.58 -6.4,68.37 l -3.33,34.18 z"
       style="fill:#ebebeb"
       id="path32" />
    <rect
       x="171.19"
       y="184.25999"
       width="11.85"
       height="6.9200001"
       style="fill:#dbdbdb"
       id="rect34" />
    <path
       d="m 336.85,269.18 v 137.27 h 83 V 269.18 Z m 75.44,86.61 h -67.91 v -35.74 h 67.91 z m 0,-44.25 h -67.91 v -35.73 h 67.91 z"
       style="fill:#ebebeb"
       id="path36" />
    <rect
       x="419.82999"
       y="269.17999"
       width="33.18"
       height="137.25999"
       style="fill:#dbdbdb"
       id="rect38" />
    <rect
       x="344.38"
       y="275.81"
       width="16.139999"
       height="35.73"
       style="fill:#dbdbdb"
       id="rect40" />
    <path
       d="m 412.79,398.33 h -68.48 v -35.07 h 68.48 z m -67.48,-1 h 66.48 v -33.07 h -66.48 z"
       style="fill:#dbdbdb"
       id="path42" />
    <rect
       x="369.01999"
       y="373.34"
       width="13.4"
       height="6.7800002"
       style="fill:#dbdbdb"
       id="rect44" />
    <path
       d="m 386.89,380.12 h -14.41 v -6.76 h 14.41 z m -13.41,-1 h 12.41 v -4.76 h -12.41 z"
       style="fill:#dbdbdb"
       id="path46" />
    <rect
       x="344.38"
       y="320.06"
       width="16.139999"
       height="35.73"
       style="fill:#dbdbdb"
       id="rect48" />
    <path
       d="m 418.91,211.65 c 9.5,9.3 11.09,23.68 9.09,36.28 -0.05,0.29 -0.49,0.21 -0.49,-0.06 0,-2.87 0.08,-5.71 0.07,-8.54 l -0.14,-0.38 a 19.12,19.12 0 0 1 -6.17,-6.63 c -1.59,-3.12 -2.21,-6.64 -3.43,-9.9 -0.11,-0.31 0.22,-0.22 0.44,-0.06 5.78,4.26 7.62,8.85 9.28,15 a 50.68,50.68 0 0 0 -1,-9.54 c -1.25,-5.81 -3.72,-11.58 -7.89,-15.89 a 0.18439089,0.18439089 0 1 1 0.24,-0.28 z"
       style="fill:#a6a6a6"
       id="path50" />
    <path
       d="m 417.12,212.73 c -1.63,0.06 -2.65,2.67 -3.93,3.43 a 1.22,1.22 0 0 1 -1.8,-0.28 c -1.26,-1.76 0.47,-3.94 2.1,-5.15 -1.17,0.48 -2.13,1.32 -3.39,1.56 a 1.19,1.19 0 0 1 -1.53,-0.92 c -0.55,-2.4 2.46,-3.47 4.53,-3.52 -1,-0.7 -3.88,-2.59 -2.35,-3.52 1.53,-0.93 4.91,1.77 6,2.66 1.62,1.31 3.55,3.27 3.62,5.32 0.1,2.4 -1.99,0.92 -3.25,0.42 z"
       style="fill:#dbdbdb"
       id="path52" />
    <path
       d="m 417.6,213.13 c -2.09,-0.95 -6.11,0.42 -6.45,-0.37 -0.69,-1.61 2.52,-2.71 4.25,-2.93 -1.6,-0.43 -4.65,-1.12 -4.56,-2.65 0.12,-1.88 4.69,-0.27 7,1.51 2.92,2.23 2.9,4.39 2.42,4.82 -0.66,0.59 -2.32,-0.22 -2.66,-0.38 z"
       style="fill:#ebebeb"
       id="path54" />
    <path
       d="m 440.54,210.73 c -9.84,8.93 -12,23.24 -10.46,35.91 0,0.29 0.48,0.23 0.49,0 0.11,-2.87 0.13,-5.71 0.25,-8.54 0.06,-0.13 0.1,-0.25 0.16,-0.38 a 19,19 0 0 0 6.42,-6.39 c 1.7,-3.06 2.46,-6.55 3.8,-9.76 0.12,-0.31 -0.22,-0.23 -0.44,-0.07 -5.93,4 -7.95,8.55 -9.84,14.61 a 50.62,50.62 0 0 1 1.37,-9.5 c 1.47,-5.76 4.15,-11.43 8.49,-15.58 0.16,-0.2 -0.07,-0.46 -0.24,-0.3 z"
       style="fill:#a6a6a6"
       id="path56" />
    <path
       d="m 442.28,211.88 c 1.63,0.12 2.56,2.76 3.8,3.57 a 1.21,1.21 0 0 0 1.81,-0.21 c 1.33,-1.71 -0.31,-4 -1.9,-5.23 1.15,0.53 2.08,1.4 3.33,1.69 a 1.18,1.18 0 0 0 1.56,-0.86 c 0.64,-2.38 -2.32,-3.56 -4.39,-3.69 1,-0.65 4,-2.44 2.48,-3.42 -1.52,-0.98 -5,1.58 -6.11,2.43 -1.66,1.25 -3.66,3.13 -3.81,5.18 -0.19,2.38 1.95,0.99 3.23,0.54 z"
       style="fill:#dbdbdb"
       id="path58" />
    <path
       d="m 441.8,212.26 c 2.12,-0.87 6.08,0.65 6.45,-0.13 0.75,-1.58 -2.41,-2.8 -4.13,-3.08 1.61,-0.37 4.69,-0.94 4.65,-2.48 0,-1.89 -4.67,-0.45 -7,1.24 -3,2.12 -3.06,4.28 -2.6,4.73 0.59,0.61 2.27,-0.13 2.63,-0.28 z"
       style="fill:#ebebeb"
       id="path60" />
    <path
       d="m 430.47,234.31 a 97.14,97.14 0 0 1 -3.05,14.13 0.35202983,0.35202983 0 0 1 -0.69,-0.14 c 0.64,-4.36 1.82,-8.63 2.47,-13 A 65.27,65.27 0 0 0 430,222 c -0.42,-7.33 -2.41,-15.13 -7.19,-20.87 -0.11,-0.14 0.11,-0.33 0.22,-0.2 9.58,11.17 8.06,24.86 8.05,26.09 1.36,-4.62 2.75,-9.92 7.88,-14.63 0.22,-0.21 0.4,-0.11 0.36,0.24 -0.92,8.57 -3.3,13.05 -8.27,17.64 -0.19,1.36 -0.36,2.73 -0.58,4.04 z"
       style="fill:#a6a6a6"
       id="path62" />
    <path
       d="m 422.68,202.41 c -1.72,-0.76 -4.1,1.43 -5.81,1.58 a 1.4,1.4 0 0 1 -1.72,-1.2 c -0.43,-2.46 2.46,-3.84 4.76,-4.29 -1.45,-0.08 -2.87,0.3 -4.29,-0.08 a 1.37,1.37 0 0 1 -1.13,-1.72 c 0.64,-2.77 4.3,-2.36 6.47,-1.38 -0.69,-1.22 -2.72,-4.63 -0.67,-4.83 2.05,-0.2 4.21,4.31 4.9,5.79 1,2.17 2,5.18 1.08,7.34 -1.11,2.53 -2.54,-0.05 -3.59,-1.21 z"
       style="fill:#dbdbdb"
       id="path64" />
    <path
       d="m 423,203.07 c -1.69,-2 -6.55,-2.64 -6.5,-3.63 0.09,-2 4,-1.55 5.88,-0.9 -1.44,-1.25 -4.26,-3.5 -3.39,-5 1.06,-1.89 5,2.09 6.5,5.09 1.9,3.79 0.8,6 0.08,6.22 -1.02,0.23 -2.32,-1.44 -2.57,-1.78 z"
       style="fill:#ebebeb"
       id="path66" />
    <path
       d="m 436.78,236.9 4.22,32.28 h -25.71 c 0.53,-2.86 5.32,-32.32 5.32,-32.32 z"
       style="fill:#ebebeb"
       id="path68" />
  </g>
  <g
     id="freepik--Shadow--inject-87"
     transform="matrix(0.5,0,0,0.5,264.60453,49.606514)">
    <path
       d="m 448.31,439.23 c 0,11.28 -88.78,20.42 -198.31,20.42 -109.53,0 -198.31,-9.14 -198.31,-20.42 0,-11.28 88.78,-20.42 198.31,-20.42 109.53,0 198.31,9.19 198.31,20.42 z"
       style="fill:#ebebeb"
       id="path71" />
  </g>
  <g
     id="freepik--Floor--inject-87"
     transform="matrix(0.5,0,0,0.5,264.60453,49.606514)">
    <polygon
       points="148.49,406.11 250,405.95 351.51,406.11 402.26,406.2 453.01,406.44 402.26,406.69 351.51,406.78 250,406.94 148.49,406.78 97.74,406.69 46.98,406.44 97.74,406.2 "
       style="fill:#263238"
       id="polygon74" />
  </g>
  <path
     d="m 431.86453,80.566514 h -84.53 a 8.63,8.63 0 0 0 -8.55,8.71 V 263.27651 a 8.635,8.635 0 0 0 8.55,8.71 h 84.53 a 8.645,8.645 0 0 0 8.56,-8.71 V 89.276514 a 8.64,8.64 0 0 0 -8.56,-8.71 z m 3.21,177.334996 c 0,4.58 -3.43,8.285 -7.66,8.285 h -75.62 c -4.24,0 -7.67,-3.705 -7.67,-8.285 V 95.871514 c -0.02,-9.33 3.43,-9.765 7.67,-9.765 h 15.15 c 0.88,0 1.6,1 1.6,2.24 v 0.535 c 0,2.905 1.59,2.915 3.54,2.915 h 35.02 c 1.97,0 3.55,0 3.55,-2.915 v -0.555 c 0,-1.24 0.71,-2.24 1.605,-2.24 h 15.145 c 4.23,0 7.66,1.24 7.66,9.785 z"
     style="fill:#37474f;stroke-width:0.5"
     id="path77" />
  <path
     d="M 435.07453,95.871514 V 257.90151 c 0,4.58 -3.43,8.285 -7.66,8.285 h -75.62 c -4.24,0 -7.67,-3.705 -7.67,-8.285 V 95.871514 c -0.02,-9.33 3.43,-9.765 7.67,-9.765 h 15.15 c 0.88,0 1.6,1 1.6,2.24 v 0.535 c 0,2.905 1.59,2.915 3.54,2.915 h 35.02 c 1.97,0 3.55,0 3.55,-2.915 v -0.555 c 0,-1.24 0.71,-2.24 1.605,-2.24 h 15.145 c 4.24,0.02 7.67,1.24 7.67,9.785 z"
     style="fill:#ebebeb;stroke-width:0.5"
     id="path79" />
  <path
     d="m 435.07453,95.871514 v 68.109996 h -90.97 V 95.871514 c 0,-9.33 3.45,-9.765 7.69,-9.765 h 15.15 c 0.88,0 1.6,1 1.6,2.24 v 0.535 c 0,2.905 1.59,2.915 3.54,2.915 h 35.02 c 1.97,0 3.55,0 3.55,-2.915 v -0.555 c 0,-1.24 0.71,-2.24 1.605,-2.24 h 15.145 c 4.24,0.02 7.67,1.24 7.67,9.785 z"
     style="fill:#bbeae6;stroke-width:0.5"
     id="path81" />
  <g
     id="freepik--u5Zjqx--inject-87"
     transform="matrix(0.5,0,0,0.5,264.60453,49.606514)">
    <path
       d="m 199.45,80.24 -0.29,0.29 c -0.06,0 -0.11,0.11 -0.17,0.17 a 3.9,3.9 0 0 0 -2.82,-1.17 3.86,3.86 0 0 0 -2.82,1.17 l -0.16,-0.17 -0.29,-0.29 v 0 0 l 0.37,-0.32 a 4.06,4.06 0 0 1 0.86,-0.55 4.18,4.18 0 0 1 1.13,-0.38 c 0.19,0 0.38,0 0.57,-0.08 h 0.5 0.38 a 4.51,4.51 0 0 1 1,0.25 4.58,4.58 0 0 1 0.71,0.33 4.48,4.48 0 0 1 0.67,0.47 l 0.31,0.28 z"
       style="fill:#ffffff"
       id="path83" />
    <path
       d="m 194.27,81.62 c -0.15,-0.16 -0.3,-0.31 -0.46,-0.46 a 3.32,3.32 0 0 1 4.71,0 l -0.46,0.46 a 2.68,2.68 0 0 0 -3.79,0 z"
       style="fill:#ffffff"
       id="path85" />
    <path
       d="m 197.6,82.08 -0.46,0.46 a 1.31,1.31 0 0 0 -1,-0.4 1.35,1.35 0 0 0 -1,0.4 l -0.46,-0.46 a 2,2 0 0 1 2.92,0 z"
       style="fill:#ffffff"
       id="path87" />
    <path
       d="m 196.58,83 a 0.41,0.41 0 0 1 -0.41,0.41 0.42,0.42 0 1 1 0,-0.83 0.41,0.41 0 0 1 0.41,0.42 z"
       style="fill:#ffffff"
       id="path89" />
  </g>
  <path
     d="m 350.05453,90.166514 a 0.605,0.605 0 1 1 0.605,0.605 0.605,0.605 0 0 1 -0.605,-0.605 z"
     style="fill:#ffffff;stroke-width:0.5"
     id="path92" />
  <path
     d="m 351.95453,90.166514 a 0.605,0.605 0 1 1 0.605,0.605 0.605,0.605 0 0 1 -0.605,-0.605 z"
     style="fill:#ffffff;stroke-width:0.5"
     id="path94" />
  <path
     d="m 353.85453,90.166514 a 0.605,0.605 0 1 1 0.6,0.605 0.6,0.6 0 0 1 -0.6,-0.605 z"
     style="fill:#ffffff;stroke-width:0.5"
     id="path96" />
  <path
     d="m 355.75453,90.166514 a 0.605,0.605 0 1 1 0.6,0.605 0.6,0.6 0 0 1 -0.6,-0.605 z"
     style="fill:#ffffff;stroke-width:0.5"
     id="path98" />
  <path
     d="m 357.64953,90.166514 a 0.605,0.605 0 1 1 0.605,0.605 0.605,0.605 0 0 1 -0.605,-0.605 z"
     style="fill:#ffffff;stroke-width:0.5"
     id="path100" />
  <path
     d="m 428.25453,91.481514 h -4.91 v -2.27 h 4.91 z m -4.66,-0.25 h 4.41 v -1.77 h -4.4 z"
     style="fill:#ffffff;stroke-width:0.5"
     id="path102" />
  <rect
     x="423.75452"
     y="89.596519"
     width="3.165"
     height="1.5"
     style="fill:#ffffff;stroke-width:0.5"
     id="rect104" />
  <rect
     x="428.25452"
     y="89.741508"
     width="0.435"
     height="1.215"
     style="fill:#ffffff;stroke-width:0.5"
     id="rect106" />
  <polygon
     points="172.69,105.67 177.11,109.82 176.28,110.7 170.91,105.67 176.28,100.64 177.11,101.52 "
     style="fill:#ffffff"
     id="polygon108"
     transform="matrix(0.5,0,0,0.5,264.60453,49.606514)" />
  <path
     d="m 400.10453,145.07651 a 19.645,19.645 0 0 1 -5.775,2.42 20.04,20.04 0 1 1 5.775,-2.42 z"
     style="fill:#ffffff;stroke-width:0.5"
     id="path110" />
  <path
     d="m 395.68953,125.75151 a 6.095,6.095 0 1 1 -6.085,-6.095 6.095,6.095 0 0 1 6.085,6.095 z"
     style="fill:#bbeae6;stroke-width:0.5"
     id="path112" />
  <path
     d="m 400.10453,142.56651 v 2.5 a 19.645,19.645 0 0 1 -5.775,2.42 19.94,19.94 0 0 1 -15.285,-2.425 v -2.5 a 10.53,10.53 0 1 1 21.06,0 z"
     style="fill:#bbeae6;stroke-width:0.5"
     id="path114" />
  <rect
     x="-246.56764"
     y="211.51587"
     width="142.96001"
     height="138.8"
     style="fill:#ffffff"
     id="rect116" />
  <path
     d="m 362.22453,182.22651 v -1.77 a 0.165,0.165 0 0 1 0.165,-0.165 h 1 a 0.17,0.17 0 0 1 0,0.335 h -0.81 v 0.55 h 0.695 a 0.165,0.165 0 0 1 0,0.33 h -0.695 v 0.555 h 0.81 a 0.165,0.165 0 0 1 0,0.33 h -1 a 0.165,0.165 0 0 1 -0.165,-0.165 z"
     style="fill:#bbeae6;stroke-width:0.5"
     id="path132" />
  <path
     d="m 365.80953,180.45651 v 1.77 a 0.17,0.17 0 0 1 -0.17,0.165 0.165,0.165 0 0 1 -0.165,-0.165 v -1.26 l -0.43,0.6 a 0.16,0.16 0 0 1 -0.135,0.065 v 0 a 0.17,0.17 0 0 1 -0.14,-0.065 l -0.425,-0.6 v 1.26 a 0.17,0.17 0 0 1 -0.335,0 v -1.77 a 0.165,0.165 0 0 1 0.165,-0.165 v 0 a 0.165,0.165 0 0 1 0.13,0.07 l 0.595,0.83 0.6,-0.83 a 0.16,0.16 0 0 1 0.135,-0.07 v 0 a 0.175,0.175 0 0 1 0.175,0.165 z"
     style="fill:#bbeae6;stroke-width:0.5"
     id="path134" />
  <path
     d="m 367.40953,181.89651 h -0.725 l -0.15,0.39 a 0.17,0.17 0 0 1 -0.155,0.105 0.1,0.1 0 0 1 -0.055,0 0.165,0.165 0 0 1 -0.1,-0.215 l 0.66,-1.765 a 0.17,0.17 0 0 1 0.16,-0.105 0.16,0.16 0 0 1 0.16,0.105 l 0.665,1.765 a 0.17,0.17 0 0 1 -0.1,0.215 0.11,0.11 0 0 1 -0.06,0 0.16,0.16 0 0 1 -0.15,-0.105 z m -0.12,-0.33 -0.245,-0.645 -0.24,0.645 z"
     style="fill:#bbeae6;stroke-width:0.5"
     id="path136" />
  <path
     d="m 368.29953,180.45651 a 0.165,0.165 0 0 1 0.165,-0.165 0.17,0.17 0 0 1 0.17,0.165 v 1.77 a 0.17,0.17 0 0 1 -0.17,0.165 0.165,0.165 0 0 1 -0.165,-0.165 z"
     style="fill:#bbeae6;stroke-width:0.5"
     id="path138" />
  <path
     d="m 369.19453,182.22651 v -1.77 a 0.165,0.165 0 0 1 0.165,-0.165 0.17,0.17 0 0 1 0.17,0.165 v 1.605 h 0.81 a 0.165,0.165 0 0 1 0,0.33 h -1 a 0.165,0.165 0 0 1 -0.145,-0.165 z"
     style="fill:#bbeae6;stroke-width:0.5"
     id="path140" />
  <path
     d="m 362.10453,188.06151 a 0.71053237,0.71053237 0 1 1 1.42,-0.055 v 0 a 0.075,0.075 0 0 1 -0.075,0.07 h -1.205 a 0.575,0.575 0 0 0 0.57,0.56 0.555,0.555 0 0 0 0.5,-0.265 0.075,0.075 0 0 1 0.095,-0.025 0.08,0.08 0 0 1 0.025,0.105 0.7,0.7 0 0 1 -0.595,0.33 0.72,0.72 0 0 1 -0.735,-0.72 z m 0.15,-0.12 h 1.115 a 0.565,0.565 0 0 0 -1.115,0 z"
     style="fill:#263238;stroke-width:0.5"
     id="path142" />
  <path
     d="m 366.10453,187.92151 a 0.455,0.455 0 1 0 -0.905,0 v 0.81 0 0 a 0.06,0.06 0 0 1 -0.035,0.035 0.055,0.055 0 0 1 -0.035,0 v 0 0 0 0 0 0 0 0 0 -0.81 a 0.455,0.455 0 1 0 -0.905,0 v 0.8 a 0.07,0.07 0 0 1 -0.03,0.06 v 0 h -0.09 a 0.075,0.075 0 0 1 -0.06,-0.055 v -1.34 a 0.07,0.07 0 0 1 0.07,-0.07 0.07,0.07 0 0 1 0.07,0.07 v 0.14 a 0.59,0.59 0 0 1 0.455,-0.21 0.605,0.605 0 0 1 0.5,0.31 0.605,0.605 0 0 1 0.525,-0.31 0.595,0.595 0 0 1 0.6,0.595 v 0.8 a 0.07,0.07 0 0 1 -0.075,0.07 0.07,0.07 0 0 1 -0.07,-0.07 z"
     style="fill:#263238;stroke-width:0.5"
     id="path144" />
  <path
     d="m 368.97453,187.92151 a 0.455,0.455 0 1 0 -0.91,0 v 0.81 0 0 a 0.09,0.09 0 0 1 -0.04,0.035 0.04,0.04 0 0 1 -0.035,0 v 0 0 0 0 0 0 0 0 0 -0.81 a 0.455,0.455 0 1 0 -0.905,0 v 0.8 a 0.075,0.075 0 0 1 -0.035,0.06 v 0 h -0.03 a 0.065,0.065 0 0 1 -0.06,-0.055 v -1.34 a 0.065,0.065 0 0 1 0.065,-0.07 0.07,0.07 0 0 1 0.075,0.07 v 0.14 a 0.58,0.58 0 0 1 0.45,-0.21 0.59,0.59 0 0 1 0.525,0.31 0.61,0.61 0 0 1 0.53,-0.31 0.595,0.595 0 0 1 0.595,0.595 v 0.8 a 0.07,0.07 0 0 1 -0.14,0 z"
     style="fill:#263238;stroke-width:0.5"
     id="path146" />
  <path
     d="m 370.95953,187.39651 v 1.325 a 0.075,0.075 0 0 1 -0.075,0.07 0.07,0.07 0 0 1 -0.07,-0.07 v -0.22 a 0.675,0.675 0 0 1 -0.55,0.29 0.735,0.735 0 0 1 0,-1.47 0.675,0.675 0 0 1 0.55,0.29 v -0.215 a 0.07,0.07 0 0 1 0.07,-0.075 0.075,0.075 0 0 1 0.075,0.075 z m -0.145,0.66 a 0.555,0.555 0 1 0 -0.55,0.59 0.575,0.575 0 0 0 0.55,-0.59 z"
     style="fill:#263238;stroke-width:0.5"
     id="path148" />
  <path
     d="m 371.71953,189.22151 a 0.11,0.11 0 0 0 0.11,-0.11 v -1.715 a 0.075,0.075 0 0 1 0.075,-0.075 0.075,0.075 0 0 1 0.07,0.075 v 1.71 a 0.255,0.255 0 0 1 -0.255,0.255 0.07,0.07 0 0 1 -0.07,-0.07 0.07,0.07 0 0 1 0.07,-0.07 z m 0.115,-2.305 a 0.08,0.08 0 0 1 0.075,-0.075 0.075,0.075 0 0 1 0.07,0.075 v 0.07 a 0.075,0.075 0 0 1 -0.07,0.075 0.085,0.085 0 0 1 -0.075,-0.075 z"
     style="fill:#263238;stroke-width:0.5"
     id="path150" />
  <path
     d="m 373.85953,187.39651 v 1.325 a 0.07,0.07 0 0 1 -0.14,0 v -0.22 a 0.695,0.695 0 0 1 -0.555,0.29 0.735,0.735 0 0 1 0,-1.47 0.695,0.695 0 0 1 0.555,0.29 v -0.215 a 0.07,0.07 0 1 1 0.14,0 z m -0.14,0.66 a 0.555,0.555 0 1 0 -0.555,0.59 0.575,0.575 0 0 0 0.555,-0.59 z"
     style="fill:#263238;stroke-width:0.5"
     id="path152" />
  <path
     d="m 376.60453,187.92151 a 0.455,0.455 0 1 0 -0.91,0 v 0.81 0 0 a 0.06,0.06 0 0 1 -0.035,0.035 0.05,0.05 0 0 1 -0.035,0 v 0 0 0 0 0 0 0 0 0 -0.81 a 0.455,0.455 0 1 0 -0.905,0 v 0.8 a 0.075,0.075 0 0 1 -0.035,0.06 v 0 h -0.03 a 0.075,0.075 0 0 1 -0.06,-0.055 v -1.34 a 0.07,0.07 0 0 1 0.07,-0.07 0.07,0.07 0 0 1 0.075,0.07 v 0.14 a 0.58,0.58 0 0 1 0.45,-0.21 0.59,0.59 0 0 1 0.525,0.31 0.61,0.61 0 0 1 0.53,-0.31 0.595,0.595 0 0 1 0.595,0.595 v 0.8 a 0.07,0.07 0 0 1 -0.14,0 z"
     style="fill:#263238;stroke-width:0.5"
     id="path154" />
  <path
     d="m 377.23453,188.06151 a 0.71053237,0.71053237 0 1 1 1.42,-0.055 v 0 a 0.07,0.07 0 0 1 -0.07,0.07 h -1.205 a 0.575,0.575 0 0 0 0.57,0.56 0.54,0.54 0 0 0 0.47,-0.265 0.08,0.08 0 0 1 0.1,-0.025 0.08,0.08 0 0 1 0,0.105 0.695,0.695 0 0 1 -0.59,0.33 0.725,0.725 0 0 1 -0.695,-0.72 z m 0.155,-0.12 h 1.11 a 0.565,0.565 0 0 0 -0.55,-0.475 0.575,0.575 0 0 0 -0.56,0.475 z"
     style="fill:#263238;stroke-width:0.5"
     id="path156" />
  <path
     d="m 379.06453,188.48651 a 0.07,0.07 0 0 1 0.1,0 0.8,0.8 0 0 0 0.45,0.17 0.435,0.435 0 0 0 0.28,-0.09 0.215,0.215 0 0 0 0.11,-0.18 0.23,0.23 0 0 0 -0.105,-0.18 0.76,0.76 0 0 0 -0.295,-0.1 v 0 a 0.78,0.78 0 0 1 -0.335,-0.115 0.31,0.31 0 0 1 -0.16,-0.26 0.375,0.375 0 0 1 0.16,-0.29 0.63,0.63 0 0 1 0.36,-0.1 0.81,0.81 0 0 1 0.44,0.16 0.085,0.085 0 0 1 0,0.105 0.075,0.075 0 0 1 -0.1,0 0.63,0.63 0 0 0 -0.36,-0.15 0.455,0.455 0 0 0 -0.28,0.085 0.225,0.225 0 0 0 -0.09,0.17 0.175,0.175 0 0 0 0.08,0.145 0.83,0.83 0 0 0 0.3,0.105 v 0 a 1,1 0 0 1 0.355,0.115 0.35,0.35 0 0 1 0,0.6 0.59,0.59 0 0 1 -0.365,0.115 0.875,0.875 0 0 1 -0.54,-0.21 0.065,0.065 0 0 1 -0.005,-0.095 z"
     style="fill:#263238;stroke-width:0.5"
     id="path158" />
  <path
     d="m 381.72953,188.36151 h -1.125 -0.045 a 0.08,0.08 0 0 1 0,-0.105 l 1.215,-1.5 v 0 a 0.065,0.065 0 0 1 0.1,0 0.075,0.075 0 0 1 0,0.035 v 1.46 h 0.14 a 0.075,0.075 0 1 1 0,0.145 h -0.14 v 0.36 a 0.075,0.075 0 0 1 -0.15,0 z m 0,-0.145 v -1.23 l -1,1.23 z"
     style="fill:#263238;stroke-width:0.5"
     id="path160" />
  <path
     d="m 383.56453,186.69151 a 1.045,1.045 0 0 1 1.05,1.05 1.025,1.025 0 0 1 -0.11,0.5 0.53,0.53 0 0 1 -0.27,0.225 h -0.06 a 0.21,0.21 0 0 1 -0.175,-0.08 0.25,0.25 0 0 1 -0.045,-0.145 v -0.135 a 0.5,0.5 0 0 1 -0.39,0.18 0.565,0.565 0 0 1 0,-1.125 0.55,0.55 0 0 1 0.535,0.56 v 0.5 0 a 0.19,0.19 0 0 0 0,0.065 0.07,0.07 0 0 0 0.055,0 v 0 a 0.305,0.305 0 0 0 0.175,-0.155 0.86,0.86 0 0 0 0.1,-0.41 0.905,0.905 0 1 0 -0.905,0.905 0.84,0.84 0 0 0 0.225,-0.025 c 0.04,0 0.085,0 0.085,0.05 a 0.07,0.07 0 0 1 -0.05,0.09 1.09,1.09 0 0 1 -0.26,0.03 1.05,1.05 0 1 1 0,-2.1 z m 0,1.46 a 0.4,0.4 0 0 0 0.385,-0.41 0.385,0.385 0 1 0 -0.765,0 0.395,0.395 0 0 0 0.38,0.41 z"
     style="fill:#263238;stroke-width:0.5"
     id="path162" />
  <path
     d="m 387.67453,187.92151 a 0.455,0.455 0 1 0 -0.905,0 v 0.81 0 0 a 0.06,0.06 0 0 1 -0.035,0.035 0.055,0.055 0 0 1 -0.035,0 h -0.025 v 0 0 0 0 0 0 0 0 -0.81 a 0.455,0.455 0 1 0 -0.905,0 v 0.8 a 0.07,0.07 0 0 1 -0.03,0.06 v 0 h -0.03 a 0.075,0.075 0 0 1 -0.06,-0.055 v -1.34 a 0.07,0.07 0 0 1 0.07,-0.07 0.07,0.07 0 0 1 0.07,0.07 v 0.14 a 0.59,0.59 0 0 1 0.455,-0.21 0.6,0.6 0 0 0 1.05,0 0.595,0.595 0 0 1 0.595,0.595 v 0.8 a 0.065,0.065 0 0 1 -0.07,0.07 0.07,0.07 0 0 1 -0.07,-0.07 z"
     style="fill:#263238;stroke-width:0.5"
     id="path164" />
  <path
     d="m 389.65953,187.39651 v 1.325 a 0.07,0.07 0 0 1 -0.07,0.07 0.075,0.075 0 0 1 -0.075,-0.07 v -0.22 a 0.675,0.675 0 0 1 -0.55,0.29 0.735,0.735 0 0 1 0,-1.47 0.675,0.675 0 0 1 0.55,0.29 v -0.215 a 0.075,0.075 0 0 1 0.075,-0.075 0.075,0.075 0 0 1 0.07,0.075 z m -0.145,0.66 a 0.55,0.55 0 1 0 -0.55,0.59 0.575,0.575 0 0 0 0.55,-0.59 z"
     style="fill:#263238;stroke-width:0.5"
     id="path166" />
  <path
     d="m 390.28953,186.91651 a 0.075,0.075 0 0 1 0.07,-0.075 0.075,0.075 0 0 1 0.075,0.075 v 0.07 a 0.075,0.075 0 0 1 -0.075,0.075 0.075,0.075 0 0 1 -0.07,-0.075 z m 0,0.5 a 0.07,0.07 0 0 1 0.07,-0.075 0.075,0.075 0 0 1 0.075,0.075 v 1.325 a 0.075,0.075 0 0 1 -0.075,0.07 0.07,0.07 0 0 1 -0.07,-0.07 z"
     style="fill:#263238;stroke-width:0.5"
     id="path168" />
  <path
     d="m 391.10453,186.76651 a 0.075,0.075 0 0 1 0.07,-0.075 0.075,0.075 0 0 1 0.075,0.075 v 1.955 a 0.07,0.07 0 0 1 -0.075,0.07 0.07,0.07 0 0 1 -0.07,-0.07 z"
     style="fill:#263238;stroke-width:0.5"
     id="path170" />
  <path
     d="m 391.92953,188.49151 a 0.15,0.15 0 1 1 0,0.3 0.15,0.15 0 0 1 0,-0.3 z"
     style="fill:#263238;stroke-width:0.5"
     id="path172" />
  <path
     d="m 392.33453,188.05651 a 0.755,0.755 0 0 1 1.225,-0.57 0.07,0.07 0 0 1 0,0.1 0.075,0.075 0 0 1 -0.1,0 0.6,0.6 0 1 0 -0.38,1.05 0.62,0.62 0 0 0 0.38,-0.125 0.075,0.075 0 0 1 0.1,0 0.075,0.075 0 0 1 0,0.105 0.775,0.775 0 0 1 -0.465,0.155 0.74,0.74 0 0 1 -0.76,-0.715 z"
     style="fill:#263238;stroke-width:0.5"
     id="path174" />
  <path
     d="m 394.73453,187.32151 a 0.735,0.735 0 1 1 -0.695,0.735 0.72,0.72 0 0 1 0.695,-0.735 z m 0,1.325 a 0.575,0.575 0 0 0 0.555,-0.59 0.555,0.555 0 1 0 -1.105,0 0.57,0.57 0 0 0 0.55,0.59 z"
     style="fill:#263238;stroke-width:0.5"
     id="path176" />
  <path
     d="m 398.10453,187.92151 a 0.46,0.46 0 0 0 -0.455,-0.455 0.45,0.45 0 0 0 -0.45,0.455 v 0.81 0 0 a 0.06,0.06 0 0 1 -0.035,0.035 0.055,0.055 0 0 1 -0.035,0 h -0.025 v 0 0 0 0 0 0 0 0 -0.81 a 0.455,0.455 0 1 0 -0.905,0 v 0.8 a 0.065,0.065 0 0 1 -0.035,0.06 v 0 h -0.03 a 0.075,0.075 0 0 1 -0.06,-0.055 v -1.34 a 0.07,0.07 0 0 1 0.07,-0.07 0.07,0.07 0 0 1 0.07,0.07 v 0.14 a 0.59,0.59 0 0 1 0.455,-0.21 0.6,0.6 0 0 0 1.05,0 0.595,0.595 0 0 1 0.595,0.595 v 0.8 a 0.07,0.07 0 0 1 -0.14,0 z"
     style="fill:#263238;stroke-width:0.5"
     id="path178" />
  <polygon
     points="277.69,281.45 291.54,281.56 305.38,281.74 291.54,281.93 277.69,282.03 250,282.12 222.31,282.03 208.46,281.92 194.62,281.74 208.46,281.56 222.31,281.45 250,281.37 "
     style="fill:#dbdbdb"
     id="polygon180"
     transform="matrix(0.5,0,0,0.5,264.60453,49.606514)" />
  <path
     d="m 362.92953,198.45151 h -0.37 v 0.655 a 0.17,0.17 0 0 1 -0.335,0 v -1.77 a 0.165,0.165 0 0 1 0.165,-0.165 h 0.54 a 0.64,0.64 0 1 1 0,1.28 z m -0.37,-0.33 h 0.37 a 0.31,0.31 0 1 0 0,-0.62 h -0.37 z"
     style="fill:#bbeae6;stroke-width:0.5"
     id="path182" />
  <path
     d="m 364.83453,198.77151 h -0.73 l -0.145,0.39 a 0.16,0.16 0 0 1 -0.155,0.105 h -0.06 a 0.17,0.17 0 0 1 -0.095,-0.215 l 0.66,-1.77 a 0.18,0.18 0 0 1 0.16,-0.105 0.175,0.175 0 0 1 0.16,0.105 l 0.66,1.77 a 0.17,0.17 0 0 1 -0.1,0.215 h -0.055 a 0.16,0.16 0 0 1 -0.155,-0.105 z m -0.125,-0.325 -0.24,-0.645 -0.245,0.645 z"
     style="fill:#bbeae6;stroke-width:0.5"
     id="path184" />
  <path
     d="m 365.60453,198.74651 a 0.16,0.16 0 0 1 0.22,0 0.945,0.945 0 0 0 0.57,0.23 0.655,0.655 0 0 0 0.375,-0.11 0.27,0.27 0 0 0 0.13,-0.215 0.19,0.19 0 0 0 -0.025,-0.095 0.255,0.255 0 0 0 -0.09,-0.09 1.205,1.205 0 0 0 -0.41,-0.145 v 0 a 1.5,1.5 0 0 1 -0.39,-0.115 0.675,0.675 0 0 1 -0.28,-0.235 0.45,0.45 0 0 1 -0.065,-0.245 0.555,0.555 0 0 1 0.24,-0.44 0.885,0.885 0 0 1 0.5,-0.155 1.17,1.17 0 0 1 0.655,0.24 0.145,0.145 0 0 1 0.04,0.21 0.145,0.145 0 0 1 -0.21,0.045 0.89,0.89 0 0 0 -0.5,-0.19 0.565,0.565 0 0 0 -0.335,0.1 0.24,0.24 0 0 0 -0.115,0.19 0.155,0.155 0 0 0 0.025,0.085 0.235,0.235 0 0 0 0.08,0.075 0.97,0.97 0 0 0 0.375,0.135 v 0 a 1.925,1.925 0 0 1 0.415,0.125 0.735,0.735 0 0 1 0.3,0.25 0.5,0.5 0 0 1 0.07,0.255 0.59,0.59 0 0 1 -0.26,0.465 0.95,0.95 0 0 1 -0.555,0.17 1.305,1.305 0 0 1 -0.765,-0.3 0.165,0.165 0 0 1 0.005,-0.24 z"
     style="fill:#bbeae6;stroke-width:0.5"
     id="path186" />
  <path
     d="m 367.55453,198.74651 a 0.16,0.16 0 0 1 0.22,0 0.96,0.96 0 0 0 0.575,0.23 0.655,0.655 0 0 0 0.375,-0.11 0.26,0.26 0 0 0 0.125,-0.215 0.15,0.15 0 0 0 -0.025,-0.095 0.255,0.255 0 0 0 -0.09,-0.09 1.165,1.165 0 0 0 -0.41,-0.145 v 0 a 1.545,1.545 0 0 1 -0.39,-0.115 0.66,0.66 0 0 1 -0.275,-0.235 0.455,0.455 0 0 1 -0.07,-0.245 0.555,0.555 0 0 1 0.24,-0.44 0.9,0.9 0 0 1 0.5,-0.155 1.155,1.155 0 0 1 0.65,0.24 0.155,0.155 0 0 1 0.045,0.21 0.15,0.15 0 0 1 -0.215,0.045 0.89,0.89 0 0 0 -0.5,-0.19 0.595,0.595 0 0 0 -0.34,0.1 0.235,0.235 0 0 0 -0.11,0.19 0.155,0.155 0 0 0 0,0.085 0.235,0.235 0 0 0 0.08,0.075 1.04,1.04 0 0 0 0.375,0.135 v 0 a 1.845,1.845 0 0 1 0.415,0.125 0.735,0.735 0 0 1 0.3,0.25 0.5,0.5 0 0 1 0.07,0.255 0.585,0.585 0 0 1 -0.255,0.465 1,1 0 0 1 -0.555,0.17 1.305,1.305 0 0 1 -0.77,-0.3 0.165,0.165 0 0 1 0.035,-0.24 z"
     style="fill:#bbeae6;stroke-width:0.5"
     id="path188" />
  <path
     d="m 372.31453,197.41651 -0.735,1.75 v 0.025 0 0 0 0 0 a 0.065,0.065 0 0 1 -0.03,0 h -0.125 a 0.045,0.045 0 0 1 -0.03,0 v 0 h -0.025 v 0 c 0,0 0,0 0,0 v 0 c 0,0 0,0 0,-0.025 l -0.39,-0.93 -0.395,0.93 v 0.025 0 0 0 0 0 h -0.025 -0.13 a 0.05,0.05 0 0 1 -0.025,0 v 0 0 0 0 0 c 0,0 0,0 0,-0.025 l -0.735,-1.75 a 0.16,0.16 0 0 1 0.09,-0.21 0.165,0.165 0 0 1 0.215,0.085 l 0.585,1.39 0.385,-0.92 a 0.175,0.175 0 0 1 0.16,-0.105 0.18,0.18 0 0 1 0.155,0.105 l 0.385,0.92 0.585,-1.39 a 0.17,0.17 0 0 1 0.22,-0.085 0.16,0.16 0 0 1 -0.135,0.21 z"
     style="fill:#bbeae6;stroke-width:0.5"
     id="path190" />
  <path
     d="m 374.40453,197.43151 a 1.095,1.095 0 0 1 0,1.5 1,1 0 0 1 -0.715,0.32 1,1 0 0 1 -0.735,-0.32 1.105,1.105 0 0 1 0,-1.5 1,1 0 0 1 0.735,-0.32 0.955,0.955 0 0 1 0.715,0.32 z m -0.04,0.76 a 0.765,0.765 0 0 0 -0.205,-0.525 0.64,0.64 0 0 0 -0.47,-0.215 0.645,0.645 0 0 0 -0.5,0.215 0.77,0.77 0 0 0 0,1.045 0.645,0.645 0 0 0 0.5,0.215 0.64,0.64 0 0 0 0.47,-0.215 0.76,0.76 0 0 0 0.205,-0.52 z"
     style="fill:#bbeae6;stroke-width:0.5"
     id="path192" />
  <path
     d="m 376.68953,199.02151 a 0.17,0.17 0 0 1 -0.105,0.21 h -0.07 a 0.25,0.25 0 0 1 -0.12,-0.03 0.385,0.385 0 0 1 -0.095,-0.105 0.85,0.85 0 0 1 -0.06,-0.36 0.25,0.25 0 0 0 -0.04,-0.13 0.215,0.215 0 0 0 -0.09,-0.085 0.61,0.61 0 0 0 -0.165,-0.075 h -0.34 v 0.66 a 0.165,0.165 0 0 1 -0.17,0.16 0.16,0.16 0 0 1 -0.16,-0.16 v -1.77 a 0.16,0.16 0 0 1 0.16,-0.165 h 0.54 a 0.64,0.64 0 0 1 0.405,1.135 0.44,0.44 0 0 1 0.105,0.11 0.57,0.57 0 0 1 0.1,0.325 0.64,0.64 0 0 0 0,0.175 0.17,0.17 0 0 1 0.105,0.105 z m -0.42,-1.205 a 0.315,0.315 0 0 0 -0.31,-0.315 h -0.355 v 0.605 h 0.37 a 0.31,0.31 0 0 0 0.295,-0.29 z"
     style="fill:#bbeae6;stroke-width:0.5"
     id="path194" />
  <path
     d="m 377.17453,199.10651 v -1.77 a 0.16,0.16 0 0 1 0.165,-0.165 h 0.355 a 1.05,1.05 0 0 1 0,2.095 h -0.355 a 0.16,0.16 0 0 1 -0.165,-0.16 z m 0.33,-0.17 h 0.19 a 0.72,0.72 0 0 0 0,-1.435 h -0.19 z"
     style="fill:#bbeae6;stroke-width:0.5"
     id="path196" />
  <path
     d="m 362.52453,204.07151 -0.275,0.185 c 0,0 -0.03,0 -0.05,0 a 0.06,0.06 0 0 1 0,-0.12 l 0.31,-0.15 -0.31,-0.145 c 0,0 -0.045,-0.03 -0.045,-0.06 a 0.065,0.065 0 0 1 0.06,-0.06 0.085,0.085 0 0 1 0.05,0 l 0.275,0.19 -0.025,-0.33 a 0.06,0.06 0 0 1 0.06,-0.065 0.06,0.06 0 0 1 0.06,0.065 l -0.025,0.33 0.27,-0.19 h 0.05 a 0.06,0.06 0 0 1 0.06,0.06 0.06,0.06 0 0 1 -0.04,0.06 l -0.31,0.145 0.31,0.15 a 0.05,0.05 0 0 1 0.04,0.055 0.06,0.06 0 0 1 -0.06,0.065 0.13,0.13 0 0 1 -0.05,0 l -0.27,-0.185 0.025,0.325 a 0.06,0.06 0 0 1 -0.06,0.065 0.06,0.06 0 0 1 -0.06,-0.065 z"
     style="fill:#263238;stroke-width:0.5"
     id="path198" />
  <path
     d="m 363.81453,204.07151 -0.275,0.185 c 0,0 -0.03,0 -0.05,0 a 0.06,0.06 0 0 1 0,-0.12 l 0.31,-0.15 -0.31,-0.145 c -0.025,0 -0.045,-0.03 -0.045,-0.06 a 0.065,0.065 0 0 1 0.06,-0.06 0.085,0.085 0 0 1 0.05,0 l 0.275,0.19 v -0.33 a 0.06,0.06 0 0 1 0.06,-0.065 0.06,0.06 0 0 1 0.06,0.065 l -0.025,0.33 0.27,-0.19 a 0.095,0.095 0 0 1 0.05,0 0.06,0.06 0 0 1 0.06,0.06 0.06,0.06 0 0 1 -0.04,0.06 l -0.31,0.145 0.31,0.15 a 0.05,0.05 0 0 1 0.04,0.055 0.06,0.06 0 0 1 -0.06,0.065 c 0,0 -0.03,0 -0.05,0 l -0.27,-0.185 0.025,0.325 a 0.06,0.06 0 0 1 -0.06,0.065 0.06,0.06 0 0 1 -0.06,-0.065 z"
     style="fill:#263238;stroke-width:0.5"
     id="path200" />
  <path
     d="m 365.10453,204.07151 -0.275,0.185 c 0,0 -0.03,0 -0.05,0 a 0.06,0.06 0 0 1 0,-0.12 l 0.31,-0.15 -0.31,-0.145 c 0,0 -0.045,-0.03 -0.045,-0.06 a 0.065,0.065 0 0 1 0.06,-0.06 0.085,0.085 0 0 1 0.05,0 l 0.275,0.19 -0.015,-0.305 a 0.06,0.06 0 0 1 0.06,-0.065 0.06,0.06 0 0 1 0.06,0.065 l -0.025,0.33 0.275,-0.19 a 0.08,0.08 0 0 1 0.045,0 0.06,0.06 0 0 1 0.06,0.06 0.06,0.06 0 0 1 -0.04,0.06 l -0.31,0.145 0.31,0.15 a 0.05,0.05 0 0 1 0.04,0.055 0.06,0.06 0 0 1 -0.06,0.065 0.09,0.09 0 0 1 -0.045,0 l -0.275,-0.185 0.025,0.325 a 0.06,0.06 0 0 1 -0.06,0.065 0.06,0.06 0 0 1 -0.06,-0.065 z"
     style="fill:#263238;stroke-width:0.5"
     id="path202" />
  <path
     d="m 366.39453,204.07151 -0.275,0.185 c 0,0 -0.03,0 -0.05,0 a 0.06,0.06 0 0 1 0,-0.12 l 0.31,-0.15 -0.31,-0.145 c -0.025,0 -0.045,-0.03 -0.045,-0.06 a 0.065,0.065 0 0 1 0.06,-0.06 0.085,0.085 0 0 1 0.05,0 l 0.275,0.19 -0.025,-0.33 a 0.06,0.06 0 0 1 0.06,-0.065 0.06,0.06 0 0 1 0.06,0.065 l -0.025,0.33 0.27,-0.19 a 0.095,0.095 0 0 1 0.05,0 0.06,0.06 0 0 1 0.06,0.06 0.06,0.06 0 0 1 -0.04,0.06 l -0.31,0.145 0.31,0.15 a 0.05,0.05 0 0 1 0.04,0.055 0.06,0.06 0 0 1 -0.06,0.065 c 0,0 -0.03,0 -0.05,0 l -0.27,-0.185 0.025,0.325 a 0.06,0.06 0 0 1 -0.06,0.065 0.06,0.06 0 0 1 -0.06,-0.065 z"
     style="fill:#263238;stroke-width:0.5"
     id="path204" />
  <path
     d="m 367.68453,204.07151 -0.275,0.185 c 0,0 -0.03,0 -0.05,0 a 0.06,0.06 0 0 1 0,-0.12 l 0.31,-0.15 -0.31,-0.145 c 0,0 -0.045,-0.03 -0.045,-0.06 a 0.065,0.065 0 0 1 0.06,-0.06 0.085,0.085 0 0 1 0.05,0 l 0.275,0.19 v -0.33 a 0.06,0.06 0 0 1 0.06,-0.065 0.06,0.06 0 0 1 0.06,0.065 v 0.33 l 0.27,-0.19 a 0.095,0.095 0 0 1 0.05,0 0.06,0.06 0 0 1 0.06,0.06 0.06,0.06 0 0 1 -0.04,0.06 l -0.31,0.145 0.31,0.15 a 0.05,0.05 0 0 1 0.04,0.055 0.06,0.06 0 0 1 -0.06,0.065 c 0,0 -0.03,0 -0.05,0 l -0.27,-0.185 v 0.325 a 0.06,0.06 0 0 1 -0.06,0.065 0.06,0.06 0 0 1 -0.06,-0.065 z"
     style="fill:#263238;stroke-width:0.5"
     id="path206" />
  <path
     d="m 368.97453,204.07151 -0.275,0.185 c 0,0 -0.03,0 -0.05,0 a 0.06,0.06 0 0 1 0,-0.12 l 0.31,-0.15 -0.31,-0.145 c -0.025,0 -0.045,-0.03 -0.045,-0.06 a 0.065,0.065 0 0 1 0.06,-0.06 0.085,0.085 0 0 1 0.05,0 l 0.275,0.19 -0.025,-0.33 a 0.06,0.06 0 0 1 0.06,-0.065 0.06,0.06 0 0 1 0.06,0.065 l -0.025,0.33 0.27,-0.19 a 0.095,0.095 0 0 1 0.05,0 0.06,0.06 0 0 1 0.06,0.06 0.06,0.06 0 0 1 -0.04,0.06 l -0.31,0.145 0.31,0.15 a 0.05,0.05 0 0 1 0.04,0.055 0.06,0.06 0 0 1 -0.06,0.065 c 0,0 -0.03,0 -0.05,0 l -0.27,-0.185 0.025,0.325 a 0.06,0.06 0 0 1 -0.06,0.065 0.06,0.06 0 0 1 -0.06,-0.065 z"
     style="fill:#263238;stroke-width:0.5"
     id="path208" />
  <path
     d="m 370.25953,204.07151 -0.27,0.185 c 0,0 -0.03,0 -0.05,0 a 0.06,0.06 0 0 1 0,-0.12 l 0.305,-0.15 -0.305,-0.145 c 0,0 -0.045,-0.03 -0.045,-0.06 a 0.065,0.065 0 0 1 0.06,-0.06 0.085,0.085 0 0 1 0.05,0 l 0.27,0.19 v -0.33 a 0.055,0.055 0 0 1 0.06,-0.065 0.06,0.06 0 0 1 0.06,0.065 v 0.33 l 0.27,-0.19 a 0.095,0.095 0 0 1 0.05,0 0.06,0.06 0 0 1 0.06,0.06 0.06,0.06 0 0 1 -0.04,0.06 l -0.31,0.145 0.31,0.15 a 0.05,0.05 0 0 1 0.04,0.055 0.06,0.06 0 0 1 -0.06,0.065 c 0,0 -0.03,0 -0.05,0 l -0.27,-0.185 v 0.325 a 0.06,0.06 0 0 1 -0.06,0.065 0.055,0.055 0 0 1 -0.06,-0.065 z"
     style="fill:#263238;stroke-width:0.5"
     id="path210" />
  <path
     d="m 371.55453,204.07151 -0.275,0.185 c 0,0 -0.03,0 -0.05,0 a 0.06,0.06 0 0 1 0,-0.12 l 0.31,-0.15 -0.31,-0.145 c -0.025,0 -0.045,-0.03 -0.045,-0.06 a 0.065,0.065 0 0 1 0.06,-0.06 0.085,0.085 0 0 1 0.05,0 l 0.275,0.19 -0.025,-0.33 a 0.06,0.06 0 0 1 0.06,-0.065 0.06,0.06 0 0 1 0.06,0.065 l -0.025,0.33 0.27,-0.19 a 0.095,0.095 0 0 1 0.05,0 0.06,0.06 0 0 1 0.06,0.06 0.06,0.06 0 0 1 -0.04,0.06 l -0.31,0.145 0.31,0.15 a 0.05,0.05 0 0 1 0.04,0.055 0.06,0.06 0 0 1 -0.06,0.065 c 0,0 -0.03,0 -0.05,0 l -0.27,-0.185 0.025,0.325 a 0.06,0.06 0 0 1 -0.06,0.065 0.06,0.06 0 0 1 -0.06,-0.065 z"
     style="fill:#263238;stroke-width:0.5"
     id="path212" />
  <path
     d="m 372.84453,204.07151 -0.275,0.185 c 0,0 -0.03,0 -0.05,0 a 0.06,0.06 0 0 1 0,-0.12 l 0.305,-0.15 -0.305,-0.145 c -0.025,0 -0.045,-0.03 -0.045,-0.06 a 0.065,0.065 0 0 1 0.06,-0.06 0.085,0.085 0 0 1 0.05,0 l 0.275,0.19 v -0.33 a 0.06,0.06 0 0 1 0.06,-0.065 0.06,0.06 0 0 1 0.06,0.065 v 0.33 l 0.27,-0.19 a 0.095,0.095 0 0 1 0.05,0 0.06,0.06 0 0 1 0.06,0.06 0.06,0.06 0 0 1 -0.04,0.06 l -0.31,0.145 0.31,0.15 a 0.05,0.05 0 0 1 0.04,0.055 0.06,0.06 0 0 1 -0.06,0.065 c 0,0 -0.03,0 -0.05,0 l -0.27,-0.185 v 0.325 a 0.06,0.06 0 0 1 -0.06,0.065 0.06,0.06 0 0 1 -0.06,-0.065 z"
     style="fill:#263238;stroke-width:0.5"
     id="path214" />
  <path
     d="m 374.13453,204.07151 -0.275,0.185 c 0,0 -0.03,0 -0.05,0 a 0.06,0.06 0 0 1 0,-0.12 l 0.31,-0.15 -0.31,-0.145 c 0,0 -0.045,-0.03 -0.045,-0.06 a 0.065,0.065 0 0 1 0.06,-0.06 0.085,0.085 0 0 1 0.05,0 l 0.275,0.19 -0.045,-0.305 a 0.06,0.06 0 0 1 0.06,-0.065 0.06,0.06 0 0 1 0.06,0.065 l -0.025,0.33 0.27,-0.19 a 0.095,0.095 0 0 1 0.05,0 0.06,0.06 0 0 1 0.06,0.06 0.06,0.06 0 0 1 -0.04,0.06 l -0.31,0.145 0.31,0.15 a 0.05,0.05 0 0 1 0.04,0.055 0.06,0.06 0 0 1 -0.06,0.065 c 0,0 -0.03,0 -0.05,0 l -0.27,-0.185 0.025,0.325 a 0.06,0.06 0 0 1 -0.06,0.065 0.06,0.06 0 0 1 -0.06,-0.065 z"
     style="fill:#263238;stroke-width:0.5"
     id="path216" />
  <path
     d="m 375.42453,204.07151 -0.275,0.185 c 0,0 -0.03,0 -0.05,0 a 0.06,0.06 0 0 1 0,-0.12 l 0.31,-0.15 -0.31,-0.145 c -0.025,0 -0.045,-0.03 -0.045,-0.06 a 0.065,0.065 0 0 1 0.06,-0.06 0.085,0.085 0 0 1 0.05,0 l 0.275,0.19 v -0.33 a 0.06,0.06 0 0 1 0.06,-0.065 0.06,0.06 0 0 1 0.06,0.065 l -0.025,0.33 0.275,-0.19 a 0.07,0.07 0 0 1 0.045,0 0.06,0.06 0 0 1 0.06,0.06 0.06,0.06 0 0 1 -0.04,0.06 l -0.31,0.145 0.31,0.15 a 0.05,0.05 0 0 1 0.04,0.055 0.06,0.06 0 0 1 -0.06,0.065 0.075,0.075 0 0 1 -0.045,0 l -0.275,-0.185 0.025,0.325 a 0.06,0.06 0 0 1 -0.06,0.065 0.06,0.06 0 0 1 -0.06,-0.065 z"
     style="fill:#263238;stroke-width:0.5"
     id="path218" />
  <polygon
     points="277.69,315.21 291.54,315.31 305.38,315.5 291.54,315.68 277.69,315.78 250,315.87 222.31,315.78 208.46,315.68 194.62,315.5 208.46,315.31 222.31,315.21 250,315.12 "
     style="fill:#dbdbdb"
     id="polygon220"
     transform="matrix(0.5,0,0,0.5,264.60453,49.606514)" />
  <rect
     x="376.18454"
     y="201.8665"
     width="0.25"
     height="4.4899998"
     style="fill:#263238;stroke-width:0.5"
     id="rect222" />
  <rect
     x="369.23953"
     y="220.04152"
     width="40.73"
     height="12.805"
     style="fill:#bbeae6;stroke-width:0.5"
     id="rect224" />
  <path
     d="m 382.72953,228.10651 v -2.655 a 0.25,0.25 0 0 1 0.5,0 v 2.405 h 1.22 a 0.255,0.255 0 0 1 0.25,0.25 0.255,0.255 0 0 1 -0.25,0.25 h -1.47 a 0.25,0.25 0 0 1 -0.25,-0.25 z"
     style="fill:#ffffff;stroke-width:0.5"
     id="path226" />
  <path
     d="m 387.56953,225.60651 a 1.65,1.65 0 0 1 0.455,1.14 1.63,1.63 0 0 1 -0.455,1.135 1.465,1.465 0 0 1 -1.075,0.5 1.5,1.5 0 0 1 -1.105,-0.5 1.62,1.62 0 0 1 -0.445,-1.135 1.64,1.64 0 0 1 0.445,-1.14 1.5,1.5 0 0 1 1.105,-0.5 1.46,1.46 0 0 1 1.075,0.5 z m -0.06,1.14 a 1.175,1.175 0 0 0 -0.305,-0.79 1,1 0 0 0 -0.71,-0.32 1,1 0 0 0 -0.73,0.32 1.15,1.15 0 0 0 -0.305,0.79 1.11,1.11 0 0 0 0.305,0.78 1,1 0 0 0 0.73,0.325 0.965,0.965 0 0 0 0.71,-0.325 1.13,1.13 0 0 0 0.305,-0.78 z"
     style="fill:#ffffff;stroke-width:0.5"
     id="path228" />
  <path
     d="m 388.76953,226.75151 a 1.64,1.64 0 0 1 1.66,-1.625 1.675,1.675 0 0 1 1.03,0.35 0.255,0.255 0 0 1 0.045,0.365 0.26,0.26 0 0 1 -0.36,0.04 1.175,1.175 0 0 0 -0.715,-0.245 1.13,1.13 0 0 0 -0.81,0.33 1.08,1.08 0 0 0 -0.335,0.785 1.065,1.065 0 0 0 0.335,0.77 1.11,1.11 0 0 0 0.81,0.33 1.24,1.24 0 0 0 0.62,-0.17 v -0.615 h -0.645 a 0.26,0.26 0 0 1 -0.255,-0.26 0.25,0.25 0 0 1 0.255,-0.25 h 0.895 a 0.255,0.255 0 0 1 0.26,0.25 v 1 c 0,0.035 0,0.05 0,0.08 v 0 0 a 0.245,0.245 0 0 1 -0.085,0.11 1.67,1.67 0 0 1 -1,0.35 1.635,1.635 0 0 1 -1.705,-1.595 z"
     style="fill:#ffffff;stroke-width:0.5"
     id="path230" />
  <path
     d="m 392.60453,225.46151 a 0.24,0.24 0 0 1 0.245,-0.245 0.25,0.25 0 0 1 0.255,0.245 v 2.645 a 0.255,0.255 0 0 1 -0.255,0.25 0.245,0.245 0 0 1 -0.245,-0.25 z"
     style="fill:#ffffff;stroke-width:0.5"
     id="path232" />
  <path
     d="m 394.43953,228.10651 a 0.25,0.25 0 1 1 -0.5,0 v -2.615 0 a 0.235,0.235 0 0 1 0.1,-0.205 0.245,0.245 0 0 1 0.34,0.055 l 1.455,2 v -1.855 a 0.25,0.25 0 0 1 0.5,0 v 2.62 a 0.25,0.25 0 0 1 -0.245,0.25 0.235,0.235 0 0 1 -0.185,-0.09 l -0.025,-0.03 -1.44,-2 z"
     style="fill:#ffffff;stroke-width:0.5"
     id="path234" />
  <path
     d="m 376.67453,237.56151 a 0.07,0.07 0 0 1 0.07,-0.07 h 1.085 a 0.07,0.07 0 0 1 0.07,0.07 0.075,0.075 0 0 1 -0.07,0.075 h -1 v 0.83 h 0.88 a 0.075,0.075 0 0 1 0,0.15 h -0.88 v 0.9 a 0.075,0.075 0 0 1 -0.075,0.075 0.075,0.075 0 0 1 -0.07,-0.075 z"
     style="fill:#263238;stroke-width:0.5"
     id="path236" />
  <path
     d="m 378.86453,238.10651 a 0.735,0.735 0 1 1 -0.695,0.735 0.72,0.72 0 0 1 0.695,-0.735 z m 0,1.325 a 0.595,0.595 0 1 0 -0.555,-0.59 0.575,0.575 0 0 0 0.555,0.605 z"
     style="fill:#263238;stroke-width:0.5"
     id="path238" />
  <path
     d="m 380.04953,238.19651 a 0.075,0.075 0 0 1 0.055,-0.09 0.07,0.07 0 0 1 0.07,0.075 v 0.325 -0.04 a 0.73,0.73 0 0 1 0.59,-0.36 0.07,0.07 0 0 1 0.07,0.075 0.07,0.07 0 0 1 -0.07,0.07 0.535,0.535 0 0 0 -0.425,0.24 1.425,1.425 0 0 0 -0.18,0.34 v 0.645 a 0.07,0.07 0 0 1 -0.07,0.075 0.075,0.075 0 0 1 -0.075,-0.075 z"
     style="fill:#263238;stroke-width:0.5"
     id="path240" />
  <path
     d="m 382.64953,239.47151 a 0.69,0.69 0 0 1 -0.69,0.69 0.7,0.7 0 0 1 -0.305,-0.07 0.075,0.075 0 0 1 -0.03,-0.095 0.065,0.065 0 0 1 0.095,-0.035 0.5,0.5 0 0 0 0.24,0.055 0.545,0.545 0 0 0 0.55,-0.545 v -0.18 a 0.665,0.665 0 0 1 -0.55,0.29 0.73,0.73 0 0 1 0,-1.46 0.675,0.675 0 0 1 0.55,0.285 v -0.215 a 0.07,0.07 0 0 1 0.095,-0.085 0.065,0.065 0 0 1 0.065,0.07 z m -0.14,-0.625 a 0.55,0.55 0 1 0 -1.095,0 0.55,0.55 0 1 0 1.095,0 z"
     style="fill:#263238;stroke-width:0.5"
     id="path242" />
  <path
     d="m 383.97453,238.10651 a 0.735,0.735 0 1 1 -0.695,0.735 0.72,0.72 0 0 1 0.695,-0.735 z m 0,1.325 a 0.595,0.595 0 1 0 -0.55,-0.59 0.575,0.575 0 0 0 0.55,0.605 z"
     style="fill:#263238;stroke-width:0.5"
     id="path244" />
  <path
     d="m 385.67953,238.19151 a 0.08,0.08 0 0 1 -0.075,0.075 h -0.185 v 1.07 a 0.11,0.11 0 0 0 0.105,0.105 0.075,0.075 0 0 1 0,0.15 0.25,0.25 0 0 1 -0.255,-0.255 v -1.07 h -0.165 c -0.07,0 -0.07,-0.04 -0.07,-0.075 0,-0.035 0,-0.07 0.07,-0.07 h 0.185 v -0.545 a 0.075,0.075 0 0 1 0.07,-0.075 0.08,0.08 0 0 1 0.08,0.075 v 0.53 h 0.165 a 0.075,0.075 0 0 1 0.075,0.085 z"
     style="fill:#263238;stroke-width:0.5"
     id="path246" />
  <path
     d="m 387.26453,238.87651 v -0.685 a 0.075,0.075 0 0 1 0.15,0 v 0.215 a 0.68,0.68 0 0 1 0.555,-0.285 0.715,0.715 0 0 1 0.71,0.725 0.725,0.725 0 0 1 -0.71,0.735 0.685,0.685 0 0 1 -0.555,-0.29 v 0.84 a 0.075,0.075 0 0 1 -0.15,0 z m 0.15,-0.03 a 0.56,0.56 0 1 0 1.12,0 0.56,0.56 0 1 0 -1.12,0 z"
     style="fill:#263238;stroke-width:0.5"
     id="path248" />
  <path
     d="m 390.47953,238.19151 v 1.325 a 0.075,0.075 0 1 1 -0.145,0 v -0.22 a 0.68,0.68 0 0 1 -0.55,0.295 0.735,0.735 0 0 1 0,-1.47 0.675,0.675 0 0 1 0.55,0.285 v -0.215 a 0.07,0.07 0 0 1 0.07,-0.07 0.075,0.075 0 0 1 0.075,0.07 z m -0.145,0.665 a 0.555,0.555 0 1 0 -0.55,0.59 0.575,0.575 0 0 0 0.55,-0.59 z"
     style="fill:#263238;stroke-width:0.5"
     id="path250" />
  <path
     d="m 390.99953,239.28151 a 0.07,0.07 0 0 1 0.105,0 0.77,0.77 0 0 0 0.45,0.17 0.43,0.43 0 0 0 0.275,-0.09 0.225,0.225 0 0 0 0.115,-0.18 0.23,0.23 0 0 0 -0.105,-0.18 0.735,0.735 0 0 0 -0.315,-0.11 v 0 a 0.825,0.825 0 0 1 -0.33,-0.115 0.305,0.305 0 0 1 -0.16,-0.265 0.37,0.37 0 0 1 0.16,-0.29 0.65,0.65 0 0 1 0.355,-0.095 0.81,0.81 0 0 1 0.44,0.155 0.08,0.08 0 0 1 0,0.105 0.07,0.07 0 0 1 -0.1,0 0.645,0.645 0 0 0 -0.36,-0.145 0.43,0.43 0 0 0 -0.275,0.08 0.23,0.23 0 0 0 -0.095,0.17 0.17,0.17 0 0 0 0.085,0.145 0.715,0.715 0 0 0 0.3,0.105 v 0 a 0.93,0.93 0 0 1 0.355,0.12 0.35,0.35 0 0 1 0.165,0.3 0.37,0.37 0 0 1 -0.165,0.295 0.615,0.615 0 0 1 -0.365,0.12 0.91,0.91 0 0 1 -0.545,-0.21 0.075,0.075 0 0 1 0.01,-0.085 z"
     style="fill:#263238;stroke-width:0.5"
     id="path252" />
  <path
     d="m 392.44953,239.28151 a 0.065,0.065 0 0 1 0.1,0 0.785,0.785 0 0 0 0.45,0.17 0.445,0.445 0 0 0 0.28,-0.09 0.205,0.205 0 0 0 0,-0.36 0.735,0.735 0 0 0 -0.315,-0.11 v 0 a 0.825,0.825 0 0 1 -0.33,-0.115 0.305,0.305 0 0 1 -0.16,-0.265 0.37,0.37 0 0 1 0.16,-0.29 0.67,0.67 0 0 1 0.36,-0.095 0.81,0.81 0 0 1 0.435,0.155 0.075,0.075 0 0 1 0,0.105 0.065,0.065 0 0 1 -0.095,0 0.675,0.675 0 0 0 -0.36,-0.145 0.445,0.445 0 0 0 -0.28,0.08 0.23,0.23 0 0 0 -0.095,0.17 0.18,0.18 0 0 0 0.085,0.145 0.715,0.715 0 0 0 0.3,0.105 v 0 a 1,1 0 0 1 0.36,0.12 0.36,0.36 0 0 1 0.165,0.3 0.375,0.375 0 0 1 -0.17,0.295 0.59,0.59 0 0 1 -0.365,0.12 0.91,0.91 0 0 1 -0.545,-0.21 0.07,0.07 0 0 1 0.02,-0.085 z"
     style="fill:#263238;stroke-width:0.5"
     id="path254" />
  <path
     d="m 394.46953,239.57651 c 0,0 0,0 -0.03,-0.03 l -0.55,-1.315 a 0.08,0.08 0 0 1 0.035,-0.095 0.075,0.075 0 0 1 0.095,0.04 l 0.5,1.16 0.335,-0.81 a 0.08,0.08 0 0 1 0.145,0 l 0.335,0.81 0.5,-1.16 a 0.07,0.07 0 0 1 0.09,-0.04 0.075,0.075 0 0 1 0.04,0.095 l -0.55,1.305 a 0.11,0.11 0 0 1 -0.025,0.04 h -0.035 v 0 a 0.08,0.08 0 0 1 -0.06,-0.045 v 0 l -0.345,-0.815 -0.34,0.81 v 0 a 0.075,0.075 0 0 1 -0.065,0.045 h -0.025 z"
     style="fill:#263238;stroke-width:0.5"
     id="path256" />
  <path
     d="m 397.10453,238.10651 a 0.735,0.735 0 1 1 -0.695,0.735 0.72,0.72 0 0 1 0.695,-0.735 z m 0,1.325 a 0.595,0.595 0 1 0 -0.55,-0.59 0.575,0.575 0 0 0 0.55,0.605 z"
     style="fill:#263238;stroke-width:0.5"
     id="path258" />
  <path
     d="m 398.30453,238.19651 a 0.07,0.07 0 0 1 0.075,-0.075 0.07,0.07 0 0 1 0.065,0.075 v 0.325 l 0.025,-0.04 a 0.715,0.715 0 0 1 0.585,-0.36 0.075,0.075 0 0 1 0.075,0.075 0.075,0.075 0 0 1 -0.075,0.07 0.535,0.535 0 0 0 -0.425,0.24 1.21,1.21 0 0 0 -0.175,0.34 c 0,0 0,0 0,0 v 0.645 a 0.07,0.07 0 0 1 -0.065,0.075 0.07,0.07 0 0 1 -0.075,-0.075 z"
     style="fill:#263238;stroke-width:0.5"
     id="path260" />
  <path
     d="m 400.71953,239.30651 a 0.71,0.71 0 0 1 -0.565,0.285 0.735,0.735 0 0 1 0,-1.47 0.695,0.695 0 0 1 0.565,0.285 v -0.845 a 0.075,0.075 0 0 1 0.15,0 v 1.955 a 0.075,0.075 0 0 1 -0.15,0 z m 0,-0.425 v -0.05 a 0.585,0.585 0 1 0 0,0.05 z"
     style="fill:#263238;stroke-width:0.5"
     id="path262" />
  <path
     d="m 401.86453,238.72651 v 0 a 0.07,0.07 0 0 1 0.07,-0.07 0.5,0.5 0 1 0 0,-1 0.5,0.5 0 0 0 -0.435,0.255 0.08,0.08 0 0 1 -0.1,0.025 0.065,0.065 0 0 1 0,-0.095 0.635,0.635 0 0 1 0.555,-0.325 0.6460892,0.6460892 0 0 1 0.075,1.29 v 0.3 a 0.075,0.075 0 0 1 -0.075,0.07 0.07,0.07 0 0 1 -0.07,-0.07 z m 0,0.73 a 0.075,0.075 0 1 1 0.145,0 v 0.065 a 0.075,0.075 0 0 1 -0.075,0.07 0.07,0.07 0 0 1 -0.07,-0.07 z"
     style="fill:#263238;stroke-width:0.5"
     id="path264" />
  <path
     d="m 394.37953,88.146514 h -9.555 a 0.59,0.59 0 0 1 -0.59,-0.59 v 0 a 0.59,0.59 0 0 1 0.59,-0.59 h 9.555 a 0.59,0.59 0 0 1 0.59,0.59 v 0 a 0.59,0.59 0 0 1 -0.59,0.59 z"
     style="fill:#ffffff;stroke-width:0.5"
     id="path266" />
  <g
     id="freepik--Character--inject-87"
     transform="matrix(0.5,0,0,0.5,264.60453,49.606514)">
    <path
       d="m 340.31,129.43 -0.4,0.1 a 0.24,0.24 0 0 1 0.07,-0.12 v 0 z"
       style="fill:#263238"
       id="path269" />
    <path
       d="m 371.34,178 v 0"
       style="fill:none;stroke:#ff98b9;stroke-width:0px;stroke-linecap:round;stroke-linejoin:round"
       id="path271" />
    <rect
       x="351.63"
       y="160.83"
       width="0.0099999998"
       height="7.04"
       style="fill:#dd6a57"
       id="rect273" />
    <path
       d="m 351.64,160.83 v 8.92 c 0,-0.11 0,-0.23 0,-0.35 z"
       style="fill:#dd6a57"
       id="path275" />
    <path
       d="m 371.34,178 v 0"
       style="fill:none;stroke:#ff98b9;stroke-width:0px;stroke-linecap:round;stroke-linejoin:round"
       id="path277" />
    <path
       d="m 351.82,418.33 h -0.18 v -0.13 z"
       style="fill:#dd6a57"
       id="path279" />
    <path
       d="m 393.12,426.86 c -2.2,-1 -50.6,-44.76 -51.39,-47.6 -0.31,-1.07 5.66,-8.49 13.13,-17.26 1.61,-1.89 20.43,-32 20.43,-32 l 33.91,26.89 -23.06,33.29 c 0,0 11,25.06 11.56,28.27 0.56,3.21 -2.38,9.38 -4.58,8.41 z"
       style="fill:#dd6a57"
       id="path281" />
    <path
       d="m 393.74,407.9 a 93.42,93.42 0 0 1 4,10.51 c 0.52,3.21 -2.38,9.42 -4.58,8.45 -2.2,-0.97 -50.61,-44.76 -51.39,-47.59 -0.25,-0.88 3.62,-5.93 9.09,-12.48 9.78,11.36 40.62,46.72 42.88,43.43 a 4.39,4.39 0 0 0 0,-2.32 z"
       style="fill:#263238"
       id="path283" />
    <path
       d="m 358.09,356.35 34.3,28.3 c 0,0 47.71,-66.43 49.08,-90.71 1,-18.67 -26.66,-53.46 -45.48,-83.24 -1.82,-2.89 -0.71,-13.85 -0.64,-15.68 l -37.29,0.07 c -0.45,4.2 -3.37,25.33 2.91,35.62 12.92,21.16 33.78,51.87 34.58,58.52 0.8,6.65 -37.46,67.12 -37.46,67.12 z"
       style="fill:#37474f"
       id="path285" />
    <path
       d="m 394.6,374.25 c -5.48,-4.64 -3.84,-3.38 -9.37,-8 -2.71,-2.24 -16.28,-13.54 -19.15,-15.22 -0.07,0 -0.14,0.06 -0.09,0.11 2.22,2.47 16,13.48 18.78,15.68 5.61,4.48 4.05,3.13 9.71,7.55 a 0.1,0.1 0 1 0 0.12,-0.12 z"
       style="fill:#263238"
       id="path287" />
    <path
       d="m 398.85,283 c -1.25,-2.44 -2.59,-4.84 -4,-7.21 C 392.05,271 389,266.37 386,261.7 q -4.69,-7.32 -9.4,-14.62 c -2.82,-4.38 -5.68,-8.75 -8.13,-13.35 a 52.26,52.26 0 0 1 -5.41,-14.39 c -1.1,-5.54 -0.87,-11.24 -0.39,-16.84 0.12,-1.4 0.25,-2.79 0.38,-4.19 0,-0.24 -0.39,-0.29 -0.42,-0.05 a 89.88,89.88 0 0 0 -0.79,16.55 44.37,44.37 0 0 0 3.82,14.69 101.81,101.81 0 0 0 7.34,13.3 c 3,4.73 6,9.43 9,14.13 3,4.7 6.13,9.51 9.12,14.31 1.46,2.33 2.89,4.68 4.25,7.07 a 71.42,71.42 0 0 1 3.8,7.25 11.75,11.75 0 0 1 1.05,3.93 9.64,9.64 0 0 1 -0.76,4.1 c -1,2.57 -2.34,5 -3.56,7.5 -2.44,4.93 -4.92,9.84 -7.48,14.71 -5.14,9.77 -19,32.77 -19.73,33.95 -0.05,0.09 0.08,0.16 0.14,0.08 5.89,-9.41 13.05,-20.37 18.35,-30.13 q 4,-7.31 7.73,-14.74 1.88,-3.7 3.68,-7.46 c 1.1,-2.28 2.37,-4.63 2.44,-7.22 0.07,-2.59 -1.03,-5.01 -2.18,-7.28 z"
       style="fill:#263238"
       id="path289" />
    <path
       d="m 394.05,195 c -2.4,12.32 -9.34,47.76 -13.14,67.36 -6.52,-10.42 -14.06,-22 -19.94,-31.67 -6.28,-10.29 -3.36,-31.42 -2.91,-35.62 z"
       style="fill:#263238"
       id="path291" />
    <path
       d="m 401.31,451.53 c -2.29,0.73 -67.56,-0.19 -70,-1.8 -0.94,-0.61 -1.36,-10.12 -1.54,-21.63 0,-2.48 0.55,-40.37 0.55,-40.37 l 43.66,0.49 -2.13,40.35 c 0,0 24.84,11.53 27.35,13.59 2.51,2.06 4.4,8.64 2.11,9.37 z"
       style="fill:#dd6a57"
       id="path293" />
    <path
       d="m 389.25,436.88 a 95.07,95.07 0 0 1 9.92,5.28 c 2.51,2.06 4.43,8.64 2.14,9.36 -2.29,0.72 -67.56,-0.18 -70,-1.79 -0.77,-0.49 -1.19,-6.84 -1.41,-15.37 14.84,2.07 61.35,8.25 60.87,4.29 -0.06,-0.37 -0.63,-1 -1.52,-1.77 z"
       style="fill:#263238"
       id="path295" />
    <path
       d="m 395.35,195.09 c 0,0 -7.39,36 -7.78,37.15 a 93.7,93.7 0 0 0 -10.5,5.21 l -2.64,183 -47.08,0.31 c 0,0 5.84,-97 5.67,-103.24 -0.26,-10 4.07,-77.64 3.47,-79.34 -6.15,-17.36 3.5,-43 3.5,-43 z"
       style="fill:#37474f"
       id="path297" />
    <path
       d="m 372.66,411.72 c -13.28,-0.57 -39,-0.33 -42.25,0.23 -0.07,0 -0.07,0.14 0,0.15 3.29,0.53 34.5,0.59 42.25,-0.17 a 0.11,0.11 0 0 0 0,-0.21 z"
       style="fill:#263238"
       id="path299" />
    <path
       d="m 338,365.14 c 0.75,-13.76 1.56,-27.52 2.35,-41.28 0.79,-13.76 1.57,-27.53 2.36,-41.29 0.39,-6.88 0.76,-13.76 1.18,-20.64 l 0.63,-10.32 a 89.59,89.59 0 0 0 0.44,-10.22 c -0.19,-3.72 -1.82,-7 -2.75,-10.55 A 41.37,41.37 0 0 1 341,220.51 c 0,-7.18 1.45,-14.28 2.82,-21.29 0.08,-0.39 0.68,-0.22 0.6,0.17 a 102.75,102.75 0 0 0 -2.89,19.61 42.12,42.12 0 0 0 0.85,9.83 c 0.67,3.1 2,6 2.8,9 0.8,3 0.45,6.44 0.25,9.66 -0.21,3.44 -0.38,6.88 -0.56,10.32 -0.37,6.74 -0.77,13.48 -1.15,20.23 -1.57,27.38 -3.09,54.77 -4.76,82.15 -0.96,15.41 -1.69,30.81 -2.96,46.24 0,0.11 -0.19,0.11 -0.18,0 0.52,-13.77 1.42,-27.53 2.18,-41.29 z"
       style="fill:#263238"
       id="path301" />
    <path
       d="m 345.08,216.65 c 0.79,-0.32 1.67,-0.42 2.48,-0.67 a 20.57,20.57 0 0 0 2.52,-0.93 19,19 0 0 0 4.32,-2.71 10.08,10.08 0 0 0 2.76,-4.17 c 0.34,-0.85 0.66,-1.71 1,-2.57 0.16,-0.42 0.33,-0.85 0.5,-1.27 0.06,-0.17 0.5,-1.07 0.57,-1.35 a 0.08,0.08 0 0 1 -0.11,0 h -0.05 a 0.09,0.09 0 0 1 0,-0.11 c 0.05,-0.1 0.06,-0.11 0.17,-0.14 a 0.11,0.11 0 0 1 0.12,0.05 c 0.17,0.28 0,0.55 -0.06,0.85 -0.13,0.57 -0.26,1.13 -0.4,1.69 -0.25,1 -0.48,2 -0.76,2.94 a 9.9,9.9 0 0 1 -2.76,4.79 15.45,15.45 0 0 1 -4.82,2.88 17.14,17.14 0 0 1 -2.79,0.82 7.59,7.59 0 0 1 -2.68,0.2 c -0.17,-0.06 -0.09,-0.25 -0.01,-0.3 z"
       style="fill:#263238"
       id="path303" />
    <path
       d="m 383.11,226.52 c 0.08,-1.65 0.18,-3.29 0.3,-4.94 0.26,-3.76 0.59,-7.53 1.18,-11.24 0.05,-0.3 0.46,-0.19 0.44,0.08 -0.2,2.92 -0.49,5.84 -0.71,8.75 -0.22,2.91 -0.52,5.82 -0.52,8.72 0,0.87 0.08,2.35 1.16,2.58 1.44,0.3 2.09,-1.61 2.42,-2.65 a 47.92,47.92 0 0 0 1.67,-8 c 0.42,-3.07 0.62,-6.17 0.86,-9.25 0,-0.11 0.19,-0.1 0.2,0 0.12,6.11 0.14,12.5 -2,18.31 a 3.41,3.41 0 0 1 -2.49,2.46 h -0.06 c 0,0 0,0.07 0,0.1 0,0.03 -0.07,0.35 -0.09,0.52 -0.02,0.17 -0.05,0.28 -0.08,0.43 -0.03,0.15 -0.09,0.59 -0.16,0.89 a 0.23,0.23 0 0 1 -0.45,0 0.2,0.2 0 0 1 -0.13,-0.18 5,5 0 0 1 0.37,-1.74 2.15,2.15 0 0 1 -1.6,-1.3 7.61,7.61 0 0 1 -0.31,-3.54 z"
       style="fill:#263238"
       id="path305" />
    <path
       d="m 387.61,231.89 a 87,87 0 0 0 -13.33,7.28 c -0.17,0.11 0,0.37 0.14,0.27 4.5,-2.28 9.1,-4.48 13.47,-7 a 0.30858548,0.30858548 0 0 0 -0.28,-0.55 z"
       style="fill:#263238"
       id="path307" />
    <path
       d="m 375.74,327.9 c 0,-0.44 0.14,-0.61 0.16,-0.07 0.11,3 0.07,7.39 0.1,10.43 0,3.58 0,7.15 0,10.72 0,3.57 -0.13,7.15 -0.27,10.73 l -0.22,5.35 c -0.07,1.24 0,3.68 -0.12,4.91 0,0.55 -0.17,0.65 -0.22,0.1 -0.09,-1.79 -0.09,-3.22 -0.15,-5 l -0.06,-5.37 c 0,-3.57 0,-7.15 0,-10.72 0,-3.57 0.13,-7.15 0.27,-10.72 0.14,-3.57 0.25,-6.79 0.51,-10.36 z"
       style="fill:#263238"
       id="path309" />
    <path
       d="m 399.23,144.31 a 0.53,0.53 0 0 1 -0.39,0.59 l -2.11,0.2 c -2.11,-5.24 -4.33,-9.39 -3.73,-7.76 a 28.94,28.94 0 0 1 1.65,7.94 l -4.17,0.32 c -2,-9.27 -4.42,-16.11 -4.2,-14 0.88,8.57 0.52,11.34 0.09,14.3 -10.07,0.74 -23.28,1.54 -32.84,1.91 -1.32,-5.11 -2.51,-10.66 -2.67,-10.26 -1.18,2.93 -1.36,7.15 -1.26,10.4 -3.05,0.09 -5.48,0.11 -7,0 0,0 -0.89,-4.31 -1.05,-5.73 a 31.41,31.41 0 0 1 0.62,-10.85 54.84,54.84 0 0 1 4,-10.15 v -0.07 c 0,0 0,0 0,0 a 31.22,31.22 0 0 0 2.28,-6.77 0.2,0.2 0 0 0 0,-0.05 30.84,30.84 0 0 0 0.58,-5.17 c 0.18,-6.36 3.3,-11.92 8.81,-13.73 10.09,-10.86 20.83,-6.64 24.35,1.42 0.34,0.79 0.68,1.69 1,2.68 v 0 c 1.23,3.64 2.39,8.38 3.43,12 v 0 c 0,0 0,0 0,0 v 0 a 38.4,38.4 0 0 0 1.42,4.22 c 3.08,6.72 9.32,10.34 11.19,28.56 z"
       style="fill:#263238"
       id="path311" />
    <path
       d="m 355.58,97.26 a 11.7,11.7 0 0 0 -6.08,9.8 32.78,32.78 0 0 1 -1.14,7.92 27.58,27.58 0 0 1 -3.93,7 20.85,20.85 0 0 0 -4.33,11.49 c -0.21,4.63 0.22,10.08 1.85,14.35 0,0 0,0 0,0 a 39.5,39.5 0 0 1 -1.1,-15 c 0.59,-5 3.12,-8.27 5.68,-12.15 a 21.4,21.4 0 0 0 3.58,-10.36 c 0.18,-2.29 0.05,-4.68 0.83,-6.85 0.92,-2.6 2.9,-4.29 4.88,-5.79 0.3,-0.16 0.03,-0.58 -0.24,-0.41 z"
       style="fill:#263238"
       id="path313" />
    <path
       d="m 394.62,122.87 c -2.73,-3.54 -5.55,-6.55 -7.25,-11 -1.54,-4 -2.51,-8.31 -4.08,-12.34 0,-0.07 -0.11,0 -0.09,0 2.46,7.16 3.18,14.44 7.79,20.4 2.5,3.24 5,6.24 6.72,10.16 a 37.77,37.77 0 0 1 3,13 0.11,0.11 0 1 0 0.21,0 31,31 0 0 0 -6.3,-20.22 z"
       style="fill:#263238"
       id="path315" />
    <path
       d="m 418.93,103.23 -6.47,29.64 c -0.29,0.88 0.16,1.56 1,1.54 l 15.17,-0.48 a 2.47,2.47 0 0 0 2.06,-1.64 l 6.48,-29.63 c 0.28,-0.88 -0.17,-1.56 -1,-1.54 L 421,101.6 a 2.47,2.47 0 0 0 -2.07,1.63 z"
       style="fill:#37474f"
       id="path317" />
    <path
       d="m 420.73,103.16 -6.47,29.64 c -0.29,0.87 0.16,1.56 1,1.53 l 15.18,-0.48 a 2.46,2.46 0 0 0 2.05,-1.63 L 439,102.58 c 0.28,-0.87 -0.17,-1.56 -1,-1.53 l -15.17,0.48 a 2.47,2.47 0 0 0 -2.1,1.63 z"
       style="fill:#455a64"
       id="path319" />
    <path
       d="m 424.93,104.37 a 1.29,1.29 0 0 1 -1.27,1.31 1.29,1.29 0 1 1 0,-2.58 1.28,1.28 0 0 1 1.27,1.27 z"
       style="fill:#263238"
       id="path321" />
    <path
       d="m 371.44,149.31 c 9,18.09 28.83,41.4 36.81,41.33 3.8,0 10.59,0.71 15.48,-3.76 10.65,-9.77 19.32,-28.18 20.93,-38.64 0.57,-3.73 -17.64,-11.34 -20.23,-8.26 -6.08,7.21 -13,21.24 -14.11,21.18 C 406.23,161 390,148 378.59,138.91 c -13.79,-11.06 -10.74,3.19 -7.15,10.4 z"
       style="fill:#dd6a57"
       id="path323" />
    <path
       d="m 444.67,129.07 c -2.08,-7.48 -3.76,-9.08 -2.17,-16.33 1.05,-4.75 -1.54,-7.46 -4.8,-3.59 -5.34,6.33 -4.68,16.55 -3.44,20 z"
       style="fill:#dd6a57"
       id="path325" />
    <path
       d="m 443.85,151.48 c 0,0 3.12,-10.56 1.69,-18.75 -1,-5.66 -4.51,-17.75 -20.57,-23.8 -3.81,-1.44 -10.25,-0.78 -4.88,3.82 3.81,3.27 7.22,4.19 9.09,6.5 0,0 -8.1,1.81 -9.39,5.68 a 76,76 0 0 0 -2.65,10.36 15.89,15.89 0 0 0 1.9,0.67 c 0,0 -0.86,3.73 1.95,8.83 z"
       style="fill:#dd6a57"
       id="path327" />
    <path
       d="m 443.74,127.47 c -2.34,-1.89 -7.38,-5.83 -12.61,-7.62 -5.82,-2 -17.56,-4.24 -19,0.07 -1,3.16 3.37,4.41 3.37,4.41 0,0 -5,0.09 -5.37,3.15 -0.29,2.79 3.18,3.56 3.18,3.56 0,0 -3.06,0.58 -2.82,3.32 0.29,3.29 6.64,1.54 9.81,4.62 0.7,0.7 23.44,-11.51 23.44,-11.51 z"
       style="fill:#dd6a57"
       id="path329" />
    <path
       d="m 430.05,126.35 a 24.45,24.45 0 0 0 -14.44,-2.1 c -0.12,0 -0.17,0.13 -0.05,0.13 a 60.82,60.82 0 0 1 14.48,2 c 0,0 0.04,-0.01 0.01,-0.03 z"
       style="fill:#263238"
       id="path331" />
    <path
       d="m 427.88,132.16 c -2.28,-1 -9.06,-2.54 -14.55,-1.23 -0.12,0 -0.16,0.14 0,0.13 a 64.46,64.46 0 0 1 14.57,1.16 c 0,0 0.01,-0.05 -0.02,-0.06 z"
       style="fill:#263238"
       id="path333" />
    <path
       d="m 379.72,165.72 15,-15.71 c 0,0 -11.2,-10.23 -19.42,-14.22 -8.22,-3.99 -9.57,1.35 -6.16,9.58 3.41,8.23 10.58,20.35 10.58,20.35 z"
       style="fill:#bbeae6"
       id="path335" />
    <path
       d="m 379.72,165.72 15,-15.71 c 0,0 -11.2,-10.23 -19.42,-14.22 -8.22,-3.99 -9.57,1.35 -6.16,9.58 3.41,8.23 10.58,20.35 10.58,20.35 z"
       style="opacity:0.1"
       id="path337" />
    <path
       d="m 393.58,181.38 7.05,33.07 c 0,0 -54.36,4.38 -67.93,4.32 0,0 6.91,-63.15 20.4,-79.87 6.75,-8.37 15.32,-8.34 21.11,-3.18 1.47,1.31 19.31,21.92 21.58,30.09 1.99,7.19 -2.21,15.57 -2.21,15.57 z"
       style="fill:#ebebeb"
       id="path339" />
    <path
       d="m 368.21,132.51 h -5.77 a 12.23,12.23 0 0 1 5.77,0 z"
       style="fill:#bbeae6"
       id="path341" />
    <path
       d="m 374.15,135.67 h -17.88 c 0.25,-0.21 0.51,-0.41 0.77,-0.59 h 16.4 c 0.24,0.19 0.48,0.38 0.71,0.59 z"
       style="fill:#bbeae6"
       id="path343" />
    <path
       d="m 377,138.83 h -23.84 l 0.49,-0.59 h 22.86 z"
       style="fill:#bbeae6"
       id="path345" />
    <path
       d="M 379.7,142 H 351 c 0.11,-0.2 0.23,-0.4 0.36,-0.59 h 27.86 z"
       style="fill:#bbeae6"
       id="path347" />
    <path
       d="m 382.29,145.15 h -33 c 0.09,-0.2 0.19,-0.4 0.29,-0.59 h 32.24 z"
       style="fill:#bbeae6"
       id="path349" />
    <path
       d="m 384.79,148.31 h -37 c 0.09,-0.2 0.17,-0.4 0.25,-0.59 h 36.24 z"
       style="fill:#bbeae6"
       id="path351" />
    <path
       d="m 387.2,151.47 h -40.61 l 0.22,-0.6 h 39.94 z"
       style="fill:#bbeae6"
       id="path353" />
    <path
       d="m 389.49,154.63 h -44 c 0.07,-0.21 0.13,-0.4 0.2,-0.6 h 43.4 z"
       style="fill:#bbeae6"
       id="path355" />
    <path
       d="m 391.64,157.79 h -47.22 l 0.2,-0.6 h 46.62 z"
       style="fill:#bbeae6"
       id="path357" />
    <path
       d="m 393.57,161 h -50.09 c 0,-0.21 0.11,-0.4 0.17,-0.6 h 49.57 c 0.13,0.15 0.24,0.35 0.35,0.6 z"
       style="fill:#bbeae6"
       id="path359" />
    <path
       d="m 395.18,164.11 h -52.59 c 0.05,-0.2 0.11,-0.4 0.16,-0.6 h 52.16 q 0.15,0.3 0.27,0.6 z"
       style="fill:#bbeae6"
       id="path361" />
    <path
       d="m 396.11,167.26 h -54.35 l 0.15,-0.59 H 396 c 0,0.2 0.08,0.39 0.11,0.59 z"
       style="fill:#bbeae6"
       id="path363" />
    <path
       d="m 396.33,169.83 c 0,0.2 0,0.4 0,0.59 H 341 c 0,-0.2 0.1,-0.4 0.14,-0.59 z"
       style="fill:#bbeae6"
       id="path365" />
    <path
       d="m 396.12,173 c 0,0.2 -0.06,0.4 -0.1,0.59 h -55.77 c 0,-0.19 0.08,-0.39 0.13,-0.59 z"
       style="fill:#bbeae6"
       id="path367" />
    <path
       d="m 395.47,176.15 c -0.05,0.2 -0.1,0.4 -0.16,0.59 h -55.77 c 0,-0.2 0.09,-0.39 0.13,-0.59 z"
       style="fill:#bbeae6"
       id="path369" />
    <path
       d="m 394.46,179.31 -0.23,0.59 h -55.35 c 0,-0.2 0.07,-0.39 0.12,-0.59 z"
       style="fill:#bbeae6"
       id="path371" />
    <path
       d="m 393.94,183.06 h -55.7 c 0,-0.2 0.07,-0.39 0.12,-0.59 h 55.45 z"
       style="fill:#bbeae6"
       id="path373" />
    <path
       d="m 394.61,186.22 h -57 c 0,-0.2 0.07,-0.39 0.11,-0.59 h 56.75 z"
       style="fill:#bbeae6"
       id="path375" />
    <path
       d="m 395.29,189.38 h -58.24 c 0,-0.2 0.07,-0.4 0.1,-0.6 h 58 z"
       style="fill:#bbeae6"
       id="path377" />
    <path
       d="m 396,192.54 h -59.51 c 0,-0.2 0.07,-0.4 0.1,-0.6 h 59.24 z"
       style="fill:#bbeae6"
       id="path379" />
    <path
       d="M 396.63,195.7 H 336 c 0,-0.2 0.06,-0.4 0.1,-0.6 h 60.4 z"
       style="fill:#bbeae6"
       id="path381" />
    <path
       d="m 397.31,198.86 h -61.86 l 0.09,-0.6 h 61.64 z"
       style="fill:#bbeae6"
       id="path383" />
    <path
       d="m 398,202 h -63 c 0,-0.2 0.07,-0.4 0.1,-0.6 h 62.8 z"
       style="fill:#bbeae6"
       id="path385" />
    <path
       d="m 398.65,205.17 h -64.17 l 0.09,-0.59 h 64 z"
       style="fill:#bbeae6"
       id="path387" />
    <path
       d="M 399.33,208.33 H 334 l 0.09,-0.59 h 65.11 z"
       style="fill:#bbeae6"
       id="path389" />
    <path
       d="m 400,211.49 h -66.4 c 0,-0.19 0.06,-0.39 0.08,-0.59 h 66.19 z"
       style="fill:#bbeae6"
       id="path391" />
    <path
       d="m 400.63,214.45 -2.48,0.2 H 333.2 c 0,-0.19 0,-0.38 0.07,-0.59 h 67.28 z"
       style="fill:#bbeae6"
       id="path393" />
    <path
       d="m 363.29,217.22 c -3.08,0.21 -6.14,0.41 -9.09,0.59 h -21.39 c 0,-0.17 0,-0.37 0.07,-0.59 z"
       style="fill:#bbeae6"
       id="path395" />
    <path
       d="m 395.49,175.74 a 20.23,20.23 0 0 0 0.42,-6 28,28 0 0 0 -4.07,-11.39 c -1.17,-2 -2.57,-3.84 -3.73,-5.83 a 0.05,0.05 0 1 1 0.08,-0.06 41.81,41.81 0 0 1 3,4.08 0.61,0.61 0 0 0 -0.07,-0.14 c -0.32,-0.78 -0.65,-1.55 -1,-2.31 0,-0.08 0.1,-0.15 0.14,-0.07 0.4,0.74 0.78,1.48 1.14,2.23 0.22,0.49 0.41,1 0.58,1.48 a 37.47,37.47 0 0 1 3,5.46 18.91,18.91 0 0 1 1.41,12 21.47,21.47 0 0 1 -2.73,6.17 0.08,0.08 0 0 1 -0.14,-0.07 29.9,29.9 0 0 0 2,-5.59"
       style="fill:#263238"
       id="path397" />
    <path
       d="m 361.55,136.37 c 0.41,1 6.53,7.12 11.34,6.14 1.56,-0.32 0.19,-8.94 0.19,-8.94 v -0.66 l 0.62,-9.23 -11.53,-5.1 -1.65,-0.66 c 0,0 0,2.54 0,5.7 v 1 c 0,0.47 0,1 0,1.44 0,0.44 0,0.72 0,1.1 0,0.38 0,0.76 0,1.14 a 58.49,58.49 0 0 0 1.03,8.07 z"
       style="fill:#dd6a57"
       id="path399" />
    <path
       d="m 360.59,123.62 a 18.58,18.58 0 0 0 12.53,9.29 l 0.62,-9.23 -11.53,-5.1 -1.65,-0.66 c 0,0 0,2.54 0.03,5.7 z"
       style="fill:#263238"
       id="path401" />
    <path
       d="m 385.11,109.82 c 1.69,16.15 -7.79,19 -11.27,19.34 -3.16,0.33 -14,1 -17.32,-14.84 -3.32,-15.84 3.62,-21.78 10.82,-22.91 7.2,-1.13 16.08,2.26 17.77,18.41 z"
       style="fill:#dd6a57"
       id="path403" />
    <path
       d="m 381.52,106.34 a 10.43,10.43 0 0 1 -1.11,-0.11 1.79,1.79 0 0 1 -1.12,-0.34 0.58,0.58 0 0 1 -0.07,-0.7 1.42,1.42 0 0 1 1.37,-0.48 2.13,2.13 0 0 1 1.39,0.6 0.61,0.61 0 0 1 -0.46,1.03 z"
       style="fill:#263238"
       id="path405" />
    <path
       d="m 370.89,107.57 a 9.52,9.52 0 0 0 1.07,-0.34 1.78,1.78 0 0 0 1,-0.56 0.57,0.57 0 0 0 -0.07,-0.7 1.46,1.46 0 0 0 -1.44,-0.19 2.14,2.14 0 0 0 -1.24,0.88 0.61,0.61 0 0 0 0.68,0.91 z"
       style="fill:#263238"
       id="path407" />
    <path
       d="m 373.74,111.42 c 0,0 -0.08,0.06 -0.07,0.11 0.17,1.09 0.19,2.37 -0.75,2.86 0,0 0,0.07 0,0.06 1.2,-0.32 1.16,-2.02 0.82,-3.03 z"
       style="fill:#263238"
       id="path409" />
    <path
       d="m 372.61,110.4 c -1.78,0.1 -1.46,3.65 0.19,3.56 1.65,-0.09 1.31,-3.64 -0.19,-3.56 z"
       style="fill:#263238"
       id="path411" />
    <path
       d="m 371.93,110.65 c -0.29,0.23 -0.56,0.61 -0.93,0.69 -0.37,0.08 -0.79,-0.27 -1.11,-0.6 0,0 -0.06,0 -0.06,0.05 0.05,0.68 0.38,1.36 1.12,1.39 0.74,0.03 1.1,-0.61 1.21,-1.31 0.02,-0.13 -0.11,-0.31 -0.23,-0.22 z"
       style="fill:#263238"
       id="path413" />
    <path
       d="m 379.82,110.59 c 0,0 0.09,0 0.09,0.09 0.06,1.11 0.31,2.36 1.33,2.65 0,0 0,0.06 0,0.06 -1.24,-0.07 -1.55,-1.74 -1.42,-2.8 z"
       style="fill:#263238"
       id="path415" />
    <path
       d="m 380.71,109.36 c 1.76,-0.28 2.19,3.27 0.56,3.52 -1.63,0.25 -2.04,-3.28 -0.56,-3.52 z"
       style="fill:#263238"
       id="path417" />
    <path
       d="m 381.48,109.51 c 0.3,0.15 0.62,0.46 0.95,0.44 0.33,-0.02 0.64,-0.44 0.84,-0.84 0,0 0.05,0 0.06,0 0.1,0.68 0,1.41 -0.67,1.62 -0.67,0.21 -1.09,-0.34 -1.33,-1 -0.05,-0.08 0.02,-0.29 0.15,-0.22 z"
       style="fill:#263238"
       id="path419" />
    <path
       d="m 374.63,120.22 c 0.28,0.24 0.56,0.59 1,0.6 a 2.71,2.71 0 0 0 1.17,-0.33 c 0,0 0.07,0 0.05,0.06 a 1.48,1.48 0 0 1 -1.37,0.66 1.18,1.18 0 0 1 -0.91,-0.94 c -0.06,-0.06 0.02,-0.09 0.06,-0.05 z"
       style="fill:#263238"
       id="path421" />
    <path
       d="m 378.83,115.77 c 0,0 0.39,1.62 0.47,2.4 0,0.07 -0.18,0.12 -0.44,0.17 v 0 a 3.72,3.72 0 0 1 -3.72,-1 c -0.06,-0.07 0,-0.16 0.11,-0.12 a 5.62,5.62 0 0 0 3.46,0.62 c 0,-0.22 -0.77,-2.75 -0.65,-2.77 a 6.55,6.55 0 0 1 1.8,0.22 c -0.72,-3.4 -2,-6.65 -2.65,-10 a 0.11,0.11 0 0 1 0.2,-0.07 56.83,56.83 0 0 1 3.32,10.7 c 0.07,0.37 -1.58,-0.05 -1.9,-0.15 z"
       style="fill:#263238"
       id="path423" />
    <path
       d="m 378.67,118.15 a 4.38,4.38 0 0 1 -1.55,1.58 2,2 0 0 1 -1.18,0.24 c -0.89,-0.11 -1,-0.89 -0.95,-1.59 a 4.66,4.66 0 0 1 0.24,-1.08 5.67,5.67 0 0 0 3.44,0.85 z"
       style="fill:#263238"
       id="path425" />
    <path
       d="m 377.12,119.73 a 2,2 0 0 1 -1.18,0.24 c -0.89,-0.11 -1,-0.89 -0.95,-1.59 a 2.05,2.05 0 0 1 2.13,1.35 z"
       style="fill:#ff9abb"
       id="path427" />
    <path
       d="m 357.75,113.63 c 3,0.49 4,-6.28 4,-6.28 0,0 12.74,-1.63 14.22,-11.88 a 17.48,17.48 0 0 0 8.41,9.89 c 0,0 0,-11.31 -8.85,-13.86 0,0 -10.94,-4.5 -17.54,4.07 -6.6,8.57 -2.22,17.73 -0.24,18.06 z"
       style="fill:#263238"
       id="path429" />
    <path
       d="m 376,94.71 a 11.24,11.24 0 0 1 -0.76,4.68 11.76,11.76 0 0 1 -2.55,4.06 11.52,11.52 0 0 1 -0.89,0.82 l -0.45,0.4 -0.5,0.34 c -0.34,0.22 -0.67,0.45 -1,0.65 -0.33,0.2 -0.72,0.36 -1.08,0.53 -0.18,0.08 -0.36,0.18 -0.54,0.25 l -0.57,0.2 -1.13,0.38 c -0.77,0.18 -1.55,0.32 -2.33,0.45 0.74,-0.29 1.5,-0.49 2.22,-0.78 l 1.07,-0.47 0.53,-0.23 0.5,-0.29 c 0.34,-0.2 0.67,-0.39 1,-0.57 0.33,-0.18 0.62,-0.45 0.93,-0.67 l 0.47,-0.34 0.42,-0.38 a 8.89,8.89 0 0 0 0.83,-0.79 13.92,13.92 0 0 0 3.36,-6 13.48,13.48 0 0 0 0.47,-2.24 z"
       style="fill:#263238"
       id="path431" />
    <path
       d="m 359.58,115 c 0,0 -3.63,-5 -5.91,-3.7 -2.28,1.3 0.52,8.6 3.24,9.56 a 2.75,2.75 0 0 0 3.65,-1.54 z"
       style="fill:#dd6a57"
       id="path433" />
    <path
       d="m 354.52,113.41 a 0.035,0 -90 0 0 0,0.07 c 1.91,0.74 2.94,2.47 3.67,4.28 a 1.52,1.52 0 0 0 -2.28,-0.37 c 0,0 0,0.11 0.05,0.1 a 1.68,1.68 0 0 1 1.87,0.55 8.79,8.79 0 0 1 0.92,1.49 c 0.09,0.17 0.4,0.07 0.33,-0.12 v 0 c -0.02,-2.41 -1.96,-5.8 -4.56,-6 z"
       style="fill:#263238"
       id="path435" />
    <path
       d="m 359.26,95.39 c 1.45,-0.54 2.83,-8.65 -2.5,-12.52 -5.33,-3.87 -12.16,0.55 -9.3,7.2 1.81,4.2 8.73,6.46 11.8,5.32 z"
       style="fill:#263238"
       id="path437" />
    <path
       d="m 349.3,82.4 a 9.07,9.07 0 0 0 -3.07,5.14 5.46,5.46 0 0 0 1.62,5.22 10.94,10.94 0 0 0 5.29,2.59 16.42,16.42 0 0 0 3.05,0.38 8.64,8.64 0 0 0 3.07,-0.34 7.34,7.34 0 0 1 -3.05,0.9 13.35,13.35 0 0 1 -3.22,-0.05 10.61,10.61 0 0 1 -5.94,-2.64 6.38,6.38 0 0 1 -1.76,-2.91 6.59,6.59 0 0 1 0.06,-3.36 8,8 0 0 1 3.95,-4.93 z"
       style="fill:#263238"
       id="path439" />
    <path
       d="m 352.1,140.18 c -13.38,20.13 -20.94,46.93 -20,52.83 1.08,6.49 10.24,28.43 19.68,38.1 2.49,2.55 21.35,-18.37 18.8,-21.2 -4.91,-5.46 -14.66,-21.55 -15.09,-25.22 -0.4,-3.39 4.54,-25.2 5.84,-37.6 1.3,-11.91 -3.01,-16.28 -9.23,-6.91 z"
       style="fill:#dd6a57"
       id="path441" />
    <path
       d="m 370,209.24 c 0,0 10.24,4.5 16.8,7.76 3.66,1.82 9.66,5.5 11.74,8.07 3.1,3.83 13.65,21.87 9.33,24.52 -3.91,2.4 -11,-14.24 -11,-14.24 0,0 8.64,16.16 3.4,18.19 -5.24,2.03 -10.75,-17.86 -10.75,-17.86 0,0 8.51,16.81 2.78,18 -4.3,0.98 -10.3,-16.74 -10.3,-16.74 0,0 7.21,14.5 2.8,15.65 -4.88,1.27 -11.45,-14.74 -11.45,-14.74 -11.71,1 -17.71,-3.27 -21.61,-6.83 -0.96,-0.86 18.26,-21.78 18.26,-21.78 z"
       style="fill:#dd6a57"
       id="path443" />
    <path
       d="m 394.27,229.56 c 1.08,1.86 2.19,3.74 3.11,5.69 0.92,1.95 1.76,3.94 2.49,6 a 36.79,36.79 0 0 1 2.08,8.16 c -1,-4.9 -4.2,-11.94 -5.12,-13.89 -0.92,-1.95 -1.73,-4 -2.64,-5.9 -0.02,-0.07 0.05,-0.1 0.08,-0.06 z"
       style="fill:#263238"
       id="path445" />
    <path
       d="m 387.16,232.74 c 1.28,2.43 2.64,4.81 3.82,7.3 1.18,2.49 2,4.94 3,7.5 0.07,0.2 -0.06,0.17 -0.14,0 -1.1,-2.52 -2.3,-4.76 -3.43,-7.26 -1.13,-2.5 -2.15,-5 -3.36,-7.5 0.03,-0.06 0.09,-0.08 0.11,-0.04 z"
       style="fill:#263238"
       id="path447" />
    <path
       d="m 380.57,234.36 a 62.1,62.1 0 0 1 5,11.62 c 0.07,0.2 -0.1,0.15 -0.18,0 -1.58,-3.89 -2.8,-7 -4.93,-11.49 -0.05,-0.12 0.06,-0.2 0.11,-0.13 z"
       style="fill:#263238"
       id="path449" />
    <path
       d="m 339.24,160.83 21.32,4.11 c 0,0 2.55,-14.95 1.46,-24 -1.09,-9.05 -6.31,-7.31 -11.38,0 -5.07,7.31 -11.4,19.89 -11.4,19.89 z"
       style="fill:#bbeae6"
       id="path451" />
    <path
       d="m 339.24,160.83 21.32,4.11 c 0,0 2.55,-14.95 1.46,-24 -1.09,-9.05 -6.31,-7.31 -11.38,0 -5.07,7.31 -11.4,19.89 -11.4,19.89 z"
       style="opacity:0.1"
       id="path453" />
  </g>
  <g
     id="freepik--Plant--inject-87"
     transform="matrix(0.5,0,0,0.5,264.60453,49.606514)">
    <path
       d="m 121.6,343.45 c -1.16,4.93 -2.39,9.78 -2.63,14.84 0.14,0.25 0.11,1.17 0,0.92 0,0.82 -1.27,0.67 -1.27,-0.14 0,-0.52 0,-1.05 0,-1.55 -2.9,-3.61 -7.11,-5.89 -10.51,-9 a 19.76,19.76 0 0 1 -5.76,-9.17 c -2.82,-9.73 -0.18,-20 -3.57,-29.75 -2.93,-8.36 -8.18,-15.64 -12.62,-23.22 -4.69,-8 -8.15,-16.44 -8.5,-25.83 -0.27,-7.19 0.58,-16.77 6.06,-22.15 5.8,-5.72 13,-1.44 17.45,3.66 12.88,14.79 18.84,33.48 21.25,52.59 1.33,10.58 2.71,21.22 2.39,31.89 a 86,86 0 0 1 -2.29,16.91 z"
       style="fill:#bbeae6"
       id="path456" />
    <path
       d="m 119,362.18 a 182.85,182.85 0 0 0 -0.35,-30 0.93,0.93 0 0 0 0,-0.1 c 0.16,-8.1 0.8,-16.17 0.48,-24.28 a 143.87,143.87 0 0 0 -3.56,-26 c 0,-0.1 -0.18,-0.07 -0.16,0 a 170.1,170.1 0 0 1 2.82,25.46 q 0.24,6.87 -0.11,13.73 c -0.08,1.49 -0.22,3 -0.32,4.49 v 0 A 160.16,160.16 0 0 0 93.7,261.71 c -0.16,-0.26 -0.63,0 -0.47,0.29 a 166.42,166.42 0 0 1 19.62,47.28 c -6.2,-11.48 -15.56,-20.92 -22.5,-31.95 0,-0.06 -0.14,0 -0.11,0.06 6.24,12.29 16.55,22 23.12,34.07 1.13,4.93 2.07,9.91 2.76,14.92 a 167.31,167.31 0 0 1 1.5,20.72 c -3.78,-7.05 -7.7,-13.8 -10.78,-21.26 a 0.16347783,0.16347783 0 0 0 -0.3,0.13 c 2.62,7.75 6.15,16.1 11.1,22.71 q 0,7.36 -0.41,14.72 c -0.77,13.08 -3,26 -4,39 a 0.30203477,0.30203477 0 0 0 0.6,0.07 298.62,298.62 0 0 0 5.17,-40.29 z"
       style="fill:#263238"
       id="path458" />
    <path
       d="m 105.14,261.29 c 0,-0.09 -0.18,0 -0.15,0.07 2.39,6.61 3.74,13.3 5.47,20.07 a 0.25,0.25 0 0 0 0.49,-0.08 c -0.7,-6.87 -3.15,-13.72 -5.81,-20.06 z"
       style="fill:#263238"
       id="path460" />
    <path
       d="m 165.81,289 a 101.34,101.34 0 0 1 -5.49,11.29 c -4.31,7.81 -8.79,15 -9.61,24.07 -0.36,4.06 -0.49,8.14 -1.73,12 a 35.77,35.77 0 0 1 -4.8,9.44 c -4.66,6.79 -10.49,12.65 -14.81,19.7 a 82.73,82.73 0 0 0 -9.85,23.73 c -0.1,0.46 -0.82,0.33 -0.72,-0.12 a 0.45,0.45 0 0 0 0,-0.11 0.11,0.11 0 0 1 0,-0.09 c -0.69,-19.51 0.87,-39.17 6.82,-57.86 A 200.25,200.25 0 0 1 135.06,307 c 3.19,-6.77 7.16,-13.29 12.76,-18.35 3.63,-3.27 11.5,-9.47 16.67,-6.19 2.51,1.6 2.3,4.09 1.32,6.54 z"
       style="fill:#bbeae6"
       id="path462" />
    <path
       d="m 146.21,333.21 a 161.87,161.87 0 0 1 -11.34,16.3 c -1.89,2.46 -3.8,4.91 -5.69,7.38 -0.89,1.16 -1.89,2.32 -2.71,3.58 0.52,-2.05 1,-4.11 1.54,-6.16 2.52,-9.85 4.94,-19.8 8.69,-29.27 3.66,-9.27 8.54,-18 13.54,-26.56 0.14,-0.22 -0.23,-0.39 -0.36,-0.17 -4.12,6.78 -8.31,13.55 -11.77,20.7 a 107.82,107.82 0 0 0 -5,12.28 190.63,190.63 0 0 1 6.65,-26.24 c 0,-0.08 -0.08,-0.13 -0.11,-0.05 a 89.54,89.54 0 0 0 -6.91,27.29 v 0 q -1.27,3.8 -2.35,7.67 c -3.07,10.91 -5.77,21.94 -8.27,33 a 118,118 0 0 1 1.88,-21.7 c 0,-0.16 -0.22,-0.2 -0.26,0 a 68.84,68.84 0 0 0 -1.88,22.87 q -1.42,6.32 -2.77,12.63 c -1.91,9 -4.27,18.15 -5.39,27.28 a 0.18248288,0.18248288 0 0 0 0.36,0.06 c 1.34,-4.92 2.15,-10 3.24,-15 1.09,-5 2.23,-10 3.39,-15 q 2.55,-10.89 5.28,-21.73 c 1.21,-2.65 3.54,-5 5.29,-7.22 1.92,-2.44 3.84,-4.88 5.71,-7.36 a 109.48,109.48 0 0 0 9.39,-14.53 c 0.08,-0.08 -0.09,-0.15 -0.15,-0.05 z"
       style="fill:#263238"
       id="path464" />
    <path
       d="m 147,324.87 a 101.76,101.76 0 0 0 -11,17.62 c 0,0.08 0.08,0.17 0.13,0.09 3.73,-5.85 7.4,-11.75 11.13,-17.6 0.01,-0.1 -0.15,-0.2 -0.26,-0.11 z"
       style="fill:#263238"
       id="path466" />
    <path
       d="m 64,307.48 c 2.53,4.36 5.41,9.58 4.33,14.81 -0.69,3.31 -3.11,6 -3.55,9.37 -1,7.45 6.44,12.38 11.82,15.9 13.39,8.79 31.76,16.62 34.2,34.57 0.09,0.64 1.19,0.48 1.11,-0.15 a 0.26,0.26 0 0 0 0,-0.11 c 0,0 0.07,-0.06 0.07,-0.11 a 68.93,68.93 0 0 0 -0.25,-27.41 c -2,-9.25 -6,-17.56 -10.8,-25.69 -8.06,-13.75 -16.6,-27.84 -28.79,-38.37 -3.37,-2.91 -10.28,-8.16 -13,-1.58 -2.61,6.4 1.76,13.46 4.86,18.77 z"
       style="fill:#bbeae6"
       id="path468" />
    <path
       d="m 76.26,336.64 c 8.88,9.61 23,15 30.64,25.77 -4.53,-16.5 -12,-31.35 -23.55,-44.24 a 0.35,0.35 0 0 1 0.49,-0.49 87.16,87.16 0 0 1 19.25,27.88 124.56,124.56 0 0 0 -8.29,-21.2 0.23,0.23 0 0 1 0.39,-0.23 80.73,80.73 0 0 1 8.93,23.87 c 10.08,24.38 11,53 8.9,78.68 0,0.37 -0.59,0.38 -0.58,0 0.58,-20.25 0.25,-40.86 -4.6,-60.64 -0.1,-0.42 -0.22,-0.82 -0.32,-1.23 -8.32,-11.6 -22.38,-17 -31.42,-28 -0.1,-0.12 0.06,-0.28 0.16,-0.17 z"
       style="fill:#263238"
       id="path470" />
    <path
       d="m 74.2,328.38 c 4.66,4.28 9.25,8.65 13.92,12.93 0,0 0,0.12 -0.07,0.09 a 68.51,68.51 0 0 1 -14.13,-12.74 0.2,0.2 0 0 1 0.28,-0.28 z"
       style="fill:#263238"
       id="path472" />
    <path
       d="m 73.46,309.85 a 147.49,147.49 0 0 0 14,19.19 0.0813941,0.0813941 0 1 1 -0.12,0.11 67.63,67.63 0 0 1 -14.13,-19.15 0.15,0.15 0 0 1 0.25,-0.15 z"
       style="fill:#263238"
       id="path474" />
    <polygon
       points="129.78,389.83 100.74,389.83 94.45,444.77 135.29,444.77 "
       style="fill:#455a64"
       id="polygon476" />
    <polygon
       points="129.79,389.83 100.74,389.83 99.72,398.76 130.68,398.76 "
       style="fill:#263238"
       id="polygon478" />
    <rect
       x="95.730003"
       y="383.73999"
       width="38.279999"
       height="8.7700005"
       transform="rotate(180,114.87,388.13)"
       style="fill:#455a64"
       id="rect480" />
  </g>
</svg>
