<?xml version="1.0" encoding="UTF-8" standalone="no"?>
<svg
   viewBox="0 0 500 500"
   version="1.1"
   id="svg483"
   sodipodi:docname="101.svg"
   inkscape:version="1.1.2 (0a00cf5339, 2022-02-04)"
   xmlns:inkscape="http://www.inkscape.org/namespaces/inkscape"
   xmlns:sodipodi="http://sodipodi.sourceforge.net/DTD/sodipodi-0.dtd"
   xmlns="http://www.w3.org/2000/svg"
   xmlns:svg="http://www.w3.org/2000/svg">
  <defs
     id="defs487" />
  <sodipodi:namedview
     id="namedview485"
     pagecolor="#ffffff"
     bordercolor="#666666"
     borderopacity="1.0"
     inkscape:pageshadow="2"
     inkscape:pageopacity="0.0"
     inkscape:pagecheckerboard="0"
     showgrid="false"
     inkscape:zoom="1.132"
     inkscape:cx="250"
     inkscape:cy="250.4417"
     inkscape:window-width="1478"
     inkscape:window-height="800"
     inkscape:window-x="0"
     inkscape:window-y="0"
     inkscape:window-maximized="1"
     inkscape:current-layer="svg483" />
  <g
     id="freepik--Shadow--inject-63"
     transform="translate(14,-32)">
    <path
       d="m 448.31,439.23 c 0,11.28 -88.78,20.42 -198.31,20.42 -109.53,0 -198.31,-9.14 -198.31,-20.42 0,-11.28 88.78,-20.42 198.31,-20.42 109.53,0 198.31,9.19 198.31,20.42 z"
       style="fill:#ebebeb"
       id="path71" />
  </g>
  <g
     id="freepik--Floor--inject-63"
     transform="translate(14,-32)">
    <polygon
       points="97.74,406.69 46.98,406.44 97.74,406.2 148.49,406.11 250,405.95 351.51,406.11 402.26,406.2 453.01,406.44 402.26,406.69 351.51,406.78 250,406.94 148.49,406.78 "
       style="fill:#263238"
       id="polygon74" />
  </g>
  <g
     id="freepik--Character--inject-63"
     transform="translate(32,-32)">
    <path
       d="m 340.31,129.43 -0.4,0.1 a 0.24,0.24 0 0 1 0.07,-0.12 v 0 z"
       style="fill:#263238"
       id="path269" />
    <path
       d="m 371.34,178 v 0"
       style="fill:none;stroke:#ff98b9;stroke-width:0px;stroke-linecap:round;stroke-linejoin:round"
       id="path271" />
    <rect
       x="351.63"
       y="160.83"
       width="0.0099999998"
       height="7.04"
       style="fill:#dd6a57"
       id="rect273" />
    <path
       d="m 351.64,160.83 v 8.92 c 0,-0.11 0,-0.23 0,-0.35 z"
       style="fill:#dd6a57"
       id="path275" />
    <path
       d="m 371.34,178 v 0"
       style="fill:none;stroke:#ff98b9;stroke-width:0px;stroke-linecap:round;stroke-linejoin:round"
       id="path277" />
    <path
       d="m 351.82,418.33 h -0.18 v -0.13 z"
       style="fill:#dd6a57"
       id="path279" />
    <path
       d="m 393.12,426.86 c -2.2,-1 -50.6,-44.76 -51.39,-47.6 -0.31,-1.07 5.66,-8.49 13.13,-17.26 1.61,-1.89 20.43,-32 20.43,-32 l 33.91,26.89 -23.06,33.29 c 0,0 11,25.06 11.56,28.27 0.56,3.21 -2.38,9.38 -4.58,8.41 z"
       style="fill:#dd6a57"
       id="path281" />
    <path
       d="m 393.74,407.9 a 93.42,93.42 0 0 1 4,10.51 c 0.52,3.21 -2.38,9.42 -4.58,8.45 -2.2,-0.97 -50.61,-44.76 -51.39,-47.59 -0.25,-0.88 3.62,-5.93 9.09,-12.48 9.78,11.36 40.62,46.72 42.88,43.43 a 4.39,4.39 0 0 0 0,-2.32 z"
       style="fill:#263238"
       id="path283" />
    <path
       d="m 358.09,356.35 34.3,28.3 c 0,0 47.71,-66.43 49.08,-90.71 1,-18.67 -26.66,-53.46 -45.48,-83.24 -1.82,-2.89 -0.71,-13.85 -0.64,-15.68 l -37.29,0.07 c -0.45,4.2 -3.37,25.33 2.91,35.62 12.92,21.16 33.78,51.87 34.58,58.52 0.8,6.65 -37.46,67.12 -37.46,67.12 z"
       style="fill:#37474f"
       id="path285" />
    <path
       d="m 394.6,374.25 c -5.48,-4.64 -3.84,-3.38 -9.37,-8 -2.71,-2.24 -16.28,-13.54 -19.15,-15.22 -0.07,0 -0.14,0.06 -0.09,0.11 2.22,2.47 16,13.48 18.78,15.68 5.61,4.48 4.05,3.13 9.71,7.55 a 0.1,0.1 0 1 0 0.12,-0.12 z"
       style="fill:#263238"
       id="path287" />
    <path
       d="m 398.85,283 c -1.25,-2.44 -2.59,-4.84 -4,-7.21 C 392.05,271 389,266.37 386,261.7 q -4.69,-7.32 -9.4,-14.62 c -2.82,-4.38 -5.68,-8.75 -8.13,-13.35 a 52.26,52.26 0 0 1 -5.41,-14.39 c -1.1,-5.54 -0.87,-11.24 -0.39,-16.84 0.12,-1.4 0.25,-2.79 0.38,-4.19 0,-0.24 -0.39,-0.29 -0.42,-0.05 a 89.88,89.88 0 0 0 -0.79,16.55 44.37,44.37 0 0 0 3.82,14.69 101.81,101.81 0 0 0 7.34,13.3 c 3,4.73 6,9.43 9,14.13 3,4.7 6.13,9.51 9.12,14.31 1.46,2.33 2.89,4.68 4.25,7.07 a 71.42,71.42 0 0 1 3.8,7.25 11.75,11.75 0 0 1 1.05,3.93 9.64,9.64 0 0 1 -0.76,4.1 c -1,2.57 -2.34,5 -3.56,7.5 -2.44,4.93 -4.92,9.84 -7.48,14.71 -5.14,9.77 -19,32.77 -19.73,33.95 -0.05,0.09 0.08,0.16 0.14,0.08 5.89,-9.41 13.05,-20.37 18.35,-30.13 q 4,-7.31 7.73,-14.74 1.88,-3.7 3.68,-7.46 c 1.1,-2.28 2.37,-4.63 2.44,-7.22 0.07,-2.59 -1.03,-5.01 -2.18,-7.28 z"
       style="fill:#263238"
       id="path289" />
    <path
       d="m 394.05,195 c -2.4,12.32 -9.34,47.76 -13.14,67.36 -6.52,-10.42 -14.06,-22 -19.94,-31.67 -6.28,-10.29 -3.36,-31.42 -2.91,-35.62 z"
       style="fill:#263238"
       id="path291" />
    <path
       d="m 401.31,451.53 c -2.29,0.73 -67.56,-0.19 -70,-1.8 -0.94,-0.61 -1.36,-10.12 -1.54,-21.63 0,-2.48 0.55,-40.37 0.55,-40.37 l 43.66,0.49 -2.13,40.35 c 0,0 24.84,11.53 27.35,13.59 2.51,2.06 4.4,8.64 2.11,9.37 z"
       style="fill:#dd6a57"
       id="path293" />
    <path
       d="m 389.25,436.88 a 95.07,95.07 0 0 1 9.92,5.28 c 2.51,2.06 4.43,8.64 2.14,9.36 -2.29,0.72 -67.56,-0.18 -70,-1.79 -0.77,-0.49 -1.19,-6.84 -1.41,-15.37 14.84,2.07 61.35,8.25 60.87,4.29 -0.06,-0.37 -0.63,-1 -1.52,-1.77 z"
       style="fill:#263238"
       id="path295" />
    <path
       d="m 395.35,195.09 c 0,0 -7.39,36 -7.78,37.15 a 93.7,93.7 0 0 0 -10.5,5.21 l -2.64,183 -47.08,0.31 c 0,0 5.84,-97 5.67,-103.24 -0.26,-10 4.07,-77.64 3.47,-79.34 -6.15,-17.36 3.5,-43 3.5,-43 z"
       style="fill:#37474f"
       id="path297" />
    <path
       d="m 372.66,411.72 c -13.28,-0.57 -39,-0.33 -42.25,0.23 -0.07,0 -0.07,0.14 0,0.15 3.29,0.53 34.5,0.59 42.25,-0.17 a 0.11,0.11 0 0 0 0,-0.21 z"
       style="fill:#263238"
       id="path299" />
    <path
       d="m 338,365.14 c 0.75,-13.76 1.56,-27.52 2.35,-41.28 0.79,-13.76 1.57,-27.53 2.36,-41.29 0.39,-6.88 0.76,-13.76 1.18,-20.64 l 0.63,-10.32 a 89.59,89.59 0 0 0 0.44,-10.22 c -0.19,-3.72 -1.82,-7 -2.75,-10.55 A 41.37,41.37 0 0 1 341,220.51 c 0,-7.18 1.45,-14.28 2.82,-21.29 0.08,-0.39 0.68,-0.22 0.6,0.17 a 102.75,102.75 0 0 0 -2.89,19.61 42.12,42.12 0 0 0 0.85,9.83 c 0.67,3.1 2,6 2.8,9 0.8,3 0.45,6.44 0.25,9.66 -0.21,3.44 -0.38,6.88 -0.56,10.32 -0.37,6.74 -0.77,13.48 -1.15,20.23 -1.57,27.38 -3.09,54.77 -4.76,82.15 -0.96,15.41 -1.69,30.81 -2.96,46.24 0,0.11 -0.19,0.11 -0.18,0 0.52,-13.77 1.42,-27.53 2.18,-41.29 z"
       style="fill:#263238"
       id="path301" />
    <path
       d="m 345.08,216.65 c 0.79,-0.32 1.67,-0.42 2.48,-0.67 a 20.57,20.57 0 0 0 2.52,-0.93 19,19 0 0 0 4.32,-2.71 10.08,10.08 0 0 0 2.76,-4.17 c 0.34,-0.85 0.66,-1.71 1,-2.57 0.16,-0.42 0.33,-0.85 0.5,-1.27 0.06,-0.17 0.5,-1.07 0.57,-1.35 a 0.08,0.08 0 0 1 -0.11,0 h -0.05 a 0.09,0.09 0 0 1 0,-0.11 c 0.05,-0.1 0.06,-0.11 0.17,-0.14 a 0.11,0.11 0 0 1 0.12,0.05 c 0.17,0.28 0,0.55 -0.06,0.85 -0.13,0.57 -0.26,1.13 -0.4,1.69 -0.25,1 -0.48,2 -0.76,2.94 a 9.9,9.9 0 0 1 -2.76,4.79 15.45,15.45 0 0 1 -4.82,2.88 17.14,17.14 0 0 1 -2.79,0.82 7.59,7.59 0 0 1 -2.68,0.2 c -0.17,-0.06 -0.09,-0.25 -0.01,-0.3 z"
       style="fill:#263238"
       id="path303" />
    <path
       d="m 383.11,226.52 c 0.08,-1.65 0.18,-3.29 0.3,-4.94 0.26,-3.76 0.59,-7.53 1.18,-11.24 0.05,-0.3 0.46,-0.19 0.44,0.08 -0.2,2.92 -0.49,5.84 -0.71,8.75 -0.22,2.91 -0.52,5.82 -0.52,8.72 0,0.87 0.08,2.35 1.16,2.58 1.44,0.3 2.09,-1.61 2.42,-2.65 a 47.92,47.92 0 0 0 1.67,-8 c 0.42,-3.07 0.62,-6.17 0.86,-9.25 0,-0.11 0.19,-0.1 0.2,0 0.12,6.11 0.14,12.5 -2,18.31 a 3.41,3.41 0 0 1 -2.49,2.46 h -0.06 c 0,0 0,0.07 0,0.1 0,0.03 -0.07,0.35 -0.09,0.52 -0.02,0.17 -0.05,0.28 -0.08,0.43 -0.03,0.15 -0.09,0.59 -0.16,0.89 a 0.23,0.23 0 0 1 -0.45,0 0.2,0.2 0 0 1 -0.13,-0.18 5,5 0 0 1 0.37,-1.74 2.15,2.15 0 0 1 -1.6,-1.3 7.61,7.61 0 0 1 -0.31,-3.54 z"
       style="fill:#263238"
       id="path305" />
    <path
       d="m 387.61,231.89 a 87,87 0 0 0 -13.33,7.28 c -0.17,0.11 0,0.37 0.14,0.27 4.5,-2.28 9.1,-4.48 13.47,-7 a 0.30858548,0.30858548 0 0 0 -0.28,-0.55 z"
       style="fill:#263238"
       id="path307" />
    <path
       d="m 375.74,327.9 c 0,-0.44 0.14,-0.61 0.16,-0.07 0.11,3 0.07,7.39 0.1,10.43 0,3.58 0,7.15 0,10.72 0,3.57 -0.13,7.15 -0.27,10.73 l -0.22,5.35 c -0.07,1.24 0,3.68 -0.12,4.91 0,0.55 -0.17,0.65 -0.22,0.1 -0.09,-1.79 -0.09,-3.22 -0.15,-5 l -0.06,-5.37 c 0,-3.57 0,-7.15 0,-10.72 0,-3.57 0.13,-7.15 0.27,-10.72 0.14,-3.57 0.25,-6.79 0.51,-10.36 z"
       style="fill:#263238"
       id="path309" />
    <path
       d="m 399.23,144.31 a 0.53,0.53 0 0 1 -0.39,0.59 l -2.11,0.2 c -2.11,-5.24 -4.33,-9.39 -3.73,-7.76 a 28.94,28.94 0 0 1 1.65,7.94 l -4.17,0.32 c -2,-9.27 -4.42,-16.11 -4.2,-14 0.88,8.57 0.52,11.34 0.09,14.3 -10.07,0.74 -23.28,1.54 -32.84,1.91 -1.32,-5.11 -2.51,-10.66 -2.67,-10.26 -1.18,2.93 -1.36,7.15 -1.26,10.4 -3.05,0.09 -5.48,0.11 -7,0 0,0 -0.89,-4.31 -1.05,-5.73 a 31.41,31.41 0 0 1 0.62,-10.85 54.84,54.84 0 0 1 4,-10.15 v -0.07 c 0,0 0,0 0,0 a 31.22,31.22 0 0 0 2.28,-6.77 0.2,0.2 0 0 0 0,-0.05 30.84,30.84 0 0 0 0.58,-5.17 c 0.18,-6.36 3.3,-11.92 8.81,-13.73 10.09,-10.86 20.83,-6.64 24.35,1.42 0.34,0.79 0.68,1.69 1,2.68 v 0 c 1.23,3.64 2.39,8.38 3.43,12 v 0 c 0,0 0,0 0,0 v 0 a 38.4,38.4 0 0 0 1.42,4.22 c 3.08,6.72 9.32,10.34 11.19,28.56 z"
       style="fill:#263238"
       id="path311" />
    <path
       d="m 355.58,97.26 a 11.7,11.7 0 0 0 -6.08,9.8 32.78,32.78 0 0 1 -1.14,7.92 27.58,27.58 0 0 1 -3.93,7 20.85,20.85 0 0 0 -4.33,11.49 c -0.21,4.63 0.22,10.08 1.85,14.35 0,0 0,0 0,0 a 39.5,39.5 0 0 1 -1.1,-15 c 0.59,-5 3.12,-8.27 5.68,-12.15 a 21.4,21.4 0 0 0 3.58,-10.36 c 0.18,-2.29 0.05,-4.68 0.83,-6.85 0.92,-2.6 2.9,-4.29 4.88,-5.79 0.3,-0.16 0.03,-0.58 -0.24,-0.41 z"
       style="fill:#263238"
       id="path313" />
    <path
       d="m 394.62,122.87 c -2.73,-3.54 -5.55,-6.55 -7.25,-11 -1.54,-4 -2.51,-8.31 -4.08,-12.34 0,-0.07 -0.11,0 -0.09,0 2.46,7.16 3.18,14.44 7.79,20.4 2.5,3.24 5,6.24 6.72,10.16 a 37.77,37.77 0 0 1 3,13 0.11,0.11 0 1 0 0.21,0 31,31 0 0 0 -6.3,-20.22 z"
       style="fill:#263238"
       id="path315" />
    <path
       d="m 418.93,103.23 -6.47,29.64 c -0.29,0.88 0.16,1.56 1,1.54 l 15.17,-0.48 a 2.47,2.47 0 0 0 2.06,-1.64 l 6.48,-29.63 c 0.28,-0.88 -0.17,-1.56 -1,-1.54 L 421,101.6 a 2.47,2.47 0 0 0 -2.07,1.63 z"
       style="fill:#37474f"
       id="path317" />
    <path
       d="m 420.73,103.16 -6.47,29.64 c -0.29,0.87 0.16,1.56 1,1.53 l 15.18,-0.48 a 2.46,2.46 0 0 0 2.05,-1.63 L 439,102.58 c 0.28,-0.87 -0.17,-1.56 -1,-1.53 l -15.17,0.48 a 2.47,2.47 0 0 0 -2.1,1.63 z"
       style="fill:#455a64"
       id="path319" />
    <path
       d="m 424.93,104.37 a 1.29,1.29 0 0 1 -1.27,1.31 1.29,1.29 0 1 1 0,-2.58 1.28,1.28 0 0 1 1.27,1.27 z"
       style="fill:#263238"
       id="path321" />
    <path
       d="m 371.44,149.31 c 9,18.09 28.83,41.4 36.81,41.33 3.8,0 10.59,0.71 15.48,-3.76 10.65,-9.77 19.32,-28.18 20.93,-38.64 0.57,-3.73 -17.64,-11.34 -20.23,-8.26 -6.08,7.21 -13,21.24 -14.11,21.18 C 406.23,161 390,148 378.59,138.91 c -13.79,-11.06 -10.74,3.19 -7.15,10.4 z"
       style="fill:#dd6a57"
       id="path323" />
    <path
       d="m 444.67,129.07 c -2.08,-7.48 -3.76,-9.08 -2.17,-16.33 1.05,-4.75 -1.54,-7.46 -4.8,-3.59 -5.34,6.33 -4.68,16.55 -3.44,20 z"
       style="fill:#dd6a57"
       id="path325" />
    <path
       d="m 443.85,151.48 c 0,0 3.12,-10.56 1.69,-18.75 -1,-5.66 -4.51,-17.75 -20.57,-23.8 -3.81,-1.44 -10.25,-0.78 -4.88,3.82 3.81,3.27 7.22,4.19 9.09,6.5 0,0 -8.1,1.81 -9.39,5.68 a 76,76 0 0 0 -2.65,10.36 15.89,15.89 0 0 0 1.9,0.67 c 0,0 -0.86,3.73 1.95,8.83 z"
       style="fill:#dd6a57"
       id="path327" />
    <path
       d="m 443.74,127.47 c -2.34,-1.89 -7.38,-5.83 -12.61,-7.62 -5.82,-2 -17.56,-4.24 -19,0.07 -1,3.16 3.37,4.41 3.37,4.41 0,0 -5,0.09 -5.37,3.15 -0.29,2.79 3.18,3.56 3.18,3.56 0,0 -3.06,0.58 -2.82,3.32 0.29,3.29 6.64,1.54 9.81,4.62 0.7,0.7 23.44,-11.51 23.44,-11.51 z"
       style="fill:#dd6a57"
       id="path329" />
    <path
       d="m 430.05,126.35 a 24.45,24.45 0 0 0 -14.44,-2.1 c -0.12,0 -0.17,0.13 -0.05,0.13 a 60.82,60.82 0 0 1 14.48,2 c 0,0 0.04,-0.01 0.01,-0.03 z"
       style="fill:#263238"
       id="path331" />
    <path
       d="m 427.88,132.16 c -2.28,-1 -9.06,-2.54 -14.55,-1.23 -0.12,0 -0.16,0.14 0,0.13 a 64.46,64.46 0 0 1 14.57,1.16 c 0,0 0.01,-0.05 -0.02,-0.06 z"
       style="fill:#263238"
       id="path333" />
    <path
       d="m 379.72,165.72 15,-15.71 c 0,0 -11.2,-10.23 -19.42,-14.22 -8.22,-3.99 -9.57,1.35 -6.16,9.58 3.41,8.23 10.58,20.35 10.58,20.35 z"
       style="fill:#007d7e"
       id="path335" />
    <path
       d="m 379.72,165.72 15,-15.71 c 0,0 -11.2,-10.23 -19.42,-14.22 -8.22,-3.99 -9.57,1.35 -6.16,9.58 3.41,8.23 10.58,20.35 10.58,20.35 z"
       style="opacity:0.1"
       id="path337" />
    <path
       d="m 393.58,181.38 7.05,33.07 c 0,0 -54.36,4.38 -67.93,4.32 0,0 6.91,-63.15 20.4,-79.87 6.75,-8.37 15.32,-8.34 21.11,-3.18 1.47,1.31 19.31,21.92 21.58,30.09 1.99,7.19 -2.21,15.57 -2.21,15.57 z"
       style="fill:#ebebeb"
       id="path339" />
    <path
       d="m 368.21,132.51 h -5.77 a 12.23,12.23 0 0 1 5.77,0 z"
       style="fill:#007d7e"
       id="path341" />
    <path
       d="m 374.15,135.67 h -17.88 c 0.25,-0.21 0.51,-0.41 0.77,-0.59 h 16.4 c 0.24,0.19 0.48,0.38 0.71,0.59 z"
       style="fill:#007d7e"
       id="path343" />
    <path
       d="m 377,138.83 h -23.84 l 0.49,-0.59 h 22.86 z"
       style="fill:#007d7e"
       id="path345" />
    <path
       d="M 379.7,142 H 351 c 0.11,-0.2 0.23,-0.4 0.36,-0.59 h 27.86 z"
       style="fill:#007d7e"
       id="path347" />
    <path
       d="m 382.29,145.15 h -33 c 0.09,-0.2 0.19,-0.4 0.29,-0.59 h 32.24 z"
       style="fill:#007d7e"
       id="path349" />
    <path
       d="m 384.79,148.31 h -37 c 0.09,-0.2 0.17,-0.4 0.25,-0.59 h 36.24 z"
       style="fill:#007d7e"
       id="path351" />
    <path
       d="m 387.2,151.47 h -40.61 l 0.22,-0.6 h 39.94 z"
       style="fill:#007d7e"
       id="path353" />
    <path
       d="m 389.49,154.63 h -44 c 0.07,-0.21 0.13,-0.4 0.2,-0.6 h 43.4 z"
       style="fill:#007d7e"
       id="path355" />
    <path
       d="m 391.64,157.79 h -47.22 l 0.2,-0.6 h 46.62 z"
       style="fill:#007d7e"
       id="path357" />
    <path
       d="m 393.57,161 h -50.09 c 0,-0.21 0.11,-0.4 0.17,-0.6 h 49.57 c 0.13,0.15 0.24,0.35 0.35,0.6 z"
       style="fill:#007d7e"
       id="path359" />
    <path
       d="m 395.18,164.11 h -52.59 c 0.05,-0.2 0.11,-0.4 0.16,-0.6 h 52.16 q 0.15,0.3 0.27,0.6 z"
       style="fill:#007d7e"
       id="path361" />
    <path
       d="m 396.11,167.26 h -54.35 l 0.15,-0.59 H 396 c 0,0.2 0.08,0.39 0.11,0.59 z"
       style="fill:#007d7e"
       id="path363" />
    <path
       d="m 396.33,169.83 c 0,0.2 0,0.4 0,0.59 H 341 c 0,-0.2 0.1,-0.4 0.14,-0.59 z"
       style="fill:#007d7e"
       id="path365" />
    <path
       d="m 396.12,173 c 0,0.2 -0.06,0.4 -0.1,0.59 h -55.77 c 0,-0.19 0.08,-0.39 0.13,-0.59 z"
       style="fill:#007d7e"
       id="path367" />
    <path
       d="m 395.47,176.15 c -0.05,0.2 -0.1,0.4 -0.16,0.59 h -55.77 c 0,-0.2 0.09,-0.39 0.13,-0.59 z"
       style="fill:#007d7e"
       id="path369" />
    <path
       d="m 394.46,179.31 -0.23,0.59 h -55.35 c 0,-0.2 0.07,-0.39 0.12,-0.59 z"
       style="fill:#007d7e"
       id="path371" />
    <path
       d="m 393.94,183.06 h -55.7 c 0,-0.2 0.07,-0.39 0.12,-0.59 h 55.45 z"
       style="fill:#007d7e"
       id="path373" />
    <path
       d="m 394.61,186.22 h -57 c 0,-0.2 0.07,-0.39 0.11,-0.59 h 56.75 z"
       style="fill:#007d7e"
       id="path375" />
    <path
       d="m 395.29,189.38 h -58.24 c 0,-0.2 0.07,-0.4 0.1,-0.6 h 58 z"
       style="fill:#007d7e"
       id="path377" />
    <path
       d="m 396,192.54 h -59.51 c 0,-0.2 0.07,-0.4 0.1,-0.6 h 59.24 z"
       style="fill:#007d7e"
       id="path379" />
    <path
       d="M 396.63,195.7 H 336 c 0,-0.2 0.06,-0.4 0.1,-0.6 h 60.4 z"
       style="fill:#007d7e"
       id="path381" />
    <path
       d="m 397.31,198.86 h -61.86 l 0.09,-0.6 h 61.64 z"
       style="fill:#007d7e"
       id="path383" />
    <path
       d="m 398,202 h -63 c 0,-0.2 0.07,-0.4 0.1,-0.6 h 62.8 z"
       style="fill:#007d7e"
       id="path385" />
    <path
       d="m 398.65,205.17 h -64.17 l 0.09,-0.59 h 64 z"
       style="fill:#007d7e"
       id="path387" />
    <path
       d="M 399.33,208.33 H 334 l 0.09,-0.59 h 65.11 z"
       style="fill:#007d7e"
       id="path389" />
    <path
       d="m 400,211.49 h -66.4 c 0,-0.19 0.06,-0.39 0.08,-0.59 h 66.19 z"
       style="fill:#007d7e"
       id="path391" />
    <path
       d="m 400.63,214.45 -2.48,0.2 H 333.2 c 0,-0.19 0,-0.38 0.07,-0.59 h 67.28 z"
       style="fill:#007d7e"
       id="path393" />
    <path
       d="m 363.29,217.22 c -3.08,0.21 -6.14,0.41 -9.09,0.59 h -21.39 c 0,-0.17 0,-0.37 0.07,-0.59 z"
       style="fill:#007d7e"
       id="path395" />
    <path
       d="m 395.49,175.74 a 20.23,20.23 0 0 0 0.42,-6 28,28 0 0 0 -4.07,-11.39 c -1.17,-2 -2.57,-3.84 -3.73,-5.83 a 0.05,0.05 0 1 1 0.08,-0.06 41.81,41.81 0 0 1 3,4.08 0.61,0.61 0 0 0 -0.07,-0.14 c -0.32,-0.78 -0.65,-1.55 -1,-2.31 0,-0.08 0.1,-0.15 0.14,-0.07 0.4,0.74 0.78,1.48 1.14,2.23 0.22,0.49 0.41,1 0.58,1.48 a 37.47,37.47 0 0 1 3,5.46 18.91,18.91 0 0 1 1.41,12 21.47,21.47 0 0 1 -2.73,6.17 0.08,0.08 0 0 1 -0.14,-0.07 29.9,29.9 0 0 0 2,-5.59"
       style="fill:#263238"
       id="path397" />
    <path
       d="m 361.55,136.37 c 0.41,1 6.53,7.12 11.34,6.14 1.56,-0.32 0.19,-8.94 0.19,-8.94 v -0.66 l 0.62,-9.23 -11.53,-5.1 -1.65,-0.66 c 0,0 0,2.54 0,5.7 v 1 c 0,0.47 0,1 0,1.44 0,0.44 0,0.72 0,1.1 0,0.38 0,0.76 0,1.14 a 58.49,58.49 0 0 0 1.03,8.07 z"
       style="fill:#dd6a57"
       id="path399" />
    <path
       d="m 360.59,123.62 a 18.58,18.58 0 0 0 12.53,9.29 l 0.62,-9.23 -11.53,-5.1 -1.65,-0.66 c 0,0 0,2.54 0.03,5.7 z"
       style="fill:#263238"
       id="path401" />
    <path
       d="m 385.11,109.82 c 1.69,16.15 -7.79,19 -11.27,19.34 -3.16,0.33 -14,1 -17.32,-14.84 -3.32,-15.84 3.62,-21.78 10.82,-22.91 7.2,-1.13 16.08,2.26 17.77,18.41 z"
       style="fill:#dd6a57"
       id="path403" />
    <path
       d="m 381.52,106.34 a 10.43,10.43 0 0 1 -1.11,-0.11 1.79,1.79 0 0 1 -1.12,-0.34 0.58,0.58 0 0 1 -0.07,-0.7 1.42,1.42 0 0 1 1.37,-0.48 2.13,2.13 0 0 1 1.39,0.6 0.61,0.61 0 0 1 -0.46,1.03 z"
       style="fill:#263238"
       id="path405" />
    <path
       d="m 370.89,107.57 a 9.52,9.52 0 0 0 1.07,-0.34 1.78,1.78 0 0 0 1,-0.56 0.57,0.57 0 0 0 -0.07,-0.7 1.46,1.46 0 0 0 -1.44,-0.19 2.14,2.14 0 0 0 -1.24,0.88 0.61,0.61 0 0 0 0.68,0.91 z"
       style="fill:#263238"
       id="path407" />
    <path
       d="m 373.74,111.42 c 0,0 -0.08,0.06 -0.07,0.11 0.17,1.09 0.19,2.37 -0.75,2.86 0,0 0,0.07 0,0.06 1.2,-0.32 1.16,-2.02 0.82,-3.03 z"
       style="fill:#263238"
       id="path409" />
    <path
       d="m 372.61,110.4 c -1.78,0.1 -1.46,3.65 0.19,3.56 1.65,-0.09 1.31,-3.64 -0.19,-3.56 z"
       style="fill:#263238"
       id="path411" />
    <path
       d="m 371.93,110.65 c -0.29,0.23 -0.56,0.61 -0.93,0.69 -0.37,0.08 -0.79,-0.27 -1.11,-0.6 0,0 -0.06,0 -0.06,0.05 0.05,0.68 0.38,1.36 1.12,1.39 0.74,0.03 1.1,-0.61 1.21,-1.31 0.02,-0.13 -0.11,-0.31 -0.23,-0.22 z"
       style="fill:#263238"
       id="path413" />
    <path
       d="m 379.82,110.59 c 0,0 0.09,0 0.09,0.09 0.06,1.11 0.31,2.36 1.33,2.65 0,0 0,0.06 0,0.06 -1.24,-0.07 -1.55,-1.74 -1.42,-2.8 z"
       style="fill:#263238"
       id="path415" />
    <path
       d="m 380.71,109.36 c 1.76,-0.28 2.19,3.27 0.56,3.52 -1.63,0.25 -2.04,-3.28 -0.56,-3.52 z"
       style="fill:#263238"
       id="path417" />
    <path
       d="m 381.48,109.51 c 0.3,0.15 0.62,0.46 0.95,0.44 0.33,-0.02 0.64,-0.44 0.84,-0.84 0,0 0.05,0 0.06,0 0.1,0.68 0,1.41 -0.67,1.62 -0.67,0.21 -1.09,-0.34 -1.33,-1 -0.05,-0.08 0.02,-0.29 0.15,-0.22 z"
       style="fill:#263238"
       id="path419" />
    <path
       d="m 374.63,120.22 c 0.28,0.24 0.56,0.59 1,0.6 a 2.71,2.71 0 0 0 1.17,-0.33 c 0,0 0.07,0 0.05,0.06 a 1.48,1.48 0 0 1 -1.37,0.66 1.18,1.18 0 0 1 -0.91,-0.94 c -0.06,-0.06 0.02,-0.09 0.06,-0.05 z"
       style="fill:#263238"
       id="path421" />
    <path
       d="m 378.83,115.77 c 0,0 0.39,1.62 0.47,2.4 0,0.07 -0.18,0.12 -0.44,0.17 v 0 a 3.72,3.72 0 0 1 -3.72,-1 c -0.06,-0.07 0,-0.16 0.11,-0.12 a 5.62,5.62 0 0 0 3.46,0.62 c 0,-0.22 -0.77,-2.75 -0.65,-2.77 a 6.55,6.55 0 0 1 1.8,0.22 c -0.72,-3.4 -2,-6.65 -2.65,-10 a 0.11,0.11 0 0 1 0.2,-0.07 56.83,56.83 0 0 1 3.32,10.7 c 0.07,0.37 -1.58,-0.05 -1.9,-0.15 z"
       style="fill:#263238"
       id="path423" />
    <path
       d="m 378.67,118.15 a 4.38,4.38 0 0 1 -1.55,1.58 2,2 0 0 1 -1.18,0.24 c -0.89,-0.11 -1,-0.89 -0.95,-1.59 a 4.66,4.66 0 0 1 0.24,-1.08 5.67,5.67 0 0 0 3.44,0.85 z"
       style="fill:#263238"
       id="path425" />
    <path
       d="m 377.12,119.73 a 2,2 0 0 1 -1.18,0.24 c -0.89,-0.11 -1,-0.89 -0.95,-1.59 a 2.05,2.05 0 0 1 2.13,1.35 z"
       style="fill:#ff9abb"
       id="path427" />
    <path
       d="m 357.75,113.63 c 3,0.49 4,-6.28 4,-6.28 0,0 12.74,-1.63 14.22,-11.88 a 17.48,17.48 0 0 0 8.41,9.89 c 0,0 0,-11.31 -8.85,-13.86 0,0 -10.94,-4.5 -17.54,4.07 -6.6,8.57 -2.22,17.73 -0.24,18.06 z"
       style="fill:#263238"
       id="path429" />
    <path
       d="m 376,94.71 a 11.24,11.24 0 0 1 -0.76,4.68 11.76,11.76 0 0 1 -2.55,4.06 11.52,11.52 0 0 1 -0.89,0.82 l -0.45,0.4 -0.5,0.34 c -0.34,0.22 -0.67,0.45 -1,0.65 -0.33,0.2 -0.72,0.36 -1.08,0.53 -0.18,0.08 -0.36,0.18 -0.54,0.25 l -0.57,0.2 -1.13,0.38 c -0.77,0.18 -1.55,0.32 -2.33,0.45 0.74,-0.29 1.5,-0.49 2.22,-0.78 l 1.07,-0.47 0.53,-0.23 0.5,-0.29 c 0.34,-0.2 0.67,-0.39 1,-0.57 0.33,-0.18 0.62,-0.45 0.93,-0.67 l 0.47,-0.34 0.42,-0.38 a 8.89,8.89 0 0 0 0.83,-0.79 13.92,13.92 0 0 0 3.36,-6 13.48,13.48 0 0 0 0.47,-2.24 z"
       style="fill:#263238"
       id="path431" />
    <path
       d="m 359.58,115 c 0,0 -3.63,-5 -5.91,-3.7 -2.28,1.3 0.52,8.6 3.24,9.56 a 2.75,2.75 0 0 0 3.65,-1.54 z"
       style="fill:#dd6a57"
       id="path433" />
    <path
       d="m 354.52,113.41 a 0.035,0 -90 0 0 0,0.07 c 1.91,0.74 2.94,2.47 3.67,4.28 a 1.52,1.52 0 0 0 -2.28,-0.37 c 0,0 0,0.11 0.05,0.1 a 1.68,1.68 0 0 1 1.87,0.55 8.79,8.79 0 0 1 0.92,1.49 c 0.09,0.17 0.4,0.07 0.33,-0.12 v 0 c -0.02,-2.41 -1.96,-5.8 -4.56,-6 z"
       style="fill:#263238"
       id="path435" />
    <path
       d="m 359.26,95.39 c 1.45,-0.54 2.83,-8.65 -2.5,-12.52 -5.33,-3.87 -12.16,0.55 -9.3,7.2 1.81,4.2 8.73,6.46 11.8,5.32 z"
       style="fill:#263238"
       id="path437" />
    <path
       d="m 349.3,82.4 a 9.07,9.07 0 0 0 -3.07,5.14 5.46,5.46 0 0 0 1.62,5.22 10.94,10.94 0 0 0 5.29,2.59 16.42,16.42 0 0 0 3.05,0.38 8.64,8.64 0 0 0 3.07,-0.34 7.34,7.34 0 0 1 -3.05,0.9 13.35,13.35 0 0 1 -3.22,-0.05 10.61,10.61 0 0 1 -5.94,-2.64 6.38,6.38 0 0 1 -1.76,-2.91 6.59,6.59 0 0 1 0.06,-3.36 8,8 0 0 1 3.95,-4.93 z"
       style="fill:#263238"
       id="path439" />
    <path
       d="m 352.1,140.18 c -13.38,20.13 -20.94,46.93 -20,52.83 1.08,6.49 10.24,28.43 19.68,38.1 2.49,2.55 21.35,-18.37 18.8,-21.2 -4.91,-5.46 -14.66,-21.55 -15.09,-25.22 -0.4,-3.39 4.54,-25.2 5.84,-37.6 1.3,-11.91 -3.01,-16.28 -9.23,-6.91 z"
       style="fill:#dd6a57"
       id="path441" />
    <path
       d="m 370,209.24 c 0,0 10.24,4.5 16.8,7.76 3.66,1.82 9.66,5.5 11.74,8.07 3.1,3.83 13.65,21.87 9.33,24.52 -3.91,2.4 -11,-14.24 -11,-14.24 0,0 8.64,16.16 3.4,18.19 -5.24,2.03 -10.75,-17.86 -10.75,-17.86 0,0 8.51,16.81 2.78,18 -4.3,0.98 -10.3,-16.74 -10.3,-16.74 0,0 7.21,14.5 2.8,15.65 -4.88,1.27 -11.45,-14.74 -11.45,-14.74 -11.71,1 -17.71,-3.27 -21.61,-6.83 -0.96,-0.86 18.26,-21.78 18.26,-21.78 z"
       style="fill:#dd6a57"
       id="path443" />
    <path
       d="m 394.27,229.56 c 1.08,1.86 2.19,3.74 3.11,5.69 0.92,1.95 1.76,3.94 2.49,6 a 36.79,36.79 0 0 1 2.08,8.16 c -1,-4.9 -4.2,-11.94 -5.12,-13.89 -0.92,-1.95 -1.73,-4 -2.64,-5.9 -0.02,-0.07 0.05,-0.1 0.08,-0.06 z"
       style="fill:#263238"
       id="path445" />
    <path
       d="m 387.16,232.74 c 1.28,2.43 2.64,4.81 3.82,7.3 1.18,2.49 2,4.94 3,7.5 0.07,0.2 -0.06,0.17 -0.14,0 -1.1,-2.52 -2.3,-4.76 -3.43,-7.26 -1.13,-2.5 -2.15,-5 -3.36,-7.5 0.03,-0.06 0.09,-0.08 0.11,-0.04 z"
       style="fill:#263238"
       id="path447" />
    <path
       d="m 380.57,234.36 a 62.1,62.1 0 0 1 5,11.62 c 0.07,0.2 -0.1,0.15 -0.18,0 -1.58,-3.89 -2.8,-7 -4.93,-11.49 -0.05,-0.12 0.06,-0.2 0.11,-0.13 z"
       style="fill:#263238"
       id="path449" />
    <path
       d="m 339.24,160.83 21.32,4.11 c 0,0 2.55,-14.95 1.46,-24 -1.09,-9.05 -6.31,-7.31 -11.38,0 -5.07,7.31 -11.4,19.89 -11.4,19.89 z"
       style="fill:#007d7e"
       id="path451" />
    <path
       d="m 339.24,160.83 21.32,4.11 c 0,0 2.55,-14.95 1.46,-24 -1.09,-9.05 -6.31,-7.31 -11.38,0 -5.07,7.31 -11.4,19.89 -11.4,19.89 z"
       style="opacity:0.1"
       id="path453" />
  </g>
  <g
     id="freepik--Plant--inject-63"
     transform="translate(266,-32)">
    <path
       d="m 121.6,343.45 c -1.16,4.93 -2.39,9.78 -2.63,14.84 0.14,0.25 0.11,1.17 0,0.92 0,0.82 -1.27,0.67 -1.27,-0.14 0,-0.52 0,-1.05 0,-1.55 -2.9,-3.61 -7.11,-5.89 -10.51,-9 a 19.76,19.76 0 0 1 -5.76,-9.17 c -2.82,-9.73 -0.18,-20 -3.57,-29.75 -2.93,-8.36 -8.18,-15.64 -12.62,-23.22 -4.69,-8 -8.15,-16.44 -8.5,-25.83 -0.27,-7.19 0.58,-16.77 6.06,-22.15 5.8,-5.72 13,-1.44 17.45,3.66 12.88,14.79 18.84,33.48 21.25,52.59 1.33,10.58 2.71,21.22 2.39,31.89 a 86,86 0 0 1 -2.29,16.91 z"
       style="fill:#007d7e"
       id="path456" />
    <path
       d="m 119,362.18 a 182.85,182.85 0 0 0 -0.35,-30 0.93,0.93 0 0 0 0,-0.1 c 0.16,-8.1 0.8,-16.17 0.48,-24.28 a 143.87,143.87 0 0 0 -3.56,-26 c 0,-0.1 -0.18,-0.07 -0.16,0 a 170.1,170.1 0 0 1 2.82,25.46 q 0.24,6.87 -0.11,13.73 c -0.08,1.49 -0.22,3 -0.32,4.49 v 0 A 160.16,160.16 0 0 0 93.7,261.71 c -0.16,-0.26 -0.63,0 -0.47,0.29 a 166.42,166.42 0 0 1 19.62,47.28 c -6.2,-11.48 -15.56,-20.92 -22.5,-31.95 0,-0.06 -0.14,0 -0.11,0.06 6.24,12.29 16.55,22 23.12,34.07 1.13,4.93 2.07,9.91 2.76,14.92 a 167.31,167.31 0 0 1 1.5,20.72 c -3.78,-7.05 -7.7,-13.8 -10.78,-21.26 a 0.16347783,0.16347783 0 0 0 -0.3,0.13 c 2.62,7.75 6.15,16.1 11.1,22.71 q 0,7.36 -0.41,14.72 c -0.77,13.08 -3,26 -4,39 a 0.30203477,0.30203477 0 0 0 0.6,0.07 298.62,298.62 0 0 0 5.17,-40.29 z"
       style="fill:#263238"
       id="path458" />
    <path
       d="m 105.14,261.29 c 0,-0.09 -0.18,0 -0.15,0.07 2.39,6.61 3.74,13.3 5.47,20.07 a 0.25,0.25 0 0 0 0.49,-0.08 c -0.7,-6.87 -3.15,-13.72 -5.81,-20.06 z"
       style="fill:#263238"
       id="path460" />
    <path
       d="m 165.81,289 a 101.34,101.34 0 0 1 -5.49,11.29 c -4.31,7.81 -8.79,15 -9.61,24.07 -0.36,4.06 -0.49,8.14 -1.73,12 a 35.77,35.77 0 0 1 -4.8,9.44 c -4.66,6.79 -10.49,12.65 -14.81,19.7 a 82.73,82.73 0 0 0 -9.85,23.73 c -0.1,0.46 -0.82,0.33 -0.72,-0.12 a 0.45,0.45 0 0 0 0,-0.11 0.11,0.11 0 0 1 0,-0.09 c -0.69,-19.51 0.87,-39.17 6.82,-57.86 A 200.25,200.25 0 0 1 135.06,307 c 3.19,-6.77 7.16,-13.29 12.76,-18.35 3.63,-3.27 11.5,-9.47 16.67,-6.19 2.51,1.6 2.3,4.09 1.32,6.54 z"
       style="fill:#007d7e"
       id="path462" />
    <path
       d="m 146.21,333.21 a 161.87,161.87 0 0 1 -11.34,16.3 c -1.89,2.46 -3.8,4.91 -5.69,7.38 -0.89,1.16 -1.89,2.32 -2.71,3.58 0.52,-2.05 1,-4.11 1.54,-6.16 2.52,-9.85 4.94,-19.8 8.69,-29.27 3.66,-9.27 8.54,-18 13.54,-26.56 0.14,-0.22 -0.23,-0.39 -0.36,-0.17 -4.12,6.78 -8.31,13.55 -11.77,20.7 a 107.82,107.82 0 0 0 -5,12.28 190.63,190.63 0 0 1 6.65,-26.24 c 0,-0.08 -0.08,-0.13 -0.11,-0.05 a 89.54,89.54 0 0 0 -6.91,27.29 v 0 q -1.27,3.8 -2.35,7.67 c -3.07,10.91 -5.77,21.94 -8.27,33 a 118,118 0 0 1 1.88,-21.7 c 0,-0.16 -0.22,-0.2 -0.26,0 a 68.84,68.84 0 0 0 -1.88,22.87 q -1.42,6.32 -2.77,12.63 c -1.91,9 -4.27,18.15 -5.39,27.28 a 0.18248288,0.18248288 0 0 0 0.36,0.06 c 1.34,-4.92 2.15,-10 3.24,-15 1.09,-5 2.23,-10 3.39,-15 q 2.55,-10.89 5.28,-21.73 c 1.21,-2.65 3.54,-5 5.29,-7.22 1.92,-2.44 3.84,-4.88 5.71,-7.36 a 109.48,109.48 0 0 0 9.39,-14.53 c 0.08,-0.08 -0.09,-0.15 -0.15,-0.05 z"
       style="fill:#263238"
       id="path464" />
    <path
       d="m 147,324.87 a 101.76,101.76 0 0 0 -11,17.62 c 0,0.08 0.08,0.17 0.13,0.09 3.73,-5.85 7.4,-11.75 11.13,-17.6 0.01,-0.1 -0.15,-0.2 -0.26,-0.11 z"
       style="fill:#263238"
       id="path466" />
    <path
       d="m 64,307.48 c 2.53,4.36 5.41,9.58 4.33,14.81 -0.69,3.31 -3.11,6 -3.55,9.37 -1,7.45 6.44,12.38 11.82,15.9 13.39,8.79 31.76,16.62 34.2,34.57 0.09,0.64 1.19,0.48 1.11,-0.15 a 0.26,0.26 0 0 0 0,-0.11 c 0,0 0.07,-0.06 0.07,-0.11 a 68.93,68.93 0 0 0 -0.25,-27.41 c -2,-9.25 -6,-17.56 -10.8,-25.69 -8.06,-13.75 -16.6,-27.84 -28.79,-38.37 -3.37,-2.91 -10.28,-8.16 -13,-1.58 -2.61,6.4 1.76,13.46 4.86,18.77 z"
       style="fill:#007d7e"
       id="path468" />
    <path
       d="m 76.26,336.64 c 8.88,9.61 23,15 30.64,25.77 -4.53,-16.5 -12,-31.35 -23.55,-44.24 a 0.35,0.35 0 0 1 0.49,-0.49 87.16,87.16 0 0 1 19.25,27.88 124.56,124.56 0 0 0 -8.29,-21.2 0.23,0.23 0 0 1 0.39,-0.23 80.73,80.73 0 0 1 8.93,23.87 c 10.08,24.38 11,53 8.9,78.68 0,0.37 -0.59,0.38 -0.58,0 0.58,-20.25 0.25,-40.86 -4.6,-60.64 -0.1,-0.42 -0.22,-0.82 -0.32,-1.23 -8.32,-11.6 -22.38,-17 -31.42,-28 -0.1,-0.12 0.06,-0.28 0.16,-0.17 z"
       style="fill:#263238"
       id="path470" />
    <path
       d="m 74.2,328.38 c 4.66,4.28 9.25,8.65 13.92,12.93 0,0 0,0.12 -0.07,0.09 a 68.51,68.51 0 0 1 -14.13,-12.74 0.2,0.2 0 0 1 0.28,-0.28 z"
       style="fill:#263238"
       id="path472" />
    <path
       d="m 73.46,309.85 a 147.49,147.49 0 0 0 14,19.19 0.0813941,0.0813941 0 1 1 -0.12,0.11 67.63,67.63 0 0 1 -14.13,-19.15 0.15,0.15 0 0 1 0.25,-0.15 z"
       style="fill:#263238"
       id="path474" />
    <polygon
       points="135.29,444.77 129.78,389.83 100.74,389.83 94.45,444.77 "
       style="fill:#455a64"
       id="polygon476" />
    <polygon
       points="130.68,398.76 129.79,389.83 100.74,389.83 99.72,398.76 "
       style="fill:#263238"
       id="polygon478" />
    <rect
       x="95.730003"
       y="383.73999"
       width="38.279999"
       height="8.7700005"
       transform="rotate(180,114.87,388.13)"
       style="fill:#455a64"
       id="rect480" />
  </g>
</svg>
