<?xml version="1.0" encoding="UTF-8" standalone="no"?>
<svg
   viewBox="0 0 500 500"
   version="1.1"
   id="svg693"
   sodipodi:docname="101.svg"
   inkscape:version="1.1.2 (0a00cf5339, 2022-02-04)"
   xmlns:inkscape="http://www.inkscape.org/namespaces/inkscape"
   xmlns:sodipodi="http://sodipodi.sourceforge.net/DTD/sodipodi-0.dtd"
   xmlns="http://www.w3.org/2000/svg"
   xmlns:svg="http://www.w3.org/2000/svg">
  <defs
     id="defs697" />
  <sodipodi:namedview
     id="namedview695"
     pagecolor="#ffffff"
     bordercolor="#666666"
     borderopacity="1.0"
     inkscape:pageshadow="2"
     inkscape:pageopacity="0.0"
     inkscape:pagecheckerboard="0"
     showgrid="false"
     inkscape:zoom="1.132"
     inkscape:cx="250"
     inkscape:cy="250.4417"
     inkscape:window-width="1478"
     inkscape:window-height="800"
     inkscape:window-x="0"
     inkscape:window-y="0"
     inkscape:window-maximized="1"
     inkscape:current-layer="svg693" />
  <g
     id="freepik--background-complete--inject-114">
    <rect
       x="88.77"
       y="48.01"
       width="125.64"
       height="85.64"
       style="fill:none;stroke:#ebebeb;stroke-miterlimit:10"
       id="rect2" />
    <path
       d="M98.17,53.1a2.52,2.52,0,1,1-2.52-2.53A2.52,2.52,0,0,1,98.17,53.1Z"
       style="fill:#a6a6a6"
       id="path4" />
    <path
       d="M108.46,53.1a2.52,2.52,0,1,1-2.52-2.53A2.52,2.52,0,0,1,108.46,53.1Z"
       style="fill:#ebebeb"
       id="path6" />
    <path
       d="M118.75,53.1a2.52,2.52,0,1,1-2.52-2.53A2.52,2.52,0,0,1,118.75,53.1Z"
       style="fill:#FFC727"
       id="path8" />
    <line
       x1="88.77"
       y1="58.03"
       x2="214.41"
       y2="58.03"
       style="fill:none;stroke:#ebebeb;stroke-miterlimit:10"
       id="line10" />
    <rect
       x="52.45"
       y="243.07"
       width="72.71"
       height="46.11"
       transform="translate(-35.14 14.44) rotate(-7.77)"
       style="fill:#ebebeb"
       id="rect12" />
    <path
       d="M121.72,238.37c-2.53,3.18-5.13,6.25-7.69,9.39s-5.19,6.16-7.8,9.22-5.47,6.35-8.22,9.5l-.24.31-7.32,8.33-.37.39-.44-.28q-4.65-3-9.27-6.09l-.33-.21c-3.5-2.3-7-4.61-10.47-7-3.33-2.23-6.66-4.51-10-6.78s-6.64-4.6-9.93-7c3.42,2,6.8,4.05,10.2,6.08s6.78,4.15,10.15,6.26q5.64,3.51,11.28,7.14s0,0,0,0q4.23,2.69,8.44,5.4c2.22-2.49,4.45-5,6.68-7.46l0,0q4.46-5,9-9.89,4-4.4,8.1-8.73C116.25,244.09,119,241.18,121.72,238.37Z"
       style="fill:#fff"
       id="path14" />
    <path
       d="M81.55,268.69l-.08.09c-.33.38-.66.75-1,1.12-1.6,1.77-3.25,3.48-4.94,5.16-2,2.06-4.17,4.06-6.3,6.05s-4.31,3.9-6.53,5.79-4.47,3.75-6.82,5.49c1.92-2.21,3.95-4.3,6-6.36s4.19-4.06,6.31-6,4.31-3.92,6.54-5.81c1.76-1.5,3.57-3,5.42-4.42l1.3-1Z"
       style="fill:#fff"
       id="path16" />
    <path
       d="M127.57,282.62c-2.73-1.05-5.4-2.24-8-3.47s-5.25-2.52-7.85-3.83-5.16-2.7-7.69-4.14c-2.07-1.17-4.12-2.36-6.12-3.64l-1.28-.82-.1-.07a.28.28,0,0,0,.12,0l1.51.61c2.17.87,4.3,1.83,6.41,2.81,2.65,1.23,5.25,2.52,7.85,3.84s5.16,2.71,7.69,4.15S125.13,281,127.57,282.62Z"
       style="fill:#fff"
       id="path18" />
    <rect
       x="393.25"
       y="65.9"
       width="41.97"
       height="66.18"
       transform="translate(248.42 491.28) rotate(-80.53)"
       style="fill:#ebebeb"
       id="rect20" />
    <path
       d="M450.33,83.73c-3.06,2.08-6.15,4-9.22,6.09s-6.17,4-9.27,5.91-6.47,4-9.7,6l-.3.19-8.6,5.27-.43.25-.31-.37c-2.15-2.59-4.28-5.19-6.42-7.79l-.22-.27c-2.42-2.94-4.83-5.89-7.23-8.88s-4.56-5.72-6.84-8.59-4.52-5.79-6.74-8.75c2.45,2.63,4.82,5.36,7.23,8s4.77,5.44,7.14,8.19c2.63,3,5.26,6.13,7.87,9.24h0l5.88,7c2.6-1.57,5.21-3.15,7.81-4.69,0,0,0,0,0,0q5.22-3.12,10.45-6.19,4.69-2.73,9.4-5.41C444,87.23,447.16,85.43,450.33,83.73Z"
       style="fill:#fff"
       id="path22" />
    <path
       d="M407.23,99.26s-.05,0-.09,0c-.39.24-.78.48-1.17.7q-2.81,1.67-5.69,3.16c-2.34,1.24-4.72,2.4-7.11,3.55s-4.79,2.24-7.23,3.28-4.9,2-7.42,2.93c2.27-1.4,4.6-2.67,6.94-3.91s4.74-2.4,7.12-3.55,4.8-2.24,7.24-3.29c1.95-.83,3.92-1.64,5.91-2.38l1.4-.5Z"
       style="fill:#fff"
       id="path24" />
    <path
       d="M443.49,123.77c-2.1-1.64-4.1-3.4-6.06-5.18s-3.88-3.61-5.79-5.45-3.76-3.74-5.57-5.67c-1.49-1.57-2.94-3.16-4.34-4.82l-.89-1.05s0-.06-.07-.08a.47.47,0,0,0,.09.06l1.15.94c1.65,1.34,3.24,2.75,4.82,4.17,2,1.78,3.88,3.61,5.78,5.46s3.76,3.74,5.57,5.67S441.79,121.71,443.49,123.77Z"
       style="fill:#fff"
       id="path26" />
  </g>
  <g
     id="freepik--Shadow--inject-114">
    <ellipse
       cx="250"
       cy="434.76"
       rx="189.74"
       ry="25.35"
       style="fill:#ebebeb"
       id="ellipse29" />
  </g>
  <g
     id="freepik--Floor--inject-114">
    <polygon
       points="39.97 391.73 92.48 391.48 144.99 391.39 250 391.23 355.01 391.39 407.52 391.48 460.03 391.73 407.52 391.97 355.01 392.06 250 392.23 144.99 392.06 92.48 391.97 39.97 391.73"
       style="fill:#263238"
       id="polygon32" />
  </g>
  <g
     id="freepik--Plant--inject-114">
    <path
       d="M395.85,326.58s-17.74-4-27.46-13-15.15-25-15.15-25a152.52,152.52,0,0,1,19.89,5.22c1.58,1.7,4.61,5.2,6,8.51a41.55,41.55,0,0,0,0-6.08,27,27,0,0,1,6.32,3.83C393.57,307.13,395.85,326.58,395.85,326.58Z"
       style="fill:#FFC727"
       id="path35" />
    <path
       d="M364.31,296.4c-2.42-1.68-4.88-3.29-7.28-5a.14.14,0,0,1,.14-.24c4.57,2.73,9.08,5.65,13.44,8.71,1.52,1.06,3,2.17,4.48,3.3-.1-.17-.2-.35-.31-.52-.53-.9-1.09-1.77-1.65-2.64a38.5,38.5,0,0,0-3.76-5,.06.06,0,1,1,.08-.08c1.38,1.59,2.76,3.17,4,4.86.6.8,1.16,1.63,1.69,2.48.27.44.54.89.8,1.34l.26.46c2.29,1.8,4.53,3.68,6.66,5.66q2,1.84,3.81,3.81c-.69-2.15-1.29-4.32-2.08-6.43,0-.07.09-.1.12,0,.77,2.22,1.61,4.44,2.21,6.72,1.36,1.47,2.66,3,3.88,4.57l-.06-.29c-.2-.83-.41-1.67-.64-2.5-.43-1.6-.9-3.19-1.44-4.77a27.6,27.6,0,0,0-4.77-9c-.05-.06,0-.15.09-.09a34.42,34.42,0,0,1,6.79,14.19c.19.75.37,1.51.55,2.27.09.4.19.81.26,1.22.54.73,1.06,1.46,1.57,2.21a76.41,76.41,0,0,1,7.5,14.72,168.35,168.35,0,0,1,5.68,17.72c0,.11-.14.15-.18,0-3.47-10.38-7-20.9-12.95-30.18-1.25-2-2.61-3.84-4-5.67a33.37,33.37,0,0,1-8.63-1.71,37.88,37.88,0,0,1-8.64-4.18,53.47,53.47,0,0,1-4.43-3.34.06.06,0,1,1,.07-.1,35.26,35.26,0,0,0,8.13,4.92,44,44,0,0,0,8.95,3c1.31.29,2.64.5,4,.68a73.44,73.44,0,0,0-5.23-5.79c-.59-.6-1.21-1.17-1.83-1.75a42.18,42.18,0,0,0-6.56-3.76c-2.9-1.4-5.76-2.89-8.64-4.35-1.62-.83-3.23-1.67-4.87-2.47-.07,0,0-.14.07-.1,2.91,1.4,5.87,2.72,8.81,4.07,2.77,1.27,5.57,2.54,8.23,4,.12.07.22.14.34.2-2.41-2.09-4.89-4.08-7.44-6C369.12,299.81,366.74,298.07,364.31,296.4Z"
       style="fill:#263238"
       id="path37" />
    <path
       d="M365.32,305.54c1.44.63,2.91,1.19,4.34,1.86s2.86,1.49,4.25,2.31c.06,0,0,.13-.05.1-1.42-.68-2.85-1.31-4.25-2s-2.85-1.49-4.32-2.14C365.22,305.62,365.25,305.51,365.32,305.54Z"
       style="fill:#263238"
       id="path39" />
    <path
       d="M453.46,237.2a25.32,25.32,0,0,0-5.3,14.73c-.06,1.59.19,3.81.37,6.41A42.08,42.08,0,0,0,437,268.23a21.11,21.11,0,0,1,11.7-2.8,35.61,35.61,0,0,1-.68,5.3,20,20,0,0,0-7.52,1.49,16.75,16.75,0,0,1,6.78,1.35c-3.16,10.06-12.56,20.39-38.51,24.78a54.49,54.49,0,0,1,4.6-36.52C421.1,246.54,453.46,237.2,453.46,237.2Z"
       style="fill:#FFC727"
       id="path41" />
    <path
       d="M399.75,341.38c.45-4.29,1-8.58,1.68-12.85a258.78,258.78,0,0,1,5.23-25.4,102.06,102.06,0,0,1,3.75-11.57,18.1,18.1,0,0,1-.1-2.08c0-.83,0-1.66,0-2.49q0-2.49.24-5a60.37,60.37,0,0,1,1.59-9.73c.48-1.85,1-3.67,1.57-5.5,0-.07.14,0,.12,0a71,71,0,0,0-1.92,9.71,93.21,93.21,0,0,0-.87,9.74c0,.89,0,1.78,0,2.67,0,.38,0,.76,0,1.15a84.58,84.58,0,0,1,4.37-9,110.59,110.59,0,0,1,8.88-13.29,5.48,5.48,0,0,1,.22-1.45c.12-.58.25-1.16.37-1.74.27-1.18.57-2.36.89-3.53.64-2.35,1.5-4.63,2.23-6.95a.06.06,0,0,1,.12,0c-.69,2.3-1.14,4.68-1.67,7-.26,1.15-.51,2.31-.77,3.47-.12.58-.25,1.16-.37,1.74,0,0,0,.09,0,.13,1.05-1.32,2.12-2.63,3.21-3.91,5-5.81,10.39-11.18,15.86-16.5.67-.65,1.36-1.29,2-1.93a.06.06,0,1,1,.08.08c-5.22,5.45-10.37,11-15.24,16.74q-1.74,2.06-3.42,4.17l1.77-1.18c1.51-1,3-1.95,4.62-2.83s3.16-1.74,4.77-2.54,3.45-1.5,5.05-2.43c.07,0,.13.07.06.1a38.94,38.94,0,0,0-4.73,2.62c-1.58.94-3.16,1.88-4.71,2.87s-3.06,1.92-4.57,2.9c-1.27.82-2.51,1.72-3.82,2.48a122.22,122.22,0,0,0-8.31,12.1,89.3,89.3,0,0,0-4.3,8.15l.93-.41,2.38-1c1.52-.68,3.06-1.34,4.59-2,2.91-1.26,5.86-2.42,8.72-3.81a40,40,0,0,0,4.66-2.59c.06,0,.12.06.06.11-5.32,3.66-11.29,6.25-17.18,8.85l-2.55,1.13c-.7.31-1.41.66-2.13.93a91.38,91.38,0,0,0-4.39,12,244.63,244.63,0,0,0-5.64,25.1c-1.49,8.48-2.5,17-3.28,25.58-.09,1.07-.19,2.13-.31,3.2a.34.34,0,0,1-.68,0C398.85,350.06,399.3,345.71,399.75,341.38Z"
       style="fill:#263238"
       id="path43" />
    <path
       d="M415.54,269.72c.47-2.64,1.18-5.21,1.89-7.8,0-.07.13,0,.11,0-.65,2.53-1.12,5.12-1.6,7.69s-.92,5.26-1.28,7.9c0,0-.08,0-.08,0A68.6,68.6,0,0,1,415.54,269.72Z"
       style="fill:#263238"
       id="path45" />
    <path
       d="M426.72,276.88a46.61,46.61,0,0,1,5.64-3.18c.95-.49,1.91-.95,2.87-1.42s2-.87,3-1.37c.07,0,.13.08.06.11-.95.48-1.85,1.05-2.78,1.56l-2.88,1.58c-1.9,1-3.77,2.15-5.76,3A.14.14,0,0,1,426.72,276.88Z"
       style="fill:#263238"
       id="path47" />
    <path
       d="M395.52,295.85s-16.41-3.92-23.94-14.92c-7.2-10.52-9.53-28.44-9.71-30,.3,1.45,3.68,17.11,14.85,24.41C385.28,280.91,393.54,285.5,395.52,295.85Z"
       style="fill:#263238;opacity:0.1"
       id="path49" />
    <path
       d="M380.38,267.5a21,21,0,0,1,6.05,10,0,0,0,0,1-.06,0,24.49,24.49,0,0,0-6.07-9.89C380.24,267.54,380.32,267.45,380.38,267.5Z"
       style="fill:#263238"
       id="path51" />
    <path
       d="M395.52,295.85s-16.41-3.92-23.94-14.92c-7.2-10.52-9.53-28.44-9.71-30a.45.45,0,0,1,0-.11s7.87,11.19,16.14,14S397.89,277.57,395.52,295.85Z"
       style="fill:#FFC727"
       id="path53" />
    <path
       d="M364.76,257a67.13,67.13,0,0,0,5.07,8.68,35,35,0,0,0,6.75,7c2.23,1.77,4.59,3.37,6.85,5.11a.41.41,0,0,1-.05-.09c-.43-.62-.88-1.24-1.35-1.83-.94-1.2-2-2.34-3-3.46-2-2.21-4.12-4.38-5.95-6.78a24.91,24.91,0,0,1-2.63-4.23c0-.07.08-.11.12,0,2.66,5.54,8,9.09,11.77,13.78a21.9,21.9,0,0,1,1.51,2.07,8.81,8.81,0,0,1,.95,1.67,34.47,34.47,0,0,1,5.6,5.66,22.85,22.85,0,0,0-.66-3.19,16,16,0,0,0-1.74-4.15c0-.07.06-.14.1-.07a19.11,19.11,0,0,1,1.91,4.13,13.89,13.89,0,0,1,.6,3.54h0a32.12,32.12,0,0,1,2.22,3.45l-.21-1.05c-.32-1.63-.68-3.27-1.11-4.88a29,29,0,0,0-3.95-9.24.07.07,0,0,1,.11-.07,35.79,35.79,0,0,1,4.37,9c.52,1.61.94,3.25,1.31,4.9.18.81.34,1.62.5,2.44.08.42.17.84.24,1.28a59.26,59.26,0,0,1,3.78,11.12,163.71,163.71,0,0,1,3.5,20.75,172.64,172.64,0,0,1,1.13,22c0,.92-.07,1.84-.12,2.76,0,.24-.37.27-.38,0-.16-3.64-.25-7.28-.47-10.92s-.53-7.28-.92-10.9a194.89,194.89,0,0,0-3.42-21.22c-1.33-6-3.06-12-6.34-17.3a32.7,32.7,0,0,0-5.92-7c-2.3-2.06-4.81-3.87-7.24-5.79a40.16,40.16,0,0,1-6.65-6.38,52.62,52.62,0,0,1-5.22-8.48c-.38-.74-.78-1.48-1.17-2.22C364.62,257,364.72,256.91,364.76,257Z"
       style="fill:#263238"
       id="path55" />
    <path
       d="M367.59,259.38a54.64,54.64,0,0,0,3.66,6.39,0,0,0,0,1-.08.05,43.73,43.73,0,0,1-3.69-6.4C367.44,259.35,367.56,259.31,367.59,259.38Z"
       style="fill:#263238"
       id="path57" />
    <path
       d="M455.75,288.6s.26,23.32-13.69,30-21.42,1.12-30.9,3.38h0c.37-.56,7.13-10.28,17.89-12.95C440.13,306.31,452.39,298.31,455.75,288.6Z"
       style="fill:#FFC727"
       id="path59" />
    <path
       d="M455.75,288.6s.26,23.32-13.69,30-21.42,1.12-30.9,3.38h0A52.87,52.87,0,0,1,427,317.34C435.83,316.28,452.63,310.55,455.75,288.6Z"
       style="opacity:0.1"
       id="path61" />
    <path
       d="M410.25,322.45a23.44,23.44,0,0,1,5.54-3.76c.3-.14.61-.26.91-.39s.31-.36.47-.53c.42-.44.86-.86,1.31-1.25a19.22,19.22,0,0,1,2.81-2c2.31-1.36,4.84-2.31,7.2-3.57.07,0,.13.07.06.1-1.17.61-2.3,1.28-3.43,1.94s-2.24,1.26-3.31,1.95a24.52,24.52,0,0,0-2.76,2.07c-.25.22-.48.45-.72.69a36.72,36.72,0,0,1,4.71-1.25c2.56-.52,5.14-.89,7.69-1.43a36.75,36.75,0,0,0,3.7-1c1.15-.93,2.31-1.86,3.4-2.87a27.87,27.87,0,0,0,3.61-4c.05-.06.15,0,.1.06a42.19,42.19,0,0,1-5.72,6.31c.61-.23,1.2-.47,1.79-.74a28.72,28.72,0,0,0,11.88-9.89c0-.06.15,0,.1.07a32.65,32.65,0,0,1-9.61,9.23,29.06,29.06,0,0,1-6.07,2.87,55.93,55.93,0,0,1-7.55,1.78,54.78,54.78,0,0,0-7.39,1.76,22.29,22.29,0,0,0-6.2,3.26,29.15,29.15,0,0,0-8.36,10.36,52.3,52.3,0,0,0-4.6,17.06c0,.25-.41.25-.4,0C400.07,339.45,402.69,329.25,410.25,322.45Z"
       style="fill:#263238"
       id="path63" />
    <path
       d="M426.43,314.84a8.06,8.06,0,0,1,2.87-2.6,10.67,10.67,0,0,0,3.41-2.82c0-.06.15,0,.1.06a11.41,11.41,0,0,1-3,2.7,10.28,10.28,0,0,0-3.28,2.72C426.48,315,426.39,314.9,426.43,314.84Z"
       style="fill:#263238"
       id="path65" />
    <polygon
       points="419.03 339.66 418.4 352.48 416.45 391.67 387.2 391.67 385.25 352.48 384.62 339.66 419.03 339.66"
       style="fill:#37474f"
       id="polygon67" />
    <polygon
       points="419.03 339.66 418.4 352.48 385.25 352.48 384.62 339.66 419.03 339.66"
       style="fill:#263238"
       id="polygon69" />
    <rect
       x="382.57"
       y="334.31"
       width="38.51"
       height="12.23"
       style="fill:#37474f"
       id="rect71" />
  </g>
  <g
     id="freepik--Character--inject-114">
    <path
       d="M64.59,444.46c2.16.69,63.6.05,65.93-1.46.89-.57,1.31-9.52,1.52-20.36.05-2.34.08-4.75.1-7.21.15-15.93-.07-32.84-.07-32.84L91,382.91l1.21,32.83.26,7.21S69,433.72,66.64,435.64,62.44,443.76,64.59,444.46Z"
       style="fill:#f7a9a0"
       id="path74" />
    <path
       d="M64.59,444.46c2.16.7,63.6,0,65.93-1.46.89-.57,1.32-9.52,1.52-20.35.05-2.34.09-4.76.1-7.21s0-5.08,0-7.59H91.87l.29,7.89.27,7.2S69,433.72,66.64,435.64,62.44,443.76,64.59,444.46Z"
       style="fill:#ebebeb"
       id="path76" />
    <path
       d="M64.41,444.55c2.16.7,64,.05,66.29-1.47,1.09-.7,1.5-13.84,1.63-27.72l-40.19.31.26,7.25s-23.55,10.83-25.94,12.76S62.24,443.85,64.41,444.55Z"
       style="fill:#FFC727"
       id="path78" />
    <path
       d="M65.27,442.07c10.35-.37,52.15-.86,62.42-.43.08,0,.08.06,0,.07-10.26.58-52.06.73-62.42.53C65.05,442.23,65.05,442.08,65.27,442.07Z"
       style="fill:#263238"
       id="path80" />
    <path
       d="M90.91,420.63c4.07-.8,9.06-.23,12.21,2.64.12.11,0,.28-.17.24a57.74,57.74,0,0,0-12-2.36A.26.26,0,0,1,90.91,420.63Z"
       style="fill:#263238"
       id="path82" />
    <path
       d="M88,422.44c4.07-.81,9.06-.24,12.2,2.64.13.11,0,.28-.17.24A57,57,0,0,0,88,423,.26.26,0,0,1,88,422.44Z"
       style="fill:#263238"
       id="path84" />
    <path
       d="M85.07,424.24c4.06-.8,9.05-.23,12.2,2.64.12.11,0,.28-.17.24a57.79,57.79,0,0,0-12-2.37A.26.26,0,0,1,85.07,424.24Z"
       style="fill:#263238"
       id="path86" />
    <path
       d="M82.14,426c4.07-.8,9.06-.23,12.21,2.64.12.12,0,.29-.17.25a57.11,57.11,0,0,0-12-2.37A.26.26,0,0,1,82.14,426Z"
       style="fill:#263238"
       id="path88" />
    <path
       d="M85.17,417.07c2.91,2.21,6.67,3.09,10,4.3a.51.51,0,0,0,.63-.52c.07,0,.13-.06.1-.14a21.81,21.81,0,0,0-6.38-9.28c-1.71-1.41-4.71-2.37-6.29-.14S83.48,415.78,85.17,417.07ZM84.1,413.8c-.77-4.46,4.06-2.16,5.28-1.07A22.75,22.75,0,0,1,91.57,415a64.83,64.83,0,0,1,3.84,5.33c-1.62-.7-3.29-1.25-4.94-1.88C88.51,417.73,84.52,416.26,84.1,413.8Z"
       style="fill:#263238"
       id="path90" />
    <path
       d="M109.49,414.35c-1-2.53-4.15-2.3-6.15-1.33A21.79,21.79,0,0,0,95,420.53a.11.11,0,0,0,.06.17.5.5,0,0,0,.49.65c3.57-.38,7.43-.35,10.78-1.82C108.25,418.67,110.45,416.74,109.49,414.35Zm-8.68,5.31c-1.75.23-3.5.38-5.24.67,1.64-1.46,3.2-3,5-4.28a23.3,23.3,0,0,1,2.66-1.73c1.45-.77,6.68-1.87,4.89,2.29C107.12,418.9,102.9,419.39,100.81,419.66Z"
       style="fill:#263238"
       id="path92" />
    <path
       d="M144.43,206.67s-12,100.94-12.24,102.3c0,.18,3.4,107.88,3.4,107.88H90.77s-1.21-94.38.45-110.34c2.12-20.36,15.48-99.84,15.48-99.84Z"
       style="fill:#37474f"
       id="path94" />
    <path
       d="M133,407.63c-6.89-.14-4.91-.2-11.8-.26-3.37,0-25.52-.23-28.66.29-.07,0-.07.13,0,.14,3.14.53,25.29.33,28.66.3,6.89-.07,4.91-.12,11.8-.27A.1.1,0,0,0,133,407.63Z"
       style="fill:#263238"
       id="path96" />
    <path
       d="M126.27,300.7c.63-5.7,1.45-11.39,2.19-17.08q2.26-17.17,4.57-34.37c1.75-13,3.61-25.95,5.45-38.92,0-.16.27-.15.25,0q-2.08,17.37-4.21,34.73c-1.42,11.46-2.93,22.92-4.43,34.37s-3.44,22.75-3.39,34.23c0,5.78.28,11.55.44,17.33s.33,11.55.48,17.33c.35,13.08.85,41.06.72,54.15a.13.13,0,0,1-.26,0c-.8-11.66-1.05-38.24-1.43-49.92s-.79-23.11-1-34.67A131.41,131.41,0,0,1,126.27,300.7Z"
       style="fill:#263238"
       id="path98" />
    <path
       d="M172.46,442.39c2.17-.63,52.68-35.63,53.76-38.18.42-1-4.25-8.62-10.15-17.71-1.28-2-2.6-4-4-6-8.82-13.27-18.48-27.15-18.48-27.15l-33.86,23.32,19.41,26.5,4.26,5.82s-13.35,22-14.23,25S170.28,443,172.46,442.39Z"
       style="fill:#f7a9a0"
       id="path100" />
    <path
       d="M172.46,442.39c2.17-.63,52.68-35.63,53.76-38.17.42-1-4.24-8.63-10.16-17.71-1.26-2-2.59-4-4-6s-2.82-4.23-4.21-6.31l-33.37,22.61,4.66,6.36,4.26,5.82S170.09,431,169.2,434,170.29,443,172.46,442.39Z"
       style="fill:#ebebeb"
       id="path102" />
    <path
       d="M172.35,442.57c2.19-.63,53-35.83,54.07-38.39.5-1.19-6.53-12.3-14.2-23.87l-33.1,22.8L183.4,409S170,431.14,169.08,434.08,170.17,443.21,172.35,442.57Z"
       style="fill:#FFC727"
       id="path104" />
    <path
       d="M171.67,440c8.37-6.11,42.71-30,51.44-35.36.08-.05.11,0,0,.05-8.16,6.24-42.69,29.81-51.38,35.45C171.59,440.3,171.5,440.17,171.67,440Z"
       style="fill:#263238"
       id="path106" />
    <path
       d="M180.89,407.91c2.91-3,7.37-5.28,11.58-4.66.16,0,.13.25,0,.29a57.37,57.37,0,0,0-11.28,4.78A.26.26,0,0,1,180.89,407.91Z"
       style="fill:#263238"
       id="path108" />
    <path
       d="M179.48,411c2.91-3,7.37-5.27,11.58-4.66.17,0,.13.26,0,.3a57.94,57.94,0,0,0-11.28,4.77A.26.26,0,0,1,179.48,411Z"
       style="fill:#263238"
       id="path110" />
    <path
       d="M178.07,414.17c2.92-2.94,7.37-5.27,11.58-4.66.17,0,.13.26,0,.3a57.37,57.37,0,0,0-11.28,4.78A.26.26,0,0,1,178.07,414.17Z"
       style="fill:#263238"
       id="path112" />
    <path
       d="M176.66,417.31c2.92-2.95,7.37-5.28,11.59-4.66.16,0,.12.25,0,.29A57,57,0,0,0,177,417.72.26.26,0,0,1,176.66,417.31Z"
       style="fill:#263238"
       id="path114" />
    <path
       d="M174.14,408.18c3.64.2,7.25-1.19,10.73-2.08a.5.5,0,0,0,.23-.78.11.11,0,0,0,0-.18,21.93,21.93,0,0,0-10.48-4.1c-2.21-.2-5.23.68-5.29,3.41C169.27,407,172,408.06,174.14,408.18Zm-2.72-2.11c-3.14-3.26,2.14-4.07,3.77-3.85a23.51,23.51,0,0,1,3.1.69,60.63,60.63,0,0,1,6.17,2.26c-1.73.33-3.42.81-5.14,1.21C177.27,406.85,173.15,407.87,171.42,406.07Z"
       style="fill:#263238"
       id="path116" />
    <path
       d="M192.74,392.29c-2.25-1.53-4.72.42-5.83,2.34a21.75,21.75,0,0,0-2.72,10.92.11.11,0,0,0,.14.11.51.51,0,0,0,.77.26c2.74-2.32,6-4.46,7.91-7.55C194.14,396.56,194.88,393.73,192.74,392.29Zm-4.2,9.26c-1.32,1.18-2.69,2.28-4,3.5.54-2.13,1-4.27,1.73-6.34a23.61,23.61,0,0,1,1.24-2.93c.76-1.45,4.47-5.3,5.32-.85C193.33,397.38,190.11,400.15,188.54,401.55Z"
       style="fill:#263238"
       id="path118" />
    <path
       d="M106.7,206.67s7,21.51,14.87,32.36c0,0,2.06,79.54,5.27,88.68,5.33,15.13,46.75,76.32,46.75,76.32l37.95-26.22s-39.69-57.45-41.77-62.95c-1.37-3.65-5.39-66.7-4.81-68.28,7-19.08-3.53-39.91-3.53-39.91Z"
       style="fill:#37474f"
       id="path120" />
    <path
       d="M203.45,369.82c-5.75,3.79-4.16,2.62-9.86,6.48-2.8,1.88-21.14,14.3-23.43,16.52a.07.07,0,0,0,.08.11c2.89-1.35,21-14.09,23.76-16,5.63-4,4-2.89,9.56-6.92C203.66,369.91,203.55,369.75,203.45,369.82Z"
       style="fill:#263238"
       id="path122" />
    <path
       d="M160.16,244.28c.57-2.48,1.19-4.95,1.57-7.47a37.36,37.36,0,0,0,.32-7.69,75.71,75.71,0,0,0-2.81-15.35c-.34-1.25-.7-2.5-1.07-3.75-.07-.22.29-.31.35-.09a103.48,103.48,0,0,1,3.87,15,41.83,41.83,0,0,1-.39,14.8c-1,5-2.5,9.92-2.3,15.11.1,2.69,3.3,52.66,3.3,55.26a21,21,0,0,0,1,7.52,38.59,38.59,0,0,0,3.53,6.54c1.37,2.24,2.75,4.46,4.14,6.68,5.47,8.74,18,26.43,23.82,34.93l2.23,3.23c.08.11-.1.21-.18.1-6.13-8.45-19-26-24.6-34.82-2.77-4.3-5.6-8.61-8.12-13.07a18.63,18.63,0,0,1-2.42-6.73c-.32-2.41-3.7-60.28-3.5-62.88A49.8,49.8,0,0,1,160.16,244.28Z"
       style="fill:#263238"
       id="path124" />
    <path
       d="M142.84,214c.95,3.87.81,8.71,3.56,11.9a9.52,9.52,0,0,0,5.35,2.78,25.8,25.8,0,0,0,7,.38.09.09,0,0,1,0,.17c-4.16,1.33-9.93,1.11-13.08-2.32a10.57,10.57,0,0,1-2.4-5.73,53.73,53.73,0,0,1-.58-7.17A.09.09,0,0,1,142.84,214Z"
       style="fill:#263238"
       id="path126" />
    <path
       d="M121.29,239.17a.31.31,0,0,1,.61,0c.16,1.76.13,3.53.19,5.29s.08,3.34.13,5c.09,3.44.16,6.87.24,10.31.16,6.87.36,13.73.65,20.6s.59,13.72.94,20.58c.18,3.43.38,6.86.58,10.28a74.37,74.37,0,0,0,1,9.87,58.78,58.78,0,0,0,7.44,19c.09.13-.12.24-.22.11a45.11,45.11,0,0,1-7.76-16.47c-1.55-6.42-1.72-13.07-2.09-19.63-.78-13.86-1.29-27.72-1.64-41.59-.09-3.9-.18-7.8-.19-11.7,0-1.9,0-3.8,0-5.7S121.13,241.16,121.29,239.17Z"
       style="fill:#263238"
       id="path128" />
    <path
       d="M114.29,235.81a85.85,85.85,0,0,1,13.18,5.86.14.14,0,1,1-.12.26c-4.44-1.82-9-3.56-13.3-5.61C113.71,236.16,113.94,235.7,114.29,235.81Z"
       style="fill:#263238"
       id="path130" />
    <path
       d="M113,206.79c0-.14.28-.18.28,0a132.32,132.32,0,0,0,.75,14.16c.2,2.18,2,14.24,6,13.36.66-.14,1-.77,1.11-1.72a14.69,14.69,0,0,0-.53-3.7c-.44-2.53-.79-5.06-1-7.61a66.1,66.1,0,0,1,.16-14.27.13.13,0,0,1,.26,0,123.54,123.54,0,0,0,1.21,19.69c.49,3.14,2.15,7.86-1.29,8.34s-5.77-7.42-6.2-9.58A69.12,69.12,0,0,1,113,206.79Z"
       style="fill:#263238"
       id="path132" />
    <path
       d="M119.88,234.62a20.13,20.13,0,0,1,.9,2.5,5.42,5.42,0,0,1,.37,2c0,.14-.2.15-.28.06a7.14,7.14,0,0,1-.92-2c-.3-.77-.62-1.54-.9-2.32C118.87,234.39,119.66,234.12,119.88,234.62Z"
       style="fill:#263238"
       id="path134" />
    <path
       d="M94.14,156.14c-5.39,9-25.52,48.45-20.88,59.68,2.86,6.91,10.84,4.32,15.2,1.74,5.11-3,13-47.34,13.55-56.17C102.49,153,99.44,147.26,94.14,156.14Z"
       style="fill:#f7a9a0"
       id="path136" />
    <path
       d="M75.68,192.22l23.4-5.77a225,225,0,0,0,3.2-26.36c.75-13.51-4.12-11.83-13.22,2.55A126.65,126.65,0,0,0,75.68,192.22Z"
       style="fill:#FFC727"
       id="path138" />
    <path
       d="M84.19,179.55a9.4,9.4,0,0,0-.63,2.66,10,10,0,0,0,1.29-2.4,9.35,9.35,0,0,0,.63-2.64A10,10,0,0,0,84.19,179.55ZM97.1,152.23h0a8,8,0,0,0-.42,2,9.83,9.83,0,0,0,1.3-2.4,3.19,3.19,0,0,0,.11-.33A10.56,10.56,0,0,0,97.1,152.23ZM96,166.56A10,10,0,0,0,93.72,168a10.55,10.55,0,0,0,4.93-2.2A10,10,0,0,0,96,166.56Z"
       style="fill:#fff"
       id="path140" />
    <path
       d="M98.1,182.11A176.41,176.41,0,0,1,79,186.87c-.08,0-.09-.11,0-.13,1.56-.3,11.91-3.32,19.12-4.77C98.18,182,98.18,182.08,98.1,182.11Z"
       style="fill:#263238"
       id="path142" />
    <path
       d="M102.28,160.09a225,225,0,0,1-3.2,26.36l-10.6,2.61,12.29-37.93C102,152,102.56,155,102.28,160.09Z"
       style="opacity:0.1"
       id="path144" />
    <path
       d="M103.14,218.67l60.56-12s-19.93-41-49.2-56.87c-6.77-3.68-17.24-1-18.29,5.45C92.62,177.47,103.14,218.67,103.14,218.67Z"
       style="fill:#FFC727"
       id="path146" />
    <path
       d="M112.67,164.85a9.1,9.1,0,0,0-.64,2.65,9.44,9.44,0,0,0,1.3-2.39,9.61,9.61,0,0,0,.64-2.65A10,10,0,0,0,112.67,164.85Zm-5.49,36.38a9.64,9.64,0,0,0-.65,2.64,9.2,9.2,0,0,0,1.3-2.4,9.8,9.8,0,0,0,.64-2.64A9.46,9.46,0,0,0,107.18,201.23Zm20.61-3.77a9.78,9.78,0,0,0-.64,2.65,10.15,10.15,0,0,0,1.31-2.39,9.43,9.43,0,0,0,.63-2.64A9.86,9.86,0,0,0,127.79,197.46Zm-31-44c0,.25-.08.49-.1.75a9.83,9.83,0,0,0,1.3-2.4.88.88,0,0,0,0-.15A7,7,0,0,0,96.78,153.47Zm42.39,16.9c-.25-.13-.5-.23-.75-.34a9.43,9.43,0,0,0-2.64-.63,9.22,9.22,0,0,0,2.38,1.3,12.71,12.71,0,0,0,1.73.5C139.66,170.92,139.42,170.64,139.17,170.37Zm3.18,33.73a9.27,9.27,0,0,0-2.64-.63,10.43,10.43,0,0,0,5,1.92A10.14,10.14,0,0,0,142.35,204.1Zm-36.23-24.73a9.65,9.65,0,0,0-2.64-.66,9.63,9.63,0,0,0,2.39,1.31,9.42,9.42,0,0,0,2.65.63A9.43,9.43,0,0,0,106.12,179.37Zm49,15.34a9.77,9.77,0,0,0-1.42-2.32,10.52,10.52,0,0,0,2.19,4.93A9.85,9.85,0,0,0,155.17,194.71Zm-28.85-19a10,10,0,0,0-1.42-2.33,9.24,9.24,0,0,0,.78,2.62,9.61,9.61,0,0,0,1.41,2.32A10,10,0,0,0,126.32,175.75Zm14.34,11.05a9.24,9.24,0,0,0-2.32,1.41,9.11,9.11,0,0,0,2.6-.78,9,9,0,0,0,2.32-1.41A9.11,9.11,0,0,0,140.66,186.8ZM118.43,210a9.27,9.27,0,0,0-2.32,1.42,9.44,9.44,0,0,0,2.6-.78,9.58,9.58,0,0,0,2.32-1.42A9.44,9.44,0,0,0,118.43,210ZM96,166.56l-.57.29v.68a6.92,6.92,0,0,0,.86-.33,9.65,9.65,0,0,0,2.32-1.42A10,10,0,0,0,96,166.56Zm20.44,22.7a9,9,0,0,0-2.32,1.42,9.11,9.11,0,0,0,2.6-.78,9,9,0,0,0,2.32-1.42A9.91,9.91,0,0,0,116.48,189.26Zm6.93-33.7a1.18,1.18,0,0,0-.18.13,1.37,1.37,0,0,0,.28-.05Z"
       style="fill:#fff"
       id="path148" />
    <path
       d="M114,153c12.33-3.9,44.38-12.59,49.54-22.25,6.78-12.68,1.84-41.08-1.58-45.85-1.88-2.63-19.79,4.52-21.67,7.42s1.53,24.93.85,27.43S118.31,136,108.58,143.94C96.31,154,104.32,156.06,114,153Z"
       style="fill:#f7a9a0"
       id="path150" />
    <path
       d="M146.56,143.32,126.47,130s-7.38,5.27-17.83,13.87-9.8,14,7,11S146.56,143.32,146.56,143.32Z"
       style="fill:#FFC727"
       id="path152" />
    <path
       d="M130.9,141.38a9.43,9.43,0,0,0-2.64-.63,10.05,10.05,0,0,0,2.38,1.3,9.5,9.5,0,0,0,2.65.63A9.77,9.77,0,0,0,130.9,141.38Zm-17.58,5.53a9.46,9.46,0,0,0-1.42-2.32,9.6,9.6,0,0,0,.77,2.61,9.46,9.46,0,0,0,1.42,2.32A9.49,9.49,0,0,0,113.32,146.91Z"
       style="fill:#fff"
       id="path154" />
    <path
       d="M123.93,133.68a176.85,176.85,0,0,1,16.46,10.84c.06,0,0,.14-.09.09-1.28-1-10.51-6.51-16.46-10.83C123.77,133.73,123.86,133.63,123.93,133.68Z"
       style="fill:#263238"
       id="path156" />
    <path
       d="M115.59,154.85a17.17,17.17,0,0,1,2.58-.74,15.78,15.78,0,0,1,2.67-.4,10.78,10.78,0,0,1-2.56.88A10.11,10.11,0,0,1,115.59,154.85Z"
       style="fill:#263238"
       id="path158" />
    <path
       d="M116.93,155.38a16.33,16.33,0,0,1,2-1.19,2.56,2.56,0,0,1-.9.77A3.92,3.92,0,0,1,116.93,155.38Z"
       style="fill:#263238"
       id="path160" />
    <path
       d="M80.05,220.1c-7.26-.64-8.69-11.23-5-14.76,9.21-8.84,28.28-15,35.83-17.09,3.36-.92,28,7.12,24.94,12.49C130.88,209.37,94.68,221.4,80.05,220.1Z"
       style="fill:#f7a9a0"
       id="path162" />
    <path
       d="M111.17,196.87a41.82,41.82,0,0,1,2.34-16c1.27-3.63,5.34-9.47,7.23-11.51,2.83-3.05,16.61-14,19.34-10.73,2.47,3-10.57,10.89-10.57,10.89s12.45-9.15,14.76-5-13.59,11.1-13.59,11.1,13-9.11,14.71-4.47c1.3,3.5-12.76,10.63-12.76,10.63s11.23-7.75,12.71-4.21c1.65,3.92-10.92,11.32-10.92,11.32,1.45.94,4.19,7.64.78,12.83C134.61,202.57,111.17,196.87,111.17,196.87Z"
       style="fill:#f7a9a0"
       id="path164" />
    <path
       d="M125,172.37c1.43-1.12,2.86-2.27,4.38-3.27s3.07-1.94,4.68-2.79a31.06,31.06,0,0,1,6.55-2.72,66.5,66.5,0,0,0-11,5.94c-1.52,1-3.08,1.91-4.6,2.9C125,172.46,125,172.4,125,172.37Z"
       style="fill:#263238"
       id="path166" />
    <path
       d="M128.5,177.92c1.88-1.36,3.7-2.78,5.64-4.06s3.87-2.31,5.89-3.44c.15-.09.15,0,0,.12-2,1.21-3.69,2.49-5.65,3.73s-3.95,2.4-5.85,3.7C128.5,178,128.48,177.94,128.5,177.92Z"
       style="fill:#263238"
       id="path168" />
    <path
       d="M130.65,183.22a54.33,54.33,0,0,1,9.16-5.74c.16-.08.14.06,0,.16-3,1.78-5.53,3.36-9.06,5.68C130.67,183.36,130.59,183.27,130.65,183.22Z"
       style="fill:#263238"
       id="path170" />
    <path
       d="M143.2,168.06a6.66,6.66,0,0,0,1.13-1.69,2.68,2.68,0,0,0,0-1.83s-.07,0-.06,0a2.12,2.12,0,0,1-.36,2,9.69,9.69,0,0,1-1.16,1.48,13.72,13.72,0,0,1-1.42,1.33,17.17,17.17,0,0,1-1.52,1.18h0a0,0,0,0,0,0,0h0s0,0,0,0a6.8,6.8,0,0,1,2.87-.72,3,3,0,0,1,1.4.19,1.8,1.8,0,0,1,.89,2.21,3.39,3.39,0,0,1-.73,1.07,26.26,26.26,0,0,1-2.08,2.14c-.41.37-.83.73-1.26,1.07s-.89.66-1.29,1c0,0,.06.09.09.08.38-.11,3.17-1.19,4.4-.78a1.6,1.6,0,0,1,1.17,1.44,3.21,3.21,0,0,1-.62,2,24.13,24.13,0,0,1-2.35,2.81s0,.06,0,0c.64-.63,2-2,2.56-2.69a3.21,3.21,0,0,0,.75-2.07,2,2,0,0,0-1-1.68,3.25,3.25,0,0,0-2.09-.1,23.32,23.32,0,0,0-2.48.81c.32-.2,1.79-1.31,2.21-1.67a23.07,23.07,0,0,0,2.35-2.29,2.44,2.44,0,0,0,.72-2.56,2.22,2.22,0,0,0-2.17-1.35,5.68,5.68,0,0,0-2.13.4c.19-.12.38-.25.56-.39A10.62,10.62,0,0,0,143.2,168.06Z"
       style="fill:#263238"
       id="path172" />
    <path
       d="M77.67,203.08A37.38,37.38,0,0,1,82,199.77,50.53,50.53,0,0,1,86.61,197a46.66,46.66,0,0,1,4.92-2.28A41.84,41.84,0,0,1,96.67,193c-1.64.75-3.3,1.45-4.91,2.24s-3.22,1.57-4.8,2.41-3.14,1.72-4.7,2.61S79.19,202.1,77.67,203.08Z"
       style="fill:#263238"
       id="path174" />
    <path
       d="M100.2,160.81c3.33.07,7.53-6.44,8.83-10.82.09-.3-.74-2.55-1.82-6-.65-2.06-1.33-4.37-1.79-6.53-.09-.44-12.81,6.19-12.81,6.19a35.29,35.29,0,0,1,3.09,8,6,6,0,0,1,.1.91.86.86,0,0,0,0,.15C95.9,154.49,97,160.74,100.2,160.81Z"
       style="fill:#f7a9a0"
       id="path176" />
    <path
       d="M97.21,152.52a8.66,8.66,0,0,1-1.4.23.86.86,0,0,1,0-.15,6,6,0,0,0-.1-.91,35.49,35.49,0,0,0-3.08-8s10.31-5.38,12.43-6.12C105.16,140.16,105.14,150.63,97.21,152.52Z"
       style="fill:#263238"
       id="path178" />
    <path
       d="M100.56,121.24c3.22,4,6.13,18.08,4.08,22.31-3,6.14-10.48,9.64-16.36,5.46-5.7-4-9.16-22.48-6.62-26.6C85.39,116.35,95.8,115.35,100.56,121.24Z"
       style="fill:#f7a9a0"
       id="path180" />
    <path
       d="M93.11,134s.08,0,.09.07c.17.95.53,2,1.45,2.15a0,0,0,0,1,0,.06C93.58,136.37,93.12,135,93.11,134Z"
       style="fill:#263238"
       id="path182" />
    <path
       d="M93.75,132.85c1.5-.44,2.27,2.6.87,3S92.49,133.22,93.75,132.85Z"
       style="fill:#263238"
       id="path184" />
    <path
       d="M87.48,135.3s-.06.07,0,.1c.27.94.41,2-.36,2.57,0,0,0,.07,0,.06C88.09,137.62,87.88,136.14,87.48,135.3Z"
       style="fill:#263238"
       id="path186" />
    <path
       d="M86.39,134.53c-1.54.27-.89,3.33.54,3.08S87.69,134.31,86.39,134.53Z"
       style="fill:#263238"
       id="path188" />
    <path
       d="M94.57,130.75a11.13,11.13,0,0,1-1.28.08,2.08,2.08,0,0,1-1.33-.16.67.67,0,0,1-.22-.78,1.65,1.65,0,0,1,1.46-.8,2.38,2.38,0,0,1,1.68.41A.7.7,0,0,1,94.57,130.75Z"
       style="fill:#263238"
       id="path190" />
    <path
       d="M84.84,133.3a10.23,10.23,0,0,0,1.12-.62,2.09,2.09,0,0,0,1-.84.66.66,0,0,0-.23-.78,1.65,1.65,0,0,0-1.66.1,2.38,2.38,0,0,0-1.2,1.26A.7.7,0,0,0,84.84,133.3Z"
       style="fill:#263238"
       id="path192" />
    <path
       d="M95.83,142.27c-.17.28-.31.64-.65.75a2.57,2.57,0,0,1-1.07,0s0,0,0,.06a1.31,1.31,0,0,0,1.33.21,1,1,0,0,0,.53-1C95.94,142.23,95.86,142.23,95.83,142.27Z"
       style="fill:#263238"
       id="path194" />
    <path
       d="M94.14,139.71a3.27,3.27,0,0,1-1.78,2,4,4,0,0,1-1.14.34.83.83,0,0,1-.22,0l-.22,0a.25.25,0,0,1-.24-.16h0a.3.3,0,0,1,0-.1h0l0-.09c-.2-.71-.41-1.83-.41-1.83-.23.2-1.42,1.14-1.5.76a50,50,0,0,1-1.2-10,.09.09,0,0,1,.18,0c.7,3,.86,6.17,1.52,9.22a5.92,5.92,0,0,1,1.39-.84c.11,0,.36,2.17.48,2.49a.08.08,0,0,0,0,0A4.57,4.57,0,0,0,94,139.64C94.08,139.57,94.17,139.62,94.14,139.71Z"
       style="fill:#263238"
       id="path196" />
    <path
       d="M91.65,141.55a3.69,3.69,0,0,0,1.75.69,1.69,1.69,0,0,0,1-.22c.65-.39.48-1.05.19-1.56a3.9,3.9,0,0,0-.57-.76A4.74,4.74,0,0,1,91.65,141.55Z"
       style="fill:#263238"
       id="path198" />
    <path
       d="M93.4,142.24a1.69,1.69,0,0,0,1-.22c.65-.39.48-1.05.19-1.56A1.72,1.72,0,0,0,93.4,142.24Z"
       style="fill:#ff9abb"
       id="path200" />
    <path
       d="M106.21,131.45c-3.55,1.58-7-2.08-7.44-5.88,0,0-9.22,4.79-12.5-2.82a8.1,8.1,0,0,1-5,5.77l0,3.26c-1.1.07-3.18-2.37-1.55-5.46a9.84,9.84,0,0,1,.78-7.3,5.63,5.63,0,0,1,5.41-2.86,8.52,8.52,0,0,1,5.32-3.56,7.28,7.28,0,0,1,6.38,1.89s5.13-.82,7.18,2.29a7.54,7.54,0,0,1,1.12,6s1.69.9,2.13,4C108.24,128.86,107.27,131,106.21,131.45Z"
       style="fill:#263238"
       id="path202" />
    <path
       d="M86.23,122a9.61,9.61,0,0,0,.67,1.91,8.37,8.37,0,0,0,1,1.71,5.27,5.27,0,0,0,3.26,2,8.35,8.35,0,0,0,3.89-.4c.63-.24,1.27-.45,1.88-.73s1.21-.6,1.83-.88c-.56.37-1.15.72-1.73,1.09s-1.23.58-1.86.87a8.34,8.34,0,0,1-4.09.52,5.49,5.49,0,0,1-3.47-2.23A8.31,8.31,0,0,1,86.23,122Z"
       style="fill:#263238"
       id="path204" />
    <path
       d="M97.53,114.49a9.64,9.64,0,0,1,3.85-.52,5.72,5.72,0,0,1,3.62,1.54,6.14,6.14,0,0,1,1.12,1.66,5.69,5.69,0,0,1,.58,1.89,5.33,5.33,0,0,1-.87,3.76,5.89,5.89,0,0,0,.51-3.7,6.47,6.47,0,0,0-1.68-3.27,5.09,5.09,0,0,0-1.51-1,7.92,7.92,0,0,0-1.81-.48A12.23,12.23,0,0,0,97.53,114.49Z"
       style="fill:#263238"
       id="path206" />
    <path
       d="M85.83,116.16a9.45,9.45,0,0,0-3,.48,5.9,5.9,0,0,0-2.51,1.59A6,6,0,0,0,79,120.91a10.55,10.55,0,0,0-.19,3.08,7.77,7.77,0,0,1-.17-3.15,5.31,5.31,0,0,1,4.09-4.55A7.29,7.29,0,0,1,85.83,116.16Z"
       style="fill:#263238"
       id="path208" />
    <path
       d="M82.87,128.29a10.94,10.94,0,0,0,2.36-2.65,6.67,6.67,0,0,0,.71-1.59,8,8,0,0,0,.28-1.77,4.43,4.43,0,0,1,.08,1.85,4.88,4.88,0,0,1-.66,1.76,6.11,6.11,0,0,1-1.21,1.42A5.78,5.78,0,0,1,82.87,128.29Z"
       style="fill:#263238"
       id="path210" />
    <path
       d="M85.94,141.23c-1.6.33-3.32-1.36-3.83-3.77s.38-4.66,2-5,3.32,1.35,3.83,3.77S87.54,140.89,85.94,141.23Zm-1.73-8.18c-1.28.27-1.95,2.19-1.51,4.28s1.84,3.58,3.12,3.31,2-2.19,1.5-4.29S85.48,132.78,84.21,133.05Z"
       style="fill:#455a64"
       id="path212" />
    <path
       d="M95.76,139.15a4.49,4.49,0,1,1,3.17-5.25A4.36,4.36,0,0,1,95.76,139.15ZM94,131A3.89,3.89,0,1,0,98.34,134,3.75,3.75,0,0,0,94,131Z"
       style="fill:#455a64"
       id="path214" />
    <path
       d="M90.86,135.19c-2.36-.3-3.2.63-3.21.64l-.46-.39c0-.05,1-1.19,3.74-.84Z"
       style="fill:#455a64"
       id="path216" />
    <path
       d="M98.55,133.58l-.23-.56c.37-.15,6.25-2.61,7.21-2.87s3.69.56,4,.65l-.18.57a11.51,11.51,0,0,0-3.61-.65h0C105,130.93,101.63,132.3,98.55,133.58Z"
       style="fill:#455a64"
       id="path218" />
    <path
       d="M102.37,133s1.36-5.42,3.71-5.09,2.46,7.38.5,9.1a2.48,2.48,0,0,1-3.58-.06Z"
       style="fill:#f7a9a0"
       id="path220" />
    <path
       d="M106.06,129.92a0,0,0,0,1,0,.06c-1.36,1.25-1.63,3.06-1.64,4.82a1.38,1.38,0,0,1,1.78-1.08c.06,0,0,.09,0,.1a1.54,1.54,0,0,0-1.38,1.1,7.39,7.39,0,0,0-.26,1.55c0,.17-.31.19-.32,0v0C103.45,134.41,104,131,106.06,129.92Z"
       style="fill:#263238"
       id="path222" />
    <path
       d="M95.36,155.1s0,0,0,0c.72,2.64,2.57,8.71,6.8,6.88a9.93,9.93,0,0,0,4-3.73,24.64,24.64,0,0,0,2.5-4.73,35.55,35.55,0,0,0,1.91-5.63c0-.08.14,0,.13,0a26.39,26.39,0,0,1-1.48,5.74,21.48,21.48,0,0,1-2.66,5.2,10,10,0,0,1-4.27,3.78,3.71,3.71,0,0,1-4.42-1.26A14.27,14.27,0,0,1,95.36,155.1Z"
       style="fill:#263238"
       id="path224" />
    <path
       d="M137.49,95.44a4,4,0,0,1,1.07-4.58s-3.74-.75-4.4-3.82c-.34-1.59,1.91-3.54,1.91-3.54s-3-.73-3.38-3.5c-.34-2.21,2-3.84,2-3.84s-2.5-2-2.12-4.39c.79-4.79,19.51-9.8,24.2-3.74,2.18,2.82-2.46,3.8-2.46,3.8s7,.19,8.1,4-5,4.7-5,4.7,6.78.25,7.52,4.3c.77,4.22-5.48,4.09-5.48,4.09s4.9,1.68,4.75,4.92c-.25,5.35-10.33,1.4-14.19,3.47l.06,7.17S138.75,98.61,137.49,95.44Z"
       style="fill:#f7a9a0"
       id="path226" />
    <path
       d="M135,75.85c-.06,0-.1-.06-.05-.09a34,34,0,0,1,19.59-4c.22,0,.26.39,0,.4A69.87,69.87,0,0,0,135,75.85Z"
       style="fill:#263238"
       id="path228" />
    <path
       d="M136,83.48c-.07,0-.11-.09,0-.12,6-3.2,14.22-4.89,21.63-3.07.25.06.42.37.12.32C152.66,79.78,141.87,81.36,136,83.48Z"
       style="fill:#263238"
       id="path230" />
    <path
       d="M159.92,89.2c-7.17-1.46-14.12-.49-21.12,1.52-.09,0-.12-.11-.05-.15,3.17-1.91,7.76-2.73,11.38-3.07A19.47,19.47,0,0,1,160,89C160.1,89,160.07,89.23,159.92,89.2Z"
       style="fill:#263238"
       id="path232" />
  </g>
  <g
     id="freepik--paper-plane--inject-114">
    <path
       d="M189.87,281.57v-.75l4-.05v.75Zm-5,0c-1.36,0-2.69,0-4-.06l0-.75q2,0,4,.06Zm14-.16,0-.75,4-.14,0,.75Zm-23,0c-1.35-.06-2.69-.12-4-.2l0-.74,4,.19Zm32-.32,0-.75c1.31-.07,2.64-.14,4-.23l0,.75Zm-41-.21c-1.35-.1-2.68-.22-4-.35l.08-.74c1.3.12,2.62.24,4,.34Zm50-.34-.05-.75,4-.3.06.75Zm-59-.55c-1.35-.16-2.68-.34-4-.53l.11-.74c1.29.19,2.61.36,4,.53Zm67.95-.16-.07-.75,4-.36.07.75Zm9-.84-.07-.75,4-.42.08.75ZM149,278.6c-1.34-.24-2.65-.5-3.94-.76l.15-.74c1.28.27,2.59.52,3.92.76Zm94.78-.64-.08-.75,1-.11,2.94-.37.1.74c-1,.14-2,.26-3,.37Zm8.94-1.21-.12-.74c1.32-.21,2.63-.43,3.95-.67l.13.74C255.34,276.31,254,276.54,252.7,276.75Zm-112.54,0c-1.31-.33-2.61-.68-3.88-1l.21-.72c1.26.36,2.55.71,3.85,1Zm121.42-1.59-.15-.74c1.31-.27,2.61-.55,3.91-.84l.16.73C264.2,274.58,262.89,274.86,261.58,275.13Zm-130.08-.95c-1.29-.44-2.56-.91-3.77-1.38l.27-.7c1.21.47,2.47.93,3.74,1.37Zm138.88-1.05-.18-.72c1.29-.32,2.58-.65,3.86-1l.2.72C273,272.48,271.67,272.81,270.38,273.13Zm-147.27-2.31c-1.23-.57-2.44-1.18-3.59-1.79l.36-.67c1.14.61,2.33,1.21,3.55,1.78Zm156,0-.21-.72,3.82-1.13.22.72Zm8.61-2.63-.23-.72,3.79-1.25.24.71C290.23,267.34,289,267.77,287.69,268.18Zm-172.51-1.69c-1.13-.72-2.25-1.49-3.32-2.27l.45-.61c1,.78,2.16,1.53,3.28,2.25Zm181-1.22-.25-.71c1.26-.45,2.51-.91,3.75-1.37l.27.7C298.74,264.36,297.49,264.81,296.22,265.27Zm8.45-3.17-.28-.7c1.25-.48,2.49-1,3.72-1.48l.28.7C307.16,261.12,305.92,261.61,304.67,262.1Zm-196.72-1c-1-.89-2-1.82-2.93-2.77l.54-.52c.92.94,1.89,1.85,2.88,2.73ZM313,258.71l-.29-.7c1.23-.52,2.46-1,3.67-1.57l.3.68C315.48,257.66,314.25,258.18,313,258.71Zm8.26-3.62-.31-.68,3.63-1.67.32.68Zm-219.59-.51,0,0a23.84,23.84,0,0,1-2.29-3.33l.65-.37a23.76,23.76,0,0,0,2.23,3.24Zm227.76-3.31-.33-.67c1.21-.59,2.41-1.17,3.59-1.76l.34.68Zm8.07-4-.34-.67c1.21-.61,2.39-1.23,3.56-1.84l.34.67C339.92,246,338.73,246.65,337.52,247.27Zm-240-.79a16.36,16.36,0,0,1-.44-3.75v-.31l.75,0v.29a15.43,15.43,0,0,0,.42,3.58Zm248-3.4-.36-.66c1.2-.64,2.37-1.28,3.52-1.91l.36.65C347.88,241.8,346.71,242.44,345.51,243.08Zm7.89-4.36-.37-.65,3.47-2,.38.64C355.76,237.38,354.6,238,353.4,238.72ZM98.61,237.64l-.71-.23a22.32,22.32,0,0,1,1.57-3.73l.66.34A23.1,23.1,0,0,0,98.61,237.64Zm262.59-3.46-.38-.64q1.79-1.06,3.42-2.07l.39.64C363.54,232.78,362.4,233.47,361.2,234.18Zm-258.4-4.31-.6-.45c.77-1,1.65-2.06,2.6-3.09l.55.51C104.42,227.85,103.56,228.87,102.8,229.87Zm266.1-.4-.4-.63c1.22-.77,2.35-1.49,3.38-2.16l.4.63C371.25,228,370.12,228.7,368.9,229.47Zm7.58-4.91-.42-.63c2.16-1.44,3.31-2.26,3.31-2.26l.44.61S378.65,223.1,376.48,224.56Zm-267.59-1.2-.5-.56c1-.87,2-1.74,3.07-2.6l.47.59C110.86,221.64,109.84,222.5,108.89,223.36Zm7-5.55-.44-.62c1.07-.75,2.19-1.5,3.34-2.24l.41.63C118.09,216.32,117,217.06,115.92,217.81Zm7.56-4.82-.37-.65c1.14-.67,2.32-1.32,3.51-2l.35.66C125.79,211.67,124.62,212.33,123.48,213Zm7.94-4.22-.33-.67c1.21-.59,2.43-1.16,3.64-1.7l.3.69C133.83,207.62,132.62,208.19,131.42,208.77Zm8.21-3.62-.27-.69c1.27-.51,2.51-1,3.68-1.37l.25.71C142.13,204.2,140.9,204.65,139.63,205.15Z"
       style="fill:#263238"
       id="path593" />
    <polygon
       points="385.79 203.44 379.59 221.97 393.32 210.65 446.43 189.78 385.79 203.44"
       style="fill:#FFC727"
       id="polygon595" />
    <polygon
       points="385.79 203.44 379.59 221.97 393.32 210.65 446.43 189.78 385.79 203.44"
       style="opacity:0.1"
       id="polygon597" />
    <polygon
       points="395.24 214.87 379.59 221.97 393.32 210.65 395.24 214.87"
       style="fill:#263238"
       id="polygon599" />
    <polygon
       points="393.32 210.65 446.43 189.78 403.59 233.86 393.32 210.65"
       style="fill:#FFC727"
       id="polygon601" />
    <polygon
       points="385.79 203.44 363.12 189.65 446.43 189.78 385.79 203.44"
       style="fill:#FFC727"
       id="polygon603" />
  </g>
</svg>
