<?xml version="1.0" encoding="UTF-8" standalone="no"?>
<svg
   viewBox="0 0 500 500"
   version="1.1"
   id="svg456"
   sodipodi:docname="103.svg"
   inkscape:version="1.1.2 (0a00cf5339, 2022-02-04)"
   xmlns:inkscape="http://www.inkscape.org/namespaces/inkscape"
   xmlns:sodipodi="http://sodipodi.sourceforge.net/DTD/sodipodi-0.dtd"
   xmlns="http://www.w3.org/2000/svg"
   xmlns:svg="http://www.w3.org/2000/svg">
  <defs
     id="defs460" />
  <sodipodi:namedview
     id="namedview458"
     pagecolor="#ffffff"
     bordercolor="#666666"
     borderopacity="1.0"
     inkscape:pageshadow="2"
     inkscape:pageopacity="0.0"
     inkscape:pagecheckerboard="0"
     showgrid="false"
     inkscape:zoom="1.132"
     inkscape:cx="249.5583"
     inkscape:cy="250.4417"
     inkscape:window-width="1478"
     inkscape:window-height="800"
     inkscape:window-x="0"
     inkscape:window-y="0"
     inkscape:window-maximized="1"
     inkscape:current-layer="svg456" />
  <g
     id="freepik--background-complete--inject-11"
     transform="translate(38)"
     style="opacity:0.79568326">
    <path
       d="m 408.11,144.16 10.53,6.53 2,-3.22 a 2.94,2.94 0 0 1 2.77,-1.37 c 0.62,0.05 1.23,0.07 1.85,0.06 a 2.93,2.93 0 0 1 2.68,1.53 l 1.79,3.35 10.92,-5.86 -1.79,-3.34 a 3,3 0 0 1 0.2,-3.08 c 0.35,-0.51 0.68,-1 1,-1.58 a 2.92,2.92 0 0 1 2.67,-1.55 l 3.79,0.12 0.39,-12.39 -3.81,-0.11 a 2.93,2.93 0 0 1 -2.56,-1.73 c -0.13,-0.27 -0.27,-0.54 -0.41,-0.81 -0.14,-0.27 -0.3,-0.54 -0.46,-0.8 a 3,3 0 0 1 0,-3.07 l 2,-3.25 -10.53,-6.53 -2,3.23 a 2.94,2.94 0 0 1 -2.78,1.36 c -0.61,-0.05 -1.22,-0.07 -1.84,-0.06 a 3,3 0 0 1 -2.67,-1.54 l -1.8,-3.34 -10.92,5.86 1.79,3.34 a 3,3 0 0 1 -0.19,3.08 15.09,15.09 0 0 0 -1,1.57 2.94,2.94 0 0 1 -2.68,1.55 l -3.8,-0.11 -0.38,12.38 3.8,0.12 a 3,3 0 0 1 2.56,1.72 c 0.13,0.28 0.26,0.55 0.41,0.83 0.15,0.28 0.29,0.53 0.45,0.79 a 2.94,2.94 0 0 1 0,3.09 z m 7.82,-10.49 a 10.15,10.15 0 1 1 13.74,4.16 10.15,10.15 0 0 1 -13.74,-4.16 z"
       style="fill:#ebebeb"
       id="path2" />
    <path
       d="m 397.81,193.65 4.34,7.52 2.3,-1.33 a 2,2 0 0 1 2.17,0.07 11.27,11.27 0 0 0 1.12,0.65 2,2 0 0 1 1.14,1.83 v 2.66 h 8.69 v -2.66 a 2,2 0 0 1 1.14,-1.83 11.27,11.27 0 0 0 1.12,-0.65 2,2 0 0 1 2.17,-0.07 l 2.3,1.33 4.34,-7.52 -2.31,-1.34 a 2.05,2.05 0 0 1 -1,-1.91 c 0,-0.21 0,-0.43 0,-0.64 0,-0.21 0,-0.43 0,-0.64 a 2.06,2.06 0 0 1 1,-1.91 l 2.32,-1.33 -4.34,-7.52 -2.31,1.33 a 2.05,2.05 0 0 1 -2.16,-0.08 c -0.36,-0.23 -0.74,-0.45 -1.12,-0.65 a 2,2 0 0 1 -1.14,-1.83 v -2.66 h -8.69 v 2.66 a 2,2 0 0 1 -1.14,1.83 c -0.38,0.2 -0.75,0.42 -1.11,0.65 a 2.07,2.07 0 0 1 -2.17,0.08 l -2.31,-1.33 -4.34,7.52 2.31,1.33 a 2.05,2.05 0 0 1 1,1.91 c 0,0.21 0,0.42 0,0.64 0,0.22 0,0.43 0,0.64 a 2.08,2.08 0 0 1 -1,1.92 z m 8.3,-3.89 a 7.12,7.12 0 1 1 7.11,7.12 7.11,7.11 0 0 1 -7.11,-7.12 z"
       style="fill:#ebebeb"
       id="path4" />
    <path
       d="m 51.27,279.62 4.34,7.52 2.3,-1.33 a 2.05,2.05 0 0 1 2.16,0.08 c 0.37,0.23 0.74,0.45 1.13,0.65 a 2.06,2.06 0 0 1 1.14,1.83 V 291 H 71 v -2.66 a 2,2 0 0 1 1.15,-1.83 c 0.38,-0.2 0.76,-0.42 1.12,-0.65 a 2.05,2.05 0 0 1 2.16,-0.08 l 2.31,1.33 4.33,-7.52 -2.31,-1.33 a 2.05,2.05 0 0 1 -1,-1.91 c 0,-0.21 0,-0.43 0,-0.64 0,-0.21 0,-0.43 0,-0.64 a 2.05,2.05 0 0 1 1,-1.91 l 2.31,-1.34 -4.33,-7.52 -2.31,1.33 a 2,2 0 0 1 -2.17,-0.07 11.27,11.27 0 0 0 -1.12,-0.65 2.06,2.06 0 0 1 -1.14,-1.8 v -2.66 h -8.66 v 2.66 a 2.06,2.06 0 0 1 -1.14,1.83 11.27,11.27 0 0 0 -1.12,0.65 2,2 0 0 1 -2.16,0.07 l -2.31,-1.33 -4.34,7.52 2.31,1.34 a 2.08,2.08 0 0 1 1,1.9 c 0,0.22 0,0.43 0,0.65 0,0.22 0,0.43 0,0.64 a 2.06,2.06 0 0 1 -1,1.91 z m 8.3,-3.88 a 7.11,7.11 0 1 1 7.11,7.11 7.11,7.11 0 0 1 -7.11,-7.11 z"
       style="fill:#ebebeb"
       id="path6" />
    <rect
       x="47.540001"
       y="45.299999"
       width="131.75"
       height="202.02"
       style="fill:#ebebeb"
       id="rect8" />
    <rect
       x="54.720001"
       y="53.389999"
       width="55.639999"
       height="89.860001"
       style="fill:#ffffff"
       id="rect10" />
    <rect
       x="116.49"
       y="53.389999"
       width="55.630001"
       height="89.860001"
       style="fill:#ffffff"
       id="rect12" />
    <rect
       x="54.720001"
       y="149.37"
       width="55.639999"
       height="89.860001"
       style="fill:#ffffff"
       id="rect14" />
    <rect
       x="116.49"
       y="149.37"
       width="55.630001"
       height="89.860001"
       style="fill:#ffffff"
       id="rect16" />
    <polygon
       points="54.72,87.08 54.72,67.2 68.54,53.39 88.41,53.39 "
       style="fill:#ebebeb"
       id="polygon18" />
    <polygon
       points="110.36,180.27 110.36,200.13 71.27,239.23 54.72,239.23 54.72,235.91 "
       style="fill:#ebebeb"
       id="polygon20" />
    <polygon
       points="116.48,194.02 116.48,174.15 141.26,149.37 161.13,149.37 "
       style="fill:#ebebeb"
       id="polygon22" />
    <polygon
       points="172.12,138.38 167.25,143.25 147.38,143.25 172.12,118.52 "
       style="fill:#ebebeb"
       id="polygon24" />
    <polygon
       points="172.12,238.28 171.17,239.23 151.31,239.23 172.12,218.41 "
       style="fill:#ebebeb"
       id="polygon26" />
    <polygon
       points="67.84,149.37 54.72,162.49 54.72,152.55 57.91,149.37 "
       style="fill:#ebebeb"
       id="polygon28" />
    <polygon
       points="110.36,96.91 110.36,106.84 73.96,143.25 64.03,143.25 "
       style="fill:#ebebeb"
       id="polygon30" />
    <polygon
       points="116.48,100.72 116.48,90.79 153.89,53.39 163.82,53.39 "
       style="fill:#ebebeb"
       id="polygon32" />
    <polygon
       points="54.72,103.41 54.72,100.92 102.25,53.39 104.74,53.39 "
       style="fill:#ebebeb"
       id="polygon34" />
    <polygon
       points="110.36,214.68 110.36,217.17 88.31,239.23 85.82,239.23 "
       style="fill:#ebebeb"
       id="polygon36" />
    <polygon
       points="172.12,155.41 116.48,211.05 116.48,208.56 172.12,152.94 "
       style="fill:#ebebeb"
       id="polygon38" />
    <rect
       x="208.89"
       y="45.299999"
       width="131.75"
       height="202.02"
       style="fill:#ebebeb"
       id="rect40" />
    <rect
       x="216.07001"
       y="53.389999"
       width="55.639999"
       height="89.860001"
       style="fill:#ffffff"
       id="rect42" />
    <rect
       x="277.82999"
       y="53.389999"
       width="55.630001"
       height="89.860001"
       style="fill:#ffffff"
       id="rect44" />
    <rect
       x="216.07001"
       y="149.37"
       width="55.639999"
       height="89.860001"
       style="fill:#ffffff"
       id="rect46" />
    <rect
       x="277.82999"
       y="149.37"
       width="55.630001"
       height="89.860001"
       style="fill:#ffffff"
       id="rect48" />
    <polygon
       points="216.07,149.37 221.31,149.37 216.07,154.61 "
       style="fill:#ebebeb"
       id="polygon50" />
    <polygon
       points="271.71,79.09 271.71,98.97 227.43,143.25 216.07,143.25 216.07,134.74 "
       style="fill:#ebebeb"
       id="polygon52" />
    <polygon
       points="277.83,92.85 277.83,72.97 297.41,53.39 317.29,53.39 "
       style="fill:#ebebeb"
       id="polygon54" />
    <polygon
       points="333.46,198.42 292.66,239.23 277.83,239.23 277.83,234.18 333.46,178.55 "
       style="fill:#ebebeb"
       id="polygon56" />
    <polygon
       points="271.71,55.23 216.07,110.87 216.07,100.93 263.6,53.39 271.71,53.39 "
       style="fill:#ebebeb"
       id="polygon58" />
    <polygon
       points="271.71,217.15 271.71,227.08 259.56,239.23 249.63,239.23 "
       style="fill:#ebebeb"
       id="polygon60" />
    <polygon
       points="333.46,165.33 277.83,220.96 277.83,211.03 333.46,155.39 "
       style="fill:#ebebeb"
       id="polygon62" />
    <polygon
       points="230.56,149.37 216.07,163.86 216.07,161.38 228.07,149.37 "
       style="fill:#ebebeb"
       id="polygon64" />
    <polygon
       points="271.71,105.73 271.71,108.22 236.68,143.25 234.19,143.25 "
       style="fill:#ebebeb"
       id="polygon66" />
    <polygon
       points="277.83,102.1 277.83,99.61 324.05,53.39 326.54,53.39 "
       style="fill:#ebebeb"
       id="polygon68" />
    <polygon
       points="271.71,181.72 271.71,184.2 216.68,239.23 216.07,239.23 216.07,237.36 "
       style="fill:#ebebeb"
       id="polygon70" />
    <polygon
       points="277.83,178.08 277.83,175.6 304.05,149.37 306.54,149.37 "
       style="fill:#ebebeb"
       id="polygon72" />
    <polygon
       points="333.46,122.45 312.66,143.25 310.17,143.25 333.46,119.96 "
       style="fill:#ebebeb"
       id="polygon74" />
  </g>
  <g
     id="freepik--Floor--inject-11"
     transform="translate(38)"
     style="opacity:0.79568326">
    <polygon
       points="250,403.99 141.7,403.82 87.55,403.74 33.4,403.49 87.55,403.25 141.7,403.16 250,402.99 358.3,403.16 412.45,403.25 466.6,403.49 412.45,403.74 358.3,403.82 "
       style="fill:#263238"
       id="polygon84" />
  </g>
  <g
     id="freepik--Clock--inject-11"
     transform="translate(38)"
     style="opacity:0.79568326">
    <polygon
       points="128.41,427.7 145.15,427.7 176.15,406.58 142.67,389.23 "
       style="fill:#ffc727"
       id="polygon87" />
    <polygon
       points="128.41,427.7 145.15,427.7 176.15,406.58 142.67,389.23 "
       style="opacity:0.1"
       id="polygon89" />
    <polygon
       points="371.59,427.7 354.85,427.7 323.85,406.58 357.33,389.23 "
       style="fill:#ffc727"
       id="polygon91" />
    <polygon
       points="371.59,427.7 354.85,427.7 323.85,406.58 357.33,389.23 "
       style="opacity:0.1"
       id="polygon93" />
    <circle
       cx="250"
       cy="260"
       r="171.05"
       transform="rotate(-45,250.00352,259.99515)"
       style="fill:#ffc727"
       id="circle95" />
    <circle
       cx="247.92"
       cy="257.19"
       r="163.22"
       style="opacity:0.1"
       id="circle97" />
    <circle
       cx="250"
       cy="259.26999"
       r="152.91"
       transform="rotate(-45,250.00503,259.27453)"
       style="fill:#ffffff"
       id="circle99" />
    <path
       d="m 399.42,226.79 c -69.63,42.19 -184.07,111.4 -248,149.34 A 153,153 0 0 1 109.63,319.94 L 321.16,123.88 a 153.06,153.06 0 0 1 78.26,102.91 z"
       style="fill:#ebebeb"
       id="path101" />
    <path
       d="m 402.78,264.58 a 151.57,151.57 0 0 1 -10.11,49.69 L 202,404.46 a 151.37,151.37 0 0 1 -24.09,-10.35 c 57.57,-33.29 162.85,-93.86 224.87,-129.53 z"
       style="fill:#ebebeb"
       id="path103" />
    <rect
       x="248.52"
       y="117.46"
       width="2.95"
       height="23.18"
       style="fill:#c7c7c7"
       id="rect105" />
    <rect
       x="183.41"
       y="134.89999"
       width="2.96"
       height="23.18"
       transform="rotate(-30,184.87181,146.47625)"
       style="fill:#c7c7c7"
       id="rect107" />
    <rect
       x="135.75"
       y="182.57001"
       width="2.95"
       height="23.18"
       transform="rotate(-60,137.20488,194.15417)"
       style="fill:#c7c7c7"
       id="rect109" />
    <rect
       x="108.19"
       y="257.79001"
       width="23.18"
       height="2.95"
       style="fill:#c7c7c7"
       id="rect111" />
    <rect
       x="125.63"
       y="322.89999"
       width="23.18"
       height="2.95"
       transform="rotate(-30,137.23413,324.41177)"
       style="fill:#c7c7c7"
       id="rect113" />
    <rect
       x="173.3"
       y="370.57001"
       width="23.18"
       height="2.96"
       transform="rotate(-60.03,184.9076,372.0564)"
       style="fill:#c7c7c7"
       id="rect115" />
    <rect
       x="248.52"
       y="377.89999"
       width="2.95"
       height="23.18"
       style="fill:#c7c7c7"
       id="rect117" />
    <rect
       x="313.63"
       y="360.45999"
       width="2.96"
       height="23.18"
       transform="rotate(-30,315.09501,372.02945)"
       style="fill:#c7c7c7"
       id="rect119" />
    <rect
       x="361.29999"
       y="312.79001"
       width="2.95"
       height="23.18"
       transform="rotate(-60,362.75254,324.37417)"
       style="fill:#c7c7c7"
       id="rect121" />
    <rect
       x="368.63"
       y="257.79001"
       width="23.18"
       height="2.95"
       style="fill:#c7c7c7"
       id="rect123" />
    <rect
       x="351.19"
       y="192.67999"
       width="23.18"
       height="2.95"
       transform="rotate(-30,362.82965,194.17991)"
       style="fill:#c7c7c7"
       id="rect125" />
    <rect
       x="303.51999"
       y="145.00999"
       width="23.18"
       height="2.96"
       transform="rotate(-60.03,315.13701,146.48888)"
       style="fill:#c7c7c7"
       id="rect127" />
    <polygon
       points="242.35,265.38 242.53,250.88 390.7,257.3 390.66,261.24 "
       style="fill:#ffc727"
       id="polygon129" />
    <polygon
       points="257.44,267.84 242.93,267.65 247.09,154.93 251.02,154.98 "
       style="fill:#263238"
       id="polygon131" />
    <circle
       cx="250"
       cy="259.26999"
       r="4.9499998"
       style="fill:#ffc727"
       id="circle133" />
  </g>
  <g
     id="freepik--Calendar--inject-11"
     transform="translate(38)"
     style="opacity:0.79568326">
    <polygon
       points="97.34,450.19 63.63,310.22 256.52,310.22 290.23,450.19 "
       style="fill:#a6a6a6"
       id="polygon287" />
    <polygon
       points="222.25,450.19 255.96,310.22 63.07,310.22 29.36,450.19 "
       style="fill:#dbdbdb"
       id="polygon289" />
    <polygon
       points="223.69,354.4 223.43,355.5 218.98,374.07 218.72,375.17 214.27,393.72 214,394.82 209.54,413.38 209.28,414.49 204.92,432.67 63.31,432.67 67.67,414.49 67.93,413.38 72.39,394.82 72.66,393.72 77.11,375.17 77.38,374.07 81.83,355.5 82.09,354.4 86.39,336.52 227.99,336.52 "
       style="fill:#ffffff"
       id="polygon291" />
    <polygon
       points="102.83,354.4 102.57,355.5 98.12,374.07 97.86,375.17 93.41,393.72 93.14,394.82 88.69,413.38 88.42,414.49 84.06,432.67 82.93,432.67 87.3,414.49 87.56,413.38 92.01,394.82 92.28,393.72 96.72,375.17 96.99,374.07 101.45,355.5 101.71,354.4 105.99,336.52 107.13,336.52 "
       style="fill:#ebebeb"
       id="polygon293" />
    <polygon
       points="123,354.4 122.74,355.5 118.29,374.07 118.03,375.17 113.58,393.72 113.31,394.82 108.86,413.38 108.59,414.49 104.23,432.67 103.1,432.67 107.47,414.49 107.73,413.38 112.18,394.82 112.45,393.72 116.89,375.17 117.16,374.07 121.62,355.5 121.88,354.4 126.16,336.52 127.3,336.52 "
       style="fill:#ebebeb"
       id="polygon295" />
    <polygon
       points="143.19,354.4 142.92,355.5 138.47,374.07 138.21,375.17 133.76,393.72 133.5,394.82 129.04,413.38 128.77,414.49 124.41,432.67 123.28,432.67 127.65,414.49 127.92,413.38 132.36,394.82 132.63,393.72 137.08,375.17 137.34,374.07 141.8,355.5 142.06,354.4 146.35,336.52 147.48,336.52 "
       style="fill:#ebebeb"
       id="polygon297" />
    <polygon
       points="163.36,354.4 163.09,355.5 158.64,374.07 158.38,375.17 153.93,393.72 153.67,394.82 149.21,413.38 148.94,414.49 144.58,432.67 143.45,432.67 147.82,414.49 148.09,413.38 152.53,394.82 152.8,393.72 157.25,375.17 157.51,374.07 161.97,355.5 162.23,354.4 166.52,336.52 167.65,336.52 "
       style="fill:#ebebeb"
       id="polygon299" />
    <polygon
       points="183.54,354.4 183.27,355.5 178.83,374.07 178.56,375.17 174.11,393.72 173.85,394.82 169.39,413.38 169.13,414.49 164.77,432.67 163.63,432.67 168,414.49 168.27,413.38 172.72,394.82 172.98,393.72 177.43,375.17 177.69,374.07 182.15,355.5 182.41,354.4 186.7,336.52 187.83,336.52 "
       style="fill:#ebebeb"
       id="polygon301" />
    <polygon
       points="203.71,354.4 203.44,355.5 199,374.07 198.73,375.17 194.28,393.72 194.02,394.82 189.56,413.38 189.3,414.49 184.94,432.67 183.8,432.67 188.17,414.49 188.44,413.38 192.89,394.82 193.15,393.72 197.6,375.17 197.86,374.07 202.32,355.5 202.59,354.4 206.87,336.52 208,336.52 "
       style="fill:#ebebeb"
       id="polygon303" />
    <polygon
       points="223.43,355.5 81.83,355.5 82.09,354.4 223.69,354.4 "
       style="fill:#ebebeb"
       id="polygon305" />
    <polygon
       points="218.72,375.17 77.11,375.17 77.38,374.07 218.98,374.07 "
       style="fill:#ebebeb"
       id="polygon307" />
    <polygon
       points="214,394.82 72.39,394.82 72.66,393.72 214.27,393.72 "
       style="fill:#ebebeb"
       id="polygon309" />
    <polygon
       points="209.28,414.49 67.67,414.49 67.93,413.38 209.54,413.38 "
       style="fill:#ebebeb"
       id="polygon311" />
    <rect
       x="103.54"
       y="374.45999"
       width="2.73"
       height="19.620001"
       transform="rotate(-38.92,104.90241,384.26059)"
       style="fill:#c7c7c7"
       id="rect313" />
    <rect
       x="93.220001"
       y="383.04001"
       width="23.08"
       height="2.73"
       transform="rotate(-42.35,104.76078,384.42076)"
       style="fill:#c7c7c7"
       id="rect315" />
    <rect
       x="148.31"
       y="355.32999"
       width="2.73"
       height="19.620001"
       transform="rotate(-38.92,149.66989,365.13925)"
       style="fill:#c7c7c7"
       id="rect317" />
    <rect
       x="137.98"
       y="363.92001"
       width="23.08"
       height="2.73"
       transform="rotate(-42.35,149.52097,365.2871)"
       style="fill:#c7c7c7"
       id="rect319" />
    <polygon
       points="88.52,368.96 100.4,354.63 102.5,356.37 88.1,373.73 82.89,364.62 85.26,363.26 "
       style="fill:#ffc727"
       id="polygon321" />
    <polygon
       points="113.72,426.86 125.6,412.53 127.7,414.27 113.31,431.63 108.1,422.52 110.47,421.16 "
       style="fill:#ffc727"
       id="polygon323" />
    <path
       d="m 185,376 a 32.15,32.15 0 0 0 -6.92,5.12 c -2,2 -3.75,4.43 -4,7.16 a 4.71,4.71 0 0 0 0.92,3.63 6.64,6.64 0 0 0 3.41,1.89 18,18 0 0 0 8.28,-0.21 18.35,18.35 0 0 0 7.51,-3.51 10.29,10.29 0 0 0 2.61,-3.12 6.52,6.52 0 0 0 0.81,-3.8 4.85,4.85 0 0 0 -2.09,-3.2 10.59,10.59 0 0 0 -3.81,-1.65 17.76,17.76 0 0 0 -8.51,0.09 17,17 0 0 1 8.66,-0.8 11.27,11.27 0 0 1 4.2,1.59 6,6 0 0 1 2.68,3.77 7.26,7.26 0 0 1 -0.82,4.58 11.58,11.58 0 0 1 -2.87,3.56 20.35,20.35 0 0 1 -17,4 7.83,7.83 0 0 1 -4,-2.35 4.86,4.86 0 0 1 -1,-2.21 7.72,7.72 0 0 1 0,-2.35 c 0.46,-3.11 2.45,-5.6 4.61,-7.53 A 29.42,29.42 0 0 1 185,376 Z"
       style="fill:#ffc727"
       id="path325" />
    <polygon
       points="87.66,341.5 88.08,339.66 103.12,339.66 102.7,341.5 "
       style="fill:#c7c7c7"
       id="polygon327" />
    <polygon
       points="86.94,344.64 87.36,342.81 96.2,342.81 95.78,344.64 "
       style="fill:#c7c7c7"
       id="polygon329" />
    <polygon
       points="154.68,399.28 155.1,397.45 164.25,397.45 163.83,399.28 "
       style="fill:#c7c7c7"
       id="polygon331" />
    <polygon
       points="153.23,405.69 153.65,403.86 162.81,403.86 162.38,405.69 "
       style="fill:#c7c7c7"
       id="polygon333" />
    <polygon
       points="153.95,402.43 154.38,400.59 168.72,400.59 168.3,402.43 "
       style="fill:#c7c7c7"
       id="polygon335" />
    <polygon
       points="178.38,385.15 178.8,383.31 187.96,383.31 187.53,385.15 "
       style="fill:#c7c7c7"
       id="polygon337" />
    <polygon
       points="177.65,388.29 178.08,386.46 192.42,386.46 192,388.29 "
       style="fill:#c7c7c7"
       id="polygon339" />
    <path
       d="m 64.64,351.21 8.83,-6.6 a 5.37,5.37 0 0 0 2,-3 3.36,3.36 0 0 0 -0.43,-2.68 3.12,3.12 0 0 0 -2.67,-1.32 5,5 0 0 0 -3,1 l -0.92,0.69 a 0.51,0.51 0 0 1 -0.76,0 0.55,0.55 0 0 1 0.2,-0.76 l 0.92,-0.72 a 6.52,6.52 0 0 1 3.77,-1.32 3.88,3.88 0 0 1 3.42,1.7 4.21,4.21 0 0 1 0.55,3.42 6.83,6.83 0 0 1 -2.55,3.8 l -7.56,5.65 h 7.39 a 0.43,0.43 0 0 1 0.41,0.56 0.73,0.73 0 0 1 -0.66,0.54 h -8.79 a 0.4,0.4 0 0 1 -0.36,-0.16 0.62,0.62 0 0 1 0.21,-0.8 z"
       style="fill:#a6a6a6"
       id="path341" />
    <path
       d="m 60.27,371.18 a 12.61,12.61 0 0 1 2.73,-5.47 6.4,6.4 0 0 1 4.46,-2.35 3.65,3.65 0 0 1 3.36,2.35 9,9 0 0 1 0.26,5.47 12.55,12.55 0 0 1 -2.78,5.45 6.36,6.36 0 0 1 -4.43,2.37 3.64,3.64 0 0 1 -3.36,-2.37 8.87,8.87 0 0 1 -0.24,-5.45 z m 1.1,0 a 8,8 0 0 0 0.19,4.85 2.83,2.83 0 0 0 2.57,1.88 5,5 0 0 0 3.42,-1.91 11.21,11.21 0 0 0 2.45,-4.82 8,8 0 0 0 -0.23,-4.85 2.76,2.76 0 0 0 -2.56,-1.88 4.84,4.84 0 0 0 -3.43,1.88 11.16,11.16 0 0 0 -2.41,4.85 z"
       style="fill:#a6a6a6"
       id="path343" />
    <path
       d="m 52.25,404.88 8.83,-6.6 a 5.37,5.37 0 0 0 2,-3 3.36,3.36 0 0 0 -0.43,-2.68 3.13,3.13 0 0 0 -2.65,-1.31 5,5 0 0 0 -3,1 l -0.92,0.69 a 0.51,0.51 0 0 1 -0.76,0 0.55,0.55 0 0 1 0.2,-0.76 l 0.92,-0.72 a 6.52,6.52 0 0 1 3.77,-1.32 3.88,3.88 0 0 1 3.37,1.68 4.21,4.21 0 0 1 0.55,3.42 6.83,6.83 0 0 1 -2.55,3.8 l -7.57,5.65 h 7.4 a 0.43,0.43 0 0 1 0.41,0.56 0.73,0.73 0 0 1 -0.66,0.54 H 52.4 a 0.4,0.4 0 0 1 -0.36,-0.16 0.62,0.62 0 0 1 0.21,-0.79 z"
       style="fill:#a6a6a6"
       id="path345" />
    <path
       d="m 47.88,424.85 a 12.61,12.61 0 0 1 2.76,-5.47 6.4,6.4 0 0 1 4.46,-2.38 3.65,3.65 0 0 1 3.36,2.35 9.08,9.08 0 0 1 0.26,5.47 12.66,12.66 0 0 1 -2.78,5.45 6.36,6.36 0 0 1 -4.46,2.37 3.63,3.63 0 0 1 -3.36,-2.37 8.87,8.87 0 0 1 -0.24,-5.42 z m 1.1,0 a 8,8 0 0 0 0.19,4.85 2.85,2.85 0 0 0 2.57,1.88 5,5 0 0 0 3.42,-1.88 11.09,11.09 0 0 0 2.46,-4.85 A 7.88,7.88 0 0 0 57.4,420 2.76,2.76 0 0 0 54.84,418.12 4.84,4.84 0 0 0 51.41,420 11.16,11.16 0 0 0 49,424.85 Z"
       style="fill:#a6a6a6"
       id="path347" />
    <path
       d="m 230.46,332.73 c 0,0 -4.28,18.55 -6.09,26.41 C 222.56,367 215.1,372 215.1,372 h -40.85 c 0,0 7.27,-8.65 8.75,-15.07 l 5.59,-24.2 z"
       style="fill:#ffc727"
       id="path349" />
    <path
       d="m 194.45,346.26 -2.14,2.25 a 0.24,0.24 0 0 1 -0.16,0.08 v 0 a 0.13,0.13 0 0 1 -0.13,-0.08 l -1.1,-2.24 -1,4.15 a 0.23,0.23 0 0 1 -0.21,0.17 0.13,0.13 0 0 1 -0.14,-0.17 l 1.08,-4.68 a 0.21,0.21 0 0 1 0.1,-0.14 v 0 a 0.16,0.16 0 0 1 0.23,0 l 1.23,2.49 2.36,-2.49 a 0.2,0.2 0 0 1 0.26,0 0.13,0.13 0 0 1 0,0.06 0.27,0.27 0 0 1 0,0.09 l -1.08,4.68 a 0.23,0.23 0 0 1 -0.21,0.17 0.13,0.13 0 0 1 -0.13,-0.17 z"
       id="path351" />
    <path
       d="m 196.41,345.71 a 0.24,0.24 0 0 1 0.22,-0.17 h 2.6 a 0.13,0.13 0 0 1 0.13,0.17 0.23,0.23 0 0 1 -0.22,0.18 h -2.42 l -0.46,2 h 2.12 a 0.14,0.14 0 0 1 0.13,0.18 0.23,0.23 0 0 1 -0.21,0.18 h -2.12 l -0.46,2 h 2.42 a 0.13,0.13 0 0 1 0.13,0.18 0.22,0.22 0 0 1 -0.21,0.17 h -2.62 a 0.13,0.13 0 0 1 -0.12,-0.17 z"
       id="path353" />
    <path
       d="m 200.7,345.71 a 0.23,0.23 0 0 1 0.21,-0.17 h 2.6 a 0.14,0.14 0 0 1 0.14,0.17 0.24,0.24 0 0 1 -0.22,0.18 H 201 l -0.46,2 h 2.12 a 0.14,0.14 0 0 1 0.13,0.18 0.23,0.23 0 0 1 -0.22,0.18 h -2.11 l -0.46,2 h 2.42 c 0.1,0 0.15,0.08 0.13,0.18 a 0.23,0.23 0 0 1 -0.22,0.17 h -2.61 a 0.13,0.13 0 0 1 -0.12,-0.17 z"
       id="path355" />
    <path
       d="m 206.25,345.89 h -1.52 a 0.14,0.14 0 0 1 -0.14,-0.18 0.25,0.25 0 0 1 0.22,-0.17 h 3.39 a 0.14,0.14 0 0 1 0.14,0.17 0.24,0.24 0 0 1 -0.22,0.18 h -1.52 l -1,4.53 a 0.23,0.23 0 0 1 -0.21,0.17 0.14,0.14 0 0 1 -0.14,-0.17 z"
       id="path357" />
    <path
       d="m 209.72,345.71 a 0.23,0.23 0 0 1 0.21,-0.17 0.14,0.14 0 0 1 0.14,0.17 l -1.07,4.71 a 0.25,0.25 0 0 1 -0.23,0.17 0.13,0.13 0 0 1 -0.13,-0.17 z"
       id="path359" />
    <path
       d="m 212.11,346.28 -1,4.14 a 0.23,0.23 0 0 1 -0.21,0.17 0.13,0.13 0 0 1 -0.13,-0.17 l 1.07,-4.64 a 0.2,0.2 0 0 1 0.11,-0.19 c 0.09,0 0.2,0 0.23,0 l 2.09,4.25 0.95,-4.12 a 0.23,0.23 0 0 1 0.21,-0.17 0.14,0.14 0 0 1 0.14,0.17 l -1.08,4.66 a 0.24,0.24 0 0 1 -0.22,0.17 0.14,0.14 0 0 1 -0.12,-0.06 v 0 z"
       id="path361" />
    <path
       d="m 218.84,348.32 a 0.13,0.13 0 0 1 -0.14,-0.17 0.23,0.23 0 0 1 0.23,-0.18 h 1.58 a 0.13,0.13 0 0 1 0.11,0.18 l -0.4,1.73 v 0 a 0.26,0.26 0 0 1 -0.1,0.13 3.21,3.21 0 0 1 -1.76,0.55 2,2 0 0 1 -2,-2.57 3.44,3.44 0 0 1 3.22,-2.55 2.09,2.09 0 0 1 1.5,0.57 0.17,0.17 0 0 1 0,0.24 0.2,0.2 0 0 1 -0.26,0 1.81,1.81 0 0 0 -1.3,-0.49 3,3 0 0 0 -2.78,2.2 1.73,1.73 0 0 0 1.76,2.22 2.81,2.81 0 0 0 1.44,-0.43 l 0.34,-1.49 z"
       id="path363" />
    <path
       d="m 187.68,354.72 -0.81,0.42 a 0.19,0.19 0 0 1 -0.1,0 0.13,0.13 0 0 1 -0.13,-0.08 0.19,0.19 0 0 1 0.12,-0.24 l 1.11,-0.6 a 0.17,0.17 0 0 1 0.23,0.07 0.2,0.2 0 0 1 0,0.13 l -1.1,4.67 a 0.24,0.24 0 0 1 -0.22,0.18 0.14,0.14 0 0 1 -0.13,-0.18 z"
       id="path365" />
    <path
       d="m 192.38,354.53 -1.62,1.34 a 1.3,1.3 0 0 1 0.76,0.47 1.45,1.45 0 0 1 0.22,1.21 2.33,2.33 0 0 1 -2.12,1.72 1.34,1.34 0 0 1 -1.09,-0.51 c -0.06,-0.06 0,-0.18 0.06,-0.25 a 0.17,0.17 0 0 1 0.25,0 1.08,1.08 0 0 0 0.87,0.39 1.73,1.73 0 0 0 1,-0.39 1.76,1.76 0 0 0 0.62,-1 1.09,1.09 0 0 0 -0.18,-0.95 1,1 0 0 0 -0.86,-0.4 0.16,0.16 0 0 1 -0.13,-0.07 v 0 a 0.2,0.2 0 0 1 0.06,-0.26 l 1.56,-1.3 h -1.94 a 0.14,0.14 0 0 1 -0.14,-0.18 0.25,0.25 0 0 1 0.23,-0.18 h 2.36 a 0.14,0.14 0 0 1 0.14,0.18 0.2,0.2 0 0 1 0,0.08 z"
       id="path367" />
    <path
       d="m 194.92,355.9 a 0.25,0.25 0 0 1 -0.21,0.18 h -0.46 l -0.59,2.57 a 0.21,0.21 0 0 0 0.2,0.26 0.15,0.15 0 0 1 0.14,0.18 0.27,0.27 0 0 1 -0.22,0.18 0.47,0.47 0 0 1 -0.48,-0.62 l 0.59,-2.57 h -0.44 c -0.17,0 -0.15,-0.09 -0.13,-0.18 a 0.18,0.18 0 0 1 0.21,-0.17 H 194 l 0.31,-1.32 a 0.25,0.25 0 0 1 0.21,-0.17 0.15,0.15 0 0 1 0.15,0.17 l -0.31,1.32 h 0.46 a 0.14,0.14 0 0 1 0.1,0.17 z"
       id="path369" />
    <path
       d="m 198.75,357.12 a 0.81,0.81 0 0 0 -0.88,-1 1.39,1.39 0 0 0 -1.36,1 l -0.46,2 v 0 0 c 0,0 0,0 0,0 a 0.18,0.18 0 0 1 -0.13,0.09 v 0 a 0.13,0.13 0 0 1 -0.12,-0.06 0.14,0.14 0 0 1 0,-0.06 0.15,0.15 0 0 1 0,-0.06 l 0.45,-2 v -0.06 l 0.61,-2.68 a 0.25,0.25 0 0 1 0.22,-0.17 0.14,0.14 0 0 1 0.14,0.17 l -0.43,1.87 a 1.85,1.85 0 0 1 1.24,-0.52 1.09,1.09 0 0 1 1.16,1.39 l -0.46,2 a 0.23,0.23 0 0 1 -0.22,0.18 0.14,0.14 0 0 1 -0.13,-0.18 z"
       id="path371" />
    <path
       d="m 200.47,356.75 a 0.17,0.17 0 0 1 0.17,-0.13 h 1.54 a 0.11,0.11 0 0 1 0.11,0.13 0.19,0.19 0 0 1 -0.17,0.15 h -1.54 a 0.11,0.11 0 0 1 -0.11,-0.15 z"
       id="path373" />
    <path
       d="m 204.42,354.72 -0.81,0.42 a 0.19,0.19 0 0 1 -0.1,0 0.13,0.13 0 0 1 -0.13,-0.08 0.19,0.19 0 0 1 0.12,-0.24 l 1.11,-0.6 a 0.17,0.17 0 0 1 0.23,0.07 0.29,0.29 0 0 1 0,0.13 l -1.07,4.64 a 0.24,0.24 0 0 1 -0.22,0.18 0.14,0.14 0 0 1 -0.13,-0.18 z"
       id="path375" />
    <path
       d="m 205.62,356.74 a 4.17,4.17 0 0 1 0.89,-1.77 2.08,2.08 0 0 1 1.44,-0.76 1.17,1.17 0 0 1 1.05,0.79 3,3 0 0 1 0.09,1.77 4.09,4.09 0 0 1 -0.9,1.76 2.06,2.06 0 0 1 -1.44,0.77 1.16,1.16 0 0 1 -1.09,-0.77 2.92,2.92 0 0 1 -0.04,-1.79 z m 0.36,0 a 2.54,2.54 0 0 0 0.06,1.57 0.91,0.91 0 0 0 0.83,0.6 1.63,1.63 0 0 0 1.11,-0.6 3.59,3.59 0 0 0 0.79,-1.57 2.53,2.53 0 0 0 -0.07,-1.57 0.89,0.89 0 0 0 -0.83,-0.6 1.56,1.56 0 0 0 -1.11,0.6 3.57,3.57 0 0 0 -0.76,1.57 z"
       id="path377" />
    <path
       d="m 213.52,358 h -2.3 l -0.73,1.19 a 0.24,0.24 0 0 1 -0.19,0.12 h -0.06 a 0.15,0.15 0 0 1 -0.05,-0.23 l 2.84,-4.69 a 0.26,0.26 0 0 1 0.2,-0.11 c 0.07,0 0.14,0 0.14,0.11 l 0.68,4.69 a 0.25,0.25 0 0 1 -0.15,0.23 h -0.07 a 0.16,0.16 0 0 1 -0.14,-0.12 z m -2.09,-0.35 h 2 l -0.39,-2.72 z"
       id="path379" />
    <path
       d="m 220,354.93 -2.13,2.25 a 0.22,0.22 0 0 1 -0.17,0.08 v 0 c -0.07,0 -0.11,0 -0.13,-0.08 l -1.11,-2.24 -0.95,4.15 a 0.24,0.24 0 0 1 -0.22,0.18 0.14,0.14 0 0 1 -0.14,-0.18 l 1.08,-4.68 a 0.28,0.28 0 0 1 0.11,-0.13 v 0 a 0.17,0.17 0 0 1 0.24,0.05 l 1.22,2.49 2.37,-2.49 a 0.19,0.19 0 0 1 0.25,-0.05 0.21,0.21 0 0 1 0,0.06 0.14,0.14 0 0 1 0,0.09 l -1.08,4.68 a 0.23,0.23 0 0 1 -0.21,0.18 0.14,0.14 0 0 1 -0.14,-0.18 z"
       id="path381" />
    <path
       d="M 69.1,319.78 A 5.08,5.08 0 0 1 65.38,318 c -1,-1.15 -2.41,-3.79 -1,-8.58 1.33,-4.39 4.52,-6.2 7,-5.73 1.9,0.36 4,2.29 3.63,6.54 a 1.18,1.18 0 0 1 -1.3,1.1 1.22,1.22 0 0 1 -1.1,-1.31 c 0.19,-2.21 -0.46,-3.73 -1.68,-4 -1.38,-0.26 -3.34,1.07 -4.24,4.06 -0.82,2.73 -0.65,5 0.49,6.31 a 2.52,2.52 0 0 0 2.05,1 1.21,1.21 0 1 1 0.33,2.39 4,4 0 0 1 -0.46,0 z"
       style="fill:#a6a6a6"
       id="path383" />
    <path
       d="M 84,319.78 A 5.06,5.06 0 0 1 80.24,318 c -1,-1.15 -2.41,-3.79 -1,-8.58 1.32,-4.39 4.52,-6.2 7,-5.73 1.9,0.36 4,2.29 3.63,6.54 a 1.19,1.19 0 0 1 -1.3,1.1 A 1.22,1.22 0 0 1 87.5,310 c 0.19,-2.21 -0.46,-3.73 -1.68,-4 -1.39,-0.26 -3.34,1.07 -4.24,4.06 -0.83,2.73 -0.65,5 0.49,6.31 a 2.52,2.52 0 0 0 2.05,1 1.21,1.21 0 1 1 0.33,2.39 4.07,4.07 0 0 1 -0.45,0.02 z"
       style="fill:#a6a6a6"
       id="path385" />
    <path
       d="M 98.81,319.78 A 5.06,5.06 0 0 1 95.1,318 c -1,-1.15 -2.41,-3.79 -1,-8.58 1.32,-4.39 4.52,-6.2 7,-5.73 1.9,0.36 4,2.29 3.63,6.54 a 1.19,1.19 0 0 1 -1.3,1.1 1.21,1.21 0 0 1 -1.1,-1.31 c 0.19,-2.21 -0.46,-3.73 -1.69,-4 -1.23,-0.27 -3.33,1.07 -4.23,4.06 -0.83,2.73 -0.65,5 0.49,6.31 a 2.52,2.52 0 0 0 2,1 1.21,1.21 0 1 1 0.33,2.39 4.07,4.07 0 0 1 -0.42,0 z"
       style="fill:#a6a6a6"
       id="path387" />
    <path
       d="M 113.67,319.78 A 5,5 0 0 1 110,318 c -1,-1.15 -2.42,-3.79 -1,-8.58 1.32,-4.39 4.52,-6.2 7,-5.73 1.9,0.36 4,2.29 3.64,6.54 a 1.204585,1.204585 0 1 1 -2.4,-0.21 c 0.18,-2.21 -0.46,-3.73 -1.69,-4 -1.23,-0.27 -3.33,1.07 -4.23,4.06 -0.83,2.73 -0.65,5 0.49,6.31 a 2.51,2.51 0 0 0 2,1 1.21,1.21 0 1 1 0.33,2.39 4.19,4.19 0 0 1 -0.47,0 z"
       style="fill:#a6a6a6"
       id="path389" />
    <path
       d="m 128.53,319.78 a 5.08,5.08 0 0 1 -3.72,-1.83 c -1,-1.15 -2.41,-3.79 -1,-8.58 1.32,-4.39 4.52,-6.2 7,-5.73 1.9,0.36 4,2.29 3.64,6.54 a 1.204585,1.204585 0 1 1 -2.4,-0.21 c 0.18,-2.21 -0.46,-3.73 -1.69,-4 -1.23,-0.27 -3.33,1.07 -4.23,4.06 -0.83,2.73 -0.66,5 0.49,6.31 a 2.5,2.5 0 0 0 2,1 1.21,1.21 0 1 1 0.33,2.39 4.19,4.19 0 0 1 -0.42,0.05 z"
       style="fill:#a6a6a6"
       id="path391" />
    <path
       d="m 143.39,319.78 a 5.08,5.08 0 0 1 -3.72,-1.83 c -1,-1.15 -2.41,-3.79 -1,-8.58 1.32,-4.39 4.52,-6.2 7,-5.73 1.9,0.36 4,2.29 3.64,6.54 a 1.2,1.2 0 0 1 -1.31,1.1 1.22,1.22 0 0 1 -1.1,-1.31 c 0.19,-2.21 -0.45,-3.73 -1.68,-4 -1.38,-0.26 -3.34,1.07 -4.24,4.06 -0.82,2.73 -0.65,5 0.49,6.31 a 2.53,2.53 0 0 0 2.05,1 1.21,1.21 0 0 1 0.33,2.39 3.91,3.91 0 0 1 -0.46,0.05 z"
       style="fill:#a6a6a6"
       id="path393" />
    <path
       d="m 158.25,319.78 a 5.08,5.08 0 0 1 -3.72,-1.83 c -1,-1.15 -2.41,-3.79 -1,-8.58 1.33,-4.39 4.53,-6.2 7,-5.73 1.9,0.36 4,2.29 3.64,6.54 a 1.2,1.2 0 0 1 -1.31,1.1 1.22,1.22 0 0 1 -1.1,-1.31 c 0.19,-2.21 -0.46,-3.73 -1.68,-4 -1.38,-0.26 -3.34,1.07 -4.24,4.06 -0.82,2.73 -0.65,5 0.49,6.31 a 2.52,2.52 0 0 0 2,1 1.21,1.21 0 1 1 0.33,2.39 4,4 0 0 1 -0.41,0.05 z"
       style="fill:#a6a6a6"
       id="path395" />
    <path
       d="m 173.11,319.78 a 5.08,5.08 0 0 1 -3.72,-1.83 c -1,-1.15 -2.41,-3.79 -1,-8.58 1.33,-4.39 4.52,-6.2 7,-5.73 1.9,0.36 4,2.29 3.63,6.54 a 1.18,1.18 0 0 1 -1.3,1.1 1.22,1.22 0 0 1 -1.1,-1.31 c 0.19,-2.21 -0.46,-3.73 -1.68,-4 -1.38,-0.26 -3.34,1.07 -4.24,4.06 -0.82,2.73 -0.65,5 0.49,6.31 a 2.52,2.52 0 0 0 2.05,1 1.21,1.21 0 0 1 0.33,2.39 4,4 0 0 1 -0.46,0.05 z"
       style="fill:#a6a6a6"
       id="path397" />
    <path
       d="m 188,319.78 a 5.06,5.06 0 0 1 -3.71,-1.83 c -1,-1.15 -2.41,-3.79 -1,-8.58 1.32,-4.39 4.52,-6.2 7,-5.73 1.9,0.36 4,2.29 3.63,6.54 a 1.19,1.19 0 0 1 -1.3,1.1 1.21,1.21 0 0 1 -1.1,-1.31 c 0.19,-2.21 -0.46,-3.73 -1.69,-4 -1.23,-0.27 -3.33,1.07 -4.23,4.06 -0.83,2.73 -0.65,5 0.49,6.31 a 2.52,2.52 0 0 0 2,1 1.21,1.21 0 1 1 0.33,2.39 4.07,4.07 0 0 1 -0.42,0.05 z"
       style="fill:#a6a6a6"
       id="path399" />
    <path
       d="m 202.82,319.78 a 5,5 0 0 1 -3.71,-1.83 c -1,-1.15 -2.42,-3.79 -1,-8.58 1.32,-4.39 4.52,-6.2 7,-5.73 1.91,0.36 4,2.29 3.64,6.54 a 1.19,1.19 0 0 1 -1.3,1.1 1.21,1.21 0 0 1 -1.1,-1.31 c 0.18,-2.21 -0.46,-3.73 -1.69,-4 -1.38,-0.26 -3.33,1.07 -4.23,4.06 -0.83,2.73 -0.65,5 0.49,6.31 a 2.52,2.52 0 0 0 2.05,1 1.21,1.21 0 0 1 0.33,2.39 4.07,4.07 0 0 1 -0.48,0.05 z"
       style="fill:#a6a6a6"
       id="path401" />
    <path
       d="M 217.68,319.78 A 5.08,5.08 0 0 1 214,318 c -1,-1.15 -2.41,-3.79 -1,-8.58 1.32,-4.39 4.52,-6.2 7,-5.73 1.9,0.36 4,2.29 3.64,6.54 a 1.19,1.19 0 0 1 -1.3,1.1 1.2,1.2 0 0 1 -1.1,-1.31 c 0.18,-2.21 -0.46,-3.73 -1.69,-4 -1.23,-0.27 -3.33,1.07 -4.23,4.06 -0.83,2.73 -0.65,5 0.49,6.31 a 2.51,2.51 0 0 0 2,1 1.21,1.21 0 1 1 0.33,2.39 4.19,4.19 0 0 1 -0.46,0 z"
       style="fill:#a6a6a6"
       id="path403" />
    <path
       d="m 232.54,319.78 a 5.08,5.08 0 0 1 -3.72,-1.83 c -1,-1.15 -2.41,-3.79 -1,-8.58 1.32,-4.39 4.52,-6.2 7,-5.73 1.9,0.36 4,2.29 3.64,6.54 a 1.204585,1.204585 0 1 1 -2.4,-0.21 c 0.18,-2.21 -0.46,-3.73 -1.69,-4 -1.38,-0.26 -3.33,1.07 -4.24,4.06 -0.82,2.73 -0.65,5 0.49,6.31 a 2.52,2.52 0 0 0 2,1 1.21,1.21 0 0 1 0.34,2.39 4.19,4.19 0 0 1 -0.42,0.05 z"
       style="fill:#a6a6a6"
       id="path405" />
    <path
       d="m 247.4,319.78 a 5.08,5.08 0 0 1 -3.72,-1.83 c -1,-1.15 -2.41,-3.79 -1,-8.58 1.32,-4.39 4.52,-6.2 7,-5.73 1.9,0.36 4,2.29 3.64,6.54 a 1.2,1.2 0 0 1 -1.31,1.1 1.22,1.22 0 0 1 -1.1,-1.31 c 0.19,-2.21 -0.46,-3.73 -1.68,-4 -1.38,-0.26 -3.33,1.07 -4.24,4.06 -0.82,2.73 -0.65,5 0.49,6.31 a 2.52,2.52 0 0 0 2.05,1 1.21,1.21 0 0 1 0.33,2.39 3.91,3.91 0 0 1 -0.46,0.05 z"
       style="fill:#a6a6a6"
       id="path407" />
  </g>
  <g
     id="freepik--Plant--inject-11"
     transform="translate(38)"
     style="opacity:0.79568326">
    <path
       d="m 414.77,330.26 a 78.59,78.59 0 0 1 1.81,-12.76 28.4,28.4 0 0 1 4.56,-10.76 13.69,13.69 0 0 1 8.94,-5.57 c 3.5,-0.43 6.78,1.13 9.4,3.34 3.25,2.73 5.73,6.35 8.06,9.85 a 119.36,119.36 0 0 1 7,12.19 0.12,0.12 0 0 1 -0.21,0.11 75.19,75.19 0 0 0 -6.22,-10.19 63.46,63.46 0 0 0 -7.17,-8.68 c -2.4,-2.35 -5.46,-4.54 -8.94,-4.65 a 11,11 0 0 0 -8.74,4.5 c -2.34,3 -3.52,6.71 -4.41,10.35 A 76.4,76.4 0 0 0 417,330.14 c -0.69,8.4 -0.87,16.86 -1.06,25.29 q -0.16,7.15 -0.22,14.31 l -0.06,7.25 a 44.05,44.05 0 0 1 -0.28,7 0.48,0.48 0 0 1 -0.92,0 40.75,40.75 0 0 1 -0.32,-6.63 q -0.06,-3.43 -0.09,-6.87 -0.06,-6.68 -0.05,-13.36 c 0.05,-8.97 0.16,-17.95 0.77,-26.87 z"
       style="fill:#263238"
       id="path410" />
    <path
       d="m 426.78,323.93 c 0.45,-2.38 1.25,-5.48 2.6,-7.32 2.44,-3.31 5.06,-1.87 2.63,1.79 a 21.89,21.89 0 0 0 -3.41,9 c 0,0 4.09,5.84 9,8.72 -0.21,-2.25 -0.85,-5.7 -0.41,-9 0.95,-7.21 5.31,-6.81 4.23,-1.07 a 49.62,49.62 0 0 0 -1,11.59 24.54,24.54 0 0 0 5.27,2.59 c -0.28,-0.84 -0.58,-1.84 -0.91,-3.06 -1.76,-6.47 2.56,-8.49 2.7,-4.85 a 50.09,50.09 0 0 0 1.68,9.18 c 2.37,0.8 4.33,1.34 5.53,1.76 a 20.13,20.13 0 0 1 8.09,5.53 25.43,25.43 0 0 0 5.52,-7.13 c -1.51,-1.3 -3.89,-3.23 -7.2,-5.57 -6.21,-4.38 -4,-9.91 0.87,-6.47 3.55,2.48 6.3,7.08 7.55,9.44 a 38.13,38.13 0 0 0 2.82,-12.92 c -4.88,-4.57 -16.93,-10.95 -13.3,-10.95 3.27,0 10.59,4.79 13.27,6.64 a 34.41,34.41 0 0 0 -0.41,-3.75 c -4.59,-3 -19.51,-7.69 -17.13,-9 2.61,-1.47 13,3.34 16.16,4.87 a 18.73,18.73 0 0 0 -2.75,-5.71 c -6.35,-8.49 -17.78,-11.42 -22.77,-9.8 -3.53,1.14 -2.5,10.1 -3.26,9.8 -14.15,-5.75 -20.59,-1.72 -15.37,15.69 z m 34.77,-1 c 1,-1.21 5.66,2.36 4.32,4.32 -1.34,1.96 -5.62,-2.75 -4.32,-4.31 z m -24.32,-7.64 c 1.22,0.78 -0.59,5.31 -2.48,3.94 -1.6,-1.16 1.25,-4.71 2.48,-3.93 z"
       style="fill:#ffc727"
       id="path412" />
    <path
       d="m 439.08,316.69 c 0.64,-1.27 1.31,-2.52 2,-3.74 a 22.12,22.12 0 0 1 2.35,-3.4 l -0.61,-0.75 c -0.08,-0.1 0.06,-0.24 0.15,-0.14 0.24,0.27 0.46,0.55 0.69,0.83 a 0.18,0.18 0 0 1 0.1,0.11 c 0.88,1 1.7,2.13 2.49,3.24 a 36.61,36.61 0 0 1 4.12,1.19 c 1.39,0.47 2.77,1 4.12,1.52 0.15,0.06 0.08,0.3 -0.07,0.23 -1.33,-0.59 -2.69,-1.16 -4.08,-1.63 -1.39,-0.47 -2.65,-0.79 -4,-1.16 0.43,0.61 0.85,1.22 1.26,1.85 a 49.08,49.08 0 0 1 7.29,3 c 2.46,1.17 4.83,2.53 7.19,3.89 0.13,0.08 0,0.29 -0.13,0.21 a 79.22,79.22 0 0 0 -7.15,-3.7 c -2.28,-1.07 -4.64,-1.95 -6.94,-3 5.79,9 9.26,19.48 13.91,29.13 0.07,0.14 -0.15,0.26 -0.21,0.12 -1.42,-3.39 -3.05,-6.69 -4.6,-10 -1.38,-3 -2.74,-6 -4.13,-9 -0.4,-0.87 -0.82,-1.75 -1.24,-2.62 0.25,4.83 0.15,9.74 0.94,14.51 a 0.12,0.12 0 1 1 -0.24,0 c -0.33,-5.16 -1.24,-10.24 -1.21,-15.43 0,0 0,0 0,-0.07 q -1.47,-3 -3.16,-5.81 c -1.92,4.52 -3.94,9.11 -4.83,14 0,0.15 -0.27,0.08 -0.23,-0.07 1.3,-4.86 2.51,-9.73 4.86,-14.23 a 55.49,55.49 0 0 0 -4.08,-5.88 c -0.65,1.2 -1.47,2.34 -2.2,3.48 -0.73,1.14 -1.42,2.25 -2.08,3.41 a 48.32,48.32 0 0 0 -3.63,7.66 c -0.05,0.14 -0.29,0.07 -0.23,-0.07 1.2,-2.6 2.32,-5.18 3.58,-7.68 z"
       style="fill:#263238"
       id="path414" />
    <path
       d="m 397.85,330.69 c 3.19,-4.19 6.82,-9.61 12.52,-10.37 5.5,-0.73 10.13,3.16 13.07,7.41 3.07,4.45 4.67,9.74 6.06,14.9 a 187.91,187.91 0 0 1 4,18.79 c 0.58,3.51 1,7 1.42,10.57 a 70.74,70.74 0 0 1 0.63,10.78 c 0,0.58 -0.94,0.73 -1.06,0.12 -0.56,-2.95 -0.84,-5.95 -1.22,-8.92 -0.38,-2.97 -0.82,-5.84 -1.32,-8.75 -1,-5.89 -2.23,-11.73 -3.71,-17.51 -1.3,-5.06 -2.49,-10.27 -4.69,-15 -2,-4.29 -5.27,-9.05 -10.06,-10.41 -6.55,-1.85 -11.94,3.86 -15.43,8.54 -0.06,0.1 -0.3,-0.03 -0.21,-0.15 z"
       style="fill:#263238"
       id="path416" />
    <path
       d="m 377.37,337 v 0 c 0,0.76 0,1.52 0,2.26 a 13.27,13.27 0 0 1 6.2,-2.23 c 5.3,-0.31 4.77,3.68 1.24,3.68 a 20.14,20.14 0 0 0 -7.3,1.1 c 0.53,7 2.18,12.69 2.46,12.78 a 102.86,102.86 0 0 0 14,-1.1 c -1.18,-2.85 -4,-6.71 -2.45,-6.93 1.55,-0.22 3,3.15 3.71,6.74 a 67.17,67.17 0 0 0 10.29,-2.3 c -2.22,-2.11 -5.68,-4.78 -4.26,-5.78 1.42,-1 4.09,2.65 5.67,5.29 a 20.52,20.52 0 0 0 4.5,-2.23 c -2.91,-4.74 -10.47,-6 -9.32,-9.31 1.15,-3.31 8.05,1.67 11,8 3.94,-3.72 5.3,-9.17 5.13,-13.9 -3.25,-0.54 -9.58,-0.15 -9,-2.48 0.58,-2.33 5.09,-1.66 8.75,-0.11 a 13,13 0 0 0 -1.94,-5.28 c -3.23,-4.59 -14,0.53 -14,0.53 0,0 1.63,-10.52 -2.3,-12.54 -2.26,-1.16 -6.34,-1.34 -10.55,0.87 2.29,0.3 5,1.16 6.07,2.81 1.33,2.1 -1,3.1 -2.36,2.09 -1,-0.71 -2.76,-2.89 -6.14,-3.33 a 20.85,20.85 0 0 0 -4,4 20.38,20.38 0 0 0 -1.19,1.7 14.41,14.41 0 0 1 12.3,0.81 c 4.45,2.48 1.68,7.09 -2.16,5.07 -3.84,-2.02 -7.48,-4 -11.69,-3.17 a 29.48,29.48 0 0 0 -2.57,11.69 21,21 0 0 1 6.91,-2.92 c 4.6,-1 5.84,1.8 0.83,2.07 a 20,20 0 0 0 -7.83,2.12 z m 5.86,-7 c -0.24,-1.49 3,-1.76 3.48,-0.54 0.39,1 -3.24,1.98 -3.48,0.54 z m 27.13,9.45 c 0.34,-0.79 2.45,0.22 2.2,1.21 -0.33,1.28 -2.56,-0.47 -2.2,-1.25 z m -15.44,4.42 c 1.6,-0.55 3.86,3.47 2.11,4.28 -1.75,0.81 -3.41,-3.86 -2.11,-4.32 z"
       style="fill:#ffc727"
       id="path418" />
    <path
       d="m 377.37,337 v 0 c 0,0.76 0,1.52 0,2.26 a 13.27,13.27 0 0 1 6.2,-2.23 c 5.3,-0.31 4.77,3.68 1.24,3.68 a 20.14,20.14 0 0 0 -7.3,1.1 c 0.53,7 2.18,12.69 2.46,12.78 a 102.86,102.86 0 0 0 14,-1.1 c -1.18,-2.85 -4,-6.71 -2.45,-6.93 1.55,-0.22 3,3.15 3.71,6.74 a 67.17,67.17 0 0 0 10.29,-2.3 c -2.22,-2.11 -5.68,-4.78 -4.26,-5.78 1.42,-1 4.09,2.65 5.67,5.29 a 20.52,20.52 0 0 0 4.5,-2.23 c -2.91,-4.74 -10.47,-6 -9.32,-9.31 1.15,-3.31 8.05,1.67 11,8 3.94,-3.72 5.3,-9.17 5.13,-13.9 -3.25,-0.54 -9.58,-0.15 -9,-2.48 0.58,-2.33 5.09,-1.66 8.75,-0.11 a 13,13 0 0 0 -1.94,-5.28 c -3.23,-4.59 -14,0.53 -14,0.53 0,0 1.63,-10.52 -2.3,-12.54 -2.26,-1.16 -6.34,-1.34 -10.55,0.87 2.29,0.3 5,1.16 6.07,2.81 1.33,2.1 -1,3.1 -2.36,2.09 -1,-0.71 -2.76,-2.89 -6.14,-3.33 a 20.85,20.85 0 0 0 -4,4 20.38,20.38 0 0 0 -1.19,1.7 14.41,14.41 0 0 1 12.3,0.81 c 4.45,2.48 1.68,7.09 -2.16,5.07 -3.84,-2.02 -7.48,-4 -11.69,-3.17 a 29.48,29.48 0 0 0 -2.57,11.69 21,21 0 0 1 6.91,-2.92 c 4.6,-1 5.84,1.8 0.83,2.07 a 20,20 0 0 0 -7.83,2.12 z m 5.86,-7 c -0.24,-1.49 3,-1.76 3.48,-0.54 0.39,1 -3.24,1.98 -3.48,0.54 z m 27.13,9.45 c 0.34,-0.79 2.45,0.22 2.2,1.21 -0.33,1.28 -2.56,-0.47 -2.2,-1.25 z m -15.44,4.42 c 1.6,-0.55 3.86,3.47 2.11,4.28 -1.75,0.81 -3.41,-3.86 -2.11,-4.32 z"
       style="opacity:0.1"
       id="path420" />
    <path
       d="m 380.64,353.79 c 2.55,-3.84 5.08,-7.7 7.75,-11.46 q 1.86,-2.62 3.87,-5.14 l -0.55,-0.16 -0.94,-0.22 c -0.72,-0.16 -1.44,-0.3 -2.17,-0.41 a 20.76,20.76 0 0 0 -2.07,-0.22 11,11 0 0 0 -2.22,0 c -0.09,0 -0.1,-0.12 0,-0.12 0.74,0.07 1.5,0 2.24,0 0.74,0 1.44,0.08 2.15,0.16 0.71,0.08 1.34,0.17 2,0.3 l 1.09,0.25 a 4.91,4.91 0 0 1 0.66,0.17 q 2.06,-2.55 4.23,-5 a 47.27,47.27 0 0 0 -12.74,-4.74 c -0.07,0 0,-0.13 0,-0.12 a 44,44 0 0 1 12.93,4.61 c 0.8,-0.89 1.6,-1.78 2.41,-2.66 0.81,-0.88 1.87,-1.95 2.69,-3 0.06,-0.07 0.16,0 0.1,0.07 a 46.46,46.46 0 0 0 -3.18,3.53 v 0 a 46.05,46.05 0 0 1 4.63,4.09 c 1.5,1.47 3,3 4.39,4.53 0.05,0.06 0,0.14 -0.09,0.09 -1.4,-1.54 -2.86,-3 -4.4,-4.41 -1.54,-1.41 -3.15,-2.71 -4.7,-4.1 v 0 l -1.17,1.39 c -0.19,0.24 -0.39,0.47 -0.59,0.7 a 0.1,0.1 0 0 1 0,0.05 l -1.96,2.36 a 19.4,19.4 0 0 1 1.67,3.39 c 0.48,1.14 0.88,2.31 1.25,3.49 a 50.34,50.34 0 0 1 1.62,7.5 c 0,0.07 -0.11,0.1 -0.12,0 a 43.31,43.31 0 0 0 -1.8,-7.37 c -0.4,-1.23 -0.87,-2.43 -1.35,-3.63 -0.48,-1.2 -1,-2.15 -1.4,-3.25 l -1.68,2.05 -0.47,0.61 a 0.07,0.07 0 0 1 -0.06,0.1 v 0 c -1.73,2.19 -3.39,4.44 -5,6.71 a 2.37,2.37 0 0 1 0.18,0.53 c 0.08,0.28 0.16,0.58 0.23,0.87 a 18,18 0 0 1 0.33,1.78 c 0.07,0.56 0.12,1.13 0.15,1.69 a 15.29,15.29 0 0 0 0.05,1.92 c 0,0.1 -0.14,0.1 -0.11,0 a 6.71,6.71 0 0 0 -0.05,-1.79 c -0.06,-0.62 -0.14,-1.23 -0.25,-1.84 -0.11,-0.61 -0.23,-1.09 -0.36,-1.63 -0.07,-0.28 -0.14,-0.55 -0.22,-0.81 -0.08,-0.26 -0.11,-0.3 -0.15,-0.45 -0.75,1.07 -1.5,2.14 -2.24,3.23 -1.47,2.14 -2.92,4.29 -4.38,6.44 -0.1,0.13 -0.27,0.03 -0.2,-0.08 z"
       style="fill:#263238"
       id="path422" />
    <path
       d="m 413.73,376.54 c 0.06,-2 0.37,-3.94 0.58,-5.89 0.21,-1.95 0.43,-3.92 0.64,-5.89 a 89.81,89.81 0 0 1 1.52,-11.34 16.5,16.5 0 0 1 4.62,-8.49 7.49,7.49 0 0 1 4.53,-2.16 7.74,7.74 0 0 1 4.8,1.48 16.75,16.75 0 0 1 4.05,4.26 42.62,42.62 0 0 1 3.15,5.12 c 0,0.07 -0.07,0.11 -0.11,0 a 26.22,26.22 0 0 0 -6.82,-7.64 8.07,8.07 0 0 0 -4.3,-1.79 5.84,5.84 0 0 0 -4.17,1.66 15.67,15.67 0 0 0 -4.4,7.79 78.78,78.78 0 0 0 -1.7,10.49 q -0.42,3.1 -0.82,6.23 c -0.27,2.06 -0.45,4.18 -0.88,6.22 a 0.35,0.35 0 0 1 -0.69,-0.05 z"
       style="fill:#263238"
       id="path424" />
    <path
       d="m 423.39,361.29 a 11,11 0 0 0 2.13,2.19 c -0.32,-1.92 -0.71,-5.32 0.26,-7.13 1.5,-2.82 3.27,-1.42 2.38,1 a 20,20 0 0 0 -1.45,6.94 30.32,30.32 0 0 0 6.52,3.07 A 11.13,11.13 0 0 1 433,364 c 0.3,-3 2.6,-3 2,0.17 a 19.66,19.66 0 0 0 -0.31,3.68 67.15,67.15 0 0 0 10.16,2.29 29.67,29.67 0 0 0 4.2,-7.49 c -2.44,-0.61 -7.4,-0.75 -7.3,-2.5 0.14,-2.35 5,-0.54 7.76,1.17 a 18.68,18.68 0 0 0 0.84,-6.34 31.81,31.81 0 0 0 -6.75,-1.12 c -5,-0.43 -4.79,-3.29 -1.14,-3.22 2.7,0.05 6.11,1.7 7.72,2.55 -1.05,-6.85 -6.28,-11.25 -10.47,-11.42 -7.05,-0.28 -4.52,8.49 -4.52,8.49 0,0 -4.78,-3.36 -9.28,-3.27 -4.5,0.09 -7.34,7.6 -2.52,14.3 z m 18.83,-12.68 c -0.16,-1 3,-1.22 3.15,0 0.19,1.46 -2.99,1.01 -3.15,0 z m 5.06,10.29 c -0.06,-0.64 1.3,-0.75 1.6,0.06 0.21,0.53 -1.54,0.58 -1.6,-0.06 z m -16.93,0.6 c 1.06,0.15 1.67,3.95 -0.16,3.88 -1.4,-0.06 -0.74,-4 0.16,-3.88 z"
       style="fill:#ffc727"
       id="path426" />
    <path
       d="m 431.82,363.72 c 0.18,-0.47 0.33,-1 0.48,-1.43 -0.13,0.49 -0.26,1 -0.35,1.47 a 0.07,0.07 0 1 1 -0.13,-0.04 z"
       style="fill:#263238"
       id="path428" />
    <path
       d="m 433.68,357.62 c 0.33,-1 0.7,-1.94 1.08,-2.9 0.21,-0.51 0.41,-1 0.64,-1.51 a 5.86,5.86 0 0 1 0.63,-1.28 8.53,8.53 0 0 1 -0.57,-1.23 c 0,0 0,-0.07 0.06,0 a 13.11,13.11 0 0 1 1.37,2.13 c 0.2,0.33 0.39,0.67 0.58,1 a 9.81,9.81 0 0 1 1.19,0.19 c 0.42,0.07 0.84,0.16 1.26,0.25 l 1.26,0.3 c 0.41,0.09 0.82,0.23 1.25,0.3 0.09,0 0.05,0.17 0,0.13 a 8.55,8.55 0 0 0 -1.32,-0.35 c -0.4,-0.08 -0.81,-0.15 -1.22,-0.21 l -1.23,-0.15 -0.93,-0.08 c 0.16,0.3 0.34,0.59 0.5,0.89 0,0 0.05,0.09 0.08,0.14 a 3.83,3.83 0 0 1 1,0.12 c 0.36,0.06 0.73,0.13 1.09,0.21 0.73,0.17 1.47,0.34 2.19,0.54 1.53,0.43 3,0.92 4.54,1.41 0.08,0 0,0.15 -0.05,0.12 a 45.28,45.28 0 0 0 -4.56,-1.26 c -0.72,-0.16 -1.44,-0.33 -2.17,-0.48 l -1.08,-0.23 a 6.14,6.14 0 0 1 -0.85,-0.19 c 0.78,1.44 1.51,2.89 2.18,4.38 1.46,3.23 2.7,6.57 3.95,9.89 0,0.08 -0.1,0.13 -0.13,0 a 89.94,89.94 0 0 0 -4.2,-9.67 l -0.85,-1.71 a 3.59,3.59 0 0 0 -0.08,0.35 l -0.21,1.18 c -0.13,0.78 -0.26,1.57 -0.38,2.36 a 27.88,27.88 0 0 0 -0.57,4.9 c 0,0.1 -0.15,0.09 -0.13,0 0.12,-0.78 0.12,-1.6 0.17,-2.39 0.05,-0.79 0.11,-1.65 0.21,-2.47 0.1,-0.82 0.19,-1.58 0.32,-2.37 l 0.21,-1.18 a 2.43,2.43 0 0 1 0.22,-0.85 c -0.41,-0.83 -0.82,-1.66 -1.24,-2.49 -0.42,-0.83 -0.79,-1.54 -1.19,-2.31 -0.17,-0.33 -0.35,-0.66 -0.53,-1 a 12.26,12.26 0 0 1 -0.47,1.19 c -0.18,0.44 -0.36,0.89 -0.55,1.33 -0.4,1 -0.78,2 -1.15,3 -0.54,1.41 -1.13,2.86 -1.56,4.33 0.4,-1.44 0.76,-2.95 1.24,-4.33 z"
       style="fill:#263238"
       id="path430" />
    <path
       d="m 432.3,362.29 c 0,-0.12 0.07,-0.23 0.11,-0.34 -0.04,0.11 -0.07,0.22 -0.11,0.34 z"
       style="fill:#263238"
       id="path432" />
    <polygon
       points="449.08,422.44 451.29,389.78 452.15,377.11 397.6,377.11 398.46,389.78 400.68,422.44 "
       style="fill:#37474f"
       id="polygon434" />
    <polygon
       points="398.46,389.78 451.29,389.78 452.15,377.11 397.6,377.11 "
       style="fill:#263238"
       id="polygon436" />
    <rect
       x="394.16"
       y="371.98999"
       width="61.43"
       height="10.24"
       transform="rotate(180,424.875,377.11)"
       style="fill:#37474f"
       id="rect438" />
    <rect
       x="436.66"
       y="422.44"
       width="8.5"
       height="5.3600001"
       style="fill:#37474f"
       id="rect440" />
    <rect
       x="436.66"
       y="422.44"
       width="8.5"
       height="2.6800001"
       style="fill:#263238"
       id="rect442" />
    <rect
       x="404.59"
       y="422.44"
       width="8.4899998"
       height="5.3600001"
       style="fill:#37474f"
       id="rect444" />
    <rect
       x="404.59"
       y="422.44"
       width="8.4899998"
       height="2.6800001"
       style="fill:#263238"
       id="rect446" />
  </g>
  <g
     id="g3947"
     transform="translate(38)"
     style="opacity:0.79568326">
    <path
       d="m 408.11,144.16 10.53,6.53 2,-3.22 a 2.94,2.94 0 0 1 2.77,-1.37 c 0.62,0.05 1.23,0.07 1.85,0.06 a 2.93,2.93 0 0 1 2.68,1.53 l 1.79,3.35 10.92,-5.86 -1.79,-3.34 a 3,3 0 0 1 0.2,-3.08 c 0.35,-0.51 0.68,-1 1,-1.58 a 2.92,2.92 0 0 1 2.67,-1.55 l 3.79,0.12 0.39,-12.39 -3.81,-0.11 a 2.93,2.93 0 0 1 -2.56,-1.73 c -0.13,-0.27 -0.27,-0.54 -0.41,-0.81 -0.14,-0.27 -0.3,-0.54 -0.46,-0.8 a 3,3 0 0 1 0,-3.07 l 2,-3.25 -10.53,-6.53 -2,3.23 a 2.94,2.94 0 0 1 -2.78,1.36 c -0.61,-0.05 -1.22,-0.07 -1.84,-0.06 a 3,3 0 0 1 -2.67,-1.54 l -1.8,-3.34 -10.92,5.86 1.79,3.34 a 3,3 0 0 1 -0.19,3.08 15.09,15.09 0 0 0 -1,1.57 2.94,2.94 0 0 1 -2.68,1.55 l -3.8,-0.11 -0.38,12.38 3.8,0.12 a 3,3 0 0 1 2.56,1.72 c 0.13,0.28 0.26,0.55 0.41,0.83 0.15,0.28 0.29,0.53 0.45,0.79 a 2.94,2.94 0 0 1 0,3.09 z m 7.82,-10.49 a 10.15,10.15 0 1 1 13.74,4.16 10.15,10.15 0 0 1 -13.74,-4.16 z"
       style="fill:#ebebeb"
       id="path3873" />
    <path
       d="m 397.81,193.65 4.34,7.52 2.3,-1.33 a 2,2 0 0 1 2.17,0.07 11.27,11.27 0 0 0 1.12,0.65 2,2 0 0 1 1.14,1.83 v 2.66 h 8.69 v -2.66 a 2,2 0 0 1 1.14,-1.83 11.27,11.27 0 0 0 1.12,-0.65 2,2 0 0 1 2.17,-0.07 l 2.3,1.33 4.34,-7.52 -2.31,-1.34 a 2.05,2.05 0 0 1 -1,-1.91 c 0,-0.21 0,-0.43 0,-0.64 0,-0.21 0,-0.43 0,-0.64 a 2.06,2.06 0 0 1 1,-1.91 l 2.32,-1.33 -4.34,-7.52 -2.31,1.33 a 2.05,2.05 0 0 1 -2.16,-0.08 c -0.36,-0.23 -0.74,-0.45 -1.12,-0.65 a 2,2 0 0 1 -1.14,-1.83 v -2.66 h -8.69 v 2.66 a 2,2 0 0 1 -1.14,1.83 c -0.38,0.2 -0.75,0.42 -1.11,0.65 a 2.07,2.07 0 0 1 -2.17,0.08 l -2.31,-1.33 -4.34,7.52 2.31,1.33 a 2.05,2.05 0 0 1 1,1.91 c 0,0.21 0,0.42 0,0.64 0,0.22 0,0.43 0,0.64 a 2.08,2.08 0 0 1 -1,1.92 z m 8.3,-3.89 a 7.12,7.12 0 1 1 7.11,7.12 7.11,7.11 0 0 1 -7.11,-7.12 z"
       style="fill:#ebebeb"
       id="path3875" />
    <path
       d="m 51.27,279.62 4.34,7.52 2.3,-1.33 a 2.05,2.05 0 0 1 2.16,0.08 c 0.37,0.23 0.74,0.45 1.13,0.65 a 2.06,2.06 0 0 1 1.14,1.83 V 291 H 71 v -2.66 a 2,2 0 0 1 1.15,-1.83 c 0.38,-0.2 0.76,-0.42 1.12,-0.65 a 2.05,2.05 0 0 1 2.16,-0.08 l 2.31,1.33 4.33,-7.52 -2.31,-1.33 a 2.05,2.05 0 0 1 -1,-1.91 c 0,-0.21 0,-0.43 0,-0.64 0,-0.21 0,-0.43 0,-0.64 a 2.05,2.05 0 0 1 1,-1.91 l 2.31,-1.34 -4.33,-7.52 -2.31,1.33 a 2,2 0 0 1 -2.17,-0.07 11.27,11.27 0 0 0 -1.12,-0.65 2.06,2.06 0 0 1 -1.14,-1.8 v -2.66 h -8.66 v 2.66 a 2.06,2.06 0 0 1 -1.14,1.83 11.27,11.27 0 0 0 -1.12,0.65 2,2 0 0 1 -2.16,0.07 l -2.31,-1.33 -4.34,7.52 2.31,1.34 a 2.08,2.08 0 0 1 1,1.9 c 0,0.22 0,0.43 0,0.65 0,0.22 0,0.43 0,0.64 a 2.06,2.06 0 0 1 -1,1.91 z m 8.3,-3.88 a 7.11,7.11 0 1 1 7.11,7.11 7.11,7.11 0 0 1 -7.11,-7.11 z"
       style="fill:#ebebeb"
       id="path3877" />
    <rect
       x="47.540001"
       y="45.299999"
       width="131.75"
       height="202.02"
       style="fill:#ebebeb"
       id="rect3879" />
    <rect
       x="54.720001"
       y="53.389999"
       width="55.639999"
       height="89.860001"
       style="fill:#ffffff"
       id="rect3881" />
    <rect
       x="116.49"
       y="53.389999"
       width="55.630001"
       height="89.860001"
       style="fill:#ffffff"
       id="rect3883" />
    <rect
       x="54.720001"
       y="149.37"
       width="55.639999"
       height="89.860001"
       style="fill:#ffffff"
       id="rect3885" />
    <rect
       x="116.49"
       y="149.37"
       width="55.630001"
       height="89.860001"
       style="fill:#ffffff"
       id="rect3887" />
    <polygon
       points="54.72,87.08 54.72,67.2 68.54,53.39 88.41,53.39 "
       style="fill:#ebebeb"
       id="polygon3889" />
    <polygon
       points="110.36,180.27 110.36,200.13 71.27,239.23 54.72,239.23 54.72,235.91 "
       style="fill:#ebebeb"
       id="polygon3891" />
    <polygon
       points="116.48,194.02 116.48,174.15 141.26,149.37 161.13,149.37 "
       style="fill:#ebebeb"
       id="polygon3893" />
    <polygon
       points="172.12,138.38 167.25,143.25 147.38,143.25 172.12,118.52 "
       style="fill:#ebebeb"
       id="polygon3895" />
    <polygon
       points="172.12,238.28 171.17,239.23 151.31,239.23 172.12,218.41 "
       style="fill:#ebebeb"
       id="polygon3897" />
    <polygon
       points="67.84,149.37 54.72,162.49 54.72,152.55 57.91,149.37 "
       style="fill:#ebebeb"
       id="polygon3899" />
    <polygon
       points="110.36,96.91 110.36,106.84 73.96,143.25 64.03,143.25 "
       style="fill:#ebebeb"
       id="polygon3901" />
    <polygon
       points="116.48,100.72 116.48,90.79 153.89,53.39 163.82,53.39 "
       style="fill:#ebebeb"
       id="polygon3903" />
    <polygon
       points="54.72,103.41 54.72,100.92 102.25,53.39 104.74,53.39 "
       style="fill:#ebebeb"
       id="polygon3905" />
    <polygon
       points="110.36,214.68 110.36,217.17 88.31,239.23 85.82,239.23 "
       style="fill:#ebebeb"
       id="polygon3907" />
    <polygon
       points="172.12,155.41 116.48,211.05 116.48,208.56 172.12,152.94 "
       style="fill:#ebebeb"
       id="polygon3909" />
    <rect
       x="208.89"
       y="45.299999"
       width="131.75"
       height="202.02"
       style="fill:#ebebeb"
       id="rect3911" />
    <rect
       x="216.07001"
       y="53.389999"
       width="55.639999"
       height="89.860001"
       style="fill:#ffffff"
       id="rect3913" />
    <rect
       x="277.82999"
       y="53.389999"
       width="55.630001"
       height="89.860001"
       style="fill:#ffffff"
       id="rect3915" />
    <rect
       x="216.07001"
       y="149.37"
       width="55.639999"
       height="89.860001"
       style="fill:#ffffff"
       id="rect3917" />
    <rect
       x="277.82999"
       y="149.37"
       width="55.630001"
       height="89.860001"
       style="fill:#ffffff"
       id="rect3919" />
    <polygon
       points="216.07,149.37 221.31,149.37 216.07,154.61 "
       style="fill:#ebebeb"
       id="polygon3921" />
    <polygon
       points="271.71,79.09 271.71,98.97 227.43,143.25 216.07,143.25 216.07,134.74 "
       style="fill:#ebebeb"
       id="polygon3923" />
    <polygon
       points="277.83,92.85 277.83,72.97 297.41,53.39 317.29,53.39 "
       style="fill:#ebebeb"
       id="polygon3925" />
    <polygon
       points="333.46,198.42 292.66,239.23 277.83,239.23 277.83,234.18 333.46,178.55 "
       style="fill:#ebebeb"
       id="polygon3927" />
    <polygon
       points="271.71,55.23 216.07,110.87 216.07,100.93 263.6,53.39 271.71,53.39 "
       style="fill:#ebebeb"
       id="polygon3929" />
    <polygon
       points="271.71,217.15 271.71,227.08 259.56,239.23 249.63,239.23 "
       style="fill:#ebebeb"
       id="polygon3931" />
    <polygon
       points="333.46,165.33 277.83,220.96 277.83,211.03 333.46,155.39 "
       style="fill:#ebebeb"
       id="polygon3933" />
    <polygon
       points="230.56,149.37 216.07,163.86 216.07,161.38 228.07,149.37 "
       style="fill:#ebebeb"
       id="polygon3935" />
    <polygon
       points="271.71,105.73 271.71,108.22 236.68,143.25 234.19,143.25 "
       style="fill:#ebebeb"
       id="polygon3937" />
    <polygon
       points="277.83,102.1 277.83,99.61 324.05,53.39 326.54,53.39 "
       style="fill:#ebebeb"
       id="polygon3939" />
    <polygon
       points="271.71,181.72 271.71,184.2 216.68,239.23 216.07,239.23 216.07,237.36 "
       style="fill:#ebebeb"
       id="polygon3941" />
    <polygon
       points="277.83,178.08 277.83,175.6 304.05,149.37 306.54,149.37 "
       style="fill:#ebebeb"
       id="polygon3943" />
    <polygon
       points="333.46,122.45 312.66,143.25 310.17,143.25 333.46,119.96 "
       style="fill:#ebebeb"
       id="polygon3945" />
  </g>
  <g
     id="g3951"
     transform="translate(38)"
     style="opacity:0.79568326">
    <polygon
       points="250,403.99 141.7,403.82 87.55,403.74 33.4,403.49 87.55,403.25 141.7,403.16 250,402.99 358.3,403.16 412.45,403.25 466.6,403.49 412.45,403.74 358.3,403.82 "
       style="fill:#263238"
       id="polygon3949" />
  </g>
  <g
     id="g4001"
     transform="translate(38)"
     style="opacity:0.79568326">
    <polygon
       points="128.41,427.7 145.15,427.7 176.15,406.58 142.67,389.23 "
       style="fill:#ffc727"
       id="polygon3953" />
    <polygon
       points="128.41,427.7 145.15,427.7 176.15,406.58 142.67,389.23 "
       style="opacity:0.1"
       id="polygon3955" />
    <polygon
       points="371.59,427.7 354.85,427.7 323.85,406.58 357.33,389.23 "
       style="fill:#ffc727"
       id="polygon3957" />
    <polygon
       points="371.59,427.7 354.85,427.7 323.85,406.58 357.33,389.23 "
       style="opacity:0.1"
       id="polygon3959" />
    <circle
       cx="250"
       cy="260"
       r="171.05"
       transform="rotate(-45,250.00352,259.99515)"
       style="fill:#ffc727"
       id="circle3961" />
    <circle
       cx="247.92"
       cy="257.19"
       r="163.22"
       style="opacity:0.1"
       id="circle3963" />
    <circle
       cx="250"
       cy="259.26999"
       r="152.91"
       transform="rotate(-45,250.00503,259.27453)"
       style="fill:#ffffff"
       id="circle3965" />
    <path
       d="m 399.42,226.79 c -69.63,42.19 -184.07,111.4 -248,149.34 A 153,153 0 0 1 109.63,319.94 L 321.16,123.88 a 153.06,153.06 0 0 1 78.26,102.91 z"
       style="fill:#ebebeb"
       id="path3967" />
    <path
       d="m 402.78,264.58 a 151.57,151.57 0 0 1 -10.11,49.69 L 202,404.46 a 151.37,151.37 0 0 1 -24.09,-10.35 c 57.57,-33.29 162.85,-93.86 224.87,-129.53 z"
       style="fill:#ebebeb"
       id="path3969" />
    <rect
       x="248.52"
       y="117.46"
       width="2.95"
       height="23.18"
       style="fill:#c7c7c7"
       id="rect3971" />
    <rect
       x="183.41"
       y="134.89999"
       width="2.96"
       height="23.18"
       transform="rotate(-30,184.87181,146.47625)"
       style="fill:#c7c7c7"
       id="rect3973" />
    <rect
       x="135.75"
       y="182.57001"
       width="2.95"
       height="23.18"
       transform="rotate(-60,137.20488,194.15417)"
       style="fill:#c7c7c7"
       id="rect3975" />
    <rect
       x="108.19"
       y="257.79001"
       width="23.18"
       height="2.95"
       style="fill:#c7c7c7"
       id="rect3977" />
    <rect
       x="125.63"
       y="322.89999"
       width="23.18"
       height="2.95"
       transform="rotate(-30,137.23413,324.41177)"
       style="fill:#c7c7c7"
       id="rect3979" />
    <rect
       x="173.3"
       y="370.57001"
       width="23.18"
       height="2.96"
       transform="rotate(-60.03,184.9076,372.0564)"
       style="fill:#c7c7c7"
       id="rect3981" />
    <rect
       x="248.52"
       y="377.89999"
       width="2.95"
       height="23.18"
       style="fill:#c7c7c7"
       id="rect3983" />
    <rect
       x="313.63"
       y="360.45999"
       width="2.96"
       height="23.18"
       transform="rotate(-30,315.09501,372.02945)"
       style="fill:#c7c7c7"
       id="rect3985" />
    <rect
       x="361.29999"
       y="312.79001"
       width="2.95"
       height="23.18"
       transform="rotate(-60,362.75254,324.37417)"
       style="fill:#c7c7c7"
       id="rect3987" />
    <rect
       x="368.63"
       y="257.79001"
       width="23.18"
       height="2.95"
       style="fill:#c7c7c7"
       id="rect3989" />
    <rect
       x="351.19"
       y="192.67999"
       width="23.18"
       height="2.95"
       transform="rotate(-30,362.82965,194.17991)"
       style="fill:#c7c7c7"
       id="rect3991" />
    <rect
       x="303.51999"
       y="145.00999"
       width="23.18"
       height="2.96"
       transform="rotate(-60.03,315.13701,146.48888)"
       style="fill:#c7c7c7"
       id="rect3993" />
    <polygon
       points="242.35,265.38 242.53,250.88 390.7,257.3 390.66,261.24 "
       style="fill:#ffc727"
       id="polygon3995" />
    <polygon
       points="257.44,267.84 242.93,267.65 247.09,154.93 251.02,154.98 "
       style="fill:#263238"
       id="polygon3997" />
    <circle
       cx="250"
       cy="259.26999"
       r="4.9499998"
       style="fill:#ffc727"
       id="circle3999" />
  </g>
  <g
     id="g4125"
     transform="translate(38)"
     style="opacity:0.79568326">
    <polygon
       points="97.34,450.19 63.63,310.22 256.52,310.22 290.23,450.19 "
       style="fill:#a6a6a6"
       id="polygon4003" />
    <polygon
       points="222.25,450.19 255.96,310.22 63.07,310.22 29.36,450.19 "
       style="fill:#dbdbdb"
       id="polygon4005" />
    <polygon
       points="223.69,354.4 223.43,355.5 218.98,374.07 218.72,375.17 214.27,393.72 214,394.82 209.54,413.38 209.28,414.49 204.92,432.67 63.31,432.67 67.67,414.49 67.93,413.38 72.39,394.82 72.66,393.72 77.11,375.17 77.38,374.07 81.83,355.5 82.09,354.4 86.39,336.52 227.99,336.52 "
       style="fill:#ffffff"
       id="polygon4007" />
    <polygon
       points="102.83,354.4 102.57,355.5 98.12,374.07 97.86,375.17 93.41,393.72 93.14,394.82 88.69,413.38 88.42,414.49 84.06,432.67 82.93,432.67 87.3,414.49 87.56,413.38 92.01,394.82 92.28,393.72 96.72,375.17 96.99,374.07 101.45,355.5 101.71,354.4 105.99,336.52 107.13,336.52 "
       style="fill:#ebebeb"
       id="polygon4009" />
    <polygon
       points="123,354.4 122.74,355.5 118.29,374.07 118.03,375.17 113.58,393.72 113.31,394.82 108.86,413.38 108.59,414.49 104.23,432.67 103.1,432.67 107.47,414.49 107.73,413.38 112.18,394.82 112.45,393.72 116.89,375.17 117.16,374.07 121.62,355.5 121.88,354.4 126.16,336.52 127.3,336.52 "
       style="fill:#ebebeb"
       id="polygon4011" />
    <polygon
       points="143.19,354.4 142.92,355.5 138.47,374.07 138.21,375.17 133.76,393.72 133.5,394.82 129.04,413.38 128.77,414.49 124.41,432.67 123.28,432.67 127.65,414.49 127.92,413.38 132.36,394.82 132.63,393.72 137.08,375.17 137.34,374.07 141.8,355.5 142.06,354.4 146.35,336.52 147.48,336.52 "
       style="fill:#ebebeb"
       id="polygon4013" />
    <polygon
       points="163.36,354.4 163.09,355.5 158.64,374.07 158.38,375.17 153.93,393.72 153.67,394.82 149.21,413.38 148.94,414.49 144.58,432.67 143.45,432.67 147.82,414.49 148.09,413.38 152.53,394.82 152.8,393.72 157.25,375.17 157.51,374.07 161.97,355.5 162.23,354.4 166.52,336.52 167.65,336.52 "
       style="fill:#ebebeb"
       id="polygon4015" />
    <polygon
       points="183.54,354.4 183.27,355.5 178.83,374.07 178.56,375.17 174.11,393.72 173.85,394.82 169.39,413.38 169.13,414.49 164.77,432.67 163.63,432.67 168,414.49 168.27,413.38 172.72,394.82 172.98,393.72 177.43,375.17 177.69,374.07 182.15,355.5 182.41,354.4 186.7,336.52 187.83,336.52 "
       style="fill:#ebebeb"
       id="polygon4017" />
    <polygon
       points="203.71,354.4 203.44,355.5 199,374.07 198.73,375.17 194.28,393.72 194.02,394.82 189.56,413.38 189.3,414.49 184.94,432.67 183.8,432.67 188.17,414.49 188.44,413.38 192.89,394.82 193.15,393.72 197.6,375.17 197.86,374.07 202.32,355.5 202.59,354.4 206.87,336.52 208,336.52 "
       style="fill:#ebebeb"
       id="polygon4019" />
    <polygon
       points="223.43,355.5 81.83,355.5 82.09,354.4 223.69,354.4 "
       style="fill:#ebebeb"
       id="polygon4021" />
    <polygon
       points="218.72,375.17 77.11,375.17 77.38,374.07 218.98,374.07 "
       style="fill:#ebebeb"
       id="polygon4023" />
    <polygon
       points="214,394.82 72.39,394.82 72.66,393.72 214.27,393.72 "
       style="fill:#ebebeb"
       id="polygon4025" />
    <polygon
       points="209.28,414.49 67.67,414.49 67.93,413.38 209.54,413.38 "
       style="fill:#ebebeb"
       id="polygon4027" />
    <rect
       x="103.54"
       y="374.45999"
       width="2.73"
       height="19.620001"
       transform="rotate(-38.92,104.90241,384.26059)"
       style="fill:#c7c7c7"
       id="rect4029" />
    <rect
       x="93.220001"
       y="383.04001"
       width="23.08"
       height="2.73"
       transform="rotate(-42.35,104.76078,384.42076)"
       style="fill:#c7c7c7"
       id="rect4031" />
    <rect
       x="148.31"
       y="355.32999"
       width="2.73"
       height="19.620001"
       transform="rotate(-38.92,149.66989,365.13925)"
       style="fill:#c7c7c7"
       id="rect4033" />
    <rect
       x="137.98"
       y="363.92001"
       width="23.08"
       height="2.73"
       transform="rotate(-42.35,149.52097,365.2871)"
       style="fill:#c7c7c7"
       id="rect4035" />
    <polygon
       points="88.52,368.96 100.4,354.63 102.5,356.37 88.1,373.73 82.89,364.62 85.26,363.26 "
       style="fill:#ffc727"
       id="polygon4037" />
    <polygon
       points="113.72,426.86 125.6,412.53 127.7,414.27 113.31,431.63 108.1,422.52 110.47,421.16 "
       style="fill:#ffc727"
       id="polygon4039" />
    <path
       d="m 185,376 a 32.15,32.15 0 0 0 -6.92,5.12 c -2,2 -3.75,4.43 -4,7.16 a 4.71,4.71 0 0 0 0.92,3.63 6.64,6.64 0 0 0 3.41,1.89 18,18 0 0 0 8.28,-0.21 18.35,18.35 0 0 0 7.51,-3.51 10.29,10.29 0 0 0 2.61,-3.12 6.52,6.52 0 0 0 0.81,-3.8 4.85,4.85 0 0 0 -2.09,-3.2 10.59,10.59 0 0 0 -3.81,-1.65 17.76,17.76 0 0 0 -8.51,0.09 17,17 0 0 1 8.66,-0.8 11.27,11.27 0 0 1 4.2,1.59 6,6 0 0 1 2.68,3.77 7.26,7.26 0 0 1 -0.82,4.58 11.58,11.58 0 0 1 -2.87,3.56 20.35,20.35 0 0 1 -17,4 7.83,7.83 0 0 1 -4,-2.35 4.86,4.86 0 0 1 -1,-2.21 7.72,7.72 0 0 1 0,-2.35 c 0.46,-3.11 2.45,-5.6 4.61,-7.53 A 29.42,29.42 0 0 1 185,376 Z"
       style="fill:#ffc727"
       id="path4041" />
    <polygon
       points="87.66,341.5 88.08,339.66 103.12,339.66 102.7,341.5 "
       style="fill:#c7c7c7"
       id="polygon4043" />
    <polygon
       points="86.94,344.64 87.36,342.81 96.2,342.81 95.78,344.64 "
       style="fill:#c7c7c7"
       id="polygon4045" />
    <polygon
       points="154.68,399.28 155.1,397.45 164.25,397.45 163.83,399.28 "
       style="fill:#c7c7c7"
       id="polygon4047" />
    <polygon
       points="153.23,405.69 153.65,403.86 162.81,403.86 162.38,405.69 "
       style="fill:#c7c7c7"
       id="polygon4049" />
    <polygon
       points="153.95,402.43 154.38,400.59 168.72,400.59 168.3,402.43 "
       style="fill:#c7c7c7"
       id="polygon4051" />
    <polygon
       points="178.38,385.15 178.8,383.31 187.96,383.31 187.53,385.15 "
       style="fill:#c7c7c7"
       id="polygon4053" />
    <polygon
       points="177.65,388.29 178.08,386.46 192.42,386.46 192,388.29 "
       style="fill:#c7c7c7"
       id="polygon4055" />
    <path
       d="m 64.64,351.21 8.83,-6.6 a 5.37,5.37 0 0 0 2,-3 3.36,3.36 0 0 0 -0.43,-2.68 3.12,3.12 0 0 0 -2.67,-1.32 5,5 0 0 0 -3,1 l -0.92,0.69 a 0.51,0.51 0 0 1 -0.76,0 0.55,0.55 0 0 1 0.2,-0.76 l 0.92,-0.72 a 6.52,6.52 0 0 1 3.77,-1.32 3.88,3.88 0 0 1 3.42,1.7 4.21,4.21 0 0 1 0.55,3.42 6.83,6.83 0 0 1 -2.55,3.8 l -7.56,5.65 h 7.39 a 0.43,0.43 0 0 1 0.41,0.56 0.73,0.73 0 0 1 -0.66,0.54 h -8.79 a 0.4,0.4 0 0 1 -0.36,-0.16 0.62,0.62 0 0 1 0.21,-0.8 z"
       style="fill:#a6a6a6"
       id="path4057" />
    <path
       d="m 60.27,371.18 a 12.61,12.61 0 0 1 2.73,-5.47 6.4,6.4 0 0 1 4.46,-2.35 3.65,3.65 0 0 1 3.36,2.35 9,9 0 0 1 0.26,5.47 12.55,12.55 0 0 1 -2.78,5.45 6.36,6.36 0 0 1 -4.43,2.37 3.64,3.64 0 0 1 -3.36,-2.37 8.87,8.87 0 0 1 -0.24,-5.45 z m 1.1,0 a 8,8 0 0 0 0.19,4.85 2.83,2.83 0 0 0 2.57,1.88 5,5 0 0 0 3.42,-1.91 11.21,11.21 0 0 0 2.45,-4.82 8,8 0 0 0 -0.23,-4.85 2.76,2.76 0 0 0 -2.56,-1.88 4.84,4.84 0 0 0 -3.43,1.88 11.16,11.16 0 0 0 -2.41,4.85 z"
       style="fill:#a6a6a6"
       id="path4059" />
    <path
       d="m 52.25,404.88 8.83,-6.6 a 5.37,5.37 0 0 0 2,-3 3.36,3.36 0 0 0 -0.43,-2.68 3.13,3.13 0 0 0 -2.65,-1.31 5,5 0 0 0 -3,1 l -0.92,0.69 a 0.51,0.51 0 0 1 -0.76,0 0.55,0.55 0 0 1 0.2,-0.76 l 0.92,-0.72 a 6.52,6.52 0 0 1 3.77,-1.32 3.88,3.88 0 0 1 3.37,1.68 4.21,4.21 0 0 1 0.55,3.42 6.83,6.83 0 0 1 -2.55,3.8 l -7.57,5.65 h 7.4 a 0.43,0.43 0 0 1 0.41,0.56 0.73,0.73 0 0 1 -0.66,0.54 H 52.4 a 0.4,0.4 0 0 1 -0.36,-0.16 0.62,0.62 0 0 1 0.21,-0.79 z"
       style="fill:#a6a6a6"
       id="path4061" />
    <path
       d="m 47.88,424.85 a 12.61,12.61 0 0 1 2.76,-5.47 6.4,6.4 0 0 1 4.46,-2.38 3.65,3.65 0 0 1 3.36,2.35 9.08,9.08 0 0 1 0.26,5.47 12.66,12.66 0 0 1 -2.78,5.45 6.36,6.36 0 0 1 -4.46,2.37 3.63,3.63 0 0 1 -3.36,-2.37 8.87,8.87 0 0 1 -0.24,-5.42 z m 1.1,0 a 8,8 0 0 0 0.19,4.85 2.85,2.85 0 0 0 2.57,1.88 5,5 0 0 0 3.42,-1.88 11.09,11.09 0 0 0 2.46,-4.85 A 7.88,7.88 0 0 0 57.4,420 2.76,2.76 0 0 0 54.84,418.12 4.84,4.84 0 0 0 51.41,420 11.16,11.16 0 0 0 49,424.85 Z"
       style="fill:#a6a6a6"
       id="path4063" />
    <path
       d="m 230.46,332.73 c 0,0 -4.28,18.55 -6.09,26.41 C 222.56,367 215.1,372 215.1,372 h -40.85 c 0,0 7.27,-8.65 8.75,-15.07 l 5.59,-24.2 z"
       style="fill:#ffc727"
       id="path4065" />
    <path
       d="m 194.45,346.26 -2.14,2.25 a 0.24,0.24 0 0 1 -0.16,0.08 v 0 a 0.13,0.13 0 0 1 -0.13,-0.08 l -1.1,-2.24 -1,4.15 a 0.23,0.23 0 0 1 -0.21,0.17 0.13,0.13 0 0 1 -0.14,-0.17 l 1.08,-4.68 a 0.21,0.21 0 0 1 0.1,-0.14 v 0 a 0.16,0.16 0 0 1 0.23,0 l 1.23,2.49 2.36,-2.49 a 0.2,0.2 0 0 1 0.26,0 0.13,0.13 0 0 1 0,0.06 0.27,0.27 0 0 1 0,0.09 l -1.08,4.68 a 0.23,0.23 0 0 1 -0.21,0.17 0.13,0.13 0 0 1 -0.13,-0.17 z"
       id="path4067" />
    <path
       d="m 196.41,345.71 a 0.24,0.24 0 0 1 0.22,-0.17 h 2.6 a 0.13,0.13 0 0 1 0.13,0.17 0.23,0.23 0 0 1 -0.22,0.18 h -2.42 l -0.46,2 h 2.12 a 0.14,0.14 0 0 1 0.13,0.18 0.23,0.23 0 0 1 -0.21,0.18 h -2.12 l -0.46,2 h 2.42 a 0.13,0.13 0 0 1 0.13,0.18 0.22,0.22 0 0 1 -0.21,0.17 h -2.62 a 0.13,0.13 0 0 1 -0.12,-0.17 z"
       id="path4069" />
    <path
       d="m 200.7,345.71 a 0.23,0.23 0 0 1 0.21,-0.17 h 2.6 a 0.14,0.14 0 0 1 0.14,0.17 0.24,0.24 0 0 1 -0.22,0.18 H 201 l -0.46,2 h 2.12 a 0.14,0.14 0 0 1 0.13,0.18 0.23,0.23 0 0 1 -0.22,0.18 h -2.11 l -0.46,2 h 2.42 c 0.1,0 0.15,0.08 0.13,0.18 a 0.23,0.23 0 0 1 -0.22,0.17 h -2.61 a 0.13,0.13 0 0 1 -0.12,-0.17 z"
       id="path4071" />
    <path
       d="m 206.25,345.89 h -1.52 a 0.14,0.14 0 0 1 -0.14,-0.18 0.25,0.25 0 0 1 0.22,-0.17 h 3.39 a 0.14,0.14 0 0 1 0.14,0.17 0.24,0.24 0 0 1 -0.22,0.18 h -1.52 l -1,4.53 a 0.23,0.23 0 0 1 -0.21,0.17 0.14,0.14 0 0 1 -0.14,-0.17 z"
       id="path4073" />
    <path
       d="m 209.72,345.71 a 0.23,0.23 0 0 1 0.21,-0.17 0.14,0.14 0 0 1 0.14,0.17 l -1.07,4.71 a 0.25,0.25 0 0 1 -0.23,0.17 0.13,0.13 0 0 1 -0.13,-0.17 z"
       id="path4075" />
    <path
       d="m 212.11,346.28 -1,4.14 a 0.23,0.23 0 0 1 -0.21,0.17 0.13,0.13 0 0 1 -0.13,-0.17 l 1.07,-4.64 a 0.2,0.2 0 0 1 0.11,-0.19 c 0.09,0 0.2,0 0.23,0 l 2.09,4.25 0.95,-4.12 a 0.23,0.23 0 0 1 0.21,-0.17 0.14,0.14 0 0 1 0.14,0.17 l -1.08,4.66 a 0.24,0.24 0 0 1 -0.22,0.17 0.14,0.14 0 0 1 -0.12,-0.06 v 0 z"
       id="path4077" />
    <path
       d="m 218.84,348.32 a 0.13,0.13 0 0 1 -0.14,-0.17 0.23,0.23 0 0 1 0.23,-0.18 h 1.58 a 0.13,0.13 0 0 1 0.11,0.18 l -0.4,1.73 v 0 a 0.26,0.26 0 0 1 -0.1,0.13 3.21,3.21 0 0 1 -1.76,0.55 2,2 0 0 1 -2,-2.57 3.44,3.44 0 0 1 3.22,-2.55 2.09,2.09 0 0 1 1.5,0.57 0.17,0.17 0 0 1 0,0.24 0.2,0.2 0 0 1 -0.26,0 1.81,1.81 0 0 0 -1.3,-0.49 3,3 0 0 0 -2.78,2.2 1.73,1.73 0 0 0 1.76,2.22 2.81,2.81 0 0 0 1.44,-0.43 l 0.34,-1.49 z"
       id="path4079" />
    <path
       d="m 187.68,354.72 -0.81,0.42 a 0.19,0.19 0 0 1 -0.1,0 0.13,0.13 0 0 1 -0.13,-0.08 0.19,0.19 0 0 1 0.12,-0.24 l 1.11,-0.6 a 0.17,0.17 0 0 1 0.23,0.07 0.2,0.2 0 0 1 0,0.13 l -1.1,4.67 a 0.24,0.24 0 0 1 -0.22,0.18 0.14,0.14 0 0 1 -0.13,-0.18 z"
       id="path4081" />
    <path
       d="m 192.38,354.53 -1.62,1.34 a 1.3,1.3 0 0 1 0.76,0.47 1.45,1.45 0 0 1 0.22,1.21 2.33,2.33 0 0 1 -2.12,1.72 1.34,1.34 0 0 1 -1.09,-0.51 c -0.06,-0.06 0,-0.18 0.06,-0.25 a 0.17,0.17 0 0 1 0.25,0 1.08,1.08 0 0 0 0.87,0.39 1.73,1.73 0 0 0 1,-0.39 1.76,1.76 0 0 0 0.62,-1 1.09,1.09 0 0 0 -0.18,-0.95 1,1 0 0 0 -0.86,-0.4 0.16,0.16 0 0 1 -0.13,-0.07 v 0 a 0.2,0.2 0 0 1 0.06,-0.26 l 1.56,-1.3 h -1.94 a 0.14,0.14 0 0 1 -0.14,-0.18 0.25,0.25 0 0 1 0.23,-0.18 h 2.36 a 0.14,0.14 0 0 1 0.14,0.18 0.2,0.2 0 0 1 0,0.08 z"
       id="path4083" />
    <path
       d="m 194.92,355.9 a 0.25,0.25 0 0 1 -0.21,0.18 h -0.46 l -0.59,2.57 a 0.21,0.21 0 0 0 0.2,0.26 0.15,0.15 0 0 1 0.14,0.18 0.27,0.27 0 0 1 -0.22,0.18 0.47,0.47 0 0 1 -0.48,-0.62 l 0.59,-2.57 h -0.44 c -0.17,0 -0.15,-0.09 -0.13,-0.18 a 0.18,0.18 0 0 1 0.21,-0.17 H 194 l 0.31,-1.32 a 0.25,0.25 0 0 1 0.21,-0.17 0.15,0.15 0 0 1 0.15,0.17 l -0.31,1.32 h 0.46 a 0.14,0.14 0 0 1 0.1,0.17 z"
       id="path4085" />
    <path
       d="m 198.75,357.12 a 0.81,0.81 0 0 0 -0.88,-1 1.39,1.39 0 0 0 -1.36,1 l -0.46,2 v 0 0 c 0,0 0,0 0,0 a 0.18,0.18 0 0 1 -0.13,0.09 v 0 a 0.13,0.13 0 0 1 -0.12,-0.06 0.14,0.14 0 0 1 0,-0.06 0.15,0.15 0 0 1 0,-0.06 l 0.45,-2 v -0.06 l 0.61,-2.68 a 0.25,0.25 0 0 1 0.22,-0.17 0.14,0.14 0 0 1 0.14,0.17 l -0.43,1.87 a 1.85,1.85 0 0 1 1.24,-0.52 1.09,1.09 0 0 1 1.16,1.39 l -0.46,2 a 0.23,0.23 0 0 1 -0.22,0.18 0.14,0.14 0 0 1 -0.13,-0.18 z"
       id="path4087" />
    <path
       d="m 200.47,356.75 a 0.17,0.17 0 0 1 0.17,-0.13 h 1.54 a 0.11,0.11 0 0 1 0.11,0.13 0.19,0.19 0 0 1 -0.17,0.15 h -1.54 a 0.11,0.11 0 0 1 -0.11,-0.15 z"
       id="path4089" />
    <path
       d="m 204.42,354.72 -0.81,0.42 a 0.19,0.19 0 0 1 -0.1,0 0.13,0.13 0 0 1 -0.13,-0.08 0.19,0.19 0 0 1 0.12,-0.24 l 1.11,-0.6 a 0.17,0.17 0 0 1 0.23,0.07 0.29,0.29 0 0 1 0,0.13 l -1.07,4.64 a 0.24,0.24 0 0 1 -0.22,0.18 0.14,0.14 0 0 1 -0.13,-0.18 z"
       id="path4091" />
    <path
       d="m 205.62,356.74 a 4.17,4.17 0 0 1 0.89,-1.77 2.08,2.08 0 0 1 1.44,-0.76 1.17,1.17 0 0 1 1.05,0.79 3,3 0 0 1 0.09,1.77 4.09,4.09 0 0 1 -0.9,1.76 2.06,2.06 0 0 1 -1.44,0.77 1.16,1.16 0 0 1 -1.09,-0.77 2.92,2.92 0 0 1 -0.04,-1.79 z m 0.36,0 a 2.54,2.54 0 0 0 0.06,1.57 0.91,0.91 0 0 0 0.83,0.6 1.63,1.63 0 0 0 1.11,-0.6 3.59,3.59 0 0 0 0.79,-1.57 2.53,2.53 0 0 0 -0.07,-1.57 0.89,0.89 0 0 0 -0.83,-0.6 1.56,1.56 0 0 0 -1.11,0.6 3.57,3.57 0 0 0 -0.76,1.57 z"
       id="path4093" />
    <path
       d="m 213.52,358 h -2.3 l -0.73,1.19 a 0.24,0.24 0 0 1 -0.19,0.12 h -0.06 a 0.15,0.15 0 0 1 -0.05,-0.23 l 2.84,-4.69 a 0.26,0.26 0 0 1 0.2,-0.11 c 0.07,0 0.14,0 0.14,0.11 l 0.68,4.69 a 0.25,0.25 0 0 1 -0.15,0.23 h -0.07 a 0.16,0.16 0 0 1 -0.14,-0.12 z m -2.09,-0.35 h 2 l -0.39,-2.72 z"
       id="path4095" />
    <path
       d="m 220,354.93 -2.13,2.25 a 0.22,0.22 0 0 1 -0.17,0.08 v 0 c -0.07,0 -0.11,0 -0.13,-0.08 l -1.11,-2.24 -0.95,4.15 a 0.24,0.24 0 0 1 -0.22,0.18 0.14,0.14 0 0 1 -0.14,-0.18 l 1.08,-4.68 a 0.28,0.28 0 0 1 0.11,-0.13 v 0 a 0.17,0.17 0 0 1 0.24,0.05 l 1.22,2.49 2.37,-2.49 a 0.19,0.19 0 0 1 0.25,-0.05 0.21,0.21 0 0 1 0,0.06 0.14,0.14 0 0 1 0,0.09 l -1.08,4.68 a 0.23,0.23 0 0 1 -0.21,0.18 0.14,0.14 0 0 1 -0.14,-0.18 z"
       id="path4097" />
    <path
       d="M 69.1,319.78 A 5.08,5.08 0 0 1 65.38,318 c -1,-1.15 -2.41,-3.79 -1,-8.58 1.33,-4.39 4.52,-6.2 7,-5.73 1.9,0.36 4,2.29 3.63,6.54 a 1.18,1.18 0 0 1 -1.3,1.1 1.22,1.22 0 0 1 -1.1,-1.31 c 0.19,-2.21 -0.46,-3.73 -1.68,-4 -1.38,-0.26 -3.34,1.07 -4.24,4.06 -0.82,2.73 -0.65,5 0.49,6.31 a 2.52,2.52 0 0 0 2.05,1 1.21,1.21 0 1 1 0.33,2.39 4,4 0 0 1 -0.46,0 z"
       style="fill:#a6a6a6"
       id="path4099" />
    <path
       d="M 84,319.78 A 5.06,5.06 0 0 1 80.24,318 c -1,-1.15 -2.41,-3.79 -1,-8.58 1.32,-4.39 4.52,-6.2 7,-5.73 1.9,0.36 4,2.29 3.63,6.54 a 1.19,1.19 0 0 1 -1.3,1.1 A 1.22,1.22 0 0 1 87.5,310 c 0.19,-2.21 -0.46,-3.73 -1.68,-4 -1.39,-0.26 -3.34,1.07 -4.24,4.06 -0.83,2.73 -0.65,5 0.49,6.31 a 2.52,2.52 0 0 0 2.05,1 1.21,1.21 0 1 1 0.33,2.39 4.07,4.07 0 0 1 -0.45,0.02 z"
       style="fill:#a6a6a6"
       id="path4101" />
    <path
       d="M 98.81,319.78 A 5.06,5.06 0 0 1 95.1,318 c -1,-1.15 -2.41,-3.79 -1,-8.58 1.32,-4.39 4.52,-6.2 7,-5.73 1.9,0.36 4,2.29 3.63,6.54 a 1.19,1.19 0 0 1 -1.3,1.1 1.21,1.21 0 0 1 -1.1,-1.31 c 0.19,-2.21 -0.46,-3.73 -1.69,-4 -1.23,-0.27 -3.33,1.07 -4.23,4.06 -0.83,2.73 -0.65,5 0.49,6.31 a 2.52,2.52 0 0 0 2,1 1.21,1.21 0 1 1 0.33,2.39 4.07,4.07 0 0 1 -0.42,0 z"
       style="fill:#a6a6a6"
       id="path4103" />
    <path
       d="M 113.67,319.78 A 5,5 0 0 1 110,318 c -1,-1.15 -2.42,-3.79 -1,-8.58 1.32,-4.39 4.52,-6.2 7,-5.73 1.9,0.36 4,2.29 3.64,6.54 a 1.204585,1.204585 0 1 1 -2.4,-0.21 c 0.18,-2.21 -0.46,-3.73 -1.69,-4 -1.23,-0.27 -3.33,1.07 -4.23,4.06 -0.83,2.73 -0.65,5 0.49,6.31 a 2.51,2.51 0 0 0 2,1 1.21,1.21 0 1 1 0.33,2.39 4.19,4.19 0 0 1 -0.47,0 z"
       style="fill:#a6a6a6"
       id="path4105" />
    <path
       d="m 128.53,319.78 a 5.08,5.08 0 0 1 -3.72,-1.83 c -1,-1.15 -2.41,-3.79 -1,-8.58 1.32,-4.39 4.52,-6.2 7,-5.73 1.9,0.36 4,2.29 3.64,6.54 a 1.204585,1.204585 0 1 1 -2.4,-0.21 c 0.18,-2.21 -0.46,-3.73 -1.69,-4 -1.23,-0.27 -3.33,1.07 -4.23,4.06 -0.83,2.73 -0.66,5 0.49,6.31 a 2.5,2.5 0 0 0 2,1 1.21,1.21 0 1 1 0.33,2.39 4.19,4.19 0 0 1 -0.42,0.05 z"
       style="fill:#a6a6a6"
       id="path4107" />
    <path
       d="m 143.39,319.78 a 5.08,5.08 0 0 1 -3.72,-1.83 c -1,-1.15 -2.41,-3.79 -1,-8.58 1.32,-4.39 4.52,-6.2 7,-5.73 1.9,0.36 4,2.29 3.64,6.54 a 1.2,1.2 0 0 1 -1.31,1.1 1.22,1.22 0 0 1 -1.1,-1.31 c 0.19,-2.21 -0.45,-3.73 -1.68,-4 -1.38,-0.26 -3.34,1.07 -4.24,4.06 -0.82,2.73 -0.65,5 0.49,6.31 a 2.53,2.53 0 0 0 2.05,1 1.21,1.21 0 0 1 0.33,2.39 3.91,3.91 0 0 1 -0.46,0.05 z"
       style="fill:#a6a6a6"
       id="path4109" />
    <path
       d="m 158.25,319.78 a 5.08,5.08 0 0 1 -3.72,-1.83 c -1,-1.15 -2.41,-3.79 -1,-8.58 1.33,-4.39 4.53,-6.2 7,-5.73 1.9,0.36 4,2.29 3.64,6.54 a 1.2,1.2 0 0 1 -1.31,1.1 1.22,1.22 0 0 1 -1.1,-1.31 c 0.19,-2.21 -0.46,-3.73 -1.68,-4 -1.38,-0.26 -3.34,1.07 -4.24,4.06 -0.82,2.73 -0.65,5 0.49,6.31 a 2.52,2.52 0 0 0 2,1 1.21,1.21 0 1 1 0.33,2.39 4,4 0 0 1 -0.41,0.05 z"
       style="fill:#a6a6a6"
       id="path4111" />
    <path
       d="m 173.11,319.78 a 5.08,5.08 0 0 1 -3.72,-1.83 c -1,-1.15 -2.41,-3.79 -1,-8.58 1.33,-4.39 4.52,-6.2 7,-5.73 1.9,0.36 4,2.29 3.63,6.54 a 1.18,1.18 0 0 1 -1.3,1.1 1.22,1.22 0 0 1 -1.1,-1.31 c 0.19,-2.21 -0.46,-3.73 -1.68,-4 -1.38,-0.26 -3.34,1.07 -4.24,4.06 -0.82,2.73 -0.65,5 0.49,6.31 a 2.52,2.52 0 0 0 2.05,1 1.21,1.21 0 0 1 0.33,2.39 4,4 0 0 1 -0.46,0.05 z"
       style="fill:#a6a6a6"
       id="path4113" />
    <path
       d="m 188,319.78 a 5.06,5.06 0 0 1 -3.71,-1.83 c -1,-1.15 -2.41,-3.79 -1,-8.58 1.32,-4.39 4.52,-6.2 7,-5.73 1.9,0.36 4,2.29 3.63,6.54 a 1.19,1.19 0 0 1 -1.3,1.1 1.21,1.21 0 0 1 -1.1,-1.31 c 0.19,-2.21 -0.46,-3.73 -1.69,-4 -1.23,-0.27 -3.33,1.07 -4.23,4.06 -0.83,2.73 -0.65,5 0.49,6.31 a 2.52,2.52 0 0 0 2,1 1.21,1.21 0 1 1 0.33,2.39 4.07,4.07 0 0 1 -0.42,0.05 z"
       style="fill:#a6a6a6"
       id="path4115" />
    <path
       d="m 202.82,319.78 a 5,5 0 0 1 -3.71,-1.83 c -1,-1.15 -2.42,-3.79 -1,-8.58 1.32,-4.39 4.52,-6.2 7,-5.73 1.91,0.36 4,2.29 3.64,6.54 a 1.19,1.19 0 0 1 -1.3,1.1 1.21,1.21 0 0 1 -1.1,-1.31 c 0.18,-2.21 -0.46,-3.73 -1.69,-4 -1.38,-0.26 -3.33,1.07 -4.23,4.06 -0.83,2.73 -0.65,5 0.49,6.31 a 2.52,2.52 0 0 0 2.05,1 1.21,1.21 0 0 1 0.33,2.39 4.07,4.07 0 0 1 -0.48,0.05 z"
       style="fill:#a6a6a6"
       id="path4117" />
    <path
       d="M 217.68,319.78 A 5.08,5.08 0 0 1 214,318 c -1,-1.15 -2.41,-3.79 -1,-8.58 1.32,-4.39 4.52,-6.2 7,-5.73 1.9,0.36 4,2.29 3.64,6.54 a 1.19,1.19 0 0 1 -1.3,1.1 1.2,1.2 0 0 1 -1.1,-1.31 c 0.18,-2.21 -0.46,-3.73 -1.69,-4 -1.23,-0.27 -3.33,1.07 -4.23,4.06 -0.83,2.73 -0.65,5 0.49,6.31 a 2.51,2.51 0 0 0 2,1 1.21,1.21 0 1 1 0.33,2.39 4.19,4.19 0 0 1 -0.46,0 z"
       style="fill:#a6a6a6"
       id="path4119" />
    <path
       d="m 232.54,319.78 a 5.08,5.08 0 0 1 -3.72,-1.83 c -1,-1.15 -2.41,-3.79 -1,-8.58 1.32,-4.39 4.52,-6.2 7,-5.73 1.9,0.36 4,2.29 3.64,6.54 a 1.204585,1.204585 0 1 1 -2.4,-0.21 c 0.18,-2.21 -0.46,-3.73 -1.69,-4 -1.38,-0.26 -3.33,1.07 -4.24,4.06 -0.82,2.73 -0.65,5 0.49,6.31 a 2.52,2.52 0 0 0 2,1 1.21,1.21 0 0 1 0.34,2.39 4.19,4.19 0 0 1 -0.42,0.05 z"
       style="fill:#a6a6a6"
       id="path4121" />
    <path
       d="m 247.4,319.78 a 5.08,5.08 0 0 1 -3.72,-1.83 c -1,-1.15 -2.41,-3.79 -1,-8.58 1.32,-4.39 4.52,-6.2 7,-5.73 1.9,0.36 4,2.29 3.64,6.54 a 1.2,1.2 0 0 1 -1.31,1.1 1.22,1.22 0 0 1 -1.1,-1.31 c 0.19,-2.21 -0.46,-3.73 -1.68,-4 -1.38,-0.26 -3.33,1.07 -4.24,4.06 -0.82,2.73 -0.65,5 0.49,6.31 a 2.52,2.52 0 0 0 2.05,1 1.21,1.21 0 0 1 0.33,2.39 3.91,3.91 0 0 1 -0.46,0.05 z"
       style="fill:#a6a6a6"
       id="path4123" />
  </g>
  <g
     id="g4165"
     transform="translate(38)"
     style="opacity:0.79568326">
    <path
       d="m 414.77,330.26 a 78.59,78.59 0 0 1 1.81,-12.76 28.4,28.4 0 0 1 4.56,-10.76 13.69,13.69 0 0 1 8.94,-5.57 c 3.5,-0.43 6.78,1.13 9.4,3.34 3.25,2.73 5.73,6.35 8.06,9.85 a 119.36,119.36 0 0 1 7,12.19 0.12,0.12 0 0 1 -0.21,0.11 75.19,75.19 0 0 0 -6.22,-10.19 63.46,63.46 0 0 0 -7.17,-8.68 c -2.4,-2.35 -5.46,-4.54 -8.94,-4.65 a 11,11 0 0 0 -8.74,4.5 c -2.34,3 -3.52,6.71 -4.41,10.35 A 76.4,76.4 0 0 0 417,330.14 c -0.69,8.4 -0.87,16.86 -1.06,25.29 q -0.16,7.15 -0.22,14.31 l -0.06,7.25 a 44.05,44.05 0 0 1 -0.28,7 0.48,0.48 0 0 1 -0.92,0 40.75,40.75 0 0 1 -0.32,-6.63 q -0.06,-3.43 -0.09,-6.87 -0.06,-6.68 -0.05,-13.36 c 0.05,-8.97 0.16,-17.95 0.77,-26.87 z"
       style="fill:#263238"
       id="path4127" />
    <path
       d="m 426.78,323.93 c 0.45,-2.38 1.25,-5.48 2.6,-7.32 2.44,-3.31 5.06,-1.87 2.63,1.79 a 21.89,21.89 0 0 0 -3.41,9 c 0,0 4.09,5.84 9,8.72 -0.21,-2.25 -0.85,-5.7 -0.41,-9 0.95,-7.21 5.31,-6.81 4.23,-1.07 a 49.62,49.62 0 0 0 -1,11.59 24.54,24.54 0 0 0 5.27,2.59 c -0.28,-0.84 -0.58,-1.84 -0.91,-3.06 -1.76,-6.47 2.56,-8.49 2.7,-4.85 a 50.09,50.09 0 0 0 1.68,9.18 c 2.37,0.8 4.33,1.34 5.53,1.76 a 20.13,20.13 0 0 1 8.09,5.53 25.43,25.43 0 0 0 5.52,-7.13 c -1.51,-1.3 -3.89,-3.23 -7.2,-5.57 -6.21,-4.38 -4,-9.91 0.87,-6.47 3.55,2.48 6.3,7.08 7.55,9.44 a 38.13,38.13 0 0 0 2.82,-12.92 c -4.88,-4.57 -16.93,-10.95 -13.3,-10.95 3.27,0 10.59,4.79 13.27,6.64 a 34.41,34.41 0 0 0 -0.41,-3.75 c -4.59,-3 -19.51,-7.69 -17.13,-9 2.61,-1.47 13,3.34 16.16,4.87 a 18.73,18.73 0 0 0 -2.75,-5.71 c -6.35,-8.49 -17.78,-11.42 -22.77,-9.8 -3.53,1.14 -2.5,10.1 -3.26,9.8 -14.15,-5.75 -20.59,-1.72 -15.37,15.69 z m 34.77,-1 c 1,-1.21 5.66,2.36 4.32,4.32 -1.34,1.96 -5.62,-2.75 -4.32,-4.31 z m -24.32,-7.64 c 1.22,0.78 -0.59,5.31 -2.48,3.94 -1.6,-1.16 1.25,-4.71 2.48,-3.93 z"
       style="fill:#ffc727"
       id="path4129" />
    <path
       d="m 439.08,316.69 c 0.64,-1.27 1.31,-2.52 2,-3.74 a 22.12,22.12 0 0 1 2.35,-3.4 l -0.61,-0.75 c -0.08,-0.1 0.06,-0.24 0.15,-0.14 0.24,0.27 0.46,0.55 0.69,0.83 a 0.18,0.18 0 0 1 0.1,0.11 c 0.88,1 1.7,2.13 2.49,3.24 a 36.61,36.61 0 0 1 4.12,1.19 c 1.39,0.47 2.77,1 4.12,1.52 0.15,0.06 0.08,0.3 -0.07,0.23 -1.33,-0.59 -2.69,-1.16 -4.08,-1.63 -1.39,-0.47 -2.65,-0.79 -4,-1.16 0.43,0.61 0.85,1.22 1.26,1.85 a 49.08,49.08 0 0 1 7.29,3 c 2.46,1.17 4.83,2.53 7.19,3.89 0.13,0.08 0,0.29 -0.13,0.21 a 79.22,79.22 0 0 0 -7.15,-3.7 c -2.28,-1.07 -4.64,-1.95 -6.94,-3 5.79,9 9.26,19.48 13.91,29.13 0.07,0.14 -0.15,0.26 -0.21,0.12 -1.42,-3.39 -3.05,-6.69 -4.6,-10 -1.38,-3 -2.74,-6 -4.13,-9 -0.4,-0.87 -0.82,-1.75 -1.24,-2.62 0.25,4.83 0.15,9.74 0.94,14.51 a 0.12,0.12 0 1 1 -0.24,0 c -0.33,-5.16 -1.24,-10.24 -1.21,-15.43 0,0 0,0 0,-0.07 q -1.47,-3 -3.16,-5.81 c -1.92,4.52 -3.94,9.11 -4.83,14 0,0.15 -0.27,0.08 -0.23,-0.07 1.3,-4.86 2.51,-9.73 4.86,-14.23 a 55.49,55.49 0 0 0 -4.08,-5.88 c -0.65,1.2 -1.47,2.34 -2.2,3.48 -0.73,1.14 -1.42,2.25 -2.08,3.41 a 48.32,48.32 0 0 0 -3.63,7.66 c -0.05,0.14 -0.29,0.07 -0.23,-0.07 1.2,-2.6 2.32,-5.18 3.58,-7.68 z"
       style="fill:#263238"
       id="path4131" />
    <path
       d="m 397.85,330.69 c 3.19,-4.19 6.82,-9.61 12.52,-10.37 5.5,-0.73 10.13,3.16 13.07,7.41 3.07,4.45 4.67,9.74 6.06,14.9 a 187.91,187.91 0 0 1 4,18.79 c 0.58,3.51 1,7 1.42,10.57 a 70.74,70.74 0 0 1 0.63,10.78 c 0,0.58 -0.94,0.73 -1.06,0.12 -0.56,-2.95 -0.84,-5.95 -1.22,-8.92 -0.38,-2.97 -0.82,-5.84 -1.32,-8.75 -1,-5.89 -2.23,-11.73 -3.71,-17.51 -1.3,-5.06 -2.49,-10.27 -4.69,-15 -2,-4.29 -5.27,-9.05 -10.06,-10.41 -6.55,-1.85 -11.94,3.86 -15.43,8.54 -0.06,0.1 -0.3,-0.03 -0.21,-0.15 z"
       style="fill:#263238"
       id="path4133" />
    <path
       d="m 377.37,337 v 0 c 0,0.76 0,1.52 0,2.26 a 13.27,13.27 0 0 1 6.2,-2.23 c 5.3,-0.31 4.77,3.68 1.24,3.68 a 20.14,20.14 0 0 0 -7.3,1.1 c 0.53,7 2.18,12.69 2.46,12.78 a 102.86,102.86 0 0 0 14,-1.1 c -1.18,-2.85 -4,-6.71 -2.45,-6.93 1.55,-0.22 3,3.15 3.71,6.74 a 67.17,67.17 0 0 0 10.29,-2.3 c -2.22,-2.11 -5.68,-4.78 -4.26,-5.78 1.42,-1 4.09,2.65 5.67,5.29 a 20.52,20.52 0 0 0 4.5,-2.23 c -2.91,-4.74 -10.47,-6 -9.32,-9.31 1.15,-3.31 8.05,1.67 11,8 3.94,-3.72 5.3,-9.17 5.13,-13.9 -3.25,-0.54 -9.58,-0.15 -9,-2.48 0.58,-2.33 5.09,-1.66 8.75,-0.11 a 13,13 0 0 0 -1.94,-5.28 c -3.23,-4.59 -14,0.53 -14,0.53 0,0 1.63,-10.52 -2.3,-12.54 -2.26,-1.16 -6.34,-1.34 -10.55,0.87 2.29,0.3 5,1.16 6.07,2.81 1.33,2.1 -1,3.1 -2.36,2.09 -1,-0.71 -2.76,-2.89 -6.14,-3.33 a 20.85,20.85 0 0 0 -4,4 20.38,20.38 0 0 0 -1.19,1.7 14.41,14.41 0 0 1 12.3,0.81 c 4.45,2.48 1.68,7.09 -2.16,5.07 -3.84,-2.02 -7.48,-4 -11.69,-3.17 a 29.48,29.48 0 0 0 -2.57,11.69 21,21 0 0 1 6.91,-2.92 c 4.6,-1 5.84,1.8 0.83,2.07 a 20,20 0 0 0 -7.83,2.12 z m 5.86,-7 c -0.24,-1.49 3,-1.76 3.48,-0.54 0.39,1 -3.24,1.98 -3.48,0.54 z m 27.13,9.45 c 0.34,-0.79 2.45,0.22 2.2,1.21 -0.33,1.28 -2.56,-0.47 -2.2,-1.25 z m -15.44,4.42 c 1.6,-0.55 3.86,3.47 2.11,4.28 -1.75,0.81 -3.41,-3.86 -2.11,-4.32 z"
       style="fill:#ffc727"
       id="path4135" />
    <path
       d="m 377.37,337 v 0 c 0,0.76 0,1.52 0,2.26 a 13.27,13.27 0 0 1 6.2,-2.23 c 5.3,-0.31 4.77,3.68 1.24,3.68 a 20.14,20.14 0 0 0 -7.3,1.1 c 0.53,7 2.18,12.69 2.46,12.78 a 102.86,102.86 0 0 0 14,-1.1 c -1.18,-2.85 -4,-6.71 -2.45,-6.93 1.55,-0.22 3,3.15 3.71,6.74 a 67.17,67.17 0 0 0 10.29,-2.3 c -2.22,-2.11 -5.68,-4.78 -4.26,-5.78 1.42,-1 4.09,2.65 5.67,5.29 a 20.52,20.52 0 0 0 4.5,-2.23 c -2.91,-4.74 -10.47,-6 -9.32,-9.31 1.15,-3.31 8.05,1.67 11,8 3.94,-3.72 5.3,-9.17 5.13,-13.9 -3.25,-0.54 -9.58,-0.15 -9,-2.48 0.58,-2.33 5.09,-1.66 8.75,-0.11 a 13,13 0 0 0 -1.94,-5.28 c -3.23,-4.59 -14,0.53 -14,0.53 0,0 1.63,-10.52 -2.3,-12.54 -2.26,-1.16 -6.34,-1.34 -10.55,0.87 2.29,0.3 5,1.16 6.07,2.81 1.33,2.1 -1,3.1 -2.36,2.09 -1,-0.71 -2.76,-2.89 -6.14,-3.33 a 20.85,20.85 0 0 0 -4,4 20.38,20.38 0 0 0 -1.19,1.7 14.41,14.41 0 0 1 12.3,0.81 c 4.45,2.48 1.68,7.09 -2.16,5.07 -3.84,-2.02 -7.48,-4 -11.69,-3.17 a 29.48,29.48 0 0 0 -2.57,11.69 21,21 0 0 1 6.91,-2.92 c 4.6,-1 5.84,1.8 0.83,2.07 a 20,20 0 0 0 -7.83,2.12 z m 5.86,-7 c -0.24,-1.49 3,-1.76 3.48,-0.54 0.39,1 -3.24,1.98 -3.48,0.54 z m 27.13,9.45 c 0.34,-0.79 2.45,0.22 2.2,1.21 -0.33,1.28 -2.56,-0.47 -2.2,-1.25 z m -15.44,4.42 c 1.6,-0.55 3.86,3.47 2.11,4.28 -1.75,0.81 -3.41,-3.86 -2.11,-4.32 z"
       style="opacity:0.1"
       id="path4137" />
    <path
       d="m 380.64,353.79 c 2.55,-3.84 5.08,-7.7 7.75,-11.46 q 1.86,-2.62 3.87,-5.14 l -0.55,-0.16 -0.94,-0.22 c -0.72,-0.16 -1.44,-0.3 -2.17,-0.41 a 20.76,20.76 0 0 0 -2.07,-0.22 11,11 0 0 0 -2.22,0 c -0.09,0 -0.1,-0.12 0,-0.12 0.74,0.07 1.5,0 2.24,0 0.74,0 1.44,0.08 2.15,0.16 0.71,0.08 1.34,0.17 2,0.3 l 1.09,0.25 a 4.91,4.91 0 0 1 0.66,0.17 q 2.06,-2.55 4.23,-5 a 47.27,47.27 0 0 0 -12.74,-4.74 c -0.07,0 0,-0.13 0,-0.12 a 44,44 0 0 1 12.93,4.61 c 0.8,-0.89 1.6,-1.78 2.41,-2.66 0.81,-0.88 1.87,-1.95 2.69,-3 0.06,-0.07 0.16,0 0.1,0.07 a 46.46,46.46 0 0 0 -3.18,3.53 v 0 a 46.05,46.05 0 0 1 4.63,4.09 c 1.5,1.47 3,3 4.39,4.53 0.05,0.06 0,0.14 -0.09,0.09 -1.4,-1.54 -2.86,-3 -4.4,-4.41 -1.54,-1.41 -3.15,-2.71 -4.7,-4.1 v 0 l -1.17,1.39 c -0.19,0.24 -0.39,0.47 -0.59,0.7 a 0.1,0.1 0 0 1 0,0.05 l -1.96,2.36 a 19.4,19.4 0 0 1 1.67,3.39 c 0.48,1.14 0.88,2.31 1.25,3.49 a 50.34,50.34 0 0 1 1.62,7.5 c 0,0.07 -0.11,0.1 -0.12,0 a 43.31,43.31 0 0 0 -1.8,-7.37 c -0.4,-1.23 -0.87,-2.43 -1.35,-3.63 -0.48,-1.2 -1,-2.15 -1.4,-3.25 l -1.68,2.05 -0.47,0.61 a 0.07,0.07 0 0 1 -0.06,0.1 v 0 c -1.73,2.19 -3.39,4.44 -5,6.71 a 2.37,2.37 0 0 1 0.18,0.53 c 0.08,0.28 0.16,0.58 0.23,0.87 a 18,18 0 0 1 0.33,1.78 c 0.07,0.56 0.12,1.13 0.15,1.69 a 15.29,15.29 0 0 0 0.05,1.92 c 0,0.1 -0.14,0.1 -0.11,0 a 6.71,6.71 0 0 0 -0.05,-1.79 c -0.06,-0.62 -0.14,-1.23 -0.25,-1.84 -0.11,-0.61 -0.23,-1.09 -0.36,-1.63 -0.07,-0.28 -0.14,-0.55 -0.22,-0.81 -0.08,-0.26 -0.11,-0.3 -0.15,-0.45 -0.75,1.07 -1.5,2.14 -2.24,3.23 -1.47,2.14 -2.92,4.29 -4.38,6.44 -0.1,0.13 -0.27,0.03 -0.2,-0.08 z"
       style="fill:#263238"
       id="path4139" />
    <path
       d="m 413.73,376.54 c 0.06,-2 0.37,-3.94 0.58,-5.89 0.21,-1.95 0.43,-3.92 0.64,-5.89 a 89.81,89.81 0 0 1 1.52,-11.34 16.5,16.5 0 0 1 4.62,-8.49 7.49,7.49 0 0 1 4.53,-2.16 7.74,7.74 0 0 1 4.8,1.48 16.75,16.75 0 0 1 4.05,4.26 42.62,42.62 0 0 1 3.15,5.12 c 0,0.07 -0.07,0.11 -0.11,0 a 26.22,26.22 0 0 0 -6.82,-7.64 8.07,8.07 0 0 0 -4.3,-1.79 5.84,5.84 0 0 0 -4.17,1.66 15.67,15.67 0 0 0 -4.4,7.79 78.78,78.78 0 0 0 -1.7,10.49 q -0.42,3.1 -0.82,6.23 c -0.27,2.06 -0.45,4.18 -0.88,6.22 a 0.35,0.35 0 0 1 -0.69,-0.05 z"
       style="fill:#263238"
       id="path4141" />
    <path
       d="m 423.39,361.29 a 11,11 0 0 0 2.13,2.19 c -0.32,-1.92 -0.71,-5.32 0.26,-7.13 1.5,-2.82 3.27,-1.42 2.38,1 a 20,20 0 0 0 -1.45,6.94 30.32,30.32 0 0 0 6.52,3.07 A 11.13,11.13 0 0 1 433,364 c 0.3,-3 2.6,-3 2,0.17 a 19.66,19.66 0 0 0 -0.31,3.68 67.15,67.15 0 0 0 10.16,2.29 29.67,29.67 0 0 0 4.2,-7.49 c -2.44,-0.61 -7.4,-0.75 -7.3,-2.5 0.14,-2.35 5,-0.54 7.76,1.17 a 18.68,18.68 0 0 0 0.84,-6.34 31.81,31.81 0 0 0 -6.75,-1.12 c -5,-0.43 -4.79,-3.29 -1.14,-3.22 2.7,0.05 6.11,1.7 7.72,2.55 -1.05,-6.85 -6.28,-11.25 -10.47,-11.42 -7.05,-0.28 -4.52,8.49 -4.52,8.49 0,0 -4.78,-3.36 -9.28,-3.27 -4.5,0.09 -7.34,7.6 -2.52,14.3 z m 18.83,-12.68 c -0.16,-1 3,-1.22 3.15,0 0.19,1.46 -2.99,1.01 -3.15,0 z m 5.06,10.29 c -0.06,-0.64 1.3,-0.75 1.6,0.06 0.21,0.53 -1.54,0.58 -1.6,-0.06 z m -16.93,0.6 c 1.06,0.15 1.67,3.95 -0.16,3.88 -1.4,-0.06 -0.74,-4 0.16,-3.88 z"
       style="fill:#ffc727"
       id="path4143" />
    <path
       d="m 431.82,363.72 c 0.18,-0.47 0.33,-1 0.48,-1.43 -0.13,0.49 -0.26,1 -0.35,1.47 a 0.07,0.07 0 1 1 -0.13,-0.04 z"
       style="fill:#263238"
       id="path4145" />
    <path
       d="m 433.68,357.62 c 0.33,-1 0.7,-1.94 1.08,-2.9 0.21,-0.51 0.41,-1 0.64,-1.51 a 5.86,5.86 0 0 1 0.63,-1.28 8.53,8.53 0 0 1 -0.57,-1.23 c 0,0 0,-0.07 0.06,0 a 13.11,13.11 0 0 1 1.37,2.13 c 0.2,0.33 0.39,0.67 0.58,1 a 9.81,9.81 0 0 1 1.19,0.19 c 0.42,0.07 0.84,0.16 1.26,0.25 l 1.26,0.3 c 0.41,0.09 0.82,0.23 1.25,0.3 0.09,0 0.05,0.17 0,0.13 a 8.55,8.55 0 0 0 -1.32,-0.35 c -0.4,-0.08 -0.81,-0.15 -1.22,-0.21 l -1.23,-0.15 -0.93,-0.08 c 0.16,0.3 0.34,0.59 0.5,0.89 0,0 0.05,0.09 0.08,0.14 a 3.83,3.83 0 0 1 1,0.12 c 0.36,0.06 0.73,0.13 1.09,0.21 0.73,0.17 1.47,0.34 2.19,0.54 1.53,0.43 3,0.92 4.54,1.41 0.08,0 0,0.15 -0.05,0.12 a 45.28,45.28 0 0 0 -4.56,-1.26 c -0.72,-0.16 -1.44,-0.33 -2.17,-0.48 l -1.08,-0.23 a 6.14,6.14 0 0 1 -0.85,-0.19 c 0.78,1.44 1.51,2.89 2.18,4.38 1.46,3.23 2.7,6.57 3.95,9.89 0,0.08 -0.1,0.13 -0.13,0 a 89.94,89.94 0 0 0 -4.2,-9.67 l -0.85,-1.71 a 3.59,3.59 0 0 0 -0.08,0.35 l -0.21,1.18 c -0.13,0.78 -0.26,1.57 -0.38,2.36 a 27.88,27.88 0 0 0 -0.57,4.9 c 0,0.1 -0.15,0.09 -0.13,0 0.12,-0.78 0.12,-1.6 0.17,-2.39 0.05,-0.79 0.11,-1.65 0.21,-2.47 0.1,-0.82 0.19,-1.58 0.32,-2.37 l 0.21,-1.18 a 2.43,2.43 0 0 1 0.22,-0.85 c -0.41,-0.83 -0.82,-1.66 -1.24,-2.49 -0.42,-0.83 -0.79,-1.54 -1.19,-2.31 -0.17,-0.33 -0.35,-0.66 -0.53,-1 a 12.26,12.26 0 0 1 -0.47,1.19 c -0.18,0.44 -0.36,0.89 -0.55,1.33 -0.4,1 -0.78,2 -1.15,3 -0.54,1.41 -1.13,2.86 -1.56,4.33 0.4,-1.44 0.76,-2.95 1.24,-4.33 z"
       style="fill:#263238"
       id="path4147" />
    <path
       d="m 432.3,362.29 c 0,-0.12 0.07,-0.23 0.11,-0.34 -0.04,0.11 -0.07,0.22 -0.11,0.34 z"
       style="fill:#263238"
       id="path4149" />
    <polygon
       points="449.08,422.44 451.29,389.78 452.15,377.11 397.6,377.11 398.46,389.78 400.68,422.44 "
       style="fill:#37474f"
       id="polygon4151" />
    <polygon
       points="398.46,389.78 451.29,389.78 452.15,377.11 397.6,377.11 "
       style="fill:#263238"
       id="polygon4153" />
    <rect
       x="394.16"
       y="371.98999"
       width="61.43"
       height="10.24"
       transform="rotate(180,424.875,377.11)"
       style="fill:#37474f"
       id="rect4155" />
    <rect
       x="436.66"
       y="422.44"
       width="8.5"
       height="5.3600001"
       style="fill:#37474f"
       id="rect4157" />
    <rect
       x="436.66"
       y="422.44"
       width="8.5"
       height="2.6800001"
       style="fill:#263238"
       id="rect4159" />
    <rect
       x="404.59"
       y="422.44"
       width="8.4899998"
       height="5.3600001"
       style="fill:#37474f"
       id="rect4161" />
    <rect
       x="404.59"
       y="422.44"
       width="8.4899998"
       height="2.6800001"
       style="fill:#263238"
       id="rect4163" />
  </g>
</svg>
