<?xml version="1.0" encoding="UTF-8" standalone="no"?>
<svg
   viewBox="0 0 500 500"
   version="1.1"
   id="svg483"
   sodipodi:docname="201.svg"
   inkscape:version="1.1.2 (0a00cf5339, 2022-02-04)"
   xmlns:inkscape="http://www.inkscape.org/namespaces/inkscape"
   xmlns:sodipodi="http://sodipodi.sourceforge.net/DTD/sodipodi-0.dtd"
   xmlns="http://www.w3.org/2000/svg"
   xmlns:svg="http://www.w3.org/2000/svg">
  <defs
     id="defs487" />
  <sodipodi:namedview
     id="namedview485"
     pagecolor="#ffffff"
     bordercolor="#666666"
     borderopacity="1.0"
     inkscape:pageshadow="2"
     inkscape:pageopacity="0.0"
     inkscape:pagecheckerboard="0"
     showgrid="false"
     inkscape:zoom="1.132"
     inkscape:cx="313.16254"
     inkscape:cy="250.4417"
     inkscape:window-width="1478"
     inkscape:window-height="800"
     inkscape:window-x="0"
     inkscape:window-y="0"
     inkscape:window-maximized="1"
     inkscape:current-layer="svg483" />
  <rect
     x="-246.56764"
     y="211.51587"
     width="142.96001"
     height="138.8"
     style="fill:#ffffff"
     id="rect116" />
  <g
     id="g10503"
     transform="translate(-8)">
    <polygon
       points="179.68,263.48 179.54,233.7 179.42,174.15 179.54,114.59 179.68,84.81 179.92,55.03 180.17,84.81 180.31,114.59 180.42,174.15 180.31,233.7 180.17,263.48 179.92,293.26 "
       style="fill:#ebebeb"
       id="polygon28"
       transform="matrix(0.375,0,0,0.375,328.38413,73.702707)" />
    <path
       d="m 392.17913,96.431457 0.78,11.861253 0.75,11.86124 1.425,23.72625 v 0 c -0.0975,4.40625 -0.24375,8.8125 -0.375,13.2225 l -0.375,13.21875 -0.375,13.25625 -0.43875,13.21875 0.25125,-13.22625 0.31125,-13.2225 0.31125,-13.2225 c 0.1125,-4.40625 0.195,-8.8125 0.32625,-13.2225 v 0 l -1.335,-23.73 -0.66375,-11.86874 z"
       style="fill:#ebebeb;stroke-width:0.375"
       id="path30" />
    <path
       d="m 389.61413,195.06395 1.09125,-12.82875 1.125,-12.825 c 0.7875,-8.55 1.54125,-17.1 2.35875,-25.64625 v 0.0637 l -3.555,-19.98375 -1.75125,-9.98999 -1.725,-9.9975 1.875,9.9675 1.8525,9.97124 3.64875,19.95375 v 0.0487 c -0.7725,8.55 -1.60125,17.0925 -2.4,25.63875 l -1.24875,12.8175 z"
       style="fill:#ebebeb;stroke-width:0.375"
       id="path32" />
    <path
       d="m 454.70288,174.6452 v 51.47625 h 31.125 V 174.6452 Z m 28.29,32.47875 h -25.46625 v -13.4025 h 25.46625 z m 0,-16.59375 h -25.46625 v -13.39875 h 25.46625 z"
       style="fill:#ebebeb;stroke-width:0.375"
       id="path36" />
    <rect
       x="485.82037"
       y="174.64522"
       width="12.4425"
       height="51.472496"
       style="fill:#dbdbdb;stroke-width:0.375"
       id="rect38" />
    <rect
       x="457.52661"
       y="177.13147"
       width="6.0524998"
       height="13.39875"
       style="fill:#dbdbdb;stroke-width:0.375"
       id="rect40" />
    <path
       d="m 483.18038,223.07645 h -25.68 V 209.9252 h 25.68 z m -25.305,-0.375 h 24.93 V 210.3002 h -24.93 z"
       style="fill:#dbdbdb;stroke-width:0.375"
       id="path42" />
    <rect
       x="466.76663"
       y="213.70522"
       width="5.0249996"
       height="2.5425"
       style="fill:#dbdbdb;stroke-width:0.375"
       id="rect44" />
    <path
       d="m 473.46788,216.2477 h -5.40375 v -2.535 h 5.40375 z m -5.02875,-0.375 h 4.65375 v -1.785 h -4.65375 z"
       style="fill:#dbdbdb;stroke-width:0.375"
       id="path46" />
    <rect
       x="457.52661"
       y="193.72522"
       width="6.0524998"
       height="13.39875"
       style="fill:#dbdbdb;stroke-width:0.375"
       id="rect48" />
    <path
       d="m 485.47538,153.07145 c 3.5625,3.4875 4.15875,8.88 3.40875,13.605 -0.0188,0.10875 -0.18375,0.0788 -0.18375,-0.0225 0,-1.07625 0.03,-2.14125 0.0263,-3.2025 l -0.0525,-0.1425 a 7.17,7.17 0 0 1 -2.31375,-2.48625 c -0.59625,-1.17 -0.82875,-2.49 -1.28625,-3.7125 -0.0413,-0.11625 0.0825,-0.0825 0.165,-0.0225 2.1675,1.5975 2.8575,3.31875 3.48,5.625 a 19.005,19.005 0 0 0 -0.375,-3.5775 c -0.46875,-2.17875 -1.395,-4.3425 -2.95875,-5.95875 a 0.06914659,0.06914659 0 1 1 0.09,-0.105 z"
       style="fill:#a6a6a6;stroke-width:0.375"
       id="path50" />
    <path
       d="m 484.80413,153.47645 c -0.61125,0.0225 -0.99375,1.00125 -1.47375,1.28625 a 0.4575,0.4575 0 0 1 -0.675,-0.105 c -0.4725,-0.66 0.17625,-1.4775 0.7875,-1.93125 -0.43875,0.18 -0.79875,0.495 -1.27125,0.585 a 0.44625,0.44625 0 0 1 -0.57375,-0.345 c -0.20625,-0.9 0.9225,-1.30125 1.69875,-1.32 -0.375,-0.2625 -1.455,-0.97125 -0.88125,-1.32 0.57375,-0.34875 1.84125,0.66375 2.25,0.9975 0.6075,0.49125 1.33125,1.22625 1.3575,1.995 0.0375,0.9 -0.74625,0.345 -1.21875,0.1575 z"
       style="fill:#dbdbdb;stroke-width:0.375"
       id="path52" />
    <path
       d="m 484.98413,153.62645 c -0.78375,-0.35625 -2.29125,0.1575 -2.41875,-0.13875 -0.25875,-0.60375 0.945,-1.01625 1.59375,-1.09875 -0.6,-0.16125 -1.74375,-0.42 -1.71,-0.99375 0.045,-0.705 1.75875,-0.10125 2.625,0.56625 1.095,0.83625 1.0875,1.64625 0.9075,1.8075 -0.2475,0.22125 -0.87,-0.0825 -0.9975,-0.1425 z"
       style="fill:#ebebeb;stroke-width:0.375"
       id="path54" />
    <path
       d="m 493.58663,152.72645 c -3.69,3.34875 -4.5,8.715 -3.9225,13.46625 0,0.10875 0.18,0.0863 0.18375,0 0.0413,-1.07625 0.0488,-2.14125 0.0937,-3.2025 0.0225,-0.0487 0.0375,-0.0937 0.06,-0.1425 a 7.125,7.125 0 0 0 2.4075,-2.39625 c 0.6375,-1.1475 0.9225,-2.45625 1.425,-3.66 0.045,-0.11625 -0.0825,-0.0863 -0.165,-0.0263 -2.22375,1.5 -2.98125,3.20625 -3.69,5.47875 a 18.9825,18.9825 0 0 1 0.51375,-3.5625 c 0.55125,-2.16 1.55625,-4.28625 3.18375,-5.8425 0.06,-0.075 -0.0263,-0.1725 -0.09,-0.1125 z"
       style="fill:#a6a6a6;stroke-width:0.375"
       id="path56" />
    <path
       d="m 494.23913,153.1577 c 0.61125,0.045 0.96,1.035 1.425,1.33875 a 0.45375,0.45375 0 0 0 0.67875,-0.0788 c 0.49875,-0.64125 -0.11625,-1.5 -0.7125,-1.96125 0.43125,0.19875 0.78,0.525 1.24875,0.63375 a 0.4425,0.4425 0 0 0 0.585,-0.3225 c 0.24,-0.8925 -0.87,-1.335 -1.64625,-1.38375 0.375,-0.24375 1.5,-0.915 0.93,-1.2825 -0.57,-0.3675 -1.875,0.5925 -2.29125,0.91125 -0.6225,0.46875 -1.3725,1.17375 -1.42875,1.9425 -0.0712,0.8925 0.73125,0.37125 1.21125,0.2025 z"
       style="fill:#dbdbdb;stroke-width:0.375"
       id="path58" />
    <path
       d="m 494.05913,153.3002 c 0.795,-0.32625 2.28,0.24375 2.41875,-0.0487 0.28125,-0.5925 -0.90375,-1.05 -1.54875,-1.155 0.60375,-0.13875 1.75875,-0.3525 1.74375,-0.93 0,-0.70875 -1.75125,-0.16875 -2.625,0.465 -1.125,0.795 -1.1475,1.605 -0.975,1.77375 0.22125,0.22875 0.85125,-0.0488 0.98625,-0.105 z"
       style="fill:#ebebeb;stroke-width:0.375"
       id="path60" />
    <path
       d="m 489.81038,161.56895 a 36.4275,36.4275 0 0 1 -1.14375,5.29875 0.13201119,0.13201119 0 0 1 -0.25875,-0.0525 c 0.24,-1.635 0.6825,-3.23625 0.92625,-4.875 a 24.47625,24.47625 0 0 0 0.3,-4.9875 c -0.1575,-2.74875 -0.90375,-5.67375 -2.69625,-7.82625 -0.0412,-0.0525 0.0412,-0.12375 0.0825,-0.075 3.5925,4.18875 3.0225,9.3225 3.01875,9.78375 0.51,-1.7325 1.03125,-3.72 2.955,-5.48625 0.0825,-0.0788 0.15,-0.0412 0.135,0.09 -0.345,3.21375 -1.2375,4.89375 -3.10125,6.615 -0.0712,0.51 -0.135,1.02375 -0.2175,1.515 z"
       style="fill:#a6a6a6;stroke-width:0.375"
       id="path62" />
    <path
       d="m 486.88913,149.60645 c -0.645,-0.285 -1.5375,0.53625 -2.17875,0.5925 a 0.525,0.525 0 0 1 -0.645,-0.45 c -0.16125,-0.9225 0.9225,-1.44 1.785,-1.60875 -0.54375,-0.03 -1.07625,0.1125 -1.60875,-0.03 a 0.51375,0.51375 0 0 1 -0.42375,-0.645 c 0.24,-1.03875 1.6125,-0.885 2.42625,-0.5175 -0.25875,-0.4575 -1.02,-1.73625 -0.25125,-1.81125 0.76875,-0.075 1.57875,1.61625 1.8375,2.17125 0.375,0.81375 0.75,1.9425 0.405,2.7525 -0.41625,0.94875 -0.9525,-0.0188 -1.34625,-0.45375 z"
       style="fill:#dbdbdb;stroke-width:0.375"
       id="path64" />
    <path
       d="m 487.00913,149.85395 c -0.63375,-0.75 -2.45625,-0.99 -2.4375,-1.36125 0.0337,-0.75 1.5,-0.58125 2.205,-0.3375 -0.54,-0.46875 -1.5975,-1.3125 -1.27125,-1.875 0.3975,-0.70875 1.875,0.78375 2.4375,1.90875 0.7125,1.42125 0.3,2.25 0.03,2.3325 -0.3825,0.0863 -0.87,-0.54 -0.96375,-0.6675 z"
       style="fill:#ebebeb;stroke-width:0.375"
       id="path66" />
    <path
       d="m 492.17663,162.5402 1.5825,12.105 h -9.64125 c 0.19875,-1.0725 1.995,-12.12 1.995,-12.12 z"
       style="fill:#ebebeb;stroke-width:0.375"
       id="path68" />
    <path
       d="m 453.82913,96.922708 h -63.3975 a 6.4725,6.4725 0 0 0 -6.4125,6.532502 V 233.9552 a 6.47625,6.47625 0 0 0 6.4125,6.5325 h 63.3975 a 6.48375,6.48375 0 0 0 6.42,-6.5325 V 103.45521 a 6.48,6.48 0 0 0 -6.42,-6.532502 z m 2.4075,133.001242 c 0,3.435 -2.5725,6.21375 -5.745,6.21375 h -56.715 c -3.18,0 -5.7525,-2.77875 -5.7525,-6.21375 V 108.40146 c -0.015,-6.9975 2.5725,-7.32375 5.7525,-7.32375 h 11.3625 c 0.66,0 1.2,0.75 1.2,1.68 v 0.40125 c 0,2.17875 1.1925,2.18625 2.655,2.18625 h 26.265 c 1.4775,0 2.6625,0 2.6625,-2.18625 v -0.41625 c 0,-0.93 0.5325,-1.68 1.20375,-1.68 h 11.35875 c 3.1725,0 5.745,0.93 5.745,7.33875 z"
       style="fill:#37474f;stroke-width:0.375"
       id="path77" />
    <path
       d="m 456.23663,108.40146 v 121.52249 c 0,3.435 -2.5725,6.21375 -5.745,6.21375 h -56.715 c -3.18,0 -5.7525,-2.77875 -5.7525,-6.21375 V 108.40146 c -0.015,-6.9975 2.5725,-7.32375 5.7525,-7.32375 h 11.3625 c 0.66,0 1.2,0.75 1.2,1.68 v 0.40125 c 0,2.17875 1.1925,2.18625 2.655,2.18625 h 26.265 c 1.4775,0 2.6625,0 2.6625,-2.18625 v -0.41625 c 0,-0.93 0.5325,-1.68 1.20375,-1.68 h 11.35875 c 3.18,0.015 5.7525,0.93 5.7525,7.33875 z"
       style="fill:#ebebeb;stroke-width:0.375"
       id="path79" />
    <path
       d="m 456.23663,108.40146 v 51.08249 h -68.2275 v -51.08249 c 0,-6.9975 2.5875,-7.32375 5.7675,-7.32375 h 11.3625 c 0.66,0 1.2,0.75 1.2,1.68 v 0.40125 c 0,2.17875 1.1925,2.18625 2.655,2.18625 h 26.265 c 1.4775,0 2.6625,0 2.6625,-2.18625 v -0.41625 c 0,-0.93 0.5325,-1.68 1.20375,-1.68 h 11.35875 c 3.18,0.015 5.7525,0.93 5.7525,7.33875 z"
       style="fill:#bbeae6;stroke-width:0.375"
       id="path81" />
    <g
       id="freepik--u5Zjqx--inject-87"
       transform="matrix(0.375,0,0,0.375,328.38413,73.702707)">
      <path
         d="m 199.45,80.24 -0.29,0.29 c -0.06,0 -0.11,0.11 -0.17,0.17 a 3.9,3.9 0 0 0 -2.82,-1.17 3.86,3.86 0 0 0 -2.82,1.17 l -0.16,-0.17 -0.29,-0.29 v 0 0 l 0.37,-0.32 a 4.06,4.06 0 0 1 0.86,-0.55 4.18,4.18 0 0 1 1.13,-0.38 c 0.19,0 0.38,0 0.57,-0.08 h 0.5 0.38 a 4.51,4.51 0 0 1 1,0.25 4.58,4.58 0 0 1 0.71,0.33 4.48,4.48 0 0 1 0.67,0.47 l 0.31,0.28 z"
         style="fill:#ffffff"
         id="path83" />
      <path
         d="m 194.27,81.62 c -0.15,-0.16 -0.3,-0.31 -0.46,-0.46 a 3.32,3.32 0 0 1 4.71,0 l -0.46,0.46 a 2.68,2.68 0 0 0 -3.79,0 z"
         style="fill:#ffffff"
         id="path85" />
      <path
         d="m 197.6,82.08 -0.46,0.46 a 1.31,1.31 0 0 0 -1,-0.4 1.35,1.35 0 0 0 -1,0.4 l -0.46,-0.46 a 2,2 0 0 1 2.92,0 z"
         style="fill:#ffffff"
         id="path87" />
      <path
         d="m 196.58,83 a 0.41,0.41 0 0 1 -0.41,0.41 0.42,0.42 0 1 1 0,-0.83 0.41,0.41 0 0 1 0.41,0.42 z"
         style="fill:#ffffff"
         id="path89" />
    </g>
    <path
       d="m 451.12163,105.10896 h -3.6825 v -1.7025 h 3.6825 z m -3.495,-0.1875 h 3.3075 v -1.3275 h -3.3 z"
       style="fill:#ffffff;stroke-width:0.375"
       id="path102" />
    <rect
       x="447.74661"
       y="103.69521"
       width="2.37375"
       height="1.125"
       style="fill:#ffffff;stroke-width:0.375"
       id="rect104" />
    <rect
       x="451.12161"
       y="103.80396"
       width="0.32625002"
       height="0.91125"
       style="fill:#ffffff;stroke-width:0.375"
       id="rect106" />
    <path
       d="m 430.00913,145.3052 a 14.73375,14.73375 0 0 1 -4.33125,1.815 15.03,15.03 0 1 1 4.33125,-1.815 z"
       style="fill:#ffffff;stroke-width:0.375"
       id="path110" />
    <path
       d="m 426.69788,130.81145 a 4.57125,4.57125 0 1 1 -4.56375,-4.57125 4.57125,4.57125 0 0 1 4.56375,4.57125 z"
       style="fill:#bbeae6;stroke-width:0.375"
       id="path112" />
    <path
       d="m 430.00913,143.4227 v 1.875 a 14.73375,14.73375 0 0 1 -4.33125,1.815 14.955,14.955 0 0 1 -11.46375,-1.81875 v -1.875 a 7.8975,7.8975 0 1 1 15.795,0 z"
       style="fill:#bbeae6;stroke-width:0.375"
       id="path114" />
    <path
       d="m 420.68663,177.43895 a 0.34125,0.34125 0 1 0 -0.67875,0 v 0.6075 0 0 a 0.045,0.045 0 0 1 -0.0263,0.0263 0.04125,0.04125 0 0 1 -0.0263,0 h -0.0188 v 0 0 0 0 0 0 0 0 -0.6075 a 0.34125,0.34125 0 1 0 -0.67875,0 v 0.6 a 0.0525,0.0525 0 0 1 -0.0225,0.045 v 0 h -0.0225 a 0.05625,0.05625 0 0 1 -0.045,-0.0412 v -1.005 a 0.0525,0.0525 0 0 1 0.0525,-0.0525 0.0525,0.0525 0 0 1 0.0525,0.0525 v 0.105 a 0.4425,0.4425 0 0 1 0.34125,-0.1575 0.45,0.45 0 0 0 0.7875,0 0.44625,0.44625 0 0 1 0.44625,0.44625 v 0.6 a 0.04875,0.04875 0 0 1 -0.0525,0.0525 0.0525,0.0525 0 0 1 -0.0525,-0.0525 z"
       style="fill:#263238;stroke-width:0.375"
       id="path164" />
    <path
       d="m 422.17538,177.0452 v 0.99375 a 0.0525,0.0525 0 0 1 -0.0525,0.0525 0.05625,0.05625 0 0 1 -0.0563,-0.0525 v -0.165 a 0.50625,0.50625 0 0 1 -0.4125,0.2175 0.55125,0.55125 0 0 1 0,-1.1025 0.50625,0.50625 0 0 1 0.4125,0.2175 v -0.16125 a 0.05625,0.05625 0 0 1 0.0563,-0.0563 0.05625,0.05625 0 0 1 0.0525,0.0563 z m -0.10875,0.495 a 0.4125,0.4125 0 1 0 -0.4125,0.4425 0.43125,0.43125 0 0 0 0.4125,-0.4425 z"
       style="fill:#263238;stroke-width:0.375"
       id="path166" />
    <path
       d="m 422.64788,176.6852 a 0.05625,0.05625 0 0 1 0.0525,-0.0563 0.05625,0.05625 0 0 1 0.0562,0.0563 v 0.0525 a 0.05625,0.05625 0 0 1 -0.0562,0.0563 0.05625,0.05625 0 0 1 -0.0525,-0.0563 z m 0,0.375 a 0.0525,0.0525 0 0 1 0.0525,-0.0563 0.05625,0.05625 0 0 1 0.0562,0.0563 v 0.99375 a 0.05625,0.05625 0 0 1 -0.0562,0.0525 0.0525,0.0525 0 0 1 -0.0525,-0.0525 z"
       style="fill:#263238;stroke-width:0.375"
       id="path168" />
    <path
       d="m 423.25913,176.5727 a 0.05625,0.05625 0 0 1 0.0525,-0.0563 0.05625,0.05625 0 0 1 0.0563,0.0563 v 1.46625 a 0.0525,0.0525 0 0 1 -0.0563,0.0525 0.0525,0.0525 0 0 1 -0.0525,-0.0525 z"
       style="fill:#263238;stroke-width:0.375"
       id="path170" />
    <path
       d="m 423.87788,177.86645 a 0.1125,0.1125 0 1 1 0,0.225 0.1125,0.1125 0 0 1 0,-0.225 z"
       style="fill:#263238;stroke-width:0.375"
       id="path172" />
    <path
       d="m 424.18163,177.5402 a 0.56625,0.56625 0 0 1 0.91875,-0.4275 0.0525,0.0525 0 0 1 0,0.075 0.05625,0.05625 0 0 1 -0.075,0 0.45,0.45 0 1 0 -0.285,0.7875 0.465,0.465 0 0 0 0.285,-0.0937 0.05625,0.05625 0 0 1 0.075,0 0.05625,0.05625 0 0 1 0,0.0787 0.58125,0.58125 0 0 1 -0.34875,0.11625 0.555,0.555 0 0 1 -0.57,-0.53625 z"
       style="fill:#263238;stroke-width:0.375"
       id="path174" />
    <path
       d="m 425.98163,176.98895 a 0.55125,0.55125 0 1 1 -0.52125,0.55125 0.54,0.54 0 0 1 0.52125,-0.55125 z m 0,0.99375 a 0.43125,0.43125 0 0 0 0.41625,-0.4425 0.41625,0.41625 0 1 0 -0.82875,0 0.4275,0.4275 0 0 0 0.4125,0.4425 z"
       style="fill:#263238;stroke-width:0.375"
       id="path176" />
    <path
       d="m 428.50913,177.43895 a 0.345,0.345 0 0 0 -0.34125,-0.34125 0.3375,0.3375 0 0 0 -0.3375,0.34125 v 0.6075 0 0 a 0.045,0.045 0 0 1 -0.0263,0.0263 0.04125,0.04125 0 0 1 -0.0263,0 h -0.0187 v 0 0 0 0 0 0 0 0 -0.6075 a 0.34125,0.34125 0 1 0 -0.67875,0 v 0.6 a 0.04875,0.04875 0 0 1 -0.0263,0.045 v 0 h -0.0225 a 0.05625,0.05625 0 0 1 -0.045,-0.0412 v -1.005 a 0.0525,0.0525 0 0 1 0.0525,-0.0525 0.0525,0.0525 0 0 1 0.0525,0.0525 v 0.105 a 0.4425,0.4425 0 0 1 0.34125,-0.1575 0.45,0.45 0 0 0 0.7875,0 0.44625,0.44625 0 0 1 0.44625,0.44625 v 0.6 a 0.0525,0.0525 0 0 1 -0.105,0 z"
       style="fill:#263238;stroke-width:0.375"
       id="path178" />
    <polygon
       points="291.54,281.93 277.69,282.03 250,282.12 222.31,282.03 208.46,281.92 194.62,281.74 208.46,281.56 222.31,281.45 250,281.37 277.69,281.45 291.54,281.56 305.38,281.74 "
       style="fill:#dbdbdb"
       id="polygon180"
       transform="matrix(0.375,0,0,0.375,328.38413,73.702707)" />
    <polygon
       points="291.54,315.68 277.69,315.78 250,315.87 222.31,315.78 208.46,315.68 194.62,315.5 208.46,315.31 222.31,315.21 250,315.12 277.69,315.21 291.54,315.31 305.38,315.5 "
       style="fill:#dbdbdb"
       id="polygon220"
       transform="matrix(0.375,0,0,0.375,328.38413,73.702707)" />
    <rect
       x="406.86038"
       y="201.52896"
       width="30.547501"
       height="9.6037502"
       style="fill:#bbeae6;stroke-width:0.375"
       id="rect224" />
    <path
       d="m 420.60788,205.7027 a 1.2375,1.2375 0 0 1 0.34125,0.855 1.2225,1.2225 0 0 1 -0.34125,0.85125 1.09875,1.09875 0 0 1 -0.80625,0.375 1.125,1.125 0 0 1 -0.82875,-0.375 1.215,1.215 0 0 1 -0.33375,-0.85125 1.23,1.23 0 0 1 0.33375,-0.855 1.125,1.125 0 0 1 0.82875,-0.375 1.095,1.095 0 0 1 0.80625,0.375 z m -0.045,0.855 a 0.88125,0.88125 0 0 0 -0.22875,-0.5925 0.75,0.75 0 0 0 -0.5325,-0.24 0.75,0.75 0 0 0 -0.5475,0.24 0.8625,0.8625 0 0 0 -0.22875,0.5925 0.8325,0.8325 0 0 0 0.22875,0.585 0.75,0.75 0 0 0 0.5475,0.24375 0.72375,0.72375 0 0 0 0.5325,-0.24375 0.8475,0.8475 0 0 0 0.22875,-0.585 z"
       style="fill:#ffffff;stroke-width:0.375"
       id="path228" />
    <path
       d="m 421.50788,206.56145 a 1.23,1.23 0 0 1 1.245,-1.21875 1.25625,1.25625 0 0 1 0.7725,0.2625 0.19125,0.19125 0 0 1 0.0337,0.27375 0.195,0.195 0 0 1 -0.27,0.03 0.88125,0.88125 0 0 0 -0.53625,-0.18375 0.8475,0.8475 0 0 0 -0.6075,0.2475 0.81,0.81 0 0 0 -0.25125,0.58875 0.79875,0.79875 0 0 0 0.25125,0.5775 0.8325,0.8325 0 0 0 0.6075,0.2475 0.93,0.93 0 0 0 0.465,-0.1275 v -0.46125 h -0.48375 a 0.195,0.195 0 0 1 -0.19125,-0.195 0.1875,0.1875 0 0 1 0.19125,-0.1875 h 0.67125 a 0.19125,0.19125 0 0 1 0.195,0.1875 v 0.75 c 0,0.0263 0,0.0375 0,0.06 v 0 0 a 0.18375,0.18375 0 0 1 -0.0637,0.0825 1.2525,1.2525 0 0 1 -0.75,0.2625 1.22625,1.22625 0 0 1 -1.27875,-1.19625 z"
       style="fill:#ffffff;stroke-width:0.375"
       id="path230" />
    <path
       d="m 424.38413,205.59395 a 0.18,0.18 0 0 1 0.18375,-0.18375 0.1875,0.1875 0 0 1 0.19125,0.18375 v 1.98375 a 0.19125,0.19125 0 0 1 -0.19125,0.1875 0.18375,0.18375 0 0 1 -0.18375,-0.1875 z"
       style="fill:#ffffff;stroke-width:0.375"
       id="path232" />
    <path
       d="m 425.76038,207.5777 a 0.1875,0.1875 0 1 1 -0.375,0 v -1.96125 0 a 0.17625,0.17625 0 0 1 0.075,-0.15375 0.18375,0.18375 0 0 1 0.255,0.0412 l 1.09125,1.5 v -1.39125 a 0.1875,0.1875 0 0 1 0.375,0 v 1.965 a 0.1875,0.1875 0 0 1 -0.18375,0.1875 0.17625,0.17625 0 0 1 -0.13875,-0.0675 l -0.0188,-0.0225 -1.08,-1.5 z"
       style="fill:#ffffff;stroke-width:0.375"
       id="path234" />
    <path
       d="m 420.37913,215.6552 v -0.51375 a 0.05625,0.05625 0 0 1 0.1125,0 v 0.16125 a 0.51,0.51 0 0 1 0.41625,-0.21375 0.53625,0.53625 0 0 1 0.5325,0.54375 0.54375,0.54375 0 0 1 -0.5325,0.55125 0.51375,0.51375 0 0 1 -0.41625,-0.2175 v 0.63 a 0.05625,0.05625 0 0 1 -0.1125,0 z m 0.1125,-0.0225 a 0.42,0.42 0 1 0 0.84,0 0.42,0.42 0 1 0 -0.84,0 z"
       style="fill:#263238;stroke-width:0.375"
       id="path248" />
    <path
       d="m 422.79038,215.14145 v 0.99375 a 0.05625,0.05625 0 1 1 -0.10875,0 v -0.165 a 0.51,0.51 0 0 1 -0.4125,0.22125 0.55125,0.55125 0 0 1 0,-1.1025 0.50625,0.50625 0 0 1 0.4125,0.21375 v -0.16125 a 0.0525,0.0525 0 0 1 0.0525,-0.0525 0.05625,0.05625 0 0 1 0.0563,0.0525 z m -0.10875,0.49875 a 0.41625,0.41625 0 1 0 -0.4125,0.4425 0.43125,0.43125 0 0 0 0.4125,-0.4425 z"
       style="fill:#263238;stroke-width:0.375"
       id="path250" />
    <path
       d="m 423.18038,215.95895 a 0.0525,0.0525 0 0 1 0.0788,0 0.5775,0.5775 0 0 0 0.3375,0.1275 0.3225,0.3225 0 0 0 0.20625,-0.0675 0.16875,0.16875 0 0 0 0.0863,-0.135 0.1725,0.1725 0 0 0 -0.0788,-0.135 0.55125,0.55125 0 0 0 -0.23625,-0.0825 v 0 a 0.61875,0.61875 0 0 1 -0.2475,-0.0863 0.22875,0.22875 0 0 1 -0.12,-0.19875 0.2775,0.2775 0 0 1 0.12,-0.2175 0.4875,0.4875 0 0 1 0.26625,-0.0712 0.6075,0.6075 0 0 1 0.33,0.11625 0.06,0.06 0 0 1 0,0.0788 0.0525,0.0525 0 0 1 -0.075,0 0.48375,0.48375 0 0 0 -0.27,-0.10875 0.3225,0.3225 0 0 0 -0.20625,0.06 0.1725,0.1725 0 0 0 -0.0712,0.1275 0.1275,0.1275 0 0 0 0.0637,0.10875 0.53625,0.53625 0 0 0 0.225,0.0787 v 0 a 0.6975,0.6975 0 0 1 0.26625,0.09 0.2625,0.2625 0 0 1 0.12375,0.225 0.2775,0.2775 0 0 1 -0.12375,0.22125 0.46125,0.46125 0 0 1 -0.27375,0.09 0.6825,0.6825 0 0 1 -0.40875,-0.1575 0.05625,0.05625 0 0 1 0.007,-0.0637 z"
       style="fill:#263238;stroke-width:0.375"
       id="path252" />
    <path
       d="m 424.26788,215.95895 a 0.04875,0.04875 0 0 1 0.075,0 0.58875,0.58875 0 0 0 0.3375,0.1275 0.33375,0.33375 0 0 0 0.21,-0.0675 0.15375,0.15375 0 0 0 0,-0.27 0.55125,0.55125 0 0 0 -0.23625,-0.0825 v 0 a 0.61875,0.61875 0 0 1 -0.2475,-0.0863 0.22875,0.22875 0 0 1 -0.12,-0.19875 0.2775,0.2775 0 0 1 0.12,-0.2175 0.5025,0.5025 0 0 1 0.27,-0.0712 0.6075,0.6075 0 0 1 0.32625,0.11625 0.05625,0.05625 0 0 1 0,0.0788 0.04875,0.04875 0 0 1 -0.0713,0 0.50625,0.50625 0 0 0 -0.27,-0.10875 0.33375,0.33375 0 0 0 -0.21,0.06 0.1725,0.1725 0 0 0 -0.0713,0.1275 0.135,0.135 0 0 0 0.0637,0.10875 0.53625,0.53625 0 0 0 0.225,0.0787 v 0 a 0.75,0.75 0 0 1 0.27,0.09 0.27,0.27 0 0 1 0.12375,0.225 0.28125,0.28125 0 0 1 -0.1275,0.22125 0.4425,0.4425 0 0 1 -0.27375,0.09 0.6825,0.6825 0 0 1 -0.40875,-0.1575 0.0525,0.0525 0 0 1 0.015,-0.0637 z"
       style="fill:#263238;stroke-width:0.375"
       id="path254" />
    <path
       d="m 425.78288,216.1802 c 0,0 0,0 -0.0225,-0.0225 l -0.4125,-0.98625 a 0.06,0.06 0 0 1 0.0263,-0.0712 0.05625,0.05625 0 0 1 0.0713,0.03 l 0.375,0.87 0.25125,-0.6075 a 0.06,0.06 0 0 1 0.10875,0 l 0.25125,0.6075 0.375,-0.87 a 0.0525,0.0525 0 0 1 0.0675,-0.03 0.05625,0.05625 0 0 1 0.03,0.0712 l -0.4125,0.97875 a 0.0825,0.0825 0 0 1 -0.0188,0.03 h -0.0262 v 0 a 0.06,0.06 0 0 1 -0.045,-0.0338 v 0 l -0.25875,-0.61125 -0.255,0.6075 v 0 a 0.05625,0.05625 0 0 1 -0.0487,0.0337 h -0.0188 z"
       style="fill:#263238;stroke-width:0.375"
       id="path256" />
    <path
       d="m 427.75913,215.0777 a 0.55125,0.55125 0 1 1 -0.52125,0.55125 0.54,0.54 0 0 1 0.52125,-0.55125 z m 0,0.99375 a 0.44625,0.44625 0 1 0 -0.4125,-0.4425 0.43125,0.43125 0 0 0 0.4125,0.45375 z"
       style="fill:#263238;stroke-width:0.375"
       id="path258" />
    <path
       d="m 428.65913,215.1452 a 0.0525,0.0525 0 0 1 0.0562,-0.0562 0.0525,0.0525 0 0 1 0.0488,0.0562 v 0.24375 l 0.0187,-0.03 a 0.53625,0.53625 0 0 1 0.43875,-0.27 0.05625,0.05625 0 0 1 0.0562,0.0562 0.05625,0.05625 0 0 1 -0.0562,0.0525 0.40125,0.40125 0 0 0 -0.31875,0.18 0.9075,0.9075 0 0 0 -0.13125,0.255 c 0,0 0,0 0,0 v 0.48375 a 0.0525,0.0525 0 0 1 -0.0488,0.0563 0.0525,0.0525 0 0 1 -0.0562,-0.0563 z"
       style="fill:#263238;stroke-width:0.375"
       id="path260" />
    <path
       d="m 430.47038,215.9777 a 0.5325,0.5325 0 0 1 -0.42375,0.21375 0.55125,0.55125 0 0 1 0,-1.1025 0.52125,0.52125 0 0 1 0.42375,0.21375 v -0.63375 a 0.05625,0.05625 0 0 1 0.1125,0 v 1.46625 a 0.05625,0.05625 0 0 1 -0.1125,0 z m 0,-0.31875 v -0.0375 a 0.43875,0.43875 0 1 0 0,0.0375 z"
       style="fill:#263238;stroke-width:0.375"
       id="path262" />
    <path
       d="m 431.32913,215.5427 v 0 a 0.0525,0.0525 0 0 1 0.0525,-0.0525 0.375,0.375 0 1 0 0,-0.75 0.375,0.375 0 0 0 -0.32625,0.19125 0.06,0.06 0 0 1 -0.075,0.0187 0.04875,0.04875 0 0 1 0,-0.0712 0.47625,0.47625 0 0 1 0.41625,-0.24375 0.4845669,0.4845669 0 0 1 0.0562,0.9675 v 0.225 a 0.05625,0.05625 0 0 1 -0.0562,0.0525 0.0525,0.0525 0 0 1 -0.0525,-0.0525 z m 0,0.5475 a 0.05625,0.05625 0 1 1 0.10875,0 v 0.0487 a 0.05625,0.05625 0 0 1 -0.0563,0.0525 0.0525,0.0525 0 0 1 -0.0525,-0.0525 z"
       style="fill:#263238;stroke-width:0.375"
       id="path264" />
    <path
       d="m 425.71538,102.60771 h -7.16625 a 0.4425,0.4425 0 0 1 -0.4425,-0.4425 v 0 a 0.4425,0.4425 0 0 1 0.4425,-0.4425 h 7.16625 a 0.4425,0.4425 0 0 1 0.4425,0.4425 v 0 a 0.4425,0.4425 0 0 1 -0.4425,0.4425 z"
       style="fill:#ffffff;stroke-width:0.375"
       id="path266" />
    <path
       d="m 456.00038,122.23895 -0.15,0.0375 a 0.09,0.09 0 0 1 0.0263,-0.045 v 0 z"
       style="fill:#263238;stroke-width:0.375"
       id="path269" />
    <path
       d="m 467.63663,140.4527 v 0"
       style="fill:none;stroke:#ff98b9;stroke-width:0px;stroke-linecap:round;stroke-linejoin:round"
       id="path271" />
    <rect
       x="460.24536"
       y="134.01396"
       width="0.0037499999"
       height="2.6399999"
       style="fill:#dd6a57;stroke-width:0.375"
       id="rect273" />
    <path
       d="m 460.24913,134.01395 v 3.345 c 0,-0.0412 0,-0.0863 0,-0.13125 z"
       style="fill:#dd6a57;stroke-width:0.375"
       id="path275" />
    <path
       d="m 467.63663,140.4527 v 0"
       style="fill:none;stroke:#ff98b9;stroke-width:0px;stroke-linecap:round;stroke-linejoin:round"
       id="path277" />
    <path
       d="m 460.31663,230.57645 h -0.0675 v -0.0487 z"
       style="fill:#dd6a57;stroke-width:0.375"
       id="path279" />
    <path
       d="m 475.80413,233.7752 c -0.825,-0.375 -18.975,-16.785 -19.27125,-17.85 -0.11625,-0.40125 2.1225,-3.18375 4.92375,-6.4725 0.60375,-0.70875 7.66125,-12 7.66125,-12 l 12.71625,10.08375 -8.6475,12.48375 c 0,0 4.125,9.3975 4.335,10.60125 0.21,1.20375 -0.8925,3.5175 -1.7175,3.15375 z"
       style="fill:#dd6a57;stroke-width:0.375"
       id="path281" />
    <path
       d="m 476.03663,226.6652 a 35.0325,35.0325 0 0 1 1.5,3.94125 c 0.195,1.20375 -0.8925,3.5325 -1.7175,3.16875 -0.825,-0.36375 -18.97875,-16.785 -19.27125,-17.84625 -0.0937,-0.33 1.3575,-2.22375 3.40875,-4.68 3.6675,4.26 15.2325,17.52 16.08,16.28625 a 1.64625,1.64625 0 0 0 0,-0.87 z"
       style="fill:#263238;stroke-width:0.375"
       id="path283" />
    <path
       d="m 462.66788,207.33395 12.8625,10.6125 c 0,0 17.89125,-24.91125 18.405,-34.01625 0.375,-7.00125 -9.9975,-20.0475 -17.055,-31.215 -0.6825,-1.08375 -0.26625,-5.19375 -0.24,-5.88 l -13.98375,0.0263 c -0.16875,1.575 -1.26375,9.49875 1.09125,13.3575 4.845,7.935 12.6675,19.45125 12.9675,21.945 0.3,2.49375 -14.0475,25.17 -14.0475,25.17 z"
       style="fill:#37474f;stroke-width:0.375"
       id="path285" />
    <path
       d="m 476.35913,214.04645 c -2.055,-1.74 -1.44,-1.2675 -3.51375,-3 -1.01625,-0.84 -6.105,-5.0775 -7.18125,-5.7075 -0.0263,0 -0.0525,0.0225 -0.0337,0.0412 0.8325,0.92625 6,5.055 7.0425,5.88 2.10375,1.68 1.51875,1.17375 3.64125,2.83125 a 0.0375,0.0375 0 1 0 0.045,-0.045 z"
       style="fill:#263238;stroke-width:0.375"
       id="path287" />
    <path
       d="m 477.95288,179.8277 c -0.46875,-0.915 -0.97125,-1.815 -1.5,-2.70375 -1.05,-1.79625 -2.19375,-3.5325 -3.31875,-5.28375 q -1.75875,-2.745 -3.525,-5.4825 c -1.0575,-1.6425 -2.13,-3.28125 -3.04875,-5.00625 a 19.5975,19.5975 0 0 1 -2.02875,-5.39625 c -0.4125,-2.0775 -0.32625,-4.215 -0.14625,-6.315 0.045,-0.525 0.0937,-1.04625 0.1425,-1.57125 0,-0.09 -0.14625,-0.10875 -0.1575,-0.0188 a 33.705,33.705 0 0 0 -0.29625,6.20625 16.63875,16.63875 0 0 0 1.4325,5.50875 38.17875,38.17875 0 0 0 2.7525,4.9875 c 1.125,1.77375 2.25,3.53625 3.375,5.29875 1.125,1.7625 2.29875,3.56625 3.42,5.36625 0.5475,0.87375 1.08375,1.755 1.59375,2.65125 a 26.7825,26.7825 0 0 1 1.425,2.71875 4.40625,4.40625 0 0 1 0.39375,1.47375 3.615,3.615 0 0 1 -0.285,1.5375 c -0.375,0.96375 -0.8775,1.875 -1.335,2.8125 -0.915,1.84875 -1.845,3.69 -2.805,5.51625 -1.9275,3.66375 -7.125,12.28875 -7.39875,12.73125 -0.0188,0.0337 0.03,0.06 0.0525,0.03 2.20875,-3.52875 4.89375,-7.63875 6.88125,-11.29875 q 1.5,-2.74125 2.89875,-5.5275 0.705,-1.3875 1.38,-2.7975 c 0.4125,-0.855 0.88875,-1.73625 0.915,-2.7075 0.0263,-0.97125 -0.38625,-1.87875 -0.8175,-2.73 z"
       style="fill:#263238;stroke-width:0.375"
       id="path289" />
    <path
       d="m 476.15288,146.8277 c -0.9,4.62 -3.5025,17.91 -4.9275,25.26 -2.445,-3.9075 -5.2725,-8.25 -7.4775,-11.87625 -2.355,-3.85875 -1.26,-11.7825 -1.09125,-13.3575 z"
       style="fill:#263238;stroke-width:0.375"
       id="path291" />
    <path
       d="m 478.87538,243.02645 c -0.85875,0.27375 -25.335,-0.0713 -26.25,-0.675 -0.3525,-0.22875 -0.51,-3.795 -0.5775,-8.11125 0,-0.93 0.20625,-15.13875 0.20625,-15.13875 l 16.3725,0.18375 -0.79875,15.13125 c 0,0 9.315,4.32375 10.25625,5.09625 0.94125,0.7725 1.65,3.24 0.79125,3.51375 z"
       style="fill:#dd6a57;stroke-width:0.375"
       id="path293" />
    <path
       d="m 474.35288,237.5327 a 35.65125,35.65125 0 0 1 3.72,1.98 c 0.94125,0.7725 1.66125,3.24 0.8025,3.51 -0.85875,0.27 -25.335,-0.0675 -26.25,-0.67125 -0.28875,-0.18375 -0.44625,-2.565 -0.52875,-5.76375 5.565,0.77625 23.00625,3.09375 22.82625,1.60875 -0.0225,-0.13875 -0.23625,-0.375 -0.57,-0.66375 z"
       style="fill:#263238;stroke-width:0.375"
       id="path295" />
    <path
       d="m 476.64038,146.86145 c 0,0 -2.77125,13.5 -2.9175,13.93125 a 35.1375,35.1375 0 0 0 -3.9375,1.95375 l -0.99,68.625 -17.655,0.11625 c 0,0 2.19,-36.375 2.12625,-38.715 -0.0975,-3.75 1.52625,-29.115 1.30125,-29.7525 -2.30625,-6.51 1.3125,-16.125 1.3125,-16.125 z"
       style="fill:#37474f;stroke-width:0.375"
       id="path297" />
    <path
       d="m 468.13163,228.0977 c -4.98,-0.21375 -14.625,-0.12375 -15.84375,0.0863 -0.0262,0 -0.0262,0.0525 0,0.0562 1.23375,0.19875 12.9375,0.22125 15.84375,-0.0637 a 0.04125,0.04125 0 0 0 0,-0.0787 z"
       style="fill:#263238;stroke-width:0.375"
       id="path299" />
    <path
       d="m 455.13413,210.6302 c 0.28125,-5.16 0.585,-10.32 0.88125,-15.48 0.29625,-5.16 0.58875,-10.32375 0.885,-15.48375 0.14625,-2.58 0.285,-5.16 0.4425,-7.74 l 0.23625,-3.87 a 33.59625,33.59625 0 0 0 0.165,-3.8325 c -0.0712,-1.395 -0.6825,-2.625 -1.03125,-3.95625 a 15.51375,15.51375 0 0 1 -0.45375,-3.87375 c 0,-2.6925 0.54375,-5.355 1.0575,-7.98375 0.03,-0.14625 0.255,-0.0825 0.225,0.0637 a 38.53125,38.53125 0 0 0 -1.08375,7.35375 15.795,15.795 0 0 0 0.31875,3.68625 c 0.25125,1.1625 0.75,2.25 1.05,3.375 0.3,1.125 0.16875,2.415 0.0937,3.6225 -0.0788,1.29 -0.1425,2.58 -0.21,3.87 -0.13875,2.5275 -0.28875,5.055 -0.43125,7.58625 -0.58875,10.2675 -1.15875,20.53875 -1.785,30.80625 -0.36,5.77875 -0.63375,11.55375 -1.11,17.34 0,0.0413 -0.0713,0.0413 -0.0675,0 0.195,-5.16375 0.5325,-10.32375 0.8175,-15.48375 z"
       style="fill:#263238;stroke-width:0.375"
       id="path301" />
    <path
       d="m 457.78913,154.94645 c 0.29625,-0.12 0.62625,-0.1575 0.93,-0.25125 a 7.71375,7.71375 0 0 0 0.945,-0.34875 7.125,7.125 0 0 0 1.62,-1.01625 3.78,3.78 0 0 0 1.035,-1.56375 c 0.1275,-0.31875 0.2475,-0.64125 0.375,-0.96375 0.06,-0.1575 0.12375,-0.31875 0.1875,-0.47625 0.0225,-0.0637 0.1875,-0.40125 0.21375,-0.50625 a 0.03,0.03 0 0 1 -0.0412,0 h -0.0188 a 0.03375,0.03375 0 0 1 0,-0.0412 c 0.0188,-0.0375 0.0225,-0.0413 0.0638,-0.0525 a 0.04125,0.04125 0 0 1 0.045,0.0188 c 0.0637,0.105 0,0.20625 -0.0225,0.31875 -0.0487,0.21375 -0.0975,0.42375 -0.15,0.63375 -0.0937,0.375 -0.18,0.75 -0.285,1.1025 a 3.7125,3.7125 0 0 1 -1.035,1.79625 5.79375,5.79375 0 0 1 -1.8075,1.08 6.4275,6.4275 0 0 1 -1.04625,0.3075 2.84625,2.84625 0 0 1 -1.005,0.075 c -0.0638,-0.0225 -0.0337,-0.0937 -0.004,-0.1125 z"
       style="fill:#263238;stroke-width:0.375"
       id="path303" />
    <path
       d="m 472.05038,158.6477 c 0.03,-0.61875 0.0675,-1.23375 0.1125,-1.8525 0.0975,-1.41 0.22125,-2.82375 0.4425,-4.215 0.0187,-0.1125 0.1725,-0.0712 0.165,0.03 -0.075,1.095 -0.18375,2.19 -0.26625,3.28125 -0.0825,1.09125 -0.195,2.1825 -0.195,3.27 0,0.32625 0.03,0.88125 0.435,0.9675 0.54,0.1125 0.78375,-0.60375 0.9075,-0.99375 a 17.97,17.97 0 0 0 0.62625,-3 c 0.1575,-1.15125 0.2325,-2.31375 0.3225,-3.46875 0,-0.0412 0.0713,-0.0375 0.075,0 0.045,2.29125 0.0525,4.6875 -0.75,6.86625 a 1.27875,1.27875 0 0 1 -0.93375,0.9225 h -0.0225 c 0,0 0,0.0263 0,0.0375 0,0.0112 -0.0263,0.13125 -0.0337,0.195 -0.007,0.0637 -0.0188,0.105 -0.03,0.16125 -0.0112,0.0563 -0.0337,0.22125 -0.06,0.33375 a 0.08625,0.08625 0 0 1 -0.16875,0 0.075,0.075 0 0 1 -0.0487,-0.0675 1.875,1.875 0 0 1 0.13875,-0.6525 0.80625,0.80625 0 0 1 -0.6,-0.4875 2.85375,2.85375 0 0 1 -0.11625,-1.3275 z"
       style="fill:#263238;stroke-width:0.375"
       id="path305" />
    <path
       d="m 473.73788,160.66145 a 32.625,32.625 0 0 0 -4.99875,2.73 c -0.0637,0.0413 0,0.13875 0.0525,0.10125 1.6875,-0.855 3.4125,-1.68 5.05125,-2.625 a 0.11571956,0.11571956 0 0 0 -0.105,-0.20625 z"
       style="fill:#263238;stroke-width:0.375"
       id="path307" />
    <path
       d="m 469.28663,196.6652 c 0,-0.165 0.0525,-0.22875 0.06,-0.0263 0.0412,1.125 0.0263,2.77125 0.0375,3.91125 0,1.3425 0,2.68125 0,4.02 0,1.33875 -0.0488,2.68125 -0.10125,4.02375 l -0.0825,2.00625 c -0.0263,0.465 0,1.38 -0.045,1.84125 0,0.20625 -0.0637,0.24375 -0.0825,0.0375 -0.0337,-0.67125 -0.0337,-1.2075 -0.0562,-1.875 l -0.0225,-2.01375 c 0,-1.33875 0,-2.68125 0,-4.02 0,-1.33875 0.0488,-2.68125 0.10125,-4.02 0.0525,-1.33875 0.0937,-2.54625 0.19125,-3.885 z"
       style="fill:#263238;stroke-width:0.375"
       id="path309" />
    <path
       d="m 478.09538,127.81895 a 0.19875,0.19875 0 0 1 -0.14625,0.22125 l -0.79125,0.075 c -0.79125,-1.965 -1.62375,-3.52125 -1.39875,-2.91 a 10.8525,10.8525 0 0 1 0.61875,2.9775 l -1.56375,0.12 c -0.75,-3.47625 -1.6575,-6.04125 -1.575,-5.25 0.33,3.21375 0.195,4.2525 0.0337,5.3625 -3.77625,0.2775 -8.73,0.5775 -12.315,0.71625 -0.495,-1.91625 -0.94125,-3.9975 -1.00125,-3.8475 -0.4425,1.09875 -0.51,2.68125 -0.4725,3.9 -1.14375,0.0337 -2.055,0.0412 -2.625,0 0,0 -0.33375,-1.61625 -0.39375,-2.14875 a 11.77875,11.77875 0 0 1 0.2325,-4.06875 20.565,20.565 0 0 1 1.5,-3.80625 v -0.0263 c 0,0 0,0 0,0 a 11.7075,11.7075 0 0 0 0.855,-2.53875 0.075,0.075 0 0 0 0,-0.0188 11.565,11.565 0 0 0 0.2175,-1.93875 c 0.0675,-2.385 1.2375,-4.46999 3.30375,-5.14874 3.78375,-4.0725 7.81125,-2.49 9.13125,0.5325 0.1275,0.29625 0.255,0.63375 0.375,1.005 v 0 c 0.46125,1.36499 0.89625,3.14249 1.28625,4.49999 v 0 c 0,0 0,0 0,0 v 0 a 14.4,14.4 0 0 0 0.5325,1.5825 c 1.155,2.52 3.495,3.8775 4.19625,10.71 z"
       style="fill:#263238;stroke-width:0.375"
       id="path311" />
    <path
       d="m 461.72663,110.17521 a 4.3875,4.3875 0 0 0 -2.28,3.67499 12.2925,12.2925 0 0 1 -0.4275,2.97 10.3425,10.3425 0 0 1 -1.47375,2.625 7.81875,7.81875 0 0 0 -1.62375,4.30875 c -0.0788,1.73625 0.0825,3.78 0.69375,5.38125 0,0 0,0 0,0 a 14.8125,14.8125 0 0 1 -0.4125,-5.625 c 0.22125,-1.875 1.17,-3.10125 2.13,-4.55625 a 8.025,8.025 0 0 0 1.3425,-3.885 c 0.0675,-0.85875 0.0187,-1.755 0.31125,-2.56875 0.345,-0.97499 1.0875,-1.60874 1.83,-2.17124 0.1125,-0.06 0.0113,-0.2175 -0.09,-0.15375 z"
       style="fill:#263238;stroke-width:0.375"
       id="path313" />
    <path
       d="m 476.36663,119.77895 c -1.02375,-1.32749 -2.08125,-2.45625 -2.71875,-4.125 -0.5775,-1.5 -0.94125,-3.11625 -1.53,-4.62749 0,-0.0263 -0.0412,0 -0.0337,0 0.9225,2.68499 1.1925,5.41499 2.92125,7.64999 0.9375,1.21501 1.875,2.34 2.52,3.81 a 14.16375,14.16375 0 0 1 1.125,4.875 0.04125,0.04125 0 1 0 0.0788,0 11.625,11.625 0 0 0 -2.3625,-7.5825 z"
       style="fill:#263238;stroke-width:0.375"
       id="path315" />
    <path
       d="m 485.48288,112.41396 -2.42625,11.11499 c -0.10875,0.33 0.06,0.585 0.375,0.5775 l 5.68875,-0.18 a 0.92625,0.92625 0 0 0 0.7725,-0.615 l 2.43,-11.11124 c 0.105,-0.33 -0.0637,-0.585 -0.375,-0.5775 l -5.68875,0.18 a 0.92625,0.92625 0 0 0 -0.77625,0.61125 z"
       style="fill:#37474f;stroke-width:0.375"
       id="path317" />
    <path
       d="m 486.15788,112.3877 -2.42625,11.115 c -0.10875,0.32625 0.06,0.585 0.375,0.57375 l 5.6925,-0.18 a 0.9225,0.9225 0 0 0 0.76875,-0.61125 l 2.44125,-11.11499 c 0.105,-0.32626 -0.0638,-0.585 -0.375,-0.57376 l -5.68875,0.18001 a 0.92625,0.92625 0 0 0 -0.7875,0.61124 z"
       style="fill:#455a64;stroke-width:0.375"
       id="path319" />
    <path
       d="m 487.73288,112.84145 a 0.48375,0.48375 0 0 1 -0.47625,0.49125 0.48375,0.48375 0 1 1 0,-0.9675 0.48,0.48 0 0 1 0.47625,0.47625 z"
       style="fill:#263238;stroke-width:0.375"
       id="path321" />
    <path
       d="m 467.67413,129.69395 c 3.375,6.78375 10.81125,15.525 13.80375,15.49875 1.425,0 3.97125,0.26625 5.805,-1.41 3.99375,-3.66375 7.245,-10.5675 7.84875,-14.49 0.21375,-1.39875 -6.615,-4.2525 -7.58625,-3.0975 -2.28,2.70375 -4.875,7.965 -5.29125,7.9425 -1.53375,-0.06 -7.62,-4.935 -11.89875,-8.34375 -5.17125,-4.1475 -4.0275,1.19625 -2.68125,3.9 z"
       style="fill:#dd6a57;stroke-width:0.375"
       id="path323" />
    <path
       d="m 495.13538,122.10395 c -0.78,-2.80499 -1.41,-3.405 -0.81375,-6.12375 0.39375,-1.78125 -0.5775,-2.7975 -1.8,-1.34625 -2.0025,2.37376 -1.755,6.20625 -1.29,7.5 z"
       style="fill:#dd6a57;stroke-width:0.375"
       id="path325" />
    <path
       d="m 494.82788,130.5077 c 0,0 1.17,-3.96 0.63375,-7.03125 -0.375,-2.1225 -1.69125,-6.65625 -7.71375,-8.925 -1.42875,-0.54 -3.84375,-0.2925 -1.83,1.4325 1.42875,1.22625 2.7075,1.57125 3.40875,2.4375 0,0 -3.0375,0.67875 -3.52125,2.13 a 28.5,28.5 0 0 0 -0.99375,3.885 5.95875,5.95875 0 0 0 0.7125,0.25125 c 0,0 -0.3225,1.39875 0.73125,3.31125 z"
       style="fill:#dd6a57;stroke-width:0.375"
       id="path327" />
    <path
       d="m 494.78663,121.50395 c -0.8775,-0.70875 -2.7675,-2.18625 -4.72875,-2.8575 -2.1825,-0.75 -6.585,-1.59 -7.125,0.0263 -0.375,1.185 1.26375,1.65375 1.26375,1.65375 0,0 -1.875,0.0338 -2.01375,1.18125 -0.10875,1.04625 1.1925,1.335 1.1925,1.335 0,0 -1.1475,0.2175 -1.0575,1.245 0.10875,1.23375 2.49,0.5775 3.67875,1.7325 0.2625,0.2625 8.79,-4.31625 8.79,-4.31625 z"
       style="fill:#dd6a57;stroke-width:0.375"
       id="path329" />
    <path
       d="m 489.65288,121.08395 a 9.16875,9.16875 0 0 0 -5.415,-0.7875 c -0.045,0 -0.0638,0.0488 -0.0188,0.0488 a 22.8075,22.8075 0 0 1 5.43,0.75 c 0,0 0.015,-0.004 0.004,-0.0113 z"
       style="fill:#263238;stroke-width:0.375"
       id="path331" />
    <path
       d="m 488.83913,123.2627 c -0.855,-0.375 -3.3975,-0.9525 -5.45625,-0.46125 -0.045,0 -0.06,0.0525 0,0.0487 a 24.1725,24.1725 0 0 1 5.46375,0.435 c 0,0 0.004,-0.0187 -0.007,-0.0225 z"
       style="fill:#263238;stroke-width:0.375"
       id="path333" />
    <path
       d="m 470.77913,135.8477 5.625,-5.89125 c 0,0 -4.2,-3.83625 -7.2825,-5.3325 -3.0825,-1.49625 -3.58875,0.50625 -2.31,3.5925 1.27875,3.08625 3.9675,7.63125 3.9675,7.63125 z"
       style="fill:#bbeae6;stroke-width:0.375"
       id="path335" />
    <path
       d="m 470.77913,135.8477 5.625,-5.89125 c 0,0 -4.2,-3.83625 -7.2825,-5.3325 -3.0825,-1.49625 -3.58875,0.50625 -2.31,3.5925 1.27875,3.08625 3.9675,7.63125 3.9675,7.63125 z"
       style="opacity:0.1;stroke-width:0.375"
       id="path337" />
    <path
       d="m 475.97663,141.7202 2.64375,12.40125 c 0,0 -20.385,1.6425 -25.47375,1.62 0,0 2.59125,-23.68125 7.65,-29.95125 2.53125,-3.13875 5.745,-3.1275 7.91625,-1.1925 0.55125,0.49125 7.24125,8.22 8.0925,11.28375 0.74625,2.69625 -0.82875,5.83875 -0.82875,5.83875 z"
       style="fill:#ebebeb;stroke-width:0.375"
       id="path339" />
    <path
       d="m 466.46288,123.39395 h -2.16375 a 4.58625,4.58625 0 0 1 2.16375,0 z"
       style="fill:#bbeae6;stroke-width:0.375"
       id="path341" />
    <path
       d="m 468.69038,124.57895 h -6.705 c 0.0937,-0.0787 0.19125,-0.15375 0.28875,-0.22125 h 6.15 c 0.09,0.0713 0.18,0.1425 0.26625,0.22125 z"
       style="fill:#bbeae6;stroke-width:0.375"
       id="path343" />
    <path
       d="m 469.75913,125.76395 h -8.94 l 0.18375,-0.22125 h 8.5725 z"
       style="fill:#bbeae6;stroke-width:0.375"
       id="path345" />
    <path
       d="m 470.77163,126.9527 h -10.7625 c 0.0412,-0.075 0.0862,-0.15 0.135,-0.22125 h 10.4475 z"
       style="fill:#bbeae6;stroke-width:0.375"
       id="path347" />
    <path
       d="m 471.74288,128.13395 h -12.375 c 0.0337,-0.075 0.0712,-0.15 0.10875,-0.22125 h 12.09 z"
       style="fill:#bbeae6;stroke-width:0.375"
       id="path349" />
    <path
       d="m 472.68038,129.31895 h -13.875 c 0.0337,-0.075 0.0637,-0.15 0.0937,-0.22125 h 13.59 z"
       style="fill:#bbeae6;stroke-width:0.375"
       id="path351" />
    <path
       d="m 473.58413,130.50395 h -15.22875 l 0.0825,-0.225 h 14.9775 z"
       style="fill:#bbeae6;stroke-width:0.375"
       id="path353" />
    <path
       d="m 474.44288,131.68895 h -16.5 c 0.0263,-0.0788 0.0487,-0.15 0.075,-0.225 h 16.275 z"
       style="fill:#bbeae6;stroke-width:0.375"
       id="path355" />
    <path
       d="m 475.24913,132.87395 h -17.7075 l 0.075,-0.225 h 17.4825 z"
       style="fill:#bbeae6;stroke-width:0.375"
       id="path357" />
    <path
       d="m 475.97288,134.0777 h -18.78375 c 0,-0.0787 0.0413,-0.15 0.0638,-0.225 h 18.58875 c 0.0487,0.0563 0.09,0.13125 0.13125,0.225 z"
       style="fill:#bbeae6;stroke-width:0.375"
       id="path359" />
    <path
       d="m 476.57663,135.24395 h -19.72125 c 0.0187,-0.075 0.0412,-0.15 0.06,-0.225 h 19.56 q 0.0563,0.1125 0.10125,0.225 z"
       style="fill:#bbeae6;stroke-width:0.375"
       id="path361" />
    <path
       d="m 476.92538,136.4252 h -20.38125 l 0.0562,-0.22125 h 20.28375 c 0,0.075 0.03,0.14625 0.0412,0.22125 z"
       style="fill:#bbeae6;stroke-width:0.375"
       id="path363" />
    <path
       d="m 477.00788,137.38895 c 0,0.075 0,0.15 0,0.22125 h -20.74875 c 0,-0.075 0.0375,-0.15 0.0525,-0.22125 z"
       style="fill:#bbeae6;stroke-width:0.375"
       id="path365" />
    <path
       d="m 476.92913,138.5777 c 0,0.075 -0.0225,0.15 -0.0375,0.22125 h -20.91375 c 0,-0.0712 0.03,-0.14625 0.0487,-0.22125 z"
       style="fill:#bbeae6;stroke-width:0.375"
       id="path367" />
    <path
       d="m 476.68538,139.75895 c -0.0188,0.075 -0.0375,0.15 -0.06,0.22125 h -20.91375 c 0,-0.075 0.0337,-0.14625 0.0487,-0.22125 z"
       style="fill:#bbeae6;stroke-width:0.375"
       id="path369" />
    <path
       d="m 476.30663,140.94395 -0.0863,0.22125 h -20.75625 c 0,-0.075 0.0263,-0.14625 0.045,-0.22125 z"
       style="fill:#bbeae6;stroke-width:0.375"
       id="path371" />
    <path
       d="m 476.11163,142.3502 h -20.8875 c 0,-0.075 0.0263,-0.14625 0.045,-0.22125 h 20.79375 z"
       style="fill:#bbeae6;stroke-width:0.375"
       id="path373" />
    <path
       d="m 476.36288,143.5352 h -21.375 c 0,-0.075 0.0263,-0.14625 0.0412,-0.22125 h 21.28125 z"
       style="fill:#bbeae6;stroke-width:0.375"
       id="path375" />
    <path
       d="m 476.61788,144.7202 h -21.84 c 0,-0.075 0.0263,-0.15 0.0375,-0.225 h 21.75 z"
       style="fill:#bbeae6;stroke-width:0.375"
       id="path377" />
    <path
       d="m 476.88413,145.9052 h -22.31625 c 0,-0.075 0.0263,-0.15 0.0375,-0.225 h 22.215 z"
       style="fill:#bbeae6;stroke-width:0.375"
       id="path379" />
    <path
       d="m 477.12038,147.0902 h -22.73625 c 0,-0.075 0.0225,-0.15 0.0375,-0.225 h 22.65 z"
       style="fill:#bbeae6;stroke-width:0.375"
       id="path381" />
    <path
       d="m 477.37538,148.2752 h -23.1975 l 0.0337,-0.225 h 23.115 z"
       style="fill:#bbeae6;stroke-width:0.375"
       id="path383" />
    <path
       d="m 477.63413,149.4527 h -23.625 c 0,-0.075 0.0262,-0.15 0.0375,-0.225 h 23.55 z"
       style="fill:#bbeae6;stroke-width:0.375"
       id="path385" />
    <path
       d="m 477.87788,150.64145 h -24.06375 l 0.0337,-0.22125 h 24 z"
       style="fill:#bbeae6;stroke-width:0.375"
       id="path387" />
    <path
       d="m 478.13288,151.82645 h -24.49875 l 0.0337,-0.22125 h 24.41625 z"
       style="fill:#bbeae6;stroke-width:0.375"
       id="path389" />
    <path
       d="m 478.38413,153.01145 h -24.9 c 0,-0.0712 0.0225,-0.14625 0.03,-0.22125 h 24.82125 z"
       style="fill:#bbeae6;stroke-width:0.375"
       id="path391" />
    <path
       d="m 478.62038,154.12145 -0.93,0.075 h -24.35625 c 0,-0.0712 0,-0.1425 0.0263,-0.22125 h 25.23 z"
       style="fill:#bbeae6;stroke-width:0.375"
       id="path393" />
    <path
       d="m 464.61788,155.1602 c -1.155,0.0787 -2.3025,0.15375 -3.40875,0.22125 h -8.02125 c 0,-0.0637 0,-0.13875 0.0263,-0.22125 z"
       style="fill:#bbeae6;stroke-width:0.375"
       id="path395" />
    <path
       d="m 476.69288,139.6052 a 7.58625,7.58625 0 0 0 0.1575,-2.25 10.5,10.5 0 0 0 -1.52625,-4.27125 c -0.43875,-0.75 -0.96375,-1.44 -1.39875,-2.18625 a 0.01875,0.01875 0 1 1 0.03,-0.0225 15.67875,15.67875 0 0 1 1.125,1.53 0.22875,0.22875 0 0 0 -0.0263,-0.0525 c -0.12,-0.2925 -0.24375,-0.58125 -0.375,-0.86625 0,-0.03 0.0375,-0.0562 0.0525,-0.0263 0.15,0.2775 0.2925,0.555 0.4275,0.83625 0.0825,0.18375 0.15375,0.375 0.2175,0.555 a 14.05125,14.05125 0 0 1 1.125,2.0475 7.09125,7.09125 0 0 1 0.52875,4.5 8.05125,8.05125 0 0 1 -1.02375,2.31375 0.03,0.03 0 0 1 -0.0525,-0.0263 11.2125,11.2125 0 0 0 0.75,-2.09625"
       style="fill:#263238;stroke-width:0.375"
       id="path397" />
    <path
       d="m 463.96538,124.84145 c 0.15375,0.375 2.44875,2.67 4.2525,2.3025 0.585,-0.12 0.0713,-3.3525 0.0713,-3.3525 v -0.2475 l 0.2325,-3.46125 -4.32375,-1.91249 -0.61875,-0.2475 c 0,0 0,0.95249 0,2.13749 v 0.375 c 0,0.17625 0,0.375 0,0.54 0,0.165 0,0.27 0,0.4125 0,0.1425 0,0.285 0,0.4275 a 21.93375,21.93375 0 0 0 0.38625,3.02625 z"
       style="fill:#dd6a57;stroke-width:0.375"
       id="path399" />
    <path
       d="m 463.60538,120.0602 a 6.9675,6.9675 0 0 0 4.69875,3.48375 l 0.2325,-3.46125 -4.32375,-1.91249 -0.61875,-0.2475 c 0,0 0,0.95249 0.0113,2.13749 z"
       style="fill:#263238;stroke-width:0.375"
       id="path401" />
    <path
       d="m 472.80038,114.88521 c 0.63375,6.05624 -2.92125,7.12499 -4.22625,7.25249 -1.185,0.12375 -5.25,0.375 -6.495,-5.56499 -1.245,-5.94 1.3575,-8.1675 4.0575,-8.59125 2.7,-0.42375 6.03,0.8475 6.66375,6.90375 z"
       style="fill:#dd6a57;stroke-width:0.375"
       id="path403" />
    <path
       d="m 471.45413,113.5802 a 3.91125,3.91125 0 0 1 -0.41625,-0.0413 0.67125,0.67125 0 0 1 -0.42,-0.1275 0.2175,0.2175 0 0 1 -0.0263,-0.2625 0.5325,0.5325 0 0 1 0.51375,-0.18 0.79875,0.79875 0 0 1 0.52125,0.225 0.22875,0.22875 0 0 1 -0.1725,0.38625 z"
       style="fill:#263238;stroke-width:0.375"
       id="path405" />
    <path
       d="m 467.46788,114.04146 a 3.57,3.57 0 0 0 0.40125,-0.1275 0.6675,0.6675 0 0 0 0.375,-0.21 0.21375,0.21375 0 0 0 -0.0263,-0.2625 0.5475,0.5475 0 0 0 -0.54,-0.0713 0.8025,0.8025 0 0 0 -0.465,0.33 0.22875,0.22875 0 0 0 0.255,0.34125 z"
       style="fill:#263238;stroke-width:0.375"
       id="path407" />
    <path
       d="m 468.53663,115.48521 c 0,0 -0.03,0.0225 -0.0263,0.0413 0.0638,0.40874 0.0713,0.88875 -0.28125,1.0725 0,0 0,0.0262 0,0.0225 0.45,-0.12 0.435,-0.7575 0.3075,-1.13625 z"
       style="fill:#263238;stroke-width:0.375"
       id="path409" />
    <path
       d="m 468.11288,115.1027 c -0.6675,0.0375 -0.5475,1.36875 0.0712,1.335 0.61875,-0.0338 0.49125,-1.36499 -0.0712,-1.335 z"
       style="fill:#263238;stroke-width:0.375"
       id="path411" />
    <path
       d="m 467.85788,115.19645 c -0.10875,0.0863 -0.21,0.22876 -0.34875,0.25875 -0.13875,0.03 -0.29625,-0.10125 -0.41625,-0.225 0,0 -0.0225,0 -0.0225,0.0187 0.0188,0.255 0.1425,0.51 0.42,0.52125 0.2775,0.0113 0.4125,-0.22875 0.45375,-0.49125 0.008,-0.0487 -0.0412,-0.11625 -0.0862,-0.0825 z"
       style="fill:#263238;stroke-width:0.375"
       id="path413" />
    <path
       d="m 470.81663,115.17395 c 0,0 0.0337,0 0.0337,0.0337 0.0225,0.41625 0.11625,0.885 0.49875,0.99376 0,0 0,0.0225 0,0.0225 -0.465,-0.0262 -0.58125,-0.6525 -0.5325,-1.05 z"
       style="fill:#263238;stroke-width:0.375"
       id="path415" />
    <path
       d="m 471.15038,114.71271 c 0.66,-0.105 0.82125,1.22624 0.21,1.31999 -0.61125,0.0937 -0.765,-1.22999 -0.21,-1.31999 z"
       style="fill:#263238;stroke-width:0.375"
       id="path417" />
    <path
       d="m 471.43913,114.76896 c 0.1125,0.0562 0.2325,0.1725 0.35625,0.16499 0.12375,-0.007 0.24,-0.16499 0.315,-0.31499 0,0 0.0187,0 0.0225,0 0.0375,0.25499 0,0.52874 -0.25125,0.6075 -0.25125,0.0787 -0.40875,-0.12751 -0.49875,-0.375 -0.0188,-0.03 0.007,-0.10875 0.0562,-0.0825 z"
       style="fill:#263238;stroke-width:0.375"
       id="path419" />
    <path
       d="m 468.87038,118.7852 c 0.105,0.09 0.21,0.22125 0.375,0.225 a 1.01625,1.01625 0 0 0 0.43875,-0.12375 c 0,0 0.0263,0 0.0188,0.0225 a 0.555,0.555 0 0 1 -0.51375,0.2475 0.4425,0.4425 0 0 1 -0.34125,-0.3525 c -0.0225,-0.0225 0.008,-0.0337 0.0225,-0.0187 z"
       style="fill:#263238;stroke-width:0.375"
       id="path421" />
    <path
       d="m 470.44538,117.11645 c 0,0 0.14625,0.6075 0.17625,0.90001 0,0.0263 -0.0675,0.045 -0.165,0.0637 v 0 a 1.395,1.395 0 0 1 -1.395,-0.375 c -0.0225,-0.0262 0,-0.06 0.0413,-0.045 a 2.1075,2.1075 0 0 0 1.2975,0.23251 c 0,-0.0825 -0.28875,-1.03125 -0.24375,-1.03876 a 2.45625,2.45625 0 0 1 0.675,0.0825 c -0.27,-1.275 -0.75,-2.49375 -0.99375,-3.75 a 0.04125,0.04125 0 0 1 0.075,-0.0262 21.31125,21.31125 0 0 1 1.245,4.0125 c 0.0263,0.13875 -0.5925,-0.0188 -0.7125,-0.0563 z"
       style="fill:#263238;stroke-width:0.375"
       id="path423" />
    <path
       d="m 470.38538,118.00895 a 1.6425,1.6425 0 0 1 -0.58125,0.59251 0.75,0.75 0 0 1 -0.4425,0.09 c -0.33375,-0.0413 -0.375,-0.33375 -0.35625,-0.59626 a 1.7475,1.7475 0 0 1 0.09,-0.405 2.12625,2.12625 0 0 0 1.29,0.31875 z"
       style="fill:#263238;stroke-width:0.375"
       id="path425" />
    <path
       d="m 469.80413,118.60146 a 0.75,0.75 0 0 1 -0.4425,0.09 c -0.33375,-0.0413 -0.375,-0.33375 -0.35625,-0.59626 a 0.76875,0.76875 0 0 1 0.79875,0.50626 z"
       style="fill:#ff9abb;stroke-width:0.375"
       id="path427" />
    <path
       d="m 462.54038,116.31395 c 1.125,0.18375 1.5,-2.35499 1.5,-2.35499 0,0 4.7775,-0.61125 5.3325,-4.455 a 6.555,6.555 0 0 0 3.15375,3.70875 c 0,0 0,-4.24125 -3.31875,-5.1975 0,0 -4.1025,-1.6875 -6.5775,1.52625 -2.475,3.21374 -0.8325,6.64875 -0.09,6.77249 z"
       style="fill:#263238;stroke-width:0.375"
       id="path429" />
    <path
       d="m 469.38413,109.21896 a 4.215,4.215 0 0 1 -0.285,1.755 4.41,4.41 0 0 1 -0.95625,1.52249 4.32,4.32 0 0 1 -0.33375,0.3075 l -0.16875,0.15001 -0.1875,0.1275 c -0.1275,0.0825 -0.25125,0.16874 -0.375,0.24375 -0.12375,0.075 -0.27,0.135 -0.405,0.19875 -0.0675,0.03 -0.135,0.0675 -0.2025,0.0937 l -0.21375,0.075 -0.42375,0.1425 c -0.28875,0.0675 -0.58125,0.12 -0.87375,0.16875 0.2775,-0.10875 0.5625,-0.18375 0.8325,-0.2925 l 0.40125,-0.17625 0.19875,-0.0863 0.1875,-0.10875 c 0.1275,-0.075 0.25125,-0.14624 0.375,-0.21375 0.12375,-0.0675 0.2325,-0.16874 0.34875,-0.25124 l 0.17625,-0.12751 0.1575,-0.14249 a 3.33375,3.33375 0 0 0 0.31125,-0.29625 5.22,5.22 0 0 0 1.26,-2.25 5.055,5.055 0 0 0 0.17625,-0.84 z"
       style="fill:#263238;stroke-width:0.375"
       id="path431" />
    <path
       d="m 463.22663,116.8277 c 0,0 -1.36125,-1.875 -2.21625,-1.3875 -0.855,0.48751 0.195,3.225 1.215,3.58501 a 1.03125,1.03125 0 0 0 1.36875,-0.5775 z"
       style="fill:#dd6a57;stroke-width:0.375"
       id="path433" />
    <path
       d="m 461.32913,116.23145 a 0.01315,0 -90 0 0 0,0.0263 c 0.71625,0.2775 1.1025,0.92625 1.37625,1.60501 a 0.57,0.57 0 0 0 -0.855,-0.13876 c 0,0 0,0.0413 0.0188,0.0375 a 0.63,0.63 0 0 1 0.70125,0.20626 3.29625,3.29625 0 0 1 0.345,0.55875 c 0.0337,0.0637 0.15,0.0263 0.12375,-0.045 v 0 c -0.007,-0.90375 -0.735,-2.175 -1.71,-2.25001 z"
       style="fill:#263238;stroke-width:0.375"
       id="path435" />
    <path
       d="m 463.10663,109.47396 c 0.54375,-0.2025 1.06125,-3.24375 -0.9375,-4.695 -1.99875,-1.45125 -4.56,0.20625 -3.4875,2.7 0.67875,1.575 3.27375,2.4225 4.425,1.995 z"
       style="fill:#263238;stroke-width:0.375"
       id="path437" />
    <path
       d="m 459.37163,104.60271 a 3.40125,3.40125 0 0 0 -1.15125,1.9275 2.0475,2.0475 0 0 0 0.6075,1.9575 4.1025,4.1025 0 0 0 1.98375,0.97125 6.1575,6.1575 0 0 0 1.14375,0.1425 3.24,3.24 0 0 0 1.15125,-0.1275 2.7525,2.7525 0 0 1 -1.14375,0.3375 5.00625,5.00625 0 0 1 -1.2075,-0.0187 3.97875,3.97875 0 0 1 -2.2275,-0.99 2.3925,2.3925 0 0 1 -0.66,-1.09125 2.47125,2.47125 0 0 1 0.0225,-1.26 3,3 0 0 1 1.48125,-1.84875 z"
       style="fill:#263238;stroke-width:0.375"
       id="path439" />
    <path
       d="m 460.42163,126.2702 c -5.0175,7.54875 -7.8525,17.59875 -7.5,19.81125 0.405,2.43375 3.84,10.66125 7.38,14.2875 0.93375,0.95625 8.00625,-6.88875 7.05,-7.95 -1.84125,-2.0475 -5.4975,-8.08125 -5.65875,-9.4575 -0.15,-1.27125 1.7025,-9.45 2.19,-14.1 0.4875,-4.46625 -1.12875,-6.105 -3.46125,-2.59125 z"
       style="fill:#dd6a57;stroke-width:0.375"
       id="path441" />
    <path
       d="m 467.13413,152.1677 c 0,0 3.84,1.6875 6.3,2.91 1.3725,0.6825 3.6225,2.0625 4.4025,3.02625 1.1625,1.43625 5.11875,8.20125 3.49875,9.195 -1.46625,0.9 -4.125,-5.34 -4.125,-5.34 0,0 3.24,6.06 1.275,6.82125 -1.965,0.76125 -4.03125,-6.6975 -4.03125,-6.6975 0,0 3.19125,6.30375 1.0425,6.75 -1.6125,0.3675 -3.8625,-6.2775 -3.8625,-6.2775 0,0 2.70375,5.4375 1.05,5.86875 -1.83,0.47625 -4.29375,-5.5275 -4.29375,-5.5275 -4.39125,0.375 -6.64125,-1.22625 -8.10375,-2.56125 -0.36,-0.3225 6.8475,-8.1675 6.8475,-8.1675 z"
       style="fill:#dd6a57;stroke-width:0.375"
       id="path443" />
    <path
       d="m 476.23538,159.7877 c 0.405,0.6975 0.82125,1.4025 1.16625,2.13375 0.345,0.73125 0.66,1.4775 0.93375,2.25 a 13.79625,13.79625 0 0 1 0.78,3.06 c -0.375,-1.8375 -1.575,-4.4775 -1.92,-5.20875 -0.345,-0.73125 -0.64875,-1.5 -0.99,-2.2125 -0.007,-0.0263 0.0188,-0.0375 0.03,-0.0225 z"
       style="fill:#263238;stroke-width:0.375"
       id="path445" />
    <path
       d="m 473.56913,160.9802 c 0.48,0.91125 0.99,1.80375 1.4325,2.7375 0.4425,0.93375 0.75,1.8525 1.125,2.8125 0.0263,0.075 -0.0225,0.0637 -0.0525,0 -0.4125,-0.945 -0.8625,-1.785 -1.28625,-2.7225 -0.42375,-0.9375 -0.80625,-1.875 -1.26,-2.8125 0.0113,-0.0225 0.0337,-0.03 0.0412,-0.015 z"
       style="fill:#263238;stroke-width:0.375"
       id="path447" />
    <path
       d="m 471.09788,161.5877 a 23.2875,23.2875 0 0 1 1.875,4.3575 c 0.0263,0.075 -0.0375,0.0563 -0.0675,0 -0.5925,-1.45875 -1.05,-2.625 -1.84875,-4.30875 -0.0188,-0.045 0.0225,-0.075 0.0412,-0.0487 z"
       style="fill:#263238;stroke-width:0.375"
       id="path449" />
    <path
       d="m 455.59913,134.01395 7.995,1.54125 c 0,0 0.95625,-5.60625 0.5475,-9 -0.40875,-3.39375 -2.36625,-2.74125 -4.2675,0 -1.90125,2.74125 -4.275,7.45875 -4.275,7.45875 z"
       style="fill:#bbeae6;stroke-width:0.375"
       id="path451" />
    <path
       d="m 455.59913,134.01395 7.995,1.54125 c 0,0 0.95625,-5.60625 0.5475,-9 -0.40875,-3.39375 -2.36625,-2.74125 -4.2675,0 -1.90125,2.74125 -4.275,7.45875 -4.275,7.45875 z"
       style="opacity:0.1;stroke-width:0.375"
       id="path453" />
  </g>
</svg>
