<?xml version="1.0" encoding="UTF-8" standalone="no"?>
<svg
   viewBox="0 0 100 100"
   version="1.1"
   id="svg16"
   sodipodi:docname="Agile-dark-bg.svg"
   inkscape:version="1.1.2 (0a00cf5339, 2022-02-04)"
   xmlns:inkscape="http://www.inkscape.org/namespaces/inkscape"
   xmlns:sodipodi="http://sodipodi.sourceforge.net/DTD/sodipodi-0.dtd"
   xmlns="http://www.w3.org/2000/svg"
   xmlns:svg="http://www.w3.org/2000/svg">
  <sodipodi:namedview
     id="namedview18"
     pagecolor="#ffffff"
     bordercolor="#666666"
     borderopacity="1.0"
     inkscape:pageshadow="2"
     inkscape:pageopacity="0.0"
     inkscape:pagecheckerboard="0"
     showgrid="false"
     inkscape:zoom="5.66"
     inkscape:cx="49.911661"
     inkscape:cy="49.911661"
     inkscape:window-width="1478"
     inkscape:window-height="800"
     inkscape:window-x="0"
     inkscape:window-y="0"
     inkscape:window-maximized="1"
     inkscape:current-layer="svg16" />
  <defs
     id="defs4">
    <style
       id="style2">.c{fill:#ebff00;}.d{fill:#fff;}</style>
  </defs>
  <g
     id="a"
     style="fill:#5fbcd3;fill-opacity:1">
    <g
       id="g10"
       style="fill:#5fbcd3;fill-opacity:1">
      <polygon
         class="d"
         points="36.34 51.2 46 51.2 43.91 53.29 46.03 55.41 51.74 49.7 46.03 43.99 43.91 46.11 46 48.2 39.34 48.2 39.34 40.91 54.84 40.91 54.84 57.58 30.01 57.58 30.01 60.58 57.84 60.58 57.84 37.91 36.34 37.91 36.34 51.2"
         id="polygon6"
         style="fill:#5fbcd3;fill-opacity:1" />
      <rect
         class="d"
         x="60.87"
         y="48.2"
         width="9.12"
         height="3"
         id="rect8"
         style="fill:#5fbcd3;fill-opacity:1" />
    </g>
  </g>
  <g
     id="b"
     style="fill:#5fbcd3;fill-opacity:1">
    <path
       class="c"
       d="M50,2c26.47,0,48,21.53,48,48s-21.53,48-48,48S2,76.47,2,50,23.53,2,50,2M50,0C22.39,0,0,22.39,0,50s22.39,50,50,50,50-22.39,50-50S77.61,0,50,0h0Z"
       id="path13"
       style="fill:#5fbcd3;fill-opacity:1" />
  </g>
</svg>
