<?xml version="1.0" encoding="UTF-8" standalone="no"?>
<svg
   viewBox="0 0 100 100"
   version="1.1"
   id="svg30"
   sodipodi:docname="Insights-dark-bg.svg"
   inkscape:version="1.1.2 (0a00cf5339, 2022-02-04)"
   xmlns:inkscape="http://www.inkscape.org/namespaces/inkscape"
   xmlns:sodipodi="http://sodipodi.sourceforge.net/DTD/sodipodi-0.dtd"
   xmlns="http://www.w3.org/2000/svg"
   xmlns:svg="http://www.w3.org/2000/svg">
  <sodipodi:namedview
     id="namedview32"
     pagecolor="#ffffff"
     bordercolor="#666666"
     borderopacity="1.0"
     inkscape:pageshadow="2"
     inkscape:pageopacity="0.0"
     inkscape:pagecheckerboard="0"
     showgrid="false"
     inkscape:zoom="5.66"
     inkscape:cx="49.911661"
     inkscape:cy="49.911661"
     inkscape:window-width="1478"
     inkscape:window-height="800"
     inkscape:window-x="0"
     inkscape:window-y="0"
     inkscape:window-maximized="1"
     inkscape:current-layer="svg30" />
  <defs
     id="defs4">
    <style
       id="style2">.c{fill:#ebff00;}.d{fill:#fff;}</style>
  </defs>
  <g
     id="a"
     style="fill:#5fbcd3;fill-opacity:1">
    <g
       id="g24"
       style="fill:#5fbcd3;fill-opacity:1">
      <path
         class="d"
         d="M50.91,57.6h-3.05v6.1h3.05v-6.1Z"
         id="path6"
         style="fill:#5fbcd3;fill-opacity:1" />
      <path
         class="d"
         d="M50.91,37.97h-3.05v6.1h3.05v-6.1Z"
         id="path8"
         style="fill:#5fbcd3;fill-opacity:1" />
      <path
         class="d"
         d="M57.34,61.04l2.16-2.16-4.1-4.1-2.16,2.16,4.1,4.1Z"
         id="path10"
         style="fill:#5fbcd3;fill-opacity:1" />
      <path
         class="d"
         d="M43.75,47.45l2.16-2.16-4.1-4.1-2.16,2.16,4.1,4.1Z"
         id="path12"
         style="fill:#5fbcd3;fill-opacity:1" />
      <path
         class="d"
         d="M45.4,56.93l-2.16-2.16-4.1,4.1,2.16,2.16,4.1-4.1Z"
         id="path14"
         style="fill:#5fbcd3;fill-opacity:1" />
      <path
         class="d"
         d="M59.3,42.76l-2.12-2.12-4.1,4.1,2.12,2.12,4.1-4.1Z"
         id="path16"
         style="fill:#5fbcd3;fill-opacity:1" />
      <path
         class="d"
         d="M62.18,52.32v-3.05h-6.1v3.05h6.1Z"
         id="path18"
         style="fill:#5fbcd3;fill-opacity:1" />
      <path
         class="d"
         d="M42.55,52.32v-3.05h-6.1v3.05h6.1Z"
         id="path20"
         style="fill:#5fbcd3;fill-opacity:1" />
      <rect
         class="d"
         x="59.93"
         y="36.92"
         width="3"
         height="3"
         transform="translate(-9.17 54.69) rotate(-45)"
         id="rect22"
         style="fill:#5fbcd3;fill-opacity:1" />
    </g>
  </g>
  <g
     id="b"
     style="fill:#5fbcd3;fill-opacity:1">
    <path
       class="c"
       d="M50,2c26.47,0,48,21.53,48,48s-21.53,48-48,48S2,76.47,2,50,23.53,2,50,2M50,0C22.39,0,0,22.39,0,50s22.39,50,50,50,50-22.39,50-50S77.61,0,50,0h0Z"
       id="path27"
       style="fill:#5fbcd3;fill-opacity:1" />
  </g>
</svg>
