<?xml version="1.0" encoding="UTF-8" standalone="no"?>
<svg
   viewBox="0 0 100 100"
   version="1.1"
   id="svg16"
   sodipodi:docname="User_Tracking-dark-bg.svg"
   inkscape:version="1.1.2 (0a00cf5339, 2022-02-04)"
   xmlns:inkscape="http://www.inkscape.org/namespaces/inkscape"
   xmlns:sodipodi="http://sodipodi.sourceforge.net/DTD/sodipodi-0.dtd"
   xmlns="http://www.w3.org/2000/svg"
   xmlns:svg="http://www.w3.org/2000/svg">
  <sodipodi:namedview
     id="namedview18"
     pagecolor="#ffffff"
     bordercolor="#666666"
     borderopacity="1.0"
     inkscape:pageshadow="2"
     inkscape:pageopacity="0.0"
     inkscape:pagecheckerboard="0"
     showgrid="false"
     inkscape:zoom="5.66"
     inkscape:cx="49.911661"
     inkscape:cy="49.911661"
     inkscape:window-width="1478"
     inkscape:window-height="800"
     inkscape:window-x="0"
     inkscape:window-y="0"
     inkscape:window-maximized="1"
     inkscape:current-layer="svg16" />
  <defs
     id="defs4">
    <style
       id="style2">.c{fill:#ebff00;}.d{fill:#fff;fill-rule:evenodd;}</style>
  </defs>
  <g
     id="a"
     style="fill:#5fbcd3">
    <g
       id="g10"
       style="fill:#5fbcd3">
      <polygon
         class="d"
         points="49.2 48.8 45.86 45.46 43.74 47.58 47.53 51.37 47.53 51.37 49.2 53.04 58.16 44.07 56.04 41.96 49.2 48.8"
         id="polygon6"
         style="fill:#5fbcd3" />
      <path
         class="d"
         d="M60.21,56.34c2.36-2.76,3.58-6.44,3.16-10.21l-2.55,.33c.56,5.23-2.75,10.24-8,11.65-5.8,1.55-11.76-1.89-13.31-7.69-1.55-5.8,1.89-11.76,7.69-13.31,3.24-.87,6.53-.18,9.07,1.61l1.45-2.13c-3.14-2.2-7.2-3.04-11.19-1.97-7.17,1.92-11.43,9.29-9.51,16.47,.54,2.01,1.51,3.77,2.78,5.25-2.2,1.6-4.73,4.91-5.19,9.51h2.72c.5-3.99,2.97-6.64,4.57-7.53,3.19,2.41,7.42,3.39,11.59,2.28,1.73-.46,3.28-1.25,4.63-2.27,1.6,.89,4.06,3.54,4.56,7.52h2.72c-.45-4.59-2.98-7.9-5.18-9.5Z"
         id="path8"
         style="fill:#5fbcd3" />
    </g>
  </g>
  <g
     id="b"
     style="fill:#5fbcd3">
    <path
       class="c"
       d="M50,2c26.47,0,48,21.53,48,48s-21.53,48-48,48S2,76.47,2,50,23.53,2,50,2M50,0C22.39,0,0,22.39,0,50s22.39,50,50,50,50-22.39,50-50S77.61,0,50,0h0Z"
       id="path13"
       style="fill:#5fbcd3" />
  </g>
</svg>
