<?xml version="1.0" encoding="UTF-8"?>
<svg width="128px" height="128px" viewBox="0 0 128 128" version="1.1" xmlns="http://www.w3.org/2000/svg" xmlns:xlink="http://www.w3.org/1999/xlink">
    <title>Accessories</title>
    <defs>
        <linearGradient x1="25.10034%" y1="137.756608%" x2="90.7255404%" y2="-36.8920375%" id="linearGradient-1">
            <stop stop-color="#AE68FF" offset="0%"></stop>
            <stop stop-color="#7991FF" offset="100%"></stop>
        </linearGradient>
    </defs>
    <g id="E-commerce-icons" stroke="none" stroke-width="1" fill="none" fill-rule="evenodd">
        <g transform="translate(-1022.000000, -164.000000)" id="Accessories">
            <g transform="translate(1022.000000, 164.000000)">
                <rect id="Rectangle" fill-opacity="0" fill="#FFFFFF" x="0" y="0" width="128" height="128"></rect>
                <path d="M41.7858645,10.4389003 C43.4231693,12.8874331 42.7655391,16.199659 40.3170062,17.8369638 C28.5427145,25.7102928 21.3333333,38.9060671 21.3333333,53.3333333 C21.3333333,57.525061 21.9378012,61.5756076 23.0643246,65.402561 L26.6666667,61.9853931 L30.3353456,65.4622561 C38.4422466,73.1452898 42.6666667,79.4819199 42.6666667,85.3333333 C42.6666667,86.7949106 42.4031009,88.286761 41.8812981,89.8223054 C42.9113271,90.45236 43.979683,91.0408098 45.0746741,91.5836247 C47.3991004,86.2082199 51.399762,79.8319519 57.0637123,72.2851219 L59.7958994,68.7182348 L64,63.3325777 L69.4464688,70.3228704 C75.9048344,78.7354787 80.4037172,85.7509404 82.9254979,91.5840397 C84.0168338,91.0427282 85.0869788,90.4533896 86.127907,89.8207621 C85.5968991,88.286761 85.3333333,86.7949106 85.3333333,85.3333333 C85.3333333,79.789889 89.1247796,73.8109594 96.4169316,66.6643033 L97.6646544,65.4622561 L101.333333,61.9853931 L104.935675,65.402561 C106.062199,61.5756076 106.666667,57.525061 106.666667,53.3333333 C106.666667,38.9462951 99.4977677,25.782713 87.7773903,17.9002674 C85.3332186,16.2564593 84.6843957,12.942497 86.3282037,10.4983253 C87.9720117,8.05415355 91.2859741,7.40533061 93.7301458,9.04913866 C108.366841,18.8929302 117.333333,35.3572662 117.333333,53.3333333 C117.333333,60.7974875 115.799994,67.9035111 113.031122,74.3535979 C115.878512,78.2985211 117.333333,81.8994775 117.333333,85.3333333 C117.333333,90.8767777 113.541887,96.8557073 106.249735,104.002363 L105.002012,105.204411 L101.333333,108.681274 L97.6646544,105.204411 C95.3469175,103.007856 93.3465228,100.921352 91.6714609,98.9247751 C89.6443919,100.168981 87.5154645,101.276774 85.3087691,102.239593 C84.8732809,109.812384 78.9674475,116.780823 68.220992,123.648902 L66.7918806,124.54421 L64,126.259491 L61.2081194,124.54421 C50.0818099,117.708407 43.7344243,110.794715 42.790051,103.301547 L42.696585,102.241928 C40.487979,101.278566 38.3572572,100.169985 36.3164835,98.9282481 C34.9860785,100.522731 33.4397448,102.176991 31.6877463,103.899551 L30.3353456,105.204411 L26.6666667,108.681274 L22.9979877,105.204411 C14.8910867,97.5213769 10.6666667,91.1847468 10.6666667,85.3333333 C10.6666667,81.8994775 12.1214879,78.2985211 14.9620249,74.356419 C12.2000059,67.9035111 10.6666667,60.7974875 10.6666667,53.3333333 C10.6666667,35.3069271 19.6836966,18.8025018 34.387801,8.97004198 C36.8363338,7.33273716 40.1485597,7.99036742 41.7858645,10.4389003 Z M63.9946667,80.848 C56.8617548,90.6861904 53.3333333,97.7120791 53.3333333,101.333333 C53.3333333,104.376497 56.4801708,108.462784 63.2901139,113.177264 L63.2901139,113.177264 L64,113.653333 L64.7098861,113.177264 C71.1614111,108.710915 74.3252735,104.808373 74.6404404,101.822441 L74.6404404,101.822441 L74.6666667,101.333333 C74.6666667,97.7120791 71.1382452,90.6861904 64.0290651,80.8936772 L64.0290651,80.8936772 Z M101.333333,76.9173333 L100.435321,77.9159174 C97.4383512,81.3457996 96,83.9192371 96,85.3333333 C96,86.8652709 97.688065,89.7578243 101.217104,93.6258871 L101.217104,93.6258871 L101.333333,93.744 L102.231346,92.7507493 C104.978568,89.6066906 106.416118,87.1822833 106.636631,85.710835 L106.636631,85.710835 L106.666667,85.3333333 C106.666667,83.8013958 104.978602,80.9088424 101.449563,77.0407795 L101.449563,77.0407795 L101.333333,76.9173333 Z M26.6666667,76.9173333 L25.7686539,77.9159174 C22.7716846,81.3457996 21.3333333,83.9192371 21.3333333,85.3333333 C21.3333333,86.8652709 23.0213983,89.7578243 26.550437,93.6258871 L26.550437,93.6258871 L26.6666667,93.744 L27.5646794,92.7507493 C30.3119013,89.6066906 31.7494511,87.1822833 31.9699648,85.710835 L31.9699648,85.710835 L32,85.3333333 C32,83.8013958 30.311935,80.9088424 26.7828963,77.0407795 L26.7828963,77.0407795 L26.6666667,76.9173333 Z" fill="url(#linearGradient-1)"></path>
            </g>
        </g>
    </g>
</svg>