<?xml version="1.0" encoding="UTF-8"?>
<svg width="128px" height="128px" viewBox="0 0 128 128" version="1.1" xmlns="http://www.w3.org/2000/svg" xmlns:xlink="http://www.w3.org/1999/xlink">
    <title>Beauty</title>
    <defs>
        <linearGradient x1="24.7354716%" y1="137.756608%" x2="91.322314%" y2="-36.8920375%" id="linearGradient-1">
            <stop stop-color="#AE68FF" offset="0%"></stop>
            <stop stop-color="#7991FF" offset="100%"></stop>
        </linearGradient>
    </defs>
    <g id="E-commerce-icons" stroke="none" stroke-width="1" fill="none" fill-rule="evenodd">
        <g transform="translate(-736.000000, -164.000000)" id="Beauty">
            <g transform="translate(736.000000, 164.000000)">
                <rect id="Rectangle" fill-opacity="0" fill="#FFFFFF" x="0" y="0" width="128" height="128"></rect>
                <path d="M90.6666667,5.33333333 C96.2899296,5.33333333 100.896881,9.68468155 101.304076,15.2039342 L101.333333,16 L101.333333,26.6666667 L106.666667,26.6666667 C112.28993,26.6666667 116.896881,31.0180149 117.304076,36.5372675 L117.333333,37.3333333 L117.333333,112 C117.333333,117.623263 112.981985,122.230214 107.462733,122.637409 L106.666667,122.666667 L21.3333333,122.666667 C15.7100704,122.666667 11.1031194,118.315318 10.6959239,112.796066 L10.6666667,112 L10.6666667,80 C10.6666667,74.3767371 15.0180149,69.769786 20.5372675,69.3625906 L21.3333333,69.3333333 L21.3333333,58.6666667 C21.3333333,53.0434038 25.6846815,48.4364527 31.2039342,48.0292573 L32,48 L53.3333333,48 L53.3333333,37.3333333 C53.3333333,31.7100704 57.6846815,27.1031194 63.2039342,26.6959239 L64,26.6666667 L69.3333333,26.6666667 L69.3333333,16 C69.3333333,10.3767371 73.6846815,5.76978602 79.2039342,5.36259059 L80,5.33333333 L90.6666667,5.33333333 Z M74.6666667,80 L21.3333333,80 L21.3333333,112 L74.6666667,112 L74.6666667,80 Z M106.666667,37.3333333 L64,37.3333333 L64,48 L64.8354692,48.0322372 C70.0734586,48.4380546 74.2505738,52.6273108 74.6374094,57.8706008 L74.6374094,57.8706008 L74.6666667,58.6666667 L74.6666667,69.3333333 L75.5021358,69.3655705 C80.7401253,69.7713879 84.9172404,73.9606442 85.3040761,79.2039342 L85.3040761,79.2039342 L85.3333333,80 L85.3333333,112 L106.666667,112 L106.666667,37.3333333 Z M58.6666667,90.6666667 L58.6666667,101.333333 L37.3333333,101.333333 L37.3333333,90.6666667 L58.6666667,90.6666667 Z M64,58.6666667 L32,58.6666667 L32,69.3333333 L64,69.3333333 L64,58.6666667 Z M90.6666667,16 L80,16 L80,26.6666667 L90.6666667,26.6666667 L90.6666667,16 Z" fill="url(#linearGradient-1)"></path>
            </g>
        </g>
    </g>
</svg>