<?xml version="1.0" encoding="UTF-8"?>
<svg width="128px" height="128px" viewBox="0 0 128 128" version="1.1" xmlns="http://www.w3.org/2000/svg" xmlns:xlink="http://www.w3.org/1999/xlink">
    <title>Books</title>
    <defs>
        <linearGradient x1="19.4299207%" y1="115.454826%" x2="100%" y2="-14.8099701%" id="linearGradient-1">
            <stop stop-color="#AE68FF" offset="0%"></stop>
            <stop stop-color="#7991FF" offset="100%"></stop>
        </linearGradient>
    </defs>
    <g id="E-commerce-icons" stroke="none" stroke-width="1" fill="none" fill-rule="evenodd">
        <g transform="translate(-450.000000, -164.000000)" id="Books">
            <g transform="translate(450.000000, 164.000000)">
                <rect id="Rectangle" fill-opacity="0" fill="#FFFFFF" x="0" y="0" width="128" height="128"></rect>
                <path d="M36.0743041,16 C44.0162854,16 51.8648597,17.6937865 59.1905747,21.0093306 L59.1905747,21.0093306 L59.872,21.3333333 L68.112,21.3333333 L68.7516991,21.0346202 C75.4141207,17.9963297 82.6093818,16.297759 89.9271976,16.0357631 L89.9271976,16.0357631 L91.9256959,16 L117.333333,16 C120.278852,16 122.666667,18.3878147 122.666667,21.3333333 L122.666667,21.3333333 L122.666667,106.666667 C122.666667,109.612185 120.278852,112 117.333333,112 L117.333333,112 L91.9256959,112 C85.5005027,112 79.1508603,113.370305 73.393897,115.973884 L73.393897,115.973884 L71.6255692,116.81561 C70.9094869,117.156466 70.1264012,117.333333 69.3333333,117.333333 L69.3333333,117.333333 L58.6666667,117.333333 C57.8386928,117.333333 57.0220898,117.14056 56.2815275,116.770278 C50.0073829,113.633206 43.0890111,112 36.0743041,112 L36.0743041,112 L10.6666667,112 C7.721148,112 5.33333333,109.612185 5.33333333,106.666667 L5.33333333,106.666667 L5.33333333,21.3333333 C5.33333333,18.3878147 7.721148,16 10.6666667,16 L10.6666667,16 Z M36.0743041,26.6666667 L16,26.6666667 L16,101.333333 L36.0743041,101.333333 C43.8666478,101.333333 51.5628171,102.963814 58.6712412,106.108732 L58.6712412,106.108732 L58.6666667,32 C57.8735988,32 57.0905131,31.8231326 56.3744308,31.4822766 L56.3744308,31.4822766 L54.6998732,30.6840756 C48.8491397,28.0369715 42.4994973,26.6666667 36.0743041,26.6666667 L36.0743041,26.6666667 Z M112,26.6666667 L96,26.6666667 L96,53.3333333 L85.3333333,53.3333333 L85.332711,27.150246 C81.2371397,27.7543112 77.2364221,28.9195018 73.4451638,30.618763 L73.4451638,30.618763 L71.7184725,31.436945 C70.9779102,31.8072262 70.1613072,32 69.3333333,32 L69.3333333,32 L69.3333333,106.106689 C75.7862474,103.2525 82.7185847,101.648261 89.76241,101.375241 L89.76241,101.375241 L91.9256959,101.333333 L112,101.333333 L112,26.6666667 Z" fill="url(#linearGradient-1)"></path>
            </g>
        </g>
    </g>
</svg>