<?xml version="1.0" encoding="UTF-8"?>
<svg width="128px" height="128px" viewBox="0 0 128 128" version="1.1" xmlns="http://www.w3.org/2000/svg" xmlns:xlink="http://www.w3.org/1999/xlink">
    <title>Camera</title>
    <defs>
        <linearGradient x1="19.4299207%" y1="122.526122%" x2="100%" y2="-21.8116012%" id="linearGradient-1">
            <stop stop-color="#AE68FF" offset="0%"></stop>
            <stop stop-color="#7991FF" offset="100%"></stop>
        </linearGradient>
    </defs>
    <g id="E-commerce-icons" stroke="none" stroke-width="1" fill="none" fill-rule="evenodd">
        <g transform="translate(-450.000000, -660.000000)" id="Camera">
            <g transform="translate(450.000000, 660.000000)">
                <rect id="Rectangle" fill-opacity="0" fill="#FFFFFF" x="0" y="0" width="128" height="128"></rect>
                <path d="M74.2913732,10.6666667 C79.6410242,10.6666667 84.6367255,13.3402848 87.604178,17.7914635 L87.604178,17.7914635 L91.9376919,24.2917344 C92.9268427,25.7754606 94.5920764,26.6666667 96.3752934,26.6666667 L96.3752934,26.6666667 L106.666667,26.6666667 C115.503223,26.6666667 122.666667,33.8301107 122.666667,42.6666667 L122.666667,42.6666667 L122.666667,101.333333 C122.666667,110.169889 115.503223,117.333333 106.666667,117.333333 L106.666667,117.333333 L21.3333333,117.333333 C12.4967773,117.333333 5.33333333,110.169889 5.33333333,101.333333 L5.33333333,101.333333 L5.33333333,42.6666667 C5.33333333,33.8301107 12.4967773,26.6666667 21.3333333,26.6666667 L21.3333333,26.6666667 L31.6247066,26.6666667 C33.4079236,26.6666667 35.0731573,25.7754606 36.0623081,24.2917344 L36.0623081,24.2917344 L40.395822,17.7914635 C43.3632745,13.3402848 48.3589758,10.6666667 53.7086268,10.6666667 L53.7086268,10.6666667 Z M74.2913732,21.3333333 L53.7086268,21.3333333 C51.9254098,21.3333333 50.260176,22.2245394 49.2710252,23.7082656 L49.2710252,23.7082656 L44.9375113,30.2085365 C41.9700588,34.6597152 36.9743576,37.3333333 31.6247066,37.3333333 L31.6247066,37.3333333 L21.3333333,37.3333333 C18.3878147,37.3333333 16,39.721148 16,42.6666667 L16,42.6666667 L16,101.333333 C16,104.278852 18.3878147,106.666667 21.3333333,106.666667 L21.3333333,106.666667 L106.666667,106.666667 C109.612185,106.666667 112,104.278852 112,101.333333 L112,101.333333 L112,42.6666667 C112,39.721148 109.612185,37.3333333 106.666667,37.3333333 L106.666667,37.3333333 L96.3752934,37.3333333 C91.0256424,37.3333333 86.0299412,34.6597152 83.0624887,30.2085365 L83.0624887,30.2085365 L78.7289748,23.7082656 C77.739824,22.2245394 76.0745902,21.3333333 74.2913732,21.3333333 L74.2913732,21.3333333 Z M64,42.6666667 C78.7275933,42.6666667 90.6666667,54.60574 90.6666667,69.3333333 C90.6666667,84.0609267 78.7275933,96 64,96 C49.2724067,96 37.3333333,84.0609267 37.3333333,69.3333333 C37.3333333,54.60574 49.2724067,42.6666667 64,42.6666667 Z M64,53.3333333 C55.163444,53.3333333 48,60.4967773 48,69.3333333 C48,78.1698893 55.163444,85.3333333 64,85.3333333 C72.836556,85.3333333 80,78.1698893 80,69.3333333 C80,60.4967773 72.836556,53.3333333 64,53.3333333 Z" fill="url(#linearGradient-1)"></path>
            </g>
        </g>
    </g>
</svg>