<?xml version="1.0" encoding="UTF-8"?>
<svg width="128px" height="123px" viewBox="0 0 128 123" version="1.1" xmlns="http://www.w3.org/2000/svg" xmlns:xlink="http://www.w3.org/1999/xlink">
    <title>Cart</title>
    <defs>
        <linearGradient x1="19.4299207%" y1="137.756608%" x2="100%" y2="-36.8920375%" id="linearGradient-1">
            <stop stop-color="#AE68FF" offset="0%"></stop>
            <stop stop-color="#7991FF" offset="100%"></stop>
        </linearGradient>
    </defs>
    <g id="E-commerce-icons" stroke="none" stroke-width="1" fill="none" fill-rule="evenodd">
        <g transform="translate(-736.000000, -660.000000)" id="Cart">
            <g transform="translate(736.000000, 660.000000)">
                <rect id="Rectangle" fill-opacity="0" fill="#FFFFFF" x="5.12" y="0" width="122.88" height="122.88"></rect>
                <path d="M107.52,92.16 C116.003094,92.16 122.88,99.0369062 122.88,107.52 C122.88,116.003094 116.003094,122.88 107.52,122.88 C99.0369062,122.88 92.16,116.003094 92.16,107.52 C92.16,99.0369062 99.0369062,92.16 107.52,92.16 Z M40.96,92.16 C49.4430938,92.16 56.32,99.0369062 56.32,107.52 C56.32,116.003094 49.4430938,122.88 40.96,122.88 C32.4769062,122.88 25.6,116.003094 25.6,107.52 C25.6,99.0369062 32.4769062,92.16 40.96,92.16 Z M40.96,102.4 C38.1323021,102.4 35.84,104.692302 35.84,107.52 C35.84,110.347698 38.1323021,112.64 40.96,112.64 C43.7876979,112.64 46.08,110.347698 46.08,107.52 C46.08,104.692302 43.7876979,102.4 40.96,102.4 Z M107.52,102.4 C104.692302,102.4 102.4,104.692302 102.4,107.52 C102.4,110.347698 104.692302,112.64 107.52,112.64 C110.347698,112.64 112.64,110.347698 112.64,107.52 C112.64,104.692302 110.347698,102.4 107.52,102.4 Z M18.3027335,0 C27.6149311,0 35.7069498,6.27285404 38.0873686,15.1876264 L38.3281269,16.1888443 L40.34048,25.6 L106.257326,25.6 C106.755415,25.6 107.252508,25.6363415 107.744661,25.7085917 L108.478694,25.8438445 C113.748476,27.0149072 117.15965,32.0521403 116.391846,37.3092502 L116.253481,38.0613679 L109.179996,69.8920518 C107.686169,76.6142732 101.918169,81.4813696 95.1190079,81.891888 L94.1857628,81.92 L54.3581777,81.92 C47.4302626,81.92 41.4028045,77.2908136 39.5636562,70.6903929 L39.3391326,69.7783668 L28.3154302,18.3344221 C27.3632222,13.8907847 23.6112176,10.6414957 19.1475093,10.2746023 L18.3027335,10.24 L0,10.24 L0,0 L18.3027335,0 Z M106.257326,35.84 L42.53696,35.84 L49.3518293,67.6327889 C49.8155348,69.7967478 51.6071765,71.3942303 53.7621686,71.6454499 L54.3581777,71.68 L94.1857628,71.68 C96.3855217,71.68 98.3147344,70.2794891 99.0219699,68.241678 L99.1838405,67.6706839 L106.257326,35.84 Z" fill="url(#linearGradient-1)"></path>
            </g>
        </g>
    </g>
</svg>