<?xml version="1.0" encoding="UTF-8"?>
<svg width="128px" height="128px" viewBox="0 0 128 128" version="1.1" xmlns="http://www.w3.org/2000/svg" xmlns:xlink="http://www.w3.org/1999/xlink">
    <title>Comment</title>
    <defs>
        <linearGradient x1="19.4299207%" y1="135.901217%" x2="100%" y2="-35.054925%" id="linearGradient-1">
            <stop stop-color="#AE68FF" offset="0%"></stop>
            <stop stop-color="#7991FF" offset="100%"></stop>
        </linearGradient>
    </defs>
    <g id="E-commerce-icons" stroke="none" stroke-width="1" fill="none" fill-rule="evenodd">
        <g transform="translate(-164.000000, -908.000000)" id="Comment">
            <g transform="translate(164.000000, 908.000000)">
                <rect id="Rectangle" fill-opacity="0" fill="#FFFFFF" x="0" y="0" width="128" height="128"></rect>
                <path d="M106.666667,10.6666667 C115.503223,10.6666667 122.666667,17.8301107 122.666667,26.6666667 L122.666667,26.6666667 L122.666667,90.6666667 C122.666667,99.5032227 115.503223,106.666667 106.666667,106.666667 L106.666667,106.666667 L60.1386667,106.666667 L26.6666667,126.753015 L26.6666667,106.666667 L21.3333333,106.666667 C12.8123686,106.666667 5.84714198,100.00576 5.36049436,91.6067882 L5.36049436,91.6067882 L5.33333333,90.6666667 L5.33333333,26.6666667 C5.33333333,17.8301107 12.4967773,10.6666667 21.3333333,10.6666667 L21.3333333,10.6666667 Z M106.666667,21.3333333 L21.3333333,21.3333333 C18.3878147,21.3333333 16,23.721148 16,26.6666667 L16,26.6666667 L16,90.6666667 C16,93.6121853 18.3878147,96 21.3333333,96 L21.3333333,96 L37.3333333,96 L37.3333333,107.909333 L57.1894189,96 L106.666667,96 C109.612185,96 112,93.6121853 112,90.6666667 L112,90.6666667 L112,26.6666667 C112,23.721148 109.612185,21.3333333 106.666667,21.3333333 L106.666667,21.3333333 Z M64,64 L64,74.6666667 L37.3333333,74.6666667 L37.3333333,64 L64,64 Z M90.6666667,42.6666667 L90.6666667,53.3333333 L37.3333333,53.3333333 L37.3333333,42.6666667 L90.6666667,42.6666667 Z" fill="url(#linearGradient-1)"></path>
            </g>
        </g>
    </g>
</svg>