<?xml version="1.0" encoding="UTF-8"?>
<svg width="128px" height="128px" viewBox="0 0 128 128" version="1.1" xmlns="http://www.w3.org/2000/svg" xmlns:xlink="http://www.w3.org/1999/xlink">
    <title>Electronics</title>
    <defs>
        <linearGradient x1="24.7354716%" y1="137.756608%" x2="91.322314%" y2="-36.8920375%" id="linearGradient-1">
            <stop stop-color="#AE68FF" offset="0%"></stop>
            <stop stop-color="#7991FF" offset="100%"></stop>
        </linearGradient>
    </defs>
    <g id="E-commerce-icons" stroke="none" stroke-width="1" fill="none" fill-rule="evenodd">
        <g transform="translate(-1022.000000, -908.000000)" id="Electronics">
            <g transform="translate(1022.000000, 908.000000)">
                <rect id="Rectangle" fill-opacity="0" fill="#FFFFFF" x="0" y="0" width="128" height="128"></rect>
                <path d="M106.666667,5.33333333 C112.557704,5.33333333 117.333333,10.1089627 117.333333,16 L117.333333,16 L117.333333,112 C117.333333,117.891037 112.557704,122.666667 106.666667,122.666667 L106.666667,122.666667 L21.3333333,122.666667 C15.442296,122.666667 10.6666667,117.891037 10.6666667,112 L10.6666667,112 L10.6666667,16 C10.6666667,10.1089627 15.442296,5.33333333 21.3333333,5.33333333 L21.3333333,5.33333333 Z M106.666667,16 L21.3333333,16 L21.3333333,112 L106.666667,112 L106.666667,16 Z M64,48 C78.7275933,48 90.6666667,59.9390733 90.6666667,74.6666667 C90.6666667,89.39426 78.7275933,101.333333 64,101.333333 C49.2724067,101.333333 37.3333333,89.39426 37.3333333,74.6666667 C37.3333333,59.9390733 49.2724067,48 64,48 Z M64,58.6666667 C55.163444,58.6666667 48,65.8301107 48,74.6666667 C48,83.5032227 55.163444,90.6666667 64,90.6666667 C72.836556,90.6666667 80,83.5032227 80,74.6666667 C80,65.8301107 72.836556,58.6666667 64,58.6666667 Z M96,26.6666667 L96,37.3333333 L85.3333333,37.3333333 L85.3333333,26.6666667 L96,26.6666667 Z M53.3333333,26.6666667 L53.3333333,37.3333333 L32,37.3333333 L32,26.6666667 L53.3333333,26.6666667 Z" fill="url(#linearGradient-1)"></path>
            </g>
        </g>
    </g>
</svg>