<?xml version="1.0" encoding="UTF-8"?>
<svg width="128px" height="128px" viewBox="0 0 128 128" version="1.1" xmlns="http://www.w3.org/2000/svg" xmlns:xlink="http://www.w3.org/1999/xlink">
    <title>Filter</title>
    <defs>
        <linearGradient x1="19.4389051%" y1="137.756608%" x2="99.9853052%" y2="-36.8920375%" id="linearGradient-1">
            <stop stop-color="#AE68FF" offset="0%"></stop>
            <stop stop-color="#7991FF" offset="100%"></stop>
        </linearGradient>
    </defs>
    <g id="E-commerce-icons" stroke="none" stroke-width="1" fill="none" fill-rule="evenodd">
        <g transform="translate(-164.000000, -412.000000)" id="Filter">
            <g transform="translate(164.000000, 412.000000)">
                <rect id="Rectangle" fill-opacity="0" fill="#FFFFFF" x="0" y="0" width="128" height="128"></rect>
                <path d="M37.3333333,10.6666667 L37.3333333,27.3387599 C46.5345451,29.7069882 53.3333333,38.059523 53.3333333,48 C53.3333333,57.940477 46.5345451,66.2930118 37.3333333,68.6612401 L37.3333333,117.333333 L26.6666667,117.333333 L26.6666667,68.6612401 C17.4654549,66.2930118 10.6666667,57.940477 10.6666667,48 C10.6666667,38.059523 17.4654549,29.7069882 26.6666667,27.3387599 L26.6666667,10.6666667 L37.3333333,10.6666667 Z M101.333333,10.6509888 L101.333333,59.323082 C110.534545,61.6913102 117.333333,70.0438451 117.333333,79.9843221 C117.333333,89.9247991 110.534545,98.2773339 101.333333,100.645562 L101.333333,117.317655 L90.6666667,117.317655 L90.6666667,100.645562 C81.4654549,98.2773339 74.6666667,89.9247991 74.6666667,79.9843221 C74.6666667,70.0438451 81.4654549,61.6913102 90.6666667,59.323082 L90.6666667,10.6509888 L101.333333,10.6509888 Z M96,69.3176554 C90.1089627,69.3176554 85.3333333,74.0932848 85.3333333,79.9843221 C85.3333333,85.8753594 90.1089627,90.6509888 96,90.6509888 C101.891037,90.6509888 106.666667,85.8753594 106.666667,79.9843221 C106.666667,74.0932848 101.891037,69.3176554 96,69.3176554 Z M32,37.3333333 C26.1089627,37.3333333 21.3333333,42.1089627 21.3333333,48 C21.3333333,53.8910373 26.1089627,58.6666667 32,58.6666667 C37.8910373,58.6666667 42.6666667,53.8910373 42.6666667,48 C42.6666667,42.1089627 37.8910373,37.3333333 32,37.3333333 Z" fill="url(#linearGradient-1)"></path>
            </g>
        </g>
    </g>
</svg>