<?xml version="1.0" encoding="UTF-8"?>
<svg width="128px" height="128px" viewBox="0 0 128 128" version="1.1" xmlns="http://www.w3.org/2000/svg" xmlns:xlink="http://www.w3.org/1999/xlink">
    <title>Fire</title>
    <defs>
        <linearGradient x1="28.4618184%" y1="137.756608%" x2="85.2275526%" y2="-36.8920375%" id="linearGradient-1">
            <stop stop-color="#AE68FF" offset="0%"></stop>
            <stop stop-color="#7991FF" offset="100%"></stop>
        </linearGradient>
    </defs>
    <g id="E-commerce-icons" stroke="none" stroke-width="1" fill="none" fill-rule="evenodd">
        <g transform="translate(-1308.000000, -908.000000)" id="Fire">
            <g transform="translate(1308.000000, 908.000000)">
                <rect id="Rectangle" fill-opacity="0" fill="#FFFFFF" x="0" y="0" width="128" height="128"></rect>
                <path d="M70.5398485,3.74534923 C72.1388368,0.747975898 76.0952779,-0.0104141209 78.6893042,2.18322164 C97.440493,18.0401457 117.333333,55.1031281 117.333333,80 C117.333333,110.676556 92.2143395,128 64,128 C35.7856605,128 10.6666667,110.676556 10.6666667,80 C10.6666667,59.0530285 24.2311859,28.8278585 39.8443573,11.4759345 C42.1728209,8.88816278 46.3160404,9.18859936 48.2468152,12.0852205 L48.2468152,12.0852205 L58.1546667,26.9493333 Z M76.6506667,14.9493333 L63.3722953,39.8436129 C61.474082,43.4018966 56.4656753,43.6471815 54.2288487,40.2914098 L54.2288487,40.2914098 L43.36,23.984 L42.7798173,24.757184 C31.3726369,40.1780516 22.0001979,62.5122746 21.3673867,78.330712 L21.3673867,78.330712 L21.3333333,80 C21.3333333,103.760226 41.0143395,117.333333 64,117.333333 C86.9856605,117.333333 106.666667,103.760226 106.666667,80 C106.666667,60.9384344 92.2407178,31.8949041 77.4700162,15.8219847 L77.4700162,15.8219847 L76.6506667,14.9493333 Z" fill="url(#linearGradient-1)"></path>
            </g>
        </g>
    </g>
</svg>