<?xml version="1.0" encoding="UTF-8"?>
<svg width="128px" height="128px" viewBox="0 0 128 128" version="1.1" xmlns="http://www.w3.org/2000/svg" xmlns:xlink="http://www.w3.org/1999/xlink">
    <title>Home</title>
    <defs>
        <linearGradient x1="19.4299207%" y1="127.933571%" x2="100%" y2="-27.165776%" id="linearGradient-1">
            <stop stop-color="#AE68FF" offset="0%"></stop>
            <stop stop-color="#7991FF" offset="100%"></stop>
        </linearGradient>
    </defs>
    <g id="E-commerce-icons" stroke="none" stroke-width="1" fill="none" fill-rule="evenodd">
        <g transform="translate(-1308.000000, -660.000000)" id="Home">
            <g transform="translate(1308.000000, 660.000000)">
                <rect id="Rectangle" fill-opacity="0" fill="#FFFFFF" x="0" y="0" width="128" height="128"></rect>
                <path d="M67.0579254,6.29651825 L67.5875882,6.72031961 L126.254255,60.0536529 L119.079078,67.9463471 L111.996412,61.504 L112,106.666667 C112,115.187631 105.339094,122.152858 96.9401215,122.639506 L96,122.666667 L32,122.666667 C23.4790353,122.666667 16.5138086,116.00576 16.027161,107.606788 L16,106.666667 L15.9964118,61.504 L8.92092157,67.9463471 L1.7457451,60.0536529 L60.4124118,6.72031961 C62.2771378,5.02511416 65.0430086,4.88384704 67.0579254,6.29651825 Z M64,17.8666667 L26.6630784,51.808 L26.6666667,106.666667 C26.6666667,109.401791 28.7255477,111.656038 31.3780207,111.964119 L32,112 L96,112 C98.7351245,112 100.989372,109.941119 101.297452,107.288646 L101.333333,106.666667 L101.329745,51.808 L64,17.8666667 Z M69.3333333,64 L69.3333333,85.3333333 L58.6666667,85.3333333 L58.6666667,64 L69.3333333,64 Z" fill="url(#linearGradient-1)"></path>
            </g>
        </g>
    </g>
</svg>