<?xml version="1.0" encoding="UTF-8"?>
<svg width="129px" height="128px" viewBox="0 0 129 128" version="1.1" xmlns="http://www.w3.org/2000/svg" xmlns:xlink="http://www.w3.org/1999/xlink">
    <title>Love</title>
    <defs>
        <linearGradient x1="19.4299207%" y1="114.022462%" x2="100%" y2="-13.3917178%" id="linearGradient-1">
            <stop stop-color="#AE68FF" offset="0%"></stop>
            <stop stop-color="#7991FF" offset="100%"></stop>
        </linearGradient>
    </defs>
    <g id="E-commerce-icons" stroke="none" stroke-width="1" fill="none" fill-rule="evenodd">
        <g transform="translate(-450.000000, -908.000000)" id="Love">
            <g transform="translate(450.000000, 908.000000)">
                <rect id="Rectangle" fill-opacity="0" fill="#FFFFFF" x="0" y="0" width="128" height="128"></rect>
                <path d="M72.2253029,20.824536 C84.6707304,7.61104742 104.793302,7.28876721 117.613224,19.8576954 L117.613224,19.8576954 L118.560792,20.824536 C131.146403,34.1868591 131.146403,55.7267252 118.601408,69.0454396 C85.1876148,105.32514 70.082331,120 64,120 C58.4331208,120 45.3078013,107.707012 17.5359493,77.841257 L17.5359493,77.841257 L9.43920794,69.0890482 C-3.14640265,55.7267252 -3.14640265,34.1868591 9.43920794,20.824536 C21.7666245,7.73634133 41.7227491,7.24636582 54.6041429,19.64126 L54.6041429,19.64126 L55.7747529,20.8245952 L63.9946667,29.552 Z M46.3329911,26.5282011 C37.733051,19.0788978 25.186386,19.6629199 17.203975,28.1379601 C8.4875639,37.3922985 8.4875639,52.5212857 17.2445914,61.8192328 C30.9893973,76.7429332 41.9546415,88.2484655 50.1225251,96.320033 L50.1225251,96.320033 L53.5887887,99.7007666 C56.3503705,102.354527 58.700048,104.506448 60.6250943,106.148127 L60.6250943,106.148127 L62.1708457,107.430127 C62.8313655,107.960247 63.4126453,108.400336 63.9054284,108.747052 L63.9054284,108.747052 L64,108.810667 L64.6165107,108.369336 L65.8291543,107.430127 C68.2310984,105.502375 71.5070578,102.528414 75.6199279,98.5327403 L75.6199279,98.5327403 L77.8775016,96.3200043 C84.4898248,89.7856345 92.9372685,80.9988171 103.226791,69.9503231 L103.226791,69.9503231 L110.796025,61.7756242 C119.512436,52.5212857 119.512436,37.3922985 110.796025,28.1379601 C102.250567,19.0651244 88.5355284,19.0651244 79.9897905,28.1382567 L79.9897905,28.1382567 L63.9985317,45.1138061 L48.1007049,28.232001 L47.1413333,27.264 Z" fill="url(#linearGradient-1)"></path>
            </g>
        </g>
    </g>
</svg>