<?xml version="1.0" encoding="UTF-8"?>
<svg width="128px" height="128px" viewBox="0 0 128 128" version="1.1" xmlns="http://www.w3.org/2000/svg" xmlns:xlink="http://www.w3.org/1999/xlink">
    <title>Shipping</title>
    <defs>
        <linearGradient x1="19.4299207%" y1="130.595913%" x2="100%" y2="-29.8018886%" id="linearGradient-1">
            <stop stop-color="#AE68FF" offset="0%"></stop>
            <stop stop-color="#7991FF" offset="100%"></stop>
        </linearGradient>
    </defs>
    <g id="E-commerce-icons" stroke="none" stroke-width="1" fill="none" fill-rule="evenodd">
        <g transform="translate(-450.000000, -412.000000)" id="Shipping">
            <g transform="translate(450.000000, 412.000000)">
                <rect id="Rectangle" fill-opacity="0" fill="#FFFFFF" x="0" y="0" width="128" height="128"></rect>
                <path d="M74.8995455,5.33333333 C82.6714527,5.33333333 90.0322223,8.72219357 95.0821491,14.5707989 L95.9489379,15.6282503 L124.629635,52.5034329 C126.571333,54.9999005 127.724128,58.0083553 127.956333,61.1449871 L128,62.3264827 L128,96 C128,104.520965 121.339094,111.486191 112.940122,111.972839 L112,112 L104.446526,112.002839 C100.330909,121.419482 90.9339359,128 80,128 C69.0660641,128 59.6690906,121.419482 55.5534738,112.002839 L37.3333333,112 L37.3333333,101.333333 L53.3333333,101.333333 C53.3333333,86.60574 65.2724067,74.6666667 80,74.6666667 C94.3400251,74.6666667 106.036363,85.9856358 106.642029,100.176589 L106.666667,101.333333 L112,101.333333 C114.735124,101.333333 116.989372,99.2744523 117.297452,96.6219793 L117.333333,96 L117.333333,62.3264827 C117.333333,61.377679 117.08033,60.4505295 116.606322,59.6383 L116.209878,59.0521327 L87.529181,22.1769502 C84.7144031,18.5579501 80.4945195,16.3339064 75.9528437,16.0346501 L74.8995455,16 L16,16 L16,5.33333333 L74.8995455,5.33333333 Z M80,85.3333333 C71.163444,85.3333333 64,92.4967773 64,101.333333 C64,110.169889 71.163444,117.333333 80,117.333333 C88.836556,117.333333 96,110.169889 96,101.333333 C96,92.4967773 88.836556,85.3333333 80,85.3333333 Z M48,69.3333333 L48,80 L16,80 L16,69.3333333 L48,69.3333333 Z M32,37.3333333 L32,48 L0,48 L0,37.3333333 L32,37.3333333 Z" fill="url(#linearGradient-1)"></path>
            </g>
        </g>
    </g>
</svg>