<?xml version="1.0" encoding="UTF-8"?>
<svg width="128px" height="128px" viewBox="0 0 128 128" version="1.1" xmlns="http://www.w3.org/2000/svg" xmlns:xlink="http://www.w3.org/1999/xlink">
    <title>Shoes</title>
    <defs>
        <linearGradient x1="19.4299207%" y1="137.756608%" x2="100%" y2="-36.8920375%" id="linearGradient-1">
            <stop stop-color="#AE68FF" offset="0%"></stop>
            <stop stop-color="#7991FF" offset="100%"></stop>
        </linearGradient>
    </defs>
    <g id="E-commerce-icons" stroke="none" stroke-width="1" fill="none" fill-rule="evenodd">
        <g transform="translate(-1308.000000, -164.000000)" id="Shoes">
            <g transform="translate(1308.000000, 164.000000)">
                <rect id="Rectangle" fill-opacity="0" fill="#FFFFFF" x="0" y="0" width="128" height="128"></rect>
                <path d="M121.104569,6.8954305 C123.027151,8.81801163 123.175041,11.8432439 121.548242,13.9354637 L121.104569,14.4379028 L117.333333,18.208 L117.333333,31.5075775 C117.333333,41.7582777 116.201893,51.9741577 113.961815,61.9699851 L113.174093,65.2935233 L111.343398,72.616305 C110.252329,76.9805824 110.758446,81.5911959 112.770278,85.6148608 C115.498275,91.070854 117.037398,97.0361378 117.294693,103.116955 L117.333333,104.944272 L117.333333,112 C117.333333,117.623263 112.981985,122.230214 107.462733,122.637409 L106.666667,122.666667 L16,122.666667 C10.3767371,122.666667 5.76978602,118.315318 5.36259059,112.796066 L5.33333333,112 L5.33333333,104 C5.33333333,94.0772851 11.9789642,85.4383523 21.4605456,82.8324103 L22.5255317,82.5679296 L49.1569624,76.6498339 C51.3938127,76.152756 53.0390825,74.2926876 53.2977604,72.0607025 L53.3333333,71.4435029 L53.3333333,38.0053333 L48.15924,17.2935233 C47.4167144,14.3234211 49.311468,11.4353583 52.151099,10.7969228 L52.7311222,10.6998729 L53.3333333,10.6666667 L109.781333,10.6666667 L113.562097,6.8954305 C115.644893,4.81263428 119.021773,4.81263428 121.104569,6.8954305 Z M106.666667,21.3333333 L60.1653333,21.3333333 L63.84076,36.03981 C63.8936404,36.2513316 63.9334504,36.4656967 63.9600403,36.6816893 L63.9600403,36.6816893 L64,37.3333333 L80,37.3333333 L80,48 L64,48 L64,58.6666667 L80,58.6666667 L80,69.3333333 L64,69.3333333 L64,71.4435029 C64,78.9426812 58.7914882,85.4356956 51.4708873,87.0624958 L51.4708873,87.0624958 L24.8394566,92.9805916 C19.6746747,94.1283208 16,98.7092294 16,104 L16,104 L16,112 L106.666667,112 L106.666667,104.944272 C106.666667,99.8902352 105.489956,94.9056071 103.229722,90.3851392 L103.229722,90.3851392 L102.590747,89.0213094 C99.9787048,83.0545367 99.4086295,76.3755855 100.995211,70.0292584 L100.995211,70.0292584 L102.825907,62.7064767 C105.376785,52.5029632 106.666667,42.0251185 106.666667,31.5075775 L106.666667,31.5075775 L106.666667,21.3333333 Z" fill="url(#linearGradient-1)"></path>
            </g>
        </g>
    </g>
</svg>