<?xml version="1.0" encoding="UTF-8"?>
<svg width="128px" height="128px" viewBox="0 0 128 128" version="1.1" xmlns="http://www.w3.org/2000/svg" xmlns:xlink="http://www.w3.org/1999/xlink">
    <title>Star</title>
    <defs>
        <linearGradient x1="19.4299207%" y1="130.44024%" x2="100%" y2="-29.6477494%" id="linearGradient-1">
            <stop stop-color="#AE68FF" offset="0%"></stop>
            <stop stop-color="#7991FF" offset="100%"></stop>
        </linearGradient>
    </defs>
    <g id="E-commerce-icons" stroke="none" stroke-width="1" fill="none" fill-rule="evenodd">
        <g transform="translate(-1022.000000, -660.000000)" id="Star">
            <g transform="translate(1022.000000, 660.000000)">
                <rect id="Rectangle" fill-opacity="0" fill="#FFFFFF" x="0" y="0" width="128" height="128"></rect>
                <path d="M56.5792247,9.48276345 C58.2298165,5.38438242 62.8902798,3.4000572 66.9886609,5.05064903 C69.0073818,5.86367355 70.6077508,7.46404251 71.4207753,9.48276345 L71.4207753,9.48276345 L84.2773333,41.4133333 L118.628129,43.7809134 C122.776696,44.0664068 125.968156,47.4662749 126.076373,51.5401271 L126.076373,51.5401271 L126.060013,52.3112768 C125.9106,54.4824329 124.883099,56.4990155 123.21442,57.8960668 L123.21442,57.8960668 L96.816,79.9893333 L105.182816,113.391639 C106.193273,117.425384 103.946022,121.511259 100.104999,122.873069 L100.104999,122.873069 L99.3665364,123.095808 C97.255473,123.624632 95.020074,123.270579 93.175749,122.115284 L93.175749,122.115284 L64,103.834667 L34.824251,122.115284 C31.3001806,124.322782 26.7198433,123.448123 24.2377436,120.215916 L24.2377436,120.215916 L23.7977087,119.582427 C22.642413,117.738102 22.2883606,115.502703 22.8171843,113.391639 L22.8171843,113.391639 L31.1786667,79.9893333 L4.78557983,57.8960668 C1.60958196,55.2370585 1.01817315,50.6363014 3.29367229,47.2801891 L3.29367229,47.2801891 L3.78708121,46.626506 C5.18413256,44.9578267 7.20071509,43.9303266 9.37187119,43.7809134 L9.37187119,43.7809134 L43.7173333,41.4133333 Z M64,19.6053333 L51.116041,51.6000851 L16.7093333,53.968 L43.1533165,76.1068314 L34.7733333,109.557333 L64,91.2528336 L93.2213333,109.557333 L84.8466835,76.1068314 L111.285333,53.968 L76.883959,51.6000851 L64,19.6053333 Z" fill="url(#linearGradient-1)"></path>
            </g>
        </g>
    </g>
</svg>