<?xml version="1.0" encoding="UTF-8"?>
<svg width="128px" height="128px" viewBox="0 0 128 128" version="1.1" xmlns="http://www.w3.org/2000/svg" xmlns:xlink="http://www.w3.org/1999/xlink">
    <title>Toys</title>
    <defs>
        <linearGradient x1="19.4299207%" y1="137.756608%" x2="100%" y2="-36.8920375%" id="linearGradient-1">
            <stop stop-color="#AE68FF" offset="0%"></stop>
            <stop stop-color="#7991FF" offset="100%"></stop>
        </linearGradient>
    </defs>
    <g id="E-commerce-icons" stroke="none" stroke-width="1" fill="none" fill-rule="evenodd">
        <g transform="translate(-164.000000, -164.000000)" id="Toys">
            <g transform="translate(164.000000, 164.000000)">
                <rect id="Rectangle" fill-opacity="0" fill="#FFFFFF" x="0" y="0" width="128" height="128"></rect>
                <path d="M96,5.33333333 C104.836556,5.33333333 112,12.4967773 112,21.3333333 C112,30.1698893 104.836556,37.3333333 96,37.3333333 L95.7703742,37.3317191 C95.472266,41.7588984 94.8517948,45.565818 93.7878427,48.8020368 L94.7723176,49.406444 C96.7707661,48.5023038 98.9933901,48 101.333333,48 C110.169889,48 117.333333,55.163444 117.333333,64 C117.333333,70.9824572 112.860607,76.9202531 106.623937,79.1046038 L106.58988,80.6584171 C115.830228,82.9941426 122.666667,91.3653701 122.666667,101.333333 C122.666667,113.115408 113.115408,122.666667 101.333333,122.666667 C94.6488903,122.666667 88.6824906,119.592358 84.7709382,114.780544 C79.118045,116.493691 72.2358785,117.333333 64,117.333333 C55.5357716,117.333333 48.63624,116.580399 43.0483025,114.990845 C39.1403068,119.682907 33.251934,122.666667 26.6666667,122.666667 C14.884592,122.666667 5.33333333,113.115408 5.33333333,101.333333 C5.33333333,91.3615103 12.1750675,82.9876598 21.4204496,80.6498681 L21.3707782,79.1027518 C15.1368668,76.9168983 10.6666667,70.9804847 10.6666667,64 C10.6666667,55.163444 17.8301107,48 26.6666667,48 C29.0066099,48 31.2292339,48.5023038 33.2325936,49.4049665 L34.2262901,48.7943408 C33.0865088,45.5429193 32.4381415,41.730004 32.1624576,37.3325325 L32,37.3333333 C23.163444,37.3333333 16,30.1698893 16,21.3333333 C16,12.4967773 23.163444,5.33333333 32,5.33333333 C36.1921042,5.33333333 40.0076581,6.94553717 42.8604617,9.58374495 C48.1854015,6.66665671 55.3377423,5.33333333 64,5.33333333 C72.6622577,5.33333333 79.8145985,6.66665671 85.1440086,9.5854067 C87.9923419,6.94553717 91.8078958,5.33333333 96,5.33333333 Z M101.333333,90.6666667 C95.442296,90.6666667 90.6666667,95.442296 90.6666667,101.333333 C90.6666667,107.224371 95.442296,112 101.333333,112 C107.224371,112 112,107.224371 112,101.333333 C112,95.442296 107.224371,90.6666667 101.333333,90.6666667 Z M26.6666667,90.6666667 C20.7756293,90.6666667 16,95.442296 16,101.333333 C16,107.224371 20.7756293,112 26.6666667,112 C32.557704,112 37.3333333,107.224371 37.3333333,101.333333 C37.3333333,95.442296 32.557704,90.6666667 26.6666667,90.6666667 Z M41.9113201,59.1278099 C42.4018785,60.6640168 42.6666667,62.3010861 42.6666667,64 C42.6666667,70.9509477 38.2342167,76.8666412 32.0364079,79.077149 L32.0364079,79.077149 L32.0803089,80.6929312 C41.2407446,83.0889731 47.9999949,91.4217989 47.9999949,101.333333 C47.9999949,102.677346 47.8757136,103.99233 47.6303145,105.269432 C51.269233,106.112509 55.7185941,106.535132 61.1463542,106.640143 L61.1463542,106.640143 L63.9999949,106.666667 C70.7680778,106.666667 76.1360267,106.29991 80.3790441,105.357796 C80.1302332,104.054497 79.9999949,102.709124 79.9999949,101.333333 C79.9999949,91.4425663 86.73096,83.1238992 95.8621416,80.7080705 L95.8621416,80.7080705 L95.9263878,79.0633474 C89.7505108,76.8462374 85.3333282,70.9389622 85.3333282,64 C85.3333282,62.4067283 85.5662122,60.867849 86.0012119,59.4226156 C81.1197778,62.5839623 74.0565306,64 64,64 C53.9700566,64 46.8424803,62.4373684 41.9113201,59.1278099 Z M101.333333,58.6666667 C98.3878147,58.6666667 96,61.0544813 96,64 C96,66.9455187 98.3878147,69.3333333 101.333333,69.3333333 C104.278852,69.3333333 106.666667,66.9455187 106.666667,64 C106.666667,61.0544813 104.278852,58.6666667 101.333333,58.6666667 Z M26.6666667,58.6666667 C23.721148,58.6666667 21.3333333,61.0544813 21.3333333,64 C21.3333333,66.9455187 23.721148,69.3333333 26.6666667,69.3333333 C29.6121853,69.3333333 32,66.9455187 32,64 C32,61.0544813 29.6121853,58.6666667 26.6666667,58.6666667 Z M64,16 C49.0811981,16 42.6666574,19.828208 42.6666574,29.8566993 L42.6666574,29.8566993 L42.6714176,32.4242589 C42.7612868,48.313146 45.6049715,52.9115724 61.5689449,53.3049601 L61.5689449,53.3049601 L64,53.3333333 C82.030314,53.3333333 85.0908552,49.700756 85.3186779,32.2730078 L85.3186779,32.2730078 L85.3333333,29.8666667 C85.3333333,19.828208 78.9188019,16 64,16 Z M74.6666667,32 C77.6121853,32 80,34.3878147 80,37.3333333 C80,40.278852 77.6121853,42.6666667 74.6666667,42.6666667 C71.721148,42.6666667 69.3333333,40.278852 69.3333333,37.3333333 C69.3333333,34.3878147 71.721148,32 74.6666667,32 Z M53.3333333,32 C56.278852,32 58.6666667,34.3878147 58.6666667,37.3333333 C58.6666667,40.278852 56.278852,42.6666667 53.3333333,42.6666667 C50.3878147,42.6666667 48,40.278852 48,37.3333333 C48,34.3878147 50.3878147,32 53.3333333,32 Z M96,16 C94.8511059,16 93.7870595,16.3632763 92.9259181,16.9808321 C94.5079953,19.6827271 95.5005601,22.8936534 95.8542136,26.6533973 L95.8542136,26.6533973 L96,26.6666667 C98.9455187,26.6666667 101.333333,24.278852 101.333333,21.3333333 C101.333333,18.3878147 98.9455187,16 96,16 Z M32,16 C29.0544813,16 26.6666667,18.3878147 26.6666667,21.3333333 C26.6666667,24.278852 29.0544813,26.6666667 32,26.6666667 L32,26.6666667 L32.1457864,26.6533973 C32.4994399,22.8936534 33.4920047,19.6827271 35.0835386,16.9812284 C34.2129405,16.3632763 33.1488941,16 32,16 Z" fill="url(#linearGradient-1)"></path>
            </g>
        </g>
    </g>
</svg>