<?xml version="1.0" encoding="UTF-8"?>
<svg width="128px" height="128px" viewBox="0 0 128 128" version="1.1" xmlns="http://www.w3.org/2000/svg" xmlns:xlink="http://www.w3.org/1999/xlink">
    <title>T-shirt</title>
    <defs>
        <linearGradient x1="19.4299207%" y1="127.577563%" x2="100%" y2="-26.8132753%" id="linearGradient-1">
            <stop stop-color="#AE68FF" offset="0%"></stop>
            <stop stop-color="#7991FF" offset="100%"></stop>
        </linearGradient>
    </defs>
    <g id="E-commerce-icons" stroke="none" stroke-width="1" fill="none" fill-rule="evenodd">
        <g transform="translate(-1308.000000, -412.000000)" id="T-shirt">
            <g transform="translate(1308.000000, 412.000000)">
                <rect id="Rectangle" fill-opacity="0" fill="#FFFFFF" x="0" y="0" width="128" height="128"></rect>
                <path d="M77.7400372,10.7174905 C81.343946,7.11358171 86.4492299,5.44226247 91.4866606,6.21725182 L91.4866606,6.21725182 L126.025911,11.5309827 L119.292242,58.6666667 L106.666667,58.6666667 L106.666667,122.666667 L21.3333333,122.666667 L21.3333333,58.6666667 L8.70775786,58.6666667 L1.97408872,11.5309827 L36.5133394,6.21725182 C41.5507701,5.44226247 46.656054,7.11358171 50.2599628,10.7174905 L50.2599628,10.7174905 L57.1045695,17.5620972 C60.9128106,21.3703383 67.0871894,21.3703383 70.8954305,17.5620972 L70.8954305,17.5620972 Z M89.8647173,16.7598833 C88.1855738,16.5015535 86.4838124,17.0586599 85.2825095,18.2599628 L85.2825095,18.2599628 L78.4379028,25.1045695 C70.4640693,33.0784031 57.5359307,33.0784031 49.5620972,25.1045695 L49.5620972,25.1045695 L42.7174905,18.2599628 C41.5161876,17.0586599 39.8144262,16.5015535 38.1352827,16.7598833 L38.1352827,16.7598833 L14.0213333,20.4693333 L17.952,48 L21.3333333,48 C26.9565962,48 31.5635473,52.3513482 31.9707427,57.8706008 L31.9707427,57.8706008 L32,58.6666667 L32,112 L96,112 L96,58.6666667 C96,53.0434038 100.351348,48.4364527 105.870601,48.0292573 L105.870601,48.0292573 L106.666667,48 L110.042667,48 L113.973333,20.4693333 Z M74.6666667,48 L74.6666667,58.6666667 L53.3333333,58.6666667 L53.3333333,48 L74.6666667,48 Z" fill="url(#linearGradient-1)"></path>
            </g>
        </g>
    </g>
</svg>