<?xml version="1.0" encoding="UTF-8" standalone="no"?>
<svg
   viewBox="0 0 500 500"
   version="1.1"
   id="svg112"
   sodipodi:docname="102.svg"
   inkscape:version="1.1.2 (0a00cf5339, 2022-02-04)"
   xmlns:inkscape="http://www.inkscape.org/namespaces/inkscape"
   xmlns:sodipodi="http://sodipodi.sourceforge.net/DTD/sodipodi-0.dtd"
   xmlns="http://www.w3.org/2000/svg"
   xmlns:svg="http://www.w3.org/2000/svg">
  <defs
     id="defs116" />
  <sodipodi:namedview
     id="namedview114"
     pagecolor="#ffffff"
     bordercolor="#666666"
     borderopacity="1.0"
     inkscape:pageshadow="2"
     inkscape:pageopacity="0.0"
     inkscape:pagecheckerboard="0"
     showgrid="false"
     inkscape:zoom="1.132"
     inkscape:cx="249.5583"
     inkscape:cy="250.4417"
     inkscape:window-width="1478"
     inkscape:window-height="800"
     inkscape:window-x="0"
     inkscape:window-y="0"
     inkscape:window-maximized="1"
     inkscape:current-layer="svg112" />
  <ellipse
     id="freepik--floor--inject-19"
     cx="250"
     cy="346.53"
     rx="230.12"
     ry="132.84"
     style="fill:#e5ebf9;fill-opacity:1" />
  <path
     d="m 62.22,351.49 a 9.93,9.93 0 0 0 4.62,7.68 l 129.49,74.76 a 10.25,10.25 0 0 0 9.25,0 L 397.49,323.14 a 8.69,8.69 0 0 0 0,-15.35 L 268,233 a 10.19,10.19 0 0 0 -9.25,0 L 66.84,343.82 a 9.91,9.91 0 0 0 -4.62,7.67 z"
     style="fill:#37474f"
     id="path4" />
  <path
     d="m 201,425 v 10 a 9.37,9.37 0 0 1 -4.62,-1.1 L 66.84,359.17 a 8.66,8.66 0 0 1 -0.47,-15.05 c -2.07,1.48 -1.91,3.66 0.47,5 l 129.5,74.77 A 9.37,9.37 0 0 0 201,425 Z"
     style="fill:#263238"
     id="path6" />
  <path
     d="m 57.88,344 a 9.91,9.91 0 0 1 -4.33,-7.84 V 181.61 a 10.22,10.22 0 0 1 4.62,-8 L 250.08,62.82 a 9.94,9.94 0 0 1 9,-0.17 9.94,9.94 0 0 1 4.33,7.84 V 225 a 10.21,10.21 0 0 1 -4.62,8 L 66.84,343.82 A 9.93,9.93 0 0 1 57.88,344 Z"
     style="fill:#455a64"
     id="path8" />
  <path
     d="m 66.3,344.1 a 10,10 0 0 1 -8.42,-0.12 9.91,9.91 0 0 1 -4.33,-7.84 V 181.61 a 9.28,9.28 0 0 1 1.36,-4.55 l 8.66,5 v 0 a 9.47,9.47 0 0 0 -1.35,4.54 v 154.55 c 0,2.73 1.78,3.96 4.08,2.95 z"
     style="fill:#263238"
     id="path10" />
  <path
     d="m 62.22,186.62 v 154.53 c 0,3 2.07,4.14 4.62,2.67 L 258.75,233 a 10.21,10.21 0 0 0 4.62,-8 V 70.49 c 0,-2.94 -2.06,-4.14 -4.62,-2.66 L 66.84,178.61 a 10.24,10.24 0 0 0 -4.62,8.01 z"
     style="fill:#37474f"
     id="path12" />
  <path
     d="m 66.84,349.15 129.49,74.77 a 10.25,10.25 0 0 0 9.25,0 L 397.49,313.13 c 2.55,-1.48 2.55,-3.87 0,-5.34 L 268,233 a 10.19,10.19 0 0 0 -9.25,0 L 66.84,343.82 c -2.55,1.47 -2.55,3.86 0,5.33 z"
     style="fill:#cdb2c0;fill-opacity:1"
     id="path14" />
  <path
     d="M 69.33,184.55 254.88,77.45 c 1.53,-0.88 2.78,-0.16 2.78,1.61 v 142.57 a 6.13,6.13 0 0 1 -2.78,4.8 L 69.33,333.53 c -1.53,0.88 -2.78,0.16 -2.78,-1.61 V 189.35 a 6.13,6.13 0 0 1 2.78,-4.8 z"
     style="fill:#ffffff"
     id="path16" />
  <path
     d="M 69.33,184.55 254.88,77.45 c 1.53,-0.88 2.78,-0.16 2.78,1.61 v 142.57 a 6.13,6.13 0 0 1 -2.78,4.8 L 69.33,333.53 c -1.53,0.88 -2.78,0.16 -2.78,-1.61 V 189.35 a 6.13,6.13 0 0 1 2.78,-4.8 z"
     style="opacity:0.4;fill:#916f6f"
     id="path18" />
  <path
     d="m 81.87,345.15 179.2,-103.44 a 5.08,5.08 0 0 1 4.62,0 l 8.41,4.85 c 1.27,0.74 1.27,1.93 0,2.67 L 94.88,352.66 a 5.08,5.08 0 0 1 -4.62,0 l -8.39,-4.84 c -1.27,-0.74 -1.27,-1.93 0,-2.67 z"
     style="fill:#37474f"
     id="path20" />
  <path
     d="M 103.55,357.67 282.74,254.22 a 5.08,5.08 0 0 1 4.62,0 l 51.74,29.87 c 1.28,0.74 1.28,1.94 0,2.67 l -179,103.32 a 5.14,5.14 0 0 1 -4.63,0 l -51.91,-29.75 c -1.28,-0.73 -1.29,-1.93 -0.01,-2.66 z"
     style="fill:#263238"
     id="path22" />
  <path
     d="m 261,298.21 5.64,-3.26 c 0.24,-0.14 0.25,-0.36 0,-0.5 L 260.72,291 a 1,1 0 0 0 -0.86,0 l -5.65,3.26 c -0.23,0.14 -0.24,0.36 0,0.49 l 6,3.44 a 1,1 0 0 0 0.79,0.02 z m -9.67,-12.1 -5.64,3.26 a 0.26,0.26 0 0 0 0,0.49 l 6,3.44 a 1,1 0 0 0 0.86,0 l 5.65,-3.26 a 0.26,0.26 0 0 0 0,-0.5 l -6,-3.44 a 1,1 0 0 0 -0.85,0.01 z m -18.23,10.52 -9.54,5.51 c -0.24,0.14 -0.25,0.37 0,0.5 l 6,3.44 a 1,1 0 0 0 0.86,0 l 9.55,-5.51 c 0.24,-0.14 0.24,-0.36 0,-0.5 l -6,-3.43 a 0.93,0.93 0 0 0 -0.85,-0.01 z m 10,-5.76 -5.65,3.26 c -0.24,0.14 -0.24,0.36 0,0.49 l 6,3.44 a 1,1 0 0 0 0.86,0 l 5.64,-3.26 c 0.24,-0.14 0.24,-0.36 0,-0.5 l -6,-3.44 a 0.94,0.94 0 0 0 -0.84,0.01 z m -22.1,12.78 -5.64,3.25 c -0.24,0.14 -0.24,0.37 0,0.5 l 6,3.44 a 1,1 0 0 0 0.86,0 l 5.64,-3.25 c 0.24,-0.14 0.24,-0.36 0,-0.5 l -6,-3.44 a 1,1 0 0 0 -0.86,0 z m -8.24,4.76 -5.65,3.26 a 0.26,0.26 0 0 0 0,0.49 l 5.89,3.44 a 0.93,0.93 0 0 0 0.86,0 l 5.64,-3.25 c 0.24,-0.14 0.24,-0.36 0,-0.5 l -5.95,-3.44 a 1,1 0 0 0 -0.82,0 z m 23.38,14 5.64,-3.26 c 0.24,-0.14 0.24,-0.36 0,-0.49 l -5.95,-3.44 a 1,1 0 0 0 -0.86,0 l -5.65,3.26 a 0.26,0.26 0 0 0 0,0.5 l 5.95,3.44 a 1,1 0 0 0 0.84,-0.01 z m -8.25,4.76 5.65,-3.26 c 0.24,-0.14 0.24,-0.36 0,-0.49 L 227.56,320 a 1,1 0 0 0 -0.86,0 l -5.64,3.26 c -0.24,0.14 -0.24,0.36 0,0.5 l 5.95,3.44 a 1,1 0 0 0 0.85,-0.03 z m -8.24,4.76 5.64,-3.26 a 0.26,0.26 0 0 0 0,-0.49 l -6,-3.44 a 0.93,0.93 0 0 0 -0.86,0 l -5.62,3.26 c -0.24,0.14 -0.24,0.36 0,0.5 l 6,3.44 a 1,1 0 0 0 0.81,-0.01 z m -8.25,4.76 5.64,-3.26 c 0.24,-0.13 0.25,-0.36 0,-0.49 l -6,-3.44 a 1,1 0 0 0 -0.86,0 l -5.64,3.25 c -0.24,0.14 -0.25,0.36 0,0.5 l 5.95,3.44 a 1,1 0 0 0 0.88,0 z m 41.37,-33.69 5.65,-3.26 a 0.26,0.26 0 0 0 0,-0.5 l -6,-3.43 a 0.93,0.93 0 0 0 -0.86,0 L 246,299 c -0.24,0.14 -0.24,0.36 0,0.49 l 5.95,3.44 a 1,1 0 0 0 0.82,0.07 z m -8.41,14.68 12.58,-7.27 c 0.24,-0.14 0.24,-0.36 0,-0.49 l -14.46,-8.35 a 1,1 0 0 0 -0.86,0 l -6.51,3.76 c -0.24,0.14 -0.24,0.36 0,0.5 l 7.66,4.42 a 0.26,0.26 0 0 1 0,0.49 l -5.21,3 c -0.24,0.14 -0.24,0.36 0,0.5 l 6,3.43 a 0.93,0.93 0 0 0 0.8,-0.02 z m -39.88,-4.48 -5.64,3.26 a 0.26,0.26 0 0 0 0,0.49 l 5.95,3.44 a 1,1 0 0 0 0.86,0 l 5.65,-3.26 a 0.26,0.26 0 0 0 0,-0.5 l -5.95,-3.44 a 1,1 0 0 0 -0.87,-0.02 z m -8.24,4.76 -5.65,3.26 c -0.24,0.14 -0.24,0.36 0,0.49 l 6,3.44 a 1,1 0 0 0 0.86,0 l 5.64,-3.26 c 0.24,-0.14 0.24,-0.36 0,-0.5 l -6,-3.44 a 0.94,0.94 0 0 0 -0.85,-0.02 z M 152.79,370 a 1,1 0 0 0 0.86,0 l 5.64,-3.26 c 0.24,-0.14 0.25,-0.36 0,-0.5 l -6,-3.43 a 0.93,0.93 0 0 0 -0.86,0 l -5.64,3.26 c -0.24,0.14 -0.25,0.36 0,0.49 z m -22.52,-14 -5.64,3.25 c -0.24,0.14 -0.25,0.36 0,0.5 l 5.95,3.44 a 1,1 0 0 0 0.86,0 l 5.64,-3.26 c 0.24,-0.13 0.25,-0.36 0,-0.49 l -6,-3.44 a 0.93,0.93 0 0 0 -0.81,0 z m 11.85,10.34 a 0.93,0.93 0 0 0 0.86,0 l 5.64,-3.26 c 0.24,-0.14 0.24,-0.36 0,-0.49 l -6,-3.44 a 0.93,0.93 0 0 0 -0.86,0 l -5.64,3.26 c -0.24,0.14 -0.24,0.36 0,0.5 z m 24.38,6.06 5.64,-3.26 a 0.26,0.26 0 0 0 0,-0.49 l -6,-3.44 a 1,1 0 0 0 -0.86,0 l -5.64,3.25 c -0.24,0.14 -0.24,0.36 0,0.5 l 6,3.44 a 1,1 0 0 0 0.86,0.02 z m -9.11,4.77 a 1,1 0 0 0 0.86,0 l 5.64,-3.26 c 0.24,-0.13 0.25,-0.36 0,-0.49 L 158,370 a 1,1 0 0 0 -0.86,0 l -5.64,3.25 c -0.24,0.14 -0.25,0.36 0,0.5 z m -18.87,-25.94 -5.65,3.26 a 0.26,0.26 0 0 0 0,0.5 l 5.95,3.44 a 1,1 0 0 0 0.86,0 l 5.64,-3.26 c 0.24,-0.14 0.24,-0.36 0,-0.49 l -6,-3.44 a 0.94,0.94 0 0 0 -0.8,0.01 z m 41.22,-23.8 -5.64,3.26 c -0.24,0.14 -0.24,0.36 0,0.49 l 6,3.44 a 0.93,0.93 0 0 0 0.86,0 l 5.64,-3.26 c 0.24,-0.14 0.24,-0.36 0,-0.5 l -6,-3.43 a 0.93,0.93 0 0 0 -0.86,0.02 z m -33,19 -5.64,3.26 c -0.24,0.14 -0.24,0.36 0,0.5 l 5.95,3.43 a 0.93,0.93 0 0 0 0.86,0 l 5.65,-3.26 c 0.24,-0.14 0.24,-0.36 0,-0.49 l -5.95,-3.44 a 1,1 0 0 0 -0.85,0.06 z M 188,322.69 182.35,326 c -0.24,0.14 -0.25,0.36 0,0.49 l 5.95,3.44 a 0.93,0.93 0 0 0 0.86,0 l 5.64,-3.26 c 0.24,-0.14 0.25,-0.36 0,-0.5 l -6,-3.43 a 0.93,0.93 0 0 0 -0.8,-0.05 z m -16.49,9.52 -5.64,3.26 c -0.24,0.14 -0.25,0.36 0,0.5 l 6,3.43 a 0.93,0.93 0 0 0 0.86,0 l 5.64,-3.26 c 0.24,-0.14 0.25,-0.36 0,-0.5 l -5.95,-3.43 a 0.93,0.93 0 0 0 -0.92,0 z m -8.26,4.79 -5.64,3.26 c -0.24,0.14 -0.24,0.36 0,0.5 l 6,3.43 a 0.93,0.93 0 0 0 0.86,0 l 5.64,-3.26 c 0.24,-0.14 0.24,-0.36 0,-0.49 l -6,-3.44 a 0.93,0.93 0 0 0 -0.86,0 z m -8.25,4.73 -5.63,3.27 c -0.24,0.14 -0.25,0.36 0,0.5 l 5.95,3.43 a 0.93,0.93 0 0 0 0.86,0 l 5.64,-3.26 c 0.24,-0.14 0.25,-0.36 0,-0.49 l -5.95,-3.44 A 1,1 0 0 0 155,341.73 Z m 39.87,4.48 5.64,-3.25 c 0.24,-0.14 0.25,-0.36 0,-0.5 L 194.58,339 a 1,1 0 0 0 -0.86,0 l -5.64,3.25 c -0.24,0.14 -0.25,0.36 0,0.5 l 6,3.44 a 1,1 0 0 0 0.8,0.02 z m 74.7,-70.62 -5.64,3.25 c -0.24,0.14 -0.25,0.36 0,0.5 l 5.95,3.44 a 1,1 0 0 0 0.86,0 l 5.64,-3.26 c 0.24,-0.13 0.25,-0.36 0,-0.49 l -5.95,-3.44 a 0.93,0.93 0 0 0 -0.85,0 z m -10,5.76 -5.57,3.26 a 0.26,0.26 0 0 0 0,0.49 l 5.95,3.44 a 1,1 0 0 0 0.86,0 l 5.64,-3.25 c 0.24,-0.14 0.24,-0.36 0,-0.5 l -6,-3.44 a 1,1 0 0 0 -0.85,0 z m 18.22,-10.53 -5.64,3.26 c -0.24,0.14 -0.24,0.36 0,0.5 l 6,3.44 a 1,1 0 0 0 0.86,0 l 5.64,-3.26 c 0.24,-0.14 0.24,-0.36 0,-0.49 l -6,-3.44 a 1,1 0 0 0 -0.83,-0.01 z m -44.11,43.18 5.64,-3.26 a 0.26,0.26 0 0 0 0,-0.49 l -6,-3.44 a 1,1 0 0 0 -0.86,0 l -5.65,3.26 a 0.26,0.26 0 0 0 0,0.5 l 5.95,3.44 a 1,1 0 0 0 0.92,-0.01 z m 53.25,-47.93 a 1,1 0 0 0 -0.86,0 l -5.64,3.26 c -0.24,0.14 -0.25,0.36 0,0.5 l 5.95,3.44 a 1,1 0 0 0 0.86,0 l 5.64,-3.26 c 0.24,-0.14 0.25,-0.36 0,-0.49 z m -83.8,75.39 5.64,-3.25 c 0.24,-0.14 0.24,-0.37 0,-0.5 l -6,-3.44 a 1,1 0 0 0 -0.86,0 l -5.64,3.25 c -0.24,0.14 -0.24,0.36 0,0.5 l 6,3.44 a 1,1 0 0 0 0.86,-0.01 z m 101.11,-58.38 5.65,-3.26 a 0.26,0.26 0 0 0 0,-0.49 l -6,-3.44 a 1,1 0 0 0 -0.86,0 l -5.64,3.25 c -0.24,0.14 -0.24,0.36 0,0.5 l 6,3.44 a 0.94,0.94 0 0 0 0.85,-0.01 z m -16.75,-0.15 5.65,-3.26 a 0.26,0.26 0 0 0 0,-0.49 l -5.95,-3.44 a 1,1 0 0 0 -0.86,0 l -5.64,3.26 c -0.24,0.14 -0.25,0.36 0,0.5 l 5.95,3.44 a 1,1 0 0 0 0.85,-0.02 z M 295.43,271 a 0.94,0.94 0 0 0 -0.85,0 l -5.65,3.26 a 0.26,0.26 0 0 0 0,0.5 l 5.95,3.44 a 1,1 0 0 0 0.86,0 l 5.64,-3.26 a 0.26,0.26 0 0 0 0,-0.49 z m 1.74,-1 14.46,8.35 a 1,1 0 0 0 0.86,0 l 5.64,-3.26 c 0.24,-0.13 0.25,-0.36 0,-0.49 l -14.46,-8.35 a 1,1 0 0 0 -0.86,0 l -5.64,3.26 c -0.23,0.1 -0.23,0.32 0,0.49 z m -19.09,10.5 -5.64,3.25 c -0.24,0.14 -0.24,0.36 0,0.5 l 6,3.44 a 1,1 0 0 0 0.86,0 l 5.64,-3.25 c 0.24,-0.14 0.24,-0.37 0,-0.5 l -6,-3.44 a 1,1 0 0 0 -0.86,0 z m -62.08,35.83 -5.64,3.25 c -0.24,0.14 -0.24,0.36 0,0.5 l 6,3.44 a 1,1 0 0 0 0.86,0 l 5.64,-3.25 c 0.24,-0.14 0.24,-0.37 0,-0.5 l -6,-3.44 a 1,1 0 0 0 -0.86,0 z m 79.12,-28.49 a 1,1 0 0 0 0.86,0 l 5.64,-3.25 c 0.24,-0.14 0.24,-0.37 0,-0.5 l -5.95,-3.44 a 1,1 0 0 0 -0.86,0 l -5.65,3.25 a 0.26,0.26 0 0 0 0,0.5 z m -70.87,23.73 -5.64,3.25 c -0.24,0.14 -0.24,0.36 0,0.5 l 5.95,3.44 a 1,1 0 0 0 0.86,0 l 5.65,-3.26 a 0.26,0.26 0 0 0 0,-0.49 l -6,-3.44 a 0.93,0.93 0 0 0 -0.8,0 z M 161,365.26 a 1,1 0 0 0 0.86,0 L 167.5,362 c 0.24,-0.14 0.24,-0.36 0,-0.5 l -6,-3.44 a 0.94,0.94 0 0 0 -0.85,0 l -5.65,3.26 c -0.24,0.14 -0.24,0.36 0,0.49 z m -11,-10.85 -5.64,3.26 c -0.24,0.14 -0.25,0.36 0,0.49 l 6,3.44 a 0.93,0.93 0 0 0 0.86,0 l 5.64,-3.26 c 0.24,-0.14 0.25,-0.36 0,-0.5 l -6,-3.43 a 0.93,0.93 0 0 0 -0.8,0 z m 20.08,6.08 5.65,-3.25 a 0.26,0.26 0 0 0 0,-0.5 l -5.95,-3.44 a 1,1 0 0 0 -0.86,0 l -5.64,3.26 a 0.26,0.26 0 0 0 0,0.49 l 5.95,3.44 a 0.93,0.93 0 0 0 0.91,0 z m 8.25,-4.76 5.64,-3.25 c 0.24,-0.14 0.25,-0.36 0,-0.5 l -5.95,-3.44 a 1,1 0 0 0 -0.86,0 l -5.65,3.26 a 0.26,0.26 0 0 0 0,0.49 l 5.95,3.44 a 0.93,0.93 0 0 0 0.93,0 z m 8.25,-4.76 5.64,-3.25 c 0.24,-0.14 0.24,-0.36 0,-0.5 l -6,-3.44 a 1,1 0 0 0 -0.86,0 l -5.53,3.22 c -0.24,0.14 -0.24,0.37 0,0.5 l 6,3.44 a 1,1 0 0 0 0.81,0.06 z m -28.34,-1.32 -5.64,3.26 c -0.24,0.14 -0.24,0.36 0,0.49 l 6,3.44 a 0.93,0.93 0 0 0 0.86,0 l 5.64,-3.26 c 0.24,-0.14 0.24,-0.36 0,-0.5 l -6,-3.43 a 0.93,0.93 0 0 0 -0.8,0 z m 8.25,-4.76 -5.64,3.26 c -0.24,0.14 -0.25,0.36 0,0.49 l 5.95,3.44 a 1,1 0 0 0 0.86,0 l 5.65,-3.26 c 0.23,-0.14 0.24,-0.36 0,-0.5 l -6,-3.43 a 0.93,0.93 0 0 0 -0.76,0 z m 33,-19 -5.64,3.25 c -0.24,0.14 -0.24,0.37 0,0.5 l 6,3.44 a 1,1 0 0 0 0.86,0 l 5.64,-3.25 c 0.24,-0.14 0.24,-0.36 0,-0.5 l -6,-3.44 a 1,1 0 0 0 -0.82,-0.04 z m -8.24,4.76 -5.64,3.26 c -0.24,0.13 -0.25,0.36 0,0.49 l 6,3.44 a 0.93,0.93 0 0 0 0.86,0 l 5.64,-3.25 c 0.24,-0.14 0.25,-0.36 0,-0.5 l -5.95,-3.44 a 1,1 0 0 0 -0.87,-0.04 z m 16.49,-9.52 -5.64,3.25 c -0.24,0.14 -0.25,0.36 0,0.5 l 6,3.44 a 1,1 0 0 0 0.86,0 l 5.64,-3.25 c 0.24,-0.14 0.25,-0.36 0,-0.5 l -6,-3.44 a 1,1 0 0 0 -0.82,-0.04 z m -33,19 -5.65,3.26 c -0.24,0.14 -0.24,0.36 0,0.49 l 5.95,3.44 a 1,1 0 0 0 0.86,0 l 5.64,-3.26 c 0.24,-0.14 0.24,-0.36 0,-0.5 l -6,-3.44 a 1,1 0 0 0 -0.74,0.01 z m 8.24,-4.76 -5.64,3.26 a 0.26,0.26 0 0 0 0,0.49 l 6,3.44 a 0.94,0.94 0 0 0 0.85,0 l 5.65,-3.26 c 0.24,-0.14 0.24,-0.36 0,-0.5 l -6,-3.44 a 1,1 0 0 0 -0.84,0.01 z m -8.3,32.29 5.65,-3.26 a 0.26,0.26 0 0 0 0,-0.49 l -5.95,-3.44 a 0.93,0.93 0 0 0 -0.86,0 l -5.64,3.25 c -0.24,0.14 -0.24,0.36 0,0.5 l 5.95,3.44 a 1,1 0 0 0 0.91,0 z m -45.9,-3.45 -6,-3.44 a 1,1 0 0 0 -0.86,0 l -5.54,3.23 c -0.24,0.14 -0.24,0.36 0,0.5 l 6,3.44 a 1,1 0 0 0 0.86,0 l 5.64,-3.26 a 0.26,0.26 0 0 0 -0.04,-0.47 z m 11.54,3.16 -5.95,-3.44 a 0.93,0.93 0 0 0 -0.86,0 l -8.68,5 c -0.24,0.14 -0.25,0.36 0,0.5 l 6,3.44 a 1,1 0 0 0 0.86,0 l 8.68,-5 c 0.24,-0.15 0.25,-0.37 0.01,-0.5 z m -20.56,-9.87 -6,-3.44 a 1,1 0 0 0 -0.86,0 l -6.94,4 c -0.24,0.14 -0.25,0.36 0,0.5 l 6,3.44 a 1,1 0 0 0 0.86,0 l 7,-4 c 0.23,-0.15 0.23,-0.37 0,-0.5 z m 5.32,-3.08 a 0.93,0.93 0 0 0 0.86,0 l 5.64,-3.26 c 0.24,-0.14 0.24,-0.36 0,-0.5 l -6,-3.43 a 0.91,0.91 0 0 0 -0.85,0 l -5.65,3.26 c -0.24,0.14 -0.24,0.36 0,0.49 z m 25.98,16.58 -6,-3.43 a 0.93,0.93 0 0 0 -0.86,0 l -10.85,6.26 c -0.24,0.14 -0.24,0.37 0,0.5 l 6,3.44 a 1,1 0 0 0 0.86,0 l 10.85,-6.26 c 0.23,-0.13 0.23,-0.35 0,-0.51 z m 4.6,7.17 -6,-3.44 a 1,1 0 0 0 -0.86,0 l -6.94,4 a 0.26,0.26 0 0 0 0,0.49 l 6,3.44 a 0.93,0.93 0 0 0 0.86,0 l 6.94,-4 c 0.23,-0.11 0.23,-0.33 0,-0.47 z M 186.45,319 a 1,1 0 0 0 0.86,0 l 5.64,-3.26 a 0.26,0.26 0 0 0 0,-0.49 l -6,-3.44 a 1,1 0 0 0 -0.86,0 l -5.64,3.25 c -0.24,0.14 -0.24,0.36 0,0.5 z M 170,328.55 a 0.94,0.94 0 0 0 0.85,0 l 5.65,-3.25 a 0.26,0.26 0 0 0 0,-0.5 l -6,-3.44 a 1,1 0 0 0 -0.86,0 l -5.64,3.25 c -0.24,0.14 -0.24,0.36 0,0.5 z m -36.58,21.11 a 0.93,0.93 0 0 0 0.86,0 l 5.65,-3.26 a 0.26,0.26 0 0 0 0,-0.5 l -5.95,-3.43 a 0.93,0.93 0 0 0 -0.86,0 l -5.64,3.26 c -0.24,0.14 -0.24,0.36 0,0.49 z m 44.82,-25.87 a 1,1 0 0 0 0.86,0 l 5.64,-3.25 c 0.24,-0.14 0.25,-0.37 0,-0.5 l -6,-3.44 a 1,1 0 0 0 -0.86,0 l -5.64,3.25 c -0.24,0.14 -0.25,0.36 0,0.5 z m -16.49,9.52 a 1,1 0 0 0 0.86,0 l 5.64,-3.25 c 0.24,-0.14 0.24,-0.36 0,-0.5 l -5.95,-3.44 a 1,1 0 0 0 -0.86,0 l -5.65,3.26 a 0.26,0.26 0 0 0 0,0.49 z M 160,378.66 a 1,1 0 0 0 -0.86,0 l -8.68,5 c -0.24,0.14 -0.25,0.36 0,0.49 l 5.95,3.44 a 1,1 0 0 0 0.86,0 l 8.68,-5 a 0.26,0.26 0 0 0 0,-0.49 z m -10.07,-38.52 a 1,1 0 0 0 0.86,0 l 5.64,-3.26 c 0.24,-0.14 0.24,-0.36 0,-0.5 l -6,-3.44 a 1,1 0 0 0 -0.86,0 l -5.64,3.26 c -0.24,0.14 -0.24,0.36 0,0.49 z m -8.25,4.76 a 0.93,0.93 0 0 0 0.86,0 l 5.64,-3.26 c 0.24,-0.14 0.25,-0.36 0,-0.5 l -5.95,-3.43 a 0.93,0.93 0 0 0 -0.86,0 l -5.69,3.29 c -0.23,0.14 -0.24,0.36 0,0.49 z m 171.08,-54.44 a 1,1 0 0 0 -0.86,0 l -13.89,8 a 0.26,0.26 0 0 0 0,0.49 l 6,3.44 a 0.93,0.93 0 0 0 0.86,0 l 13.88,-8 c 0.24,-0.14 0.25,-0.36 0,-0.5 z M 294.48,301 a 0.93,0.93 0 0 0 -0.86,0 l -5.62,3.25 c -0.24,0.14 -0.24,0.36 0,0.5 l 5.95,3.43 a 0.93,0.93 0 0 0 0.86,0 l 5.65,-3.26 a 0.26,0.26 0 0 0 0,-0.5 z M 183,362.9 l 5.64,-3.26 c 0.24,-0.14 0.25,-0.36 0,-0.49 l -5.95,-3.44 a 1,1 0 0 0 -0.86,0 l -5.65,3.29 c -0.23,0.14 -0.24,0.36 0,0.5 l 5.95,3.44 A 1,1 0 0 0 183,362.9 Z m 95,-52.39 a 1,1 0 0 0 -0.86,0 l -5.64,3.26 c -0.24,0.14 -0.25,0.36 0,0.5 l 5.95,3.43 a 0.93,0.93 0 0 0 0.86,0 l 5.64,-3.26 c 0.24,-0.14 0.25,-0.36 0,-0.49 z m 43,-24.81 a 1,1 0 0 0 -0.86,0 l -5.69,3.3 a 0.26,0.26 0 0 0 0,0.49 l 6,3.44 a 1,1 0 0 0 0.86,0 l 5.64,-3.25 c 0.24,-0.14 0.24,-0.36 0,-0.5 z m 14.2,-1.32 -14.51,-8.38 a 1,1 0 0 0 -0.86,0 l -5.64,3.25 c -0.24,0.14 -0.24,0.36 0,0.5 l 14.46,8.35 a 1,1 0 0 0 0.86,0 l 5.64,-3.25 c 0.23,-0.11 0.24,-0.33 0,-0.47 z m -88,43.92 a 0.93,0.93 0 0 0 -0.86,0 l -6.95,4 c -0.24,0.14 -0.24,0.36 0,0.5 l 6,3.44 a 1,1 0 0 0 0.86,0 l 6.94,-4 c 0.24,-0.14 0.25,-0.36 0,-0.49 z m 20.83,-12 a 1,1 0 0 0 -0.86,0 l -8.68,5 c -0.24,0.14 -0.25,0.36 0,0.49 l 6,3.44 a 1,1 0 0 0 0.86,0 l 8.68,-5 c 0.24,-0.13 0.25,-0.36 0,-0.49 z m -39.93,23.05 a 1,1 0 0 0 -0.86,0 l -46.43,26.81 c -0.24,0.14 -0.25,0.36 0,0.49 l 5.95,3.44 a 0.93,0.93 0 0 0 0.86,0 L 234,343.26 a 0.26,0.26 0 0 0 0,-0.5 z m -49,28.32 a 0.93,0.93 0 0 0 -0.86,0 l -6.94,4 c -0.24,0.14 -0.25,0.36 0,0.5 l 6,3.43 a 0.93,0.93 0 0 0 0.86,0 l 7,-4 a 0.26,0.26 0 0 0 0,-0.5 z m 58.59,-33.83 a 0.93,0.93 0 0 0 -0.86,0 l -6.94,4 c -0.24,0.14 -0.25,0.36 0,0.5 l 6,3.44 a 1,1 0 0 0 0.86,0 l 6.94,-4 c 0.24,-0.13 0.25,-0.36 0,-0.49 z m -68.14,39.34 a 1,1 0 0 0 -0.86,0 l -6.94,4 c -0.24,0.14 -0.24,0.36 0,0.5 l 6,3.44 a 0.94,0.94 0 0 0 0.85,0 l 6.95,-4 c 0.24,-0.14 0.24,-0.36 0,-0.49 z m 87.23,-50.36 a 0.93,0.93 0 0 0 -0.86,0 l -6.94,4 c -0.24,0.14 -0.24,0.36 0,0.5 l 6,3.43 a 0.93,0.93 0 0 0 0.86,0 l 6.94,-4 c 0.24,-0.14 0.24,-0.36 0,-0.5 z m 29.51,-17 a 0.93,0.93 0 0 0 -0.86,0 l -5.7,3.18 c -0.24,0.14 -0.24,0.36 0,0.5 l 6,3.43 a 0.93,0.93 0 0 0 0.86,0 l 5.64,-3.26 c 0.24,-0.14 0.24,-0.36 0,-0.49 z m 18.27,-13 5.65,-3.25 c 0.24,-0.14 0.24,-0.36 0,-0.5 l -6,-3.44 a 1,1 0 0 0 -0.86,0 l -5.64,3.25 c -0.24,0.14 -0.24,0.37 0,0.5 l 6,3.44 a 0.94,0.94 0 0 0 0.79,-0.08 z m -35.23,0.7 5.64,-3.25 c 0.24,-0.14 0.24,-0.36 0,-0.5 l -6,-3.44 a 1,1 0 0 0 -0.86,0 l -5.64,3.26 c -0.24,0.14 -0.24,0.36 0,0.49 l 6,3.44 a 0.93,0.93 0 0 0 0.8,-0.08 z m -20.33,31.3 16.49,-9.53 a 0.26,0.26 0 0 0 0,-0.49 l -6,-3.44 a 0.93,0.93 0 0 0 -0.86,0 l -16.49,9.52 a 0.26,0.26 0 0 0 0,0.49 l 6,3.44 a 1,1 0 0 0 0.86,0.01 z m 46.44,-27.31 a 1,1 0 0 0 0.86,0 l 5.64,-3.25 c 0.24,-0.14 0.24,-0.36 0,-0.5 l -6,-3.44 a 1,1 0 0 0 -0.86,0 l -5.65,3.26 a 0.26,0.26 0 0 0 0,0.49 z m -7.65,-4.92 5.65,-3.25 c 0.23,-0.14 0.24,-0.36 0,-0.5 l -5.95,-3.44 a 1,1 0 0 0 -0.86,0 l -5.63,3.26 c -0.24,0.14 -0.25,0.36 0,0.5 l 5.95,3.44 a 1,1 0 0 0 0.8,-0.01 z m -47,37 5.64,-3.26 c 0.24,-0.14 0.24,-0.36 0,-0.5 l -6,-3.44 a 1,1 0 0 0 -0.86,0 l -5.65,3.26 c -0.24,0.14 -0.24,0.36 0,0.49 l 5.95,3.44 a 1,1 0 0 0 0.84,0 z M 277.17,308 a 0.93,0.93 0 0 0 0.86,0 l 5.64,-3.26 c 0.24,-0.14 0.25,-0.36 0,-0.5 l -5.95,-3.43 a 0.93,0.93 0 0 0 -0.86,0 l -5.64,3.26 c -0.24,0.14 -0.25,0.36 0,0.5 z m -77.69,45.35 5.64,-3.26 c 0.24,-0.14 0.25,-0.36 0,-0.49 l -5.95,-3.44 a 0.93,0.93 0 0 0 -0.86,0 l -5.64,3.26 c -0.24,0.14 -0.25,0.36 0,0.5 l 6,3.43 a 0.93,0.93 0 0 0 0.81,0.03 z m 8.25,-4.76 5.64,-3.26 c 0.24,-0.14 0.24,-0.36 0,-0.49 l -6,-3.44 a 0.93,0.93 0 0 0 -0.86,0 l -5.64,3.26 c -0.24,0.14 -0.24,0.36 0,0.5 l 6,3.43 a 0.93,0.93 0 0 0 0.86,0.03 z m -16.49,9.52 5.64,-3.26 c 0.24,-0.14 0.24,-0.36 0,-0.49 l -6,-3.44 a 1,1 0 0 0 -0.86,0 l -5.64,3.26 c -0.24,0.14 -0.24,0.36 0,0.5 l 6,3.44 a 1,1 0 0 0 0.86,0.02 z m 33,-19 5.64,-3.26 c 0.24,-0.14 0.24,-0.36 0,-0.5 l -6,-3.43 a 0.91,0.91 0 0 0 -0.85,0 l -5.65,3.26 c -0.24,0.14 -0.24,0.36 0,0.49 l 6,3.44 a 0.93,0.93 0 0 0 0.84,-0.01 z m -8.24,4.75 5.64,-3.26 c 0.24,-0.14 0.25,-0.36 0,-0.5 l -6,-3.43 a 0.93,0.93 0 0 0 -0.86,0 l -5.64,3.26 c -0.24,0.14 -0.25,0.36 0,0.5 l 6,3.43 a 0.93,0.93 0 0 0 0.86,0 z m 16.49,-9.52 5.65,-3.26 a 0.26,0.26 0 0 0 0,-0.5 l -6,-3.43 a 0.93,0.93 0 0 0 -0.86,0 l -5.64,3.26 c -0.24,0.14 -0.24,0.36 0,0.49 l 5.95,3.44 a 0.93,0.93 0 0 0 0.87,0 z M 273.86,266 a 0.93,0.93 0 0 0 0.86,0 l 5.65,-3.26 c 0.24,-0.14 0.24,-0.36 0,-0.49 l -1.58,-0.92 a 1,1 0 0 0 -0.86,0 l -5.64,3.26 c -0.24,0.14 -0.24,0.36 0,0.5 z m -40.77,26.1 a 0.94,0.94 0 0 0 0.85,0 l 5.65,-3.26 c 0.24,-0.14 0.24,-0.36 0,-0.5 l -6,-3.44 a 1,1 0 0 0 -0.86,0 l -5.64,3.26 a 0.26,0.26 0 0 0 0,0.49 z m 16.49,-9.52 a 1,1 0 0 0 0.86,0 l 5.64,-3.25 c 0.24,-0.14 0.24,-0.36 0,-0.5 l -6,-3.44 a 1,1 0 0 0 -0.86,0 l -5.64,3.26 a 0.26,0.26 0 0 0 0,0.49 z M 223,297.91 a 0.93,0.93 0 0 0 0.86,0 l 5.64,-3.26 c 0.24,-0.14 0.24,-0.36 0,-0.5 l -6,-3.43 a 0.93,0.93 0 0 0 -0.86,0 l -5.57,3.28 c -0.24,0.14 -0.24,0.36 0,0.5 z m 18.31,-10.57 a 0.93,0.93 0 0 0 0.86,0 l 5.64,-3.25 c 0.24,-0.14 0.25,-0.36 0,-0.5 l -6,-3.44 a 1,1 0 0 0 -0.86,0 l -5.64,3.26 c -0.24,0.13 -0.25,0.36 0,0.49 z m -34.8,20.09 a 0.91,0.91 0 0 0 0.85,0 l 5.65,-3.26 c 0.24,-0.14 0.24,-0.36 0,-0.49 l -6,-3.44 a 0.93,0.93 0 0 0 -0.86,0 l -5.64,3.26 c -0.24,0.14 -0.24,0.36 0,0.5 z m 8.24,-4.76 a 0.93,0.93 0 0 0 0.86,0 l 5.64,-3.26 c 0.24,-0.14 0.25,-0.36 0,-0.49 l -5.95,-3.44 a 0.93,0.93 0 0 0 -0.86,0 l -5.64,3.26 c -0.24,0.14 -0.25,0.36 0,0.5 z m 42.6,-27.12 a 0.93,0.93 0 0 0 0.86,0 l 5.65,-3.26 c 0.23,-0.14 0.24,-0.36 0,-0.49 l -1.58,-0.92 a 1,1 0 0 0 -0.86,0 l -5.64,3.25 c -0.24,0.14 -0.25,0.36 0,0.5 z m 24.74,-14.28 a 0.93,0.93 0 0 0 0.86,0 l 5.64,-3.26 c 0.24,-0.14 0.25,-0.36 0,-0.5 L 287,256.6 a 1,1 0 0 0 -0.86,0 l -5.65,3.26 a 0.26,0.26 0 0 0 0,0.5 z m 12.51,7.22 a 0.93,0.93 0 0 0 0.86,0 l 5.64,-3.26 c 0.24,-0.14 0.24,-0.36 0,-0.49 l -6,-3.44 a 0.91,0.91 0 0 0 -0.85,0 l -5.65,3.26 c -0.24,0.14 -0.24,0.36 0,0.5 z m 18.15,19.51 5.64,-3.25 c 0.24,-0.14 0.25,-0.36 0,-0.5 l -5.95,-3.44 a 1,1 0 0 0 -0.86,0 l -5.58,3.24 c -0.24,0.14 -0.25,0.36 0,0.5 l 5.95,3.44 a 1,1 0 0 0 0.8,0.01 z m -47.13,-17.19 a 0.93,0.93 0 0 0 0.86,0 l 5.64,-3.26 c 0.24,-0.14 0.24,-0.36 0,-0.49 l -1.59,-0.92 a 0.93,0.93 0 0 0 -0.86,0 l -5.67,3.24 c -0.24,0.14 -0.24,0.36 0,0.5 z m -67.34,41.4 a 0.93,0.93 0 0 0 0.86,0 l 5.64,-3.26 c 0.24,-0.14 0.24,-0.36 0,-0.49 L 198.84,305 a 1,1 0 0 0 -0.86,0 l -5.65,3.26 c -0.23,0.14 -0.24,0.36 0,0.5 z"
     style="fill:#455a64"
     id="path24" />
  <path
     d="m 228.48,360.67 50.82,-29.34 a 6.14,6.14 0 0 1 5.54,0 L 314,348.15 c 1.53,0.89 1.53,2.32 0,3.21 l -50.81,29.33 a 6.1,6.1 0 0 1 -5.55,0 L 228.5,363.87 c -1.5,-0.87 -1.5,-2.32 -0.02,-3.2 z"
     style="fill:#263238"
     id="path26" />
  <g
     id="freepik--Shield--inject-19">
    <g
       id="g79">
      <g
         id="freepik--shield--inject-19">
        <path
           d="M219.88,138.24c-15.88,14.27-29.6,13.52-38.18,6.91-8.57,16.52-22.29,33.1-38.17,37.17l-9.07,24.5s4.86,5.6,4.86,19a66.8,66.8,0,0,1-2.25,16.63c-1.65,6.61-3.78,13.45-3.78,24.88,0,7.74,1,15.27,4.94,22.12a27.3,27.3,0,0,0,9.93,10l-13.79-8a27.39,27.39,0,0,1-10.45-10.25C120,274.34,119,266.82,119,259.07c0-11.42,2.13-18.27,3.78-24.89A66.52,66.52,0,0,0,125,217.56c0-13.4-4.86-19-4.86-19l9.06-24.5c15.88-4.07,29.6-20.65,38.17-37.17,8.58,6.61,22.3,7.36,38.18-6.91Z"
           style="fill:#FFFFFF"
           id="path30" />
        <path
           d="M172.42,139.8l-5-2.91A22,22,0,0,0,172.42,139.8Z"
           style="fill:#fff;opacity:0.8"
           id="path32" />
        <path
           d="M205.57,130c-13.07,11.74-24.67,13.31-33.15,9.82l9.28,5.35c8.58,6.61,22.3,7.36,38.18-6.91Z"
           style="fill:#fff;opacity:0.85"
           id="path34" />
        <path
           d="M167.39,136.89c-8.57,16.52-22.29,33.1-38.17,37.17l14.31,8.26c15.88-4.07,29.6-20.65,38.17-37.17Z"
           style="fill:#fff;opacity:0.65"
           id="path36" />
        <polygon
           points="129.22 174.06 120.16 198.56 134.46 206.82 143.53 182.32 129.22 174.06"
           style="fill:#fff;opacity:0.55"
           id="polygon38" />
        <path
           d="M138.23,289.45c-3.92-6.85-4.94-14.38-4.94-22.12,0-11.43,2.13-18.27,3.78-24.88a66.8,66.8,0,0,0,2.25-16.63c0-13.4-4.86-19-4.86-19l-14.3-8.26s4.86,5.6,4.86,19a66.52,66.52,0,0,1-2.26,16.62c-1.65,6.62-3.78,13.47-3.78,24.89,0,7.75,1,15.27,4.94,22.12a27.39,27.39,0,0,0,10.45,10.25l13.79,8A27.3,27.3,0,0,1,138.23,289.45Z"
           style="fill:#fff;opacity:0.4"
           id="path40" />
        <path
           d="M138.23,289.45c-3.92-6.85-4.94-14.38-4.94-22.12,0-11.43,2.13-18.27,3.78-24.88a66.8,66.8,0,0,0,2.25-16.63c0-13.4-4.86-19-4.86-19l-14.3-8.26s4.86,5.6,4.86,19a66.52,66.52,0,0,1-2.26,16.62c-1.65,6.62-3.78,13.47-3.78,24.89,0,7.75,1,15.27,4.94,22.12a27.39,27.39,0,0,0,10.45,10.25l13.79,8A27.3,27.3,0,0,1,138.23,289.45Z"
           style="opacity:0.05"
           id="path42" />
        <path
           d="M181.7,306.23c-23.72.27-37.31-6-43.48-16.78-3.91-6.85-4.93-14.38-4.93-22.13,0-11.42,2.12-18.25,3.78-24.87a66.72,66.72,0,0,0,2.25-16.62c0-13.4-4.86-19-4.86-19l9.07-24.51c15.88-4.07,29.6-20.66,38.17-37.17,8.58,6.61,22.3,7.36,38.18-6.91l9.07,14a68.86,68.86,0,0,0-4.87,24.61,40.12,40.12,0,0,0,2.26,14c1.65,4.7,3.78,9.09,3.78,20.51a82.13,82.13,0,0,1-4.94,27.83C219,257.15,205.43,279.1,181.7,306.23Z"
           style="fill:#FFFFFF"
           id="path44" />
        <path
           d="M181.7,306.23c-23.72.27-37.31-6-43.48-16.78-3.91-6.85-4.93-14.38-4.93-22.13,0-11.42,2.12-18.25,3.78-24.87a66.72,66.72,0,0,0,2.25-16.62c0-13.4-4.86-19-4.86-19l9.07-24.51c15.88-4.07,29.6-20.66,38.17-37.17,8.58,6.61,22.3,7.36,38.18-6.91l9.07,14a68.86,68.86,0,0,0-4.87,24.61,40.12,40.12,0,0,0,2.26,14c1.65,4.7,3.78,9.09,3.78,20.51a82.13,82.13,0,0,1-4.94,27.83C219,257.15,205.43,279.1,181.7,306.23Z"
           style="fill:#fff;opacity:0.75"
           id="path46" />
        <path
           d="M178.89,300.07c-18.37-.22-30.25-4.82-35.31-13.67-2.86-5-4.13-10.88-4.13-19.08a75.86,75.86,0,0,1,3-21.13c.19-.76.39-1.5.57-2.25a71.85,71.85,0,0,0,2.44-18.11c0-9.77-2.34-16.16-4.2-19.7l7-18.8c17-5.91,29.29-22.7,35.8-33.71a28.1,28.1,0,0,0,11.09,2.24c7.68,0,15.49-2.86,23.29-8.51l3.65,5.66a75.83,75.83,0,0,0-4.16,23.88,46.32,46.32,0,0,0,2.6,16.07c.19.54.39,1.08.59,1.62,1.46,4,2.84,7.77,2.84,16.84a76.4,76.4,0,0,1-4.6,25.82C213.29,254.86,199.68,276,178.89,300.07Z"
           style="fill:#FFFFFF"
           id="path48" />
        <path
           d="M178.89,300.07c-18.37-.22-30.25-4.82-35.31-13.67-2.86-5-4.13-10.88-4.13-19.08a75.86,75.86,0,0,1,3-21.13c.19-.76.39-1.5.57-2.25a71.85,71.85,0,0,0,2.44-18.11c0-9.77-2.34-16.16-4.2-19.7l7-18.8c17-5.91,29.29-22.7,35.8-33.71a28.1,28.1,0,0,0,11.09,2.24c7.68,0,15.49-2.86,23.29-8.51l3.65,5.66a75.83,75.83,0,0,0-4.16,23.88,46.32,46.32,0,0,0,2.6,16.07c.19.54.39,1.08.59,1.62,1.46,4,2.84,7.77,2.84,16.84a76.4,76.4,0,0,1-4.6,25.82C213.29,254.86,199.68,276,178.89,300.07Z"
           style="fill:#fff;opacity:0.4"
           id="path50" />
        <path
           d="M178.89,300.07c-18.37-.22-30.25-4.82-35.31-13.67-2.86-5-4.13-10.88-4.13-19.08a75.86,75.86,0,0,1,3-21.13c.19-.76.39-1.5.57-2.25a71.85,71.85,0,0,0,2.44-18.11c0-9.77-2.34-16.16-4.2-19.7l7-18.8c17-5.91,29.29-22.7,35.8-33.71a28.1,28.1,0,0,0,11.09,2.24c7.68,0,15.49-2.86,23.29-8.51l3.65,5.66a75.83,75.83,0,0,0-4.16,23.88,46.32,46.32,0,0,0,2.6,16.07c.19.54.39,1.08.59,1.62,1.46,4,2.84,7.77,2.84,16.84a76.4,76.4,0,0,1-4.6,25.82C213.29,254.86,199.68,276,178.89,300.07Z"
           style="opacity:0.15"
           id="path52" />
        <path
           d="M147.79,291.49c6.26,5.52,16.66,8.41,31.1,8.58l-9.21-5.25A67.59,67.59,0,0,1,147.79,291.49Z"
           style="fill:#fff;opacity:0.8"
           id="path54" />
        <polygon
           points="217.28 150.24 222.08 153.01 218.43 147.35 216.34 148.79 217.28 150.24"
           style="opacity:0.15"
           id="polygon56" />
        <path
           d="M215.72,190.19a46.32,46.32,0,0,1-2.6-16.07,75.83,75.83,0,0,1,4.16-23.88l-.94-1.45c-7.1,4.69-14.2,7.07-21.2,7.07a28.1,28.1,0,0,1-11.09-2.24c-6.51,11-18.8,27.8-35.8,33.71l-7,18.8c1.86,3.54,4.2,9.93,4.2,19.7a71.85,71.85,0,0,1-2.44,18.11c-.18.75-.38,1.49-.57,2.25a75.86,75.86,0,0,0-3,21.13c0,8.2,1.27,14.08,4.13,19.08a20.61,20.61,0,0,0,6,6.5q9.21,4.2,24.54,4.4c20.78-24.08,34.39-45.21,40.46-62.83a76.35,76.35,0,0,0,4.6-25.82c0-9.07-1.39-12.84-2.85-16.84C216.11,191.27,215.91,190.73,215.72,190.19Z"
           style="fill:#455a64"
           id="path58" />
        <path
           d="M148.25,187.33l-7,18.8c1.86,3.54,4.2,9.93,4.2,19.7a71.85,71.85,0,0,1-2.44,18.11c-.18.75-.38,1.49-.57,2.25a75.86,75.86,0,0,0-3,21.13c0,8.2,1.27,14.08,4.13,19.08a20.61,20.61,0,0,0,6,6.5q9.21,4.2,24.54,4.4V228l10-3V153.62a110,110,0,0,1-10,14.24C167.44,175.89,158.74,183.68,148.25,187.33Z"
           style="fill:#37474f"
           id="path60" />
      </g>
      <path
         id="freepik--shadow--inject-19"
         d="M198.12,202.42a3.19,3.19,0,0,0-.38-.55l-.05-.06a4.4,4.4,0,0,0-1-.81l-3.33-1.92a7.23,7.23,0,0,0-1.92-.74,10,10,0,0,0-1.22-.19v-9.86c0-4.95-1.87-8.86-5.13-10.74s-7-1.56-10.83.68c-7.12,4.11-12.69,14.14-12.69,22.83V212.7l-6.64,3.83a4,4,0,0,0-.56.39l-.18.14,0,0a2.43,2.43,0,0,0-.91,1.8v39.93a2.24,2.24,0,0,0,.07.51,2.94,2.94,0,0,0,1.25,1.62l.37.24,1.63.94,1.71,1a7.15,7.15,0,0,0,2.14.77,9,9,0,0,0,6.05-.78l30.23-17.45a2.88,2.88,0,0,0,1.7-2.36V203.37A2.06,2.06,0,0,0,198.12,202.42Zm-30.05-1.36c0-6.36,4.32-14.22,9.43-17.17,1.74-1,3.3-1.26,4.29-.68,1.17.67,1.86,2.57,1.86,5.08v11.64l-8.59,5-7,4Z"
         style="fill:#263238" />
      <g
         id="freepik--Padlock--inject-19">
        <path
           d="M201.88,205.13a2.87,2.87,0,0,0-1.7-2.36l-3.33-1.93a9,9,0,0,0-8.19,0l-30.23,17.45a2.89,2.89,0,0,0-1.7,2.37h0v39.93h0a2.86,2.86,0,0,0,1.7,2.37l3.33,1.93a9.09,9.09,0,0,0,8.19,0l30.23-17.46a2.88,2.88,0,0,0,1.7-2.36h0V205.13Z"
           style="fill:#FFFFFF"
           id="path64" />
        <path
           d="M161.76,225,158.43,223c-2.27-1.3-2.27-3.42,0-4.73l30.23-17.45a9,9,0,0,1,8.19,0l3.33,1.93c2.26,1.3,2.26,3.42,0,4.72L170,225A9.09,9.09,0,0,1,161.76,225Z"
           style="fill:#fff;opacity:0.4"
           id="path66" />
        <path
           d="M165.86,225.93v39.93a8.39,8.39,0,0,1-4.1-1L158.42,263a2.85,2.85,0,0,1-1.69-2.38V220.66a2.86,2.86,0,0,0,1.69,2.36l3.34,1.93A8.29,8.29,0,0,0,165.86,225.93Z"
           style="opacity:0.1"
           id="path68" />
        <path
           d="M187.86,245.68l-7.22,4.17,1.12-13.06c-.86-.46-1.41-1.58-1.41-3.19,0-2.88,1.74-6.22,3.9-7.46s3.9.07,3.9,3a9.82,9.82,0,0,1-1.41,4.82Z"
           style="fill:#455a64"
           id="path70" />
        <polygon
           points="187.86 245.68 181.32 241.91 180.64 249.85 187.86 245.68"
           style="fill:#37474f"
           id="polygon72" />
        <path
           d="M184.25,226.14a8.5,8.5,0,0,0-3.33,4.42l5.82,3.36h0a9.82,9.82,0,0,0,1.41-4.82C188.15,226.21,186.41,224.89,184.25,226.14Z"
           style="fill:#37474f"
           id="path74" />
        <path
           d="M193.71,206h0v-16c0-5-1.87-8.86-5.13-10.74s-7-1.55-10.83.68c-7.12,4.11-12.69,14.14-12.69,22.83v16.05h0a1.62,1.62,0,0,0,1,1.34,5.13,5.13,0,0,0,4.61,0,1.62,1.62,0,0,0,1-1.34h0V202.82c0-6.36,4.32-14.22,9.43-17.17,1.74-1,3.31-1.25,4.3-.68,1.16.67,1.86,2.57,1.86,5.08v16h0a1.61,1.61,0,0,0,1,1.32,5.13,5.13,0,0,0,4.61,0,1.65,1.65,0,0,0,1-1.32h0Z"
           style="fill:#e0e0e0"
           id="path76" />
      </g>
    </g>
  </g>
  <g
     id="freepik--Key--inject-19">
    <g
       id="freepik--key--inject-19">
      <polyline
         points="232.57 276.21 236.97 273.67 238.71 271.55 234.31 274.09 232.57 276.21"
         style="fill:#FFFFFF"
         id="polyline82" />
      <polyline
         points="232.57 276.21 236.97 273.67 238.71 271.55 234.31 274.09 232.57 276.21"
         style="opacity:0.4"
         id="polyline84" />
      <polyline
         points="244.54 283.12 248.94 280.58 252.62 277.32 248.22 279.86 244.54 283.12"
         style="fill:#FFFFFF"
         id="polyline86" />
      <polyline
         points="244.54 283.12 248.94 280.58 252.62 277.32 248.22 279.86 244.54 283.12"
         style="opacity:0.4"
         id="polyline88" />
      <path
         d="M282,291.9a9.34,9.34,0,0,1,1.82,4.79A9.52,9.52,0,0,1,282,291.9Zm10.23.13c-1.48-10.08-6.89-20-13.35-23.78-3.1-1.79-6-1.85-8.26-.51l-4.14,2.39-.24.14a4.32,4.32,0,0,0-.53.34,7.71,7.71,0,0,0-1,.78l-.14.13c-.13.13-.26.28-.38.42s-.31.36-.44.54a10.58,10.58,0,0,0-.81,1.24c-.12.22-.25.45-.36.69l-36.19-20.89-4.4,2.53v2.81l.38.21.35.21v.59l-.73.42v1.63l5.32,11.25,5.26,3,1.74-2.12,4.64,2.78,2.66,4.56,2.94,1.69,3.67-3.26,4.51,2.61,1.52,6.25,7.56,4.37a41.81,41.81,0,0,0,1.43,4.7l.17.49c2.52,6.6,6.52,12.26,11,14.87a12.39,12.39,0,0,0,1.7.81,9.65,9.65,0,0,0,.95.32,8.45,8.45,0,0,0,.84.19,7.31,7.31,0,0,0,2.68,0l.37-.09a2.29,2.29,0,0,0,.51-.15l.39-.15a3,3,0,0,0,.41-.19l.37-.19.19-.11.09-.05,4.15-2.39c3.34-1.94,5.51-6.84,5.51-13.77A35.77,35.77,0,0,0,292.18,292Z"
         style="fill:#FFFFFF"
         id="path90" />
      <path
         d="M280.66,300.4c-1.73-1-3.14-4-3.14-6.65s1.41-4,3.14-3,3.15,4,3.15,6.66S282.4,301.4,280.66,300.4Zm7.13-5.83c-1.48-10.08-6.9-20.05-13.36-23.78-3-1.72-5.75-1.85-8-.66l-.24.14a4.32,4.32,0,0,0-.53.34,7.71,7.71,0,0,0-1,.78l-.14.13c-.13.13-.26.28-.38.42s-.31.36-.44.54a10.58,10.58,0,0,0-.81,1.24c-.12.22-.25.45-.36.69a17.48,17.48,0,0,0-1.4,4.28L222,256.05v2.81l.38.21.35.21v.59l-.73.42v1.63l5.32,11.25,5.26,3,1.74-2.12,4.64,2.78,2.66,4.56,2.94,1.69,3.67-3.26,4.51,2.61,1.52,6.25,7.56,4.37a41.81,41.81,0,0,0,1.43,4.7l.17.49c2.52,6.6,6.52,12.26,11,14.87a12.39,12.39,0,0,0,1.7.81,9.65,9.65,0,0,0,.95.32,8.45,8.45,0,0,0,.84.19,7.31,7.31,0,0,0,2.68,0l.37-.09a2.29,2.29,0,0,0,.51-.15l.39-.15a3,3,0,0,0,.41-.19l.37-.19.19-.11.09-.05c3.2-2,5.26-6.85,5.26-13.62A37.23,37.23,0,0,0,287.79,294.57Z"
         style="fill:#FFFFFF"
         id="path92" />
      <path
         d="M283.81,297.37c0,2.68-1.41,4-3.14,3s-3.15-4-3.15-6.65,1.41-4,3.15-3A4.56,4.56,0,0,1,282,291.9a9.43,9.43,0,0,0,1.82,4.79A5.27,5.27,0,0,1,283.81,297.37Z"
         style="opacity:0.4"
         id="path94" />
      <path
         d="M292.59,297.37c0,6.93-2.17,11.83-5.51,13.77l-4.15,2.39c3.2-2,5.26-6.85,5.26-13.62a37.23,37.23,0,0,0-.4-5.34c-1.48-10.08-6.9-20.05-13.36-23.78-3-1.72-5.75-1.85-8-.66l4.14-2.39c2.3-1.34,5.16-1.28,8.26.51C285.29,272,290.7,282,292.18,292A35.77,35.77,0,0,1,292.59,297.37Z"
         style="fill:#fff;opacity:0.4"
         id="path96" />
      <path
         d="M288.19,299.91c0,6.77-2.06,11.6-5.26,13.62l4.15-2.39c3.34-1.94,5.51-6.84,5.51-13.77,0-.26,0-.52,0-.77l-4.39,2.54C288.18,299.39,288.19,299.65,288.19,299.91Z"
         style="fill:#FFFFFF"
         id="path98" />
      <path
         d="M288.19,299.91c0,6.77-2.06,11.6-5.26,13.62l4.15-2.39c3.34-1.94,5.51-6.84,5.51-13.77,0-.26,0-.52,0-.77l-4.39,2.54C288.18,299.39,288.19,299.65,288.19,299.91Z"
         style="opacity:0.1"
         id="path100" />
      <polygon
         points="261.34 281.57 261.34 283 221.99 260.29 222.72 259.87 222.72 259.27 261.34 281.57"
         style="opacity:0.15"
         id="polygon102" />
      <polygon
         points="261.34 282.17 261.34 283 221.99 260.29 222.72 259.87 222.72 259.86 261.34 282.17"
         style="opacity:0.15"
         id="polygon104" />
      <path
         d="M278.46,311.18a8.44,8.44,0,0,1-4.21-1.26c-6.42-3.71-11.64-14.73-11.64-24.57,0-5.74,1.74-10,4.77-11.78,2.12-1.22,4.62-1.07,7.24.44,6.41,3.71,11.63,14.73,11.63,24.57,0,5.74-1.74,10-4.77,11.78A5.91,5.91,0,0,1,278.46,311.18Zm-8-37.69a5.3,5.3,0,0,0-2.66.71c-2.76,1.59-4.4,5.76-4.4,11.15,0,9.61,5,20.34,11.27,23.93,2.38,1.38,4.62,1.53,6.5.45,2.76-1.59,4.4-5.76,4.4-11.15,0-9.61-5-20.35-11.27-23.93A7.74,7.74,0,0,0,270.41,273.49Z"
         style="opacity:0.15"
         id="path106" />
      <path
         d="M262.58,274.41a17.48,17.48,0,0,0-1.4,4.28L222,256.05l4.4-2.53Z"
         style="fill:#fff;opacity:0.5"
         id="path108" />
    </g>
  </g>
</svg>
