<?xml version="1.0" encoding="UTF-8" standalone="no"?>
<svg
   viewBox="0 0 500 500"
   version="1.1"
   id="svg504"
   sodipodi:docname="105.svg"
   inkscape:version="1.1.2 (0a00cf5339, 2022-02-04)"
   xmlns:inkscape="http://www.inkscape.org/namespaces/inkscape"
   xmlns:sodipodi="http://sodipodi.sourceforge.net/DTD/sodipodi-0.dtd"
   xmlns="http://www.w3.org/2000/svg"
   xmlns:svg="http://www.w3.org/2000/svg">
  <defs
     id="defs508" />
  <sodipodi:namedview
     id="namedview506"
     pagecolor="#ffffff"
     bordercolor="#666666"
     borderopacity="1.0"
     inkscape:pageshadow="2"
     inkscape:pageopacity="0.0"
     inkscape:pagecheckerboard="0"
     showgrid="false"
     inkscape:zoom="1.132"
     inkscape:cx="249.5583"
     inkscape:cy="250.4417"
     inkscape:window-width="1482"
     inkscape:window-height="800"
     inkscape:window-x="0"
     inkscape:window-y="0"
     inkscape:window-maximized="1"
     inkscape:current-layer="svg504" />
  <ellipse
     id="freepik--floor--inject-156"
     cx="259.07202"
     cy="312.38614"
     rx="228.53999"
     ry="131.95"
     style="opacity:0.7;fill:#e5ebf9;fill-opacity:1" />
  <g
     id="g2926"
     transform="translate(71.848084,-17.792072)">
    <g
       id="freepik--device--inject-22">
      <g
         id="freepik--Monitor--inject-22">
        <path
           d="m 229.86,375 -32.48,-18.76 c -6.66,-3.85 -17.89,-4.73 -25.08,-2 l -19.3,7.45 a 111.11,111.11 0 0 0 -24,13.63 l -19.62,15.45 c -2.82,2.22 -4.21,4.92 -4.21,7.56 0,0.74 0,3.72 0,4.48 0,3 1.81,5.88 5.33,7.91 l 32.5,18.75 c 6.67,3.85 17.48,3.85 24.14,0 l 62.68,-36.18 c 3.35,-1.94 5,-4.47 5,-7 V 382 c 0.04,-2.57 -1.62,-5.09 -4.96,-7 z"
           style="fill:#e6e6e6"
           id="path2" />
        <path
           d="m 105.23,402.81 c 0,3 1.81,5.88 5.33,7.91 L 143,429.47 a 24.6,24.6 0 0 0 12.07,2.89 v -4.63 l -49.89,-28.81 c 0.04,1.15 0.04,3.27 0.05,3.89 z"
           style="fill:#e0e0e0"
           id="path4" />
        <path
           d="m 105.23,402.81 c 0,3 1.81,5.88 5.33,7.91 L 143,429.47 a 24.6,24.6 0 0 0 12.07,2.89 v -4.63 l -49.89,-28.81 c 0.04,1.15 0.04,3.27 0.05,3.89 z"
           style="opacity:0.1"
           id="path6" />
        <path
           d="m 172.3,354.27 -19.3,7.42 a 111.11,111.11 0 0 0 -24,13.63 l -19.62,15.45 c -6,4.76 -5.55,11.74 1.12,15.59 l 32.5,18.76 c 6.67,3.84 17.48,3.84 24.14,0 l 62.68,-36.19 c 6.67,-3.85 6.67,-10.09 0,-13.94 l -32.48,-18.76 c -6.62,-3.85 -17.85,-4.73 -25.04,-1.96 z"
           style="fill:#f0f0f0"
           id="path8" />
        <path
           d="m 197.38,356.23 c -6.66,-3.85 -17.89,-4.73 -25.08,-2 l -19.3,7.46 a 111.11,111.11 0 0 0 -24,13.63 l -19.62,15.45 c -2.82,2.22 -4.21,4.92 -4.21,7.56 0,0.74 0,3.72 0,4.48 0,3 1.81,5.88 5.33,7.91 l 18.09,10.45 v -4.34 l 86.85,-50.14 z"
           style="opacity:0.1"
           id="path10" />
        <path
           d="m 167,376 c 0,-9.58 3,-39.74 9.29,-46.79 l -20.11,-2.23 c -9.89,10.46 -21.73,35.43 -28.9,49.82 0,0 5.9,2.4 13.19,5.41 7.29,3.01 17.41,3 22.62,0 a 7,7 0 0 0 3.9,-6.21 z"
           style="fill:#e0e0e0"
           id="path12" />
        <path
           d="m 167,376 c 0,-9.58 3,-39.74 9.29,-46.79 l -20.11,-2.23 c -9.89,10.46 -21.73,35.43 -28.9,49.82 0,0 5.9,2.4 13.19,5.41 7.29,3.01 17.41,3 22.62,0 a 7,7 0 0 0 3.9,-6.21 z"
           style="opacity:0.1"
           id="path14" />
        <path
           d="m 163.19,329.85 c 3.91,1.61 9.33,1.61 12.13,0 2.8,-1.61 2.79,-4.75 0,-7 l -5.06,-4.09 a 57.93,57.93 0 0 0 -14.13,8.19 c 0,0 3.16,1.28 7.06,2.9 z"
           style="fill:#e0e0e0"
           id="path16" />
        <path
           d="m 53.21,405.14 a 11.47,11.47 0 0 0 10.36,-0.2 L 307,264.38 a 11.84,11.84 0 0 0 5.35,-9.26 V 30.17 a 11.47,11.47 0 0 0 -5,-9.06 A 11.44,11.44 0 0 0 297,21.3 L 53.55,161.86 a 11.84,11.84 0 0 0 -5.35,9.26 v 225 a 11.46,11.46 0 0 0 5.01,9.02 z"
           style="fill:#455a64"
           id="path18" />
        <path
           d="M 63.58,404.94 307,264.37 a 11.82,11.82 0 0 0 5.35,-9.26 V 30.17 c 0,-3.41 -2.4,-4.79 -5.35,-3.09 L 63.58,167.65 a 11.82,11.82 0 0 0 -5.35,9.26 v 224.94 c 0,3.41 2.39,4.79 5.35,3.09 z"
           style="fill:#37474f"
           id="path20" />
        <path
           d="m 58.23,383.66 v 18.19 c 0,3.41 2.39,4.79 5.35,3.09 L 307,264.37 a 11.82,11.82 0 0 0 5.35,-9.26 v -18.19 z"
           style="fill:#ebebeb"
           id="path22" />
        <path
           d="M 65.29,366.74 V 179.29 a 7.25,7.25 0 0 1 3.28,-5.69 L 302,38.81 c 1.81,-1 3.28,-0.19 3.28,1.9 v 187.46 a 7.28,7.28 0 0 1 -3.28,5.7 L 68.58,368.64 c -1.81,1.05 -3.29,0.2 -3.29,-1.9 z"
           style="fill:#ffffff"
           id="path24" />
        <path
           d="m 49.78,165.84 10,5.78 a 11.45,11.45 0 0 0 -1.58,5.28 v 225 c 0,3.11 2.1,4.85 5.34,3.09 a 11.36,11.36 0 0 1 -10.36,0.2 10.32,10.32 0 0 1 -5,-8.43 V 171.12 a 11,11 0 0 1 1.6,-5.28 z"
           style="fill:#263238"
           id="path26" />
      </g>
    </g>
    <g
       id="freepik--Window--inject-22">
      <g
         id="g56">
        <g
           id="freepik--window--inject-22">
          <path
             d="m 318.28,50.19 a 1.51,1.51 0 0 0 -0.06,-0.37 0.08,0.08 0 0 0 0,-0.08 1.2,1.2 0 0 0 -0.09,-0.35 1.87,1.87 0 0 0 -0.23,-0.52 0.85,0.85 0 0 0 -0.14,-0.21 0.49,0.49 0 0 0 -0.11,-0.14 1.34,1.34 0 0 0 -0.27,-0.26 v 0 A 3,3 0 0 0 317,48 2.91,2.91 0 0 0 314.31,48.35 L 83.6,181.23 c -2.21,1.27 -4,4.38 -4,8.84 v 188.79 a 2.73,2.73 0 0 0 1.4,2.41 l 0.17,0.11 0.21,0.12 a 1.7,1.7 0 0 0 0.34,0.12 2.22,2.22 0 0 0 0.51,0.06 2.63,2.63 0 0 0 1.33,-0.38 l 0.1,-0.06 v 0 l 3.82,-2.2 226.83,-130.66 a 8.85,8.85 0 0 0 4,-6.93 V 50.69 a 3.84,3.84 0 0 0 -0.03,-0.5 z"
             style="fill:#fafafa"
             id="path31" />
          <path
             d="m 316.08,49 a 1,1 0 0 1 0.45,0.1 h 0.07 v 0 l 0.06,0.05 0.1,0.13 v 0 0 l 0.08,0.13 a 0.48,0.48 0 0 1 0.08,0.16 v 0 l 0.1,0.32 v 0 0 0.06 a 0.45,0.45 0 0 1 0,0.11 c 0,0.13 0,0.27 0,0.41 v 190.98 a 7.71,7.71 0 0 1 -3.43,5.94 L 87,378 l -3.71,2.15 v 0 l -0.1,0.06 -0.1,0.06 a 1.63,1.63 0 0 1 -0.7,0.23 h -0.06 -0.26 -0.08 v 0 l -0.11,-0.06 -0.09,-0.06 h -0.06 v 0 0 a 1.58,1.58 0 0 1 -0.85,-1.4 v -2 0 -186.91 c 0,-4.33 1.77,-6.89 3.43,-7.85 L 314.87,49.37 a 2.65,2.65 0 0 1 1.21,-0.39 m 0,-1.14 a 3.58,3.58 0 0 0 -1.77,0.54 L 83.6,181.23 c -2.21,1.27 -4,4.38 -4,8.84 V 378 v 0 0.87 a 2.73,2.73 0 0 0 1.4,2.4 l 0.17,0.11 0.21,0.12 a 1.7,1.7 0 0 0 0.34,0.12 2.22,2.22 0 0 0 0.51,0.06 h 0.06 a 2.63,2.63 0 0 0 1.27,-0.38 l 0.1,-0.06 v 0 l 3.82,-2.2 226.83,-130.66 a 8.85,8.85 0 0 0 4,-6.93 V 50.69 a 3.84,3.84 0 0 0 0,-0.5 1.51,1.51 0 0 0 -0.06,-0.37 0.08,0.08 0 0 0 0,-0.08 1.2,1.2 0 0 0 -0.09,-0.35 1.87,1.87 0 0 0 -0.23,-0.52 0.85,0.85 0 0 0 -0.14,-0.21 0.49,0.49 0 0 0 -0.11,-0.14 1.34,1.34 0 0 0 -0.27,-0.26 v 0 A 3,3 0 0 0 317,48 2.17,2.17 0 0 0 316.08,47.81 Z"
             style="fill:#846a23"
             id="path33" />
          <path
             d="m 317,48 a 2.91,2.91 0 0 0 -2.69,0.35 L 83.6,181.23 a 8.84,8.84 0 0 0 -4,6.93 v 7.75 l -5.11,-3 v -7.66 a 8.85,8.85 0 0 1 4,-6.92 L 309.2,45.49 a 2.8,2.8 0 0 1 2.9,-0.24 c 0.72,0.44 4.04,2.34 4.9,2.75 z"
             style="fill:#846a23"
             id="path35" />
          <path
             d="m 318.3,50.66 c 0,-2.53 -1.8,-3.55 -4,-2.28 L 83.6,181.24 a 8.82,8.82 0 0 0 -4,6.92 v 7.76 L 318.3,58.46 Z"
             style="fill:#846a23"
             id="path37" />
          <g
             style="opacity:0.2"
             id="g41">
            <path
               d="M 314.3,48.38 83.6,181.23 a 8.41,8.41 0 0 0 -2.82,3 l -5.08,-2.94 a 8,8 0 0 1 2.79,-2.92 L 309.2,45.49 a 2.8,2.8 0 0 1 2.9,-0.24 c 0.72,0.44 4,2.32 4.88,2.78 a 2.9,2.9 0 0 0 -2.68,0.35 z"
               style="fill:#ffffff"
               id="path39" />
          </g>
          <path
             d="m 74.49,192.94 v -7.68 a 8.24,8.24 0 0 1 1.21,-4 l 5.1,2.93 a 8,8 0 0 0 -1.2,4 v 7.76 z"
             style="opacity:0.15"
             id="path43" />
          <path
             d="m 300.94,60 a 4.05,4.05 0 0 0 -1.7,3.24 c 0,1.25 0.76,1.82 1.7,1.28 a 4.05,4.05 0 0 0 1.7,-3.24 c 0,-1.21 -0.76,-1.78 -1.7,-1.28 z"
             style="fill:#fafafa"
             id="path45" />
          <path
             d="m 307.05,56.5 a 4.09,4.09 0 0 0 -1.7,3.25 c 0,1.25 0.76,1.82 1.7,1.28 a 4.05,4.05 0 0 0 1.7,-3.24 c 0,-1.25 -0.75,-1.79 -1.7,-1.29 z"
             style="fill:#fafafa"
             id="path47" />
          <path
             d="m 313.16,53 a 4.05,4.05 0 0 0 -1.7,3.24 c 0,1.25 0.76,1.83 1.7,1.29 a 4.07,4.07 0 0 0 1.7,-3.25 c 0,-1.28 -0.76,-1.85 -1.7,-1.28 z"
             style="fill:#fafafa"
             id="path49" />
          <path
             d="m 81,381.28 -0.2,-0.11 -4.22,-2.44 a 4.26,4.26 0 0 1 -2.09,-3.1 5.83,5.83 0 0 1 0,-0.59 V 192.92 l 5.11,3 v 182.94 a 2.62,2.62 0 0 0 1.24,2.27 1,1 0 0 0 0.13,0.09 c 0,0 0,0 0,0 z"
             style="fill:#846a23"
             id="path51" />
          <path
             d="m 81,381.28 -0.2,-0.11 -4.22,-2.44 a 4.26,4.26 0 0 1 -2.09,-3.1 5.83,5.83 0 0 1 0,-0.59 V 192.92 l 5.11,3 v 182.94 a 2.62,2.62 0 0 0 1.24,2.27 1,1 0 0 0 0.13,0.09 c 0,0 0,0 0,0 z"
             style="opacity:0.5;fill:#ffffff"
             id="path53" />
        </g>
      </g>
    </g>
    <g
       id="freepik--Color--inject-22">
      <g
         id="freepik--color--inject-22">
        <g
           style="opacity:0.2"
           id="g61">
          <path
             d="m 234.4,285 104.4,-60.28 c 0.67,-0.38 1.22,-0.07 1.22,0.71 v 32.47 a 2.72,2.72 0 0 1 -1.22,2.1 l -104.4,60.29 c -0.67,0.39 -1.22,0.08 -1.22,-0.7 V 287.11 A 2.72,2.72 0 0 1 234.4,285 Z"
             id="path59" />
        </g>
        <path
           d="m 263.14,296.53 c 0,4.41 -2.68,9.52 -6,11.43 -3.32,1.91 -6,-0.12 -6,-4.52 0,-4.4 2.68,-9.53 6,-11.43 3.32,-1.9 6,0.11 6,4.52 z"
           style="fill:#846a23"
           id="path63" />
        <path
           d="m 263.14,296.53 c 0,4.41 -2.68,9.52 -6,11.43 -3.32,1.91 -6,-0.12 -6,-4.52 0,-4.4 2.68,-9.53 6,-11.43 3.32,-1.9 6,0.11 6,4.52 z"
           style="opacity:0.7;fill:#ffffff"
           id="path65" />
        <path
           d="m 282,285.65 c 0,4.4 -2.68,9.52 -6,11.43 -3.32,1.91 -6,-0.12 -6,-4.52 0,-4.4 2.68,-9.53 6,-11.44 3.32,-1.91 6,0.12 6,4.53 z"
           style="fill:#846a23"
           id="path67" />
        <path
           d="m 282,285.65 c 0,4.4 -2.68,9.52 -6,11.43 -3.32,1.91 -6,-0.12 -6,-4.52 0,-4.4 2.68,-9.53 6,-11.44 3.32,-1.91 6,0.12 6,4.53 z"
           style="opacity:0.45;fill:#ffffff"
           id="path69" />
        <ellipse
           cx="294.85001"
           cy="278.22"
           rx="9.1899996"
           ry="5.1999998"
           transform="rotate(-66.95,294.84018,278.22244)"
           style="fill:#846a23"
           id="ellipse71" />
        <ellipse
           cx="294.85001"
           cy="278.22"
           rx="9.1899996"
           ry="5.1999998"
           transform="rotate(-66.95,294.84018,278.22244)"
           style="opacity:0.25;fill:#ffffff"
           id="ellipse73" />
        <path
           d="m 319.68,263.88 c 0,4.41 -2.68,9.53 -6,11.44 -3.32,1.91 -6,-0.12 -6,-4.53 0,-4.41 2.68,-9.52 6,-11.43 3.32,-1.91 6,0.12 6,4.52 z"
           style="fill:#846a23"
           id="path75" />
        <path
           d="m 338.53,253 c 0,4.41 -2.68,9.53 -6,11.44 -3.32,1.91 -6,-0.12 -6,-4.53 0,-4.41 2.68,-9.52 6,-11.43 3.32,-1.91 6,0.12 6,4.52 z"
           style="fill:#846a23"
           id="path77" />
        <path
           d="m 338.53,253 c 0,4.41 -2.68,9.53 -6,11.44 -3.32,1.91 -6,-0.12 -6,-4.53 0,-4.41 2.68,-9.52 6,-11.43 3.32,-1.91 6,0.12 6,4.52 z"
           style="opacity:0.2"
           id="path79" />
      </g>
    </g>
    <g
       id="freepik--Fonts--inject-22">
      <g
         id="freepik--fonts--inject-22">
        <g
           style="opacity:0.2"
           id="g85">
          <path
             d="m 234.4,229.51 104.4,-60.28 c 0.67,-0.39 1.22,-0.07 1.22,0.71 v 32.48 a 2.68,2.68 0 0 1 -1.22,2.11 l -104.4,60.28 c -0.67,0.39 -1.22,0.08 -1.22,-0.7 v -32.49 a 2.72,2.72 0 0 1 1.22,-2.11 z"
             id="path83" />
        </g>
        <g
           id="freepik--speech-bubble--inject-22">
          <path
             d="m 242.28,236.13 a 3.36,3.36 0 0 1 0.16,-0.33 v 0 a 3.41,3.41 0 0 0 -0.16,0.33 z"
             style="fill:#ebebeb"
             id="path87" />
          <path
             d="m 347.59,175.76 a 0.71,0.71 0 0 0 -0.69,-0.56 1.23,1.23 0 0 0 -0.62,0.19 l -102.87,59.39 a 2.81,2.81 0 0 0 -1,1 l -5,-2.89 a 3,3 0 0 1 0.93,-1 l 102.87,-59.38 a 3.06,3.06 0 0 1 2.75,0 l 2.29,1.28 a 2.94,2.94 0 0 1 1.34,1.97 z"
             style="fill:#846a23"
             id="path89" />
          <g
             style="opacity:0.2"
             id="g93">
            <path
               d="m 347.59,175.76 a 0.71,0.71 0 0 0 -0.69,-0.56 1.23,1.23 0 0 0 -0.62,0.19 l -102.87,59.39 a 2.81,2.81 0 0 0 -1,1 l -5,-2.89 a 3,3 0 0 1 0.93,-1 l 102.87,-59.38 a 3.06,3.06 0 0 1 2.75,0 l 2.29,1.28 a 2.94,2.94 0 0 1 1.34,1.97 z"
               style="fill:#ffffff"
               id="path91" />
          </g>
          <path
             d="m 243.41,270 a 3.14,3.14 0 0 1 -2.74,0 l -2.3,-1.36 a 3,3 0 0 1 -1.38,-2.35 v -32 a 2.87,2.87 0 0 1 0.44,-1.4 l 5,2.89 a 2.77,2.77 0 0 0 -0.4,1.35 v 32.07 c 0.02,0.8 0.58,1.28 1.38,0.8 z"
             style="fill:#846a23"
             id="path95" />
          <g
             style="opacity:0.2"
             id="g99">
            <path
               d="m 243.41,270 a 3.14,3.14 0 0 1 -2.74,0 l -2.3,-1.36 a 3,3 0 0 1 -1.38,-2.35 v -32 a 2.87,2.87 0 0 1 0.44,-1.4 l 5,2.89 a 2.77,2.77 0 0 0 -0.4,1.35 v 32.07 c 0.02,0.8 0.58,1.28 1.38,0.8 z"
               id="path97" />
          </g>
          <path
             d="m 346.89,175.2 a 1.22,1.22 0 0 0 -0.61,0.19 l -102.87,59.39 a 3,3 0 0 0 -1.36,2.37 v 32.07 c 0,0.62 0.3,1 0.75,1 a 1.2,1.2 0 0 0 0.61,-0.19 l 102.87,-59.39 a 3,3 0 0 0 1.37,-2.37 v -32.09 c 0,-0.62 -0.31,-1 -0.76,-1 z"
             style="fill:#fafafa"
             id="path101" />
          <path
             d="m 346.57,176.46 v 31.79 a 2,2 0 0 1 -0.83,1.44 l -102.62,59.25 v -31.79 a 2,2 0 0 1 0.83,-1.44 l 102.62,-59.25 m 0.32,-1.26 a 1.22,1.22 0 0 0 -0.61,0.19 l -102.87,59.39 a 3,3 0 0 0 -1.36,2.37 v 32.07 c 0,0.62 0.3,1 0.75,1 a 1.2,1.2 0 0 0 0.61,-0.19 l 102.87,-59.39 a 3,3 0 0 0 1.37,-2.37 v -32.09 c 0,-0.62 -0.31,-1 -0.76,-1 z"
             style="fill:#846a23"
             id="path103" />
          <path
             d="m 346.89,175.81 c 0.14,0 0.15,0.31 0.15,0.37 v 32.07 a 2.42,2.42 0 0 1 -1.06,1.84 l -102.87,59.39 a 0.63,0.63 0 0 1 -0.31,0.11 c -0.14,0 -0.14,-0.31 -0.14,-0.37 v -32.07 a 2.41,2.41 0 0 1 1.06,-1.84 l 102.87,-59.39 a 0.61,0.61 0 0 1 0.3,-0.11 m 0,-0.61 a 1.22,1.22 0 0 0 -0.61,0.19 l -102.87,59.39 a 3,3 0 0 0 -1.36,2.37 v 32.07 c 0,0.62 0.3,1 0.75,1 a 1.2,1.2 0 0 0 0.61,-0.19 l 102.87,-59.39 a 3,3 0 0 0 1.37,-2.37 v -32.09 c 0,-0.62 -0.31,-1 -0.76,-1 z"
             style="fill:#846a23"
             id="path105" />
        </g>
        <path
           d="m 285.19,236.8 1.45,-1.17 3.68,-18.63 1.45,-0.84 3.68,14.52 1.2,-0.48 v 1.25 l -5.09,3 v -1.25 l 1.55,-1.2 -0.85,-3.53 -3.84,2.22 -0.85,4.43 1.53,-0.54 v 1.28 l -3.91,2.26 z m 3.54,-7.75 3.23,-1.87 -1.6,-6.59 z"
           style="fill:#455a64"
           id="path108" />
        <path
           d="m 302.32,226.47 c -0.87,1.88 -1.43,2.92 -2.56,3.57 -1.32,0.76 -2.35,0.16 -2.35,-2.07 0,-1.74 0.62,-3.4 3.16,-6.11 0.46,-0.51 1.08,-1.14 1.7,-1.74 v -0.76 c 0,-2.53 -0.41,-3 -1.56,-2.34 a 5.21,5.21 0 0 0 -0.72,0.53 l -0.21,1.62 a 3.1,3.1 0 0 1 -1.11,2.54 c -0.55,0.31 -0.9,0.08 -1,-0.65 a 7.5,7.5 0 0 1 3.72,-5.74 c 2.05,-1.18 3,-0.31 3,3.22 v 5.92 c 0,0.87 0.19,1.11 0.51,0.93 a 1.84,1.84 0 0 0 0.62,-1 l 0.4,0.31 a 4.11,4.11 0 0 1 -1.82,2.76 c -0.97,0.54 -1.57,0.17 -1.78,-0.99 z m -1.59,1 c 0.48,-0.28 0.78,-0.72 1.54,-2 v -4.31 c -0.5,0.53 -1,1 -1.26,1.37 a 5.58,5.58 0 0 0 -1.53,3.63 c 0,1.46 0.52,1.74 1.25,1.34 z"
           style="fill:#455a64"
           id="path110" />
        <path
           d="m 256,236.71 c 0.18,-0.1 0.32,-0.1 0.41,0 a 1.2,1.2 0 0 1 0.23,0.53 l 4.12,14 a 0.44,0.44 0 0 1 0,0.17 1.31,1.31 0 0 1 -0.13,0.57 0.86,0.86 0 0 1 -0.32,0.39 l -1.21,0.7 c -0.23,0.13 -0.39,0.15 -0.47,0.06 a 0.79,0.79 0 0 1 -0.19,-0.33 l -0.72,-2.45 -5.32,3.07 -0.72,3.29 a 2.45,2.45 0 0 1 -0.19,0.53 1.05,1.05 0 0 1 -0.47,0.49 l -1.21,0.7 a 0.24,0.24 0 0 1 -0.32,0 0.55,0.55 0 0 1 -0.13,-0.41 0.65,0.65 0 0 1 0,-0.2 L 253.47,239 a 3.29,3.29 0 0 1 0.23,-0.79 1.06,1.06 0 0 1 0.4,-0.46 z m 0.93,10.84 -1.93,-6.31 -1.85,8.44 z"
           style="fill:#455a64"
           id="path112" />
        <path
           d="m 262.11,241.14 a 7.93,7.93 0 0 1 0.31,-1.35 8.1,8.1 0 0 1 0.69,-1.56 8.39,8.39 0 0 1 1.09,-1.53 6.37,6.37 0 0 1 1.51,-1.22 3.65,3.65 0 0 1 1.55,-0.54 1.66,1.66 0 0 1 1.18,0.34 2.51,2.51 0 0 1 0.77,1.25 7.51,7.51 0 0 1 0.27,2.19 v 7.61 a 1.33,1.33 0 0 1 -0.14,0.57 0.81,0.81 0 0 1 -0.32,0.39 l -1.28,0.74 a 0.24,0.24 0 0 1 -0.32,0 0.55,0.55 0 0 1 -0.13,-0.41 v -0.86 a 7.64,7.64 0 0 1 -1,1.87 5.36,5.36 0 0 1 -1.69,1.51 2.94,2.94 0 0 1 -1.29,0.45 1.36,1.36 0 0 1 -1,-0.29 2,2 0 0 1 -0.6,-0.94 4.68,4.68 0 0 1 -0.21,-1.5 6.62,6.62 0 0 1 0.83,-3.27 9.18,9.18 0 0 1 2.2,-2.64 l 2.74,-2.31 c 0,-0.71 -0.15,-1.12 -0.45,-1.24 a 1.31,1.31 0 0 0 -1.13,0.21 2.17,2.17 0 0 0 -0.66,0.56 5.66,5.66 0 0 0 -0.45,0.76 2.25,2.25 0 0 1 -0.28,0.44 0.92,0.92 0 0 1 -0.28,0.24 l -1.56,0.9 a 0.24,0.24 0 0 1 -0.29,0 0.41,0.41 0 0 1 -0.06,-0.37 z m 2.81,5.68 a 4.08,4.08 0 0 0 1,-0.84 5.37,5.37 0 0 0 0.74,-1.09 5.13,5.13 0 0 0 0.46,-1.19 4.85,4.85 0 0 0 0.15,-1.15 v -0.26 l -2.27,1.94 a 4.37,4.37 0 0 0 -1,1.1 2.24,2.24 0 0 0 -0.3,1.12 c 0,0.37 0.12,0.56 0.36,0.6 a 1.46,1.46 0 0 0 0.86,-0.23 z"
           style="fill:#455a64"
           id="path114" />
        <path
           d="m 331,209 a 5.19,5.19 0 0 1 0.3,1.44 1.85,1.85 0 0 1 -0.75,1.45 l -0.1,0.06 c -0.55,0.31 -0.7,-0.35 -0.83,-0.95 l -0.49,-2.13 -0.39,-1.54 c -0.88,0.53 -1.75,1.06 -2.63,1.64 l -1.65,1.17 -0.35,0.25 c -0.31,1.34 -0.64,2.71 -0.92,4.08 -0.21,0.85 -0.3,1.94 -0.93,2.3 -0.63,0.36 -0.84,-0.11 -0.84,-0.67 a 3.08,3.08 0 0 1 0.15,-0.94 l 1,-4.1 a 1.24,1.24 0 0 1 -0.17,-0.77 1.87,1.87 0 0 1 0.75,-1.64 c 0.35,-1.43 0.69,-2.86 1.05,-4.3 0.57,-2.26 1.21,-4.66 1.66,-6.88 l 0.15,-0.62 a 2.14,2.14 0 0 1 0.72,-1.45 l 0.25,-0.17 a 0.36,0.36 0 0 1 0.44,0 c 0.12,0.05 0.23,0.2 0.28,0.61 0.31,1.41 0.63,2.85 1,4.24 0.66,2.64 1.38,5.27 2.09,7.88 z m -2.74,-3.73 -0.18,-0.65 -1,-3.76 -0.37,-1.29 -0.12,0.51 -1.37,5.48 c -0.17,0.7 -0.34,1.38 -0.5,2.07 1.28,-0.72 2.41,-1.54 3.57,-2.33 z"
           style="fill:#455a64"
           id="path116" />
        <path
           d="m 340.42,204.72 a 2.46,2.46 0 0 1 -0.85,1.89 c -0.35,0.2 -0.65,-0.21 -0.82,-0.64 a 8.3,8.3 0 0 1 -2.71,2.87 c -2,1.15 -3.92,0 -3.92,-3.77 a 13.09,13.09 0 0 1 0.8,-4.33 9.52,9.52 0 0 1 3.7,-5 3.34,3.34 0 0 1 2,-0.47 2.57,2.57 0 0 1 0.43,-1.12 1.69,1.69 0 0 1 0.53,-0.5 c 0.53,-0.31 0.61,0.52 0.61,0.83 0,0.31 0,0.54 -0.06,0.74 -0.11,1.15 -0.16,4.1 -0.16,4.85 0,0.75 0.06,2.89 0.06,3.56 0,0.67 0.39,0.63 0.39,1.09 z m -2,-1.53 c 0,-0.14 0.08,-0.29 0.13,-0.46 v -4.4 a 1.91,1.91 0 0 0 -0.21,-0.14 1.51,1.51 0 0 0 -1.86,0.06 c -1.49,0.86 -3,3.39 -3,6.15 0,1.57 0.73,3.22 2.49,2.2 a 5.69,5.69 0 0 0 2.45,-3.41 z"
           style="fill:#455a64"
           id="path118" />
        <path
           d="m 277.3,245.49 a 0.47,0.47 0 0 1 -0.47,-0.47 v -24.58 a 0.47,0.47 0 1 1 0.94,0 V 245 a 0.47,0.47 0 0 1 -0.47,0.49 z"
           style="fill:#455a64"
           id="path120" />
        <path
           d="m 313.77,224.43 a 0.47,0.47 0 0 1 -0.47,-0.47 v -24.58 a 0.47,0.47 0 1 1 0.94,0 V 224 a 0.47,0.47 0 0 1 -0.47,0.43 z"
           style="fill:#455a64"
           id="path122" />
      </g>
    </g>
    <g
       id="freepik--Controls--inject-22">
      <g
         id="g199">
        <g
           style="opacity:0.2"
           id="g128">
          <path
             d="M 257.67,106.77 338,60.41 c 0.68,-0.39 1.22,-0.07 1.22,0.7 v 85.67 A 2.69,2.69 0 0 1 338,148.9 l -80.31,46.36 c -0.68,0.39 -1.22,0.07 -1.22,-0.71 v -85.67 a 2.69,2.69 0 0 1 1.2,-2.11 z"
             id="path126" />
        </g>
        <path
           d="m 346.93,65.4 a 1.57,1.57 0 0 0 -1.43,0.2 l -79.36,45.69 A 4.79,4.79 0 0 0 264,115 v 83.7 a 1.54,1.54 0 0 0 0.59,1.37 c -0.37,-0.24 -3.62,-2.08 -4,-2.31 a 1.54,1.54 0 0 1 -0.62,-1.39 V 112.7 a 4.78,4.78 0 0 1 2.13,-3.7 l 79.35,-45.7 a 1.51,1.51 0 0 1 1.54,-0.14 c 0.35,0.17 3.18,1.77 3.94,2.24 z"
           style="fill:#846a23"
           id="path130" />
        <g
           style="opacity:0.2"
           id="g134">
          <path
             d="m 346.93,65.4 c -0.76,-0.47 -3.59,-2.07 -3.94,-2.28 a 1.51,1.51 0 0 0 -1.54,0.14 L 262.1,109 a 4.54,4.54 0 0 0 -1.52,1.61 l 4,2.33 a 4.54,4.54 0 0 1 1.52,-1.61 L 345.5,65.6 a 1.57,1.57 0 0 1 1.43,-0.2 z"
             style="fill:#ffffff"
             id="path132" />
        </g>
        <path
           d="M 266.14,111.29 345.5,65.6 c 1.19,-0.69 2.15,-0.13 2.15,1.24 v 83.7 a 4.76,4.76 0 0 1 -2.15,3.73 L 266.14,200 c -1.19,0.68 -2.15,0.13 -2.15,-1.25 V 115 a 4.77,4.77 0 0 1 2.15,-3.71 z"
           style="fill:#fafafa"
           id="path136" />
        <path
           d="m 346.46,65.3 v 1.08 c 0,0 0.1,0.16 0.1,0.46 v 83.7 a 3.7,3.7 0 0 1 -1.61,2.8 L 265.6,199 a 1.08,1.08 0 0 1 -0.44,0.16 0.8,0.8 0 0 1 -0.1,-0.47 V 115 a 3.68,3.68 0 0 1 1.62,-2.8 L 346,66.53 a 1,1 0 0 1 0.43,-0.15 V 65.3 m 0,0 a 1.94,1.94 0 0 0 -1,0.3 l -79.36,45.69 A 4.77,4.77 0 0 0 264,115 v 83.69 c 0,1 0.48,1.54 1.19,1.54 a 1.92,1.92 0 0 0 1,-0.29 l 79.36,-45.7 a 4.76,4.76 0 0 0 2.15,-3.73 V 66.84 c 0,-1 -0.48,-1.54 -1.19,-1.54 z"
           style="fill:#846a23"
           id="path138" />
        <path
           d="m 264.62,112.9 -4,-2.33 a 4.34,4.34 0 0 0 -0.64,2.13 v 83.69 a 1.54,1.54 0 0 0 0.62,1.39 c 0.4,0.23 3.65,2.07 4,2.31 a 1.54,1.54 0 0 1 -0.59,-1.37 V 115 a 4.43,4.43 0 0 1 0.61,-2.1 z"
           style="fill:#846a23"
           id="path140" />
        <path
           d="m 264.62,112.9 -4,-2.33 a 4.34,4.34 0 0 0 -0.64,2.13 v 83.69 a 1.54,1.54 0 0 0 0.62,1.39 c 0.4,0.23 3.65,2.07 4,2.31 a 1.54,1.54 0 0 1 -0.59,-1.37 V 115 a 4.43,4.43 0 0 1 0.61,-2.1 z"
           style="opacity:0.15"
           id="path142" />
        <path
           d="m 346.46,66.3 c 0.19,0 0.2,0.49 0.2,0.54 v 83.7 a 3.79,3.79 0 0 1 -1.66,2.87 l -79.36,45.7 a 1,1 0 0 1 -0.46,0.16 c -0.19,0 -0.2,-0.49 -0.2,-0.55 V 115 a 3.79,3.79 0 0 1 1.66,-2.87 L 346,66.46 a 1.07,1.07 0 0 1 0.47,-0.16 m 0,-1 a 1.94,1.94 0 0 0 -1,0.3 l -79.36,45.69 A 4.77,4.77 0 0 0 264,115 v 83.69 c 0,1 0.48,1.54 1.19,1.54 a 1.92,1.92 0 0 0 1,-0.29 l 79.36,-45.7 a 4.76,4.76 0 0 0 2.15,-3.73 V 66.84 c 0,-1 -0.48,-1.54 -1.19,-1.54 z"
           style="fill:#846a23"
           id="path144" />
        <g
           id="freepik--controls--inject-22">
          <path
             d="m 306.07,165.86 0.12,-63.81 c 0,-1.19 -0.78,-1.71 -1.75,-1.15 a 4,4 0 0 0 -1.76,3.17 l -0.12,63.82 c 0,1.19 0.78,1.71 1.75,1.15 a 4,4 0 0 0 1.76,-3.18 z"
             style="fill:#e0e0e0"
             id="path146" />
          <path
             d="m 306.05,148.25 v 17.61 a 4,4 0 0 1 -1.76,3.18 c -1,0.56 -1.75,0 -1.75,-1.15 v -17.61 z"
             style="fill:#455a64"
             id="path148" />
          <path
             d="m 304.18,156.42 a 4.39,4.39 0 0 1 -1.64,0.58 v -6.72 l 3.51,-2 v 6.59 a 7.86,7.86 0 0 1 -1.87,1.55 z"
             style="fill:#37474f"
             id="path150" />
          <path
             d="m 308.75,146.69 c 0,-2.84 -2,-4 -4.46,-2.57 a 9.85,9.85 0 0 0 -4.45,7.72 c 0,2.84 2,4 4.45,2.57 a 9.86,9.86 0 0 0 4.46,-7.72 z"
             style="fill:#846a23"
             id="path152" />
          <path
             d="m 308.75,146.69 c 0,-2.84 -2,-4 -4.46,-2.57 a 9.85,9.85 0 0 0 -4.45,7.72 c 0,2.84 2,4 4.45,2.57 a 9.86,9.86 0 0 0 4.46,-7.72 z"
             style="opacity:0.3;fill:#ffffff"
             id="path154" />
          <path
             d="m 292.69,173.58 0.13,-63.81 c 0,-1.19 -0.78,-1.71 -1.75,-1.15 a 4,4 0 0 0 -1.76,3.18 l -0.13,63.81 c 0,1.19 0.79,1.71 1.76,1.15 a 4,4 0 0 0 1.75,-3.18 z"
             style="fill:#e0e0e0"
             id="path156" />
          <path
             d="m 292.76,126.63 -0.07,47 a 4,4 0 0 1 -1.75,3.18 c -1,0.56 -1.76,0 -1.76,-1.15 l 0.07,-47 z"
             style="fill:#455a64"
             id="path158" />
          <path
             d="m 290.89,134.58 a 4.26,4.26 0 0 1 -1.65,0.58 v -6.5 l 3.51,-2 V 133 a 8,8 0 0 1 -1.86,1.58 z"
             style="fill:#37474f"
             id="path160" />
          <path
             d="m 295.46,124.85 c 0,-2.84 -2,-4 -4.46,-2.57 a 9.83,9.83 0 0 0 -4.45,7.71 c 0,2.84 2,4 4.45,2.58 a 9.86,9.86 0 0 0 4.46,-7.72 z"
             style="fill:#846a23"
             id="path162" />
          <path
             d="m 295.46,124.85 c 0,-2.84 -2,-4 -4.46,-2.57 a 9.83,9.83 0 0 0 -4.45,7.71 c 0,2.84 2,4 4.45,2.58 a 9.86,9.86 0 0 0 4.46,-7.72 z"
             style="opacity:0.3;fill:#ffffff"
             id="path164" />
          <path
             d="m 279.32,181.3 0.13,-63.81 c 0,-1.19 -0.79,-1.71 -1.76,-1.15 a 4,4 0 0 0 -1.75,3.18 l -0.13,63.81 c 0,1.19 0.79,1.71 1.76,1.15 a 4,4 0 0 0 1.75,-3.18 z"
             style="fill:#e0e0e0"
             id="path166" />
          <path
             d="m 279.3,163.69 v 17.61 a 4,4 0 0 1 -1.75,3.18 c -1,0.56 -1.76,0 -1.76,-1.15 v -17.61 z"
             style="fill:#455a64"
             id="path168" />
          <path
             d="m 277.44,171.86 a 4.39,4.39 0 0 1 -1.64,0.58 v -6.72 l 3.5,-2 v 6.59 a 7.86,7.86 0 0 1 -1.86,1.55 z"
             style="fill:#37474f"
             id="path170" />
          <path
             d="m 282,162.13 c 0,-2.84 -2,-4 -4.45,-2.57 a 9.85,9.85 0 0 0 -4.45,7.72 c 0,2.84 2,4 4.45,2.57 a 9.85,9.85 0 0 0 4.45,-7.72 z"
             style="fill:#846a23"
             id="path172" />
          <path
             d="m 282,162.13 c 0,-2.84 -2,-4 -4.45,-2.57 a 9.85,9.85 0 0 0 -4.45,7.72 c 0,2.84 2,4 4.45,2.57 a 9.85,9.85 0 0 0 4.45,-7.72 z"
             style="opacity:0.3;fill:#ffffff"
             id="path174" />
        </g>
        <g
           id="g197">
          <path
             d="m 332.82,150.42 0.12,-63.82 c 0,-1.19 -0.78,-1.7 -1.75,-1.14 a 4,4 0 0 0 -1.76,3.17 l -0.12,63.81 c 0,1.2 0.78,1.71 1.75,1.15 a 4,4 0 0 0 1.76,-3.17 z"
             style="fill:#e0e0e0"
             id="path177" />
          <path
             d="m 332.8,132.81 v 17.61 a 4,4 0 0 1 -1.76,3.17 c -1,0.56 -1.75,0 -1.75,-1.15 v -17.61 z"
             style="fill:#455a64"
             id="path179" />
          <path
             d="m 330.93,141 a 4.42,4.42 0 0 1 -1.64,0.59 v -6.73 l 3.51,-2 v 6.59 a 7.59,7.59 0 0 1 -1.87,1.55 z"
             style="fill:#37474f"
             id="path181" />
          <path
             d="m 335.5,131.25 c 0,-2.84 -2,-4 -4.46,-2.57 a 9.83,9.83 0 0 0 -4.45,7.71 c 0,2.84 2,4 4.45,2.57 a 9.84,9.84 0 0 0 4.46,-7.71 z"
             style="fill:#846a23"
             id="path183" />
          <path
             d="m 335.5,131.25 c 0,-2.84 -2,-4 -4.46,-2.57 a 9.83,9.83 0 0 0 -4.45,7.71 c 0,2.84 2,4 4.45,2.57 a 9.84,9.84 0 0 0 4.46,-7.71 z"
             style="opacity:0.3;fill:#ffffff"
             id="path185" />
          <path
             d="m 319.44,158.14 0.13,-63.82 c 0,-1.19 -0.78,-1.7 -1.75,-1.14 a 4,4 0 0 0 -1.76,3.17 l -0.13,63.81 c 0,1.2 0.79,1.71 1.76,1.15 a 4,4 0 0 0 1.75,-3.17 z"
             style="fill:#e0e0e0"
             id="path187" />
          <path
             d="m 319.51,111.19 -0.07,46.95 a 4,4 0 0 1 -1.75,3.17 c -1,0.56 -1.76,0.05 -1.76,-1.15 L 316,113.21 Z"
             style="fill:#455a64"
             id="path189" />
          <path
             d="m 317.64,119.13 a 4.29,4.29 0 0 1 -1.65,0.59 v -6.51 l 3.51,-2 v 6.39 a 7.67,7.67 0 0 1 -1.86,1.53 z"
             style="fill:#37474f"
             id="path191" />
          <path
             d="m 322.21,109.41 c 0,-2.84 -2,-4 -4.46,-2.58 a 9.87,9.87 0 0 0 -4.45,7.72 c 0,2.84 2,4 4.45,2.57 a 9.84,9.84 0 0 0 4.46,-7.71 z"
             style="fill:#846a23"
             id="path193" />
          <path
             d="m 322.21,109.41 c 0,-2.84 -2,-4 -4.46,-2.58 a 9.87,9.87 0 0 0 -4.45,7.72 c 0,2.84 2,4 4.45,2.57 a 9.84,9.84 0 0 0 4.46,-7.71 z"
             style="opacity:0.3;fill:#ffffff"
             id="path195" />
        </g>
      </g>
    </g>
    <g
       style="opacity:0.2"
       id="g204">
      <path
         d="m 147.26,170.4 94.56,-54.59 c 0.67,-0.39 1.22,-0.08 1.22,0.7 v 85.67 a 2.72,2.72 0 0 1 -1.22,2.12 l -94.56,54.59 c -0.67,0.39 -1.22,0.07 -1.22,-0.7 v -85.67 a 2.72,2.72 0 0 1 1.22,-2.12 z"
         id="path202" />
    </g>
    <path
       d="m 250.29,120.85 a 1.57,1.57 0 0 0 -1.43,0.2 l -92.7,53.53 a 4.75,4.75 0 0 0 -2.15,3.73 V 262 a 1.56,1.56 0 0 0 0.59,1.38 c -0.37,-0.24 -3.63,-2.08 -4,-2.32 a 1.53,1.53 0 0 1 -0.62,-1.38 V 176 a 4.75,4.75 0 0 1 2.16,-3.73 l 92.69,-53.54 a 1.54,1.54 0 0 1 1.54,-0.14 c 0.33,0.19 3.15,1.8 3.92,2.26 z"
       style="fill:#846a23"
       id="path206" />
    <g
       style="opacity:0.2"
       id="g210">
      <path
         d="m 250.29,120.85 c -0.77,-0.46 -3.59,-2.07 -3.94,-2.28 a 1.54,1.54 0 0 0 -1.54,0.14 l -92.69,53.54 a 4.37,4.37 0 0 0 -1.53,1.6 l 4,2.34 a 4.38,4.38 0 0 1 1.52,-1.61 l 92.7,-53.53 a 1.57,1.57 0 0 1 1.48,-0.2 z"
         style="fill:#ffffff"
         id="path208" />
    </g>
    <path
       d="m 156.16,174.58 92.69,-53.53 c 1.19,-0.69 2.16,-0.13 2.16,1.25 V 206 a 4.74,4.74 0 0 1 -2.16,3.73 l -92.69,53.53 c -1.19,0.69 -2.16,0.13 -2.16,-1.24 v -83.7 a 4.78,4.78 0 0 1 2.16,-3.74 z"
       style="fill:#846a23"
       id="path212" />
    <g
       style="opacity:0.5;fill:#cdb2c0;fill-opacity:1"
       id="g216">
      <path
         d="m 156.16,174.58 92.69,-53.53 c 1.19,-0.69 2.16,-0.13 2.16,1.25 V 206 a 4.74,4.74 0 0 1 -2.16,3.73 l -92.69,53.53 c -1.19,0.69 -2.16,0.13 -2.16,-1.24 v -83.7 a 4.78,4.78 0 0 1 2.16,-3.74 z"
         style="fill:#cdb2c0;fill-opacity:1"
         id="path214" />
    </g>
    <path
       d="m 154.64,176.19 -4,-2.34 A 4.43,4.43 0 0 0 150,176 v 83.7 a 1.53,1.53 0 0 0 0.62,1.38 c 0.39,0.24 3.65,2.08 4,2.32 A 1.56,1.56 0 0 1 154,262 v -83.69 a 4.36,4.36 0 0 1 0.64,-2.12 z"
       style="fill:#846a23"
       id="path218" />
    <path
       d="m 154.64,176.19 -4,-2.34 A 4.43,4.43 0 0 0 150,176 v 83.7 a 1.53,1.53 0 0 0 0.62,1.38 c 0.39,0.24 3.65,2.08 4,2.32 A 1.56,1.56 0 0 1 154,262 v -83.69 a 4.36,4.36 0 0 1 0.64,-2.12 z"
       style="opacity:0.15"
       id="path220" />
    <path
       d="m 214.68,202.34 7.33,10.3 L 188.9,182.5 154,241.62 V 262 c 0,1.37 1,1.93 2.16,1.24 l 92.69,-53.53 A 4.74,4.74 0 0 0 251,206 V 194.8 L 226.32,177 Z"
       style="opacity:0.95;fill:#f4d7d7"
       id="path222" />
    <path
       d="m 218.67,152.79 c 4.33,-2.5 7.83,-0.47 7.83,4.52 a 17.27,17.27 0 0 1 -7.83,13.55 c -4.32,2.5 -7.82,0.47 -7.82,-4.52 a 17.28,17.28 0 0 1 7.82,-13.55 z"
       style="opacity:0.95;fill:#fafafa"
       id="path224" />
    <path
       d="m 249.82,121.75 c 0.19,0 0.19,0.49 0.19,0.55 V 206 a 3.78,3.78 0 0 1 -1.65,2.87 l -92.7,53.53 a 1,1 0 0 1 -0.46,0.16 c -0.19,0 -0.2,-0.49 -0.2,-0.54 v -83.7 a 3.76,3.76 0 0 1 1.66,-2.87 l 92.69,-53.53 a 1,1 0 0 1 0.47,-0.16 m 0,-1 a 2,2 0 0 0 -1,0.29 l -92.69,53.53 a 4.78,4.78 0 0 0 -2.16,3.73 V 262 c 0,1 0.49,1.54 1.2,1.54 a 2,2 0 0 0 1,-0.3 l 92.69,-53.53 A 4.74,4.74 0 0 0 251,206 v -83.7 c 0,-1 -0.49,-1.54 -1.19,-1.54 z"
       style="fill:#846a23"
       id="path226" />
    <g
       id="freepik--Code--inject-22">
      <g
         id="g402">
        <g
           style="opacity:0.2"
           id="g232">
          <path
             d="m 95.73,309.7 122.79,-70.89 c 2.39,-1.38 4.33,-0.26 4.33,2.5 v 80.91 a 9.58,9.58 0 0 1 -4.33,7.5 L 95.73,400.61 c -2.39,1.38 -4.33,0.26 -4.33,-2.5 V 317.2 a 9.58,9.58 0 0 1 4.33,-7.5 z"
             id="path230" />
        </g>
        <g
           id="g254">
          <path
             d="m 226.83,248.26 a 1.51,1.51 0 0 0 -0.07,-0.38 c 0,0 0,0 0,-0.08 a 1.36,1.36 0 0 0 -0.09,-0.36 2.45,2.45 0 0 0 -0.24,-0.52 0.7,0.7 0 0 0 -0.14,-0.21 c 0,-0.05 -0.06,-0.11 -0.12,-0.15 a 1.6,1.6 0 0 0 -0.26,-0.26 v 0 a 2.43,2.43 0 0 0 -0.35,-0.2 3,3 0 0 0 -2.73,0.35 l -118.96,68.42 c -2.24,1.29 -4.07,4.45 -4.07,9 v 80.67 c 0,-1.93 0,-1.92 0,-1.91 v 0.89 a 2.74,2.74 0 0 0 1.46,2.44 l 0.17,0.12 0.22,0.12 a 1.7,1.7 0 0 0 0.34,0.12 2.37,2.37 0 0 0 0.52,0.06 2.62,2.62 0 0 0 1.35,-0.38 l 0.1,-0.07 v 0 l 3.87,-2.23 114.94,-66.22 a 9,9 0 0 0 4.07,-7 v -81.72 c 0.02,-0.17 0,-0.34 -0.01,-0.5 z"
             style="fill:#455a64"
             id="path234" />
          <path
             d="m 225.52,246.07 a 3,3 0 0 0 -2.73,0.35 l -118.92,68.45 a 9,9 0 0 0 -4.07,7 v 7.87 l -5,-2.94 v -7.78 a 9,9 0 0 1 4,-7 l 118.94,-68.46 a 2.84,2.84 0 0 1 2.95,-0.24 c 0.76,0.46 3.97,2.3 4.83,2.75 z"
             style="fill:#846a23"
             id="path236" />
          <path
             d="m 226.85,248.74 c 0,-2.57 -1.83,-3.6 -4.06,-2.32 l -118.92,68.46 a 8.94,8.94 0 0 0 -4.06,7 v 7.88 l 127,-73.12 z"
             style="fill:#846a23"
             id="path238" />
          <g
             style="opacity:0.2"
             id="g242">
            <path
               d="m 222.79,246.42 -118.92,68.45 a 8.41,8.41 0 0 0 -2.86,3 L 96,315 a 8.08,8.08 0 0 1 2.82,-3 l 118.93,-68.45 a 2.84,2.84 0 0 1 2.95,-0.24 c 0.73,0.45 3.93,2.27 4.79,2.72 a 3,3 0 0 0 -2.7,0.39 z"
               style="fill:#ffffff"
               id="path240" />
          </g>
          <path
             d="m 94.78,326.85 v -7.79 A 8.29,8.29 0 0 1 96,315 l 5,2.87 a 8.25,8.25 0 0 0 -1.21,4 v 7.87 z"
             style="opacity:0.15"
             id="path244" />
          <path
             d="m 210.85,257.07 a 4.07,4.07 0 0 0 -1.54,3.27 c 0,1.31 0.69,2 1.54,1.48 a 4.06,4.06 0 0 0 1.54,-3.26 c 0,-1.32 -0.69,-1.98 -1.54,-1.49 z"
             style="fill:#ffffff"
             id="path246" />
          <path
             d="m 216.4,253.86 a 4.06,4.06 0 0 0 -1.54,3.26 c 0,1.32 0.69,2 1.54,1.49 a 4.08,4.08 0 0 0 1.54,-3.27 c 0,-1.34 -0.69,-1.97 -1.54,-1.48 z"
             style="fill:#ffffff"
             id="path248" />
          <path
             d="m 222,250.65 a 4.06,4.06 0 0 0 -1.54,3.26 c 0,1.31 0.69,2 1.54,1.49 a 4.06,4.06 0 0 0 1.55,-3.27 c -0.05,-1.31 -0.74,-1.97 -1.55,-1.48 z"
             style="fill:#ffffff"
             id="path250" />
          <path
             d="m 101.26,406 -0.21,-0.12 -4.11,-2.38 a 4.29,4.29 0 0 1 -2.12,-3.15 3.81,3.81 0 0 1 0,-0.59 v -72.92 l 5,2.94 v 73.7 a 2.67,2.67 0 0 0 1.27,2.31 1,1 0 0 0 0.13,0.09 c 0,0 0,0 0,0 z"
             style="fill:#263238"
             id="path252" />
        </g>
        <g
           style="opacity:0.6"
           id="g264">
          <path
             d="m 107.49,367.56 5.26,-3 c 0.52,-0.3 1,0 1,0.56 V 367 a 2.13,2.13 0 0 1 -1,1.65 l -5.25,3 c -0.53,0.31 -1,0.06 -1,-0.55 v -1.93 a 2.11,2.11 0 0 1 0.99,-1.61 z"
             style="fill:#ffffff"
             id="path256" />
          <path
             d="m 107.49,375.24 5.26,-3 c 0.52,-0.31 1,-0.06 1,0.55 v 1.93 a 2.11,2.11 0 0 1 -1,1.65 l -5.25,3 c -0.53,0.3 -1,0.05 -1,-0.55 v -1.94 a 2.14,2.14 0 0 1 0.99,-1.64 z"
             style="fill:#ffffff"
             id="path258" />
          <path
             d="m 107.49,382.93 5.26,-3 c 0.52,-0.3 1,-0.05 1,0.55 v 1.94 a 2.14,2.14 0 0 1 -1,1.65 l -5.25,3 c -0.53,0.31 -1,0.06 -1,-0.55 v -1.93 a 2.11,2.11 0 0 1 0.99,-1.66 z"
             style="fill:#ffffff"
             id="path260" />
          <path
             d="m 107.49,390.61 5.26,-3 c 0.52,-0.31 1,-0.06 1,0.55 v 1.93 a 2.11,2.11 0 0 1 -1,1.65 l -5.25,3 c -0.53,0.3 -1,0.05 -1,-0.56 v -1.93 a 2.14,2.14 0 0 1 0.99,-1.64 z"
             style="fill:#ffffff"
             id="path262" />
        </g>
        <g
           style="opacity:0.6"
           id="g274">
          <path
             d="m 107.49,333.29 5.26,-3 c 0.52,-0.31 1,-0.06 1,0.55 v 1.93 a 2.11,2.11 0 0 1 -1,1.65 l -5.25,3 c -0.53,0.31 -1,0.06 -1,-0.55 v -1.93 a 2.11,2.11 0 0 1 0.99,-1.65 z"
             style="fill:#ffffff"
             id="path266" />
          <path
             d="m 107.49,341 5.26,-3 c 0.52,-0.3 1,-0.06 1,0.55 v 1.93 a 2.14,2.14 0 0 1 -1,1.66 l -5.25,3 c -0.53,0.3 -1,0.06 -1,-0.55 v -1.93 a 2.14,2.14 0 0 1 0.99,-1.66 z"
             style="fill:#ffffff"
             id="path268" />
          <path
             d="m 107.49,348.66 5.26,-3 c 0.52,-0.31 1,-0.06 1,0.55 v 1.93 a 2.11,2.11 0 0 1 -1,1.65 l -5.25,3 c -0.53,0.31 -1,0.06 -1,-0.55 v -1.93 a 2.11,2.11 0 0 1 0.99,-1.65 z"
             style="fill:#ffffff"
             id="path270" />
          <path
             d="m 107.49,356.34 5.26,-3 c 0.52,-0.3 1,-0.06 1,0.55 v 1.93 a 2.14,2.14 0 0 1 -1,1.66 l -5.25,3 c -0.53,0.3 -1,0.06 -1,-0.55 V 358 a 2.14,2.14 0 0 1 0.99,-1.66 z"
             style="fill:#ffffff"
             id="path272" />
        </g>
        <path
           d="m 121.1,326.91 29.38,-17 c 0.53,-0.31 1,-0.09 1,0.49 a 2.09,2.09 0 0 1 -1,1.6 l -29.38,17 c -0.54,0.31 -1,0.09 -1,-0.49 a 2.07,2.07 0 0 1 1,-1.6 z"
           style="fill:#846a23"
           id="path276" />
        <path
           d="m 121.06,352.19 45.07,-26.09 c 0.54,-0.31 1,-0.09 1,0.49 a 2.05,2.05 0 0 1 -1,1.6 l -45.07,26.09 c -0.53,0.31 -1,0.09 -1,-0.48 a 2.07,2.07 0 0 1 1,-1.61 z"
           style="fill:#846a23"
           id="path278" />
        <path
           d="m 154.22,307.75 12.5,-7.21 c 0.53,-0.31 1,-0.09 1,0.49 a 2.08,2.08 0 0 1 -1,1.6 l -12.5,7.21 c -0.53,0.31 -1,0.09 -1,-0.49 a 2.07,2.07 0 0 1 1,-1.6 z"
           style="fill:#846a23"
           id="path280" />
        <path
           d="m 121.1,332.92 10.56,-6.15 c 0.53,-0.3 1,-0.09 1,0.49 a 2.05,2.05 0 0 1 -1,1.6 L 121.1,335 c -0.54,0.31 -1,0.09 -1,-0.49 a 2.07,2.07 0 0 1 1,-1.59 z"
           style="fill:#846a23"
           id="path282" />
        <path
           d="m 121.1,332.92 10.56,-6.15 c 0.53,-0.3 1,-0.09 1,0.49 a 2.05,2.05 0 0 1 -1,1.6 L 121.1,335 c -0.54,0.31 -1,0.09 -1,-0.49 a 2.07,2.07 0 0 1 1,-1.59 z"
           style="opacity:0.6;fill:#ffffff"
           id="path284" />
        <path
           d="m 121.1,338.89 11.59,-6.67 c 0.53,-0.31 1,-0.09 1,0.49 a 2.07,2.07 0 0 1 -1,1.6 L 121.1,341 c -0.54,0.3 -1,0.08 -1,-0.49 a 2.07,2.07 0 0 1 1,-1.62 z"
           style="fill:#846a23"
           id="path286" />
        <path
           d="m 121.1,338.89 11.59,-6.67 c 0.53,-0.31 1,-0.09 1,0.49 a 2.07,2.07 0 0 1 -1,1.6 L 121.1,341 c -0.54,0.3 -1,0.08 -1,-0.49 a 2.07,2.07 0 0 1 1,-1.62 z"
           style="opacity:0.6;fill:#ffffff"
           id="path288" />
        <path
           d="m 135.4,324.61 8.78,-5.1 c 0.53,-0.31 1,-0.09 1,0.48 a 2.08,2.08 0 0 1 -1,1.61 l -8.78,5.1 c -0.53,0.31 -1,0.09 -1,-0.48 a 2.1,2.1 0 0 1 1,-1.61 z"
           style="fill:#846a23"
           id="path290" />
        <path
           d="m 135.4,324.61 8.78,-5.1 c 0.53,-0.31 1,-0.09 1,0.48 a 2.08,2.08 0 0 1 -1,1.61 l -8.78,5.1 c -0.53,0.31 -1,0.09 -1,-0.48 a 2.1,2.1 0 0 1 1,-1.61 z"
           style="opacity:0.6;fill:#ffffff"
           id="path292" />
        <path
           d="m 131.15,361.43 35.57,-20.75 c 0.54,-0.31 1,-0.09 1,0.49 a 2,2 0 0 1 -1,1.6 l -35.57,20.75 c -0.53,0.31 -1,0.09 -1,-0.49 a 2.09,2.09 0 0 1 1,-1.6 z"
           style="fill:#ffa8a7"
           id="path294" />
        <path
           d="m 131.15,355.46 35.57,-20.78 c 0.53,-0.31 1,-0.09 1,0.49 a 2.08,2.08 0 0 1 -1,1.6 l -35.57,20.78 c -0.53,0.31 -1,0.09 -1,-0.49 a 2.09,2.09 0 0 1 1,-1.6 z"
           style="fill:#ffa8a7"
           id="path296" />
        <path
           d="m 135.79,330.45 10.36,-6.07 c 0.53,-0.31 1,-0.09 1,0.49 a 2.07,2.07 0 0 1 -1,1.6 l -10.36,6.07 c -0.53,0.31 -1,0.09 -1,-0.49 a 2.09,2.09 0 0 1 1,-1.6 z"
           style="fill:#846a23"
           id="path298" />
        <path
           d="m 135.79,330.45 10.36,-6.07 c 0.53,-0.31 1,-0.09 1,0.49 a 2.07,2.07 0 0 1 -1,1.6 l -10.36,6.07 c -0.53,0.31 -1,0.09 -1,-0.49 a 2.09,2.09 0 0 1 1,-1.6 z"
           style="opacity:0.6;fill:#ffffff"
           id="path300" />
        <path
           d="M 149.89,322.22 166.15,313 c 0.54,-0.31 1,-0.09 1,0.49 a 2.05,2.05 0 0 1 -1,1.6 l -16.26,9.18 c -0.53,0.31 -1,0.09 -1,-0.49 a 2.07,2.07 0 0 1 1,-1.56 z"
           style="fill:#846a23"
           id="path302" />
        <path
           d="M 149.89,322.22 166.15,313 c 0.54,-0.31 1,-0.09 1,0.49 a 2.05,2.05 0 0 1 -1,1.6 l -16.26,9.18 c -0.53,0.31 -1,0.09 -1,-0.49 a 2.07,2.07 0 0 1 1,-1.56 z"
           style="opacity:0.6;fill:#ffffff"
           id="path304" />
        <path
           d="m 121.06,345.2 25.09,-14.41 c 0.53,-0.31 1,-0.09 1,0.49 a 2.05,2.05 0 0 1 -1,1.6 l -25.09,14.41 c -0.53,0.31 -1,0.09 -1,-0.48 a 2.07,2.07 0 0 1 1,-1.61 z"
           style="fill:#846a23"
           id="path306" />
        <path
           d="m 121.06,345.2 25.09,-14.41 c 0.53,-0.31 1,-0.09 1,0.49 a 2.05,2.05 0 0 1 -1,1.6 l -25.09,14.41 c -0.53,0.31 -1,0.09 -1,-0.48 a 2.07,2.07 0 0 1 1,-1.61 z"
           style="opacity:0.6;fill:#ffffff"
           id="path308" />
        <path
           d="m 149.89,328.63 16.26,-9.18 c 0.54,-0.3 1,-0.09 1,0.49 a 2.07,2.07 0 0 1 -1,1.61 l -16.26,9.17 c -0.53,0.31 -1,0.09 -1,-0.49 a 2.08,2.08 0 0 1 1,-1.6 z"
           style="fill:#846a23"
           id="path310" />
        <path
           d="m 149.89,328.63 16.26,-9.18 c 0.54,-0.3 1,-0.09 1,0.49 a 2.07,2.07 0 0 1 -1,1.61 l -16.26,9.17 c -0.53,0.31 -1,0.09 -1,-0.49 a 2.08,2.08 0 0 1 1,-1.6 z"
           style="opacity:0.6;fill:#ffffff"
           id="path312" />
        <path
           d="m 131.15,367.48 35.57,-20.6 c 0.54,-0.31 1,-0.09 1,0.48 a 2.07,2.07 0 0 1 -1,1.61 l -35.57,20.6 c -0.53,0.31 -1,0.09 -1,-0.49 a 2.08,2.08 0 0 1 1,-1.6 z"
           style="fill:#f28f8f"
           id="path314" />
        <path
           d="m 131.15,373.47 35.57,-20.61 c 0.54,-0.31 1,-0.09 1,0.49 a 2,2 0 0 1 -1,1.6 l -35.57,20.61 c -0.53,0.3 -1,0.09 -1,-0.49 a 2.06,2.06 0 0 1 1,-1.6 z"
           style="fill:#f28f8f"
           id="path316" />
        <path
           d="m 131.15,379.45 35.57,-20.6 c 0.54,-0.31 1,-0.09 1,0.49 a 2.07,2.07 0 0 1 -1,1.6 l -35.57,20.6 c -0.53,0.31 -1,0.09 -1,-0.49 a 2.09,2.09 0 0 1 1,-1.6 z"
           style="fill:#f28f8f"
           id="path318" />
        <path
           d="m 121.3,360.3 4.47,-2.57 c 0.53,-0.3 1,-0.08 1,0.49 a 2.08,2.08 0 0 1 -1,1.61 l -4.47,2.56 c -0.54,0.31 -1,0.09 -1,-0.48 a 2.07,2.07 0 0 1 1,-1.61 z"
           style="fill:#846a23"
           id="path320" />
        <path
           d="m 121.3,360.3 4.47,-2.57 c 0.53,-0.3 1,-0.08 1,0.49 a 2.08,2.08 0 0 1 -1,1.61 l -4.47,2.56 c -0.54,0.31 -1,0.09 -1,-0.48 a 2.07,2.07 0 0 1 1,-1.61 z"
           style="opacity:0.6;fill:#ffffff"
           id="path322" />
        <path
           d="m 121.3,373.17 4.47,-2.56 c 0.53,-0.31 1,-0.09 1,0.48 a 2.08,2.08 0 0 1 -1,1.61 l -4.47,2.57 c -0.54,0.3 -1,0.08 -1,-0.49 a 2.07,2.07 0 0 1 1,-1.61 z"
           style="fill:#846a23"
           id="path324" />
        <path
           d="m 121.3,373.17 4.47,-2.56 c 0.53,-0.31 1,-0.09 1,0.48 a 2.08,2.08 0 0 1 -1,1.61 l -4.47,2.57 c -0.54,0.3 -1,0.08 -1,-0.49 a 2.07,2.07 0 0 1 1,-1.61 z"
           style="opacity:0.6;fill:#ffffff"
           id="path326" />
        <path
           d="m 121.3,379.16 4.47,-2.57 c 0.53,-0.31 1,-0.09 1,0.49 a 2.05,2.05 0 0 1 -1,1.6 l -4.47,2.57 c -0.54,0.31 -1,0.09 -1,-0.49 a 2.07,2.07 0 0 1 1,-1.6 z"
           style="fill:#846a23"
           id="path328" />
        <path
           d="m 121.3,379.16 4.47,-2.57 c 0.53,-0.31 1,-0.09 1,0.49 a 2.05,2.05 0 0 1 -1,1.6 l -4.47,2.57 c -0.54,0.31 -1,0.09 -1,-0.49 a 2.07,2.07 0 0 1 1,-1.6 z"
           style="opacity:0.6;fill:#ffffff"
           id="path330" />
        <path
           d="m 121.3,385.15 4.47,-2.57 c 0.53,-0.31 1,-0.09 1,0.49 a 2.08,2.08 0 0 1 -1,1.6 l -4.47,2.57 c -0.54,0.31 -1,0.09 -1,-0.49 a 2,2 0 0 1 1,-1.6 z"
           style="fill:#846a23"
           id="path332" />
        <path
           d="m 121.3,385.15 4.47,-2.57 c 0.53,-0.31 1,-0.09 1,0.49 a 2.08,2.08 0 0 1 -1,1.6 l -4.47,2.57 c -0.54,0.31 -1,0.09 -1,-0.49 a 2,2 0 0 1 1,-1.6 z"
           style="opacity:0.6;fill:#ffffff"
           id="path334" />
        <path
           d="m 216.42,270.6 -37.69,21.76 a 5.6,5.6 0 0 0 -2.53,4.38 v 56.76 c 0,1.61 1.14,2.27 2.53,1.46 l 37.69,-21.76 a 5.62,5.62 0 0 0 2.53,-4.38 v -56.76 c 0.05,-1.61 -1.14,-2.27 -2.53,-1.46 z"
           style="fill:#37474f"
           id="path336" />
        <path
           d="m 212.92,313.73 -3.47,2 a 2.74,2.74 0 0 0 -1.28,2.12 c 0,0.77 0.57,1.06 1.28,0.65 l 3.47,-2 a 2.74,2.74 0 0 0 1.28,-2.13 c 0,-0.76 -0.57,-1.05 -1.28,-0.64 z"
           style="fill:#846a23"
           id="path338" />
        <path
           d="m 212.92,313.73 -3.47,2 a 2.74,2.74 0 0 0 -1.28,2.12 c 0,0.77 0.57,1.06 1.28,0.65 l 3.47,-2 a 2.74,2.74 0 0 0 1.28,-2.13 c 0,-0.76 -0.57,-1.05 -1.28,-0.64 z"
           style="opacity:0.6;fill:#ffffff"
           id="path340" />
        <path
           d="m 212.92,278.1 -3.47,2 a 2.72,2.72 0 0 0 -1.28,2.12 c 0,0.77 0.57,1.06 1.28,0.65 l 3.47,-2 a 2.72,2.72 0 0 0 1.28,-2.12 c 0,-0.75 -0.57,-1.06 -1.28,-0.65 z"
           style="fill:#846a23"
           id="path342" />
        <path
           d="m 212.92,278.1 -3.47,2 a 2.72,2.72 0 0 0 -1.28,2.12 c 0,0.77 0.57,1.06 1.28,0.65 l 3.47,-2 a 2.72,2.72 0 0 0 1.28,-2.12 c 0,-0.75 -0.57,-1.06 -1.28,-0.65 z"
           style="opacity:0.6;fill:#ffffff"
           id="path344" />
        <path
           d="m 208,288 -3.47,2 a 2.77,2.77 0 0 0 -1.28,2.13 c 0,0.76 0.58,1 1.28,0.65 l 3.47,-2 a 2.74,2.74 0 0 0 1.28,-2.13 c 0.04,-0.74 -0.53,-1.03 -1.28,-0.65 z"
           style="fill:#846a23"
           id="path346" />
        <path
           d="m 208,288 -3.47,2 a 2.77,2.77 0 0 0 -1.28,2.13 c 0,0.76 0.58,1 1.28,0.65 l 3.47,-2 a 2.74,2.74 0 0 0 1.28,-2.13 c 0.04,-0.74 -0.53,-1.03 -1.28,-0.65 z"
           style="opacity:0.6;fill:#ffffff"
           id="path348" />
        <path
           d="m 208,295.13 -3.47,2 a 2.77,2.77 0 0 0 -1.28,2.13 c 0,0.76 0.58,1.05 1.28,0.64 l 3.47,-2 a 2.74,2.74 0 0 0 1.28,-2.13 c 0.04,-0.77 -0.53,-1.04 -1.28,-0.64 z"
           style="fill:#846a23"
           id="path350" />
        <path
           d="m 208,295.13 -3.47,2 a 2.77,2.77 0 0 0 -1.28,2.13 c 0,0.76 0.58,1.05 1.28,0.64 l 3.47,-2 a 2.74,2.74 0 0 0 1.28,-2.13 c 0.04,-0.77 -0.53,-1.04 -1.28,-0.64 z"
           style="opacity:0.6;fill:#ffffff"
           id="path352" />
        <path
           d="m 212.92,299.47 -3.47,2 a 2.74,2.74 0 0 0 -1.28,2.13 c 0,0.76 0.57,1.05 1.28,0.65 l 3.47,-2 a 2.74,2.74 0 0 0 1.28,-2.13 c 0,-0.76 -0.57,-1.05 -1.28,-0.65 z"
           style="fill:#846a23"
           id="path354" />
        <path
           d="m 212.92,299.47 -3.47,2 a 2.74,2.74 0 0 0 -1.28,2.13 c 0,0.76 0.57,1.05 1.28,0.65 l 3.47,-2 a 2.74,2.74 0 0 0 1.28,-2.13 c 0,-0.76 -0.57,-1.05 -1.28,-0.65 z"
           style="opacity:0.6;fill:#ffffff"
           id="path356" />
        <path
           d="m 208,309.41 -3.47,2 a 2.77,2.77 0 0 0 -1.28,2.13 c 0,0.77 0.58,1.06 1.28,0.65 l 3.47,-2 a 2.74,2.74 0 0 0 1.28,-2.13 c 0.04,-0.77 -0.53,-1.06 -1.28,-0.65 z"
           style="fill:#846a23"
           id="path358" />
        <path
           d="m 208,309.41 -3.47,2 a 2.77,2.77 0 0 0 -1.28,2.13 c 0,0.77 0.58,1.06 1.28,0.65 l 3.47,-2 a 2.74,2.74 0 0 0 1.28,-2.13 c 0.04,-0.77 -0.53,-1.06 -1.28,-0.65 z"
           style="opacity:0.6;fill:#ffffff"
           id="path360" />
        <path
           d="m 203.42,283.59 -21.19,12.23 A 2.77,2.77 0 0 0 181,298 c 0,0.76 0.58,1.05 1.28,0.64 l 21.19,-12.23 a 2.74,2.74 0 0 0 1.28,-2.12 c -0.05,-0.82 -0.62,-1.11 -1.33,-0.7 z"
           style="fill:#846a23"
           id="path362" />
        <path
           d="m 203.42,283.59 -21.19,12.23 A 2.77,2.77 0 0 0 181,298 c 0,0.76 0.58,1.05 1.28,0.64 l 21.19,-12.23 a 2.74,2.74 0 0 0 1.28,-2.12 c -0.05,-0.82 -0.62,-1.11 -1.33,-0.7 z"
           style="opacity:0.8;fill:#ffffff"
           id="path364" />
        <path
           d="m 203.42,319.22 -21.19,12.23 a 2.77,2.77 0 0 0 -1.28,2.13 c 0,0.76 0.58,1.05 1.28,0.65 L 203.42,322 a 2.72,2.72 0 0 0 1.28,-2.12 c 0,-0.78 -0.57,-1.07 -1.28,-0.66 z"
           style="fill:#846a23"
           id="path366" />
        <path
           d="m 203.42,319.22 -21.19,12.23 a 2.77,2.77 0 0 0 -1.28,2.13 c 0,0.76 0.58,1.05 1.28,0.65 L 203.42,322 a 2.72,2.72 0 0 0 1.28,-2.12 c 0,-0.78 -0.57,-1.07 -1.28,-0.66 z"
           style="opacity:0.8;fill:#ffffff"
           id="path368" />
        <path
           d="M 198.54,293.51 182.23,303 a 2.75,2.75 0 0 0 -1.28,2.12 c 0,0.77 0.58,1.06 1.28,0.65 l 16.31,-9.43 a 2.74,2.74 0 0 0 1.28,-2.13 c 0,-0.82 -0.57,-1.11 -1.28,-0.7 z"
           style="fill:#846a23"
           id="path370" />
        <path
           d="M 198.54,293.51 182.23,303 a 2.75,2.75 0 0 0 -1.28,2.12 c 0,0.77 0.58,1.06 1.28,0.65 l 16.31,-9.43 a 2.74,2.74 0 0 0 1.28,-2.13 c 0,-0.82 -0.57,-1.11 -1.28,-0.7 z"
           style="opacity:0.8;fill:#ffffff"
           id="path372" />
        <path
           d="m 198.54,300.64 -16.31,9.43 A 2.77,2.77 0 0 0 181,312.2 c 0,0.77 0.58,1.06 1.28,0.65 l 16.31,-9.44 a 2.74,2.74 0 0 0 1.28,-2.12 c -0.05,-0.77 -0.62,-1.06 -1.33,-0.65 z"
           style="fill:#846a23"
           id="path374" />
        <path
           d="m 198.54,300.64 -16.31,9.43 A 2.77,2.77 0 0 0 181,312.2 c 0,0.77 0.58,1.06 1.28,0.65 l 16.31,-9.44 a 2.74,2.74 0 0 0 1.28,-2.12 c -0.05,-0.77 -0.62,-1.06 -1.33,-0.65 z"
           style="opacity:0.8;fill:#ffffff"
           id="path376" />
        <path
           d="m 203.42,305 -21.19,12.2 a 2.77,2.77 0 0 0 -1.28,2.13 c 0,0.76 0.58,1.05 1.28,0.64 l 21.19,-12.23 a 2.74,2.74 0 0 0 1.28,-2.13 c 0,-0.76 -0.57,-1.05 -1.28,-0.61 z"
           style="fill:#846a23"
           id="path378" />
        <path
           d="m 203.42,305 -21.19,12.2 a 2.77,2.77 0 0 0 -1.28,2.13 c 0,0.76 0.58,1.05 1.28,0.64 l 21.19,-12.23 a 2.74,2.74 0 0 0 1.28,-2.13 c 0,-0.76 -0.57,-1.05 -1.28,-0.61 z"
           style="opacity:0.8;fill:#ffffff"
           id="path380" />
        <path
           d="m 198.54,314.89 -16.31,9.44 a 2.75,2.75 0 0 0 -1.28,2.12 c 0,0.77 0.58,1.06 1.28,0.65 l 16.31,-9.43 a 2.74,2.74 0 0 0 1.28,-2.13 c 0,-0.76 -0.57,-1.05 -1.28,-0.65 z"
           style="fill:#846a23"
           id="path382" />
        <path
           d="m 198.54,314.89 -16.31,9.44 a 2.75,2.75 0 0 0 -1.28,2.12 c 0,0.77 0.58,1.06 1.28,0.65 l 16.31,-9.43 a 2.74,2.74 0 0 0 1.28,-2.13 c 0,-0.76 -0.57,-1.05 -1.28,-0.65 z"
           style="opacity:0.8;fill:#ffffff"
           id="path384" />
        <path
           d="m 212.92,328.06 -3.47,2 a 2.74,2.74 0 0 0 -1.28,2.13 c 0,0.76 0.57,1.05 1.28,0.64 l 3.47,-2 a 2.74,2.74 0 0 0 1.28,-2.13 c 0,-0.76 -0.57,-1.05 -1.28,-0.64 z"
           style="fill:#846a23"
           id="path386" />
        <path
           d="m 212.92,328.06 -3.47,2 a 2.74,2.74 0 0 0 -1.28,2.13 c 0,0.76 0.57,1.05 1.28,0.64 l 3.47,-2 a 2.74,2.74 0 0 0 1.28,-2.13 c 0,-0.76 -0.57,-1.05 -1.28,-0.64 z"
           style="opacity:0.6;fill:#ffffff"
           id="path388" />
        <path
           d="m 208,323.74 -3.47,2 a 2.77,2.77 0 0 0 -1.28,2.13 c 0,0.77 0.58,1.06 1.28,0.65 l 3.47,-2 a 2.74,2.74 0 0 0 1.28,-2.13 c 0.04,-0.77 -0.53,-1.06 -1.28,-0.65 z"
           style="fill:#846a23"
           id="path390" />
        <path
           d="m 208,323.74 -3.47,2 a 2.77,2.77 0 0 0 -1.28,2.13 c 0,0.77 0.58,1.06 1.28,0.65 l 3.47,-2 a 2.74,2.74 0 0 0 1.28,-2.13 c 0.04,-0.77 -0.53,-1.06 -1.28,-0.65 z"
           style="opacity:0.6;fill:#ffffff"
           id="path392" />
        <path
           d="m 203.42,333.55 -21.19,12.23 a 2.77,2.77 0 0 0 -1.28,2.13 c 0,0.77 0.58,1.06 1.28,0.65 l 21.19,-12.24 a 2.72,2.72 0 0 0 1.28,-2.12 c 0,-0.77 -0.57,-1.06 -1.28,-0.65 z"
           style="fill:#846a23"
           id="path394" />
        <path
           d="m 203.42,333.55 -21.19,12.23 a 2.77,2.77 0 0 0 -1.28,2.13 c 0,0.77 0.58,1.06 1.28,0.65 l 21.19,-12.24 a 2.72,2.72 0 0 0 1.28,-2.12 c 0,-0.77 -0.57,-1.06 -1.28,-0.65 z"
           style="opacity:0.8;fill:#ffffff"
           id="path396" />
        <path
           d="m 198.54,329.22 -16.31,9.44 a 2.75,2.75 0 0 0 -1.28,2.12 c 0,0.77 0.58,1.06 1.28,0.65 L 198.54,332 a 2.74,2.74 0 0 0 1.28,-2.13 c 0,-0.76 -0.57,-1.05 -1.28,-0.65 z"
           style="fill:#846a23"
           id="path398" />
        <path
           d="m 198.54,329.22 -16.31,9.44 a 2.75,2.75 0 0 0 -1.28,2.12 c 0,0.77 0.58,1.06 1.28,0.65 L 198.54,332 a 2.74,2.74 0 0 0 1.28,-2.13 c 0,-0.76 -0.57,-1.05 -1.28,-0.65 z"
           style="opacity:0.8;fill:#ffffff"
           id="path400" />
      </g>
    </g>
    <g
       id="freepik--Icon--inject-22">
      <g
         id="freepik--code-icon--inject-22">
        <g
           style="opacity:0.2"
           id="g407">
          <path
             d="m 92.62,252.64 41.52,-24 c 0.67,-0.39 1.22,-0.07 1.22,0.7 v 36.14 a 2.7,2.7 0 0 1 -1.22,2.11 l -41.52,24 c -0.67,0.39 -1.22,0.08 -1.22,-0.7 v -36.13 a 2.72,2.72 0 0 1 1.22,-2.12 z"
             id="path405" />
        </g>
        <g
           id="freepik--speach-bubble--inject-22">
          <path
             d="M 132.4,234 96,255.05 a 3,3 0 0 0 -1.35,2.33 v 33.78 a 2.92,2.92 0 0 0 1.35,2.31 l 2.56,1.46 a 3,3 0 0 0 2.7,0 l 36.43,-21 a 3,3 0 0 0 1.35,-2.33 v -33.81 a 2.93,2.93 0 0 0 -1.36,-2.31 L 135.1,234 a 3,3 0 0 0 -2.7,0 z"
             style="fill:#846a23"
             id="path409" />
          <path
             d="m 101.24,294.91 a 3.08,3.08 0 0 1 -2.7,0 L 96,293.47 a 2.93,2.93 0 0 1 -1.36,-2.31 v -33.78 a 2.81,2.81 0 0 1 0.43,-1.37 l 5.24,3 a 2.69,2.69 0 0 0 -0.4,1.32 v 33.77 c -0.02,0.82 0.53,1.27 1.33,0.81 z"
             style="opacity:0.2"
             id="path411" />
          <g
             style="opacity:0.2"
             id="g415">
            <path
               d="m 139,237.55 c -0.11,-0.68 -0.66,-0.92 -1.33,-0.53 l -36.43,21 a 2.81,2.81 0 0 0 -0.95,1 L 95,256 a 2.86,2.86 0 0 1 0.93,-1 l 36.44,-21 a 3,3 0 0 1 2.69,0 l 2.56,1.46 a 3,3 0 0 1 1.38,2.09 z"
               style="fill:#ffffff"
               id="path413" />
          </g>
          <path
             d="m 137.67,237 -36.43,21 a 3,3 0 0 0 -1.35,2.33 v 33.78 c 0,0.85 0.6,1.2 1.35,0.77 l 36.43,-21 a 3,3 0 0 0 1.35,-2.33 v -33.76 c -0.02,-0.85 -0.61,-1.2 -1.35,-0.79 z"
             style="fill:#846a23"
             id="path417" />
        </g>
        <g
           id="freepik----inject-22">
          <path
             d="m 103.5,274.86 a 2.09,2.09 0 0 1 0.15,-0.83 5.13,5.13 0 0 1 0.42,-0.78 l 8,-12.85 0.12,-0.15 0.09,-0.06 a 0.23,0.23 0 0 1 0.3,0 0.5,0.5 0 0 1 0.12,0.39 v 5 a 2.15,2.15 0 0 1 -0.23,1 7.77,7.77 0 0 1 -0.4,0.68 l -3.48,5.34 3.41,1.4 a 1.75,1.75 0 0 1 0.4,0.19 c 0.15,0.1 0.23,0.35 0.23,0.76 v 5 a 1.24,1.24 0 0 1 -0.12,0.53 0.76,0.76 0 0 1 -0.3,0.35 0.19,0.19 0 0 1 -0.09,0 H 112 l -8,-3.67 a 1,1 0 0 1 -0.42,-0.29 1.07,1.07 0 0 1 -0.15,-0.66 z"
             style="fill:#ffffff"
             id="path420" />
          <path
             d="m 120.81,253.09 a 4.63,4.63 0 0 1 0.3,-0.8 1.45,1.45 0 0 1 0.58,-0.62 l 2.66,-1.54 a 0.24,0.24 0 0 1 0.31,0 0.54,0.54 0 0 1 0.12,0.39 1.13,1.13 0 0 1 0,0.3 L 118,279.46 a 3.22,3.22 0 0 1 -0.28,0.78 1.49,1.49 0 0 1 -0.59,0.65 l -2.6,1.5 a 0.24,0.24 0 0 1 -0.31,0 0.54,0.54 0 0 1 -0.13,-0.4 1.24,1.24 0 0 1 0,-0.3 z"
             style="fill:#ffffff"
             id="path422" />
          <path
             d="m 135.41,257.72 a 2.1,2.1 0 0 1 -0.15,0.84 5.28,5.28 0 0 1 -0.43,0.78 l -7.94,12.84 a 1.16,1.16 0 0 1 -0.13,0.15 l -0.09,0.07 a 0.24,0.24 0 0 1 -0.3,0 0.54,0.54 0 0 1 -0.12,-0.39 v -5 a 2.13,2.13 0 0 1 0.23,-1 7.31,7.31 0 0 1 0.41,-0.66 l 3.47,-5.37 -3.47,-1.32 a 1.77,1.77 0 0 1 -0.41,-0.21 c -0.15,-0.11 -0.23,-0.37 -0.23,-0.77 v -5 a 1.17,1.17 0 0 1 0.12,-0.52 0.79,0.79 0 0 1 0.3,-0.36 h 0.09 0.13 l 7.94,3.67 a 0.8,0.8 0 0 1 0.58,0.95 z"
             style="fill:#ffffff"
             id="path424" />
        </g>
      </g>
    </g>
    <g
       id="freepik--Chart--inject-22">
      <g
         id="freepik--chart--inject-22">
        <g
           style="opacity:0.2"
           id="g431">
          <path
             d="m 92.62,202 41.52,-24 c 0.67,-0.39 1.22,-0.08 1.22,0.7 v 36.14 a 2.72,2.72 0 0 1 -1.22,2.11 l -41.52,24 c -0.67,0.39 -1.22,0.08 -1.22,-0.7 V 204.06 A 2.72,2.72 0 0 1 92.62,202 Z"
             id="path429" />
        </g>
        <g
           id="g445">
          <path
             d="M 132.4,183.58 96,204.6 a 3,3 0 0 0 -1.35,2.33 V 240.7 A 3,3 0 0 0 96,243 l 2.56,1.45 a 3,3 0 0 0 2.7,0 l 36.43,-21 a 3,3 0 0 0 1.35,-2.33 v -33.78 a 2.94,2.94 0 0 0 -1.36,-2.32 l -2.56,-1.45 a 3,3 0 0 0 -2.72,0.01 z"
             style="fill:#846a23"
             id="path433" />
          <path
             d="m 101.24,244.46 a 3.08,3.08 0 0 1 -2.7,0 L 96,243 a 2.9,2.9 0 0 1 -1.36,-2.31 v -33.76 a 2.82,2.82 0 0 1 0.43,-1.38 l 5.24,3 a 2.7,2.7 0 0 0 -0.4,1.33 v 33.77 c -0.02,0.81 0.53,1.27 1.33,0.81 z"
             style="opacity:0.2"
             id="path435" />
          <g
             style="opacity:0.2"
             id="g439">
            <path
               d="m 139,187.09 c -0.11,-0.67 -0.66,-0.92 -1.33,-0.53 l -36.43,21 a 2.77,2.77 0 0 0 -0.95,1 l -5.25,-3 a 2.73,2.73 0 0 1 0.93,-1 l 36.44,-21 a 3,3 0 0 1 2.69,0 l 2.56,1.45 a 3,3 0 0 1 1.34,2.08 z"
               style="fill:#ffffff"
               id="path437" />
          </g>
          <path
             d="m 137.67,186.56 -36.43,21 a 3,3 0 0 0 -1.35,2.33 v 33.77 c 0,0.86 0.6,1.21 1.35,0.78 l 36.43,-21 a 3,3 0 0 0 1.35,-2.33 v -33.77 c -0.02,-0.86 -0.61,-1.21 -1.35,-0.78 z"
             style="fill:#fafafa"
             id="path441" />
          <path
             d="m 137.94,187.65 v 33.46 a 1.94,1.94 0 0 1 -0.81,1.4 L 101,243.37 v -33.46 a 2,2 0 0 1 0.8,-1.4 l 36.17,-20.86 m 0.33,-1.27 a 1.27,1.27 0 0 0 -0.6,0.18 l -36.43,21 a 3,3 0 0 0 -1.35,2.33 v 33.77 c 0,0.61 0.3,1 0.74,1 a 1.28,1.28 0 0 0 0.61,-0.18 l 36.43,-21 a 3,3 0 0 0 1.35,-2.33 v -33.81 c 0,-0.61 -0.31,-1 -0.75,-1 z"
             style="fill:#846a23"
             id="path443" />
        </g>
        <g
           id="freepik--bar-graph--inject-22">
          <polygon
             points="126.97,221.58 129.06,222.79 129.05,199.38 126.97,198.17 "
             style="fill:#846a23"
             id="polygon447" />
          <polygon
             points="126.97,221.58 129.06,222.79 129.05,199.38 126.97,198.17 "
             style="opacity:0.2"
             id="polygon449" />
          <polygon
             points="129.05,199.38 129.06,222.79 135.12,219.29 135.12,195.88 "
             style="fill:#846a23"
             id="polygon451" />
          <polygon
             points="129.05,199.38 135.12,195.88 133.03,194.67 126.97,198.17 "
             style="fill:#846a23"
             id="polygon453" />
          <polygon
             points="129.05,199.38 135.12,195.88 133.03,194.67 126.97,198.17 "
             style="opacity:0.25;fill:#ffffff"
             id="polygon455" />
          <path
             d="m 135.12,195.88 -6.07,3.41 -2.05,-1.12 2,1.34 c -0.05,0.68 0,22.58 0.08,23.28 0.1,-0.7 0.13,-22.64 0.09,-23.3 z"
             style="opacity:0.3;fill:#ffffff"
             id="path457" />
          <polygon
             points="115.6,228.14 117.69,229.35 117.69,210.55 115.6,209.34 "
             style="fill:#846a23"
             id="polygon459" />
          <polygon
             points="115.6,228.14 117.69,229.35 117.69,210.55 115.6,209.34 "
             style="opacity:0.1;fill:#ffffff"
             id="polygon461" />
          <polygon
             points="117.69,210.55 117.69,229.35 123.75,225.85 123.75,207.05 "
             style="fill:#846a23"
             id="polygon463" />
          <polygon
             points="117.69,210.55 117.69,229.35 123.75,225.85 123.75,207.05 "
             style="opacity:0.3;fill:#ffffff"
             id="polygon465" />
          <polygon
             points="117.69,210.55 123.75,207.05 121.66,205.84 115.6,209.34 "
             style="fill:#846a23"
             id="polygon467" />
          <polygon
             points="117.69,210.55 123.75,207.05 121.66,205.84 115.6,209.34 "
             style="opacity:0.55;fill:#ffffff"
             id="polygon469" />
          <path
             d="m 117.77,210.59 6,-3.54 -6.06,3.41 c -0.66,-0.38 -2.09,-1.12 -2.09,-1.12 0,0 1.33,0.85 2,1.25 0,0.71 0,18 0.08,18.76 0.03,-0.72 0.09,-18.07 0.07,-18.76 z"
             style="opacity:0.3;fill:#ffffff"
             id="path471" />
          <polygon
             points="104.23,234.71 106.32,235.91 106.32,220.13 104.23,218.92 "
             style="fill:#846a23"
             id="polygon473" />
          <polygon
             points="104.23,234.71 106.32,235.91 106.32,220.13 104.23,218.92 "
             style="opacity:0.45"
             id="polygon475" />
          <polygon
             points="106.32,220.13 106.32,235.91 112.38,232.41 112.38,216.63 "
             style="fill:#846a23"
             id="polygon477" />
          <polygon
             points="106.32,220.13 106.32,235.91 112.38,232.41 112.38,216.63 "
             style="opacity:0.3"
             id="polygon479" />
          <polygon
             points="106.32,220.13 112.38,216.63 110.3,215.42 104.23,218.92 "
             style="fill:#846a23"
             id="polygon481" />
          <polygon
             points="106.32,220.13 112.38,216.63 110.3,215.42 104.23,218.92 "
             style="opacity:0.15"
             id="polygon483" />
          <path
             d="m 112.38,216.63 -6.06,3.37 -2.09,-1.12 2,1.31 c 0,0 0,15.25 0.08,15.68 0.09,-0.43 0.09,-15.67 0.09,-15.67 z"
             style="opacity:0.3;fill:#ffffff"
             id="path485" />
        </g>
      </g>
    </g>
  </g>
  <g
     id="g3527"
     transform="translate(-2.607196,20.364508)">
    <g
       id="g502"
       transform="translate(-104.66472,268.22342)">
      <g
         id="g500">
        <g
           id="g496">
          <path
             d="m 432.38,65.44 a 25.33,25.33 0 0 1 -6.81,17.32 l -2.09,2 A 25.31,25.31 0 0 1 387.72,49.17 l 2,-2.1 a 25.31,25.31 0 0 1 42.67,18.38 z"
             style="fill:#ffffff"
             id="path490" />
          <path
             d="m 407,38 a 27.48,27.48 0 0 0 -4.45,54.58 l 3.1,8 a 1.59,1.59 0 0 0 3,0 l 3.07,-8 A 27.47,27.47 0 0 0 407,38 Z m 25.39,27.42 a 25.33,25.33 0 0 1 -6.81,17.32 l -2.09,2 A 25.31,25.31 0 0 1 387.73,49.15 l 2,-2.1 a 25.31,25.31 0 0 1 42.67,18.38 z"
             style="fill:#e0e0e0"
             id="path492" />
          <path
             d="m 432.38,65.44 a 25.33,25.33 0 0 1 -6.81,17.32 l -2.09,2 A 25.31,25.31 0 0 1 387.72,49.17 l 2,-2.1 a 25.31,25.31 0 0 1 42.67,18.38 z"
             style="opacity:0.7;fill:#ffffff"
             id="path494" />
        </g>
        <path
           d="m 422,76.09 a 0.47,0.47 0 0 0 0,-0.53 l -2.09,-2.65 a 2.12,2.12 0 0 1 -0.26,-2.15 c 0,0 0,0 0,0 v 0 a 2.13,2.13 0 0 1 1.7,-1.33 L 424.7,69 a 0.45,0.45 0 0 0 0.39,-0.36 17.42,17.42 0 0 0 0.27,-3.12 18.53,18.53 0 0 0 -0.26,-3.13 0.46,0.46 0 0 0 -0.38,-0.36 l -3.35,-0.39 a 2.1,2.1 0 0 1 -1.69,-1.31 v -0.07 a 2.09,2.09 0 0 1 0.27,-2.13 l 2.1,-2.64 a 0.44,0.44 0 0 0 0,-0.53 17.4,17.4 0 0 0 -4.4,-4.41 0.45,0.45 0 0 0 -0.52,0 l -2.64,2.09 a 2.16,2.16 0 0 1 -2.16,0.27 v 0 A 2.14,2.14 0 0 1 411,51.2 l -0.37,-3.36 a 0.45,0.45 0 0 0 -0.36,-0.38 18.22,18.22 0 0 0 -6.25,0 0.47,0.47 0 0 0 -0.36,0.39 l -0.39,3.35 a 2.11,2.11 0 0 1 -1.33,1.7 v 0 a 2.14,2.14 0 0 1 -2.15,-0.27 l -2.63,-2.1 a 0.47,0.47 0 0 0 -0.53,0 17.81,17.81 0 0 0 -4.42,4.41 0.44,0.44 0 0 0 0,0.52 l 2.09,2.65 a 2.12,2.12 0 0 1 0.26,2.14 0.14,0.14 0 0 0 0,0.06 2.12,2.12 0 0 1 -1.7,1.31 L 389.49,62 a 0.43,0.43 0 0 0 -0.37,0.36 18,18 0 0 0 0,6.22 0.41,0.41 0 0 0 0.38,0.36 l 3.36,0.4 a 2.16,2.16 0 0 1 1.7,1.34 c 0,0 0,0 0,0 a 2.07,2.07 0 0 1 -0.26,2.14 l -2.1,2.65 a 0.44,0.44 0 0 0 0,0.52 17.48,17.48 0 0 0 4.41,4.42 0.44,0.44 0 0 0 0.52,0 l 2.64,-2.09 a 2.11,2.11 0 0 1 2.16,-0.25 v 0 a 2.12,2.12 0 0 1 1.32,1.7 l 0.37,3.35 a 0.44,0.44 0 0 0 0.36,0.39 17.58,17.58 0 0 0 3.12,0.28 18.89,18.89 0 0 0 3.13,-0.26 0.48,0.48 0 0 0 0.36,-0.39 l 0.39,-3.35 a 2.12,2.12 0 0 1 1.32,-1.7 h 0.05 a 2.12,2.12 0 0 1 2.15,0.26 l 2.5,2.12 a 0.44,0.44 0 0 0 0.52,0 18.11,18.11 0 0 0 4.48,-4.38 z m -15,-1.34 a 9.26,9.26 0 1 1 9.26,-9.23 9.25,9.25 0 0 1 -9.26,9.23 z"
           style="fill:#846a23"
           id="path498" />
      </g>
    </g>
  </g>
</svg>
