<?xml version="1.0" encoding="UTF-8" standalone="no"?>
<svg
   viewBox="0 0 500 500"
   version="1.1"
   id="svg504"
   sodipodi:docname="105.svg"
   inkscape:version="1.1.2 (0a00cf5339, 2022-02-04)"
   xmlns:inkscape="http://www.inkscape.org/namespaces/inkscape"
   xmlns:sodipodi="http://sodipodi.sourceforge.net/DTD/sodipodi-0.dtd"
   xmlns="http://www.w3.org/2000/svg"
   xmlns:svg="http://www.w3.org/2000/svg">
  <defs
     id="defs508" />
  <sodipodi:namedview
     id="namedview506"
     pagecolor="#ffffff"
     bordercolor="#666666"
     borderopacity="1.0"
     inkscape:pageshadow="2"
     inkscape:pageopacity="0.0"
     inkscape:pagecheckerboard="0"
     showgrid="false"
     inkscape:zoom="1.132"
     inkscape:cx="249.5583"
     inkscape:cy="250.4417"
     inkscape:window-width="1478"
     inkscape:window-height="800"
     inkscape:window-x="0"
     inkscape:window-y="0"
     inkscape:window-maximized="1"
     inkscape:current-layer="svg504" />
  <g
     id="freepik--device--inject-22">
    <g
       id="freepik--Monitor--inject-22">
      <path
         d="m 229.86,375 -32.48,-18.76 c -6.66,-3.85 -17.89,-4.73 -25.08,-2 l -19.3,7.45 a 111.11,111.11 0 0 0 -24,13.63 l -19.62,15.45 c -2.82,2.22 -4.21,4.92 -4.21,7.56 0,0.74 0,3.72 0,4.48 0,3 1.81,5.88 5.33,7.91 l 32.5,18.75 c 6.67,3.85 17.48,3.85 24.14,0 l 62.68,-36.18 c 3.35,-1.94 5,-4.47 5,-7 V 382 c 0.04,-2.57 -1.62,-5.09 -4.96,-7 z"
         style="fill:#e6e6e6"
         id="path2" />
      <path
         d="m 105.23,402.81 c 0,3 1.81,5.88 5.33,7.91 L 143,429.47 a 24.6,24.6 0 0 0 12.07,2.89 v -4.63 l -49.89,-28.81 c 0.04,1.15 0.04,3.27 0.05,3.89 z"
         style="fill:#e0e0e0"
         id="path4" />
      <path
         d="m 105.23,402.81 c 0,3 1.81,5.88 5.33,7.91 L 143,429.47 a 24.6,24.6 0 0 0 12.07,2.89 v -4.63 l -49.89,-28.81 c 0.04,1.15 0.04,3.27 0.05,3.89 z"
         style="opacity:0.1"
         id="path6" />
      <path
         d="m 172.3,354.27 -19.3,7.42 a 111.11,111.11 0 0 0 -24,13.63 l -19.62,15.45 c -6,4.76 -5.55,11.74 1.12,15.59 l 32.5,18.76 c 6.67,3.84 17.48,3.84 24.14,0 l 62.68,-36.19 c 6.67,-3.85 6.67,-10.09 0,-13.94 l -32.48,-18.76 c -6.62,-3.85 -17.85,-4.73 -25.04,-1.96 z"
         style="fill:#f0f0f0"
         id="path8" />
      <path
         d="m 197.38,356.23 c -6.66,-3.85 -17.89,-4.73 -25.08,-2 l -19.3,7.46 a 111.11,111.11 0 0 0 -24,13.63 l -19.62,15.45 c -2.82,2.22 -4.21,4.92 -4.21,7.56 0,0.74 0,3.72 0,4.48 0,3 1.81,5.88 5.33,7.91 l 18.09,10.45 v -4.34 l 86.85,-50.14 z"
         style="opacity:0.1"
         id="path10" />
      <path
         d="m 167,376 c 0,-9.58 3,-39.74 9.29,-46.79 l -20.11,-2.23 c -9.89,10.46 -21.73,35.43 -28.9,49.82 0,0 5.9,2.4 13.19,5.41 7.29,3.01 17.41,3 22.62,0 a 7,7 0 0 0 3.9,-6.21 z"
         style="fill:#e0e0e0"
         id="path12" />
      <path
         d="m 167,376 c 0,-9.58 3,-39.74 9.29,-46.79 l -20.11,-2.23 c -9.89,10.46 -21.73,35.43 -28.9,49.82 0,0 5.9,2.4 13.19,5.41 7.29,3.01 17.41,3 22.62,0 a 7,7 0 0 0 3.9,-6.21 z"
         style="opacity:0.1"
         id="path14" />
      <path
         d="m 163.19,329.85 c 3.91,1.61 9.33,1.61 12.13,0 2.8,-1.61 2.79,-4.75 0,-7 l -5.06,-4.09 a 57.93,57.93 0 0 0 -14.13,8.19 c 0,0 3.16,1.28 7.06,2.9 z"
         style="fill:#e0e0e0"
         id="path16" />
      <path
         d="m 53.21,405.14 a 11.47,11.47 0 0 0 10.36,-0.2 L 307,264.38 a 11.84,11.84 0 0 0 5.35,-9.26 V 30.17 a 11.47,11.47 0 0 0 -5,-9.06 A 11.44,11.44 0 0 0 297,21.3 L 53.55,161.86 a 11.84,11.84 0 0 0 -5.35,9.26 v 225 a 11.46,11.46 0 0 0 5.01,9.02 z"
         style="fill:#455a64"
         id="path18" />
      <path
         d="M 63.58,404.94 307,264.37 a 11.82,11.82 0 0 0 5.35,-9.26 V 30.17 c 0,-3.41 -2.4,-4.79 -5.35,-3.09 L 63.58,167.65 a 11.82,11.82 0 0 0 -5.35,9.26 v 224.94 c 0,3.41 2.39,4.79 5.35,3.09 z"
         style="fill:#37474f"
         id="path20" />
      <path
         d="m 58.23,383.66 v 18.19 c 0,3.41 2.39,4.79 5.35,3.09 L 307,264.37 a 11.82,11.82 0 0 0 5.35,-9.26 v -18.19 z"
         style="fill:#ebebeb"
         id="path22" />
      <path
         d="M 65.29,366.74 V 179.29 a 7.25,7.25 0 0 1 3.28,-5.69 L 302,38.81 c 1.81,-1 3.28,-0.19 3.28,1.9 v 187.46 a 7.28,7.28 0 0 1 -3.28,5.7 L 68.58,368.64 c -1.81,1.05 -3.29,0.2 -3.29,-1.9 z"
         style="fill:#ffffff"
         id="path24" />
      <path
         d="m 49.78,165.84 10,5.78 a 11.45,11.45 0 0 0 -1.58,5.28 v 225 c 0,3.11 2.1,4.85 5.34,3.09 a 11.36,11.36 0 0 1 -10.36,0.2 10.32,10.32 0 0 1 -5,-8.43 V 171.12 a 11,11 0 0 1 1.6,-5.28 z"
         style="fill:#263238"
         id="path26" />
    </g>
  </g>
  <g
     id="freepik--Window--inject-22">
    <g
       id="g56">
      <g
         id="freepik--window--inject-22">
        <path
           d="M318.28,50.19a1.51,1.51,0,0,0-.06-.37.08.08,0,0,0,0-.08,1.2,1.2,0,0,0-.09-.35,1.87,1.87,0,0,0-.23-.52.85.85,0,0,0-.14-.21.49.49,0,0,0-.11-.14,1.34,1.34,0,0,0-.27-.26l0,0A3,3,0,0,0,317,48a2.91,2.91,0,0,0-2.69.35L83.6,181.23c-2.21,1.27-4,4.38-4,8.84V378.86A2.73,2.73,0,0,0,81,381.27l.17.11.21.12a1.7,1.7,0,0,0,.34.12,2.22,2.22,0,0,0,.51.06,2.63,2.63,0,0,0,1.33-.38l.1-.06h0l3.82-2.2L314.31,248.38a8.85,8.85,0,0,0,4-6.93V50.69A3.84,3.84,0,0,0,318.28,50.19Z"
           style="fill:#fafafa"
           id="path31" />
        <path
           d="M316.08,49a1,1,0,0,1,.45.1l.07,0,0,0,.06.05.1.13h0v0l.08.13a.48.48,0,0,1,.08.16l0,0,.1.32v0l0,0,0,.06a.45.45,0,0,1,0,.11c0,.13,0,.27,0,.41V241.45a7.71,7.71,0,0,1-3.43,5.94L87,378l-3.71,2.15h0l-.1.06-.1.06a1.63,1.63,0,0,1-.7.23h-.06l-.26,0-.08,0h0l-.11-.06-.09-.06-.06,0,0,0,0,0a1.58,1.58,0,0,1-.85-1.4v-2h0V190.07c0-4.33,1.77-6.89,3.43-7.85L314.87,49.37a2.65,2.65,0,0,1,1.21-.39m0-1.14a3.58,3.58,0,0,0-1.77.54L83.6,181.23c-2.21,1.27-4,4.38-4,8.84V378h0v.87A2.73,2.73,0,0,0,81,381.27l.17.11.21.12a1.7,1.7,0,0,0,.34.12,2.22,2.22,0,0,0,.51.06h.06a2.63,2.63,0,0,0,1.27-.38l.1-.06h0l3.82-2.2L314.31,248.38a8.85,8.85,0,0,0,4-6.93V50.69a3.84,3.84,0,0,0,0-.5,1.51,1.51,0,0,0-.06-.37.08.08,0,0,0,0-.08,1.2,1.2,0,0,0-.09-.35,1.87,1.87,0,0,0-.23-.52.85.85,0,0,0-.14-.21.49.49,0,0,0-.11-.14,1.34,1.34,0,0,0-.27-.26l0,0A3,3,0,0,0,317,48a2.17,2.17,0,0,0-.92-.19Z"
           style="fill:#846A23"
           id="path33" />
        <path
           d="M317,48a2.91,2.91,0,0,0-2.69.35L83.6,181.23a8.84,8.84,0,0,0-4,6.93v7.75l-5.11-3v-7.66a8.85,8.85,0,0,1,4-6.92L309.2,45.49a2.8,2.8,0,0,1,2.9-.24C312.82,45.69,316.14,47.59,317,48Z"
           style="fill:#846A23"
           id="path35" />
        <path
           d="M318.3,50.66c0-2.53-1.8-3.55-4-2.28L83.6,181.24a8.82,8.82,0,0,0-4,6.92v7.76L318.3,58.46Z"
           style="fill:#846A23"
           id="path37" />
        <g
           style="opacity:0.2"
           id="g41">
          <path
             d="M314.3,48.38,83.6,181.23a8.41,8.41,0,0,0-2.82,3l-5.08-2.94a8,8,0,0,1,2.79-2.92L309.2,45.49a2.8,2.8,0,0,1,2.9-.24c.72.44,4,2.32,4.88,2.78A2.9,2.9,0,0,0,314.3,48.38Z"
             style="fill:#fff"
             id="path39" />
        </g>
        <path
           d="M74.49,192.94v-7.68a8.24,8.24,0,0,1,1.21-4l5.1,2.93a8,8,0,0,0-1.2,4v7.76Z"
           style="opacity:0.15"
           id="path43" />
        <path
           d="M300.94,60a4.05,4.05,0,0,0-1.7,3.24c0,1.25.76,1.82,1.7,1.28a4.05,4.05,0,0,0,1.7-3.24C302.64,60.07,301.88,59.5,300.94,60Z"
           style="fill:#fafafa"
           id="path45" />
        <path
           d="M307.05,56.5a4.09,4.09,0,0,0-1.7,3.25c0,1.25.76,1.82,1.7,1.28a4.05,4.05,0,0,0,1.7-3.24C308.75,56.54,308,56,307.05,56.5Z"
           style="fill:#fafafa"
           id="path47" />
        <path
           d="M313.16,53a4.05,4.05,0,0,0-1.7,3.24c0,1.25.76,1.83,1.7,1.29a4.07,4.07,0,0,0,1.7-3.25C314.86,53,314.1,52.43,313.16,53Z"
           style="fill:#fafafa"
           id="path49" />
        <path
           d="M81,381.28l-.2-.11-4.22-2.44a4.26,4.26,0,0,1-2.09-3.1,5.83,5.83,0,0,1,0-.59V192.92l5.11,3V378.86a2.62,2.62,0,0,0,1.24,2.27,1,1,0,0,0,.13.09s0,0,0,0Z"
           style="fill:#846A23"
           id="path51" />
        <path
           d="M81,381.28l-.2-.11-4.22-2.44a4.26,4.26,0,0,1-2.09-3.1,5.83,5.83,0,0,1,0-.59V192.92l5.11,3V378.86a2.62,2.62,0,0,0,1.24,2.27,1,1,0,0,0,.13.09s0,0,0,0Z"
           style="fill:#fff;opacity:0.5"
           id="path53" />
      </g>
    </g>
  </g>
  <g
     id="freepik--Color--inject-22">
    <g
       id="freepik--color--inject-22">
      <g
         style="opacity:0.2"
         id="g61">
        <path
           d="M234.4,285l104.4-60.28c.67-.38,1.22-.07,1.22.71V257.9A2.72,2.72,0,0,1,338.8,260L234.4,320.29c-.67.39-1.22.08-1.22-.7V287.11A2.72,2.72,0,0,1,234.4,285Z"
           id="path59" />
      </g>
      <path
         d="M263.14,296.53c0,4.41-2.68,9.52-6,11.43s-6-.12-6-4.52,2.68-9.53,6-11.43S263.14,292.12,263.14,296.53Z"
         style="fill:#846A23"
         id="path63" />
      <path
         d="M263.14,296.53c0,4.41-2.68,9.52-6,11.43s-6-.12-6-4.52,2.68-9.53,6-11.43S263.14,292.12,263.14,296.53Z"
         style="fill:#fff;opacity:0.7000000000000001"
         id="path65" />
      <path
         d="M282,285.65c0,4.4-2.68,9.52-6,11.43s-6-.12-6-4.52,2.68-9.53,6-11.44S282,281.24,282,285.65Z"
         style="fill:#846A23"
         id="path67" />
      <path
         d="M282,285.65c0,4.4-2.68,9.52-6,11.43s-6-.12-6-4.52,2.68-9.53,6-11.44S282,281.24,282,285.65Z"
         style="fill:#fff;opacity:0.45"
         id="path69" />
      <ellipse
         cx="294.85"
         cy="278.22"
         rx="9.19"
         ry="5.2"
         transform="translate(-76.61 440.59) rotate(-66.95)"
         style="fill:#846A23"
         id="ellipse71" />
      <ellipse
         cx="294.85"
         cy="278.22"
         rx="9.19"
         ry="5.2"
         transform="translate(-76.61 440.59) rotate(-66.95)"
         style="fill:#fff;opacity:0.25"
         id="ellipse73" />
      <path
         d="M319.68,263.88c0,4.41-2.68,9.53-6,11.44s-6-.12-6-4.53,2.68-9.52,6-11.43S319.68,259.48,319.68,263.88Z"
         style="fill:#846A23"
         id="path75" />
      <path
         d="M338.53,253c0,4.41-2.68,9.53-6,11.44s-6-.12-6-4.53,2.68-9.52,6-11.43S338.53,248.6,338.53,253Z"
         style="fill:#846A23"
         id="path77" />
      <path
         d="M338.53,253c0,4.41-2.68,9.53-6,11.44s-6-.12-6-4.53,2.68-9.52,6-11.43S338.53,248.6,338.53,253Z"
         style="opacity:0.2"
         id="path79" />
    </g>
  </g>
  <g
     id="freepik--Fonts--inject-22">
    <g
       id="freepik--fonts--inject-22">
      <g
         style="opacity:0.2"
         id="g85">
        <path
           d="M234.4,229.51l104.4-60.28c.67-.39,1.22-.07,1.22.71v32.48a2.68,2.68,0,0,1-1.22,2.11L234.4,264.81c-.67.39-1.22.08-1.22-.7V231.62A2.72,2.72,0,0,1,234.4,229.51Z"
           id="path83" />
      </g>
      <g
         id="freepik--speech-bubble--inject-22">
        <path
           d="M242.28,236.13a3.36,3.36,0,0,1,.16-.33h0A3.41,3.41,0,0,0,242.28,236.13Z"
           style="fill:#ebebeb"
           id="path87" />
        <path
           d="M347.59,175.76a.71.71,0,0,0-.69-.56,1.23,1.23,0,0,0-.62.19L243.41,234.78a2.81,2.81,0,0,0-1,1l-5-2.89a3,3,0,0,1,.93-1l102.87-59.38a3.06,3.06,0,0,1,2.75,0l2.29,1.28A2.94,2.94,0,0,1,347.59,175.76Z"
           style="fill:#846A23"
           id="path89" />
        <g
           style="opacity:0.2"
           id="g93">
          <path
             d="M347.59,175.76a.71.71,0,0,0-.69-.56,1.23,1.23,0,0,0-.62.19L243.41,234.78a2.81,2.81,0,0,0-1,1l-5-2.89a3,3,0,0,1,.93-1l102.87-59.38a3.06,3.06,0,0,1,2.75,0l2.29,1.28A2.94,2.94,0,0,1,347.59,175.76Z"
             style="fill:#fff"
             id="path91" />
        </g>
        <path
           d="M243.41,270a3.14,3.14,0,0,1-2.74,0l-2.3-1.36a3,3,0,0,1-1.38-2.35v-32a2.87,2.87,0,0,1,.44-1.4l5,2.89a2.77,2.77,0,0,0-.4,1.35v32.07C242.05,270,242.61,270.48,243.41,270Z"
           style="fill:#846A23"
           id="path95" />
        <g
           style="opacity:0.2"
           id="g99">
          <path
             d="M243.41,270a3.14,3.14,0,0,1-2.74,0l-2.3-1.36a3,3,0,0,1-1.38-2.35v-32a2.87,2.87,0,0,1,.44-1.4l5,2.89a2.77,2.77,0,0,0-.4,1.35v32.07C242.05,270,242.61,270.48,243.41,270Z"
             id="path97" />
        </g>
        <path
           d="M346.89,175.2a1.22,1.22,0,0,0-.61.19L243.41,234.78a3,3,0,0,0-1.36,2.37v32.07c0,.62.3,1,.75,1a1.2,1.2,0,0,0,.61-.19l102.87-59.39a3,3,0,0,0,1.37-2.37V176.18c0-.62-.31-1-.76-1Z"
           style="fill:#fafafa"
           id="path101" />
        <path
           d="M346.57,176.46v31.79a2,2,0,0,1-.83,1.44L243.12,268.94V237.15a2,2,0,0,1,.83-1.44l102.62-59.25m.32-1.26a1.22,1.22,0,0,0-.61.19L243.41,234.78a3,3,0,0,0-1.36,2.37v32.07c0,.62.3,1,.75,1a1.2,1.2,0,0,0,.61-.19l102.87-59.39a3,3,0,0,0,1.37-2.37V176.18c0-.62-.31-1-.76-1Z"
           style="fill:#846A23"
           id="path103" />
        <path
           d="M346.89,175.81c.14,0,.15.31.15.37v32.07a2.42,2.42,0,0,1-1.06,1.84L243.11,269.48a.63.63,0,0,1-.31.11c-.14,0-.14-.31-.14-.37V237.15a2.41,2.41,0,0,1,1.06-1.84l102.87-59.39a.61.61,0,0,1,.3-.11m0-.61a1.22,1.22,0,0,0-.61.19L243.41,234.78a3,3,0,0,0-1.36,2.37v32.07c0,.62.3,1,.75,1a1.2,1.2,0,0,0,.61-.19l102.87-59.39a3,3,0,0,0,1.37-2.37V176.18c0-.62-.31-1-.76-1Z"
           style="fill:#846A23"
           id="path105" />
      </g>
      <path
         d="M285.19,236.8l1.45-1.17L290.32,217l1.45-.84,3.68,14.52,1.2-.48v1.25l-5.09,3v-1.25l1.55-1.2-.85-3.53-3.84,2.22-.85,4.43,1.53-.54v1.28l-3.91,2.26Zm3.54-7.75,3.23-1.87-1.6-6.59Z"
         style="fill:#455a64"
         id="path108" />
      <path
         d="M302.32,226.47c-.87,1.88-1.43,2.92-2.56,3.57-1.32.76-2.35.16-2.35-2.07,0-1.74.62-3.4,3.16-6.11.46-.51,1.08-1.14,1.7-1.74v-.76c0-2.53-.41-3-1.56-2.34a5.21,5.21,0,0,0-.72.53l-.21,1.62a3.1,3.1,0,0,1-1.11,2.54c-.55.31-.9.08-1-.65a7.5,7.5,0,0,1,3.72-5.74c2.05-1.18,3-.31,3,3.22v5.92c0,.87.19,1.11.51.93a1.84,1.84,0,0,0,.62-1l.4.31a4.11,4.11,0,0,1-1.82,2.76C303.13,228,302.53,227.63,302.32,226.47Zm-1.59,1c.48-.28.78-.72,1.54-2v-4.31c-.5.53-1,1-1.26,1.37a5.58,5.58,0,0,0-1.53,3.63C299.48,227.62,300,227.9,300.73,227.5Z"
         style="fill:#455a64"
         id="path110" />
      <path
         d="M256,236.71c.18-.1.32-.1.41,0a1.2,1.2,0,0,1,.23.53l4.12,14a.44.44,0,0,1,0,.17,1.31,1.31,0,0,1-.13.57.86.86,0,0,1-.32.39l-1.21.7c-.23.13-.39.15-.47.06a.79.79,0,0,1-.19-.33l-.72-2.45-5.32,3.07-.72,3.29a2.45,2.45,0,0,1-.19.53,1.05,1.05,0,0,1-.47.49l-1.21.7a.24.24,0,0,1-.32,0,.55.55,0,0,1-.13-.41.65.65,0,0,1,0-.2L253.47,239a3.29,3.29,0,0,1,.23-.79,1.06,1.06,0,0,1,.4-.46Zm.93,10.84L255,241.24l-1.85,8.44Z"
         style="fill:#455a64"
         id="path112" />
      <path
         d="M262.11,241.14a7.93,7.93,0,0,1,.31-1.35,8.1,8.1,0,0,1,.69-1.56,8.39,8.39,0,0,1,1.09-1.53,6.37,6.37,0,0,1,1.51-1.22,3.65,3.65,0,0,1,1.55-.54,1.66,1.66,0,0,1,1.18.34,2.51,2.51,0,0,1,.77,1.25,7.51,7.51,0,0,1,.27,2.19v7.61a1.33,1.33,0,0,1-.14.57.81.81,0,0,1-.32.39l-1.28.74a.24.24,0,0,1-.32,0,.55.55,0,0,1-.13-.41v-.86a7.64,7.64,0,0,1-1,1.87,5.36,5.36,0,0,1-1.69,1.51,2.94,2.94,0,0,1-1.29.45,1.36,1.36,0,0,1-1-.29,2,2,0,0,1-.6-.94,4.68,4.68,0,0,1-.21-1.5,6.62,6.62,0,0,1,.83-3.27,9.18,9.18,0,0,1,2.2-2.64l2.74-2.31c0-.71-.15-1.12-.45-1.24a1.31,1.31,0,0,0-1.13.21,2.17,2.17,0,0,0-.66.56,5.66,5.66,0,0,0-.45.76,2.25,2.25,0,0,1-.28.44.92.92,0,0,1-.28.24l-1.56.9a.24.24,0,0,1-.29,0A.41.41,0,0,1,262.11,241.14Zm2.81,5.68a4.08,4.08,0,0,0,1-.84,5.37,5.37,0,0,0,.74-1.09,5.13,5.13,0,0,0,.46-1.19,4.85,4.85,0,0,0,.15-1.15v-.26L265,244.23a4.37,4.37,0,0,0-1,1.1,2.24,2.24,0,0,0-.3,1.12c0,.37.12.56.36.6A1.46,1.46,0,0,0,264.92,246.82Z"
         style="fill:#455a64"
         id="path114" />
      <path
         d="M331,209a5.19,5.19,0,0,1,.3,1.44,1.85,1.85,0,0,1-.75,1.45l-.1.06c-.55.31-.7-.35-.83-.95l-.49-2.13-.39-1.54c-.88.53-1.75,1.06-2.63,1.64l-1.65,1.17-.35.25c-.31,1.34-.64,2.71-.92,4.08-.21.85-.3,1.94-.93,2.3s-.84-.11-.84-.67a3.08,3.08,0,0,1,.15-.94l1-4.1a1.24,1.24,0,0,1-.17-.77,1.87,1.87,0,0,1,.75-1.64c.35-1.43.69-2.86,1.05-4.3.57-2.26,1.21-4.66,1.66-6.88l.15-.62a2.14,2.14,0,0,1,.72-1.45l.25-.17a.36.36,0,0,1,.44,0c.12.05.23.2.28.61.31,1.41.63,2.85,1,4.24.66,2.64,1.38,5.27,2.09,7.88Zm-2.74-3.73-.18-.65-1-3.76-.37-1.29-.12.51-1.37,5.48c-.17.7-.34,1.38-.5,2.07C326,206.91,327.13,206.09,328.29,205.3Z"
         style="fill:#455a64"
         id="path116" />
      <path
         d="M340.42,204.72a2.46,2.46,0,0,1-.85,1.89c-.35.2-.65-.21-.82-.64a8.3,8.3,0,0,1-2.71,2.87c-2,1.15-3.92,0-3.92-3.77a13.09,13.09,0,0,1,.8-4.33,9.52,9.52,0,0,1,3.7-5,3.34,3.34,0,0,1,2-.47,2.57,2.57,0,0,1,.43-1.12,1.69,1.69,0,0,1,.53-.5c.53-.31.61.52.61.83s0,.54-.06.74c-.11,1.15-.16,4.1-.16,4.85s.06,2.89.06,3.56S340.42,204.26,340.42,204.72Zm-2-1.53c0-.14.08-.29.13-.46v-4.4a1.91,1.91,0,0,0-.21-.14,1.51,1.51,0,0,0-1.86.06c-1.49.86-3,3.39-3,6.15,0,1.57.73,3.22,2.49,2.2A5.69,5.69,0,0,0,338.42,203.19Z"
         style="fill:#455a64"
         id="path118" />
      <path
         d="M277.3,245.49a.47.47,0,0,1-.47-.47V220.44a.47.47,0,1,1,.94,0V245A.47.47,0,0,1,277.3,245.49Z"
         style="fill:#455a64"
         id="path120" />
      <path
         d="M313.77,224.43a.47.47,0,0,1-.47-.47V199.38a.47.47,0,1,1,.94,0V224A.47.47,0,0,1,313.77,224.43Z"
         style="fill:#455a64"
         id="path122" />
    </g>
  </g>
  <g
     id="freepik--Controls--inject-22">
    <g
       id="g199">
      <g
         style="opacity:0.2"
         id="g128">
        <path
           d="M257.67,106.77,338,60.41c.68-.39,1.22-.07,1.22.7v85.67A2.69,2.69,0,0,1,338,148.9l-80.31,46.36c-.68.39-1.22.07-1.22-.71V108.88A2.69,2.69,0,0,1,257.67,106.77Z"
           id="path126" />
      </g>
      <path
         d="M346.93,65.4a1.57,1.57,0,0,0-1.43.2l-79.36,45.69A4.79,4.79,0,0,0,264,115v83.7a1.54,1.54,0,0,0,.59,1.37c-.37-.24-3.62-2.08-4-2.31a1.54,1.54,0,0,1-.62-1.39V112.7A4.78,4.78,0,0,1,262.1,109l79.35-45.7a1.51,1.51,0,0,1,1.54-.14C343.34,63.33,346.17,64.93,346.93,65.4Z"
         style="fill:#846A23"
         id="path130" />
      <g
         style="opacity:0.2"
         id="g134">
        <path
           d="M346.93,65.4c-.76-.47-3.59-2.07-3.94-2.28a1.51,1.51,0,0,0-1.54.14L262.1,109a4.54,4.54,0,0,0-1.52,1.61l4,2.33a4.54,4.54,0,0,1,1.52-1.61L345.5,65.6A1.57,1.57,0,0,1,346.93,65.4Z"
           style="fill:#fff"
           id="path132" />
      </g>
      <path
         d="M266.14,111.29,345.5,65.6c1.19-.69,2.15-.13,2.15,1.24v83.7a4.76,4.76,0,0,1-2.15,3.73L266.14,200c-1.19.68-2.15.13-2.15-1.25V115A4.77,4.77,0,0,1,266.14,111.29Z"
         style="fill:#fafafa"
         id="path136" />
      <path
         d="M346.46,65.3v1.08s.1.16.1.46v83.7a3.7,3.7,0,0,1-1.61,2.8L265.6,199a1.08,1.08,0,0,1-.44.16.8.8,0,0,1-.1-.47V115a3.68,3.68,0,0,1,1.62-2.8L346,66.53a1,1,0,0,1,.43-.15V65.3m0,0a1.94,1.94,0,0,0-1,.3l-79.36,45.69A4.77,4.77,0,0,0,264,115v83.69c0,1,.48,1.54,1.19,1.54a1.92,1.92,0,0,0,1-.29l79.36-45.7a4.76,4.76,0,0,0,2.15-3.73V66.84c0-1-.48-1.54-1.19-1.54Z"
         style="fill:#846A23"
         id="path138" />
      <path
         d="M264.62,112.9l-4-2.33a4.34,4.34,0,0,0-.64,2.13v83.69a1.54,1.54,0,0,0,.62,1.39c.4.23,3.65,2.07,4,2.31a1.54,1.54,0,0,1-.59-1.37V115A4.43,4.43,0,0,1,264.62,112.9Z"
         style="fill:#846A23"
         id="path140" />
      <path
         d="M264.62,112.9l-4-2.33a4.34,4.34,0,0,0-.64,2.13v83.69a1.54,1.54,0,0,0,.62,1.39c.4.23,3.65,2.07,4,2.31a1.54,1.54,0,0,1-.59-1.37V115A4.43,4.43,0,0,1,264.62,112.9Z"
         style="opacity:0.15"
         id="path142" />
      <path
         d="M346.46,66.3c.19,0,.2.49.2.54v83.7a3.79,3.79,0,0,1-1.66,2.87l-79.36,45.7a1,1,0,0,1-.46.16c-.19,0-.2-.49-.2-.55V115a3.79,3.79,0,0,1,1.66-2.87L346,66.46a1.07,1.07,0,0,1,.47-.16m0-1a1.94,1.94,0,0,0-1,.3l-79.36,45.69A4.77,4.77,0,0,0,264,115v83.69c0,1,.48,1.54,1.19,1.54a1.92,1.92,0,0,0,1-.29l79.36-45.7a4.76,4.76,0,0,0,2.15-3.73V66.84c0-1-.48-1.54-1.19-1.54Z"
         style="fill:#846A23"
         id="path144" />
      <g
         id="freepik--controls--inject-22">
        <path
           d="M306.07,165.86l.12-63.81c0-1.19-.78-1.71-1.75-1.15a4,4,0,0,0-1.76,3.17l-.12,63.82c0,1.19.78,1.71,1.75,1.15A4,4,0,0,0,306.07,165.86Z"
           style="fill:#e0e0e0"
           id="path146" />
        <path
           d="M306.05,148.25l0,17.61a4,4,0,0,1-1.76,3.18c-1,.56-1.75,0-1.75-1.15l0-17.61Z"
           style="fill:#455a64"
           id="path148" />
        <path
           d="M304.18,156.42a4.39,4.39,0,0,1-1.64.58v-6.72l3.51-2v6.59A7.86,7.86,0,0,1,304.18,156.42Z"
           style="fill:#37474f"
           id="path150" />
        <path
           d="M308.75,146.69c0-2.84-2-4-4.46-2.57a9.85,9.85,0,0,0-4.45,7.72c0,2.84,2,4,4.45,2.57A9.86,9.86,0,0,0,308.75,146.69Z"
           style="fill:#846A23"
           id="path152" />
        <path
           d="M308.75,146.69c0-2.84-2-4-4.46-2.57a9.85,9.85,0,0,0-4.45,7.72c0,2.84,2,4,4.45,2.57A9.86,9.86,0,0,0,308.75,146.69Z"
           style="fill:#fff;opacity:0.30000000000000004"
           id="path154" />
        <path
           d="M292.69,173.58l.13-63.81c0-1.19-.78-1.71-1.75-1.15a4,4,0,0,0-1.76,3.18l-.13,63.81c0,1.19.79,1.71,1.76,1.15A4,4,0,0,0,292.69,173.58Z"
           style="fill:#e0e0e0"
           id="path156" />
        <path
           d="M292.76,126.63l-.07,47a4,4,0,0,1-1.75,3.18c-1,.56-1.76,0-1.76-1.15l.07-47Z"
           style="fill:#455a64"
           id="path158" />
        <path
           d="M290.89,134.58a4.26,4.26,0,0,1-1.65.58v-6.5l3.51-2V133A8,8,0,0,1,290.89,134.58Z"
           style="fill:#37474f"
           id="path160" />
        <path
           d="M295.46,124.85c0-2.84-2-4-4.46-2.57a9.83,9.83,0,0,0-4.45,7.71c0,2.84,2,4,4.45,2.58A9.86,9.86,0,0,0,295.46,124.85Z"
           style="fill:#846A23"
           id="path162" />
        <path
           d="M295.46,124.85c0-2.84-2-4-4.46-2.57a9.83,9.83,0,0,0-4.45,7.71c0,2.84,2,4,4.45,2.58A9.86,9.86,0,0,0,295.46,124.85Z"
           style="fill:#fff;opacity:0.30000000000000004"
           id="path164" />
        <path
           d="M279.32,181.3l.13-63.81c0-1.19-.79-1.71-1.76-1.15a4,4,0,0,0-1.75,3.18l-.13,63.81c0,1.19.79,1.71,1.76,1.15A4,4,0,0,0,279.32,181.3Z"
           style="fill:#e0e0e0"
           id="path166" />
        <path
           d="M279.3,163.69l0,17.61a4,4,0,0,1-1.75,3.18c-1,.56-1.76,0-1.76-1.15l0-17.61Z"
           style="fill:#455a64"
           id="path168" />
        <path
           d="M277.44,171.86a4.39,4.39,0,0,1-1.64.58v-6.72l3.5-2v6.59A7.86,7.86,0,0,1,277.44,171.86Z"
           style="fill:#37474f"
           id="path170" />
        <path
           d="M282,162.13c0-2.84-2-4-4.45-2.57a9.85,9.85,0,0,0-4.45,7.72c0,2.84,2,4,4.45,2.57A9.85,9.85,0,0,0,282,162.13Z"
           style="fill:#846A23"
           id="path172" />
        <path
           d="M282,162.13c0-2.84-2-4-4.45-2.57a9.85,9.85,0,0,0-4.45,7.72c0,2.84,2,4,4.45,2.57A9.85,9.85,0,0,0,282,162.13Z"
           style="fill:#fff;opacity:0.30000000000000004"
           id="path174" />
      </g>
      <g
         id="g197">
        <path
           d="M332.82,150.42l.12-63.82c0-1.19-.78-1.7-1.75-1.14a4,4,0,0,0-1.76,3.17l-.12,63.81c0,1.2.78,1.71,1.75,1.15A4,4,0,0,0,332.82,150.42Z"
           style="fill:#e0e0e0"
           id="path177" />
        <path
           d="M332.8,132.81l0,17.61a4,4,0,0,1-1.76,3.17c-1,.56-1.75,0-1.75-1.15l0-17.61Z"
           style="fill:#455a64"
           id="path179" />
        <path
           d="M330.93,141a4.42,4.42,0,0,1-1.64.59v-6.73l3.51-2v6.59A7.59,7.59,0,0,1,330.93,141Z"
           style="fill:#37474f"
           id="path181" />
        <path
           d="M335.5,131.25c0-2.84-2-4-4.46-2.57a9.83,9.83,0,0,0-4.45,7.71c0,2.84,2,4,4.45,2.57A9.84,9.84,0,0,0,335.5,131.25Z"
           style="fill:#846A23"
           id="path183" />
        <path
           d="M335.5,131.25c0-2.84-2-4-4.46-2.57a9.83,9.83,0,0,0-4.45,7.71c0,2.84,2,4,4.45,2.57A9.84,9.84,0,0,0,335.5,131.25Z"
           style="fill:#fff;opacity:0.30000000000000004"
           id="path185" />
        <path
           d="M319.44,158.14l.13-63.82c0-1.19-.78-1.7-1.75-1.14a4,4,0,0,0-1.76,3.17l-.13,63.81c0,1.2.79,1.71,1.76,1.15A4,4,0,0,0,319.44,158.14Z"
           style="fill:#e0e0e0"
           id="path187" />
        <path
           d="M319.51,111.19l-.07,46.95a4,4,0,0,1-1.75,3.17c-1,.56-1.76.05-1.76-1.15l.07-46.95Z"
           style="fill:#455a64"
           id="path189" />
        <path
           d="M317.64,119.13a4.29,4.29,0,0,1-1.65.59v-6.51l3.51-2v6.39A7.67,7.67,0,0,1,317.64,119.13Z"
           style="fill:#37474f"
           id="path191" />
        <path
           d="M322.21,109.41c0-2.84-2-4-4.46-2.58a9.87,9.87,0,0,0-4.45,7.72c0,2.84,2,4,4.45,2.57A9.84,9.84,0,0,0,322.21,109.41Z"
           style="fill:#846A23"
           id="path193" />
        <path
           d="M322.21,109.41c0-2.84-2-4-4.46-2.58a9.87,9.87,0,0,0-4.45,7.72c0,2.84,2,4,4.45,2.57A9.84,9.84,0,0,0,322.21,109.41Z"
           style="fill:#fff;opacity:0.30000000000000004"
           id="path195" />
      </g>
    </g>
  </g>
  <g
     style="opacity:0.2"
     id="g204">
    <path
       d="m 147.26,170.4 94.56,-54.59 c 0.67,-0.39 1.22,-0.08 1.22,0.7 v 85.67 a 2.72,2.72 0 0 1 -1.22,2.12 l -94.56,54.59 c -0.67,0.39 -1.22,0.07 -1.22,-0.7 v -85.67 a 2.72,2.72 0 0 1 1.22,-2.12 z"
       id="path202" />
  </g>
  <path
     d="m 250.29,120.85 a 1.57,1.57 0 0 0 -1.43,0.2 l -92.7,53.53 a 4.75,4.75 0 0 0 -2.15,3.73 V 262 a 1.56,1.56 0 0 0 0.59,1.38 c -0.37,-0.24 -3.63,-2.08 -4,-2.32 a 1.53,1.53 0 0 1 -0.62,-1.38 V 176 a 4.75,4.75 0 0 1 2.16,-3.73 l 92.69,-53.54 a 1.54,1.54 0 0 1 1.54,-0.14 c 0.33,0.19 3.15,1.8 3.92,2.26 z"
     style="fill:#846a23"
     id="path206" />
  <g
     style="opacity:0.2"
     id="g210">
    <path
       d="m 250.29,120.85 c -0.77,-0.46 -3.59,-2.07 -3.94,-2.28 a 1.54,1.54 0 0 0 -1.54,0.14 l -92.69,53.54 a 4.37,4.37 0 0 0 -1.53,1.6 l 4,2.34 a 4.38,4.38 0 0 1 1.52,-1.61 l 92.7,-53.53 a 1.57,1.57 0 0 1 1.48,-0.2 z"
       style="fill:#ffffff"
       id="path208" />
  </g>
  <path
     d="m 156.16,174.58 92.69,-53.53 c 1.19,-0.69 2.16,-0.13 2.16,1.25 V 206 a 4.74,4.74 0 0 1 -2.16,3.73 l -92.69,53.53 c -1.19,0.69 -2.16,0.13 -2.16,-1.24 v -83.7 a 4.78,4.78 0 0 1 2.16,-3.74 z"
     style="fill:#846a23"
     id="path212" />
  <g
     style="opacity:0.5;fill:#ffccaa"
     id="g216">
    <path
       d="m 156.16,174.58 92.69,-53.53 c 1.19,-0.69 2.16,-0.13 2.16,1.25 V 206 a 4.74,4.74 0 0 1 -2.16,3.73 l -92.69,53.53 c -1.19,0.69 -2.16,0.13 -2.16,-1.24 v -83.7 a 4.78,4.78 0 0 1 2.16,-3.74 z"
       style="fill:#ffccaa"
       id="path214" />
  </g>
  <path
     d="m 154.64,176.19 -4,-2.34 A 4.43,4.43 0 0 0 150,176 v 83.7 a 1.53,1.53 0 0 0 0.62,1.38 c 0.39,0.24 3.65,2.08 4,2.32 A 1.56,1.56 0 0 1 154,262 v -83.69 a 4.36,4.36 0 0 1 0.64,-2.12 z"
     style="fill:#846a23"
     id="path218" />
  <path
     d="m 154.64,176.19 -4,-2.34 A 4.43,4.43 0 0 0 150,176 v 83.7 a 1.53,1.53 0 0 0 0.62,1.38 c 0.39,0.24 3.65,2.08 4,2.32 A 1.56,1.56 0 0 1 154,262 v -83.69 a 4.36,4.36 0 0 1 0.64,-2.12 z"
     style="opacity:0.15"
     id="path220" />
  <path
     d="m 214.68,202.34 7.33,10.3 L 188.9,182.5 154,241.62 V 262 c 0,1.37 1,1.93 2.16,1.24 l 92.69,-53.53 A 4.74,4.74 0 0 0 251,206 V 194.8 L 226.32,177 Z"
     style="opacity:0.95;fill:#f4d7d7"
     id="path222" />
  <path
     d="m 218.67,152.79 c 4.33,-2.5 7.83,-0.47 7.83,4.52 a 17.27,17.27 0 0 1 -7.83,13.55 c -4.32,2.5 -7.82,0.47 -7.82,-4.52 a 17.28,17.28 0 0 1 7.82,-13.55 z"
     style="opacity:0.95;fill:#fafafa"
     id="path224" />
  <path
     d="m 249.82,121.75 c 0.19,0 0.19,0.49 0.19,0.55 V 206 a 3.78,3.78 0 0 1 -1.65,2.87 l -92.7,53.53 a 1,1 0 0 1 -0.46,0.16 c -0.19,0 -0.2,-0.49 -0.2,-0.54 v -83.7 a 3.76,3.76 0 0 1 1.66,-2.87 l 92.69,-53.53 a 1,1 0 0 1 0.47,-0.16 m 0,-1 a 2,2 0 0 0 -1,0.29 l -92.69,53.53 a 4.78,4.78 0 0 0 -2.16,3.73 V 262 c 0,1 0.49,1.54 1.2,1.54 a 2,2 0 0 0 1,-0.3 l 92.69,-53.53 A 4.74,4.74 0 0 0 251,206 v -83.7 c 0,-1 -0.49,-1.54 -1.19,-1.54 z"
     style="fill:#846a23"
     id="path226" />
  <g
     id="freepik--Code--inject-22">
    <g
       id="g402">
      <g
         style="opacity:0.2"
         id="g232">
        <path
           d="M95.73,309.7l122.79-70.89c2.39-1.38,4.33-.26,4.33,2.5v80.91a9.58,9.58,0,0,1-4.33,7.5L95.73,400.61c-2.39,1.38-4.33.26-4.33-2.5V317.2A9.58,9.58,0,0,1,95.73,309.7Z"
           id="path230" />
      </g>
      <g
         id="g254">
        <path
           d="M226.83,248.26a1.51,1.51,0,0,0-.07-.38s0,0,0-.08a1.36,1.36,0,0,0-.09-.36,2.45,2.45,0,0,0-.24-.52.7.7,0,0,0-.14-.21c0-.05-.06-.11-.12-.15a1.6,1.6,0,0,0-.26-.26l0,0a2.43,2.43,0,0,0-.35-.2,3,3,0,0,0-2.73.35L103.87,314.87c-2.24,1.29-4.07,4.45-4.07,9v80.67c0-1.93,0-1.92,0-1.91v.89a2.74,2.74,0,0,0,1.46,2.44l.17.12.22.12a1.7,1.7,0,0,0,.34.12,2.37,2.37,0,0,0,.52.06,2.62,2.62,0,0,0,1.35-.38l.1-.07h0l3.87-2.23,114.94-66.22a9,9,0,0,0,4.07-7V248.76C226.86,248.59,226.84,248.42,226.83,248.26Z"
           style="fill:#455a64"
           id="path234" />
        <path
           d="M225.52,246.07a3,3,0,0,0-2.73.35L103.87,314.87a9,9,0,0,0-4.07,7v7.87l-5-2.94v-7.78a9,9,0,0,1,4-7l118.94-68.46a2.84,2.84,0,0,1,2.95-.24C221.45,243.78,224.66,245.62,225.52,246.07Z"
           style="fill:#846A23"
           id="path236" />
        <path
           d="M226.85,248.74c0-2.57-1.83-3.6-4.06-2.32L103.87,314.88a8.94,8.94,0,0,0-4.06,7v7.88l127-73.12Z"
           style="fill:#846A23"
           id="path238" />
        <g
           style="opacity:0.2"
           id="g242">
          <path
             d="M222.79,246.42,103.87,314.87a8.41,8.41,0,0,0-2.86,3L96,315a8.08,8.08,0,0,1,2.82-3l118.93-68.45a2.84,2.84,0,0,1,2.95-.24c.73.45,3.93,2.27,4.79,2.72A3,3,0,0,0,222.79,246.42Z"
             style="fill:#fff"
             id="path240" />
        </g>
        <path
           d="M94.78,326.85v-7.79A8.29,8.29,0,0,1,96,315l5,2.87a8.25,8.25,0,0,0-1.21,4v7.87Z"
           style="opacity:0.15"
           id="path244" />
        <path
           d="M210.85,257.07a4.07,4.07,0,0,0-1.54,3.27c0,1.31.69,2,1.54,1.48a4.06,4.06,0,0,0,1.54-3.26C212.39,257.24,211.7,256.58,210.85,257.07Z"
           style="fill:#fff"
           id="path246" />
        <path
           d="M216.4,253.86a4.06,4.06,0,0,0-1.54,3.26c0,1.32.69,2,1.54,1.49a4.08,4.08,0,0,0,1.54-3.27C217.94,254,217.25,253.37,216.4,253.86Z"
           style="fill:#fff"
           id="path248" />
        <path
           d="M222,250.65a4.06,4.06,0,0,0-1.54,3.26c0,1.31.69,2,1.54,1.49a4.06,4.06,0,0,0,1.55-3.27C223.5,250.82,222.81,250.16,222,250.65Z"
           style="fill:#fff"
           id="path250" />
        <path
           d="M101.26,406l-.21-.12-4.11-2.38a4.29,4.29,0,0,1-2.12-3.15,3.81,3.81,0,0,1,0-.59V326.84l5,2.94v73.7a2.67,2.67,0,0,0,1.27,2.31,1,1,0,0,0,.13.09s0,0,0,0Z"
           style="fill:#263238"
           id="path252" />
      </g>
      <g
         style="opacity:0.6000000000000001"
         id="g264">
        <path
           d="M107.49,367.56l5.26-3c.52-.3,1,0,1,.56V367a2.13,2.13,0,0,1-1,1.65l-5.25,3c-.53.31-1,.06-1-.55v-1.93A2.11,2.11,0,0,1,107.49,367.56Z"
           style="fill:#fff"
           id="path256" />
        <path
           d="M107.49,375.24l5.26-3c.52-.31,1-.06,1,.55v1.93a2.11,2.11,0,0,1-1,1.65l-5.25,3c-.53.3-1,.05-1-.55v-1.94A2.14,2.14,0,0,1,107.49,375.24Z"
           style="fill:#fff"
           id="path258" />
        <path
           d="M107.49,382.93l5.26-3c.52-.3,1-.05,1,.55v1.94a2.14,2.14,0,0,1-1,1.65l-5.25,3c-.53.31-1,.06-1-.55v-1.93A2.11,2.11,0,0,1,107.49,382.93Z"
           style="fill:#fff"
           id="path260" />
        <path
           d="M107.49,390.61l5.26-3c.52-.31,1-.06,1,.55v1.93a2.11,2.11,0,0,1-1,1.65l-5.25,3c-.53.3-1,.05-1-.56v-1.93A2.14,2.14,0,0,1,107.49,390.61Z"
           style="fill:#fff"
           id="path262" />
      </g>
      <g
         style="opacity:0.6000000000000001"
         id="g274">
        <path
           d="M107.49,333.29l5.26-3c.52-.31,1-.06,1,.55v1.93a2.11,2.11,0,0,1-1,1.65l-5.25,3c-.53.31-1,.06-1-.55v-1.93A2.11,2.11,0,0,1,107.49,333.29Z"
           style="fill:#fff"
           id="path266" />
        <path
           d="M107.49,341l5.26-3c.52-.3,1-.06,1,.55v1.93a2.14,2.14,0,0,1-1,1.66l-5.25,3c-.53.3-1,.06-1-.55v-1.93A2.14,2.14,0,0,1,107.49,341Z"
           style="fill:#fff"
           id="path268" />
        <path
           d="M107.49,348.66l5.26-3c.52-.31,1-.06,1,.55v1.93a2.11,2.11,0,0,1-1,1.65l-5.25,3c-.53.31-1,.06-1-.55v-1.93A2.11,2.11,0,0,1,107.49,348.66Z"
           style="fill:#fff"
           id="path270" />
        <path
           d="M107.49,356.34l5.26-3c.52-.3,1-.06,1,.55v1.93a2.14,2.14,0,0,1-1,1.66l-5.25,3c-.53.3-1,.06-1-.55V358A2.14,2.14,0,0,1,107.49,356.34Z"
           style="fill:#fff"
           id="path272" />
      </g>
      <path
         d="M121.1,326.91l29.38-17c.53-.31,1-.09,1,.49a2.09,2.09,0,0,1-1,1.6L121.1,329c-.54.31-1,.09-1-.49A2.07,2.07,0,0,1,121.1,326.91Z"
         style="fill:#846A23"
         id="path276" />
      <path
         d="M121.06,352.19l45.07-26.09c.54-.31,1-.09,1,.49a2.05,2.05,0,0,1-1,1.6l-45.07,26.09c-.53.31-1,.09-1-.48A2.07,2.07,0,0,1,121.06,352.19Z"
         style="fill:#846A23"
         id="path278" />
      <path
         d="M154.22,307.75l12.5-7.21c.53-.31,1-.09,1,.49a2.08,2.08,0,0,1-1,1.6l-12.5,7.21c-.53.31-1,.09-1-.49A2.07,2.07,0,0,1,154.22,307.75Z"
         style="fill:#846A23"
         id="path280" />
      <path
         d="M121.1,332.92l10.56-6.15c.53-.3,1-.09,1,.49a2.05,2.05,0,0,1-1,1.6L121.1,335c-.54.31-1,.09-1-.49A2.07,2.07,0,0,1,121.1,332.92Z"
         style="fill:#846A23"
         id="path282" />
      <path
         d="M121.1,332.92l10.56-6.15c.53-.3,1-.09,1,.49a2.05,2.05,0,0,1-1,1.6L121.1,335c-.54.31-1,.09-1-.49A2.07,2.07,0,0,1,121.1,332.92Z"
         style="fill:#fff;opacity:0.6000000000000001"
         id="path284" />
      <path
         d="M121.1,338.89l11.59-6.67c.53-.31,1-.09,1,.49a2.07,2.07,0,0,1-1,1.6L121.1,341c-.54.3-1,.08-1-.49A2.07,2.07,0,0,1,121.1,338.89Z"
         style="fill:#846A23"
         id="path286" />
      <path
         d="M121.1,338.89l11.59-6.67c.53-.31,1-.09,1,.49a2.07,2.07,0,0,1-1,1.6L121.1,341c-.54.3-1,.08-1-.49A2.07,2.07,0,0,1,121.1,338.89Z"
         style="fill:#fff;opacity:0.6000000000000001"
         id="path288" />
      <path
         d="M135.4,324.61l8.78-5.1c.53-.31,1-.09,1,.48a2.08,2.08,0,0,1-1,1.61l-8.78,5.1c-.53.31-1,.09-1-.48A2.1,2.1,0,0,1,135.4,324.61Z"
         style="fill:#846A23"
         id="path290" />
      <path
         d="M135.4,324.61l8.78-5.1c.53-.31,1-.09,1,.48a2.08,2.08,0,0,1-1,1.61l-8.78,5.1c-.53.31-1,.09-1-.48A2.1,2.1,0,0,1,135.4,324.61Z"
         style="fill:#fff;opacity:0.6000000000000001"
         id="path292" />
      <path
         d="M131.15,361.43l35.57-20.75c.54-.31,1-.09,1,.49a2,2,0,0,1-1,1.6l-35.57,20.75c-.53.31-1,.09-1-.49A2.09,2.09,0,0,1,131.15,361.43Z"
         style="fill:#ffa8a7"
         id="path294" />
      <path
         d="M131.15,355.46l35.57-20.78c.53-.31,1-.09,1,.49a2.08,2.08,0,0,1-1,1.6l-35.57,20.78c-.53.31-1,.09-1-.49A2.09,2.09,0,0,1,131.15,355.46Z"
         style="fill:#ffa8a7"
         id="path296" />
      <path
         d="M135.79,330.45l10.36-6.07c.53-.31,1-.09,1,.49a2.07,2.07,0,0,1-1,1.6l-10.36,6.07c-.53.31-1,.09-1-.49A2.09,2.09,0,0,1,135.79,330.45Z"
         style="fill:#846A23"
         id="path298" />
      <path
         d="M135.79,330.45l10.36-6.07c.53-.31,1-.09,1,.49a2.07,2.07,0,0,1-1,1.6l-10.36,6.07c-.53.31-1,.09-1-.49A2.09,2.09,0,0,1,135.79,330.45Z"
         style="fill:#fff;opacity:0.6000000000000001"
         id="path300" />
      <path
         d="M149.89,322.22,166.15,313c.54-.31,1-.09,1,.49a2.05,2.05,0,0,1-1,1.6l-16.26,9.18c-.53.31-1,.09-1-.49A2.07,2.07,0,0,1,149.89,322.22Z"
         style="fill:#846A23"
         id="path302" />
      <path
         d="M149.89,322.22,166.15,313c.54-.31,1-.09,1,.49a2.05,2.05,0,0,1-1,1.6l-16.26,9.18c-.53.31-1,.09-1-.49A2.07,2.07,0,0,1,149.89,322.22Z"
         style="fill:#fff;opacity:0.6000000000000001"
         id="path304" />
      <path
         d="M121.06,345.2l25.09-14.41c.53-.31,1-.09,1,.49a2.05,2.05,0,0,1-1,1.6l-25.09,14.41c-.53.31-1,.09-1-.48A2.07,2.07,0,0,1,121.06,345.2Z"
         style="fill:#846A23"
         id="path306" />
      <path
         d="M121.06,345.2l25.09-14.41c.53-.31,1-.09,1,.49a2.05,2.05,0,0,1-1,1.6l-25.09,14.41c-.53.31-1,.09-1-.48A2.07,2.07,0,0,1,121.06,345.2Z"
         style="fill:#fff;opacity:0.6000000000000001"
         id="path308" />
      <path
         d="M149.89,328.63l16.26-9.18c.54-.3,1-.09,1,.49a2.07,2.07,0,0,1-1,1.61l-16.26,9.17c-.53.31-1,.09-1-.49A2.08,2.08,0,0,1,149.89,328.63Z"
         style="fill:#846A23"
         id="path310" />
      <path
         d="M149.89,328.63l16.26-9.18c.54-.3,1-.09,1,.49a2.07,2.07,0,0,1-1,1.61l-16.26,9.17c-.53.31-1,.09-1-.49A2.08,2.08,0,0,1,149.89,328.63Z"
         style="fill:#fff;opacity:0.6000000000000001"
         id="path312" />
      <path
         d="M131.15,367.48l35.57-20.6c.54-.31,1-.09,1,.48a2.07,2.07,0,0,1-1,1.61l-35.57,20.6c-.53.31-1,.09-1-.49A2.08,2.08,0,0,1,131.15,367.48Z"
         style="fill:#f28f8f"
         id="path314" />
      <path
         d="M131.15,373.47l35.57-20.61c.54-.31,1-.09,1,.49a2,2,0,0,1-1,1.6l-35.57,20.61c-.53.3-1,.09-1-.49A2.06,2.06,0,0,1,131.15,373.47Z"
         style="fill:#f28f8f"
         id="path316" />
      <path
         d="M131.15,379.45l35.57-20.6c.54-.31,1-.09,1,.49a2.07,2.07,0,0,1-1,1.6l-35.57,20.6c-.53.31-1,.09-1-.49A2.09,2.09,0,0,1,131.15,379.45Z"
         style="fill:#f28f8f"
         id="path318" />
      <path
         d="M121.3,360.3l4.47-2.57c.53-.3,1-.08,1,.49a2.08,2.08,0,0,1-1,1.61l-4.47,2.56c-.54.31-1,.09-1-.48A2.07,2.07,0,0,1,121.3,360.3Z"
         style="fill:#846A23"
         id="path320" />
      <path
         d="M121.3,360.3l4.47-2.57c.53-.3,1-.08,1,.49a2.08,2.08,0,0,1-1,1.61l-4.47,2.56c-.54.31-1,.09-1-.48A2.07,2.07,0,0,1,121.3,360.3Z"
         style="fill:#fff;opacity:0.6000000000000001"
         id="path322" />
      <path
         d="M121.3,373.17l4.47-2.56c.53-.31,1-.09,1,.48a2.08,2.08,0,0,1-1,1.61l-4.47,2.57c-.54.3-1,.08-1-.49A2.07,2.07,0,0,1,121.3,373.17Z"
         style="fill:#846A23"
         id="path324" />
      <path
         d="M121.3,373.17l4.47-2.56c.53-.31,1-.09,1,.48a2.08,2.08,0,0,1-1,1.61l-4.47,2.57c-.54.3-1,.08-1-.49A2.07,2.07,0,0,1,121.3,373.17Z"
         style="fill:#fff;opacity:0.6000000000000001"
         id="path326" />
      <path
         d="M121.3,379.16l4.47-2.57c.53-.31,1-.09,1,.49a2.05,2.05,0,0,1-1,1.6l-4.47,2.57c-.54.31-1,.09-1-.49A2.07,2.07,0,0,1,121.3,379.16Z"
         style="fill:#846A23"
         id="path328" />
      <path
         d="M121.3,379.16l4.47-2.57c.53-.31,1-.09,1,.49a2.05,2.05,0,0,1-1,1.6l-4.47,2.57c-.54.31-1,.09-1-.49A2.07,2.07,0,0,1,121.3,379.16Z"
         style="fill:#fff;opacity:0.6000000000000001"
         id="path330" />
      <path
         d="M121.3,385.15l4.47-2.57c.53-.31,1-.09,1,.49a2.08,2.08,0,0,1-1,1.6l-4.47,2.57c-.54.31-1,.09-1-.49A2,2,0,0,1,121.3,385.15Z"
         style="fill:#846A23"
         id="path332" />
      <path
         d="M121.3,385.15l4.47-2.57c.53-.31,1-.09,1,.49a2.08,2.08,0,0,1-1,1.6l-4.47,2.57c-.54.31-1,.09-1-.49A2,2,0,0,1,121.3,385.15Z"
         style="fill:#fff;opacity:0.6000000000000001"
         id="path334" />
      <path
         d="M216.42,270.6l-37.69,21.76a5.6,5.6,0,0,0-2.53,4.38V353.5c0,1.61,1.14,2.27,2.53,1.46l37.69-21.76a5.62,5.62,0,0,0,2.53-4.38V272.06C219,270.45,217.81,269.79,216.42,270.6Z"
         style="fill:#37474f"
         id="path336" />
      <path
         d="M212.92,313.73l-3.47,2a2.74,2.74,0,0,0-1.28,2.12c0,.77.57,1.06,1.28.65l3.47-2a2.74,2.74,0,0,0,1.28-2.13C214.2,313.61,213.63,313.32,212.92,313.73Z"
         style="fill:#846A23"
         id="path338" />
      <path
         d="M212.92,313.73l-3.47,2a2.74,2.74,0,0,0-1.28,2.12c0,.77.57,1.06,1.28.65l3.47-2a2.74,2.74,0,0,0,1.28-2.13C214.2,313.61,213.63,313.32,212.92,313.73Z"
         style="fill:#fff;opacity:0.6000000000000001"
         id="path340" />
      <path
         d="M212.92,278.1l-3.47,2a2.72,2.72,0,0,0-1.28,2.12c0,.77.57,1.06,1.28.65l3.47-2a2.72,2.72,0,0,0,1.28-2.12C214.2,278,213.63,277.69,212.92,278.1Z"
         style="fill:#846A23"
         id="path342" />
      <path
         d="M212.92,278.1l-3.47,2a2.72,2.72,0,0,0-1.28,2.12c0,.77.57,1.06,1.28.65l3.47-2a2.72,2.72,0,0,0,1.28-2.12C214.2,278,213.63,277.69,212.92,278.1Z"
         style="fill:#fff;opacity:0.6000000000000001"
         id="path344" />
      <path
         d="M208,288l-3.47,2a2.77,2.77,0,0,0-1.28,2.13c0,.76.58,1,1.28.65l3.47-2a2.74,2.74,0,0,0,1.28-2.13C209.32,287.91,208.75,287.62,208,288Z"
         style="fill:#846A23"
         id="path346" />
      <path
         d="M208,288l-3.47,2a2.77,2.77,0,0,0-1.28,2.13c0,.76.58,1,1.28.65l3.47-2a2.74,2.74,0,0,0,1.28-2.13C209.32,287.91,208.75,287.62,208,288Z"
         style="fill:#fff;opacity:0.6000000000000001"
         id="path348" />
      <path
         d="M208,295.13l-3.47,2a2.77,2.77,0,0,0-1.28,2.13c0,.76.58,1.05,1.28.64l3.47-2a2.74,2.74,0,0,0,1.28-2.13C209.32,295,208.75,294.73,208,295.13Z"
         style="fill:#846A23"
         id="path350" />
      <path
         d="M208,295.13l-3.47,2a2.77,2.77,0,0,0-1.28,2.13c0,.76.58,1.05,1.28.64l3.47-2a2.74,2.74,0,0,0,1.28-2.13C209.32,295,208.75,294.73,208,295.13Z"
         style="fill:#fff;opacity:0.6000000000000001"
         id="path352" />
      <path
         d="M212.92,299.47l-3.47,2a2.74,2.74,0,0,0-1.28,2.13c0,.76.57,1.05,1.28.65l3.47-2a2.74,2.74,0,0,0,1.28-2.13C214.2,299.36,213.63,299.07,212.92,299.47Z"
         style="fill:#846A23"
         id="path354" />
      <path
         d="M212.92,299.47l-3.47,2a2.74,2.74,0,0,0-1.28,2.13c0,.76.57,1.05,1.28.65l3.47-2a2.74,2.74,0,0,0,1.28-2.13C214.2,299.36,213.63,299.07,212.92,299.47Z"
         style="fill:#fff;opacity:0.6000000000000001"
         id="path356" />
      <path
         d="M208,309.41l-3.47,2a2.77,2.77,0,0,0-1.28,2.13c0,.77.58,1.06,1.28.65l3.47-2a2.74,2.74,0,0,0,1.28-2.13C209.32,309.29,208.75,309,208,309.41Z"
         style="fill:#846A23"
         id="path358" />
      <path
         d="M208,309.41l-3.47,2a2.77,2.77,0,0,0-1.28,2.13c0,.77.58,1.06,1.28.65l3.47-2a2.74,2.74,0,0,0,1.28-2.13C209.32,309.29,208.75,309,208,309.41Z"
         style="fill:#fff;opacity:0.6000000000000001"
         id="path360" />
      <path
         d="M203.42,283.59l-21.19,12.23A2.77,2.77,0,0,0,181,298c0,.76.58,1.05,1.28.64l21.19-12.23a2.74,2.74,0,0,0,1.28-2.12C204.7,283.47,204.13,283.18,203.42,283.59Z"
         style="fill:#846A23"
         id="path362" />
      <path
         d="M203.42,283.59l-21.19,12.23A2.77,2.77,0,0,0,181,298c0,.76.58,1.05,1.28.64l21.19-12.23a2.74,2.74,0,0,0,1.28-2.12C204.7,283.47,204.13,283.18,203.42,283.59Z"
         style="fill:#fff;opacity:0.8"
         id="path364" />
      <path
         d="M203.42,319.22l-21.19,12.23a2.77,2.77,0,0,0-1.28,2.13c0,.76.58,1.05,1.28.65L203.42,322a2.72,2.72,0,0,0,1.28-2.12C204.7,319.1,204.13,318.81,203.42,319.22Z"
         style="fill:#846A23"
         id="path366" />
      <path
         d="M203.42,319.22l-21.19,12.23a2.77,2.77,0,0,0-1.28,2.13c0,.76.58,1.05,1.28.65L203.42,322a2.72,2.72,0,0,0,1.28-2.12C204.7,319.1,204.13,318.81,203.42,319.22Z"
         style="fill:#fff;opacity:0.8"
         id="path368" />
      <path
         d="M198.54,293.51,182.23,303a2.75,2.75,0,0,0-1.28,2.12c0,.77.58,1.06,1.28.65l16.31-9.43a2.74,2.74,0,0,0,1.28-2.13C199.82,293.39,199.25,293.1,198.54,293.51Z"
         style="fill:#846A23"
         id="path370" />
      <path
         d="M198.54,293.51,182.23,303a2.75,2.75,0,0,0-1.28,2.12c0,.77.58,1.06,1.28.65l16.31-9.43a2.74,2.74,0,0,0,1.28-2.13C199.82,293.39,199.25,293.1,198.54,293.51Z"
         style="fill:#fff;opacity:0.8"
         id="path372" />
      <path
         d="M198.54,300.64l-16.31,9.43A2.77,2.77,0,0,0,181,312.2c0,.77.58,1.06,1.28.65l16.31-9.44a2.74,2.74,0,0,0,1.28-2.12C199.82,300.52,199.25,300.23,198.54,300.64Z"
         style="fill:#846A23"
         id="path374" />
      <path
         d="M198.54,300.64l-16.31,9.43A2.77,2.77,0,0,0,181,312.2c0,.77.58,1.06,1.28.65l16.31-9.44a2.74,2.74,0,0,0,1.28-2.12C199.82,300.52,199.25,300.23,198.54,300.64Z"
         style="fill:#fff;opacity:0.8"
         id="path376" />
      <path
         d="M203.42,305,182.23,317.2a2.77,2.77,0,0,0-1.28,2.13c0,.76.58,1.05,1.28.64l21.19-12.23a2.74,2.74,0,0,0,1.28-2.13C204.7,304.85,204.13,304.56,203.42,305Z"
         style="fill:#846A23"
         id="path378" />
      <path
         d="M203.42,305,182.23,317.2a2.77,2.77,0,0,0-1.28,2.13c0,.76.58,1.05,1.28.64l21.19-12.23a2.74,2.74,0,0,0,1.28-2.13C204.7,304.85,204.13,304.56,203.42,305Z"
         style="fill:#fff;opacity:0.8"
         id="path380" />
      <path
         d="M198.54,314.89l-16.31,9.44a2.75,2.75,0,0,0-1.28,2.12c0,.77.58,1.06,1.28.65l16.31-9.43a2.74,2.74,0,0,0,1.28-2.13C199.82,314.78,199.25,314.49,198.54,314.89Z"
         style="fill:#846A23"
         id="path382" />
      <path
         d="M198.54,314.89l-16.31,9.44a2.75,2.75,0,0,0-1.28,2.12c0,.77.58,1.06,1.28.65l16.31-9.43a2.74,2.74,0,0,0,1.28-2.13C199.82,314.78,199.25,314.49,198.54,314.89Z"
         style="fill:#fff;opacity:0.8"
         id="path384" />
      <path
         d="M212.92,328.06l-3.47,2a2.74,2.74,0,0,0-1.28,2.13c0,.76.57,1.05,1.28.64l3.47-2a2.74,2.74,0,0,0,1.28-2.13C214.2,327.94,213.63,327.65,212.92,328.06Z"
         style="fill:#846A23"
         id="path386" />
      <path
         d="M212.92,328.06l-3.47,2a2.74,2.74,0,0,0-1.28,2.13c0,.76.57,1.05,1.28.64l3.47-2a2.74,2.74,0,0,0,1.28-2.13C214.2,327.94,213.63,327.65,212.92,328.06Z"
         style="fill:#fff;opacity:0.6000000000000001"
         id="path388" />
      <path
         d="M208,323.74l-3.47,2a2.77,2.77,0,0,0-1.28,2.13c0,.77.58,1.06,1.28.65l3.47-2a2.74,2.74,0,0,0,1.28-2.13C209.32,323.62,208.75,323.33,208,323.74Z"
         style="fill:#846A23"
         id="path390" />
      <path
         d="M208,323.74l-3.47,2a2.77,2.77,0,0,0-1.28,2.13c0,.77.58,1.06,1.28.65l3.47-2a2.74,2.74,0,0,0,1.28-2.13C209.32,323.62,208.75,323.33,208,323.74Z"
         style="fill:#fff;opacity:0.6000000000000001"
         id="path392" />
      <path
         d="M203.42,333.55l-21.19,12.23a2.77,2.77,0,0,0-1.28,2.13c0,.77.58,1.06,1.28.65l21.19-12.24a2.72,2.72,0,0,0,1.28-2.12C204.7,333.43,204.13,333.14,203.42,333.55Z"
         style="fill:#846A23"
         id="path394" />
      <path
         d="M203.42,333.55l-21.19,12.23a2.77,2.77,0,0,0-1.28,2.13c0,.77.58,1.06,1.28.65l21.19-12.24a2.72,2.72,0,0,0,1.28-2.12C204.7,333.43,204.13,333.14,203.42,333.55Z"
         style="fill:#fff;opacity:0.8"
         id="path396" />
      <path
         d="M198.54,329.22l-16.31,9.44a2.75,2.75,0,0,0-1.28,2.12c0,.77.58,1.06,1.28.65L198.54,332a2.74,2.74,0,0,0,1.28-2.13C199.82,329.11,199.25,328.82,198.54,329.22Z"
         style="fill:#846A23"
         id="path398" />
      <path
         d="M198.54,329.22l-16.31,9.44a2.75,2.75,0,0,0-1.28,2.12c0,.77.58,1.06,1.28.65L198.54,332a2.74,2.74,0,0,0,1.28-2.13C199.82,329.11,199.25,328.82,198.54,329.22Z"
         style="fill:#fff;opacity:0.8"
         id="path400" />
    </g>
  </g>
  <g
     id="freepik--Icon--inject-22">
    <g
       id="freepik--code-icon--inject-22">
      <g
         style="opacity:0.2"
         id="g407">
        <path
           d="M92.62,252.64l41.52-24c.67-.39,1.22-.07,1.22.7v36.14a2.7,2.7,0,0,1-1.22,2.11l-41.52,24c-.67.39-1.22.08-1.22-.7V254.76A2.72,2.72,0,0,1,92.62,252.64Z"
           id="path405" />
      </g>
      <g
         id="freepik--speach-bubble--inject-22">
        <path
           d="M132.4,234,96,255.05a3,3,0,0,0-1.35,2.33v33.78A2.92,2.92,0,0,0,96,293.47l2.56,1.46a3,3,0,0,0,2.7,0l36.43-21a3,3,0,0,0,1.35-2.33V237.79a2.93,2.93,0,0,0-1.36-2.31L135.1,234A3,3,0,0,0,132.4,234Z"
           style="fill:#846A23"
           id="path409" />
        <path
           d="M101.24,294.91a3.08,3.08,0,0,1-2.7,0L96,293.47a2.93,2.93,0,0,1-1.36-2.31V257.38a2.81,2.81,0,0,1,.43-1.37l5.24,3a2.69,2.69,0,0,0-.4,1.32v33.77C99.89,294.92,100.44,295.37,101.24,294.91Z"
           style="opacity:0.2"
           id="path411" />
        <g
           style="opacity:0.2"
           id="g415">
          <path
             d="M139,237.55c-.11-.68-.66-.92-1.33-.53l-36.43,21a2.81,2.81,0,0,0-.95,1L95,256a2.86,2.86,0,0,1,.93-1l36.44-21a3,3,0,0,1,2.69,0l2.56,1.46A3,3,0,0,1,139,237.55Z"
             style="fill:#fff"
             id="path413" />
        </g>
        <path
           d="M137.67,237l-36.43,21a3,3,0,0,0-1.35,2.33v33.78c0,.85.6,1.2,1.35.77l36.43-21a3,3,0,0,0,1.35-2.33V237.79C139,236.94,138.41,236.59,137.67,237Z"
           style="fill:#846A23"
           id="path417" />
      </g>
      <g
         id="freepik----inject-22">
        <path
           d="M103.5,274.86a2.09,2.09,0,0,1,.15-.83,5.13,5.13,0,0,1,.42-.78l8-12.85.12-.15.09-.06a.23.23,0,0,1,.3,0,.5.5,0,0,1,.12.39v5a2.15,2.15,0,0,1-.23,1,7.77,7.77,0,0,1-.4.68l-3.48,5.34L112,274a1.75,1.75,0,0,1,.4.19c.15.1.23.35.23.76v5a1.24,1.24,0,0,1-.12.53.76.76,0,0,1-.3.35.19.19,0,0,1-.09,0H112l-8-3.67a1,1,0,0,1-.42-.29,1.07,1.07,0,0,1-.15-.66Z"
           style="fill:#fff"
           id="path420" />
        <path
           d="M120.81,253.09a4.63,4.63,0,0,1,.3-.8,1.45,1.45,0,0,1,.58-.62l2.66-1.54a.24.24,0,0,1,.31,0,.54.54,0,0,1,.12.39,1.13,1.13,0,0,1,0,.3L118,279.46a3.22,3.22,0,0,1-.28.78,1.49,1.49,0,0,1-.59.65l-2.6,1.5a.24.24,0,0,1-.31,0,.54.54,0,0,1-.13-.4,1.24,1.24,0,0,1,0-.3Z"
           style="fill:#fff"
           id="path422" />
        <path
           d="M135.41,257.72a2.1,2.1,0,0,1-.15.84,5.28,5.28,0,0,1-.43.78l-7.94,12.84a1.16,1.16,0,0,1-.13.15l-.09.07a.24.24,0,0,1-.3,0,.54.54,0,0,1-.12-.39v-5a2.13,2.13,0,0,1,.23-1,7.31,7.31,0,0,1,.41-.66l3.47-5.37-3.47-1.32a1.77,1.77,0,0,1-.41-.21c-.15-.11-.23-.37-.23-.77v-5a1.17,1.17,0,0,1,.12-.52.79.79,0,0,1,.3-.36l.09,0h.13l7.94,3.67a.8.8,0,0,1,.58.95Z"
           style="fill:#fff"
           id="path424" />
      </g>
    </g>
  </g>
  <g
     id="freepik--Chart--inject-22">
    <g
       id="freepik--chart--inject-22">
      <g
         style="opacity:0.2"
         id="g431">
        <path
           d="M92.62,202l41.52-24c.67-.39,1.22-.08,1.22.7v36.14a2.72,2.72,0,0,1-1.22,2.11l-41.52,24c-.67.39-1.22.08-1.22-.7V204.06A2.72,2.72,0,0,1,92.62,202Z"
           id="path429" />
      </g>
      <g
         id="g445">
        <path
           d="M132.4,183.58,96,204.6a3,3,0,0,0-1.35,2.33V240.7A3,3,0,0,0,96,243l2.56,1.45a3,3,0,0,0,2.7,0l36.43-21a3,3,0,0,0,1.35-2.33V187.34a2.94,2.94,0,0,0-1.36-2.32l-2.56-1.45A3,3,0,0,0,132.4,183.58Z"
           style="fill:#846A23"
           id="path433" />
        <path
           d="M101.24,244.46a3.08,3.08,0,0,1-2.7,0L96,243a2.9,2.9,0,0,1-1.36-2.31V206.93a2.82,2.82,0,0,1,.43-1.38l5.24,3a2.7,2.7,0,0,0-.4,1.33v33.77C99.89,244.46,100.44,244.92,101.24,244.46Z"
           style="opacity:0.2"
           id="path435" />
        <g
           style="opacity:0.2"
           id="g439">
          <path
             d="M139,187.09c-.11-.67-.66-.92-1.33-.53l-36.43,21a2.77,2.77,0,0,0-.95,1l-5.25-3a2.73,2.73,0,0,1,.93-1l36.44-21a3,3,0,0,1,2.69,0l2.56,1.45A3,3,0,0,1,139,187.09Z"
             style="fill:#fff"
             id="path437" />
        </g>
        <path
           d="M137.67,186.56l-36.43,21a3,3,0,0,0-1.35,2.33v33.77c0,.86.6,1.21,1.35.78l36.43-21a3,3,0,0,0,1.35-2.33V187.34C139,186.48,138.41,186.13,137.67,186.56Z"
           style="fill:#fafafa"
           id="path441" />
        <path
           d="M137.94,187.65v33.46a1.94,1.94,0,0,1-.81,1.4L101,243.37V209.91a2,2,0,0,1,.8-1.4l36.17-20.86m.33-1.27a1.27,1.27,0,0,0-.6.18l-36.43,21a3,3,0,0,0-1.35,2.33v33.77c0,.61.3,1,.74,1a1.28,1.28,0,0,0,.61-.18l36.43-21a3,3,0,0,0,1.35-2.33V187.34c0-.61-.31-1-.75-1Z"
           style="fill:#846A23"
           id="path443" />
      </g>
      <g
         id="freepik--bar-graph--inject-22">
        <polygon
           points="129.06 222.79 129.05 199.38 126.97 198.17 126.97 221.58 129.06 222.79"
           style="fill:#846A23"
           id="polygon447" />
        <polygon
           points="129.06 222.79 129.05 199.38 126.97 198.17 126.97 221.58 129.06 222.79"
           style="opacity:0.2"
           id="polygon449" />
        <polygon
           points="129.06 222.79 135.12 219.29 135.12 195.88 129.05 199.38 129.06 222.79"
           style="fill:#846A23"
           id="polygon451" />
        <polygon
           points="135.12 195.88 133.03 194.67 126.97 198.17 129.05 199.38 135.12 195.88"
           style="fill:#846A23"
           id="polygon453" />
        <polygon
           points="135.12 195.88 133.03 194.67 126.97 198.17 129.05 199.38 135.12 195.88"
           style="fill:#fff;opacity:0.25"
           id="polygon455" />
        <path
           d="M135.12,195.88l-6.07,3.41L127,198.17l2,1.34c-.05.68,0,22.58.08,23.28.1-.7.13-22.64.09-23.3Z"
           style="fill:#fff;opacity:0.30000000000000004"
           id="path457" />
        <polygon
           points="117.69 229.35 117.69 210.55 115.6 209.34 115.6 228.14 117.69 229.35"
           style="fill:#846A23"
           id="polygon459" />
        <polygon
           points="117.69 229.35 117.69 210.55 115.6 209.34 115.6 228.14 117.69 229.35"
           style="fill:#fff;opacity:0.1"
           id="polygon461" />
        <polygon
           points="117.69 229.35 123.75 225.85 123.75 207.05 117.69 210.55 117.69 229.35"
           style="fill:#846A23"
           id="polygon463" />
        <polygon
           points="117.69 229.35 123.75 225.85 123.75 207.05 117.69 210.55 117.69 229.35"
           style="fill:#fff;opacity:0.30000000000000004"
           id="polygon465" />
        <polygon
           points="123.75 207.05 121.66 205.84 115.6 209.34 117.69 210.55 123.75 207.05"
           style="fill:#846A23"
           id="polygon467" />
        <polygon
           points="123.75 207.05 121.66 205.84 115.6 209.34 117.69 210.55 123.75 207.05"
           style="fill:#fff;opacity:0.55"
           id="polygon469" />
        <path
           d="M117.77,210.59l6-3.54-6.06,3.41c-.66-.38-2.09-1.12-2.09-1.12s1.33.85,2,1.25c0,.71,0,18,.08,18.76C117.73,228.63,117.79,211.28,117.77,210.59Z"
           style="fill:#fff;opacity:0.30000000000000004"
           id="path471" />
        <polygon
           points="106.32 235.91 106.32 220.13 104.23 218.92 104.23 234.71 106.32 235.91"
           style="fill:#846A23"
           id="polygon473" />
        <polygon
           points="106.32 235.91 106.32 220.13 104.23 218.92 104.23 234.71 106.32 235.91"
           style="opacity:0.45"
           id="polygon475" />
        <polygon
           points="106.32 235.91 112.38 232.41 112.38 216.63 106.32 220.13 106.32 235.91"
           style="fill:#846A23"
           id="polygon477" />
        <polygon
           points="106.32 235.91 112.38 232.41 112.38 216.63 106.32 220.13 106.32 235.91"
           style="opacity:0.30000000000000004"
           id="polygon479" />
        <polygon
           points="112.38 216.63 110.3 215.42 104.23 218.92 106.32 220.13 112.38 216.63"
           style="fill:#846A23"
           id="polygon481" />
        <polygon
           points="112.38 216.63 110.3 215.42 104.23 218.92 106.32 220.13 112.38 216.63"
           style="opacity:0.15"
           id="polygon483" />
        <path
           d="M112.38,216.63,106.32,220l-2.09-1.12,2,1.31s0,15.25.08,15.68c.09-.43.09-15.67.09-15.67Z"
           style="fill:#fff;opacity:0.30000000000000004"
           id="path485" />
      </g>
    </g>
  </g>
  <g
     id="g3527"
     transform="translate(241.0026,-138.45751)">
    <g
       id="g502"
       transform="translate(-104.66472,268.22342)">
      <g
         id="g500">
        <g
           id="g496">
          <path
             d="m 432.38,65.44 a 25.33,25.33 0 0 1 -6.81,17.32 l -2.09,2 A 25.31,25.31 0 0 1 387.72,49.17 l 2,-2.1 a 25.31,25.31 0 0 1 42.67,18.38 z"
             style="fill:#ffffff"
             id="path490" />
          <path
             d="m 407,38 a 27.48,27.48 0 0 0 -4.45,54.58 l 3.1,8 a 1.59,1.59 0 0 0 3,0 l 3.07,-8 A 27.47,27.47 0 0 0 407,38 Z m 25.39,27.42 a 25.33,25.33 0 0 1 -6.81,17.32 l -2.09,2 A 25.31,25.31 0 0 1 387.73,49.15 l 2,-2.1 a 25.31,25.31 0 0 1 42.67,18.38 z"
             style="fill:#e0e0e0"
             id="path492" />
          <path
             d="m 432.38,65.44 a 25.33,25.33 0 0 1 -6.81,17.32 l -2.09,2 A 25.31,25.31 0 0 1 387.72,49.17 l 2,-2.1 a 25.31,25.31 0 0 1 42.67,18.38 z"
             style="opacity:0.7;fill:#ffffff"
             id="path494" />
        </g>
        <path
           d="m 422,76.09 a 0.47,0.47 0 0 0 0,-0.53 l -2.09,-2.65 a 2.12,2.12 0 0 1 -0.26,-2.15 c 0,0 0,0 0,0 v 0 a 2.13,2.13 0 0 1 1.7,-1.33 L 424.7,69 a 0.45,0.45 0 0 0 0.39,-0.36 17.42,17.42 0 0 0 0.27,-3.12 18.53,18.53 0 0 0 -0.26,-3.13 0.46,0.46 0 0 0 -0.38,-0.36 l -3.35,-0.39 a 2.1,2.1 0 0 1 -1.69,-1.31 v -0.07 a 2.09,2.09 0 0 1 0.27,-2.13 l 2.1,-2.64 a 0.44,0.44 0 0 0 0,-0.53 17.4,17.4 0 0 0 -4.4,-4.41 0.45,0.45 0 0 0 -0.52,0 l -2.64,2.09 a 2.16,2.16 0 0 1 -2.16,0.27 v 0 A 2.14,2.14 0 0 1 411,51.2 l -0.37,-3.36 a 0.45,0.45 0 0 0 -0.36,-0.38 18.22,18.22 0 0 0 -6.25,0 0.47,0.47 0 0 0 -0.36,0.39 l -0.39,3.35 a 2.11,2.11 0 0 1 -1.33,1.7 v 0 a 2.14,2.14 0 0 1 -2.15,-0.27 l -2.63,-2.1 a 0.47,0.47 0 0 0 -0.53,0 17.81,17.81 0 0 0 -4.42,4.41 0.44,0.44 0 0 0 0,0.52 l 2.09,2.65 a 2.12,2.12 0 0 1 0.26,2.14 0.14,0.14 0 0 0 0,0.06 2.12,2.12 0 0 1 -1.7,1.31 L 389.49,62 a 0.43,0.43 0 0 0 -0.37,0.36 18,18 0 0 0 0,6.22 0.41,0.41 0 0 0 0.38,0.36 l 3.36,0.4 a 2.16,2.16 0 0 1 1.7,1.34 c 0,0 0,0 0,0 a 2.07,2.07 0 0 1 -0.26,2.14 l -2.1,2.65 a 0.44,0.44 0 0 0 0,0.52 17.48,17.48 0 0 0 4.41,4.42 0.44,0.44 0 0 0 0.52,0 l 2.64,-2.09 a 2.11,2.11 0 0 1 2.16,-0.25 v 0 a 2.12,2.12 0 0 1 1.32,1.7 l 0.37,3.35 a 0.44,0.44 0 0 0 0.36,0.39 17.58,17.58 0 0 0 3.12,0.28 18.89,18.89 0 0 0 3.13,-0.26 0.48,0.48 0 0 0 0.36,-0.39 l 0.39,-3.35 a 2.12,2.12 0 0 1 1.32,-1.7 h 0.05 a 2.12,2.12 0 0 1 2.15,0.26 l 2.5,2.12 a 0.44,0.44 0 0 0 0.52,0 18.11,18.11 0 0 0 4.48,-4.38 z m -15,-1.34 a 9.26,9.26 0 1 1 9.26,-9.23 9.25,9.25 0 0 1 -9.26,9.23 z"
           style="fill:#846a23"
           id="path498" />
      </g>
    </g>
  </g>
</svg>
