<?xml version="1.0" encoding="UTF-8" standalone="no"?>
<svg
   viewBox="0 0 500 500"
   version="1.1"
   id="svg359"
   sodipodi:docname="119.svg"
   inkscape:version="1.1.2 (0a00cf5339, 2022-02-04)"
   xmlns:inkscape="http://www.inkscape.org/namespaces/inkscape"
   xmlns:sodipodi="http://sodipodi.sourceforge.net/DTD/sodipodi-0.dtd"
   xmlns="http://www.w3.org/2000/svg"
   xmlns:svg="http://www.w3.org/2000/svg">
  <sodipodi:namedview
     id="namedview361"
     pagecolor="#ffffff"
     bordercolor="#666666"
     borderopacity="1.0"
     inkscape:pageshadow="2"
     inkscape:pageopacity="0.0"
     inkscape:pagecheckerboard="0"
     showgrid="false"
     inkscape:zoom="1.132"
     inkscape:cx="249.5583"
     inkscape:cy="250.4417"
     inkscape:window-width="1478"
     inkscape:window-height="800"
     inkscape:window-x="0"
     inkscape:window-y="0"
     inkscape:window-maximized="1"
     inkscape:current-layer="svg359" />
  <defs
     id="defs5">
    <clipPath
       id="freepik--clip-path--inject-158">
      <path
         d="M376.59,331.88v16.41c0,1.23-.86,1.73-1.93,1.12l-17.23-9.82a4.26,4.26,0,0,1-1.93-3.34V319.84c0-1.23.87-1.73,1.93-1.11,4.7,2.71,12.53,7.1,17.23,9.81A4.26,4.26,0,0,1,376.59,331.88Z"
         style="fill:#455a64"
         id="path2" />
    </clipPath>
  </defs>
  <g
     id="freepik--Floor--inject-158">
    <ellipse
       id="freepik--floor--inject-158"
       cx="250"
       cy="345.6"
       rx="223.87"
       ry="137"
       style="fill:#f5f5f5" />
  </g>
  <g
     id="freepik--Plants--inject-158">
    <g
       id="freepik--plants--inject-158">
      <path
         d="M64.78,277.92l8-4.35s4.23-20.8,1.78-38.82c-3.45-25.32-20.45-34.4-26.75-32s-7.92,9.82,3,24.65C57.32,236.13,65.49,254.5,64.78,277.92Z"
         style="fill:#D2BBE7"
         id="path9" />
      <g
         style="opacity:0.15"
         id="g13">
        <path
           d="M64.78,277.92l8-4.35s4.23-20.8,1.78-38.82c-3.45-25.32-20.45-34.4-26.75-32s-7.92,9.82,3,24.65C57.32,236.13,65.49,254.5,64.78,277.92Z"
           id="path11" />
      </g>
      <path
         d="M69.45,267.52h-.08a.56.56,0,0,1-.5-.62c2.54-23.73-7.75-49.32-18.75-59.43a.56.56,0,0,1,0-.79.57.57,0,0,1,.8,0C62.08,216.93,72.57,242.94,70,267A.56.56,0,0,1,69.45,267.52Z"
         style="fill:#fff"
         id="path15" />
      <path
         d="M46.3,295.64c-1.19.82-3.88-.55-4.91-1.13a11.94,11.94,0,0,1-4.3-4.23,11.17,11.17,0,0,1-1.51-6.62,26.2,26.2,0,0,1,.57-3.62c.24-1.17.49-2.35.73-3.53a8.75,8.75,0,0,0,.23-3.52c-.48-2.34-2.7-3.83-4.72-5.11-2.23-1.41-4.58-3.32-4.79-6.17a10,10,0,0,1,2-6.14c1.22-1.83,2.72-3.47,3.8-5.39a6.9,6.9,0,0,0,1.09-4.52A7.33,7.33,0,0,0,33.37,243c-1.15-1.77-2.6-3.36-3.45-5.3s-.94-4.41.51-6c1.18-1.26,3.06-1.57,4.79-1.59a11.22,11.22,0,0,1,4.68,1.25c4.7,2.16,7.69,7.31,12.63,8.87a48.38,48.38,0,0,0,5.9,1c2,.36,4,1.19,5,2.9,2,3.37-.9,7.95.63,11.58,1.35,3.22,4.65,4.23,6.68,7.07A7.1,7.1,0,0,1,71.94,267a20.79,20.79,0,0,1-1.26,7.43A58.87,58.87,0,0,1,68,280.5C67.93,280.58,46.48,295.52,46.3,295.64Z"
         style="fill:#D2BBE7"
         id="path17" />
      <path
         d="M58.57,287.84h0a.56.56,0,0,1-.59-.54c-.8-22.38-13.21-46.19-21.4-52.76a.56.56,0,0,1,.7-.88c8.36,6.7,21,30.91,21.83,53.6A.57.57,0,0,1,58.57,287.84Z"
         style="fill:#fff"
         id="path19" />
      <path
         d="M53.19,261.74a.33.33,0,0,1-.17,0,76.09,76.09,0,0,0-16.39-1.36.56.56,0,0,1-.58-.54.54.54,0,0,1,.54-.58,76.59,76.59,0,0,1,16.68,1.38.57.57,0,0,1,.42.68A.54.54,0,0,1,53.19,261.74Z"
         style="fill:#fff"
         id="path21" />
    </g>
    <g
       id="g34">
      <path
         d="M448.79,290.84l-9.3-5.89s-4.56-17.58-5.39-33.25c-1.17-22,7.28-50.32,24.93-46.74s-3.37,29.39-6,48.62S448.79,290.84,448.79,290.84Z"
         style="fill:#D2BBE7"
         id="path24" />
      <path
         d="M448.79,290.84l-9.3-5.89s-4.56-17.58-5.39-33.25c-1.17-22,7.28-50.32,24.93-46.74s-3.37,29.39-6,48.62S448.79,290.84,448.79,290.84Z"
         style="opacity:0.15"
         id="path26" />
      <path
         d="M443.55,289.33h0a.57.57,0,0,0,.46-.66c-9-48,11.33-75.85,11.53-76.13a.57.57,0,1,0-.91-.68c-.21.28-20.81,28.58-11.74,77A.57.57,0,0,0,443.55,289.33Z"
         style="fill:#fff"
         id="path28" />
      <path
         d="M454,294.5l-7-4s-3.07-12.89,1.11-30.53c3.63-15.35,16.29-29.56,24-28.15s8.28,6.61,5.55,12.57S454.9,267.13,454,294.5Z"
         style="fill:#D2BBE7"
         id="path30" />
      <path
         d="M450.63,293h0a.57.57,0,0,0,.48-.65c-4.77-30.46,20.71-55.41,21-55.66a.57.57,0,0,0,0-.81.58.58,0,0,0-.81,0c-.26.25-26.16,25.62-21.3,56.66A.57.57,0,0,0,450.63,293Z"
         style="fill:#fff"
         id="path32" />
    </g>
  </g>
  <g
     id="freepik--Shadows--inject-158">
    <ellipse
       id="freepik--Shadow--inject-158"
       cx="167.72"
       cy="372.71"
       rx="79.6"
       ry="45.96"
       style="fill:#e0e0e0" />
    <path
       id="freepik--shadow--inject-158"
       d="M337.11,434.94a9.63,9.63,0,0,1-7-2.85L229.43,326.63a23.62,23.62,0,0,1-6.7-16.31,22.57,22.57,0,0,1,.23-3.18,23.35,23.35,0,0,1,11.69-16.87l3-1.73a34.67,34.67,0,0,1,32.82,0L411.64,370l7.49,4.27a5.56,5.56,0,0,1,0,10.17l-8.94,5.09a14.32,14.32,0,0,1-6.89,1.65h0a13.17,13.17,0,0,1-4.69-.8L277.76,343.2l72.5,75.92a6.68,6.68,0,0,1-1.61,10.75l-7,3.94A9.18,9.18,0,0,1,337.11,434.94Z"
       style="fill:#e0e0e0" />
  </g>
  <g
     id="freepik--Wallet--inject-158"
     transform="matrix(1.5783177,0,0,1.3647815,-246.76171,-119.79419)">
    <g
       id="freepik--wallet--inject-158">
      <path
         d="m 403.08,381.54 a 3,3 0 0 0 1.27,-2.8 V 257.41 a 8.85,8.85 0 0 0 -1.27,-4.27 l 7.52,-4.34 a 8.84,8.84 0 0 1 1.27,4.26 V 374.4 a 3,3 0 0 1 -1.27,2.8 z"
         style="fill:#263238"
         id="path109" />
      <path
         d="m 403.08,253.14 a 8.83,8.83 0 0 0 -3.06,-3.23 L 262.71,170.63 c -4.78,-2.76 -12.54,-2.76 -17.32,0 l -3,1.73 a 7.7,7.7 0 0 0 -4.17,6.64 v 131.34 a 7.73,7.73 0 0 1 4.17,-6.65 l 3,-1.73 c 4.78,-2.76 12.54,-2.76 17.32,0 L 400,381.24 a 2.64,2.64 0 0 0 4.33,-2.5 V 257.41 a 8.85,8.85 0 0 0 -1.25,-4.27 z"
         style="fill:#37474f"
         id="path111" />
      <path
         d="m 238.6,181.25 c -1.09,-3.31 0.26,-6.85 3.8,-8.89 l 3,-1.73 c 4.78,-2.76 12.54,-2.76 17.32,0 L 400,249.91 a 8.86,8.86 0 0 1 3.06,3.23 l 7.52,-4.34 a 9,9 0 0 0 -3.06,-3.24 L 266.46,164.14 c -7.07,-4.09 -17.74,-4.09 -24.82,0 l -3,1.72 a 15.43,15.43 0 0 0 -7.76,11.14 13.9,13.9 0 0 0 -0.15,2 15.66,15.66 0 0 0 4.49,10.78 l 5.43,-5.18 a 8.8,8.8 0 0 1 -2.05,-3.34"
         style="fill:#455a64"
         id="path113" />
      <path
         d="m 394.34,273 v -16.63 l -137.91,-79.6 a 9.33,9.33 0 0 0 -8.66,0 l -1.5,0.86 a 3.85,3.85 0 0 0 -2.08,3.32 v 28.77 z"
         style="fill:#d2bbe7"
         id="path115" />
      <path
         d="m 394.34,273 v -16.63 l -137.91,-79.6 a 9.33,9.33 0 0 0 -8.66,0 l -1.5,0.86 a 3.85,3.85 0 0 0 -2.08,3.32 v 28.77 z"
         style="opacity:0.2"
         id="path117" />
      <path
         d="m 258.3,173.52 a 13.35,13.35 0 0 0 -12.41,0 l -1.49,0.86 a 7.71,7.71 0 0 0 -3.89,5.54 7,7 0 0 0 -0.07,1 v 4.5 l 3.75,3.92 V 181 a 3.84,3.84 0 0 1 2.08,-3.32 l 1.5,-0.86 a 9.57,9.57 0 0 1 8.66,0 l 137.91,79.6 3.76,-2.17 z"
         style="fill:#d2bbe7"
         id="path119" />
      <path
         d="m 258.3,173.52 a 13.35,13.35 0 0 0 -12.41,0 l -1.49,0.86 a 7.71,7.71 0 0 0 -3.89,5.54 7,7 0 0 0 -0.07,1 v 4.5 l 3.75,3.92 V 181 a 3.84,3.84 0 0 1 2.08,-3.32 l 1.5,-0.86 a 9.57,9.57 0 0 1 8.66,0 l 137.91,79.6 3.76,-2.17 z"
         style="opacity:0.3"
         id="path121" />
      <polygon
         points="394.34,256.37 398.1,254.2 398.1,274.9 394.34,272.67 "
         style="fill:#d2bbe7"
         id="polygon123" />
      <polygon
         points="394.34,256.37 398.1,254.2 398.1,274.9 394.34,272.67 "
         style="opacity:0.4"
         id="polygon125" />
      <path
         d="M 399.16,366.34 V 272.92 L 261.63,193.44 a 9.31,9.31 0 0 0 -9.29,0 l -3.48,2 v 89.12 l 146,84.28 a 2.89,2.89 0 0 0 4.3,-2.5 z"
         style="fill:#263238"
         id="path127" />
      <g
         id="freepik--Card--inject-158">
        <g
           id="freepik--card--inject-158">
          <path
             d="m 385.79,362.85 2.36,-1.36 a 3,3 0 0 0 1.34,-2.33 v -96 a 3,3 0 0 0 -1.34,-2.34 l -124.49,-71.9 a 3,3 0 0 0 -2.69,0 l -2.36,1.36 a 3,3 0 0 0 -1.35,2.33 v 96 a 3,3 0 0 0 1.34,2.33 l 124.5,71.91 a 3,3 0 0 0 2.69,0 z"
             style="fill:#d2bbe7"
             id="path129" />
          <path
             d="m 385.79,362.85 2.36,-1.36 a 3,3 0 0 0 1.34,-2.33 v -96 a 3,3 0 0 0 -1.34,-2.34 l -124.49,-71.9 a 3,3 0 0 0 -2.69,0 l -2.36,1.36 a 3,3 0 0 0 -1.35,2.33 v 96 a 3,3 0 0 0 1.34,2.33 l 124.5,71.91 a 3,3 0 0 0 2.69,0 z"
             style="opacity:0.7;fill:#ffffff"
             id="path131" />
          <path
             d="M 383.1,263.72 258.61,191.83 c -0.74,-0.43 -1.35,-0.08 -1.35,0.78 v 96 a 3,3 0 0 0 1.34,2.33 l 124.5,71.91 c 0.74,0.43 1.34,0.08 1.34,-0.77 v -96 a 3,3 0 0 0 -1.34,-2.36 z"
             style="fill:#d2bbe7"
             id="path133" />
          <path
             d="M 383.1,263.72 258.61,191.83 c -0.74,-0.43 -1.35,-0.08 -1.35,0.78 v 96 a 3,3 0 0 0 1.34,2.33 l 124.5,71.91 c 0.74,0.43 1.34,0.08 1.34,-0.77 v -96 a 3,3 0 0 0 -1.34,-2.36 z"
             style="fill:#d2bbe7"
             id="path135" />
          <path
             d="M 383.1,263.72 258.61,191.83 c -0.74,-0.43 -1.35,-0.08 -1.35,0.78 v 96 a 3,3 0 0 0 1.34,2.33 l 124.5,71.91 c 0.74,0.43 1.34,0.08 1.34,-0.77 v -96 a 3,3 0 0 0 -1.34,-2.36 z"
             style="opacity:0.5;fill:#ffffff"
             id="path137" />
          <path
             d="m 258.61,191.83 c 10.22,6.27 20.51,12.39 30.83,18.49 l 31,18.12 31.21,17.82 15.67,8.8 15.75,8.66 -15.38,-9.31 -15.45,-9.18 -31,-18.12 L 290,209.29 c -10.41,-5.88 -20.86,-11.74 -31.39,-17.46 z"
             style="fill:#ffffff"
             id="path139" />
          <path
             d="m 384,264.72 5,-2.91 a 2.59,2.59 0 0 1 0.4,1.32 v 96 a 3,3 0 0 1 -1.33,2.34 l -2.36,1.36 a 3,3 0 0 1 -2.43,0.12 c 0.62,0.2 1.08,-0.16 1.08,-0.91 v -96 A 2.6,2.6 0 0 0 384,264.72 Z"
             style="fill:#d2bbe7"
             id="path141" />
          <polygon
             points="384.44,277.01 389.49,274.1 389.49,299.2 384.44,302.08 "
             style="fill:#d2bbe7"
             id="polygon143" />
          <polygon
             points="384.44,277.01 389.49,274.1 389.49,299.2 384.44,302.08 "
             style="opacity:0.2"
             id="polygon145" />
        </g>
        <polygon
           points="257.26,203.56 384.44,277.01 384.44,302.08 257.26,228.63 "
           style="opacity:0.2"
           id="polygon148" />
        <g
           id="freepik--Cards--inject-158">
          <path
             d="m 376.59,331.88 v 16.41 c 0,1.23 -0.86,1.73 -1.93,1.12 l -17.23,-9.82 a 4.26,4.26 0 0 1 -1.93,-3.34 v -16.41 c 0,-1.23 0.87,-1.73 1.93,-1.11 4.7,2.71 12.53,7.1 17.23,9.81 a 4.26,4.26 0 0 1 1.93,3.34 z"
             style="fill:#455a64"
             id="path150" />
          <g
             clip-path="url(#freepik--clip-path--inject-158)"
             id="g160">
            <polygon
               points="379.98,338.38 380.42,337.62 352.11,321.41 351.67,322.16 "
               style="fill:#ffffff"
               id="polygon152" />
            <rect
               x="368.92999"
               y="331.73999"
               width="0.87"
               height="8.3599997"
               style="fill:#ffffff"
               id="rect154" />
            <rect
               x="362.29001"
               y="328.07999"
               width="0.87"
               height="8.3500004"
               style="fill:#ffffff"
               id="rect156" />
            <polygon
               points="379.98,346.76 380.42,346 352.11,329.79 351.67,330.54 "
               style="fill:#ffffff"
               id="polygon158" />
          </g>
          <path
             d="m 309.74,248.85 a 9.4,9.4 0 0 1 -1.05,-4.5 c 0,-1.69 0.34,-2.79 1,-3.29 0.66,-0.5 1.67,-0.37 3,0.37 a 8.65,8.65 0 0 1 1.46,1.06 6.78,6.78 0 0 1 1.11,1.25 0.51,0.51 0 0 1 0.11,0.3 0.37,0.37 0 0 1 -0.06,0.21 l -0.39,0.68 c -0.05,0.07 -0.1,0.1 -0.16,0.07 a 1,1 0 0 1 -0.18,-0.2 5.75,5.75 0 0 0 -1.67,-1.49 q -1.14,-0.66 -1.77,-0.15 a 2.9,2.9 0 0 0 -0.63,2.24 6.32,6.32 0 0 0 0.66,3 4.57,4.57 0 0 0 1.79,1.9 2.75,2.75 0 0 0 1.75,0.48 0.37,0.37 0 0 1 0.19,0 0.53,0.53 0 0 1 0.15,0.25 l 0.43,1.24 a 0.71,0.71 0 0 1 0,0.2 c 0,0.06 0,0.11 -0.14,0.15 -0.57,0.21 -1.46,0 -2.66,-0.72 a 7.76,7.76 0 0 1 -2.94,-3.05 z"
             style="fill:#455a64"
             id="path162" />
          <path
             d="m 316.52,253.73 a 1.15,1.15 0 0 1 -0.12,-0.55 v -8.73 q 0,-0.33 0.12,-0.42 c 0.07,-0.07 0.2,-0.05 0.38,0.06 l 2.79,1.61 a 5.29,5.29 0 0 1 2.81,4.89 3.09,3.09 0 0 1 -0.33,1.59 1.1,1.1 0 0 1 -1,0.54 l 1.16,4.06 a 1,1 0 0 1 0,0.22 c 0,0.18 -0.08,0.23 -0.23,0.14 l -1.23,-0.71 a 0.75,0.75 0 0 1 -0.23,-0.19 0.7,0.7 0 0 1 -0.13,-0.3 l -1,-3.83 -1.32,-0.76 v 2.89 c 0,0.21 0,0.35 -0.11,0.41 -0.11,0.06 -0.2,0 -0.38,-0.07 l -0.83,-0.47 a 0.92,0.92 0 0 1 -0.35,-0.38 z m 2.91,-3.44 c 0.42,0.24 0.73,0.31 0.94,0.19 0.21,-0.12 0.32,-0.42 0.32,-0.93 a 2.65,2.65 0 0 0 -0.29,-1.29 2.2,2.2 0 0 0 -0.86,-0.85 l -1.32,-0.76 v 2.95 z"
             style="fill:#455a64"
             id="path164" />
          <path
             d="m 323.52,257.78 a 1.28,1.28 0 0 1 -0.11,-0.55 v -8.74 a 0.6,0.6 0 0 1 0.11,-0.42 c 0.08,-0.06 0.21,0 0.38,0.06 l 4.59,2.65 a 0.9,0.9 0 0 1 0.37,0.35 1.3,1.3 0 0 1 0.09,0.53 v 0.55 a 0.66,0.66 0 0 1 -0.09,0.43 c -0.07,0.06 -0.19,0 -0.37,-0.06 l -3.26,-1.89 V 253 l 2.28,1.32 a 0.87,0.87 0 0 1 0.36,0.35 1.14,1.14 0 0 1 0.1,0.53 v 0.52 c 0,0.22 0,0.37 -0.1,0.43 -0.1,0.06 -0.19,0 -0.36,-0.07 l -2.28,-1.31 v 2.34 l 3.25,1.88 a 0.78,0.78 0 0 1 0.36,0.36 1.16,1.16 0 0 1 0.1,0.54 v 0.53 c 0,0.23 0,0.37 -0.1,0.42 -0.1,0.05 -0.18,0 -0.36,-0.07 l -4.58,-2.64 a 1,1 0 0 1 -0.38,-0.35 z"
             style="fill:#455a64"
             id="path166" />
          <path
             d="m 329.87,261.44 a 1.15,1.15 0 0 1 -0.12,-0.55 v -8.74 a 0.55,0.55 0 0 1 0.12,-0.42 c 0.07,-0.06 0.2,0 0.38,0.06 l 2.32,1.34 a 7.46,7.46 0 0 1 2.87,2.87 8.85,8.85 0 0 1 1,4.37 q 0,2.56 -1,3.21 c -0.66,0.43 -1.62,0.29 -2.86,-0.43 l -2.32,-1.34 a 0.85,0.85 0 0 1 -0.39,-0.37 z m 2.79,0 q 1,0.57 1.47,0.12 a 3.32,3.32 0 0 0 0.48,-2.22 6.53,6.53 0 0 0 -0.48,-2.77 3.65,3.65 0 0 0 -1.47,-1.57 l -1.09,-0.62 v 6.44 z"
             style="fill:#455a64"
             id="path168" />
          <path
             d="m 337.45,265.81 a 1.11,1.11 0 0 1 -0.12,-0.54 v -8.74 a 0.55,0.55 0 0 1 0.12,-0.42 c 0.07,-0.06 0.2,0 0.38,0.06 l 0.83,0.48 a 0.87,0.87 0 0 1 0.38,0.38 1.12,1.12 0 0 1 0.11,0.55 v 8.74 c 0,0.22 0,0.36 -0.11,0.42 -0.11,0.06 -0.2,0 -0.38,-0.07 l -0.83,-0.48 a 0.87,0.87 0 0 1 -0.38,-0.38 z"
             style="fill:#455a64"
             id="path170" />
          <path
             d="m 342.23,268.58 a 1.15,1.15 0 0 1 -0.11,-0.55 v -7.59 l -1.82,-1 a 1,1 0 0 1 -0.36,-0.35 1.18,1.18 0 0 1 -0.1,-0.54 V 258 c 0,-0.22 0,-0.36 0.1,-0.42 0.1,-0.06 0.19,0 0.36,0.06 l 5.46,3.15 a 0.86,0.86 0 0 1 0.37,0.36 1.22,1.22 0 0 1 0.11,0.55 v 0.54 c 0,0.22 0,0.36 -0.11,0.41 -0.11,0.05 -0.19,0 -0.37,-0.06 L 344,261.5 v 7.59 c 0,0.22 0,0.35 -0.12,0.41 -0.12,0.06 -0.2,0 -0.39,-0.07 l -0.82,-0.47 a 1,1 0 0 1 -0.44,-0.38 z"
             style="fill:#455a64"
             id="path172" />
          <path
             d="m 351.74,273.09 a 9.22,9.22 0 0 1 -1.06,-4.49 c 0,-1.7 0.34,-2.8 1,-3.29 0.66,-0.49 1.68,-0.38 3,0.36 a 8.41,8.41 0 0 1 1.46,1.06 7.12,7.12 0 0 1 1.11,1.25 0.46,0.46 0 0 1 0.11,0.3 0.35,0.35 0 0 1 -0.06,0.22 l -0.39,0.67 c 0,0.08 -0.1,0.1 -0.15,0.07 a 0.66,0.66 0 0 1 -0.19,-0.19 5.53,5.53 0 0 0 -1.67,-1.5 c -0.76,-0.43 -1.35,-0.48 -1.77,-0.14 a 2.89,2.89 0 0 0 -0.63,2.24 6.27,6.27 0 0 0 0.66,3 4.62,4.62 0 0 0 1.8,1.91 2.71,2.71 0 0 0 1.74,0.48 0.28,0.28 0 0 1 0.19,0 0.48,0.48 0 0 1 0.15,0.25 l 0.44,1.23 a 0.68,0.68 0 0 1 0,0.21 c 0,0.06 0,0.1 -0.13,0.14 -0.58,0.22 -1.47,0 -2.67,-0.71 a 7.63,7.63 0 0 1 -2.94,-3.07 z"
             style="fill:#455a64"
             id="path174" />
          <path
             d="m 357.91,277.53 a 0.76,0.76 0 0 1 0,-0.21 l 2.86,-7.44 a 0.43,0.43 0 0 1 0.17,-0.25 0.32,0.32 0 0 1 0.28,0.06 l 0.8,0.47 a 0.71,0.71 0 0 1 0.27,0.24 1.74,1.74 0 0 1 0.16,0.45 l 2.87,10.74 a 1.38,1.38 0 0 1 0,0.25 c 0,0.17 -0.07,0.22 -0.2,0.14 l -1.34,-0.77 a 0.62,0.62 0 0 1 -0.22,-0.2 1.1,1.1 0 0 1 -0.13,-0.32 l -0.51,-2 -2.68,-1.55 -0.5,1.45 c 0,0.1 -0.08,0.16 -0.13,0.17 -0.05,0.01 -0.12,0 -0.23,-0.06 l -1.33,-0.77 a 0.39,0.39 0 0 1 -0.14,-0.4 z m 4.65,-0.8 -0.92,-3.72 -0.92,2.65 z"
             style="fill:#455a64"
             id="path176" />
          <path
             d="m 366.41,282.54 a 1.15,1.15 0 0 1 -0.11,-0.55 v -8.74 a 0.56,0.56 0 0 1 0.11,-0.42 c 0.08,-0.06 0.21,0 0.38,0.06 l 2.8,1.62 a 5.29,5.29 0 0 1 2.81,4.89 2.94,2.94 0 0 1 -0.34,1.58 1.1,1.1 0 0 1 -1,0.55 l 1.16,4.06 a 0.89,0.89 0 0 1 0,0.22 c 0,0.18 -0.07,0.22 -0.23,0.13 l -1.22,-0.71 a 0.79,0.79 0 0 1 -0.24,-0.18 1,1 0 0 1 -0.13,-0.31 l -1,-3.82 -1.31,-0.76 V 283 a 0.57,0.57 0 0 1 -0.11,0.42 c -0.08,0.06 -0.2,0 -0.39,-0.07 l -0.83,-0.48 a 1,1 0 0 1 -0.35,-0.33 z m 2.91,-3.44 c 0.42,0.24 0.74,0.3 0.95,0.19 0.21,-0.11 0.31,-0.43 0.31,-0.94 a 2.61,2.61 0 0 0 -0.28,-1.28 2.32,2.32 0 0 0 -0.87,-0.86 l -1.31,-0.75 v 2.94 z"
             style="fill:#455a64"
             id="path178" />
          <path
             d="m 373.42,286.58 a 1.13,1.13 0 0 1 -0.12,-0.54 v -8.74 q 0,-0.33 0.12,-0.42 c 0.08,-0.06 0.2,0 0.38,0.06 l 2.32,1.34 a 7.37,7.37 0 0 1 2.87,2.86 8.88,8.88 0 0 1 1,4.37 c 0,1.71 -0.33,2.78 -1,3.22 -0.67,0.44 -1.62,0.29 -2.86,-0.43 L 373.8,287 a 0.93,0.93 0 0 1 -0.38,-0.42 z m 2.79,0 q 1,0.57 1.47,0.12 c 0.32,-0.29 0.48,-1 0.48,-2.21 a 6.5,6.5 0 0 0 -0.48,-2.77 3.6,3.6 0 0 0 -1.47,-1.57 l -1.08,-0.63 v 6.44 z"
             style="fill:#455a64"
             id="path180" />
          <g
             style="opacity:0.15"
             id="g202">
            <path
               d="m 309.74,248.85 a 9.4,9.4 0 0 1 -1.05,-4.5 c 0,-1.69 0.34,-2.79 1,-3.29 0.66,-0.5 1.67,-0.37 3,0.37 a 8.65,8.65 0 0 1 1.46,1.06 6.78,6.78 0 0 1 1.11,1.25 0.51,0.51 0 0 1 0.11,0.3 0.37,0.37 0 0 1 -0.06,0.21 l -0.39,0.68 c -0.05,0.07 -0.1,0.1 -0.16,0.07 a 1,1 0 0 1 -0.18,-0.2 5.75,5.75 0 0 0 -1.67,-1.49 q -1.14,-0.66 -1.77,-0.15 a 2.9,2.9 0 0 0 -0.63,2.24 6.32,6.32 0 0 0 0.66,3 4.57,4.57 0 0 0 1.79,1.9 2.75,2.75 0 0 0 1.75,0.48 0.37,0.37 0 0 1 0.19,0 0.53,0.53 0 0 1 0.15,0.25 l 0.43,1.24 a 0.71,0.71 0 0 1 0,0.2 c 0,0.06 0,0.11 -0.14,0.15 -0.57,0.21 -1.46,0 -2.66,-0.72 a 7.76,7.76 0 0 1 -2.94,-3.05 z"
               style="fill:#455a64"
               id="path182" />
            <path
               d="m 316.52,253.73 a 1.15,1.15 0 0 1 -0.12,-0.55 v -8.73 q 0,-0.33 0.12,-0.42 c 0.07,-0.07 0.2,-0.05 0.38,0.06 l 2.79,1.61 a 5.29,5.29 0 0 1 2.81,4.89 3.09,3.09 0 0 1 -0.33,1.59 1.1,1.1 0 0 1 -1,0.54 l 1.16,4.06 a 1,1 0 0 1 0,0.22 c 0,0.18 -0.08,0.23 -0.23,0.14 l -1.23,-0.71 a 0.75,0.75 0 0 1 -0.23,-0.19 0.7,0.7 0 0 1 -0.13,-0.3 l -1,-3.83 -1.32,-0.76 v 2.89 c 0,0.21 0,0.35 -0.11,0.41 -0.11,0.06 -0.2,0 -0.38,-0.07 l -0.83,-0.47 a 0.92,0.92 0 0 1 -0.35,-0.38 z m 2.91,-3.44 c 0.42,0.24 0.73,0.31 0.94,0.19 0.21,-0.12 0.32,-0.42 0.32,-0.93 a 2.65,2.65 0 0 0 -0.29,-1.29 2.2,2.2 0 0 0 -0.86,-0.85 l -1.32,-0.76 v 2.95 z"
               style="fill:#455a64"
               id="path184" />
            <path
               d="m 323.52,257.78 a 1.28,1.28 0 0 1 -0.11,-0.55 v -8.74 a 0.6,0.6 0 0 1 0.11,-0.42 c 0.08,-0.06 0.21,0 0.38,0.06 l 4.59,2.65 a 0.9,0.9 0 0 1 0.37,0.35 1.3,1.3 0 0 1 0.09,0.53 v 0.55 a 0.66,0.66 0 0 1 -0.09,0.43 c -0.07,0.06 -0.19,0 -0.37,-0.06 l -3.26,-1.89 V 253 l 2.28,1.32 a 0.87,0.87 0 0 1 0.36,0.35 1.14,1.14 0 0 1 0.1,0.53 v 0.52 c 0,0.22 0,0.37 -0.1,0.43 -0.1,0.06 -0.19,0 -0.36,-0.07 l -2.28,-1.31 v 2.34 l 3.25,1.88 a 0.78,0.78 0 0 1 0.36,0.36 1.16,1.16 0 0 1 0.1,0.54 v 0.53 c 0,0.23 0,0.37 -0.1,0.42 -0.1,0.05 -0.18,0 -0.36,-0.07 l -4.58,-2.64 a 1,1 0 0 1 -0.38,-0.35 z"
               style="fill:#455a64"
               id="path186" />
            <path
               d="m 329.87,261.44 a 1.15,1.15 0 0 1 -0.12,-0.55 v -8.74 a 0.55,0.55 0 0 1 0.12,-0.42 c 0.07,-0.06 0.2,0 0.38,0.06 l 2.32,1.34 a 7.46,7.46 0 0 1 2.87,2.87 8.85,8.85 0 0 1 1,4.37 q 0,2.56 -1,3.21 c -0.66,0.43 -1.62,0.29 -2.86,-0.43 l -2.32,-1.34 a 0.85,0.85 0 0 1 -0.39,-0.37 z m 2.79,0 q 1,0.57 1.47,0.12 a 3.32,3.32 0 0 0 0.48,-2.22 6.53,6.53 0 0 0 -0.48,-2.77 3.65,3.65 0 0 0 -1.47,-1.57 l -1.09,-0.62 v 6.44 z"
               style="fill:#455a64"
               id="path188" />
            <path
               d="m 337.45,265.81 a 1.11,1.11 0 0 1 -0.12,-0.54 v -8.74 a 0.55,0.55 0 0 1 0.12,-0.42 c 0.07,-0.06 0.2,0 0.38,0.06 l 0.83,0.48 a 0.87,0.87 0 0 1 0.38,0.38 1.12,1.12 0 0 1 0.11,0.55 v 8.74 c 0,0.22 0,0.36 -0.11,0.42 -0.11,0.06 -0.2,0 -0.38,-0.07 l -0.83,-0.48 a 0.87,0.87 0 0 1 -0.38,-0.38 z"
               style="fill:#455a64"
               id="path190" />
            <path
               d="m 342.23,268.58 a 1.15,1.15 0 0 1 -0.11,-0.55 v -7.59 l -1.82,-1 a 1,1 0 0 1 -0.36,-0.35 1.18,1.18 0 0 1 -0.1,-0.54 V 258 c 0,-0.22 0,-0.36 0.1,-0.42 0.1,-0.06 0.19,0 0.36,0.06 l 5.46,3.15 a 0.86,0.86 0 0 1 0.37,0.36 1.22,1.22 0 0 1 0.11,0.55 v 0.54 c 0,0.22 0,0.36 -0.11,0.41 -0.11,0.05 -0.19,0 -0.37,-0.06 L 344,261.5 v 7.59 c 0,0.22 0,0.35 -0.12,0.41 -0.12,0.06 -0.2,0 -0.39,-0.07 l -0.82,-0.47 a 1,1 0 0 1 -0.44,-0.38 z"
               style="fill:#455a64"
               id="path192" />
            <path
               d="m 351.74,273.09 a 9.22,9.22 0 0 1 -1.06,-4.49 c 0,-1.7 0.34,-2.8 1,-3.29 0.66,-0.49 1.68,-0.38 3,0.36 a 8.41,8.41 0 0 1 1.46,1.06 7.12,7.12 0 0 1 1.11,1.25 0.46,0.46 0 0 1 0.11,0.3 0.35,0.35 0 0 1 -0.06,0.22 l -0.39,0.67 c 0,0.08 -0.1,0.1 -0.15,0.07 a 0.66,0.66 0 0 1 -0.19,-0.19 5.53,5.53 0 0 0 -1.67,-1.5 c -0.76,-0.43 -1.35,-0.48 -1.77,-0.14 a 2.89,2.89 0 0 0 -0.63,2.24 6.27,6.27 0 0 0 0.66,3 4.62,4.62 0 0 0 1.8,1.91 2.71,2.71 0 0 0 1.74,0.48 0.28,0.28 0 0 1 0.19,0 0.48,0.48 0 0 1 0.15,0.25 l 0.44,1.23 a 0.68,0.68 0 0 1 0,0.21 c 0,0.06 0,0.1 -0.13,0.14 -0.58,0.22 -1.47,0 -2.67,-0.71 a 7.63,7.63 0 0 1 -2.94,-3.07 z"
               style="fill:#455a64"
               id="path194" />
            <path
               d="m 357.91,277.53 a 0.76,0.76 0 0 1 0,-0.21 l 2.86,-7.44 a 0.43,0.43 0 0 1 0.17,-0.25 0.32,0.32 0 0 1 0.28,0.06 l 0.8,0.47 a 0.71,0.71 0 0 1 0.27,0.24 1.74,1.74 0 0 1 0.16,0.45 l 2.87,10.74 a 1.38,1.38 0 0 1 0,0.25 c 0,0.17 -0.07,0.22 -0.2,0.14 l -1.34,-0.77 a 0.62,0.62 0 0 1 -0.22,-0.2 1.1,1.1 0 0 1 -0.13,-0.32 l -0.51,-2 -2.68,-1.55 -0.5,1.45 c 0,0.1 -0.08,0.16 -0.13,0.17 -0.05,0.01 -0.12,0 -0.23,-0.06 l -1.33,-0.77 a 0.39,0.39 0 0 1 -0.14,-0.4 z m 4.65,-0.8 -0.92,-3.72 -0.92,2.65 z"
               style="fill:#455a64"
               id="path196" />
            <path
               d="m 366.41,282.54 a 1.15,1.15 0 0 1 -0.11,-0.55 v -8.74 a 0.56,0.56 0 0 1 0.11,-0.42 c 0.08,-0.06 0.21,0 0.38,0.06 l 2.8,1.62 a 5.29,5.29 0 0 1 2.81,4.89 2.94,2.94 0 0 1 -0.34,1.58 1.1,1.1 0 0 1 -1,0.55 l 1.16,4.06 a 0.89,0.89 0 0 1 0,0.22 c 0,0.18 -0.07,0.22 -0.23,0.13 l -1.22,-0.71 a 0.79,0.79 0 0 1 -0.24,-0.18 1,1 0 0 1 -0.13,-0.31 l -1,-3.82 -1.31,-0.76 V 283 a 0.57,0.57 0 0 1 -0.11,0.42 c -0.08,0.06 -0.2,0 -0.39,-0.07 l -0.83,-0.48 a 1,1 0 0 1 -0.35,-0.33 z m 2.91,-3.44 c 0.42,0.24 0.74,0.3 0.95,0.19 0.21,-0.11 0.31,-0.43 0.31,-0.94 a 2.61,2.61 0 0 0 -0.28,-1.28 2.32,2.32 0 0 0 -0.87,-0.86 l -1.31,-0.75 v 2.94 z"
               style="fill:#455a64"
               id="path198" />
            <path
               d="m 373.42,286.58 a 1.13,1.13 0 0 1 -0.12,-0.54 v -8.74 q 0,-0.33 0.12,-0.42 c 0.08,-0.06 0.2,0 0.38,0.06 l 2.32,1.34 a 7.37,7.37 0 0 1 2.87,2.86 8.88,8.88 0 0 1 1,4.37 c 0,1.71 -0.33,2.78 -1,3.22 -0.67,0.44 -1.62,0.29 -2.86,-0.43 L 373.8,287 a 0.93,0.93 0 0 1 -0.38,-0.42 z m 2.79,0 q 1,0.57 1.47,0.12 c 0.32,-0.29 0.48,-1 0.48,-2.21 a 6.5,6.5 0 0 0 -0.48,-2.77 3.6,3.6 0 0 0 -1.47,-1.57 l -1.08,-0.63 v 6.44 z"
               style="fill:#455a64"
               id="path200" />
          </g>
          <path
             d="m 275.78,269.19 4.91,2.84 a 2.53,2.53 0 0 1 1.16,2 v 1.5 c 0,0.74 -0.52,1 -1.16,0.67 l -4.91,-2.84 a 2.55,2.55 0 0 1 -1.16,-2 v -1.5 c 0,-0.74 0.52,-1.04 1.16,-0.67 z"
             style="fill:#d2bbe7"
             id="path204" />
          <path
             d="m 264.94,262.93 4.91,2.84 a 2.55,2.55 0 0 1 1.16,2 v 1.5 c 0,0.74 -0.52,1 -1.16,0.67 l -4.91,-2.84 a 2.55,2.55 0 0 1 -1.16,-2 v -1.5 c 0,-0.74 0.52,-1.04 1.16,-0.67 z"
             style="fill:#d2bbe7"
             id="path206" />
          <path
             d="m 327,309.19 -61.2,-35.33 c -1.06,-0.62 -1.92,-0.12 -1.92,1.11 v 1.81 a 4.27,4.27 0 0 0 1.92,3.34 l 61.2,35.32 c 1.07,0.62 1.93,0.12 1.93,-1.11 v -1.81 A 4.22,4.22 0 0 0 327,309.19 Z"
             style="fill:#d2bbe7"
             id="path208" />
          <path
             d="m 275.78,269.19 4.91,2.84 a 2.53,2.53 0 0 1 1.16,2 v 1.5 c 0,0.74 -0.52,1 -1.16,0.67 l -4.91,-2.84 a 2.55,2.55 0 0 1 -1.16,-2 v -1.5 c 0,-0.74 0.52,-1.04 1.16,-0.67 z"
             style="fill:#455a64"
             id="path210" />
          <path
             d="m 264.94,262.93 4.91,2.84 a 2.55,2.55 0 0 1 1.16,2 v 1.5 c 0,0.74 -0.52,1 -1.16,0.67 l -4.91,-2.84 a 2.55,2.55 0 0 1 -1.16,-2 v -1.5 c 0,-0.74 0.52,-1.04 1.16,-0.67 z"
             style="fill:#455a64"
             id="path212" />
          <path
             d="m 327,309.19 -61.2,-35.33 c -1.06,-0.62 -1.92,-0.12 -1.92,1.11 v 1.81 a 4.27,4.27 0 0 0 1.92,3.34 l 61.2,35.32 c 1.07,0.62 1.93,0.12 1.93,-1.11 v -1.81 A 4.22,4.22 0 0 0 327,309.19 Z"
             style="fill:#455a64"
             id="path214" />
          <path
             d="m 265,245.89 0.23,0.13 a 3,3 0 0 1 1.25,2.4 v 4.82 c 0,0.92 -0.56,1.36 -1.27,1 l -0.19,-0.1 a 2.9,2.9 0 0 1 -1.27,-2.36 v -4.92 c 0.03,-0.94 0.59,-1.37 1.25,-0.97 z"
             style="fill:#fafafa"
             id="path216" />
          <path
             d="m 271.5,249.65 0.22,0.13 a 3,3 0 0 1 1.26,2.39 V 257 c 0,0.93 -0.57,1.37 -1.27,1 l -0.2,-0.11 a 2.89,2.89 0 0 1 -1.27,-2.36 v -4.93 c 0,-0.93 0.56,-1.35 1.26,-0.95 z"
             style="fill:#fafafa"
             id="path218" />
          <path
             d="m 278,253.4 0.23,0.13 a 3,3 0 0 1 1.25,2.4 v 4.82 c 0,0.92 -0.57,1.36 -1.27,1 l -0.19,-0.1 a 2.88,2.88 0 0 1 -1.27,-2.36 v -4.92 c -0.04,-0.94 0.52,-1.37 1.25,-0.97 z"
             style="fill:#fafafa"
             id="path220" />
          <path
             d="m 284.42,257.16 0.23,0.13 a 3,3 0 0 1 1.25,2.39 v 4.82 c 0,0.93 -0.57,1.37 -1.27,1 l -0.19,-0.11 a 2.9,2.9 0 0 1 -1.27,-2.36 v -4.93 c 0,-0.92 0.56,-1.34 1.25,-0.94 z"
             style="fill:#fafafa"
             id="path222" />
          <path
             d="m 295.26,263.34 0.23,0.13 a 3,3 0 0 1 1.25,2.4 v 4.82 c 0,0.92 -0.57,1.36 -1.27,1 l -0.19,-0.1 a 2.9,2.9 0 0 1 -1.27,-2.36 v -4.92 c -0.01,-0.94 0.56,-1.37 1.25,-0.97 z"
             style="fill:#fafafa"
             id="path224" />
          <path
             d="m 301.72,267.1 0.23,0.13 a 3,3 0 0 1 1.25,2.39 v 4.82 c 0,0.92 -0.57,1.36 -1.27,1 l -0.2,-0.1 a 2.9,2.9 0 0 1 -1.27,-2.36 V 268 c 0.01,-0.88 0.54,-1.3 1.26,-0.9 z"
             style="fill:#fafafa"
             id="path226" />
          <path
             d="m 308.19,270.85 0.22,0.13 a 3,3 0 0 1 1.26,2.4 v 4.82 c 0,0.92 -0.57,1.36 -1.27,1 l -0.2,-0.11 a 2.89,2.89 0 0 1 -1.27,-2.35 v -4.94 c 0,-0.92 0.56,-1.35 1.26,-0.95 z"
             style="fill:#fafafa"
             id="path228" />
          <path
             d="m 314.65,274.61 0.23,0.13 a 3,3 0 0 1 1.25,2.39 V 282 c 0,0.92 -0.57,1.36 -1.27,1 l -0.19,-0.1 a 2.9,2.9 0 0 1 -1.27,-2.36 v -4.92 c 0,-0.99 0.6,-1.41 1.25,-1.01 z"
             style="fill:#fafafa"
             id="path230" />
          <path
             d="m 325.49,280.79 0.23,0.13 a 3,3 0 0 1 1.25,2.4 v 4.82 c 0,0.92 -0.57,1.36 -1.27,1 l -0.19,-0.11 a 2.89,2.89 0 0 1 -1.27,-2.35 v -4.92 c 0,-0.95 0.56,-1.37 1.25,-0.97 z"
             style="fill:#fafafa"
             id="path232" />
          <path
             d="m 332,284.55 0.23,0.13 a 3,3 0 0 1 1.25,2.39 v 4.82 c 0,0.92 -0.56,1.36 -1.27,1 l -0.19,-0.1 a 2.9,2.9 0 0 1 -1.27,-2.36 v -4.92 c -0.05,-0.94 0.51,-1.36 1.25,-0.96 z"
             style="fill:#fafafa"
             id="path234" />
          <path
             d="m 338.42,288.3 0.22,0.13 a 3,3 0 0 1 1.26,2.4 v 4.81 c 0,0.93 -0.57,1.37 -1.27,1 l -0.2,-0.11 a 2.89,2.89 0 0 1 -1.27,-2.36 v -4.91 c 0,-0.94 0.56,-1.36 1.26,-0.96 z"
             style="fill:#fafafa"
             id="path236" />
          <path
             d="m 344.88,292.05 0.23,0.14 a 3,3 0 0 1 1.25,2.39 v 4.82 c 0,0.92 -0.57,1.36 -1.27,1 l -0.19,-0.1 a 2.88,2.88 0 0 1 -1.27,-2.36 V 293 c -0.01,-0.92 0.56,-1.35 1.25,-0.95 z"
             style="fill:#fafafa"
             id="path238" />
          <path
             d="m 355.72,298.24 0.23,0.13 a 3,3 0 0 1 1.25,2.4 v 4.81 c 0,0.93 -0.57,1.37 -1.27,1 l -0.19,-0.11 a 2.86,2.86 0 0 1 -1.27,-2.36 v -4.91 c 0,-0.94 0.53,-1.36 1.25,-0.96 z"
             style="fill:#fafafa"
             id="path240" />
          <path
             d="m 362.18,302 0.23,0.14 a 3,3 0 0 1 1.25,2.39 v 4.82 c 0,0.92 -0.57,1.36 -1.27,1 l -0.19,-0.1 a 2.9,2.9 0 0 1 -1.27,-2.36 v -4.92 c 0,-0.97 0.56,-1.38 1.25,-0.97 z"
             style="fill:#fafafa"
             id="path242" />
          <path
             d="m 368.64,305.75 0.23,0.13 a 3,3 0 0 1 1.25,2.39 v 4.82 c 0,0.93 -0.56,1.37 -1.27,1 l -0.19,-0.11 a 2.89,2.89 0 0 1 -1.27,-2.36 v -4.92 c 0,-0.93 0.61,-1.35 1.25,-0.95 z"
             style="fill:#fafafa"
             id="path244" />
          <path
             d="m 375.11,309.5 0.22,0.13 a 3,3 0 0 1 1.26,2.4 v 4.82 c 0,0.92 -0.57,1.36 -1.27,1 l -0.2,-0.1 a 2.9,2.9 0 0 1 -1.27,-2.36 v -4.92 c 0,-0.94 0.56,-1.37 1.26,-0.97 z"
             style="fill:#fafafa"
             id="path246" />
        </g>
      </g>
      <path
         d="m 392.43,367.17 c 0,2.75 -1.95,3.87 -4.33,2.5 L 270.84,302 a 9.6,9.6 0 0 1 -4.33,-7.5 v -65.39 l 125.92,72.7 z"
         style="opacity:0.35;fill:#ffffff"
         id="path250" />
      <path
         d="m 235.22,321.1 98.06,102.69 c 1,1.07 2,1.39 2.58,1 0.58,-0.39 0.87,-1.13 0.87,-2.4 V 301.13 a 12.81,12.81 0 0 0 -1,-4.44 13,13 0 0 0 -2.5,-4.17 L 235.22,189.77 A 15.66,15.66 0 0 1 230.73,179 v 131.32 a 15.66,15.66 0 0 0 4.49,10.78 z"
         style="fill:#37474f"
         id="path252" />
      <path
         d="m 237.73,204.54 a 0.5,0.5 0 0 1 -0.5,-0.5 v -1.5 a 0.5,0.5 0 0 1 0.32,-0.46 0.49,0.49 0 0 1 0.54,0.11 l 1,1.09 a 0.5,0.5 0 0 1 0,0.71 0.49,0.49 0 0 1 -0.7,0 l -0.18,-0.18 V 204 a 0.5,0.5 0 0 1 -0.48,0.54 z"
         style="fill:#455a64"
         id="path254" />
      <path
         d="m 329.73,404 a 0.51,0.51 0 0 1 -0.5,-0.5 v -2.95 a 0.5,0.5 0 0 1 0.5,-0.5 0.5,0.5 0 0 1 0.5,0.5 v 2.95 a 0.5,0.5 0 0 1 -0.5,0.5 z m 0,-7.87 a 0.5,0.5 0 0 1 -0.5,-0.5 v -2.93 a 0.5,0.5 0 0 1 0.5,-0.5 0.5,0.5 0 0 1 0.5,0.5 v 2.95 a 0.5,0.5 0 0 1 -0.5,0.5 z m 0,-7.87 a 0.5,0.5 0 0 1 -0.5,-0.5 v -2.95 a 0.5,0.5 0 0 1 0.5,-0.5 0.5,0.5 0 0 1 0.5,0.5 v 2.95 a 0.5,0.5 0 0 1 -0.5,0.52 z m 0,-7.87 a 0.5,0.5 0 0 1 -0.5,-0.5 v -3 a 0.5,0.5 0 0 1 0.5,-0.5 0.5,0.5 0 0 1 0.5,0.5 v 3 a 0.5,0.5 0 0 1 -0.5,0.52 z m 0,-7.87 a 0.5,0.5 0 0 1 -0.5,-0.5 v -3 a 0.5,0.5 0 0 1 0.5,-0.5 0.5,0.5 0 0 1 0.5,0.5 v 3 a 0.5,0.5 0 0 1 -0.5,0.52 z m 0,-7.87 a 0.5,0.5 0 0 1 -0.5,-0.5 v -2.95 a 0.51,0.51 0 0 1 0.5,-0.5 0.5,0.5 0 0 1 0.5,0.5 v 2.95 a 0.5,0.5 0 0 1 -0.5,0.52 z m 0,-7.87 a 0.5,0.5 0 0 1 -0.5,-0.5 v -2.95 a 0.51,0.51 0 0 1 0.5,-0.5 0.5,0.5 0 0 1 0.5,0.5 v 2.95 a 0.5,0.5 0 0 1 -0.5,0.52 z m 0,-7.86 a 0.51,0.51 0 0 1 -0.5,-0.5 v -3 a 0.51,0.51 0 0 1 0.5,-0.5 0.5,0.5 0 0 1 0.5,0.5 v 3 a 0.5,0.5 0 0 1 -0.5,0.52 z m 0,-7.87 a 0.51,0.51 0 0 1 -0.5,-0.5 v -2.95 a 0.5,0.5 0 0 1 0.5,-0.5 0.5,0.5 0 0 1 0.5,0.5 v 2.95 a 0.5,0.5 0 0 1 -0.5,0.52 z m 0,-7.87 a 0.51,0.51 0 0 1 -0.5,-0.5 v -2.95 a 0.5,0.5 0 0 1 0.5,-0.5 0.5,0.5 0 0 1 0.5,0.5 v 2.95 a 0.5,0.5 0 0 1 -0.5,0.52 z m 0,-7.87 a 0.51,0.51 0 0 1 -0.5,-0.5 v -2.95 a 0.5,0.5 0 0 1 0.5,-0.5 0.5,0.5 0 0 1 0.5,0.5 v 2.95 a 0.5,0.5 0 0 1 -0.5,0.52 z m 0,-7.87 a 0.5,0.5 0 0 1 -0.5,-0.5 V 314 a 0.5,0.5 0 0 1 0.5,-0.5 0.5,0.5 0 0 1 0.5,0.5 v 3 a 0.5,0.5 0 0 1 -0.5,0.46 z m 0,-7.87 a 0.5,0.5 0 0 1 -0.5,-0.5 v -2.95 a 0.5,0.5 0 0 1 0.5,-0.5 0.5,0.5 0 0 1 0.5,0.5 v 2.95 a 0.5,0.5 0 0 1 -0.5,0.52 z m 0,-7.91 a 0.47,0.47 0 0 1 -0.5,-0.46 5.59,5.59 0 0 0 -0.44,-1.81 c -0.12,-0.29 -0.23,-0.55 -0.34,-0.77 a 0.49,0.49 0 0 1 0.22,-0.67 0.49,0.49 0 0 1 0.67,0.22 c 0.12,0.25 0.25,0.53 0.38,0.86 a 6.6,6.6 0 0 1 0.51,2.08 0.54,0.54 0 0 1 -0.5,0.57 z m -4,-6.47 a 0.52,0.52 0 0 1 -0.36,-0.16 l -2,-2.13 a 0.50224496,0.50224496 0 1 1 0.73,-0.69 l 2,2.13 a 0.5,0.5 0 0 1 0,0.71 0.52,0.52 0 0 1 -0.41,0.16 z m -5.43,-5.7 a 0.51,0.51 0 0 1 -0.36,-0.15 l -2,-2.14 a 0.5,0.5 0 0 1 0.72,-0.69 l 2,2.14 a 0.5,0.5 0 0 1 -0.36,0.84 z m -5.43,-5.69 a 0.49,0.49 0 0 1 -0.36,-0.15 l -2,-2.14 a 0.5,0.5 0 0 1 0,-0.71 0.49,0.49 0 0 1 0.7,0 l 2,2.14 a 0.5,0.5 0 0 1 -0.36,0.84 z m -5.44,-5.69 A 0.48,0.48 0 0 1 309,278 l -2,-2.13 a 0.5,0.5 0 0 1 0,-0.71 0.5,0.5 0 0 1 0.71,0 l 2,2.13 a 0.5,0.5 0 0 1 0,0.71 0.52,0.52 0 0 1 -0.32,0.13 z M 304,272.44 a 0.52,0.52 0 0 1 -0.36,-0.16 l -2,-2.13 a 0.50224496,0.50224496 0 1 1 0.73,-0.69 l 2,2.13 a 0.5,0.5 0 0 1 0,0.71 0.52,0.52 0 0 1 -0.37,0.14 z m -5.43,-5.7 a 0.51,0.51 0 0 1 -0.36,-0.15 l -2,-2.14 a 0.5,0.5 0 0 1 0.72,-0.69 l 2,2.14 a 0.49,0.49 0 0 1 0,0.7 0.45,0.45 0 0 1 -0.4,0.14 z m -5.43,-5.69 a 0.48,0.48 0 0 1 -0.36,-0.15 l -2,-2.14 a 0.5,0.5 0 1 1 0.72,-0.69 l 2,2.14 a 0.49,0.49 0 0 1 0,0.7 0.51,0.51 0 0 1 -0.4,0.14 z m -5.44,-5.69 a 0.48,0.48 0 0 1 -0.36,-0.16 l -2,-2.13 a 0.50224496,0.50224496 0 1 1 0.73,-0.69 l 2,2.13 a 0.5,0.5 0 0 1 0,0.71 0.52,0.52 0 0 1 -0.41,0.14 z m -5.43,-5.7 a 0.51,0.51 0 0 1 -0.36,-0.15 l -2,-2.13 a 0.5,0.5 0 0 1 0,-0.71 0.49,0.49 0 0 1 0.7,0 l 2,2.13 a 0.5,0.5 0 0 1 0,0.71 0.53,0.53 0 0 1 -0.38,0.15 z M 276.8,244 a 0.49,0.49 0 0 1 -0.36,-0.15 l -2,-2.14 a 0.49,0.49 0 0 1 0,-0.7 0.5,0.5 0 0 1 0.71,0 l 2,2.14 a 0.49,0.49 0 0 1 0,0.7 0.45,0.45 0 0 1 -0.35,0.15 z m -5.44,-5.69 A 0.51,0.51 0 0 1 271,238.16 L 269,236 a 0.5,0.5 0 0 1 0,-0.71 0.5,0.5 0 0 1 0.71,0 l 2,2.14 a 0.49,0.49 0 0 1 0,0.7 0.52,0.52 0 0 1 -0.35,0.15 z m -5.43,-5.69 a 0.48,0.48 0 0 1 -0.36,-0.16 l -2,-2.13 a 0.50224496,0.50224496 0 0 1 0.73,-0.69 l 2,2.13 a 0.5,0.5 0 0 1 0,0.71 0.52,0.52 0 0 1 -0.37,0.11 z m -5.43,-5.69 a 0.52,0.52 0 0 1 -0.36,-0.16 l -2,-2.13 a 0.50209561,0.50209561 0 0 1 0.72,-0.7 l 2,2.14 a 0.5,0.5 0 0 1 0,0.71 0.49,0.49 0 0 1 -0.36,0.11 z m -5.43,-5.7 a 0.51,0.51 0 0 1 -0.37,-0.15 l -2,-2.14 a 0.49,0.49 0 0 1 0,-0.7 0.5,0.5 0 0 1 0.71,0 l 2,2.14 a 0.49,0.49 0 0 1 0,0.7 0.47,0.47 0 0 1 -0.34,0.12 z m -5.44,-5.69 a 0.48,0.48 0 0 1 -0.36,-0.16 l -2,-2.13 a 0.50224496,0.50224496 0 0 1 0.73,-0.69 l 2,2.13 a 0.5,0.5 0 0 1 0,0.71 0.52,0.52 0 0 1 -0.37,0.11 z m -5.43,-5.69 a 0.48,0.48 0 0 1 -0.36,-0.16 l -2,-2.13 a 0.5,0.5 0 0 1 0,-0.71 0.49,0.49 0 0 1 0.7,0 l 2,2.13 a 0.5,0.5 0 0 1 0,0.71 0.49,0.49 0 0 1 -0.34,0.13 z"
         style="fill:#455a64"
         id="path256" />
      <path
         d="m 329.73,410.44 a 0.51,0.51 0 0 1 -0.36,-0.15 l -1,-1.09 a 0.50224496,0.50224496 0 1 1 0.73,-0.69 l 0.17,0.18 v -0.25 a 0.5,0.5 0 0 1 0.5,-0.5 0.5,0.5 0 0 1 0.5,0.5 v 1.5 a 0.48,0.48 0 0 1 -0.31,0.46 0.43,0.43 0 0 1 -0.23,0.04 z"
         style="fill:#455a64"
         id="path258" />
      <path
         d="m 325.19,405.68 a 0.48,0.48 0 0 1 -0.36,-0.15 l -2.11,-2.21 a 0.51,0.51 0 0 1 0,-0.71 0.5,0.5 0 0 1 0.71,0 l 2.11,2.21 a 0.49,0.49 0 0 1 0,0.7 0.51,0.51 0 0 1 -0.35,0.16 z m -5.62,-5.88 a 0.48,0.48 0 0 1 -0.36,-0.16 l -2.11,-2.2 a 0.50224496,0.50224496 0 0 1 0.73,-0.69 l 2.1,2.2 a 0.5,0.5 0 0 1 0,0.71 0.54,0.54 0 0 1 -0.36,0.14 z M 314,393.92 a 0.48,0.48 0 0 1 -0.36,-0.16 l -2.1,-2.2 a 0.5,0.5 0 0 1 0,-0.71 0.5,0.5 0 0 1 0.71,0 l 2.1,2.2 a 0.5,0.5 0 0 1 0,0.71 0.52,0.52 0 0 1 -0.35,0.16 z M 308.34,388 a 0.5,0.5 0 0 1 -0.36,-0.16 l -2.11,-2.21 a 0.5,0.5 0 0 1 0.72,-0.69 l 2.11,2.21 a 0.5,0.5 0 0 1 0,0.71 0.51,0.51 0 0 1 -0.36,0.14 z m -5.62,-5.89 a 0.51,0.51 0 0 1 -0.36,-0.15 l -2.11,-2.21 a 0.49,0.49 0 0 1 0,-0.7 0.5,0.5 0 0 1 0.71,0 l 2.1,2.21 a 0.5,0.5 0 0 1 0,0.71 0.53,0.53 0 0 1 -0.34,0.18 z m -5.62,-5.88 a 0.51,0.51 0 0 1 -0.36,-0.15 l -2.1,-2.21 a 0.5,0.5 0 1 1 0.72,-0.69 l 2.11,2.21 a 0.49,0.49 0 0 1 0,0.7 0.47,0.47 0 0 1 -0.37,0.18 z m -5.61,-5.88 a 0.49,0.49 0 0 1 -0.36,-0.15 L 289,368 a 0.5,0.5 0 0 1 0,-0.71 0.49,0.49 0 0 1 0.7,0 l 2.11,2.2 a 0.5,0.5 0 0 1 0,0.71 0.49,0.49 0 0 1 -0.32,0.19 z m -5.62,-5.88 a 0.48,0.48 0 0 1 -0.36,-0.16 l -2.11,-2.2 a 0.50224496,0.50224496 0 1 1 0.73,-0.69 l 2.1,2.2 a 0.5,0.5 0 0 1 0,0.71 0.52,0.52 0 0 1 -0.36,0.18 z m -5.62,-5.88 a 0.48,0.48 0 0 1 -0.36,-0.16 l -2.1,-2.2 a 0.5,0.5 0 1 1 0.72,-0.69 l 2.11,2.2 a 0.5,0.5 0 0 1 0,0.71 0.52,0.52 0 0 1 -0.37,0.18 z m -5.61,-5.88 a 0.52,0.52 0 0 1 -0.36,-0.16 l -2.11,-2.21 a 0.5,0.5 0 0 1 0.72,-0.69 l 2.11,2.25 a 0.5,0.5 0 0 1 0,0.71 0.49,0.49 0 0 1 -0.36,0.14 z M 269,346.86 a 0.51,0.51 0 0 1 -0.36,-0.15 l -2.11,-2.21 a 0.49,0.49 0 0 1 0,-0.7 0.5,0.5 0 0 1 0.71,0 l 2.1,2.21 a 0.49,0.49 0 0 1 -0.36,0.84 z M 263.41,341 a 0.51,0.51 0 0 1 -0.37,-0.15 l -2.1,-2.21 a 0.5,0.5 0 1 1 0.72,-0.69 l 2.11,2.21 a 0.49,0.49 0 0 1 0,0.7 0.47,0.47 0 0 1 -0.36,0.14 z m -5.62,-5.88 a 0.51,0.51 0 0 1 -0.36,-0.15 l -2.11,-2.21 a 0.5,0.5 0 0 1 0,-0.71 0.49,0.49 0 0 1 0.7,0 l 2.11,2.2 a 0.5,0.5 0 0 1 0,0.71 0.49,0.49 0 0 1 -0.34,0.14 z m -5.62,-5.88 a 0.48,0.48 0 0 1 -0.36,-0.16 l -2.11,-2.2 a 0.50224496,0.50224496 0 1 1 0.73,-0.69 l 2.1,2.2 a 0.5,0.5 0 0 1 0,0.71 0.52,0.52 0 0 1 -0.36,0.12 z m -5.61,-5.88 a 0.49,0.49 0 0 1 -0.37,-0.16 l -2.1,-2.2 a 0.5,0.5 0 1 1 0.72,-0.69 l 2.11,2.2 a 0.5,0.5 0 0 1 0,0.71 0.51,0.51 0 0 1 -0.36,0.12 z m -5.62,-5.88 a 0.52,0.52 0 0 1 -0.36,-0.16 l -0.66,-0.69 a 9.62,9.62 0 0 1 -1.34,-1.74 0.48,0.48 0 0 1 0.16,-0.68 0.49,0.49 0 0 1 0.69,0.16 9.47,9.47 0 0 0 1.22,1.57 l 0.65,0.69 a 0.5,0.5 0 0 1 0,0.71 0.49,0.49 0 0 1 -0.36,0.12 z m -3.21,-7.19 a 0.5,0.5 0 0 1 -0.5,-0.5 v -3 a 0.5,0.5 0 0 1 0.5,-0.5 0.5,0.5 0 0 1 0.5,0.5 v 3 a 0.5,0.5 0 0 1 -0.5,0.48 z m 0,-8.13 a 0.51,0.51 0 0 1 -0.5,-0.5 v -3.05 a 0.5,0.5 0 0 1 0.5,-0.5 0.5,0.5 0 0 1 0.5,0.5 v 3.05 a 0.5,0.5 0 0 1 -0.5,0.48 z m 0,-8.14 a 0.5,0.5 0 0 1 -0.5,-0.5 v -3.05 a 0.51,0.51 0 0 1 0.5,-0.5 0.5,0.5 0 0 1 0.5,0.5 v 3.05 a 0.5,0.5 0 0 1 -0.5,0.48 z m 0,-8.13 a 0.5,0.5 0 0 1 -0.5,-0.5 v -3.05 a 0.51,0.51 0 0 1 0.5,-0.5 0.5,0.5 0 0 1 0.5,0.5 v 3.05 a 0.5,0.5 0 0 1 -0.5,0.48 z m 0,-8.13 a 0.5,0.5 0 0 1 -0.5,-0.5 v -3.05 a 0.5,0.5 0 0 1 0.5,-0.5 0.5,0.5 0 0 1 0.5,0.5 v 3.05 a 0.5,0.5 0 0 1 -0.5,0.48 z m 0,-8.13 a 0.51,0.51 0 0 1 -0.5,-0.5 v -3.05 a 0.5,0.5 0 0 1 0.5,-0.5 0.5,0.5 0 0 1 0.5,0.5 v 3.05 a 0.5,0.5 0 0 1 -0.5,0.48 z m 0,-8.14 a 0.5,0.5 0 0 1 -0.5,-0.5 v -3.05 a 0.51,0.51 0 0 1 0.5,-0.5 0.5,0.5 0 0 1 0.5,0.5 V 261 a 0.5,0.5 0 0 1 -0.5,0.47 z m 0,-8.13 a 0.5,0.5 0 0 1 -0.5,-0.5 v -3.05 a 0.51,0.51 0 0 1 0.5,-0.5 0.5,0.5 0 0 1 0.5,0.5 v 3.05 a 0.5,0.5 0 0 1 -0.5,0.48 z m 0,-8.13 a 0.5,0.5 0 0 1 -0.5,-0.5 v -3.05 a 0.5,0.5 0 0 1 0.5,-0.5 0.5,0.5 0 0 1 0.5,0.5 v 3.05 a 0.5,0.5 0 0 1 -0.5,0.48 z m 0,-8.13 a 0.51,0.51 0 0 1 -0.5,-0.5 v -3.05 a 0.5,0.5 0 0 1 0.5,-0.5 0.5,0.5 0 0 1 0.5,0.5 v 3.05 a 0.5,0.5 0 0 1 -0.5,0.48 z m 0,-8.14 a 0.5,0.5 0 0 1 -0.5,-0.5 v -3.05 a 0.51,0.51 0 0 1 0.5,-0.5 0.5,0.5 0 0 1 0.5,0.5 v 3.05 a 0.5,0.5 0 0 1 -0.5,0.48 z m 0,-8.13 a 0.5,0.5 0 0 1 -0.5,-0.5 v -3.05 a 0.51,0.51 0 0 1 0.5,-0.5 0.5,0.5 0 0 1 0.5,0.5 v 3.05 a 0.5,0.5 0 0 1 -0.5,0.48 z m 0,-8.13 a 0.5,0.5 0 0 1 -0.5,-0.5 v -3.05 a 0.5,0.5 0 0 1 0.5,-0.5 0.5,0.5 0 0 1 0.5,0.5 v 3.05 a 0.5,0.5 0 0 1 -0.5,0.48 z"
         style="fill:#455a64"
         id="path260" />
      <path
         d="m 342.57,292.76 -6.79,3.93 a 12.81,12.81 0 0 1 1,4.44 v 121.28 c 0,1.27 -0.33,2.08 -0.87,2.4 l 6.68,-3.86 c 0.55,-0.31 0.88,-1.13 0.88,-2.4 V 297.27 a 12.37,12.37 0 0 0 -0.9,-4.51 z"
         style="fill:#263238"
         id="path262" />
      <path
         d="m 318.81,343.09 a 16.16,16.16 0 0 0 -3.64,-9.74 c -2,-2.1 -3.64,-1.16 -3.64,2.11 a 16.11,16.11 0 0 0 3.64,9.73 c 2.01,2.11 3.64,1.17 3.64,-2.1 z"
         style="fill:#fafafa"
         id="path264" />
      <polygon
         points="411.87,318.41 411.87,298.95 428.72,308.68 "
         style="fill:#37474f"
         id="polygon266" />
      <path
         d="m 424.66,311 3.79,-2.19 a 2.64,2.64 0 0 0 0,-5 l -16.58,-9.58 V 299 l 11.57,6.68 a 0.82,0.82 0 0 1 0,1.41 l -2.84,1.64 z"
         style="fill:#455a64"
         id="path268" />
      <path
         d="m 400.82,320.1 c -4.78,2.76 -8.66,9.2 -8.66,14.38 0,2.5 0.91,4.25 2.38,5.08 1.47,0.83 4.11,2.37 4.11,2.37 l 25.74,-16.68 a 3,3 0 0 0 1.79,-2.49 V 304 a 3,3 0 0 1 -1.79,2.5 z"
         style="fill:#455a64"
         id="path270" />
      <path
         d="m 404.89,322.44 c -4.79,2.76 -8.66,9.2 -8.66,14.38 0,5.18 3.87,7.14 8.66,4.38 l 23.56,-13.61 a 3.06,3.06 0 0 0 1.8,-2.49 v -18.76 a 3,3 0 0 1 -1.8,2.5 z"
         style="fill:#37474f"
         id="path272" />
      <path
         d="m 406.35,325.25 c 2.75,-1.59 5,-0.3 5,2.87 a 11.07,11.07 0 0 1 -5,8.63 c -2.75,1.59 -5,0.3 -5,-2.88 a 11,11 0 0 1 5,-8.62 z"
         style="fill:#fafafa"
         id="path274" />
      <path
         d="M 340,288.66 240.65,184.59 a 8.8,8.8 0 0 1 -2.05,-3.34 l -3.38,8.52 98.06,102.75 a 13.28,13.28 0 0 1 2.5,4.17 l 6.79,-3.93 a 12.45,12.45 0 0 0 -2.57,-4.1 z"
         style="fill:#455a64"
         id="path276" />
    </g>
  </g>
  <g
     id="g297">
    <g
       id="g295">
      <g
         id="freepik--speech-bubble--inject-158">
        <path
           d="M338.12,165.29l5.25-9.88-4.22-12.2v-7.47l12.93,7.47v7.47l-5.56,9.63a.78.78,0,0,1-.38.34h0Z"
           style="fill:#263238"
           id="path280" />
        <path
           d="M302.82,73.94a8.59,8.59,0,0,1,3.88-6.72l3.16-1.82a8.54,8.54,0,0,1,7.75,0l61.17,35.15a8.59,8.59,0,0,1,3.88,6.72v53.28a8.58,8.58,0,0,1-3.88,6.72l-3.16,1.82a8.54,8.54,0,0,1-7.75,0L344,155.38,338.41,165a.83.83,0,0,1-1.5-.15l-5.86-16.93-24.35-14a8.56,8.56,0,0,1-3.88-6.72Z"
           style="fill:#37474f"
           id="path282" />
        <path
           d="M382.66,160.55a8.58,8.58,0,0,1-3.88,6.72l-3.16,1.82a8.66,8.66,0,0,1-7.09.32c1.82.69,3.21-.34,3.21-2.56V113.57a7.9,7.9,0,0,0-1.13-3.82l10.91-6.3a7.92,7.92,0,0,1,1.14,3.82Z"
           style="fill:#263238"
           id="path284" />
        <path
           d="M303,72.84c.45-1.65,1.95-2.17,3.74-1.14l61.18,35.16a7.63,7.63,0,0,1,2.73,2.89l10.91-6.29a7.81,7.81,0,0,0-2.73-2.9L317.62,65.4a8.62,8.62,0,0,0-7.76,0l-3.17,1.83A8.57,8.57,0,0,0,303,72.84Z"
           style="fill:#455a64"
           id="path286" />
      </g>
      <path
         d="M361,115.88,316.28,90.06c-.88-.51-1.6-.09-1.6.92v30.9a3.54,3.54,0,0,0,1.6,2.76L361,150.46c.88.51,1.6.1,1.6-.92V118.65A3.54,3.54,0,0,0,361,115.88Z"
         style="fill:#D2BBE7"
         id="path289" />
      <path
         d="M356.33,145.1a.79.79,0,0,1-.37-.1l-36.48-21.07a.73.73,0,0,1-.37-.64,3.7,3.7,0,0,0-1.85-3.19.75.75,0,0,1-.37-.64V98.08a.76.76,0,0,1,.37-.64.75.75,0,0,1,.74,0,1.48,1.48,0,0,0,2.21-1.28.72.72,0,0,1,.37-.63.7.7,0,0,1,.74,0l36.48,21.06a.74.74,0,0,1,.37.64,3.69,3.69,0,0,0,1.85,3.19.75.75,0,0,1,.36.64v21.38a.74.74,0,0,1-1.1.64,1.47,1.47,0,0,0-2.21,1.28.74.74,0,0,1-.37.64A.82.82,0,0,1,356.33,145.1Zm-35.77-22.24,35.26,20.35a2.87,2.87,0,0,1,1.25-1.4,2.94,2.94,0,0,1,1.84-.38v-20a5.17,5.17,0,0,1-2.19-3.79L321.46,97.31a3,3,0,0,1-3.09,1.78v20A5.19,5.19,0,0,1,320.56,122.86Z"
         style="fill:#455a64"
         id="path291" />
      <path
         d="M341.59,129.52a6.72,6.72,0,0,1-3.32-1,15.43,15.43,0,0,1-7-12.07c0-2.31.82-4,2.3-4.91s3.41-.69,5.41.46a15.45,15.45,0,0,1,7,12.07c0,2.31-.82,4.06-2.31,4.91A4.11,4.11,0,0,1,341.59,129.52Zm-5.89-17.05a2.67,2.67,0,0,0-1.36.35c-1,.58-1.56,1.87-1.56,3.63A13.77,13.77,0,0,0,339,127.24c1.52.88,2.92,1,3.93.47s1.56-1.88,1.56-3.64a13.77,13.77,0,0,0-6.23-10.79A5.31,5.31,0,0,0,335.7,112.47Z"
         style="fill:#455a64"
         id="path293" />
    </g>
  </g>
  <g
     id="freepik--Coin--inject-158">
    <g
       id="freepik--coin--inject-158">
      <path
         d="M83.26,50.54c-3.48-2-8.06-2-13.23.52C57.82,56.94,47,74.36,45.79,90c-.67,8.84,1.91,15.2,6.49,18,1.17.71,5.72,3.29,6.8,3.94,3.5,2.07,8.15,2.09,13.4-.43,12.21-5.88,23.07-23.3,24.24-38.9.68-9-2-15.39-6.7-18.11C88.9,53.8,84.41,51.19,83.26,50.54Z"
         style="fill:#D2BBE7"
         id="path299" />
      <path
         d="M83.26,50.54c-3.48-2-8.06-2-13.23.52C57.82,56.94,47,74.36,45.79,90c-.67,8.84,1.91,15.2,6.49,18,1.17.71,5.72,3.29,6.8,3.94,3.5,2.07,8.15,2.09,13.4-.43,12.21-5.88,23.07-23.3,24.24-38.9.68-9-2-15.39-6.7-18.11C88.9,53.8,84.41,51.19,83.26,50.54Z"
         style="opacity:0.25"
         id="path301" />
      <path
         d="M94.9,82.1,58.11,60.86c-6.68,8-11.56,18.94-12.32,29.1-.67,8.84,1.91,15.2,6.49,18,1.17.71,5.72,3.29,6.8,3.94,3.5,2.07,8.15,2.09,13.4-.43C82.23,106.76,91.11,94.71,94.9,82.1Z"
         style="opacity:0.1"
         id="path303" />
      <path
         d="M47.82,79.75a45.49,45.49,0,0,0-2,10.21c-.67,8.84,1.91,15.2,6.49,18,1.17.71,5.72,3.29,6.8,3.94,3.5,2.07,8.15,2.09,13.4-.43a37.6,37.6,0,0,0,12.36-10.33Z"
         style="opacity:0.1"
         id="path305" />
      <path
         d="M76.74,54.93c-12.22,5.88-23.07,23.3-24.25,38.91s7.77,23.49,20,17.62,23.07-23.3,24.25-38.9S89,49.06,76.74,54.93Z"
         style="fill:#D2BBE7"
         id="path307" />
      <path
         d="M76.74,54.93c-12.22,5.88-23.07,23.3-24.25,38.91s7.77,23.49,20,17.62,23.07-23.3,24.25-38.9S89,49.06,76.74,54.93Z"
         style="opacity:0.2"
         id="path309" />
      <path
         d="M88.84,76.12A37.25,37.25,0,0,1,83.35,90.9c-3,4.77-6.63,8.52-10.3,10.55-3.89,2.15-7.38,2.15-9.82,0s-3.46-6.12-2.85-11.17a37,37,0,0,1,5.48-14.78c3-4.77,6.63-8.51,10.31-10.55,3.88-2.15,7.37-2.15,9.81,0S89.44,71.07,88.84,76.12Z"
         style="fill:#D2BBE7"
         id="path311" />
      <path
         d="M88.84,76.12A37.25,37.25,0,0,1,83.35,90.9c-3,4.77-6.63,8.52-10.3,10.55-3.89,2.15-7.38,2.15-9.82,0s-3.46-6.12-2.85-11.17a37,37,0,0,1,5.48-14.78c3-4.77,6.63-8.51,10.31-10.55,3.88-2.15,7.37-2.15,9.81,0S89.44,71.07,88.84,76.12Z"
         style="opacity:0.4"
         id="path313" />
      <path
         d="M91,56.88c-3.38-3-8.26-3.16-13.72-.54-5.7,2.75-11.3,8.2-15.75,15.34a50.81,50.81,0,0,0-7.76,22.37c-.52,7,1,12.47,4.43,15.45s8.25,3.17,13.72.54c5.7-2.74,11.3-8.18,15.75-15.32a50.71,50.71,0,0,0,7.75-22.38C96,65.35,94.39,59.87,91,56.88ZM86,65c2.44,2.15,3.46,6.12,2.86,11.17A37.25,37.25,0,0,1,83.35,90.9c-3,4.77-6.63,8.52-10.3,10.55-3.89,2.15-7.38,2.15-9.82,0s-3.46-6.12-2.85-11.17a37,37,0,0,1,5.48-14.78c3-4.77,6.63-8.51,10.31-10.55C80.05,62.79,83.54,62.79,86,65Z"
         style="fill:#D2BBE7"
         id="path315" />
      <path
         d="M76.65,66c7.29-4,12.3.37,11.17,9.85s-7.95,20.43-15.25,24.47S60.27,100,61.4,90.5,69.35,70.07,76.65,66Z"
         style="opacity:0.2"
         id="path317" />
      <path
         d="M76.65,66c7.29-4,12.3.37,11.17,9.85s-7.95,20.43-15.25,24.47S60.27,100,61.4,90.5,69.35,70.07,76.65,66Z"
         style="fill:#D2BBE7"
         id="path319" />
      <path
         d="M76.65,66c7.29-4,12.3.37,11.17,9.85s-7.95,20.43-15.25,24.47S60.27,100,61.4,90.5,69.35,70.07,76.65,66Z"
         style="opacity:0.6000000000000001"
         id="path321" />
      <path
         d="M85.73,74c-1.13,9.48-8,20.43-15.25,24.47-3,1.67-5.64,1.89-7.61.91-1.36-2-1.94-5-1.47-8.92C62.52,81,69.35,70.07,76.65,66c3-1.67,5.64-1.89,7.6-.91C85.61,67.08,86.19,70.12,85.73,74Z"
         style="fill:#D2BBE7"
         id="path323" />
      <path
         d="M85.73,74c-1.13,9.48-8,20.43-15.25,24.47-3,1.67-5.64,1.89-7.61.91-1.36-2-1.94-5-1.47-8.92C62.52,81,69.35,70.07,76.65,66c3-1.67,5.64-1.89,7.6-.91C85.61,67.08,86.19,70.12,85.73,74Z"
         style="opacity:0.5"
         id="path325" />
      <path
         d="M78.65,79.51c-.88-.55-2.16-.34-3.48,0L74,79.93a3.85,3.85,0,0,1,1.53-1.52c1.75-1.06,2.49-.16,2.67.72l4.23-3.79A4.08,4.08,0,0,0,82,74.17a2.61,2.61,0,0,0-.77-.78c-.2-.12-3.08-1.69-3.36-1.77a3.42,3.42,0,0,0-.79-.11l0-.5L74.29,69.5l-3.32,2,0,.6.07,2.06s-1.64.69-3.41,3.8c-.08.13-.14.25-.21.37a8.4,8.4,0,0,0-1,4.27v0a3,3,0,0,0,1.15,2.63c.06,0,2.31,1.23,2.68,1.47l.26.14.2.08h0l.23.06.21,0h.08l.17,0A5.94,5.94,0,0,0,72.89,87c.25,0,.51-.12.77-.19l1.11-.33.33-.11a4.14,4.14,0,0,1-1.53,1.45,4.29,4.29,0,0,1-1,.48L71,87.39,67,91a3,3,0,0,0,1.12,1.55c.49.33,2.43,1.33,2.86,1.58a2.52,2.52,0,0,0,1.17.36l0,.59,2.73,1.5,3.36-2-.11-2.65a12.27,12.27,0,0,0,3.3-3.68l0,0a8.45,8.45,0,0,0,1.11-4.46c-.06-1.49-.49-2.32-1.13-2.73S79,79.75,78.65,79.51Z"
         style="fill:#D2BBE7"
         id="path327" />
      <path
         d="M78.65,79.51c-.88-.55-2.16-.34-3.48,0L74,79.93a3.85,3.85,0,0,1,1.53-1.52c1.75-1.06,2.49-.16,2.67.72l4.23-3.79A4.08,4.08,0,0,0,82,74.17a2.61,2.61,0,0,0-.77-.78c-.2-.12-3.08-1.69-3.36-1.77a3.42,3.42,0,0,0-.79-.11l0-.5L74.29,69.5l-3.32,2,0,.6.07,2.06s-1.64.69-3.41,3.8c-.08.13-.14.25-.21.37a8.4,8.4,0,0,0-1,4.27v0a3,3,0,0,0,1.15,2.63c.06,0,2.31,1.23,2.68,1.47l.26.14.2.08h0l.23.06.21,0h.08l.17,0A5.94,5.94,0,0,0,72.89,87c.25,0,.51-.12.77-.19l1.11-.33.33-.11a4.14,4.14,0,0,1-1.53,1.45,4.29,4.29,0,0,1-1,.48L71,87.39,67,91a3,3,0,0,0,1.12,1.55c.49.33,2.43,1.33,2.86,1.58a2.52,2.52,0,0,0,1.17.36l0,.59,2.73,1.5,3.36-2-.11-2.65a12.27,12.27,0,0,0,3.3-3.68l0,0a8.45,8.45,0,0,0,1.11-4.46c-.06-1.49-.49-2.32-1.13-2.73S79,79.75,78.65,79.51Z"
         style="opacity:0.30000000000000004"
         id="path329" />
      <g
         style="opacity:0.1"
         id="g341">
        <path
           d="M77.9,81.06A4.63,4.63,0,0,1,81.33,81c-.59-.36-2.31-1.24-2.68-1.47-.88-.55-2.16-.34-3.48,0L74,79.93h0a2.32,2.32,0,0,0-.26,1.13C73.83,82.76,75.74,81.71,77.9,81.06Z"
           id="path331" />
        <path
           d="M72.1,94.52l0,.59,2.73,1.5h0L74.75,94A6,6,0,0,1,72.1,94.52Z"
           id="path333" />
        <path
           d="M69.68,92.54,67,91a3,3,0,0,0,1.12,1.55c.47.32,2.24,1.23,2.78,1.54A3,3,0,0,1,69.68,92.54Z"
           id="path335" />
        <path
           d="M78.05,86.15a.65.65,0,0,0-.62-.38,7.79,7.79,0,0,0-2.24.52l-.09,0a4.14,4.14,0,0,1-1.53,1.45,4.29,4.29,0,0,1-1,.48l1.19.65c.24,1,1.11,1.27,2.6.37s1.87-1.82,1.84-2.62A1.38,1.38,0,0,0,78.05,86.15Z"
           id="path337" />
        <polygon
           points="70.97 71.5 73.7 73.01 73.8 75.68 71.06 74.17 70.97 71.5"
           id="polygon339" />
      </g>
      <path
         d="M73.72,73.61l.08,2.07s-1.65.68-3.42,3.79c-.08.13-.14.26-.2.38a8.39,8.39,0,0,0-1,4.27h0c.06,1.58.59,2.39,1.35,2.74l.2.08h0l.23.06.21,0h.08l.17,0A5.94,5.94,0,0,0,72.89,87c.25,0,.51-.12.77-.19l1.11-.33.42-.14a7.15,7.15,0,0,1,2.24-.52.65.65,0,0,1,.62.38,1.38,1.38,0,0,1,.1.5c0,.8-.45,1.78-1.84,2.62s-2.36.67-2.6-.37l-4,3.64c.72,2,2.45,2.53,5.07,1.42l.11,2.65,3.36-2-.11-2.65a12.27,12.27,0,0,0,3.3-3.68l0,0a8.45,8.45,0,0,0,1.11-4.46c-.14-3.51-2.32-3.37-4.64-2.7-2.16.65-4.07,1.7-4.14,0a3.11,3.11,0,0,1,1.79-2.65c1.75-1.06,2.49-.16,2.67.72l4.23-3.79A4.08,4.08,0,0,0,82,74.17a2.4,2.4,0,0,0-1.4-1,5.36,5.36,0,0,0-3.44.56L77,71,73.7,73Z"
         style="fill:#D2BBE7"
         id="path343" />
      <polygon
         points="78.22 94.59 74.86 96.61 74.75 93.95 75.18 96.03 78.22 94.59"
         style="fill:#f5f5f5"
         id="polygon345" />
      <path
         d="M73.71,88.9l-4,3.64,3.77-3.19s.48,1.87,2.86-.08c-1.49.9-2.36.67-2.6-.37"
         style="fill:#f5f5f5"
         id="path347" />
      <path
         d="M82.45,75.34A4.08,4.08,0,0,0,82,74.17a2.4,2.4,0,0,0-1.4-1,2.7,2.7,0,0,1,1.52,2.27l-3.87,3.74Z"
         style="fill:#f5f5f5"
         id="path349" />
      <polygon
         points="77.13 73.68 76.77 71.47 73.7 73.01 77.02 71.01 77.13 73.68"
         style="fill:#f5f5f5"
         id="polygon351" />
      <path
         d="M71.73,109.54c8.48-3.81,16-14.82,16-14.82C83.23,101.86,77.63,107.3,71.93,110c-5.47,2.63-10.34,2.44-13.72-.54C58.21,109.5,63.11,113.42,71.73,109.54Z"
         style="fill:#f5f5f5"
         id="path353" />
      <path
         d="M59.19,72.9c4.51-8,10.83-14.73,17.55-18,7-3.36,12.91-2.21,16.47,2.31,0,0-6-7.07-16.51-1.62S59.19,72.9,59.19,72.9Z"
         style="fill:#f5f5f5"
         id="path355" />
    </g>
  </g>
</svg>
