<?xml version="1.0" encoding="UTF-8" standalone="no"?>
<svg
   viewBox="0 0 500 500"
   version="1.1"
   id="svg521"
   sodipodi:docname="119.svg"
   inkscape:version="1.1.2 (0a00cf5339, 2022-02-04)"
   xmlns:inkscape="http://www.inkscape.org/namespaces/inkscape"
   xmlns:sodipodi="http://sodipodi.sourceforge.net/DTD/sodipodi-0.dtd"
   xmlns="http://www.w3.org/2000/svg"
   xmlns:svg="http://www.w3.org/2000/svg">
  <defs
     id="defs525" />
  <sodipodi:namedview
     id="namedview523"
     pagecolor="#ffffff"
     bordercolor="#666666"
     borderopacity="1.0"
     inkscape:pageshadow="2"
     inkscape:pageopacity="0.0"
     inkscape:pagecheckerboard="0"
     showgrid="false"
     inkscape:zoom="1.132"
     inkscape:cx="249.5583"
     inkscape:cy="250.4417"
     inkscape:window-width="1478"
     inkscape:window-height="800"
     inkscape:window-x="0"
     inkscape:window-y="0"
     inkscape:window-maximized="1"
     inkscape:current-layer="svg521" />
  <path
     d="m 89.91,393.22 c 90.13,47.08 236.27,47.08 326.39,0 90.12,-47.08 90.14,-123.43 0,-170.51 -90.14,-47.08 -236.26,-47.09 -326.39,0 -90.13,47.09 -90.13,123.42 0,170.51 z"
     style="fill:#f5eaf7;fill-opacity:1"
     id="path2" />
  <g
     id="freepik--Shadows--inject-6">
    <path
       d="M369.74,310.45c-12.09-7-31.68-7-43.77,0s-12.08,18.29,0,25.27,31.68,7,43.77,0S381.83,317.43,369.74,310.45Z"
       style="fill:#e0e0e0"
       id="path5" />
    <path
       d="M369.74,310.45c-12.09-7-31.68-7-43.77,0s-12.08,18.29,0,25.27,31.68,7,43.77,0S381.83,317.43,369.74,310.45Z"
       style="fill:#e0e0e0"
       id="path7" />
    <path
       d="M133.31,226.43c-12.08-7-31.68-7-43.76,0s-12.09,18.29,0,25.27,31.68,7,43.76,0S145.4,233.41,133.31,226.43Z"
       style="fill:#e0e0e0"
       id="path9" />
    <path
       d="M416.62,253.7c-12.09-7-31.69-7-43.77,0s-12.09,18.3,0,25.27,31.68,7,43.77,0S428.7,260.68,416.62,253.7Z"
       style="fill:#e0e0e0"
       id="path11" />
  </g>
  <polygon
     points="364.24,119.81 372.53,124.59 372.53,138.96 364.24,134.17 "
     style="fill:#263238"
     id="polygon14"
     transform="matrix(1.2022235,0,0,1.1284145,-76.399243,-23.469414)" />
  <path
     d="M 353.8525,72.637649 321.60887,90.105505 V 55.124656 a 4.9892275,4.6829202 0 0 0 -7.63412,-4.118713 L 154.4998,137.45378 c -6.1674,3.38524 -9.25712,7.70707 -9.25712,12.08532 v 145.88142 c 0,4.37825 3.08972,8.7565 9.25712,12.09661 l 0.2164,0.12412 c 12.33482,6.68022 32.31577,6.68022 44.65058,0 l 159.43888,-86.41398 a 5.9389841,5.5743676 0 0 0 2.65692,-4.32183 V 73.901473 l -2.50063,-1.354097 a 5.7105616,5.3599689 0 0 0 -5.10945,0.09027 z"
     style="fill:#cdb2c0;stroke-width:1.16473;fill-opacity:1"
     id="path16" />
  <path
     d="m 154.4998,161.59056 c -12.28672,-6.64636 -12.28672,-17.53556 0,-24.18192 L 313.97475,51.005943 a 5.6744949,5.3261164 0 0 1 5.14552,-0.09027 c 1.37053,0.744753 1.2984,1.997294 -0.16832,2.787184 L 163.93726,137.73588 c -1.46672,0.80118 -3.87116,2.065 -5.22968,3.02415 -7.21334,5.06658 -7.83849,11.82579 -1.64704,16.61026 a 24.970182,23.437169 0 0 0 5.27776,2.90003 c 8.89645,3.4868 21.64002,3.13699 31.10152,-0.86888 1.55087,-0.65448 3.91925,-1.96344 5.38596,-2.75333 L 353.91261,72.637649 a 5.7105616,5.3599689 0 0 1 5.14552,-0.09027 c 1.38256,0.744753 1.31042,1.997293 -0.15629,2.798468 L 199.36678,161.75983 c -12.28672,6.65764 -32.36385,6.65764 -44.65058,0 z"
     style="fill:#b48d8d;stroke-width:1.16473"
     id="path18" />
  <path
     d="m 154.4998,161.59056 c -12.28672,-6.64636 -12.28672,-17.53556 0,-24.18192 L 313.97475,51.005943 a 5.6744949,5.3261164 0 0 1 5.14552,-0.09027 c 1.37053,0.744753 1.2984,1.997294 -0.16832,2.787184 L 163.93726,137.73588 c -1.46672,0.80118 -3.87116,2.065 -5.22968,3.02415 -7.21334,5.06658 -7.83849,11.82579 -1.64704,16.61026 a 24.970182,23.437169 0 0 0 5.27776,2.90003 c 8.89645,3.4868 21.64002,3.13699 31.10152,-0.86888 1.55087,-0.65448 3.91925,-1.96344 5.38596,-2.75333 L 353.91261,72.637649 a 5.7105616,5.3599689 0 0 1 5.14552,-0.09027 c 1.38256,0.744753 1.31042,1.997293 -0.15629,2.798468 L 199.36678,161.75983 c -12.28672,6.65764 -32.36385,6.65764 -44.65058,0 z"
     style="opacity:0.3;stroke-width:1.16473"
     id="path20" />
  <path
     d="m 150.4964,170.34706 a 0.62515622,0.58677554 0 0 1 -0.39674,-0.13541 19.812643,18.596271 0 0 1 -2.17602,-2.07628 0.60186347,0.56491282 0 0 1 0.92571,-0.72219 18.369975,17.242174 0 0 0 2.04378,1.94088 0.61313398,0.57549139 0 0 1 0.0601,0.80117 0.62515622,0.58677554 0 0 1 -0.45684,0.19183 z"
     style="fill:#f5f5f5;stroke-width:1.16473"
     id="path22" />
  <path
     d="m 178.97707,178.08798 a 0.60111175,0.56420725 0 0 1 -0.60111,-0.54163 0.60111175,0.56420725 0 0 1 0.58909,-0.58678 54.100057,50.778653 0 0 0 6.01112,-0.50779 0.60111175,0.56420725 0 0 1 0.68527,0.47394 0.61313398,0.57549139 0 0 1 -0.50494,0.64319 56.768994,53.283733 0 0 1 -6.10729,0.51907 z m -6.01111,-0.11284 v 0 a 51.984144,48.792643 0 0 1 -6.01112,-0.76732 0.58908951,0.55292311 0 0 1 -0.48089,-0.65448 0.61313398,0.57549139 0 0 1 0.70931,-0.45137 49.54363,46.501962 0 0 0 5.92696,0.74476 0.60111175,0.56420725 0 0 1 0,1.12841 z m 18.03335,-1.59106 a 0.60111175,0.56420725 0 0 1 -0.57707,-0.41752 0.58908951,0.55292311 0 0 1 0.40876,-0.68833 39.408886,36.989427 0 0 0 5.60236,-1.9183 0.58908951,0.55292311 0 0 1 0.79347,0.27082 0.60111175,0.56420725 0 0 1 -0.28854,0.75603 40.466843,37.982432 0 0 1 -5.78269,1.97473 z m -29.87526,-0.60935 a 0.54100057,0.50778653 0 0 1 -0.19235,0 36.52355,34.281233 0 0 1 -5.65045,-2.25682 0.60111175,0.56420725 0 0 1 0.56504,-0.99301 36.571639,34.326369 0 0 0 5.47012,2.25683 0.60875736,0.57138347 0 0 1 -0.19236,1.12841 z m 40.8756,-4.06229 a 0.60111175,0.56420725 0 0 1 -0.30055,-1.04942 l 5.25371,-2.84361 a 0.60111175,0.56420725 0 1 1 0.60112,0.97044 l -5.25372,2.8436 a 0.54100057,0.50778653 0 0 1 -0.36067,0.11284 z m 10.50744,-5.64207 a 0.61313398,0.57549139 0 0 1 -0.52898,-0.2821 0.60111175,0.56420725 0 0 1 0.15629,-0.81246 l 5.24169,-2.85489 a 0.60111175,0.56420725 0 0 1 0.81751,0.2144 0.58908951,0.55292311 0 0 1 -0.2164,0.76732 l -5.24169,2.8436 a 0.56504504,0.53035481 0 0 1 -0.28853,0.079 z m 10.49541,-5.64207 a 0.60111175,0.56420725 0 0 1 -0.51696,-0.28211 0.61313398,0.57549139 0 0 1 0.2164,-0.7786 l 5.2417,-2.84361 a 0.62515622,0.58677554 0 0 1 0.82953,0.2144 0.60111175,0.56420725 0 0 1 -0.22842,0.76732 l -5.2417,2.84361 a 0.56504504,0.53035481 0 0 1 -0.34864,-0.0113 z m 10.49541,-5.64208 a 0.60111175,0.56420725 0 0 1 -0.51696,-0.2821 0.61313398,0.57549139 0 0 1 0.2164,-0.77861 l 5.25372,-2.8436 a 0.58908951,0.55292311 0 0 1 0.81751,0.2144 0.60111175,0.56420725 0 0 1 -0.2164,0.76732 l -5.27776,2.7082 a 0.66122293,0.62062798 0 0 1 -0.33662,0.079 z m 10.49541,-5.64207 a 0.57706728,0.54163896 0 0 1 -0.51696,-0.2821 0.60111175,0.56420725 0 0 1 0.2164,-0.76732 l 5.25372,-2.84361 a 0.58908951,0.55292311 0 0 1 0.81751,0.20312 0.61313398,0.57549139 0 0 1 -0.2164,0.7786 l -5.25371,2.84361 a 0.64920069,0.60934383 0 0 1 -0.36067,-0.12413 z m 10.49541,-5.64207 a 0.60111175,0.56420725 0 0 1 -0.30055,-1.04943 l 5.25371,-2.8436 a 0.58908951,0.55292311 0 0 1 0.81751,0.20311 0.61313398,0.57549139 0 0 1 -0.2164,0.77861 l -5.25371,2.8436 a 0.64920069,0.60934383 0 0 1 -0.36067,-0.16926 z m 10.50743,-5.64207 a 0.60111175,0.56420725 0 0 1 -0.30055,-1.04943 l 5.24169,-2.8436 a 0.60111175,0.56420725 0 0 1 0.60111,0.97043 l -5.24169,2.85489 a 0.68526739,0.64319626 0 0 1 -0.36067,-0.2144 z m 10.49542,-5.64208 a 0.62515622,0.58677554 0 0 1 -0.52898,-0.2821 0.61313398,0.57549139 0 0 1 0.22842,-0.76732 l 5.24169,-2.84361 a 0.60111175,0.56420725 0 1 1 0.60112,0.97044 l -5.2417,2.84361 a 0.56504504,0.53035481 0 0 1 -0.36067,-0.24826 z m 10.49541,-5.64207 a 0.60111175,0.56420725 0 0 1 -0.30056,-1.04942 l 5.2417,-2.84361 a 0.61313398,0.57549139 0 0 1 0.82953,0.20312 0.60111175,0.56420725 0 0 1 -0.22842,0.76732 l -5.2417,2.8436 a 0.56504504,0.53035481 0 0 1 -0.36066,-0.29338 z m 10.49541,-5.64207 a 0.60111175,0.56420725 0 0 1 -0.30056,-1.04943 l 5.25372,-2.85488 a 0.61313398,0.57549139 0 0 1 0.81751,0.21439 0.58908951,0.55292311 0 0 1 -0.2164,0.76733 l -5.25372,2.8436 a 0.54100057,0.50778653 0 0 1 -0.36066,-0.33852 z m 10.49541,-5.64207 a 0.60111175,0.56420725 0 0 1 -0.51696,-0.28211 0.61313398,0.57549139 0 0 1 0.2164,-0.7786 l 5.2417,-3.30626 a 0.61313398,0.57549139 0 0 1 0.81751,0.2144 0.58908951,0.55292311 0 0 1 -0.2164,0.76732 l -5.25372,2.84361 a 0.54100057,0.50778653 0 0 1 -0.34864,0.079 z m 10.49541,-5.64208 a 0.60111175,0.56420725 0 0 1 -0.51696,-0.2821 0.61313398,0.57549139 0 0 1 0.2164,-0.77861 l 5.25372,-2.8436 a 0.58908951,0.55292311 0 0 1 0.81751,0.20312 0.61313398,0.57549139 0 0 1 -0.2164,0.7786 l -5.25371,2.84361 a 0.66122293,0.62062798 0 0 1 -0.36067,-0.4288 z m 10.50743,-5.64207 a 0.61313398,0.57549139 0 0 1 -0.52897,-0.2821 0.60111175,0.56420725 0 0 1 0.22842,-0.76732 l 5.24169,-2.84361 a 0.58908951,0.55292311 0 0 1 0.81751,0.20312 0.61313398,0.57549139 0 0 1 -0.2164,0.7786 l -5.24169,2.84361 a 0.68526739,0.64319626 0 0 1 -0.36067,-0.49651 z m 10.49541,-5.64207 a 0.62515622,0.58677554 0 0 1 -0.52897,-0.282104 0.61313398,0.57549139 0 0 1 0.22842,-0.767322 l 5.24169,-2.843604 a 0.60318202,0.56615042 0 1 1 0.60111,0.98172 l -5.24169,2.843605 a 0.68526739,0.64319626 0 0 1 -0.40876,-0.541639 z"
     style="fill:#f5f5f5;stroke-width:1.16473"
     id="path24" />
  <path
     d="m 351.52019,93.479465 a 0.61313398,0.57549139 0 0 1 -0.60111,-0.564207 v -1.8506 l -1.69514,0.9253 a 0.58908951,0.55292311 0 0 1 -0.81751,-0.203115 0.61313398,0.57549139 0 0 1 0.2164,-0.778606 l 2.5968,-1.410518 a 0.60111175,0.56420725 0 0 1 0.90167,0.496502 v 2.821037 a 0.60111175,0.56420725 0 0 1 -0.60111,0.564207 z"
     style="fill:#f5f5f5;stroke-width:1.16473"
     id="path26" />
  <path
     d="m 351.52019,206.47889 a 0.61313398,0.57549139 0 0 1 -0.60111,-0.5642 v -5.64208 a 0.60111175,0.56420725 0 0 1 0.60111,-0.5642 0.60111175,0.56420725 0 0 1 0.60111,0.5642 v 5.64208 a 0.60111175,0.56420725 0 0 1 -0.60111,0.5642 z m 0,-11.28414 a 0.60111175,0.56420725 0 0 1 -0.60111,-0.56421 v -5.64207 a 0.61313398,0.57549139 0 0 1 0.60111,-0.56421 0.60111175,0.56420725 0 0 1 0.60111,0.56421 v 5.64207 a 0.60111175,0.56420725 0 0 1 -0.60111,0.54164 z m 0,-11.28415 a 0.61313398,0.57549139 0 0 1 -0.60111,-0.5642 v -5.64208 a 0.60111175,0.56420725 0 0 1 0.60111,-0.5642 0.60111175,0.56420725 0 0 1 0.60111,0.5642 v 5.64208 a 0.60111175,0.56420725 0 0 1 -0.60111,0.53035 z m 0,-11.28414 a 0.60111175,0.56420725 0 0 1 -0.60111,-0.56421 v -5.64207 a 0.60111175,0.56420725 0 0 1 0.60111,-0.56421 0.60111175,0.56420725 0 0 1 0.60111,0.56421 v 5.64207 a 0.60111175,0.56420725 0 0 1 -0.60111,0.50779 z m 0,-11.28415 a 0.60111175,0.56420725 0 0 1 -0.60111,-0.5642 v -5.64208 a 0.61313398,0.57549139 0 0 1 0.60111,-0.5642 0.60111175,0.56420725 0 0 1 0.60111,0.5642 v 5.64208 a 0.60111175,0.56420725 0 0 1 -0.60111,0.4965 z m 0,-11.28414 a 0.61313398,0.57549139 0 0 1 -0.60111,-0.56421 v -5.64207 a 0.60111175,0.56420725 0 0 1 0.60111,-0.56421 0.60111175,0.56420725 0 0 1 0.60111,0.56421 v 5.64207 a 0.60111175,0.56420725 0 0 1 -0.60111,0.48522 z m 0,-11.28415 a 0.60111175,0.56420725 0 0 1 -0.60111,-0.5642 v -5.64208 a 0.60111175,0.56420725 0 0 1 0.60111,-0.5642 0.60111175,0.56420725 0 0 1 0.60111,0.5642 v 5.64208 a 0.60111175,0.56420725 0 0 1 -0.60111,0.46265 z m 0,-11.28414 a 0.61313398,0.57549139 0 0 1 -0.60111,-0.56421 v -5.64207 a 0.60111175,0.56420725 0 0 1 0.60111,-0.56421 0.60111175,0.56420725 0 0 1 0.60111,0.56421 v 5.64207 a 0.60111175,0.56420725 0 0 1 -0.60111,0.45137 z m 0,-11.28415 a 0.60111175,0.56420725 0 0 1 -0.60111,-0.5642 v -5.64208 a 0.60111175,0.56420725 0 0 1 0.60111,-0.5642 0.60111175,0.56420725 0 0 1 0.60111,0.5642 v 5.64208 a 0.60111175,0.56420725 0 0 1 -0.60111,0.42879 z m 0,-11.28414 a 0.60111175,0.56420725 0 0 1 -0.60111,-0.56421 v -5.642072 a 0.61313398,0.57549139 0 0 1 0.60111,-0.564207 0.60111175,0.56420725 0 0 1 0.60111,0.564207 v 5.642072 a 0.60111175,0.56420725 0 0 1 -0.60111,0.41751 z"
     style="fill:#f5f5f5;stroke-width:1.16473"
     id="path28" />
  <path
     d="m 348.92339,216.35252 a 0.60111175,0.56420725 0 0 1 -0.30056,-1.04943 l 2.29625,-1.25254 v -2.49379 a 0.61313398,0.57549139 0 0 1 0.60111,-0.56421 0.60111175,0.56420725 0 0 1 0.60111,0.56421 v 2.82103 a 0.60111175,0.56420725 0 0 1 -0.30055,0.49651 l -2.63287,1.41051 a 0.68526739,0.64319626 0 0 1 -0.26449,0.0677 z"
     style="fill:#f5f5f5;stroke-width:1.16473"
     id="path30" />
  <path
     d="m 179.00112,302.38284 a 0.60111175,0.56420725 0 0 1 0,-1.12841 51.346966,48.194583 0 0 0 6.01111,-0.51907 0.61313398,0.57549139 0 0 1 0.68527,0.47393 0.60111175,0.56420725 0 0 1 -0.50493,0.6432 53.859613,50.55297 0 0 1 -6.1073,0.53035 z M 172.99,302.27 v 0 a 52.693456,49.458408 0 0 1 -6.07123,-0.76732 0.60111175,0.56420725 0 0 1 -0.48089,-0.65448 0.61313398,0.57549139 0 0 1 0.70931,-0.45137 50.216876,47.133874 0 0 0 5.92697,0.74476 0.60111175,0.56420725 0 0 1 0,1.12841 z m 18.03335,-1.60235 a 0.58908951,0.55292311 0 0 1 -0.57706,-0.40623 0.60111175,0.56420725 0 0 1 0.40875,-0.69962 38.879908,36.492925 0 0 0 5.60236,-1.9183 0.58908951,0.55292311 0 0 1 0.79347,0.2821 0.58908951,0.55292311 0 0 1 -0.28853,0.74476 40.298532,37.824454 0 0 1 -5.77068,1.97472 0.43280046,0.40622922 0 0 1 -0.24044,0.0226 z m -29.87525,-0.59806 a 0.54100057,0.50778653 0 0 1 -0.19236,0 37.172751,34.890576 0 0 1 -5.65045,-2.25683 0.60111175,0.56420725 0 0 1 0.56505,-0.993 37.833974,35.511204 0 0 0 5.47011,2.25683 0.60875736,0.57138347 0 0 1 -0.19235,1.12841 z m 40.8756,-4.07357 a 0.60111175,0.56420725 0 0 1 -0.30056,-1.04943 l 5.25372,-2.8436 a 0.60111175,0.56420725 0 0 1 0.60111,0.97043 l -5.32585,2.79847 a 0.54100057,0.50778653 0 0 1 -0.30056,0.12413 z m 10.50743,-5.64208 a 0.60111175,0.56420725 0 0 1 -0.52898,-0.2821 0.58908951,0.55292311 0 0 1 0.22842,-0.76732 l 5.2417,-2.84361 a 0.60111175,0.56420725 0 1 1 0.60111,0.97044 l -5.31383,2.79847 a 0.56504504,0.53035481 0 0 1 -0.30055,0.079 z m 10.49541,-5.64207 a 0.61313398,0.57549139 0 0 1 -0.52898,-0.2821 0.60111175,0.56420725 0 0 1 0.22843,-0.76733 l 5.24169,-2.85488 a 0.62515622,0.58677554 0 0 1 0.82953,0.21439 0.61313398,0.57549139 0 0 1 -0.22842,0.76733 l -5.31383,2.79846 a 0.56504504,0.53035481 0 0 1 -0.30055,0 z m 10.49541,-5.64207 a 0.60111175,0.56420725 0 0 1 -0.51695,-0.28211 0.61313398,0.57549139 0 0 1 0.2164,-0.7786 l 5.24169,-2.84361 a 0.61313398,0.57549139 0 0 1 0.82954,0.2144 0.60111175,0.56420725 0 0 1 -0.22843,0.76732 l -5.28978,2.7082 a 0.56504504,0.53035481 0 0 1 -0.3246,0.0903 z m 10.49541,-5.64207 a 0.60111175,0.56420725 0 0 1 -0.51695,-0.28211 0.61313398,0.57549139 0 0 1 0.2164,-0.7786 l 5.25372,-2.84361 a 0.60318202,0.56615042 0 0 1 0.60111,0.98172 l -5.25372,2.84361 a 0.66122293,0.62062798 0 0 1 -0.37269,-0.0451 z m 10.49542,-5.6985 a 0.57706728,0.54163896 0 0 1 -0.51696,-0.2821 0.60111175,0.56420725 0 0 1 0.2164,-0.76732 l 5.25372,-2.84361 a 0.60318202,0.56615042 0 0 1 0.60111,0.98172 l -5.25372,2.84361 a 0.64920069,0.60934383 0 0 1 -0.37269,-0.11284 z m 10.49541,-5.64207 a 0.60111175,0.56420725 0 0 1 -0.51696,-0.2821 0.60111175,0.56420725 0 0 1 0.2164,-0.76733 l 5.25372,-2.8436 a 0.60111175,0.56420725 0 1 1 0.60111,0.97044 l -5.25372,2.85488 a 0.61313398,0.57549139 0 0 1 -0.37269,-0.15797 z m 10.50743,-5.64207 a 0.60111175,0.56420725 0 0 1 -0.30056,-1.04943 l 5.2417,-2.8436 a 0.60111175,0.56420725 0 1 1 0.60111,0.97043 l -5.24169,2.84361 a 0.56504504,0.53035481 0 0 1 -0.37269,-0.19183 z m 10.49541,-5.64208 a 0.60111175,0.56420725 0 0 1 -0.30055,-1.04942 l 5.24169,-2.84361 a 0.60111175,0.56420725 0 1 1 0.60111,0.97044 l -5.24169,2.84361 a 0.56504504,0.53035481 0 0 1 -0.37269,-0.23697 z m 10.49541,-5.64207 a 0.60111175,0.56420725 0 0 1 -0.30055,-1.04942 l 5.25371,-2.84361 a 0.60111175,0.56420725 0 1 1 0.60111,0.97044 l -5.25371,2.8436 a 0.56504504,0.53035481 0 0 1 -0.37269,-0.2821 z m 10.49541,-5.64207 a 0.60111175,0.56420725 0 0 1 -0.51695,-0.2821 0.61313398,0.57549139 0 0 1 0.2164,-0.77861 l 5.25371,-2.8436 a 0.61313398,0.57549139 0 0 1 0.81752,0.21439 0.58908951,0.55292311 0 0 1 -0.2164,0.76733 l -5.25372,2.8436 a 0.54100057,0.50778653 0 0 1 -0.37269,-0.32724 z m 10.49541,-5.64207 a 0.60111175,0.56420725 0 0 1 -0.51695,-0.28211 0.61313398,0.57549139 0 0 1 0.2164,-0.7786 l 5.25372,-2.84361 a 0.60318202,0.56615042 0 0 1 0.60111,0.98172 l -5.25372,2.84361 a 0.54100057,0.50778653 0 0 1 -0.37269,-0.37238 z m 10.49542,-5.64208 a 0.60111175,0.56420725 0 0 1 -0.51696,-0.2821 0.61313398,0.57549139 0 0 1 0.2164,-0.77861 l 5.25372,-2.8436 a 0.58908951,0.55292311 0 0 1 0.81751,0.20311 0.61313398,0.57549139 0 0 1 -0.2164,0.77861 l -5.25372,2.84361 a 0.62515622,0.58677554 0 0 1 -0.37269,-0.41752 z m 10.50743,-5.69849 a 0.61313398,0.57549139 0 0 1 -0.52898,-0.2821 0.61313398,0.57549139 0 0 1 0.22842,-0.76732 l 5.2417,-2.84361 a 0.61313398,0.57549139 0 0 1 0.82953,0.20312 0.62515622,0.58677554 0 0 1 -0.22842,0.7786 l -5.2417,2.84361 a 0.68526739,0.64319626 0 0 1 -0.37268,-0.4288 z"
     style="fill:#f5f5f5;stroke-width:1.16473"
     id="path32" />
  <path
     d="m 150.4964,294.63063 a 0.62515622,0.58677554 0 0 1 -0.39674,-0.13541 19.728488,18.517282 0 0 1 -2.17602,-2.06499 0.62515622,0.58677554 0 0 1 0.0721,-0.80118 0.61313398,0.57549139 0 0 1 0.85358,0.079 18.369975,17.242174 0 0 0 2.04378,1.94087 0.58908951,0.55292311 0 0 1 0.0601,0.78989 0.57706728,0.54163896 0 0 1 -0.45684,0.19183 z"
     style="fill:#f5f5f5;stroke-width:1.16473"
     id="path34" />
  <path
     d="M 321.60887,82.409719 V 65.404512 a 4.7127161,4.4233848 0 0 0 -2.12794,-3.464232 1.2984014,1.2186877 0 0 1 0,2.256829 L 153.97082,153.93991 a 12.551213,11.780647 0 0 0 3.10174,3.38525 25.246693,23.696705 0 0 0 5.26574,2.90002 37.629596,35.319374 0 0 0 15.46059,2.36967 L 319.49296,85.862667 a 4.7127161,4.4233848 0 0 0 2.11591,-3.452948 z"
     style="fill:#e0e0e0;stroke-width:1.16473"
     id="path36" />
  <path
     d="m 319.48093,61.94028 -0.73335,-0.394946 a 4.7127161,4.4233848 0 0 0 -4.24385,0 L 152.8768,149.178 a 8.8243205,8.2825624 0 0 0 1.09402,4.80705 L 319.48093,64.253529 a 1.2984014,1.2186877 0 0 0 0,-2.313249 z"
     style="fill:#ebebeb;stroke-width:1.16473"
     id="path38" />
  <path
     d="m 331.58732,70.798333 a 4.7367606,4.4459531 0 0 0 -2.12793,-3.452948 l -0.73336,-0.394945 a 4.7367606,4.4459531 0 0 0 -4.25587,0 l -167.10907,90.58912 a 26.016117,24.41889 0 0 0 5.03732,2.73076 c 8.90848,3.4868 21.64002,3.13699 31.10152,-0.88016 1.55087,-0.65448 3.91925,-1.94088 5.38596,-2.73077 L 331.58732,84.711684 Z"
     style="fill:#e0e0e0;stroke-width:1.16473"
     id="path40" />
  <path
     d="m 162.27819,160.24775 167.1812,-90.600399 a 1.2984014,1.2186877 0 0 0 0,-2.256829 l -0.73336,-0.394946 a 4.7367606,4.4459531 0 0 0 -4.25587,0 L 157.36109,157.58469 a 26.340717,24.723562 0 0 0 4.9171,2.66306 z"
     style="fill:#ebebeb;stroke-width:1.16473"
     id="path42" />
  <path
     d="m 341.55376,76.203439 a 4.6766494,4.3895324 0 0 0 -2.12794,-3.452949 l -0.73336,-0.406229 a 4.7367606,4.4459531 0 0 0 -4.25587,0 L 168.92648,162.04193 a 43.280046,40.622922 0 0 0 24.51334,-2.65177 c 1.55087,-0.65448 3.91925,-1.94088 5.38596,-2.73077 L 341.55376,79.306579 Z"
     style="fill:#e0e0e0;stroke-width:1.16473"
     id="path44" />
  <path
     d="m 339.42582,72.75049 -0.73336,-0.406229 a 4.7367606,4.4459531 0 0 0 -4.25587,0 L 168.92648,162.04193 a 42.294223,39.697622 0 0 0 8.87241,0.59806 L 339.42582,75.052456 a 1.2984014,1.2186877 0 0 0 0,-2.301966 z"
     style="fill:#ebebeb;stroke-width:1.16473"
     id="path46" />
  <path
     d="m 381.43151,124.8381 v 33.20924 a 4.7127161,4.4233848 0 0 1 -2.11591,3.45295 l -64.55941,34.98085 h -0.12022 c -4.88102,2.60664 -9.30521,2.94516 -12.53919,1.37667 -0.98582,-0.47394 -4.80889,-2.53894 -5.69854,-3.10314 -2.9214,-1.77161 -4.70069,-5.2697 -4.70069,-10.15573 0,-10.15573 7.58603,-22.48931 17.11966,-28.21037 v 0 l 60.50791,-32.78044 0.31258,-0.20311 c 0.85358,-0.6432 0.74538,-1.52336 -0.31258,-2.09885 l -7.8385,-4.25413 v -5.4051 l 17.81695,9.65923 a 4.7127161,4.4233848 0 0 1 2.07985,3.058 2.4886026,2.335818 0 0 1 0.0481,0.47393 z"
     style="fill:#b48d8d;stroke-width:1.16473"
     id="path48" />
  <path
     d="m 381.43151,124.8381 v 33.20924 a 4.7127161,4.4233848 0 0 1 -2.11591,3.45295 l -64.55941,34.98085 h -0.12022 c -4.88102,2.60664 -9.30521,2.94516 -12.53919,1.37667 -0.98582,-0.47394 -4.80889,-2.53894 -5.69854,-3.10314 -2.9214,-1.77161 -4.70069,-5.2697 -4.70069,-10.15573 0,-10.15573 7.58603,-22.48931 17.11966,-28.21037 v 0 l 60.50791,-32.78044 0.31258,-0.20311 c 0.85358,-0.6432 0.74538,-1.52336 -0.31258,-2.09885 l -7.8385,-4.25413 v -5.4051 l 17.81695,9.65923 a 4.7127161,4.4233848 0 0 1 2.07985,3.058 2.4886026,2.335818 0 0 1 0.0481,0.47393 z"
     style="opacity:0.3;stroke-width:1.16473"
     id="path50" />
  <path
     d="m 381.43151,124.8381 v 33.20924 a 4.7127161,4.4233848 0 0 1 -2.11591,3.45295 l -64.55941,34.98085 h -0.12022 c -6.35976,3.38524 -11.9501,2.94516 -15.14801,-0.56421 a 13.957815,13.100892 0 0 1 -2.80118,-8.62108 c 0,-10.44912 8.09096,-23.29048 18.03335,-28.70687 l 61.69811,-33.42364 2.86129,-1.54592 c 1.04593,-0.5755 1.91154,-0.23697 2.07985,0.75603 a 2.4886026,2.335818 0 0 1 0.0721,0.46265 z"
     style="fill:#b48d8d;stroke-width:1.16473"
     id="path52" />
  <path
     d="m 311.64244,179.26154 c 0,4.51365 3.34218,6.28526 7.47783,4.051 a 16.506529,15.493131 0 0 0 7.47783,-12.15302 c 0,-4.51366 -3.35421,-6.29655 -7.47783,-4.05101 a 16.494506,15.481847 0 0 0 -7.47783,12.15303 z"
     style="fill:#37474f;stroke-width:1.16473"
     id="path54" />
  <polygon
     points="335.43,169.63 333.58,168.57 324.59,183.68 326.7,184.9 "
     style="fill:#37474f"
     id="polygon56"
     transform="matrix(1.2022235,0,0,1.1284145,-76.399243,-23.469414)" />
  <path
     d="m 314.13104,180.61563 c 0,4.51366 3.3542,6.28527 7.47783,4.05101 a 16.530573,15.515699 0 0 0 7.47783,-12.16431 c 0,-4.51366 -3.34218,-6.28527 -7.47783,-4.05101 a 16.56664,15.549552 0 0 0 -7.47783,12.16431 z"
     style="fill:#455a64;stroke-width:1.16473"
     id="path58" />
  <path
     d="m 176.12523,408.1836 a 4.75,4.75 0 0 1 -2.07,-3.75 v -119.39 a 4.86,4.86 0 0 1 2.21,-3.82 l 153.15,-88.43 a 4.15,4.15 0 0 1 6.36,3.67 v 119.39 a 4.9,4.9 0 0 1 -2.21,3.83 l -153.15,88.42 a 4.74,4.74 0 0 1 -4.29,0.08 z"
     style="fill:#455a64"
     id="path61" />
  <path
     d="m 182.34523,287.2436 -7.64,-4.41 a 4.5,4.5 0 0 0 -0.65,2.17 v 119.43 a 4.15,4.15 0 0 0 6.36,3.67 l 1.93,-1.12 z"
     style="fill:#263238"
     id="path63" />
  <path
     d="m 178.20523,287.4436 v 119.39 c 0,1.41 1,2 2.21,1.27 l 153.15,-88.42 a 4.9,4.9 0 0 0 2.21,-3.83 v -119.39 c 0,-1.41 -1,-2 -2.21,-1.27 l -153.15,88.42 a 4.88,4.88 0 0 0 -2.21,3.83 z"
     style="fill:#37474f"
     id="path65" />
  <path
     d="m 190.64523,318.5636 v 18.84 c 0,1.41 1,2 2.21,1.27 l 24.6,-14.2 a 4.87,4.87 0 0 0 2.21,-3.83 v -18.84 c 0,-1.41 -1,-2 -2.21,-1.27 l -24.57,14.2 a 4.9,4.9 0 0 0 -2.24,3.83 z"
     style="fill:#b48d8d"
     id="path67" />
  <path
     d="m 219.66523,307.0136 v -1.15 l -29,16.75 v 1.16 l 7.79,-4.5 v 8.46 l -7.79,4.5 v 1.15 l 29,-16.75 v -1.16 l -7.79,4.5 v -8.46 z m -8.78,13.54 -11.44,6.6 v -8.46 l 11.44,-6.6 z"
     style="fill:#f5f5f5"
     id="path69" />
  <path
     d="m 196.16523,296.3036 v 1.64 a 5,5 0 0 1 -2.49,4.53 c -1.64,0.95 -2.5,0.31 -2.5,-1.65 v -6.4 a 5,5 0 0 1 2.5,-4.53 c 1.64,-0.94 2.49,-0.31 2.49,1.65 v 1.2 l -1.58,0.91 v -1.32 c 0,-0.87 -0.33,-1 -0.87,-0.71 a 1.81,1.81 0 0 0 -0.86,1.72 v 6.63 c 0,0.88 0.33,1 0.86,0.7 a 1.77,1.77 0 0 0 0.87,-1.7 v -1.73 z"
     style="fill:#ffffff"
     id="path71" />
  <path
     d="m 200.68523,298.2436 a 3.51,3.51 0 0 1 -0.15,-1.42 v -1.93 c 0,-1.15 -0.34,-1.38 -1.1,-0.94 l -0.57,0.34 v 5 l -1.68,1 v -12.28 l 2.53,-1.46 c 1.73,-1 2.48,-0.5 2.48,1.39 v 1 a 4.49,4.49 0 0 1 -1.1,3.13 c 0.84,-0.08 1.11,0.69 1.11,2 v 1.9 a 3.45,3.45 0 0 0 0.18,1.39 z m -1.8,-9.45 v 3.78 l 0.65,-0.38 a 1.94,1.94 0 0 0 1,-1.88 v -1.21 c 0,-0.88 -0.26,-1.11 -0.85,-0.77 z"
     style="fill:#ffffff"
     id="path73" />
  <path
     d="m 204.97523,288.6936 2.3,-1.33 v 1.76 l -2.3,1.33 v 3.6 l 2.89,-1.67 v 1.75 l -4.56,2.64 v -12.29 l 4.58,-2.64 v 1.76 l -2.91,1.64 z"
     style="fill:#ffffff"
     id="path75" />
  <path
     d="m 208.88523,281.2436 2.65,-1.52 c 1.67,-1 2.49,-0.37 2.49,1.59 v 6.22 a 4.87,4.87 0 0 1 -2.49,4.48 l -2.65,1.53 z m 1.68,0.79 v 8.79 l 0.94,-0.55 a 1.75,1.75 0 0 0 0.85,-1.68 v -6.35 c 0,-0.88 -0.32,-1 -0.85,-0.7 z"
     style="fill:#ffffff"
     id="path77" />
  <path
     d="m 215.10523,277.6636 1.67,-1 v 12.29 l -1.67,1 z"
     style="fill:#ffffff"
     id="path79" />
  <path
     d="m 217.50523,276.2436 5.17,-3 v 1.75 l -1.75,1 v 10.54 l -1.67,1 v -10.51 l -1.75,1 z"
     style="fill:#ffffff"
     id="path81" />
  <path
     d="m 230.61523,276.4136 v 1.64 a 5,5 0 0 1 -2.49,4.53 c -1.64,1 -2.49,0.31 -2.49,-1.65 v -6.4 a 5,5 0 0 1 2.49,-4.53 c 1.64,-0.95 2.49,-0.31 2.49,1.65 v 1.2 l -1.58,0.91 v -1.32 c 0,-0.87 -0.33,-1 -0.86,-0.71 a 1.8,1.8 0 0 0 -0.87,1.72 v 6.63 c 0,0.88 0.33,1 0.87,0.7 a 1.78,1.78 0 0 0 0.86,-1.7 v -1.75 z"
     style="fill:#ffffff"
     id="path83" />
  <path
     d="m 237.05523,277.2436 -1.69,1 -0.29,-2.07 -2.05,1.19 -0.29,2.4 -1.54,0.88 1.7,-13.27 2.45,-1.42 z m -3.82,-1.69 1.61,-0.93 -0.8,-5.75 z"
     style="fill:#ffffff"
     id="path85" />
  <path
     d="m 241.32523,274.8236 a 3.62,3.62 0 0 1 -0.15,-1.43 v -1.93 c 0,-1.14 -0.33,-1.37 -1.1,-0.93 l -0.57,0.33 v 5 l -1.68,1 v -12.32 l 2.53,-1.46 c 1.73,-1 2.48,-0.5 2.48,1.4 v 1 a 4.44,4.44 0 0 1 -1.1,3.12 c 0.84,-0.08 1.11,0.7 1.11,2 v 1.89 a 3.26,3.26 0 0 0 0.19,1.39 z m -1.82,-9.49 v 3.78 l 0.65,-0.38 a 2,2 0 0 0 1,-1.88 v -1.21 c 0,-0.88 -0.25,-1.12 -0.85,-0.77 z"
     style="fill:#ffffff"
     id="path87" />
  <path
     d="m 243.94523,261.0136 2.65,-1.53 c 1.67,-1 2.49,-0.37 2.49,1.6 v 6.22 a 4.87,4.87 0 0 1 -2.49,4.48 l -2.65,1.52 z m 1.67,0.79 v 8.78 l 0.94,-0.54 a 1.74,1.74 0 0 0 0.86,-1.69 v -6.39 c 0,-0.88 -0.32,-1 -0.86,-0.7 z"
     style="fill:#ffffff"
     id="path89" />
  <path
     d="m 190.64523,354.4836 v 4.47 c 0,1.41 1,2 2.21,1.27 l 24.6,-14.2 a 4.9,4.9 0 0 0 2.21,-3.83 v -4.47 c 0,-1.41 -1,-2 -2.21,-1.28 l -24.57,14.21 a 4.88,4.88 0 0 0 -2.24,3.83 z"
     style="fill:#e0e0e0"
     id="path91" />
  <path
     d="m 225.19523,334.5236 v 4.47 c 0,1.41 1,2 2.21,1.28 l 24.61,-14.21 a 4.86,4.86 0 0 0 2.21,-3.82 v -4.48 c 0,-1.41 -1,-2 -2.21,-1.27 l -24.61,14.2 a 4.9,4.9 0 0 0 -2.21,3.83 z"
     style="fill:#e0e0e0"
     id="path93" />
  <path
     d="m 259.75523,314.5736 v 4.47 c 0,1.41 1,2 2.21,1.28 l 24.6,-14.21 a 4.87,4.87 0 0 0 2.22,-3.87 v -4.47 c 0,-1.41 -1,-2 -2.22,-1.27 l -24.6,14.2 a 4.9,4.9 0 0 0 -2.21,3.87 z"
     style="fill:#e0e0e0"
     id="path95" />
  <path
     d="m 294.30523,294.6236 v 4.47 c 0,1.41 1,2 2.21,1.28 l 24.61,-14.21 a 4.9,4.9 0 0 0 2.21,-3.83 v -4.47 c 0,-1.41 -1,-2 -2.21,-1.28 l -24.61,14.21 a 4.88,4.88 0 0 0 -2.21,3.83 z"
     style="fill:#e0e0e0"
     id="path97" />
  <path
     d="m 309.56523,300.0236 -5.68,3.22 a 2.94,2.94 0 0 0 -1.32,2.3 v 1.73 c 0,0.84 0.59,1.18 1.32,0.76 l 5.64,-3.26 a 2.91,2.91 0 0 0 1.33,-2.29 v -1.73 c 0.03,-0.81 -0.55,-1.16 -1.29,-0.73 z"
     style="fill:#b48d8d"
     id="path99" />
  <path
     d="m 322.00523,292.8336 -5.64,3.26 a 2.93,2.93 0 0 0 -1.32,2.3 v 1.72 c 0,0.85 0.59,1.19 1.32,0.77 l 5.64,-3.26 a 2.91,2.91 0 0 0 1.33,-2.3 v -1.72 c 0,-0.85 -0.59,-1.19 -1.33,-0.77 z"
     style="fill:#b48d8d"
     id="path101" />
  <path
     d="m 250.79523,345.9236 70.22,-40.54 c 1.22,-0.71 2.21,-0.14 2.21,1.27 v 2.08 a 4.9,4.9 0 0 1 -2.21,3.83 l -70.22,40.54 c -1.22,0.71 -2.21,0.13 -2.21,-1.28 v -2.07 a 4.88,4.88 0 0 1 2.21,-3.83 z"
     style="fill:#b48d8d"
     id="path103" />
  <g
     id="freepik--Coins--inject-6"
     transform="translate(5.2865504,43.914256)">
    <path
       d="m 374.28,315.15 a 18.13,18.13 0 0 0 -6.67,-6.17 c -10.91,-6.29 -28.59,-6.29 -39.49,0 a 18,18 0 0 0 -6.67,6.17 h -1.51 v 5.71 0 c 0.2,4 2.91,7.89 8.16,10.92 10.9,6.3 28.58,6.3 39.49,0 5.24,-3 7.95,-7 8.15,-10.92 v 0 -5.71 z"
       style="fill:#b48d8d"
       id="path106" />
    <path
       d="m 374.28,315.15 a 18.13,18.13 0 0 0 -6.67,-6.17 c -10.91,-6.29 -28.59,-6.29 -39.49,0 a 18,18 0 0 0 -6.67,6.17 h -1.51 v 5.71 0 c 0.2,4 2.91,7.89 8.16,10.92 10.9,6.3 28.58,6.3 39.49,0 5.24,-3 7.95,-7 8.15,-10.92 v 0 -5.71 z"
       style="opacity:0.5;fill:#f5f5f5"
       id="path108" />
    <path
       d="m 367.61,303.75 c -10.91,-6.29 -28.59,-6.29 -39.49,0 -10.9,6.29 -10.91,16.51 0,22.8 10.91,6.29 28.58,6.3 39.49,0 10.91,-6.3 10.9,-16.5 0,-22.8 z"
       style="fill:#b48d8d"
       id="path110" />
    <path
       d="m 367.61,303.75 c -10.91,-6.29 -28.59,-6.29 -39.49,0 -10.9,6.29 -10.91,16.51 0,22.8 10.91,6.29 28.58,6.3 39.49,0 10.91,-6.3 10.9,-16.5 0,-22.8 z"
       style="opacity:0.6;fill:#f5f5f5"
       id="path112" />
    <path
       d="m 360.72,307.93 a 31.44,31.44 0 0 0 -25.72,0 c -3.65,1.87 -5.66,4.44 -5.66,7.23 0,2.79 2,5.35 5.66,7.22 a 31.44,31.44 0 0 0 25.72,0 c 3.65,-1.87 5.66,-4.44 5.66,-7.22 0,-2.78 -2.01,-5.36 -5.66,-7.23 z"
       style="fill:#b48d8d"
       id="path114" />
    <path
       d="m 360.72,307.93 a 31.44,31.44 0 0 0 -25.72,0 c -3.65,1.87 -5.66,4.44 -5.66,7.23 0,2.79 2,5.35 5.66,7.22 a 31.44,31.44 0 0 0 25.72,0 c 3.65,-1.87 5.66,-4.44 5.66,-7.22 0,-2.78 -2.01,-5.36 -5.66,-7.23 z"
       style="opacity:0.6;fill:#f5f5f5"
       id="path116" />
    <path
       d="m 367,304.81 c -5.09,-2.94 -11.89,-4.56 -19.14,-4.56 -7.25,0 -14,1.62 -19.13,4.56 -4.89,2.82 -7.57,6.49 -7.57,10.35 0,3.86 2.68,7.52 7.57,10.34 5.09,2.94 11.88,4.56 19.13,4.56 7.25,0 14.05,-1.62 19.14,-4.56 4.88,-2.82 7.57,-6.49 7.57,-10.34 0,-3.85 -2.69,-7.53 -7.57,-10.35 z m -6.28,17.57 a 31.44,31.44 0 0 1 -25.72,0 c -3.65,-1.87 -5.66,-4.44 -5.66,-7.22 0,-2.78 2,-5.36 5.66,-7.23 a 31.44,31.44 0 0 1 25.72,0 c 3.65,1.87 5.66,4.44 5.66,7.23 0,2.79 -2.01,5.35 -5.66,7.22 z"
       style="fill:#b48d8d"
       id="path118" />
    <path
       d="m 367,304.81 c -5.09,-2.94 -11.89,-4.56 -19.14,-4.56 -7.25,0 -14,1.62 -19.13,4.56 -4.89,2.82 -7.57,6.49 -7.57,10.35 0,3.86 2.68,7.52 7.57,10.34 5.09,2.94 11.88,4.56 19.13,4.56 7.25,0 14.05,-1.62 19.14,-4.56 4.88,-2.82 7.57,-6.49 7.57,-10.34 0,-3.85 -2.69,-7.53 -7.57,-10.35 z m -6.28,17.57 a 31.44,31.44 0 0 1 -25.72,0 c -3.65,-1.87 -5.66,-4.44 -5.66,-7.22 0,-2.78 2,-5.36 5.66,-7.23 a 31.44,31.44 0 0 1 25.72,0 c 3.65,1.87 5.66,4.44 5.66,7.23 0,2.79 -2.01,5.35 -5.66,7.22 z"
       style="opacity:0.7;fill:#f5f5f5"
       id="path120" />
    <path
       d="m 360.28,321.53 c 6.86,-3.52 6.86,-9.23 0,-12.75 -6.86,-3.52 -18,-3.52 -24.84,0 -6.84,3.52 -6.86,9.23 0,12.75 6.86,3.52 17.98,3.52 24.84,0 z"
       style="fill:#b48d8d"
       id="path122" />
    <path
       d="m 360.28,321.53 c 6.86,-3.52 6.86,-9.23 0,-12.75 -6.86,-3.52 -18,-3.52 -24.84,0 -6.84,3.52 -6.86,9.23 0,12.75 6.86,3.52 17.98,3.52 24.84,0 z"
       style="opacity:0.5;fill:#f5f5f5"
       id="path124" />
    <path
       d="m 360.28,311.17 c -6.86,-3.52 -18,-3.52 -24.84,0 -2.83,1.45 -4.49,3.28 -5,5.18 0.49,1.89 2.15,3.72 5,5.18 6.86,3.52 18,3.52 24.84,0 2.84,-1.46 4.49,-3.29 5,-5.18 -0.51,-1.9 -2.16,-3.73 -5,-5.18 z"
       style="fill:#b48d8d"
       id="path126" />
    <path
       d="m 360.28,311.17 c -6.86,-3.52 -18,-3.52 -24.84,0 -2.83,1.45 -4.49,3.28 -5,5.18 0.49,1.89 2.15,3.72 5,5.18 6.86,3.52 18,3.52 24.84,0 2.84,-1.46 4.49,-3.29 5,-5.18 -0.51,-1.9 -2.16,-3.73 -5,-5.18 z"
       style="opacity:0.6;fill:#f5f5f5"
       id="path128" />
    <polygon
       points="349.52,311.49 348.64,312.42 347.02,314.12 347.02,311.44 349.52,308.92 "
       style="fill:#b48d8d"
       id="polygon130" />
    <path
       d="m 347,311.44 v 2.68 h -5.08 V 311 c 0,0 4.71,-0.74 5.08,0.44 z"
       style="fill:#b48d8d"
       id="path132" />
    <path
       d="M 358.68,318.75 V 321 l -2.82,1.62 -2.08,-1.2 a 10.62,10.62 0 0 1 -8.07,0.36 v -2.22 l 1.28,-1.27 -1.28,0.35 a 8.21,8.21 0 0 1 -6.28,-0.72 c -1.27,-0.73 -1.85,-1.52 -1.85,-2.34 v -2.17 l 0.23,-0.94 L 337,312 v -2.23 l 2.08,1.21 a 3.24,3.24 0 0 0 -1.54,2.39 v 0 c 0,0.8 0.62,1.58 1.85,2.29 2.74,1.58 5.45,1.06 7.94,0.26 2.31,-0.75 4,-1.64 5.33,-0.87 0.82,0.48 0.57,1.06 -0.36,1.6 a 4.65,4.65 0 0 1 -4,0.23 l -2.66,2.64 a 9.37,9.37 0 0 0 1.47,0.43 11.05,11.05 0 0 0 6.6,-0.79 l 2.08,1.2 z"
       style="fill:#b48d8d"
       id="path134" />
    <polygon
       points="353.77,321.4 355.86,322.6 355.86,320.38 353.77,319.18 "
       style="fill:#b48d8d"
       id="polygon136" />
    <g
       style="opacity:0.5"
       id="g146">
      <polygon
         points="349.52,311.49 348.64,312.42 347.02,314.12 347.02,311.44 349.52,308.92 "
         style="fill:#f5f5f5"
         id="polygon138" />
      <path
         d="m 347,311.44 v 2.68 h -5.08 V 311 c 0,0 4.71,-0.74 5.08,0.44 z"
         style="fill:#f5f5f5"
         id="path140" />
      <path
         d="M 358.68,318.75 V 321 l -2.82,1.62 -2.08,-1.2 a 10.62,10.62 0 0 1 -8.07,0.36 v -2.22 l 1.28,-1.27 -1.28,0.35 a 8.21,8.21 0 0 1 -6.28,-0.72 c -1.27,-0.73 -1.85,-1.52 -1.85,-2.34 v -2.17 l 0.23,-0.94 L 337,312 v -2.23 l 2.08,1.21 a 3.24,3.24 0 0 0 -1.54,2.39 v 0 c 0,0.8 0.62,1.58 1.85,2.29 2.74,1.58 5.45,1.06 7.94,0.26 2.31,-0.75 4,-1.64 5.33,-0.87 0.82,0.48 0.57,1.06 -0.36,1.6 a 4.65,4.65 0 0 1 -4,0.23 l -2.66,2.64 a 9.37,9.37 0 0 0 1.47,0.43 11.05,11.05 0 0 0 6.6,-0.79 l 2.08,1.2 z"
         style="fill:#f5f5f5"
         id="path142" />
      <polygon
         points="353.77,321.4 355.86,322.6 355.86,320.38 353.77,319.18 "
         style="fill:#f5f5f5"
         id="polygon144" />
    </g>
    <path
       d="m 358.2,318.48 -1.61,-0.93 a 2.74,2.74 0 0 0 1.61,-2.47 1.55,1.55 0 0 0 0,-0.22 3,3 0 0 0 -1.8,-2.18 v 0 a 7.41,7.41 0 0 0 -3.75,-1 h -0.35 -0.34 -0.29 -0.12 -0.22 a 16.72,16.72 0 0 0 -1.82,0.38 l -0.86,0.25 -1.17,0.38 L 347,313 a 13.47,13.47 0 0 1 -2.5,0.71 2.52,2.52 0 0 1 -1.07,0 2.28,2.28 0 0 1 -0.51,-0.21 c -0.62,-0.36 -0.72,-0.92 0.46,-1.6 a 4.12,4.12 0 0 1 3.62,-0.38 l 2.5,-2.52 a 10.71,10.71 0 0 0 -7.55,0.42 l -2.09,-1.2 -2.86,1.56 2.09,1.2 a 3.19,3.19 0 0 0 -1.55,2.39 v 0 c 0,0.8 0.61,1.58 1.85,2.29 2.74,1.58 5.45,1.06 7.94,0.26 2.31,-0.76 4,-1.64 5.32,-0.87 0.83,0.48 0.58,1.06 -0.35,1.59 a 4.58,4.58 0 0 1 -4,0.23 l -2.66,2.65 a 9.37,9.37 0 0 0 1.47,0.43 11,11 0 0 0 6.59,-0.79 l 2.09,1.2 2.81,-1.62 z"
       style="fill:#b48d8d"
       id="path148" />
    <path
       d="m 358.2,318.48 -1.61,-0.93 a 2.74,2.74 0 0 0 1.61,-2.47 1.55,1.55 0 0 0 0,-0.22 3,3 0 0 0 -1.8,-2.18 v 0 a 7.41,7.41 0 0 0 -3.75,-1 h -0.35 -0.34 -0.29 -0.12 -0.22 a 16.72,16.72 0 0 0 -1.82,0.38 l -0.86,0.25 -1.17,0.38 L 347,313 a 13.47,13.47 0 0 1 -2.5,0.71 2.52,2.52 0 0 1 -1.07,0 2.28,2.28 0 0 1 -0.51,-0.21 c -0.62,-0.36 -0.72,-0.92 0.46,-1.6 a 4.12,4.12 0 0 1 3.62,-0.38 l 2.5,-2.52 a 10.71,10.71 0 0 0 -7.55,0.42 l -2.09,-1.2 -2.86,1.56 2.09,1.2 a 3.19,3.19 0 0 0 -1.55,2.39 v 0 c 0,0.8 0.61,1.58 1.85,2.29 2.74,1.58 5.45,1.06 7.94,0.26 2.31,-0.76 4,-1.64 5.32,-0.87 0.83,0.48 0.58,1.06 -0.35,1.59 a 4.58,4.58 0 0 1 -4,0.23 l -2.66,2.65 a 9.37,9.37 0 0 0 1.47,0.43 11,11 0 0 0 6.59,-0.79 l 2.09,1.2 2.81,-1.62 z"
       style="opacity:0.7;fill:#f5f5f5"
       id="path150" />
    <path
       d="m 375.94,307.31 a 18.13,18.13 0 0 0 -6.67,-6.17 c -10.91,-6.29 -28.59,-6.29 -39.49,0 a 18.13,18.13 0 0 0 -6.67,6.17 h -1.51 v 5.69 0 c 0.2,4 2.92,7.89 8.16,10.92 10.9,6.3 28.58,6.3 39.49,0 5.24,-3 8,-7 8.16,-10.92 v 0 -5.71 z"
       style="fill:#b48d8d"
       id="path152" />
    <path
       d="m 375.94,307.31 a 18.13,18.13 0 0 0 -6.67,-6.17 c -10.91,-6.29 -28.59,-6.29 -39.49,0 a 18.13,18.13 0 0 0 -6.67,6.17 h -1.51 v 5.69 0 c 0.2,4 2.92,7.89 8.16,10.92 10.9,6.3 28.58,6.3 39.49,0 5.24,-3 8,-7 8.16,-10.92 v 0 -5.71 z"
       style="opacity:0.5;fill:#f5f5f5"
       id="path154" />
    <path
       d="m 369.27,295.91 c -10.91,-6.29 -28.59,-6.29 -39.49,0 -10.9,6.29 -10.9,16.51 0,22.8 10.9,6.29 28.58,6.3 39.49,0 10.91,-6.3 10.9,-16.5 0,-22.8 z"
       style="fill:#b48d8d"
       id="path156" />
    <path
       d="m 369.27,295.91 c -10.91,-6.29 -28.59,-6.29 -39.49,0 -10.9,6.29 -10.9,16.51 0,22.8 10.9,6.29 28.58,6.3 39.49,0 10.91,-6.3 10.9,-16.5 0,-22.8 z"
       style="opacity:0.6;fill:#f5f5f5"
       id="path158" />
    <path
       d="m 362.38,300.09 a 31.42,31.42 0 0 0 -25.71,0 C 333,302 331,304.53 331,307.32 c 0,2.79 2,5.35 5.67,7.22 a 31.42,31.42 0 0 0 25.71,0 c 3.65,-1.87 5.67,-4.44 5.67,-7.22 0,-2.78 -2.05,-5.32 -5.67,-7.23 z"
       style="fill:#b48d8d"
       id="path160" />
    <path
       d="m 362.38,300.09 a 31.42,31.42 0 0 0 -25.71,0 C 333,302 331,304.53 331,307.32 c 0,2.79 2,5.35 5.67,7.22 a 31.42,31.42 0 0 0 25.71,0 c 3.65,-1.87 5.67,-4.44 5.67,-7.22 0,-2.78 -2.05,-5.32 -5.67,-7.23 z"
       style="opacity:0.6;fill:#f5f5f5"
       id="path162" />
    <path
       d="m 368.66,297 c -5.09,-2.94 -11.89,-4.56 -19.14,-4.56 -7.25,0 -14,1.62 -19.13,4.56 -4.89,2.82 -7.57,6.49 -7.57,10.35 0,3.86 2.68,7.52 7.57,10.34 5.09,2.94 11.88,4.56 19.13,4.56 7.25,0 14.05,-1.62 19.14,-4.56 4.88,-2.82 7.57,-6.49 7.57,-10.34 0,-3.85 -2.69,-7.56 -7.57,-10.35 z m -6.28,17.57 a 31.42,31.42 0 0 1 -25.71,0 c -3.66,-1.87 -5.67,-4.44 -5.67,-7.22 0,-2.78 2,-5.36 5.67,-7.23 a 31.42,31.42 0 0 1 25.71,0 c 3.65,1.87 5.67,4.44 5.67,7.23 0,2.79 -2.05,5.32 -5.67,7.19 z"
       style="fill:#b48d8d"
       id="path164" />
    <path
       d="m 368.66,297 c -5.09,-2.94 -11.89,-4.56 -19.14,-4.56 -7.25,0 -14,1.62 -19.13,4.56 -4.89,2.82 -7.57,6.49 -7.57,10.35 0,3.86 2.68,7.52 7.57,10.34 5.09,2.94 11.88,4.56 19.13,4.56 7.25,0 14.05,-1.62 19.14,-4.56 4.88,-2.82 7.57,-6.49 7.57,-10.34 0,-3.85 -2.69,-7.56 -7.57,-10.35 z m -6.28,17.57 a 31.42,31.42 0 0 1 -25.71,0 c -3.66,-1.87 -5.67,-4.44 -5.67,-7.22 0,-2.78 2,-5.36 5.67,-7.23 a 31.42,31.42 0 0 1 25.71,0 c 3.65,1.87 5.67,4.44 5.67,7.23 0,2.79 -2.05,5.32 -5.67,7.19 z"
       style="opacity:0.7;fill:#f5f5f5"
       id="path166" />
    <ellipse
       cx="349.51999"
       cy="307.31"
       rx="17.559999"
       ry="9.0100002"
       style="fill:#b48d8d"
       id="ellipse168" />
    <ellipse
       cx="349.51999"
       cy="307.31"
       rx="17.559999"
       ry="9.0100002"
       style="opacity:0.5;fill:#f5f5f5"
       id="ellipse170" />
    <path
       d="m 361.94,303.33 c -6.86,-3.52 -18,-3.52 -24.83,0 -2.84,1.45 -4.5,3.28 -5,5.18 0.49,1.89 2.15,3.72 5,5.18 6.85,3.51 18,3.51 24.83,0 2.84,-1.46 4.5,-3.29 5,-5.18 -0.5,-1.9 -2.16,-3.73 -5,-5.18 z"
       style="fill:#b48d8d"
       id="path172" />
    <path
       d="m 361.94,303.33 c -6.86,-3.52 -18,-3.52 -24.83,0 -2.84,1.45 -4.5,3.28 -5,5.18 0.49,1.89 2.15,3.72 5,5.18 6.85,3.51 18,3.51 24.83,0 2.84,-1.46 4.5,-3.29 5,-5.18 -0.5,-1.9 -2.16,-3.73 -5,-5.18 z"
       style="opacity:0.6;fill:#f5f5f5"
       id="path174" />
    <polygon
       points="351.19,303.65 350.31,304.58 348.68,306.28 348.68,303.6 351.19,301.08 "
       style="fill:#b48d8d"
       id="polygon176" />
    <path
       d="m 348.68,303.6 v 2.68 h -5.08 v -3.14 c 0,0 4.7,-0.72 5.08,0.46 z"
       style="fill:#b48d8d"
       id="path178" />
    <path
       d="m 360.34,310.91 v 2.23 l -2.82,1.62 -2.08,-1.2 a 10.61,10.61 0 0 1 -8.07,0.36 v -2.22 l 1.28,-1.27 -1.28,0.35 a 8.21,8.21 0 0 1 -6.28,-0.72 c -1.26,-0.73 -1.85,-1.52 -1.85,-2.34 v -2.17 l 0.23,-0.94 -0.77,-0.45 v -2.23 l 2.09,1.21 a 3.23,3.23 0 0 0 -1.55,2.39 v 0 c 0,0.8 0.62,1.58 1.85,2.29 2.74,1.58 5.45,1.06 7.94,0.26 2.31,-0.75 4,-1.64 5.33,-0.87 0.83,0.48 0.57,1.06 -0.35,1.6 a 4.65,4.65 0 0 1 -4,0.23 l -2.67,2.64 a 9.69,9.69 0 0 0 1.47,0.43 11,11 0 0 0 6.6,-0.8 l 2.08,1.21 z"
       style="fill:#b48d8d"
       id="path180" />
    <polygon
       points="355.44,313.56 357.52,314.76 357.52,312.54 355.44,311.33 "
       style="fill:#b48d8d"
       id="polygon182" />
    <g
       style="opacity:0.5"
       id="g192">
      <polygon
         points="351.19,303.65 350.31,304.58 348.68,306.28 348.68,303.6 351.19,301.08 "
         style="fill:#f5f5f5"
         id="polygon184" />
      <path
         d="m 348.68,303.6 v 2.68 h -5.08 v -3.14 c 0,0 4.7,-0.72 5.08,0.46 z"
         style="fill:#f5f5f5"
         id="path186" />
      <path
         d="m 360.34,310.91 v 2.23 l -2.82,1.62 -2.08,-1.2 a 10.61,10.61 0 0 1 -8.07,0.36 v -2.22 l 1.28,-1.27 -1.28,0.35 a 8.21,8.21 0 0 1 -6.28,-0.72 c -1.26,-0.73 -1.85,-1.52 -1.85,-2.34 v -2.17 l 0.23,-0.94 -0.77,-0.45 v -2.23 l 2.09,1.21 a 3.23,3.23 0 0 0 -1.55,2.39 v 0 c 0,0.8 0.62,1.58 1.85,2.29 2.74,1.58 5.45,1.06 7.94,0.26 2.31,-0.75 4,-1.64 5.33,-0.87 0.83,0.48 0.57,1.06 -0.35,1.6 a 4.65,4.65 0 0 1 -4,0.23 l -2.67,2.64 a 9.69,9.69 0 0 0 1.47,0.43 11,11 0 0 0 6.6,-0.8 l 2.08,1.21 z"
         style="fill:#f5f5f5"
         id="path188" />
      <polygon
         points="355.44,313.56 357.52,314.76 357.52,312.54 355.44,311.33 "
         style="fill:#f5f5f5"
         id="polygon190" />
    </g>
    <path
       d="m 359.87,310.64 -1.61,-0.93 a 2.74,2.74 0 0 0 1.61,-2.47 1.5,1.5 0 0 0 0,-0.22 c -0.07,-0.77 -0.63,-1.51 -1.8,-2.18 v 0 a 7.4,7.4 0 0 0 -3.74,-1 h -0.33 -0.33 -0.3 -0.12 -0.22 a 17.23,17.23 0 0 0 -1.82,0.38 l -0.85,0.25 -1.18,0.38 -0.45,0.16 a 13.27,13.27 0 0 1 -2.5,0.71 2.52,2.52 0 0 1 -1.07,0 2.21,2.21 0 0 1 -0.5,-0.21 c -0.63,-0.36 -0.73,-0.92 0.45,-1.6 a 4.12,4.12 0 0 1 3.62,-0.38 l 2.51,-2.52 a 10.73,10.73 0 0 0 -7.56,0.42 l -2.09,-1.2 -2.84,1.64 2.09,1.2 a 3.21,3.21 0 0 0 -1.55,2.39 v 0 c 0,0.8 0.61,1.58 1.85,2.29 2.74,1.58 5.46,1.06 7.94,0.26 2.31,-0.76 4,-1.64 5.33,-0.88 0.83,0.49 0.57,1.07 -0.35,1.6 a 4.58,4.58 0 0 1 -4,0.23 l -2.67,2.65 a 9.69,9.69 0 0 0 1.47,0.43 11,11 0 0 0 6.6,-0.8 l 2.08,1.21 2.82,-1.62 z"
       style="fill:#b48d8d"
       id="path194" />
    <path
       d="m 359.87,310.64 -1.61,-0.93 a 2.74,2.74 0 0 0 1.61,-2.47 1.5,1.5 0 0 0 0,-0.22 c -0.07,-0.77 -0.63,-1.51 -1.8,-2.18 v 0 a 7.4,7.4 0 0 0 -3.74,-1 h -0.33 -0.33 -0.3 -0.12 -0.22 a 17.23,17.23 0 0 0 -1.82,0.38 l -0.85,0.25 -1.18,0.38 -0.45,0.16 a 13.27,13.27 0 0 1 -2.5,0.71 2.52,2.52 0 0 1 -1.07,0 2.21,2.21 0 0 1 -0.5,-0.21 c -0.63,-0.36 -0.73,-0.92 0.45,-1.6 a 4.12,4.12 0 0 1 3.62,-0.38 l 2.51,-2.52 a 10.73,10.73 0 0 0 -7.56,0.42 l -2.09,-1.2 -2.84,1.64 2.09,1.2 a 3.21,3.21 0 0 0 -1.55,2.39 v 0 c 0,0.8 0.61,1.58 1.85,2.29 2.74,1.58 5.46,1.06 7.94,0.26 2.31,-0.76 4,-1.64 5.33,-0.88 0.83,0.49 0.57,1.07 -0.35,1.6 a 4.58,4.58 0 0 1 -4,0.23 l -2.67,2.65 a 9.69,9.69 0 0 0 1.47,0.43 11,11 0 0 0 6.6,-0.8 l 2.08,1.21 2.82,-1.62 z"
       style="opacity:0.7;fill:#f5f5f5"
       id="path196" />
    <path
       d="m 374.28,315.15 a 18.13,18.13 0 0 0 -6.67,-6.17 c -10.91,-6.29 -28.59,-6.29 -39.49,0 a 18,18 0 0 0 -6.67,6.17 h -1.51 v 5.71 0 c 0.2,4 2.91,7.89 8.16,10.92 10.9,6.3 28.58,6.3 39.49,0 5.24,-3 7.95,-7 8.15,-10.92 v 0 -5.71 z"
       style="fill:#b48d8d"
       id="path198" />
    <path
       d="m 374.28,315.15 a 18.13,18.13 0 0 0 -6.67,-6.17 c -10.91,-6.29 -28.59,-6.29 -39.49,0 a 18,18 0 0 0 -6.67,6.17 h -1.51 v 5.71 0 c 0.2,4 2.91,7.89 8.16,10.92 10.9,6.3 28.58,6.3 39.49,0 5.24,-3 7.95,-7 8.15,-10.92 v 0 -5.71 z"
       style="opacity:0.5;fill:#f5f5f5"
       id="path200" />
    <path
       d="m 367.61,303.75 c -10.91,-6.29 -28.59,-6.29 -39.49,0 -10.9,6.29 -10.91,16.51 0,22.8 10.91,6.29 28.58,6.3 39.49,0 10.91,-6.3 10.9,-16.5 0,-22.8 z"
       style="fill:#b48d8d"
       id="path202" />
    <path
       d="m 367.61,303.75 c -10.91,-6.29 -28.59,-6.29 -39.49,0 -10.9,6.29 -10.91,16.51 0,22.8 10.91,6.29 28.58,6.3 39.49,0 10.91,-6.3 10.9,-16.5 0,-22.8 z"
       style="opacity:0.6;fill:#f5f5f5"
       id="path204" />
    <path
       d="m 360.72,307.93 a 31.44,31.44 0 0 0 -25.72,0 c -3.65,1.87 -5.66,4.44 -5.66,7.23 0,2.79 2,5.35 5.66,7.22 a 31.44,31.44 0 0 0 25.72,0 c 3.65,-1.87 5.66,-4.44 5.66,-7.22 0,-2.78 -2.01,-5.36 -5.66,-7.23 z"
       style="fill:#b48d8d"
       id="path206" />
    <path
       d="m 360.72,307.93 a 31.44,31.44 0 0 0 -25.72,0 c -3.65,1.87 -5.66,4.44 -5.66,7.23 0,2.79 2,5.35 5.66,7.22 a 31.44,31.44 0 0 0 25.72,0 c 3.65,-1.87 5.66,-4.44 5.66,-7.22 0,-2.78 -2.01,-5.36 -5.66,-7.23 z"
       style="opacity:0.6;fill:#f5f5f5"
       id="path208" />
    <path
       d="m 367,304.81 c -5.09,-2.94 -11.89,-4.56 -19.14,-4.56 -7.25,0 -14,1.62 -19.13,4.56 -4.89,2.82 -7.57,6.49 -7.57,10.35 0,3.86 2.68,7.52 7.57,10.34 5.09,2.94 11.88,4.56 19.13,4.56 7.25,0 14.05,-1.62 19.14,-4.56 4.88,-2.82 7.57,-6.49 7.57,-10.34 0,-3.85 -2.69,-7.53 -7.57,-10.35 z m -6.28,17.57 a 31.44,31.44 0 0 1 -25.72,0 c -3.65,-1.87 -5.66,-4.44 -5.66,-7.22 0,-2.78 2,-5.36 5.66,-7.23 a 31.44,31.44 0 0 1 25.72,0 c 3.65,1.87 5.66,4.44 5.66,7.23 0,2.79 -2.01,5.35 -5.66,7.22 z"
       style="fill:#b48d8d"
       id="path210" />
    <path
       d="m 367,304.81 c -5.09,-2.94 -11.89,-4.56 -19.14,-4.56 -7.25,0 -14,1.62 -19.13,4.56 -4.89,2.82 -7.57,6.49 -7.57,10.35 0,3.86 2.68,7.52 7.57,10.34 5.09,2.94 11.88,4.56 19.13,4.56 7.25,0 14.05,-1.62 19.14,-4.56 4.88,-2.82 7.57,-6.49 7.57,-10.34 0,-3.85 -2.69,-7.53 -7.57,-10.35 z m -6.28,17.57 a 31.44,31.44 0 0 1 -25.72,0 c -3.65,-1.87 -5.66,-4.44 -5.66,-7.22 0,-2.78 2,-5.36 5.66,-7.23 a 31.44,31.44 0 0 1 25.72,0 c 3.65,1.87 5.66,4.44 5.66,7.23 0,2.79 -2.01,5.35 -5.66,7.22 z"
       style="opacity:0.7;fill:#f5f5f5"
       id="path212" />
    <path
       d="m 360.28,321.53 c 6.86,-3.52 6.86,-9.23 0,-12.75 -6.86,-3.52 -18,-3.52 -24.84,0 -6.84,3.52 -6.86,9.23 0,12.75 6.86,3.52 17.98,3.52 24.84,0 z"
       style="fill:#b48d8d"
       id="path214" />
    <path
       d="m 360.28,321.53 c 6.86,-3.52 6.86,-9.23 0,-12.75 -6.86,-3.52 -18,-3.52 -24.84,0 -6.84,3.52 -6.86,9.23 0,12.75 6.86,3.52 17.98,3.52 24.84,0 z"
       style="opacity:0.5;fill:#f5f5f5"
       id="path216" />
    <path
       d="m 360.28,311.17 c -6.86,-3.52 -18,-3.52 -24.84,0 -2.83,1.45 -4.49,3.28 -5,5.18 0.49,1.89 2.15,3.72 5,5.18 6.86,3.52 18,3.52 24.84,0 2.84,-1.46 4.49,-3.29 5,-5.18 -0.51,-1.9 -2.16,-3.73 -5,-5.18 z"
       style="fill:#b48d8d"
       id="path218" />
    <path
       d="m 360.28,311.17 c -6.86,-3.52 -18,-3.52 -24.84,0 -2.83,1.45 -4.49,3.28 -5,5.18 0.49,1.89 2.15,3.72 5,5.18 6.86,3.52 18,3.52 24.84,0 2.84,-1.46 4.49,-3.29 5,-5.18 -0.51,-1.9 -2.16,-3.73 -5,-5.18 z"
       style="opacity:0.6;fill:#f5f5f5"
       id="path220" />
    <polygon
       points="349.52,311.49 348.64,312.42 347.02,314.12 347.02,311.44 349.52,308.92 "
       style="fill:#b48d8d"
       id="polygon222" />
    <path
       d="m 347,311.44 v 2.68 h -5.08 V 311 c 0,0 4.71,-0.74 5.08,0.44 z"
       style="fill:#b48d8d"
       id="path224" />
    <path
       d="M 358.68,318.75 V 321 l -2.82,1.62 -2.08,-1.2 a 10.62,10.62 0 0 1 -8.07,0.36 v -2.22 l 1.28,-1.27 -1.28,0.35 a 8.21,8.21 0 0 1 -6.28,-0.72 c -1.27,-0.73 -1.85,-1.52 -1.85,-2.34 v -2.17 l 0.23,-0.94 L 337,312 v -2.23 l 2.08,1.21 a 3.24,3.24 0 0 0 -1.54,2.39 v 0 c 0,0.8 0.62,1.58 1.85,2.29 2.74,1.58 5.45,1.06 7.94,0.26 2.31,-0.75 4,-1.64 5.33,-0.87 0.82,0.48 0.57,1.06 -0.36,1.6 a 4.65,4.65 0 0 1 -4,0.23 l -2.66,2.64 a 9.37,9.37 0 0 0 1.47,0.43 11.05,11.05 0 0 0 6.6,-0.79 l 2.08,1.2 z"
       style="fill:#b48d8d"
       id="path226" />
    <polygon
       points="353.77,321.4 355.86,322.6 355.86,320.38 353.77,319.18 "
       style="fill:#b48d8d"
       id="polygon228" />
    <g
       style="opacity:0.5"
       id="g238">
      <polygon
         points="349.52,311.49 348.64,312.42 347.02,314.12 347.02,311.44 349.52,308.92 "
         style="fill:#f5f5f5"
         id="polygon230" />
      <path
         d="m 347,311.44 v 2.68 h -5.08 V 311 c 0,0 4.71,-0.74 5.08,0.44 z"
         style="fill:#f5f5f5"
         id="path232" />
      <path
         d="M 358.68,318.75 V 321 l -2.82,1.62 -2.08,-1.2 a 10.62,10.62 0 0 1 -8.07,0.36 v -2.22 l 1.28,-1.27 -1.28,0.35 a 8.21,8.21 0 0 1 -6.28,-0.72 c -1.27,-0.73 -1.85,-1.52 -1.85,-2.34 v -2.17 l 0.23,-0.94 L 337,312 v -2.23 l 2.08,1.21 a 3.24,3.24 0 0 0 -1.54,2.39 v 0 c 0,0.8 0.62,1.58 1.85,2.29 2.74,1.58 5.45,1.06 7.94,0.26 2.31,-0.75 4,-1.64 5.33,-0.87 0.82,0.48 0.57,1.06 -0.36,1.6 a 4.65,4.65 0 0 1 -4,0.23 l -2.66,2.64 a 9.37,9.37 0 0 0 1.47,0.43 11.05,11.05 0 0 0 6.6,-0.79 l 2.08,1.2 z"
         style="fill:#f5f5f5"
         id="path234" />
      <polygon
         points="353.77,321.4 355.86,322.6 355.86,320.38 353.77,319.18 "
         style="fill:#f5f5f5"
         id="polygon236" />
    </g>
    <path
       d="m 358.2,318.48 -1.61,-0.93 a 2.74,2.74 0 0 0 1.61,-2.47 1.55,1.55 0 0 0 0,-0.22 3,3 0 0 0 -1.8,-2.18 v 0 a 7.41,7.41 0 0 0 -3.75,-1 h -0.35 -0.34 -0.29 -0.12 -0.22 a 16.72,16.72 0 0 0 -1.82,0.38 l -0.86,0.25 -1.17,0.38 L 347,313 a 13.47,13.47 0 0 1 -2.5,0.71 2.52,2.52 0 0 1 -1.07,0 2.28,2.28 0 0 1 -0.51,-0.21 c -0.62,-0.36 -0.72,-0.92 0.46,-1.6 a 4.12,4.12 0 0 1 3.62,-0.38 l 2.5,-2.52 a 10.71,10.71 0 0 0 -7.55,0.42 l -2.09,-1.2 -2.86,1.56 2.09,1.2 a 3.19,3.19 0 0 0 -1.55,2.39 v 0 c 0,0.8 0.61,1.58 1.85,2.29 2.74,1.58 5.45,1.06 7.94,0.26 2.31,-0.76 4,-1.64 5.32,-0.87 0.83,0.48 0.58,1.06 -0.35,1.59 a 4.58,4.58 0 0 1 -4,0.23 l -2.66,2.65 a 9.37,9.37 0 0 0 1.47,0.43 11,11 0 0 0 6.59,-0.79 l 2.09,1.2 2.81,-1.62 z"
       style="fill:#b48d8d"
       id="path240" />
    <path
       d="m 358.2,318.48 -1.61,-0.93 a 2.74,2.74 0 0 0 1.61,-2.47 1.55,1.55 0 0 0 0,-0.22 3,3 0 0 0 -1.8,-2.18 v 0 a 7.41,7.41 0 0 0 -3.75,-1 h -0.35 -0.34 -0.29 -0.12 -0.22 a 16.72,16.72 0 0 0 -1.82,0.38 l -0.86,0.25 -1.17,0.38 L 347,313 a 13.47,13.47 0 0 1 -2.5,0.71 2.52,2.52 0 0 1 -1.07,0 2.28,2.28 0 0 1 -0.51,-0.21 c -0.62,-0.36 -0.72,-0.92 0.46,-1.6 a 4.12,4.12 0 0 1 3.62,-0.38 l 2.5,-2.52 a 10.71,10.71 0 0 0 -7.55,0.42 l -2.09,-1.2 -2.86,1.56 2.09,1.2 a 3.19,3.19 0 0 0 -1.55,2.39 v 0 c 0,0.8 0.61,1.58 1.85,2.29 2.74,1.58 5.45,1.06 7.94,0.26 2.31,-0.76 4,-1.64 5.32,-0.87 0.83,0.48 0.58,1.06 -0.35,1.59 a 4.58,4.58 0 0 1 -4,0.23 l -2.66,2.65 a 9.37,9.37 0 0 0 1.47,0.43 11,11 0 0 0 6.59,-0.79 l 2.09,1.2 2.81,-1.62 z"
       style="opacity:0.7;fill:#f5f5f5"
       id="path242" />
    <path
       d="m 375.94,307.31 a 18.13,18.13 0 0 0 -6.67,-6.17 c -10.91,-6.29 -28.59,-6.29 -39.49,0 a 18.13,18.13 0 0 0 -6.67,6.17 h -1.51 v 5.69 0 c 0.2,4 2.92,7.89 8.16,10.92 10.9,6.3 28.58,6.3 39.49,0 5.24,-3 8,-7 8.16,-10.92 v 0 -5.71 z"
       style="fill:#b48d8d"
       id="path244" />
    <path
       d="m 375.94,307.31 a 18.13,18.13 0 0 0 -6.67,-6.17 c -10.91,-6.29 -28.59,-6.29 -39.49,0 a 18.13,18.13 0 0 0 -6.67,6.17 h -1.51 v 5.69 0 c 0.2,4 2.92,7.89 8.16,10.92 10.9,6.3 28.58,6.3 39.49,0 5.24,-3 8,-7 8.16,-10.92 v 0 -5.71 z"
       style="opacity:0.5;fill:#f5f5f5"
       id="path246" />
    <path
       d="m 369.27,295.91 c -10.91,-6.29 -28.59,-6.29 -39.49,0 -10.9,6.29 -10.9,16.51 0,22.8 10.9,6.29 28.58,6.3 39.49,0 10.91,-6.3 10.9,-16.5 0,-22.8 z"
       style="fill:#b48d8d"
       id="path248" />
    <path
       d="m 369.27,295.91 c -10.91,-6.29 -28.59,-6.29 -39.49,0 -10.9,6.29 -10.9,16.51 0,22.8 10.9,6.29 28.58,6.3 39.49,0 10.91,-6.3 10.9,-16.5 0,-22.8 z"
       style="opacity:0.6;fill:#f5f5f5"
       id="path250" />
    <path
       d="m 362.38,300.09 a 31.42,31.42 0 0 0 -25.71,0 C 333,302 331,304.53 331,307.32 c 0,2.79 2,5.35 5.67,7.22 a 31.42,31.42 0 0 0 25.71,0 c 3.65,-1.87 5.67,-4.44 5.67,-7.22 0,-2.78 -2.05,-5.32 -5.67,-7.23 z"
       style="fill:#b48d8d"
       id="path252" />
    <path
       d="m 362.38,300.09 a 31.42,31.42 0 0 0 -25.71,0 C 333,302 331,304.53 331,307.32 c 0,2.79 2,5.35 5.67,7.22 a 31.42,31.42 0 0 0 25.71,0 c 3.65,-1.87 5.67,-4.44 5.67,-7.22 0,-2.78 -2.05,-5.32 -5.67,-7.23 z"
       style="opacity:0.6;fill:#f5f5f5"
       id="path254" />
    <path
       d="m 368.66,297 c -5.09,-2.94 -11.89,-4.56 -19.14,-4.56 -7.25,0 -14,1.62 -19.13,4.56 -4.89,2.82 -7.57,6.49 -7.57,10.35 0,3.86 2.68,7.52 7.57,10.34 5.09,2.94 11.88,4.56 19.13,4.56 7.25,0 14.05,-1.62 19.14,-4.56 4.88,-2.82 7.57,-6.49 7.57,-10.34 0,-3.85 -2.69,-7.56 -7.57,-10.35 z m -6.28,17.57 a 31.42,31.42 0 0 1 -25.71,0 c -3.66,-1.87 -5.67,-4.44 -5.67,-7.22 0,-2.78 2,-5.36 5.67,-7.23 a 31.42,31.42 0 0 1 25.71,0 c 3.65,1.87 5.67,4.44 5.67,7.23 0,2.79 -2.05,5.32 -5.67,7.19 z"
       style="fill:#b48d8d"
       id="path256" />
    <path
       d="m 368.66,297 c -5.09,-2.94 -11.89,-4.56 -19.14,-4.56 -7.25,0 -14,1.62 -19.13,4.56 -4.89,2.82 -7.57,6.49 -7.57,10.35 0,3.86 2.68,7.52 7.57,10.34 5.09,2.94 11.88,4.56 19.13,4.56 7.25,0 14.05,-1.62 19.14,-4.56 4.88,-2.82 7.57,-6.49 7.57,-10.34 0,-3.85 -2.69,-7.56 -7.57,-10.35 z m -6.28,17.57 a 31.42,31.42 0 0 1 -25.71,0 c -3.66,-1.87 -5.67,-4.44 -5.67,-7.22 0,-2.78 2,-5.36 5.67,-7.23 a 31.42,31.42 0 0 1 25.71,0 c 3.65,1.87 5.67,4.44 5.67,7.23 0,2.79 -2.05,5.32 -5.67,7.19 z"
       style="opacity:0.7;fill:#f5f5f5"
       id="path258" />
    <ellipse
       cx="349.51999"
       cy="307.31"
       rx="17.559999"
       ry="9.0100002"
       style="fill:#b48d8d"
       id="ellipse260" />
    <ellipse
       cx="349.51999"
       cy="307.31"
       rx="17.559999"
       ry="9.0100002"
       style="opacity:0.5;fill:#f5f5f5"
       id="ellipse262" />
    <path
       d="m 361.94,303.33 c -6.86,-3.52 -18,-3.52 -24.83,0 -2.84,1.45 -4.5,3.28 -5,5.18 0.49,1.89 2.15,3.72 5,5.18 6.85,3.51 18,3.51 24.83,0 2.84,-1.46 4.5,-3.29 5,-5.18 -0.5,-1.9 -2.16,-3.73 -5,-5.18 z"
       style="fill:#b48d8d"
       id="path264" />
    <path
       d="m 361.94,303.33 c -6.86,-3.52 -18,-3.52 -24.83,0 -2.84,1.45 -4.5,3.28 -5,5.18 0.49,1.89 2.15,3.72 5,5.18 6.85,3.51 18,3.51 24.83,0 2.84,-1.46 4.5,-3.29 5,-5.18 -0.5,-1.9 -2.16,-3.73 -5,-5.18 z"
       style="opacity:0.6;fill:#f5f5f5"
       id="path266" />
    <polygon
       points="351.19,303.65 350.31,304.58 348.68,306.28 348.68,303.6 351.19,301.08 "
       style="fill:#b48d8d"
       id="polygon268" />
    <path
       d="m 348.68,303.6 v 2.68 h -5.08 v -3.14 c 0,0 4.7,-0.72 5.08,0.46 z"
       style="fill:#b48d8d"
       id="path270" />
    <path
       d="m 360.34,310.91 v 2.23 l -2.82,1.62 -2.08,-1.2 a 10.61,10.61 0 0 1 -8.07,0.36 v -2.22 l 1.28,-1.27 -1.28,0.35 a 8.21,8.21 0 0 1 -6.28,-0.72 c -1.26,-0.73 -1.85,-1.52 -1.85,-2.34 v -2.17 l 0.23,-0.94 -0.77,-0.45 v -2.23 l 2.09,1.21 a 3.23,3.23 0 0 0 -1.55,2.39 v 0 c 0,0.8 0.62,1.58 1.85,2.29 2.74,1.58 5.45,1.06 7.94,0.26 2.31,-0.75 4,-1.64 5.33,-0.87 0.83,0.48 0.57,1.06 -0.35,1.6 a 4.65,4.65 0 0 1 -4,0.23 l -2.67,2.64 a 9.69,9.69 0 0 0 1.47,0.43 11,11 0 0 0 6.6,-0.8 l 2.08,1.21 z"
       style="fill:#b48d8d"
       id="path272" />
    <polygon
       points="355.44,313.56 357.52,314.76 357.52,312.54 355.44,311.33 "
       style="fill:#b48d8d"
       id="polygon274" />
    <g
       style="opacity:0.5"
       id="g284">
      <polygon
         points="351.19,303.65 350.31,304.58 348.68,306.28 348.68,303.6 351.19,301.08 "
         style="fill:#f5f5f5"
         id="polygon276" />
      <path
         d="m 348.68,303.6 v 2.68 h -5.08 v -3.14 c 0,0 4.7,-0.72 5.08,0.46 z"
         style="fill:#f5f5f5"
         id="path278" />
      <path
         d="m 360.34,310.91 v 2.23 l -2.82,1.62 -2.08,-1.2 a 10.61,10.61 0 0 1 -8.07,0.36 v -2.22 l 1.28,-1.27 -1.28,0.35 a 8.21,8.21 0 0 1 -6.28,-0.72 c -1.26,-0.73 -1.85,-1.52 -1.85,-2.34 v -2.17 l 0.23,-0.94 -0.77,-0.45 v -2.23 l 2.09,1.21 a 3.23,3.23 0 0 0 -1.55,2.39 v 0 c 0,0.8 0.62,1.58 1.85,2.29 2.74,1.58 5.45,1.06 7.94,0.26 2.31,-0.75 4,-1.64 5.33,-0.87 0.83,0.48 0.57,1.06 -0.35,1.6 a 4.65,4.65 0 0 1 -4,0.23 l -2.67,2.64 a 9.69,9.69 0 0 0 1.47,0.43 11,11 0 0 0 6.6,-0.8 l 2.08,1.21 z"
         style="fill:#f5f5f5"
         id="path280" />
      <polygon
         points="355.44,313.56 357.52,314.76 357.52,312.54 355.44,311.33 "
         style="fill:#f5f5f5"
         id="polygon282" />
    </g>
    <path
       d="m 359.87,310.64 -1.61,-0.93 a 2.74,2.74 0 0 0 1.61,-2.47 1.5,1.5 0 0 0 0,-0.22 c -0.07,-0.77 -0.63,-1.51 -1.8,-2.18 v 0 a 7.4,7.4 0 0 0 -3.74,-1 h -0.33 -0.33 -0.3 -0.12 -0.22 a 17.23,17.23 0 0 0 -1.82,0.38 l -0.85,0.25 -1.18,0.38 -0.45,0.16 a 13.27,13.27 0 0 1 -2.5,0.71 2.52,2.52 0 0 1 -1.07,0 2.21,2.21 0 0 1 -0.5,-0.21 c -0.63,-0.36 -0.73,-0.92 0.45,-1.6 a 4.12,4.12 0 0 1 3.62,-0.38 l 2.51,-2.52 a 10.73,10.73 0 0 0 -7.56,0.42 l -2.09,-1.2 -2.84,1.64 2.09,1.2 a 3.21,3.21 0 0 0 -1.55,2.39 v 0 c 0,0.8 0.61,1.58 1.85,2.29 2.74,1.58 5.46,1.06 7.94,0.26 2.31,-0.76 4,-1.64 5.33,-0.88 0.83,0.49 0.57,1.07 -0.35,1.6 a 4.58,4.58 0 0 1 -4,0.23 l -2.67,2.65 a 9.69,9.69 0 0 0 1.47,0.43 11,11 0 0 0 6.6,-0.8 l 2.08,1.21 2.82,-1.62 z"
       style="fill:#b48d8d"
       id="path286" />
    <path
       d="m 359.87,310.64 -1.61,-0.93 a 2.74,2.74 0 0 0 1.61,-2.47 1.5,1.5 0 0 0 0,-0.22 c -0.07,-0.77 -0.63,-1.51 -1.8,-2.18 v 0 a 7.4,7.4 0 0 0 -3.74,-1 h -0.33 -0.33 -0.3 -0.12 -0.22 a 17.23,17.23 0 0 0 -1.82,0.38 l -0.85,0.25 -1.18,0.38 -0.45,0.16 a 13.27,13.27 0 0 1 -2.5,0.71 2.52,2.52 0 0 1 -1.07,0 2.21,2.21 0 0 1 -0.5,-0.21 c -0.63,-0.36 -0.73,-0.92 0.45,-1.6 a 4.12,4.12 0 0 1 3.62,-0.38 l 2.51,-2.52 a 10.73,10.73 0 0 0 -7.56,0.42 l -2.09,-1.2 -2.84,1.64 2.09,1.2 a 3.21,3.21 0 0 0 -1.55,2.39 v 0 c 0,0.8 0.61,1.58 1.85,2.29 2.74,1.58 5.46,1.06 7.94,0.26 2.31,-0.76 4,-1.64 5.33,-0.88 0.83,0.49 0.57,1.07 -0.35,1.6 a 4.58,4.58 0 0 1 -4,0.23 l -2.67,2.65 a 9.69,9.69 0 0 0 1.47,0.43 11,11 0 0 0 6.6,-0.8 l 2.08,1.21 2.82,-1.62 z"
       style="opacity:0.7;fill:#f5f5f5"
       id="path288" />
    <path
       d="m 137.94,230.31 a 18.13,18.13 0 0 0 -6.67,-6.17 c -10.91,-6.29 -28.59,-6.29 -39.49,0 a 18.13,18.13 0 0 0 -6.67,6.17 H 83.6 v 5.69 0 c 0.2,4 2.92,7.89 8.16,10.92 10.9,6.3 28.58,6.3 39.49,0 5.24,-3 8,-7 8.16,-10.92 v 0 -5.71 z"
       style="fill:#b48d8d"
       id="path290" />
    <path
       d="m 137.94,230.31 a 18.13,18.13 0 0 0 -6.67,-6.17 c -10.91,-6.29 -28.59,-6.29 -39.49,0 a 18.13,18.13 0 0 0 -6.67,6.17 H 83.6 v 5.69 0 c 0.2,4 2.92,7.89 8.16,10.92 10.9,6.3 28.58,6.3 39.49,0 5.24,-3 8,-7 8.16,-10.92 v 0 -5.71 z"
       style="opacity:0.5;fill:#f5f5f5"
       id="path292" />
    <path
       d="m 131.27,218.91 c -10.91,-6.29 -28.59,-6.29 -39.49,0 -10.9,6.29 -10.9,16.51 0,22.8 10.9,6.29 28.58,6.3 39.49,0 10.91,-6.3 10.9,-16.5 0,-22.8 z"
       style="fill:#b48d8d"
       id="path294" />
    <path
       d="m 131.27,218.91 c -10.91,-6.29 -28.59,-6.29 -39.49,0 -10.9,6.29 -10.9,16.51 0,22.8 10.9,6.29 28.58,6.3 39.49,0 10.91,-6.3 10.9,-16.5 0,-22.8 z"
       style="opacity:0.6;fill:#f5f5f5"
       id="path296" />
    <path
       d="m 124.38,223.09 a 28.81,28.81 0 0 0 -12.86,-2.75 28.79,28.79 0 0 0 -12.85,2.75 C 95,225 93,227.53 93,230.32 c 0,2.79 2,5.35 5.67,7.22 a 28.79,28.79 0 0 0 12.85,2.75 28.81,28.81 0 0 0 12.86,-2.75 c 3.65,-1.87 5.67,-4.44 5.67,-7.22 0,-2.78 -2.05,-5.32 -5.67,-7.23 z"
       style="fill:#b48d8d"
       id="path298" />
    <path
       d="m 124.38,223.09 a 28.81,28.81 0 0 0 -12.86,-2.75 28.79,28.79 0 0 0 -12.85,2.75 C 95,225 93,227.53 93,230.32 c 0,2.79 2,5.35 5.67,7.22 a 28.79,28.79 0 0 0 12.85,2.75 28.81,28.81 0 0 0 12.86,-2.75 c 3.65,-1.87 5.67,-4.44 5.67,-7.22 0,-2.78 -2.05,-5.32 -5.67,-7.23 z"
       style="opacity:0.6;fill:#f5f5f5"
       id="path300" />
    <path
       d="m 130.66,220 c -5.09,-2.94 -11.89,-4.56 -19.14,-4.56 -7.25,0 -14.04,1.56 -19.13,4.56 -4.89,2.82 -7.57,6.49 -7.57,10.35 0,3.86 2.68,7.52 7.57,10.34 5.09,2.94 11.88,4.56 19.13,4.56 7.25,0 14,-1.62 19.14,-4.56 4.88,-2.82 7.57,-6.49 7.57,-10.34 0,-3.85 -2.69,-7.56 -7.57,-10.35 z m -6.28,17.57 a 28.81,28.81 0 0 1 -12.86,2.75 28.79,28.79 0 0 1 -12.85,-2.75 C 95,235.67 93,233.1 93,230.32 c 0,-2.78 2,-5.36 5.67,-7.23 a 28.79,28.79 0 0 1 12.85,-2.75 28.81,28.81 0 0 1 12.86,2.75 c 3.65,1.87 5.67,4.44 5.67,7.23 0,2.79 -2.05,5.35 -5.67,7.22 z"
       style="fill:#b48d8d"
       id="path302" />
    <path
       d="m 130.66,220 c -5.09,-2.94 -11.89,-4.56 -19.14,-4.56 -7.25,0 -14.04,1.56 -19.13,4.56 -4.89,2.82 -7.57,6.49 -7.57,10.35 0,3.86 2.68,7.52 7.57,10.34 5.09,2.94 11.88,4.56 19.13,4.56 7.25,0 14,-1.62 19.14,-4.56 4.88,-2.82 7.57,-6.49 7.57,-10.34 0,-3.85 -2.69,-7.56 -7.57,-10.35 z m -6.28,17.57 a 28.81,28.81 0 0 1 -12.86,2.75 28.79,28.79 0 0 1 -12.85,-2.75 C 95,235.67 93,233.1 93,230.32 c 0,-2.78 2,-5.36 5.67,-7.23 a 28.79,28.79 0 0 1 12.85,-2.75 28.81,28.81 0 0 1 12.86,2.75 c 3.65,1.87 5.67,4.44 5.67,7.23 0,2.79 -2.05,5.35 -5.67,7.22 z"
       style="opacity:0.7;fill:#f5f5f5"
       id="path304" />
    <ellipse
       cx="111.52"
       cy="230.31"
       rx="17.559999"
       ry="9.0100002"
       style="fill:#b48d8d"
       id="ellipse306" />
    <ellipse
       cx="111.52"
       cy="230.31"
       rx="17.559999"
       ry="9.0100002"
       style="opacity:0.5;fill:#f5f5f5"
       id="ellipse308" />
    <path
       d="m 123.94,226.33 c -6.86,-3.52 -18,-3.52 -24.83,0 -2.84,1.45 -4.5,3.28 -5,5.18 0.49,1.89 2.15,3.72 5,5.18 6.85,3.51 18,3.51 24.83,0 2.84,-1.46 4.5,-3.29 5,-5.18 -0.5,-1.9 -2.16,-3.73 -5,-5.18 z"
       style="fill:#b48d8d"
       id="path310" />
    <path
       d="m 123.94,226.33 c -6.86,-3.52 -18,-3.52 -24.83,0 -2.84,1.45 -4.5,3.28 -5,5.18 0.49,1.89 2.15,3.72 5,5.18 6.85,3.51 18,3.51 24.83,0 2.84,-1.46 4.5,-3.29 5,-5.18 -0.5,-1.9 -2.16,-3.73 -5,-5.18 z"
       style="opacity:0.6;fill:#f5f5f5"
       id="path312" />
    <polygon
       points="113.19,226.65 112.31,227.58 110.68,229.28 110.68,226.6 113.19,224.08 "
       style="fill:#b48d8d"
       id="polygon314" />
    <path
       d="m 110.68,226.6 v 2.68 h -5.08 v -3.14 c 0,0 4.7,-0.72 5.08,0.46 z"
       style="fill:#b48d8d"
       id="path316" />
    <path
       d="m 122.34,233.91 v 2.23 l -2.82,1.62 -2.08,-1.2 a 10.61,10.61 0 0 1 -8.07,0.36 v -2.22 l 1.28,-1.27 -1.28,0.35 a 8.21,8.21 0 0 1 -6.28,-0.72 c -1.26,-0.73 -1.85,-1.52 -1.85,-2.34 v -2.17 l 0.23,-0.94 -0.77,-0.45 v -2.23 l 2.09,1.21 a 3.23,3.23 0 0 0 -1.55,2.39 v 0 c 0,0.8 0.62,1.58 1.85,2.29 2.74,1.58 5.45,1.06 7.94,0.26 2.31,-0.75 4,-1.64 5.33,-0.87 0.83,0.48 0.58,1.06 -0.35,1.6 a 4.65,4.65 0 0 1 -4,0.23 l -2.67,2.64 a 9.69,9.69 0 0 0 1.47,0.43 11,11 0 0 0 6.6,-0.8 l 2.08,1.21 z"
       style="fill:#b48d8d"
       id="path318" />
    <polygon
       points="117.44,236.56 119.52,237.76 119.52,235.54 117.44,234.34 "
       style="fill:#b48d8d"
       id="polygon320" />
    <g
       style="opacity:0.5"
       id="g330">
      <polygon
         points="113.19,226.65 112.31,227.58 110.68,229.28 110.68,226.6 113.19,224.08 "
         style="fill:#f5f5f5"
         id="polygon322" />
      <path
         d="m 110.68,226.6 v 2.68 h -5.08 v -3.14 c 0,0 4.7,-0.72 5.08,0.46 z"
         style="fill:#f5f5f5"
         id="path324" />
      <path
         d="m 122.34,233.91 v 2.23 l -2.82,1.62 -2.08,-1.2 a 10.61,10.61 0 0 1 -8.07,0.36 v -2.22 l 1.28,-1.27 -1.28,0.35 a 8.21,8.21 0 0 1 -6.28,-0.72 c -1.26,-0.73 -1.85,-1.52 -1.85,-2.34 v -2.17 l 0.23,-0.94 -0.77,-0.45 v -2.23 l 2.09,1.21 a 3.23,3.23 0 0 0 -1.55,2.39 v 0 c 0,0.8 0.62,1.58 1.85,2.29 2.74,1.58 5.45,1.06 7.94,0.26 2.31,-0.75 4,-1.64 5.33,-0.87 0.83,0.48 0.58,1.06 -0.35,1.6 a 4.65,4.65 0 0 1 -4,0.23 l -2.67,2.64 a 9.69,9.69 0 0 0 1.47,0.43 11,11 0 0 0 6.6,-0.8 l 2.08,1.21 z"
         style="fill:#f5f5f5"
         id="path326" />
      <polygon
         points="117.44,236.56 119.52,237.76 119.52,235.54 117.44,234.34 "
         style="fill:#f5f5f5"
         id="polygon328" />
    </g>
    <path
       d="m 121.87,233.64 -1.61,-0.93 a 2.74,2.74 0 0 0 1.61,-2.47 1.5,1.5 0 0 0 0,-0.22 c -0.07,-0.77 -0.63,-1.51 -1.8,-2.18 v 0 a 7.4,7.4 0 0 0 -3.74,-1 h -0.33 -0.33 -0.3 -0.12 -0.22 a 17.23,17.23 0 0 0 -1.82,0.38 l -0.85,0.25 -1.18,0.38 -0.45,0.16 a 13.27,13.27 0 0 1 -2.5,0.71 2.52,2.52 0 0 1 -1.07,0 2.21,2.21 0 0 1 -0.5,-0.21 c -0.63,-0.36 -0.73,-0.92 0.45,-1.6 a 4.12,4.12 0 0 1 3.62,-0.38 l 2.51,-2.52 a 10.73,10.73 0 0 0 -7.56,0.42 l -2.09,-1.2 -2.84,1.64 2.09,1.2 a 3.21,3.21 0 0 0 -1.55,2.39 v 0 c 0,0.8 0.61,1.58 1.85,2.29 2.74,1.58 5.46,1.06 7.94,0.26 2.31,-0.76 4,-1.64 5.33,-0.88 0.83,0.49 0.57,1.07 -0.35,1.6 a 4.58,4.58 0 0 1 -4,0.23 l -2.67,2.65 a 9.69,9.69 0 0 0 1.47,0.43 11.05,11.05 0 0 0 6.6,-0.79 l 2.08,1.2 2.82,-1.62 z"
       style="fill:#b48d8d"
       id="path332" />
    <path
       d="m 121.87,233.64 -1.61,-0.93 a 2.74,2.74 0 0 0 1.61,-2.47 1.5,1.5 0 0 0 0,-0.22 c -0.07,-0.77 -0.63,-1.51 -1.8,-2.18 v 0 a 7.4,7.4 0 0 0 -3.74,-1 h -0.33 -0.33 -0.3 -0.12 -0.22 a 17.23,17.23 0 0 0 -1.82,0.38 l -0.85,0.25 -1.18,0.38 -0.45,0.16 a 13.27,13.27 0 0 1 -2.5,0.71 2.52,2.52 0 0 1 -1.07,0 2.21,2.21 0 0 1 -0.5,-0.21 c -0.63,-0.36 -0.73,-0.92 0.45,-1.6 a 4.12,4.12 0 0 1 3.62,-0.38 l 2.51,-2.52 a 10.73,10.73 0 0 0 -7.56,0.42 l -2.09,-1.2 -2.84,1.64 2.09,1.2 a 3.21,3.21 0 0 0 -1.55,2.39 v 0 c 0,0.8 0.61,1.58 1.85,2.29 2.74,1.58 5.46,1.06 7.94,0.26 2.31,-0.76 4,-1.64 5.33,-0.88 0.83,0.49 0.57,1.07 -0.35,1.6 a 4.58,4.58 0 0 1 -4,0.23 l -2.67,2.65 a 9.69,9.69 0 0 0 1.47,0.43 11.05,11.05 0 0 0 6.6,-0.79 l 2.08,1.2 2.82,-1.62 z"
       style="opacity:0.7;fill:#f5f5f5"
       id="path334" />
    <path
       d="m 420.94,258.31 a 18.13,18.13 0 0 0 -6.67,-6.17 c -10.91,-6.29 -28.59,-6.29 -39.49,0 a 18.13,18.13 0 0 0 -6.67,6.17 h -1.51 v 5.69 0 c 0.2,4 2.92,7.89 8.16,10.92 10.9,6.3 28.58,6.3 39.49,0 5.24,-3 8,-7 8.16,-10.92 v 0 -5.71 z"
       style="fill:#b48d8d"
       id="path336" />
    <path
       d="m 420.94,258.31 a 18.13,18.13 0 0 0 -6.67,-6.17 c -10.91,-6.29 -28.59,-6.29 -39.49,0 a 18.13,18.13 0 0 0 -6.67,6.17 h -1.51 v 5.69 0 c 0.2,4 2.92,7.89 8.16,10.92 10.9,6.3 28.58,6.3 39.49,0 5.24,-3 8,-7 8.16,-10.92 v 0 -5.71 z"
       style="opacity:0.5;fill:#f5f5f5"
       id="path338" />
    <path
       d="m 414.27,246.91 c -10.91,-6.29 -28.59,-6.29 -39.49,0 -10.9,6.29 -10.9,16.51 0,22.8 10.9,6.29 28.58,6.3 39.49,0 10.91,-6.3 10.9,-16.5 0,-22.8 z"
       style="fill:#b48d8d"
       id="path340" />
    <path
       d="m 414.27,246.91 c -10.91,-6.29 -28.59,-6.29 -39.49,0 -10.9,6.29 -10.9,16.51 0,22.8 10.9,6.29 28.58,6.3 39.49,0 10.91,-6.3 10.9,-16.5 0,-22.8 z"
       style="opacity:0.6;fill:#f5f5f5"
       id="path342" />
    <path
       d="m 407.38,251.09 a 31.42,31.42 0 0 0 -25.71,0 C 378,253 376,255.53 376,258.32 c 0,2.79 2,5.35 5.67,7.22 a 31.42,31.42 0 0 0 25.71,0 c 3.65,-1.87 5.67,-4.44 5.67,-7.22 0,-2.78 -2.05,-5.32 -5.67,-7.23 z"
       style="fill:#b48d8d"
       id="path344" />
    <path
       d="m 407.38,251.09 a 31.42,31.42 0 0 0 -25.71,0 C 378,253 376,255.53 376,258.32 c 0,2.79 2,5.35 5.67,7.22 a 31.42,31.42 0 0 0 25.71,0 c 3.65,-1.87 5.67,-4.44 5.67,-7.22 0,-2.78 -2.05,-5.32 -5.67,-7.23 z"
       style="opacity:0.6;fill:#f5f5f5"
       id="path346" />
    <path
       d="m 413.66,248 c -5.09,-2.94 -11.89,-4.56 -19.14,-4.56 -7.25,0 -14,1.62 -19.13,4.56 -4.89,2.82 -7.57,6.49 -7.57,10.35 0,3.86 2.68,7.52 7.57,10.34 5.09,2.94 11.88,4.56 19.13,4.56 7.25,0 14.05,-1.62 19.14,-4.56 4.88,-2.82 7.57,-6.49 7.57,-10.34 0,-3.85 -2.69,-7.56 -7.57,-10.35 z m -6.28,17.57 a 31.42,31.42 0 0 1 -25.71,0 c -3.66,-1.87 -5.67,-4.44 -5.67,-7.22 0,-2.78 2,-5.36 5.67,-7.23 a 31.42,31.42 0 0 1 25.71,0 c 3.65,1.87 5.67,4.44 5.67,7.23 0,2.79 -2.05,5.32 -5.67,7.19 z"
       style="fill:#b48d8d"
       id="path348" />
    <path
       d="m 413.66,248 c -5.09,-2.94 -11.89,-4.56 -19.14,-4.56 -7.25,0 -14,1.62 -19.13,4.56 -4.89,2.82 -7.57,6.49 -7.57,10.35 0,3.86 2.68,7.52 7.57,10.34 5.09,2.94 11.88,4.56 19.13,4.56 7.25,0 14.05,-1.62 19.14,-4.56 4.88,-2.82 7.57,-6.49 7.57,-10.34 0,-3.85 -2.69,-7.56 -7.57,-10.35 z m -6.28,17.57 a 31.42,31.42 0 0 1 -25.71,0 c -3.66,-1.87 -5.67,-4.44 -5.67,-7.22 0,-2.78 2,-5.36 5.67,-7.23 a 31.42,31.42 0 0 1 25.71,0 c 3.65,1.87 5.67,4.44 5.67,7.23 0,2.79 -2.05,5.32 -5.67,7.19 z"
       style="opacity:0.7;fill:#f5f5f5"
       id="path350" />
    <ellipse
       cx="394.51999"
       cy="258.31"
       rx="17.559999"
       ry="9.0100002"
       style="fill:#b48d8d"
       id="ellipse352" />
    <ellipse
       cx="394.51999"
       cy="258.31"
       rx="17.559999"
       ry="9.0100002"
       style="opacity:0.5;fill:#f5f5f5"
       id="ellipse354" />
    <path
       d="m 406.94,254.33 c -6.86,-3.52 -18,-3.52 -24.83,0 -2.84,1.45 -4.5,3.28 -5,5.18 0.49,1.89 2.15,3.72 5,5.18 6.85,3.51 18,3.51 24.83,0 2.84,-1.46 4.5,-3.29 5,-5.18 -0.5,-1.9 -2.16,-3.73 -5,-5.18 z"
       style="fill:#b48d8d"
       id="path356" />
    <path
       d="m 406.94,254.33 c -6.86,-3.52 -18,-3.52 -24.83,0 -2.84,1.45 -4.5,3.28 -5,5.18 0.49,1.89 2.15,3.72 5,5.18 6.85,3.51 18,3.51 24.83,0 2.84,-1.46 4.5,-3.29 5,-5.18 -0.5,-1.9 -2.16,-3.73 -5,-5.18 z"
       style="opacity:0.6;fill:#f5f5f5"
       id="path358" />
    <polygon
       points="396.19,254.65 395.31,255.58 393.68,257.28 393.68,254.6 396.19,252.08 "
       style="fill:#b48d8d"
       id="polygon360" />
    <path
       d="m 393.68,254.6 v 2.68 h -5.08 v -3.14 c 0,0 4.7,-0.72 5.08,0.46 z"
       style="fill:#b48d8d"
       id="path362" />
    <path
       d="m 405.34,261.91 v 2.23 l -2.82,1.62 -2.08,-1.2 a 10.61,10.61 0 0 1 -8.07,0.36 v -2.22 l 1.28,-1.27 -1.28,0.35 a 8.21,8.21 0 0 1 -6.28,-0.72 c -1.26,-0.73 -1.85,-1.52 -1.85,-2.34 v -2.17 l 0.23,-0.94 -0.77,-0.45 v -2.23 l 2.09,1.21 a 3.23,3.23 0 0 0 -1.55,2.39 v 0 c 0,0.8 0.62,1.58 1.85,2.29 2.74,1.58 5.45,1.06 7.94,0.26 2.31,-0.75 4,-1.64 5.33,-0.87 0.83,0.48 0.57,1.06 -0.35,1.6 a 4.65,4.65 0 0 1 -4,0.23 l -2.67,2.64 a 9.69,9.69 0 0 0 1.47,0.43 11,11 0 0 0 6.6,-0.8 l 2.08,1.21 z"
       style="fill:#b48d8d"
       id="path364" />
    <polygon
       points="400.44,264.56 402.52,265.76 402.52,263.54 400.44,262.33 "
       style="fill:#b48d8d"
       id="polygon366" />
    <g
       style="opacity:0.5"
       id="g376">
      <polygon
         points="396.19,254.65 395.31,255.58 393.68,257.28 393.68,254.6 396.19,252.08 "
         style="fill:#f5f5f5"
         id="polygon368" />
      <path
         d="m 393.68,254.6 v 2.68 h -5.08 v -3.14 c 0,0 4.7,-0.72 5.08,0.46 z"
         style="fill:#f5f5f5"
         id="path370" />
      <path
         d="m 405.34,261.91 v 2.23 l -2.82,1.62 -2.08,-1.2 a 10.61,10.61 0 0 1 -8.07,0.36 v -2.22 l 1.28,-1.27 -1.28,0.35 a 8.21,8.21 0 0 1 -6.28,-0.72 c -1.26,-0.73 -1.85,-1.52 -1.85,-2.34 v -2.17 l 0.23,-0.94 -0.77,-0.45 v -2.23 l 2.09,1.21 a 3.23,3.23 0 0 0 -1.55,2.39 v 0 c 0,0.8 0.62,1.58 1.85,2.29 2.74,1.58 5.45,1.06 7.94,0.26 2.31,-0.75 4,-1.64 5.33,-0.87 0.83,0.48 0.57,1.06 -0.35,1.6 a 4.65,4.65 0 0 1 -4,0.23 l -2.67,2.64 a 9.69,9.69 0 0 0 1.47,0.43 11,11 0 0 0 6.6,-0.8 l 2.08,1.21 z"
         style="fill:#f5f5f5"
         id="path372" />
      <polygon
         points="400.44,264.56 402.52,265.76 402.52,263.54 400.44,262.33 "
         style="fill:#f5f5f5"
         id="polygon374" />
    </g>
    <path
       d="m 404.87,261.64 -1.61,-0.93 a 2.74,2.74 0 0 0 1.61,-2.47 1.5,1.5 0 0 0 0,-0.22 c -0.07,-0.77 -0.63,-1.51 -1.8,-2.18 v 0 a 7.4,7.4 0 0 0 -3.74,-1 h -0.33 -0.33 -0.3 -0.12 -0.22 a 17.23,17.23 0 0 0 -1.82,0.38 l -0.85,0.25 -1.18,0.38 -0.45,0.16 a 13.27,13.27 0 0 1 -2.5,0.71 2.52,2.52 0 0 1 -1.07,0 2.21,2.21 0 0 1 -0.5,-0.21 c -0.63,-0.36 -0.73,-0.92 0.45,-1.6 a 4.12,4.12 0 0 1 3.62,-0.38 l 2.51,-2.52 a 10.73,10.73 0 0 0 -7.56,0.42 l -2.09,-1.2 -2.84,1.64 2.09,1.2 a 3.21,3.21 0 0 0 -1.55,2.39 v 0 c 0,0.8 0.61,1.58 1.85,2.29 2.74,1.58 5.46,1.06 7.94,0.26 2.31,-0.76 4,-1.64 5.33,-0.88 0.83,0.49 0.57,1.07 -0.35,1.6 a 4.58,4.58 0 0 1 -4,0.23 l -2.67,2.65 a 9.69,9.69 0 0 0 1.47,0.43 11,11 0 0 0 6.6,-0.8 l 2.08,1.21 2.82,-1.62 z"
       style="fill:#b48d8d"
       id="path378" />
    <path
       d="m 404.87,261.64 -1.61,-0.93 a 2.74,2.74 0 0 0 1.61,-2.47 1.5,1.5 0 0 0 0,-0.22 c -0.07,-0.77 -0.63,-1.51 -1.8,-2.18 v 0 a 7.4,7.4 0 0 0 -3.74,-1 h -0.33 -0.33 -0.3 -0.12 -0.22 a 17.23,17.23 0 0 0 -1.82,0.38 l -0.85,0.25 -1.18,0.38 -0.45,0.16 a 13.27,13.27 0 0 1 -2.5,0.71 2.52,2.52 0 0 1 -1.07,0 2.21,2.21 0 0 1 -0.5,-0.21 c -0.63,-0.36 -0.73,-0.92 0.45,-1.6 a 4.12,4.12 0 0 1 3.62,-0.38 l 2.51,-2.52 a 10.73,10.73 0 0 0 -7.56,0.42 l -2.09,-1.2 -2.84,1.64 2.09,1.2 a 3.21,3.21 0 0 0 -1.55,2.39 v 0 c 0,0.8 0.61,1.58 1.85,2.29 2.74,1.58 5.46,1.06 7.94,0.26 2.31,-0.76 4,-1.64 5.33,-0.88 0.83,0.49 0.57,1.07 -0.35,1.6 a 4.58,4.58 0 0 1 -4,0.23 l -2.67,2.65 a 9.69,9.69 0 0 0 1.47,0.43 11,11 0 0 0 6.6,-0.8 l 2.08,1.21 2.82,-1.62 z"
       style="opacity:0.7;fill:#f5f5f5"
       id="path380" />
    <path
       d="m 422.94,250.31 a 18.13,18.13 0 0 0 -6.67,-6.17 c -10.91,-6.29 -28.59,-6.29 -39.49,0 a 18.13,18.13 0 0 0 -6.67,6.17 h -1.51 v 5.69 0 c 0.2,4 2.92,7.89 8.16,10.92 10.9,6.3 28.58,6.3 39.49,0 5.24,-3 8,-7 8.16,-10.92 v 0 -5.71 z"
       style="fill:#b48d8d"
       id="path382" />
    <path
       d="m 422.94,250.31 a 18.13,18.13 0 0 0 -6.67,-6.17 c -10.91,-6.29 -28.59,-6.29 -39.49,0 a 18.13,18.13 0 0 0 -6.67,6.17 h -1.51 v 5.69 0 c 0.2,4 2.92,7.89 8.16,10.92 10.9,6.3 28.58,6.3 39.49,0 5.24,-3 8,-7 8.16,-10.92 v 0 -5.71 z"
       style="opacity:0.5;fill:#f5f5f5"
       id="path384" />
    <path
       d="m 416.27,238.91 c -10.91,-6.29 -28.59,-6.29 -39.49,0 -10.9,6.29 -10.9,16.51 0,22.8 10.9,6.29 28.58,6.3 39.49,0 10.91,-6.3 10.9,-16.5 0,-22.8 z"
       style="fill:#b48d8d"
       id="path386" />
    <path
       d="m 416.27,238.91 c -10.91,-6.29 -28.59,-6.29 -39.49,0 -10.9,6.29 -10.9,16.51 0,22.8 10.9,6.29 28.58,6.3 39.49,0 10.91,-6.3 10.9,-16.5 0,-22.8 z"
       style="opacity:0.6;fill:#f5f5f5"
       id="path388" />
    <path
       d="m 409.38,243.09 a 31.42,31.42 0 0 0 -25.71,0 C 380,245 378,247.53 378,250.32 c 0,2.79 2,5.35 5.67,7.22 a 31.42,31.42 0 0 0 25.71,0 c 3.65,-1.87 5.67,-4.44 5.67,-7.22 0,-2.78 -2.05,-5.32 -5.67,-7.23 z"
       style="fill:#b48d8d"
       id="path390" />
    <path
       d="m 409.38,243.09 a 31.42,31.42 0 0 0 -25.71,0 C 380,245 378,247.53 378,250.32 c 0,2.79 2,5.35 5.67,7.22 a 31.42,31.42 0 0 0 25.71,0 c 3.65,-1.87 5.67,-4.44 5.67,-7.22 0,-2.78 -2.05,-5.32 -5.67,-7.23 z"
       style="opacity:0.6;fill:#f5f5f5"
       id="path392" />
    <path
       d="m 415.66,240 c -5.09,-2.94 -11.89,-4.56 -19.14,-4.56 -7.25,0 -14,1.62 -19.13,4.56 -4.89,2.82 -7.57,6.49 -7.57,10.35 0,3.86 2.68,7.52 7.57,10.34 5.09,2.94 11.88,4.56 19.13,4.56 7.25,0 14.05,-1.62 19.14,-4.56 4.88,-2.82 7.57,-6.49 7.57,-10.34 0,-3.85 -2.69,-7.56 -7.57,-10.35 z m -6.28,17.57 a 31.42,31.42 0 0 1 -25.71,0 c -3.66,-1.87 -5.67,-4.44 -5.67,-7.22 0,-2.78 2,-5.36 5.67,-7.23 a 31.42,31.42 0 0 1 25.71,0 c 3.65,1.87 5.67,4.44 5.67,7.23 0,2.79 -2.05,5.32 -5.67,7.19 z"
       style="fill:#b48d8d"
       id="path394" />
    <path
       d="m 415.66,240 c -5.09,-2.94 -11.89,-4.56 -19.14,-4.56 -7.25,0 -14,1.62 -19.13,4.56 -4.89,2.82 -7.57,6.49 -7.57,10.35 0,3.86 2.68,7.52 7.57,10.34 5.09,2.94 11.88,4.56 19.13,4.56 7.25,0 14.05,-1.62 19.14,-4.56 4.88,-2.82 7.57,-6.49 7.57,-10.34 0,-3.85 -2.69,-7.56 -7.57,-10.35 z m -6.28,17.57 a 31.42,31.42 0 0 1 -25.71,0 c -3.66,-1.87 -5.67,-4.44 -5.67,-7.22 0,-2.78 2,-5.36 5.67,-7.23 a 31.42,31.42 0 0 1 25.71,0 c 3.65,1.87 5.67,4.44 5.67,7.23 0,2.79 -2.05,5.32 -5.67,7.19 z"
       style="opacity:0.7;fill:#f5f5f5"
       id="path396" />
    <ellipse
       cx="396.51999"
       cy="250.31"
       rx="17.559999"
       ry="9.0100002"
       style="fill:#b48d8d"
       id="ellipse398" />
    <ellipse
       cx="396.51999"
       cy="250.31"
       rx="17.559999"
       ry="9.0100002"
       style="opacity:0.5;fill:#f5f5f5"
       id="ellipse400" />
    <path
       d="m 408.94,246.33 c -6.86,-3.52 -18,-3.52 -24.83,0 -2.84,1.45 -4.5,3.28 -5,5.18 0.49,1.89 2.15,3.72 5,5.18 6.85,3.51 18,3.51 24.83,0 2.84,-1.46 4.5,-3.29 5,-5.18 -0.5,-1.9 -2.16,-3.73 -5,-5.18 z"
       style="fill:#b48d8d"
       id="path402" />
    <path
       d="m 408.94,246.33 c -6.86,-3.52 -18,-3.52 -24.83,0 -2.84,1.45 -4.5,3.28 -5,5.18 0.49,1.89 2.15,3.72 5,5.18 6.85,3.51 18,3.51 24.83,0 2.84,-1.46 4.5,-3.29 5,-5.18 -0.5,-1.9 -2.16,-3.73 -5,-5.18 z"
       style="opacity:0.6;fill:#f5f5f5"
       id="path404" />
    <polygon
       points="398.19,246.65 397.31,247.58 395.68,249.28 395.68,246.6 398.19,244.08 "
       style="fill:#b48d8d"
       id="polygon406" />
    <path
       d="m 395.68,246.6 v 2.68 h -5.08 v -3.14 c 0,0 4.7,-0.72 5.08,0.46 z"
       style="fill:#b48d8d"
       id="path408" />
    <path
       d="m 407.34,253.91 v 2.23 l -2.82,1.62 -2.08,-1.2 a 10.61,10.61 0 0 1 -8.07,0.36 v -2.22 l 1.28,-1.27 -1.28,0.35 a 8.21,8.21 0 0 1 -6.28,-0.72 c -1.26,-0.73 -1.85,-1.52 -1.85,-2.34 v -2.17 l 0.23,-0.94 -0.77,-0.45 v -2.23 l 2.09,1.21 a 3.23,3.23 0 0 0 -1.55,2.39 v 0 c 0,0.8 0.62,1.58 1.85,2.29 2.74,1.58 5.45,1.06 7.94,0.26 2.31,-0.75 4,-1.64 5.33,-0.87 0.83,0.48 0.57,1.06 -0.35,1.6 a 4.65,4.65 0 0 1 -4,0.23 l -2.67,2.64 a 9.69,9.69 0 0 0 1.47,0.43 11,11 0 0 0 6.6,-0.8 l 2.08,1.21 z"
       style="fill:#b48d8d"
       id="path410" />
    <polygon
       points="402.44,256.56 404.52,257.76 404.52,255.54 402.44,254.34 "
       style="fill:#b48d8d"
       id="polygon412" />
    <g
       style="opacity:0.5"
       id="g422">
      <polygon
         points="398.19,246.65 397.31,247.58 395.68,249.28 395.68,246.6 398.19,244.08 "
         style="fill:#f5f5f5"
         id="polygon414" />
      <path
         d="m 395.68,246.6 v 2.68 h -5.08 v -3.14 c 0,0 4.7,-0.72 5.08,0.46 z"
         style="fill:#f5f5f5"
         id="path416" />
      <path
         d="m 407.34,253.91 v 2.23 l -2.82,1.62 -2.08,-1.2 a 10.61,10.61 0 0 1 -8.07,0.36 v -2.22 l 1.28,-1.27 -1.28,0.35 a 8.21,8.21 0 0 1 -6.28,-0.72 c -1.26,-0.73 -1.85,-1.52 -1.85,-2.34 v -2.17 l 0.23,-0.94 -0.77,-0.45 v -2.23 l 2.09,1.21 a 3.23,3.23 0 0 0 -1.55,2.39 v 0 c 0,0.8 0.62,1.58 1.85,2.29 2.74,1.58 5.45,1.06 7.94,0.26 2.31,-0.75 4,-1.64 5.33,-0.87 0.83,0.48 0.57,1.06 -0.35,1.6 a 4.65,4.65 0 0 1 -4,0.23 l -2.67,2.64 a 9.69,9.69 0 0 0 1.47,0.43 11,11 0 0 0 6.6,-0.8 l 2.08,1.21 z"
         style="fill:#f5f5f5"
         id="path418" />
      <polygon
         points="402.44,256.56 404.52,257.76 404.52,255.54 402.44,254.34 "
         style="fill:#f5f5f5"
         id="polygon420" />
    </g>
    <path
       d="m 406.87,253.64 -1.61,-0.93 a 2.74,2.74 0 0 0 1.61,-2.47 1.5,1.5 0 0 0 0,-0.22 c -0.07,-0.77 -0.63,-1.51 -1.8,-2.18 v 0 a 7.4,7.4 0 0 0 -3.74,-1 h -0.33 -0.33 -0.3 -0.12 -0.22 a 17.23,17.23 0 0 0 -1.82,0.38 l -0.85,0.25 -1.18,0.38 -0.45,0.16 a 13.27,13.27 0 0 1 -2.5,0.71 2.52,2.52 0 0 1 -1.07,0 2.21,2.21 0 0 1 -0.5,-0.21 c -0.63,-0.36 -0.73,-0.92 0.45,-1.6 a 4.12,4.12 0 0 1 3.62,-0.38 l 2.51,-2.52 a 10.73,10.73 0 0 0 -7.56,0.42 l -2.09,-1.2 -2.84,1.64 2.09,1.2 a 3.21,3.21 0 0 0 -1.55,2.39 v 0 c 0,0.8 0.61,1.58 1.85,2.29 2.74,1.58 5.46,1.06 7.94,0.26 2.31,-0.76 4,-1.64 5.33,-0.88 0.83,0.49 0.57,1.07 -0.35,1.6 a 4.58,4.58 0 0 1 -4,0.23 l -2.67,2.65 a 9.69,9.69 0 0 0 1.47,0.43 11,11 0 0 0 6.6,-0.8 l 2.08,1.21 2.82,-1.62 z"
       style="fill:#b48d8d"
       id="path424" />
    <path
       d="m 406.87,253.64 -1.61,-0.93 a 2.74,2.74 0 0 0 1.61,-2.47 1.5,1.5 0 0 0 0,-0.22 c -0.07,-0.77 -0.63,-1.51 -1.8,-2.18 v 0 a 7.4,7.4 0 0 0 -3.74,-1 h -0.33 -0.33 -0.3 -0.12 -0.22 a 17.23,17.23 0 0 0 -1.82,0.38 l -0.85,0.25 -1.18,0.38 -0.45,0.16 a 13.27,13.27 0 0 1 -2.5,0.71 2.52,2.52 0 0 1 -1.07,0 2.21,2.21 0 0 1 -0.5,-0.21 c -0.63,-0.36 -0.73,-0.92 0.45,-1.6 a 4.12,4.12 0 0 1 3.62,-0.38 l 2.51,-2.52 a 10.73,10.73 0 0 0 -7.56,0.42 l -2.09,-1.2 -2.84,1.64 2.09,1.2 a 3.21,3.21 0 0 0 -1.55,2.39 v 0 c 0,0.8 0.61,1.58 1.85,2.29 2.74,1.58 5.46,1.06 7.94,0.26 2.31,-0.76 4,-1.64 5.33,-0.88 0.83,0.49 0.57,1.07 -0.35,1.6 a 4.58,4.58 0 0 1 -4,0.23 l -2.67,2.65 a 9.69,9.69 0 0 0 1.47,0.43 11,11 0 0 0 6.6,-0.8 l 2.08,1.21 2.82,-1.62 z"
       style="opacity:0.7;fill:#f5f5f5"
       id="path426" />
    <path
       d="m 419.94,243.31 a 18.13,18.13 0 0 0 -6.67,-6.17 c -10.91,-6.29 -28.59,-6.29 -39.49,0 a 18.13,18.13 0 0 0 -6.67,6.17 h -1.51 v 5.69 0 c 0.2,4 2.92,7.89 8.16,10.92 10.9,6.3 28.58,6.3 39.49,0 5.24,-3 8,-7 8.16,-10.92 v 0 -5.71 z"
       style="fill:#b48d8d"
       id="path428" />
    <path
       d="m 419.94,243.31 a 18.13,18.13 0 0 0 -6.67,-6.17 c -10.91,-6.29 -28.59,-6.29 -39.49,0 a 18.13,18.13 0 0 0 -6.67,6.17 h -1.51 v 5.69 0 c 0.2,4 2.92,7.89 8.16,10.92 10.9,6.3 28.58,6.3 39.49,0 5.24,-3 8,-7 8.16,-10.92 v 0 -5.71 z"
       style="opacity:0.5;fill:#f5f5f5"
       id="path430" />
    <path
       d="m 413.27,231.91 c -10.91,-6.29 -28.59,-6.29 -39.49,0 -10.9,6.29 -10.9,16.51 0,22.8 10.9,6.29 28.58,6.3 39.49,0 10.91,-6.3 10.9,-16.5 0,-22.8 z"
       style="fill:#b48d8d"
       id="path432" />
    <path
       d="m 413.27,231.91 c -10.91,-6.29 -28.59,-6.29 -39.49,0 -10.9,6.29 -10.9,16.51 0,22.8 10.9,6.29 28.58,6.3 39.49,0 10.91,-6.3 10.9,-16.5 0,-22.8 z"
       style="opacity:0.6;fill:#f5f5f5"
       id="path434" />
    <path
       d="m 406.38,236.09 a 31.42,31.42 0 0 0 -25.71,0 C 377,238 375,240.53 375,243.32 c 0,2.79 2,5.35 5.67,7.22 a 31.42,31.42 0 0 0 25.71,0 c 3.65,-1.87 5.67,-4.44 5.67,-7.22 0,-2.78 -2.05,-5.32 -5.67,-7.23 z"
       style="fill:#b48d8d"
       id="path436" />
    <path
       d="m 406.38,236.09 a 31.42,31.42 0 0 0 -25.71,0 C 377,238 375,240.53 375,243.32 c 0,2.79 2,5.35 5.67,7.22 a 31.42,31.42 0 0 0 25.71,0 c 3.65,-1.87 5.67,-4.44 5.67,-7.22 0,-2.78 -2.05,-5.32 -5.67,-7.23 z"
       style="opacity:0.6;fill:#f5f5f5"
       id="path438" />
    <path
       d="m 412.66,233 c -5.09,-2.94 -11.89,-4.56 -19.14,-4.56 -7.25,0 -14,1.62 -19.13,4.56 -4.89,2.82 -7.57,6.49 -7.57,10.35 0,3.86 2.68,7.52 7.57,10.34 5.09,2.94 11.88,4.56 19.13,4.56 7.25,0 14.05,-1.62 19.14,-4.56 4.88,-2.82 7.57,-6.49 7.57,-10.34 0,-3.85 -2.69,-7.56 -7.57,-10.35 z m -6.28,17.57 a 31.42,31.42 0 0 1 -25.71,0 c -3.66,-1.87 -5.67,-4.44 -5.67,-7.22 0,-2.78 2,-5.36 5.67,-7.23 a 31.42,31.42 0 0 1 25.71,0 c 3.65,1.87 5.67,4.44 5.67,7.23 0,2.79 -2.05,5.32 -5.67,7.19 z"
       style="fill:#b48d8d"
       id="path440" />
    <path
       d="m 412.66,233 c -5.09,-2.94 -11.89,-4.56 -19.14,-4.56 -7.25,0 -14,1.62 -19.13,4.56 -4.89,2.82 -7.57,6.49 -7.57,10.35 0,3.86 2.68,7.52 7.57,10.34 5.09,2.94 11.88,4.56 19.13,4.56 7.25,0 14.05,-1.62 19.14,-4.56 4.88,-2.82 7.57,-6.49 7.57,-10.34 0,-3.85 -2.69,-7.56 -7.57,-10.35 z m -6.28,17.57 a 31.42,31.42 0 0 1 -25.71,0 c -3.66,-1.87 -5.67,-4.44 -5.67,-7.22 0,-2.78 2,-5.36 5.67,-7.23 a 31.42,31.42 0 0 1 25.71,0 c 3.65,1.87 5.67,4.44 5.67,7.23 0,2.79 -2.05,5.32 -5.67,7.19 z"
       style="opacity:0.7;fill:#f5f5f5"
       id="path442" />
    <ellipse
       cx="393.51999"
       cy="243.31"
       rx="17.559999"
       ry="9.0100002"
       style="fill:#b48d8d"
       id="ellipse444" />
    <ellipse
       cx="393.51999"
       cy="243.31"
       rx="17.559999"
       ry="9.0100002"
       style="opacity:0.5;fill:#f5f5f5"
       id="ellipse446" />
    <path
       d="m 405.94,239.33 c -6.86,-3.52 -18,-3.52 -24.83,0 -2.84,1.45 -4.5,3.28 -5,5.18 0.49,1.89 2.15,3.72 5,5.18 6.85,3.51 18,3.51 24.83,0 2.84,-1.46 4.5,-3.29 5,-5.18 -0.5,-1.9 -2.16,-3.73 -5,-5.18 z"
       style="fill:#b48d8d"
       id="path448" />
    <path
       d="m 405.94,239.33 c -6.86,-3.52 -18,-3.52 -24.83,0 -2.84,1.45 -4.5,3.28 -5,5.18 0.49,1.89 2.15,3.72 5,5.18 6.85,3.51 18,3.51 24.83,0 2.84,-1.46 4.5,-3.29 5,-5.18 -0.5,-1.9 -2.16,-3.73 -5,-5.18 z"
       style="opacity:0.6;fill:#f5f5f5"
       id="path450" />
    <polygon
       points="395.19,239.65 394.31,240.58 392.68,242.28 392.68,239.6 395.19,237.08 "
       style="fill:#b48d8d"
       id="polygon452" />
    <path
       d="m 392.68,239.6 v 2.68 h -5.08 v -3.14 c 0,0 4.7,-0.72 5.08,0.46 z"
       style="fill:#b48d8d"
       id="path454" />
    <path
       d="m 404.34,246.91 v 2.23 l -2.82,1.62 -2.08,-1.2 a 10.61,10.61 0 0 1 -8.07,0.36 v -2.22 l 1.28,-1.27 -1.28,0.35 a 8.21,8.21 0 0 1 -6.28,-0.72 c -1.26,-0.73 -1.85,-1.52 -1.85,-2.34 v -2.17 l 0.23,-0.94 -0.77,-0.45 v -2.23 l 2.09,1.21 a 3.23,3.23 0 0 0 -1.55,2.39 v 0 c 0,0.8 0.62,1.58 1.85,2.29 2.74,1.58 5.45,1.06 7.94,0.26 2.31,-0.75 4,-1.64 5.33,-0.87 0.83,0.48 0.57,1.06 -0.35,1.6 a 4.65,4.65 0 0 1 -4,0.23 l -2.67,2.64 a 9.69,9.69 0 0 0 1.47,0.43 11,11 0 0 0 6.6,-0.8 l 2.08,1.21 z"
       style="fill:#b48d8d"
       id="path456" />
    <polygon
       points="399.44,249.56 401.52,250.76 401.52,248.54 399.44,247.34 "
       style="fill:#b48d8d"
       id="polygon458" />
    <g
       style="opacity:0.5"
       id="g468">
      <polygon
         points="395.19,239.65 394.31,240.58 392.68,242.28 392.68,239.6 395.19,237.08 "
         style="fill:#f5f5f5"
         id="polygon460" />
      <path
         d="m 392.68,239.6 v 2.68 h -5.08 v -3.14 c 0,0 4.7,-0.72 5.08,0.46 z"
         style="fill:#f5f5f5"
         id="path462" />
      <path
         d="m 404.34,246.91 v 2.23 l -2.82,1.62 -2.08,-1.2 a 10.61,10.61 0 0 1 -8.07,0.36 v -2.22 l 1.28,-1.27 -1.28,0.35 a 8.21,8.21 0 0 1 -6.28,-0.72 c -1.26,-0.73 -1.85,-1.52 -1.85,-2.34 v -2.17 l 0.23,-0.94 -0.77,-0.45 v -2.23 l 2.09,1.21 a 3.23,3.23 0 0 0 -1.55,2.39 v 0 c 0,0.8 0.62,1.58 1.85,2.29 2.74,1.58 5.45,1.06 7.94,0.26 2.31,-0.75 4,-1.64 5.33,-0.87 0.83,0.48 0.57,1.06 -0.35,1.6 a 4.65,4.65 0 0 1 -4,0.23 l -2.67,2.64 a 9.69,9.69 0 0 0 1.47,0.43 11,11 0 0 0 6.6,-0.8 l 2.08,1.21 z"
         style="fill:#f5f5f5"
         id="path464" />
      <polygon
         points="399.44,249.56 401.52,250.76 401.52,248.54 399.44,247.34 "
         style="fill:#f5f5f5"
         id="polygon466" />
    </g>
    <path
       d="m 403.87,246.64 -1.61,-0.93 a 2.74,2.74 0 0 0 1.61,-2.47 1.5,1.5 0 0 0 0,-0.22 c -0.07,-0.77 -0.63,-1.51 -1.8,-2.18 v 0 a 7.4,7.4 0 0 0 -3.74,-1 h -0.33 -0.33 -0.3 -0.12 -0.22 a 17.23,17.23 0 0 0 -1.82,0.38 l -0.85,0.25 -1.18,0.38 -0.45,0.16 a 13.27,13.27 0 0 1 -2.5,0.71 2.52,2.52 0 0 1 -1.07,0 2.21,2.21 0 0 1 -0.5,-0.21 c -0.63,-0.36 -0.73,-0.92 0.45,-1.6 a 4.12,4.12 0 0 1 3.62,-0.38 l 2.51,-2.52 a 10.73,10.73 0 0 0 -7.56,0.42 l -2.09,-1.2 -2.84,1.64 2.09,1.2 a 3.21,3.21 0 0 0 -1.55,2.39 v 0 c 0,0.8 0.61,1.58 1.85,2.29 2.74,1.58 5.46,1.06 7.94,0.26 2.31,-0.76 4,-1.64 5.33,-0.88 0.83,0.49 0.57,1.07 -0.35,1.6 a 4.58,4.58 0 0 1 -4,0.23 l -2.67,2.65 a 9.69,9.69 0 0 0 1.47,0.43 11.05,11.05 0 0 0 6.6,-0.79 l 2.08,1.2 2.82,-1.62 z"
       style="fill:#b48d8d"
       id="path470" />
    <path
       d="m 403.87,246.64 -1.61,-0.93 a 2.74,2.74 0 0 0 1.61,-2.47 1.5,1.5 0 0 0 0,-0.22 c -0.07,-0.77 -0.63,-1.51 -1.8,-2.18 v 0 a 7.4,7.4 0 0 0 -3.74,-1 h -0.33 -0.33 -0.3 -0.12 -0.22 a 17.23,17.23 0 0 0 -1.82,0.38 l -0.85,0.25 -1.18,0.38 -0.45,0.16 a 13.27,13.27 0 0 1 -2.5,0.71 2.52,2.52 0 0 1 -1.07,0 2.21,2.21 0 0 1 -0.5,-0.21 c -0.63,-0.36 -0.73,-0.92 0.45,-1.6 a 4.12,4.12 0 0 1 3.62,-0.38 l 2.51,-2.52 a 10.73,10.73 0 0 0 -7.56,0.42 l -2.09,-1.2 -2.84,1.64 2.09,1.2 a 3.21,3.21 0 0 0 -1.55,2.39 v 0 c 0,0.8 0.61,1.58 1.85,2.29 2.74,1.58 5.46,1.06 7.94,0.26 2.31,-0.76 4,-1.64 5.33,-0.88 0.83,0.49 0.57,1.07 -0.35,1.6 a 4.58,4.58 0 0 1 -4,0.23 l -2.67,2.65 a 9.69,9.69 0 0 0 1.47,0.43 11.05,11.05 0 0 0 6.6,-0.79 l 2.08,1.2 2.82,-1.62 z"
       style="opacity:0.7;fill:#f5f5f5"
       id="path472" />
    <path
       d="m 422.94,234.31 a 18.13,18.13 0 0 0 -6.67,-6.17 c -10.91,-6.29 -28.59,-6.29 -39.49,0 a 18.13,18.13 0 0 0 -6.67,6.17 h -1.51 v 5.69 0 c 0.2,4 2.92,7.89 8.16,10.92 10.9,6.3 28.58,6.3 39.49,0 5.24,-3 8,-7 8.16,-10.92 v 0 -5.71 z"
       style="fill:#b48d8d"
       id="path474" />
    <path
       d="m 422.94,234.31 a 18.13,18.13 0 0 0 -6.67,-6.17 c -10.91,-6.29 -28.59,-6.29 -39.49,0 a 18.13,18.13 0 0 0 -6.67,6.17 h -1.51 v 5.69 0 c 0.2,4 2.92,7.89 8.16,10.92 10.9,6.3 28.58,6.3 39.49,0 5.24,-3 8,-7 8.16,-10.92 v 0 -5.71 z"
       style="opacity:0.5;fill:#f5f5f5"
       id="path476" />
    <path
       d="m 416.27,222.91 c -10.91,-6.29 -28.59,-6.29 -39.49,0 -10.9,6.29 -10.9,16.51 0,22.8 10.9,6.29 28.58,6.3 39.49,0 10.91,-6.3 10.9,-16.5 0,-22.8 z"
       style="fill:#b48d8d"
       id="path478" />
    <path
       d="m 416.27,222.91 c -10.91,-6.29 -28.59,-6.29 -39.49,0 -10.9,6.29 -10.9,16.51 0,22.8 10.9,6.29 28.58,6.3 39.49,0 10.91,-6.3 10.9,-16.5 0,-22.8 z"
       style="opacity:0.6;fill:#f5f5f5"
       id="path480" />
    <path
       d="m 409.38,227.09 a 31.42,31.42 0 0 0 -25.71,0 C 380,229 378,231.53 378,234.32 c 0,2.79 2,5.35 5.67,7.22 a 31.42,31.42 0 0 0 25.71,0 c 3.65,-1.87 5.67,-4.44 5.67,-7.22 0,-2.78 -2.05,-5.32 -5.67,-7.23 z"
       style="fill:#b48d8d"
       id="path482" />
    <path
       d="m 409.38,227.09 a 31.42,31.42 0 0 0 -25.71,0 C 380,229 378,231.53 378,234.32 c 0,2.79 2,5.35 5.67,7.22 a 31.42,31.42 0 0 0 25.71,0 c 3.65,-1.87 5.67,-4.44 5.67,-7.22 0,-2.78 -2.05,-5.32 -5.67,-7.23 z"
       style="opacity:0.6;fill:#f5f5f5"
       id="path484" />
    <path
       d="m 415.66,224 c -5.09,-2.94 -11.89,-4.56 -19.14,-4.56 -7.25,0 -14,1.62 -19.13,4.56 -4.89,2.82 -7.57,6.49 -7.57,10.35 0,3.86 2.68,7.52 7.57,10.34 5.09,2.94 11.88,4.56 19.13,4.56 7.25,0 14.05,-1.62 19.14,-4.56 4.88,-2.82 7.57,-6.49 7.57,-10.34 0,-3.85 -2.69,-7.56 -7.57,-10.35 z m -6.28,17.57 a 31.42,31.42 0 0 1 -25.71,0 c -3.66,-1.87 -5.67,-4.44 -5.67,-7.22 0,-2.78 2,-5.36 5.67,-7.23 a 31.42,31.42 0 0 1 25.71,0 c 3.65,1.87 5.67,4.44 5.67,7.23 0,2.79 -2.05,5.32 -5.67,7.19 z"
       style="fill:#b48d8d"
       id="path486" />
    <path
       d="m 415.66,224 c -5.09,-2.94 -11.89,-4.56 -19.14,-4.56 -7.25,0 -14,1.62 -19.13,4.56 -4.89,2.82 -7.57,6.49 -7.57,10.35 0,3.86 2.68,7.52 7.57,10.34 5.09,2.94 11.88,4.56 19.13,4.56 7.25,0 14.05,-1.62 19.14,-4.56 4.88,-2.82 7.57,-6.49 7.57,-10.34 0,-3.85 -2.69,-7.56 -7.57,-10.35 z m -6.28,17.57 a 31.42,31.42 0 0 1 -25.71,0 c -3.66,-1.87 -5.67,-4.44 -5.67,-7.22 0,-2.78 2,-5.36 5.67,-7.23 a 31.42,31.42 0 0 1 25.71,0 c 3.65,1.87 5.67,4.44 5.67,7.23 0,2.79 -2.05,5.32 -5.67,7.19 z"
       style="opacity:0.7;fill:#f5f5f5"
       id="path488" />
    <ellipse
       cx="396.51999"
       cy="234.31"
       rx="17.559999"
       ry="9.0100002"
       style="fill:#b48d8d"
       id="ellipse490" />
    <ellipse
       cx="396.51999"
       cy="234.31"
       rx="17.559999"
       ry="9.0100002"
       style="opacity:0.5;fill:#f5f5f5"
       id="ellipse492" />
    <path
       d="m 408.94,230.33 c -6.86,-3.52 -18,-3.52 -24.83,0 -2.84,1.45 -4.5,3.28 -5,5.18 0.49,1.89 2.15,3.72 5,5.18 6.85,3.51 18,3.51 24.83,0 2.84,-1.46 4.5,-3.29 5,-5.18 -0.5,-1.9 -2.16,-3.73 -5,-5.18 z"
       style="fill:#b48d8d"
       id="path494" />
    <path
       d="m 408.94,230.33 c -6.86,-3.52 -18,-3.52 -24.83,0 -2.84,1.45 -4.5,3.28 -5,5.18 0.49,1.89 2.15,3.72 5,5.18 6.85,3.51 18,3.51 24.83,0 2.84,-1.46 4.5,-3.29 5,-5.18 -0.5,-1.9 -2.16,-3.73 -5,-5.18 z"
       style="opacity:0.6;fill:#f5f5f5"
       id="path496" />
    <polygon
       points="398.19,230.65 397.31,231.58 395.68,233.28 395.68,230.6 398.19,228.08 "
       style="fill:#b48d8d"
       id="polygon498" />
    <path
       d="m 395.68,230.6 v 2.68 h -5.08 v -3.14 c 0,0 4.7,-0.72 5.08,0.46 z"
       style="fill:#b48d8d"
       id="path500" />
    <path
       d="m 407.34,237.91 v 2.23 l -2.82,1.62 -2.08,-1.2 a 10.61,10.61 0 0 1 -8.07,0.36 v -2.22 l 1.28,-1.27 -1.28,0.35 a 8.21,8.21 0 0 1 -6.28,-0.72 c -1.26,-0.73 -1.85,-1.52 -1.85,-2.34 v -2.17 l 0.23,-0.94 -0.77,-0.45 v -2.23 l 2.09,1.21 a 3.23,3.23 0 0 0 -1.55,2.39 v 0 c 0,0.8 0.62,1.58 1.85,2.29 2.74,1.58 5.45,1.06 7.94,0.26 2.31,-0.75 4,-1.64 5.33,-0.87 0.83,0.48 0.57,1.06 -0.35,1.6 a 4.65,4.65 0 0 1 -4,0.23 l -2.67,2.64 a 9.69,9.69 0 0 0 1.47,0.43 11,11 0 0 0 6.6,-0.8 l 2.08,1.21 z"
       style="fill:#b48d8d"
       id="path502" />
    <polygon
       points="402.44,240.56 404.52,241.76 404.52,239.54 402.44,238.34 "
       style="fill:#b48d8d"
       id="polygon504" />
    <g
       style="opacity:0.5"
       id="g514">
      <polygon
         points="398.19,230.65 397.31,231.58 395.68,233.28 395.68,230.6 398.19,228.08 "
         style="fill:#f5f5f5"
         id="polygon506" />
      <path
         d="m 395.68,230.6 v 2.68 h -5.08 v -3.14 c 0,0 4.7,-0.72 5.08,0.46 z"
         style="fill:#f5f5f5"
         id="path508" />
      <path
         d="m 407.34,237.91 v 2.23 l -2.82,1.62 -2.08,-1.2 a 10.61,10.61 0 0 1 -8.07,0.36 v -2.22 l 1.28,-1.27 -1.28,0.35 a 8.21,8.21 0 0 1 -6.28,-0.72 c -1.26,-0.73 -1.85,-1.52 -1.85,-2.34 v -2.17 l 0.23,-0.94 -0.77,-0.45 v -2.23 l 2.09,1.21 a 3.23,3.23 0 0 0 -1.55,2.39 v 0 c 0,0.8 0.62,1.58 1.85,2.29 2.74,1.58 5.45,1.06 7.94,0.26 2.31,-0.75 4,-1.64 5.33,-0.87 0.83,0.48 0.57,1.06 -0.35,1.6 a 4.65,4.65 0 0 1 -4,0.23 l -2.67,2.64 a 9.69,9.69 0 0 0 1.47,0.43 11,11 0 0 0 6.6,-0.8 l 2.08,1.21 z"
         style="fill:#f5f5f5"
         id="path510" />
      <polygon
         points="402.44,240.56 404.52,241.76 404.52,239.54 402.44,238.34 "
         style="fill:#f5f5f5"
         id="polygon512" />
    </g>
    <path
       d="m 406.87,237.64 -1.61,-0.93 a 2.74,2.74 0 0 0 1.61,-2.47 1.5,1.5 0 0 0 0,-0.22 c -0.07,-0.77 -0.63,-1.51 -1.8,-2.18 v 0 a 7.4,7.4 0 0 0 -3.74,-1 h -0.33 -0.33 -0.3 -0.12 -0.22 a 17.23,17.23 0 0 0 -1.82,0.38 l -0.85,0.25 -1.18,0.38 -0.45,0.16 a 13.27,13.27 0 0 1 -2.5,0.71 2.52,2.52 0 0 1 -1.07,0 2.21,2.21 0 0 1 -0.5,-0.21 c -0.63,-0.36 -0.73,-0.92 0.45,-1.6 a 4.12,4.12 0 0 1 3.62,-0.38 l 2.51,-2.52 a 10.73,10.73 0 0 0 -7.56,0.42 l -2.09,-1.2 -2.84,1.64 2.09,1.2 a 3.21,3.21 0 0 0 -1.55,2.39 v 0 c 0,0.8 0.61,1.58 1.85,2.29 2.74,1.58 5.46,1.06 7.94,0.26 2.31,-0.76 4,-1.64 5.33,-0.88 0.83,0.49 0.57,1.07 -0.35,1.6 a 4.58,4.58 0 0 1 -4,0.23 l -2.67,2.65 a 9.69,9.69 0 0 0 1.47,0.43 11.05,11.05 0 0 0 6.6,-0.79 l 2.08,1.2 2.82,-1.62 z"
       style="fill:#b48d8d"
       id="path516" />
    <path
       d="m 406.87,237.64 -1.61,-0.93 a 2.74,2.74 0 0 0 1.61,-2.47 1.5,1.5 0 0 0 0,-0.22 c -0.07,-0.77 -0.63,-1.51 -1.8,-2.18 v 0 a 7.4,7.4 0 0 0 -3.74,-1 h -0.33 -0.33 -0.3 -0.12 -0.22 a 17.23,17.23 0 0 0 -1.82,0.38 l -0.85,0.25 -1.18,0.38 -0.45,0.16 a 13.27,13.27 0 0 1 -2.5,0.71 2.52,2.52 0 0 1 -1.07,0 2.21,2.21 0 0 1 -0.5,-0.21 c -0.63,-0.36 -0.73,-0.92 0.45,-1.6 a 4.12,4.12 0 0 1 3.62,-0.38 l 2.51,-2.52 a 10.73,10.73 0 0 0 -7.56,0.42 l -2.09,-1.2 -2.84,1.64 2.09,1.2 a 3.21,3.21 0 0 0 -1.55,2.39 v 0 c 0,0.8 0.61,1.58 1.85,2.29 2.74,1.58 5.46,1.06 7.94,0.26 2.31,-0.76 4,-1.64 5.33,-0.88 0.83,0.49 0.57,1.07 -0.35,1.6 a 4.58,4.58 0 0 1 -4,0.23 l -2.67,2.65 a 9.69,9.69 0 0 0 1.47,0.43 11.05,11.05 0 0 0 6.6,-0.79 l 2.08,1.2 2.82,-1.62 z"
       style="opacity:0.7;fill:#f5f5f5"
       id="path518" />
  </g>
</svg>
