<?xml version="1.0" encoding="UTF-8" standalone="no"?>
<svg
   viewBox="0 0 500 500"
   version="1.1"
   id="svg447"
   sodipodi:docname="120.svg"
   inkscape:version="1.1.2 (0a00cf5339, 2022-02-04)"
   xmlns:inkscape="http://www.inkscape.org/namespaces/inkscape"
   xmlns:sodipodi="http://sodipodi.sourceforge.net/DTD/sodipodi-0.dtd"
   xmlns="http://www.w3.org/2000/svg"
   xmlns:svg="http://www.w3.org/2000/svg">
  <defs
     id="defs451" />
  <sodipodi:namedview
     id="namedview449"
     pagecolor="#ffffff"
     bordercolor="#666666"
     borderopacity="1.0"
     inkscape:pageshadow="2"
     inkscape:pageopacity="0.0"
     inkscape:pagecheckerboard="0"
     showgrid="false"
     inkscape:zoom="1.132"
     inkscape:cx="249.5583"
     inkscape:cy="250.4417"
     inkscape:window-width="1478"
     inkscape:window-height="800"
     inkscape:window-x="0"
     inkscape:window-y="0"
     inkscape:window-maximized="1"
     inkscape:current-layer="svg447" />
  <ellipse
     id="freepik--floor--inject-156"
     cx="250"
     cy="344.13"
     rx="228.53999"
     ry="131.95"
     style="opacity:0.7;fill:#f0f0f0" />
  <g
     id="freepik--Shadows--inject-156">
    <ellipse
       id="freepik--Shadow--inject-156"
       cx="371.78"
       cy="393.06"
       rx="55.8"
       ry="32.21"
       style="fill:#e0e0e0" />
    <path
       id="freepik--shadow--inject-156"
       d="M442.94,396.16l13.13-7.58a1.28,1.28,0,0,0,0-2.43l-43.24-25a4.62,4.62,0,0,0-4.22,0l-13.12,7.57a1.29,1.29,0,0,0,0,2.44l43.24,25A4.66,4.66,0,0,0,442.94,396.16Z"
       style="fill:#e0e0e0" />
    <path
       id="path8"
       d="M154.28,411,35.88,342.61c-4.5-2.6-4.5-6.85,0-9.44L215.64,229.4a7.46,7.46,0,0,1,6.73,0L348,301.92a.59.59,0,0,1,0,1.11L161,411A7.46,7.46,0,0,1,154.28,411Z"
       style="fill:#e0e0e0" />
  </g>
  <path
     d="m 138.43,385.65 a 9.79,9.79 0 0 0 4.56,7.58 l 99.35,57.37 a 10.13,10.13 0 0 0 9.13,0 l 175,-101 a 8.57,8.57 0 0 0 0,-15.15 l -99.35,-57.37 a 10.06,10.06 0 0 0 -9.13,0 l -175,100.99 a 9.79,9.79 0 0 0 -4.56,7.58 z"
     style="fill:#37474f"
     id="path11" />
  <path
     d="m 142.99,383.34 99.35,57.37 a 10.06,10.06 0 0 0 9.13,0 l 175,-101 c 2.52,-1.46 2.52,-3.82 0,-5.27 l -99.35,-57.37 a 10.06,10.06 0 0 0 -9.13,0 l -175,101 c -2.52,1.46 -2.52,3.82 0,5.27 z"
     style="fill:#ac9393"
     id="path13" />
  <path
     d="m 246.91,441.82 v 9.88 a 9.24,9.24 0 0 1 -4.56,-1.09 l -99.36,-57.38 a 8.55,8.55 0 0 1 -0.46,-14.86 c -2.05,1.46 -1.89,3.61 0.46,5 l 99.36,57.38 a 9.35,9.35 0 0 0 4.56,1.07 z"
     style="fill:#263238"
     id="path15" />
  <path
     d="m 134.15,378.24 c -2.37,-1.37 -2.24,-3.67 -2.24,-6.58 V 234.43 a 10.11,10.11 0 0 1 4.57,-7.91 l 174.94,-101 a 9.77,9.77 0 0 1 8.85,-0.16 c 2.36,1.36 2.23,3.67 2.23,6.58 v 137.22 a 10.1,10.1 0 0 1 -4.56,7.91 l -174.95,101 a 9.78,9.78 0 0 1 -8.84,0.17 z"
     style="fill:#37474f"
     id="path17" />
  <path
     d="m 322.5,131.93 c 0,-2.9 -2,-4.08 -4.56,-2.63 L 142.99,230.31 a 9.22,9.22 0 0 0 -3.22,3.41 l -6.48,-3.79 v 0 a 9.32,9.32 0 0 1 3.23,-3.41 l 174.94,-101 a 9.78,9.78 0 0 1 8.84,-0.17 c 2.33,1.37 2.2,3.68 2.2,6.58 z"
     style="fill:#455a64"
     id="path19" />
  <path
     d="m 142.45,378.35 a 9.78,9.78 0 0 1 -8.3,-0.12 c -2.36,-1.36 -2.23,-3.66 -2.23,-6.57 V 234.42 a 9.26,9.26 0 0 1 1.37,-4.49 l 6.52,3.78 v 0 a 9.24,9.24 0 0 0 -1.34,4.49 v 137.24 c -0.04,2.7 1.72,3.91 3.98,2.91 z"
     style="fill:#263238"
     id="path21" />
  <path
     d="m 145.45,235.57 168.67,-97.36 c 1.51,-0.87 2.74,-0.16 2.74,1.58 v 119.8 a 6.06,6.06 0 0 1 -2.74,4.74 l -168.67,97.35 c -1.52,0.88 -2.74,0.17 -2.74,-1.58 V 240.31 a 6,6 0 0 1 2.74,-4.74 z"
     style="fill:#fafafa"
     id="path23" />
  <path
     d="m 155.62,378.34 162.39,-93.75 a 5,5 0 0 1 4.56,0 l 2.71,1.48 a 1.39,1.39 0 0 1 0,2.64 l -162.42,93.74 a 5.08,5.08 0 0 1 -4.56,0 l -2.68,-1.47 a 1.39,1.39 0 0 1 0,-2.64 z"
     style="fill:#263238"
     id="path25" />
  <path
     d="m 168.36,385.92 162.38,-93.76 a 4.65,4.65 0 0 1 4.17,-0.23 l 42.27,24.41 c 1,0.6 0.87,1.68 -0.39,2.41 l -162.2,93.62 a 4.71,4.71 0 0 1 -4.18,0.24 l -42.44,-24.29 c -1.05,-0.6 -0.87,-1.68 0.39,-2.4 z"
     style="fill:#263238"
     id="path27" />
  <path
     d="m 309.07,331.54 5.08,-2.94 c 0.22,-0.12 0.24,-0.31 0,-0.42 l -4.86,-2.81 a 0.84,0.84 0 0 0 -0.74,0 l -5.08,2.94 c -0.22,0.13 -0.24,0.32 -0.05,0.43 l 4.87,2.8 a 0.81,0.81 0 0 0 0.78,0 z m -7.43,-10.16 -5.08,2.94 c -0.22,0.12 -0.24,0.31 0,0.42 l 4.86,2.81 a 0.84,0.84 0 0 0 0.74,0 l 5.08,-2.94 c 0.22,-0.12 0.24,-0.31 0.05,-0.42 l -4.87,-2.81 a 0.84,0.84 0 0 0 -0.78,0 z m -16.42,9.49 -8.61,5 c -0.21,0.13 -0.23,0.32 0,0.43 l 4.86,2.81 a 0.81,0.81 0 0 0 0.74,0 l 8.61,-5 c 0.21,-0.13 0.23,-0.32 0,-0.43 l -4.86,-2.86 a 0.81,0.81 0 0 0 -0.74,0.05 z m 9,-5.2 -5.08,2.94 c -0.22,0.12 -0.24,0.31 -0.05,0.42 l 4.87,2.81 a 0.84,0.84 0 0 0 0.74,0 l 5.08,-2.94 c 0.22,-0.12 0.24,-0.31 0.05,-0.42 l -4.87,-2.81 a 0.84,0.84 0 0 0 -0.75,0 z m -19.93,11.52 -5.09,2.93 c -0.21,0.13 -0.23,0.32 0,0.43 l 4.86,2.81 a 0.81,0.81 0 0 0 0.74,0 l 5.09,-2.93 c 0.21,-0.13 0.23,-0.32 0,-0.43 l -4.87,-2.81 a 0.79,0.79 0 0 0 -0.73,0 z m -7.43,4.29 -5.09,2.93 c -0.22,0.13 -0.23,0.32 0,0.43 l 4.86,2.81 a 0.81,0.81 0 0 0 0.74,0 l 5.08,-2.93 c 0.22,-0.13 0.24,-0.32 0.05,-0.43 l -4.87,-2.81 a 0.79,0.79 0 0 0 -0.79,0 z m 19.06,11.46 5.09,-2.94 c 0.21,-0.12 0.23,-0.31 0,-0.42 l -4.85,-2.76 a 0.82,0.82 0 0 0 -0.73,0 l -5.09,2.94 c -0.21,0.12 -0.23,0.31 0,0.43 l 4.86,2.8 a 0.84,0.84 0 0 0 0.7,-0.05 z m -7.43,4.29 5.08,-2.94 c 0.22,-0.12 0.24,-0.31 0.05,-0.42 l -4.87,-2.81 a 0.82,0.82 0 0 0 -0.73,0 l -5.09,2.94 c -0.22,0.12 -0.23,0.32 0,0.43 l 4.86,2.8 a 0.84,0.84 0 0 0 0.68,0 z m -7.43,4.29 5.08,-2.94 c 0.22,-0.12 0.24,-0.31 0,-0.42 l -4.85,-2.81 a 0.84,0.84 0 0 0 -0.74,0 l -5.08,2.94 c -0.22,0.12 -0.24,0.32 0,0.43 l 4.86,2.8 a 0.81,0.81 0 0 0 0.71,0 z m -7.45,4.3 5.08,-2.94 c 0.22,-0.12 0.24,-0.31 0,-0.42 l -4.87,-2.81 a 0.84,0.84 0 0 0 -0.74,0 l -5.08,2.94 c -0.22,0.12 -0.24,0.32 0,0.43 l 4.86,2.8 a 0.81,0.81 0 0 0 0.75,0 z m 38,-30 5.08,-2.94 c 0.22,-0.12 0.24,-0.31 0,-0.42 l -4.86,-2.81 a 0.81,0.81 0 0 0 -0.74,0 l -5.08,2.93 c -0.22,0.13 -0.24,0.32 0,0.43 l 4.87,2.81 a 0.84,0.84 0 0 0 0.76,0 z m -8.32,12.83 11.34,-6.55 c 0.22,-0.13 0.24,-0.32 0.05,-0.43 l -11.78,-6.85 a 0.79,0.79 0 0 0 -0.73,0 l -5.88,3.45 c -0.22,0.12 -0.24,0.31 0,0.42 l 6.25,3.61 c 0.19,0.11 0.17,0.3 0,0.43 l -4.7,2.71 c -0.21,0.12 -0.23,0.31 0,0.43 l 4.86,2.8 a 0.84,0.84 0 0 0 0.59,-0.02 z m -33.89,-2.83 -5.11,2.89 c -0.22,0.12 -0.24,0.31 0,0.42 l 4.86,2.81 a 0.81,0.81 0 0 0 0.74,0 l 5.08,-2.93 c 0.22,-0.13 0.24,-0.32 0.05,-0.43 l -4.87,-2.81 a 0.84,0.84 0 0 0 -0.75,0.05 z m -7.43,4.29 -5.08,2.94 c -0.22,0.12 -0.24,0.31 0,0.42 l 4.86,2.81 a 0.84,0.84 0 0 0 0.74,0 l 5.08,-2.94 c 0.22,-0.13 0.24,-0.32 0,-0.43 l -4.87,-2.81 a 0.84,0.84 0 0 0 -0.73,-0.04 z m -41.12,45.81 a 0.81,0.81 0 0 0 0.74,0 l 5.09,-2.93 c 0.21,-0.13 0.23,-0.32 0,-0.43 l -4.86,-2.81 a 0.81,0.81 0 0 0 -0.74,0 l -5.09,2.93 c -0.21,0.13 -0.23,0.32 0,0.43 z m -18.32,-11.49 -5.09,2.94 c -0.21,0.12 -0.23,0.31 0,0.42 l 4.86,2.81 a 0.84,0.84 0 0 0 0.74,0 l 5.08,-2.94 c 0.22,-0.12 0.24,-0.31 0,-0.42 l -4.83,-2.88 a 0.82,0.82 0 0 0 -0.76,0.02 z m 9.42,8.6 a 0.84,0.84 0 0 0 0.74,0 l 5.08,-2.94 c 0.22,-0.12 0.24,-0.31 0,-0.42 l -4.82,-2.85 a 0.84,0.84 0 0 0 -0.74,0 l -5.08,2.94 c -0.22,0.12 -0.24,0.31 0,0.43 z m 20.5,4.62 5.09,-2.94 c 0.21,-0.13 0.23,-0.32 0,-0.43 l -4.87,-2.81 a 0.82,0.82 0 0 0 -0.73,0 l -5.09,2.94 c -0.21,0.12 -0.23,0.31 0,0.42 l 4.86,2.81 a 0.84,0.84 0 0 0 0.74,-0.04 z m -8.16,4.26 a 0.84,0.84 0 0 0 0.74,0 l 5.08,-2.94 c 0.22,-0.12 0.24,-0.32 0.05,-0.43 l -4.87,-2.82 a 0.79,0.79 0 0 0 -0.73,0 l -5.09,2.94 c -0.21,0.12 -0.23,0.31 0,0.42 z m -14.32,-21.82 -5.09,2.94 c -0.21,0.12 -0.23,0.31 0,0.42 l 4.86,2.81 a 0.84,0.84 0 0 0 0.74,0 l 5.09,-2.94 c 0.21,-0.12 0.23,-0.31 0,-0.42 l -4.86,-2.81 a 0.84,0.84 0 0 0 -0.75,0 z m 37.15,-21.45 -5.08,2.94 c -0.22,0.12 -0.24,0.31 -0.05,0.42 l 4.87,2.81 a 0.84,0.84 0 0 0 0.74,0 l 5.08,-2.94 c 0.22,-0.12 0.24,-0.32 0,-0.43 l -4.86,-2.8 a 0.81,0.81 0 0 0 -0.71,0 z m -29.73,17.18 -5.1,2.92 c -0.21,0.12 -0.23,0.31 0,0.42 l 4.86,2.81 a 0.84,0.84 0 0 0 0.74,0 l 5.09,-2.94 c 0.21,-0.12 0.23,-0.31 0,-0.43 l -4.86,-2.8 a 0.84,0.84 0 0 0 -0.73,0.02 z m 37.15,-21.45 -5.08,2.94 c -0.22,0.12 -0.24,0.31 0,0.42 l 4.83,2.79 a 0.84,0.84 0 0 0 0.74,0 l 5.08,-2.94 c 0.22,-0.13 0.24,-0.32 0.05,-0.43 l -4.87,-2.83 a 0.84,0.84 0 0 0 -0.75,0.03 z m -14.86,8.58 -5.08,2.94 c -0.22,0.12 -0.24,0.31 -0.05,0.42 l 4.87,2.81 a 0.84,0.84 0 0 0 0.74,0 l 5.08,-2.94 c 0.22,-0.12 0.24,-0.32 0,-0.43 l -4.86,-2.8 a 0.84,0.84 0 0 0 -0.7,-0.02 z m -7.39,4.27 -5.08,2.94 c -0.22,0.12 -0.24,0.31 0,0.42 l 4.87,2.81 a 0.82,0.82 0 0 0 0.73,0 l 5.09,-2.94 c 0.21,-0.12 0.23,-0.31 0,-0.43 l -4.86,-2.8 a 0.84,0.84 0 0 0 -0.75,0 z m -7.43,4.29 -5.09,2.94 c -0.21,0.12 -0.23,0.31 0,0.42 l 4.86,2.81 a 0.84,0.84 0 0 0 0.74,0 l 5.09,-2.94 c 0.21,-0.12 0.23,-0.31 0,-0.43 l -4.86,-2.8 a 0.84,0.84 0 0 0 -0.78,0 z m 33.93,2.88 5.08,-2.94 c 0.22,-0.12 0.24,-0.31 0,-0.42 l -4.86,-2.81 a 0.81,0.81 0 0 0 -0.74,0 l -5.08,2.93 c -0.22,0.13 -0.24,0.32 -0.05,0.43 l 4.87,2.81 a 0.84,0.84 0 0 0 0.74,0 z m 69.32,-62.49 -5.12,2.92 c -0.22,0.13 -0.24,0.32 0,0.43 l 4.87,2.81 a 0.79,0.79 0 0 0 0.73,0 l 5.09,-2.93 c 0.22,-0.13 0.23,-0.32 0,-0.43 l -4.86,-2.81 a 0.81,0.81 0 0 0 -0.75,0.01 z m -9,5.19 -5.08,2.94 c -0.22,0.12 -0.24,0.31 0,0.42 l 4.86,2.81 a 0.84,0.84 0 0 0 0.74,0 l 5.08,-2.94 c 0.22,-0.12 0.24,-0.31 0,-0.42 l -4.87,-2.81 a 0.84,0.84 0 0 0 -0.77,0 z m 16.43,-9.48 -5.08,2.93 c -0.22,0.13 -0.24,0.32 0,0.43 l 4.83,2.85 a 0.81,0.81 0 0 0 0.74,0 l 5.08,-2.93 c 0.22,-0.13 0.24,-0.32 0,-0.43 l -4.82,-2.88 a 0.81,0.81 0 0 0 -0.79,0.03 z m -41.11,38.21 5.08,-2.94 c 0.22,-0.12 0.24,-0.32 0.05,-0.43 l -4.87,-2.8 a 0.81,0.81 0 0 0 -0.74,0 l -5.08,2.94 c -0.22,0.12 -0.24,0.31 -0.05,0.42 l 4.87,2.81 a 0.84,0.84 0 0 0 0.74,0 z m 49.24,-42.48 a 0.81,0.81 0 0 0 -0.74,0 l -5.08,2.93 c -0.22,0.13 -0.24,0.32 -0.05,0.43 l 4.87,2.81 a 0.81,0.81 0 0 0 0.74,0 l 5.08,-2.93 c 0.22,-0.13 0.24,-0.32 0,-0.43 z m -77.49,66.81 5.08,-2.94 c 0.22,-0.12 0.24,-0.31 0,-0.42 l -4.86,-2.81 a 0.84,0.84 0 0 0 -0.74,0 l -5.08,2.94 c -0.22,0.12 -0.24,0.32 -0.05,0.43 l 4.87,2.8 a 0.81,0.81 0 0 0 0.78,-0.05 z m 91.11,-52.66 5.09,-2.94 c 0.21,-0.12 0.23,-0.31 0,-0.42 l -4.86,-2.81 a 0.84,0.84 0 0 0 -0.74,0 l -5.09,2.94 c -0.21,0.12 -0.23,0.31 0,0.42 l 4.87,2.81 a 0.82,0.82 0 0 0 0.73,0 z m -14.38,0.28 5.09,-2.94 c 0.21,-0.12 0.23,-0.32 0,-0.43 l -4.86,-2.8 a 0.81,0.81 0 0 0 -0.74,0 l -5.08,2.94 c -0.22,0.12 -0.24,0.31 -0.05,0.42 l 4.92,2.86 a 0.82,0.82 0 0 0 0.73,0 z m 7.7,-10.46 a 0.81,0.81 0 0 0 -0.74,0 l -5.08,2.94 c -0.22,0.12 -0.24,0.31 0,0.42 l 4.87,2.81 a 0.84,0.84 0 0 0 0.74,0 l 5.08,-2.94 c 0.22,-0.12 0.24,-0.32 0,-0.43 z m 1.56,-0.91 11.82,6.82 a 0.82,0.82 0 0 0 0.73,0 l 5.09,-2.94 c 0.22,-0.12 0.23,-0.31 0,-0.42 L 348,303.03 a 0.84,0.84 0 0 0 -0.74,0 l -5.08,2.94 c -0.17,0.13 -0.19,0.32 0,0.43 z m -17.16,9.51 -5.08,2.91 c -0.21,0.12 -0.23,0.31 0,0.42 l 4.87,2.81 a 0.82,0.82 0 0 0 0.73,0 l 5.09,-2.94 c 0.21,-0.12 0.23,-0.32 0,-0.43 l -4.86,-2.8 a 0.84,0.84 0 0 0 -0.74,0.03 z m -55.92,32.29 -5.08,2.94 c -0.22,0.12 -0.24,0.31 -0.05,0.42 l 4.87,2.81 a 0.84,0.84 0 0 0 0.74,0 l 5.08,-2.94 c 0.22,-0.12 0.24,-0.32 0,-0.43 l -4.86,-2.8 a 0.81,0.81 0 0 0 -0.7,0 z m 70,-26.4 a 0.84,0.84 0 0 0 0.74,0 l 5.09,-2.94 c 0.21,-0.12 0.23,-0.31 0,-0.42 l -4.86,-2.81 a 0.84,0.84 0 0 0 -0.74,0 l -5.03,2.94 c -0.21,0.12 -0.23,0.31 0,0.42 z m -62.61,22.11 -5.04,2.91 c -0.22,0.12 -0.24,0.31 -0.05,0.42 l 4.87,2.81 a 0.84,0.84 0 0 0 0.74,0 l 5.08,-2.94 c 0.22,-0.12 0.24,-0.32 0,-0.43 l -4.86,-2.8 a 0.81,0.81 0 0 0 -0.7,0.03 z m -58.19,47.67 a 0.81,0.81 0 0 0 0.74,0 l 5.09,-2.93 c 0.21,-0.13 0.23,-0.32 0,-0.43 l -4.83,-2.84 a 0.81,0.81 0 0 0 -0.74,0 l -5.09,2.93 c -0.21,0.13 -0.23,0.32 0,0.43 z m -8.64,-9.06 -5.08,2.94 c -0.22,0.12 -0.24,0.31 0,0.43 l 4.86,2.8 a 0.84,0.84 0 0 0 0.74,0 l 5.08,-2.94 c 0.22,-0.12 0.24,-0.31 0,-0.42 l -4.87,-2.81 a 0.84,0.84 0 0 0 -0.74,0 z m 16.81,4.74 5.09,-2.93 c 0.21,-0.13 0.23,-0.32 0,-0.43 l -4.86,-2.81 a 0.81,0.81 0 0 0 -0.74,0 l -5.09,2.93 c -0.21,0.13 -0.23,0.32 0,0.43 l 4.86,2.81 a 0.81,0.81 0 0 0 0.73,0 z m 7.43,-4.29 5.09,-2.93 c 0.21,-0.13 0.23,-0.32 0,-0.43 l -4.83,-2.79 a 0.81,0.81 0 0 0 -0.74,0 l -5.12,2.94 c -0.21,0.13 -0.23,0.32 0,0.43 l 4.87,2.81 a 0.82,0.82 0 0 0 0.72,-0.03 z m 7.43,-4.29 5.09,-2.93 c 0.22,-0.13 0.23,-0.32 0,-0.43 l -4.86,-2.81 a 0.81,0.81 0 0 0 -0.74,0 l -5.08,2.93 c -0.22,0.13 -0.24,0.32 -0.05,0.43 l 4.87,2.81 a 0.79,0.79 0 0 0 0.74,0 z m -24.24,-0.45 -5.08,2.94 c -0.22,0.12 -0.24,0.31 0,0.42 l 4.86,2.81 a 0.84,0.84 0 0 0 0.74,0 l 5.08,-2.94 c 0.22,-0.12 0.24,-0.31 0,-0.42 l -4.87,-2.81 a 0.84,0.84 0 0 0 -0.74,0 z m 7.44,-4.29 -5.09,2.94 c -0.22,0.12 -0.24,0.31 0,0.42 l 4.86,2.81 a 0.84,0.84 0 0 0 0.74,0 l 5.08,-2.94 c 0.22,-0.12 0.24,-0.31 0,-0.42 l -4.82,-2.83 a 0.82,0.82 0 0 0 -0.78,0.02 z m 29.71,-17.12 -5.09,2.94 c -0.21,0.12 -0.23,0.31 0,0.42 l 4.87,2.81 a 0.82,0.82 0 0 0 0.73,0 l 5.09,-2.94 c 0.21,-0.12 0.23,-0.31 0,-0.43 l -4.86,-2.8 a 0.84,0.84 0 0 0 -0.74,0 z m -7.43,4.29 -5.09,2.94 c -0.21,0.12 -0.23,0.31 0,0.42 l 4.86,2.81 a 0.84,0.84 0 0 0 0.74,0 l 5.09,-2.94 c 0.21,-0.12 0.23,-0.31 0,-0.43 l -4.86,-2.8 a 0.84,0.84 0 0 0 -0.74,-0.04 z m 14.86,-8.58 -5.08,2.94 c -0.22,0.12 -0.24,0.31 0,0.42 l 4.87,2.81 a 0.82,0.82 0 0 0 0.73,0 l 5.09,-2.94 c 0.22,-0.12 0.23,-0.31 0,-0.43 l -4.86,-2.8 a 0.84,0.84 0 0 0 -0.75,-0.04 z m -29.72,17.16 -5.09,2.94 c -0.21,0.12 -0.23,0.31 0,0.42 l 4.86,2.81 a 0.84,0.84 0 0 0 0.74,0 l 5.09,-2.94 c 0.21,-0.12 0.23,-0.31 0,-0.42 l -4.87,-2.81 a 0.82,0.82 0 0 0 -0.73,-0.04 z m 7.43,-4.29 -5.08,2.9 c -0.21,0.12 -0.23,0.31 0,0.42 l 4.86,2.81 a 0.84,0.84 0 0 0 0.74,0 l 5.09,-2.94 c 0.21,-0.12 0.23,-0.31 0,-0.42 l -4.86,-2.81 a 0.84,0.84 0 0 0 -0.75,0 z m -9.49,27.94 5.09,-2.93 c 0.21,-0.13 0.23,-0.32 0,-0.43 l -4.86,-2.81 a 0.84,0.84 0 0 0 -0.74,0 l -5.08,2.93 c -0.21,0.12 -0.23,0.31 0,0.42 l 4.86,2.81 a 0.81,0.81 0 0 0 0.73,-0.03 z m -39.18,-1.84 -4.87,-2.81 a 0.84,0.84 0 0 0 -0.74,0 l -5.08,2.94 c -0.22,0.12 -0.24,0.31 0,0.42 l 4.82,2.77 a 0.84,0.84 0 0 0 0.74,0 l 5.08,-2.94 c 0.22,-0.12 0.24,-0.31 0.05,-0.42 z m 9.68,2.43 -4.86,-2.81 a 0.84,0.84 0 0 0 -0.74,0 l -7.82,4.52 c -0.22,0.12 -0.24,0.32 0,0.43 l 4.86,2.8 a 0.81,0.81 0 0 0 0.74,0 l 7.82,-4.52 c 0.18,-0.16 0.2,-0.35 0,-0.46 z m -16.94,-8 -4.87,-2.81 a 0.81,0.81 0 0 0 -0.74,0 l -6.25,3.61 c -0.22,0.12 -0.24,0.31 -0.05,0.43 l 4.87,2.8 a 0.84,0.84 0 0 0 0.74,0 l 6.25,-3.61 c 0.22,-0.14 0.24,-0.33 0.05,-0.44 z m 4.79,-2.77 a 0.81,0.81 0 0 0 0.74,0 l 5.09,-2.93 c 0.21,-0.13 0.23,-0.32 0,-0.43 l -4.77,-2.86 a 0.81,0.81 0 0 0 -0.74,0 l -5.09,2.93 c -0.21,0.13 -0.23,0.32 0,0.43 z m 21.06,13.66 -4.87,-2.81 a 0.79,0.79 0 0 0 -0.73,0 l -9.78,5.64 c -0.22,0.13 -0.24,0.32 -0.05,0.43 l 4.87,2.81 a 0.81,0.81 0 0 0 0.74,0 l 9.77,-5.64 c 0.22,-0.18 0.24,-0.37 0.05,-0.43 z m 3.43,6 -4.87,-2.8 a 0.81,0.81 0 0 0 -0.74,0 l -6.25,3.61 c -0.22,0.13 -0.24,0.32 0,0.43 l 4.87,2.81 a 0.81,0.81 0 0 0 0.74,0 l 6.25,-3.61 c 0.17,-0.14 0.19,-0.34 0,-0.44 z m 30.76,-51.57 a 0.84,0.84 0 0 0 0.74,0 l 5.09,-2.94 c 0.21,-0.12 0.23,-0.32 0,-0.43 l -4.86,-2.8 a 0.81,0.81 0 0 0 -0.74,0 l -5.09,2.94 c -0.21,0.12 -0.23,0.31 0,0.42 z m -14.86,8.57 a 0.84,0.84 0 0 0 0.74,0 l 5.09,-2.94 c 0.21,-0.12 0.23,-0.31 0,-0.43 l -4.86,-2.8 a 0.81,0.81 0 0 0 -0.74,0 l -5.09,2.94 c -0.21,0.12 -0.23,0.31 0,0.42 z m -33,19 a 0.79,0.79 0 0 0 0.73,0 l 5.09,-2.93 c 0.21,-0.13 0.23,-0.32 0,-0.43 l -4.86,-2.81 a 0.81,0.81 0 0 0 -0.74,0 l -5.09,2.93 c -0.21,0.13 -0.23,0.32 0,0.43 z M 236,355.5 a 0.84,0.84 0 0 0 0.74,0 l 5.09,-2.94 c 0.21,-0.12 0.23,-0.32 0,-0.43 l -4.86,-2.8 a 0.81,0.81 0 0 0 -0.74,0 l -5.09,2.94 c -0.21,0.12 -0.23,0.31 0,0.42 z m -14.86,8.58 a 0.84,0.84 0 0 0 0.74,0 l 5.08,-2.94 c 0.22,-0.12 0.24,-0.31 0.05,-0.43 l -4.87,-2.8 a 0.82,0.82 0 0 0 -0.73,0 l -5.09,2.94 c -0.22,0.12 -0.23,0.31 0,0.42 z m -4.82,39 a 0.81,0.81 0 0 0 -0.74,0 l -7.82,4.52 c -0.22,0.12 -0.24,0.31 0,0.42 l 4.87,2.81 a 0.79,0.79 0 0 0 0.73,0 l 7.83,-4.51 c 0.21,-0.13 0.23,-0.32 0,-0.43 z m -5.84,-32.84 a 0.81,0.81 0 0 0 0.74,0 l 5.08,-2.93 c 0.22,-0.13 0.24,-0.32 0,-0.43 l -4.86,-2.81 a 0.81,0.81 0 0 0 -0.74,0 l -5.08,2.93 c -0.22,0.13 -0.24,0.32 0,0.43 z m -7.43,4.29 a 0.79,0.79 0 0 0 0.73,0 l 5.09,-2.93 c 0.22,-0.13 0.23,-0.32 0,-0.43 l -4.86,-2.81 a 0.81,0.81 0 0 0 -0.74,0 l -4.98,2.96 c -0.22,0.13 -0.24,0.32 0,0.43 z M 353.98,323.6 a 0.79,0.79 0 0 0 -0.73,0 l -12.52,7.22 c -0.22,0.13 -0.23,0.32 0,0.43 l 4.86,2.81 a 0.81,0.81 0 0 0 0.74,0 l 12.52,-7.22 c 0.21,-0.13 0.23,-0.32 0,-0.43 z m -16.42,9.49 a 0.81,0.81 0 0 0 -0.74,0 l -5.08,2.94 c -0.22,0.12 -0.24,0.31 -0.05,0.42 l 4.87,2.81 a 0.82,0.82 0 0 0 0.73,0 l 5.09,-2.94 c 0.21,-0.12 0.23,-0.32 0,-0.43 z m -100.27,55.92 5.09,-2.93 c 0.21,-0.13 0.23,-0.32 0,-0.43 l -4.8,-2.83 a 0.84,0.84 0 0 0 -0.74,0 l -5.09,3 c -0.21,0.12 -0.23,0.31 0,0.42 l 4.86,2.81 a 0.81,0.81 0 0 0 0.68,-0.04 z m 85.44,-47.31 a 0.81,0.81 0 0 0 -0.74,0 l -5.09,2.94 c -0.21,0.12 -0.23,0.31 0,0.42 l 4.86,2.81 a 0.84,0.84 0 0 0 0.74,0 l 5.09,-2.94 c 0.21,-0.12 0.23,-0.32 0,-0.43 z m 38.72,-22.36 a 0.81,0.81 0 0 0 -0.74,0 l -5.09,2.93 c -0.21,0.13 -0.23,0.32 0,0.43 l 4.86,2.81 a 0.81,0.81 0 0 0 0.74,0 l 5.09,-2.93 c 0.21,-0.13 0.23,-0.32 0,-0.43 z m 12.31,-1.52 -11.81,-6.82 a 0.84,0.84 0 0 0 -0.74,0 l -5.09,2.94 c -0.21,0.12 -0.23,0.32 0,0.43 l 11.81,6.82 a 0.81,0.81 0 0 0 0.74,0 l 5.09,-2.93 c 0.17,-0.1 0.19,-0.29 0,-0.44 z m -78.78,39.87 a 0.84,0.84 0 0 0 -0.74,0 l -6.26,3.62 c -0.21,0.12 -0.23,0.31 0,0.42 l 4.86,2.81 a 0.84,0.84 0 0 0 0.74,0 l 6.26,-3.62 c 0.21,-0.12 0.23,-0.31 0,-0.42 z m 18.77,-10.84 a 0.84,0.84 0 0 0 -0.74,0 l -7.82,4.52 c -0.22,0.12 -0.23,0.32 0,0.43 l 4.86,2.81 a 0.84,0.84 0 0 0 0.74,0 l 7.82,-4.52 c 0.22,-0.12 0.24,-0.31 0.05,-0.42 z m -36,20.77 a 0.81,0.81 0 0 0 -0.74,0 l -41.83,24.2 c -0.21,0.12 -0.23,0.32 0,0.43 l 4.86,2.8 a 0.84,0.84 0 0 0 0.74,0 l 41.85,-24.16 c 0.22,-0.13 0.24,-0.32 0,-0.43 z m -44.2,25.52 a 0.82,0.82 0 0 0 -0.73,0 l -6.24,3.68 c -0.22,0.12 -0.24,0.31 0,0.42 l 4.87,2.81 a 0.84,0.84 0 0 0 0.74,0 l 6.26,-3.62 c 0.21,-0.12 0.23,-0.31 0,-0.42 z m 52.8,-30.48 a 0.79,0.79 0 0 0 -0.73,0 l -6.26,3.61 c -0.22,0.13 -0.24,0.32 -0.05,0.43 l 4.87,2.81 a 0.81,0.81 0 0 0 0.74,0 l 6.25,-3.61 c 0.22,-0.12 0.24,-0.32 0,-0.43 z m -61.4,35.45 a 0.84,0.84 0 0 0 -0.74,0 l -6.24,3.71 c -0.21,0.13 -0.23,0.32 0,0.43 l 4.86,2.81 a 0.81,0.81 0 0 0 0.74,0 l 6.26,-3.61 c 0.22,-0.12 0.24,-0.31 0,-0.43 z m 78.61,-45.39 a 0.81,0.81 0 0 0 -0.74,0 l -6.25,3.61 c -0.22,0.12 -0.24,0.31 -0.05,0.42 l 4.87,2.81 a 0.82,0.82 0 0 0 0.73,0 l 6.26,-3.62 c 0.22,-0.12 0.24,-0.31 0,-0.42 z m 26.6,-15.35 a 0.81,0.81 0 0 0 -0.74,0 l -5.09,2.94 c -0.21,0.12 -0.23,0.31 0,0.42 l 4.87,2.81 a 0.82,0.82 0 0 0 0.73,0 l 5.09,-2.94 c 0.21,-0.12 0.23,-0.32 0,-0.43 z m 16.66,-11.55 5.09,-2.94 c 0.21,-0.12 0.23,-0.31 0,-0.42 l -4.86,-2.81 a 0.84,0.84 0 0 0 -0.74,0 l -5.02,2.93 c -0.21,0.12 -0.23,0.32 0,0.43 l 4.86,2.8 a 0.81,0.81 0 0 0 0.67,0.01 z m -30.32,1.46 5.08,-2.94 c 0.22,-0.12 0.24,-0.31 0.05,-0.42 l -4.87,-2.81 a 0.84,0.84 0 0 0 -0.74,0 l -5.08,2.94 c -0.22,0.13 -0.24,0.32 0,0.43 l 4.86,2.8 a 0.81,0.81 0 0 0 0.7,-0.03 z m -19.74,27.44 14.86,-8.58 c 0.22,-0.12 0.24,-0.31 0,-0.42 l -4.87,-2.81 a 0.84,0.84 0 0 0 -0.74,0 l -14.86,8.58 c -0.21,0.13 -0.23,0.32 0,0.43 l 4.86,2.81 a 0.81,0.81 0 0 0 0.75,-0.04 z m 41.89,-24.59 a 0.81,0.81 0 0 0 0.74,0 l 5.09,-2.94 c 0.21,-0.12 0.23,-0.31 0,-0.42 l -4.87,-2.81 a 0.82,0.82 0 0 0 -0.73,0 l -5.09,2.94 c -0.21,0.12 -0.23,0.32 0,0.43 z m -6.21,-4 5.09,-2.94 c 0.21,-0.12 0.23,-0.31 0,-0.42 l -4.86,-2.81 a 0.84,0.84 0 0 0 -0.74,0 l -5.05,2.86 c -0.21,0.12 -0.23,0.31 0,0.42 l 4.86,2.81 a 0.84,0.84 0 0 0 0.7,0.02 z m -43.15,32.85 5.08,-2.93 c 0.22,-0.13 0.24,-0.32 0,-0.43 l -4.78,-2.8 a 0.79,0.79 0 0 0 -0.73,0 l -5.09,3 c -0.22,0.13 -0.23,0.32 0,0.43 l 4.86,2.81 a 0.81,0.81 0 0 0 0.66,-0.08 z m 32.9,-19.39 a 0.79,0.79 0 0 0 0.73,0 l 5.09,-2.93 c 0.22,-0.13 0.23,-0.32 0,-0.43 l -4.86,-2.81 a 0.81,0.81 0 0 0 -0.74,0 l -5.08,2.93 c -0.22,0.13 -0.24,0.32 -0.05,0.43 z m -70.05,40.84 5.08,-2.93 c 0.22,-0.13 0.23,-0.32 0,-0.43 l -4.86,-2.81 a 0.81,0.81 0 0 0 -0.74,0 l -5.08,2.93 c -0.22,0.13 -0.24,0.32 -0.05,0.43 l 4.87,2.81 a 0.81,0.81 0 0 0 0.82,0 z m 7.43,-4.29 5.08,-2.93 c 0.22,-0.13 0.24,-0.32 0,-0.43 l -4.86,-2.81 a 0.81,0.81 0 0 0 -0.74,0 l -5.08,2.93 c -0.22,0.13 -0.24,0.32 0,0.43 l 4.87,2.81 a 0.81,0.81 0 0 0 0.77,0 z m -14.87,8.58 5.09,-2.93 c 0.21,-0.13 0.23,-0.32 0,-0.43 l -4.86,-2.81 a 0.81,0.81 0 0 0 -0.74,0 l -5.09,2.93 c -0.21,0.13 -0.23,0.32 0,0.43 l 4.87,2.81 a 0.79,0.79 0 0 0 0.77,0 z m 29.73,-17.16 5.08,-2.93 c 0.22,-0.13 0.24,-0.32 0.05,-0.43 l -4.87,-2.81 a 0.81,0.81 0 0 0 -0.74,0 l -5.08,2.93 c -0.22,0.13 -0.24,0.32 0,0.43 l 4.86,2.81 a 0.81,0.81 0 0 0 0.74,0 z m -7.39,4.26 5.08,-2.93 c 0.22,-0.13 0.24,-0.32 0,-0.43 l -4.83,-2.78 a 0.81,0.81 0 0 0 -0.74,0 l -5.08,2.93 c -0.22,0.13 -0.24,0.32 -0.05,0.43 l 4.87,2.81 a 0.81,0.81 0 0 0 0.75,-0.03 z m 14.86,-8.58 5.08,-2.93 c 0.22,-0.13 0.24,-0.32 0.05,-0.43 l -4.87,-2.81 a 0.81,0.81 0 0 0 -0.74,0 l -5.08,2.93 c -0.22,0.13 -0.24,0.32 0,0.43 l 4.86,2.81 a 0.81,0.81 0 0 0 0.7,0.03 z m 40.55,-59.68 a 0.81,0.81 0 0 0 0.74,0 l 5.08,-2.93 c 0.22,-0.13 0.24,-0.32 0.05,-0.43 l -1.3,-0.75 a 0.84,0.84 0 0 0 -0.74,0 l -5.08,2.94 c -0.22,0.12 -0.24,0.31 0,0.42 z m -36.93,23.38 a 0.82,0.82 0 0 0 0.73,0 l 5.09,-2.94 c 0.21,-0.12 0.23,-0.31 0,-0.42 l -4.82,-2.76 a 0.84,0.84 0 0 0 -0.74,0 l -5.09,2.94 c -0.21,0.12 -0.23,0.32 0,0.43 z m 14.86,-8.58 a 0.84,0.84 0 0 0 0.74,0 l 5.08,-2.94 c 0.22,-0.12 0.24,-0.31 0,-0.42 l -4.86,-2.81 a 0.84,0.84 0 0 0 -0.74,0 l -5.08,2.94 c -0.22,0.12 -0.24,0.31 -0.05,0.43 z m -23.94,13.82 a 0.84,0.84 0 0 0 0.74,0 l 5.08,-2.94 c 0.22,-0.12 0.24,-0.31 0.05,-0.42 l -4.87,-2.81 a 0.82,0.82 0 0 0 -0.73,0 l -5.09,2.94 c -0.21,0.12 -0.23,0.31 0,0.42 z m 16.51,-9.53 a 0.84,0.84 0 0 0 0.74,0 l 5.08,-2.94 c 0.21,-0.12 0.23,-0.31 0,-0.42 l -4.86,-2.81 a 0.84,0.84 0 0 0 -0.74,0 l -5.08,2.94 c -0.22,0.12 -0.24,0.31 -0.05,0.43 z m -31.37,18.17 a 0.84,0.84 0 0 0 0.74,0 l 5.08,-2.94 c 0.22,-0.12 0.24,-0.31 0,-0.42 l -4.87,-2.81 a 0.84,0.84 0 0 0 -0.74,0 l -5.08,2.94 c -0.22,0.12 -0.24,0.31 0,0.43 z m 7.43,-4.29 a 0.84,0.84 0 0 0 0.74,0 l 5.08,-2.94 c 0.22,-0.12 0.24,-0.31 0.05,-0.42 l -4.87,-2.81 a 0.84,0.84 0 0 0 -0.74,0 l -5.08,2.94 c -0.22,0.12 -0.24,0.31 0,0.42 z m 38.58,-24.33 a 0.81,0.81 0 0 0 0.74,0 l 5.08,-2.93 c 0.22,-0.13 0.24,-0.32 0,-0.43 l -1.29,-0.74 a 0.81,0.81 0 0 0 -0.74,0 l -5.08,2.94 c -0.22,0.12 -0.24,0.31 -0.05,0.42 z m 22.29,-12.87 a 0.81,0.81 0 0 0 0.74,0 l 5.08,-2.93 c 0.22,-0.13 0.24,-0.32 0.05,-0.43 l -1.3,-0.75 a 0.81,0.81 0 0 0 -0.74,0 l -5.08,2.94 c -0.22,0.12 -0.24,0.31 0,0.42 z m 10.22,5.9 a 0.81,0.81 0 0 0 0.74,0 l 5.08,-2.93 c 0.22,-0.13 0.24,-0.32 0.05,-0.43 l -4.87,-2.81 a 0.81,0.81 0 0 0 -0.74,0 l -5.07,2.9 c -0.22,0.13 -0.24,0.32 -0.05,0.43 z m 14.19,16.27 5.09,-2.94 c 0.21,-0.12 0.23,-0.31 0,-0.42 l -4.86,-2.81 a 0.84,0.84 0 0 0 -0.74,0 l -5.09,2.94 c -0.21,0.12 -0.23,0.32 0,0.43 l 4.86,2.8 a 0.81,0.81 0 0 0 0.74,0 z m -39.23,-13.62 a 0.81,0.81 0 0 0 0.74,0 l 5.08,-2.93 c 0.22,-0.13 0.24,-0.32 0,-0.43 l -1.3,-0.74 a 0.81,0.81 0 0 0 -0.74,0 l -5.08,2.94 c -0.22,0.12 -0.24,0.31 0,0.42 z m -60.87,37.2 a 0.84,0.84 0 0 0 0.74,0 l 5.08,-2.94 c 0.22,-0.12 0.24,-0.31 0,-0.42 l -4.87,-2.81 a 0.84,0.84 0 0 0 -0.74,0 l -5.11,2.91 c -0.22,0.12 -0.24,0.31 0,0.43 z"
     style="fill:#455a64"
     id="path29" />
  <polygon
     points="238.12,306.57 187.85,335.59 188.89,336.19 216.58,352.17 265.82,323.74 266.85,323.16 "
     style="fill:#37474f"
     id="polygon31"
     transform="translate(88.29,47.82)" />
  <polygon
     points="216.58,352.17 265.82,323.74 238.12,307.76 188.89,336.19 "
     style="fill:#263238"
     id="polygon33"
     transform="translate(88.29,47.82)" />
  <path
     d="m 162.59,247.74 a 7.38,7.38 0 0 1 3.23,-1.08 4.72,4.72 0 0 1 2.54,0.54 4.31,4.31 0 0 1 1.67,1.74 5.45,5.45 0 0 1 0.63,2.47 1.8,1.8 0 0 1 -0.18,0.76 1.17,1.17 0 0 1 -0.39,0.5 l -3.6,2.08 a 1,1 0 0 1 -0.62,0.18 1.05,1.05 0 0 1 -0.48,-0.23 l -0.26,-0.27 a 1.4,1.4 0 0 0 -0.51,-0.32 1.76,1.76 0 0 0 -0.82,-0.07 3.24,3.24 0 0 0 -1.21,0.46 7.42,7.42 0 0 0 -1,0.69 5.57,5.57 0 0 0 -0.85,0.83 3.6,3.6 0 0 0 -0.6,1 3,3 0 0 0 -0.24,1.19 1.32,1.32 0 0 0 0.26,0.91 1.2,1.2 0 0 0 0.88,0.27 7.41,7.41 0 0 0 1.63,-0.24 l 2.53,-0.66 a 8.57,8.57 0 0 1 2.64,-0.34 3.2,3.2 0 0 1 1.88,0.71 3.9,3.9 0 0 1 1.12,1.89 11.51,11.51 0 0 1 0.37,3.23 14.27,14.27 0 0 1 -0.63,4.21 17.23,17.23 0 0 1 -1.77,3.92 18,18 0 0 1 -2.69,3.39 16.84,16.84 0 0 1 -3.39,2.59 8.26,8.26 0 0 1 -3.4,1.2 4.54,4.54 0 0 1 -2.65,-0.48 4.28,4.28 0 0 1 -1.75,-1.8 6,6 0 0 1 -0.64,-2.79 1.78,1.78 0 0 1 0.17,-0.76 1.12,1.12 0 0 1 0.4,-0.5 l 3.6,-2.08 a 1.1,1.1 0 0 1 0.6,-0.2 0.94,0.94 0 0 1 0.44,0.19 l 0.33,0.36 a 1.82,1.82 0 0 0 0.59,0.44 1.79,1.79 0 0 0 0.93,0.16 3.36,3.36 0 0 0 1.39,-0.5 10.33,10.33 0 0 0 2.43,-1.89 3.33,3.33 0 0 0 1,-2.32 0.94,0.94 0 0 0 -0.35,-0.85 1.85,1.85 0 0 0 -1.07,-0.16 9.69,9.69 0 0 0 -1.83,0.35 c -0.74,0.21 -1.61,0.43 -2.62,0.67 -1.89,0.47 -3.26,0.23 -4.13,-0.72 -0.87,-0.95 -1.31,-2.63 -1.31,-5.06 a 14.12,14.12 0 0 1 0.54,-3.77 17.33,17.33 0 0 1 1.51,-3.76 17.62,17.62 0 0 1 2.46,-3.43 13.78,13.78 0 0 1 3.22,-2.65 z"
     style="fill:#a68daa"
     id="path35" />
  <path
     d="m 186.69,234.15 a 0.4,0.4 0 0 1 0.52,0 0.9,0.9 0 0 1 0.22,0.68 v 4.48 a 2.11,2.11 0 0 1 -0.22,0.93 1.38,1.38 0 0 1 -0.52,0.64 l -4.83,2.79 v 21.67 a 2.11,2.11 0 0 1 -0.22,0.93 1.39,1.39 0 0 1 -0.52,0.64 l -3.6,2.08 a 0.41,0.41 0 0 1 -0.52,0 0.91,0.91 0 0 1 -0.22,-0.67 v -21.68 l -4.83,2.79 a 0.41,0.41 0 0 1 -0.52,0 0.9,0.9 0 0 1 -0.22,-0.68 v -4.48 a 2.11,2.11 0 0 1 0.22,-0.93 1.44,1.44 0 0 1 0.52,-0.64 z"
     style="fill:#a68daa"
     id="path37" />
  <path
     d="m 197.02,228.18 c 0.36,-0.21 0.64,-0.21 0.83,0 a 1.55,1.55 0 0 1 0.4,0.7 l 6,23.17 a 2.22,2.22 0 0 1 0.11,0.57 1.73,1.73 0 0 1 -0.18,0.76 1.1,1.1 0 0 1 -0.43,0.52 l -3.46,2 q -0.54,0.31 -0.78,0.09 a 1,1 0 0 1 -0.29,-0.53 l -0.77,-3.06 -7.3,4.21 -0.76,3.95 a 3.53,3.53 0 0 1 -0.29,0.87 1.89,1.89 0 0 1 -0.78,0.81 l -3.46,2 a 0.32,0.32 0 0 1 -0.43,0 0.71,0.71 0 0 1 -0.18,-0.55 4,4 0 0 1 0.11,-0.7 l 6,-30.07 a 5.45,5.45 0 0 1 0.39,-1.16 2.12,2.12 0 0 1 0.84,-0.95 z m -4.45,21 4.45,-2.57 -2.23,-8.79 z"
     style="fill:#a68daa"
     id="path39" />
  <path
     d="m 213.8,218.53 a 9.94,9.94 0 0 1 3.24,-1.28 3.48,3.48 0 0 1 2.43,0.38 3.82,3.82 0 0 1 1.53,2.13 12.21,12.21 0 0 1 0.54,4 18.23,18.23 0 0 1 -0.85,5.75 15,15 0 0 1 -2.42,4.59 l 3.41,8.09 a 1.25,1.25 0 0 1 0.08,0.42 1.72,1.72 0 0 1 -0.18,0.75 1,1 0 0 1 -0.43,0.52 l -3.73,2.16 c -0.36,0.21 -0.62,0.24 -0.78,0.07 a 1.79,1.79 0 0 1 -0.37,-0.54 l -3,-7.29 -2.52,1.46 v 9 a 2.26,2.26 0 0 1 -0.22,0.93 1.44,1.44 0 0 1 -0.52,0.64 l -3.6,2.08 a 0.41,0.41 0 0 1 -0.52,0 0.9,0.9 0 0 1 -0.22,-0.68 v -27.3 a 2.18,2.18 0 0 1 0.22,-0.93 1.41,1.41 0 0 1 0.52,-0.63 z m -3.1,14.6 3.1,-1.79 a 5.91,5.91 0 0 0 1.91,-1.78 5.08,5.08 0 0 0 0.75,-2.89 q 0,-1.77 -0.75,-2 a 2.46,2.46 0 0 0 -1.91,0.42 l -3.1,1.79 z"
     style="fill:#a68daa"
     id="path41" />
  <path
     d="m 237.76,204.68 a 0.41,0.41 0 0 1 0.52,0 0.9,0.9 0 0 1 0.22,0.68 v 4.48 a 2.11,2.11 0 0 1 -0.22,0.93 1.44,1.44 0 0 1 -0.52,0.64 l -4.83,2.78 v 21.68 a 2.11,2.11 0 0 1 -0.22,0.93 1.39,1.39 0 0 1 -0.52,0.64 l -3.6,2.08 a 0.41,0.41 0 0 1 -0.52,0 0.89,0.89 0 0 1 -0.22,-0.67 v -21.68 l -4.83,2.79 a 0.41,0.41 0 0 1 -0.52,0 0.9,0.9 0 0 1 -0.22,-0.68 v -4.48 a 2.11,2.11 0 0 1 0.22,-0.93 1.44,1.44 0 0 1 0.52,-0.64 z"
     style="fill:#a68daa"
     id="path43" />
  <ellipse
     cx="305.33954"
     cy="436.31311"
     rx="82.826523"
     ry="29.079767"
     style="fill:#a68daa;stroke-width:1.83092"
     id="ellipse51" />
  <ellipse
     cx="305.33954"
     cy="436.31311"
     rx="82.826523"
     ry="29.079767"
     style="fill:#a68daa;stroke-width:1.83092"
     id="ellipse53" />
  <ellipse
     cx="312.12473"
     cy="436.31311"
     rx="89.591911"
     ry="31.469189"
     style="opacity:0.9;fill:#ffffff;stroke-width:1.83092"
     id="ellipse55" />
  <path
     d="m 220.98982,421.29876 a 36.794204,31.520029 0 0 1 73.56862,0 8.9413872,7.6597059 0 0 1 0,0.8812 8.6050961,7.3716196 0 0 1 0,0.86426 c -0.41541,4.37213 -3.95636,8.65953 -10.76131,11.99795 -14.36161,7.11742 -37.58548,7.11742 -52.06578,0 -6.72582,-3.38925 -10.32611,-7.62582 -10.74153,-11.99795 a 8.6050961,7.3716196 0 0 1 0,-0.86426 8.9413872,7.6597059 0 0 1 0,-0.8812 z"
     style="fill:#a68daa;stroke-width:1.83092"
     id="path57" />
  <path
     d="m 220.98982,421.29876 a 36.794204,31.520029 0 0 1 73.56862,0 8.9413872,7.6597059 0 0 1 0,0.8812 8.6050961,7.3716196 0 0 1 0,0.86426 c -0.41541,4.37213 -3.95636,8.65953 -10.76131,11.99795 -14.36161,7.11742 -37.58548,7.11742 -52.06578,0 -6.72582,-3.38925 -10.32611,-7.62582 -10.74153,-11.99795 a 8.6050961,7.3716196 0 0 1 0,-0.86426 8.9413872,7.6597059 0 0 1 0,-0.8812 z"
     style="opacity:0.8;fill:#ffffff;stroke-width:1.83092"
     id="path59" />
  <path
     d="m 241.8003,393.77804 v 0 a 36.734858,31.46919 0 0 1 52.75814,27.52072 8.9413872,7.6597059 0 0 1 0,0.8812 8.6050961,7.3716196 0 0 1 0,0.86426 c -0.41541,4.37213 -3.95636,8.65953 -10.76131,11.99795 a 48.584174,41.619995 0 0 1 -18.47623,4.93136 c 9.55462,-1.40654 15.82546,-10.54057 12.79884,-20.62359 -3.40247,-11.69292 -17.21019,-28.58833 -36.31944,-25.5719 z"
     style="opacity:0.3;fill:#ffffff;stroke-width:1.83092"
     id="path61" />
  <path
     d="m 220.98982,423.04422 a 8.6050961,7.3716196 0 0 1 0,-0.86426 8.9413872,7.6597059 0 0 1 0,-0.8812 36.616167,31.367512 0 0 1 12.48233,-22.77577 c -3.95636,3.50788 -12.87797,16.77679 -3.22444,26.89371 6.36975,6.65987 36.53704,16.14977 61.32368,3.94847 a 25.716379,22.030128 0 0 1 -7.91273,5.677 c -14.36161,7.11742 -37.58548,7.11742 -52.06578,0 -6.58735,-3.33842 -10.18764,-7.62582 -10.60306,-11.99795 z"
     style="opacity:0.1;fill:#a68daa;stroke-width:1.83092"
     id="path63" />
  <path
     d="m 258.12031,397.74347 c -1.64189,3.20284 1.5232,7.50719 7.0819,9.59157 5.55869,2.08439 11.37455,1.18624 13.03622,-2.03355 1.66168,-3.21978 -1.5232,-7.50719 -7.08189,-9.59157 -5.5587,-2.08439 -11.35477,-1.18624 -13.03623,2.03355 z"
     style="opacity:0.5;fill:#ffffff;stroke-width:1.83092"
     id="path65" />
  <path
     d="m 279.46491,410.82597 a 4.8267665,4.1348855 0 0 0 8.66444,3.25368 4.8267665,4.1348855 0 0 0 -8.66444,-3.25368 z"
     style="opacity:0.5;fill:#ffffff;stroke-width:1.83092"
     id="path67" />
  <path
     d="m 374.83311,420.75648 a 31.255291,26.775078 0 0 0 -62.4908,0 c 0,0.25419 0,0.49144 0,0.74563 0,0.25419 0,0.49144 0,0.74564 0.35607,3.71123 3.40247,7.33772 9.15899,10.16775 12.1856,6.03286 31.98722,6.03286 44.21239,0 5.71695,-2.84697 8.76335,-6.47347 9.11942,-10.16775 0,-0.2542 0,-0.49145 0,-0.74564 0,-0.25419 0,-0.4406 0,-0.74563 z"
     style="fill:#a68daa;stroke-width:1.83092"
     id="path69" />
  <path
     d="m 374.83311,420.75648 a 31.255291,26.775078 0 0 0 -62.4908,0 c 0,0.25419 0,0.49144 0,0.74563 0,0.25419 0,0.49144 0,0.74564 0.35607,3.71123 3.40247,7.33772 9.15899,10.16775 12.1856,6.03286 31.98722,6.03286 44.21239,0 5.71695,-2.84697 8.76335,-6.47347 9.11942,-10.16775 0,-0.2542 0,-0.49145 0,-0.74564 0,-0.25419 0,-0.4406 0,-0.74563 z"
     style="opacity:0.8;fill:#ffffff;stroke-width:1.83092"
     id="path71" />
  <path
     d="m 357.12837,397.43843 v 0 a 31.195946,26.724239 0 0 0 -44.80584,23.31805 c 0,0.25419 0,0.49144 0,0.74563 0,0.25419 0,0.49144 0,0.74564 0.35607,3.71123 3.40247,7.33772 9.15898,10.16775 a 41.977043,35.959947 0 0 0 15.76612,4.27045 c -8.11055,-1.20318 -13.35273,-8.96456 -10.86022,-17.52242 2.78924,-9.93051 14.51986,-24.28398 30.74096,-21.7251 z"
     style="opacity:0.3;fill:#ffffff;stroke-width:1.83092"
     id="path73" />
  <path
     d="m 374.83311,422.29858 c 0,-0.25419 0,-0.49144 0,-0.74563 0,-0.25419 0,-0.49144 0,-0.74564 a 31.195946,26.724239 0 0 0 -10.60306,-19.35262 c 3.38269,2.99949 10.93935,14.26875 2.72989,22.8605 -5.40044,5.6431 -31.01791,13.70952 -52.10534,3.38925 a 21.997395,18.844232 0 0 0 6.6467,4.81273 c 12.1856,6.03287 31.98722,6.03287 44.21239,0 5.69716,-2.88086 8.74357,-6.50736 9.11942,-10.21859 z"
     style="opacity:0.1;fill:#a68daa;stroke-width:1.83092"
     id="path75" />
  <path
     d="m 343.18218,400.81074 c 1.38473,2.72834 -1.3056,6.37179 -5.93455,8.15114 -4.62895,1.77936 -9.67331,0.99983 -11.05804,-1.69462 -1.38473,-2.69445 1.28582,-6.38874 5.93455,-8.15115 4.64873,-1.76241 9.73266,-1.03372 11.05804,1.69463 z"
     style="opacity:0.5;fill:#ffffff;stroke-width:1.83092"
     id="path77" />
  <path
     d="m 325.14115,411.91053 a 4.1146206,3.5248204 0 1 1 -4.98502,-1.18624 3.6992022,3.1689491 0 0 1 4.98502,1.18624 z"
     style="opacity:0.5;fill:#ffffff;stroke-width:1.83092"
     id="path79" />
  <path
     d="m 405.31691,423.89153 a 20.652231,17.691887 0 0 0 -41.30446,0 8.3281504,7.1343721 0 0 0 0,0.98289 c 0.23738,2.4572 2.23535,4.86357 6.03346,6.7785 a 32.442201,27.791853 0 0 0 29.25732,0 c 3.77833,-1.88104 5.79608,-4.28741 5.93455,-6.7785 a 8.3281504,7.1343721 0 0 0 0,-0.98289 z"
     style="fill:#a68daa;stroke-width:1.83092"
     id="path81" />
  <path
     d="m 405.31691,423.89153 a 20.652231,17.691887 0 0 0 -41.30446,0 8.3281504,7.1343721 0 0 0 0,0.98289 c 0.23738,2.4572 2.23535,4.86357 6.03346,6.7785 a 32.442201,27.791853 0 0 0 29.25732,0 c 3.77833,-1.88104 5.79608,-4.28741 5.93455,-6.7785 a 8.3281504,7.1343721 0 0 0 0,-0.98289 z"
     style="opacity:0.9;fill:#ffffff;stroke-width:1.83092"
     id="path83" />
  <path
     d="m 393.62585,408.43655 v 0 a 20.632449,17.674941 0 0 0 -29.67275,15.45498 8.3281504,7.1343721 0 0 0 0,0.98289 c 0.23739,2.4572 2.23535,4.86357 6.03346,6.7785 a 27.45718,23.521398 0 0 0 10.38546,2.76223 c -5.36087,-0.77952 -8.84248,-5.91424 -7.1808,-11.57429 1.9584,-6.60903 9.71288,-16.09893 20.43463,-14.40431 z"
     style="opacity:0.5;fill:#ffffff;stroke-width:1.83092"
     id="path85" />
  <path
     d="m 405.31691,424.87442 a 8.3281504,7.1343721 0 0 0 0,-0.98289 20.493976,17.556317 0 0 0 -7.00277,-12.79442 c 2.23535,1.98271 7.24015,9.43906 1.80015,15.11606 -3.56073,3.72817 -20.49398,9.06624 -34.44017,2.21996 a 14.579209,12.489388 0 0 0 4.37179,3.18589 32.442201,27.791853 0 0 0 29.25732,0 c 3.77833,-1.88103 5.79608,-4.2874 6.01368,-6.7446 z"
     style="opacity:0.1;fill:#a68daa;stroke-width:1.83092"
     id="path87" />
  <path
     d="m 384.44708,410.58872 c 0.92975,1.81325 -0.85062,4.21962 -3.95637,5.40586 -3.10574,1.18624 -6.38953,0.6609 -7.31927,-1.15235 -0.92975,-1.81325 0.85061,-4.21961 3.95636,-5.3889 3.10575,-1.1693 6.40932,-0.55923 7.31928,1.13539 z"
     style="opacity:0.5;fill:#ffffff;stroke-width:1.83092"
     id="path89" />
  <path
     d="m 372.47907,418.01118 a 2.4331651,2.084389 0 0 1 -1.56276,2.60973 2.215565,1.8979802 0 1 1 1.56276,-2.60973 z"
     style="opacity:0.5;fill:#ffffff;stroke-width:1.83092"
     id="path91" />
  <path
     d="m 449.35126,431.58513 a 28.090199,24.063678 0 0 0 -56.16061,0 c 0,0.23725 0,0.4406 0,0.67785 0,0.23725 0,0.4406 0,0.67785 0.33629,3.38925 3.06618,6.59209 8.22924,9.15098 10.95913,5.4228 28.76278,5.4228 39.7417,0 5.12349,-2.55889 7.91273,-5.82951 8.18967,-9.15098 0,-0.23725 0,-0.4406 0,-0.67785 0,-0.23725 0.0198,-0.4406 0,-0.67785 z"
     style="fill:#a68daa;stroke-width:1.83092"
     id="path93" />
  <path
     d="m 449.35126,431.58513 a 28.090199,24.063678 0 0 0 -56.16061,0 c 0,0.23725 0,0.4406 0,0.67785 0,0.23725 0,0.4406 0,0.67785 0.33629,3.38925 3.06618,6.59209 8.22924,9.15098 10.95913,5.4228 28.76278,5.4228 39.7417,0 5.12349,-2.55889 7.91273,-5.82951 8.18967,-9.15098 0,-0.23725 0,-0.4406 0,-0.67785 0,-0.23725 0.0198,-0.4406 0,-0.67785 z"
     style="opacity:0.7;fill:#ffffff;stroke-width:1.83092"
     id="path95" />
  <path
     d="m 433.46645,410.58872 v 0 a 28.090199,24.063678 0 0 0 -40.2758,20.99641 c 0,0.23725 0,0.4406 0,0.67785 0,0.23725 0,0.4406 0,0.67785 0.33629,3.38925 3.06618,6.59209 8.22924,9.15098 a 37.130495,31.808115 0 0 0 14.08466,3.76207 c -7.27971,-1.08457 -12.00757,-8.04947 -9.75244,-15.74307 2.59142,-8.91373 13.13514,-21.82678 27.71434,-19.52209 z"
     style="opacity:0.3;fill:#ffffff;stroke-width:1.83092"
     id="path97" />
  <path
     d="m 449.35126,432.94083 c 0,-0.23725 0,-0.4406 0,-0.67785 0,-0.23725 0,-0.4406 0,-0.67785 a 27.971508,23.962 0 0 0 -9.53484,-17.36991 c 3.0464,2.67751 9.89092,12.81137 2.45295,20.52191 -4.84655,5.08388 -27.8726,12.33688 -46.80381,3.01644 a 19.247721,16.488703 0 0 0 5.93455,4.33824 c 10.95913,5.4228 28.76278,5.4228 39.74169,0 5.14328,-2.55889 7.89295,-5.82951 8.20946,-9.15098 z"
     style="opacity:0.1;fill:#a68daa;stroke-width:1.83092"
     id="path99" />
  <path
     d="m 420.98412,413.6221 c 1.26604,2.44026 -1.14735,5.72784 -5.40044,7.32078 -4.25309,1.59295 -8.68422,0.89816 -9.89092,-1.55905 -1.20669,-2.45721 1.14735,-5.72783 5.38066,-7.32078 4.23331,-1.59295 8.66444,-0.89815 9.9107,1.55905 z"
     style="opacity:0.5;fill:#ffffff;stroke-width:1.83092"
     id="path101" />
  <path
     d="m 404.72346,423.60345 a 3.6992022,3.1689491 0 1 1 -4.49048,-1.06762 3.3431293,2.8639166 0 0 1 4.49048,1.06762 z"
     style="opacity:0.5;fill:#ffffff;stroke-width:1.83092"
     id="path103" />
  <path
     d="m 338.94887,379.33984 a 33.490638,28.690005 0 0 1 -11.8691,21.9115 21.878704,18.742555 0 0 0 -7.91273,14.2518 v 58.46457 a 6.8247314,5.8464569 0 0 1 -3.95637,4.82968 17.803647,15.251627 0 0 1 -5.06414,1.59295 24.232742,20.759159 0 0 1 -9.39637,0 17.388229,14.895756 0 0 1 -5.04437,-1.59295 6.864295,5.8803494 0 0 1 -3.95637,-4.82968 v -58.60014 a 21.62154,18.522253 0 0 0 -7.91273,-14.08234 33.431293,28.639166 0 0 1 -11.8691,-22.1657 33.629361,28.808842 0 0 1 67.25823,0.22031 z"
     style="fill:#a68daa;stroke-width:1.83092"
     id="path105" />
  <path
     d="m 338.94887,379.33984 a 33.490638,28.690005 0 0 1 -11.8691,21.9115 21.878704,18.742555 0 0 0 -7.91273,14.2518 v 58.46457 a 6.8247314,5.8464569 0 0 1 -3.95637,4.82968 17.803647,15.251627 0 0 1 -5.06414,1.59295 24.232742,20.759159 0 0 1 -9.39637,0 17.388229,14.895756 0 0 1 -5.04437,-1.59295 6.864295,5.8803494 0 0 1 -3.95637,-4.82968 v -58.60014 a 21.62154,18.522253 0 0 0 -7.91273,-14.08234 33.431293,28.639166 0 0 1 -11.8691,-22.1657 33.629361,28.808842 0 0 1 67.25823,0.22031 z"
     style="opacity:0.5;fill:#ffffff;stroke-width:1.83092"
     id="path107" />
  <path
     d="m 338.94887,379.33984 a 33.490638,28.690005 0 0 1 -11.8691,21.9115 21.878704,18.742555 0 0 0 -7.91273,14.2518 v 58.46457 a 6.8247314,5.8464569 0 0 1 -3.95637,4.82968 17.803647,15.251627 0 0 1 -5.06414,1.59295 24.232742,20.759159 0 0 1 -9.39637,0 17.388229,14.895756 0 0 1 -5.04437,-1.59295 6.864295,5.8803494 0 0 1 -3.95637,-4.82968 v -58.60014 a 21.62154,18.522253 0 0 0 -7.91273,-14.08234 33.431293,28.639166 0 0 1 -11.8691,-22.1657 33.629361,28.808842 0 0 1 67.25823,0.22031 z"
     style="opacity:0.15;stroke-width:1.83092"
     id="path109" />
  <path
     d="m 324.09272,379.33984 a 18.733393,16.048101 0 0 1 -7.91274,13.0825 15.232009,13.048614 0 0 0 -6.15215,10.67614 v 72.5808 a 4.767421,4.0840467 0 0 1 -4.64873,4.11794 h -0.0989 a 4.767421,4.0840467 0 0 1 -4.64873,-4.11794 v -72.86889 a 15.014409,12.862205 0 0 0 -6.13237,-10.47278 18.654266,15.980316 0 0 1 -7.91273,-13.557 18.735158,16.049613 0 0 1 37.46678,0.4406 z"
     style="fill:#a68daa;stroke-width:1.83092"
     id="path111" />
  <path
     d="m 324.09272,379.33984 a 18.733393,16.048101 0 0 1 -7.91274,13.0825 15.232009,13.048614 0 0 0 -6.15215,10.67614 v 72.5808 a 4.767421,4.0840467 0 0 1 -4.64873,4.11794 h -0.0989 a 4.767421,4.0840467 0 0 1 -4.64873,-4.11794 v -72.86889 a 15.014409,12.862205 0 0 0 -6.13237,-10.47278 18.654266,15.980316 0 0 1 -7.91273,-13.557 18.735158,16.049613 0 0 1 37.46678,0.4406 z"
     style="opacity:0.25;fill:#ffffff;stroke-width:1.83092"
     id="path113" />
  <ellipse
     cx="322.37167"
     cy="393.10019"
     style="opacity:0.7;fill:#ffffff;stroke-width:1.83092"
     id="circle115"
     rx="7.1016769"
     ry="6.0837045" />
  <ellipse
     cx="319.36487"
     cy="375.05243"
     style="opacity:0.7;fill:#ffffff;stroke-width:1.83092"
     id="circle117"
     rx="5.341094"
     ry="4.5754881" />
  <path
     d="m 303.79656,367.73165 a 2.6507652,2.2707978 0 1 1 2.65076,2.2708 2.6507652,2.2707978 0 0 1 -2.65076,-2.2708 z"
     style="opacity:0.7;fill:#ffffff;stroke-width:1.83092"
     id="path119" />
  <path
     d="m 282.63,370.46 a 7.2005861,6.1684357 0 1 1 7.14124,6.23622 A 7.1808043,6.1514895 0 0 1 282.63,370.46 Z"
     style="opacity:0.7;fill:#ffffff;stroke-width:1.83092"
     id="path121" />
  <path
     d="m 281.42331,381.59369 a 3.3826929,2.8978091 0 1 0 6.7456,0 3.3826929,2.8978091 0 0 0 -6.7456,0 z"
     style="opacity:0.7;fill:#ffffff;stroke-width:1.83092"
     id="path123" />
  <path
     d="m 281.85851,392.64264 a 6.5675676,5.6261557 0 1 1 6.56757,5.60921 6.5675676,5.6261557 0 0 1 -6.56757,-5.60921 z"
     style="opacity:0.7;fill:#ffffff;stroke-width:1.83092"
     id="path125" />
  <path
     d="m 296.31903,400.82768 a 4.5102572,3.8637455 0 1 1 4.51025,3.86375 4.5102572,3.8637455 0 0 1 -4.51025,-3.86375 z"
     style="opacity:0.7;fill:#ffffff;stroke-width:1.83092"
     id="path127" />
  <ellipse
     cx="277.32849"
     cy="375.05243"
     style="opacity:0.7;fill:#ffffff;stroke-width:1.83092"
     id="circle129"
     rx="2.2946923"
     ry="1.9657651" />
  <ellipse
     cx="328.08862"
     cy="366.90128"
     style="opacity:0.7;fill:#ffffff;stroke-width:1.83092"
     id="circle131"
     rx="3.0266199"
     ry="2.5927765" />
  <path
     d="m 328.06886,379.62792 a 3.0464018,2.6097228 0 1 1 3.04641,2.60973 3.0464018,2.6097228 0 0 1 -3.04641,-2.60973 z"
     style="opacity:0.7;fill:#ffffff;stroke-width:1.83092"
     id="path133" />
  <path
     d="m 296.47728,381.7801 a 3.0661837,2.6266691 0 1 1 3.0464,2.60972 3.0464018,2.6097228 0 0 1 -3.0464,-2.60972 z"
     style="opacity:0.7;fill:#ffffff;stroke-width:1.83092"
     id="path135" />
  <path
     d="m 481.06154,435.75391 a 17.111285,14.65851 0 0 0 -34.22257,0 3.956366,3.3892504 0 0 0 0,0.40671 4.1344025,3.5417667 0 0 0 0,0.42366 8.7831325,7.5241359 0 0 0 5.0048,5.57531 26.784598,22.945225 0 0 0 24.21296,0 8.8622598,7.5919209 0 0 0 5.00481,-5.57531 z"
     style="fill:#a68daa;stroke-width:1.83092"
     id="path137" />
  <path
     d="m 481.06154,435.75391 a 17.111285,14.65851 0 0 0 -34.22257,0 3.956366,3.3892504 0 0 0 0,0.40671 4.1344025,3.5417667 0 0 0 0,0.42366 8.7831325,7.5241359 0 0 0 5.0048,5.57531 26.784598,22.945225 0 0 0 24.21296,0 8.8622598,7.5919209 0 0 0 5.00481,-5.57531 z"
     style="opacity:0.5;fill:#ffffff;stroke-width:1.83092"
     id="path139" />
  <path
     d="m 471.36844,422.95949 v 0 a 17.091501,14.641562 0 0 0 -24.52947,12.79442 3.956366,3.3892504 0 0 0 0,0.40671 4.1344025,3.5417667 0 0 0 0,0.42366 8.7831325,7.5241359 0 0 0 5.0048,5.57531 22.768886,19.505136 0 0 0 8.58532,2.28775 c -4.45091,-0.64396 -7.31928,-4.89747 -5.93455,-9.59158 1.56276,-5.43975 7.99186,-13.30281 16.8739,-11.89627 z"
     style="opacity:0.5;fill:#ffffff;stroke-width:1.83092"
     id="path141" />
  <path
     d="m 481.06154,436.58428 v -0.83037 a 17.131065,14.675454 0 0 0 -5.81586,-10.59141 c 1.85949,1.69463 5.93455,7.81222 1.50342,12.52328 -2.96728,3.08422 -16.99259,7.50719 -28.54518,1.8302 a 12.264735,10.506676 0 0 0 3.63985,2.64361 26.784598,22.945225 0 0 0 24.21296,0 8.8622598,7.5919209 0 0 0 5.00481,-5.57531 z"
     style="opacity:0.2;fill:#a68daa;stroke-width:1.83092"
     id="path143" />
  <path
     d="m 463.85135,424.80663 c 0.77149,1.49127 -0.71215,3.49093 -3.28379,4.45686 -2.57164,0.96594 -5.30153,0.55923 -6.07302,-0.94899 -0.77149,-1.50821 0.71215,-3.49092 3.28378,-4.45686 2.57164,-0.96594 5.22241,-0.54228 6.07303,0.94899 z"
     style="opacity:0.5;fill:#ffffff;stroke-width:1.83092"
     id="path145" />
  <path
     d="m 453.96043,430.92423 a 2.2353468,1.9149265 0 1 1 -2.74967,-0.66091 1.978183,1.6946252 0 0 1 2.74967,0.66091 z"
     style="opacity:0.5;fill:#ffffff;stroke-width:1.83092"
     id="path147" />
  <path
     d="m 455.42429,447.87048 a 23.56016,20.182986 0 0 0 -47.12032,0 c 0,0.20335 0,0.37282 0,0.57617 0,0.20336 0,0.35587 0,0.55923 0.25716,2.79613 2.55185,5.54142 6.88407,7.67665 9.19855,4.55854 24.13384,4.55854 33.35217,0 4.31244,-2.13523 6.60713,-4.88052 6.88408,-7.67665 0,-0.20336 0,-0.37282 0,-0.55923 0,-0.18641 0.0198,-0.42365 0,-0.57617 z"
     style="fill:#a68daa;stroke-width:1.83092"
     id="path149" />
  <path
     d="m 455.42429,447.87048 a 23.56016,20.182986 0 0 0 -47.12032,0 c 0,0.20335 0,0.37282 0,0.57617 0,0.20336 0,0.35587 0,0.55923 0.25716,2.79613 2.55185,5.54142 6.88407,7.67665 9.19855,4.55854 24.13384,4.55854 33.35217,0 4.31244,-2.13523 6.60713,-4.88052 6.88408,-7.67665 0,-0.20336 0,-0.37282 0,-0.55923 0,-0.18641 0.0198,-0.42365 0,-0.57617 z"
     style="opacity:0.6;fill:#ffffff;stroke-width:1.83092"
     id="path151" />
  <path
     d="m 442.09133,430.21248 v 0 a 23.540378,20.16604 0 0 0 -33.78736,17.658 c 0,0.20335 0,0.37282 0,0.57617 0,0.20336 0,0.35587 0,0.55923 0.25716,2.79613 2.55185,5.54142 6.88407,7.67665 a 31.650928,27.114003 0 0 0 11.8691,3.16895 c -6.11258,-0.9151 -10.06895,-6.7785 -8.18968,-13.21808 2.13644,-7.54108 10.97892,-18.36973 23.22387,-16.42092 z"
     style="opacity:0.5;fill:#ffffff;stroke-width:1.83092"
     id="path153" />
  <path
     d="m 455.42429,448.95504 c 0,-0.20336 0,-0.37282 0,-0.55923 0,-0.18641 0,-0.37281 0,-0.57617 a 23.362341,20.013524 0 0 0 -8.01165,-14.57378 c 2.57164,2.25386 8.26881,10.74393 2.0771,17.23434 -4.07506,4.25351 -23.40191,10.33722 -39.28672,2.52499 a 16.616737,14.234852 0 0 0 4.98502,3.6265 c 9.19855,4.55854 24.13384,4.55854 33.35217,0 4.31244,-2.13523 6.60713,-4.88052 6.88408,-7.67665 z"
     style="opacity:0.1;fill:#a68daa;stroke-width:1.83092"
     id="path155" />
  <path
     d="m 431.62674,432.73748 c 1.04844,2.06744 -0.96931,4.81273 -4.53004,6.15149 -3.56072,1.33875 -7.29949,0.76258 -8.34793,-1.30487 -1.04843,-2.06744 0.96931,-4.81273 4.53004,-6.15149 3.56073,-1.33875 7.27972,-0.74563 8.34793,1.30487 z"
     style="opacity:0.3;fill:#ffffff;stroke-width:1.83092"
     id="path157" />
  <path
     d="m 417.97728,441.09198 a 3.1057473,2.6605616 0 0 1 -5.55869,2.08439 3.1057473,2.6605616 0 0 1 5.55869,-2.08439 z"
     style="opacity:0.3;fill:#ffffff;stroke-width:1.83092"
     id="path159" />
  <path
     d="m 413.62528,457.64847 a 29.257327,25.063507 0 0 0 -58.49487,0 c 0,0.25419 0,0.45755 0,0.71174 0,0.25419 0,0.45755 0,0.6948 0.33629,3.38925 3.18487,6.7785 8.56553,9.52379 11.41412,5.66005 29.94969,5.66005 41.38359,0 5.36087,-2.66056 8.20946,-6.04981 8.54575,-9.52379 0,-0.23725 0,-0.45755 0,-0.6948 0,-0.23725 0.0198,-0.45755 0,-0.71174 z"
     style="fill:#a68daa;stroke-width:1.83092"
     id="path161" />
  <path
     d="m 413.62528,457.64847 a 29.257327,25.063507 0 0 0 -58.49487,0 c 0,0.25419 0,0.45755 0,0.71174 0,0.25419 0,0.45755 0,0.6948 0.33629,3.38925 3.18487,6.7785 8.56553,9.52379 11.41412,5.66005 29.94969,5.66005 41.38359,0 5.36087,-2.66056 8.20946,-6.04981 8.54575,-9.52379 0,-0.23725 0,-0.45755 0,-0.6948 0,-0.23725 0.0198,-0.45755 0,-0.71174 z"
     style="opacity:0.8;fill:#ffffff;stroke-width:1.83092"
     id="path163" />
  <path
     d="m 397.06789,435.7878 v 0 a 29.197981,25.012668 0 0 0 -41.93748,21.86067 c 0,0.25419 0,0.45755 0,0.71174 0,0.25419 0,0.45755 0,0.6948 0.33629,3.38925 3.18487,6.7785 8.56553,9.52379 a 38.989987,33.401063 0 0 0 14.67812,3.93153 c -7.59623,-1.11845 -12.50212,-8.37145 -10.16786,-16.38703 2.67054,-9.30349 13.68902,-22.74187 28.86169,-20.3355 z"
     style="opacity:0.3;fill:#ffffff;stroke-width:1.83092"
     id="path165" />
  <path
     d="m 413.62528,459.05501 c 0,-0.23725 0,-0.45755 0,-0.6948 0,-0.23725 0,-0.45755 0,-0.71174 a 29.118854,24.944883 0 0 0 -9.89092,-18.0986 c 3.1651,2.79613 10.24699,13.35365 2.57164,21.38617 -5.06415,5.28723 -29.03972,12.84526 -48.78199,3.13506 a 20.137903,17.251285 0 0 0 6.21149,4.5077 c 11.41412,5.66005 29.94969,5.66005 41.38359,0 5.32131,-2.66056 8.1699,-6.04981 8.50619,-9.52379 z"
     style="opacity:0.1;fill:#a68daa;stroke-width:1.83092"
     id="path167" />
  <path
     d="m 384.09101,438.9398 c 1.3056,2.54194 -1.2067,5.96508 -5.61804,7.62582 -4.41135,1.66073 -9.06008,0.93204 -10.36568,-1.69463 -1.3056,-2.62667 1.20669,-5.96508 5.61804,-7.62581 4.41135,-1.66073 9.02051,-0.86426 10.36568,1.69462 z"
     style="opacity:0.3;fill:#ffffff;stroke-width:1.83092"
     id="path169" />
  <path
     d="m 367.13798,449.32786 a 3.5013839,2.9994866 0 0 1 -2.21557,3.71123 3.145311,2.6944541 0 1 1 -2.47273,-4.82969 3.4816021,2.9825404 0 0 1 4.6883,1.11846 z"
     style="opacity:0.3;fill:#ffffff;stroke-width:1.83092"
     id="path171" />
  <path
     d="m 495.50227,439.194 a 10.345897,8.8628898 0 0 0 -20.69179,0 v 0.49144 a 5.2817486,4.5246493 0 0 0 3.02662,3.38925 16.181537,13.862034 0 0 0 14.63855,0 5.2817486,4.5246493 0 0 0 3.02662,-3.38925 z"
     style="fill:#a68daa;stroke-width:1.83092"
     id="path173" />
  <path
     d="m 495.50227,439.194 a 10.345897,8.8628898 0 0 0 -20.69179,0 v 0.49144 a 5.2817486,4.5246493 0 0 0 3.02662,3.38925 16.181537,13.862034 0 0 0 14.63855,0 5.2817486,4.5246493 0 0 0 3.02662,-3.38925 z"
     style="opacity:0.2;fill:#ffffff;stroke-width:1.83092"
     id="path175" />
  <path
     d="m 489.68641,431.46651 v 0 a 10.345897,8.8628898 0 0 0 -14.83637,7.72749 v 0.49144 a 5.2817486,4.5246493 0 0 0 3.02662,3.38925 14.084663,12.065731 0 0 0 5.20262,1.38959 5.2224031,4.4738105 0 0 1 -3.60029,-5.79562 c 0.94953,-3.30451 4.82677,-8.04947 10.20742,-7.20215 z"
     style="opacity:0.5;fill:#ffffff;stroke-width:1.83092"
     id="path177" />
  <path
     d="M 495.50227,439.68544 V 439.194 a 10.26677,8.7951048 0 0 0 -3.52116,-6.40569 c 1.12756,0.99983 3.62007,4.72801 0.90996,7.57498 -1.78036,1.86409 -10.26677,4.52465 -17.24975,1.10151 a 7.4577499,6.388737 0 0 0 2.19578,1.59294 16.181537,13.862034 0 0 0 14.63855,0 5.2817486,4.5246493 0 0 0 3.02662,-3.3723 z"
     style="fill:#455a64;stroke-width:1.83092"
     id="path179" />
  <path
     d="m 485.09703,432.61885 c 0.45498,0.9151 -0.4352,2.11828 -1.97818,2.7114 -1.54299,0.59312 -3.18488,0.32198 -3.65964,-0.57617 -0.47477,-0.89815 0.4352,-2.11828 1.97818,-2.69445 1.54298,-0.57618 3.18488,-0.38977 3.65964,0.55922 z"
     style="opacity:0.3;fill:#ffffff;stroke-width:1.83092"
     id="path181" />
  <path
     d="m 479.10314,436.24535 a 1.2462553,1.0676139 0 0 1 -0.79128,1.32181 1.1077825,0.94899011 0 1 1 -0.8704,-1.69463 1.2462553,1.0676139 0 0 1 1.66168,0.37282 z"
     style="opacity:0.3;fill:#ffffff;stroke-width:1.83092"
     id="path183" />
  <path
     d="m 140.65581,428.28061 a 17.111283,14.658508 0 0 1 34.22256,0 3.956366,3.3892504 0 0 1 0,0.40671 4.1344025,3.5417667 0 0 1 0,0.42366 8.8226962,7.5580284 0 0 1 -5.0048,5.57531 26.784598,22.945225 0 0 1 -24.21296,0 8.8226962,7.5580284 0 0 1 -5.0048,-5.57531 4.1344025,3.5417667 0 0 1 0,-0.42366 3.956366,3.3892504 0 0 1 0,-0.40671 z"
     style="fill:#a68daa;stroke-width:1.83092"
     id="path185" />
  <path
     d="m 140.65581,428.28061 a 17.111283,14.658508 0 0 1 34.22256,0 3.956366,3.3892504 0 0 1 0,0.40671 4.1344025,3.5417667 0 0 1 0,0.42366 8.8226962,7.5580284 0 0 1 -5.0048,5.57531 26.784598,22.945225 0 0 1 -24.21296,0 8.8226962,7.5580284 0 0 1 -5.0048,-5.57531 4.1344025,3.5417667 0 0 1 0,-0.42366 3.956366,3.3892504 0 0 1 0,-0.40671 z"
     style="opacity:0.5;fill:#ffffff;stroke-width:1.83092"
     id="path187" />
  <path
     d="m 150.3489,415.48619 v 0 a 16.893683,14.472099 0 0 1 7.41819,-1.45738 17.091501,14.641562 0 0 1 17.11128,14.2518 3.956366,3.3892504 0 0 1 0,0.40671 4.1344025,3.5417667 0 0 1 0,0.42366 8.8226962,7.5580284 0 0 1 -5.0048,5.57531 22.768886,19.505136 0 0 1 -8.58531,2.28775 c 4.43113,-0.64396 7.31927,-4.89747 5.93454,-9.59158 -1.56276,-5.43975 -8.01164,-13.30281 -16.8739,-11.89627 z"
     style="opacity:0.5;fill:#ffffff;stroke-width:1.83092"
     id="path189" />
  <path
     d="m 140.65581,429.11098 a 4.1344025,3.5417667 0 0 1 0,-0.42366 3.956366,3.3892504 0 0 1 0,-0.40671 17.051937,14.607669 0 0 1 5.81585,-10.59141 c -1.85949,1.69463 -5.93454,7.81223 -1.50341,12.52328 2.96727,3.08422 16.99259,7.50719 28.54518,1.8302 a 12.521898,10.726978 0 0 1 -3.63986,2.64361 26.784598,22.945225 0 0 1 -24.21296,0 8.8226962,7.5580284 0 0 1 -5.0048,-5.57531 z"
     style="opacity:0.2;fill:#a68daa;stroke-width:1.83092"
     id="path191" />
  <path
     d="m 157.94513,417.36723 c -0.7715,1.49127 0.71214,3.49092 3.28378,4.45686 2.57164,0.96594 5.30153,0.55923 6.07302,-0.94899 0.77149,-1.50822 -0.71214,-3.49093 -3.30356,-4.45686 -2.59142,-0.96594 -5.28175,-0.57618 -6.05324,0.94899 z"
     style="opacity:0.3;fill:#ffffff;stroke-width:1.83092"
     id="path193" />
  <path
     d="m 167.85582,423.41704 a 2.2353468,1.9149265 0 1 0 2.74968,-0.66091 1.978183,1.6946252 0 0 0 -2.74968,0.66091 z"
     style="opacity:0.3;fill:#ffffff;stroke-width:1.83092"
     id="path195" />
  <path
     d="m 177.3511,433.88982 a 24.826197,21.267546 0 0 1 49.65239,0 c 0,0.20336 0,0.38976 0,0.59312 0,0.20335 0,0.38976 0,0.59312 -0.29672,2.9317 -2.71011,5.82951 -7.27971,8.08336 -9.67331,4.79579 -25.41965,4.79579 -35.11275,0 -4.54982,-2.25385 -6.9632,-5.08387 -7.25993,-8.08336 0,-0.20336 0,-0.38977 0,-0.59312 0,-0.20336 -0.0198,-0.38976 0,-0.59312 z"
     style="fill:#a68daa;stroke-width:1.83092"
     id="path197" />
  <path
     d="m 177.3511,433.88982 a 24.826197,21.267546 0 0 1 49.65239,0 c 0,0.20336 0,0.38976 0,0.59312 0,0.20335 0,0.38976 0,0.59312 -0.29672,2.9317 -2.71011,5.82951 -7.27971,8.08336 -9.67331,4.79579 -25.41965,4.79579 -35.11275,0 -4.54982,-2.25385 -6.9632,-5.08387 -7.25993,-8.08336 0,-0.20336 0,-0.38977 0,-0.59312 0,-0.20336 -0.0198,-0.38976 0,-0.59312 z"
     style="opacity:0.7;fill:#ffffff;stroke-width:1.83092"
     id="path199" />
  <path
     d="m 191.3962,415.31673 v 0 a 24.826197,21.267546 0 0 1 35.60729,18.64088 c 0,0.20335 0,0.38976 0,0.59311 0,0.20336 0,0.38977 0,0.59312 -0.29672,2.93171 -2.71011,5.82951 -7.27971,8.08337 a 32.719147,28.029101 0 0 1 -12.44277,3.38925 c 6.42909,-0.96594 10.60306,-7.11743 8.62488,-13.92982 -2.29469,-7.99863 -11.61194,-19.40346 -24.50969,-17.36991 z"
     style="opacity:0.3;fill:#ffffff;stroke-width:1.83092"
     id="path201" />
  <path
     d="m 177.3511,435.07606 c 0,-0.20336 0,-0.38977 0,-0.59312 0,-0.20336 0,-0.38976 0,-0.59312 a 24.766851,21.216708 0 0 1 8.42706,-15.37025 c -2.69033,2.37248 -8.68422,11.3201 -2.176,18.14944 4.29266,4.49075 24.64816,10.89644 41.40337,2.66056 a 17.032156,14.590723 0 0 1 -5.28175,3.82985 c -9.67331,4.79579 -25.41965,4.79579 -35.11275,0 -4.54982,-2.25385 -6.9632,-5.15166 -7.25993,-8.08336 z"
     style="opacity:0.1;fill:#a68daa;stroke-width:1.83092"
     id="path203" />
  <path
     d="m 202.43446,417.99424 c -1.10778,2.16912 1.02866,5.08387 4.76742,6.47346 3.73877,1.3896 7.67535,0.79648 8.78314,-1.37264 1.10778,-2.16912 -1.00888,-5.08388 -4.76743,-6.47347 -3.75854,-1.38959 -7.67535,-0.79647 -8.78313,1.37265 z"
     style="opacity:0.5;fill:#ffffff;stroke-width:1.83092"
     id="path205" />
  <path
     d="m 216.81585,426.82323 a 3.264002,2.7961316 0 1 0 3.95637,-0.94899 2.9474927,2.5249915 0 0 0 -3.95637,0.94899 z"
     style="opacity:0.5;fill:#ffffff;stroke-width:1.83092"
     id="path207" />
  <path
     d="m 155.51196,446.36226 a 23.56016,20.182986 0 0 1 47.12032,0 c 0,0.20336 0,0.37282 0,0.55923 0,0.18641 0,0.37282 0,0.57617 -0.27695,2.79613 -2.57164,5.52448 -6.90386,7.67665 -9.19855,4.55855 -24.13383,4.55855 -33.35216,0 -4.31244,-2.15217 -6.60714,-4.88052 -6.8643,-7.67665 0,-0.20335 0,-0.37282 0,-0.57617 0,-0.20336 -0.0198,-0.35587 0,-0.55923 z"
     style="fill:#a68daa;stroke-width:1.83092"
     id="path209" />
  <path
     d="m 155.51196,446.36226 a 23.56016,20.182986 0 0 1 47.12032,0 c 0,0.20336 0,0.37282 0,0.55923 0,0.18641 0,0.37282 0,0.57617 -0.27695,2.79613 -2.57164,5.52448 -6.90386,7.67665 -9.19855,4.55855 -24.13383,4.55855 -33.35216,0 -4.31244,-2.15217 -6.60714,-4.88052 -6.8643,-7.67665 0,-0.20335 0,-0.37282 0,-0.57617 0,-0.20336 -0.0198,-0.35587 0,-0.55923 z"
     style="opacity:0.6;fill:#ffffff;stroke-width:1.83092"
     id="path211" />
  <path
     d="m 168.84491,428.73816 v 0 a 23.540378,20.16604 0 0 1 33.88628,17.6241 c 0,0.20336 0,0.37282 0,0.55923 0,0.18641 0,0.37282 0,0.57617 -0.27695,2.79613 -2.57164,5.52448 -6.90386,7.67665 a 31.650928,27.114003 0 0 1 -11.8691,3.16895 c 6.11259,-0.91509 10.06895,-6.7785 8.18968,-13.21807 -2.23535,-7.42246 -11.07782,-18.3189 -23.303,-16.38703 z"
     style="opacity:0.5;fill:#ffffff;stroke-width:1.83092"
     id="path213" />
  <path
     d="m 155.51196,447.49766 c 0,-0.20335 0,-0.37282 0,-0.57617 0,-0.20336 0,-0.35587 0,-0.55923 a 23.421687,20.064362 0 0 1 7.91273,-14.59072 c -2.55185,2.25385 -8.24902,10.76087 -1.97818,17.23434 4.07506,4.27045 23.4019,10.35416 39.3065,2.52499 a 16.240882,13.912873 0 0 1 -5.00481,3.64344 c -9.19855,4.55855 -24.13383,4.55855 -33.35216,0 -4.33222,-2.21996 -6.62692,-4.88052 -6.88408,-7.67665 z"
     style="opacity:0.15;fill:#a68daa;stroke-width:1.83092"
     id="path215" />
  <path
     d="m 179.3095,431.2801 c -1.06822,2.05049 0.96931,4.81273 4.53004,6.15149 3.56073,1.33875 7.27971,0.74563 8.34793,-1.30486 1.06822,-2.0505 -0.98909,-4.81274 -4.53004,-6.15149 -3.54094,-1.33876 -7.29949,-0.74564 -8.34793,1.30486 z"
     style="opacity:0.3;fill:#ffffff;stroke-width:1.83092"
     id="path217" />
  <path
     d="m 192.95896,439.65155 a 3.1057473,2.6605616 0 0 0 5.5587,2.10133 3.1057473,2.6605616 0 0 0 -5.5587,-2.10133 z"
     style="opacity:0.3;fill:#ffffff;stroke-width:1.83092"
     id="path219" />
  <path
     d="m 205.50065,455.22515 a 29.257327,25.063507 0 0 1 58.47508,0 c 0,0.23725 0,0.45755 0,0.6948 0,0.23725 0,0.45755 0,0.6948 -0.33629,3.38925 -3.18487,6.88017 -8.54575,9.54073 -11.41411,5.66005 -29.96947,5.66005 -41.40337,0 -5.34109,-2.66056 -8.18967,-6.06675 -8.52596,-9.54073 0,-0.23725 0,-0.45755 0,-0.6948 0,-0.23725 -0.0198,-0.45755 0,-0.6948 z"
     style="fill:#a68daa;stroke-width:1.83092"
     id="path221" />
  <path
     d="m 205.50065,455.22515 a 29.257327,25.063507 0 0 1 58.47508,0 c 0,0.23725 0,0.45755 0,0.6948 0,0.23725 0,0.45755 0,0.6948 -0.33629,3.38925 -3.18487,6.88017 -8.54575,9.54073 -11.41411,5.66005 -29.96947,5.66005 -41.40337,0 -5.34109,-2.66056 -8.18967,-6.06675 -8.52596,-9.54073 0,-0.23725 0,-0.45755 0,-0.6948 0,-0.23725 -0.0198,-0.45755 0,-0.6948 z"
     style="opacity:0.8;fill:#ffffff;stroke-width:1.83092"
     id="path223" />
  <path
     d="m 222.03826,433.36449 v 0 a 29.197981,25.012668 0 0 1 41.93747,21.86066 c 0,0.23725 0,0.45755 0,0.6948 0,0.23725 0,0.45755 0,0.6948 -0.33629,3.38925 -3.18487,6.88017 -8.54575,9.54073 a 38.989987,33.401063 0 0 1 -14.67811,3.93154 c 7.57644,-1.1354 12.50211,-8.3884 10.16786,-16.40398 -2.69033,-9.20181 -13.68903,-22.75881 -28.88147,-20.31855 z"
     style="opacity:0.3;fill:#ffffff;stroke-width:1.83092"
     id="path225" />
  <path
     d="m 205.50065,456.61475 c 0,-0.23725 0,-0.45755 0,-0.6948 0,-0.23725 0,-0.45755 0,-0.6948 a 29.019945,24.860152 0 0 1 9.89091,-18.09859 c -3.18487,2.79613 -10.24699,13.3367 -2.57164,21.38617 5.06415,5.28723 29.03973,12.82831 48.76221,3.13505 a 20.315939,17.403801 0 0 1 -6.19171,4.5077 c -11.41412,5.66005 -29.96947,5.66005 -41.40337,0 -5.32131,-2.66056 -8.15011,-6.06675 -8.4864,-9.54073 z"
     style="opacity:0.1;fill:#a68daa;stroke-width:1.83092"
     id="path227" />
  <path
     d="m 235.03492,436.49954 c -1.3056,2.55889 1.20669,5.98203 5.61804,7.62582 4.41135,1.64378 9.06008,0.94899 10.36568,-1.69463 1.3056,-2.64361 -1.2067,-5.96508 -5.61804,-7.62581 -4.41135,-1.66073 -9.0403,-0.86426 -10.36568,1.69462 z"
     style="opacity:0.3;fill:#ffffff;stroke-width:1.83092"
     id="path229" />
  <path
     d="m 251.98795,446.90454 a 3.837675,3.2875729 0 1 0 4.66851,-1.11845 3.4420384,2.9486478 0 0 0 -4.66851,1.11845 z"
     style="opacity:0.3;fill:#ffffff;stroke-width:1.83092"
     id="path231" />
  <path
     d="m 362.25187,471.79859 a 26.70547,22.87744 0 0 0 -53.41094,0 c 0,0.2203 0,0.42365 0,0.64395 0,0.22031 0,0.42366 0,0.64396 0.29672,3.16895 2.90792,6.27012 7.81382,8.69343 10.42502,5.16861 27.33849,5.16861 37.78329,0 4.88612,-2.42331 7.49732,-5.52448 7.79404,-8.69343 0,-0.2203 0,-0.42365 0,-0.64396 0,-0.2203 0.0396,-0.42365 0.0198,-0.64395 z"
     style="fill:#a68daa;stroke-width:1.83092"
     id="path233" />
  <path
     d="m 362.25187,471.79859 a 26.70547,22.87744 0 0 0 -53.41094,0 c 0,0.2203 0,0.42365 0,0.64395 0,0.22031 0,0.42366 0,0.64396 0.29672,3.16895 2.90792,6.27012 7.81382,8.69343 10.42502,5.16861 27.33849,5.16861 37.78329,0 4.88612,-2.42331 7.49732,-5.52448 7.79404,-8.69343 0,-0.2203 0,-0.42365 0,-0.64396 0,-0.2203 0.0396,-0.42365 0.0198,-0.64395 z"
     style="opacity:0.9;fill:#ffffff;stroke-width:1.83092"
     id="path235" />
  <path
     d="m 347.13855,451.8359 v 0 a 26.665907,22.843548 0 0 0 -38.27784,19.96269 c 0,0.2203 0,0.42365 0,0.64395 0,0.22031 0,0.42366 0,0.64396 0.29672,3.16895 2.90793,6.27012 7.81382,8.69343 a 35.251221,30.198221 0 0 0 13.3923,3.5926 c -6.92364,-1.03372 -11.41412,-7.6597 -9.27768,-14.98048 2.47273,-8.47313 12.50212,-20.74221 26.3494,-18.55615 z"
     style="opacity:0.5;fill:#ffffff;stroke-width:1.83092"
     id="path237" />
  <path
     d="m 362.25187,473.0865 c 0,-0.2203 0,-0.42365 0,-0.64396 0,-0.2203 0,-0.42365 0,-0.64395 a 26.566998,22.758816 0 0 0 -9.06008,-16.5226 c 2.88815,2.55889 9.3568,12.18436 2.33425,19.52208 -4.60916,4.82969 -26.50765,11.72681 -44.50911,2.86392 a 18.298193,15.675283 0 0 0 5.6576,4.10099 c 10.42502,5.16861 27.33849,5.16861 37.7833,0 4.88611,-2.40636 7.49731,-5.50753 7.79404,-8.67648 z"
     style="opacity:0.1;fill:#a68daa;stroke-width:1.83092"
     id="path239" />
  <path
     d="m 335.26945,454.64898 c 1.18691,2.32164 -1.10778,5.43975 -5.14328,6.96491 -4.03549,1.52516 -8.24902,0.84731 -9.45571,-1.47432 -1.20669,-2.32164 1.10778,-5.4567 5.14328,-6.96491 4.03549,-1.50822 8.2688,-0.79648 9.45571,1.47432 z"
     style="opacity:0.5;fill:#ffffff;stroke-width:1.83092"
     id="path241" />
  <path
     d="m 319.81984,464.20667 a 3.5013839,2.9994866 0 1 1 -4.33222,-1.08456 3.1650928,2.7114003 0 0 1 4.33222,1.08456 z"
     style="opacity:0.5;fill:#ffffff;stroke-width:1.83092"
     id="path243" />
  <path
     d="m 250.74169,474.28969 a 25.39987,21.758988 0 0 1 50.77996,0 c 0,0.20335 0,0.40671 0,0.61006 0,0.20336 0,0.38976 0,0.61007 -0.27695,2.99948 -2.76946,5.96508 -7.43797,8.26977 -9.89092,4.91441 -25.99332,4.91441 -35.9238,0 -4.64873,-2.30469 -7.12146,-5.27029 -7.41819,-8.26977 0,-0.22031 0,-0.40671 0,-0.61007 0,-0.20335 -0.0198,-0.40671 0,-0.61006 z"
     style="fill:#a68daa;stroke-width:1.83092"
     id="path245" />
  <path
     d="m 250.74169,474.28969 a 25.39987,21.758988 0 0 1 50.77996,0 c 0,0.20335 0,0.40671 0,0.61006 0,0.20336 0,0.38976 0,0.61007 -0.27695,2.99948 -2.76946,5.96508 -7.43797,8.26977 -9.89092,4.91441 -25.99332,4.91441 -35.9238,0 -4.64873,-2.30469 -7.12146,-5.27029 -7.41819,-8.26977 0,-0.22031 0,-0.40671 0,-0.61007 0,-0.20335 -0.0198,-0.40671 0,-0.61006 z"
     style="opacity:0.9;fill:#ffffff;stroke-width:1.83092"
     id="path247" />
  <path
     d="m 265.12308,455.30988 v 0 a 25.063579,21.470901 0 0 1 11.01848,-2.18606 25.39987,21.758988 0 0 1 25.38009,21.16587 c 0,0.20335 0,0.40671 0,0.61006 0,0.20336 0,0.38976 0,0.61007 -0.27695,2.99948 -2.76946,5.96508 -7.43797,8.26977 a 33.629111,28.808628 0 0 1 -12.7395,3.38925 c 6.58735,-0.96594 10.86023,-7.26994 8.84248,-14.23485 -2.3936,-8.11726 -11.88888,-19.72544 -25.06358,-17.62411 z"
     style="opacity:0.5;fill:#ffffff;stroke-width:1.83092"
     id="path249" />
  <path
     d="m 250.74169,475.50982 c 0,-0.22031 0,-0.40671 0,-0.61007 0,-0.20335 0,-0.40671 0,-0.61006 a 25.320742,21.691203 0 0 1 8.62488,-15.72613 c -2.74968,2.44026 -8.90183,11.59124 -2.23535,18.64088 4.39157,4.59244 25.22183,11.15064 42.3529,2.72835 a 17.566265,15.048272 0 0 1 -5.40044,3.91458 c -9.89092,4.91442 -25.99332,4.91442 -35.9238,0 -4.64873,-2.37247 -7.12146,-5.33807 -7.41819,-8.33755 z"
     style="opacity:0.1;fill:#a68daa;stroke-width:1.83092"
     id="path251" />
  <path
     d="m 276.39872,458.03823 c -1.14734,2.21996 1.04844,5.18555 4.86633,6.62598 3.8179,1.44044 7.91274,0.81342 9.00074,-1.40653 1.088,-2.21996 -1.04844,-5.18556 -4.88612,-6.62599 -3.83767,-1.44043 -7.85338,-0.81342 -8.98095,1.40654 z"
     style="opacity:0.5;fill:#ffffff;stroke-width:1.83092"
     id="path253" />
  <path
     d="m 291.09662,467.07058 a 3.3431293,2.8639166 0 1 0 4.07506,-0.96593 3.0068382,2.5758303 0 0 0 -4.07506,0.96593 z"
     style="opacity:0.5;fill:#ffffff;stroke-width:1.83092"
     id="path255" />
  <path
     d="m 316.63497,481.89855 a 10.3459,8.8628924 0 0 0 -20.6918,0 v 0.49144 a 5.3608759,4.5924343 0 0 0 3.02662,3.38925 16.181537,13.862034 0 0 0 14.63856,0 5.3608759,4.5924343 0 0 0 3.02662,-3.38925 z"
     style="fill:#a68daa;stroke-width:1.83092"
     id="path257" />
  <path
     d="m 316.63497,481.89855 a 10.3459,8.8628924 0 0 0 -20.6918,0 v 0.49144 a 5.3608759,4.5924343 0 0 0 3.02662,3.38925 16.181537,13.862034 0 0 0 14.63856,0 5.3608759,4.5924343 0 0 0 3.02662,-3.38925 z"
     style="opacity:0.9;fill:#ffffff;stroke-width:1.83092"
     id="path259" />
  <path
     d="m 310.77954,474.17106 v 0 a 10.128297,8.676481 0 0 0 -4.49047,-0.89815 10.365679,8.879836 0 0 0 -10.3459,8.62564 v 0.49144 a 5.3608759,4.5924343 0 0 0 3.02662,3.38925 14.084663,12.065731 0 0 0 5.20262,1.3896 5.2224031,4.4738105 0 0 1 -3.60029,-5.79562 c 0.94953,-3.30452 4.82677,-8.08336 10.20742,-7.20216 z"
     style="opacity:0.6;fill:#ffffff;stroke-width:1.83092"
     id="path261" />
  <path
     d="m 316.63497,482.38999 v -0.49144 a 10.26677,8.7951048 0 0 0 -3.52117,-6.40568 c 1.12756,0.99983 3.62008,4.728 0.90996,7.55803 -1.78036,1.88103 -10.26677,4.54159 -17.24975,1.11845 a 7.4577499,6.388737 0 0 0 2.19578,1.59295 16.181537,13.862034 0 0 0 14.63856,0 5.3608759,4.5924343 0 0 0 3.02662,-3.37231 z"
     style="opacity:0.1;fill:#a68daa;stroke-width:1.83092"
     id="path263" />
  <path
     d="m 306.19016,475.27257 c 0.45498,0.9151 -0.4352,2.11828 -1.97818,2.69445 -1.54299,0.57618 -3.18488,0.33893 -3.65964,-0.55922 -0.47477,-0.89816 0.4352,-2.11829 1.97818,-2.7114 1.54298,-0.59312 3.18488,-0.32198 3.65964,0.57617 z"
     style="opacity:0.5;fill:#ffffff;stroke-width:1.83092"
     id="path265" />
  <path
     d="m 300.19627,478.94991 a 1.2264735,1.0506676 0 0 1 -0.79128,1.30486 1.1077825,0.94899011 0 1 1 -0.8704,-1.69463 1.2264735,1.0506676 0 0 1 1.66168,0.38977 z"
     style="opacity:0.5;fill:#ffffff;stroke-width:1.83092"
     id="path267" />
  <path
     d="m 126.17551,431.7207 a 10.345897,8.8628898 0 0 1 20.67201,0 1.5034191,1.2879152 0 0 1 0,0.25419 1.3056008,1.1184526 0 0 1 0,0.23725 5.2421849,4.4907568 0 0 1 -3.02662,3.38925 16.141973,13.828142 0 0 1 -14.61877,0 5.2817486,4.5246493 0 0 1 -3.02662,-3.38925 z"
     style="fill:#a68daa;stroke-width:1.83092"
     id="path269" />
  <path
     d="m 126.17551,431.7207 a 10.345897,8.8628898 0 0 1 20.67201,0 1.5034191,1.2879152 0 0 1 0,0.25419 1.3056008,1.1184526 0 0 1 0,0.23725 5.2421849,4.4907568 0 0 1 -3.02662,3.38925 16.141973,13.828142 0 0 1 -14.61877,0 5.2817486,4.5246493 0 0 1 -3.02662,-3.38925 z"
     style="opacity:0.2;fill:#ffffff;stroke-width:1.83092"
     id="path271" />
  <path
     d="m 132.03093,423.99321 v 0 a 10.326115,8.8459435 0 0 1 14.81659,7.72749 1.5034191,1.2879152 0 0 1 0,0.25419 1.3056008,1.1184526 0 0 1 0,0.23725 5.2421849,4.4907568 0 0 1 -3.02662,3.38925 13.847281,11.862376 0 0 1 -5.18284,1.3896 5.2224031,4.4738105 0 0 0 3.60029,-5.79562 c -0.96931,-3.30452 -4.7872,-8.04947 -10.20742,-7.20216 z"
     style="opacity:0.5;fill:#ffffff;stroke-width:1.83092"
     id="path273" />
  <path
     d="m 126.17551,432.21214 v -0.49144 a 10.26677,8.7951048 0 0 1 3.52116,-6.40568 c -1.12756,0.99983 -3.63985,4.728 -0.90996,7.57497 1.78036,1.86409 10.26677,4.52465 17.22997,1.10151 a 6.982986,5.982027 0 0 1 -2.19578,1.59295 16.141973,13.828142 0 0 1 -14.61877,0 5.2817486,4.5246493 0 0 1 -3.02662,-3.37231 z"
     style="fill:#455a64;stroke-width:1.83092"
     id="path275" />
  <path
     d="m 136.62031,425.09472 c -0.45498,0.91509 0.4352,2.11828 1.97819,2.7114 1.54298,0.59312 3.18487,0.32198 3.65963,-0.57618 0.47477,-0.89815 -0.4352,-2.11828 -1.97818,-2.69445 -1.54298,-0.57617 -3.20465,-0.38976 -3.65964,0.55923 z"
     style="opacity:0.3;fill:#ffffff;stroke-width:1.83092"
     id="path277" />
  <path
     d="m 142.61421,428.77205 a 1.3451644,1.1523451 0 0 0 2.43316,0.9151 1.2264735,1.0506676 0 0 0 -0.77149,-1.30486 1.2462553,1.0676139 0 0 0 -1.66167,0.38976 z"
     style="opacity:0.3;fill:#ffffff;stroke-width:1.83092"
     id="path279" />
  <path
     d="m 346.62422,340.32956 h -17.98168 c -2.57164,13.31976 5.67738,23.5214 8.98095,23.5214 3.30356,0 11.49324,-10.20164 9.00073,-23.5214 z"
     style="fill:#a68daa;stroke-width:1.83092"
     id="path281" />
  <path
     d="m 346.62422,340.32956 h -17.98168 c -2.57164,13.31976 5.67738,23.5214 8.98095,23.5214 3.30356,0 11.49324,-10.20164 9.00073,-23.5214 z"
     style="opacity:0.7;fill:#ffffff;stroke-width:1.83092"
     id="path283" />
  <path
     d="m 337.62349,340.32956 h 3.08596 a 13.689026,11.726806 0 0 1 1.66168,7.11743 c -0.35608,3.57566 -2.88815,8.25282 -4.74764,8.25282 -1.85949,0 -4.37179,-4.67716 -4.74764,-8.25282 a 13.609899,11.659021 0 0 1 1.68145,-7.11743 h 3.06619"
     style="fill:#ffffff;stroke-width:1.83092"
     id="path285" />
  <path
     d="m 346.56487,316.38451 -18.63448,5.6431 -1.44407,5.30418 a 7.4973136,6.4226295 0 0 0 3.36291,5.62615 12.225171,10.472784 0 0 0 2.8288,1.32181 15.113318,12.946937 0 0 0 10.74153,0 11.394334,9.7610412 0 0 0 2.76946,-1.30486 7.4973136,6.4226295 0 0 0 3.36291,-5.62616 z"
     style="fill:#a68daa;stroke-width:1.83092"
     id="path287" />
  <path
     d="m 346.56487,316.38451 -18.63448,5.6431 -1.44407,5.30418 a 7.4973136,6.4226295 0 0 0 3.36291,5.62615 12.225171,10.472784 0 0 0 2.8288,1.32181 15.113318,12.946937 0 0 0 10.74153,0 11.394334,9.7610412 0 0 0 2.76946,-1.30486 7.4973136,6.4226295 0 0 0 3.36291,-5.62616 z"
     style="opacity:0.2;fill:#ffffff;stroke-width:1.83092"
     id="path289" />
  <path
     d="m 349.98713,328.94168 0.61324,2.23691 a 8.3083686,7.1174258 0 0 1 -3.67942,5.88035 14.183572,12.150463 0 0 1 -3.0464,1.42348 16.517828,14.15012 0 0 1 -11.6515,0 13.847281,11.862376 0 0 1 -3.10575,-1.44043 8.3479323,7.1513183 0 0 1 -3.67942,-5.89729 l -1.68146,6.20232 v 0 a 8.2885868,7.1004796 0 0 0 4.17397,5.79562 15.1331,12.963883 0 0 0 3.63986,1.50822 20.652231,17.691887 0 0 0 12.97688,0 15.271573,13.082507 0 0 0 3.56073,-1.49127 8.3083686,7.1174258 0 0 0 4.19375,-5.79562 z"
     style="fill:#a68daa;stroke-width:1.83092"
     id="path291" />
  <path
     d="m 349.98713,328.94168 0.61324,2.23691 a 8.3083686,7.1174258 0 0 1 -3.67942,5.88035 14.183572,12.150463 0 0 1 -3.0464,1.42348 16.517828,14.15012 0 0 1 -11.6515,0 13.847281,11.862376 0 0 1 -3.10575,-1.44043 8.3479323,7.1513183 0 0 1 -3.67942,-5.89729 l -1.68146,6.20232 v 0 a 8.2885868,7.1004796 0 0 0 4.17397,5.79562 15.1331,12.963883 0 0 0 3.63986,1.50822 20.652231,17.691887 0 0 0 12.97688,0 15.271573,13.082507 0 0 0 3.56073,-1.49127 8.3083686,7.1174258 0 0 0 4.19375,-5.79562 z"
     style="opacity:0.2;fill:#ffffff;stroke-width:1.83092"
     id="path293" />
  <path
     d="m 349.98713,328.89084 -0.15825,-0.52533 -0.27695,-1.03372 a 7.4973136,6.4226295 0 0 1 -3.36291,5.62615 11.394334,9.7610412 0 0 1 -2.76946,1.30487 15.113318,12.946937 0 0 1 -10.74153,0 12.225171,10.472784 0 0 1 -2.8288,-1.32181 7.4973136,6.4226295 0 0 1 -3.36291,-5.62616 l -1.04844,3.82986 a 8.3479323,7.1513183 0 0 0 3.67942,5.89729 13.847281,11.862376 0 0 0 3.10575,1.44043 16.517828,14.15012 0 0 0 11.6515,0 14.183572,12.150463 0 0 0 3.0464,-1.42348 8.3083686,7.1174258 0 0 0 3.67942,-5.88035 z"
     style="fill:#455a64;stroke-width:1.83092"
     id="path295" />
  <path
     d="m 348.12764,322.11234 -1.56277,-5.72783 -18.63448,5.6431 -1.44407,5.30418 v 0 l -0.41542,1.55905 -0.63302,2.2708 v 0 l -1.16713,4.3213 c 10.58328,-2.57583 19.10925,-7.37162 23.85689,-13.3706 z"
     style="opacity:0.15;stroke-width:1.83092"
     id="path297" />
  <path
     d="m 283.04542,340.32956 h -17.98168 c -2.57164,13.31976 5.67738,23.5214 9.00073,23.5214 3.32335,0 11.55259,-10.20164 8.98095,-23.5214 z"
     style="fill:#a68daa;stroke-width:1.83092"
     id="path299" />
  <path
     d="m 283.04542,340.32956 h -17.98168 c -2.57164,13.31976 5.67738,23.5214 9.00073,23.5214 3.32335,0 11.55259,-10.20164 8.98095,-23.5214 z"
     style="opacity:0.7;fill:#ffffff;stroke-width:1.83092"
     id="path301" />
  <path
     d="m 274.06447,340.32956 h 3.06618 a 13.609899,11.659021 0 0 1 1.68146,7.11743 c -0.37586,3.57566 -2.90793,8.25282 -4.74764,8.25282 -1.83971,0 -4.39157,-4.67716 -4.74764,-8.25282 a 13.689026,11.726806 0 0 1 1.66167,-7.11743 h 3.08597"
     style="fill:#ffffff;stroke-width:1.83092"
     id="path303" />
  <path
     d="m 282.98607,316.38451 h -16.95302 l -3.04641,10.94728 a 7.4577499,6.388737 0 0 0 3.36291,5.62615 11.869098,10.167751 0 0 0 2.82881,1.32181 15.113318,12.946937 0 0 0 10.74153,0 11.631716,9.9643962 0 0 0 2.74967,-1.30486 7.4577499,6.388737 0 0 0 3.36292,-5.62616 z"
     style="fill:#a68daa;stroke-width:1.83092"
     id="path305" />
  <path
     d="m 282.98607,316.38451 h -16.95302 l -3.04641,10.94728 a 7.4577499,6.388737 0 0 0 3.36291,5.62615 11.869098,10.167751 0 0 0 2.82881,1.32181 15.113318,12.946937 0 0 0 10.74153,0 11.631716,9.9643962 0 0 0 2.74967,-1.30486 7.4577499,6.388737 0 0 0 3.36292,-5.62616 z"
     style="opacity:0.2;fill:#ffffff;stroke-width:1.83092"
     id="path307" />
  <path
     d="m 286.26986,328.36551 0.13847,0.52533 0.61324,2.28775 a 8.2094595,7.0326946 0 0 1 -3.67942,5.88035 13.590117,11.642075 0 0 1 -3.02662,1.42348 16.517828,14.15012 0 0 1 -11.6515,0 13.036226,11.16758 0 0 1 -3.10575,-1.44043 8.2490231,7.0665871 0 0 1 -3.67942,-5.89729 l -1.70124,6.20232 v 0 a 8.3083686,7.1174258 0 0 0 4.19375,5.79562 14.994627,12.845259 0 0 0 3.62008,1.50822 20.652231,17.691887 0 0 0 12.97688,0 15.825464,13.557002 0 0 0 3.58051,-1.49127 8.2885868,7.1004796 0 0 0 4.17396,-5.79562 z"
     style="fill:#a68daa;stroke-width:1.83092"
     id="path309" />
  <path
     d="m 286.26986,328.36551 0.13847,0.52533 0.61324,2.28775 a 8.2094595,7.0326946 0 0 1 -3.67942,5.88035 13.590117,11.642075 0 0 1 -3.02662,1.42348 16.517828,14.15012 0 0 1 -11.6515,0 13.036226,11.16758 0 0 1 -3.10575,-1.44043 8.2490231,7.0665871 0 0 1 -3.67942,-5.89729 l -1.70124,6.20232 v 0 a 8.3083686,7.1174258 0 0 0 4.19375,5.79562 14.994627,12.845259 0 0 0 3.62008,1.50822 20.652231,17.691887 0 0 0 12.97688,0 15.825464,13.557002 0 0 0 3.58051,-1.49127 8.2885868,7.1004796 0 0 0 4.17396,-5.79562 z"
     style="opacity:0.2;fill:#ffffff;stroke-width:1.83092"
     id="path311" />
  <path
     d="m 286.40833,328.89084 -0.13847,-0.52533 -0.29673,-1.03372 a 7.4577499,6.388737 0 0 1 -3.36291,5.62615 11.631716,9.9643962 0 0 1 -2.72989,1.37265 15.113318,12.946937 0 0 1 -10.74154,0 11.869098,10.167751 0 0 1 -2.8288,-1.32181 7.4577499,6.388737 0 0 1 -3.36291,-5.62615 l -1.04844,3.82985 a 8.2490231,7.0665871 0 0 0 3.67942,5.8973 13.036226,11.16758 0 0 0 3.10575,1.44043 16.517828,14.15012 0 0 0 11.6515,0 13.590117,11.642075 0 0 0 3.02662,-1.42349 8.2094595,7.0326946 0 0 0 3.67942,-5.88035 z"
     style="fill:#455a64;stroke-width:1.83092"
     id="path313" />
  <path
     d="m 266.03305,316.38451 -1.58255,5.67699 c 4.70807,5.99898 13.23404,10.81171 23.73819,13.40449 l -1.97818,-7.10048 -0.29673,-1.03372 v 0 l -2.98705,-10.94728 z"
     style="opacity:0.15;stroke-width:1.83092"
     id="path315" />
  <path
     d="m 323.75642,350.03977 -17.5267,-3.89764 -17.50692,3.89764 a 70.818951,60.667582 0 0 0 0.19782,20.62358 c 2.29469,12.59107 12.5219,25.19908 17.3091,25.19908 4.78721,0 15.03419,-12.60801 17.32889,-25.19908 a 70.818951,60.667582 0 0 0 0.19781,-20.62358 z"
     style="fill:#a68daa;stroke-width:1.83092"
     id="path317" />
  <path
     d="m 323.75642,350.03977 -17.5267,-3.89764 -17.50692,3.89764 a 70.818951,60.667582 0 0 0 0.19782,20.62358 c 2.29469,12.59107 12.5219,25.19908 17.3091,25.19908 4.78721,0 15.03419,-12.60801 17.32889,-25.19908 a 70.818951,60.667582 0 0 0 0.19781,-20.62358 z"
     style="opacity:0.85;fill:#ffffff;stroke-width:1.83092"
     id="path319" />
  <path
     d="m 317.70318,351.85302 h -23.97557 c -3.42226,17.74272 7.57644,31.35056 11.98779,31.35056 4.41134,0 15.41004,-13.60784 11.98778,-31.35056 z"
     style="fill:#a68daa;stroke-width:1.83092"
     id="path321" />
  <path
     d="m 305.7154,351.85302 h 4.11462 a 18.139938,15.539713 0 0 1 2.21556,9.47295 c -0.49454,4.77884 -3.85746,10.99812 -6.33018,10.99812 -2.47273,0 -5.83564,-6.21928 -6.33019,-10.99812 a 18.139938,15.539713 0 0 1 2.21557,-9.47295 h 4.11462"
     style="fill:#ffffff;stroke-width:1.83092"
     id="path323" />
  <path
     d="m 321.60021,333.24603 -1.97819,-7.06659 h -26.82416 l -1.97818,7.06659 a 9.9898242,8.5578573 0 0 0 4.49047,7.50719 15.390264,13.184184 0 0 0 3.75855,1.69463 20.236812,17.336016 0 0 0 14.34183,0 16.656301,14.268744 0 0 0 3.67942,-1.69463 9.890915,8.473126 0 0 0 4.51026,-7.50719 z"
     style="fill:#a68daa;stroke-width:1.83092"
     id="path325" />
  <path
     d="m 321.60021,333.24603 -1.97819,-7.06659 h -26.82416 l -1.97818,7.06659 a 9.9898242,8.5578573 0 0 0 4.49047,7.50719 15.390264,13.184184 0 0 0 3.75855,1.69463 20.236812,17.336016 0 0 0 14.34183,0 16.656301,14.268744 0 0 0 3.67942,-1.69463 9.890915,8.473126 0 0 0 4.51026,-7.50719 z"
     style="opacity:0.5;fill:#ffffff;stroke-width:1.83092"
     id="path327" />
  <path
     d="m 321.99584,334.63562 0.17804,0.6948 0.83084,3.05032 a 10.978916,9.4051699 0 0 1 -4.9059,7.82917 17.487138,14.980487 0 0 1 -3.95636,1.89798 22.096304,18.928963 0 0 1 -15.52874,0 17.427792,14.929648 0 0 1 -4.1344,-1.93187 10.959134,9.3882236 0 0 1 -4.9059,-7.86306 l -2.25513,8.28672 v 0 a 11.077825,9.4899011 0 0 0 5.5587,7.72749 21.107213,18.081651 0 0 0 4.80698,2.03355 27.556089,23.606129 0 0 0 17.3091,0 21.760013,18.640877 0 0 0 4.76743,-1.98271 11.117388,9.5237936 0 0 0 5.55869,-7.72749 z"
     style="fill:#a68daa;stroke-width:1.83092"
     id="path329" />
  <path
     d="m 321.99584,334.63562 0.17804,0.6948 0.83084,3.05032 a 10.978916,9.4051699 0 0 1 -4.9059,7.82917 17.487138,14.980487 0 0 1 -3.95636,1.89798 22.096304,18.928963 0 0 1 -15.52874,0 17.427792,14.929648 0 0 1 -4.1344,-1.93187 10.959134,9.3882236 0 0 1 -4.9059,-7.86306 l -2.25513,8.28672 v 0 a 11.077825,9.4899011 0 0 0 5.5587,7.72749 21.107213,18.081651 0 0 0 4.80698,2.03355 27.556089,23.606129 0 0 0 17.3091,0 21.760013,18.640877 0 0 0 4.76743,-1.98271 11.117388,9.5237936 0 0 0 5.55869,-7.72749 z"
     style="opacity:0.5;fill:#ffffff;stroke-width:1.83092"
     id="path331" />
  <path
     d="m 322.17388,335.33042 -0.17804,-0.6948 -0.39563,-1.38959 a 9.890915,8.473126 0 0 1 -4.4707,7.50719 16.656301,14.268744 0 0 1 -3.67942,1.69463 20.236812,17.336016 0 0 1 -14.34183,0 15.390264,13.184184 0 0 1 -3.75854,-1.69463 9.9898242,8.5578573 0 0 1 -4.49048,-7.50719 l -1.38473,5.08388 a 10.959134,9.3882236 0 0 0 4.9059,7.86306 17.427792,14.929648 0 0 0 4.1344,1.93187 22.096304,18.928963 0 0 0 15.52874,0 17.487138,14.980487 0 0 0 3.95636,-1.89798 10.978916,9.4051699 0 0 0 4.9059,-7.82917 z"
     style="fill:#455a64;stroke-width:1.83092"
     id="path333" />
  <path
     d="m 306.20994,337.58427 a 68.247314,58.464569 0 0 0 16.14198,-1.69462 l -0.17804,-0.62702 -0.17804,-0.69479 -0.39563,-1.38959 -1.97819,-7.06659 h -26.82416 l -1.97818,7.06659 -0.73193,2.7114 a 67.732986,58.023967 0 0 0 16.12219,1.69462 z"
     style="opacity:0.15;stroke-width:1.83092"
     id="path335" />
  <path
     d="M 289.65255,269.46034 237.4483,252.98858 a 51.591013,44.195825 0 0 1 0.2176,-5.72783 c 0,-0.59312 0.13847,-1.16929 0.23738,-1.69463 0.0989,-0.52533 0.19782,-1.08456 0.31651,-1.60989 0.11869,-0.52534 0.29673,-1.06762 0.45498,-1.576 l 0.29673,-0.77953 0.19782,-0.57617 v 0 a 15.172664,12.997775 0 0 1 6.84451,-7.35468 l 6.70604,-3.38925 0.71215,-0.35587 a 18.693829,16.014208 0 0 1 6.84451,-1.86409 62.016037,53.1265 0 0 0 14.9155,-3.06727 19.109248,16.370079 0 0 0 3.77833,-3.60955 c 5.10371,-6.65988 6.36975,-20.99641 6.05324,-28.11383 l 7.41819,-3.66039 4.60916,76.12256 -7.77425,-2.4572 v 0.20335 z"
     style="fill:#37474f;stroke-width:1.83092"
     id="path337" />
  <path
     d="m 237.4483,252.98858 52.20425,16.47176 -0.35607,-5.91424 v -0.20336 l -2.78924,-45.75488 -1.46386,-24.30092 c 0.31651,7.11742 -0.94952,21.45395 -6.05324,28.11383 a 19.109248,16.370079 0 0 1 -3.77833,3.60955 c -5.14327,3.69428 -12.81862,5.62615 -22.33368,6.7785 a 21.344595,18.285006 0 0 0 -2.84859,0.47449 17.94212,15.370251 0 0 0 -3.95636,1.37265 15.172664,12.997775 0 0 0 -6.84451,7.35467 v 0 l -0.19782,0.57618 -0.29673,0.77952 c -0.15826,0.50839 -0.31651,1.03373 -0.45498,1.57601 -0.13848,0.54228 -0.23738,1.06761 -0.31651,1.60989 -0.0791,0.54228 -0.19782,1.1354 -0.23738,1.69463 a 51.591013,44.195825 0 0 0 -0.27695,5.76172 z"
     style="fill:#263238;stroke-width:1.83092"
     id="path339" />
  <path
     d="m 288.88106,256.68286 -49.71174,-15.67528 a 30.800309,26.385314 0 0 0 -1.5232,6.25317 l 51.65036,16.28535 z"
     style="fill:#a68daa;stroke-width:1.83092"
     id="path341" />
  <path
     d="m 288.88106,256.68286 -49.71174,-15.67528 a 30.800309,26.385314 0 0 0 -1.5232,6.25317 l 51.65036,16.28535 z"
     style="opacity:0.3;stroke-width:1.83092"
     id="path343" />
  <path
     d="m 330.30421,254.80183 c 6.54779,18.16638 13.21426,36.31582 20.31594,54.34663 a 11.176734,9.5746324 0 0 1 -3.85746,9.79493 60.928036,52.194456 0 0 1 -40.53297,12.31993 62.728183,53.736565 0 0 1 -40.51318,-12.81137 11.018479,9.4390624 0 0 1 -3.95637,-9.67631 c 7.22037,-17.74272 13.84728,-35.58713 20.31594,-53.60099 z"
     style="fill:#455a64;stroke-width:1.83092"
     id="path345" />
  <path
     d="m 306.22972,317.07931 a 62.985347,53.956866 0 0 0 42.41225,-12.92999 l 1.97818,4.99914 a 11.176734,9.5746324 0 0 1 -3.85746,9.79493 61.323673,52.533381 0 0 1 -40.53297,12.31993 63.064474,54.024651 0 0 1 -40.51318,-12.81137 11.018479,9.4390624 0 0 1 -3.95637,-9.67631 c 0.79127,-1.93187 1.18691,-2.91475 1.97818,-4.88052 11.73063,8.829 27.2198,12.74358 42.49137,13.18419 z"
     style="fill:#263238;stroke-width:1.83092"
     id="path347" />
  <path
     d="m 306.22972,275.25596 a 82.055031,70.293053 0 0 1 -29.81121,-4.25351 c 2.29469,-6.23622 3.46182,-9.40517 5.75651,-15.8278 l 21.76001,-0.16947 h 2.3936 c 0.83084,0 1.60233,0 2.41339,0 l 21.76001,-0.16946 c 2.29469,6.43958 3.44204,9.64242 5.75651,15.94643 a 82.173722,70.394731 0 0 1 -30.02882,4.47381 z"
     style="fill:#263238;stroke-width:1.83092"
     id="path349" />
  <path
     d="m 321.60021,254.85267 c 0.73192,5.08387 1.70123,11.86238 2.72989,18.84423 a 70.027678,59.989732 0 0 0 8.03142,-1.83019 c -1.40451,-6.77851 -2.09687,-10.16776 -3.50138,-17.06488 z"
     style="fill:#455a64;stroke-width:1.83092"
     id="path351" />
  <path
     d="m 265.69675,318.45195 a 63.084256,54.041598 0 0 0 40.55276,12.81137 h 2.98705 l 2.88815,-0.13557 1.38473,-0.18641 2.19578,-0.20335 c 0.47476,0 0.92975,-0.11863 1.40451,-0.20336 0.47476,-0.0847 0.90996,-0.11862 1.36495,-0.20335 l 2.31447,-0.37282 0.41542,-0.0847 c 0.89018,-0.18641 1.76058,-0.37282 2.59142,-0.57618 0.83084,-0.20335 1.97818,-0.50838 3.06618,-0.79647 0.59346,-0.15252 1.16713,-0.33893 1.72102,-0.50839 0.55389,-0.16946 1.48364,-0.49144 2.19578,-0.74563 1.38473,-0.49144 2.74968,-1.01678 3.95637,-1.54211 l 0.94953,-0.42366 c 0.37585,-0.15251 0.75171,-0.33892 1.088,-0.49144 l 1.5232,-0.76258 1.60233,-0.83037 1.48364,-0.83036 1.38472,-0.83037 c -1.04843,-4.79579 -1.56276,-7.23605 -2.63098,-12.13352 a 59.048763,50.584562 0 0 1 -9.89091,4.08405 c 0.37585,2.37248 0.85061,4.23656 0.7517,4.57549 -3.81789,12.30298 -37.8822,14.4721 -65.29982,0.38976 z"
     style="fill:#455a64;stroke-width:1.83092"
     id="path353" />
  <path
     d="m 324.3301,273.6969 q 2.94749,19.92879 5.93455,39.82369 a 59.048763,50.584562 0 0 0 9.89091,-4.08404 q -3.95636,-18.7934 -7.91273,-37.56984 a 70.027678,59.989732 0 0 1 -7.91273,1.83019 z"
     style="opacity:0.1;fill:#ffffff;stroke-width:1.83092"
     id="path355" />
  <path
     d="m 321.0661,269.46034 52.20425,-16.47176 a 51.591013,44.195825 0 0 0 -0.2176,-5.72783 c 0,-0.59312 -0.13848,-1.16929 -0.23739,-1.69463 -0.0989,-0.52533 -0.19781,-1.08456 -0.31651,-1.60989 -0.11869,-0.52534 -0.29672,-1.06762 -0.45498,-1.576 l -0.29673,-0.77953 c 0,-0.18641 -0.11869,-0.38976 -0.19781,-0.57617 v 0 a 15.172664,12.997775 0 0 0 -6.84452,-7.35468 l -6.70604,-3.38925 -0.71214,-0.35587 a 18.693829,16.014208 0 0 0 -6.84452,-1.86409 62.016037,53.1265 0 0 1 -14.9155,-3.06727 19.109248,16.370079 0 0 1 -3.77833,-3.60955 c -5.08393,-6.65988 -6.36975,-20.99641 -6.03345,-28.11383 l -7.43797,-3.66039 -4.60917,76.12256 7.79404,-2.4572 v 0.20335 z"
     style="fill:#37474f;stroke-width:1.83092"
     id="path357" />
  <path
     d="m 373.27035,252.98858 -52.20425,16.47176 0.37585,-5.91424 v -0.20336 l 2.76946,-45.75488 1.48363,-24.30092 c -0.33629,7.11742 0.94953,21.45395 6.03346,28.11383 a 19.109248,16.370079 0 0 0 3.77833,3.60955 c 5.14328,3.69428 12.81863,5.62615 22.33369,6.7785 a 21.344595,18.285006 0 0 1 2.84858,0.47449 17.566265,15.048272 0 0 1 3.95637,1.37265 15.172664,12.997775 0 0 1 6.84451,7.35467 v 0 c 0,0.18641 0.13847,0.38977 0.19782,0.57618 l 0.29673,0.77952 c 0.15825,0.50839 0.31651,1.03373 0.45498,1.57601 0.13847,0.54228 0.23738,1.06761 0.31651,1.60989 0.0791,0.54228 0.19782,1.1354 0.23738,1.69463 a 51.591013,44.195825 0 0 1 0.27695,5.76172 z"
     style="fill:#263238;stroke-width:1.83092"
     id="path359" />
  <path
     d="m 321.83759,256.68286 49.71174,-15.67528 a 30.800309,26.385314 0 0 1 1.5232,6.25317 l -51.65036,16.28535 z"
     style="fill:#a68daa;stroke-width:1.83092"
     id="path361" />
  <path
     d="m 321.83759,256.68286 49.71174,-15.67528 a 30.800309,26.385314 0 0 1 1.5232,6.25317 l -51.65036,16.28535 z"
     style="opacity:0.3;stroke-width:1.83092"
     id="path363" />
  <path
     d="m 358.09768,117.2491 a 47.476392,40.671005 0 0 0 -0.92974,-9.7102 c -7.12146,-28.605273 -27.08133,-52.075832 -38.57457,-67.27662 -2.09688,-2.779186 -6.62692,-9.083191 -8.48641,-10.167752 a 6.9038587,5.9142419 0 0 0 -7.73469,0 c -1.8595,1.118453 -6.33019,7.456351 -8.48641,10.167752 -10.60306,13.387539 -31.45311,38.688293 -38.57457,67.29357 a 46.388391,39.738961 0 0 0 -0.92974,9.7102 l 6.46866,160.0404 v 0 c 0,7.94779 8.52596,15.91253 25.53834,20.25077 a 69.889205,59.871108 0 0 0 39.70213,0 c 17.01237,-4.33824 25.51856,-12.30298 25.51856,-20.25077 v 0 z"
     style="fill:#a68daa;stroke-width:1.83092"
     id="path365" />
  <path
     d="m 358.09768,117.2491 a 47.476392,40.671005 0 0 0 -0.92974,-9.7102 c -7.12146,-28.605273 -27.08133,-52.075832 -38.57457,-67.27662 -2.09688,-2.779186 -6.62692,-9.083191 -8.48641,-10.167752 a 6.9038587,5.9142419 0 0 0 -7.73469,0 c -1.8595,1.118453 -6.33019,7.456351 -8.48641,10.167752 -10.60306,13.387539 -31.45311,38.688293 -38.57457,67.29357 a 46.388391,39.738961 0 0 0 -0.92974,9.7102 l 6.46866,160.0404 v 0 c 0,7.94779 8.52596,15.91253 25.53834,20.25077 a 69.889205,59.871108 0 0 0 39.70213,0 c 17.01237,-4.33824 25.51856,-12.30298 25.51856,-20.25077 v 0 z"
     style="opacity:0.5;fill:#f4d7d7;stroke-width:1.83092"
     id="path367" />
  <path
     d="M 357.16794,107.5389 C 350.04648,78.933627 330.08661,55.463068 318.59337,40.26228 l -1.70124,-2.287744 v 0 c 9.43593,20.555803 24.37121,53.516263 25.34052,99.627014 0.5539,27.21568 -1.70123,100.20319 -3.65963,155.48186 v 0 a 36.97224,31.672545 0 0 0 5.67738,-3.38925 v -0.0847 a 25.281179,21.65731 0 0 0 2.96728,-2.62667 l 0.3165,-0.33892 c 0.23739,-0.2542 0.47477,-0.52534 0.67259,-0.77953 a 5.4400032,4.6602193 0 0 0 0.37585,-0.4745 c 0.27695,-0.37281 0.55389,-0.74563 0.79127,-1.11845 0.23739,-0.37282 0.29673,-0.4406 0.43521,-0.67785 0.13847,-0.23725 0.19781,-0.38976 0.3165,-0.57617 0.1187,-0.18641 0.25717,-0.54228 0.37586,-0.79647 0.11869,-0.2542 0.13847,-0.32198 0.19782,-0.4745 0.0593,-0.15252 0.29672,-0.83037 0.41542,-1.23708 0,-0.11862 0,-0.25419 0.0989,-0.37281 0.0989,-0.11863 0.13848,-0.66091 0.19782,-0.99983 v -0.38977 a 13.431863,11.506505 0 0 0 0,-1.3218 v 0 l 6.48844,-160.04041 a 47.476392,40.671005 0 0 0 -0.73192,-9.84577 z"
     style="opacity:0.35;fill:#ffffff;stroke-width:1.83092"
     id="path369" />
  <path
     d="m 266.27043,123.82425 c 21.8787,10.81171 57.3673,10.81171 79.12732,0 a 37.585477,32.197879 0 0 0 12.6208,-9.60853 44.093699,37.773196 0 0 0 -0.94952,-7.16826 c -0.29673,-1.23708 -0.63302,-2.47415 -0.98909,-3.69428 a 40.809915,34.960118 0 0 1 -10.68219,7.37162 c -21.87871,10.8117 -57.36731,10.8117 -79.12732,0 a 42.036389,36.010785 0 0 1 -10.1283,-6.77851 c -0.29673,1.06762 -0.57367,2.11829 -0.85062,3.1859 a 46.487301,39.823692 0 0 0 -0.94953,8.01558 38.792169,33.2316 0 0 0 11.92845,8.67648 z"
     style="fill:#455a64;stroke-width:1.83092"
     id="path371" />
  <path
     d="m 358.0779,114.26656 a 43.638717,37.383432 0 0 0 -0.90996,-6.7785 c -0.35608,-1.37265 -0.73193,-2.7114 -1.12757,-4.05015 a 41.067079,35.180419 0 0 1 -10.54371,7.23605 58.020107,49.703357 0 0 1 -5.20263,2.2369 c 0.53411,4.0671 0.9891,8.26977 1.30561,12.59107 1.34516,-0.54228 2.65076,-1.11846 3.95636,-1.69463 a 37.585477,32.197879 0 0 0 12.5219,-9.54074 z"
     style="opacity:0.1;fill:#ffffff;stroke-width:1.83092"
     id="path373" />
  <path
     d="m 309.55307,29.77255 a 6.745604,5.7786719 0 0 0 -3.264,-0.728689 6.8445132,5.8634032 0 0 0 -3.85746,1.016775 c -1.85949,1.118453 -6.33018,7.456351 -8.4864,10.167751 -10.60306,13.387539 -31.45311,38.688293 -38.57457,67.293563 a 46.388391,39.738961 0 0 0 -0.92975,9.71021 l 6.46866,160.0404 c 0,7.94779 8.52597,15.91253 25.53834,20.25077 0.23739,0 0.47477,0.10168 0.71215,0.15252 -3.40248,-66.63267 -18.57514,-174.86838 -3.16509,-218.047427 8.34793,-23.504451 19.94008,-51.465767 25.55812,-49.855873 z"
     style="opacity:0.15;stroke-width:1.83092"
     id="path375" />
  <path
     d="m 316.85257,37.923697 c 3.16509,6.880178 6.94342,15.251627 10.60306,24.877098 2.13643,-1.050668 3.95636,-2.186067 5.71695,-3.236734 -4.11462,-5.74478 -8.15012,-10.930333 -11.67128,-15.505821 l -2.90793,-3.79596 -1.16713,-1.576002 z"
     style="opacity:0.1;fill:#ffffff;stroke-width:1.83092"
     id="path377" />
  <path
     d="m 283.95538,287.64367 -52.22403,35.19736 -7.35884,-3.67733 c -0.41542,-12.94694 4.51026,-24.40261 15.42983,-36.46834 4.66851,-5.08387 8.94139,-9.94745 12.75928,-14.48904 a 183.31822,157.04092 0 0 0 15.15288,-20.33551 c 6.29062,-10.64224 7.91273,-17.25128 7.75448,-24.58901 a 6.0334581,5.1686069 0 0 0 0,-0.72869 c 0,-0.25419 0,-0.49144 0,-0.71174 l 3.95636,1.69463 z"
     style="fill:#455a64;stroke-width:1.83092"
     id="path379" />
  <path
     d="m 226.07375,305.52196 a 60.453272,51.787746 0 0 0 -1.50342,7.72749 l 7.35884,3.64345 v -0.20336 a 59.088326,50.618455 0 0 1 1.48364,-7.47329 v 0 z"
     style="fill:#a68daa;stroke-width:1.83092"
     id="path381" />
  <path
     d="m 226.07375,305.52196 a 60.453272,51.787746 0 0 0 -1.50342,7.72749 l 7.35884,3.64345 v -0.20336 a 59.088326,50.618455 0 0 1 1.48364,-7.47329 v 0 z"
     style="opacity:0.6;fill:#ffffff;stroke-width:1.83092"
     id="path383" />
  <path
     d="m 279.34622,223.45126 c 0.31651,6.7785 -0.96931,15.03133 -6.05324,26.74119 -4.66852,10.76087 -13.84728,22.65714 -26.11202,36.1633 -10.91957,12.08268 -15.82546,23.5214 -15.42983,36.48528 l 52.20425,-35.18042 z"
     style="fill:#37474f;stroke-width:1.83092"
     id="path385" />
  <path
     d="m 283.18389,275.64572 -49.73152,33.50274 a 55.507815,47.551183 0 0 0 -1.50342,7.76138 l 51.65036,-34.8076 z"
     style="fill:#a68daa;stroke-width:1.83092"
     id="path387" />
  <path
     d="m 326.76326,287.64367 52.22403,35.19736 7.35885,-3.67733 c 0.41541,-12.94694 -4.49048,-24.40261 -15.42983,-36.46834 -4.66851,-5.08387 -8.94139,-9.94745 -12.75928,-14.48904 a 180.90484,154.97347 0 0 1 -15.1331,-20.33551 c -6.31041,-10.64224 -7.91273,-17.25128 -7.77426,-24.58901 a 6.0334581,5.1686069 0 0 1 0,-0.72869 c 0,-0.25419 0,-0.49144 0,-0.71174 l -3.95637,1.69463 z"
     style="fill:#455a64;stroke-width:1.83092"
     id="path389" />
  <path
     d="m 384.72403,305.52196 a 60.453272,51.787746 0 0 1 1.50341,7.72749 l -7.43796,3.64345 v -0.20336 a 56.615597,48.500173 0 0 0 -1.48364,-7.47329 v 0 z"
     style="fill:#a68daa;stroke-width:1.83092"
     id="path391" />
  <path
     d="m 384.72403,305.52196 a 60.453272,51.787746 0 0 1 1.50341,7.72749 l -7.43796,3.64345 v -0.20336 a 56.615597,48.500173 0 0 0 -1.48364,-7.47329 v 0 z"
     style="opacity:0.6;fill:#ffffff;stroke-width:1.83092"
     id="path393" />
  <path
     d="m 331.31308,223.45126 c -0.31651,6.7785 0.96931,15.03133 6.05324,26.74119 4.6883,10.76087 13.84728,22.65714 26.11202,36.1633 10.91957,12.08268 15.82546,23.5214 15.42983,36.48528 l -52.14491,-35.18042 z"
     style="fill:#37474f;stroke-width:1.83092"
     id="path395" />
  <path
     d="m 327.53475,275.64572 49.73153,33.50274 a 55.507815,47.551183 0 0 1 1.50341,7.76138 l -51.65035,-34.8076 z"
     style="fill:#a68daa;stroke-width:1.83092"
     id="path397" />
  <path
     d="m 264.15377,132.77187 a 6.2906219,5.3889081 0 0 1 2.8288,4.20267 c 0,1.54211 -1.26603,2.16912 -2.8288,1.40654 a 6.2510583,5.3550156 0 0 1 -2.84858,-4.20267 c 0,-1.50822 1.26603,-2.18607 2.84858,-1.40654 z"
     style="fill:#37474f;stroke-width:1.83092"
     id="path399" />
  <path
     d="m 264.05486,142.71932 a 5.934549,5.0838756 0 0 1 2.69033,3.98237 c 0,1.47432 -1.20669,2.06744 -2.69033,1.33875 a 5.934549,5.0838756 0 0 1 -2.69033,-3.98237 c -0.0198,-1.47432 1.18691,-2.06744 2.69033,-1.33875 z"
     style="fill:#37474f;stroke-width:1.83092"
     id="path401" />
  <path
     d="m 264.17355,152.68372 a 5.5784761,4.7788431 0 0 1 2.53208,3.76206 c 0,1.3896 -1.12757,1.94882 -2.53208,1.25403 a 5.5784761,4.7788431 0 0 1 -2.53207,-3.76207 c 0,-1.38959 1.12756,-1.94882 2.53207,-1.25402 z"
     style="fill:#37474f;stroke-width:1.83092"
     id="path403" />
  <path
     d="m 264.49006,162.64811 a 5.2421849,4.4907568 0 0 1 2.3936,3.54177 c 0,1.30486 -1.06822,1.83019 -2.3936,1.18624 a 5.2817486,4.5246493 0 0 1 -2.3936,-3.55872 c -0.0198,-1.30486 1.06822,-1.83019 2.3936,-1.16929 z"
     style="fill:#37474f;stroke-width:1.83092"
     id="path405" />
  <path
     d="m 264.92526,172.59556 a 5.004803,4.2874018 0 0 1 2.25513,3.38925 c 0,1.22013 -1.00887,1.69463 -2.25513,1.11845 a 4.9850212,4.2704555 0 0 1 -2.23534,-3.38925 c 0,-1.22013 0.98909,-1.72851 2.23534,-1.11845 z"
     style="fill:#37474f;stroke-width:1.83092"
     id="path407" />
  <path
     d="m 265.41981,182.55996 a 4.6685119,3.9993155 0 0 1 2.09687,3.11811 c 0,1.1354 -0.94953,1.60989 -2.09687,1.03372 a 4.6091664,3.9484767 0 0 1 -2.09688,-3.11811 c 0,-1.1354 0.92975,-1.60989 2.09688,-1.03372 z"
     style="fill:#37474f;stroke-width:1.83092"
     id="path409" />
  <path
     d="m 265.89457,192.50741 a 4.3717844,3.7451217 0 0 1 1.97819,2.89781 c 0,1.06761 -0.89019,1.50821 -1.97819,0.96593 a 4.2728753,3.6603904 0 0 1 -1.97818,-2.89781 c 0.0198,-1.06761 0.89018,-1.49127 1.97818,-0.96593 z"
     style="fill:#37474f;stroke-width:1.83092"
     id="path411" />
  <path
     d="m 348.32546,132.77187 a 6.2906219,5.3889081 0 0 0 -2.8288,4.20267 c 0,1.54211 1.26603,2.16912 2.8288,1.40654 a 6.2906219,5.3889081 0 0 0 2.8288,-4.20267 c -0.0593,-1.50822 -1.26604,-2.18607 -2.8288,-1.40654 z"
     style="fill:#455a64;stroke-width:1.83092"
     id="path413" />
  <path
     d="m 348.44415,142.71932 a 5.934549,5.0838756 0 0 0 -2.69033,3.98237 c 0,1.47432 1.20669,2.06744 2.69033,1.33875 a 5.934549,5.0838756 0 0 0 2.67055,-3.98237 c -0.0198,-1.47432 -1.18691,-2.06744 -2.67055,-1.33875 z"
     style="fill:#455a64;stroke-width:1.83092"
     id="path415" />
  <path
     d="m 348.30568,152.68372 a 5.5982579,4.7957893 0 0 0 -2.55186,3.71122 c 0,1.3896 1.14735,1.94882 2.55186,1.25403 a 5.5784761,4.7788431 0 0 0 2.53207,-3.76207 c 0,-1.33875 -1.12756,-1.89798 -2.53207,-1.20318 z"
     style="fill:#455a64;stroke-width:1.83092"
     id="path417" />
  <path
     d="m 347.98917,162.64811 a 5.2421849,4.4907568 0 0 0 -2.3936,3.54177 c 0,1.30486 1.06821,1.83019 2.3936,1.18624 a 5.3410941,4.575488 0 0 0 2.3936,-3.55872 c 0,-1.30486 -1.088,-1.83019 -2.3936,-1.16929 z"
     style="fill:#455a64;stroke-width:1.83092"
     id="path419" />
  <path
     d="m 347.55397,172.59556 a 5.004803,4.2874018 0 0 0 -2.25513,3.38925 c 0,1.22013 1.00887,1.69463 2.25513,1.11845 a 5.0443666,4.3212943 0 0 0 2.23534,-3.38925 c 0,-1.22013 -1.00887,-1.72851 -2.23534,-1.11845 z"
     style="fill:#455a64;stroke-width:1.83092"
     id="path421" />
  <path
     d="m 347.13855,182.55996 a 4.6091664,3.9484767 0 0 0 -2.09688,3.11811 c 0,1.1354 0.92975,1.60989 2.09688,1.03372 a 4.6091664,3.9484767 0 0 0 2.09687,-3.11811 c -0.11869,-1.1354 -1.00887,-1.60989 -2.09687,-1.03372 z"
     style="fill:#455a64;stroke-width:1.83092"
     id="path423" />
  <path
     d="m 346.58466,192.50741 a 4.3124389,3.6942829 0 0 0 -1.97819,2.89781 c 0,1.06761 0.8704,1.50821 1.97819,0.96593 a 4.3322208,3.7112292 0 0 0 1.97818,-2.89781 c -0.0198,-1.06761 -0.90996,-1.49127 -1.97818,-0.96593 z"
     style="fill:#455a64;stroke-width:1.83092"
     id="path425" />
  <ellipse
     cx="-133.62041"
     cy="334.31622"
     transform="matrix(0.18617133,-0.9825173,0.99046983,0.1377299,0,0)"
     style="fill:#37474f;stroke-width:1.83203"
     id="circle427"
     rx="17.978354"
     ry="20.818129" />
  <ellipse
     cx="306.22974"
     cy="177.30661"
     style="fill:#a68daa;stroke-width:1.83092"
     id="circle429"
     rx="15.192445"
     ry="13.014721" />
</svg>
