<?xml version="1.0" encoding="UTF-8" standalone="no"?>
<svg
   viewBox="0 0 750 500"
   version="1.1"
   id="svg653"
   sodipodi:docname="101.svg"
   inkscape:version="1.1.2 (0a00cf5339, 2022-02-04)"
   xmlns:inkscape="http://www.inkscape.org/namespaces/inkscape"
   xmlns:sodipodi="http://sodipodi.sourceforge.net/DTD/sodipodi-0.dtd"
   xmlns="http://www.w3.org/2000/svg"
   xmlns:svg="http://www.w3.org/2000/svg">
  <defs
     id="defs657" />
  <sodipodi:namedview
     id="namedview655"
     pagecolor="#ffffff"
     bordercolor="#666666"
     borderopacity="1.0"
     inkscape:pageshadow="2"
     inkscape:pageopacity="0.0"
     inkscape:pagecheckerboard="0"
     showgrid="false"
     inkscape:zoom="1.132"
     inkscape:cx="375"
     inkscape:cy="250.4417"
     inkscape:window-width="1478"
     inkscape:window-height="800"
     inkscape:window-x="0"
     inkscape:window-y="0"
     inkscape:window-maximized="1"
     inkscape:current-layer="svg653" />
  <path
     d="m 62.21,156.76 a 2.74,2.74 0 0 1 2.88,0 l 0.74,0.42 c 0.25,0.13 0.5,0.26 0.76,0.38 A 2.77,2.77 0 0 1 68.2,160 l 0.11,3.54 11.53,-0.35 -0.11,-3.54 a 2.75,2.75 0 0 1 1.45,-2.49 c 0.5,-0.28 1,-0.58 1.47,-0.91 a 2.73,2.73 0 0 1 2.86,-0.18 l 3.12,1.67 5.45,-10.18 -3.08,-1.71 a 2.72,2.72 0 0 1 -1.43,-2.48 16.38,16.38 0 0 0 -0.06,-1.72 2.76,2.76 0 0 1 1.27,-2.59 l 3,-1.86 -6.08,-9.81 -3,1.87 a 2.75,2.75 0 0 1 -2.87,0 c -0.24,-0.15 -0.48,-0.29 -0.74,-0.42 -0.26,-0.13 -0.5,-0.26 -0.75,-0.38 a 2.76,2.76 0 0 1 -1.61,-2.39 l -0.11,-3.55 -11.62,0.34 0.11,3.53 a 2.73,2.73 0 0 1 -1.44,2.49 15.69,15.69 0 0 0 -1.47,0.91 2.75,2.75 0 0 1 -2.87,0.19 l -3.11,-1.67 -5.46,10.17 3.12,1.67 a 2.76,2.76 0 0 1 1.43,2.49 16.58,16.58 0 0 0 0,1.73 2.75,2.75 0 0 1 -1.19,2.63 l -3,1.86 6.08,9.81 z m 2.89,-18.22 a 9.45,9.45 0 1 1 3.9,12.8 9.47,9.47 0 0 1 -3.9,-12.8 z"
     style="fill:#ebebeb"
     id="path2" />
  <path
     d="m 670.64,273.09 a 1.91,1.91 0 0 1 0.94,1.78 c 0,0.2 0,0.4 0,0.6 0,0.2 0,0.4 0,0.6 a 1.94,1.94 0 0 1 -0.93,1.78 l -2.15,1.24 4,7 2.15,-1.24 a 1.92,1.92 0 0 1 2,0.07 c 0.34,0.22 0.69,0.42 1,0.6 a 1.93,1.93 0 0 1 1.07,1.71 v 2.48 h 8.09 v -2.48 a 1.92,1.92 0 0 1 1.06,-1.71 10.77,10.77 0 0 0 1,-0.6 1.93,1.93 0 0 1 2,-0.07 l 2.15,1.24 4,-7 -2.16,-1.25 a 1.93,1.93 0 0 1 -0.94,-1.78 c 0,-0.2 0,-0.39 0,-0.59 0,-0.2 0,-0.4 0,-0.6 a 1.93,1.93 0 0 1 0.94,-1.78 l 2.16,-1.24 -4,-7 -2.02,1.23 a 1.89,1.89 0 0 1 -2,-0.07 10.93,10.93 0 0 0 -1,-0.6 1.91,1.91 0 0 1 -1.06,-1.71 v -2.48 h -8.09 v 2.48 a 1.92,1.92 0 0 1 -1.07,1.71 9.69,9.69 0 0 0 -1,0.6 1.91,1.91 0 0 1 -2,0.07 l -2.14,-1.24 -4,7 z m 12.21,-4.25 a 6.63,6.63 0 1 1 -6.62,6.63 6.63,6.63 0 0 1 6.62,-6.63 z"
     style="fill:#ebebeb"
     id="path4" />
  <path
     d="M 79.25,73.3 A 31.49,31.49 0 1 0 110.74,41.81 31.5,31.5 0 0 0 79.25,73.3 Z M 96,73.3 A 14.71,14.71 0 1 1 110.74,88 14.72,14.72 0 0 1 96,73.3 Z"
     style="fill:#ebebeb"
     id="path6" />
  <polygon
     points="116.8,49.12 116.13,40.54 105.36,40.54 104.69,49.12 "
     style="fill:#ebebeb"
     id="polygon8"
     transform="translate(0,-6)" />
  <polygon
     points="136.3,61.76 141.89,55.22 134.27,47.61 127.74,53.2 "
     style="fill:#ebebeb"
     id="polygon10"
     transform="translate(0,-6)" />
  <polygon
     points="141.15,84.49 149.73,83.82 149.73,73.05 141.15,72.38 "
     style="fill:#ebebeb"
     id="polygon12"
     transform="translate(0,-6)" />
  <polygon
     points="128.51,104 135.04,109.59 142.66,101.97 137.07,95.43 "
     style="fill:#ebebeb"
     id="polygon14"
     transform="translate(0,-6)" />
  <polygon
     points="105.78,108.85 106.44,117.42 117.22,117.42 117.89,108.85 "
     style="fill:#ebebeb"
     id="polygon16"
     transform="translate(0,-6)" />
  <polygon
     points="86.27,96.2 80.68,102.74 88.3,110.36 94.83,104.77 "
     style="fill:#ebebeb"
     id="polygon18"
     transform="translate(0,-6)" />
  <polygon
     points="81.42,73.47 72.85,74.14 72.85,84.91 81.42,85.58 "
     style="fill:#ebebeb"
     id="polygon20"
     transform="translate(0,-6)" />
  <polygon
     points="94.06,53.97 87.53,48.38 79.91,55.99 85.5,62.53 "
     style="fill:#ebebeb"
     id="polygon22"
     transform="translate(0,-6)" />
  <path
     d="m 97.35,275.05 a 3.51,3.51 0 0 1 0,5 3.56,3.56 0 0 1 -2.44,1 3.74,3.74 0 0 1 -2.56,-1 L 76.71,264.19 a 0.41,0.41 0 0 1 -0.28,-0.33 0.7,0.7 0 0 0 -0.17,-0.11 1.66,1.66 0 0 1 -0.17,-0.45 0.32,0.32 0 0 1 -0.17,-0.22 c 0,-0.11 0,-0.28 -0.1,-0.34 -0.1,-0.06 -0.12,-0.22 -0.12,-0.27 v -0.39 c 0,-0.12 -0.06,-0.17 -0.06,-0.34 0,-0.17 0.06,-0.22 0.06,-0.28 v -0.38 c 0,-0.12 0.12,-0.17 0.12,-0.23 0,-0.06 0.05,-0.28 0.1,-0.45 0.05,-0.17 0.06,0 0.06,-0.1 a 3.9,3.9 0 0 1 0.28,-0.51 0.11,0.11 0 0 1 0.11,-0.11 1.08,1.08 0 0 1 0.34,-0.39 l 15.64,-15.86 a 3.61,3.61 0 0 1 5,0 3.51,3.51 0 0 1 0,5 l -13.18,13.3 z"
     style="fill:#ebebeb"
     id="path28" />
  <path
     d="m 111.53,276.83 13.64,-32.46 a 3.09,3.09 0 0 1 4.06,-1.61 3,3 0 0 1 1.56,4 l -13.64,32.51 a 3.08,3.08 0 0 1 -2.84,1.84 2.78,2.78 0 0 1 -1.11,-0.22 3,3 0 0 1 -1.67,-4.06 z"
     style="fill:#ebebeb"
     id="path30" />
  <path
     d="m 157.72,263.75 a 0,0 0 0 0 -0.05,0.05 3,3 0 0 1 -0.4,0.39 l -15.64,15.87 a 3.62,3.62 0 0 1 -5,0 3.51,3.51 0 0 1 0,-5 l 13.18,-13.31 -13.18,-13.3 a 3.51,3.51 0 0 1 0,-5 3.61,3.61 0 0 1 5,0 l 15.64,15.86 a 3,3 0 0 1 0.4,0.39 c 0.05,0 0.05,0.11 0.05,0.11 0.11,0.23 0.22,0.34 0.28,0.51 0.06,0.17 0.06,0.05 0.06,0.1 a 2.4,2.4 0 0 0 0.16,0.51 c 0,0 0.06,0 0.06,0.17 v 0.38 c 0,0.06 0.06,0.22 0.06,0.28 0,0.06 -0.06,0.22 -0.06,0.28 v 0.45 c 0,0 -0.06,0 -0.06,0.11 a 3.77,3.77 0 0 0 -0.16,0.5 c 0,0.05 -0.06,0.05 -0.06,0.16 0,0.11 -0.17,0.26 -0.28,0.49 z"
     style="fill:#ebebeb"
     id="path32" />
  <rect
     x="50.720001"
     y="193.08"
     width="195.12"
     height="259.17001"
     style="fill:#ebebeb"
     id="rect34" />
  <g
     style="opacity:0.1"
     id="g38"
     transform="translate(0,-6)">
    <rect
       x="50.720001"
       y="199.08"
       width="195.12"
       height="259.17001"
       id="rect36" />
  </g>
  <rect
     x="56.02"
     y="193.08"
     width="195.12"
     height="259.17001"
     style="fill:#ebebeb"
     id="rect40" />
  <rect
     x="63.361557"
     y="206.44748"
     width="172.25"
     height="233.5"
     transform="rotate(-0.73)"
     style="fill:#ebebeb"
     id="rect42" />
  <rect
     x="-434.62906"
     y="74.38372"
     width="233.5"
     height="172.25"
     transform="rotate(-88.76)"
     style="fill:#dbdbdb"
     id="rect44" />
  <rect
     x="67.459999"
     y="204.52"
     width="172.25"
     height="233.5"
     style="fill:#ffffff"
     id="rect46" />
  <rect
     x="93.769997"
     y="244.41"
     width="16.52"
     height="16.52"
     style="fill:#ebebeb"
     id="rect48" />
  <rect
     x="119.22"
     y="244.41"
     width="53.529999"
     height="2.4200001"
     style="fill:#a6a6a6"
     id="rect50" />
  <rect
     x="119.22"
     y="249.11"
     width="94.169998"
     height="2.4200001"
     style="fill:#ebebeb"
     id="rect52" />
  <rect
     x="119.22"
     y="253.81"
     width="94.169998"
     height="2.4200001"
     style="fill:#ebebeb"
     id="rect54" />
  <rect
     x="119.22"
     y="258.51001"
     width="94.169998"
     height="2.4200001"
     style="fill:#ebebeb"
     id="rect56" />
  <path
     d="m 95,251.82 c 0.61,0.51 1.19,1 1.77,1.57 0.58,0.57 1.13,1.09 1.69,1.63 1.11,1.1 2.19,2.24 3.24,3.38 l -1.89,0.12 a 73.61,73.61 0 0 1 5.14,-9 c 1,-1.45 2,-2.86 3.06,-4.22 a 38.3,38.3 0 0 1 3.52,-3.94 38.44,38.44 0 0 1 -1.84,4.95 c -0.71,1.6 -1.48,3.15 -2.31,4.67 a 75.06,75.06 0 0 1 -5.59,8.76 l -1,1.38 -0.86,-1.26 c -0.87,-1.29 -1.73,-2.59 -2.55,-3.93 -0.4,-0.67 -0.82,-1.33 -1.21,-2 -0.39,-0.67 -0.82,-1.4 -1.17,-2.11 z"
     style="fill:#a6a6a6"
     id="path58" />
  <rect
     x="93.769997"
     y="279.04001"
     width="16.52"
     height="16.52"
     style="fill:#ebebeb"
     id="rect60" />
  <rect
     x="119.22"
     y="279.04001"
     width="53.529999"
     height="2.4200001"
     style="fill:#a6a6a6"
     id="rect62" />
  <rect
     x="119.22"
     y="283.73999"
     width="94.169998"
     height="2.4200001"
     style="fill:#ebebeb"
     id="rect64" />
  <rect
     x="119.22"
     y="288.44"
     width="94.169998"
     height="2.4200001"
     style="fill:#ebebeb"
     id="rect66" />
  <rect
     x="119.22"
     y="293.14001"
     width="94.169998"
     height="2.4200001"
     style="fill:#ebebeb"
     id="rect68" />
  <path
     d="m 95,286.46 c 0.61,0.51 1.19,1 1.77,1.58 0.58,0.58 1.13,1.08 1.69,1.63 1.11,1.1 2.19,2.23 3.24,3.37 l -1.89,0.12 a 74.36,74.36 0 0 1 5.14,-9 c 1,-1.44 2,-2.85 3.06,-4.22 a 39.38,39.38 0 0 1 3.52,-3.94 38.58,38.58 0 0 1 -1.84,5 q -1.07,2.38 -2.31,4.67 a 75.79,75.79 0 0 1 -5.59,8.75 l -1,1.39 -0.86,-1.27 c -0.87,-1.29 -1.73,-2.59 -2.55,-3.92 -0.4,-0.68 -0.82,-1.34 -1.21,-2 -0.39,-0.66 -0.82,-1.45 -1.17,-2.16 z"
     style="fill:#a6a6a6"
     id="path70" />
  <rect
     x="93.769997"
     y="313.66"
     width="16.52"
     height="16.52"
     style="fill:#ebebeb"
     id="rect72" />
  <rect
     x="119.22"
     y="313.66"
     width="53.529999"
     height="2.4200001"
     style="fill:#a6a6a6"
     id="rect74" />
  <rect
     x="119.22"
     y="318.35999"
     width="94.169998"
     height="2.4200001"
     style="fill:#ebebeb"
     id="rect76" />
  <rect
     x="119.22"
     y="323.06"
     width="94.169998"
     height="2.4200001"
     style="fill:#ebebeb"
     id="rect78" />
  <rect
     x="119.22"
     y="327.76001"
     width="94.169998"
     height="2.4200001"
     style="fill:#ebebeb"
     id="rect80" />
  <rect
     x="93.769997"
     y="348.28"
     width="16.52"
     height="16.52"
     style="fill:#ebebeb"
     id="rect82" />
  <rect
     x="119.22"
     y="348.28"
     width="53.529999"
     height="2.4200001"
     style="fill:#a6a6a6"
     id="rect84" />
  <rect
     x="119.22"
     y="352.98001"
     width="94.169998"
     height="2.4200001"
     style="fill:#ebebeb"
     id="rect86" />
  <rect
     x="119.22"
     y="357.67999"
     width="94.169998"
     height="2.4200001"
     style="fill:#ebebeb"
     id="rect88" />
  <rect
     x="119.22"
     y="362.38"
     width="94.169998"
     height="2.4200001"
     style="fill:#ebebeb"
     id="rect90" />
  <rect
     x="111.28"
     y="188.35001"
     width="84.610001"
     height="25.790001"
     style="fill:#c7c7c7"
     id="rect92" />
  <path
     d="m 179.45,174.25 h -52.51 l -2.32,14.1 h 57.93 z m -25.87,10.15 a 3.1,3.1 0 1 1 3.1,-3.1 3.09,3.09 0 0 1 -3.1,3.1 z"
     style="fill:#c7c7c7"
     id="path94" />
  <polygon
     points="124.62,194.35 125.14,191.2 181.85,191.2 182.55,194.35 "
     style="fill:#a6a6a6"
     id="polygon96"
     transform="translate(0,-6)" />
  <g
     id="freepik--Floor--inject-5"
     transform="translate(0,-6)">
    <polygon
       points="375,457.75 537.14,457.92 618.21,458.01 699.28,458.25 618.21,458.5 537.14,458.59 375,458.75 212.86,458.58 131.79,458.5 50.72,458.25 131.79,458.01 212.86,457.92 "
       style="fill:#263238"
       id="polygon99" />
  </g>
  <rect
     x="139.13"
     y="58.290001"
     width="471.75"
     height="320.78"
     style="fill:#263238"
     id="rect102" />
  <rect
     x="139.13"
     y="331.75"
     width="471.75"
     height="47.32"
     style="fill:#dbdbdb"
     id="rect104" />
  <rect
     x="283.07001"
     y="436.89001"
     width="183.85001"
     height="15.36"
     style="fill:#c7c7c7"
     id="rect106" />
  <polygon
     points="309.19,411.22 309.54,408.72 309.58,408.33 309.7,407.46 310.04,404.96 310.2,403.7 312.69,385.07 437.3,385.07 439.65,402.65 439.77,403.49 440.16,406.4 440.26,407.25 440.42,408.33 440.66,410.16 440.77,411.01 441.16,413.94 441.27,414.77 445.03,442.9 304.97,442.9 308.52,416.24 308.7,414.98 309.03,412.48 "
     style="fill:#dbdbdb"
     id="polygon108"
     transform="translate(0,-6)" />
  <path
     d="m 382.68,352.22 a 7.82,7.82 0 1 1 -7.82,-7.81 7.82,7.82 0 0 1 7.82,7.81 z"
     style="fill:#37474f"
     id="path110" />
  <polygon
     points="310.2,403.7 312.69,385.07 437.3,385.07 440.42,408.33 "
     style="fill:#c7c7c7"
     id="polygon112"
     transform="translate(0,-6)" />
  <rect
     x="160.89999"
     y="79.139999"
     width="428.20999"
     height="230.35001"
     style="fill:#ffffff"
     id="rect114" />
  <rect
     x="160.89999"
     y="79.139999"
     width="428.20999"
     height="230.35001"
     style="fill:#f2f2f2"
     id="rect116" />
  <rect
     x="160.89999"
     y="79.139999"
     width="428.20999"
     height="10.43"
     style="fill:#007d7e"
     id="rect118" />
  <path
     d="m 170.72,84.36 a 2,2 0 1 1 -2,-2 2,2 0 0 1 2,2 z"
     style="fill:#c7c7c7"
     id="path120" />
  <path
     d="m 178.78,84.36 a 2,2 0 1 1 -2,-2 2,2 0 0 1 2,2 z"
     style="fill:#ffffff"
     id="path122" />
  <path
     d="m 186.84,84.36 a 2,2 0 1 1 -2,-2 2,2 0 0 1 2,2 z"
     style="fill:#455a64"
     id="path124" />
  <rect
     x="188.25999"
     y="135.92999"
     width="9.8400002"
     height="1.9299999"
     style="fill:#ebebeb"
     id="rect126" />
  <rect
     x="209.7"
     y="135.92999"
     width="218.09"
     height="1.9299999"
     style="fill:#ebebeb"
     id="rect128" />
  <rect
     x="433.84"
     y="135.92999"
     width="18.690001"
     height="1.9299999"
     style="fill:#007d7e"
     id="rect130" />
  <rect
     x="463.75"
     y="181.42"
     width="63.080002"
     height="1.9299999"
     style="fill:#ebebeb"
     id="rect132" />
  <rect
     x="456.59"
     y="135.92999"
     width="92.599998"
     height="1.9299999"
     style="fill:#a6a6a6"
     id="rect134" />
  <rect
     x="188.25999"
     y="145.03"
     width="9.8400002"
     height="1.9299999"
     style="fill:#ebebeb"
     id="rect136" />
  <rect
     x="219.3"
     y="145.03"
     width="74.059998"
     height="1.9299999"
     style="fill:#a6a6a6"
     id="rect138" />
  <rect
     x="431.29001"
     y="181.42"
     width="28.02"
     height="1.9299999"
     style="fill:#a6a6a6"
     id="rect140" />
  <rect
     x="209.7"
     y="172.33"
     width="70.739998"
     height="1.9299999"
     style="fill:#a6a6a6"
     id="rect142" />
  <rect
     x="219.3"
     y="154.13"
     width="49.630001"
     height="1.9299999"
     style="fill:#007d7e"
     id="rect144" />
  <rect
     x="446.34"
     y="163.23"
     width="94.019997"
     height="1.9299999"
     style="fill:#a6a6a6"
     id="rect146" />
  <rect
     x="333.78"
     y="207.88"
     width="94.019997"
     height="1.9299999"
     style="fill:#a6a6a6"
     id="rect148" />
  <rect
     x="274.42999"
     y="154.13"
     width="184.48"
     height="1.9299999"
     style="fill:#a6a6a6"
     id="rect150" />
  <rect
     x="209.7"
     y="181.42"
     width="215.17999"
     height="1.9299999"
     style="fill:#007d7e"
     id="rect152" />
  <rect
     x="298.01001"
     y="145.03"
     width="152.42999"
     height="1.9299999"
     style="fill:#ebebeb"
     id="rect154" />
  <rect
     x="466.79999"
     y="154.13"
     width="31.91"
     height="1.9299999"
     style="fill:#ebebeb"
     id="rect156" />
  <rect
     x="188.25999"
     y="154.13"
     width="9.8400002"
     height="1.9299999"
     style="fill:#ebebeb"
     id="rect158" />
  <rect
     x="188.25999"
     y="163.23"
     width="9.8400002"
     height="1.9299999"
     style="fill:#a6a6a6"
     id="rect160" />
  <rect
     x="209.7"
     y="163.23"
     width="58.150002"
     height="1.9299999"
     style="fill:#ebebeb"
     id="rect162" />
  <rect
     x="219.3"
     y="190.52"
     width="58.150002"
     height="1.9299999"
     style="fill:#ebebeb"
     id="rect164" />
  <rect
     x="432.95001"
     y="199.62"
     width="81.18"
     height="1.9299999"
     style="fill:#007d7e"
     id="rect166" />
  <rect
     x="271.88"
     y="199.62"
     width="155.99001"
     height="1.9299999"
     style="fill:#ebebeb"
     id="rect168" />
  <rect
     x="219.3"
     y="199.62"
     width="43.709999"
     height="1.9299999"
     style="fill:#a6a6a6"
     id="rect170" />
  <rect
     x="284.45001"
     y="172.33"
     width="168.08"
     height="1.9299999"
     style="fill:#ebebeb"
     id="rect172" />
  <rect
     x="456.59"
     y="172.33"
     width="100.28"
     height="1.9299999"
     style="fill:#007d7e"
     id="rect174" />
  <rect
     x="273.76001"
     y="163.23"
     width="168"
     height="1.9299999"
     style="fill:#007d7e"
     id="rect176" />
  <rect
     x="188.25999"
     y="172.33"
     width="9.8400002"
     height="1.9299999"
     style="fill:#ebebeb"
     id="rect178" />
  <rect
     x="188.25999"
     y="181.42"
     width="9.8400002"
     height="1.9299999"
     style="fill:#ebebeb"
     id="rect180" />
  <rect
     x="188.25999"
     y="190.52"
     width="9.8400002"
     height="1.9299999"
     style="fill:#a6a6a6"
     id="rect182" />
  <rect
     x="188.25999"
     y="199.62"
     width="9.8400002"
     height="1.9299999"
     style="fill:#ebebeb"
     id="rect184" />
  <rect
     x="188.25999"
     y="207.88"
     width="9.8400002"
     height="1.9299999"
     style="fill:#ebebeb"
     id="rect186" />
  <rect
     x="209.7"
     y="207.88"
     width="115.36"
     height="1.9299999"
     style="fill:#ebebeb"
     id="rect188" />
  <rect
     x="188.25999"
     y="216.98"
     width="9.8400002"
     height="1.9299999"
     style="fill:#ebebeb"
     id="rect190" />
  <rect
     x="219.3"
     y="216.98"
     width="74.059998"
     height="1.9299999"
     style="fill:#a6a6a6"
     id="rect192" />
  <rect
     x="209.7"
     y="244.28"
     width="70.739998"
     height="1.9299999"
     style="fill:#a6a6a6"
     id="rect194" />
  <rect
     x="332.95001"
     y="262.48001"
     width="49.630001"
     height="1.9299999"
     style="fill:#007d7e"
     id="rect196" />
  <rect
     x="209.7"
     y="253.38"
     width="215.17999"
     height="1.9299999"
     style="fill:#007d7e"
     id="rect198" />
  <rect
     x="298.01001"
     y="216.98"
     width="152.42999"
     height="1.9299999"
     style="fill:#ebebeb"
     id="rect200" />
  <rect
     x="450.87"
     y="235.17999"
     width="31.85"
     height="1.9299999"
     style="fill:#ebebeb"
     id="rect202" />
  <rect
     x="188.25999"
     y="235.17999"
     width="9.8400002"
     height="1.9299999"
     style="fill:#a6a6a6"
     id="rect204" />
  <rect
     x="209.7"
     y="235.17999"
     width="58.150002"
     height="1.9299999"
     style="fill:#ebebeb"
     id="rect206" />
  <rect
     x="284.45001"
     y="244.28"
     width="168.08"
     height="1.9299999"
     style="fill:#ebebeb"
     id="rect208" />
  <rect
     x="273.76001"
     y="235.17999"
     width="168"
     height="1.9299999"
     style="fill:#007d7e"
     id="rect210" />
  <rect
     x="188.25999"
     y="244.28"
     width="9.8400002"
     height="1.9299999"
     style="fill:#ebebeb"
     id="rect212" />
  <rect
     x="188.25999"
     y="262.48001"
     width="9.8400002"
     height="1.9299999"
     style="fill:#ebebeb"
     id="rect214" />
  <rect
     x="209.7"
     y="262.48001"
     width="115.36"
     height="1.9299999"
     style="fill:#ebebeb"
     id="rect216" />
  <rect
     x="188.25999"
     y="271.57999"
     width="9.8400002"
     height="1.9299999"
     style="fill:#ebebeb"
     id="rect218" />
  <rect
     x="219.3"
     y="271.57999"
     width="74.059998"
     height="1.9299999"
     style="fill:#a6a6a6"
     id="rect220" />
  <path
     d="m 193,118.62 a 0.69,0.69 0 0 1 0,1 0.72,0.72 0 0 1 -0.47,0.19 0.75,0.75 0 0 1 -0.49,-0.19 l -3,-3 a 0.07,0.07 0 0 1 -0.06,-0.06 v 0 a 0.24,0.24 0 0 1 0,-0.09 c 0,0 0,0 0,-0.06 0,-0.06 0,0 0,0 v -0.08 c 0,0 0,0 0,-0.06 0,-0.06 0,0 0,-0.06 V 116 c 0,0 0,0 0,0 0,0 0,0 0,-0.09 0,-0.09 0,0 0,0 a 0.73,0.73 0 0 1 0,-0.09 0.13,0.13 0 0 1 0.07,-0.08 l 3,-3 a 0.69,0.69 0 0 1 1,0 0.68,0.68 0 0 1 0,1 l -2.51,2.54 z"
     style="fill:#007d7e"
     id="path222" />
  <path
     d="m 195.73,119 2.6,-6.18 a 0.58,0.58 0 0 1 0.77,-0.31 0.57,0.57 0 0 1 0.3,0.75 l -2.6,6.2 a 0.6,0.6 0 0 1 -0.54,0.35 0.52,0.52 0 0 1 -0.21,0 0.58,0.58 0 0 1 -0.32,-0.81 z"
     style="fill:#007d7e"
     id="path224" />
  <path
     d="m 204.53,116.47 a 0.29,0.29 0 0 1 -0.08,0.07 l -3,3 a 0.68,0.68 0 0 1 -0.47,0.19 0.73,0.73 0 0 1 -0.48,-0.19 0.67,0.67 0 0 1 0,-1 l 2.51,-2.53 -2.51,-2.54 a 0.66,0.66 0 0 1 0,-1 0.68,0.68 0 0 1 1,0 l 3,3 a 0.2,0.2 0 0 1 0.08,0.08 c 0,0 0,0 0,0 a 0.9,0.9 0 0 1 0.05,0.09 c 0,0 0,0 0,0 a 0.38,0.38 0 0 0 0,0.1 c 0,0 0,0 0,0 V 116 c 0,0 0,0 0,0.06 0,0.06 0,0 0,0 v 0.09 c 0,0 0,0 0,0 a 0.92,0.92 0 0 0 0,0.09 c 0,0 0,0 0,0 z"
     style="fill:#007d7e"
     id="path226" />
  <g
     id="freepik--Bugs--inject-5"
     transform="translate(0,-6)">
    <path
       d="m 496.44,140.51 h -26.53 c 0,0 -0.08,1 -0.05,2.51 0,0.54 0.05,1.16 0.1,1.82 a 32.65,32.65 0 0 0 0.64,5 c 0.12,0.59 0.27,1.21 0.41,1.82 a 21.06,21.06 0 0 0 1.77,4.5 12.26,12.26 0 0 0 1.11,1.8 11.64,11.64 0 0 0 18.57,0 14.36,14.36 0 0 0 1.13,-1.8 21.42,21.42 0 0 0 1.75,-4.5 c 0.15,-0.61 0.29,-1.23 0.42,-1.82 a 35.36,35.36 0 0 0 0.64,-5 c 0,-0.66 0.07,-1.28 0.07,-1.82 a 24.1,24.1 0 0 0 -0.03,-2.51 z M 484,159.06 h -1.6 v -16.24 h 1.6 z"
       style="fill:#007d7e"
       id="path229" />
    <path
       d="m 496.51,138.51 h -26.66 c 0,-5.21 5.57,-10.13 13.33,-10.13 7.76,0 13.33,4.92 13.33,10.13 z"
       style="fill:#007d7e"
       id="path231" />
    <polygon
       points="464.49,137.71 467.59,143.02 471.68,143.02 471.68,144.83 466.55,144.83 462.93,138.62 "
       style="fill:#007d7e"
       id="polygon233" />
    <rect
       x="463.95999"
       y="149.84"
       width="9.0699997"
       height="1.8099999"
       style="fill:#007d7e"
       id="rect235" />
    <polygon
       points="475.24,156.15 475.24,157.96 470.08,157.96 466.92,161.47 465.57,160.26 469.27,156.15 "
       style="fill:#007d7e"
       id="polygon237" />
    <polygon
       points="498.77,143.02 501.87,137.71 503.43,138.62 499.81,144.83 494.68,144.83 494.68,143.02 "
       style="fill:#007d7e"
       id="polygon239" />
    <rect
       x="493.32999"
       y="149.84"
       width="9.0699997"
       height="1.8099999"
       style="fill:#007d7e"
       id="rect241" />
    <polygon
       points="491.12,156.15 497.09,156.15 500.79,160.26 499.44,161.47 496.28,157.96 491.12,157.96 "
       style="fill:#007d7e"
       id="polygon243" />
    <polygon
       points="473.91,118.86 473.91,125.32 480.89,132.3 479.61,133.58 472.1,126.07 472.1,118.86 "
       style="fill:#007d7e"
       id="polygon245" />
    <polygon
       points="492.45,118.86 494.26,118.86 494.26,126.07 486.75,133.58 485.47,132.3 492.45,125.32 "
       style="fill:#007d7e"
       id="polygon247" />
    <path
       d="m 205.64,287.83 -20.24,-9.72 c 0,0 -0.4,0.7 -1,1.89 -0.18,0.42 -0.39,0.9 -0.6,1.42 a 29.56,29.56 0 0 0 -1.34,4.05 c -0.12,0.49 -0.23,1 -0.35,1.54 a 18,18 0 0 0 -0.3,4.08 10.42,10.42 0 0 0 0.19,1.77 9.84,9.84 0 0 0 14.16,6.81 11.07,11.07 0 0 0 1.52,-1 17.15,17.15 0 0 0 3,-2.79 c 0.34,-0.41 0.68,-0.83 1,-1.23 a 29,29 0 0 0 2.32,-3.58 c 0.28,-0.48 0.52,-0.94 0.72,-1.36 a 19.65,19.65 0 0 0 0.92,-1.88 z m -16.32,9.56 -1.19,-0.56 6,-12.38 1.19,0.57 z"
       style="fill:#007d7e"
       id="path249" />
    <path
       d="m 206.42,286.33 -20.33,-9.77 c 1.91,-4 8,-5.68 13.88,-2.84 5.88,2.84 8.36,8.64 6.45,12.61 z"
       style="fill:#007d7e"
       id="path251" />
    <polygon
       points="182.3,273.98 182.72,279.17 185.84,280.67 185.17,282.05 181.26,280.17 180.78,274.1 "
       style="fill:#007d7e"
       id="polygon253" />
    <rect
       x="179.82001"
       y="281.54999"
       width="1.53"
       height="7.6799998"
       transform="rotate(-64.33,180.58686,285.39644)"
       style="fill:#007d7e"
       id="rect255" />
    <polygon
       points="183.74,291.99 183.07,293.36 179.14,291.47 175.44,292.99 174.86,291.58 179.19,289.8 "
       style="fill:#007d7e"
       id="polygon257" />
    <polygon
       points="206.5,290.6 210.8,287.68 211.66,288.94 206.62,292.36 202.71,290.48 203.38,289.1 "
       style="fill:#007d7e"
       id="polygon259" />
    <rect
       x="202.21001"
       y="292.31"
       width="1.53"
       height="7.6700001"
       transform="rotate(-64.33,202.98907,296.15625)"
       style="fill:#007d7e"
       id="rect261" />
    <polygon
       points="195.85,297.81 200.4,299.99 201.72,304.48 200.25,304.91 199.12,301.08 195.19,299.19 "
       style="fill:#007d7e"
       id="polygon263" />
    <polygon
       points="196.39,263.06 194.02,267.99 196.79,275.87 195.34,276.37 192.37,267.9 195.01,262.39 "
       style="fill:#007d7e"
       id="polygon265" />
    <polygon
       points="210.53,269.85 211.91,270.51 209.26,276.02 200.79,278.99 200.28,277.55 208.16,274.78 "
       style="fill:#007d7e"
       id="polygon267" />
    <path
       d="m 563.09,244.45 -19,12 c 0,0 0.38,0.72 1.1,1.82 0.26,0.37 0.56,0.8 0.89,1.25 a 27.52,27.52 0 0 0 2.72,3.28 c 0.36,0.37 0.74,0.74 1.12,1.11 a 17.79,17.79 0 0 0 3.31,2.42 9.85,9.85 0 0 0 1.6,0.78 9.83,9.83 0 0 0 13.27,-8.41 11.88,11.88 0 0 0 0,-1.79 18.14,18.14 0 0 0 -0.79,-4 c -0.17,-0.51 -0.35,-1 -0.53,-1.49 a 29.23,29.23 0 0 0 -1.8,-3.86 c -0.27,-0.5 -0.53,-0.95 -0.77,-1.33 -0.63,-1.12 -1.12,-1.78 -1.12,-1.78 z m -0.53,18.92 -1.11,0.7 -7.35,-11.6 1.11,-0.71 z"
       style="fill:#007d7e"
       id="path269" />
    <path
       d="m 562.23,243 -19.05,12.07 c -2.36,-3.73 -0.6,-9.76 4.94,-13.28 5.54,-3.52 11.76,-2.52 14.11,1.21 z"
       style="fill:#007d7e"
       id="path271" />
    <polygon
       points="538.99,256.92 543.61,259.31 546.53,257.46 547.35,258.75 543.68,261.08 538.28,258.28 "
       style="fill:#007d7e"
       id="polygon273" />
    <rect
       x="543.90997"
       y="263.64999"
       width="7.6799998"
       height="1.53"
       transform="rotate(-32.36,547.66002,264.40728)"
       style="fill:#007d7e"
       id="rect275" />
    <polygon
       points="555.02,265.23 555.84,266.53 552.15,268.86 551.48,272.8 549.97,272.55 550.75,267.94 "
       style="fill:#007d7e"
       id="polygon277" />
    <polygon
       points="565.89,245.19 565.7,239.99 567.23,239.94 567.45,246.02 563.79,248.34 562.97,247.05 "
       style="fill:#007d7e"
       id="polygon279" />
    <rect
       x="564.90002"
       y="250.36"
       width="7.6700001"
       height="1.53"
       transform="rotate(-32.36,568.66952,251.10988)"
       style="fill:#007d7e"
       id="rect281" />
    <polygon
       points="566.37,258.04 570.63,255.34 575.14,256.6 574.73,258.07 570.88,257 567.19,259.33 "
       style="fill:#007d7e"
       id="polygon283" />
    <polygon
       points="537.18,239.18 540.11,243.8 548.26,245.63 547.92,247.12 539.16,245.16 535.89,240 "
       style="fill:#007d7e"
       id="polygon285" />
    <polygon
       points="550.43,230.78 551.72,229.97 554.99,235.12 553.03,243.89 551.53,243.55 553.36,235.41 "
       style="fill:#007d7e"
       id="polygon287" />
  </g>
  <path
     d="M 648.23,78.59 A 25.85,25.85 0 0 1 607,99.35 l -12.67,3.23 5.28,-11.79 a 25.85,25.85 0 1 1 48.64,-12.2 z"
     style="fill:#ffffff"
     id="path290" />
  <path
     d="m 648.23,78.59 c -0.13,21.85 -25.05,33.35 -41.16,21.1 l -12.65,3.31 -0.88,0.23 0.37,-0.83 5.24,-11.81 V 91 c -5.95,-10.58 -3.06,-24.87 6.34,-32.47 17,-14 42.67,-2 42.73,20 z m 0,0 C 648.31,62.07 632.14,49.44 616.16,53.81 A 25.55,25.55 0 0 0 600,90.56 l 0.11,0.21 -0.11,0.23 -5.32,11.78 -0.51,-0.61 12.72,-3.17 c 17.28,12.5 40.92,1.16 41.34,-20.41 z"
     style="fill:#263238"
     id="path292" />
  <polygon
     points="619.78,69.01 620.19,91.29 625.42,91.29 625.83,69.01 "
     style="fill:#007d7e"
     id="polygon294"
     transform="translate(0,-6)" />
  <rect
     x="-625.41998"
     y="-93.310005"
     width="5.23"
     height="5.23"
     transform="scale(-1)"
     style="fill:#007d7e"
     id="rect296" />
  <g
     id="freepik--speech-bubble-1--inject-5"
     transform="translate(0,-6)">
    <path
       d="m 50.18,299.14 a 25.84,25.84 0 0 0 41.25,20.75 l 12.66,3.23 -5.27,-11.79 A 25.85,25.85 0 1 0 50.18,299.14 Z"
       style="fill:#ffffff"
       id="path299" />
    <path
       d="m 50.18,299.14 c 0.42,21.57 24.05,32.9 41.33,20.4 l 12.69,3.16 -0.51,0.6 -5.31,-11.77 -0.1,-0.22 0.11,-0.21 A 25.53,25.53 0 0 0 82.24,274.35 c -16,-4.36 -32.15,8.26 -32.06,24.79 z m 0,0 c 0.06,-22 25.73,-34.06 42.73,-20.05 9.39,7.59 12.28,21.89 6.33,32.47 v -0.43 l 5.23,11.81 0.37,0.84 -0.88,-0.23 -12.64,-3.31 c -16.13,12.25 -41,0.74 -41.16,-21.1 z"
       style="fill:#263238"
       id="path301" />
    <polygon
       points="72.18,304.39 84.18,285.57 88.12,288.09 72.97,311.84 63.08,301.83 66.4,298.54 "
       style="fill:#007d7e"
       id="polygon303" />
  </g>
  <g
     id="freepik--character-2--inject-5"
     transform="translate(0,-6)">
    <path
       d="m 519,457.81 c 2.29,0.74 67.53,-0.11 70,-1.72 0.94,-0.6 1.37,-10.11 1.56,-21.62 0,-0.12 0,-0.24 0,-0.36 0,-2.38 0.07,-4.82 0.07,-7.29 0,-0.35 0,-0.69 0,-1 l -3.16,-33.82 -43.64,0.43 4.3,33.53 v 1.33 l 0.27,6.94 v 0.72 c 0,0 -24.83,11.49 -27.35,13.55 -2.52,2.06 -4.36,8.58 -2.05,9.31 z"
       style="fill:#d3766a"
       id="path306" />
    <path
       d="m 519,457.81 c 2.29,0.74 67.53,-0.11 70,-1.72 0.94,-0.6 1.37,-10.11 1.56,-21.62 0,-0.12 0,-0.24 0,-0.36 0,-2.38 0.07,-4.82 0.07,-7.29 0,-0.35 0,-0.69 0,-1 l -42.51,0.12 v 1.33 l 0.27,6.94 v 0.72 c 0,0 -24.83,11.49 -27.35,13.55 -2.52,2.06 -4.35,8.6 -2.04,9.33 z"
       style="fill:#ebebeb"
       id="path308" />
    <path
       d="m 519,457.8 c 1.18,0.38 18.91,0.34 36.23,0 3.49,-0.07 6.95,-0.15 10.25,-0.24 12.36,-0.34 22.57,-0.85 23.52,-1.46 0.95,-0.61 1.37,-9.85 1.56,-21.14 0,-0.16 0,-0.32 0,-0.48 0,-0.16 0,-0.25 0,-0.37 v 0 l -42,0.08 v 0.72 c 0,0 -24.84,11.48 -27.35,13.54 -2.51,2.06 -4.52,8.62 -2.21,9.35 z"
       style="fill:#a6a6a6"
       id="path310" />
    <path
       d="m 519.68,455.27 c 11,-0.42 55.39,-1 66.29,-0.61 0.08,0 0.08,0.06 0,0.06 -10.89,0.65 -55.28,0.92 -66.28,0.73 -0.24,-0.01 -0.24,-0.17 -0.01,-0.18 z"
       style="fill:#263238"
       id="path312" />
    <path
       d="m 543.76,434.36 c 4.32,-0.86 9.62,-0.27 13,2.78 0.13,0.11 0,0.3 -0.18,0.25 a 60.89,60.89 0 0 0 -12.76,-2.48 0.28,0.28 0 0 1 -0.06,-0.55 z"
       style="fill:#263238"
       id="path314" />
    <path
       d="m 540.66,436.29 c 4.32,-0.87 9.62,-0.27 13,2.77 0.13,0.12 0,0.3 -0.18,0.26 a 60.91,60.91 0 0 0 -12.76,-2.49 0.27166155,0.27166155 0 0 1 -0.06,-0.54 z"
       style="fill:#263238"
       id="path316" />
    <path
       d="m 537.56,438.21 c 4.32,-0.86 9.62,-0.27 13,2.77 0.13,0.12 0,0.3 -0.18,0.26 a 60.89,60.89 0 0 0 -12.76,-2.48 0.28,0.28 0 0 1 -0.06,-0.55 z"
       style="fill:#263238"
       id="path318" />
    <path
       d="m 555.2,457.79 c 3.49,-0.07 6.95,-0.15 10.25,-0.24 12.36,-0.34 22.57,-0.85 23.52,-1.46 0.95,-0.61 1.37,-9.85 1.56,-21.14 0,-0.16 0,-0.32 0,-0.48 0,-0.16 0,-0.25 0,-0.37 v 0 c -5.79,4.04 -26.09,17.55 -35.33,23.69 z"
       style="opacity:0.2"
       id="path320" />
    <path
       d="m 545.58,434.33 h 47 c 0,0 -9.46,-109.75 -9.09,-111.67 0.47,-2.46 3.24,-13.56 6.94,-28.08 1.16,-4.54 2.4,-9.41 3.7,-14.46 3.5,-13.65 7.37,-28.58 10.73,-41.56 5,-19.45 9,-34.57 9,-34.57 H 574 c 0,0 -4.64,14.72 -10.49,33.86 C 554,269 541.26,311.78 540,322.19 c -2,16.81 5.58,112.14 5.58,112.14 z"
       style="fill:#37474f"
       id="path322" />
    <path
       d="m 547.66,426.31 c 7.18,-0.15 5.12,-0.21 12.3,-0.28 3.51,0 26.59,-0.23 29.87,0.31 0.07,0 0.07,0.14 0,0.15 -3.28,0.54 -26.36,0.34 -29.87,0.31 -7.18,-0.07 -5.12,-0.13 -12.3,-0.28 a 0.11,0.11 0 0 1 0,-0.21 z"
       style="fill:#263238"
       id="path324" />
    <path
       d="m 574.64,316 c 1.54,-6.79 3.84,-13.45 5.85,-20.12 q 6.1,-20.31 12.29,-40.62 3.08,-10.14 6.2,-20.29 1.57,-5.11 3.17,-10.24 c 1,-3.33 2.23,-6.64 3.17,-10 0.39,-1.37 0.6,-0.62 0.11,1.12 -1,3.5 -2,7 -3,10.51 q -3,10.38 -6.12,20.76 -6.11,20.64 -12.32,41.27 -3.11,10.34 -6.22,20.68 a 83.68,83.68 0 0 0 -2.54,10 46.15,46.15 0 0 0 -0.42,10.7 c 0.45,7.19 1.29,14.37 1.95,21.54 0.66,7.17 1.33,14.38 2,21.56 q 2,21.46 3.93,42.92 c 0.17,1.81 0.32,3.63 0.46,5.44 0.05,0.61 -0.38,0.68 -0.44,0.1 -1.55,-14.15 -3.23,-28.46 -4.55,-42.62 -1.32,-14.16 -2.65,-28.2 -4,-42.29 -0.33,-3.54 -0.7,-7.09 -0.71,-10.64 a 44.08,44.08 0 0 1 1.19,-9.78 z"
       style="fill:#263238"
       id="path326" />
    <path
       d="m 578.54,204 c 2.76,21.39 8,61.5 11.88,90.59 9,-35.25 23.42,-90.59 23.42,-90.59 z"
       style="fill:#263238"
       id="path328" />
    <path
       d="m 568.76,458.44 c 2.28,0.74 67.53,0.14 70,-1.47 1,-0.59 1.41,-10.1 1.65,-21.61 V 435 c 0.05,-2.38 0.09,-4.82 0.11,-7.29 0,-0.35 0,-0.69 0,-1 0.16,-16.61 -1,-33.84 -1,-33.84 l -42.65,0.27 1.13,33.51 v 1.33 l 0.24,6.94 v 0.71 c 0,0 -24.87,11.41 -27.4,13.45 -2.53,2.04 -4.37,8.62 -2.08,9.36 z"
       style="fill:#d3766a"
       id="path330" />
    <path
       d="m 568.76,458.44 c 2.28,0.74 67.53,0.14 70,-1.47 1,-0.59 1.41,-10.1 1.65,-21.61 V 435 c 0.05,-2.38 0.09,-4.82 0.11,-7.29 0,-0.35 0,-0.69 0,-1 h -42.5 v 1.33 l 0.24,6.94 v 0.71 c 0,0 -24.87,11.41 -27.4,13.45 -2.53,2.04 -4.39,8.56 -2.1,9.3 z"
       style="fill:#ebebeb"
       id="path332" />
    <path
       d="m 568.76,458.44 c 2.28,0.74 67.53,0.14 70,-1.47 1,-0.59 1.41,-10.1 1.65,-21.61 V 435 l -42.1,-0.08 v 0.71 c 0,0 -24.87,11.41 -27.4,13.45 -2.53,2.04 -4.44,8.62 -2.15,9.36 z"
       style="fill:#a6a6a6"
       id="path334" />
    <path
       d="m 569.47,455.9 c 11,-0.37 55.39,-0.84 66.29,-0.37 0.08,0 0.08,0.06 0,0.07 -10.9,0.61 -55.29,0.71 -66.29,0.48 -0.23,-0.01 -0.23,-0.17 0,-0.18 z"
       style="fill:#263238"
       id="path336" />
    <path
       d="m 593.63,435.08 c 4.32,-0.85 9.62,-0.23 13,2.82 0.13,0.12 0,0.3 -0.18,0.26 a 60.76,60.76 0 0 0 -12.75,-2.53 0.28,0.28 0 0 1 -0.07,-0.55 z"
       style="fill:#263238"
       id="path338" />
    <path
       d="m 590.52,437 c 4.32,-0.84 9.62,-0.23 13,2.82 0.13,0.12 0,0.3 -0.18,0.26 a 60.85,60.85 0 0 0 -12.76,-2.53 0.28,0.28 0 0 1 -0.06,-0.55 z"
       style="fill:#263238"
       id="path340" />
    <path
       d="m 587.41,438.91 c 4.32,-0.85 9.62,-0.24 13,2.82 0.13,0.11 0,0.3 -0.18,0.25 a 61.41,61.41 0 0 0 -12.75,-2.53 0.27225907,0.27225907 0 0 1 -0.07,-0.54 z"
       style="fill:#263238"
       id="path342" />
    <path
       d="m 575.31,204 c 0,0 0.91,19.06 5.28,34.15 0.35,1.25 0.72,2.48 1.13,3.65 a 70.76,70.76 0 0 1 11.48,5.9 c 0,0 0.46,15.33 0.92,32.43 0.51,19.11 1,40.43 0.93,44.95 -0.4,16.92 2.11,110 2.11,110 l 47,0.19 c 0,0 -8.5,-103.89 -8.44,-110.09 0.09,-10 -2.27,-54 -4.1,-86.09 a 254.47,254.47 0 0 0 -4.39,-35 z"
       style="fill:#37474f"
       id="path344" />
    <path
       d="m 598.77,426.66 c 7.18,-0.12 5.12,-0.19 12.3,-0.23 3.51,0 26.59,-0.12 29.87,0.44 0.07,0 0.07,0.13 0,0.15 -3.28,0.53 -26.36,0.23 -29.88,0.18 -7.17,-0.1 -5.11,-0.15 -12.29,-0.33 -0.13,-0.01 -0.13,-0.21 0,-0.21 z"
       style="fill:#263238"
       id="path346" />
    <path
       d="m 625.62,210.8 c 0.87,26.21 1.79,52.43 3,78.63 1.21,26.2 7.35,120.39 8.93,135 0,0.09 -0.14,0.13 -0.15,0 -3.43,-26 -5.33,-64.49 -7,-90.65 -1.67,-26.16 -2.83,-52.37 -3.72,-78.57 -0.5,-14.82 -0.89,-29.64 -1.33,-44.46 -0.06,-0.18 0.27,-0.16 0.27,0.05 z"
       style="fill:#263238"
       id="path348" />
    <path
       d="m 579.77,240.66 a 87.09,87.09 0 0 1 13.43,7 c 0.17,0.11 0,0.37 -0.14,0.28 -4.53,-2.2 -9.16,-4.32 -13.56,-6.77 a 0.3,0.3 0 0 1 0.27,-0.51 z"
       style="fill:#263238"
       id="path350" />
    <path
       d="m 579.51,224.49 c 0.31,1.67 0.71,3.32 1.07,5 0.36,1.68 0.59,3.15 1,4.69 a 8.07,8.07 0 0 0 2.18,3.93 c 0.62,0.57 1.29,1.07 1.94,1.59 0.35,0.28 0.73,0.55 1.1,0.83 0,-0.22 -0.09,-0.44 -0.13,-0.67 -0.11,-0.63 -0.22,-1.27 -0.32,-1.9 -0.24,-1.41 -0.47,-2.82 -0.68,-4.23 -0.42,-2.77 -0.82,-5.57 -1.39,-8.31 0,-0.11 0.14,-0.15 0.17,0 0.69,2.72 1.45,5.4 2,8.15 0.3,1.34 1.35,8 1.4,8.45 0.05,0.45 0.09,1 0.1,1.46 a 5.72,5.72 0 0 1 0,1.49 c 0,0.12 -0.17,0.1 -0.22,0 v 0 a 5.83,5.83 0 0 1 -0.42,-1.44 c -0.12,-0.47 -0.23,-1 -0.32,-1.44 0,-0.17 0,-0.35 -0.07,-0.53 -0.66,-0.39 -1.27,-0.92 -1.88,-1.36 -0.61,-0.44 -1.33,-0.94 -2,-1.47 a 7.51,7.51 0 0 1 -2.39,-3.72 27.59,27.59 0 0 1 -0.78,-4.77 c -0.21,-1.89 -0.36,-3.79 -0.63,-5.66 0.08,-0.16 0.25,-0.2 0.27,-0.09 z"
       style="fill:#263238"
       id="path352" />
    <path
       d="m 583,155.63 c 0.57,21.25 -1.24,42.87 -4.11,46.69 -4.45,5.93 -32.62,17.88 -42,19.9 -3.08,0.66 -9.21,-19.88 -7.07,-22.48 2.14,-2.6 32.76,-13.2 34.33,-14.54 0.83,-0.71 5.88,-18 10,-29.65 3.85,-10.85 8.63,-6.38 8.85,0.08 z"
       style="fill:#d3766a"
       id="path354" />
    <path
       d="M 547.42,219.89 539.33,194 c 0,0 21.49,-8.69 24,-10 1.08,-0.54 7.44,-21.88 10.67,-31.1 2.12,-6.07 8.05,-8.89 9.76,3.41 1,7.2 0.75,41.85 -4.08,47.41 -3.8,4.48 -32.26,16.17 -32.26,16.17 z"
       style="fill:#007d7e"
       id="path356" />
    <path
       d="m 579.77,172.16 a 10.63,10.63 0 0 0 -0.92,3 10.8,10.8 0 0 0 1.64,-2.63 10.63,10.63 0 0 0 0.92,-3 10.8,10.8 0 0 0 -1.64,2.63 z M 548.16,215 a 11.49,11.49 0 0 0 -2.54,-0.85 l 0.11,0.36 a 12.88,12.88 0 0 0 2.09,1.21 10.63,10.63 0 0 0 3,0.92 10.94,10.94 0 0 0 -2.66,-1.64 z m 23.13,-26.81 a 11,11 0 0 0 -3,-0.91 10.94,10.94 0 0 0 2.71,1.62 11.33,11.33 0 0 0 3,0.92 11,11 0 0 0 -2.71,-1.65 z m 10.5,-36.36 a 11,11 0 0 0 -1.45,-2.75 11.18,11.18 0 0 0 0.7,3 10.8,10.8 0 0 0 1.44,2.75 10.81,10.81 0 0 0 -0.69,-3.02 z m -23.21,49.34 a 10.74,10.74 0 0 0 -1.44,-2.74 10.89,10.89 0 0 0 0.69,3 10.62,10.62 0 0 0 1.45,2.74 10.82,10.82 0 0 0 -0.7,-3.02 z m 21,0.46 a 7.9,7.9 0 0 0 1.39,-0.21 c 0.09,-0.24 0.18,-0.5 0.27,-0.77 a 8.51,8.51 0 0 0 -1.64,0.96 z"
       style="fill:#ffffff"
       id="path358" />
    <path
       d="m 552.69,216.11 c -0.23,-1.94 -2.48,-9.72 -3.06,-11.65 -0.58,-1.93 -3.18,-9.59 -3.78,-11.57 0,-0.11 -0.2,-0.1 -0.17,0 0.57,2 2.57,9.85 3.13,11.79 0.56,1.94 2.9,9.66 3.78,11.45 a 0.0509902,0.0509902 0 0 0 0.1,-0.02 z"
       style="fill:#263238"
       id="path360" />
    <path
       d="m 561.21,214 c 7.43,-3.37 16.35,-7.72 18.5,-10.2 4.84,-5.56 5.1,-40.21 4.09,-47.41 -1.1,-7.9 -3.94,-9.56 -6.39,-8.12 z"
       style="opacity:0.1;fill:#020100"
       id="path362" />
    <path
       d="m 569.6,222.22 62.78,-6.93 c 0,0 -16.67,-53.47 -40,-71.22 -2.88,-2.2 -11,-2.81 -15.41,3.7 -7.33,10.91 -7.54,74.23 -7.37,74.45 z"
       style="fill:#007d7e"
       id="path364" />
    <path
       d="m 595.17,161.06 a 10.74,10.74 0 0 0 -2.74,1.44 12,12 0 0 0 5.76,-2.13 10.81,10.81 0 0 0 -3.02,0.69 z m -12.83,39.11 a 10.9,10.9 0 0 0 -2.74,1.44 10.89,10.89 0 0 0 3,-0.69 10.74,10.74 0 0 0 2.74,-1.44 10.89,10.89 0 0 0 -3,0.69 z M 610,199.1 a 11.3,11.3 0 0 0 -2.75,1.44 12.06,12.06 0 0 0 5.77,-2.13 10.81,10.81 0 0 0 -3.02,0.69 z m -15.5,-13.58 a 11.34,11.34 0 0 0 -1.45,-2.75 11.84,11.84 0 0 0 2.14,5.77 10.81,10.81 0 0 0 -0.69,-3.02 z m -12.71,-33.71 a 11,11 0 0 0 -1.45,-2.75 11.18,11.18 0 0 0 0.7,3 10.8,10.8 0 0 0 1.44,2.75 10.81,10.81 0 0 0 -0.69,-3 z m 44.14,57.33 a 11.1,11.1 0 0 0 -1.45,-2.74 11.86,11.86 0 0 0 2.14,5.76 10.81,10.81 0 0 0 -0.69,-3.02 z m -54.64,-21 -0.75,-0.31 c 0,0.27 0,0.54 0,0.81 l 0.45,0.23 a 11.33,11.33 0 0 0 3,0.92 11,11 0 0 0 -2.7,-1.62 z m 37.37,-8.28 a 11,11 0 0 0 -3,-0.91 10.94,10.94 0 0 0 2.62,1.64 10.63,10.63 0 0 0 3,0.92 11.31,11.31 0 0 0 -2.62,-1.62 z m -14,30.42 a 10.42,10.42 0 0 0 -0.92,3 11.87,11.87 0 0 0 2.56,-5.59 10.8,10.8 0 0 0 -1.68,2.62 z m -23.71,2.79 a 11.33,11.33 0 0 0 -0.92,3 10.55,10.55 0 0 0 1.65,-2.63 11.22,11.22 0 0 0 0.92,-3 10.84,10.84 0 0 0 -1.69,2.66 z m 8.86,-40.94 a 10.63,10.63 0 0 0 -0.92,3 10.8,10.8 0 0 0 1.64,-2.63 10.63,10.63 0 0 0 0.92,-3 10.8,10.8 0 0 0 -1.68,2.66 z"
       style="fill:#ffffff"
       id="path366" />
    <path
       d="m 598.74,152.85 c 10.69,13.81 24.16,38.1 22.37,43.34 -4.49,13.14 -17.7,28.26 -24.12,33.56 -3.75,3.09 -21,-15.88 -17.86,-18.79 5,-4.6 17.79,-19.69 19.29,-21.69 0.8,-1.06 -5.07,-18.82 -7.85,-30.76 -3.01,-12.99 2.96,-12.4 8.17,-5.66 z"
       style="fill:#d3766a"
       id="path368" />
    <path
       d="m 570.73,224.77 c 0.65,-1.54 -0.16,-1.9 -2.76,-0.45 -2.6,1.45 -11.67,9.36 -14.17,6 -2.5,-3.36 10.47,-14.39 15,-16.46 4.53,-2.07 12.53,-3.86 12.53,-3.86 -2.09,2.63 -6.56,9.53 -10.6,14.77 z"
       style="fill:#d3766a"
       id="path370" />
    <rect
       x="538.21002"
       y="177.92999"
       width="9.8000002"
       height="49.709999"
       transform="rotate(132.99,543.10897,202.79763)"
       style="fill:#c7c7c7"
       id="rect372" />
    <polygon
       points="561.23,209.54 561.23,209.54 551.12,220.38 551.12,220.38 580.33,247.61 590.43,236.77 "
       style="fill:#263238"
       id="polygon374" />
    <g
       style="opacity:0.3"
       id="g378">
      <path
         d="m 478.47,196.28 a 53.55,53.55 0 1 1 39.26,-11.55 53.54,53.54 0 0 1 -39.26,11.55 z"
         style="fill:#ffffff"
         id="path376" />
    </g>
    <g
       style="opacity:0.1"
       id="g382">
      <path
         d="M 525.85,109.55 A 53.54,53.54 0 1 1 489.93,90 a 53.55,53.55 0 0 1 35.92,19.55 z"
         style="fill:#ffffff"
         id="path380" />
    </g>
    <path
       d="m 477.51,205.25 a 62.51,62.51 0 1 1 68.84,-55.46 62.58,62.58 0 0 1 -68.84,55.46 z m 0.77,-7.12 a 55.34,55.34 0 1 0 -49.1,-60.95 55.41,55.41 0 0 0 49.1,60.95 z"
       style="fill:#37474f"
       id="path384" />
    <path
       d="m 538.36,124.65 a 57.5,57.5 0 0 0 -9.63,-17.42 56.85,56.85 0 1 0 9.63,17.42 z m -1,24.18 a 53.55,53.55 0 1 1 -11.54,-39.26 53.54,53.54 0 0 1 11.55,39.26 z m 1,-24.18 a 57.5,57.5 0 0 0 -9.63,-17.42 56.85,56.85 0 1 0 9.63,17.42 z m -1,24.18 a 53.55,53.55 0 1 1 -11.54,-39.26 53.54,53.54 0 0 1 11.55,39.26 z m 7.77,-26.49 a 64.34,64.34 0 1 0 3.07,27.66 64.33,64.33 0 0 0 -3.06,-27.66 z m -0.64,27.26 a 60.66,60.66 0 1 1 -2.89,-26 60.26,60.26 0 0 1 2.9,26 z m -15.77,-42.37 a 56.85,56.85 0 1 0 9.63,17.42 57.5,57.5 0 0 0 -9.62,-17.42 z m 8.64,41.6 a 53.55,53.55 0 1 1 -11.54,-39.26 53.54,53.54 0 0 1 11.55,39.26 z"
       style="fill:#37474f"
       id="path386" />
    <path
       d="m 448.34,169 a 41.11,41.11 0 0 1 -7.2,-15.41 43.57,43.57 0 0 1 -1.22,-8.63 45.75,45.75 0 0 1 0.54,-8.81 42.89,42.89 0 0 1 6.51,-16.4 47.21,47.21 0 0 1 12.12,-12.48 85.14,85.14 0 0 0 -9.68,13.91 52.78,52.78 0 0 0 -3.31,7.57 43.65,43.65 0 0 0 -2,7.92 52.77,52.77 0 0 0 -0.13,16.31 69.14,69.14 0 0 0 4.37,16.02 z"
       style="fill:#ffffff"
       id="path388" />
    <path
       d="m 524.7,130.46 a 41.14,41.14 0 0 1 2.71,16.78 44.67,44.67 0 0 1 -1.18,8.64 47,47 0 0 1 -2.92,8.32 42.84,42.84 0 0 1 -10.75,14 47.29,47.29 0 0 1 -15.07,8.69 84.39,84.39 0 0 0 13.11,-10.73 51.43,51.43 0 0 0 5.25,-6.38 42.66,42.66 0 0 0 4.12,-7.06 52.72,52.72 0 0 0 4.58,-15.65 69.33,69.33 0 0 0 0.15,-16.61 z"
       style="fill:#ffffff"
       id="path390" />
    <path
       d="m 599,227.45 c -6.17,7.23 -13.41,16.61 -23.55,20.11 a 5.32,5.32 0 0 1 -3.47,0.08 c -4.52,1.65 -6.65,0 -6.65,0 -4.68,0.25 -6.63,-1.72 -6.63,-1.72 0,0 -5.33,1.88 -7,-1.15 -1.88,-3.39 6,-5.37 9.61,-9.09 8.37,-8.54 17.87,-23 20,-25.7 z"
       style="fill:#d3766a"
       id="path392" />
    <path
       d="m 576.35,232.9 a 76,76 0 0 1 -7.74,7.06 77.91,77.91 0 0 1 -9.88,5.84 0.09192388,0.09192388 0 0 0 0.07,0.17 40.55,40.55 0 0 0 17.66,-12.97 c 0.11,-0.12 0.02,-0.22 -0.11,-0.1 z"
       style="fill:#263238"
       id="path394" />
    <path
       d="m 582.23,237.2 c -2.57,2.26 -7.12,6.2 -17,10.35 0,0 0,0.07 0,0.06 a 36.4,36.4 0 0 0 17.05,-10.29 c 0.21,-0.15 0.13,-0.27 -0.05,-0.12 z"
       style="fill:#263238"
       id="path396" />
    <path
       d="m 585.35,239.57 c -4.52,3.68 -7.84,5.42 -13.37,8 0,0 0,0.07 0,0.06 6.6,-2.31 8.73,-3.9 13.5,-8 0.18,-0.06 0.05,-0.2 -0.13,-0.06 z"
       style="fill:#263238"
       id="path398" />
    <path
       d="m 602.59,230 -22.4,-22.42 17,-18.49 c -2.83,-9.68 -8.47,-29 -9.41,-36 -1.11,-8.2 4.51,-9.51 10.08,-3.19 12.76,14.45 27.37,42 27.38,46.87 -0.01,6.9 -22.65,33.23 -22.65,33.23 z"
       style="fill:#007d7e"
       id="path400" />
    <path
       d="m 594.62,210.31 a 10.42,10.42 0 0 0 -0.92,3 11.87,11.87 0 0 0 2.56,-5.59 10.8,10.8 0 0 0 -1.64,2.59 z m 14,-30.42 a 11,11 0 0 0 -3,-0.91 10.94,10.94 0 0 0 2.62,1.64 10.63,10.63 0 0 0 3,0.92 11.31,11.31 0 0 0 -2.58,-1.65 z m -1.9,40.87 a 10.24,10.24 0 0 0 2.27,1.47 l 0.5,-0.63 a 10.24,10.24 0 0 0 -2.73,-0.84 z M 610,199.1 a 11.3,11.3 0 0 0 -2.75,1.44 12.06,12.06 0 0 0 5.77,-2.13 10.81,10.81 0 0 0 -3.02,0.69 z m -14.84,-38 a 10.74,10.74 0 0 0 -2.74,1.44 12,12 0 0 0 5.76,-2.13 10.81,10.81 0 0 0 -3.01,0.65 z"
       style="fill:#ffffff"
       id="path402" />
    <path
       d="m 603.48,223.6 c -1.12,-1.64 -6.82,-7.55 -8.25,-9 -1.43,-1.45 -7.39,-7.1 -8.87,-8.59 -0.08,-0.08 -0.22,0 -0.13,0.09 1.43,1.5 6.95,7.62 8.37,9.09 1.42,1.47 7.17,7.29 8.8,8.48 0.06,0.04 0.12,-0.02 0.08,-0.07 z"
       style="fill:#263238"
       id="path404" />
    <path
       d="m 611.4,219.23 c 4.81,-6.59 10.14,-13.08 13.2,-20.7 0.8,-2.15 -0.29,-4.24 -1.05,-6.26 -0.57,-1.37 -1.19,-2.72 -1.85,-4.06 -5.44,-10.66 -11.87,-20.77 -18,-31 a 253,253 0 0 1 14.65,22.65 c 1.47,2.61 2.88,5.27 4.18,8 a 30.14,30.14 0 0 1 3,8.56 5.25,5.25 0 0 1 -0.33,2.34 c -3.18,7.64 -8.72,14.06 -13.77,20.51 z"
       style="fill:#263238"
       id="path406" />
    <path
       d="m 606.32,161.11 a 19.67,19.67 0 0 1 -1.23,-2.87 6.52,6.52 0 0 1 1.23,2.87 z"
       style="fill:#263238"
       id="path408" />
    <path
       d="m 590.83,165.92 c 2,6.5 4.4,14 6.21,20.59 0.22,0.84 0.45,1.63 0.6,2.51 a 0.69,0.69 0 0 1 -0.11,0.46 c -3.84,4.78 -8.67,9.39 -12.93,13.8 l -4.39,4.3 v -0.06 l 0.55,0.65 -0.62,-0.59 c 0,0 0,0 0,-0.06 l 4.1,-4.58 c 4,-4.52 8.72,-9.31 12.46,-13.94 0,0 0,0 0,0 a 0.44,0.44 0 0 0 0,0.15 c 0,-0.29 -0.13,-0.58 -0.21,-0.9 -1.88,-7.28 -4.23,-14.94 -5.64,-22.32 z"
       style="fill:#263238"
       id="path410" />
    <path
       d="m 590.43,167.38 a 31.09,31.09 0 0 1 1.59,3.09 7.48,7.48 0 0 1 -1.59,-3.09 z"
       style="fill:#263238"
       id="path412" />
    <path
       d="m 555.84,211.44 c -0.43,-3.24 -4,-0.87 -4,-0.87 0,0 4.3,-4.64 2.56,-7.8 -1.74,-3.16 -5.88,0 -6.18,0.18 0.22,-0.25 4.07,-4.61 2,-7.6 -2.07,-2.99 -5.85,0.63 -6.09,0.87 0.14,-0.3 1.92,-4.3 -0.17,-6.22 -3.6,-3.29 -9.65,7.72 -13.42,8.87 l -6,-4.27 a 9.71,9.71 0 0 1 1.07,5.46 c -0.17,2.72 -0.3,4.54 0.38,6.11 a 3.56,3.56 0 0 0 3.62,2.25 c 0,0 -1.88,2.9 -0.33,5.31 0.81,1.23 3.5,1.05 3.5,1.05 a 4.25,4.25 0 0 0 0.1,4.44 c 1.21,1.64 3.72,1.2 3.72,1.2 0,0 -0.29,2.92 1.48,4.2 3.6,2.59 18.69,-6.26 17.76,-13.18 z"
       style="fill:#d3766a"
       id="path414" />
    <path
       d="m 529,198.1 -4.36,-3.4 c -0.19,-0.08 -0.38,-0.18 -0.57,-0.25 -6.52,-2.7 -14.46,1.65 -10.53,4.85 3,2.44 9.2,0.41 11.9,3.35 v 0 z"
       style="fill:#d3766a"
       id="path416" />
    <path
       d="m 537,220.41 c -0.06,0 0,0.1 0,0.09 a 30.37,30.37 0 0 0 15,-10 c 0.12,-0.15 -0.08,-0.41 -0.24,-0.27 A 62.18,62.18 0 0 1 537,220.41 Z"
       style="fill:#263238"
       id="path418" />
    <path
       d="m 532.73,214.85 c -0.06,0 0,0.13 0.06,0.11 a 28.43,28.43 0 0 0 15.68,-12 c 0.13,-0.21 0,-0.51 -0.13,-0.29 -2.64,3.82 -10.51,9.75 -15.61,12.18 z"
       style="fill:#263238"
       id="path420" />
    <path
       d="m 544.23,195.72 c -3.6,5.57 -8.63,9.42 -14.36,12.64 -0.08,0 0,0.14 0.06,0.13 3.24,-0.81 6.68,-3.24 9.19,-5.36 a 17.59,17.59 0 0 0 5.31,-7.28 c 0.04,-0.12 -0.12,-0.25 -0.2,-0.13 z"
       style="fill:#263238"
       id="path422" />
    <path
       d="m 581.89,154.92 c 3.52,-0.24 7.59,-7 8.55,-11.76 0.06,-0.32 -1.28,-3.12 -2.74,-6.61 -0.88,-2.11 -1.82,-4.49 -2.51,-6.72 -0.14,-0.46 -12.93,7.75 -12.93,7.75 a 37.64,37.64 0 0 1 4,8.14 4.84,4.84 0 0 1 0.19,0.95 1.43,1.43 0 0 0 0,0.16 c 0.29,1.83 2.03,8.33 5.44,8.09 z"
       style="fill:#d3766a"
       id="path424" />
    <path
       d="m 586.36,133.19 c -2.7,9.08 -9.21,10.48 -10.75,10.69 a 41.12,41.12 0 0 0 -3.35,-6.3 c 0,0 12.79,-8.21 12.93,-7.75 0.35,1.1 0.75,2.24 1.17,3.36 z"
       style="fill:#263238"
       id="path426" />
    <path
       d="m 583.57,111.52 c 2.61,4.76 3,20 0,24 -4.25,5.84 -12.75,8.08 -18.09,2.62 -5.19,-5.3 -5.32,-25.19 -1.9,-29 5.09,-5.58 16.14,-4.66 19.99,2.38 z"
       style="fill:#d3766a"
       id="path428" />
    <path
       d="m 571.28,124.26 c 0,0 0.08,0 0.08,0.09 0,1 0.17,2.21 1.11,2.52 a 0.03,0 -90 0 0 0,0.06 c -1.14,-0.13 -1.36,-1.69 -1.19,-2.67 z"
       style="fill:#263238"
       id="path430" />
    <path
       d="m 572.17,123.16 c 1.65,-0.17 1.87,3.14 0.35,3.3 -1.52,0.16 -1.73,-3.15 -0.35,-3.3 z"
       style="fill:#263238"
       id="path432" />
    <path
       d="m 565.26,124.46 c 0,0 -0.08,0.06 -0.08,0.1 0.11,1 0.05,2.21 -0.85,2.61 0,0 0,0.07 0,0.06 1.13,-0.23 1.19,-1.81 0.93,-2.77 z"
       style="fill:#263238"
       id="path434" />
    <path
       d="m 564.27,123.45 c -1.66,0 -1.56,3.31 0,3.32 1.56,0.01 1.39,-3.31 0,-3.32 z"
       style="fill:#263238"
       id="path436" />
    <path
       d="m 573.68,122.45 c -0.45,0.11 -0.89,0.14 -1.34,0.21 a 2.22,2.22 0 0 1 -1.42,0 0.7,0.7 0 0 1 -0.3,-0.8 1.76,1.76 0 0 1 1.46,-1 2.57,2.57 0 0 1 1.82,0.28 0.75,0.75 0 0 1 -0.22,1.31 z"
       style="fill:#263238"
       id="path438" />
    <path
       d="m 562.75,121.5 c 0.46,0 0.89,-0.11 1.35,-0.17 a 2.17,2.17 0 0 0 1.34,-0.43 0.72,0.72 0 0 0 0.08,-0.86 1.77,1.77 0 0 0 -1.68,-0.55 2.56,2.56 0 0 0 -1.67,0.77 0.75,0.75 0 0 0 0.58,1.24 z"
       style="fill:#263238"
       id="path440" />
    <path
       d="m 573.05,133.29 c -0.23,0.26 -0.45,0.61 -0.82,0.66 a 2.72,2.72 0 0 1 -1.12,-0.18 0.03,0 -90 0 0 0,0.06 1.38,1.38 0 0 0 1.34,0.46 1.1,1.1 0 0 0 0.75,-1 c -0.03,-0.02 -0.11,-0.04 -0.15,0 z"
       style="fill:#263238"
       id="path442" />
    <path
       d="m 571.77,130.3 a 3.56,3.56 0 0 1 -2.23,1.71 4.36,4.36 0 0 1 -1.25,0.14 1,1 0 0 1 -0.24,0 h -0.23 a 0.25,0.25 0 0 1 -0.22,-0.21 v 0 -0.11 0 -0.09 c -0.08,-0.78 -0.08,-2 -0.08,-2 -0.28,0.17 -1.71,0.93 -1.71,0.51 a 52.16,52.16 0 0 1 0.63,-10.65 0.1,0.1 0 0 1 0.19,0 c 0.16,3.29 -0.27,6.59 -0.16,9.9 a 6.12,6.12 0 0 1 1.62,-0.61 c 0.11,0 0,2.33 0,2.68 a 4.83,4.83 0 0 0 3.53,-1.37 c 0.12,-0.05 0.2,0.01 0.15,0.1 z"
       style="fill:#263238"
       id="path444" />
    <path
       d="m 568.73,131.72 a 4.08,4.08 0 0 0 1.74,1.17 1.85,1.85 0 0 0 1.14,0 c 0.81,-0.27 0.77,-1 0.58,-1.65 a 4.74,4.74 0 0 0 -0.43,-1 5.39,5.39 0 0 1 -3.03,1.48 z"
       style="fill:#263238"
       id="path446" />
    <path
       d="m 570.47,132.89 a 1.85,1.85 0 0 0 1.14,0 c 0.81,-0.27 0.77,-1 0.58,-1.65 a 1.93,1.93 0 0 0 -1.72,1.65 z"
       style="fill:#ff9abb"
       id="path448" />
    <path
       d="m 584.72,126.33 c -2.76,-0.1 -3.5,-7 -3.5,-7 0,0 -3.52,-0.93 -5.22,-7.08 0,0 -1.7,6.39 -13.12,6.15 a 9.69,9.69 0 0 1 0.23,-6 41.28,41.28 0 0 0 -2.24,6.37 c 0,0 -3.63,-9.12 4,-13.23 3.05,-1.63 7.93,-1.85 15.65,1.06 0,0 1,-4.56 1.88,-4.06 0.88,0.5 -0.31,4.78 -0.31,4.78 0,0 3.13,-1.33 3.74,-0.7 0.61,0.63 -2.51,1.66 -2.51,1.66 a 6.44,6.44 0 0 1 4.86,6.87 c -0.18,5.37 -2.1,11.22 -3.46,11.18 z"
       style="fill:#263238"
       id="path450" />
    <path
       d="m 582.47,108.35 a 5.89,5.89 0 0 1 6.47,4.34 10.77,10.77 0 0 1 -0.2,5 20.06,20.06 0 0 1 -1.93,4.84 c 0,0.09 -0.17,0 -0.12,-0.08 a 15.76,15.76 0 0 0 1.49,-4.53 14.29,14.29 0 0 0 0.26,-4.56 5.64,5.64 0 0 0 -6,-4.79 c -0.05,-0.05 -0.06,-0.21 0.03,-0.22 z"
       style="fill:#263238"
       id="path452" />
    <path
       d="m 571.21,103.4 a 22.69,22.69 0 0 1 5.73,1.48 16.6,16.6 0 0 1 4.9,2.73 0.08,0.08 0 0 1 -0.08,0.13 29.76,29.76 0 0 0 -10.14,-3.51 c -3.27,-0.59 -7,-0.22 -9.2,2.61 a 0.04,0 0 0 0 -0.08,0 c 1.89,-2.98 5.6,-3.84 8.87,-3.44 z"
       style="fill:#263238"
       id="path454" />
    <path
       d="m 563.3,130 c -1.7,0 -3.1,-2.06 -3.13,-4.63 -0.03,-2.57 1.34,-4.67 3,-4.68 1.66,-0.01 3.1,2.06 3.13,4.63 0.03,2.57 -1.3,4.68 -3,4.68 z m -0.08,-8.69 c -1.36,0 -2.44,1.83 -2.42,4.06 0.02,2.23 1.14,4 2.49,4 1.35,0 2.44,-1.83 2.42,-4.06 -0.02,-2.23 -1.14,-4.01 -2.49,-4 z"
       style="fill:#37474f"
       id="path456" />
    <path
       d="m 573.74,129.9 a 4.67,4.67 0 1 1 4.31,-4.7 4.5,4.5 0 0 1 -4.31,4.7 z m -0.08,-8.69 a 4,4 0 1 0 3.76,4 3.9,3.9 0 0 0 -3.76,-4 z"
       style="fill:#37474f"
       id="path458" />
    <path
       d="m 569.55,124.87 c -2.34,-0.8 -3.38,0 -3.39,0 l -0.39,-0.49 c 0.05,0 1.29,-1 4,-0.09 z"
       style="fill:#37474f"
       id="path460" />
    <path
       d="m 577.73,124.8 -0.12,-0.61 c 0.41,-0.08 6.64,-1.57 7.68,-1.63 1.04,-0.06 3.64,1.32 3.93,1.48 l -0.3,0.55 a 12,12 0 0 0 -3.55,-1.41 v 0 c -0.84,0.05 -4.23,0.96 -7.64,1.62 z"
       style="fill:#37474f"
       id="path462" />
    <path
       d="m 582.18,126 c 0,0 2.44,-5.39 4.83,-4.61 2.39,0.78 1.17,8.17 -1.19,9.59 a 2.62,2.62 0 0 1 -3.72,-0.74 z"
       style="fill:#d3766a"
       id="path464" />
    <path
       d="m 586.61,123.45 c 0,0 0.06,0 0,0.07 -1.65,1 -2.28,2.88 -2.62,4.72 a 1.46,1.46 0 0 1 2.07,-0.79 c 0,0 0,0.1 0,0.1 a 1.63,1.63 0 0 0 -1.65,0.88 7.83,7.83 0 0 0 -0.57,1.58 c -0.06,0.17 -0.36,0.14 -0.33,-0.06 v 0 c -0.51,-2.3 0.7,-5.81 3.1,-6.5 z"
       style="fill:#263238"
       id="path466" />
    <path
       d="m 576.34,146 4.62,7.36 9,-11.6 2.83,3.42 c 0,0 -7.69,16.53 -7.79,15.82 l -4.12,-6.13 -4.13,5.17 -1.1,-11.51 z"
       style="fill:#007d7e"
       id="path468" />
    <path
       d="m 575.82,154.41 c -0.11,-1.91 -0.28,-3.83 -0.31,-5.74 0,-0.07 0.11,-0.11 0.14,0 0.63,1.77 1,9.07 1.26,10.8 v 0 c 0.18,-0.22 3.86,-4.58 3.91,-4.52 0.85,1 3.86,5.41 4.08,5.83 1.22,-2.63 6.45,-13.05 8,-15.58 0,-0.08 0.16,0 0.13,0.05 -1,2.74 -7.75,16.47 -7.87,16.45 a 71.32,71.32 0 0 1 -4.32,-6.5 c -0.6,0.93 -4.26,5.78 -4.31,5.5 a 59,59 0 0 1 -0.71,-6.29 z"
       style="fill:#263238"
       id="path470" />
  </g>
  <g
     id="freepik--character-1--inject-5"
     transform="translate(0,-6)">
    <path
       d="m 333.06,465 c -2.38,0.92 -71.38,2.17 -74.08,0.63 -0.29,-0.18 -0.21,-3.22 -1.22,-11.1 -0.06,-0.37 -1.63,-1.84 -4.09,-3.9 -9.22,-7.73 -30.91,-24 -30.91,-24 l 34.44,-29.92 33.36,32.8 8.68,8.53 c 0,0 28.19,15.22 31,17.23 2.81,2.01 5.19,8.82 2.82,9.73 z"
       style="fill:#dd6a57"
       id="path473" />
    <path
       d="m 333.06,465 c -2.38,0.92 -71.38,2.17 -74.08,0.63 -0.29,-0.17 -0.21,-3.22 -1.23,-11.1 0,-0.37 -1.62,-1.83 -4.08,-3.9 -3.21,-2.69 -4.73,-3.92 -9.5,-7.63 l 43.77,-16.1 2.63,2.58 8.67,8.53 c 0,0 28.19,15.22 31,17.23 2.81,2.01 5.19,8.85 2.82,9.76 z"
       style="fill:#ebebeb"
       id="path475" />
    <path
       d="m 337.81,466 c -2.4,0.84 -75.91,1.64 -78.56,0 -0.62,-0.38 -1.19,-4.65 -1.64,-10.5 -0.06,-0.73 -7.51,-6.68 -8.53,-7.79 l 45,-15.17 5.69,5.35 c 0,0 33.15,15.43 35.86,17.53 2.71,2.1 4.58,9.7 2.18,10.58 z"
       style="fill:#007d7e"
       id="path477" />
    <path
       d="m 336.79,463.21 c -11.55,-0.15 -62.78,0.34 -74.21,1.07 -0.09,0 -0.09,0.07 0,0.08 11.45,0.39 62.67,-0.48 74.21,-1 0.21,0.03 0.21,-0.15 0,-0.15 z"
       style="fill:#263238"
       id="path479" />
    <path
       d="m 303.49,438.34 c -4.55,-0.79 -10.1,0 -13.53,3.24 -0.14,0.13 0.05,0.32 0.19,0.27 a 64.67,64.67 0 0 1 13.33,-2.94 0.29,0.29 0 0 0 0.01,-0.57 z"
       style="fill:#263238"
       id="path481" />
    <path
       d="m 306.8,440.28 c -4.56,-0.8 -10.11,0 -13.54,3.24 -0.13,0.13 0.05,0.32 0.2,0.27 a 63.74,63.74 0 0 1 13.33,-2.94 0.29,0.29 0 0 0 0.01,-0.57 z"
       style="fill:#263238"
       id="path483" />
    <path
       d="m 310.1,442.22 c -4.55,-0.8 -10.1,0 -13.54,3.24 -0.13,0.13 0.05,0.32 0.2,0.27 a 63.88,63.88 0 0 1 13.33,-2.94 0.29,0.29 0 0 0 0.01,-0.57 z"
       style="fill:#263238"
       id="path485" />
    <path
       d="m 313.4,444.15 c -4.55,-0.79 -10.1,0 -13.53,3.25 -0.14,0.13 0,0.31 0.19,0.27 a 63.25,63.25 0 0 1 13.33,-2.94 0.2900431,0.2900431 0 0 0 0.01,-0.58 z"
       style="fill:#263238"
       id="path487" />
    <path
       d="m 311.76,427.73 c -1.81,-2.43 -5.12,-1.29 -7,0.33 a 24.29,24.29 0 0 0 -6.88,10.49 0.12,0.12 0 0 0 0.11,0.16 c 0,0.34 0.33,0.71 0.72,0.56 3.74,-1.43 7.91,-2.5 11.09,-5 1.86,-1.52 3.68,-4.27 1.96,-6.54 z m -7.83,8.21 c -1.82,0.75 -3.67,1.4 -5.46,2.22 1.35,-2 2.6,-4.13 4.15,-6 a 25.79,25.79 0 0 1 2.38,-2.63 c 1.34,-1.24 6.66,-3.92 5.92,1.07 -0.41,2.71 -4.82,4.4 -6.99,5.34 z"
       style="fill:#263238"
       id="path489" />
    <path
       d="m 286.32,437.5 c 3.76,1.55 8.07,1.42 12.06,1.76 a 0.56,0.56 0 0 0 0.53,-0.74 0.13,0.13 0 0 0 0.06,-0.19 24.11,24.11 0 0 0 -9.52,-8.16 c -2.25,-1 -5.75,-1.22 -6.82,1.63 -1,2.69 1.49,4.79 3.69,5.7 z m -2.09,-3.22 c -2.1,-4.59 3.76,-3.5 5.39,-2.67 a 25.18,25.18 0 0 1 3,1.87 c 2,1.4 3.81,3.06 5.67,4.64 -1.95,-0.28 -3.91,-0.4 -5.86,-0.61 -2.33,-0.26 -7.04,-0.7 -8.2,-3.23 z"
       style="fill:#263238"
       id="path491" />
    <path
       d="m 291,427.65 -42.52,22.05 c 0,0 -44.34,-40.13 -48.4,-40.43 -4.06,-0.3 -63.72,40.18 -93.75,40.3 -31.1,0.13 -32.68,-32.45 -32.68,-32.45 L 119,406.7 c 32.7,-16.12 66.77,-45.08 89.05,-42.38 24.23,2.94 82.95,63.33 82.95,63.33 z"
       style="fill:#455a64"
       id="path493" />
    <path
       d="m 280.64,422 c -7.18,3.55 -5.17,2.44 -12.31,6.06 -3.5,1.78 -21.1,10.66 -24.09,12.86 a 0.08,0.08 0 0 0 0.07,0.14 c 3.52,-1.18 20.92,-10.44 24.39,-12.28 7.08,-3.75 5,-2.75 12,-6.58 a 0.11,0.11 0 1 0 -0.06,-0.2 z"
       style="fill:#263238"
       id="path495" />
    <path
       d="m 240.94,439.54 c -8.32,-7.34 -35.59,-31.23 -36.69,-32.12 a 15,15 0 0 0 -2.84,-2.12 3,3 0 0 0 -2.63,0.21 c -1.26,0.59 -2.49,1.23 -3.74,1.84 l -7.38,3.6 c -9.53,4.66 -19,9.43 -28.62,13.93 -9.24,4.33 -15.84,8.41 -25.49,11.73 a 144.94,144.94 0 0 1 -29.61,7.06 c -1.24,0.15 -2.49,0.29 -3.74,0.4 -0.09,0 -0.08,0.15 0,0.14 a 118.58,118.58 0 0 0 29.14,-5.42 c 9.56,-2.94 16.05,-6.75 25.13,-10.93 9.41,-4.33 18.68,-9 28,-13.57 4.9,-2.44 9.78,-4.89 14.69,-7.3 1.12,-0.54 2.7,-1.73 4,-1.14 a 7.26,7.26 0 0 1 1.46,1.08 l 1.64,1.36 c 2.1,1.75 35.52,30.53 36.62,31.36 0.03,0.07 0.12,-0.04 0.06,-0.11 z"
       style="fill:#263238"
       id="path497" />
    <path
       d="m 73.56,417.12 c 0,0 -5.08,29.42 9.63,41 14.71,11.58 122.51,10.15 138.87,4.88 16.36,-5.27 16.86,-31.68 -1,-37.79 -17,-5.82 -89.35,-8.65 -91.14,-9.36 -0.45,-0.18 6.42,-4.29 6.39,-4.54 l -16.47,-5 z"
       style="fill:#455a64"
       id="path499" />
    <path
       d="m 95.9,416.37 c 0,-0.12 -0.22,-0.08 -0.22,0 a 14.45,14.45 0 0 1 -3.4,9.34 c -2.5,2.9 -6.2,4.52 -9.54,6.21 -0.33,0.16 -0.08,0.67 0.25,0.56 a 29.68,29.68 0 0 0 5.91,-2.48 14.33,14.33 0 0 0 4.45,-3.7 12.74,12.74 0 0 0 2.55,-9.93 z"
       style="fill:#263238"
       id="path501" />
    <path
       d="m 128.72,412.73 c -0.75,-1 -1.57,-1.86 -2.34,-2.79 -1.85,-2.19 -3.7,-4.4 -5.63,-6.51 -0.18,-0.2 -0.54,0.08 -0.37,0.3 1.3,1.7 2.68,3.35 4,5 0.69,0.85 1.39,1.69 2.09,2.54 a 15.35,15.35 0 0 1 1.95,2.47 c 0.51,0.95 -0.15,1.75 -1.13,1.86 a 3.41,3.41 0 0 1 -2.35,-0.87 31.12,31.12 0 0 1 -4,-4.27 c -0.77,-0.87 -1.55,-1.74 -2.34,-2.6 -0.79,-0.86 -1.73,-1.79 -2.56,-2.71 0,-0.05 -0.16,0 -0.11,0.09 0.73,1 1.4,2.05 2.14,3.05 0.74,1 1.47,2 2.22,3 0.75,1 1.46,1.85 2.22,2.74 a 9.13,9.13 0 0 0 2.24,2 c 1.4,0.83 3.83,1 4.58,-0.8 a 2.58,2.58 0 0 0 -0.61,-2.5 z"
       style="fill:#263238"
       id="path503" />
    <path
       d="m 219.82,463.08 c -5.63,0.11 -11.26,0.43 -16.89,0.55 -5.63,0.12 -11.18,0.15 -16.76,0.1 q -16.84,-0.15 -33.64,-1.31 c -11.31,-0.78 -23.52,-1.91 -34.75,-3.46 -5.38,-0.75 -10.83,-1.37 -16.15,-2.51 A 25.48,25.48 0 0 1 88.9,450 c -7.28,-7.06 -10.11,-17.44 -11.27,-27.36 -0.15,-1.33 -0.28,-2.66 -0.39,-4 a 0.07,0.07 0 1 0 -0.14,0 c 0.66,10.16 2.24,20.76 8.63,28.94 a 25.53,25.53 0 0 0 10.42,8.09 c 5,2 10.62,2.49 15.93,3.21 11.29,1.53 23.54,2.71 34.89,3.59 11.35,0.88 22.86,1.44 34.32,1.61 11.46,0.17 22.91,0 34.35,-0.56 1.39,-0.07 2.79,-0.15 4.18,-0.27 0.08,-0.05 0.08,-0.17 0,-0.17 z"
       style="fill:#263238"
       id="path505" />
    <path
       d="m 184.31,419.82 c -3.54,-0.51 -7.08,-1 -10.64,-1.4 -3.56,-0.4 -7.21,-0.69 -10.81,-1 -7.14,-0.6 -14.29,-1.14 -21.44,-1.48 -4.06,-0.19 -8.12,-0.21 -12.18,-0.16 -0.14,0 -0.12,0.19 0,0.2 7.15,0.65 14.3,1.1 21.46,1.58 7.16,0.48 14.29,1.1 21.42,1.78 4,0.38 8.09,0.68 12.13,1 a 0.27,0.27 0 0 0 0.06,-0.52 z"
       style="fill:#263238"
       id="path507" />
    <path
       d="m 137.13,410.93 a 54.37,54.37 0 0 0 -8.21,4.39 66.7,66.7 0 0 0 -7.6,5.31 c -0.06,0.06 0,0.15 0.09,0.11 2.79,-1.28 5.47,-2.9 8.12,-4.44 a 77.12,77.12 0 0 0 7.77,-5 c 0.17,-0.12 0.07,-0.47 -0.17,-0.37 z"
       style="fill:#263238"
       id="path509" />
    <path
       d="m 109.89,365.39 c 1.62,13.58 14.24,41.83 20.58,46.68 4.08,3.11 21.22,6.12 30.13,5.81 3.66,-0.12 5.47,-25.27 0,-25.43 A 85.53,85.53 0 0 1 141,389.62 c -0.91,-0.26 -7.69,-7.5 -21.68,-25 -5.24,-6.54 -10.32,-6.88 -9.43,0.77 z"
       style="fill:#eb9481"
       id="path511" />
    <path
       d="m 157.47,417.49 a 77.73,77.73 0 0 0 10.73,2.79 c 2.87,0.38 11.18,1.28 11.92,-1.84 0.51,-2.13 -4.32,-3.23 -7.71,-4.09 -1.79,-0.45 -4.12,-1.9 -3.79,-3.06 0.59,-2 5.2,-0.76 8.3,0.47 6,2.38 14.18,7 17.13,3.75 1.11,-1.25 -0.65,-2.95 -3.09,-4.52 3.83,1.68 7.84,2.92 9.13,1.59 a 1.88,1.88 0 0 0 0,-2.57 2.49,2.49 0 0 0 2.64,-0.82 c 1,-1.37 0.14,-3.05 -1.37,-4.66 a 1.39,1.39 0 0 0 0.93,-0.84 c 1.86,-4 -11.79,-12.8 -16.11,-13.17 -12.73,-1.09 -25.65,1.93 -25.65,1.93 -4.21,4.55 -3.07,25.04 -3.06,25.04 z"
       style="fill:#eb9481"
       id="path513" />
    <path
       d="m 173.85,403.48 a 21.09,21.09 0 0 1 8.67,1.94 c 3.42,1.59 5.85,3.69 8.83,5.72 0.07,0.06 0,0.18 -0.09,0.13 -1.41,-1 -7.22,-4.53 -8.7,-5.32 a 20,20 0 0 0 -8.71,-2.41 c 0,0 -0.03,-0.06 0,-0.06 z"
       style="fill:#263238"
       id="path515" />
    <path
       d="m 175.37,397.93 a 50.27,50.27 0 0 1 10,1.88 c 3.53,1.18 6.5,3.52 9.42,5.77 q 2.63,2 5.16,4.16 c 0.07,0.06 0,0.19 -0.08,0.13 q -4.46,-3.5 -9.11,-6.71 a 26.44,26.44 0 0 0 -9.51,-4.19 c -2,-0.43 -3.94,-0.71 -5.92,-1 0,0.03 0,-0.05 0.04,-0.04 z"
       style="fill:#263238"
       id="path517" />
    <path
       d="m 178.14,392.85 c 3.23,0.18 6.05,0.32 9.08,1.59 a 45.87,45.87 0 0 1 9.57,6 c 1.59,1.27 3.14,2.58 4.68,3.92 0.06,0.06 0,0.17 -0.1,0.11 a 105.68,105.68 0 0 0 -11,-8.05 20.81,20.81 0 0 0 -5.87,-2.68 38,38 0 0 0 -6.37,-0.91 c 0,0 -0.01,0.02 0.01,0.02 z"
       style="fill:#263238"
       id="path519" />
    <path
       d="m 156.49,417.83 c -9.28,-0.47 -22.51,-3.08 -26,-5.76 -6.34,-4.85 -19,-33.1 -20.59,-46.68 -0.61,-5.11 1.47,-6.65 4.46,-5.17 z"
       style="opacity:0.1"
       id="path521" />
    <path
       d="m 107.55,365.33 c 0.89,6.06 5.63,17.68 5.63,17.68 l 22.73,-2.83 c 0,0 -12.39,-15.52 -21.67,-21.18 -3.73,-2.26 -7.58,0.2 -6.69,6.33 z"
       style="fill:#007d7e"
       id="path523" />
    <path
       d="m 113,379.92 c 3.34,-0.65 6.69,-1.24 10.07,-1.68 1.69,-0.22 3.37,-0.42 5.06,-0.59 1.69,-0.17 3.41,-0.17 5.09,-0.36 0.09,0 0.1,0.14 0,0.14 -1.69,0.11 -3.38,0.44 -5.07,0.64 l -5.06,0.62 c -3.37,0.44 -6.74,0.86 -10.09,1.37 -0.13,0.02 -0.13,-0.13 0,-0.14 z"
       style="fill:#263238"
       id="path525" />
    <path
       d="m 107.55,365.32 c 0.89,6.07 5.63,17.69 5.63,17.69 l 17,-2.12 -17.17,-22.44 c -3.26,-1.14 -6.26,1.4 -5.46,6.87 z"
       style="opacity:0.1;fill:#020100"
       id="path527" />
    <path
       d="m 70.37,420.44 c 1.83,0.83 57.78,-8.55 57.78,-8.55 l -4.21,-19.53 c 0,0 3.85,-5.68 3.06,-11.66 -1,-8 -14,-22.43 -15,-23.32 -4.18,-3.53 -8.14,-4.42 -12.13,-2.86 -16.61,6.48 -29.5,65.92 -29.5,65.92 z"
       style="fill:#007d7e"
       id="path529" />
    <path
       d="m 108.49,360.42 a 1.48,1.48 0 1 1 -1.58,1.38 1.48,1.48 0 0 1 1.58,-1.38 z m -15.89,0.45 a 1.48,1.48 0 1 0 1.58,-1.38 1.41,1.41 0 0 0 -0.65,0.1 c -0.31,0.36 -0.61,0.74 -0.91,1.13 v 0 c 0,0 -0.01,0.09 -0.02,0.15 z m 27.2,23.63 a 1.48,1.48 0 1 0 1.58,-1.38 1.48,1.48 0 0 0 -1.58,1.38 z m -14.31,-0.94 a 1.48,1.48 0 1 0 1.58,-1.38 1.49,1.49 0 0 0 -1.58,1.38 z m -14.31,-0.93 a 1.48,1.48 0 1 0 1.58,-1.38 1.49,1.49 0 0 0 -1.58,1.38 z m 22.18,-9.51 a 1.48,1.48 0 1 0 1.57,-1.39 1.47,1.47 0 0 0 -1.57,1.39 z m -14.31,-0.94 a 1.48,1.48 0 1 0 1.57,-1.38 1.49,1.49 0 0 0 -1.57,1.38 z m -13.39,0.54 a 1.8,1.8 0 0 0 0.46,0.1 1.48,1.48 0 0 0 0.83,-2.76 c -0.44,0.86 -0.87,1.75 -1.29,2.66 z m 32.72,33.54 a 1.48,1.48 0 1 0 1.58,-1.38 1.49,1.49 0 0 0 -1.58,1.38 z m -14.31,-0.93 a 1.48,1.48 0 1 0 1.58,-1.38 1.49,1.49 0 0 0 -1.58,1.38 z M 89.76,404.4 a 1.48,1.48 0 1 0 1.58,-1.4 1.48,1.48 0 0 0 -1.58,1.4 z m -14.31,-0.94 a 1.48,1.48 0 1 0 1.55,-1.38 1.49,1.49 0 0 0 -1.55,1.38 z m 36.49,-8.58 a 1.48,1.48 0 1 0 1.57,-1.38 1.48,1.48 0 0 0 -1.57,1.38 z M 97.63,394 a 1.48,1.48 0 1 0 1.57,-1.38 1.47,1.47 0 0 0 -1.57,1.38 z m -14.31,-1 a 1.5030053,1.5030053 0 0 0 3,0.19 1.5030053,1.5030053 0 1 0 -3,-0.19 z m 12.89,22.7 a 1.5,1.5 0 0 0 0.56,1.26 l 2.14,-0.34 a 1.52,1.52 0 0 0 0.25,-0.73 1.5030053,1.5030053 0 1 0 -3,-0.19 z M 81.9,414.76 a 1.48,1.48 0 1 0 1.57,-1.38 1.49,1.49 0 0 0 -1.57,1.4 z"
       style="fill:#ffffff"
       id="path531" />
    <path
       d="m 119.59,390.87 a 14,14 0 0 0 -5.91,0.8 c -2,0.64 -6.48,2.84 -7.61,3.38 0,0 0,0.08 0,0.07 a 26.36,26.36 0 0 0 4.24,-1.47 59.43,59.43 0 0 1 5.92,-2.06 16.7,16.7 0 0 1 3.33,-0.52 c 0.07,-0.01 0.1,-0.19 0.03,-0.2 z"
       style="fill:#263238"
       id="path533" />
    <path
       d="m 122.71,393.07 a 10.61,10.61 0 0 0 -6.09,0 c 0,0 0,0.08 0,0.07 1,-0.05 2,-0.11 3,-0.11 1,0 2,0.07 3,0.1 0.11,0.03 0.12,-0.05 0.09,-0.06 z"
       style="fill:#263238"
       id="path535" />
    <path
       d="m 91.21,364.74 c -4.28,8.24 -15.46,38.65 -13,45.38 3.66,10.24 37.32,5.61 46.08,5.69 3,0 2.17,-25.61 -0.92,-26.32 -2.7,-0.62 -23,3.25 -23.38,2.12 -0.28,-0.93 0.33,-10.5 -0.7,-26 -0.85,-12.2 -5.84,-5.18 -8.08,-0.87 z"
       style="fill:#eb9481"
       id="path537" />
    <path
       d="m 129.2,387.8 c 7.8,-0.74 9.91,0.27 16.16,-3.84 4.11,-2.69 7.59,-1.23 5.12,3.24 -4,7.3 -13.91,10.36 -17.63,10.43 z"
       style="fill:#eb9481"
       id="path539" />
    <path
       d="m 108.29,394.33 c 0,0 8.92,-4.44 17.15,-6.05 5.7,-1.1 18.35,-2.13 29.82,10.82 2.72,3.07 4.42,9.38 -1.84,6 -4.46,-2.42 -6.55,-5.3 -9.4,-6.23 0,0 1.21,8.28 -2,10.89 a 76.33,76.33 0 0 1 -8.81,6.22 16.85,16.85 0 0 1 -1.31,-1.55 c 0,0 -3.2,2.16 -9,1.34 z"
       style="fill:#eb9481"
       id="path541" />
    <path
       d="m 131,388.1 c 2.63,1.52 8.15,4.85 11.72,9.13 4,4.77 10.31,15 6.76,17.9 -2.6,2.12 -5.37,-1.58 -5.37,-1.58 0,0 1.73,4.79 -1,6.19 -2.52,1.27 -4.49,-1.71 -4.49,-1.71 0,0 0.55,3.08 -2.11,3.84 -3.21,0.92 -3.84,-5.7 -7.89,-7.58 -0.91,-0.42 2.38,-26.19 2.38,-26.19 z"
       style="fill:#eb9481"
       id="path543" />
    <path
       d="m 137,400.58 a 24.68,24.68 0 0 1 7.18,12.85 c 0,0.13 -0.06,0.21 -0.11,0.1 A 60.62,60.62 0 0 0 137,400.62 c 0,0 0,-0.06 0,-0.04 z"
       style="fill:#263238"
       id="path545" />
    <path
       d="m 132.33,404.72 c 1.77,1.79 5.65,7.62 6.4,13.26 0,0.12 -0.08,0.2 -0.12,0.09 a 64.24,64.24 0 0 0 -6.33,-13.31 c 0,0 0.03,-0.06 0.05,-0.04 z"
       style="fill:#263238"
       id="path547" />
    <path
       d="m 126.21,388.15 c 3.94,-1.59 8.32,-0.54 12.44,-1.15 -4.05,1.29 -8.36,0.23 -12.44,1.15 z"
       style="fill:#263238"
       id="path549" />
    <path
       d="m 147.84,390.69 -1.19,1.17 v -0.06 a 48.53,48.53 0 0 1 6.75,5.12 c 2.05,1.91 4.07,4.19 4.49,7.2 -0.21,6.39 -10,-2.86 -12.17,-4.05 A 5,5 0 0 0 144,399.22 l 0.33,-0.59 c 2.81,4.14 6,8.48 6.6,13.58 0.14,4.51 -4.19,4.37 -6.67,1.67 l 0.25,-0.16 a 6.37,6.37 0 0 1 -0.17,4.91 3,3 0 0 1 -1.22,1.11 3.21,3.21 0 0 0 1.58,-2.74 8.74,8.74 0 0 0 -0.68,-3.75 l 0.44,0.39 c 2.22,2.19 6.12,2.7 5.89,-1.43 -0.8,-5.2 -4.17,-9.7 -7.16,-13.9 a 5.85,5.85 0 0 1 2.93,1.1 c 1.71,0.84 11.1,9.73 11.13,4.72 -0.3,-2.72 -2.24,-5.05 -4.15,-6.93 a 56.86,56.86 0 0 0 -6.5,-5.37 v 0 0 l 1.24,-1.11 z"
       style="fill:#263238"
       id="path551" />
    <path
       d="M 79.35,388.29 102.1,383 c 0,0 0.13,-11.74 -0.71,-18.25 -1.11,-8.61 -4.57,-10.22 -10.49,-1.37 -3.96,5.89 -11.55,24.91 -11.55,24.91 z"
       style="fill:#007d7e"
       id="path553" />
    <path
       d="m 99.32,383.62 c 0.24,-0.1 2.56,-0.72 2.74,-0.72 0,-1.38 -0.06,-2.76 -0.06,-4.14 0,-0.69 0,-1.38 0,-2.07 0,-0.69 0,-1.63 0,-2.3 0,-0.11 0.14,-0.12 0.15,0 0.06,0.88 0.08,1.53 0.12,2.29 0.04,0.76 0.08,1.36 0.09,2 0,1.44 0.12,3 0.07,4.41 a 23.52,23.52 0 0 1 -3.14,0.59 c 0,0 0,-0.04 0.03,-0.06 z"
       style="fill:#263238"
       id="path555" />
    <path
       d="m 81.83,384.55 c 3.13,-1 6.27,-1.88 9.45,-2.66 1.59,-0.39 3.18,-0.75 4.78,-1.09 1.6,-0.34 3.24,-0.52 4.83,-0.88 0.09,0 0.11,0.12 0,0.14 -1.6,0.28 -3.18,0.78 -4.77,1.14 -1.59,0.36 -3.19,0.74 -4.78,1.13 -3.17,0.76 -6.35,1.52 -9.51,2.36 -0.07,0.03 -0.09,-0.11 0,-0.14 z"
       style="fill:#263238"
       id="path557" />
    <path
       d="m 87.61,369.73 a 0.07,0.07 0 0 0 -0.12,-0.07 c -0.7,1.22 -1.38,2.45 -2,3.68 a 8.3,8.3 0 0 1 0.53,-1.52 c 0,0 0,0 0,0 a 10.21,10.21 0 0 0 -0.78,2.08 c -0.86,1.63 -1.69,3.27 -2.46,4.95 A 74.63,74.63 0 0 0 79,388.29 c -0.06,0.19 0.15,0.34 0.32,0.29 1.07,-0.25 2.19,-0.56 3.28,-0.72 a 0.09,0.09 0 1 0 0,-0.17 28.6,28.6 0 0 1 -2.93,0.37 c 1.32,-3 2.48,-6 3.8,-9 1.32,-3 2.64,-6.27 4.14,-9.33 z"
       style="fill:#263238"
       id="path559" />
    <path
       d="m 104.13,357.19 c 0,1.06 3.33,8.66 8,9.48 1.51,0.27 3.33,-7.92 3.33,-7.92 l 0.27,-0.57 3.8,-8 -9.74,-9.79 c 0,0 -5.65,16.35 -5.66,16.8 z"
       style="fill:#eb9481"
       id="path561" />
    <path
       d="m 119.5,350.15 -3.8,8 A 17.86,17.86 0 0 1 107.85,346 c 1,-2.84 1.78,-5.2 1.89,-5.55 a 0.1,0.1 0 0 0 0,-0.05 l 1.25,1.17 z"
       style="fill:#263238"
       id="path563" />
    <path
       d="m 106.86,344.66 a 3.6,3.6 0 0 0 -0.58,1.33 c -0.46,2.17 0.7,4.23 2,5.82 1.3,1.59 3.39,3.18 4.22,5.3 a 3.71,3.71 0 0 1 0.15,2.62 3.4,3.4 0 0 1 -2.13,1.86 c -1,0.38 -2.17,0.61 -2.75,1.56 a 2.87,2.87 0 0 0 0,2.6 c 0.89,2.11 3.34,3 4.9,4.53 a 11.63,11.63 0 0 1 3.28,6 11.23,11.23 0 0 1 -0.63,6.38 10.74,10.74 0 0 1 -1.58,2.75 c -0.74,0.93 -1.66,1.67 -2.44,2.57 a 4.1,4.1 0 0 0 -1.23,3 c 0.11,0.89 2.17,3.45 6.07,4.42 0.28,0.07 0.13,0.57 -0.18,0.6 a 15,15 0 0 1 -1.77,0.1 15.49,15.49 0 0 1 -12.53,-6.48 16.09,16.09 0 0 1 -2.79,-7.28 27.41,27.41 0 0 0 -0.67,-4.34 8,8 0 0 0 -2,-3.26 c -1.72,-1.78 -3.84,-3.12 -5.26,-5.19 a 13.64,13.64 0 0 1 -2.19,-6.26 16.08,16.08 0 0 1 4.47,-12.6 c 3.17,-3.25 13.78,-6.25 13.64,-6.03 z"
       style="fill:#263238"
       id="path565" />
    <path
       d="m 106.77,344.79 a 6.3,6.3 0 0 0 -0.83,2.73 5.2,5.2 0 0 0 0.62,2.5 15,15 0 0 0 3.86,4.19 8.89,8.89 0 0 1 3.23,4.28 4.4,4.4 0 0 1 0,2.36 3.35,3.35 0 0 1 -1.71,1.86 c -1.43,0.76 -3.47,1.25 -3.87,3.08 -0.4,1.83 1.2,3.27 2.34,4.36 2.78,2.68 6.79,5.74 6.22,10.11 a 14.3,14.3 0 0 1 -2.79,6.17 c -0.92,1.28 -2.11,2.91 -1.66,4.58 0,0.07 0.11,0 0.1,0 -0.45,-1.78 1,-3.2 2,-4.48 a 15.18,15.18 0 0 0 2.7,-5.08 7.36,7.36 0 0 0 -0.66,-5.53 17.4,17.4 0 0 0 -3.77,-4.52 c -0.75,-0.68 -1.51,-1.35 -2.23,-2.05 a 6.33,6.33 0 0 1 -1.63,-2.21 2.15,2.15 0 0 1 0.68,-2.46 11.48,11.48 0 0 1 2.49,-1.34 4.28,4.28 0 0 0 1.89,-1.58 4,4 0 0 0 0.54,-2 6.24,6.24 0 0 0 -1.66,-4.19 c -1.44,-1.64 -3.38,-2.76 -4.79,-4.43 a 6.21,6.21 0 0 1 -1.5,-3 6.31,6.31 0 0 1 0.64,-3.3 0.12,0.12 0 0 0 -0.21,-0.05 z"
       style="fill:#263238"
       id="path567" />
    <path
       d="m 91.19,350.93 a 13.11,13.11 0 0 0 -2.94,12.79 16.16,16.16 0 0 0 3.82,6.56 c 1.64,1.75 3.55,3.3 4.79,5.38 1.36,2.3 1.23,4.94 1.48,7.51 a 14.42,14.42 0 0 0 1.89,5.89 15.42,15.42 0 0 0 9.35,7.09 14.76,14.76 0 0 0 1.5,0.31 0.05,0.05 0 0 0 0,-0.1 15,15 0 0 1 -11.93,-12 c -0.42,-2.4 -0.13,-4.9 -0.88,-7.25 -0.69,-2.2 -2.34,-3.91 -4,-5.49 a 21.5,21.5 0 0 1 -4.6,-5.67 13.22,13.22 0 0 1 0.65,-13.17 c 3,-4.34 8.13,-6.06 13,-7.06 l 2,-0.39 c 0.08,0 0.06,-0.13 0,-0.12 -4.99,0.79 -10.41,1.97 -14.13,5.72 z"
       style="fill:#263238"
       id="path569" />
    <path
       d="m 105.61,342.18 c -0.75,0.24 -1.51,1.12 -1.47,1.65 0.04,0.53 2.85,3.56 3.88,3.53 1.03,-0.03 1.27,-1.9 1.27,-1.9 z"
       style="fill:#007d7e"
       id="path571" />
    <path
       d="m 135.13,341.13 c -2.18,15.44 -11.67,15.88 -15,15.41 -3,-0.43 -13.26,-2.28 -12.68,-17.87 0.58,-15.59 8.44,-19.44 15.4,-18.83 6.96,0.61 14.46,5.85 12.28,21.29 z"
       style="fill:#eb9481"
       id="path573" />
    <path
       d="m 132.85,340.21 a 8.68,8.68 0 0 1 -1,-0.45 1.71,1.71 0 0 1 -0.91,-0.65 0.56,0.56 0 0 1 0.15,-0.66 1.36,1.36 0 0 1 1.39,0 2,2 0 0 1 1.08,1 0.59,0.59 0 0 1 -0.71,0.76 z"
       style="fill:#263238"
       id="path575" />
    <path
       d="m 122.49,338 a 9.55,9.55 0 0 0 1.07,0 1.67,1.67 0 0 0 1.1,-0.19 0.54,0.54 0 0 0 0.15,-0.66 1.37,1.37 0 0 0 -1.25,-0.61 1.94,1.94 0 0 0 -1.39,0.42 0.59,0.59 0 0 0 0.32,1.04 z"
       style="fill:#263238"
       id="path577" />
    <path
       d="m 124.48,340.75 c 0,0 -0.09,0 -0.1,0.08 -0.18,1 -0.56,2.21 -1.57,2.37 0,0 0,0.06 0,0.06 1.19,0.07 1.67,-1.49 1.67,-2.51 z"
       style="fill:#263238"
       id="path579" />
    <path
       d="m 123.77,339.48 c -1.65,-0.47 -2.46,2.86 -0.93,3.29 1.53,0.43 2.31,-2.91 0.93,-3.29 z"
       style="fill:#263238"
       id="path581" />
    <path
       d="m 123.07,339.49 c -0.34,0.12 -0.7,0.38 -1.06,0.33 -0.36,-0.05 -0.64,-0.48 -0.82,-0.88 0,0 -0.06,0 -0.07,0 a 1.26,1.26 0 0 0 0.58,1.61 c 0.61,0.24 1.19,-0.22 1.51,-0.82 0.06,-0.08 0,-0.28 -0.14,-0.24 z"
       style="fill:#263238"
       id="path583" />
    <path
       d="m 130.2,341.87 c 0,0 0.07,0.07 0.06,0.11 -0.29,1 -0.45,2.24 0.39,2.82 0,0 0,0.07 0,0.05 -1.12,-0.44 -0.89,-2.06 -0.45,-2.98 z"
       style="fill:#263238"
       id="path585" />
    <path
       d="m 131.39,341 c 1.69,0.29 1,3.64 -0.58,3.37 -1.58,-0.27 -0.81,-3.58 0.58,-3.37 z"
       style="fill:#263238"
       id="path587" />
    <path
       d="m 132.05,341.39 c 0.22,0.24 0.42,0.62 0.73,0.7 0.31,0.08 0.71,-0.2 1,-0.5 0,0 0,0 0,0.05 -0.12,0.64 -0.47,1.26 -1.11,1.26 -0.64,0 -0.88,-0.64 -0.9,-1.31 0.05,-0.13 0.23,-0.29 0.28,-0.2 z"
       style="fill:#263238"
       id="path589" />
    <path
       d="m 121.73,348.82 c 0.15,0.32 0.27,0.73 0.62,0.89 a 2.69,2.69 0 0 0 1.16,0.14 c 0,0 0.06,0 0,0.07 a 1.44,1.44 0 0 1 -1.47,0.08 1.14,1.14 0 0 1 -0.46,-1.17 c 0.04,-0.07 0.12,-0.06 0.15,-0.01 z"
       style="fill:#263238"
       id="path591" />
    <path
       d="m 127.25,346.38 c 0,0 -0.25,1.58 -0.47,2.3 0,0.06 -0.2,0 -0.45,0 v 0 a 3.55,3.55 0 0 1 -2.91,-2.28 0.07158911,0.07158911 0 0 1 0.13,-0.06 5.39,5.39 0 0 0 2.84,1.84 c 0.11,-0.19 0.34,-2.73 0.46,-2.7 a 6.56,6.56 0 0 1 1.51,0.87 c 0.63,-3.28 0.72,-6.63 1.39,-9.89 a 0.1,0.1 0 0 1 0.2,0 54.59,54.59 0 0 1 -1,10.7 c -0.14,0.42 -1.45,-0.57 -1.7,-0.78 z"
       style="fill:#263238"
       id="path593" />
    <path
       d="m 126,348.28 a 4,4 0 0 1 -1.88,0.76 1.76,1.76 0 0 1 -1.08,-0.23 c -0.7,-0.41 -0.52,-1.12 -0.22,-1.68 a 4.75,4.75 0 0 1 0.6,-0.82 5.23,5.23 0 0 0 2.58,1.97 z"
       style="fill:#263238"
       id="path595" />
    <path
       d="m 124.12,349 a 1.76,1.76 0 0 1 -1.08,-0.23 c -0.7,-0.41 -0.52,-1.12 -0.22,-1.68 a 1.87,1.87 0 0 1 1.3,1.91 z"
       style="fill:#ff98b9"
       id="path597" />
    <path
       d="m 106.87,339.68 c 2.45,0.89 5.13,-5.2 5.13,-5.2 0,0 5.09,1.42 8.8,-5.44 a 11.75,11.75 0 0 1 -3.93,5.43 c 0,0 9.25,1.53 15.11,-4.94 0,0 -2.57,3.41 -4.36,4.38 a 10.92,10.92 0 0 0 6.74,-2.56 c 0,0 0.38,4.78 1.26,6.31 0,0 5.13,-16.24 -11.06,-18.18 0,0 -10.41,-2.65 -15.68,3.66 -5.27,6.31 -2.01,16.54 -2.01,16.54 z"
       style="fill:#263238"
       id="path599" />
    <path
       d="m 109.73,340.21 c 0,0 -2.22,-5.51 -4.64,-4.83 -2.42,0.68 -1.52,8.14 0.79,9.66 a 2.63,2.63 0 0 0 3.76,-0.58 z"
       style="fill:#eb9481"
       id="path601" />
    <path
       d="m 105.4,337.51 c 0,0 -0.06,0.05 0,0.07 1.61,1.12 2.16,3 2.42,4.84 a 1.45,1.45 0 0 0 -2,-0.88 c -0.06,0 0,0.1 0,0.1 a 1.62,1.62 0 0 1 1.61,1 7.28,7.28 0 0 1 0.51,1.6 c 0,0.17 0.35,0.16 0.34,0 v -0.05 c 0.52,-2.32 -0.51,-5.89 -2.88,-6.68 z"
       style="fill:#263238"
       id="path603" />
    <rect
       x="121.15"
       y="421.82999"
       width="64.82"
       height="2.9000001"
       style="fill:#c7c7c7"
       id="rect605" />
    <polygon
       points="149.31,421.83 185.97,421.83 185.97,424.74 147.09,424.74 "
       style="fill:#a6a6a6"
       id="polygon607" />
    <polygon
       points="161.96,381.83 156.7,424.74 219.88,424.74 225.13,381.83 "
       style="fill:#a6a6a6"
       id="polygon609" />
    <polygon
       points="165.27,381.83 160.01,424.74 223.18,424.74 228.44,381.83 "
       style="fill:#c7c7c7"
       id="polygon611" />
    <path
       d="m 190.38,403.29 a 3.76,3.76 0 0 0 3.78,3.84 3.93,3.93 0 0 0 3.91,-3.84 3.76,3.76 0 0 0 -3.78,-3.85 3.93,3.93 0 0 0 -3.91,3.85 z"
       style="fill:#ffffff"
       id="path613" />
  </g>
  <g
     id="freepik--Plant--inject-5"
     transform="translate(0,-6)">
    <path
       d="m 697.63,361.21 c -13.26,18 -27.09,38.81 -30.46,61.34 0,0.34 0.51,0.45 0.58,0.11 a 133.79,133.79 0 0 1 5.87,-18 c 8.72,-2.4 17.28,-4.37 21.86,-13 4.67,-8.9 4.08,-20.5 3.19,-30.19 -0.07,-0.58 -0.77,-0.61 -1.04,-0.26 z"
       style="fill:#007d7e"
       id="path616" />
    <path
       d="m 673.75,404.45 c 6,-13.37 13.61,-26.79 23.33,-37.79 0.07,-0.07 0.17,0 0.11,0.11 -6.37,7.83 -11.2,16.36 -15.93,25 4.39,-4.46 9.21,-8.46 13.37,-13.18 0.08,-0.1 0.21,0 0.13,0.13 -4.13,5 -8.64,10.34 -14,14 -1.45,2.66 -2.9,5.33 -4.38,8 0.36,-0.2 0.74,-0.38 1.11,-0.56 a 0.06,0.06 0 0 1 0,0.1 c -0.41,0.21 -0.81,0.42 -1.24,0.6 -0.69,1.27 -1.39,2.53 -2.1,3.79 -0.15,0.35 -0.52,0.09 -0.4,-0.2 z"
       style="fill:#263238"
       id="path618" />
    <path
       d="m 678.18,399.79 a 78.2,78.2 0 0 0 10.19,-6.8 c 0.08,-0.07 0.21,0.05 0.12,0.13 A 53.59,53.59 0 0 1 678.33,400 c -0.16,0.12 -0.33,-0.12 -0.15,-0.21 z"
       style="fill:#263238"
       id="path620" />
    <path
       d="m 665.64,419.2 c 0,0.27 0.49,0.27 0.48,0 0.07,-7.42 0,-14.88 0.12,-22.33 1.9,-3.83 6,-6 8.81,-9 a 39.51,39.51 0 0 0 5.3,-7.37 53,53 0 0 0 6.13,-20.5 c 0.79,-7.94 -2.22,-34.12 -5.57,-33.21 -1.73,0.47 -7.35,13.44 -8.84,17.73 a 123.75,123.75 0 0 0 -5.28,21.74 c -2.71,17.44 -2.48,35.37 -1.15,52.94 z"
       style="fill:#007d7e"
       id="path622" />
    <path
       d="m 665.58,387.2 v 0 c 0.4,-9.39 2.52,-18.87 4.5,-28 2.13,-9.81 4.62,-19.05 9.67,-27.79 0.09,-0.17 0.33,0 0.25,0.14 a 103.11,103.11 0 0 0 -7.77,21.33 c 0.34,-0.52 0.75,-1 1.1,-1.53 0.14,-0.19 0.46,0 0.33,0.2 a 14.62,14.62 0 0 1 -1.58,2.22 0.09,0.09 0 0 1 -0.07,0 c -1.73,7 -3,14.18 -4,21.34 l 0.24,-0.28 c 0,-0.06 0.15,0 0.11,0.08 -0.13,0.24 -0.28,0.48 -0.43,0.71 -0.54,3.63 -1,7.26 -1.53,10.85 6.46,-5.53 12,-12 15.09,-20.06 0,0 0.08,0 0.06,0 -3,8.33 -7.85,15.73 -15.26,20.78 -0.13,1 -0.27,1.93 -0.41,2.89 0,0.2 -0.34,0.15 -0.34,0 0,-0.86 0,-1.72 0.08,-2.57 a 0.19,0.19 0 0 1 -0.04,-0.31 z"
       style="fill:#263238"
       id="path624" />
    <path
       d="m 668.63,373.6 c 4.94,-7.38 9.55,-14.54 13.17,-22.69 0,-0.09 0.19,0 0.16,0.07 -3.05,8.1 -7.31,16.3 -13.09,22.81 -0.11,0.13 -0.34,-0.05 -0.24,-0.19 z"
       style="fill:#263238"
       id="path626" />
    <path
       d="m 675.19,349.09 c 2,-3.62 4.21,-7.14 6.13,-10.83 a 0.09,0.09 0 1 1 0.15,0.08 56,56 0 0 1 -6,10.94 c -0.1,0.18 -0.4,0.02 -0.28,-0.19 z"
       style="fill:#263238"
       id="path628" />
    <path
       d="m 674.39,350.67 a 0.03,0 -90 0 0 0,0.06 z"
       style="fill:#263238"
       id="path630" />
    <path
       d="m 660.61,397.74 a 74.68,74.68 0 0 1 -1.73,14.62 c 0.08,0.53 0.15,1.06 0.23,1.6 a 69.39,69.39 0 0 0 2.61,-16.29 0.51,0.51 0 0 0 0,-0.51 v 0 a 108.22,108.22 0 0 0 -1.64,-22.07 c -2.3,-13.64 -7.32,-26.72 -16.83,-36.94 a 0.68,0.68 0 0 0 -1,0.22 c -3.83,9.75 -2.49,21.39 0.77,31.13 a 57.14,57.14 0 0 0 7.54,14.78 c 3.25,4.58 7.44,8.46 10.05,13.46 z"
       style="fill:#007d7e"
       id="path632" />
    <path
       d="m 644.41,342.7 c 9,14.63 15.28,32 16.05,49.24 0,0.31 -0.5,0.39 -0.55,0.08 -0.21,-1.55 -0.45,-3.09 -0.7,-4.62 v 0 c -3.73,-3.57 -7.56,-7.34 -10.23,-11.8 0,-0.08 0.07,-0.17 0.13,-0.1 a 124,124 0 0 0 9.89,10.8 q -1,-5.73 -2.31,-11.28 l -0.72,-0.84 c -0.15,-0.18 0.11,-0.45 0.27,-0.27 l 0.22,0.24 a 133,133 0 0 0 -4.71,-15 c -2.3,-2.73 -4.86,-5.1 -6.53,-8.39 a 0.07,0.07 0 0 1 0.12,-0.07 c 1.34,1.88 2.64,3.78 4.17,5.53 0.6,0.69 1.27,1.35 1.9,2 a 115.1,115.1 0 0 0 -7.38,-15.38 0.20248457,0.20248457 0 0 1 0.38,-0.14 z"
       style="fill:#263238"
       id="path634" />
    <path
       d="m 646.23,360.75 c 2.91,3.92 6.23,7.66 8.94,11.71 0.08,0.11 -0.09,0.23 -0.19,0.14 -3.48,-3.26 -6.42,-7.72 -9,-11.74 a 0.136565,0.136565 0 0 1 0.25,-0.11 z"
       style="fill:#263238"
       id="path636" />
    <path
       d="m 655.58,373.36 0.12,0.13 c 0.09,0.08 -0.05,0.22 -0.13,0.13 l -0.13,-0.12 a 0.1,0.1 0 0 1 0.14,-0.14 z"
       style="fill:#263238"
       id="path638" />
    <path
       d="m 630.29,370.82 c 0.72,7.52 4.68,16.51 9.51,22.31 a 23.84,23.84 0 0 0 7.71,6 c 3.34,1.65 6.84,3.55 10.29,4.91 a 67.69,67.69 0 0 1 3.65,12.96 l 0.33,-1.15 c -2.22,-19.05 -14.55,-35.33 -30.31,-45.78 a 0.77,0.77 0 0 0 -1.18,0.75 z"
       style="fill:#007d7e"
       id="path640" />
    <path
       d="m 635.74,376.45 c -0.11,-0.1 0,-0.3 0.16,-0.21 A 64.54,64.54 0 0 1 656,401 c 0.12,0.26 -0.24,0.49 -0.39,0.23 q -1.1,-1.92 -2.24,-3.76 v 0 c -3.6,-0.68 -7,-3.21 -9.68,-5.61 a 0.08,0.08 0 0 1 0.11,-0.11 22.21,22.21 0 0 0 4.55,3.2 c 1.47,0.74 3,1.21 4.57,1.81 -1.33,-2.12 -2.72,-4.15 -4.17,-6.12 a 42,42 0 0 1 -10.82,-6.08 c -0.1,-0.07 0,-0.24 0.1,-0.17 a 106.88,106.88 0 0 0 10.06,5.37 90.91,90.91 0 0 0 -7.1,-8.27 c -1.22,-0.65 -2.47,-1.3 -3.65,-2 a 0.1,0.1 0 0 1 0.08,-0.18 13.42,13.42 0 0 1 2.8,1.37 c -1.45,-1.43 -2.91,-2.85 -4.48,-4.23 z"
       style="fill:#263238"
       id="path642" />
    <path
       d="m 636.07,383 a 4.51,4.51 0 0 1 0.61,0.44 c 0.06,0.05 0,0.12 -0.08,0.1 a 4.89,4.89 0 0 1 -0.63,-0.36 c -0.11,-0.05 0.03,-0.18 0.1,-0.18 z"
       style="fill:#263238"
       id="path644" />
    <polygon
       points="647.43,410.23 682.13,410.23 682.9,418.91 686.39,458.25 643.18,458.25 646.67,418.91 "
       style="fill:#455a64"
       id="polygon646" />
    <polygon
       points="682.13,410.23 682.9,418.91 646.67,418.91 647.43,410.23 "
       style="fill:#263238"
       id="polygon648" />
    <rect
       x="645.37"
       y="404.16"
       width="38.830002"
       height="8.5900002"
       style="fill:#455a64"
       id="rect650" />
  </g>
</svg>
