<?xml version="1.0" encoding="UTF-8" standalone="no"?>
<svg
   viewBox="0 0 500 500"
   version="1.1"
   id="svg474"
   sodipodi:docname="103.svg"
   inkscape:version="1.1.2 (0a00cf5339, 2022-02-04)"
   xmlns:inkscape="http://www.inkscape.org/namespaces/inkscape"
   xmlns:sodipodi="http://sodipodi.sourceforge.net/DTD/sodipodi-0.dtd"
   xmlns="http://www.w3.org/2000/svg"
   xmlns:svg="http://www.w3.org/2000/svg">
  <defs
     id="defs478" />
  <sodipodi:namedview
     id="namedview476"
     pagecolor="#ffffff"
     bordercolor="#666666"
     borderopacity="1.0"
     inkscape:pageshadow="2"
     inkscape:pageopacity="0.0"
     inkscape:pagecheckerboard="0"
     showgrid="false"
     inkscape:zoom="1.132"
     inkscape:cx="251.32509"
     inkscape:cy="250.4417"
     inkscape:window-width="1478"
     inkscape:window-height="800"
     inkscape:window-x="0"
     inkscape:window-y="0"
     inkscape:window-maximized="1"
     inkscape:current-layer="svg474" />
  <g
     id="g2467">
    <g
       id="freepik--background-complete--inject-152">
      <rect
         x="118.33"
         y="128.28999"
         width="57.759998"
         height="91.080002"
         transform="rotate(-82.23,147.22052,173.83278)"
         style="fill:#ebebeb"
         id="rect2" />
      <path
         d="m 106,139.06 c 3.17,4 6.43,7.83 9.63,11.76 3.2,3.93 6.5,7.73 9.78,11.55 3.41,4 6.85,8 10.28,11.91 0.11,0.12 0.2,0.25 0.31,0.38 q 4.57,5.22 9.17,10.43 l 0.45,0.5 0.56,-0.36 q 5.82,-3.79 11.62,-7.62 a 4.53,4.53 0 0 0 0.4,-0.26 q 6.59,-4.32 13.12,-8.73 c 4.16,-2.8 8.34,-5.65 12.49,-8.5 4.15,-2.85 8.31,-5.76 12.43,-8.75 -4.28,2.46 -8.52,5.07 -12.77,7.61 -4.25,2.54 -8.49,5.19 -12.72,7.85 q -7.06,4.39 -14.12,8.93 c 0,0 0,0 0,0 q -5.29,3.36 -10.58,6.76 c -2.77,-3.12 -5.56,-6.26 -8.36,-9.35 0,0 0,0 0,0 q -5.58,-6.22 -11.21,-12.38 -5.06,-5.52 -10.15,-11 c -3.49,-3.56 -6.87,-7.21 -10.33,-10.73 z"
         style="fill:#ffffff"
         id="path4" />
      <path
         d="m 156.3,177.05 a 1.09,1.09 0 0 1 0.1,0.11 l 1.26,1.4 c 2,2.22 4.07,4.36 6.18,6.46 2.58,2.58 5.23,5.09 7.9,7.58 2.67,2.49 5.39,4.89 8.18,7.25 2.79,2.36 5.6,4.7 8.54,6.88 -2.41,-2.77 -5,-5.39 -7.53,-8 -2.53,-2.61 -5.24,-5.09 -7.89,-7.57 -2.65,-2.48 -5.41,-4.91 -8.19,-7.28 -2.21,-1.89 -4.47,-3.75 -6.8,-5.53 q -0.8,-0.63 -1.62,-1.23 z"
         style="fill:#ffffff"
         id="path6" />
      <path
         d="m 98.65,194.49 c 3.43,-1.32 6.78,-2.81 10.08,-4.34 3.3,-1.53 6.57,-3.17 9.83,-4.81 3.26,-1.64 6.47,-3.38 9.64,-5.18 2.59,-1.46 5.15,-3 7.66,-4.56 0.55,-0.34 1.08,-0.68 1.61,-1 l 0.12,-0.08 a 0.3,0.3 0 0 1 -0.15,0 l -1.9,0.77 c -2.71,1.09 -5.37,2.29 -8,3.51 -3.31,1.54 -6.57,3.16 -9.82,4.82 -3.25,1.66 -6.46,3.38 -9.64,5.19 -3.18,1.81 -6.36,3.65 -9.43,5.68 z"
         style="fill:#ffffff"
         id="path8" />
      <rect
         x="59.189999"
         y="64.970001"
         width="77"
         height="48.830002"
         transform="rotate(-14.24,97.701254,89.404073)"
         style="fill:#ebebeb"
         id="rect10" />
      <path
         d="m 54.36,75.19 c 3.75,2.12 7.52,4.1 11.28,6.16 3.76,2.06 7.54,4 11.32,6 3.94,2.06 7.89,4.07 11.84,6.08 l 0.36,0.2 10.49,5.27 0.51,0.25 0.33,-0.46 c 2.24,-3.21 4.46,-6.43 6.69,-9.65 a 4,4 0 0 0 0.23,-0.34 q 3.8,-5.46 7.52,-11 c 2.38,-3.51 4.75,-7.07 7.1,-10.62 2.35,-3.55 4.69,-7.15 7,-10.79 -2.58,3.28 -5.07,6.67 -7.6,10 -2.53,3.33 -5,6.76 -7.48,10.18 q -4.14,5.69 -8.25,11.48 c 0,0 0,0 0,0 q -3.07,4.31 -6.15,8.65 C 96.35,95 93.17,93.45 90,91.91 c 0,0 0,0 0,0 Q 83.64,88.79 77.28,85.75 C 73.48,83.94 69.67,82.14 65.86,80.38 62.05,78.62 58.2,76.85 54.36,75.19 Z"
         style="fill:#ffffff"
         id="path12" />
      <path
         d="m 105.84,89 a 0.6,0.6 0 0 0 0.11,0.06 l 1.43,0.7 q 3.41,1.65 6.89,3.1 c 2.84,1.22 5.71,2.34 8.59,3.44 2.88,1.1 5.78,2.13 8.71,3.1 2.93,0.97 5.88,1.91 8.88,2.69 -2.77,-1.41 -5.59,-2.66 -8.42,-3.87 -2.83,-1.21 -5.73,-2.33 -8.6,-3.43 -2.87,-1.1 -5.79,-2.14 -8.72,-3.11 -2.33,-0.78 -4.69,-1.53 -7.08,-2.19 -0.55,-0.16 -1.1,-0.3 -1.66,-0.45 z"
         style="fill:#ffffff"
         id="path14" />
      <path
         d="m 66.17,121 c 2.27,-2.11 4.42,-4.34 6.52,-6.6 2.1,-2.26 4.16,-4.56 6.19,-6.87 2.03,-2.31 4,-4.71 5.91,-7.12 1.57,-2 3.11,-4 4.57,-6 l 0.93,-1.31 c 0,0 0,-0.07 0.07,-0.1 l -0.1,0.09 c -0.42,0.4 -0.84,0.79 -1.25,1.2 -1.78,1.71 -3.49,3.49 -5.18,5.3 -2.11,2.25 -4.15,4.56 -6.17,6.88 -2.02,2.32 -4,4.7 -5.91,7.12 -1.91,2.42 -3.82,4.81 -5.58,7.41 z"
         style="fill:#ffffff"
         id="path16" />
      <rect
         x="364.39001"
         y="265.85001"
         width="77"
         height="48.830002"
         transform="rotate(-6.69,402.70729,290.15271)"
         style="fill:#ebebeb"
         id="rect18" />
      <path
         d="m 361.81,270.5 c 3.44,2.59 6.92,5.05 10.37,7.6 3.45,2.55 6.95,4.95 10.44,7.39 3.49,2.44 7.29,5.07 10.94,7.58 l 0.33,0.24 q 4.83,3.31 9.7,6.61 l 0.48,0.31 0.38,-0.41 q 4,-4.33 7.9,-8.69 a 2.68,2.68 0 0 0 0.28,-0.3 q 4.47,-4.92 8.9,-9.92 c 2.82,-3.16 5.63,-6.38 8.43,-9.59 2.8,-3.21 5.59,-6.47 8.33,-9.79 -3,2.92 -5.9,6 -8.85,8.93 -2.95,2.93 -5.85,6 -8.76,9.11 q -4.85,5.08 -9.67,10.29 c 0,0 0,0 0,0 -2.41,2.58 -4.81,5.18 -7.22,7.77 -2.94,-2 -5.88,-3.95 -8.82,-5.89 0,0 0,0 0,0 q -5.88,-3.93 -11.8,-7.78 -5.28,-3.45 -10.61,-6.82 c -3.63,-2.21 -7.17,-4.49 -10.75,-6.64 z"
         style="fill:#ffffff"
         id="path20" />
      <path
         d="m 411,291 0.1,0.07 c 0.44,0.3 0.89,0.6 1.33,0.88 2.11,1.4 4.25,2.72 6.43,4 2.65,1.57 5.35,3.06 8.06,4.54 2.71,1.48 5.45,2.86 8.23,4.21 2.78,1.35 5.57,2.67 8.44,3.83 -2.55,-1.76 -5.19,-3.37 -7.84,-4.93 -2.65,-1.56 -5.37,-3.07 -8.07,-4.54 -2.7,-1.47 -5.46,-2.88 -8.23,-4.23 -2.21,-1.08 -4.46,-2.13 -6.74,-3.1 q -0.78,-0.34 -1.59,-0.66 z"
         style="fill:#ffffff"
         id="path22" />
      <path
         d="m 367.5,317.43 c 2.53,-1.8 5,-3.73 7.33,-5.68 2.33,-1.95 4.72,-4 7,-6 2.28,-2 4.58,-4.13 6.8,-6.28 1.81,-1.74 3.59,-3.51 5.31,-5.35 l 1.1,-1.18 a 0.73,0.73 0 0 0 0.08,-0.09 0.34,0.34 0 0 1 -0.11,0.07 l -1.39,1 c -2,1.47 -3.92,3 -5.84,4.57 -2.39,2 -4.71,4 -7,6 -2.29,2 -4.58,4.13 -6.8,6.28 -2.22,2.15 -4.4,4.35 -6.48,6.66 z"
         style="fill:#ffffff"
         id="path24" />
      <path
         d="m 378.13,159.62 -13.13,0.28 -6.66,0.11 c -2.23,0.05 -4.47,0 -6.7,0.06 h -0.44 v -0.45 l -0.06,-11.19 v -0.5 h 0.5 l 13.24,0.06 c 4.41,0 8.83,0.12 13.24,0.17 h 0.28 v 0.27 c 0,1.9 -0.08,3.79 -0.13,5.65 z m 0,0 L 378,154 c -0.05,-1.87 -0.11,-3.71 -0.13,-5.54 l 0.27,0.27 c -4.41,0.05 -8.83,0.16 -13.24,0.17 l -13.24,0.06 0.5,-0.5 v 11.19 l -0.45,-0.45 c 2.18,0 4.36,0 6.55,0.06 l 6.58,0.11 z"
         style="fill:#ebebeb"
         id="path26" />
      <path
         d="m 363.36,173.73 -13.13,0.28 -6.66,0.11 c -2.22,0 -4.46,0 -6.69,0.06 h -0.44 v -0.45 l -0.05,-11.19 V 162 h 0.5 l 13.24,0.06 c 4.41,0 8.83,0.12 13.24,0.17 h 0.28 v 0.27 c 0,1.9 -0.08,3.79 -0.13,5.65 z m 0,0 -0.14,-5.65 c -0.05,-1.87 -0.11,-3.71 -0.13,-5.54 l 0.27,0.27 c -4.41,0.05 -8.83,0.16 -13.24,0.17 l -13.24,0.06 0.5,-0.5 -0.06,11.19 -0.44,-0.45 c 2.18,0 4.36,0 6.54,0.06 l 6.58,0.11 z"
         style="fill:#ebebeb"
         id="path28" />
      <path
         d="m 392.9,173.73 -13.12,0.28 -6.66,0.11 c -2.23,0 -4.47,0 -6.7,0.06 H 366 v -0.45 l -0.06,-11.19 V 162 h 0.5 l 13.24,0.06 c 4.42,0 8.83,0.12 13.24,0.17 h 0.28 v 0.27 c 0,1.9 -0.09,3.79 -0.14,5.65 z m 0,0 -0.14,-5.65 c 0,-1.87 -0.11,-3.71 -0.13,-5.54 l 0.27,0.27 c -4.41,0.05 -8.82,0.16 -13.24,0.17 l -13.24,0.06 0.5,-0.5 -0.05,11.19 -0.45,-0.45 c 2.18,0 4.36,0 6.55,0.06 l 6.58,0.11 z"
         style="fill:#ebebeb"
         id="path30" />
      <path
         d="m 443.35,58.29 -13.13,0.28 -6.66,0.11 c -2.23,0 -4.46,0 -6.69,0.06 h -0.45 V 58.29 L 416.37,47.1 v -0.5 h 0.51 l 13.24,0.06 c 4.41,0 8.82,0.12 13.24,0.17 h 0.27 v 0.27 c 0,1.9 -0.09,3.79 -0.13,5.65 z m 0,0 -0.15,-5.65 c 0,-1.87 -0.11,-3.71 -0.13,-5.54 l 0.28,0.27 c -4.42,0.05 -8.83,0.16 -13.24,0.17 l -13.24,0.06 0.49,-0.5 -0.05,11.19 -0.44,-0.45 c 2.18,0 4.35,0 6.54,0.06 L 430,58 Z"
         style="fill:#ebebeb"
         id="path32" />
      <path
         d="m 458.12,72.4 -13.12,0.28 -6.66,0.11 c -2.22,0 -4.46,0 -6.69,0.06 H 431.2 V 72.4 l -0.05,-11.19 v -0.5 h 0.5 l 13.24,0.06 c 4.41,0 8.82,0.12 13.24,0.17 h 0.27 v 0.27 c 0,1.9 -0.09,3.79 -0.13,5.65 z m 0,0 -0.12,-5.65 c -0.05,-1.87 -0.12,-3.71 -0.14,-5.54 l 0.28,0.27 c -4.42,0.05 -8.83,0.16 -13.24,0.17 l -13.24,0.06 0.5,-0.5 -0.06,11.19 -0.44,-0.45 c 2.18,0 4.35,0 6.54,0.06 l 6.58,0.11 z"
         style="fill:#ebebeb"
         id="path34" />
      <path
         d="m 68.36,58.3 -13.12,0.28 -6.66,0.11 c -2.23,0.05 -4.47,0 -6.7,0.06 H 41.44 V 58.3 L 41.38,47.11 v -0.5 h 0.5 l 13.24,0.07 c 4.42,0 8.83,0.11 13.24,0.16 h 0.28 v 0.27 c 0,1.9 -0.09,3.79 -0.14,5.66 z m 0,0 -0.14,-5.65 c 0,-1.86 -0.11,-3.71 -0.13,-5.54 l 0.27,0.28 c -4.41,0 -8.82,0.15 -13.24,0.16 l -13.24,0.06 0.5,-0.5 -0.05,11.19 -0.45,-0.44 c 2.18,0 4.36,0 6.55,0 L 55,58 Z"
         style="fill:#ebebeb"
         id="path36" />
      <path
         d="m 431.64,318.51 13.12,-0.28 6.66,-0.11 c 2.23,-0.05 4.47,0 6.7,-0.06 h 0.44 v 0.45 l 0.06,11.19 v 0.5 h -0.5 l -13.24,-0.07 c -4.42,0 -8.83,-0.11 -13.24,-0.16 h -0.28 v -0.27 c 0,-1.9 0.09,-3.79 0.13,-5.66 z m 0,0 0.14,5.65 c 0,1.86 0.11,3.71 0.13,5.54 l -0.27,-0.28 c 4.41,-0.05 8.82,-0.15 13.24,-0.16 l 13.24,-0.06 -0.5,0.5 0.05,-11.19 0.45,0.44 c -2.18,0 -4.36,0 -6.55,-0.05 l -6.58,-0.11 z"
         style="fill:#ebebeb"
         id="path38" />
      <path
         d="m 41.88,318.51 13.12,-0.28 6.66,-0.11 c 2.22,-0.05 4.46,0 6.69,-0.06 h 0.45 v 0.45 11.19 0.5 h -0.5 l -13.24,-0.07 c -4.41,0 -8.82,-0.11 -13.24,-0.16 h -0.27 v -0.27 c 0,-1.9 0.09,-3.79 0.13,-5.66 z m 0,0 0.14,5.65 c 0,1.86 0.12,3.71 0.14,5.54 l -0.28,-0.28 c 4.42,-0.05 8.83,-0.15 13.24,-0.16 l 13.24,-0.06 -0.5,0.5 0.06,-11.19 0.44,0.44 c -2.18,0 -4.35,0 -6.54,-0.05 l -6.58,-0.11 z"
         style="fill:#ebebeb"
         id="path40" />
      <path
         d="m 56.65,304.4 13.13,-0.28 6.66,-0.11 c 2.23,-0.05 4.46,0 6.69,-0.06 h 0.45 v 0.45 11.19 0.5 H 83.07 L 69.89,316 c -4.41,0 -8.82,-0.11 -13.24,-0.16 h -0.27 v -0.27 c 0,-1.9 0.09,-3.79 0.13,-5.66 z m 0,0 0.15,5.65 c 0,1.86 0.11,3.71 0.13,5.54 l -0.28,-0.28 c 4.42,-0.05 8.83,-0.15 13.24,-0.16 l 13.24,-0.06 -0.49,0.5 V 304.4 l 0.44,0.44 c -2.18,0 -4.35,0 -6.54,0 L 70,304.68 Z"
         style="fill:#ebebeb"
         id="path42" />
      <rect
         x="323.78"
         y="128.12"
         width="136.25"
         height="8.0900002"
         transform="rotate(180,391.9,132.165)"
         style="fill:#ebebeb"
         id="rect44" />
      <rect
         x="441.59"
         y="136.21001"
         width="8.0900002"
         height="26.76"
         style="fill:#ebebeb"
         id="rect46" />
      <rect
         x="441.59"
         y="136.21001"
         width="8.0900002"
         height="8.2700005"
         style="fill:#dbdbdb"
         id="rect48" />
      <rect
         x="334.10999"
         y="136.21001"
         width="8.0900002"
         height="26.76"
         style="fill:#ebebeb"
         id="rect50" />
      <rect
         x="334.10999"
         y="136.21001"
         width="8.0900002"
         height="8.2700005"
         style="fill:#dbdbdb"
         id="rect52" />
      <rect
         x="393.32001"
         y="95.849998"
         width="51.560001"
         height="12.98"
         transform="rotate(90,419.1,102.34)"
         style="fill:#c7c7c7"
         id="rect54" />
      <rect
         x="416.26999"
         y="70.139999"
         width="5.6700001"
         height="12.98"
         transform="rotate(90,419.1,76.64)"
         style="fill:#dbdbdb"
         id="rect56" />
      <rect
         x="418.04999"
         y="81.290001"
         width="2.0999999"
         height="12.98"
         transform="rotate(90,419.1,87.78)"
         style="fill:#dbdbdb"
         id="rect58" />
      <rect
         x="415.45999"
         y="111.22"
         width="5.6700001"
         height="14.6"
         transform="rotate(90,418.29,118.53)"
         style="fill:#dbdbdb"
         id="rect60" />
      <rect
         x="378"
         y="93.510002"
         width="60.150002"
         height="9.0699997"
         transform="rotate(90,408.07,98.05)"
         style="fill:#dbdbdb"
         id="rect62" />
      <rect
         x="396.54001"
         y="82.470001"
         width="23.129999"
         height="5.4499998"
         transform="rotate(90,408.11,85.2)"
         style="fill:#ebebeb"
         id="rect64" />
      <rect
         x="333.48001"
         y="99.230003"
         width="60.150002"
         height="9.0699997"
         transform="rotate(135.33,363.5529,103.78051)"
         style="fill:#c7c7c7"
         id="rect66" />
      <rect
         x="348.84"
         y="104.11"
         width="23.129999"
         height="5.4499998"
         transform="rotate(135.33,360.40546,106.84699)"
         style="fill:#dbdbdb"
         id="rect68" />
      <rect
         x="372.98999"
         y="97.580002"
         width="45.689999"
         height="15.41"
         transform="rotate(90,395.83,105.29)"
         style="fill:#a6a6a6"
         id="rect70" />
      <rect
         x="393.70001"
         y="113.46"
         width="4.2600002"
         height="15.41"
         transform="rotate(90,395.83,121.16)"
         style="fill:#c7c7c7"
         id="rect72" />
      <rect
         x="395.01001"
         y="107.71"
         width="1.65"
         height="15.41"
         transform="rotate(90,395.83,115.41)"
         style="fill:#c7c7c7"
         id="rect74" />
      <rect
         x="409.45001"
         y="101.34"
         width="42.939999"
         height="10.65"
         transform="rotate(90,430.915,106.665)"
         style="fill:#a6a6a6"
         id="rect76" />
      <rect
         x="428.91"
         y="116.26"
         width="4"
         height="10.65"
         transform="rotate(90,430.915,121.585)"
         style="fill:#c7c7c7"
         id="rect78" />
      <rect
         x="428.91"
         y="90.730003"
         width="4"
         height="10.65"
         transform="rotate(90,430.915,96.045)"
         style="fill:#c7c7c7"
         id="rect80" />
      <rect
         x="430.14001"
         y="96.239998"
         width="1.55"
         height="10.65"
         transform="rotate(90,430.915,101.565)"
         style="fill:#c7c7c7"
         id="rect82" />
    </g>
    <path
       d="M 345.96144,62.470012 H 153.57128 a 19.639852,17.59 0 0 0 -19.46121,17.76 V 434.94001 a 19.662183,17.61 0 0 0 19.46121,17.76 h 192.39016 a 19.673348,17.62 0 0 0 19.48354,-17.76 V 80.230012 a 19.651018,17.6 0 0 0 -19.48354,-17.76 z m 7.31331,361.499998 c 0,9.34 -7.81575,16.89 -17.44028,16.89 H 163.72058 c -9.64686,0 -17.46261,-7.55 -17.46261,-16.89 V 93.670012 c 0,-19 7.81575,-20 17.46261,-20 h 34.47861 c 2.00976,0 3.65107,2 3.65107,4.57 v 1.09 c 0,5.92 3.61757,5.94 8.05021,5.94 h 79.73178 c 4.46614,0 8.08371,0 8.08371,-5.94 v -1.04 c 0,-2.53 1.61898,-4.57 3.65107,-4.57 h 34.46744 c 9.6357,0 17.44028,2.53 17.44028,20 z"
       style="fill:#263238;stroke-width:1.05666"
       id="path115" />
    <path
       d="M 353.28591,93.670012 V 423.97001 c 0,9.34 -7.81574,16.89 -17.44028,16.89 H 163.73175 c -9.64687,0 -17.46261,-7.55 -17.46261,-16.89 V 93.670012 c 0,-19 7.81574,-20 17.46261,-20 h 34.4786 c 2.00976,0 3.65107,2 3.65107,4.57 v 1.09 c 0,5.92 3.61758,5.94 8.05022,5.94 h 79.73177 c 4.46614,0 8.08372,0 8.08372,-5.94 v -1.04 c 0,-2.53 1.61897,-4.57 3.65107,-4.57 h 34.46743 c 9.6357,0 17.44028,2.53 17.44028,19.95 z"
       style="fill:#ffffff;stroke-width:1.05666"
       id="path117" />
    <path
       d="M 353.28591,93.680012 V 123.68001 H 146.26914 V 93.680012 c 0,-19 7.81574,-20 17.46261,-20 h 34.4786 c 2.00976,0 3.65107,2 3.65107,4.57 v 1.09 c 0,5.92 3.61758,5.94 8.05022,5.94 h 79.73177 c 4.46614,0 8.08372,0 8.08372,-5.94 v -1.04 c 0,-2.53 1.61897,-4.57 3.65107,-4.57 h 34.46743 c 9.6357,0 17.44028,2.53 17.44028,19.95 z"
       style="fill:#ffc727;stroke-width:1.05666"
       id="path119" />
    <path
       d="m 260.64699,77.640012 h -21.7501 a 1.3510075,1.21 0 0 1 -1.33984,-1.21 v 0 a 1.3398421,1.2 0 0 1 1.33984,-1.2 h 21.7501 a 1.3398421,1.2 0 0 1 1.33985,1.2 v 0 a 1.3398421,1.2 0 0 1 -1.33985,1.21 z"
       style="fill:#ffffff;stroke-width:1.05666"
       id="path121" />
    <rect
       x="159.76804"
       y="101.97002"
       width="17.96505"
       height="10.2"
       style="fill:#ffffff;stroke-width:1.05666"
       id="rect123" />
    <path
       d="m 177.74426,101.97001 c -0.72574,0.62 -1.46266,1.22 -2.23307,1.83 l -2.23307,1.79 -2.23307,1.84 -0.067,0.06 -2.16608,1.61 -0.10049,0.07 -0.10048,-0.07 -2.0321,-1.62 h -0.067 c -0.78157,-0.61 -1.56315,-1.22 -2.33356,-1.84 l -2.23307,-1.79 c -0.72575,-0.61 -1.46266,-1.21 -2.23307,-1.83 0.77041,0.54 1.52965,1.09 2.23307,1.64 0.70342,0.55 1.51849,1.11 2.23307,1.68 0.71458,0.57 1.68597,1.26 2.52337,1.9 v 0 l 1.87578,1.44 1.88694,-1.44 v 0 l 2.51221,-1.9 2.23307,-1.67 z"
       style="fill:#ffc727;stroke-width:1.05666"
       id="path125" />
    <path
       d="m 166.88038,107.42001 c 0,0 0,0 0,0 l -0.2903,0.21 c -0.44662,0.34 -0.91556,0.67 -1.38451,1 -0.46894,0.33 -1.11653,0.76 -1.74179,1.13 -0.62526,0.37 -1.18353,0.73 -1.78646,1.08 -0.60293,0.35 -1.22819,0.69 -1.85344,1 0.53593,-0.43 1.11653,-0.83 1.6748,-1.22 0.55827,-0.39 1.11653,-0.76 1.75296,-1.13 0.63642,-0.37 1.18353,-0.73 1.78645,-1.08 0.60293,-0.35 0.98255,-0.55 1.485,-0.81 a 3.4277628,3.07 0 0 1 0.34612,-0.17 z"
       style="fill:#ffc727;stroke-width:1.05666"
       id="path127" />
    <path
       d="m 177.74426,111.85001 c -0.63642,-0.31 -1.25052,-0.65 -1.85344,-1 -0.60293,-0.35 -1.20586,-0.71 -1.79763,-1.08 -0.59176,-0.37 -1.17236,-0.74 -1.74179,-1.13 -0.56943,-0.39 -0.92673,-0.64 -1.37334,-1 l -0.2903,-0.21 v 0 0 l 0.34613,0.18 q 0.75924,0.39 1.47382,0.81 c 0.6141,0.35 1.20586,0.71 1.79763,1.08 0.59176,0.37 1.17236,0.74 1.74179,1.13 0.56943,0.39 1.0942,0.79 1.69713,1.22 z"
       style="fill:#ffc727;stroke-width:1.05666"
       id="path129" />
    <path
       d="m 181.58514,101.97001 a 3.8520461,3.45 0 1 1 -3.84088,-3.449998 3.8520461,3.45 0 0 1 3.84088,3.449998 z"
       style="fill:#455a64;stroke-width:1.05666"
       id="path131" />
    <path
       d="m 179.00595,102.66001 a 0.31262983,0.28 0 0 1 -0.31263,0.27 v 0 0.38 a 0.31262983,0.28 0 0 1 -0.6141,0 v -0.38 h -1.74179 a 0.24563772,0.22 0 0 1 -0.18981,-0.06 0.29029913,0.26 0 0 1 0,-0.38 l 1.94277,-2.32 c 0,0 0,0 0,0 0,0 0,0 0,0 v 0 0 h 0.0893 c 0,0 0,0 0,0 h 0.17865 v 0 0 0 0 0 0 c 0,0 0,0 0,0 v 0 c 0,0 0,0 0,0 v 2 0 a 0.42387914,0.37963799 0 0 1 0.64759,0.49 z m -0.98255,-1.5 -1.11654,1.23 h 1.11654 z"
       style="fill:#ffffff;stroke-width:1.05666"
       id="path133" />
    <g
       id="freepik--u5Zjqx--inject-152"
       transform="matrix(1.1165351,0,0,1,-72.359599,4.1700116)">
      <path
         d="m 237,76.68 -0.3,0.3 -0.17,0.17 a 4.07,4.07 0 0 0 -5.75,0 l -0.16,-0.17 c -0.1,-0.1 -0.2,-0.19 -0.29,-0.29 v 0 0 l 0.38,-0.34 a 4.13,4.13 0 0 1 0.87,-0.55 4.29,4.29 0 0 1 1.16,-0.39 c 0.19,0 0.38,0 0.57,-0.08 h 0.51 0.39 a 4.22,4.22 0 0 1 1.06,0.26 4.69,4.69 0 0 1 0.72,0.33 5.33,5.33 0 0 1 0.69,0.48 l 0.31,0.29 z"
         style="fill:#ffffff"
         id="path135" />
      <path
         d="m 231.72,78.09 -0.47,-0.47 a 3.27,3.27 0 0 1 1.91,-1 3.36,3.36 0 0 1 2.89,1 l -0.47,0.47 a 2.73,2.73 0 0 0 -1.93,-0.79 2.7,2.7 0 0 0 -1.93,0.79 z"
         style="fill:#ffffff"
         id="path137" />
      <path
         d="m 235.11,78.56 c -0.16,0.15 -0.32,0.31 -0.47,0.47 a 1.37,1.37 0 0 0 -1,-0.41 1.35,1.35 0 0 0 -1,0.41 l -0.47,-0.47 a 2.06,2.06 0 0 1 2.94,0 z"
         style="fill:#ffffff"
         id="path139" />
      <path
         d="m 234.07,79.45 a 0.43,0.43 0 1 1 -0.42,-0.42 0.42,0.42 0 0 1 0.42,0.42 z"
         style="fill:#ffffff"
         id="path141" />
    </g>
    <path
       d="m 159.76805,81.750012 a 1.3733382,1.23 0 1 1 1.37334,1.23 1.3733382,1.23 0 0 1 -1.37334,-1.23 z"
       style="fill:#ffffff;stroke-width:1.05666"
       id="path144" />
    <path
       d="m 164.08904,81.750012 a 1.3733382,1.23 0 1 1 1.37334,1.23 1.3733382,1.23 0 0 1 -1.37334,-1.23 z"
       style="fill:#ffffff;stroke-width:1.05666"
       id="path146" />
    <path
       d="m 168.41003,81.750012 a 1.3733382,1.23 0 1 1 1.37334,1.23 1.3733382,1.23 0 0 1 -1.37334,-1.23 z"
       style="fill:#ffffff;stroke-width:1.05666"
       id="path148" />
    <path
       d="m 172.73102,81.750012 a 1.3733382,1.23 0 1 1 1.37334,1.23 1.3733382,1.23 0 0 1 -1.37334,-1.23 z"
       style="fill:#ffffff;stroke-width:1.05666"
       id="path150" />
    <path
       d="m 177.05201,81.750012 a 1.3733382,1.23 0 1 1 1.37334,1.23 1.3733382,1.23 0 0 1 -1.37334,-1.23 z"
       style="fill:#ffffff;stroke-width:1.05666"
       id="path152" />
    <path
       d="m 337.74374,84.440012 h -11.16535 v -4.64 h 11.16535 z m -10.59591,-0.51 h 10.04881 v -3.62 h -10.04881 z"
       style="fill:#ffffff;stroke-width:1.05666"
       id="path154" />
    <rect
       x="327.50513"
       y="80.590012"
       width="7.2016511"
       height="3.0599999"
       style="fill:#ffffff;stroke-width:1.05666"
       id="rect156" />
    <rect
       x="337.75491"
       y="80.880013"
       width="0.99371624"
       height="2.48"
       style="fill:#ffffff;stroke-width:1.05666"
       id="rect158" />
    <path
       d="m 231.96321,103.95001 a 0.65875571,0.59 0 0 1 0.66992,-0.6 0.66992106,0.6 0 0 1 0.68109,0.6 v 6.41 a 0.66992106,0.6 0 0 1 -0.68109,0.6 0.65875571,0.59 0 0 1 -0.66992,-0.6 z"
       style="fill:#ffffff;stroke-width:1.05666"
       id="path160" />
    <path
       d="m 236.92062,110.36001 a 0.66992106,0.6 0 0 1 -0.65875,0.6 0.65875571,0.59 0 0 1 -0.65876,-0.6 v -6.32 0 a 0.63642501,0.57 0 0 1 0.25681,-0.5 0.68108641,0.61 0 0 1 0.92672,0.13 l 3.91904,4.86 v -4.49 a 0.65875571,0.59 0 0 1 0.65875,-0.58 0.66992106,0.6 0 0 1 0.66992,0.58 v 6.32 a 0.66992106,0.6 0 0 1 -0.66992,0.6 0.68108641,0.61 0 0 1 -0.50244,-0.22 v -0.06 l -3.94137,-4.83 z"
       style="fill:#ffffff;stroke-width:1.05666"
       id="path162" />
    <path
       d="m 244.94851,110.36001 v -6.41 a 0.66992106,0.6 0 0 1 0.66992,-0.6 h 1.71947 a 2.3112277,2.07 0 0 1 2.31122,2.06 2.2330702,2 0 0 1 -0.46894,1.24 2.6015268,2.33 0 0 1 -1.36217,4.31 h -2.15492 v 0 a 0.66992106,0.6 0 0 1 -0.71458,-0.6 z m 1.35101,-4.06 h 1.03838 a 0.98255089,0.88 0 0 0 0.96022,-0.89 0.94905483,0.85 0 0 0 -0.96022,-0.85 h -1.03838 z m 0,3.45 h 1.51849 a 1.2616847,1.13 0 0 0 0,-2.25 h -1.51849 z"
       style="fill:#ffffff;stroke-width:1.05666"
       id="path164" />
    <path
       d="m 258.86054,104.29001 a 4.4661404,4 0 0 1 0,5.51 3.9971957,3.58 0 0 1 -2.90299,1.16 4.1200145,3.69 0 0 1 -2.96999,-1.16 4.5219672,4.05 0 0 1 0,-5.51 4.0753531,3.65 0 0 1 2.96999,-1.12 3.9636996,3.55 0 0 1 2.90299,1.12 z m -0.15632,2.75 a 3.1374636,2.81 0 0 0 -0.82623,-1.9 2.5903614,2.32 0 0 0 -1.92044,-0.77 2.6461882,2.37 0 0 0 -1.9651,0.77 3.1374636,2.81 0 0 0 -0.82624,1.9 3.0928022,2.77 0 0 0 0.82624,1.9 2.6573535,2.38 0 0 0 1.9651,0.78 2.6015268,2.33 0 0 0 1.92044,-0.78 3.0928022,2.77 0 0 0 0.82623,-1.9 z"
       style="fill:#ffffff;stroke-width:1.05666"
       id="path166" />
    <path
       d="m 267.9603,104.38001 -2.31123,2.79 2.31123,2.82 a 0.66992106,0.6 0 0 1 -0.14515,0.83 0.65875571,0.59 0 0 1 -0.39079,0.12 0.71458246,0.64 0 0 1 -0.5471,-0.25 l -2.04326,-2.52 -2.05442,2.51 a 0.71458246,0.64 0 0 1 -0.53594,0.25 0.6140943,0.55 0 0 1 -0.39079,-0.12 0.66992106,0.6 0 0 1 -0.15631,-0.83 l 2.31123,-2.82 -2.31123,-2.81 a 0.65875571,0.59 0 0 1 0.15631,-0.82 0.62525966,0.56 0 0 1 0.92673,0.13 l 2.05442,2.51 2.0321,-2.5 a 0.63642501,0.57 0 0 1 0.93788,-0.13 0.65875571,0.59 0 0 1 0.15632,0.84 z"
       style="fill:#ffffff;stroke-width:1.05666"
       id="path168" />
    <path
       d="m 324.76961,110.90001 -1.40684,1 -2.60153,-3.08 -0.94905,-1.13 a 2.4005505,2.15 0 0 0 0.5471,-0.27 2.322393,2.08 0 0 0 0.71458,-0.84 l 1.01605,1.19 z"
       style="fill:#ffffff;stroke-width:1.05666"
       id="path170" />
    <path
       d="m 322.0006,103.64001 a 3.8408807,3.44 0 1 0 -1.23936,5.13 3.3496053,3 0 0 0 0.53594,-0.31 3.4724242,3.11 0 0 0 0.79274,-0.74 3.8408807,3.44 0 0 0 -0.0893,-4.08 z m -1.64131,3.73 a 2.4005505,2.15 0 0 1 -0.5471,0.27 2.288897,2.05 0 1 1 1.26168,-1.11 2.322393,2.08 0 0 1 -0.71458,0.84 z"
       style="fill:#ffffff;stroke-width:1.05666"
       id="path172" />
    <rect
       x="295.47174"
       y="102.50002"
       width="10.205132"
       height="9.1400003"
       style="fill:#ffffff;stroke-width:1.05666"
       id="rect174" />
    <rect
       x="300.01602"
       y="104.20001"
       width="1.1165351"
       height="5.75"
       style="fill:#ffc727;stroke-width:1.05666"
       id="rect176" />
    <rect
       x="-107.57"
       y="297.35867"
       width="1"
       height="6.4200768"
       transform="rotate(-90)"
       style="fill:#ffc727;stroke-width:1.05666"
       id="rect178" />
    <path
       d="m 337.74374,103.09001 a 0.88206273,0.79 0 1 1 -0.88206,-0.79 0.88206273,0.79 0 0 1 0.88206,0.79 z"
       style="fill:#ffffff;stroke-width:1.05666"
       id="path180" />
    <path
       d="m 337.74374,107.17001 a 0.88206273,0.79 0 0 1 -1.76412,0 0.88206273,0.79 0 1 1 1.76412,0 z"
       style="fill:#ffffff;stroke-width:1.05666"
       id="path182" />
    <path
       d="m 337.74374,111.29001 a 0.88206273,0.79 0 1 1 -1.76412,0 0.88206273,0.79 0 0 1 1.76412,0 z"
       style="fill:#ffffff;stroke-width:1.05666"
       id="path184" />
    <rect
       x="146.26913"
       y="123.64001"
       width="207.0056"
       height="28.629999"
       style="fill:#ebebeb;stroke-width:1.05666"
       id="rect186" />
    <path
       d="m 179.97733,143.49001 a 7.1234939,6.38 0 0 1 -2.09908,0.78 7.2351474,6.48 0 1 1 2.09908,-0.78 z"
       style="fill:#ffc727;stroke-width:1.05666"
       id="path188" />
    <path
       d="m 178.3137,137.17001 a 2.2330702,2 0 1 1 -2.23307,-2 2.2330702,2 0 0 1 2.23307,2 z"
       style="fill:#ffffff;stroke-width:1.05666"
       id="path190" />
    <path
       d="m 179.97733,142.67001 v 0.82 a 7.1234939,6.38 0 0 1 -2.09908,0.78 7.2574781,6.5 0 0 1 -5.58268,-0.78 v -0.82 a 3.81855,3.42 0 0 1 7.6371,0 z"
       style="fill:#ffffff;stroke-width:1.05666"
       id="path192" />
    <polygon
       points="263.36,138.09 254.76,138.09 258.27,133.79 254.76,129.49 263.36,129.49 266.87,133.79 "
       style="fill:#ffffff"
       id="polygon194"
       transform="matrix(1.1165351,0,0,1,-72.359599,4.1700116)" />
    <polygon
       points="245.78,132.77 243.52,134.98 244.06,138.09 241.26,136.62 238.47,138.09 239,134.98 236.74,132.77 239.86,132.32 241.26,129.49 242.66,132.32 "
       style="fill:#ffc727"
       id="polygon196"
       transform="matrix(1.1165351,0,0,1,-72.359599,4.1700116)" />
    <rect
       x="232.49916"
       y="136.21001"
       width="56.652992"
       height="3.5"
       style="fill:#263238;stroke-width:1.05666"
       id="rect198" />
    <rect
       x="312.4989"
       y="136.21001"
       width="22.207882"
       height="3.5"
       style="fill:#455a64;stroke-width:1.05666"
       id="rect200" />
    <path
       d="m 179.97733,172.17001 a 7.1234939,6.38 0 0 1 -2.09908,0.78 7.2351474,6.48 0 1 1 2.09908,-0.78 z"
       style="fill:#455a64;stroke-width:1.05666"
       id="path202" />
    <path
       d="m 178.3137,165.85001 a 2.2330702,2 0 1 1 -2.23307,-2 2.2330702,2 0 0 1 2.23307,2 z"
       style="fill:#ffffff;stroke-width:1.05666"
       id="path204" />
    <path
       d="m 179.97733,171.30001 v 0.87 a 7.1234939,6.38 0 0 1 -2.09908,0.78 7.2016514,6.45 0 0 1 -5.58268,-0.78 v -0.82 a 3.81855,3.42 0 0 1 7.6371,0 z"
       style="fill:#ffffff;stroke-width:1.05666"
       id="path206" />
    <polygon
       points="263.36,166.72 254.76,166.72 258.27,162.42 254.76,158.12 263.36,158.12 266.87,162.42 "
       style="fill:#ffffff"
       id="polygon208"
       transform="matrix(1.1165351,0,0,1,-72.359599,4.1700116)" />
    <path
       d="m 221.82507,171.17001 h -10.32795 l 4.15351,-4.55 -4.15351,-4.55 h 10.32795 l 4.14234,4.55 z m -9.14442,-0.5 h 8.93228 l 3.68456,-4.05 -3.68456,-4 h -8.93228 l 3.68456,4 z"
       style="fill:#ebebeb;stroke-width:1.05666"
       id="path210" />
    <polygon
       points="245.78,161.4 243.52,163.61 244.06,166.72 241.26,165.25 238.47,166.72 239,163.61 236.74,161.4 239.86,160.95 241.26,158.12 242.66,160.95 "
       style="fill:#ffc727"
       id="polygon212"
       transform="matrix(1.1165351,0,0,1,-72.359599,4.1700116)" />
    <rect
       x="232.49916"
       y="164.84001"
       width="56.652992"
       height="3.5"
       style="fill:#263238;stroke-width:1.05666"
       id="rect214" />
    <rect
       x="312.4989"
       y="164.84001"
       width="22.207882"
       height="3.5"
       style="fill:#455a64;stroke-width:1.05666"
       id="rect216" />
    <rect
       x="146.26913"
       y="180.90001"
       width="207.0056"
       height="28.629999"
       style="fill:#ebebeb;stroke-width:1.05666"
       id="rect218" />
    <path
       d="m 179.97733,229.38001 a 7.4584545,6.68 0 0 1 -2.09908,0.79 7.2798089,6.52 0 1 1 2.09908,-0.79 z"
       style="fill:#a6a6a6;stroke-width:1.05666"
       id="path234" />
    <path
       d="m 178.3137,223.11001 a 2.2330702,2 0 1 1 -2.23307,-2 2.2330702,2 0 0 1 2.23307,2 z"
       style="fill:#ffffff;stroke-width:1.05666"
       id="path236" />
    <path
       d="m 179.97733,228.57001 v 0.81 a 7.4584545,6.68 0 0 1 -2.09908,0.79 7.2128167,6.46 0 0 1 -5.58268,-0.79 v -0.81 a 3.81855,3.42 0 1 1 7.6371,0 z"
       style="fill:#ffffff;stroke-width:1.05666"
       id="path238" />
    <polygon
       points="263.36,223.98 254.76,223.98 258.27,219.68 254.76,215.38 263.36,215.38 266.87,219.68 "
       style="fill:#ffffff"
       id="polygon240"
       transform="matrix(1.1165351,0,0,1,-72.359599,4.1700116)" />
    <path
       d="m 221.82507,228.40001 h -10.32795 l 4.15351,-4.55 -4.15351,-4.55 h 10.32795 l 4.14234,4.55 z m -9.14442,-0.5 h 8.93228 l 3.68456,-4 -3.68456,-4.05 h -8.93228 l 3.68456,4.05 z"
       style="fill:#ebebeb;stroke-width:1.05666"
       id="path242" />
    <polygon
       points="245.78,218.67 243.52,220.87 244.06,223.98 241.26,222.51 238.47,223.98 239,220.87 236.74,218.67 239.86,218.21 241.26,215.38 242.66,218.21 "
       style="fill:#ffc727"
       id="polygon244"
       transform="matrix(1.1165351,0,0,1,-72.359599,4.1700116)" />
    <rect
       x="232.49916"
       y="222.10001"
       width="56.652992"
       height="3.5"
       style="fill:#dbdbdb;stroke-width:1.05666"
       id="rect246" />
    <rect
       x="312.4989"
       y="222.10001"
       width="22.207882"
       height="3.5"
       style="fill:#c7c7c7;stroke-width:1.05666"
       id="rect248" />
    <rect
       x="146.26913"
       y="238.17001"
       width="207.0056"
       height="28.629999"
       style="fill:#ebebeb;stroke-width:1.05666"
       id="rect250" />
    <path
       d="m 179.97733,258.01001 a 7.4584545,6.68 0 0 1 -2.09908,0.79 7.2798089,6.52 0 1 1 2.09908,-0.79 z"
       style="fill:#37474f;stroke-width:1.05666"
       id="path252" />
    <path
       d="m 178.3137,251.74001 a 2.2330702,2 0 1 1 -2.23307,-2 2.2330702,2 0 0 1 2.23307,2 z"
       style="fill:#ffffff;stroke-width:1.05666"
       id="path254" />
    <path
       d="m 179.97733,257.17001 v 0.81 a 7.4584545,6.68 0 0 1 -2.09908,0.79 7.2128167,6.46 0 0 1 -5.58268,-0.79 v -0.81 a 3.81855,3.42 0 0 1 7.6371,0 z"
       style="fill:#ffffff;stroke-width:1.05666"
       id="path256" />
    <polygon
       points="263.36,252.61 254.76,252.61 258.27,248.31 254.76,244.01 263.36,244.01 266.87,248.31 "
       style="fill:#ffffff"
       id="polygon258"
       transform="matrix(1.1165351,0,0,1,-72.359599,4.1700116)" />
    <polygon
       points="245.78,247.3 243.52,249.5 244.06,252.61 241.26,251.14 238.47,252.61 239,249.5 236.74,247.3 239.86,246.84 241.26,244.01 242.66,246.84 "
       style="fill:#ffc727"
       id="polygon260"
       transform="matrix(1.1165351,0,0,1,-72.359599,4.1700116)" />
    <rect
       x="232.49916"
       y="250.73001"
       width="56.652992"
       height="3.5"
       style="fill:#dbdbdb;stroke-width:1.05666"
       id="rect262" />
    <rect
       x="312.4989"
       y="250.73001"
       width="22.207882"
       height="3.5"
       style="fill:#c7c7c7;stroke-width:1.05666"
       id="rect264" />
    <path
       d="m 353.28591,409.95001 v 14 a 19.148577,17.15 0 0 1 -8.68664,14.61 H 154.96695 a 19.137412,17.14 0 0 1 -8.68665,-14.61 v -14 z"
       style="fill:#ebebeb;stroke-width:1.05666"
       id="path266" />
    <path
       d="m 179.97733,429.80001 a 7.4584545,6.68 0 0 1 -2.09908,0.79 7.2798089,6.52 0 1 1 2.09908,-0.79 z"
       style="fill:#ffc727;stroke-width:1.05666"
       id="path268" />
    <path
       d="m 178.3137,423.53001 a 2.2330702,2 0 1 1 -2.23307,-2 2.2330702,2 0 0 1 2.23307,2 z"
       style="fill:#ffffff;stroke-width:1.05666"
       id="path270" />
    <path
       d="m 179.97733,428.98001 v 0.82 a 7.4584545,6.68 0 0 1 -2.09908,0.79 7.2574781,6.5 0 0 1 -5.58268,-0.79 v -0.82 a 3.81855,3.42 0 0 1 7.6371,0 z"
       style="fill:#ffffff;stroke-width:1.05666"
       id="path272" />
    <polygon
       points="263.36,424.4 254.76,424.4 258.27,420.1 254.76,415.8 263.36,415.8 266.87,420.1 "
       style="fill:#ffffff"
       id="polygon274"
       transform="matrix(1.1165351,0,0,1,-72.359599,4.1700116)" />
    <polygon
       points="245.78,419.08 243.52,421.29 244.06,424.4 241.26,422.93 238.47,424.4 239,421.29 236.74,419.08 239.86,418.63 241.26,415.8 242.66,418.63 "
       style="fill:#ffc727"
       id="polygon276"
       transform="matrix(1.1165351,0,0,1,-72.359599,4.1700116)" />
    <rect
       x="232.49916"
       y="422.52002"
       width="56.652992"
       height="3.5"
       style="fill:#dbdbdb;stroke-width:1.05666"
       id="rect278" />
    <rect
       x="312.4989"
       y="422.52002"
       width="22.207882"
       height="3.5"
       style="fill:#c7c7c7;stroke-width:1.05666"
       id="rect280" />
    <path
       d="m 179.97733,286.64001 a 7.2686435,6.51 0 0 1 -10.87505,-4 7.2686435,6.51 0 1 1 10.87505,4 z"
       style="fill:#263238;stroke-width:1.05666"
       id="path282" />
    <path
       d="m 178.3137,280.37001 a 2.2330702,2 0 1 1 -2.23307,-2 2.2330702,2 0 0 1 2.23307,2 z"
       style="fill:#ffffff;stroke-width:1.05666"
       id="path284" />
    <path
       d="m 179.97733,285.83001 v 0.81 a 7.2351474,6.48 0 0 1 -7.6371,0 v -0.81 a 3.81855,3.42 0 1 1 7.6371,0 z"
       style="fill:#ffffff;stroke-width:1.05666"
       id="path286" />
    <polygon
       points="263.36,281.24 254.76,281.24 258.27,276.94 254.76,272.64 263.36,272.64 266.87,276.94 "
       style="fill:#ffffff"
       id="polygon288"
       transform="matrix(1.1165351,0,0,1,-72.359599,4.1700116)" />
    <path
       d="m 221.82507,285.66001 h -10.32795 l 4.15351,-4.55 -4.15351,-4.55 h 10.32795 l 4.14234,4.55 z m -9.14442,-0.5 h 8.93228 l 3.68456,-4.05 -3.68456,-4.05 h -8.93228 l 3.68456,4.05 z"
       style="fill:#ebebeb;stroke-width:1.05666"
       id="path290" />
    <polygon
       points="245.78,275.93 243.52,278.13 244.06,281.24 241.26,279.77 238.47,281.24 239,278.13 236.74,275.93 239.86,275.47 241.26,272.64 242.66,275.47 "
       style="fill:#ffffff"
       id="polygon292"
       transform="matrix(1.1165351,0,0,1,-72.359599,4.1700116)" />
    <path
       d="m 200.51041,285.87001 -3.49475,-1.64 -3.49476,1.64 0.66993,-3.48 -2.82484,-2.47 3.90787,-0.5 1.7418,-3.17 1.74179,3.17 3.90788,0.5 -2.82484,2.47 z m -3.49475,-2.21 2.74668,1.3 -0.52478,-2.75 2.23307,-1.94 -3.08163,-0.4 -1.37334,-2.49 -1.40683,2.49 -3.07048,0.4 2.23307,1.94 -0.52477,2.75 z"
       style="fill:#ebebeb;stroke-width:1.05666"
       id="path294" />
    <rect
       x="232.49916"
       y="279.36002"
       width="56.652992"
       height="3.5"
       style="fill:#dbdbdb;stroke-width:1.05666"
       id="rect296" />
    <rect
       x="312.4989"
       y="279.36002"
       width="22.207882"
       height="3.5"
       style="fill:#c7c7c7;stroke-width:1.05666"
       id="rect298" />
    <rect
       x="146.26913"
       y="295.43002"
       width="207.0056"
       height="28.629999"
       style="fill:#ebebeb;stroke-width:1.05666"
       id="rect300" />
    <path
       d="m 179.97733,315.28001 a 7.4361238,6.66 0 0 1 -2.09908,0.78 7.2574781,6.5 0 1 1 5.33704,-7.86 7.2798089,6.52 0 0 1 -3.23796,7.08 z"
       style="fill:#ffc727;stroke-width:1.05666"
       id="path302" />
    <path
       d="m 178.3137,309.00001 a 2.2330702,2 0 1 1 -2.23307,-2 2.2330702,2 0 0 1 2.23307,2 z"
       style="fill:#ffffff;stroke-width:1.05666"
       id="path304" />
    <path
       d="m 179.97733,314.46001 v 0.82 a 7.4361238,6.66 0 0 1 -2.09908,0.78 7.2128167,6.46 0 0 1 -5.58268,-0.79 v -0.81 a 3.81855,3.42 0 1 1 7.6371,0 z"
       style="fill:#ffffff;stroke-width:1.05666"
       id="path306" />
    <polygon
       points="263.36,309.88 254.76,309.88 258.27,305.57 254.76,301.27 263.36,301.27 266.87,305.57 "
       style="fill:#ffffff"
       id="polygon308"
       transform="matrix(1.1165351,0,0,1,-72.359599,4.1700116)" />
    <polygon
       points="245.78,304.56 243.52,306.76 244.06,309.88 241.26,308.41 238.47,309.88 239,306.76 236.74,304.56 239.86,304.11 241.26,301.27 242.66,304.11 "
       style="fill:#ffc727"
       id="polygon310"
       transform="matrix(1.1165351,0,0,1,-72.359599,4.1700116)" />
    <rect
       x="232.49916"
       y="308"
       width="56.652992"
       height="3.5"
       style="fill:#263238;stroke-width:1.05666"
       id="rect312" />
    <rect
       x="312.4989"
       y="308"
       width="22.207882"
       height="3.5"
       style="fill:#455a64;stroke-width:1.05666"
       id="rect314" />
    <path
       d="m 179.97733,343.91001 a 7.1234939,6.38 0 0 1 -2.09908,0.78 7.2574781,6.5 0 1 1 5.33704,-7.86 7.2798089,6.52 0 0 1 -3.23796,7.08 z"
       style="fill:#ffc727;stroke-width:1.05666"
       id="path316" />
    <path
       d="m 178.3137,337.63001 a 2.2330702,2 0 1 1 -2.23307,-2 2.2330702,2 0 0 1 2.23307,2 z"
       style="fill:#ffffff;stroke-width:1.05666"
       id="path318" />
    <path
       d="m 179.97733,343.09001 v 0.82 a 7.1234939,6.38 0 0 1 -2.09908,0.78 7.2128167,6.46 0 0 1 -5.58268,-0.79 v -0.81 a 3.81855,3.42 0 1 1 7.6371,0 z"
       style="fill:#ffffff;stroke-width:1.05666"
       id="path320" />
    <polygon
       points="263.36,338.51 254.76,338.51 258.27,334.21 254.76,329.91 263.36,329.91 266.87,334.21 "
       style="fill:#ffffff"
       id="polygon322"
       transform="matrix(1.1165351,0,0,1,-72.359599,4.1700116)" />
    <path
       d="m 221.82507,342.93001 h -10.32795 l 4.15351,-4.55 -4.15351,-4.55 h 10.32795 l 4.14234,4.55 z m -9.14442,-0.5 h 8.93228 l 3.68456,-4.05 -3.68456,-4 h -8.93228 l 3.68456,4 z"
       style="fill:#ebebeb;stroke-width:1.05666"
       id="path324" />
    <polygon
       points="245.78,333.19 243.52,335.39 244.06,338.51 241.26,337.04 238.47,338.51 239,335.39 236.74,333.19 239.86,332.74 241.26,329.91 242.66,332.74 "
       style="fill:#ffffff"
       id="polygon326"
       transform="matrix(1.1165351,0,0,1,-72.359599,4.1700116)" />
    <path
       d="m 200.51041,343.17001 -3.49475,-1.64 -3.49476,1.64 0.66993,-3.48 -2.82484,-2.52 3.90787,-0.51 1.7418,-3.17 1.74179,3.17 3.90788,0.51 -2.82484,2.46 z m -7.93856,-5.59 2.23307,1.94 -0.52477,2.74 2.74667,-1.3 2.74668,1.3 -0.52477,-2.74 2.23307,-1.94 -3.08164,-0.41 -1.37334,-2.49 -1.418,2.49 z"
       style="fill:#ebebeb;stroke-width:1.05666"
       id="path328" />
    <rect
       x="232.49916"
       y="336.63"
       width="56.652992"
       height="3.5"
       style="fill:#dbdbdb;stroke-width:1.05666"
       id="rect330" />
    <rect
       x="312.4989"
       y="336.63"
       width="22.207882"
       height="3.5"
       style="fill:#c7c7c7;stroke-width:1.05666"
       id="rect332" />
    <rect
       x="146.26913"
       y="352.69"
       width="207.0056"
       height="28.629999"
       style="fill:#ebebeb;stroke-width:1.05666"
       id="rect334" />
    <path
       d="m 179.97733,372.54001 a 7.1234939,6.38 0 0 1 -2.09908,0.78 7.2351474,6.48 0 1 1 2.09908,-0.78 z"
       style="fill:#455a64;stroke-width:1.05666"
       id="path336" />
    <path
       d="m 178.3137,366.26001 a 2.2330702,2 0 1 1 -2.23307,-2 2.2330702,2 0 0 1 2.23307,2 z"
       style="fill:#ffffff;stroke-width:1.05666"
       id="path338" />
    <path
       d="m 179.97733,371.72001 v 0.82 a 7.1234939,6.38 0 0 1 -2.09908,0.78 7.2574781,6.5 0 0 1 -5.58268,-0.78 v -0.82 a 3.81855,3.42 0 0 1 7.6371,0 z"
       style="fill:#ffffff;stroke-width:1.05666"
       id="path340" />
    <polygon
       points="263.36,367.14 254.76,367.14 258.27,362.84 254.76,358.54 263.36,358.54 266.87,362.84 "
       style="fill:#ffffff"
       id="polygon342"
       transform="matrix(1.1165351,0,0,1,-72.359599,4.1700116)" />
    <polygon
       points="245.78,361.82 243.52,364.02 244.06,367.14 241.26,365.67 238.47,367.14 239,364.02 236.74,361.82 239.86,361.37 241.26,358.54 242.66,361.37 "
       style="fill:#ffffff"
       id="polygon344"
       transform="matrix(1.1165351,0,0,1,-72.359599,4.1700116)" />
    <rect
       x="232.49916"
       y="365.26001"
       width="56.652992"
       height="3.5"
       style="fill:#dbdbdb;stroke-width:1.05666"
       id="rect346" />
    <rect
       x="312.4989"
       y="365.26001"
       width="22.207882"
       height="3.5"
       style="fill:#c7c7c7;stroke-width:1.05666"
       id="rect348" />
    <path
       d="m 179.97733,401.17001 a 7.1234939,6.38 0 0 1 -2.09908,0.78 7.2351474,6.48 0 1 1 2.09908,-0.78 z"
       style="fill:#a6a6a6;stroke-width:1.05666"
       id="path350" />
    <path
       d="m 178.3137,394.90001 a 2.2330702,2 0 1 1 -2.23307,-2 2.2330702,2 0 0 1 2.23307,2 z"
       style="fill:#ffffff;stroke-width:1.05666"
       id="path352" />
    <path
       d="m 179.97733,400.35001 v 0.82 a 7.1234939,6.38 0 0 1 -2.09908,0.78 7.2016514,6.45 0 0 1 -5.58268,-0.78 v -0.82 a 3.81855,3.42 0 0 1 7.6371,0 z"
       style="fill:#ffffff;stroke-width:1.05666"
       id="path354" />
    <polygon
       points="263.36,395.77 254.76,395.77 258.27,391.47 254.76,387.17 263.36,387.17 266.87,391.47 "
       style="fill:#ffffff"
       id="polygon356"
       transform="matrix(1.1165351,0,0,1,-72.359599,4.1700116)" />
    <path
       d="m 221.82507,400.17001 h -10.32795 l 4.15351,-4.55 -4.15351,-4.55 h 10.32795 l 4.14234,4.55 z m -9.14442,-0.5 h 8.93228 l 3.68456,-4 -3.68456,-4.05 h -8.93228 l 3.68456,4.05 z"
       style="fill:#ebebeb;stroke-width:1.05666"
       id="path358" />
    <polygon
       points="245.78,390.45 243.52,392.66 244.06,395.77 241.26,394.3 238.47,395.77 239,392.66 236.74,390.45 239.86,390 241.26,387.17 242.66,390 "
       style="fill:#ffffff"
       id="polygon360"
       transform="matrix(1.1165351,0,0,1,-72.359599,4.1700116)" />
    <path
       d="m 200.51041,400.40001 -3.49475,-1.65 -3.49476,1.65 0.66993,-3.49 -2.82484,-2.46 3.90787,-0.51 1.7418,-3.17 1.74179,3.17 3.90788,0.51 -2.82484,2.46 z m -3.49475,-2.23 2.74668,1.29 -0.52478,-2.74 2.23307,-1.94 -3.08163,-0.4 -1.37334,-2.5 -1.37334,2.5 -3.07047,0.4 2.23307,1.94 -0.52477,2.74 z"
       style="fill:#ebebeb;stroke-width:1.05666"
       id="path362" />
    <rect
       x="232.49916"
       y="393.89001"
       width="56.652992"
       height="3.5"
       style="fill:#dbdbdb;stroke-width:1.05666"
       id="rect364" />
    <rect
       x="312.4989"
       y="393.89001"
       width="22.207882"
       height="3.5"
       style="fill:#c7c7c7;stroke-width:1.05666"
       id="rect366" />
  </g>
</svg>
