<?xml version="1.0" encoding="UTF-8" standalone="no"?>
<svg
   viewBox="0 0 500 500"
   version="1.1"
   id="svg490"
   sodipodi:docname="104.svg"
   inkscape:version="1.1.2 (0a00cf5339, 2022-02-04)"
   xmlns:inkscape="http://www.inkscape.org/namespaces/inkscape"
   xmlns:sodipodi="http://sodipodi.sourceforge.net/DTD/sodipodi-0.dtd"
   xmlns="http://www.w3.org/2000/svg"
   xmlns:svg="http://www.w3.org/2000/svg">
  <defs
     id="defs494" />
  <sodipodi:namedview
     id="namedview492"
     pagecolor="#ffffff"
     bordercolor="#666666"
     borderopacity="1.0"
     inkscape:pageshadow="2"
     inkscape:pageopacity="0.0"
     inkscape:pagecheckerboard="0"
     showgrid="false"
     inkscape:zoom="1.132"
     inkscape:cx="258.39223"
     inkscape:cy="250.4417"
     inkscape:window-width="1478"
     inkscape:window-height="800"
     inkscape:window-x="0"
     inkscape:window-y="0"
     inkscape:window-maximized="1"
     inkscape:current-layer="svg490" />
  <g
     id="g2445"
     transform="translate(-18.70307,-102.50111)">
    <rect
       x="48.990002"
       y="110.36"
       width="402.04999"
       height="250.91"
       style="fill:#ffffff"
       id="rect157" />
    <path
       d="m 451,361.27 -402,0.36 h -0.36 v -0.36 L 48.49,110.36 v -0.5 H 49 l 402.05,0.2 h 0.31 v 0.3 z m 0,0 -0.3,-250.91 0.3,0.3 -402,0.2 0.5,-0.5 -0.14,250.91 -0.36,-0.36 z"
       style="fill:#dbdbdb"
       id="path159" />
    <rect
       x="48.959999"
       y="110.36"
       width="402.09"
       height="9.0799999"
       style="fill:#455a64"
       id="rect161" />
    <path
       d="m 56.62,114.9 a 1.57,1.57 0 1 1 -1.57,-1.57 1.56,1.56 0 0 1 1.57,1.57 z"
       style="fill:#c7c7c7"
       id="path163" />
    <path
       d="M 63,114.9 A 1.57,1.57 0 1 1 61.43,113.33 1.56,1.56 0 0 1 63,114.9 Z"
       style="fill:#ffffff"
       id="path165" />
    <path
       d="m 69.38,114.9 a 1.57,1.57 0 1 1 -1.57,-1.57 1.56,1.56 0 0 1 1.57,1.57 z"
       style="fill:#007d7e"
       id="path167" />
    <rect
       x="48.959999"
       y="119.44"
       width="402.09"
       height="15.51"
       style="fill:#ebebeb"
       id="rect169" />
    <rect
       x="97.779999"
       y="122.6"
       width="325.38"
       height="9.1999998"
       style="fill:#ffffff"
       id="rect171" />
    <path
       d="M 423.26,131.89 H 97.69 v -9.38 H 423.26 Z M 97.88,131.71 h 325.19 v -9 H 97.88 Z"
       style="fill:#c7c7c7"
       id="path173" />
    <path
       d="m 104.9,129.18 -0.65,0.49 -1,-1.32 -0.21,-0.28 -0.22,-0.28 v 0 a 2.07,2.07 0 0 0 0.25,-0.15 v 0 a 1.56,1.56 0 0 0 0.31,-0.37 v 0 l 0.23,0.3 0.21,0.28 z"
       style="fill:#ebebeb"
       id="path175" />
    <path
       d="m 103.87,127.81 -0.21,-0.28 a 1.32,1.32 0 0 0 0.18,-0.33 l -0.25,-0.34 v 0 a 0.86,0.86 0 0 1 -0.07,0.21 1.3,1.3 0 0 1 -0.08,0.17 1.56,1.56 0 0 1 -0.31,0.37 l 0.09,-0.08 v 0 l 0.21,0.28 0.22,0.27 0.78,1 -0.09,0.08 -0.78,-1 -0.21,-0.28 -0.21,-0.28 v 0 0 a 2.07,2.07 0 0 1 -0.25,0.15 h -0.09 l -0.25,0.07 v 0 l 0.23,0.3 a 1.43,1.43 0 0 0 0.34,-0.14 l 0.21,0.28 1,1.32 0.65,-0.49 z"
       style="fill:#ebebeb"
       id="path177" />
    <path
       d="m 103.61,125.42 a 1.78,1.78 0 1 0 -0.91,2.79 1.43,1.43 0 0 0 0.34,-0.14 1.58,1.58 0 0 0 0.24,-0.15 v 0 a 0.6,0.6 0 0 0 0.08,-0.08 1.6,1.6 0 0 0 0.25,-0.27 1.32,1.32 0 0 0 0.18,-0.33 1.77,1.77 0 0 0 -0.18,-1.82 z m -0.11,1.63 a 1.3,1.3 0 0 1 -0.08,0.17 1.56,1.56 0 0 1 -0.31,0.37 v 0 a 2.07,2.07 0 0 1 -0.25,0.15 h -0.09 l -0.25,0.07 a 1.23,1.23 0 0 1 -0.27,0 1.39,1.39 0 0 1 -1.12,-0.55 1.41,1.41 0 1 1 2.24,-1.71 1.38,1.38 0 0 1 0.25,1.19 0.86,0.86 0 0 1 -0.12,0.31 z"
       style="fill:#ebebeb"
       id="path179" />
    <path
       d="m 103.84,127.2 a 1.78,1.78 0 1 0 -1.14,1 1.43,1.43 0 0 0 0.34,-0.14 l 0.21,0.28 a 1.75,1.75 0 0 0 0.25,-0.16 v 0 a 0.38,0.38 0 0 0 0.09,-0.09 1.2,1.2 0 0 0 0.24,-0.26 l -0.21,-0.28 a 1.32,1.32 0 0 0 0.22,-0.35 z m -0.47,0.14 a 0.73,0.73 0 0 1 -0.17,0.18 0.3,0.3 0 0 1 -0.08,0.08 0.1,0.1 0 0 1 -0.05,0 1.37,1.37 0 0 1 -0.2,0.13 h -0.05 a 1.12,1.12 0 0 1 -0.35,0.12 1.42,1.42 0 0 1 -1.41,-0.53 1.44,1.44 0 1 1 2.53,-0.52 1.53,1.53 0 0 1 -0.16,0.37 z"
       style="fill:#ebebeb"
       id="path181" />
    <polygon
       points="64.76,80.06 65.28,80.6 62.51,83.25 65.27,85.8 64.77,86.35 61.41,83.26 "
       style="fill:#ffffff"
       id="polygon183"
       transform="translate(0,44)" />
    <polygon
       points="72.86,86.34 72.34,85.8 75.11,83.15 72.34,80.6 72.85,80.05 76.2,83.14 "
       style="fill:#ffffff"
       id="polygon185"
       transform="translate(0,44)" />
    <path
       d="m 436.48,131 a 4.17,4.17 0 0 1 -1.28,0.53 4.42,4.42 0 1 1 1.28,-0.53 z"
       style="fill:#dbdbdb"
       id="path187" />
    <path
       d="m 435.5,126.69 a 1.35,1.35 0 1 1 -1.35,-1.35 1.34,1.34 0 0 1 1.35,1.35 z"
       style="fill:#ffffff"
       id="path189" />
    <path
       d="M 436.48,130.41 V 131 a 4.17,4.17 0 0 1 -1.28,0.53 4.4,4.4 0 0 1 -3.38,-0.53 v -0.56 a 2.33,2.33 0 0 1 4.66,0 z"
       style="fill:#ffffff"
       id="path191" />
    <path
       d="m 86.2,131.2 a 4.36,4.36 0 1 1 4.32,-4.92 l -0.79,0.1 a 3.56,3.56 0 1 0 -0.88,2.85 l 0.59,0.53 a 4.37,4.37 0 0 1 -3.24,1.44 z"
       style="fill:#ffffff"
       id="path193" />
    <polygon
       points="90,82.16 91.17,80.12 91.58,80.36 90.16,82.84 87.79,81.24 88.05,80.85 "
       style="fill:#ffffff"
       id="polygon195"
       transform="translate(0,44)" />
    <rect
       x="443.91"
       y="150.33"
       width="7.1300001"
       height="210.94"
       style="fill:#dbdbdb"
       id="rect197" />
    <path
       d="m 447.47,235.12 v 0 a 1.85,1.85 0 0 1 -1.84,-1.85 V 153.6 a 1.84,1.84 0 0 1 1.84,-1.84 v 0 a 1.84,1.84 0 0 1 1.85,1.84 v 79.67 a 1.85,1.85 0 0 1 -1.85,1.85 z"
       style="fill:#a6a6a6"
       id="path199" />
    <rect
       x="48.990002"
       y="150.33"
       width="394.92001"
       height="210.94"
       style="fill:#ffffff"
       id="rect201" />
    <path
       d="M 443.91,361.27 49,361.65 h -0.38 v -0.38 L 48.5,150.33 v -0.5 H 49 l 394.92,0.2 h 0.3 v 0.3 z m 0,0 -0.29,-210.94 0.29,0.29 -394.91,0.21 0.5,-0.5 -0.11,210.94 -0.39,-0.38 z"
       style="fill:#dbdbdb"
       id="path203" />
    <rect
       x="48.990002"
       y="150.33"
       width="394.92001"
       height="37.73"
       style="fill:#ebebeb"
       id="rect205" />
    <polygon
       points="200.13,106.33 276.38,106.33 273.2,92.71 203.31,92.71 "
       style="fill:#ebebeb"
       id="polygon207"
       transform="translate(0,44)" />
    <rect
       x="87.21978"
       y="287.43726"
       width="0.66000003"
       height="6.0700002"
       transform="rotate(-44.99)"
       style="fill:#dbdbdb"
       id="rect209" />
    <rect
       x="290.1402"
       y="-90.542641"
       width="0.66000003"
       height="6.0700002"
       transform="rotate(45)"
       style="fill:#dbdbdb"
       id="rect211" />
    <rect
       x="218.11"
       y="142.58"
       width="40.279999"
       height="1.88"
       style="fill:#dbdbdb"
       id="rect213" />
    <rect
       x="174.95"
       y="279.59"
       width="150.13"
       height="20.48"
       style="fill:#ffffff"
       id="rect215" />
    <path
       d="M 325.58,300.57 H 174.45 v -21.48 h 151.13 z m -150.13,-1 H 324.58 V 280.09 H 175.45 Z"
       style="fill:#c7c7c7"
       id="path217" />
    <rect
       x="304.60001"
       y="279.59"
       width="20.48"
       height="20.48"
       style="fill:#007d7e"
       id="rect219" />
    <path
       d="m 321.34,295.57 -1.9,1.43 -3.5,-4.62 -1.28,-1.7 a 3.31,3.31 0 0 0 0.73,-0.41 3,3 0 0 0 1,-1.26 l 1.37,1.79 z"
       style="fill:#ffffff"
       id="path221" />
    <path
       d="m 317.61,284.67 a 5.16,5.16 0 1 0 -1.67,7.71 4.85,4.85 0 0 0 0.71,-0.47 5.13,5.13 0 0 0 1,-7.24 z m -2.22,5.6 a 3.31,3.31 0 0 1 -0.73,0.41 3.08,3.08 0 1 1 1.7,-1.67 3,3 0 0 1 -0.97,1.26 z"
       style="fill:#ffffff"
       id="path223" />
    <rect
       x="179.24001"
       y="283.60999"
       width="1.1"
       height="12.43"
       style="fill:#263238"
       id="rect225" />
    <rect
       x="174.95"
       y="308.06"
       width="34.68"
       height="10.99"
       style="fill:#c7c7c7"
       id="rect227" />
    <rect
       x="232.67999"
       y="308.06"
       width="34.68"
       height="10.99"
       style="fill:#007d7e"
       id="rect229" />
    <rect
       x="290.84"
       y="308.06"
       width="34.68"
       height="10.99"
       style="fill:#c7c7c7"
       id="rect231" />
    <rect
       x="202.14"
       y="257.39999"
       width="95.769997"
       height="6.6500001"
       style="fill:#37474f"
       id="rect233" />
    <rect
       x="285.39001"
       y="140.48001"
       width="0.66000003"
       height="6.0700002"
       style="fill:#c7c7c7"
       id="rect235" />
    <rect
       x="143.19002"
       y="-288.76001"
       width="0.66000003"
       height="6.0700002"
       transform="rotate(90)"
       style="fill:#c7c7c7"
       id="rect237" />
    <rect
       x="48.990002"
       y="150.33"
       width="394.92001"
       height="210.94"
       style="fill:#ffffff"
       id="rect239" />
    <path
       d="M 443.91,361.27 49,361.65 h -0.38 v -0.38 L 48.5,150.33 v -0.5 H 49 l 394.92,0.2 h 0.3 v 0.3 z m 0,0 -0.29,-210.94 0.29,0.29 -394.91,0.21 0.5,-0.5 -0.11,210.94 -0.39,-0.38 z"
       style="fill:#dbdbdb"
       id="path241" />
    <rect
       x="48.990002"
       y="150.33"
       width="394.92001"
       height="37.73"
       style="fill:#ebebeb"
       id="rect243" />
    <polygon
       points="48.99,106.33 125.24,106.33 122.06,92.71 52.17,92.71 "
       style="fill:#ebebeb"
       id="polygon245"
       transform="translate(0,44)" />
    <rect
       x="-19.664061"
       y="180.57155"
       width="0.66000003"
       height="6.0700002"
       transform="rotate(-44.99)"
       style="fill:#dbdbdb"
       id="rect247" />
    <rect
       x="183.28217"
       y="16.322374"
       width="0.66000003"
       height="6.0700002"
       transform="rotate(45)"
       style="fill:#dbdbdb"
       id="rect249" />
    <rect
       x="66.980003"
       y="142.58"
       width="40.279999"
       height="1.88"
       style="fill:#dbdbdb"
       id="rect251" />
    <rect
       x="174.95"
       y="279.59"
       width="150.13"
       height="20.48"
       style="fill:#ffffff"
       id="rect253" />
    <path
       d="M 325.58,300.57 H 174.45 v -21.48 h 151.13 z m -150.13,-1 H 324.58 V 280.09 H 175.45 Z"
       style="fill:#c7c7c7"
       id="path255" />
    <rect
       x="304.60001"
       y="279.59"
       width="20.48"
       height="20.48"
       style="fill:#007d7e"
       id="rect257" />
    <path
       d="m 321.34,295.57 -1.9,1.43 -3.5,-4.62 -1.28,-1.7 a 3.31,3.31 0 0 0 0.73,-0.41 3,3 0 0 0 1,-1.26 l 1.37,1.79 z"
       style="fill:#ffffff"
       id="path259" />
    <path
       d="m 317.61,284.67 a 5.16,5.16 0 1 0 -1.67,7.71 4.85,4.85 0 0 0 0.71,-0.47 5.13,5.13 0 0 0 1,-7.24 z m -2.22,5.6 a 3.31,3.31 0 0 1 -0.73,0.41 3.08,3.08 0 1 1 1.7,-1.67 3,3 0 0 1 -0.97,1.26 z"
       style="fill:#ffffff"
       id="path261" />
    <rect
       x="179.24001"
       y="283.60999"
       width="1.1"
       height="12.43"
       style="fill:#263238"
       id="rect263" />
    <rect
       x="174.95"
       y="308.06"
       width="34.68"
       height="10.99"
       style="fill:#c7c7c7"
       id="rect265" />
    <rect
       x="232.67999"
       y="308.06"
       width="34.68"
       height="10.99"
       style="fill:#007d7e"
       id="rect267" />
    <rect
       x="290.84"
       y="308.06"
       width="34.68"
       height="10.99"
       style="fill:#c7c7c7"
       id="rect269" />
    <rect
       x="202.14"
       y="257.39999"
       width="95.769997"
       height="6.6500001"
       style="fill:#37474f"
       id="rect271" />
    <rect
       x="48.990002"
       y="150.33"
       width="394.92001"
       height="210.94"
       style="fill:#ffffff"
       id="rect273" />
    <path
       d="M 443.91,361.27 49,361.65 h -0.38 v -0.38 L 48.5,150.33 v -0.5 H 49 l 394.92,0.2 h 0.3 v 0.3 z m 0,0 -0.29,-210.94 0.29,0.29 -394.91,0.21 0.5,-0.5 -0.11,210.94 -0.39,-0.38 z"
       style="fill:#dbdbdb"
       id="path275" />
    <rect
       x="48.990002"
       y="150.33"
       width="394.92001"
       height="26.700001"
       style="fill:#007d7e"
       id="rect277" />
    <polygon
       points="124.19,106.33 200.44,106.33 197.27,92.71 127.37,92.71 "
       style="fill:#007d7e"
       id="polygon279"
       transform="translate(0,44)" />
    <g
       style="opacity:0.2"
       id="g285"
       transform="translate(0,44)">
      <rect
         x="191.00999"
         y="96.480003"
         width="0.66000003"
         height="6.0700002"
         transform="rotate(-44.99,191.3515,99.524185)"
         id="rect281" />
      <rect
         x="191.00999"
         y="96.480003"
         width="0.66000003"
         height="6.0700002"
         transform="rotate(45,191.33938,99.515368)"
         id="rect283" />
    </g>
    <rect
       x="142.17999"
       y="142.58"
       width="40.279999"
       height="1.88"
       style="opacity:0.1"
       id="rect287" />
    <rect
       x="-194.14"
       y="-293.60999"
       width="123.82"
       height="95"
       transform="scale(-1)"
       style="fill:#007d7e"
       id="rect289" />
    <path
       d="m 82.64,219.38 a 11.25,11.25 0 1 0 8.83,-8.83 11.25,11.25 0 0 0 -8.83,8.83 z"
       style="opacity:0.6;fill:#ffffff"
       id="path291" />
    <polygon
       points="152.65,178.01 111.16,229.14 194.13,229.14 "
       style="fill:#007d7e"
       id="polygon293"
       transform="translate(0,44)" />
    <polygon
       points="152.65,178.01 111.16,229.14 194.13,229.14 "
       style="opacity:0.2"
       id="polygon295"
       transform="translate(0,44)" />
    <polygon
       points="107.1,195.89 70.31,229.18 143.89,229.18 "
       style="fill:#007d7e"
       id="polygon297"
       transform="translate(0,44)" />
    <polygon
       points="107.1,195.89 70.31,229.18 143.89,229.18 "
       style="opacity:0.1"
       id="polygon299"
       transform="translate(0,44)" />
    <rect
       x="70.309998"
       y="273.14001"
       width="123.82"
       height="20.469999"
       style="fill:#007d7e"
       id="rect301" />
    <rect
       x="70.309998"
       y="273.14001"
       width="123.82"
       height="20.469999"
       style="opacity:0.1"
       id="rect303" />
    <rect
       x="209.78"
       y="198.60001"
       width="101.53"
       height="4.5300002"
       style="fill:#a6a6a6"
       id="rect305" />
    <rect
       x="209.78"
       y="209.11"
       width="215.75"
       height="4.5300002"
       style="fill:#ebebeb"
       id="rect307" />
    <rect
       x="209.78"
       y="219.08"
       width="215.75"
       height="4.5300002"
       style="fill:#ebebeb"
       id="rect309" />
    <rect
       x="209.78"
       y="229.05"
       width="215.75"
       height="4.5300002"
       style="fill:#ebebeb"
       id="rect311" />
    <rect
       x="209.78"
       y="239.02"
       width="215.75"
       height="4.5300002"
       style="fill:#ebebeb"
       id="rect313" />
    <rect
       x="209.78"
       y="257.5"
       width="215.75"
       height="4.5300002"
       style="fill:#ebebeb"
       id="rect315" />
    <rect
       x="209.78"
       y="267.46002"
       width="215.75"
       height="4.5300002"
       style="fill:#ebebeb"
       id="rect317" />
    <rect
       x="209.78"
       y="277.42999"
       width="215.75"
       height="4.5300002"
       style="fill:#ebebeb"
       id="rect319" />
    <rect
       x="209.78"
       y="287.39999"
       width="215.75"
       height="4.5300002"
       style="fill:#ebebeb"
       id="rect321" />
    <rect
       x="209.78"
       y="297.37"
       width="215.75"
       height="4.5300002"
       style="fill:#ebebeb"
       id="rect323" />
    <rect
       x="70.309998"
       y="317.29999"
       width="355.22"
       height="4.5300002"
       style="fill:#ebebeb"
       id="rect325" />
    <rect
       x="70.309998"
       y="327.26999"
       width="284.88"
       height="4.5300002"
       style="fill:#ebebeb"
       id="rect327" />
    <rect
       x="70.309998"
       y="160.82001"
       width="356.92001"
       height="6.0999999"
       style="opacity:0.6;fill:#ffffff"
       id="rect329" />
    <g
       id="freepik--Cursor--inject-78"
       transform="translate(0,44)">
      <polygon
         points="387.04,268.18 380.11,273.55 380.11,245 400.1,265.19 391.25,266.51 395.45,276.64 391.26,278.38 "
         style="fill:#263238"
         id="polygon332" />
      <path
         d="m 380.35,241.2 a 3.84,3.84 0 0 1 0,-3.79 3.84,3.84 0 0 1 0,3.79 z"
         style="fill:#263238"
         id="path334" />
      <path
         d="m 377.09,242.55 a 3.57,3.57 0 0 1 -1.69,-1 3.48,3.48 0 0 1 -1,-1.69 3.56,3.56 0 0 1 1.7,1 3.64,3.64 0 0 1 0.99,1.69 z"
         style="fill:#263238"
         id="path336" />
      <path
         d="m 375.74,245.81 a 3.53,3.53 0 0 1 -1.89,0.5 3.48,3.48 0 0 1 -1.9,-0.5 3.84,3.84 0 0 1 3.79,0 z"
         style="fill:#263238"
         id="path338" />
      <path
         d="m 377.09,249.07 a 3.63,3.63 0 0 1 -1,1.7 3.54,3.54 0 0 1 -1.7,1 3.53,3.53 0 0 1 1,-1.69 3.57,3.57 0 0 1 1.7,-1.01 z"
         style="fill:#263238"
         id="path340" />
      <path
         d="m 385,245.81 a 3.68,3.68 0 0 1 1.9,-0.5 3.62,3.62 0 0 1 1.89,0.5 3.45,3.45 0 0 1 -1.89,0.5 3.59,3.59 0 0 1 -1.9,-0.5 z"
         style="fill:#263238"
         id="path342" />
      <path
         d="m 383.61,242.55 a 3.66,3.66 0 0 1 1,-1.69 3.57,3.57 0 0 1 1.69,-1 3.47,3.47 0 0 1 -1,1.69 3.56,3.56 0 0 1 -1.69,1 z"
         style="fill:#263238"
         id="path344" />
    </g>
  </g>
</svg>
