<?xml version="1.0" encoding="UTF-8" standalone="no"?>
<svg
   width="24"
   height="24"
   viewBox="0 0 24 24"
   version="1.1"
   id="svg4"
   sodipodi:docname="database-24.svg"
   inkscape:version="1.1.2 (0a00cf5339, 2022-02-04)"
   xmlns:inkscape="http://www.inkscape.org/namespaces/inkscape"
   xmlns:sodipodi="http://sodipodi.sourceforge.net/DTD/sodipodi-0.dtd"
   xmlns="http://www.w3.org/2000/svg"
   xmlns:svg="http://www.w3.org/2000/svg">
  <defs
     id="defs8" />
  <sodipodi:namedview
     id="namedview6"
     pagecolor="#ffffff"
     bordercolor="#666666"
     borderopacity="1.0"
     inkscape:pageshadow="2"
     inkscape:pageopacity="0.0"
     inkscape:pagecheckerboard="0"
     showgrid="false"
     inkscape:zoom="23.583333"
     inkscape:cx="10.388693"
     inkscape:cy="11.978799"
     inkscape:window-width="1482"
     inkscape:window-height="800"
     inkscape:window-x="0"
     inkscape:window-y="0"
     inkscape:window-maximized="1"
     inkscape:current-layer="svg4" />
  <path
     d="M12 1.25c2.487 0 4.773.402 6.466 1.079.844.337 1.577.758 2.112 1.264.536.507.922 1.151.922 1.907v12.987l-.026.013h.026c0 .756-.386 1.4-.922 1.907-.535.506-1.268.927-2.112 1.264-1.693.677-3.979 1.079-6.466 1.079s-4.774-.402-6.466-1.079c-.844-.337-1.577-.758-2.112-1.264C2.886 19.9 2.5 19.256 2.5 18.5h.026l-.026-.013V5.5c0-.756.386-1.4.922-1.907.535-.506 1.268-.927 2.112-1.264C7.226 1.652 9.513 1.25 12 1.25ZM4 14.371v4.116l-.013.013H4c0 .211.103.487.453.817.351.332.898.666 1.638.962 1.475.589 3.564.971 5.909.971 2.345 0 4.434-.381 5.909-.971.739-.296 1.288-.63 1.638-.962.349-.33.453-.607.453-.817h.013L20 18.487v-4.116a7.85 7.85 0 0 1-1.534.8c-1.693.677-3.979 1.079-6.466 1.079s-4.774-.402-6.466-1.079a7.843 7.843 0 0 1-1.534-.8ZM20 12V7.871a7.85 7.85 0 0 1-1.534.8C16.773 9.348 14.487 9.75 12 9.75s-4.774-.402-6.466-1.079A7.85 7.85 0 0 1 4 7.871V12c0 .21.104.487.453.817.35.332.899.666 1.638.961 1.475.59 3.564.972 5.909.972 2.345 0 4.434-.382 5.909-.972.74-.295 1.287-.629 1.638-.96.35-.33.453-.607.453-.818ZM4 5.5c0 .211.103.487.453.817.351.332.898.666 1.638.962 1.475.589 3.564.971 5.909.971 2.345 0 4.434-.381 5.909-.971.739-.296 1.288-.63 1.638-.962.349-.33.453-.607.453-.817 0-.211-.103-.487-.453-.817-.351-.332-.898-.666-1.638-.962-1.475-.589-3.564-.971-5.909-.971-2.345 0-4.434.381-5.909.971-.739.296-1.288.63-1.638.962C4.104 5.013 4 5.29 4 5.5Z"
     id="path2"
     style="fill:#00979c;fill-opacity:1" />
</svg>
