<?xml version="1.0" encoding="UTF-8" standalone="no"?>
<svg
   width="24"
   height="24"
   viewBox="0 0 24 24"
   version="1.1"
   id="svg4"
   sodipodi:docname="discussion-closed-24.svg"
   inkscape:version="1.1.2 (0a00cf5339, 2022-02-04)"
   xmlns:inkscape="http://www.inkscape.org/namespaces/inkscape"
   xmlns:sodipodi="http://sodipodi.sourceforge.net/DTD/sodipodi-0.dtd"
   xmlns="http://www.w3.org/2000/svg"
   xmlns:svg="http://www.w3.org/2000/svg">
  <defs
     id="defs8" />
  <sodipodi:namedview
     id="namedview6"
     pagecolor="#ffffff"
     bordercolor="#666666"
     borderopacity="1.0"
     inkscape:pageshadow="2"
     inkscape:pageopacity="0.0"
     inkscape:pagecheckerboard="0"
     showgrid="false"
     inkscape:zoom="23.583333"
     inkscape:cx="6.4452298"
     inkscape:cy="11.978799"
     inkscape:window-width="1482"
     inkscape:window-height="800"
     inkscape:window-x="0"
     inkscape:window-y="0"
     inkscape:window-maximized="1"
     inkscape:current-layer="svg4" />
  <path
     d="M0 2.75C0 1.783.784 1 1.75 1h12.5c.967 0 1.75.783 1.75 1.75v9.5A1.75 1.75 0 0 1 14.25 14H8.061l-2.574 2.573A1.457 1.457 0 0 1 3 15.543V14H1.75A1.75 1.75 0 0 1 0 12.25Zm1.75-.25a.25.25 0 0 0-.25.25v9.5c0 .138.112.25.25.25h2a.75.75 0 0 1 .75.75v2.189l2.72-2.719a.747.747 0 0 1 .53-.22h6.5a.25.25 0 0 0 .25-.25v-9.5a.25.25 0 0 0-.25-.25Zm20.5 6h-3.5a.75.75 0 0 1 0-1.5h3.5c.966 0 1.75.784 1.75 1.75v9.5A1.75 1.75 0 0 1 22.25 20H21v1.543a1.457 1.457 0 0 1-2.487 1.03L15.939 20H10.75A1.75 1.75 0 0 1 9 18.25v-1.465a.75.75 0 0 1 1.5 0v1.465c0 .138.112.25.25.25h5.5c.199 0 .39.079.53.22l2.72 2.719V19.25a.75.75 0 0 1 .75-.75h2a.25.25 0 0 0 .25-.25v-9.5a.25.25 0 0 0-.25-.25Zm-9.72-3.22-5 5a.747.747 0 0 1-1.06 0l-2.5-2.5a.749.749 0 1 1 1.06-1.06L7 8.689l4.47-4.469a.749.749 0 1 1 1.06 1.06Z"
     id="path2"
     style="fill:#46718b;fill-opacity:1" />
</svg>
