<?xml version="1.0" encoding="UTF-8" standalone="no"?>
<svg
   width="24"
   height="24"
   viewBox="0 0 24 24"
   version="1.1"
   id="svg6"
   sodipodi:docname="git-pull-request-24.svg"
   inkscape:version="1.1.2 (0a00cf5339, 2022-02-04)"
   xmlns:inkscape="http://www.inkscape.org/namespaces/inkscape"
   xmlns:sodipodi="http://sodipodi.sourceforge.net/DTD/sodipodi-0.dtd"
   xmlns="http://www.w3.org/2000/svg"
   xmlns:svg="http://www.w3.org/2000/svg">
  <defs
     id="defs10" />
  <sodipodi:namedview
     id="namedview8"
     pagecolor="#ffffff"
     bordercolor="#666666"
     borderopacity="1.0"
     inkscape:pageshadow="2"
     inkscape:pageopacity="0.0"
     inkscape:pagecheckerboard="0"
     showgrid="false"
     inkscape:zoom="23.583333"
     inkscape:cx="9.2014134"
     inkscape:cy="11.978799"
     inkscape:window-width="1482"
     inkscape:window-height="800"
     inkscape:window-x="0"
     inkscape:window-y="0"
     inkscape:window-maximized="1"
     inkscape:current-layer="svg6" />
  <path
     d="M16 19.25a3.25 3.25 0 1 1 6.5 0 3.25 3.25 0 0 1-6.5 0Zm-14.5 0a3.25 3.25 0 1 1 6.5 0 3.25 3.25 0 0 1-6.5 0Zm0-14.5a3.25 3.25 0 1 1 6.5 0 3.25 3.25 0 0 1-6.5 0ZM4.75 3a1.75 1.75 0 1 0 .001 3.501A1.75 1.75 0 0 0 4.75 3Zm0 14.5a1.75 1.75 0 1 0 .001 3.501A1.75 1.75 0 0 0 4.75 17.5Zm14.5 0a1.75 1.75 0 1 0 .001 3.501 1.75 1.75 0 0 0-.001-3.501Z"
     id="path2"
     style="fill:#00979c;fill-opacity:1" />
  <path
     d="M13.405 1.72a.75.75 0 0 1 0 1.06L12.185 4h4.065A3.75 3.75 0 0 1 20 7.75v8.75a.75.75 0 0 1-1.5 0V7.75a2.25 2.25 0 0 0-2.25-2.25h-4.064l1.22 1.22a.75.75 0 0 1-1.061 1.06l-2.5-2.5a.75.75 0 0 1 0-1.06l2.5-2.5a.75.75 0 0 1 1.06 0ZM4.75 7.25A.75.75 0 0 1 5.5 8v8A.75.75 0 0 1 4 16V8a.75.75 0 0 1 .75-.75Z"
     id="path4"
     style="fill:#00979c;fill-opacity:1" />
</svg>
