<?xml version="1.0" encoding="UTF-8" standalone="no"?>
<svg
   width="24"
   height="24"
   viewBox="0 0 24 24"
   version="1.1"
   id="svg4"
   sodipodi:docname="mail-24.svg"
   inkscape:version="1.1.2 (0a00cf5339, 2022-02-04)"
   xmlns:inkscape="http://www.inkscape.org/namespaces/inkscape"
   xmlns:sodipodi="http://sodipodi.sourceforge.net/DTD/sodipodi-0.dtd"
   xmlns="http://www.w3.org/2000/svg"
   xmlns:svg="http://www.w3.org/2000/svg">
  <defs
     id="defs8" />
  <sodipodi:namedview
     id="namedview6"
     pagecolor="#ffffff"
     bordercolor="#666666"
     borderopacity="1.0"
     inkscape:pageshadow="2"
     inkscape:pageopacity="0.0"
     inkscape:pagecheckerboard="0"
     showgrid="false"
     inkscape:zoom="23.583333"
     inkscape:cx="6.4452298"
     inkscape:cy="11.978799"
     inkscape:window-width="1482"
     inkscape:window-height="800"
     inkscape:window-x="0"
     inkscape:window-y="0"
     inkscape:window-maximized="1"
     inkscape:current-layer="svg4" />
  <path
     d="M1.75 3h20.5c.966 0 1.75.784 1.75 1.75v14a1.75 1.75 0 0 1-1.75 1.75H1.75A1.75 1.75 0 0 1 0 18.75v-14C0 3.784.784 3 1.75 3ZM1.5 7.412V18.75c0 .138.112.25.25.25h20.5a.25.25 0 0 0 .25-.25V7.412l-9.52 6.433c-.592.4-1.368.4-1.96 0Zm0-2.662v.852l10.36 7a.25.25 0 0 0 .28 0l10.36-7V4.75a.25.25 0 0 0-.25-.25H1.75a.25.25 0 0 0-.25.25Z"
     id="path2"
     style="fill:#46718b;fill-opacity:1" />
</svg>
