<?xml version="1.0" encoding="UTF-8" standalone="no"?>
<svg
   width="24"
   height="24"
   viewBox="0 0 24 24"
   version="1.1"
   id="svg8"
   sodipodi:docname="repo-forked-24.svg"
   inkscape:version="1.1.2 (0a00cf5339, 2022-02-04)"
   xmlns:inkscape="http://www.inkscape.org/namespaces/inkscape"
   xmlns:sodipodi="http://sodipodi.sourceforge.net/DTD/sodipodi-0.dtd"
   xmlns="http://www.w3.org/2000/svg"
   xmlns:svg="http://www.w3.org/2000/svg">
  <defs
     id="defs12" />
  <sodipodi:namedview
     id="namedview10"
     pagecolor="#ffffff"
     bordercolor="#666666"
     borderopacity="1.0"
     inkscape:pageshadow="2"
     inkscape:pageopacity="0.0"
     inkscape:pagecheckerboard="0"
     showgrid="false"
     inkscape:zoom="23.583333"
     inkscape:cx="9.2014134"
     inkscape:cy="11.978799"
     inkscape:window-width="1482"
     inkscape:window-height="800"
     inkscape:window-x="0"
     inkscape:window-y="0"
     inkscape:window-maximized="1"
     inkscape:current-layer="svg8" />
  <path
     d="M8.75 19.25a3.25 3.25 0 1 1 6.5 0 3.25 3.25 0 0 1-6.5 0ZM15 4.75a3.25 3.25 0 1 1 6.5 0 3.25 3.25 0 0 1-6.5 0Zm-12.5 0a3.25 3.25 0 1 1 6.5 0 3.25 3.25 0 0 1-6.5 0ZM5.75 6.5a1.75 1.75 0 1 0-.001-3.501A1.75 1.75 0 0 0 5.75 6.5ZM12 21a1.75 1.75 0 1 0-.001-3.501A1.75 1.75 0 0 0 12 21Zm6.25-14.5a1.75 1.75 0 1 0-.001-3.501A1.75 1.75 0 0 0 18.25 6.5Z"
     id="path2"
     style="fill:#00979c;fill-opacity:1" />
  <path
     d="M6.5 7.75v1A2.25 2.25 0 0 0 8.75 11h6.5a2.25 2.25 0 0 0 2.25-2.25v-1H19v1a3.75 3.75 0 0 1-3.75 3.75h-6.5A3.75 3.75 0 0 1 5 8.75v-1Z"
     id="path4"
     style="fill:#00979c;fill-opacity:1" />
  <path
     d="M11.25 16.25v-5h1.5v5h-1.5Z"
     id="path6"
     style="fill:#00979c;fill-opacity:1" />
</svg>
