<?xml version="1.0" encoding="UTF-8" standalone="no"?>
<svg
   width="24"
   height="24"
   viewBox="0 0 24 24"
   version="1.1"
   id="svg4"
   sodipodi:docname="beaker-24.svg"
   inkscape:version="1.1.2 (0a00cf5339, 2022-02-04)"
   xmlns:inkscape="http://www.inkscape.org/namespaces/inkscape"
   xmlns:sodipodi="http://sodipodi.sourceforge.net/DTD/sodipodi-0.dtd"
   xmlns="http://www.w3.org/2000/svg"
   xmlns:svg="http://www.w3.org/2000/svg">
  <defs
     id="defs8" />
  <sodipodi:namedview
     id="namedview6"
     pagecolor="#ffffff"
     bordercolor="#666666"
     borderopacity="1.0"
     inkscape:pageshadow="2"
     inkscape:pageopacity="0.0"
     inkscape:pagecheckerboard="0"
     showgrid="false"
     inkscape:zoom="23.583333"
     inkscape:cx="23.533569"
     inkscape:cy="11.978799"
     inkscape:window-width="1482"
     inkscape:window-height="800"
     inkscape:window-x="0"
     inkscape:window-y="0"
     inkscape:window-maximized="1"
     inkscape:current-layer="svg4" />
  <path
     d="M8 8.807V3.5h-.563a.75.75 0 0 1 0-1.5h9.125a.75.75 0 0 1 0 1.5H16v5.307l5.125 9.301c.964 1.75-.302 3.892-2.299 3.892H5.174c-1.998 0-3.263-2.142-2.3-3.892ZM4.189 18.832a1.123 1.123 0 0 0 .985 1.668h13.652a1.123 1.123 0 0 0 .985-1.668L17.7 15H6.3ZM14.5 3.5h-5V9a.75.75 0 0 1-.093.362L7.127 13.5h9.746l-2.28-4.138A.75.75 0 0 1 14.5 9Z"
     id="path2"
     style="fill:#8d563d;fill-opacity:1;opacity:0.97568647" />
</svg>
