<?xml version="1.0" encoding="UTF-8" standalone="no"?>
<svg
   width="24"
   height="24"
   viewBox="0 0 24 24"
   version="1.1"
   id="svg4"
   sodipodi:docname="gift-24.svg"
   inkscape:version="1.1.2 (0a00cf5339, 2022-02-04)"
   xmlns:inkscape="http://www.inkscape.org/namespaces/inkscape"
   xmlns:sodipodi="http://sodipodi.sourceforge.net/DTD/sodipodi-0.dtd"
   xmlns="http://www.w3.org/2000/svg"
   xmlns:svg="http://www.w3.org/2000/svg">
  <defs
     id="defs8" />
  <sodipodi:namedview
     id="namedview6"
     pagecolor="#ffffff"
     bordercolor="#666666"
     borderopacity="1.0"
     inkscape:pageshadow="2"
     inkscape:pageopacity="0.0"
     inkscape:pagecheckerboard="0"
     showgrid="false"
     inkscape:zoom="23.583333"
     inkscape:cx="1.8657244"
     inkscape:cy="11.978799"
     inkscape:window-width="1482"
     inkscape:window-height="800"
     inkscape:window-x="0"
     inkscape:window-y="0"
     inkscape:window-maximized="1"
     inkscape:current-layer="svg4" />
  <path
     d="M3.75 3.75A3.75 3.75 0 0 1 7.5 0c1.455 0 3.436.901 4.5 3.11C13.064.901 15.044 0 16.5 0a3.75 3.75 0 0 1 3 6h1.75c.966 0 1.75.784 1.75 1.75v2.5c0 .698-.409 1.301-1 1.582v8.418A1.75 1.75 0 0 1 20.25 22H3.75A1.75 1.75 0 0 1 2 20.25v-8.418c-.591-.282-1-.884-1-1.582v-2.5C1 6.784 1.784 6 2.75 6H4.5a3.733 3.733 0 0 1-.75-2.25ZM20.5 12h-7.75v8.5h7.5a.25.25 0 0 0 .25-.25Zm-9.25 8.5V12H3.5v8.25c0 .138.112.25.25.25Zm10-10a.25.25 0 0 0 .25-.25v-2.5a.25.25 0 0 0-.25-.25h-8.5v3Zm-18.5 0h8.5v-3h-8.5a.25.25 0 0 0-.25.25v2.5c0 .138.112.25.25.25Zm16-6.75A2.25 2.25 0 0 0 16.5 1.5c-1.15 0-3.433 1.007-3.72 4.5h3.72a2.25 2.25 0 0 0 2.25-2.25ZM11.22 6c-.287-3.493-2.57-4.5-3.72-4.5a2.25 2.25 0 1 0 0 4.5Z"
     id="path2"
     style="fill:#6f8d50;fill-opacity:1" />
</svg>
