<?xml version="1.0" encoding="UTF-8" standalone="no"?>
<svg
   viewBox="0 0 500 500"
   version="1.1"
   id="svg513"
   sodipodi:docname="104.svg"
   inkscape:version="1.1.2 (0a00cf5339, 2022-02-04)"
   xmlns:inkscape="http://www.inkscape.org/namespaces/inkscape"
   xmlns:sodipodi="http://sodipodi.sourceforge.net/DTD/sodipodi-0.dtd"
   xmlns="http://www.w3.org/2000/svg"
   xmlns:svg="http://www.w3.org/2000/svg">
  <path
     d="m 442.93007,425.54894 -13.12,0.27 -6.66,0.12 c -2.23,0 -4.47,0 -6.7,0.05 h -0.44 v -0.44 l -0.06,-11.19 v -0.51 h 0.5 l 13.24,0.06 c 4.42,0 8.83,0.11 13.24,0.16 h 0.28 v 0.27 c 0,1.89 -0.09,3.78 -0.14,5.65 z m 0,0 -0.14,-5.66 c 0,-1.86 -0.11,-3.7 -0.13,-5.53 l 0.27,0.27 c -4.41,0.05 -8.82,0.16 -13.24,0.16 l -13.24,0.07 0.5,-0.5 -0.05,11.19 -0.45,-0.45 c 2.18,0 4.36,0 6.55,0.05 l 6.58,0.12 z"
     style="opacity:0.179858;fill:#ebebeb"
     id="path6" />
  <path
     d="m 428.16007,439.63894 -13.12,0.27 -6.67,0.12 c -2.22,0 -4.46,0 -6.69,0 h -0.44 v -0.39 l -0.05,-11.19 v -0.51 h 0.5 l 13.24,0.06 c 4.41,0 8.83,0.11 13.24,0.16 h 0.28 v 0.27 c 0,1.89 -0.08,3.78 -0.13,5.65 z m 0,0 -0.14,-5.66 c -0.05,-1.86 -0.11,-3.7 -0.13,-5.53 l 0.27,0.27 c -4.41,0 -8.83,0.16 -13.24,0.16 l -13.24,0.07 0.5,-0.5 -0.05,11.19 -0.45,-0.45 c 2.18,0 4.36,0 6.55,0.05 l 6.57,0.12 z"
     style="opacity:0.179858;fill:#ebebeb"
     id="path8" />
  <g
     id="freepik--smart-watch--inject-2"
     style="opacity:0.179858"
     transform="translate(79.350072,24.638941)">
    <rect
       x="291"
       y="149.32001"
       width="123.95"
       height="147.12"
       style="fill:#ffc727"
       id="rect280" />
    <rect
       x="298.04001"
       y="157.03999"
       width="109.88"
       height="131.66"
       style="fill:#263238"
       id="rect282" />
    <circle
       cx="352.98001"
       cy="222.88"
       r="13.48"
       transform="rotate(-9.18,352.93424,222.83524)"
       style="fill:#ffffff"
       id="circle284" />
    <rect
       x="352.85001"
       y="210.37"
       width="0.25999999"
       height="2.04"
       style="fill:#263238"
       id="rect286" />
    <rect
       x="347.10999"
       y="211.91"
       width="0.25999999"
       height="2.04"
       transform="rotate(-30,347.20971,212.91456)"
       style="fill:#263238"
       id="rect288" />
    <rect
       x="342.89999"
       y="216.11"
       width="0.25999999"
       height="2.04"
       transform="rotate(-60,343.00722,217.13406)"
       style="fill:#263238"
       id="rect290" />
    <rect
       x="340.47"
       y="222.75"
       width="2.04"
       height="0.25999999"
       style="fill:#263238"
       id="rect292" />
    <rect
       x="342.01001"
       y="228.49001"
       width="2.04"
       height="0.25999999"
       transform="rotate(-30,342.98605,228.60284)"
       style="fill:#263238"
       id="rect294" />
    <rect
       x="346.22"
       y="232.69"
       width="2.04"
       height="0.25999999"
       transform="rotate(-60.02,347.25947,232.827)"
       style="fill:#263238"
       id="rect296" />
    <rect
       x="352.85001"
       y="233.34"
       width="0.25999999"
       height="2.04"
       style="fill:#263238"
       id="rect298" />
    <rect
       x="358.59"
       y="231.8"
       width="0.25999999"
       height="2.04"
       transform="rotate(-30,358.71665,232.81784)"
       style="fill:#263238"
       id="rect300" />
    <rect
       x="362.79001"
       y="227.60001"
       width="0.25999999"
       height="2.04"
       transform="rotate(-59.99,362.95232,228.62061)"
       style="fill:#263238"
       id="rect302" />
    <rect
       x="363.44"
       y="222.75"
       width="2.04"
       height="0.25999999"
       style="fill:#263238"
       id="rect304" />
    <rect
       x="361.89999"
       y="217"
       width="2.04"
       height="0.25999999"
       transform="rotate(-30.01,362.89147,217.13419)"
       style="fill:#263238"
       id="rect306" />
    <rect
       x="357.70001"
       y="212.8"
       width="2.04"
       height="0.25999999"
       transform="rotate(-60.05,358.75059,212.93099)"
       style="fill:#263238"
       id="rect308" />
    <polygon
       points="352.83,211.29 353.18,211.3 353.62,223.79 352.34,223.77 "
       style="fill:#ffc727"
       id="polygon310" />
    <polygon
       points="360.79,218.22 360.96,218.52 352.55,223.88 351.94,222.76 "
       style="fill:#263238"
       id="polygon312" />
    <path
       d="m 353.42,222.88 a 0.44,0.44 0 0 1 -0.88,0 0.44,0.44 0 0 1 0.88,0 z"
       style="fill:#ffc727"
       id="path314" />
    <circle
       cx="368.51001"
       cy="195.98"
       r="13.48"
       transform="rotate(-48.14,368.49128,195.96769)"
       style="fill:#ffc727"
       id="circle316" />
    <g
       id="freepik--qDp2MS.tif--inject-2">
      <path
         d="m 375.12,193.87 -2.28,2.29 a 1,1 0 0 1 -1.45,0 c -0.39,-0.39 -0.77,-0.8 -1.15,-1.18 l -1.83,1.84 1.1,1.09 c 0.35,0.35 0.71,0.69 1,1.06 a 0.67,0.67 0 0 1 0.14,0.49 c -0.25,1.45 -0.52,2.88 -0.79,4.32 a 1.1,1.1 0 0 1 -1.22,1 1.08,1.08 0 0 1 -0.93,-1.28 c 0.14,-1 0.32,-2 0.46,-3 a 0.51,0.51 0 0 0 -0.09,-0.38 c -0.49,-0.54 -1,-1.06 -1.53,-1.62 -0.61,0.66 -1.2,1.32 -1.83,1.94 a 0.88,0.88 0 0 1 -0.57,0.25 c -1.1,0 -2.2,0 -3.3,0 a 1.3,1.3 0 0 1 -1.42,-0.85 v -0.5 a 1.3,1.3 0 0 1 1.42,-0.86 c 0.68,0 1.37,0 2.05,0 a 0.57,0.57 0 0 0 0.37,-0.13 l 4,-4.44 c 0,0 0,0 0,-0.08 a 0.83,0.83 0 0 0 -0.89,0.29 c -0.45,0.53 -0.95,1 -1.43,1.53 a 0.93,0.93 0 0 1 -1.38,0.09 1,1 0 0 1 0.06,-1.42 c 0.79,-0.76 1.59,-1.52 2.39,-2.26 a 0.7,0.7 0 0 1 0.44,-0.16 c 0.91,0 1.82,0 2.73,0 a 1.32,1.32 0 0 1 0.93,0.37 c 0.58,0.55 1.17,1.07 1.74,1.62 0.25,0.25 0.4,0.22 0.63,0 0.39,-0.42 0.8,-0.82 1.22,-1.23 a 1,1 0 0 1 1.39,0 0.92,0.92 0 0 1 0.02,1.21 z"
         style="fill:#ffffff"
         id="path318" />
      <path
         d="m 373.76,191 a 1.61,1.61 0 0 1 -1.64,1.63 1.64,1.64 0 0 1 -1.65,-1.64 1.67,1.67 0 0 1 1.66,-1.64 1.64,1.64 0 0 1 1.63,1.65 z"
         style="fill:#ffffff"
         id="path320" />
    </g>
    <circle
       cx="384.04001"
       cy="222.88"
       r="13.48"
       transform="rotate(-8.65,384.20782,222.9427)"
       style="fill:#c7c7c7"
       id="circle323" />
    <path
       d="m 391.28,224.29 a 1.15,1.15 0 0 1 -0.56,-1.06 c 0,-0.12 0,-0.24 0,-0.35 0,-0.11 0,-0.24 0,-0.36 a 1.13,1.13 0 0 1 0.55,-1.05 l 1.28,-0.74 -2.4,-4.15 -1.27,0.74 a 1.15,1.15 0 0 1 -1.2,0 6,6 0 0 0 -0.61,-0.35 1.14,1.14 0 0 1 -0.63,-1 v -1.46 h -4.79 v 1.46 a 1.16,1.16 0 0 1 -0.63,1 6.21,6.21 0 0 0 -0.62,0.35 1.15,1.15 0 0 1 -1.2,0 l -1.27,-0.74 -2.39,4.15 1.28,0.74 a 1.14,1.14 0 0 1 0.55,1.05 c 0,0.12 0,0.24 0,0.36 0,0.12 0,0.23 0,0.35 a 1.15,1.15 0 0 1 -0.56,1.06 l -1.27,0.73 2.39,4.15 1.27,-0.73 a 1.11,1.11 0 0 1 1.19,0 6.44,6.44 0 0 0 0.63,0.36 1.14,1.14 0 0 1 0.63,1 v 1.47 h 4.79 v -1.47 a 1.12,1.12 0 0 1 0.63,-1 c 0.21,-0.11 0.42,-0.23 0.62,-0.36 a 1.11,1.11 0 0 1 1.19,0 l 1.27,0.73 2.4,-4.15 z M 384,226.8 a 3.93,3.93 0 1 1 3.93,-3.92 3.93,3.93 0 0 1 -3.93,3.92 z"
       style="fill:#ffffff"
       id="path325" />
    <circle
       cx="337.45001"
       cy="195.98"
       r="13.48"
       transform="rotate(-40.14,337.42508,195.96951)"
       style="fill:#455a64"
       id="circle327" />
    <path
       d="m 343.09,192.84 c -0.28,-2.82 -2.23,-5.63 -5.64,-5.63 -3.41,0 -5.36,2.81 -5.64,5.63 -0.43,4.36 2.5,8.3 5.64,11.9 3.13,-3.6 6.07,-7.54 5.64,-11.9 z m -5.64,3.16 a 3.09,3.09 0 1 1 3.09,-3.09 3.09,3.09 0 0 1 -3.09,3.09 z"
       style="fill:#ffffff"
       id="path329" />
    <circle
       cx="321.92001"
       cy="222.88"
       r="13.48"
       style="fill:#c7c7c7"
       id="circle331" />
    <rect
       x="314.13"
       y="217.94"
       width="15.57"
       height="9.8699999"
       style="fill:#ffffff"
       id="rect333" />
    <path
       d="m 329.7,217.94 c -0.63,0.6 -1.27,1.18 -1.9,1.77 l -1.92,1.73 -2,1.78 -0.06,0.06 -1.8,1.55 -0.08,0.07 -0.09,-0.07 -1.85,-1.56 -0.06,-0.05 -2,-1.78 -1.94,-1.73 c -0.64,-0.59 -1.28,-1.17 -1.91,-1.77 0.67,0.52 1.33,1.06 2,1.58 0.67,0.52 1.32,1.08 2,1.63 0.68,0.55 1.46,1.22 2.19,1.84 v 0 l 1.64,1.39 1.63,-1.39 v 0 l 2.19,-1.84 2,-1.62 c 0.63,-0.53 1.26,-1.07 1.96,-1.59 z"
       style="fill:#c7c7c7"
       id="path335" />
    <path
       d="m 320.3,223.21 v 0 l -0.24,0.21 c -0.39,0.32 -0.79,0.64 -1.2,0.95 -0.41,0.31 -1,0.74 -1.51,1.1 l -1.55,1 c -0.53,0.33 -1.06,0.66 -1.61,1 0.47,-0.42 1,-0.8 1.46,-1.18 0.46,-0.38 1,-0.74 1.51,-1.1 0.51,-0.36 1,-0.71 1.56,-1 0.56,-0.29 0.84,-0.54 1.28,-0.78 l 0.3,-0.18 z"
       style="fill:#c7c7c7"
       id="path337" />
    <path
       d="m 329.66,227.5 c -0.55,-0.31 -1.08,-0.64 -1.6,-1 -0.52,-0.36 -1,-0.69 -1.56,-1 -0.56,-0.31 -1,-0.72 -1.51,-1.1 -0.51,-0.38 -0.8,-0.62 -1.19,-0.95 l -0.25,-0.21 v 0 0 l 0.31,0.18 c 0.43,0.24 0.86,0.51 1.28,0.78 0.42,0.27 1,0.68 1.55,1 0.55,0.32 1,0.72 1.51,1.1 0.51,0.38 0.99,0.78 1.46,1.2 z"
       style="fill:#c7c7c7"
       id="path339" />
    <circle
       cx="337.45001"
       cy="249.78"
       r="13.48"
       transform="rotate(-87.13,337.46654,249.77287)"
       style="fill:#ffc727"
       id="circle341" />
    <path
       d="m 344.67,252.68 a 22.45,22.45 0 0 1 -7.22,6.27 22.45,22.45 0 0 1 -7.22,-6.27 c -2.54,-3.36 -2.41,-8.62 1.22,-9.76 4,-1.26 6,4.79 6,4.79 0,0 2,-6.09 6,-4.79 3.62,1.18 3.76,6.4 1.22,9.76 z"
       style="fill:#ffffff"
       id="path343" />
    <polygon
       points="339.63,252.87 338.96,254.86 337.62,250.85 336.63,253.71 335.75,248.87 334.61,255.83 333.51,251.27 332.8,252.87 328.37,252.87 328.37,252.36 332.46,252.36 333.66,249.67 334.51,253.23 335.72,245.85 336.79,251.69 337.63,249.25 338.96,253.24 339.25,252.36 346.52,252.36 346.52,252.87 "
       style="fill:#ffc727"
       id="polygon345" />
    <path
       d="m 356.83,256.52 a 13.49,13.49 0 1 1 18.42,4.94 13.49,13.49 0 0 1 -18.42,-4.94 z"
       style="fill:#455a64"
       id="path347" />
    <ellipse
       cx="368.51001"
       cy="249.27"
       rx="7.8600001"
       ry="6.8099999"
       style="fill:#ffffff"
       id="ellipse349" />
    <polygon
       points="366.4,255.54 362.81,253.13 361.4,257.09 "
       style="fill:#ffffff"
       id="polygon351" />
    <circle
       cx="310.44"
       cy="198.24001"
       r="9.8699999"
       style="fill:#ffc727"
       id="circle353" />
    <path
       d="M 315.88,203 H 305 v -9.43 h 10.88 z m -10.17,-0.7 h 9.47 v -8 h -9.47 z"
       style="fill:#ffffff"
       id="path355" />
    <polygon
       points="310.99,202.6 305.36,202.6 308.31,199.77 "
       style="fill:#ffffff"
       id="polygon357" />
    <polygon
       points="315.53,202.6 309.15,202.6 312.65,198.17 "
       style="fill:#ffffff"
       id="polygon359" />
    <path
       d="m 309.22,197.91 a 1,1 0 1 1 -1.05,-1 1,1 0 0 1 1.05,1 z"
       style="fill:#ffffff"
       id="path361" />
    <path
       d="m 404.14,203.3 a 9.88,9.88 0 1 1 -3.62,-13.49 9.88,9.88 0 0 1 3.62,13.49 z"
       style="fill:#455a64"
       id="path363" />
    <path
       d="m 400.26,196.51 a 2.49,2.49 0 1 1 -2.49,-2.49 2.48,2.48 0 0 1 2.49,2.49 z"
       style="fill:#ffc727"
       id="path365" />
    <path
       d="m 398,193.08 c 0,0.31 -0.08,0.56 -0.19,0.56 -0.11,0 -0.18,-0.25 -0.18,-0.56 0,-0.31 0.08,-0.57 0.18,-0.57 0.1,0 0.19,0.26 0.19,0.57 z"
       style="fill:#ffc727"
       id="path367" />
    <path
       d="m 396.22,193.44 c 0.15,0.27 0.21,0.54 0.12,0.59 -0.09,0.05 -0.29,-0.13 -0.44,-0.4 -0.15,-0.27 -0.22,-0.53 -0.13,-0.58 0.09,-0.05 0.29,0.12 0.45,0.39 z"
       style="fill:#ffc727"
       id="path369" />
    <path
       d="m 394.89,194.63 c 0.28,0.16 0.45,0.36 0.4,0.45 -0.05,0.09 -0.31,0 -0.58,-0.13 -0.27,-0.13 -0.45,-0.35 -0.4,-0.44 0.05,-0.09 0.31,-0.04 0.58,0.12 z"
       style="fill:#ffc727"
       id="path371" />
    <ellipse
       cx="394.34"
       cy="196.50999"
       rx="0.56999999"
       ry="0.19"
       style="fill:#ffc727"
       id="ellipse373" />
    <path
       d="m 394.71,198.06 c 0.27,-0.15 0.53,-0.21 0.58,-0.12 0.05,0.09 -0.12,0.29 -0.4,0.45 -0.28,0.16 -0.53,0.21 -0.58,0.12 -0.05,-0.09 0.13,-0.29 0.4,-0.45 z"
       style="fill:#ffc727"
       id="path375" />
    <path
       d="m 395.9,199.39 c 0.15,-0.28 0.35,-0.45 0.44,-0.4 0.09,0.05 0,0.31 -0.12,0.58 -0.12,0.27 -0.36,0.45 -0.45,0.4 -0.09,-0.05 -0.03,-0.31 0.13,-0.58 z"
       style="fill:#ffc727"
       id="path377" />
    <path
       d="m 397.59,199.94 c 0,-0.31 0.08,-0.57 0.18,-0.57 0.1,0 0.19,0.26 0.19,0.57 0,0.31 -0.08,0.56 -0.19,0.56 -0.11,0 -0.18,-0.25 -0.18,-0.56 z"
       style="fill:#ffc727"
       id="path379" />
    <path
       d="m 399.33,199.57 c -0.16,-0.27 -0.21,-0.53 -0.13,-0.58 0.08,-0.05 0.29,0.12 0.45,0.4 0.16,0.28 0.21,0.53 0.12,0.58 -0.09,0.05 -0.29,-0.13 -0.44,-0.4 z"
       style="fill:#ffc727"
       id="path381" />
    <path
       d="m 400.65,198.39 c -0.27,-0.16 -0.45,-0.36 -0.4,-0.45 0.05,-0.09 0.32,0 0.59,0.12 0.27,0.12 0.44,0.36 0.39,0.45 -0.05,0.09 -0.31,0.03 -0.58,-0.12 z"
       style="fill:#ffc727"
       id="path383" />
    <ellipse
       cx="401.20001"
       cy="196.50999"
       rx="0.56999999"
       ry="0.19"
       style="fill:#ffc727"
       id="ellipse385" />
    <path
       d="m 400.84,195 c -0.27,0.16 -0.54,0.21 -0.59,0.13 -0.05,-0.08 0.13,-0.29 0.4,-0.45 0.27,-0.16 0.53,-0.21 0.58,-0.12 0.05,0.09 -0.12,0.24 -0.39,0.44 z"
       style="fill:#ffc727"
       id="path387" />
    <path
       d="m 399.65,193.63 c -0.16,0.27 -0.36,0.45 -0.45,0.4 -0.09,-0.05 0,-0.32 0.13,-0.59 0.13,-0.27 0.35,-0.44 0.44,-0.39 0.09,0.05 0.04,0.31 -0.12,0.58 z"
       style="fill:#ffc727"
       id="path389" />
    <path
       d="m 401,201.49 a 1.49,1.49 0 0 1 -1.38,1.49 h -8.47 a 1.76,1.76 0 0 1 -0.16,-3.51 3,3 0 0 1 5.74,-0.92 1.7,1.7 0 0 1 0.78,-0.19 1.76,1.76 0 0 1 1.76,1.65 h 0.24 a 1.5,1.5 0 0 1 1.49,1.48 z"
       style="fill:#ffffff"
       id="path391" />
    <path
       d="m 395.52,257.39 a 9.88,9.88 0 1 1 9.87,-9.87 9.87,9.87 0 0 1 -9.87,9.87 z"
       style="fill:#ffc727"
       id="path393" />
    <path
       d="m 393.78,252.17 a 1.51,1.51 0 1 1 -1.51,-1.52 1.52,1.52 0 0 1 1.51,1.52 z"
       style="fill:#ffffff"
       id="path395" />
    <rect
       x="392.62"
       y="244.55"
       width="1.15"
       height="7.5999999"
       style="fill:#ffffff"
       id="rect397" />
    <path
       d="m 398.67,250 a 1.51,1.51 0 1 1 -1.51,-1.51 1.52,1.52 0 0 1 1.51,1.51 z"
       style="fill:#ffffff"
       id="path399" />
    <rect
       x="397.51999"
       y="242.35001"
       width="1.15"
       height="7.5999999"
       style="fill:#ffffff"
       id="rect401" />
    <polygon
       points="398.67,241.35 398.67,242.37 392.62,245.57 392.62,244.55 "
       style="fill:#ffffff"
       id="polygon403" />
    <polygon
       points="398.67,243.27 398.67,244.28 392.62,247.48 392.62,246.47 "
       style="fill:#ffffff"
       id="polygon405" />
    <path
       d="m 344.36,277 a 9.87,9.87 0 1 1 13.49,3.61 9.88,9.88 0 0 1 -13.49,-3.61 z"
       style="fill:#c7c7c7"
       id="path407" />
    <rect
       x="347.72"
       y="269.25"
       width="10.38"
       height="7.1199999"
       style="fill:#ffffff"
       id="rect409" />
    <polygon
       points="352,269.01 351.4,267.7 348.32,267.7 347.72,269.01 "
       style="fill:#ffffff"
       id="polygon411" />
    <path
       d="m 301.82,242.46 a 9.87,9.87 0 1 1 3.62,13.54 9.89,9.89 0 0 1 -3.62,-13.54 z"
       style="fill:#455a64"
       id="path413" />
    <path
       d="m 313.32,244.46 a 2.95,2.95 0 1 1 -2.95,-3 2.95,2.95 0 0 1 2.95,3 z"
       style="fill:#ffffff"
       id="path415" />
    <path
       d="m 309.36,247.65 h 2 a 3.79,3.79 0 0 1 3.79,3.79 v 1.84 h -9.6 v -1.84 a 3.79,3.79 0 0 1 3.81,-3.79 z"
       style="fill:#ffffff"
       id="path417" />
    <path
       d="m 361.6,168.78 a 9.87,9.87 0 1 1 -13.49,-3.61 9.87,9.87 0 0 1 13.49,3.61 z"
       style="fill:#c7c7c7"
       id="path419" />
    <g
       id="freepik--aiZGp2--inject-2">
      <path
         d="m 349.5,170.72 a 8.42,8.42 0 0 0 -0.57,2.63 h -2.34 v -0.06 c 0,-0.06 0,-0.12 0,-0.18 a 7.06,7.06 0 0 1 0.15,-0.92 7.28,7.28 0 0 1 0.52,-1.44 c 0,0 0,0 0.06,0 h 2.16 z"
         style="fill:#ffffff"
         id="path421" />
      <path
         d="m 349.43,176.61 v 0 c -0.71,0 -1.41,0 -2.11,0 0,0 0,0 -0.06,0 a 7.15,7.15 0 0 1 -0.53,-1.62 5.74,5.74 0 0 1 -0.1,-0.82 c 0,0 0,0 0,0 V 174 h 2.3 c 0,0 0,0 0,0.05 0,0.05 0,0.37 0,0.56 a 6.47,6.47 0 0 0 0.15,0.88 7.43,7.43 0 0 0 0.3,1 z"
         style="fill:#ffffff"
         id="path423" />
      <path
         d="m 358.46,177.28 v 0 a 6.65,6.65 0 0 1 -0.61,0.79 6.92,6.92 0 0 1 -0.89,0.82 6.66,6.66 0 0 1 -1,0.63 5.77,5.77 0 0 1 -1.07,0.41 5.42,5.42 0 0 1 -0.89,0.19 h -0.09 -0.05 -0.05 0.06 a 7.11,7.11 0 0 0 1.69,-1.64 9,9 0 0 0 0.69,-1.15 c 0,0 0,0 0.05,0 h 2.2 z"
         style="fill:#ffffff"
         id="path425" />
      <path
         d="m 356.31,173.35 h -3 v -2.63 h 2.35 a 0.05,0.05 0 0 1 0.05,0 8.1,8.1 0 0 1 0.48,1.54 7.86,7.86 0 0 1 0.11,0.83 c 0,0.11 0,0.18 0.01,0.26 z"
         style="fill:#ffffff"
         id="path427" />
      <path
         d="m 356.29,174.05 a 1.15,1.15 0 0 1 0,0.19 c 0,0.15 0,0.29 0,0.44 0,0.15 -0.06,0.4 -0.1,0.6 a 7.37,7.37 0 0 1 -0.39,1.29 c 0,0 0,0 -0.06,0 -0.79,0 -1.58,0 -2.37,0 v 0 -2.56 z"
         style="fill:#ffffff"
         id="path429" />
      <path
         d="m 352.62,170.73 v 2.64 h -2.95 c 0,-0.07 0,-0.13 0,-0.2 a 3.29,3.29 0 0 1 0.05,-0.44 c 0,-0.22 0.07,-0.45 0.12,-0.67 a 7.58,7.58 0 0 1 0.42,-1.3 c 0,0 0,0 0.05,0 h 2.29 z"
         style="fill:#ffffff"
         id="path431" />
      <path
         d="m 352.62,174.09 v 2.52 0 c -0.77,0 -1.54,0 -2.31,0 0,0 0,0 0,0 a 6.18,6.18 0 0 1 -0.4,-1.33 c -0.05,-0.23 -0.08,-0.47 -0.11,-0.7 -0.03,-0.23 0,-0.32 0,-0.47 v 0 h 2.91 c 0,0 -0.09,-0.05 -0.09,-0.02 z"
         style="fill:#ffffff"
         id="path433" />
      <path
         d="M 359.51,173.37 H 357 a 8.62,8.62 0 0 0 -0.58,-2.65 h 2.3 c 0,0 0,0 0.06,0 a 6.71,6.71 0 0 1 0.57,1.65 7,7 0 0 1 0.12,0.92 z"
         style="fill:#ffffff"
         id="path435" />
      <path
         d="m 359.51,174 c 0,0.06 0,0.12 0,0.18 0,0.22 0,0.44 -0.08,0.66 a 6.35,6.35 0 0 1 -0.46,1.48 c 0,0.08 -0.07,0.16 -0.1,0.23 -0.03,0.07 0,0 0,0 h -2.29 l 0.08,-0.23 a 8.13,8.13 0 0 0 0.31,-1.2 c 0.05,-0.3 0.08,-0.6 0.1,-0.9 a 1.48,1.48 0 0 0 0,-0.21 h 2.45 z"
         style="fill:#ffffff"
         id="path437" />
      <path
         d="m 358.39,170 h -2.2 c 0,0 0,0 -0.05,0 a 7.64,7.64 0 0 0 -1.07,-1.59 5.79,5.79 0 0 0 -0.82,-0.75 c -0.15,-0.12 -0.3,-0.22 -0.45,-0.33 v 0 0 -0.05 a 6.26,6.26 0 0 1 2.18,0.66 6.34,6.34 0 0 1 2.41,2.06 z"
         style="fill:#ffffff"
         id="path439" />
      <path
         d="m 352.2,180.15 h -0.06 a 5.57,5.57 0 0 1 -0.71,-0.14 6.25,6.25 0 0 1 -1.25,-0.46 6.43,6.43 0 0 1 -1.28,-0.84 6.22,6.22 0 0 1 -0.77,-0.77 8,8 0 0 1 -0.48,-0.66 v 0 h 2.05 c 0,0 0,0 0.05,0 a 7.45,7.45 0 0 0 0.74,1.2 6.62,6.62 0 0 0 0.87,1 5.94,5.94 0 0 0 0.83,0.67 z"
         style="fill:#ffffff"
         id="path441" />
      <path
         d="m 352.17,167.33 -0.3,0.22 a 7.44,7.44 0 0 0 -2,2.36 l -0.05,0.11 h -2.11 a 6.46,6.46 0 0 1 4.44,-2.77 v 0 z"
         style="fill:#ffffff"
         id="path443" />
      <path
         d="m 355.41,177.29 a 6.93,6.93 0 0 1 -1,1.34 6.58,6.58 0 0 1 -1.14,1 v -2.31 z"
         style="fill:#ffffff"
         id="path445" />
      <path
         d="m 352.62,177.29 v 2.26 a 6.53,6.53 0 0 1 -2.05,-2.26 z"
         style="fill:#ffffff"
         id="path447" />
      <path
         d="m 355.34,170 h -2 v -2.16 a 6.23,6.23 0 0 1 1.14,1 6.53,6.53 0 0 1 0.86,1.16 z"
         style="fill:#ffffff"
         id="path449" />
      <path
         d="m 352.62,167.94 v 2.11 h -2 a 6.31,6.31 0 0 1 2,-2.11 z"
         style="fill:#ffffff"
         id="path451" />
    </g>
    <path
       d="m 304.43,258.46 c -0.45,-7.85 -0.74,-15.7 -0.95,-23.55 -0.21,-7.85 -0.36,-15.7 -0.44,-23.55 -0.07,-3.93 -0.06,-7.85 -0.08,-11.78 -0.02,-3.93 0,-7.85 0,-11.77 L 303,176 l 0.15,-11.78 v -1.29 h 1.25 l 9.32,0.2 9.33,0.26 9.33,0.33 c 3.11,0.14 6.22,0.29 9.33,0.47 -3.11,0.18 -6.22,0.33 -9.33,0.47 l -9.33,0.34 -9.33,0.26 -9.32,0.2 1.26,-1.27 0.15,11.78 0.07,11.77 c 0,3.92 0,7.85 0,11.77 0,3.92 0,7.85 -0.09,11.78 q -0.12,11.77 -0.44,23.55 c -0.19,7.92 -0.48,15.77 -0.92,23.62 z"
       style="opacity:0.2;fill:#ffffff"
       id="path454" />
    <path
       d="m 401.42,247.65 c 0.45,2.9 0.74,5.8 0.95,8.7 0.21,2.9 0.36,5.8 0.44,8.7 0.07,1.45 0.06,2.9 0.08,4.35 0.02,1.45 0,2.91 0,4.36 0,1.45 0,2.9 -0.06,4.35 l -0.15,4.35 -0.05,1.29 h -1.22 l -9.32,-0.2 -9.33,-0.26 -9.33,-0.34 q -4.67,-0.19 -9.33,-0.46 c 3.11,-0.18 6.22,-0.33 9.33,-0.47 l 9.33,-0.34 9.33,-0.26 9.32,-0.2 -1.26,1.27 -0.15,-4.35 c -0.05,-1.45 0,-2.9 -0.07,-4.35 -0.07,-1.45 0,-2.9 0,-4.36 0,-1.46 0,-2.9 0.09,-4.35 0.08,-2.9 0.22,-5.8 0.44,-8.7 0.22,-2.9 0.54,-5.83 0.96,-8.73 z"
       style="opacity:0.2;fill:#ffffff"
       id="path456" />
    <rect
       x="414.92999"
       y="234.52"
       width="3.25"
       height="34.439999"
       style="fill:#ffc727"
       id="rect458" />
    <rect
       x="414.92999"
       y="234.52"
       width="3.25"
       height="34.439999"
       style="opacity:0.1;fill:#050400"
       id="rect460" />
    <rect
       x="414.92999"
       y="176.8"
       width="7.5900002"
       height="26.389999"
       style="fill:#ffc727"
       id="rect462" />
    <path
       d="m 415.77,177.94 c 1,-0.1 2,-0.11 3,-0.13 1,-0.02 2,0 2.95,0.13 -1,0.1 -2,0.11 -2.95,0.12 -0.95,0.01 -2.01,-0.06 -3,-0.12 z"
       style="opacity:0.1;fill:#050400"
       id="path464" />
    <path
       d="m 415.77,179.28 c 1,-0.1 2,-0.11 3,-0.13 1,-0.02 2,0 2.95,0.13 -1,0.1 -2,0.11 -2.95,0.12 -0.95,0.01 -2.01,-0.02 -3,-0.12 z"
       style="opacity:0.1;fill:#050400"
       id="path466" />
    <path
       d="m 415.77,180.62 c 1,-0.11 2,-0.11 3,-0.13 1,-0.02 2,0 2.95,0.13 -1,0.1 -2,0.11 -2.95,0.12 -0.95,0.01 -2.01,-0.02 -3,-0.12 z"
       style="opacity:0.1;fill:#050400"
       id="path468" />
    <path
       d="m 415.77,182 c 1,-0.11 2,-0.11 3,-0.13 1,-0.02 2,0 2.95,0.13 -1,0.1 -2,0.11 -2.95,0.12 -0.95,0.01 -2.01,-0.06 -3,-0.12 z"
       style="opacity:0.1;fill:#050400"
       id="path470" />
    <path
       d="m 415.77,183.3 c 1,-0.11 2,-0.11 3,-0.13 1,-0.02 2,0 2.95,0.13 -1,0.1 -2,0.11 -2.95,0.12 -0.95,0.01 -2.01,-0.02 -3,-0.12 z"
       style="opacity:0.1;fill:#050400"
       id="path472" />
    <path
       d="m 415.77,184.63 c 1,-0.1 2,-0.11 3,-0.12 1,-0.01 2,0 2.95,0.12 a 33.65,33.65 0 0 1 -5.91,0 z"
       style="opacity:0.1;fill:#050400"
       id="path474" />
    <path
       d="m 415.77,186 c 1,-0.1 2,-0.11 3,-0.12 1,-0.01 2,0 2.95,0.12 -1,0.11 -2,0.11 -2.95,0.13 -0.95,0.02 -2.01,-0.05 -3,-0.13 z"
       style="opacity:0.1;fill:#050400"
       id="path476" />
    <path
       d="m 415.77,187.31 c 1,-0.1 2,-0.11 3,-0.12 1,-0.01 2,0 2.95,0.12 -1,0.11 -2,0.11 -2.95,0.13 -0.95,0.02 -2.01,-0.02 -3,-0.13 z"
       style="opacity:0.1;fill:#050400"
       id="path478" />
    <path
       d="m 415.77,188.65 c 1,-0.1 2,-0.11 3,-0.12 1,-0.01 2,0 2.95,0.12 -1,0.11 -2,0.11 -2.95,0.13 -0.95,0.02 -2.01,-0.02 -3,-0.13 z"
       style="opacity:0.1;fill:#050400"
       id="path480" />
    <path
       d="m 415.77,190 c 1,-0.1 2,-0.11 3,-0.12 1,-0.01 2,0 2.95,0.12 -1,0.11 -2,0.11 -2.95,0.13 -0.95,0.02 -2.01,-0.04 -3,-0.13 z"
       style="opacity:0.1;fill:#050400"
       id="path482" />
    <path
       d="m 415.77,191.33 c 1,-0.1 2,-0.11 3,-0.12 1,-0.01 2,0 2.95,0.12 -1,0.1 -2,0.11 -2.95,0.13 -0.95,0.02 -2.01,-0.03 -3,-0.13 z"
       style="opacity:0.1;fill:#050400"
       id="path484" />
    <path
       d="m 415.77,192.67 c 1,-0.1 2,-0.11 3,-0.13 1,-0.02 2,0 2.95,0.13 -1,0.1 -2,0.11 -2.95,0.12 -0.95,0.01 -2.01,-0.02 -3,-0.12 z"
       style="opacity:0.1;fill:#050400"
       id="path486" />
    <path
       d="m 415.77,194 c 1,-0.1 2,-0.11 3,-0.13 1,-0.02 2,0 2.95,0.13 -1,0.1 -2,0.11 -2.95,0.12 -0.95,0.01 -2.01,-0.01 -3,-0.12 z"
       style="opacity:0.1;fill:#050400"
       id="path488" />
    <path
       d="m 415.77,195.35 c 1,-0.11 2,-0.11 3,-0.13 1,-0.02 2,0 2.95,0.13 -1,0.1 -2,0.11 -2.95,0.12 -0.95,0.01 -2.01,-0.02 -3,-0.12 z"
       style="opacity:0.1;fill:#050400"
       id="path490" />
    <path
       d="m 415.77,196.69 c 1,-0.11 2,-0.11 3,-0.13 1,-0.02 2,0 2.95,0.13 -1,0.1 -2,0.11 -2.95,0.12 -0.95,0.01 -2.01,-0.02 -3,-0.12 z"
       style="opacity:0.1;fill:#050400"
       id="path492" />
    <path
       d="m 415.77,198 c 1,-0.11 2,-0.11 3,-0.13 1,-0.02 2,0 2.95,0.13 -1,0.1 -2,0.11 -2.95,0.12 -0.95,0.01 -2.01,0.01 -3,-0.12 z"
       style="opacity:0.1;fill:#050400"
       id="path494" />
    <path
       d="m 415.77,199.37 c 1,-0.11 2,-0.11 3,-0.13 a 29.24,29.24 0 0 1 2.95,0.13 c -1,0.1 -2,0.11 -2.95,0.12 -0.95,0.01 -2.01,-0.02 -3,-0.12 z"
       style="opacity:0.1;fill:#050400"
       id="path496" />
    <path
       d="m 415.77,200.7 c 1,-0.1 2,-0.11 3,-0.12 1,-0.01 2,0 2.95,0.12 -1,0.11 -2,0.11 -2.95,0.13 -0.95,0.02 -2.01,-0.02 -3,-0.13 z"
       style="opacity:0.1;fill:#050400"
       id="path498" />
    <path
       d="m 415.77,202 c 1,-0.1 2,-0.11 3,-0.12 1,-0.01 2,0 2.95,0.12 -1,0.11 -2,0.11 -2.95,0.13 -0.95,0.02 -2.01,0.02 -3,-0.13 z"
       style="opacity:0.1;fill:#050400"
       id="path500" />
    <polygon
       points="417.95,176.79 416.84,203.19 414.93,203.19 414.93,176.79 "
       style="opacity:0.1;fill:#050400"
       id="polygon502" />
    <polygon
       points="398.33,136.15 386.22,56.82 319.74,56.82 307.63,136.15 300.06,149.31 405.9,149.31 "
       style="fill:#ffc727"
       id="polygon504" />
    <path
       d="m 306.27,149.32 q 11.67,-0.58 23.35,-0.78 c 7.79,-0.16 15.57,-0.2 23.36,-0.22 7.79,-0.02 15.57,0.06 23.35,0.21 7.78,0.15 15.57,0.4 23.36,0.79 q -11.69,0.57 -23.36,0.78 c -7.78,0.15 -15.57,0.2 -23.35,0.21 -7.78,0.01 -15.57,-0.06 -23.36,-0.22 -7.79,-0.16 -15.57,-0.39 -23.35,-0.77 z"
       style="opacity:0.1;fill:#050400"
       id="path506" />
    <polygon
       points="307.63,309.61 319.74,388.93 386.22,388.93 398.33,309.61 405.9,296.44 300.06,296.44 "
       style="fill:#ffc727"
       id="polygon508" />
    <path
       d="m 399.69,296.44 q -11.69,0.57 -23.36,0.78 c -7.78,0.15 -15.57,0.2 -23.35,0.22 -7.78,0.02 -15.57,-0.06 -23.36,-0.22 -7.79,-0.16 -15.57,-0.39 -23.35,-0.78 q 11.67,-0.58 23.35,-0.78 c 7.79,-0.16 15.57,-0.2 23.36,-0.22 7.79,-0.02 15.57,0.06 23.35,0.22 7.78,0.16 15.57,0.39 23.36,0.78 z"
       style="opacity:0.1;fill:#050400"
       id="path510" />
  </g>
  <path
     d="m 442.93007,425.54894 -13.12,0.27 -6.66,0.12 c -2.23,0 -4.47,0 -6.7,0.05 h -0.44 v -0.44 l -0.06,-11.19 v -0.51 h 0.5 l 13.24,0.06 c 4.42,0 8.83,0.11 13.24,0.16 h 0.28 v 0.27 c 0,1.89 -0.09,3.78 -0.14,5.65 z m 0,0 -0.14,-5.66 c 0,-1.86 -0.11,-3.7 -0.13,-5.53 l 0.27,0.27 c -4.41,0.05 -8.82,0.16 -13.24,0.16 l -13.24,0.07 0.5,-0.5 -0.05,11.19 -0.45,-0.45 c 2.18,0 4.36,0 6.55,0.05 l 6.58,0.12 z"
     style="fill:#ebebeb"
     id="path2657" />
  <path
     d="m 428.16007,439.63894 -13.12,0.27 -6.67,0.12 c -2.22,0 -4.46,0 -6.69,0 h -0.44 v -0.39 l -0.05,-11.19 v -0.51 h 0.5 l 13.24,0.06 c 4.41,0 8.83,0.11 13.24,0.16 h 0.28 v 0.27 c 0,1.89 -0.08,3.78 -0.13,5.65 z m 0,0 -0.14,-5.66 c -0.05,-1.86 -0.11,-3.7 -0.13,-5.53 l 0.27,0.27 c -4.41,0 -8.83,0.16 -13.24,0.16 l -13.24,0.07 0.5,-0.5 -0.05,11.19 -0.45,-0.45 c 2.18,0 4.36,0 6.55,0.05 l 6.57,0.12 z"
     style="fill:#ebebeb"
     id="path2659" />
  <g
     id="g2961"
     transform="translate(79.350072,24.638941)">
    <rect
       x="291"
       y="149.32001"
       width="123.95"
       height="147.12"
       style="fill:#ffc727"
       id="rect2727" />
    <rect
       x="298.04001"
       y="157.03999"
       width="109.88"
       height="131.66"
       style="fill:#263238"
       id="rect2729" />
    <circle
       cx="352.98001"
       cy="222.88"
       r="13.48"
       transform="rotate(-9.18,352.93424,222.83524)"
       style="fill:#ffffff"
       id="circle2731" />
    <rect
       x="352.85001"
       y="210.37"
       width="0.25999999"
       height="2.04"
       style="fill:#263238"
       id="rect2733" />
    <rect
       x="347.10999"
       y="211.91"
       width="0.25999999"
       height="2.04"
       transform="rotate(-30,347.20971,212.91456)"
       style="fill:#263238"
       id="rect2735" />
    <rect
       x="342.89999"
       y="216.11"
       width="0.25999999"
       height="2.04"
       transform="rotate(-60,343.00722,217.13406)"
       style="fill:#263238"
       id="rect2737" />
    <rect
       x="340.47"
       y="222.75"
       width="2.04"
       height="0.25999999"
       style="fill:#263238"
       id="rect2739" />
    <rect
       x="342.01001"
       y="228.49001"
       width="2.04"
       height="0.25999999"
       transform="rotate(-30,342.98605,228.60284)"
       style="fill:#263238"
       id="rect2741" />
    <rect
       x="346.22"
       y="232.69"
       width="2.04"
       height="0.25999999"
       transform="rotate(-60.02,347.25947,232.827)"
       style="fill:#263238"
       id="rect2743" />
    <rect
       x="352.85001"
       y="233.34"
       width="0.25999999"
       height="2.04"
       style="fill:#263238"
       id="rect2745" />
    <rect
       x="358.59"
       y="231.8"
       width="0.25999999"
       height="2.04"
       transform="rotate(-30,358.71665,232.81784)"
       style="fill:#263238"
       id="rect2747" />
    <rect
       x="362.79001"
       y="227.60001"
       width="0.25999999"
       height="2.04"
       transform="rotate(-59.99,362.95232,228.62061)"
       style="fill:#263238"
       id="rect2749" />
    <rect
       x="363.44"
       y="222.75"
       width="2.04"
       height="0.25999999"
       style="fill:#263238"
       id="rect2751" />
    <rect
       x="361.89999"
       y="217"
       width="2.04"
       height="0.25999999"
       transform="rotate(-30.01,362.89147,217.13419)"
       style="fill:#263238"
       id="rect2753" />
    <rect
       x="357.70001"
       y="212.8"
       width="2.04"
       height="0.25999999"
       transform="rotate(-60.05,358.75059,212.93099)"
       style="fill:#263238"
       id="rect2755" />
    <polygon
       points="352.83,211.29 353.18,211.3 353.62,223.79 352.34,223.77 "
       style="fill:#ffc727"
       id="polygon2757" />
    <polygon
       points="360.79,218.22 360.96,218.52 352.55,223.88 351.94,222.76 "
       style="fill:#263238"
       id="polygon2759" />
    <path
       d="m 353.42,222.88 a 0.44,0.44 0 0 1 -0.88,0 0.44,0.44 0 0 1 0.88,0 z"
       style="fill:#ffc727"
       id="path2761" />
    <circle
       cx="368.51001"
       cy="195.98"
       r="13.48"
       transform="rotate(-48.14,368.49128,195.96769)"
       style="fill:#ffc727"
       id="circle2763" />
    <g
       id="g2769">
      <path
         d="m 375.12,193.87 -2.28,2.29 a 1,1 0 0 1 -1.45,0 c -0.39,-0.39 -0.77,-0.8 -1.15,-1.18 l -1.83,1.84 1.1,1.09 c 0.35,0.35 0.71,0.69 1,1.06 a 0.67,0.67 0 0 1 0.14,0.49 c -0.25,1.45 -0.52,2.88 -0.79,4.32 a 1.1,1.1 0 0 1 -1.22,1 1.08,1.08 0 0 1 -0.93,-1.28 c 0.14,-1 0.32,-2 0.46,-3 a 0.51,0.51 0 0 0 -0.09,-0.38 c -0.49,-0.54 -1,-1.06 -1.53,-1.62 -0.61,0.66 -1.2,1.32 -1.83,1.94 a 0.88,0.88 0 0 1 -0.57,0.25 c -1.1,0 -2.2,0 -3.3,0 a 1.3,1.3 0 0 1 -1.42,-0.85 v -0.5 a 1.3,1.3 0 0 1 1.42,-0.86 c 0.68,0 1.37,0 2.05,0 a 0.57,0.57 0 0 0 0.37,-0.13 l 4,-4.44 c 0,0 0,0 0,-0.08 a 0.83,0.83 0 0 0 -0.89,0.29 c -0.45,0.53 -0.95,1 -1.43,1.53 a 0.93,0.93 0 0 1 -1.38,0.09 1,1 0 0 1 0.06,-1.42 c 0.79,-0.76 1.59,-1.52 2.39,-2.26 a 0.7,0.7 0 0 1 0.44,-0.16 c 0.91,0 1.82,0 2.73,0 a 1.32,1.32 0 0 1 0.93,0.37 c 0.58,0.55 1.17,1.07 1.74,1.62 0.25,0.25 0.4,0.22 0.63,0 0.39,-0.42 0.8,-0.82 1.22,-1.23 a 1,1 0 0 1 1.39,0 0.92,0.92 0 0 1 0.02,1.21 z"
         style="fill:#ffffff"
         id="path2765" />
      <path
         d="m 373.76,191 a 1.61,1.61 0 0 1 -1.64,1.63 1.64,1.64 0 0 1 -1.65,-1.64 1.67,1.67 0 0 1 1.66,-1.64 1.64,1.64 0 0 1 1.63,1.65 z"
         style="fill:#ffffff"
         id="path2767" />
    </g>
    <circle
       cx="384.04001"
       cy="222.88"
       r="13.48"
       transform="rotate(-8.65,384.20782,222.9427)"
       style="fill:#c7c7c7"
       id="circle2771" />
    <path
       d="m 391.28,224.29 a 1.15,1.15 0 0 1 -0.56,-1.06 c 0,-0.12 0,-0.24 0,-0.35 0,-0.11 0,-0.24 0,-0.36 a 1.13,1.13 0 0 1 0.55,-1.05 l 1.28,-0.74 -2.4,-4.15 -1.27,0.74 a 1.15,1.15 0 0 1 -1.2,0 6,6 0 0 0 -0.61,-0.35 1.14,1.14 0 0 1 -0.63,-1 v -1.46 h -4.79 v 1.46 a 1.16,1.16 0 0 1 -0.63,1 6.21,6.21 0 0 0 -0.62,0.35 1.15,1.15 0 0 1 -1.2,0 l -1.27,-0.74 -2.39,4.15 1.28,0.74 a 1.14,1.14 0 0 1 0.55,1.05 c 0,0.12 0,0.24 0,0.36 0,0.12 0,0.23 0,0.35 a 1.15,1.15 0 0 1 -0.56,1.06 l -1.27,0.73 2.39,4.15 1.27,-0.73 a 1.11,1.11 0 0 1 1.19,0 6.44,6.44 0 0 0 0.63,0.36 1.14,1.14 0 0 1 0.63,1 v 1.47 h 4.79 v -1.47 a 1.12,1.12 0 0 1 0.63,-1 c 0.21,-0.11 0.42,-0.23 0.62,-0.36 a 1.11,1.11 0 0 1 1.19,0 l 1.27,0.73 2.4,-4.15 z M 384,226.8 a 3.93,3.93 0 1 1 3.93,-3.92 3.93,3.93 0 0 1 -3.93,3.92 z"
       style="fill:#ffffff"
       id="path2773" />
    <circle
       cx="337.45001"
       cy="195.98"
       r="13.48"
       transform="rotate(-40.14,337.42508,195.96951)"
       style="fill:#455a64"
       id="circle2775" />
    <path
       d="m 343.09,192.84 c -0.28,-2.82 -2.23,-5.63 -5.64,-5.63 -3.41,0 -5.36,2.81 -5.64,5.63 -0.43,4.36 2.5,8.3 5.64,11.9 3.13,-3.6 6.07,-7.54 5.64,-11.9 z m -5.64,3.16 a 3.09,3.09 0 1 1 3.09,-3.09 3.09,3.09 0 0 1 -3.09,3.09 z"
       style="fill:#ffffff"
       id="path2777" />
    <circle
       cx="321.92001"
       cy="222.88"
       r="13.48"
       style="fill:#c7c7c7"
       id="circle2779" />
    <rect
       x="314.13"
       y="217.94"
       width="15.57"
       height="9.8699999"
       style="fill:#ffffff"
       id="rect2781" />
    <path
       d="m 329.7,217.94 c -0.63,0.6 -1.27,1.18 -1.9,1.77 l -1.92,1.73 -2,1.78 -0.06,0.06 -1.8,1.55 -0.08,0.07 -0.09,-0.07 -1.85,-1.56 -0.06,-0.05 -2,-1.78 -1.94,-1.73 c -0.64,-0.59 -1.28,-1.17 -1.91,-1.77 0.67,0.52 1.33,1.06 2,1.58 0.67,0.52 1.32,1.08 2,1.63 0.68,0.55 1.46,1.22 2.19,1.84 v 0 l 1.64,1.39 1.63,-1.39 v 0 l 2.19,-1.84 2,-1.62 c 0.63,-0.53 1.26,-1.07 1.96,-1.59 z"
       style="fill:#c7c7c7"
       id="path2783" />
    <path
       d="m 320.3,223.21 v 0 l -0.24,0.21 c -0.39,0.32 -0.79,0.64 -1.2,0.95 -0.41,0.31 -1,0.74 -1.51,1.1 l -1.55,1 c -0.53,0.33 -1.06,0.66 -1.61,1 0.47,-0.42 1,-0.8 1.46,-1.18 0.46,-0.38 1,-0.74 1.51,-1.1 0.51,-0.36 1,-0.71 1.56,-1 0.56,-0.29 0.84,-0.54 1.28,-0.78 l 0.3,-0.18 z"
       style="fill:#c7c7c7"
       id="path2785" />
    <path
       d="m 329.66,227.5 c -0.55,-0.31 -1.08,-0.64 -1.6,-1 -0.52,-0.36 -1,-0.69 -1.56,-1 -0.56,-0.31 -1,-0.72 -1.51,-1.1 -0.51,-0.38 -0.8,-0.62 -1.19,-0.95 l -0.25,-0.21 v 0 0 l 0.31,0.18 c 0.43,0.24 0.86,0.51 1.28,0.78 0.42,0.27 1,0.68 1.55,1 0.55,0.32 1,0.72 1.51,1.1 0.51,0.38 0.99,0.78 1.46,1.2 z"
       style="fill:#c7c7c7"
       id="path2787" />
    <circle
       cx="337.45001"
       cy="249.78"
       r="13.48"
       transform="rotate(-87.13,337.46654,249.77287)"
       style="fill:#ffc727"
       id="circle2789" />
    <path
       d="m 344.67,252.68 a 22.45,22.45 0 0 1 -7.22,6.27 22.45,22.45 0 0 1 -7.22,-6.27 c -2.54,-3.36 -2.41,-8.62 1.22,-9.76 4,-1.26 6,4.79 6,4.79 0,0 2,-6.09 6,-4.79 3.62,1.18 3.76,6.4 1.22,9.76 z"
       style="fill:#ffffff"
       id="path2791" />
    <polygon
       points="339.63,252.87 338.96,254.86 337.62,250.85 336.63,253.71 335.75,248.87 334.61,255.83 333.51,251.27 332.8,252.87 328.37,252.87 328.37,252.36 332.46,252.36 333.66,249.67 334.51,253.23 335.72,245.85 336.79,251.69 337.63,249.25 338.96,253.24 339.25,252.36 346.52,252.36 346.52,252.87 "
       style="fill:#ffc727"
       id="polygon2793" />
    <path
       d="m 356.83,256.52 a 13.49,13.49 0 1 1 18.42,4.94 13.49,13.49 0 0 1 -18.42,-4.94 z"
       style="fill:#455a64"
       id="path2795" />
    <ellipse
       cx="368.51001"
       cy="249.27"
       rx="7.8600001"
       ry="6.8099999"
       style="fill:#ffffff"
       id="ellipse2797" />
    <polygon
       points="366.4,255.54 362.81,253.13 361.4,257.09 "
       style="fill:#ffffff"
       id="polygon2799" />
    <circle
       cx="310.44"
       cy="198.24001"
       r="9.8699999"
       style="fill:#ffc727"
       id="circle2801" />
    <path
       d="M 315.88,203 H 305 v -9.43 h 10.88 z m -10.17,-0.7 h 9.47 v -8 h -9.47 z"
       style="fill:#ffffff"
       id="path2803" />
    <polygon
       points="310.99,202.6 305.36,202.6 308.31,199.77 "
       style="fill:#ffffff"
       id="polygon2805" />
    <polygon
       points="315.53,202.6 309.15,202.6 312.65,198.17 "
       style="fill:#ffffff"
       id="polygon2807" />
    <path
       d="m 309.22,197.91 a 1,1 0 1 1 -1.05,-1 1,1 0 0 1 1.05,1 z"
       style="fill:#ffffff"
       id="path2809" />
    <path
       d="m 404.14,203.3 a 9.88,9.88 0 1 1 -3.62,-13.49 9.88,9.88 0 0 1 3.62,13.49 z"
       style="fill:#455a64"
       id="path2811" />
    <path
       d="m 400.26,196.51 a 2.49,2.49 0 1 1 -2.49,-2.49 2.48,2.48 0 0 1 2.49,2.49 z"
       style="fill:#ffc727"
       id="path2813" />
    <path
       d="m 398,193.08 c 0,0.31 -0.08,0.56 -0.19,0.56 -0.11,0 -0.18,-0.25 -0.18,-0.56 0,-0.31 0.08,-0.57 0.18,-0.57 0.1,0 0.19,0.26 0.19,0.57 z"
       style="fill:#ffc727"
       id="path2815" />
    <path
       d="m 396.22,193.44 c 0.15,0.27 0.21,0.54 0.12,0.59 -0.09,0.05 -0.29,-0.13 -0.44,-0.4 -0.15,-0.27 -0.22,-0.53 -0.13,-0.58 0.09,-0.05 0.29,0.12 0.45,0.39 z"
       style="fill:#ffc727"
       id="path2817" />
    <path
       d="m 394.89,194.63 c 0.28,0.16 0.45,0.36 0.4,0.45 -0.05,0.09 -0.31,0 -0.58,-0.13 -0.27,-0.13 -0.45,-0.35 -0.4,-0.44 0.05,-0.09 0.31,-0.04 0.58,0.12 z"
       style="fill:#ffc727"
       id="path2819" />
    <ellipse
       cx="394.34"
       cy="196.50999"
       rx="0.56999999"
       ry="0.19"
       style="fill:#ffc727"
       id="ellipse2821" />
    <path
       d="m 394.71,198.06 c 0.27,-0.15 0.53,-0.21 0.58,-0.12 0.05,0.09 -0.12,0.29 -0.4,0.45 -0.28,0.16 -0.53,0.21 -0.58,0.12 -0.05,-0.09 0.13,-0.29 0.4,-0.45 z"
       style="fill:#ffc727"
       id="path2823" />
    <path
       d="m 395.9,199.39 c 0.15,-0.28 0.35,-0.45 0.44,-0.4 0.09,0.05 0,0.31 -0.12,0.58 -0.12,0.27 -0.36,0.45 -0.45,0.4 -0.09,-0.05 -0.03,-0.31 0.13,-0.58 z"
       style="fill:#ffc727"
       id="path2825" />
    <path
       d="m 397.59,199.94 c 0,-0.31 0.08,-0.57 0.18,-0.57 0.1,0 0.19,0.26 0.19,0.57 0,0.31 -0.08,0.56 -0.19,0.56 -0.11,0 -0.18,-0.25 -0.18,-0.56 z"
       style="fill:#ffc727"
       id="path2827" />
    <path
       d="m 399.33,199.57 c -0.16,-0.27 -0.21,-0.53 -0.13,-0.58 0.08,-0.05 0.29,0.12 0.45,0.4 0.16,0.28 0.21,0.53 0.12,0.58 -0.09,0.05 -0.29,-0.13 -0.44,-0.4 z"
       style="fill:#ffc727"
       id="path2829" />
    <path
       d="m 400.65,198.39 c -0.27,-0.16 -0.45,-0.36 -0.4,-0.45 0.05,-0.09 0.32,0 0.59,0.12 0.27,0.12 0.44,0.36 0.39,0.45 -0.05,0.09 -0.31,0.03 -0.58,-0.12 z"
       style="fill:#ffc727"
       id="path2831" />
    <ellipse
       cx="401.20001"
       cy="196.50999"
       rx="0.56999999"
       ry="0.19"
       style="fill:#ffc727"
       id="ellipse2833" />
    <path
       d="m 400.84,195 c -0.27,0.16 -0.54,0.21 -0.59,0.13 -0.05,-0.08 0.13,-0.29 0.4,-0.45 0.27,-0.16 0.53,-0.21 0.58,-0.12 0.05,0.09 -0.12,0.24 -0.39,0.44 z"
       style="fill:#ffc727"
       id="path2835" />
    <path
       d="m 399.65,193.63 c -0.16,0.27 -0.36,0.45 -0.45,0.4 -0.09,-0.05 0,-0.32 0.13,-0.59 0.13,-0.27 0.35,-0.44 0.44,-0.39 0.09,0.05 0.04,0.31 -0.12,0.58 z"
       style="fill:#ffc727"
       id="path2837" />
    <path
       d="m 401,201.49 a 1.49,1.49 0 0 1 -1.38,1.49 h -8.47 a 1.76,1.76 0 0 1 -0.16,-3.51 3,3 0 0 1 5.74,-0.92 1.7,1.7 0 0 1 0.78,-0.19 1.76,1.76 0 0 1 1.76,1.65 h 0.24 a 1.5,1.5 0 0 1 1.49,1.48 z"
       style="fill:#ffffff"
       id="path2839" />
    <path
       d="m 395.52,257.39 a 9.88,9.88 0 1 1 9.87,-9.87 9.87,9.87 0 0 1 -9.87,9.87 z"
       style="fill:#ffc727"
       id="path2841" />
    <path
       d="m 393.78,252.17 a 1.51,1.51 0 1 1 -1.51,-1.52 1.52,1.52 0 0 1 1.51,1.52 z"
       style="fill:#ffffff"
       id="path2843" />
    <rect
       x="392.62"
       y="244.55"
       width="1.15"
       height="7.5999999"
       style="fill:#ffffff"
       id="rect2845" />
    <path
       d="m 398.67,250 a 1.51,1.51 0 1 1 -1.51,-1.51 1.52,1.52 0 0 1 1.51,1.51 z"
       style="fill:#ffffff"
       id="path2847" />
    <rect
       x="397.51999"
       y="242.35001"
       width="1.15"
       height="7.5999999"
       style="fill:#ffffff"
       id="rect2849" />
    <polygon
       points="398.67,241.35 398.67,242.37 392.62,245.57 392.62,244.55 "
       style="fill:#ffffff"
       id="polygon2851" />
    <polygon
       points="398.67,243.27 398.67,244.28 392.62,247.48 392.62,246.47 "
       style="fill:#ffffff"
       id="polygon2853" />
    <path
       d="m 344.36,277 a 9.87,9.87 0 1 1 13.49,3.61 9.88,9.88 0 0 1 -13.49,-3.61 z"
       style="fill:#c7c7c7"
       id="path2855" />
    <rect
       x="347.72"
       y="269.25"
       width="10.38"
       height="7.1199999"
       style="fill:#ffffff"
       id="rect2857" />
    <polygon
       points="352,269.01 351.4,267.7 348.32,267.7 347.72,269.01 "
       style="fill:#ffffff"
       id="polygon2859" />
    <path
       d="m 301.82,242.46 a 9.87,9.87 0 1 1 3.62,13.54 9.89,9.89 0 0 1 -3.62,-13.54 z"
       style="fill:#455a64"
       id="path2861" />
    <path
       d="m 313.32,244.46 a 2.95,2.95 0 1 1 -2.95,-3 2.95,2.95 0 0 1 2.95,3 z"
       style="fill:#ffffff"
       id="path2863" />
    <path
       d="m 309.36,247.65 h 2 a 3.79,3.79 0 0 1 3.79,3.79 v 1.84 h -9.6 v -1.84 a 3.79,3.79 0 0 1 3.81,-3.79 z"
       style="fill:#ffffff"
       id="path2865" />
    <path
       d="m 361.6,168.78 a 9.87,9.87 0 1 1 -13.49,-3.61 9.87,9.87 0 0 1 13.49,3.61 z"
       style="fill:#c7c7c7"
       id="path2867" />
    <g
       id="g2901">
      <path
         d="m 349.5,170.72 a 8.42,8.42 0 0 0 -0.57,2.63 h -2.34 v -0.06 c 0,-0.06 0,-0.12 0,-0.18 a 7.06,7.06 0 0 1 0.15,-0.92 7.28,7.28 0 0 1 0.52,-1.44 c 0,0 0,0 0.06,0 h 2.16 z"
         style="fill:#ffffff"
         id="path2869" />
      <path
         d="m 349.43,176.61 v 0 c -0.71,0 -1.41,0 -2.11,0 0,0 0,0 -0.06,0 a 7.15,7.15 0 0 1 -0.53,-1.62 5.74,5.74 0 0 1 -0.1,-0.82 c 0,0 0,0 0,0 V 174 h 2.3 c 0,0 0,0 0,0.05 0,0.05 0,0.37 0,0.56 a 6.47,6.47 0 0 0 0.15,0.88 7.43,7.43 0 0 0 0.3,1 z"
         style="fill:#ffffff"
         id="path2871" />
      <path
         d="m 358.46,177.28 v 0 a 6.65,6.65 0 0 1 -0.61,0.79 6.92,6.92 0 0 1 -0.89,0.82 6.66,6.66 0 0 1 -1,0.63 5.77,5.77 0 0 1 -1.07,0.41 5.42,5.42 0 0 1 -0.89,0.19 h -0.09 -0.05 -0.05 0.06 a 7.11,7.11 0 0 0 1.69,-1.64 9,9 0 0 0 0.69,-1.15 c 0,0 0,0 0.05,0 h 2.2 z"
         style="fill:#ffffff"
         id="path2873" />
      <path
         d="m 356.31,173.35 h -3 v -2.63 h 2.35 a 0.05,0.05 0 0 1 0.05,0 8.1,8.1 0 0 1 0.48,1.54 7.86,7.86 0 0 1 0.11,0.83 c 0,0.11 0,0.18 0.01,0.26 z"
         style="fill:#ffffff"
         id="path2875" />
      <path
         d="m 356.29,174.05 a 1.15,1.15 0 0 1 0,0.19 c 0,0.15 0,0.29 0,0.44 0,0.15 -0.06,0.4 -0.1,0.6 a 7.37,7.37 0 0 1 -0.39,1.29 c 0,0 0,0 -0.06,0 -0.79,0 -1.58,0 -2.37,0 v 0 -2.56 z"
         style="fill:#ffffff"
         id="path2877" />
      <path
         d="m 352.62,170.73 v 2.64 h -2.95 c 0,-0.07 0,-0.13 0,-0.2 a 3.29,3.29 0 0 1 0.05,-0.44 c 0,-0.22 0.07,-0.45 0.12,-0.67 a 7.58,7.58 0 0 1 0.42,-1.3 c 0,0 0,0 0.05,0 h 2.29 z"
         style="fill:#ffffff"
         id="path2879" />
      <path
         d="m 352.62,174.09 v 2.52 0 c -0.77,0 -1.54,0 -2.31,0 0,0 0,0 0,0 a 6.18,6.18 0 0 1 -0.4,-1.33 c -0.05,-0.23 -0.08,-0.47 -0.11,-0.7 -0.03,-0.23 0,-0.32 0,-0.47 v 0 h 2.91 c 0,0 -0.09,-0.05 -0.09,-0.02 z"
         style="fill:#ffffff"
         id="path2881" />
      <path
         d="M 359.51,173.37 H 357 a 8.62,8.62 0 0 0 -0.58,-2.65 h 2.3 c 0,0 0,0 0.06,0 a 6.71,6.71 0 0 1 0.57,1.65 7,7 0 0 1 0.12,0.92 z"
         style="fill:#ffffff"
         id="path2883" />
      <path
         d="m 359.51,174 c 0,0.06 0,0.12 0,0.18 0,0.22 0,0.44 -0.08,0.66 a 6.35,6.35 0 0 1 -0.46,1.48 c 0,0.08 -0.07,0.16 -0.1,0.23 -0.03,0.07 0,0 0,0 h -2.29 l 0.08,-0.23 a 8.13,8.13 0 0 0 0.31,-1.2 c 0.05,-0.3 0.08,-0.6 0.1,-0.9 a 1.48,1.48 0 0 0 0,-0.21 h 2.45 z"
         style="fill:#ffffff"
         id="path2885" />
      <path
         d="m 358.39,170 h -2.2 c 0,0 0,0 -0.05,0 a 7.64,7.64 0 0 0 -1.07,-1.59 5.79,5.79 0 0 0 -0.82,-0.75 c -0.15,-0.12 -0.3,-0.22 -0.45,-0.33 v 0 0 -0.05 a 6.26,6.26 0 0 1 2.18,0.66 6.34,6.34 0 0 1 2.41,2.06 z"
         style="fill:#ffffff"
         id="path2887" />
      <path
         d="m 352.2,180.15 h -0.06 a 5.57,5.57 0 0 1 -0.71,-0.14 6.25,6.25 0 0 1 -1.25,-0.46 6.43,6.43 0 0 1 -1.28,-0.84 6.22,6.22 0 0 1 -0.77,-0.77 8,8 0 0 1 -0.48,-0.66 v 0 h 2.05 c 0,0 0,0 0.05,0 a 7.45,7.45 0 0 0 0.74,1.2 6.62,6.62 0 0 0 0.87,1 5.94,5.94 0 0 0 0.83,0.67 z"
         style="fill:#ffffff"
         id="path2889" />
      <path
         d="m 352.17,167.33 -0.3,0.22 a 7.44,7.44 0 0 0 -2,2.36 l -0.05,0.11 h -2.11 a 6.46,6.46 0 0 1 4.44,-2.77 v 0 z"
         style="fill:#ffffff"
         id="path2891" />
      <path
         d="m 355.41,177.29 a 6.93,6.93 0 0 1 -1,1.34 6.58,6.58 0 0 1 -1.14,1 v -2.31 z"
         style="fill:#ffffff"
         id="path2893" />
      <path
         d="m 352.62,177.29 v 2.26 a 6.53,6.53 0 0 1 -2.05,-2.26 z"
         style="fill:#ffffff"
         id="path2895" />
      <path
         d="m 355.34,170 h -2 v -2.16 a 6.23,6.23 0 0 1 1.14,1 6.53,6.53 0 0 1 0.86,1.16 z"
         style="fill:#ffffff"
         id="path2897" />
      <path
         d="m 352.62,167.94 v 2.11 h -2 a 6.31,6.31 0 0 1 2,-2.11 z"
         style="fill:#ffffff"
         id="path2899" />
    </g>
    <path
       d="m 304.43,258.46 c -0.45,-7.85 -0.74,-15.7 -0.95,-23.55 -0.21,-7.85 -0.36,-15.7 -0.44,-23.55 -0.07,-3.93 -0.06,-7.85 -0.08,-11.78 -0.02,-3.93 0,-7.85 0,-11.77 L 303,176 l 0.15,-11.78 v -1.29 h 1.25 l 9.32,0.2 9.33,0.26 9.33,0.33 c 3.11,0.14 6.22,0.29 9.33,0.47 -3.11,0.18 -6.22,0.33 -9.33,0.47 l -9.33,0.34 -9.33,0.26 -9.32,0.2 1.26,-1.27 0.15,11.78 0.07,11.77 c 0,3.92 0,7.85 0,11.77 0,3.92 0,7.85 -0.09,11.78 q -0.12,11.77 -0.44,23.55 c -0.19,7.92 -0.48,15.77 -0.92,23.62 z"
       style="opacity:0.2;fill:#ffffff"
       id="path2903" />
    <path
       d="m 401.42,247.65 c 0.45,2.9 0.74,5.8 0.95,8.7 0.21,2.9 0.36,5.8 0.44,8.7 0.07,1.45 0.06,2.9 0.08,4.35 0.02,1.45 0,2.91 0,4.36 0,1.45 0,2.9 -0.06,4.35 l -0.15,4.35 -0.05,1.29 h -1.22 l -9.32,-0.2 -9.33,-0.26 -9.33,-0.34 q -4.67,-0.19 -9.33,-0.46 c 3.11,-0.18 6.22,-0.33 9.33,-0.47 l 9.33,-0.34 9.33,-0.26 9.32,-0.2 -1.26,1.27 -0.15,-4.35 c -0.05,-1.45 0,-2.9 -0.07,-4.35 -0.07,-1.45 0,-2.9 0,-4.36 0,-1.46 0,-2.9 0.09,-4.35 0.08,-2.9 0.22,-5.8 0.44,-8.7 0.22,-2.9 0.54,-5.83 0.96,-8.73 z"
       style="opacity:0.2;fill:#ffffff"
       id="path2905" />
    <rect
       x="414.92999"
       y="234.52"
       width="3.25"
       height="34.439999"
       style="fill:#ffc727"
       id="rect2907" />
    <rect
       x="414.92999"
       y="234.52"
       width="3.25"
       height="34.439999"
       style="opacity:0.1;fill:#050400"
       id="rect2909" />
    <rect
       x="414.92999"
       y="176.8"
       width="7.5900002"
       height="26.389999"
       style="fill:#ffc727"
       id="rect2911" />
    <path
       d="m 415.77,177.94 c 1,-0.1 2,-0.11 3,-0.13 1,-0.02 2,0 2.95,0.13 -1,0.1 -2,0.11 -2.95,0.12 -0.95,0.01 -2.01,-0.06 -3,-0.12 z"
       style="opacity:0.1;fill:#050400"
       id="path2913" />
    <path
       d="m 415.77,179.28 c 1,-0.1 2,-0.11 3,-0.13 1,-0.02 2,0 2.95,0.13 -1,0.1 -2,0.11 -2.95,0.12 -0.95,0.01 -2.01,-0.02 -3,-0.12 z"
       style="opacity:0.1;fill:#050400"
       id="path2915" />
    <path
       d="m 415.77,180.62 c 1,-0.11 2,-0.11 3,-0.13 1,-0.02 2,0 2.95,0.13 -1,0.1 -2,0.11 -2.95,0.12 -0.95,0.01 -2.01,-0.02 -3,-0.12 z"
       style="opacity:0.1;fill:#050400"
       id="path2917" />
    <path
       d="m 415.77,182 c 1,-0.11 2,-0.11 3,-0.13 1,-0.02 2,0 2.95,0.13 -1,0.1 -2,0.11 -2.95,0.12 -0.95,0.01 -2.01,-0.06 -3,-0.12 z"
       style="opacity:0.1;fill:#050400"
       id="path2919" />
    <path
       d="m 415.77,183.3 c 1,-0.11 2,-0.11 3,-0.13 1,-0.02 2,0 2.95,0.13 -1,0.1 -2,0.11 -2.95,0.12 -0.95,0.01 -2.01,-0.02 -3,-0.12 z"
       style="opacity:0.1;fill:#050400"
       id="path2921" />
    <path
       d="m 415.77,184.63 c 1,-0.1 2,-0.11 3,-0.12 1,-0.01 2,0 2.95,0.12 a 33.65,33.65 0 0 1 -5.91,0 z"
       style="opacity:0.1;fill:#050400"
       id="path2923" />
    <path
       d="m 415.77,186 c 1,-0.1 2,-0.11 3,-0.12 1,-0.01 2,0 2.95,0.12 -1,0.11 -2,0.11 -2.95,0.13 -0.95,0.02 -2.01,-0.05 -3,-0.13 z"
       style="opacity:0.1;fill:#050400"
       id="path2925" />
    <path
       d="m 415.77,187.31 c 1,-0.1 2,-0.11 3,-0.12 1,-0.01 2,0 2.95,0.12 -1,0.11 -2,0.11 -2.95,0.13 -0.95,0.02 -2.01,-0.02 -3,-0.13 z"
       style="opacity:0.1;fill:#050400"
       id="path2927" />
    <path
       d="m 415.77,188.65 c 1,-0.1 2,-0.11 3,-0.12 1,-0.01 2,0 2.95,0.12 -1,0.11 -2,0.11 -2.95,0.13 -0.95,0.02 -2.01,-0.02 -3,-0.13 z"
       style="opacity:0.1;fill:#050400"
       id="path2929" />
    <path
       d="m 415.77,190 c 1,-0.1 2,-0.11 3,-0.12 1,-0.01 2,0 2.95,0.12 -1,0.11 -2,0.11 -2.95,0.13 -0.95,0.02 -2.01,-0.04 -3,-0.13 z"
       style="opacity:0.1;fill:#050400"
       id="path2931" />
    <path
       d="m 415.77,191.33 c 1,-0.1 2,-0.11 3,-0.12 1,-0.01 2,0 2.95,0.12 -1,0.1 -2,0.11 -2.95,0.13 -0.95,0.02 -2.01,-0.03 -3,-0.13 z"
       style="opacity:0.1;fill:#050400"
       id="path2933" />
    <path
       d="m 415.77,192.67 c 1,-0.1 2,-0.11 3,-0.13 1,-0.02 2,0 2.95,0.13 -1,0.1 -2,0.11 -2.95,0.12 -0.95,0.01 -2.01,-0.02 -3,-0.12 z"
       style="opacity:0.1;fill:#050400"
       id="path2935" />
    <path
       d="m 415.77,194 c 1,-0.1 2,-0.11 3,-0.13 1,-0.02 2,0 2.95,0.13 -1,0.1 -2,0.11 -2.95,0.12 -0.95,0.01 -2.01,-0.01 -3,-0.12 z"
       style="opacity:0.1;fill:#050400"
       id="path2937" />
    <path
       d="m 415.77,195.35 c 1,-0.11 2,-0.11 3,-0.13 1,-0.02 2,0 2.95,0.13 -1,0.1 -2,0.11 -2.95,0.12 -0.95,0.01 -2.01,-0.02 -3,-0.12 z"
       style="opacity:0.1;fill:#050400"
       id="path2939" />
    <path
       d="m 415.77,196.69 c 1,-0.11 2,-0.11 3,-0.13 1,-0.02 2,0 2.95,0.13 -1,0.1 -2,0.11 -2.95,0.12 -0.95,0.01 -2.01,-0.02 -3,-0.12 z"
       style="opacity:0.1;fill:#050400"
       id="path2941" />
    <path
       d="m 415.77,198 c 1,-0.11 2,-0.11 3,-0.13 1,-0.02 2,0 2.95,0.13 -1,0.1 -2,0.11 -2.95,0.12 -0.95,0.01 -2.01,0.01 -3,-0.12 z"
       style="opacity:0.1;fill:#050400"
       id="path2943" />
    <path
       d="m 415.77,199.37 c 1,-0.11 2,-0.11 3,-0.13 a 29.24,29.24 0 0 1 2.95,0.13 c -1,0.1 -2,0.11 -2.95,0.12 -0.95,0.01 -2.01,-0.02 -3,-0.12 z"
       style="opacity:0.1;fill:#050400"
       id="path2945" />
    <path
       d="m 415.77,200.7 c 1,-0.1 2,-0.11 3,-0.12 1,-0.01 2,0 2.95,0.12 -1,0.11 -2,0.11 -2.95,0.13 -0.95,0.02 -2.01,-0.02 -3,-0.13 z"
       style="opacity:0.1;fill:#050400"
       id="path2947" />
    <path
       d="m 415.77,202 c 1,-0.1 2,-0.11 3,-0.12 1,-0.01 2,0 2.95,0.12 -1,0.11 -2,0.11 -2.95,0.13 -0.95,0.02 -2.01,0.02 -3,-0.13 z"
       style="opacity:0.1;fill:#050400"
       id="path2949" />
    <polygon
       points="417.95,176.79 416.84,203.19 414.93,203.19 414.93,176.79 "
       style="opacity:0.1;fill:#050400"
       id="polygon2951" />
    <polygon
       points="398.33,136.15 386.22,56.82 319.74,56.82 307.63,136.15 300.06,149.31 405.9,149.31 "
       style="fill:#ffc727"
       id="polygon2953" />
    <path
       d="m 306.27,149.32 q 11.67,-0.58 23.35,-0.78 c 7.79,-0.16 15.57,-0.2 23.36,-0.22 7.79,-0.02 15.57,0.06 23.35,0.21 7.78,0.15 15.57,0.4 23.36,0.79 q -11.69,0.57 -23.36,0.78 c -7.78,0.15 -15.57,0.2 -23.35,0.21 -7.78,0.01 -15.57,-0.06 -23.36,-0.22 -7.79,-0.16 -15.57,-0.39 -23.35,-0.77 z"
       style="opacity:0.1;fill:#050400"
       id="path2955" />
    <polygon
       points="307.63,309.61 319.74,388.93 386.22,388.93 398.33,309.61 405.9,296.44 300.06,296.44 "
       style="fill:#ffc727"
       id="polygon2957" />
    <path
       d="m 399.69,296.44 q -11.69,0.57 -23.36,0.78 c -7.78,0.15 -15.57,0.2 -23.35,0.22 -7.78,0.02 -15.57,-0.06 -23.36,-0.22 -7.79,-0.16 -15.57,-0.39 -23.35,-0.78 q 11.67,-0.58 23.35,-0.78 c 7.79,-0.16 15.57,-0.2 23.36,-0.22 7.79,-0.02 15.57,0.06 23.35,0.22 7.78,0.16 15.57,0.39 23.36,0.78 z"
       style="opacity:0.1;fill:#050400"
       id="path2959" />
  </g>
  <defs
     id="defs517" />
  <sodipodi:namedview
     id="namedview515"
     pagecolor="#ffffff"
     bordercolor="#666666"
     borderopacity="1.0"
     inkscape:pageshadow="2"
     inkscape:pageopacity="0.0"
     inkscape:pagecheckerboard="0"
     showgrid="false"
     inkscape:zoom="1.132"
     inkscape:cx="249.5583"
     inkscape:cy="250.4417"
     inkscape:window-width="1478"
     inkscape:window-height="800"
     inkscape:window-x="0"
     inkscape:window-y="0"
     inkscape:window-maximized="1"
     inkscape:current-layer="svg513" />
</svg>
