<?xml version="1.0" encoding="UTF-8" standalone="no"?>
<svg
   viewBox="0 0 750 500"
   version="1.1"
   id="svg579"
   sodipodi:docname="101.svg"
   inkscape:version="1.1.2 (0a00cf5339, 2022-02-04)"
   xmlns:inkscape="http://www.inkscape.org/namespaces/inkscape"
   xmlns:sodipodi="http://sodipodi.sourceforge.net/DTD/sodipodi-0.dtd"
   xmlns="http://www.w3.org/2000/svg"
   xmlns:svg="http://www.w3.org/2000/svg">
  <defs
     id="defs583" />
  <sodipodi:namedview
     id="namedview581"
     pagecolor="#ffffff"
     bordercolor="#666666"
     borderopacity="1.0"
     inkscape:pageshadow="2"
     inkscape:pageopacity="0.0"
     inkscape:pagecheckerboard="0"
     showgrid="false"
     inkscape:zoom="1.132"
     inkscape:cx="375"
     inkscape:cy="250.4417"
     inkscape:window-width="1478"
     inkscape:window-height="800"
     inkscape:window-x="0"
     inkscape:window-y="0"
     inkscape:window-maximized="1"
     inkscape:current-layer="svg579" />
  <path
     d="m 650,220.72 a 28.4,28.4 0 0 1 -8.4,3.4 29,29 0 1 1 8.4,-3.4 z"
     style="fill:#ebebeb"
     id="path2" />
  <path
     d="m 643.92,192.67 a 8.82,8.82 0 1 1 -8.71,-8.92 8.82,8.82 0 0 1 8.71,8.92 z"
     style="fill:#ffffff"
     id="path4" />
  <path
     d="m 650.06,217.08 v 3.64 a 28.4,28.4 0 0 1 -8.4,3.4 28.81,28.81 0 0 1 -22.08,-3.77 v -3.63 a 15.25,15.25 0 0 1 30.49,0.36 z"
     style="fill:#ffffff"
     id="path6" />
  <path
     d="m 114.72,138.82 a 19,19 0 0 1 -28.29,-12 19,19 0 1 1 28.29,12 z"
     style="fill:#ebebeb"
     id="path8" />
  <path
     d="m 110.73,120.45 a 5.78,5.78 0 1 1 -5.73,-5.85 5.78,5.78 0 0 1 5.73,5.85 z"
     style="fill:#ffffff"
     id="path10" />
  <path
     d="m 114.75,136.44 v 2.38 a 19,19 0 0 1 -20,-0.25 v -2.37 a 10.00072,10.00072 0 1 1 20,0.24 z"
     style="fill:#ffffff"
     id="path12" />
  <path
     d="M 261.56,140.3 H 134.92 V 53.67 h 126.64 z m -125.64,-1 H 260.56 V 54.67 H 135.92 Z"
     style="fill:#ebebeb"
     id="path14" />
  <path
     d="m 144.82,59.25 a 2.52,2.52 0 1 1 -2.52,-2.52 2.52,2.52 0 0 1 2.52,2.52 z"
     style="fill:#a6a6a6"
     id="path16" />
  <path
     d="m 155.11,59.25 a 2.52,2.52 0 1 1 -2.52,-2.52 2.52,2.52 0 0 1 2.52,2.52 z"
     style="fill:#ebebeb"
     id="path18" />
  <path
     d="m 165.41,59.25 a 2.53,2.53 0 1 1 -2.52,-2.52 2.52,2.52 0 0 1 2.52,2.52 z"
     style="fill:#ffc727"
     id="path20" />
  <rect
     x="135.42"
     y="63.68"
     width="125.64"
     height="1"
     style="fill:#ebebeb"
     id="rect22" />
  <rect
     x="56.628906"
     y="199.18733"
     width="66.589996"
     height="42.23"
     transform="rotate(-7.77)"
     style="fill:#ebebeb"
     id="rect24" />
  <path
     d="m 149,180.72 c -2.32,2.91 -4.7,5.72 -7,8.6 -2.3,2.88 -4.75,5.64 -7.15,8.44 -2.4,2.8 -5,5.82 -7.52,8.71 l -0.22,0.27 q -3.34,3.82 -6.7,7.63 l -0.34,0.37 -0.41,-0.26 c -2.83,-1.86 -5.66,-3.71 -8.49,-5.58 a 2.49,2.49 0 0 1 -0.3,-0.19 q -4.8,-3.15 -9.59,-6.38 -4.56,-3.08 -9.13,-6.22 c -3,-2.14 -6.08,-4.21 -9.09,-6.39 3.13,1.79 6.23,3.71 9.34,5.56 3.11,1.85 6.21,3.8 9.3,5.74 q 5.16,3.21 10.33,6.53 v 0 l 7.73,4.95 c 2,-2.28 4.07,-4.58 6.11,-6.84 v 0 c 2.72,-3 5.45,-6.06 8.2,-9 q 3.69,-4 7.42,-8 c 2.51,-2.66 4.98,-5.37 7.51,-7.94 z"
     style="fill:#ffffff"
     id="path26" />
  <path
     d="m 112.22,208.49 a 0.5,0.5 0 0 0 -0.07,0.08 l -0.92,1 c -1.47,1.63 -3,3.2 -4.53,4.73 -1.88,1.89 -3.82,3.72 -5.77,5.54 -1.95,1.82 -4,3.58 -6,5.31 -2,1.73 -4.09,3.43 -6.25,5 1.76,-2 3.62,-3.95 5.51,-5.83 1.89,-1.88 3.83,-3.72 5.77,-5.54 1.94,-1.82 4,-3.59 6,-5.32 1.61,-1.38 3.27,-2.75 5,-4 l 1.18,-0.9 z"
     style="fill:#ffffff"
     id="path28" />
  <path
     d="m 154.37,221.24 c -2.51,-1 -5,-2.05 -7.37,-3.17 -2.37,-1.12 -4.81,-2.31 -7.19,-3.51 -2.38,-1.2 -4.73,-2.48 -7.05,-3.79 -1.89,-1.07 -3.76,-2.17 -5.6,-3.34 l -1.17,-0.75 -0.09,-0.06 h 0.11 l 1.38,0.56 c 2,0.8 3.94,1.67 5.87,2.57 2.43,1.12 4.81,2.31 7.19,3.52 2.38,1.21 4.72,2.47 7,3.79 2.28,1.32 4.68,2.7 6.92,4.18 z"
     style="fill:#ffffff"
     id="path30" />
  <path
     d="m 688.71,259.19 c -5.09,3 -10.21,5.78 -15.31,8.7 -5.1,2.92 -10.24,5.64 -15.38,8.41 q -8,4.35 -16.08,8.58 l -0.49,0.28 q -7.11,3.73 -14.25,7.46 l -0.7,0.35 -0.45,-0.62 q -4.71,-6.53 -9.38,-13.08 c -0.11,-0.13 -0.22,-0.29 -0.33,-0.45 -3.54,-4.94 -7.05,-9.89 -10.54,-14.9 -3.33,-4.76 -6.65,-9.58 -10,-14.39 -3.35,-4.81 -6.58,-9.69 -9.79,-14.64 3.61,4.45 7.09,9 10.63,13.55 3.54,4.55 7,9.15 10.48,13.78 q 5.8,7.69 11.55,15.54 c 0,0 0,0 0,0 2.87,3.89 5.74,7.81 8.61,11.72 4.3,-2.22 8.62,-4.45 12.93,-6.62 0,0 0,0 0,0 5.76,-2.93 11.51,-5.85 17.28,-8.71 q 7.75,-3.86 15.53,-7.6 c 5.3,-2.46 10.47,-5 15.69,-7.36 z"
     style="fill:#ffffff"
     id="path34" />
  <path
     d="m 618.51,279.28 c -0.06,0 -0.1,0.06 -0.15,0.08 l -1.94,1 q -4.63,2.34 -9.38,4.4 c -3.86,1.73 -7.77,3.33 -11.69,4.9 -3.92,1.57 -7.87,3 -11.86,4.44 -3.99,1.44 -8,2.75 -12.11,3.88 3.76,-2 7.6,-3.77 11.46,-5.48 3.86,-1.71 7.78,-3.32 11.69,-4.9 3.91,-1.58 7.89,-3 11.88,-4.45 3.18,-1.12 6.4,-2.2 9.65,-3.15 0.76,-0.23 1.51,-0.44 2.27,-0.65 z"
     style="fill:#ffffff"
     id="path36" />
  <path
     d="m 673.55,322.15 c -3.16,-2.85 -6.16,-5.85 -9.08,-8.89 -2.92,-3.04 -5.79,-6.16 -8.63,-9.29 -2.84,-3.13 -5.58,-6.35 -8.26,-9.62 -2.19,-2.65 -4.33,-5.34 -6.38,-8.12 l -1.3,-1.77 c 0,0 -0.06,-0.1 -0.1,-0.14 a 0.63,0.63 0 0 0 0.13,0.11 l 1.74,1.62 c 2.48,2.31 4.86,4.71 7.21,7.14 2.94,3.05 5.79,6.16 8.61,9.3 2.82,3.14 5.58,6.35 8.26,9.62 2.68,3.27 5.33,6.57 7.8,10.04 z"
     style="fill:#ffffff"
     id="path38" />
  <rect
     x="411.79999"
     y="38.959999"
     width="60.610001"
     height="38.439999"
     style="fill:#ebebeb"
     id="rect40" />
  <path
     d="m 472.4,39 c -2.44,2.34 -4.94,4.58 -7.4,6.89 -2.46,2.31 -5,4.51 -7.49,6.73 -2.49,2.22 -5.23,4.64 -7.85,6.93 l -0.24,0.22 -7,6.06 -0.34,0.28 -0.34,-0.28 -7,-6.07 -0.25,-0.21 q -3.94,-3.43 -7.86,-6.94 c -2.5,-2.21 -5,-4.47 -7.47,-6.72 -2.47,-2.25 -5,-4.55 -7.41,-6.89 2.6,2 5.16,4.11 7.73,6.17 2.57,2.06 5.14,4.18 7.69,6.32 q 4.25,3.52 8.5,7.15 v 0 c 2.12,1.79 4.24,3.6 6.37,5.41 2.11,-1.81 4.23,-3.63 6.35,-5.41 0,0 0,0 0,0 q 4.25,-3.6 8.51,-7.16 3.81,-3.18 7.67,-6.3 C 467.24,43.07 469.8,41 472.4,39 Z"
     style="fill:#ffffff"
     id="path42" />
  <path
     d="m 435.82,59.48 c 0,0 -0.05,0.05 -0.08,0.06 -0.32,0.28 -0.63,0.55 -0.95,0.81 -1.52,1.29 -3.08,2.52 -4.66,3.71 -1.93,1.47 -3.91,2.88 -5.89,4.29 -1.98,1.41 -4,2.73 -6,4.05 -2,1.32 -4.12,2.59 -6.26,3.76 1.84,-1.61 3.75,-3.11 5.68,-4.57 1.93,-1.46 3.92,-2.89 5.89,-4.29 1.97,-1.4 4,-2.75 6.05,-4.06 1.63,-1.05 3.29,-2.08 5,-3 l 1.18,-0.67 z"
     style="fill:#ffffff"
     id="path44" />
  <path
     d="M 472.26,76.16 C 470.12,75 468,73.71 466,72.4 c -2,-1.31 -4,-2.68 -6,-4.05 -2,-1.37 -4,-2.82 -5.89,-4.29 -1.57,-1.19 -3.13,-2.41 -4.64,-3.7 l -1,-0.82 c 0,0 0,0 -0.07,-0.06 l 0.09,0.05 1.18,0.67 c 1.69,1 3.34,2 5,3 2.05,1.31 4.05,2.68 6,4.06 1.95,1.38 4,2.81 5.89,4.29 1.89,1.48 3.86,3 5.7,4.61 z"
     style="fill:#ffffff"
     id="path46" />
  <rect
     x="153.44"
     y="73.029999"
     width="441.45001"
     height="295.29001"
     style="fill:#dbdbdb"
     id="rect55" />
  <rect
     x="156.64"
     y="76.629997"
     width="435.03"
     height="288.09"
     style="fill:#263238"
     id="rect57" />
  <rect
     x="181.23"
     y="98.519997"
     width="385.85999"
     height="244.32001"
     style="fill:#ffffff"
     id="rect65" />
  <rect
     x="180.89999"
     y="98.519997"
     width="386.19"
     height="9.3999996"
     style="fill:#455a64"
     id="rect67" />
  <path
     d="m 188.38,103.22 a 2.34,2.34 0 1 1 -2.34,-2.33 2.33,2.33 0 0 1 2.34,2.33 z"
     style="fill:#c7c7c7"
     id="path69" />
  <path
     d="m 197.9,103.22 a 2.34,2.34 0 1 1 -2.34,-2.33 2.33,2.33 0 0 1 2.34,2.33 z"
     style="fill:#ffffff"
     id="path71" />
  <path
     d="m 207.42,103.22 a 2.34,2.34 0 1 1 -2.33,-2.33 2.33,2.33 0 0 1 2.33,2.33 z"
     style="fill:#ffc727"
     id="path73" />
  <rect
     x="560.23999"
     y="107.92"
     width="6.8499999"
     height="234.91"
     style="fill:#dbdbdb"
     id="rect75" />
  <path
     d="m 563.66,189.36 v 0 a 1.77,1.77 0 0 1 -1.77,-1.77 v -76.53 a 1.77,1.77 0 0 1 1.77,-1.77 v 0 a 1.77,1.77 0 0 1 1.77,1.77 v 76.53 a 1.77,1.77 0 0 1 -1.77,1.77 z"
     style="fill:#a6a6a6"
     id="path77" />
  <rect
     x="292.42999"
     y="122.7"
     width="207.99001"
     height="7.9099998"
     style="fill:#ffffff"
     id="rect79" />
  <path
     d="M 500.5,130.69 H 292.35 v -8.07 H 500.5 Z"
     style="fill:#ebebeb"
     id="path81" />
  <rect
     x="492.42001"
     y="122.62"
     width="8.0799999"
     height="8.0799999"
     style="fill:#ffc727"
     id="rect83" />
  <path
     d="m 499,128.87 -0.73,0.55 -1.36,-1.78 -0.49,-0.66 a 0.88,0.88 0 0 0 0.28,-0.16 1.25,1.25 0 0 0 0.38,-0.48 l 0.52,0.69 z"
     style="fill:#ffffff"
     id="path85" />
  <path
     d="m 497.53,124.66 a 2,2 0 1 0 -0.65,3 1.67,1.67 0 0 0 0.28,-0.18 2.08,2.08 0 0 0 0.41,-0.43 2,2 0 0 0 -0.04,-2.39 z m -0.86,2.16 a 0.88,0.88 0 0 1 -0.28,0.16 1.17,1.17 0 0 1 -1.39,-0.38 1.19,1.19 0 1 1 2.05,-0.26 1.25,1.25 0 0 1 -0.38,0.48 z"
     style="fill:#ffffff"
     id="path87" />
  <rect
     x="294.07999"
     y="124.25"
     width="0.41999999"
     height="4.8000002"
     style="fill:#c7c7c7"
     id="rect89" />
  <path
     d="m 546.34,130.92 a 4.63,4.63 0 0 1 -1.29,0.54 4.5,4.5 0 0 1 -5.43,-3.3 4.49,4.49 0 1 1 6.72,2.76 z"
     style="fill:#ffc727"
     id="path91" />
  <path
     d="m 545.35,126.58 a 1.37,1.37 0 1 1 -1.37,-1.37 1.37,1.37 0 0 1 1.37,1.37 z"
     style="fill:#ffffff"
     id="path93" />
  <path
     d="m 546.34,130.35 v 0.57 a 4.63,4.63 0 0 1 -1.29,0.54 4.43,4.43 0 0 1 -3.43,-0.55 v -0.56 a 2.36,2.36 0 0 1 4.72,0 z"
     style="fill:#ffffff"
     id="path95" />
  <path
     d="m 530.78,131.59 h -3.13 v -1.11 a 0.16,0.16 0 0 0 -0.09,-0.15 l -0.34,-0.19 a 0.17,0.17 0 0 0 -0.18,0 l -1,0.55 -1.56,-2.7 1,-0.56 a 0.18,0.18 0 0 0 0.08,-0.16 c 0,-0.06 0,-0.13 0,-0.19 0,-0.06 0,-0.13 0,-0.19 a 0.18,0.18 0 0 0 -0.08,-0.16 l -1,-0.56 1.56,-2.7 1,0.55 a 0.17,0.17 0 0 0 0.18,0 3.79,3.79 0 0 1 0.34,-0.2 0.14,0.14 0 0 0 0.09,-0.14 v -1.11 h 3.13 v 1.11 a 0.18,0.18 0 0 0 0.09,0.15 1.86,1.86 0 0 1 0.34,0.19 0.17,0.17 0 0 0 0.18,0 l 1,-0.55 1.56,2.7 -1,0.56 a 0.18,0.18 0 0 0 -0.08,0.16 c 0,0.06 0,0.12 0,0.19 0,0.07 0,0.13 0,0.19 a 0.18,0.18 0 0 0 0.08,0.16 l 1,0.56 -1.56,2.7 -1,-0.55 a 0.17,0.17 0 0 0 -0.18,0 l -0.34,0.19 a 0.16,0.16 0 0 0 -0.09,0.15 z m -2.35,-0.78 H 530 v -0.33 a 0.94,0.94 0 0 1 0.52,-0.84 l 0.27,-0.15 a 1,1 0 0 1 1,0 l 0.28,0.17 0.79,-1.36 -0.29,-0.17 a 0.93,0.93 0 0 1 -0.47,-0.87 v -0.3 a 0.94,0.94 0 0 1 0.47,-0.88 l 0.29,-0.16 -0.79,-1.36 -0.28,0.16 a 0.93,0.93 0 0 1 -1,0 l -0.27,-0.15 A 1,1 0 0 1 530,123.73 v -0.33 h -1.57 v 0.33 a 1,1 0 0 1 -0.52,0.84 l -0.27,0.15 a 0.93,0.93 0 0 1 -1,0 l -0.28,-0.16 -0.79,1.36 0.29,0.16 a 0.94,0.94 0 0 1 0.47,0.88 v 0.3 a 1,1 0 0 1 -0.47,0.88 l -0.29,0.16 0.79,1.36 0.28,-0.17 a 1,1 0 0 1 1,0 l 0.27,0.16 a 0.94,0.94 0 0 1 0.52,0.84 z m 0.79,-1.43 a 2.31,2.31 0 1 1 2.31,-2.31 2.31,2.31 0 0 1 -2.31,2.31 z m 0,-3.84 a 1.53,1.53 0 1 0 1.53,1.53 1.53,1.53 0 0 0 -1.53,-1.53 z"
     style="fill:#dbdbdb"
     id="path97" />
  <rect
     x="272.14001"
     y="163.23"
     width="288.10001"
     height="16.33"
     style="fill:#ebebeb"
     id="rect99" />
  <rect
     x="284.92001"
     y="168.94"
     width="4.9000001"
     height="4.9000001"
     style="fill:#ffffff"
     id="rect101" />
  <polygon
     points="307.76,171.39 305.76,168.94 310.66,168.94 312.66,171.39 310.66,173.84 305.76,173.84 "
     style="fill:#ffffff"
     id="polygon103" />
  <polygon
     points="300.64,170.81 299.35,172.07 299.65,173.84 298.06,173 296.46,173.84 296.77,172.07 295.48,170.81 297.26,170.55 298.06,168.94 298.85,170.55 "
     style="fill:#ffc727"
     id="polygon105" />
  <rect
     x="316.17999"
     y="170.39"
     width="39.07"
     height="2"
     style="fill:#263238"
     id="rect107" />
  <rect
     x="503.34"
     y="170.39"
     width="35.470001"
     height="2"
     style="fill:#263238"
     id="rect109" />
  <rect
     x="367.17999"
     y="170.39"
     width="121.26"
     height="2"
     style="fill:#455a64"
     id="rect111" />
  <rect
     x="284.92001"
     y="185.27"
     width="4.9000001"
     height="4.9000001"
     style="fill:#ffffff"
     id="rect113" />
  <path
     d="m 290.08,190.42 h -5.41 V 185 h 5.41 z m -4.91,-0.5 h 4.41 v -4.4 h -4.41 z"
     style="fill:#ebebeb"
     id="path115" />
  <polygon
     points="307.76,187.72 305.76,185.27 310.66,185.27 312.66,187.72 310.66,190.17 305.76,190.17 "
     style="fill:#ffffff"
     id="polygon117" />
  <path
     d="m 310.78,190.42 h -5.55 l 2.2,-2.7 -2.2,-2.7 h 5.55 l 2.2,2.7 z m -4.5,-0.5 h 4.26 l 1.8,-2.2 -1.8,-2.2 h -4.26 l 1.8,2.2 z"
     style="fill:#ebebeb"
     id="path119" />
  <polygon
     points="300.64,187.14 299.35,188.4 299.65,190.17 298.06,189.33 296.46,190.17 296.77,188.4 295.48,187.14 297.26,186.88 298.06,185.27 298.85,186.88 "
     style="fill:#ffc727"
     id="polygon121" />
  <rect
     x="316.17999"
     y="186.72"
     width="39.07"
     height="2"
     style="fill:#263238"
     id="rect123" />
  <rect
     x="503.34"
     y="186.72"
     width="35.470001"
     height="2"
     style="fill:#263238"
     id="rect125" />
  <rect
     x="367.17999"
     y="186.72"
     width="121.26"
     height="2"
     style="fill:#455a64"
     id="rect127" />
  <rect
     x="272.14001"
     y="195.88"
     width="288.10001"
     height="16.33"
     style="fill:#ebebeb"
     id="rect129" />
  <rect
     x="284.92001"
     y="201.59"
     width="4.9000001"
     height="4.9000001"
     style="fill:#ffffff"
     id="rect131" />
  <polygon
     points="307.76,204.05 305.76,201.59 310.66,201.59 312.66,204.05 310.66,206.5 305.76,206.5 "
     style="fill:#ffffff"
     id="polygon133" />
  <polygon
     points="300.64,203.47 299.35,204.72 299.65,206.5 298.06,205.66 296.46,206.5 296.77,204.72 295.48,203.47 297.26,203.21 298.06,201.59 298.85,203.21 "
     style="fill:#ffffff"
     id="polygon135" />
  <rect
     x="316.17999"
     y="203.05"
     width="39.07"
     height="2"
     style="fill:#dbdbdb"
     id="rect137" />
  <rect
     x="503.34"
     y="203.05"
     width="35.470001"
     height="2"
     style="fill:#dbdbdb"
     id="rect139" />
  <rect
     x="367.17999"
     y="203.05"
     width="121.26"
     height="2"
     style="fill:#c7c7c7"
     id="rect141" />
  <rect
     x="284.92001"
     y="217.92"
     width="4.9000001"
     height="4.9000001"
     style="fill:#ffffff"
     id="rect143" />
  <path
     d="m 290.08,223.08 h -5.41 v -5.41 h 5.41 z m -4.91,-0.5 h 4.41 v -4.41 h -4.41 z"
     style="fill:#ebebeb"
     id="path145" />
  <polygon
     points="307.76,220.38 305.76,217.92 310.66,217.92 312.66,220.38 310.66,222.83 305.76,222.83 "
     style="fill:#ffffff"
     id="polygon147" />
  <path
     d="m 310.78,223.08 h -5.55 l 2.2,-2.7 -2.2,-2.71 h 5.55 l 2.2,2.71 z m -4.5,-0.5 h 4.26 l 1.8,-2.2 -1.8,-2.21 h -4.26 l 1.8,2.21 z"
     style="fill:#ebebeb"
     id="path149" />
  <polygon
     points="300.64,219.8 299.35,221.05 299.65,222.83 298.06,221.99 296.46,222.83 296.77,221.05 295.48,219.8 297.26,219.54 298.06,217.92 298.85,219.54 "
     style="fill:#ffc727"
     id="polygon151" />
  <rect
     x="316.17999"
     y="219.38"
     width="39.07"
     height="2"
     style="fill:#dbdbdb"
     id="rect153" />
  <rect
     x="503.34"
     y="219.38"
     width="35.470001"
     height="2"
     style="fill:#dbdbdb"
     id="rect155" />
  <rect
     x="367.17999"
     y="219.38"
     width="121.26"
     height="2"
     style="fill:#c7c7c7"
     id="rect157" />
  <rect
     x="272.14001"
     y="228.53999"
     width="288.10001"
     height="16.33"
     style="fill:#ebebeb"
     id="rect159" />
  <rect
     x="284.92001"
     y="234.25"
     width="4.9000001"
     height="4.9000001"
     style="fill:#ffffff"
     id="rect161" />
  <polygon
     points="307.76,236.7 305.76,234.25 310.66,234.25 312.66,236.7 310.66,239.16 305.76,239.16 "
     style="fill:#ffffff"
     id="polygon163" />
  <polygon
     points="300.64,236.13 299.35,237.38 299.65,239.16 298.06,238.32 296.46,239.16 296.77,237.38 295.48,236.13 297.26,235.87 298.06,234.25 298.85,235.87 "
     style="fill:#ffc727"
     id="polygon165" />
  <rect
     x="316.17999"
     y="235.71001"
     width="39.07"
     height="2"
     style="fill:#dbdbdb"
     id="rect167" />
  <rect
     x="503.34"
     y="235.71001"
     width="35.470001"
     height="2"
     style="fill:#dbdbdb"
     id="rect169" />
  <rect
     x="367.17999"
     y="235.71001"
     width="121.26"
     height="2"
     style="fill:#c7c7c7"
     id="rect171" />
  <rect
     x="284.92001"
     y="250.58"
     width="4.9000001"
     height="4.9099998"
     style="fill:#ffffff"
     id="rect173" />
  <path
     d="m 290.08,255.74 h -5.41 v -5.41 h 5.41 z m -4.91,-0.5 h 4.41 v -4.41 h -4.41 z"
     style="fill:#ebebeb"
     id="path175" />
  <polygon
     points="307.76,253.03 305.76,250.58 310.66,250.58 312.66,253.03 310.66,255.49 305.76,255.49 "
     style="fill:#ffffff"
     id="polygon177" />
  <path
     d="m 310.78,255.74 h -5.55 l 2.2,-2.71 -2.2,-2.7 h 5.55 L 313,253 Z m -4.5,-0.5 h 4.26 l 1.8,-2.21 -1.8,-2.2 h -4.26 l 1.8,2.2 z"
     style="fill:#ebebeb"
     id="path179" />
  <polygon
     points="300.64,252.45 299.35,253.71 299.65,255.49 298.06,254.65 296.46,255.49 296.77,253.71 295.48,252.45 297.26,252.19 298.06,250.58 298.85,252.19 "
     style="fill:#ffffff"
     id="polygon181" />
  <path
     d="m 300,255.94 -1.92,-1 -1.93,1 0.37,-2.14 -1.56,-1.52 2.15,-0.31 1,-1.95 1,1.95 2.15,0.31 -1.55,1.52 z m -1.92,-1.57 1.26,0.66 -0.24,-1.41 1,-1 -1.41,-0.21 -0.63,-1.27 -0.63,1.27 -1.41,0.21 1,1 -0.22,1.38 z"
     style="fill:#ebebeb"
     id="path183" />
  <rect
     x="316.17999"
     y="252.03999"
     width="39.07"
     height="2"
     style="fill:#dbdbdb"
     id="rect185" />
  <rect
     x="503.34"
     y="252.03999"
     width="35.470001"
     height="2"
     style="fill:#dbdbdb"
     id="rect187" />
  <rect
     x="367.17999"
     y="252.03999"
     width="121.26"
     height="2"
     style="fill:#c7c7c7"
     id="rect189" />
  <rect
     x="272.14001"
     y="261.20001"
     width="288.10001"
     height="16.33"
     style="fill:#ebebeb"
     id="rect191" />
  <rect
     x="284.92001"
     y="266.91"
     width="4.9000001"
     height="4.9000001"
     style="fill:#ffffff"
     id="rect193" />
  <polygon
     points="307.76,269.36 305.76,266.91 310.66,266.91 312.66,269.36 310.66,271.81 305.76,271.81 "
     style="fill:#ffffff"
     id="polygon195" />
  <polygon
     points="300.64,268.78 299.35,270.04 299.65,271.81 298.06,270.98 296.46,271.81 296.77,270.04 295.48,268.78 297.26,268.52 298.06,266.91 298.85,268.52 "
     style="fill:#ffc727"
     id="polygon197" />
  <rect
     x="316.17999"
     y="268.35999"
     width="39.07"
     height="2"
     style="fill:#dbdbdb"
     id="rect199" />
  <rect
     x="503.34"
     y="268.35999"
     width="35.470001"
     height="2"
     style="fill:#dbdbdb"
     id="rect201" />
  <rect
     x="367.17999"
     y="268.35999"
     width="121.26"
     height="2"
     style="fill:#c7c7c7"
     id="rect203" />
  <rect
     x="284.92001"
     y="283.23999"
     width="4.9000001"
     height="4.9000001"
     style="fill:#ffffff"
     id="rect205" />
  <path
     d="m 290.08,288.39 h -5.41 V 283 h 5.41 z m -4.91,-0.5 h 4.41 v -4.4 h -4.41 z"
     style="fill:#ebebeb"
     id="path207" />
  <polygon
     points="307.76,285.69 305.76,283.24 310.66,283.24 312.66,285.69 310.66,288.14 305.76,288.14 "
     style="fill:#ffffff"
     id="polygon209" />
  <path
     d="m 310.78,288.39 h -5.55 l 2.2,-2.7 -2.2,-2.7 h 5.55 l 2.2,2.7 z m -4.5,-0.5 h 4.26 l 1.8,-2.2 -1.8,-2.2 h -4.26 l 1.8,2.2 z"
     style="fill:#ebebeb"
     id="path211" />
  <polygon
     points="300.64,285.11 299.35,286.37 299.65,288.14 298.06,287.31 296.46,288.14 296.77,286.37 295.48,285.11 297.26,284.85 298.06,283.24 298.85,284.85 "
     style="fill:#ffffff"
     id="polygon213" />
  <path
     d="m 300,288.6 -1.92,-1 -1.93,1 0.37,-2.14 -1.56,-1.52 2.15,-0.32 1,-1.95 1,1.95 2.15,0.32 -1.55,1.52 z m -1.94,-1.6 1.26,0.67 -0.24,-1.41 1,-1 -1.41,-0.21 -0.63,-1.28 -0.63,1.28 -1.41,0.21 1,1 -0.24,1.41 z"
     style="fill:#ebebeb"
     id="path215" />
  <rect
     x="316.17999"
     y="284.69"
     width="39.07"
     height="2"
     style="fill:#dbdbdb"
     id="rect217" />
  <rect
     x="503.34"
     y="284.69"
     width="35.470001"
     height="2"
     style="fill:#dbdbdb"
     id="rect219" />
  <rect
     x="367.17999"
     y="284.69"
     width="121.26"
     height="2"
     style="fill:#c7c7c7"
     id="rect221" />
  <rect
     x="272.14001"
     y="293.85001"
     width="288.10001"
     height="16.33"
     style="fill:#ebebeb"
     id="rect223" />
  <rect
     x="284.92001"
     y="299.57001"
     width="4.9000001"
     height="4.9099998"
     style="fill:#ffffff"
     id="rect225" />
  <polygon
     points="307.76,302.02 305.76,299.57 310.66,299.57 312.66,302.02 310.66,304.47 305.76,304.47 "
     style="fill:#ffffff"
     id="polygon227" />
  <polygon
     points="300.64,301.44 299.35,302.7 299.65,304.47 298.06,303.63 296.46,304.47 296.77,302.7 295.48,301.44 297.26,301.18 298.06,299.57 298.85,301.18 "
     style="fill:#ffffff"
     id="polygon229" />
  <rect
     x="316.17999"
     y="301.01999"
     width="39.07"
     height="2"
     style="fill:#dbdbdb"
     id="rect231" />
  <rect
     x="503.34"
     y="301.01999"
     width="35.470001"
     height="2"
     style="fill:#dbdbdb"
     id="rect233" />
  <rect
     x="367.17999"
     y="301.01999"
     width="121.26"
     height="2"
     style="fill:#c7c7c7"
     id="rect235" />
  <rect
     x="284.92001"
     y="315.89001"
     width="4.9000001"
     height="4.9099998"
     style="fill:#ffffff"
     id="rect237" />
  <path
     d="m 290.08,321.05 h -5.41 v -5.41 h 5.41 z m -4.91,-0.5 h 4.41 v -4.41 h -4.41 z"
     style="fill:#ebebeb"
     id="path239" />
  <polygon
     points="307.76,318.35 305.76,315.89 310.66,315.89 312.66,318.35 310.66,320.8 305.76,320.8 "
     style="fill:#ffffff"
     id="polygon241" />
  <path
     d="m 310.78,321.05 h -5.55 l 2.2,-2.7 -2.2,-2.71 h 5.55 l 2.2,2.71 z m -4.5,-0.5 h 4.26 l 1.8,-2.2 -1.8,-2.21 h -4.26 l 1.8,2.21 z"
     style="fill:#ebebeb"
     id="path243" />
  <polygon
     points="300.64,317.77 299.35,319.02 299.65,320.8 298.06,319.96 296.46,320.8 296.77,319.02 295.48,317.77 297.26,317.51 298.06,315.89 298.85,317.51 "
     style="fill:#ffffff"
     id="polygon245" />
  <path
     d="m 300,321.26 -1.92,-1 -1.93,1 0.37,-2.15 -1.56,-1.52 2.15,-0.31 1,-1.95 1,1.95 2.15,0.31 -1.55,1.52 z m -1.92,-1.58 1.26,0.66 -0.24,-1.4 1,-1 -1.41,-0.2 -0.63,-1.28 -0.63,1.28 -1.41,0.2 1,1 -0.24,1.4 z"
     style="fill:#ebebeb"
     id="path247" />
  <rect
     x="316.17999"
     y="317.35001"
     width="39.07"
     height="2"
     style="fill:#dbdbdb"
     id="rect249" />
  <rect
     x="503.34"
     y="317.35001"
     width="35.470001"
     height="2"
     style="fill:#dbdbdb"
     id="rect251" />
  <rect
     x="367.17999"
     y="317.35001"
     width="121.26"
     height="2"
     style="fill:#c7c7c7"
     id="rect253" />
  <rect
     x="272.14001"
     y="326.51001"
     width="288.10001"
     height="16.33"
     style="fill:#ebebeb"
     id="rect255" />
  <rect
     x="284.92001"
     y="332.22"
     width="4.9000001"
     height="4.9000001"
     style="fill:#ffffff"
     id="rect257" />
  <polygon
     points="307.76,334.68 305.76,332.22 310.66,332.22 312.66,334.68 310.66,337.13 305.76,337.13 "
     style="fill:#ffffff"
     id="polygon259" />
  <polygon
     points="300.64,334.1 299.35,335.35 299.65,337.13 298.06,336.29 296.46,337.13 296.77,335.35 295.48,334.1 297.26,333.84 298.06,332.22 298.85,333.84 "
     style="fill:#ffc727"
     id="polygon261" />
  <rect
     x="316.17999"
     y="333.67999"
     width="39.07"
     height="2"
     style="fill:#dbdbdb"
     id="rect263" />
  <rect
     x="503.34"
     y="333.67999"
     width="35.470001"
     height="2"
     style="fill:#dbdbdb"
     id="rect265" />
  <rect
     x="367.17999"
     y="333.67999"
     width="121.26"
     height="2"
     style="fill:#c7c7c7"
     id="rect267" />
  <rect
     x="300.72"
     y="148.5"
     width="54.540001"
     height="5.8400002"
     style="fill:#dbdbdb"
     id="rect269" />
  <rect
     x="284.92001"
     y="148.5"
     width="7.4299998"
     height="5.8400002"
     style="fill:#dbdbdb"
     id="rect271" />
  <path
     d="m 292.36,148.5 -0.91,0.95 -0.92,0.93 -1,1 v 0 l -0.86,0.83 v 0 0 l -0.86,-0.84 v 0 l -1,-1 -0.92,-0.93 -0.91,-0.95 c 0.32,0.27 0.63,0.56 0.95,0.85 l 0.94,0.87 1.05,1 v 0 l 0.78,0.75 0.78,-0.75 v 0 l 1.05,-1 0.94,-0.87 c 0.26,-0.28 0.53,-0.57 0.89,-0.84 z"
     style="fill:#ffffff"
     id="path273" />
  <path
     d="m 287.87,151.2 v 0 l -0.12,0.15 c -0.18,0.25 -0.38,0.48 -0.57,0.7 l -0.72,0.81 -0.74,0.76 c -0.25,0.25 -0.51,0.49 -0.77,0.71 0.22,-0.3 0.46,-0.59 0.7,-0.86 0.24,-0.27 0.48,-0.54 0.72,-0.81 0.24,-0.27 0.49,-0.52 0.74,-0.76 0.25,-0.24 0.4,-0.39 0.61,-0.57 z"
     style="fill:#ffffff"
     id="path275" />
  <path
     d="m 292.34,154.34 c -0.26,-0.22 -0.52,-0.46 -0.77,-0.71 l -0.74,-0.76 c -0.24,-0.27 -0.49,-0.53 -0.72,-0.81 -0.23,-0.28 -0.39,-0.45 -0.57,-0.69 l -0.12,-0.16 v 0 l 0.15,0.13 c 0.21,0.18 0.41,0.37 0.61,0.57 0.2,0.2 0.5,0.5 0.74,0.76 0.24,0.26 0.49,0.53 0.72,0.81 0.23,0.28 0.47,0.52 0.7,0.86 z"
     style="fill:#ffffff"
     id="path277" />
  <rect
     x="392.5"
     y="148.5"
     width="54.540001"
     height="5.8400002"
     style="fill:#dbdbdb"
     id="rect279" />
  <path
     d="m 380.06,150.48 a 1.24,1.24 0 1 1 -1.24,-1.24 1.23,1.23 0 0 1 1.24,1.24 z"
     style="fill:#dbdbdb"
     id="path281" />
  <path
     d="m 381,153.89 v 0.45 h -4.28 v -0.45 a 2.14,2.14 0 1 1 4.28,0 z"
     style="fill:#dbdbdb"
     id="path283" />
  <path
     d="m 383.23,149.73 a 1.24,1.24 0 1 1 -1.23,-1.23 1.23,1.23 0 0 1 1.23,1.23 z"
     style="fill:#dbdbdb"
     id="path285" />
  <path
     d="m 384.13,153.14 v 0.45 h -4.28 v -0.45 a 2.14,2.14 0 0 1 4.28,0 z"
     style="fill:#dbdbdb"
     id="path287" />
  <rect
     x="484.28"
     y="148.5"
     width="54.540001"
     height="5.8400002"
     style="fill:#dbdbdb"
     id="rect289" />
  <path
     d="m 475.91,148.5 h -7.43 v 5.84 h 7.43 l 2.22,-2.92 z m 0.06,3.36 a 0.44,0.44 0 0 1 -0.44,-0.44 0.44,0.44 0 0 1 0.47,-0.42 0.43,0.43 0 0 1 0.44,0.44 0.44,0.44 0 0 1 -0.44,0.42 z"
     style="fill:#dbdbdb"
     id="path291" />
  <rect
     x="180.89999"
     y="107.92"
     width="91.239998"
     height="234.91"
     style="fill:#ffc727"
     id="rect293" />
  <rect
     x="193.66"
     y="142.7"
     width="65.730003"
     height="17.43"
     style="fill:#ffffff"
     id="rect295" />
  <rect
     x="193.66"
     y="122.62"
     width="9.1599998"
     height="1.47"
     style="fill:#ffffff"
     id="rect297" />
  <rect
     x="193.66"
     y="129.22"
     width="9.1599998"
     height="1.47"
     style="fill:#ffffff"
     id="rect299" />
  <rect
     x="193.66"
     y="125.96"
     width="9.1599998"
     height="1.47"
     style="fill:#ffffff"
     id="rect301" />
  <rect
     x="211.52"
     y="122.62"
     width="12.74"
     height="8.0799999"
     style="fill:#ebebeb"
     id="rect303" />
  <path
     d="m 224.26,122.62 v 8.07 h -12.74 v -8.07 c 0.55,0.31 1.09,0.63 1.63,0.95 0.54,0.32 1.08,0.64 1.61,1 l 1.79,1.11 v 0 l 1.34,0.84 1.34,-0.84 v 0 l 1.79,-1.11 c 0.53,-0.33 1.07,-0.65 1.61,-1 0.54,-0.35 1.08,-0.64 1.63,-0.95 z"
     style="fill:#ebebeb"
     id="path305" />
  <path
     d="m 224.26,122.62 -1.56,1.06 -1.57,1 -1.65,1.07 v 0 l -1.47,0.94 h -0.07 -0.07 l -1.47,-0.94 v 0 l -1.65,-1.07 -1.57,-1 -1.56,-1.06 c 0.55,0.31 1.09,0.63 1.63,0.95 0.54,0.32 1.08,0.64 1.61,1 l 1.79,1.11 v 0 l 1.34,0.84 1.34,-0.84 v 0 l 1.79,-1.11 c 0.53,-0.33 1.07,-0.65 1.61,-1 0.54,-0.35 0.98,-0.64 1.53,-0.95 z"
     style="fill:#ffffff"
     id="path307" />
  <path
     d="m 216.57,125.64 v 0 l -0.2,0.17 c -0.32,0.27 -0.64,0.53 -1,0.78 -0.36,0.25 -0.82,0.61 -1.23,0.9 -0.41,0.29 -0.84,0.58 -1.27,0.85 -0.43,0.27 -0.87,0.55 -1.32,0.79 0.39,-0.34 0.79,-0.65 1.2,-1 0.41,-0.35 0.82,-0.61 1.23,-0.9 0.41,-0.29 0.84,-0.58 1.28,-0.85 0.44,-0.27 0.69,-0.44 1,-0.64 l 0.25,-0.14 z"
     style="fill:#ffffff"
     id="path309" />
  <path
     d="m 224.23,129.14 c -0.45,-0.24 -0.89,-0.51 -1.32,-0.79 -0.43,-0.28 -0.85,-0.56 -1.27,-0.85 -0.42,-0.29 -0.83,-0.59 -1.24,-0.9 -0.41,-0.31 -0.65,-0.51 -1,-0.78 l -0.2,-0.17 v 0 l 0.25,0.14 c 0.35,0.2 0.7,0.42 1,0.64 0.3,0.22 0.86,0.56 1.27,0.85 0.41,0.29 0.84,0.59 1.24,0.9 0.4,0.31 0.88,0.62 1.27,0.96 z"
     style="fill:#ffffff"
     id="path311" />
  <rect
     x="180.89999"
     y="175.33"
     width="91.239998"
     height="12.39"
     style="opacity:0.1;fill:#020100"
     id="rect313" />
  <rect
     x="193.66"
     y="177.99001"
     width="52.91"
     height="7.2800002"
     style="fill:#ffffff"
     id="rect315" />
  <rect
     x="193.66"
     y="192.24001"
     width="52.91"
     height="7.2800002"
     style="fill:#ffffff"
     id="rect317" />
  <rect
     x="193.66"
     y="206.5"
     width="52.91"
     height="7.2800002"
     style="fill:#ffffff"
     id="rect319" />
  <rect
     x="193.66"
     y="220.75"
     width="52.91"
     height="7.2800002"
     style="fill:#ffffff"
     id="rect321" />
  <rect
     x="204.89"
     y="235.00999"
     width="52.91"
     height="7.2800002"
     style="fill:#455a64"
     id="rect323" />
  <rect
     x="204.89"
     y="249.25999"
     width="52.91"
     height="7.2800002"
     style="fill:#455a64"
     id="rect325" />
  <rect
     x="193.66"
     y="263.51999"
     width="52.91"
     height="7.2800002"
     style="fill:#ffffff"
     id="rect327" />
  <rect
     x="193.66"
     y="277.76999"
     width="52.91"
     height="7.2800002"
     style="fill:#ffffff"
     id="rect329" />
  <g
     id="freepik--paper-plane--inject-150">
    <path
       d="M180.36,268.47c-.06-.68-.09-1.36-.09-2H181c0,.65,0,1.31.09,2Z"
       style="fill:#263238"
       id="path332" />
    <path
       d="M244.78,316.11v-.75c1.33,0,2.67-.05,4-.14l.05.75C247.47,316.05,246.12,316.1,244.78,316.11Zm-5-.15c-1.34-.09-2.69-.22-4-.39l.09-.74c1.31.16,2.65.29,4,.38Zm14.06-.5-.1-.75c1.3-.18,2.63-.4,3.93-.66l.14.74C256.47,315.05,255.13,315.27,253.81,315.46Zm-23-.71c-1.3-.26-2.62-.57-3.92-.91l.19-.72c1.28.33,2.59.64,3.88.9Zm31.91-1.11-.19-.72c1.27-.34,2.56-.73,3.82-1.15l.23.72C265.27,312.91,264,313.29,262.68,313.64ZM222,312.38c-1.27-.43-2.54-.9-3.78-1.41l.29-.69c1.22.5,2.48,1,3.73,1.39Zm49.24-1.62-.28-.7c.64-.25,1.28-.52,1.92-.8s1.16-.51,1.73-.78l.32.67c-.58.28-1.16.54-1.75.8Zm-57.61-1.85c-1.2-.58-2.4-1.22-3.56-1.87l.36-.66c1.16.65,2.34,1.28,3.53,1.86Zm65.74-2.11-.38-.65c1.13-.66,2.26-1.38,3.35-2.13l.42.62C281.69,305.4,280.55,306.12,279.4,306.8Zm-73.6-2.38c-1.12-.73-2.23-1.51-3.3-2.31l.44-.6c1.07.79,2.17,1.56,3.27,2.28Zm81-2.8-.47-.58c1-.82,2-1.7,3-2.61l.51.55C288.85,299.9,287.83,300.79,286.81,301.62ZM198.56,299c-1-.87-2-1.79-3-2.72l.52-.54c1,.92,1.94,1.83,3,2.69Zm94.85-3.53-.54-.52c.89-.95,1.78-1.95,2.65-3l.57.49C295.21,293.47,294.31,294.48,293.41,295.44ZM192.1,292.62c-.9-1-1.76-2.06-2.58-3.11l.6-.46c.8,1,1.65,2.07,2.54,3.07Zm107.14-4.1-.6-.46c.78-1,1.57-2.11,2.35-3.22l.62.43C300.82,286.39,300,287.48,299.24,288.52Zm-112.62-3.13c-.74-1.15-1.42-2.32-2-3.49l.67-.35c.6,1.15,1.28,2.3,2,3.43Zm117.79-4.29-.63-.4c.72-1.12,1.42-2.25,2.12-3.39l.64.39C305.84,278.85,305.13,280,304.41,281.1Zm-121.93-3.79a35.85,35.85,0,0,1-1.25-3.85l.72-.19a36,36,0,0,0,1.23,3.77Zm126.61-3.94-.66-.37c.66-1.15,1.31-2.32,2-3.5l.65.36Q310.08,271.63,309.09,273.37Zm4.33-7.93-.67-.35c.62-1.17,1.24-2.36,1.85-3.55l.67.34C314.65,263.08,314,264.27,313.42,265.44Zm4.12-8-.67-.34,1.8-3.58.67.33Zm4-8.07-.67-.34,1.8-3.58.67.33Zm4.06-8L325,241c.6-1.19,1.22-2.38,1.84-3.57l.66.35Zm4.18-8-.66-.36q.94-1.76,1.92-3.51l.66.36Q330.77,231.57,329.82,233.32Zm4.38-7.84-.65-.38q1-1.72,2-3.45l.65.39C335.55,223.18,334.87,224.33,334.2,225.48Zm4.67-7.67-.63-.4c.72-1.13,1.45-2.24,2.2-3.35l.62.42C340.31,215.58,339.59,216.69,338.87,217.81Zm5-7.43-.61-.44c.78-1.09,1.58-2.16,2.39-3.23l.6.45C345.48,208.23,344.69,209.3,343.91,210.38Zm5.47-7.13-.58-.48c.86-1,1.73-2.07,2.6-3.06l.56.49C351.1,201.19,350.23,202.21,349.38,203.25Zm5.95-6.73-.55-.52c.93-1,1.88-1.94,2.82-2.86l.53.53C357.19,194.59,356.25,195.55,355.33,196.52Zm6.44-6.26-.5-.55c1-.89,2-1.78,3-2.63l.48.58C363.77,188.5,362.75,189.38,361.77,190.26Zm6.93-5.69-.45-.6c1.07-.81,2.17-1.6,3.26-2.35l.42.62C370.85,183,369.77,183.77,368.7,184.57Zm7.39-5.08-.39-.63c1.13-.71,2.29-1.4,3.45-2.06l.37.65C378.37,178.1,377.22,178.79,376.09,179.49Z"
       style="fill:#263238"
       id="path334" />
    <path
       d="M384.08,175l-.34-.66q.88-.47,1.8-.9l.33.68Z"
       style="fill:#263238"
       id="path336" />
    <polygon
       points="381.81 162.9 375.54 180.13 388.71 169.84 439.05 151.58 381.81 162.9"
       style="fill:#FFC727"
       id="polygon338" />
    <polygon
       points="381.81 162.9 375.54 180.13 388.71 169.84 439.05 151.58 381.81 162.9"
       style="opacity:0.1"
       id="polygon340" />
    <polygon
       points="390.4 173.85 375.54 180.13 388.71 169.84 390.4 173.85"
       style="fill:#263238"
       id="polygon342" />
    <polygon
       points="388.71 169.84 439.05 151.58 397.76 191.88 388.71 169.84"
       style="fill:#FFC727"
       id="polygon344" />
    <polygon
       points="381.81 162.9 360.89 149.39 439.05 151.58 381.81 162.9"
       style="fill:#FFC727"
       id="polygon346" />
  </g>
  <g
     id="freepik--Notification--inject-150">
    <circle
       cx="561.89"
       cy="107.36"
       r="48.78"
       transform="translate(322.6 626.97) rotate(-76.09)"
       style="fill:#a6a6a6"
       id="circle349" />
    <rect
       x="528.6"
       y="86.25"
       width="66.59"
       height="42.23"
       style="fill:#fff"
       id="rect351" />
    <path
       d="M595.19,86.25c-2.69,2.57-5.43,5-8.14,7.56s-5.47,5-8.22,7.41-5.75,5.09-8.63,7.61l-.26.24-7.67,6.66-.38.31-.37-.31-7.66-6.67-.27-.23c-2.89-2.52-5.77-5-8.64-7.63s-5.48-4.91-8.21-7.39-5.45-5-8.14-7.56c2.86,2.2,5.67,4.52,8.5,6.78s5.64,4.6,8.44,6.94c3.12,2.58,6.24,5.21,9.35,7.86,0,0,0,0,0,0,2.33,2,4.66,4,7,5.94,2.32-2,4.65-4,7-5.94,0,0,0,0,0,0q4.67-4,9.35-7.87c2.8-2.32,5.61-4.64,8.43-6.92S592.33,88.45,595.19,86.25Z"
       style="fill:#dbdbdb"
       id="path353" />
    <path
       d="M555,108.79l-.08.07-1,.89c-1.67,1.41-3.38,2.76-5.12,4.07-2.12,1.62-4.29,3.17-6.47,4.71s-4.39,3-6.64,4.46-4.52,2.85-6.87,4.14c2-1.77,4.12-3.42,6.24-5s4.3-3.17,6.47-4.72,4.4-3,6.65-4.46c1.79-1.15,3.61-2.28,5.47-3.34l1.3-.73Z"
       style="fill:#dbdbdb"
       id="path355" />
    <path
       d="M595,127.13c-2.35-1.29-4.63-2.7-6.87-4.14s-4.45-2.94-6.65-4.46-4.35-3.09-6.47-4.71c-1.73-1.31-3.44-2.65-5.1-4.06l-1.06-.9-.08-.07.1,0,1.3.74c1.86,1.06,3.67,2.19,5.47,3.34,2.25,1.44,4.45,2.94,6.64,4.46s4.35,3.1,6.47,4.72S593,125.36,595,127.13Z"
       style="fill:#dbdbdb"
       id="path357" />
    <circle
       cx="587.9"
       cy="86.25"
       r="10.74"
       transform="translate(3.82 195.41) rotate(-18.93)"
       style="fill:#FFC727"
       id="circle359" />
    <path
       d="M586.72,88.61V79.87a1.2,1.2,0,0,1,1.19-1.19,1.18,1.18,0,0,1,1.17,1.19v8.74a1.16,1.16,0,0,1-1.17,1.18A1.18,1.18,0,0,1,586.72,88.61Zm1.19,5.21a1.19,1.19,0,0,1-1.19-1.19V92.2A1.2,1.2,0,0,1,587.91,91a1.18,1.18,0,0,1,1.17,1.19v.43A1.17,1.17,0,0,1,587.91,93.82Z"
       style="fill:#fff"
       id="path361" />
  </g>
</svg>
