<svg xmlns="http://www.w3.org/2000/svg" xmlns:xlink="http://www.w3.org/1999/xlink" viewBox="0 0 942 440"><defs><linearGradient id="linear-gradient" y1="40.46" x2="80.79" y2="40.46" gradientUnits="userSpaceOnUse"><stop offset="0" stop-color="#7ea573"/><stop offset="1" stop-color="#b6db6c"/></linearGradient><clipPath id="clip-path"><rect id="Clipping_Mask" data-name="Clipping Mask" width="942" height="440" fill="none"/></clipPath><linearGradient id="linear-gradient-2" x1="471" y1="320" x2="471" gradientUnits="userSpaceOnUse"><stop offset="0" stop-color="#c5eeeb"/><stop offset="1" stop-color="#8fcdd8"/></linearGradient><symbol id="Cloud_2" data-name="Cloud 2" viewBox="0 0 93.2 40.5"><path d="M93.2,32.7a7.8,7.8,0,0,0-7.6-7.8A13.6,13.6,0,0,0,72,9.5a13.6,13.6,0,0,0-6.8,1.8,19.3,19.3,0,0,0-36.6,5.4A12.4,12.4,0,0,0,11,27.8H6.4a6.4,6.4,0,0,0,0,12.7H87.2l-.2-.2A7.8,7.8,0,0,0,93.2,32.7Z" fill="#fff"/></symbol><symbol id="Cloud_1" data-name="Cloud 1" viewBox="0 0 44.8 22.1"><path d="M44.8,17.8a4.2,4.2,0,0,0-4.2-4.2,7.4,7.4,0,0,0-7.4-8.4,7.4,7.4,0,0,0-3.7,1,10.5,10.5,0,0,0-20,2.9,6.8,6.8,0,1,0-2.8,13H41.4A4.2,4.2,0,0,0,44.8,17.8Z" fill="#fff"/></symbol><symbol id="Back_Bush" data-name="Back Bush" viewBox="0 0 84.5 37.9"><path d="M74,16.9l-2.1.2a9.8,9.8,0,1,0-19-5,5.7,5.7,0,0,0-9.6-.4A7.8,7.8,0,0,0,29.6,7.1,8.6,8.6,0,1,0,13.7,13H12.5A12.5,12.5,0,0,0,11,37.9H74a10.5,10.5,0,0,0,0-21Z" fill="#93bca9"/></symbol><symbol id="Elm_Tree" data-name="Elm Tree" viewBox="0 0 80.8 128.5"><rect x="34.2" y="62.9" width="13.3" height="65.62" fill="#6e685d"/><polygon points="39.7 92.5 35.7 94.8 15.2 59.5 19.2 57.1 39.7 92.5" fill="#6e685d"/><polygon points="42.4 92.5 46.4 94.8 66.9 59.5 62.9 57.1 42.4 92.5" fill="#6e685d"/><path d="M80.8,60a21,21,0,0,1-39,10.7A23.7,23.7,0,1,1,11.4,35a10.2,10.2,0,0,1,6.8-17.8,9.8,9.8,0,0,1,2.8.4,13.6,13.6,0,0,1-.6-3.9A13.7,13.7,0,0,1,46.1,6.8,10.2,10.2,0,0,1,61.8,17.4a15.2,15.2,0,0,1,9.5,25.1A20.9,20.9,0,0,1,80.8,60Z" fill="url(#linear-gradient)"/></symbol><symbol id="Pine_Tree" data-name="Pine Tree" viewBox="0 0 40.3 67.8"><polygon points="20.1 59 40.3 59 20.1 0 20.1 59" fill="#b6db6c"/><polygon points="20.1 59 0 59 20.1 0 20.1 59" fill="#7ea573"/><rect x="16" y="59" width="8.3" height="8.77" fill="#6e685d"/></symbol><symbol id="Front_Bush" data-name="Front Bush" viewBox="0 0 53.4 19.1"><path d="M50.8,13A6.8,6.8,0,0,0,38.6,7.7a3.2,3.2,0,0,0-6-.2h-.2a5.1,5.1,0,0,0-4.6-2.9l-1.2.2a6.2,6.2,0,0,0-12,.5,6.1,6.1,0,0,0-9.7,5.8H4.1a4.1,4.1,0,0,0-1,8.1H50.4a3,3,0,0,0,.5-6Z" fill="#7ea573"/></symbol></defs><title>cityscape9</title><g style="isolation:isolate"><g id="Cityscape"><g clip-path="url(#clip-path)"><g id="Sky"><rect width="942" height="320" fill="url(#linear-gradient-2)"/></g><g id="Skyline"><polygon id="Skyline2" points="24.8 143.1 24.9 143.1 58.2 142.8 58.8 180.1 72.8 179.6 106.9 146 106.8 183.9 101 196.7 106.6 196.6 126.5 179.6 126.5 167.6 153.3 143 186.7 142.7 214.5 167.6 214.5 192.7 214.5 193.2 236.1 168.3 267.7 167.9 290.1 193 290.1 210.1 299 210.1 298.5 200.5 300 158.9 314.3 143.9 331 159.5 331.4 192 341.1 192.2 346.1 143.2 412 143.2 416.7 200.5 436.8 180.9 443.1 143 443.2 143 476.5 142.7 481.7 180.6 496.5 180.9 504.2 167.6 504.3 167.6 504.3 167.5 543.5 202.2 544.7 179.5 544.7 167.5 571.6 142.9 604.9 142.5 632.8 167.5 632.8 192.6 653.8 193.2 654.3 167.7 686.2 167.7 708.6 192.8 708.6 209.9 717.4 209.9 734.8 188.9 739.8 142.5 803.6 142.5 810.3 188.7 811.3 215.4 834.8 195.4 855.9 186.7 875.4 161.9 910.9 161.9 933.3 187 933.3 204.1 942.1 204.1 959.5 220.6 959.5 195.2 959.5 195.2 959.5 188.9 959.5 188.9 959.5 185.7 964.5 145.8 1030.3 145.8 1035.3 194.7 1035.3 362.8 964.8 362.8 959.5 362.8 933.3 362.8 881.9 362.8 872.8 362.8 872.8 363 859.8 363 859.8 362.8 811.3 362.8 811.3 215.4 811.1 360.2 740.1 359.6 734.8 359.6 708.6 359.6 663.8 359.6 654.7 359.6 654.7 359.8 641.7 359.8 641.7 359.6 632.8 359.6 632.8 359.9 598.4 359.9 581.4 359.9 561.7 359.9 544.7 359.9 544.7 359.8 526 359.8 511.7 359.8 504.3 359.8 504.3 360 469.9 360 417 360 417 360.3 346.4 360.3 341.1 360.3 314.9 360.3 245.5 360.2 236.4 360.2 236.4 360.5 223.4 360.5 223.4 360.2 214.5 360.2 214.5 359.7 180.1 360 163.2 360 143.4 360 126.5 360 126.5 360 107.7 360 93.5 360 86.1 360 86.1 360.1 51.7 360.1 -2 360.1 -2 167.7 24.8 143.1" fill="#6e685d" opacity="0.11"/><polygon id="Skyline1" points="968.1 160.6 968 160.6 934.7 160.3 906.9 185.2 906.9 185.2 906.8 185.1 906.9 214.2 886.3 214.1 866.4 197.1 866.4 185.1 839.6 160.5 806.2 160.1 778.4 185.1 778.4 210.2 778.4 210.7 756.8 185.8 725.1 185.4 702.7 210.5 702.7 227.5 693.9 227.5 688.4 218 687.9 200.4 673.6 185.4 656.9 201 651.7 209.6 646.7 160.7 580.9 160.7 576.2 218 556.1 198.4 549.8 160.4 549.7 160.5 516.4 160.2 511.2 198.1 496.4 198.4 488.6 185.1 488.6 185.1 488.6 185 449.4 219.7 448.2 197 448.2 185 421.3 160.3 388 160 360.1 185 360.1 210.1 339.1 210.7 338.6 185.2 306.7 185.2 284.3 210.3 284.3 227.3 275.5 227.3 258.1 206.4 253.1 160 188.3 160 181.5 206.2 181.6 232.9 158.1 212.9 137 204.2 117.5 179.3 82 179.4 59.6 204.5 59.6 221.6 50.8 221.6 33.4 238.1 33.4 212.6 33.4 212.6 33.4 206.3 33.4 206.3 33.4 203.2 28.4 163.2 -37.4 163.2 -42.4 212.2 -42.4 380.3 28.1 380.3 33.4 380.3 59.6 380.3 111 380.3 120.1 380.3 120.1 380.5 133.1 380.5 133.1 380.3 181.6 380.3 181.6 232.9 181.8 377.7 252.8 377.1 258.1 377.1 284.3 377.1 329.1 377.1 338.2 377.1 338.2 377.3 351.2 377.3 351.2 377.1 360.1 377.1 360.1 377.3 394.5 377.3 411.5 377.3 431.2 377.3 448.2 377.3 448.2 377.3 466.9 377.3 481.1 377.3 488.6 377.3 488.6 377.4 522.9 377.4 575.9 377.4 575.9 377.8 646.5 377.8 651.7 377.8 678 377.8 747.4 377.7 756.5 377.7 756.5 378 769.5 378 769.5 377.7 778.4 377.7 778.4 377.2 812.8 377.5 829.7 377.5 849.5 377.5 866.4 377.5 866.4 377.5 885.2 377.5 899.4 377.5 906.8 377.5 906.8 377.6 941.2 377.6 994.9 377.6 994.9 185.2 968.1 160.6" fill="#9cc1c3"/></g><g id="Clouds"><path d="M714,96.8a7,7,0,0,1,6.8-6.9,12.1,12.1,0,0,1,12.1-13.7,12.1,12.1,0,0,1,6.1,1.6,17.2,17.2,0,0,1,32.7,4.8,11.1,11.1,0,1,1,4.6,21.3H719.4l.2-.2A7,7,0,0,1,714,96.8Z" fill="#fff" opacity="0.35"/><path d="M966.5,64.5a12.7,12.7,0,0,0-12.4-12.7A22.1,22.1,0,0,0,932,26.7a22.1,22.1,0,0,0-11.1,3,31.4,31.4,0,0,0-59.8,8.8,20.3,20.3,0,1,0-8.4,38.9H956.8l-.3-.3A12.7,12.7,0,0,0,966.5,64.5Z" fill="#fff" opacity="0.35"/><path d="M354.3,67.5c0-6,4.3-10.9,9.7-11a21.4,21.4,0,0,1-.2-2.5c0-10.6,7.8-19.3,17.4-19.3a16,16,0,0,1,8.7,2.6c3.9-9.4,12.4-16,22.4-16,12.5,0,22.8,10.3,24.3,23.6a14.5,14.5,0,0,1,6.6-1.6c8.7,0,15.7,7.7,15.9,17.2H465c4.5,0,8.1,4,8.1,9s-3.6,9-8.1,9H361.9l.2-.3C357.6,77.2,354.3,72.8,354.3,67.5Z" fill="#fff" opacity="0.25"/><path d="M128.1,81.4c0-7.8,5.6-14.1,12.7-14.3a27.8,27.8,0,0,1-.2-3.2c0-13.9,10.1-25.1,22.7-25.1a20.9,20.9,0,0,1,11.3,3.4c5-12.3,16.2-20.8,29.1-20.8,16.2,0,29.6,13.4,31.7,30.8a18.9,18.9,0,0,1,8.6-2.1c11.3,0,20.4,10,20.7,22.4h7.7c5.8,0,10.6,5.2,10.6,11.7s-4.7,11.7-10.6,11.7H138l.3-.3C132.5,94,128.1,88.3,128.1,81.4Z" fill="#fff" opacity="0.16"/><path d="M81.5,104.5c0-4.7-3.4-8.6-7.7-8.7a16.9,16.9,0,0,0,.1-2c0-8.4-6.1-15.2-13.7-15.2a12.7,12.7,0,0,0-6.9,2c-3.1-7.4-9.8-12.6-17.7-12.6-9.8,0-18,8.1-19.2,18.6a11.5,11.5,0,0,0-5.2-1.3c-6.8,0-12.4,6.1-12.5,13.6H-5.9c-3.5,0-6.4,3.2-6.4,7.1s2.9,7.1,6.4,7.1H75.5l-.2-.2A8.5,8.5,0,0,0,81.5,104.5Z" fill="#fff" opacity="0.21"/><use width="93.2" height="40.54" transform="translate(669.4 75.7) scale(0.93)" xlink:href="#Cloud_2"/><use width="44.8" height="22.08" transform="translate(435.1 55.6) scale(1.36)" xlink:href="#Cloud_1"/><use width="44.8" height="22.08" transform="translate(517.1 86.1) scale(0.76)" xlink:href="#Cloud_1"/></g><g id="Behind_Bushes" data-name="Behind Bushes"><use width="84.5" height="37.95" transform="translate(837.5 285.1) scale(0.93)" xlink:href="#Back_Bush"/><use width="84.5" height="37.95" transform="translate(767.6 272.3) scale(1.25)" xlink:href="#Back_Bush"/><use width="84.5" height="37.95" transform="translate(309 283.7) scale(1.11)" xlink:href="#Back_Bush"/><use width="84.5" height="37.95" transform="translate(59.3 282.2)" xlink:href="#Back_Bush"/><use width="84.5" height="37.95" transform="translate(-26.7 270.2) scale(1.32)" xlink:href="#Back_Bush"/></g><g id="Trees"><use width="80.8" height="128.53" transform="translate(834.5 180.1) scale(1.08)" xlink:href="#Elm_Tree"/><use width="80.8" height="128.53" transform="translate(324.4 219.3) scale(0.78)" xlink:href="#Elm_Tree"/><use width="80.8" height="128.53" transform="matrix(-0.94, 0, 0, 0.94, 430.31, 199.07)" xlink:href="#Elm_Tree"/><use width="80.8" height="128.53" transform="translate(682.1 213.7) scale(0.89)" xlink:href="#Elm_Tree"/><use width="80.8" height="128.53" transform="translate(-17.3 178.9) scale(1.09)" xlink:href="#Elm_Tree"/><use width="80.8" height="128.53" transform="translate(29.7 210.2) scale(0.85)" xlink:href="#Elm_Tree"/></g><g id="Houses"><g id="House_6" data-name="House 6"><rect x="576.9" y="223.3" width="34.4" height="96.68" fill="#ffe579"/><polygon points="576.9 320 523.2 320 523.2 223.3 550 198.7 576.9 223.3 576.9 320" fill="#ffeda1"/><polygon points="550 198.7 583.4 198.4 611.3 223.3 576.9 223.3 550 198.7" fill="#e75b2d"/><circle cx="550.1" cy="235.9" r="9.9" fill="#6e685d" opacity="0.2"/><path d="M549.5,284h1.1a9.3,9.3,0,0,1,9.3,9.3V320a0,0,0,0,1,0,0H540.2a0,0,0,0,1,0,0V293.3a9.3,9.3,0,0,1,9.3-9.3Z" fill="#7ea573"/><path d="M588.2,287h12.7a0,0,0,0,1,0,0v16.1a6,6,0,0,1-6,6h-.7a6,6,0,0,1-6-6V287A0,0,0,0,1,588.2,287Z" transform="translate(1189.2 596.1) rotate(-180)" fill="#6e685d" opacity="0.2"/><path d="M594.9,258.7h-.7a6,6,0,0,0-6,6v16.1h12.7V264.7A6,6,0,0,0,594.9,258.7Z" fill="#6e685d" opacity="0.2"/><path d="M594.9,231.5h-.7a6,6,0,0,0-6,6v16.1h12.7V237.5A6,6,0,0,0,594.9,231.5Z" fill="#6e685d" opacity="0.2"/><g opacity="0.2"><rect x="574.9" y="259.3" width="2" height="1.96" fill="#6e685d"/><rect x="570.9" y="259.3" width="2" height="1.96" fill="#6e685d"/><rect x="566.9" y="259.3" width="2" height="1.96" fill="#6e685d"/><rect x="562.9" y="259.3" width="2" height="1.96" fill="#6e685d"/><rect x="558.9" y="259.3" width="2" height="1.96" fill="#6e685d"/><rect x="554.9" y="259.3" width="2" height="1.96" fill="#6e685d"/><rect x="550.9" y="259.3" width="2" height="1.96" fill="#6e685d"/><rect x="546.9" y="259.3" width="2" height="1.96" fill="#6e685d"/><rect x="542.9" y="259.3" width="2" height="1.96" fill="#6e685d"/><rect x="538.9" y="259.3" width="2" height="1.96" fill="#6e685d"/><rect x="534.9" y="259.3" width="2" height="1.96" fill="#6e685d"/><rect x="530.9" y="259.3" width="2" height="1.96" fill="#6e685d"/><rect x="526.9" y="259.3" width="2" height="1.96" fill="#6e685d"/></g></g><g id="House_5" data-name="House 5"><rect x="713.3" y="247.3" width="74.8" height="72.46" fill="#c5eeeb"/><polygon points="783.1 198.4 718.3 198.4 713.3 247.3 788.1 247.3 783.1 198.4" fill="#7ea573"/><path d="M736.3,289.4h0a7.5,7.5,0,0,1,7.5,7.5v22.7a0,0,0,0,1,0,0H728.7a0,0,0,0,1,0,0V297A7.5,7.5,0,0,1,736.3,289.4Z" fill="#8eb0b2"/><path d="M736.3,262.7h0a7.5,7.5,0,0,1,7.5,7.5v9.2a0,0,0,0,1,0,0H728.7a0,0,0,0,1,0,0v-9.2A7.5,7.5,0,0,1,736.3,262.7Z" fill="#9cc1c3" opacity="0.4"/><path d="M765.3,237.7h0a7.5,7.5,0,0,1,7.5,7.5V247a0,0,0,0,1,0,0H757.7a0,0,0,0,1,0,0v-1.8a7.5,7.5,0,0,1,7.5-7.5Z" fill="#6e685d" opacity="0.4"/><path d="M737.1,237.7h0a7.5,7.5,0,0,1,7.5,7.5V247a0,0,0,0,1,0,0H729.6a0,0,0,0,1,0,0v-1.8A7.5,7.5,0,0,1,737.1,237.7Z" fill="#6e685d" opacity="0.4"/><path d="M765.3,262.7h0a7.5,7.5,0,0,1,7.5,7.5v9.2a0,0,0,0,1,0,0H757.7a0,0,0,0,1,0,0v-9.2A7.5,7.5,0,0,1,765.3,262.7Z" fill="#9cc1c3" opacity="0.4"/><path d="M765.3,289.3h0a7.5,7.5,0,0,1,7.5,7.5v8.8a0,0,0,0,1,0,0H757.7a0,0,0,0,1,0,0v-8.8A7.5,7.5,0,0,1,765.3,289.3Z" fill="#9cc1c3" opacity="0.4"/><path d="M788.1,250.5v6.3h-3.4V255a2.6,2.6,0,0,0-5.2,0v1.8h-1.8V255a2.6,2.6,0,0,0-5.2,0v1.8h-1.8V255a2.6,2.6,0,0,0-5.2,0v1.8h-1.8V255a2.6,2.6,0,0,0-5.2,0v1.8h-1.8V255a2.6,2.6,0,0,0-5.2,0v1.8h-1.8V255a2.6,2.6,0,0,0-5.2,0v1.8h-1.8V255a2.6,2.6,0,0,0-5.2,0v1.8h-1.8V255a2.6,2.6,0,0,0-5.2,0v1.8h-1.8V255a2.6,2.6,0,0,0-5.2,0v1.8h-1.8V255a2.6,2.6,0,0,0-5.2,0v1.8h-3.2v-6.3Z" fill="#8eb0b2" opacity="0.4"/></g><g id="House_4" data-name="House 4"><rect x="611.1" y="248.6" width="31.2" height="71.11" transform="translate(1253.3 568.4) rotate(-180)" fill="#a7d9dd"/><polygon points="664.7 223.5 632.8 223.5 611.1 248.6 642.3 248.6 664.7 223.5" fill="#6e685d"/><rect x="620.2" y="289.1" width="13" height="30.91" fill="#4e828b" opacity="0.4"/><polygon points="642.3 319.8 687.1 319.8 687.1 248.6 664.7 223.5 642.3 248.6 642.3 319.8" fill="#a7d9dd"/><polygon points="642.3 319.8 687.1 319.8 687.1 248.6 664.7 223.5 642.3 248.6 642.3 319.8" fill="#222221" opacity="0.12"/><rect x="652.6" y="254.5" width="9.4" height="16.28" transform="translate(1314.6 525.2) rotate(-180)" fill="#6e685d" opacity="0.2"/><rect x="667.7" y="254.5" width="9.4" height="16.28" transform="translate(1344.8 525.2) rotate(-180)" fill="#6e685d" opacity="0.2"/><rect x="652.6" y="275" width="9.4" height="16.28" transform="translate(1314.6 566.3) rotate(-180)" fill="#6e685d" opacity="0.2"/><rect x="667.7" y="275" width="9.4" height="16.28" transform="translate(1344.8 566.3) rotate(-180)" fill="#6e685d" opacity="0.2"/><rect x="687.1" y="287.2" width="31.5" height="32.51" fill="#8eb0b2"/><polygon points="687.1 265.7 695.9 265.7 718.6 287.2 687.1 287.2 687.1 265.7" fill="#6e685d"/><rect x="687.1" y="293.5" width="26.2" height="26.23" fill="#222221" opacity="0.15"/></g><g id="House_3" data-name="House 3"><rect x="448.4" y="223.4" width="34.4" height="96.68" fill="#a7d9dd" opacity="0.6"/><polygon points="448.4 320.1 394.8 320.1 394.8 223.4 421.6 198.8 448.4 223.4 448.4 320.1" fill="#d6f3f1"/><polygon points="421.6 198.9 455 198.5 482.8 223.5 448.4 223.5 421.6 198.9" fill="#7ea573"/><path d="M422,289.6h0a8.3,8.3,0,0,1,8.3,8.3v22a0,0,0,0,1,0,0H413.7a0,0,0,0,1,0,0v-22A8.3,8.3,0,0,1,422,289.6Z" fill="#d94918"/><path d="M414.2,229.7h-.7a6,6,0,0,0-6,6v16.1h12.7V235.7A6,6,0,0,0,414.2,229.7Z" fill="#a7d9dd" opacity="0.6"/><path d="M430.8,229.7h-.7a6,6,0,0,0-6,6v16.1h12.7V235.7A6,6,0,0,0,430.8,229.7Z" fill="#a7d9dd" opacity="0.6"/><path d="M414.1,255.3h-.7a6,6,0,0,0-6,6v16.1h12.7V261.3A6,6,0,0,0,414.1,255.3Z" fill="#a7d9dd" opacity="0.6"/><path d="M430.8,255.3h-.7a6,6,0,0,0-6,6v16.1h12.7V261.3A6,6,0,0,0,430.8,255.3Z" fill="#a7d9dd" opacity="0.6"/><g opacity="0.81"><rect x="448.4" y="304.5" width="5.2" height="1.75" fill="#9cc1c3"/><rect x="448.4" y="299.5" width="5.2" height="1.75" fill="#9cc1c3"/><rect x="448.4" y="294.5" width="5.2" height="1.75" fill="#9cc1c3"/><rect x="448.4" y="289.5" width="5.2" height="1.75" fill="#9cc1c3"/><rect x="448.4" y="284.5" width="5.2" height="1.75" fill="#9cc1c3"/><rect x="448.4" y="279.5" width="5.2" height="1.75" fill="#9cc1c3"/><rect x="448.4" y="274.5" width="5.2" height="1.75" fill="#9cc1c3"/><rect x="448.4" y="269.5" width="5.2" height="1.75" fill="#9cc1c3"/><rect x="448.4" y="264.5" width="5.2" height="1.75" fill="#9cc1c3"/><rect x="448.4" y="259.5" width="5.2" height="1.75" fill="#9cc1c3"/><rect x="448.4" y="254.5" width="5.2" height="1.75" fill="#9cc1c3"/><rect x="448.4" y="249.5" width="5.2" height="1.75" fill="#9cc1c3"/><rect x="448.4" y="244.5" width="5.2" height="1.75" fill="#9cc1c3"/><rect x="448.4" y="239.5" width="5.2" height="1.75" fill="#9cc1c3"/><rect x="448.4" y="299.5" width="5.2" height="1.75" fill="#9cc1c3"/><rect x="448.4" y="294.5" width="5.2" height="1.75" fill="#9cc1c3"/><rect x="448.4" y="289.5" width="5.2" height="1.75" fill="#9cc1c3"/><rect x="448.4" y="284.5" width="5.2" height="1.75" fill="#9cc1c3"/><rect x="448.4" y="279.5" width="5.2" height="1.75" fill="#9cc1c3"/><rect x="448.4" y="274.5" width="5.2" height="1.75" fill="#9cc1c3"/><rect x="448.4" y="269.5" width="5.2" height="1.75" fill="#9cc1c3"/><rect x="448.4" y="264.5" width="5.2" height="1.75" fill="#9cc1c3"/><rect x="448.4" y="259.5" width="5.2" height="1.75" fill="#9cc1c3"/><rect x="448.4" y="254.5" width="5.2" height="1.75" fill="#9cc1c3"/><rect x="448.4" y="249.5" width="5.2" height="1.75" fill="#9cc1c3"/><rect x="448.4" y="244.5" width="5.2" height="1.75" fill="#9cc1c3"/><rect x="448.4" y="239.5" width="5.2" height="1.75" fill="#9cc1c3"/><rect x="448.4" y="234.5" width="5.2" height="1.75" fill="#9cc1c3"/><rect x="448.4" y="294.5" width="5.2" height="1.75" fill="#9cc1c3"/><rect x="448.4" y="289.5" width="5.2" height="1.75" fill="#9cc1c3"/><rect x="448.4" y="284.5" width="5.2" height="1.75" fill="#9cc1c3"/><rect x="448.4" y="279.5" width="5.2" height="1.75" fill="#9cc1c3"/><rect x="448.4" y="274.5" width="5.2" height="1.75" fill="#9cc1c3"/><rect x="448.4" y="269.5" width="5.2" height="1.75" fill="#9cc1c3"/><rect x="448.4" y="264.5" width="5.2" height="1.75" fill="#9cc1c3"/><rect x="448.4" y="259.5" width="5.2" height="1.75" fill="#9cc1c3"/><rect x="448.4" y="254.5" width="5.2" height="1.75" fill="#9cc1c3"/><rect x="448.4" y="249.5" width="5.2" height="1.75" fill="#9cc1c3"/><rect x="448.4" y="244.5" width="5.2" height="1.75" fill="#9cc1c3"/><rect x="448.4" y="239.5" width="5.2" height="1.75" fill="#9cc1c3"/><rect x="448.4" y="234.5" width="5.2" height="1.75" fill="#9cc1c3"/><rect x="448.4" y="229.5" width="5.2" height="1.75" fill="#9cc1c3"/><rect x="448.4" y="289.5" width="5.2" height="1.75" fill="#9cc1c3"/><rect x="448.4" y="284.5" width="5.2" height="1.75" fill="#9cc1c3"/><rect x="448.4" y="279.5" width="5.2" height="1.75" fill="#9cc1c3"/><rect x="448.4" y="274.5" width="5.2" height="1.75" fill="#9cc1c3"/><rect x="448.4" y="269.5" width="5.2" height="1.75" fill="#9cc1c3"/><rect x="448.4" y="264.5" width="5.2" height="1.75" fill="#9cc1c3"/><rect x="448.4" y="259.5" width="5.2" height="1.75" fill="#9cc1c3"/><rect x="448.4" y="254.5" width="5.2" height="1.75" fill="#9cc1c3"/><rect x="448.4" y="249.5" width="5.2" height="1.75" fill="#9cc1c3"/><rect x="448.4" y="244.5" width="5.2" height="1.75" fill="#9cc1c3"/><rect x="448.4" y="239.5" width="5.2" height="1.75" fill="#9cc1c3"/><rect x="448.4" y="234.5" width="5.2" height="1.75" fill="#9cc1c3"/><rect x="448.4" y="229.5" width="5.2" height="1.75" fill="#9cc1c3"/><rect x="448.4" y="224.5" width="5.2" height="1.75" fill="#9cc1c3"/></g><g opacity="0.57"><rect x="448.4" y="307" width="2.6" height="1.75" fill="#9cc1c3"/><rect x="448.4" y="302" width="2.6" height="1.75" fill="#9cc1c3"/><rect x="448.4" y="297" width="2.6" height="1.75" fill="#9cc1c3"/><rect x="448.4" y="292" width="2.6" height="1.75" fill="#9cc1c3"/><rect x="448.4" y="287" width="2.6" height="1.75" fill="#9cc1c3"/><rect x="448.4" y="282" width="2.6" height="1.75" fill="#9cc1c3"/><rect x="448.4" y="277" width="2.6" height="1.75" fill="#9cc1c3"/><rect x="448.4" y="272" width="2.6" height="1.75" fill="#9cc1c3"/><rect x="448.4" y="267" width="2.6" height="1.75" fill="#9cc1c3"/><rect x="448.4" y="262" width="2.6" height="1.75" fill="#9cc1c3"/><rect x="448.4" y="257" width="2.6" height="1.75" fill="#9cc1c3"/><rect x="448.4" y="252" width="2.6" height="1.75" fill="#9cc1c3"/><rect x="448.4" y="247" width="2.6" height="1.75" fill="#9cc1c3"/><rect x="448.4" y="242" width="2.6" height="1.75" fill="#9cc1c3"/><rect x="448.4" y="302" width="2.6" height="1.75" fill="#9cc1c3"/><rect x="448.4" y="297" width="2.6" height="1.75" fill="#9cc1c3"/><rect x="448.4" y="292" width="2.6" height="1.75" fill="#9cc1c3"/><rect x="448.4" y="287" width="2.6" height="1.75" fill="#9cc1c3"/><rect x="448.4" y="282" width="2.6" height="1.75" fill="#9cc1c3"/><rect x="448.4" y="277" width="2.6" height="1.75" fill="#9cc1c3"/><rect x="448.4" y="272" width="2.6" height="1.75" fill="#9cc1c3"/><rect x="448.4" y="267" width="2.6" height="1.75" fill="#9cc1c3"/><rect x="448.4" y="262" width="2.6" height="1.75" fill="#9cc1c3"/><rect x="448.4" y="257" width="2.6" height="1.75" fill="#9cc1c3"/><rect x="448.4" y="252" width="2.6" height="1.75" fill="#9cc1c3"/><rect x="448.4" y="247" width="2.6" height="1.75" fill="#9cc1c3"/><rect x="448.4" y="242" width="2.6" height="1.75" fill="#9cc1c3"/><rect x="448.4" y="237" width="2.6" height="1.75" fill="#9cc1c3"/><rect x="448.4" y="297" width="2.6" height="1.75" fill="#9cc1c3"/><rect x="448.4" y="292" width="2.6" height="1.75" fill="#9cc1c3"/><rect x="448.4" y="287" width="2.6" height="1.75" fill="#9cc1c3"/><rect x="448.4" y="282" width="2.6" height="1.75" fill="#9cc1c3"/><rect x="448.4" y="277" width="2.6" height="1.75" fill="#9cc1c3"/><rect x="448.4" y="272" width="2.6" height="1.75" fill="#9cc1c3"/><rect x="448.4" y="267" width="2.6" height="1.75" fill="#9cc1c3"/><rect x="448.4" y="262" width="2.6" height="1.75" fill="#9cc1c3"/><rect x="448.4" y="257" width="2.6" height="1.75" fill="#9cc1c3"/><rect x="448.4" y="252" width="2.6" height="1.75" fill="#9cc1c3"/><rect x="448.4" y="247" width="2.6" height="1.75" fill="#9cc1c3"/><rect x="448.4" y="242" width="2.6" height="1.75" fill="#9cc1c3"/><rect x="448.4" y="237" width="2.6" height="1.75" fill="#9cc1c3"/><rect x="448.4" y="232" width="2.6" height="1.75" fill="#9cc1c3"/><rect x="448.4" y="292" width="2.6" height="1.75" fill="#9cc1c3"/><rect x="448.4" y="287" width="2.6" height="1.75" fill="#9cc1c3"/><rect x="448.4" y="282" width="2.6" height="1.75" fill="#9cc1c3"/><rect x="448.4" y="277" width="2.6" height="1.75" fill="#9cc1c3"/><rect x="448.4" y="272" width="2.6" height="1.75" fill="#9cc1c3"/><rect x="448.4" y="267" width="2.6" height="1.75" fill="#9cc1c3"/><rect x="448.4" y="262" width="2.6" height="1.75" fill="#9cc1c3"/><rect x="448.4" y="257" width="2.6" height="1.75" fill="#9cc1c3"/><rect x="448.4" y="252" width="2.6" height="1.75" fill="#9cc1c3"/><rect x="448.4" y="247" width="2.6" height="1.75" fill="#9cc1c3"/><rect x="448.4" y="242" width="2.6" height="1.75" fill="#9cc1c3"/><rect x="448.4" y="237" width="2.6" height="1.75" fill="#9cc1c3"/><rect x="448.4" y="232" width="2.6" height="1.75" fill="#9cc1c3"/><rect x="448.4" y="227" width="2.6" height="1.75" fill="#9cc1c3"/></g></g><g id="House_2" data-name="House 2"><rect x="504.5" y="247.4" width="29.6" height="72.63" fill="#6e685d"/><polygon points="504.5 320 461.1 320 461.1 247.4 482.8 223.4 504.5 247.4 504.5 320" fill="#99958e"/><polygon points="482.8 223.4 512.4 223.4 534.1 247.4 504.5 247.4 482.8 223.4" fill="#c5eeeb"/><circle cx="482.8" cy="255.3" r="7.4" fill="#c5eeeb" opacity="0.2"/><rect x="475.4" y="292.9" width="14.8" height="27.06" fill="#6e685d"/><rect x="512" y="261.2" width="14.4" height="14.44" fill="#2d2c2b" opacity="0.2" style="mix-blend-mode:multiply"/><rect x="512" y="282.4" width="14.4" height="14.44" fill="#2d2c2b" opacity="0.2" style="mix-blend-mode:multiply"/></g><g id="House_1" data-name="House 1"><polygon points="185.1 233.7 128.2 233.7 117.1 267.6 185.1 267.6 185.1 233.7" fill="#d94918"/><rect x="182.1" y="245.7" width="130.8" height="73.96" fill="#fff"/><polygon points="305.9 198.3 190.1 198.3 182.1 245.7 312.9 245.7 305.9 198.3" fill="#e75b2d"/><path d="M271.8,285.6h0a11.2,11.2,0,0,1,11.2,11.2v23.3a0,0,0,0,1,0,0H260.6a0,0,0,0,1,0,0V296.8A11.2,11.2,0,0,1,271.8,285.6Z" fill="#222221" opacity="0.8"/><path d="M197.3,262.3h0a3.8,3.8,0,0,1,3.8,3.8V278a0,0,0,0,1,0,0h-7.5a0,0,0,0,1,0,0V266.1A3.8,3.8,0,0,1,197.3,262.3Z" fill="#6e685d" opacity="0.4"/><path d="M209.3,262.3h0a3.8,3.8,0,0,1,3.8,3.8V278a0,0,0,0,1,0,0h-7.5a0,0,0,0,1,0,0V266.1A3.8,3.8,0,0,1,209.3,262.3Z" fill="#6e685d" opacity="0.4"/><path d="M232.5,262.3h0a3.8,3.8,0,0,1,3.8,3.8V278a0,0,0,0,1,0,0h-7.5a0,0,0,0,1,0,0V266.1A3.8,3.8,0,0,1,232.5,262.3Z" fill="#6e685d" opacity="0.4"/><path d="M244.5,262.3h0a3.8,3.8,0,0,1,3.8,3.8V278a0,0,0,0,1,0,0h-7.5a0,0,0,0,1,0,0V266.1A3.8,3.8,0,0,1,244.5,262.3Z" fill="#6e685d" opacity="0.4"/><rect x="117.1" y="267.6" width="65" height="51.8" fill="#dae0d6"/><path d="M148.1,275.6h2.7A23.4,23.4,0,0,1,174.1,299v20.4a0,0,0,0,1,0,0H125.1a0,0,0,0,1,0,0V298.7A23,23,0,0,1,148.1,275.6Z" fill="#6e685d" opacity="0.2"/></g></g><g id="Pine_Trees" data-name="Pine Trees"><use width="40.3" height="67.77" transform="translate(798.9 226.4) scale(1.38)" xlink:href="#Pine_Tree"/><use width="40.3" height="67.77" transform="translate(778.6 249.5) scale(1.04)" xlink:href="#Pine_Tree"/><use width="40.3" height="67.77" transform="translate(75.9 227.7) scale(1.35)" xlink:href="#Pine_Tree"/><use width="40.3" height="67.77" transform="translate(65.7 251.7)" xlink:href="#Pine_Tree"/><use width="40.3" height="67.77" transform="translate(289.1 221.4) scale(1.46)" xlink:href="#Pine_Tree"/></g><g id="Front_Bushes" data-name="Front Bushes"><use width="53.4" height="19.08" transform="translate(850.1 300.9)" xlink:href="#Front_Bush"/><use width="53.4" height="19.08" transform="translate(890.6 299.7) scale(1.06)" xlink:href="#Front_Bush"/><use width="53.4" height="19.08" transform="matrix(-1, 0, 0, 1, 403.1, 301.02)" xlink:href="#Front_Bush"/><use width="53.4" height="19.08" transform="matrix(-1, 0, 0, 1, 371.39, 301.15)" xlink:href="#Front_Bush"/><use width="53.4" height="19.08" transform="matrix(-1.57, 0, 0, 1.57, 84.99, 290.07)" xlink:href="#Front_Bush"/><use width="53.4" height="19.08" transform="translate(-26.1 296.2) scale(1.25)" xlink:href="#Front_Bush"/></g><g id="Ground"><rect y="320" width="942" height="120" fill="#b6db6c"/></g></g></g></g></svg>