<svg viewBox="0 0 172 155" xmlns="http://www.w3.org/2000/svg" fill-rule="evenodd" clip-rule="evenodd" stroke-linejoin="round" stroke-miterlimit="1.41421">
  <path d="M104.403 38.04363c-14.23243-.07356-21.67603-27.7896-27.40203-36.04342l-71.2779.2123c-2.8668 0-5.19364 2.50204-5.19364 5.58511v119.6059c0 3.08308 2.32684 5.58511 5.19364 5.58511h93.4863c2.86584 0 5.19363-2.50203 5.19363-5.5851v-89.3599z" fill="#fff"/>
  <path d="M76.63258 1.00014c.06358.00652 1.74228-.03073 2.37144 1.00007 5.91483 9.69433 7.61726 20.87758 16.60671 30.0458.29797.30356.60164.6006.91384.88926 2.42553 2.24317 5.48402 4.06453 8.89076 4.1083 0 0 .90151.23278.98692 1.00006 0 29.84188.52667 59.68935-.0019 89.5275-.09585 3.26745-2.74058 6.30304-6.03061 6.4157a2292.93603 2292.93603 0 0 1-93.808 0c-3.21316-.10987-5.93286-3.1017-6.0306-6.4157-.70793-39.97385-.70698-79.96726 0-119.94111.09679-3.29352 2.77094-6.3943 6.18623-6.41757l69.91521-.2123zM6.72781 3.21258c-2.25851.0149-4.15642 2.15937-4.19818 4.52452-.23534 39.92823-.70602 79.8639.00095 119.78747.06643 2.24597 1.80017 4.41557 4.1384 4.464 31.21492.21416 62.43744.63784 93.64667-.00094 2.21676-.07635 4.0454-2.20685 4.0862-4.52358l.00095-88.46784c-1.0505-.09312-1.46614-.19834-2.18924-.39854-8.04144-2.22268-13.2645-14.58293-18.39929-20.23322C71.587 4.9101 85.39997 2.97421 76.10401 3.00215c-23.12603.06983-46.25112.13966-69.3762.21043z" fill="#666e7f" fill-rule="nonzero"/>
  <path d="M88.50696 34.91988c0-2.60186-9.5242-15.29375-12.12607-15.29375H21.1387c-2.60256 0-4.7153 2.11344-4.7153 4.7153V47.262c0 2.60257 2.11274 4.7153 4.7153 4.7153h62.65296c2.60256 0 4.7153-2.11273 4.7153-4.7153V34.91988z" fill="#eef0f4"/>
  <path d="M84.98846 80.12718c1.942 0 3.519 1.577 3.519 3.519v7.037c0 1.942-1.577 3.519-3.519 3.519h-65.046c-1.942 0-3.519-1.577-3.519-3.519v-7.037c0-1.942 1.577-3.519 3.519-3.519h65.046zm0-21.112c1.942 0 3.519 1.576 3.519 3.518v7.038c0 1.942-1.577 3.518-3.519 3.518h-65.046c-1.942 0-3.519-1.576-3.519-3.518v-7.038c0-1.942 1.577-3.518 3.519-3.518h65.046z" fill="#c8d0de"/>
  <path d="M88.50708 104.75856c0-1.94242-1.57646-3.51888-3.51888-3.51888H19.9424c-1.94242 0-3.51888 1.57646-3.51888 3.51888v7.03706c0 1.94242 1.57646 3.51888 3.51888 3.51888h65.0458c1.94242 0 3.51888-1.57646 3.51888-3.51888v-7.03706z" fill="#666e7f"/>
  <path d="M106.8797 38.0035c-.08867 0-28.64944-36.84858-28.64944-35.98871l-.2303 34.44972c0 .57758.77583 1.08217 1.54879 1.35122.3774.13141 27.33094.18777 27.33094.18777z" fill="#fff"/>
  <path d="M78.87087 1.81549s2.40235 2.40846 4.67832 5.24049c8.13 10.11687 15.77577 20.54408 24.13434 30.66953 0 0 .36848 1.74648-.73064 1.68493v.00026c-8.87444-.02052-17.76444.03013-26.58937-.15322-1.48085-.03844-3.19257-.81598-3.28671-2.31705-.2398-11.51691.15229-23.0385.22915-34.55776.04865-.6773.35524-.52563 1.56491-.56718zm28.8095 35.9069c-.03974-.04545-.01354-.01272 0 0zm-28.60424-.94115c.50379.55576 1.16994.47343 1.84933.48745 6.59445.10752 13.18313.10259 19.7701.12492l2.04509.00623 2.13951.00572C96.54578 26.77422 88.33173 16.02549 79.77452 5.57672l-.48594-.58848-.21245 31.793z" fill="#666e7f" fill-rule="nonzero"/>
  <path d="M159.8694 58.78463c-14.23243-.07356-23.04158-27.7896-28.76757-36.04342l-69.91236.2123c-2.8668 0-5.19364 2.50204-5.19364 5.58511v119.6059c0 3.08308 2.32684 5.58511 5.19364 5.58511h93.4863c2.86584 0 5.19363-2.50203 5.19363-5.5851v-89.3599z" fill="#fff"/>
  <path d="M131.29162 21.75977c.68989.20485.42513.0866.91574.83339 6.24317 9.48574 8.88032 21.02563 17.86977 30.19385.29797.30356.60164.6006.91384.88926 2.42553 2.24317 5.48402 4.06453 8.89076 4.1083 0 0 .90151.23278.98692 1.00006 0 29.84188.52857 59.68935-.0019 89.5275-.09585 3.26652-2.74058 6.30397-6.03061 6.4157a2292.93603 2292.93603 0 0 1-93.808 0c-3.216-.10894-5.93286-3.1017-6.0306-6.4157a3387.1506 3387.1506 0 0 1 0-119.94111c.09679-3.29352 2.77094-6.3943 6.18623-6.41757l69.91521-.2123c.06358.00651.1281.0121.19264.01862zM61.1942 23.95358c-2.25851.0149-4.15642 2.15937-4.19818 4.52452-.23724 39.92823-.70602 79.8639.00095 119.78747.06548 2.24597 1.80017 4.41557 4.1384 4.464 31.21492.21416 62.43744.63784 93.64667-.00094 2.21676-.07542 4.0454-2.20685 4.0862-4.52358l.00095-88.46784c-1.0505-.09312-1.46614-.19834-2.18924-.39854-8.04144-2.22268-12.60307-10.23347-16.33816-16.90338-3.43806-6.13822-5.9547-12.82024-9.77139-18.69215-23.12603.06984-46.25112.13967-69.3762.21044z" fill="#666e7f" fill-rule="nonzero"/>
  <path d="M143.97376 55.66172c0-2.60186-9.5242-15.29375-12.12607-15.29375H76.6055c-2.60256 0-4.7153 2.11344-4.7153 4.7153v22.92057c0 2.60257 2.11274 4.7153 4.7153 4.7153h62.65296c2.60256 0 4.7153-2.11273 4.7153-4.7153V55.66172z" fill="#eef0f4"/>
  <path d="M140.455 100.869c1.942 0 3.519 1.577 3.519 3.519v7.037c0 1.942-1.577 3.519-3.519 3.519H75.409c-1.942 0-3.519-1.577-3.519-3.519v-7.037c0-1.942 1.577-3.519 3.519-3.519h65.046zm0-21.112c1.942 0 3.519 1.576 3.519 3.518v7.038c0 1.942-1.577 3.518-3.519 3.518H75.409c-1.942 0-3.519-1.576-3.519-3.518v-7.038c0-1.942 1.577-3.518 3.519-3.518h65.046z" fill="#c8d0de"/>
  <path d="M143.97388 125.50036c0-1.94242-1.57646-3.51888-3.51888-3.51888H75.4092c-1.94242 0-3.51888 1.57646-3.51888 3.51888v7.03706c0 1.94242 1.57646 3.51888 3.51888 3.51888h65.0458c1.94242 0 3.51888-1.57646 3.51888-3.51888v-7.03706z" fill="#666e7f"/>
  <circle cx="80.29" cy="261.29" r="52.29" fill="#666e7f" transform="matrix(.49514 .00218 .00218 .50268 104.69 -92.7087)"/>
  <text x="88.101" y="337.113" font-family="FontAwesome" font-size="14" fill="#fff" transform="matrix(2.46048 .01082 .01082 2.49797 -92.3691 -791.7)">
    
  </text>
</svg>
