<svg viewBox="0 0 172 150" xmlns="http://www.w3.org/2000/svg" fill-rule="evenodd" clip-rule="evenodd" stroke-linejoin="round" stroke-miterlimit="1.41421">
  <path d="M71.78276 67.27539c4.6816 0 8.482 3.81956 8.482 8.52475v63.8305c0 4.70418-3.8004 8.52475-8.482 8.52475H54.81775c-4.6806 0-8.482-3.82057-8.482-8.52475v-63.8305c0-4.7052 3.8004-8.52475 8.482-8.52475h16.965zm45.26685-20.22c4.6816 0 8.482 3.81956 8.482 8.52475v84.01612c0 4.7052-3.8004 8.52475-8.482 8.52475H100.0846c-4.6806 0-8.482-3.81955-8.482-8.52475V55.58014c0-4.7052 3.8004-8.52475 8.482-8.52475h16.965zm45.09886-40.4946c4.6816 0 8.482 3.81956 8.482 8.52476v124.4905c0 4.70519-3.8004 8.52474-8.482 8.52474h-16.96501c-4.6816 0-8.482-3.81955-8.482-8.52475V15.08554c0-4.70519 3.8004-8.52475 8.482-8.52475h16.965zM26.5159 87.45697c4.6816 0 8.482 3.81956 8.482 8.52475v43.59432c0 4.7052-3.8004 8.52475-8.482 8.52475H9.5509c-4.6806 0-8.482-3.81955-8.482-8.52475V95.98172c0-4.7052 3.8004-8.52475 8.482-8.52475h16.965z" fill="#fff"/>
  <path d="M71.9036 66.27646c4.878.093 9.262 4.275 9.359 9.401.135 21.359.135 42.718 0 64.076-.092 4.881-4.235 9.304-9.359 9.401-5.736.038-11.472.038-17.209 0-4.886-.093-9.263-4.34-9.359-9.401-.135-21.358-.135-42.717 0-64.076.093-4.884 4.236-9.303 9.359-9.401 5.737-.037 11.473-.037 17.209 0zm45.267-20.22c4.877.093 9.262 4.275 9.359 9.401.178 28.087.178 56.175 0 84.262-.092 4.881-4.236 9.304-9.359 9.401-5.736.038-11.473.038-17.209 0-4.883-.093-9.263-4.34-9.359-9.401-.178-28.087-.178-56.175 0-84.262.092-4.881 4.235-9.303 9.359-9.401 5.736-.037 11.473-.037 17.209 0zm45.099-40.495c4.887.094 9.262 4.342 9.359 9.402.262 41.578.262 83.158 0 124.736-.094 4.91-4.236 9.303-9.359 9.401-5.737.037-11.473.036-17.21 0-4.883-.094-9.263-4.341-9.359-9.401-.262-41.578-.262-83.158 0-124.736.093-4.882 4.236-9.303 9.359-9.402 5.737-.036 11.473-.036 17.21 0zm-135.632 80.897c4.883.093 9.263 4.341 9.359 9.401a3481.82 3481.82 0 0 1 0 43.84c-.093 4.881-4.236 9.302-9.359 9.401-5.737.036-11.473.036-17.209 0-4.878-.094-9.262-4.275-9.359-9.401-.093-14.613-.093-29.227 0-43.84.092-4.884 4.235-9.303 9.359-9.401 5.736-.037 11.472-.037 17.209 0zm28.183-18.183c-3.862.025-7.355 3.282-7.483 7.331-.405 21.37-.137 42.748-.002 64.122.073 3.86 3.405 7.301 7.288 7.425 5.751.11 11.503.039 17.255.002 3.838-.074 7.257-3.337 7.383-7.33.404-21.37.137-42.749.002-64.122-.073-3.861-3.405-7.302-7.289-7.425-5.717-.11-11.436-.003-17.154-.003zm45.266-20.22c-3.897.025-7.407 3.366-7.484 7.428-.178 28.069-.178 56.141 0 84.211.073 3.871 3.454 7.352 7.385 7.427 5.719.037 11.438.037 17.157 0 3.873-.074 7.309-3.422 7.385-7.427.178-28.07.178-56.142 0-84.211-.073-3.889-3.473-7.352-7.385-7.427-5.685-.037-11.372-.001-17.058-.001zm45.099-40.494c-3.869.024-7.357 3.332-7.483 7.33-.787 41.587-.264 83.189-.002 124.782.073 3.872 3.454 7.351 7.385 7.427 5.719.036 11.439.037 17.158 0 3.871-.074 7.309-3.416 7.385-7.427.262-41.561.262-83.124 0-124.685-.073-3.843-3.405-7.301-7.289-7.425-5.717-.109-11.436-.002-17.154-.002zm-135.632 80.896c-3.862.025-7.355 3.281-7.483 7.33-.277 14.626-.094 29.258-.002 43.886.074 3.889 3.473 7.352 7.385 7.427 5.719.036 11.439.036 17.158 0 3.873-.074 7.309-3.422 7.385-7.427.092-14.596.092-29.193 0-43.789-.073-3.86-3.404-7.301-7.288-7.425-5.717-.109-11.437-.002-17.155-.002zm-1.373-11.138l-6.802-11.841 93.893-54.483-6.316-10.995 36.575 1.331-17.14 32.5-6.317-10.995-93.893 54.483z" fill="#666e7f" fill-rule="nonzero"/>
</svg>
