<svg viewBox="0 0 172 139" xmlns="http://www.w3.org/2000/svg" fill-rule="evenodd" clip-rule="evenodd" stroke-linejoin="round" stroke-miterlimit="1.41421">
  <path d="M170.05409 7.28433c0-3.46849-2.81624-6.28424-6.28424-6.28424H8.2575c-4.00572 0-7.25772 3.25158-7.25772 7.2573v129.21158h169.05432V7.28433z" fill="#fff"/>
  <path d="M163.8635.00085c3.8003.07185 7.16634 3.4517 7.1905 7.28079v130.18733c-.09742.86762-.49542.94283-.99991.99991H.99977c-.867-.09804-.94252-.4956-.99992-.99991 0-43.1059-.27264-86.21314.00076-129.3177C.0814 3.90449 3.70499.08547 8.151.00086a12281.02655 12281.02655 0 0 1 155.7125 0zM8.26051 2c-3.29505.02082-6.23968 2.93125-6.26082 6.26073v128.20764h167.05448c0-43.10657.81564-86.2212-.00151-129.32038-.0861-2.7036-2.47865-5.09561-5.21484-5.14732-51.85759-.32905-103.7182-.00067-155.5773-.00067z" fill="#666e7f" fill-rule="nonzero"/>
  <path d="M148.28 35.736c4.913 0 8.901 3.989 8.901 8.901v41.428c0 4.912-3.988 8.9-8.901 8.9h-46.33l-.047-.042h33.525l-20.467-18.254-16.763 14.95 3.705 3.304-1.658-1.479-34.339-30.626-36.044 32.147h-7.088c-4.912 0-8.901-3.988-8.901-8.9V44.637c0-4.912 3.988-8.901 8.901-8.901H148.28zm-17.196 8.901c5.578 0 10.108 4.529 10.108 10.108 0 5.579-4.53 10.108-10.108 10.108-5.579 0-10.109-4.529-10.109-10.108 0-5.579 4.53-10.108 10.109-10.108z" fill="#eef0f4"/>
  <path d="M98.24549 107.25539c0-2.47996-2.01325-4.49269-4.49275-4.49269H18.36606c-2.4795 0-4.49275 2.01273-4.49275 4.49269v8.98448c0 2.47997 2.01325 4.4927 4.49275 4.4927h75.38668c2.4795 0 4.49275-2.01273 4.49275-4.4927v-8.98448z" fill="#c8d0de"/>
  <path d="M157.18073 107.25539c0-2.47996-2.01302-4.49269-4.49236-4.49269h-44.68054c-2.47934 0-4.49236 2.01273-4.49236 4.49269v8.98448c0 2.47997 2.01302 4.4927 4.49236 4.4927h44.68054c2.47934 0 4.49236-2.01273 4.49236-4.4927v-8.98448z" fill="#666e7f"/>
  <path d="M170.05409 4.57151c0-1.97116-1.60033-3.5715-3.57147-3.5715H4.57123c-1.97114 0-3.57146 1.60034-3.57146 3.5715v14.2859h169.05432V4.57152z" fill="#eef0f4"/>
  <path d="M166.60044.00143c2.37065.09024 4.42336 2.12344 4.45357 4.56375v14.29224c-.06042.5355-.179.90754-.99992.99999H.99977c-.867-.0978-.94252-.49543-.99992-1V4.5651C.03005 2.18946 2.03065.0936 4.45417.00143a6398.3165 6398.3165 0 0 1 162.14627 0zM4.57803 2c-1.37225.0174-2.56022 1.20061-2.57834 2.57784v13.2795h167.05448c0-4.45084.05513-8.90212-.00076-13.3527-.0506-1.31906-1.18041-2.45332-2.50433-2.50376C112.56326 1.3168 58.56838 2 4.57803 2z" fill="#666e7f" fill-rule="nonzero"/>
  <path d="M17.698 7.606c1.604 0 2.906 1.302 2.906 2.906 0 1.605-1.302 2.907-2.906 2.907-1.605 0-2.907-1.302-2.907-2.907 0-1.604 1.302-2.906 2.907-2.906zm8.928 0c1.605 0 2.907 1.302 2.907 2.906 0 1.605-1.302 2.907-2.907 2.907-1.604 0-2.906-1.302-2.906-2.907 0-1.604 1.302-2.906 2.906-2.906zm8.929 0c1.604 0 2.907 1.302 2.907 2.906 0 1.605-1.303 2.907-2.907 2.907s-2.907-1.302-2.907-2.907c0-1.604 1.303-2.906 2.907-2.906z" fill="#666e7f"/>
  <path d="M40.41547 48.75583l-3.59804 1.91157-5.29218-9.96116-8.16741 9.05946-2.26017-33.02865 26.10455 20.36058-12.07893 1.69704 5.29218 9.96116z" fill="#e3e6ed"/>
  <path d="M39.69687 45.36053l-3.59804 1.91157-5.29218-9.96116-8.16741 9.05946-2.26017-33.02865 26.10455 20.36058-12.07893 1.69704 5.29218 9.96116z" fill="#666e7f"/>
</svg>
