<svg viewBox="0 0 172 156" xmlns="http://www.w3.org/2000/svg" fill-rule="evenodd" clip-rule="evenodd" stroke-linejoin="round" stroke-miterlimit="1.41421">
  <path d="M110.54885 125.88072c.90755.01872 2.09875.19453 1.88183 1.54852-.31458 1.96485-4.0876 2.92693-4.53812 5.64427l10.32239 14.5508c1.11225 1.74916 1.99619 4.17308.6837 6.11514-1.79392 2.65466-5.50792 2.20333-8.23096 2.22124-16.57507.03622-33.15056.10662-49.72563-.00122-.58726-.00651-1.1741-.02117-1.76055-.05372-.45622-.02523-.91202-.06023-1.3662-.10988-.30441-.03338-.60801-.07326-.9104-.12169-.23074-.03703-.46028-.07936-.689-.1282-.21121-.04517-.4212-.09604-.62917-.15383-1.98072-.55226-3.89592-3.21913-2.92896-5.68944.32354-.82737.93277-1.00115 1.40811-1.74875l9.86252-14.88045c-.4839-2.91757-5.84165-4.09778-4.35662-6.53187.30482-.49935 1.03411-.64708 1.70073-.66092a3781.04639 3781.04639 0 0 1 49.27633 0zm-48.23164 1.99945c.37563.3272.74883.65603 1.11184.99626 1.46998 1.40404 3.35262 3.2346 2.35433 5.01916L55.74343 149.043c-1.05813 1.66492-2.09794 3.6957.28772 4.39569 1.63928.48144 3.39617.51074 5.13067.52214 16.56653.03581 33.13347.10662 49.69959-.00163 3.20977-.0354 7.91475.48307 6.10414-3.35547-.25598-.54208-.5669-1.05568-.888-1.56073l-10.03996-15.14742c-.55185-.9865-.13267-1.34178.0989-1.96485.74068-1.9913 3.36727-4.05057 3.36727-4.05057H62.3172z" fill="#666e7f" fill-rule="nonzero"/>
  <path d="M61.36734 153.89887c-9.02334 0-9.03473-2.45647-6.46268-6.46268l10.04524-15.15557c0-3.56668-7.14883-6.46268-3.58256-6.46268h49.08628c3.56628.0004-3.58215 2.896-3.58215 6.46268l10.04484 15.15557c2.57205 4.0062 2.56065 6.46268-6.46269 6.46268H61.36734z" fill="#c8d0de"/>
  <path d="M110.54885 124.81842c.90877.01872 2.09875.19453 1.88183 1.54852-.31418 1.96241-4.0872 2.92693-4.53812 5.64427l9.86251 14.88045c1.11225 1.74956 2.45607 3.84343 1.14359 5.78549-1.79393 2.65466-5.50793 2.20333-8.23097 2.22124-16.57507.03622-33.15056.10662-49.72522-.00122-.58767-.00651-1.17452-.02117-1.76096-.05372-.45622-.02523-.91202-.06023-1.3662-.10988-.30441-.03338-.60801-.07326-.9104-.12169-.23074-.03703-.46028-.07936-.689-.1282-.21121-.04517-.4212-.09604-.62917-.15383-1.98072-.55226-3.7433-2.62496-2.77675-5.09486.32394-.82737.78056-1.59573 1.2559-2.34333l9.86252-14.88045c-.4839-2.91757-5.84165-4.09778-4.35662-6.53187.30482-.49935 1.03411-.64708 1.70073-.66092a3781.04639 3781.04639 0 0 1 49.27633 0zm-48.23164 1.99945c.37563.3272.74883.65603 1.11184.99626 1.46998 1.40364 3.35262 3.2346 2.35433 5.01916L55.74343 147.9807c-1.05813 1.66492-2.09753 3.6957.28772 4.39569 1.63928.48144 3.39617.51074 5.13067.52214 16.56653.03581 33.13347.10662 49.69959-.00163 3.20977-.035 7.91475.48307 6.10414-3.35547-.25598-.54208-.5669-1.05568-.888-1.56073l-10.03996-15.14742c-.55185-.9865-.13267-1.34178.0989-1.96485.74068-1.9913 3.36727-4.05057 3.36727-4.05057H62.3172z" fill="#666e7f" fill-rule="nonzero"/>
  <path d="M161.02697 135.37852c5.19193 0 9.40659-4.21476 9.40659-9.40649V10.40663c0-5.19173-4.21466-9.40649-9.40659-9.40649H10.40655c-5.19193 0-9.40659 4.21476-9.40659 9.40649v115.5654c0 5.19173 4.21466 9.40649 9.40659 9.40649h150.62042z" fill="#eef0f4"/>
  <path d="M161.03.00017c5.4134.0345 10.29611 4.6524 10.40261 10.27208a9035.69792 9035.69792 0 0 1 0 115.83416c-.10166 5.36121-4.7393 10.16615-10.2713 10.27147a11918.0893 11918.0893 0 0 1-150.8891 0c-5.37225-.1023-10.1642-4.6518-10.2713-10.27147a9124.93756 9124.93756 0 0 1 0-115.83416C.10257 4.9298 4.65186.10792 10.2722.00078 60.5238-.31762 110.77781.00018 161.03.00018zM10.40958 2.00011c-4.372.02784-8.32282 3.7638-8.40875 8.29756a9116.92854 9116.92854 0 0 0 0 115.78332c.0823 4.3346 3.76263 8.2104 8.2968 8.29695 50.2782.3184 100.56005.3184 150.83826 0 4.3375-.08293 8.21208-3.8201 8.2968-8.29695a9049.89366 9049.89366 0 0 0 0-115.78332c-.0823-4.33037-3.76263-8.2104-8.2968-8.29696-50.2413-.31839-100.48441-.0006-150.72631-.0006z" fill="#666e7f" fill-rule="nonzero"/>
  <path fill="#fff" d="M157.42046 14.80975v90.29383H14.01286V14.80974z"/>
  <path d="M157.64274 13.83482c.45583.15943.72216.48034.77748.97493v90.29383c-.05993.53567-.17926.90742-.99976 1.00015H14.01286c-.86762-.09802-.9429-.4954-.99976-1.00015V14.80974c.05993-.53566.17926-.9074.99976-1.00014h143.4076c.07426.00854.14853.01667.22228.02522zM15.01262 104.10344H156.4207V15.80989H15.01262v88.29355z" fill="#666e7f" fill-rule="nonzero"/>
  <path d="M138.785 49.747c3.826 0 6.932 3.106 6.932 6.932v31.329c0 3.826-3.106 6.932-6.932 6.932h-31.11c-3.826 0-6.933-3.106-6.933-6.932V56.679c0-3.826 3.107-6.932 6.933-6.932h31.11zm-48.105 2.77c0-1.529-1.241-2.77-2.77-2.77H28.487c-1.529 0-2.77 1.241-2.77 2.77v12.43c0 1.528 1.241 2.77 2.77 2.77H87.91c1.529 0 2.77-1.242 2.77-2.77v-12.43zm52.267-27.234c1.529 0 2.77 1.241 2.77 2.77v12.43c0 1.528-1.241 2.77-2.77 2.77H28.487c-1.529 0-2.77-1.242-2.77-2.77v-12.43c0-1.529 1.241-2.77 2.77-2.77h114.46z" fill="#c8d0de"/>
</svg>
