<svg viewBox="0 0 171 171" xmlns="http://www.w3.org/2000/svg" fill-rule="evenodd" clip-rule="evenodd" stroke-linejoin="round" stroke-miterlimit="1.41421">
  <path d="M51.98742 38.73458c10.53186-13.96084 26.8244-8.43039 21.6638-8.52346-2.92933-.05143-5.1851.4825-6.26034 1.32016 2.44682-.3184 4.92548-.43597 7.30862-.43597 14.0784 0 27.52 8.7096 25.90348 31.70825-.05633.78376-.1298 1.57733-.22288 2.37579 1.73898 1.10462 3.08118 4.12702.63436 10.69106-2.04024 5.47902-3.16446 9.75545-5.92968 9.61829-.1984-.0098-.41393-.0392-.64416-.09063-.11022.22289-.22043.44087-.3331.6613-1.03114 6.76-1.28342 16.41746 8.2418 19.89543 8.83696 3.01995 14.42864 7.47517 14.42864 12.43739 0 9.09169-18.74916 16.47134-41.84333 16.47134-23.09171 0-41.84087-7.37965-41.84087-16.47134 0-5.32226 6.42933-10.05915 16.39296-13.07175 7.39435-2.3366 8.52346-10.56615 6.99266-17.50739-.05143-.10531-.10531-.21308-.15675-.32085-.53149.23513-1.05808.35025-1.48426.36984-2.76522.13716-3.88944-4.13927-5.93213-9.61828-2.72848-7.32577-.73968-10.2404 1.25158-10.99968-.42862-1.97166-.8401-3.91883-1.25158-5.80966-2.40028-11.03886-.72008-18.1589 3.08118-22.69984z" fill="#666e7f"/>
  <path d="M129.89123 107.27887c1.15403.68655 2.2425 1.52662 3.23523 2.51936l33.04489 33.04488c6.43768 6.43769 6.43855 16.8903.00086 23.32799-6.43768 6.43768-16.89116 6.43768-23.32884 0l-33.04489-33.04489c-.99274-.99273-1.8328-2.0812-2.51936-3.23523l22.61211-22.6121z" fill="#c8d0de"/>
  <path d="M66.686 42.155c-27.075 17.747-34.643 54.097-16.897 81.171 17.745 27.074 54.097 34.642 81.171 16.896 27.073-17.746 34.642-54.096 16.896-81.17-17.747-27.074-54.097-34.643-81.17-16.897zm6.771 10.289c-21.371 14.018-27.364 42.721-13.326 64.125 14.018 21.371 42.72 27.363 64.124 13.325 21.371-14.019 27.364-42.72 13.326-64.125-14.017-21.37-42.72-27.363-64.124-13.325z" fill="#eef0f4" stroke="#666e7f" stroke-width="1.64" transform="matrix(1.21976 0 0 1.21976 -47.5426 -38.5428)"/>
</svg>
