<svg viewBox="0 0 172 155" xmlns="http://www.w3.org/2000/svg" fill-rule="evenodd" clip-rule="evenodd" stroke-linejoin="round" stroke-miterlimit="1.41421">
  <path d="M106.98477 61.07537c-13.8632-.07214-21.11438-27.0705-26.6922-35.11096l-69.4318.20802c-2.7931 0-5.05946 2.43663-5.05946 5.44027v116.5078c0 3.0028 2.26636 5.44027 5.05947 5.44027h91.06453c2.79143 0 5.05946-2.43746 5.05946-5.44026V61.07537z" fill="#fff"/>
  <path d="M77.76535 24.9906s2.24035-.24911 3.00531.64501c7.12536 8.33487 8.89265 20.66648 17.64942 29.59688.29022.29608.58546.58546.89078.86561 2.36198 2.185 5.34213 3.95984 8.65947 4.00262 0 0 .87903.22646.96123.97465 0 29.06844.51333 58.14276-.00168 87.20786-.09226 3.18313-2.66897 6.1398-5.87391 6.24968a2233.30199 2233.30199 0 0 1-91.37823 0c-3.12945-.10736-5.77913-3.0221-5.87475-6.24968-.68947-38.9391-.68863-77.89583 0-116.8341.09478-3.2083 2.69916-6.2287 6.02573-6.2522l65.93663-.20633zm-65.92573 2.15564c-2.2001.01342-4.04958 2.1028-4.089 4.4069-.22983 38.89382-.6878 77.79518.00083 116.6848.06459 2.18835 1.75304 4.30121 4.0303 4.34902 30.40712.20802 60.82012.61985 91.22138-.00168 2.159-.07465 3.94054-2.14977 3.9808-4.40606l.00084-86.17701c-1.02414-.09059-1.42842-.19292-2.13215-.38751-7.83412-2.16571-12.92127-14.20543-17.9237-19.71028-11.91055-13.10496-2.24036-14.97961-7.51036-14.96368-22.52687.06794-45.0529.13588-67.57894.2055z" fill="#666e7f" fill-rule="nonzero"/>
  <path d="M164.54438 36.52786c-13.82904-.07195-21.06235-27.00378-26.62643-35.02442l-69.26068.2075c-2.78623 0-5.047 2.43062-5.047 5.42686v116.2207c0 2.9954 2.26077 5.42686 5.047 5.42686h90.84011c2.78455 0 5.047-2.43146 5.047-5.42686V36.52786z" fill="#fff"/>
  <path d="M135.39696.53202s2.23484-.2485 2.99791.64343c7.1078 8.31433 8.87074 20.61555 17.60593 29.52393.2895.29536.58402.58402.88858.86348 2.35616 2.17962 5.32897 3.95008 8.63813 3.99275 0 0 .87687.22591.95886.97225 0 28.99682.51207 57.99949-.00167 86.99296-.09204 3.17529-2.6624 6.12467-5.85944 6.23428a2227.79842 2227.79842 0 0 1-91.15304 0c-3.12175-.1071-5.7649-3.01465-5.86028-6.23428-.68777-38.84315-.68693-77.70387 0-116.54618.09455-3.20039 2.69252-6.21336 6.01088-6.23679l65.77414-.20583zM69.6337 2.68235c-2.19467.01339-4.0396 2.09762-4.07893 4.39604-.22926 38.79797-.6861 77.60346.00084 116.39724.06442 2.18297 1.7487 4.29062 4.02036 4.33831 30.3322.2075 60.67024.61833 90.99658-.00167 2.15367-.07447 3.93083-2.14447 3.971-4.3952l.00083-85.96465c-1.02161-.09036-1.4249-.19244-2.1269-.38655-7.81481-2.16037-12.88942-14.17042-17.87953-19.66171-11.8812-13.07267-2.23483-14.9427-7.49184-14.9268-22.47136.06777-44.94189.13554-67.4124.205z" fill="#666e7f" fill-rule="nonzero"/>
  <path d="M165.43464 36.16055c-.08619 0-27.83882-35.80675-27.83882-34.97088l-.2234 33.47485c0 .5606.75387 1.05174 1.50523 1.3128.36564.12717 26.55699.18323 26.55699.18323z" fill="#fff"/>
  <path d="M138.21833.99556s2.3344 2.3411 4.54581 5.09218c7.90016 9.83127 15.32925 19.96292 23.45198 29.80256 0 0 .35727 1.696-.71036 1.63575v.00168c-8.62391-.02092-17.26205.02844-25.83659-.14977-1.43913-.03682-3.1025-.79236-3.1937-2.25157-.23344-11.19008.14726-22.38602.22257-33.57945.04769-.65848.34472-.51039 1.52029-.55138zm27.9936 34.89055c-.03765-.0435-.01255-.01171 0 0zm-27.79447-.91451c.49031.5405 1.13708.46102 1.79724.4744 6.40832.10376 12.81078.09874 19.21073.12133l1.98717.00586 2.0792.00585c-8.09845-10.33078-16.07977-20.7762-24.39493-30.92792l-.4719-.57231-.2075 30.89279z" fill="#666e7f" fill-rule="nonzero"/>
  <path d="M89.99155 60.65594l.00496-.88274-.10117-14.52849 37.2238 23.4749-37.01352 25.90292-.18548-15.2208C80.6028 79.04765 62.343 78.07465 47.82542 91.0767c-14.57312 13.05164-14.02364 27.31729-14.24978 35.6924 0 0-13.64674-22.4662 1.87458-46.08193 13.78064-20.96653 44.82724-20.39324 54.54133-20.03122z" fill="#666e7f"/>
</svg>
