<?xml version="1.0" encoding="UTF-8" standalone="no"?>
<svg
   viewBox="0 0 128 128"
   version="1.1"
   id="svg8"
   sodipodi:docname="arduino-original.svg"
   inkscape:version="1.1.2 (0a00cf5339, 2022-02-04)"
   xmlns:inkscape="http://www.inkscape.org/namespaces/inkscape"
   xmlns:sodipodi="http://sodipodi.sourceforge.net/DTD/sodipodi-0.dtd"
   xmlns="http://www.w3.org/2000/svg"
   xmlns:svg="http://www.w3.org/2000/svg">
  <defs
     id="defs12" />
  <sodipodi:namedview
     id="namedview10"
     pagecolor="#ffffff"
     bordercolor="#666666"
     borderopacity="1.0"
     inkscape:pageshadow="2"
     inkscape:pageopacity="0.0"
     inkscape:pagecheckerboard="0"
     showgrid="false"
     inkscape:zoom="4.421875"
     inkscape:cx="64.113074"
     inkscape:cy="63.886926"
     inkscape:window-width="1482"
     inkscape:window-height="800"
     inkscape:window-x="0"
     inkscape:window-y="0"
     inkscape:window-maximized="1"
     inkscape:current-layer="svg8" />
  <g
     fill="#00979c"
     fill-rule="evenodd"
     id="g6"
     transform="translate(0,-14)">
    <path
       d="m 0.3,66.5 v -9.6 c 0.2,-0.1 0.2,-0.3 0.2,-0.5 3,-13.1 11.2,-21 24.2,-24.1 1.1,-0.3 2.3,-0.2 3.4,-0.6 h 6.4 c 0.1,0.2 0.4,0.1 0.6,0.1 6.4,0.7 12.2,3 17.3,7 4.4,3.3 7.8,7.5 10.9,12 0.4,0.6 0.6,0.6 1,0 1.8,-2.6 3.7,-5.1 5.9,-7.4 5.3,-5.7 11.7,-9.7 19.5,-11.1 1.1,-0.3 2.4,-0.2 3.5,-0.6 h 6.2 c 0.1,0.2 0.3,0.1 0.5,0.1 1.9,0.2 3.7,0.6 5.5,1.1 13.4,3.9 22.9,16.2 22.1,30.1 -0.6,11.7 -6.5,20.1 -16.8,25.4 -5.1,2.8 -10.7,3.5 -16.5,3.4 -7.6,-0.1 -14.2,-2.7 -19.9,-7.7 -4,-3.5 -7.1,-7.7 -10,-12.1 -0.4,-0.6 -0.6,-0.5 -1,0.1 -1.8,2.7 -3.7,5.4 -5.9,8 -3.9,4.4 -8.4,8 -14,9.9 -6.9,2.4 -13.9,2.5 -20.9,0.6 C 12.4,87.7 5.5,81.3 1.7,71.5 1.1,69.9 0.8,68.1 0.3,66.5 Z m 31.8,14.7 c 5.7,0.2 10.6,-1.7 14.8,-5.6 4.3,-4 7.4,-9 10.5,-13.9 0.1,-0.3 0.1,-0.5 -0.1,-0.8 C 54.7,56.8 52,52.7 48.4,49.3 41.5,42.7 33.4,40.5 24.3,43.4 16.8,45.9 12,51.2 10.9,59.2 c -1.1,7.5 1.8,13.5 7.8,18 4,2.9 8.5,4.1 13.4,4 z m 63.4,0 c 2.2,0 4.4,-0.1 6.5,-0.7 7.9,-2.4 13.1,-7.3 14.6,-15.5 1.5,-8.1 -1.6,-14.6 -8.4,-19.2 -7.5,-5.2 -18.4,-4.7 -26,1 -5.1,3.8 -8.5,8.9 -11.9,14.2 -0.2,0.3 -0.1,0.5 0,0.8 2.7,4.3 5.4,8.6 8.9,12.3 4.4,4.7 9.7,7.4 16.3,7.1 z m 0,0"
       id="path2" />
    <path
       d="m 32,58.5 c 3.2,0 6.5,0.1 9.7,0 0.8,0 0.9,0.2 0.9,1 -0.1,0.9 -0.1,1.8 0,2.7 0.1,0.8 -0.1,1 -1,1 H 28.8 c -2.2,0 -4.4,-0.1 -6.6,0 -0.7,0 -0.9,-0.2 -0.9,-1 0.1,-0.9 0.1,-1.8 0,-2.8 0,-0.7 0.2,-0.9 0.9,-0.9 3.2,0.1 6.5,0 9.8,0 z m 63,-6.4 c 0.8,0 1.6,0.1 2.3,0 0.5,0 0.7,0.2 0.7,0.7 -0.1,1.4 0,2.8 -0.1,4.2 0,0.7 0.2,0.9 0.9,0.9 1.3,-0.1 2.7,0 4.1,-0.1 0.6,0 0.8,0.1 0.8,0.8 v 4.6 c 0,0.5 -0.2,0.7 -0.7,0.7 -1.4,-0.1 -2.8,0 -4.3,-0.1 -0.6,0 -0.8,0.2 -0.8,0.8 0.1,1.4 0,2.8 0.1,4.2 0,0.6 -0.2,0.9 -0.8,0.9 -1.5,-0.1 -3,-0.1 -4.5,0 -0.6,0 -0.8,-0.2 -0.8,-0.8 0.1,-1.5 0,-2.9 0.1,-4.4 0,-0.5 -0.2,-0.7 -0.7,-0.7 -1.4,0.1 -2.8,0 -4.2,0.1 -0.8,0 -0.9,-0.3 -0.9,-0.9 0,-1.4 0.1,-2.8 0,-4.2 -0.1,-0.8 0.3,-1 1,-1 1.4,0.1 2.7,0 4.1,0.1 0.5,0 0.7,-0.2 0.7,-0.7 -0.1,-1.4 0,-2.9 -0.1,-4.3 0,-0.6 0.2,-0.8 0.8,-0.8 0.8,0.1 1.5,0 2.3,0"
       id="path4" />
  </g>
</svg>
