<?xml version="1.0" encoding="UTF-8" standalone="no"?>
<svg
   version="1.0"
   width="512.000000pt"
   height="512.000000pt"
   viewBox="0 0 512.000000 512.000000"
   preserveAspectRatio="xMidYMid meet"
   id="svg8"
   sodipodi:docname="0000000000000000000-favicon.svg"
   inkscape:version="1.1.2 (0a00cf5339, 2022-02-04)"
   xmlns:inkscape="http://www.inkscape.org/namespaces/inkscape"
   xmlns:sodipodi="http://sodipodi.sourceforge.net/DTD/sodipodi-0.dtd"
   xmlns="http://www.w3.org/2000/svg"
   xmlns:svg="http://www.w3.org/2000/svg">
  <defs
     id="defs12" />
  <sodipodi:namedview
     id="namedview10"
     pagecolor="#ffffff"
     bordercolor="#666666"
     borderopacity="1.0"
     inkscape:pageshadow="2"
     inkscape:pageopacity="0.0"
     inkscape:pagecheckerboard="0"
     inkscape:document-units="pt"
     showgrid="false"
     inkscape:zoom="0.82910156"
     inkscape:cx="344.34865"
     inkscape:cy="340.73027"
     inkscape:window-width="1482"
     inkscape:window-height="800"
     inkscape:window-x="0"
     inkscape:window-y="0"
     inkscape:window-maximized="1"
     inkscape:current-layer="svg8" />
  <path
     id="path7429"
     d="M 495.15581,140.83386 C 489.41696,119.5181 472.6103,102.71145 451.29455,96.972591 412.35228,86.314711 256.58329,86.314711 256.58329,86.314711 c 0,0 -155.769,0 -194.711245,10.247959 C 40.966207,102.30152 23.749633,119.5181 18.010774,140.83386 7.7628149,179.77612 7.7628149,260.53003 7.7628149,260.53003 c 0,0 0,81.16385 10.2479591,119.69618 5.738859,21.31576 22.545515,38.12242 43.861271,43.86127 39.352165,10.65787 194.711245,10.65787 194.711245,10.65787 0,0 155.76899,0 194.71126,-10.24795 21.31575,-5.73885 38.12241,-22.5455 43.86126,-43.86126 10.24795,-38.94226 10.24795,-119.6962 10.24795,-119.6962 0,0 0.40993,-81.16382 -10.24795,-120.10608 z"
     fill="#ff0000"
     style="stroke-width:4.09919;fill:#367436;fill-opacity:1;opacity:1" />
  <g
     id="g4542"
     transform="matrix(0.78268482,0,0,0.78268482,52.87478,39.979056)">
    <g
       id="g4196"
       style="fill:#ffffff;fill-opacity:1">
      <g
         id="g6"
         transform="matrix(0.64717218,0,0,0.64717218,90.375192,95.850225)"
         style="fill:#ffffff;fill-opacity:1">
        <g
           id="g4"
           style="fill:#ffffff;fill-opacity:1">
          <path
             d="M 344.381,143.771 C 254.765,56.017 102.37,103.776 79.825,227.7 c -31.849,4.598 -59.138,25.445 -72.018,55.076 -0.016,0.035 -0.032,0.07 -0.047,0.107 -26.687,61.602 18.784,130.232 85.51,130.232 H 375.537 C 450.783,413.115 512,351.899 512,276.653 512,189.241 430.314,123.682 344.381,143.771 Z M 375.537,381.12 H 93.271 c -69.246,0 -84.534,-98.263 -18.714,-119.456 14.753,-4.65 43.01,-7.348 74.38,21.892 6.464,6.024 16.586,5.667 22.61,-0.794 6.024,-6.464 5.668,-16.586 -0.794,-22.61 -17.93,-16.712 -38.071,-27.33 -58.484,-31.453 22.034,-99.077 147.374,-131.851 215.247,-56.305 4.189,4.661 10.714,6.451 16.693,4.57 67.272,-21.117 135.795,29.374 135.795,99.69 10e-4,57.602 -46.863,104.466 -104.467,104.466 z"
             id="path2"
             style="fill:#ffffff;fill-opacity:1" />
        </g>
      </g>
      <ellipse
         style="fill:#ffffff;fill-opacity:1;fill-rule:evenodd;stroke-width:0.75"
         id="path3442"
         cx="259.68906"
         cy="238.31448"
         rx="61.611305"
         ry="39.151943" />
      <ellipse
         style="fill:#ffffff;fill-opacity:1;fill-rule:evenodd;stroke-width:1.55965"
         id="path3722"
         cx="249.30919"
         cy="311.30618"
         rx="122.05477"
         ry="44.154228" />
      <ellipse
         style="fill:#ffffff;fill-opacity:1;fill-rule:evenodd;stroke-width:1.38305"
         id="path3848"
         cx="148.66609"
         cy="304.09717"
         rx="47.340988"
         ry="48.948765" />
      <ellipse
         style="fill:#ffffff;fill-opacity:1;fill-rule:evenodd;stroke-width:0.75"
         id="path3442-5"
         cx="235.44524"
         cy="212.7244"
         rx="61.611305"
         ry="39.151943" />
      <ellipse
         style="fill:#ffffff;fill-opacity:1;fill-rule:evenodd;stroke-width:0.75"
         id="path3442-5-3"
         cx="209.73851"
         cy="248.70673"
         rx="61.611305"
         ry="39.151943" />
      <ellipse
         style="fill:#ffffff;fill-opacity:1;fill-rule:evenodd;stroke-width:0.75"
         id="path3442-5-3-8"
         cx="275.39224"
         cy="230.0424"
         rx="61.611305"
         ry="39.151943" />
      <ellipse
         style="fill:#ffffff;fill-opacity:1;fill-rule:evenodd;stroke-width:0.75"
         id="path3442-5-3-8-8"
         cx="324.82684"
         cy="240.63251"
         rx="61.611305"
         ry="39.151943" />
      <ellipse
         style="fill:#ffffff;fill-opacity:1;fill-rule:evenodd;stroke-width:0.75"
         id="path3442-5-3-8-8-3"
         cx="326.4841"
         cy="308.87985"
         rx="61.611305"
         ry="39.151943" />
      <ellipse
         style="fill:#ffffff;fill-opacity:1;fill-rule:evenodd;stroke-width:0.75"
         id="path3442-5-3-8-8-1"
         cx="349.36749"
         cy="256.95758"
         rx="61.611305"
         ry="39.151943" />
      <ellipse
         style="fill:#ffffff;fill-opacity:1;fill-rule:evenodd;stroke-width:0.75"
         id="path3442-5-3-8-8-8"
         cx="348.20142"
         cy="290.72794"
         rx="61.611305"
         ry="39.151943" />
    </g>
  </g>
</svg>
