<svg xmlns="http://www.w3.org/2000/svg" viewBox="0 0 500 500"><g id="freepik--home-screen--inject-38"><g id="freepik--home-screen--inject-38"><g id="freepik--window--inject-38"><path d="M242.66,444.42a3,3,0,0,1-2.48-1.16,5.6,5.6,0,0,1-1-3.5V149.15a15.85,15.85,0,0,1,4.95-10.59l.2-.18.47-.43a12.34,12.34,0,0,1,1.4-.95l34.73-20.06,2.27-1.3a1.49,1.49,0,0,1,.73-.24c.63,0,.7.74.7,1.06a1.89,1.89,0,0,0,1.83,2.13h0a2.9,2.9,0,0,0,1.43-.43l40.47-23.37a5.74,5.74,0,0,0,2.7-4.49A4.56,4.56,0,0,1,332.85,87l.19-.12,34-19.61.73-.42a7.86,7.86,0,0,1,3.82-1.18c2.82,0,4.57,2.31,4.57,6V360a15.51,15.51,0,0,1-7,12.17l-123.49,71.3A6.11,6.11,0,0,1,242.66,444.42Z" style="fill:#37474f"></path><path d="M371.57,66.2h0c2.52,0,4,2,4,5.47V360a15.14,15.14,0,0,1-6.74,11.69L245.36,443a5.57,5.57,0,0,1-2.71.86c-1.82,0-2.91-1.53-2.91-4.1V149.15A15.21,15.21,0,0,1,244.5,139l.22-.21.41-.36a10.89,10.89,0,0,1,1.35-.93l34.74-20.06,2.26-1.3A.89.89,0,0,1,284,116a.81.81,0,0,1,.11.5,2.44,2.44,0,0,0,2.39,2.69,3.31,3.31,0,0,0,1.7-.51l40.48-23.37a6.32,6.32,0,0,0,3-5,4,4,0,0,1,1.56-2.88l.14-.09,34-19.61.71-.42a7.36,7.36,0,0,1,3.55-1.1m0-1.12a8.33,8.33,0,0,0-4.1,1.25l-.73.43-34,19.61-.24.14a5.13,5.13,0,0,0-2,3.79,5.2,5.2,0,0,1-2.42,4L287.6,117.68a2.29,2.29,0,0,1-1.13.35c-.77,0-1.29-.57-1.29-1.57s-.51-1.62-1.25-1.62a2,2,0,0,0-1,.32l-2.26,1.3-34.74,20.06a12.51,12.51,0,0,0-1.48,1c-.24.2-.46.41-.69.63a16.27,16.27,0,0,0-5.12,11V439.76c0,3.31,1.64,5.22,4,5.22a6.61,6.61,0,0,0,3.27-1l123.49-71.3A16.18,16.18,0,0,0,376.7,360V71.67c0-4.17-2.09-6.59-5.13-6.59Z" style="fill:#FBBC04"></path><path d="M261.51,148a.29.29,0,0,1,0-.17V147l-1.29.74c-.08,0-.11,0-.11-.11v-.3a.76.76,0,0,1,0-.16.9.9,0,0,1,.05-.16l1.37-3.75a.53.53,0,0,1,.07-.15s0-.05.09-.08l.17-.1q.09,0,.12,0a.26.26,0,0,1,0,.18V146l.28-.16c.06,0,.1,0,.12,0a.36.36,0,0,1,0,.18v.2a.58.58,0,0,1,0,.21.23.23,0,0,1-.12.12l-.28.17v.82a.41.41,0,0,1,0,.21.29.29,0,0,1-.12.13l-.21.12C261.57,148,261.54,148,261.51,148Zm.05-1.75v-2.05l-.93,2.6Z" style="fill:#fafafa"></path><path d="M263.05,146.59a2.69,2.69,0,0,1-.38-1.69,5.25,5.25,0,0,1,.38-2.12,2.54,2.54,0,0,1,1.07-1.29,1.36,1.36,0,0,1,.52-.2.64.64,0,0,1,.4.06.08.08,0,0,1,0,.07.38.38,0,0,1,0,.1l-.12.43c0,.05,0,.08-.05.09a0,0,0,0,1-.05,0,.74.74,0,0,0-.66.1,1.78,1.78,0,0,0-.73.89,4,4,0,0,0-.27,1.57,2.16,2.16,0,0,0,.26,1.27c.17.21.4.23.7.06a1.72,1.72,0,0,0,.32-.23,1.29,1.29,0,0,0,.25-.28v-1.34l-.53.31q-.09,0-.12,0a.31.31,0,0,1,0-.18V144a.58.58,0,0,1,0-.21.34.34,0,0,1,.12-.12l.86-.49q.09-.06.12,0a.35.35,0,0,1,0,.21v1.92a.81.81,0,0,1,0,.17.61.61,0,0,1-.05.12,2.67,2.67,0,0,1-1,1C263.66,146.9,263.3,146.88,263.05,146.59Z" style="fill:#fafafa"></path><path d="M273.93,140a2,2,0,0,1-.75,1.58c-.41.24-.75-.08-.75-.72a2,2,0,0,1,.75-1.59C273.6,139,273.93,139.36,273.93,140Z" style="fill:#fafafa"></path><path d="M273.18,137.39a4.49,4.49,0,0,0-1.74,2.61c-.07.24,0,.46.08.53h0c.14.09.35-.1.44-.39a3.19,3.19,0,0,1,1.22-1.85.8.8,0,0,1,1.23.43c.08.2.3.14.44-.11h0a.78.78,0,0,0,.08-.62A1.13,1.13,0,0,0,273.18,137.39Z" style="fill:#fafafa"></path><path d="M273.18,135.54a7,7,0,0,0-2.67,3.81c-.09.25-.06.5.06.57h0c.14.09.34-.08.43-.36a5.76,5.76,0,0,1,2.18-3.12,1.46,1.46,0,0,1,2.19.6c.09.17.29.11.43-.13h0a.77.77,0,0,0,.06-.65A1.78,1.78,0,0,0,273.18,135.54Z" style="fill:#fafafa"></path><polygon points="247.24 156.82 247.24 155.23 248.62 154.44 248.62 156.03 247.24 156.82" style="fill:#fafafa"></polygon><polygon points="249.31 155.63 249.31 152.45 250.69 151.65 250.69 154.83 249.31 155.63" style="fill:#fafafa"></polygon><polygon points="251.38 154.44 251.38 149.66 252.76 148.87 252.76 153.64 251.38 154.44" style="fill:#fafafa"></polygon><polygon points="253.45 153.24 253.45 146.88 254.82 146.08 254.82 152.45 253.45 153.24" style="fill:#fafafa"></polygon><path d="M368.54,81.65c-.15-.21-.33-.27-.52-.16l-5.14,3a1.94,1.94,0,0,0-.6,1.56v2.9a1.62,1.62,0,0,0,.23.92.59.59,0,0,0,.2.19.35.35,0,0,0,.31,0l5.15-3a2,2,0,0,0,.59-1.56V82.58A1.78,1.78,0,0,0,368.54,81.65Zm-5.89,7.81a.79.79,0,0,1-.09-.43V86.14A1.53,1.53,0,0,1,363,85l5.15-3a.16.16,0,0,1,.16,0,.12.12,0,0,1,.06.06.73.73,0,0,1,.09.42v2.89a1.52,1.52,0,0,1-.46,1.19l-5.14,3C362.78,89.55,362.7,89.54,362.65,89.46Z" style="fill:#fafafa"></path><path d="M364,84.89v3.42l-.8.46a.11.11,0,0,1-.16-.08V86.14a1.24,1.24,0,0,1,.33-.89Z" style="fill:#fafafa"></path><polygon points="364.37 84.68 365.34 84.12 365.34 87.54 364.37 88.09 364.37 84.68" style="fill:#fafafa"></polygon><polygon points="365.71 83.91 366.68 83.35 366.68 86.78 365.71 87.33 365.71 83.91" style="fill:#fafafa"></polygon><path d="M368,82.81v2.46a1.29,1.29,0,0,1-.64,1.11l-.33.18V83.14l.77-.44A.13.13,0,0,1,368,82.81Z" style="fill:#fafafa"></path><path d="M369,82.48c.15-.08.26.33.26.93V84A2.18,2.18,0,0,1,369,85.2l-.26.17V82.64Z" style="fill:#fafafa"></path><polygon points="354.46 91.23 359.47 86.79 357.93 93.3 357.19 90.59 354.46 91.23" style="fill:#fafafa"></polygon><path d="M300.39,121.43a.3.3,0,0,1,0-.18.58.58,0,0,1,.07-.21l1.39-2.49a1,1,0,0,1,.11-.17.36.36,0,0,1,.11-.13l.5-.29a.12.12,0,0,1,.13,0,.25.25,0,0,1,0,.16v6.37a.63.63,0,0,1,0,.22.39.39,0,0,1-.13.15l-.52.29a.09.09,0,0,1-.12,0,.25.25,0,0,1-.05-.16v-4.87l-.91,1.62q-.06.1-.12.12a.09.09,0,0,1-.12,0Z" style="fill:#fafafa"></path><path d="M303.31,119.75a.32.32,0,0,1,0-.18.57.57,0,0,1,.07-.22l1.39-2.49.11-.17a.26.26,0,0,1,.11-.12l.5-.29c.05,0,.09,0,.12,0a.18.18,0,0,1,.06.16v6.36a.43.43,0,0,1-.06.22.31.31,0,0,1-.12.15l-.52.3a.09.09,0,0,1-.12,0,.22.22,0,0,1-.05-.16v-4.87l-.91,1.62a.31.31,0,0,1-.12.13.11.11,0,0,1-.12,0Z" style="fill:#fafafa"></path><path d="M307.24,117.2c.05,0,.09,0,.12,0s.05.08.05.16v1a.44.44,0,0,1-.05.22.31.31,0,0,1-.12.15l-.6.34a.08.08,0,0,1-.12,0,.21.21,0,0,1,0-.15v-1a.59.59,0,0,1,0-.22.49.49,0,0,1,.12-.15Zm0,3.45a.09.09,0,0,1,.12,0s.05.08.05.16v1a.42.42,0,0,1-.05.22.31.31,0,0,1-.12.15l-.6.34a.08.08,0,0,1-.12,0,.22.22,0,0,1,0-.16v-1a.63.63,0,0,1,0-.22.49.49,0,0,1,.12-.15Z" style="fill:#fafafa"></path><path d="M310.18,116.59a1.92,1.92,0,0,0,.24-.63,2.32,2.32,0,0,0,.06-.48.92.92,0,0,0-.16-.6c-.11-.12-.28-.11-.53,0a1.22,1.22,0,0,0-.52.56,3.28,3.28,0,0,0-.23.82.62.62,0,0,1-.08.24.81.81,0,0,1-.11.13l-.51.29s-.09,0-.12,0a.18.18,0,0,1-.05-.17,3.76,3.76,0,0,1,.15-.92,4.3,4.3,0,0,1,.84-1.65,2.54,2.54,0,0,1,.62-.53,1.24,1.24,0,0,1,.7-.2.74.74,0,0,1,.49.24,1.36,1.36,0,0,1,.28.55,2.73,2.73,0,0,1,.09.72,3.85,3.85,0,0,1,0,.48,3.11,3.11,0,0,1-.08.49,4.62,4.62,0,0,1-.21.58,6.94,6.94,0,0,1-.36.73l-1.18,2.35,1.78-1a.09.09,0,0,1,.12,0,.23.23,0,0,1,.05.16v.7a.54.54,0,0,1-.05.21.32.32,0,0,1-.12.15l-3,1.73a.09.09,0,0,1-.12,0,.18.18,0,0,1-.06-.16v-.6a1,1,0,0,1,.07-.33,1.69,1.69,0,0,1,.11-.23Z" style="fill:#fafafa"></path><path d="M312.37,112.55a.41.41,0,0,1,.05-.21.24.24,0,0,1,.12-.15L315,110.8c.05,0,.09,0,.12,0a.21.21,0,0,1,.05.15v.7a.54.54,0,0,1-.05.22.31.31,0,0,1-.12.15l-1.8,1-.07,1.3a1.74,1.74,0,0,1,.34-.33l.28-.18a1.78,1.78,0,0,1,.67-.23.74.74,0,0,1,.53.13,1.1,1.1,0,0,1,.35.51,2.52,2.52,0,0,1,.13.9,5.21,5.21,0,0,1-.13,1.16,4.18,4.18,0,0,1-.36.94,2.94,2.94,0,0,1-.54.74,3.47,3.47,0,0,1-.65.51,1.93,1.93,0,0,1-.76.28.73.73,0,0,1-.52-.13.92.92,0,0,1-.32-.44,2.16,2.16,0,0,1-.12-.66.54.54,0,0,1,0-.22.39.39,0,0,1,.13-.15l.52-.3a.11.11,0,0,1,.11,0,.17.17,0,0,1,.07.13.71.71,0,0,0,.12.3.44.44,0,0,0,.19.12.55.55,0,0,0,.25,0,1.46,1.46,0,0,0,.28-.14,1.53,1.53,0,0,0,.59-.64,2.07,2.07,0,0,0,.22-1,.72.72,0,0,0-.22-.61.52.52,0,0,0-.59,0,1.06,1.06,0,0,0-.3.22,1.7,1.7,0,0,0-.19.2c0,.07-.09.13-.12.18a.47.47,0,0,1-.15.13l-.59.34c-.05,0-.09,0-.12,0a.17.17,0,0,1-.05-.15Z" style="fill:#fafafa"></path></g><g id="freepik--Boxes--inject-38"><path d="M261.06,399.2l124.25-71.74c3.82-2.21,6.93-.42,6.93,4V369.4a15.33,15.33,0,0,1-6.93,12L261.06,453.14c-3.83,2.21-6.93.41-6.93-4V411.2A15.29,15.29,0,0,1,261.06,399.2Z" style="opacity:0.1"></path><g id="freepik--Music--inject-38"><g id="freepik--Box--inject-38"><g style="opacity:0.2"><path d="M356.25,353.55,378,341c.72-.41,1.3-.08,1.3.75v25.14a2.86,2.86,0,0,1-1.3,2.25l-21.78,12.57c-.71.42-1.29.08-1.29-.75V355.8A2.89,2.89,0,0,1,356.25,353.55Z"></path></g><path d="M387.45,371.56V346.42a2.86,2.86,0,0,0-1.3-2.25l-1.46-.85a2.9,2.9,0,0,0-2.6,0L360.32,355.9a2.86,2.86,0,0,0-1.3,2.25v25.14a2.87,2.87,0,0,0,1.3,2.25l1.46.84a2.84,2.84,0,0,0,2.6,0l21.77-12.57A2.86,2.86,0,0,0,387.45,371.56Z" style="fill:#FBBC04"></path><path d="M387.45,371.56V346.42a2.86,2.86,0,0,0-1.3-2.25l-1.46-.85a2.9,2.9,0,0,0-2.6,0L360.32,355.9a2.86,2.86,0,0,0-1.3,2.25v25.14a2.87,2.87,0,0,0,1.3,2.25l1.46.84a2.84,2.84,0,0,0,2.6,0l21.77-12.57A2.86,2.86,0,0,0,387.45,371.56Z" style="fill:#fff;opacity:0.7000000000000001"></path><path d="M364.38,386.38l21.77-12.57a2.54,2.54,0,0,0,.92-1l-27.67-16a2.56,2.56,0,0,0-.38,1.28v25.14a2.87,2.87,0,0,0,1.3,2.25l1.46.84A2.84,2.84,0,0,0,364.38,386.38Z" style="fill:#FBBC04;opacity:0.7000000000000001"></path><path d="M386.73,345.49a1.21,1.21,0,0,0-.58.18l-21.77,12.57a2.87,2.87,0,0,0-1.3,2.25v25.14c0,.59.29.93.72.93a1.21,1.21,0,0,0,.58-.18l21.77-12.57a2.86,2.86,0,0,0,1.3-2.25V346.42c0-.59-.29-.93-.72-.93Z" style="fill:#FBBC04"></path><g style="opacity:0.55"><path d="M386.73,345.49a1.21,1.21,0,0,0-.58.18l-21.77,12.57a2.87,2.87,0,0,0-1.3,2.25v25.14c0,.59.29.93.72.93a1.21,1.21,0,0,0,.58-.18l21.77-12.57a2.86,2.86,0,0,0,1.3-2.25V346.42c0-.59-.29-.93-.72-.93Z" style="fill:#fff"></path></g><path d="M380.93,352a.34.34,0,0,0-.39.08L372,360.8a.36.36,0,0,0-.11.25v11.49a1.67,1.67,0,0,0-1.14.23,5.82,5.82,0,0,0-2.27,4.74,2.66,2.66,0,0,0,1,2.4,1.43,1.43,0,0,0,.7.18,1.91,1.91,0,0,0,.91-.26,5.78,5.78,0,0,0,2.27-4.47V365.22l6.26-6.34.05,5.36a1.73,1.73,0,0,0-1.14.24,5.83,5.83,0,0,0-2.27,4.73,2.63,2.63,0,0,0,1,2.4,1.52,1.52,0,0,0,1.6-.08,5.75,5.75,0,0,0,2.27-4.46V352.32A.34.34,0,0,0,380.93,352Z" style="fill:#fafafa"></path></g></g><g id="freepik--Mail--inject-38"><g id="freepik--box--inject-38"><g style="opacity:0.2"><path d="M325.35,371.35l21.78-12.57c.71-.42,1.3-.08,1.3.75v25.14a2.88,2.88,0,0,1-1.3,2.25l-21.78,12.57c-.71.41-1.3.08-1.3-.75V373.6A2.88,2.88,0,0,1,325.35,371.35Z"></path></g><path d="M356.55,389.36V364.22a2.86,2.86,0,0,0-1.3-2.25l-1.46-.85a2.9,2.9,0,0,0-2.6,0l-21.77,12.57a2.87,2.87,0,0,0-1.3,2.25v25.15a2.89,2.89,0,0,0,1.3,2.25l1.46.84a2.84,2.84,0,0,0,2.6,0l21.77-12.57A2.86,2.86,0,0,0,356.55,389.36Z" style="fill:#FBBC04"></path><path d="M356.55,389.36V364.22a2.86,2.86,0,0,0-1.3-2.25l-1.46-.85a2.9,2.9,0,0,0-2.6,0l-21.77,12.57a2.87,2.87,0,0,0-1.3,2.25v25.15a2.89,2.89,0,0,0,1.3,2.25l1.46.84a2.84,2.84,0,0,0,2.6,0l21.77-12.57A2.86,2.86,0,0,0,356.55,389.36Z" style="fill:#fff;opacity:0.7000000000000001"></path><path d="M333.48,404.18l21.77-12.57a2.69,2.69,0,0,0,.92-1l-27.67-16a2.62,2.62,0,0,0-.38,1.28v25.15a2.89,2.89,0,0,0,1.3,2.25l1.46.84A2.84,2.84,0,0,0,333.48,404.18Z" style="fill:#FBBC04;opacity:0.7000000000000001"></path><path d="M355.83,363.29a1.21,1.21,0,0,0-.58.18L333.48,376a2.86,2.86,0,0,0-1.3,2.25v25.14c0,.59.29.93.72.93a1.21,1.21,0,0,0,.58-.18l21.77-12.57a2.86,2.86,0,0,0,1.3-2.25V364.22c0-.59-.29-.93-.72-.93Z" style="fill:#FBBC04"></path><g style="opacity:0.55"><path d="M355.83,363.29a1.21,1.21,0,0,0-.58.18L333.48,376a2.86,2.86,0,0,0-1.3,2.25v25.14c0,.59.29.93.72.93a1.21,1.21,0,0,0,.58-.18l21.77-12.57a2.86,2.86,0,0,0,1.3-2.25V364.22c0-.59-.29-.93-.72-.93Z" style="fill:#fff"></path></g></g><g id="freepik--mail--inject-38"><path d="M351.78,371.93a.69.69,0,0,0-.68,0l-13.81,8a1.57,1.57,0,0,0-.67,1.26v13.68a.33.33,0,0,0,0,.26.74.74,0,0,0,.33.58.53.53,0,0,0,.3.09.79.79,0,0,0,.38-.11l13.81-8a1.57,1.57,0,0,0,.67-1.26V372.64A.77.77,0,0,0,351.78,371.93ZM350.71,373l-5.47,11.57a2.36,2.36,0,0,1-1.35,1.41.47.47,0,0,1-.46-.14l-5.61-5.4Zm-13.38,8.18a.63.63,0,0,1,0-.19l4.53,4.36-4.56,8.2Zm13.77,5.91-13.77,7.95v0l5.09-9.15.52.5a1.21,1.21,0,0,0,.84.34,1,1,0,0,0,.24,0,3,3,0,0,0,1.87-1.8l.64-1.37,4.86,3.13A.77.77,0,0,1,351.1,387.1Zm.32-1.27-4.58-3,4.58-9.7Zm0-13.15-.05-.05.05,0v.08Z" style="fill:#FBBC04"></path><path d="M351.78,371.93a.69.69,0,0,0-.68,0l-13.81,8a1.57,1.57,0,0,0-.67,1.26v13.68a.33.33,0,0,0,0,.26.74.74,0,0,0,.33.58.53.53,0,0,0,.3.09.79.79,0,0,0,.38-.11l13.81-8a1.57,1.57,0,0,0,.67-1.26V372.64A.77.77,0,0,0,351.78,371.93ZM350.71,373l-5.47,11.57a2.36,2.36,0,0,1-1.35,1.41.47.47,0,0,1-.46-.14l-5.61-5.4Zm-13.38,8.18a.63.63,0,0,1,0-.19l4.53,4.36-4.56,8.2Zm13.77,5.91-13.77,7.95v0l5.09-9.15.52.5a1.21,1.21,0,0,0,.84.34,1,1,0,0,0,.24,0,3,3,0,0,0,1.87-1.8l.64-1.37,4.86,3.13A.77.77,0,0,1,351.1,387.1Zm.32-1.27-4.58-3,4.58-9.7Zm0-13.15-.05-.05.05,0v.08Z" style="fill:#fafafa"></path></g></g><g id="freepik--Messages--inject-38"><g id="freepik--box--inject-38"><g style="opacity:0.2"><path d="M294.45,389.15l21.78-12.58c.71-.41,1.29-.07,1.29.75v25.15a2.9,2.9,0,0,1-1.3,2.25l-21.78,12.57c-.72.41-1.3.08-1.3-.75V391.4A2.86,2.86,0,0,1,294.45,389.15Z"></path></g><path d="M325.65,407.16V382a2.89,2.89,0,0,0-1.3-2.25l-1.46-.84a2.9,2.9,0,0,0-2.6,0l-21.78,12.57a2.88,2.88,0,0,0-1.3,2.25v25.14a2.88,2.88,0,0,0,1.3,2.25L300,422a2.9,2.9,0,0,0,2.6,0l21.77-12.57A2.87,2.87,0,0,0,325.65,407.16Z" style="fill:#FBBC04"></path><path d="M325.65,407.16V382a2.89,2.89,0,0,0-1.3-2.25l-1.46-.84a2.9,2.9,0,0,0-2.6,0l-21.78,12.57a2.88,2.88,0,0,0-1.3,2.25v25.14a2.88,2.88,0,0,0,1.3,2.25L300,422a2.9,2.9,0,0,0,2.6,0l21.77-12.57A2.87,2.87,0,0,0,325.65,407.16Z" style="fill:#fff;opacity:0.7000000000000001"></path><path d="M302.58,422l21.77-12.57a2.77,2.77,0,0,0,.92-1l-27.67-16a2.64,2.64,0,0,0-.39,1.28v25.14a2.88,2.88,0,0,0,1.3,2.25L300,422A2.9,2.9,0,0,0,302.58,422Z" style="fill:#FBBC04;opacity:0.7000000000000001"></path><path d="M324.93,381.09a1.18,1.18,0,0,0-.58.17l-21.77,12.58a2.86,2.86,0,0,0-1.3,2.25v25.14c0,.59.29.93.72.93a1.21,1.21,0,0,0,.58-.18l21.77-12.57a2.87,2.87,0,0,0,1.3-2.25V382c0-.58-.29-.92-.72-.92Z" style="fill:#FBBC04"></path><g style="opacity:0.55"><path d="M324.93,381.09a1.18,1.18,0,0,0-.58.17l-21.77,12.58a2.86,2.86,0,0,0-1.3,2.25v25.14c0,.59.29.93.72.93a1.21,1.21,0,0,0,.58-.18l21.77-12.57a2.87,2.87,0,0,0,1.3-2.25V382c0-.58-.29-.92-.72-.92Z" style="fill:#fff"></path></g></g><g id="freepik--messages--inject-38"><path d="M318.72,390.81c-1.5-.82-3.43-.67-5.43.42-4.23,2.28-7.66,8.17-7.66,13.11,0,3.46,1.5,5.72,4,6.09a7.87,7.87,0,0,1-.86,3.66.32.32,0,0,0,.08.39.38.38,0,0,0,.24.09.41.41,0,0,0,.19-.05,11.11,11.11,0,0,0,4.43-5.22c4.18-2.33,7.56-8.15,7.56-13.06C321.3,393.68,320.36,391.7,318.72,390.81Z" style="fill:#fafafa"></path></g></g><g id="freepik--Phone--inject-38"><g id="freepik--box--inject-38"><g style="opacity:0.2"><path d="M263.55,406.94l21.77-12.57c.72-.41,1.3-.08,1.3.75v25.14a2.86,2.86,0,0,1-1.3,2.25l-21.77,12.57c-.72.42-1.3.08-1.3-.75V409.19A2.87,2.87,0,0,1,263.55,406.94Z"></path></g><path d="M294.75,425V399.81a2.87,2.87,0,0,0-1.3-2.25l-1.47-.84a2.82,2.82,0,0,0-2.59,0l-21.78,12.57a2.88,2.88,0,0,0-1.3,2.25v25.14a2.88,2.88,0,0,0,1.3,2.25l1.47.85a2.88,2.88,0,0,0,2.59,0l21.78-12.58A2.86,2.86,0,0,0,294.75,425Z" style="fill:#FBBC04"></path><path d="M294.75,425V399.81a2.87,2.87,0,0,0-1.3-2.25l-1.47-.84a2.82,2.82,0,0,0-2.59,0l-21.78,12.57a2.88,2.88,0,0,0-1.3,2.25v25.14a2.88,2.88,0,0,0,1.3,2.25l1.47.85a2.88,2.88,0,0,0,2.59,0l21.78-12.58A2.86,2.86,0,0,0,294.75,425Z" style="fill:#fff;opacity:0.7000000000000001"></path><path d="M271.67,439.78l21.78-12.58a2.61,2.61,0,0,0,.92-1l-27.68-16a2.67,2.67,0,0,0-.38,1.28v25.14a2.88,2.88,0,0,0,1.3,2.25l1.47.85A2.88,2.88,0,0,0,271.67,439.78Z" style="fill:#FBBC04;opacity:0.7000000000000001"></path><path d="M294,398.88a1.18,1.18,0,0,0-.58.18l-21.78,12.57a2.89,2.89,0,0,0-1.29,2.25V439c0,.58.29.92.71.92a1.13,1.13,0,0,0,.58-.17l21.78-12.58a2.86,2.86,0,0,0,1.3-2.25V399.81c0-.59-.29-.93-.72-.93Z" style="fill:#FBBC04"></path><g style="opacity:0.55"><path d="M294,398.88a1.18,1.18,0,0,0-.58.18l-21.78,12.57a2.89,2.89,0,0,0-1.29,2.25V439c0,.58.29.92.71.92a1.13,1.13,0,0,0,.58-.17l21.78-12.58a2.86,2.86,0,0,0,1.3-2.25V399.81c0-.59-.29-.93-.72-.93Z" style="fill:#fff"></path></g></g><g id="freepik--phone--inject-38"><path d="M290,420.29c-.17-1.05-1-1.3-1.63-1.47l-.27-.08a2,2,0,0,0-2.49.59,7.47,7.47,0,0,0-1,2.22c-.12.35-.22.67-.33.93s-.28.4-.34.4c-1.9-.07-3.36-1.16-4.46-3.35-.1-.19-.13-.42.09-.95l.1-.22a9.46,9.46,0,0,0,.8-2.55,5.74,5.74,0,0,0-.41-2.49L280,413c-.29-.85-.63-1.82-1.34-2s-1.74.73-2.24,1.65a11.51,11.51,0,0,0-1.33,5.43,10.74,10.74,0,0,0,.12,1.43,10.15,10.15,0,0,0,.93,2.75,15.93,15.93,0,0,0,.95,1.68,8.8,8.8,0,0,0,4.23,3.59,6.63,6.63,0,0,0,2.27.42H284l.22,0a4.24,4.24,0,0,0,2.93-1.05,9.46,9.46,0,0,0,2.78-4.78A4.85,4.85,0,0,0,290,420.29Z" style="fill:#fafafa"></path></g></g></g><g id="freepik--Clock--inject-38"><g id="freepik--box--inject-38"><g style="opacity:0.2"><path d="M309,285.52l50.2-29c.72-.41,1.3-.07,1.3.75v58a2.86,2.86,0,0,1-1.3,2.25l-50.2,29c-.71.42-1.29.08-1.29-.75v-58A2.87,2.87,0,0,1,309,285.52Z"></path></g><path d="M368.67,319.94V262a2.89,2.89,0,0,0-1.3-2.25l-1.47-.84a2.82,2.82,0,0,0-2.59,0l-50.2,29a2.87,2.87,0,0,0-1.3,2.25v58a2.87,2.87,0,0,0,1.3,2.25l1.46.84a2.84,2.84,0,0,0,2.6,0l50.2-29A2.86,2.86,0,0,0,368.67,319.94Z" style="fill:#37474f"></path><path d="M317.17,351.17l50.2-29a2.69,2.69,0,0,0,.92-1l-56.1-32.39a2.62,2.62,0,0,0-.38,1.28v58a2.87,2.87,0,0,0,1.3,2.25l1.46.84A2.84,2.84,0,0,0,317.17,351.17Z"></path><path d="M316.59,350.85c-.19,0-.22-.27-.22-.43v-58a2.39,2.39,0,0,1,1.05-1.82l50.2-29a.71.71,0,0,1,.33-.11c.19,0,.22.27.22.42v58a2.4,2.4,0,0,1-1.05,1.82l-50.2,29A.71.71,0,0,1,316.59,350.85Z" style="fill:#263238"></path><path d="M367.67,262.21v57.73a1.87,1.87,0,0,1-.8,1.38l-50,28.87V292.46a1.89,1.89,0,0,1,.8-1.39l50-28.86m.28-1.16a1.15,1.15,0,0,0-.58.17l-50.2,29a2.86,2.86,0,0,0-1.3,2.25v58c0,.59.29.93.72.93a1.21,1.21,0,0,0,.58-.18l50.2-29a2.86,2.86,0,0,0,1.3-2.25V262c0-.58-.3-.92-.72-.92Z" style="fill:#455a64"></path></g><g id="freepik--Numbers--inject-38"><g style="opacity:0.2"><path d="M324,330a1,1,0,0,1-1-1v-14.3l-.78,1.66a1,1,0,0,1-.77.57h-.13a1,1,0,0,1-.77-.36l-.84-1a1,1,0,0,1-.13-1.08l3.62-7.41a1,1,0,0,1,.4-.43l1.29-.75a1,1,0,0,1,.5-.13,1,1,0,0,1,.5.13,1,1,0,0,1,.5.87v21.42a1,1,0,0,1-.5.87l-1.39.8A1,1,0,0,1,324,330Z" style="fill:#FBBC04"></path><path d="M332.1,325.29a1,1,0,0,1-.5-.13,1,1,0,0,1-.5-.87V310l-.78,1.66a1,1,0,0,1-.78.57h-.13a1,1,0,0,1-.76-.36l-.85-1a1,1,0,0,1-.13-1.08l3.63-7.41a1,1,0,0,1,.4-.43l1.29-.75a1,1,0,0,1,.5-.13,1,1,0,0,1,1,1v21.42a1,1,0,0,1-.5.87l-1.39.8A1,1,0,0,1,332.1,325.29Z" style="fill:#FBBC04"></path><path d="M337.71,322.31c-.83,0-1.67-.66-1.67-2.13a3.62,3.62,0,0,1,1.64-3.14,2.06,2.06,0,0,1,1-.28c.82,0,1.65.65,1.65,2.11a3.68,3.68,0,0,1-1.62,3.16A1.92,1.92,0,0,1,337.71,322.31Zm0-13.49c-.76,0-1.65-.57-1.65-2.15a3.67,3.67,0,0,1,1.64-3.13,1.92,1.92,0,0,1,1-.28c.82,0,1.65.65,1.65,2.11a3.59,3.59,0,0,1-1.62,3.15A1.9,1.9,0,0,1,337.69,308.82Z" style="fill:#FBBC04"></path><path d="M342,319.58a1,1,0,0,1-1-1v-2.37a1,1,0,0,1,.13-.48l5.14-9.21c1.87-3.39,2.88-5.65,2.88-7.86,0-.38,0-2.24-.92-2.24a2.32,2.32,0,0,0-1.08.38c-2.56,1.48-2.89,4.63-2.93,5.56a1,1,0,0,1-.84.94l-1.29.21h-.16a1,1,0,0,1-1-1.07c.31-4.15,2.26-7.55,5.34-9.33a5.36,5.36,0,0,1,2.65-.82c.85,0,3.62.4,3.62,5.55,0,3.3-1.18,6-3.68,10.46L346.22,313l4.88-2.81a1,1,0,0,1,.5-.14,1,1,0,0,1,.5.14,1,1,0,0,1,.5.86V313a1,1,0,0,1-.5.87l-9.62,5.55A1,1,0,0,1,342,319.58Z" style="fill:#FBBC04"></path><path d="M357,310.84c-1,0-3.41-.45-4-4.6a1,1,0,0,1,.3-.86l1.22-1.16a1,1,0,0,1,.69-.28,1,1,0,0,1,.34.06,1,1,0,0,1,.65.81c.1.76.39,2,1.27,2a2.26,2.26,0,0,0,1.12-.37c1.9-1.09,3.17-3.77,3.17-6.65,0-.63-.08-2.69-1.14-2.69a2.43,2.43,0,0,0-1.16.4,6.8,6.8,0,0,0-2.93,4.14,1,1,0,0,1-.83.74l-1.14.16h-.14a1,1,0,0,1-.7-.28,1,1,0,0,1-.3-.82l1.27-12.28a1,1,0,0,1,.49-.77l7.51-4.33a1,1,0,0,1,.5-.13,1,1,0,0,1,.5.13,1,1,0,0,1,.5.87v2a1,1,0,0,1-.5.86l-6.12,3.53-.37,3.71a8,8,0,0,1,1.59-1.21,4.94,4.94,0,0,1,2.46-.75c.91,0,3.85.43,3.85,6,0,4.67-2.2,9.08-5.49,11A5.24,5.24,0,0,1,357,310.84Z" style="fill:#FBBC04"></path></g><path d="M324,313.45c0-1.6.13-3.55.1-3.54l-.05,0s-.77,1.86-1,2.37l-1.69,3.61-.85-1,3.63-7.42,1.29-.74v21.42L324,329Z" style="fill:#FBBC04"></path><path d="M332.1,308.76c0-1.6.12-3.55.1-3.53l-.05,0s-.77,1.86-1,2.36l-1.69,3.62-.84-1,3.63-7.41,1.29-.75v21.42l-1.39.8Z" style="fill:#FBBC04"></path><path d="M337,306.67a2.66,2.66,0,0,1,1.14-2.26c.72-.42,1.12.08,1.12,1a2.65,2.65,0,0,1-1.12,2.29C337.44,308.09,337,307.59,337,306.67Zm0,13.51a2.64,2.64,0,0,1,1.14-2.27c.72-.42,1.12.08,1.12,1a2.68,2.68,0,0,1-1.12,2.29C337.44,321.59,337,321.06,337,320.18Z" style="fill:#FBBC04"></path><path d="M342,316.21l5.15-9.2c2-3.7,3-6,3-8.35,0-2.57-1.14-4.09-3.5-2.73a7.63,7.63,0,0,0-3.43,6.38l-1.29.21c.32-4.31,2.48-7.17,4.84-8.53,3.06-1.77,4.77,0,4.77,3.86,0,3.1-1.11,5.62-3.55,10l-4.35,7.83,0,.06c.1-.06.84-.52,2.06-1.23l5.89-3.4V313L342,318.58Z" style="fill:#FBBC04"></path><path d="M355.72,299a8.92,8.92,0,0,1,3.51-4.28c2.83-1.64,4.81,0,4.81,4.37s-2.08,8.43-5,10.11c-2.61,1.51-4.62.37-5.12-3.09l1.22-1.16c.35,2.74,1.91,3.52,3.88,2.39s3.67-4.11,3.67-7.52-1.51-4.48-3.8-3.16a7.82,7.82,0,0,0-3.4,4.76l-1.14.16,1.26-12.28,7.51-4.33v2l-6.56,3.78-.45,4.51c-.22,2.19-.45,3.66-.45,3.74Z" style="fill:#FBBC04"></path><g style="opacity:0.2"><path d="M324,313.45c0-1.6.13-3.55.1-3.54l-.05,0s-.77,1.86-1,2.37l-1.69,3.61-.85-1,3.63-7.42,1.29-.74v21.42L324,329Z" style="fill:#fff"></path><path d="M332.1,308.76c0-1.6.12-3.55.1-3.53l-.05,0s-.77,1.86-1,2.36l-1.69,3.62-.84-1,3.63-7.41,1.29-.75v21.42l-1.39.8Z" style="fill:#fff"></path><path d="M337,306.67a2.66,2.66,0,0,1,1.14-2.26c.72-.42,1.12.08,1.12,1a2.65,2.65,0,0,1-1.12,2.29C337.44,308.09,337,307.59,337,306.67Zm0,13.51a2.64,2.64,0,0,1,1.14-2.27c.72-.42,1.12.08,1.12,1a2.68,2.68,0,0,1-1.12,2.29C337.44,321.59,337,321.06,337,320.18Z" style="fill:#fff"></path><path d="M342,316.21l5.15-9.2c2-3.7,3-6,3-8.35,0-2.57-1.14-4.09-3.5-2.73a7.63,7.63,0,0,0-3.43,6.38l-1.29.21c.32-4.31,2.48-7.17,4.84-8.53,3.06-1.77,4.77,0,4.77,3.86,0,3.1-1.11,5.62-3.55,10l-4.35,7.83,0,.06c.1-.06.84-.52,2.06-1.23l5.89-3.4V313L342,318.58Z" style="fill:#fff"></path><path d="M355.72,299a8.92,8.92,0,0,1,3.51-4.28c2.83-1.64,4.81,0,4.81,4.37s-2.08,8.43-5,10.11c-2.61,1.51-4.62.37-5.12-3.09l1.22-1.16c.35,2.74,1.91,3.52,3.88,2.39s3.67-4.11,3.67-7.52-1.51-4.48-3.8-3.16a7.82,7.82,0,0,0-3.4,4.76l-1.14.16,1.26-12.28,7.51-4.33v2l-6.56,3.78-.45,4.51c-.22,2.19-.45,3.66-.45,3.74Z" style="fill:#fff"></path></g></g></g><g id="freepik--Notes--inject-38"><g id="freepik--box--inject-38"><g style="opacity:0.2"><path d="M276.54,337.14l21.77-12.57c.72-.42,1.3-.08,1.3.75v25.14a2.87,2.87,0,0,1-1.3,2.25l-21.77,12.57c-.72.41-1.3.08-1.3-.75V339.39A2.86,2.86,0,0,1,276.54,337.14Z"></path></g><path d="M307.74,355.15V330a2.88,2.88,0,0,0-1.3-2.25h0a2.9,2.9,0,0,0-2.6,0l-21.77,12.57a2.87,2.87,0,0,0-1.3,2.25v25.15a2.89,2.89,0,0,0,1.3,2.25h0a2.9,2.9,0,0,0,2.6,0l21.78-12.57A2.9,2.9,0,0,0,307.74,355.15Z" style="fill:#FBBC04"></path><path d="M307.74,355.15V330a2.88,2.88,0,0,0-1.3-2.25h0a2.9,2.9,0,0,0-2.6,0l-21.77,12.57a2.87,2.87,0,0,0-1.3,2.25v25.15a2.89,2.89,0,0,0,1.3,2.25h0a2.9,2.9,0,0,0,2.6,0l21.78-12.57A2.9,2.9,0,0,0,307.74,355.15Z" style="fill:#fff;opacity:0.7000000000000001"></path><path d="M284.66,370l21.78-12.57a2.59,2.59,0,0,0,.91-1l-26.21-15.14a2.62,2.62,0,0,0-.38,1.28v25.15a2.89,2.89,0,0,0,1.3,2.25h0A2.9,2.9,0,0,0,284.66,370Z" style="fill:#FBBC04;opacity:0.7000000000000001"></path><path d="M307,329.08a1.15,1.15,0,0,0-.58.18l-21.78,12.57a2.86,2.86,0,0,0-1.3,2.25v25.14c0,.59.3.93.72.93a1.18,1.18,0,0,0,.58-.18l21.78-12.57a2.9,2.9,0,0,0,1.3-2.25V330c0-.59-.3-.93-.72-.93Z" style="fill:#FBBC04"></path><g style="opacity:0.55"><path d="M307,329.08a1.15,1.15,0,0,0-.58.18l-21.78,12.57a2.86,2.86,0,0,0-1.3,2.25v25.14c0,.59.3.93.72.93a1.18,1.18,0,0,0,.58-.18l21.78-12.57a2.9,2.9,0,0,0,1.3-2.25V330c0-.59-.3-.93-.72-.93Z" style="fill:#fff"></path></g><path d="M303.22,340.94a7.25,7.25,0,0,0-.36-2.29,2.53,2.53,0,0,0-.89-1.31,1.9,1.9,0,0,0-1.36-.4,4.71,4.71,0,0,0-1.88.6c-.82.43-1.08.57-3.18,1.78s-2.36,1.37-3.18,1.9a8.8,8.8,0,0,0-3.24,3.54,10.23,10.23,0,0,0-.9,2.33,12.17,12.17,0,0,0-.35,2.71c0,1.12-.05,1.47-.05,4.27s0,3.14.05,4.22a7.41,7.41,0,0,0,.35,2.29,2.69,2.69,0,0,0,.9,1.31,1.87,1.87,0,0,0,1.36.39,4.41,4.41,0,0,0,1.88-.6c.82-.42,1.08-.56,3.18-1.77s2.36-1.38,3.18-1.9a8.8,8.8,0,0,0,3.24-3.54,9.81,9.81,0,0,0,.89-2.34,12,12,0,0,0,.36-2.7c0-1.12,0-1.48,0-4.27S303.26,342,303.22,340.94Zm-1.39,9.2a9.54,9.54,0,0,1-.26,2.07,6.53,6.53,0,0,1-.58,1.52,6,6,0,0,1-.89,1.28,6.64,6.64,0,0,1-1.43,1.18c-.82.52-1.06.67-3.12,1.86s-2.31,1.32-3.12,1.74a3.56,3.56,0,0,1-1.43.48,1.26,1.26,0,0,1-.89-.26,1.68,1.68,0,0,1-.58-.85,5.81,5.81,0,0,1-.26-1.76c0-1.06,0-1.38,0-4.13s0-3.08,0-4.19a9.52,9.52,0,0,1,.26-2.06,6.53,6.53,0,0,1,.58-1.52,5.49,5.49,0,0,1,.89-1.28,6.64,6.64,0,0,1,1.43-1.18c.81-.52,1.06-.68,3.12-1.87s2.3-1.32,3.12-1.74a3.49,3.49,0,0,1,1.43-.47,1.21,1.21,0,0,1,.89.26,1.64,1.64,0,0,1,.58.85,5.74,5.74,0,0,1,.26,1.76c0,1.06.05,1.38.05,4.13S301.87,349,301.83,350.14Zm-2-9.56a2.18,2.18,0,0,0-.93,1.77c0,.68.41,1,.93.7a2.23,2.23,0,0,0,.92-1.77C300.71,340.59,300.3,340.28,299.79,340.58Zm-4.24,3.75c-2.19,1.26-4,4.65-4,7.57s1.78,4.26,4,3,4-4.66,4-7.58S297.74,343.06,295.55,344.33Zm0,8.71c-1.42.82-2.57-.05-2.57-1.94a6.16,6.16,0,0,1,2.57-4.92c1.42-.82,2.57.05,2.57,1.95A6.16,6.16,0,0,1,295.55,353Z" style="fill:#fafafa"></path></g></g><g id="freepik--Galery--inject-38"><g id="freepik--box--inject-38"><g style="opacity:0.2"><path d="M248.06,353.55,269.83,341c.72-.41,1.3-.08,1.3.75v25.14a2.86,2.86,0,0,1-1.3,2.25L248.06,381.7c-.72.41-1.3.07-1.3-.75V355.8A2.87,2.87,0,0,1,248.06,353.55Z"></path></g><path d="M279.25,371.56V346.42a2.87,2.87,0,0,0-1.3-2.25h0a2.84,2.84,0,0,0-2.6,0l-21.77,12.57a2.86,2.86,0,0,0-1.3,2.25v25.14a2.86,2.86,0,0,0,1.3,2.25h0a2.9,2.9,0,0,0,2.6,0L278,373.81A2.86,2.86,0,0,0,279.25,371.56Z" style="fill:#FBBC04"></path><path d="M279.25,371.56V346.42a2.87,2.87,0,0,0-1.3-2.25h0a2.84,2.84,0,0,0-2.6,0l-21.77,12.57a2.86,2.86,0,0,0-1.3,2.25v25.14a2.86,2.86,0,0,0,1.3,2.25h0a2.9,2.9,0,0,0,2.6,0L278,373.81A2.86,2.86,0,0,0,279.25,371.56Z" style="fill:#fff;opacity:0.7000000000000001"></path><path d="M256.18,386.39,278,373.81a2.54,2.54,0,0,0,.92-1l-26.21-15.13a2.59,2.59,0,0,0-.38,1.28v25.14a2.86,2.86,0,0,0,1.3,2.25h0A2.9,2.9,0,0,0,256.18,386.39Z" style="fill:#FBBC04;opacity:0.7000000000000001"></path><path d="M278.53,345.49a1.21,1.21,0,0,0-.58.18l-21.77,12.57a2.87,2.87,0,0,0-1.3,2.25v25.15c0,.58.29.92.72.92a1.18,1.18,0,0,0,.58-.17L278,373.81a2.86,2.86,0,0,0,1.3-2.25V346.42c0-.59-.29-.93-.72-.93Z" style="fill:#FBBC04"></path><g style="opacity:0.55"><path d="M278.53,345.49a1.21,1.21,0,0,0-.58.18l-21.77,12.57a2.87,2.87,0,0,0-1.3,2.25v25.15c0,.58.29.92.72.92a1.18,1.18,0,0,0,.58-.17L278,373.81a2.86,2.86,0,0,0,1.3-2.25V346.42c0-.59-.29-.93-.72-.93Z" style="fill:#fff"></path></g><path d="M274.4,359.91c0-.32-.22-.45-.44-.32l-1,.56a8.31,8.31,0,0,0-.6-1.9l.68-1.44a1.06,1.06,0,0,0,.05-.93,4.63,4.63,0,0,0-1.73-1.66c-.18-.09-.42.08-.58.41l-.68,1.45a3.24,3.24,0,0,0-1.46-.09V354.5c0-.34-.16-.54-.37-.47a7.54,7.54,0,0,0-2.45,1.41,1.25,1.25,0,0,0-.37.91v1.49A11.87,11.87,0,0,0,264,359.6l-.68-.65c-.16-.15-.4-.05-.58.26a21.3,21.3,0,0,0-1.74,3.66.91.91,0,0,0,.05.86l.69.66a18.63,18.63,0,0,0-.6,2.59l-1,.56a1.17,1.17,0,0,0-.45.83c-.06.66-.1,1.31-.1,1.94a17.72,17.72,0,0,0,.1,1.83c0,.32.23.45.45.32l1-.56a8.07,8.07,0,0,0,.6,1.89l-.69,1.45a1.09,1.09,0,0,0,0,.93,4.56,4.56,0,0,0,1.73,1.66c.18.09.42-.08.58-.41L264,376a3.1,3.1,0,0,0,1.46.08v1.5c0,.34.15.54.37.47a6.22,6.22,0,0,0,1.22-.55,8.82,8.82,0,0,0,1.23-.86,1.29,1.29,0,0,0,.37-.91v-1.49a11.87,11.87,0,0,0,1.46-1.77l.68.66c.16.15.4,0,.58-.26a21.28,21.28,0,0,0,1.73-3.66.88.88,0,0,0-.05-.87l-.68-.65a20.17,20.17,0,0,0,.6-2.59l1-.56a1.13,1.13,0,0,0,.44-.84,18.55,18.55,0,0,0,.1-1.94A15.14,15.14,0,0,0,274.4,359.91Zm-4,6.25a9.85,9.85,0,0,1-2,4.27,5.75,5.75,0,0,1-1.35,1.15,2,2,0,0,1-2.56-.15c-1-1-1.33-3.1-.81-5.54a9.8,9.8,0,0,1,2-4.27c1.4-1.6,2.89-2,3.91-1S271,363.71,270.44,366.16Z" style="fill:#fafafa"></path></g></g><g id="freepik--Camera--inject-38"><g id="freepik--box--inject-38"><g style="opacity:0.2"><path d="M276.54,304.28l21.77-12.57c.72-.41,1.3-.08,1.3.75v25.15a2.89,2.89,0,0,1-1.3,2.25l-21.77,12.57c-.72.41-1.3.07-1.3-.75V306.53A2.89,2.89,0,0,1,276.54,304.28Z"></path></g><path d="M307.74,322.3V297.15a2.9,2.9,0,0,0-1.3-2.25h0a2.84,2.84,0,0,0-2.6,0l-21.77,12.57a2.86,2.86,0,0,0-1.3,2.25v25.14a2.86,2.86,0,0,0,1.3,2.25h0a2.9,2.9,0,0,0,2.6,0l21.78-12.57A2.91,2.91,0,0,0,307.74,322.3Z" style="fill:#FBBC04"></path><path d="M307.74,322.3V297.15a2.9,2.9,0,0,0-1.3-2.25h0a2.84,2.84,0,0,0-2.6,0l-21.77,12.57a2.86,2.86,0,0,0-1.3,2.25v25.14a2.86,2.86,0,0,0,1.3,2.25h0a2.9,2.9,0,0,0,2.6,0l21.78-12.57A2.91,2.91,0,0,0,307.74,322.3Z" style="fill:#fff;opacity:0.7000000000000001"></path><path d="M284.66,337.12l21.78-12.57a2.66,2.66,0,0,0,.91-1l-26.21-15.14a2.62,2.62,0,0,0-.38,1.28v25.14a2.86,2.86,0,0,0,1.3,2.25h0A2.9,2.9,0,0,0,284.66,337.12Z" style="fill:#FBBC04;opacity:0.7000000000000001"></path><path d="M307,296.23a1.13,1.13,0,0,0-.58.17L284.66,309a2.89,2.89,0,0,0-1.3,2.25v25.15c0,.58.3.92.72.92a1.15,1.15,0,0,0,.58-.17l21.78-12.57a2.91,2.91,0,0,0,1.3-2.25V297.15c0-.58-.3-.92-.72-.92Z" style="fill:#FBBC04"></path><g style="opacity:0.55"><path d="M307,296.23a1.13,1.13,0,0,0-.58.17L284.66,309a2.89,2.89,0,0,0-1.3,2.25v25.15c0,.58.3.92.72.92a1.15,1.15,0,0,0,.58-.17l21.78-12.57a2.91,2.91,0,0,0,1.3-2.25V297.15c0-.58-.3-.92-.72-.92Z" style="fill:#fff"></path></g><path d="M300,318.84a23.21,23.21,0,0,0,2-9.56,19,19,0,0,0,1.65-3.24,11.76,11.76,0,0,1-1.9,1.79,8.75,8.75,0,0,0,1.45-3.28,13.27,13.27,0,0,1-2.1,2.29,2,2,0,0,0-2.42,0,7.84,7.84,0,0,0-3.22,7.28c-2.75,1.4-5.19,1.06-6.83-.67-.86,2.48-.45,4.84,1,5.3a2.33,2.33,0,0,1-1.5.31c0,2.07,1.06,3.35,2.65,2.85a3.89,3.89,0,0,1-1.49.94,2,2,0,0,0,3.09,1.28,11.41,11.41,0,0,1-4.9,4.66,6.61,6.61,0,0,0,5.08-1c3.27-1.89,5.78-5.3,7.39-9" style="fill:#fafafa"></path></g></g><g id="freepik--Location--inject-38"><g id="freepik--box--inject-38"><g style="opacity:0.2"><path d="M248.06,320.7l21.77-12.57c.72-.42,1.3-.08,1.3.75V334a2.86,2.86,0,0,1-1.3,2.25l-21.77,12.57c-.72.42-1.3.08-1.3-.75V323A2.86,2.86,0,0,1,248.06,320.7Z"></path></g><path d="M279.25,338.71V313.57a2.86,2.86,0,0,0-1.3-2.25h0a2.9,2.9,0,0,0-2.6,0l-21.77,12.58a2.86,2.86,0,0,0-1.3,2.25v25.14a2.87,2.87,0,0,0,1.3,2.25h0a2.84,2.84,0,0,0,2.6,0L278,341A2.86,2.86,0,0,0,279.25,338.71Z" style="fill:#FBBC04"></path><path d="M279.25,338.71V313.57a2.86,2.86,0,0,0-1.3-2.25h0a2.9,2.9,0,0,0-2.6,0l-21.77,12.58a2.86,2.86,0,0,0-1.3,2.25v25.14a2.87,2.87,0,0,0,1.3,2.25h0a2.84,2.84,0,0,0,2.6,0L278,341A2.86,2.86,0,0,0,279.25,338.71Z" style="fill:#fff;opacity:0.7000000000000001"></path><path d="M256.18,353.53,278,341a2.61,2.61,0,0,0,.92-1l-26.21-15.13a2.56,2.56,0,0,0-.38,1.28v25.14a2.87,2.87,0,0,0,1.3,2.25h0A2.84,2.84,0,0,0,256.18,353.53Z" style="fill:#FBBC04;opacity:0.7000000000000001"></path><path d="M278.53,312.64a1.21,1.21,0,0,0-.58.18l-21.77,12.57a2.86,2.86,0,0,0-1.3,2.25v25.14c0,.59.29.93.72.93a1.21,1.21,0,0,0,.58-.18L278,341a2.86,2.86,0,0,0,1.3-2.25V313.57c0-.59-.29-.93-.72-.93Z" style="fill:#FBBC04"></path><g style="opacity:0.55"><path d="M278.53,312.64a1.21,1.21,0,0,0-.58.18l-21.77,12.57a2.86,2.86,0,0,0-1.3,2.25v25.14c0,.59.29.93.72.93a1.21,1.21,0,0,0,.58-.18L278,341a2.86,2.86,0,0,0,1.3-2.25V313.57c0-.59-.29-.93-.72-.93Z" style="fill:#fff"></path></g><path d="M265,346l3.36-1.94V332.86l2.35-1.35.25-3.9-2.6,1.49V327c0-.88.14-1.31.78-1.68l1.82-1v-3.9l-2.33,1.35a6.82,6.82,0,0,0-3.63,6.37v3l-1.74,1v3.81l1.74-1Z" style="fill:#fafafa"></path></g></g><g id="freepik--Calendar--inject-38"><g id="freepik--box--inject-38"><g style="opacity:0.2"><path d="M248.06,241.65,359.2,177.48c.71-.41,1.3-.08,1.3.75v58a2.86,2.86,0,0,1-1.3,2.25L248.06,302.62c-.72.41-1.3.08-1.3-.75v-58A2.89,2.89,0,0,1,248.06,241.65Z"></path></g><path d="M368.62,240.89v-58a2.89,2.89,0,0,0-1.3-2.25l-1.46-.84a2.84,2.84,0,0,0-2.6,0L252.12,244a2.86,2.86,0,0,0-1.3,2.25v58a2.89,2.89,0,0,0,1.3,2.25l1.46.84a2.9,2.9,0,0,0,2.6,0l111.14-64.17A2.86,2.86,0,0,0,368.62,240.89Z" style="fill:#37474f"></path><path d="M256.18,307.31l111.14-64.17a2.61,2.61,0,0,0,.92-1l-101.17,12L251.2,245a2.59,2.59,0,0,0-.38,1.28v58a2.89,2.89,0,0,0,1.3,2.25l1.46.84A2.9,2.9,0,0,0,256.18,307.31Z"></path><path d="M255.6,307c-.19,0-.22-.27-.22-.43v-58a2.38,2.38,0,0,1,1.05-1.81l111.14-64.17a.71.71,0,0,1,.33-.11c.19,0,.22.26.22.42v58a2.42,2.42,0,0,1-1.05,1.82L255.93,306.88A.71.71,0,0,1,255.6,307Z" style="fill:#263238"></path><path d="M367.62,183.16v57.73a1.87,1.87,0,0,1-.8,1.38L255.88,306.33V248.59a1.89,1.89,0,0,1,.8-1.38l110.94-64.05m.28-1.16a1.18,1.18,0,0,0-.58.17L256.18,246.34a2.89,2.89,0,0,0-1.3,2.25v58c0,.59.29.93.72.93a1.21,1.21,0,0,0,.58-.18l111.14-64.17a2.86,2.86,0,0,0,1.3-2.25v-58c0-.58-.29-.92-.72-.92Z" style="fill:#455a64"></path></g><g id="freepik--calendar--inject-38"><path d="M266,257.66a.28.28,0,0,1-.13,0,.25.25,0,0,1-.12-.22v-7.62a.24.24,0,0,1,.12-.21l.28-.16a.2.2,0,0,1,.13,0h.07a.25.25,0,0,1,.16.14l1.63,3.55,1.72-5.72a.22.22,0,0,1,.11-.15l.28-.16a.22.22,0,0,1,.25,0,.24.24,0,0,1,.13.21v7.62a.26.26,0,0,1-.13.22l-.27.16a.31.31,0,0,1-.13,0,.24.24,0,0,1-.12,0,.26.26,0,0,1-.13-.22v-4.21c0-.25,0-.6,0-1l-1.34,4.42a.33.33,0,0,1-.11.15l-.19.11a.28.28,0,0,1-.13,0H268a.25.25,0,0,1-.16-.14l-1.1-2.35c-.09-.21-.18-.39-.25-.55,0,.54,0,1.13,0,1.51v4.21a.26.26,0,0,1-.13.22l-.27.16Z" style="fill:#FBBC04;opacity:0.2"></path><path d="M272.84,253.55c-.88,0-1.82-.79-1.82-3,0-2.38,1.11-4.74,2.65-5.63a2.17,2.17,0,0,1,1.08-.33c.89,0,1.83.8,1.83,3s-1.12,4.74-2.66,5.63A2.19,2.19,0,0,1,272.84,253.55Zm1.83-8.05a1.57,1.57,0,0,0-.75.23c-1.26.73-2.14,2.64-2.14,4.64,0,1.41.43,2.26,1.15,2.26h0a1.49,1.49,0,0,0,.74-.24,5.45,5.45,0,0,0,2.14-4.63C275.81,246.34,275.39,245.5,274.67,245.5Z" style="fill:#FBBC04;opacity:0.2"></path><path d="M277.26,251.13l-.12,0a.26.26,0,0,1-.13-.22v-7.61a.26.26,0,0,1,.13-.22l.27-.16a.28.28,0,0,1,.13,0,.26.26,0,0,1,.21.11l2.82,4.35c0-.27,0-.58,0-.9v-5.2a.26.26,0,0,1,.13-.22l.27-.16a.28.28,0,0,1,.13,0,.27.27,0,0,1,.12,0,.26.26,0,0,1,.13.22v7.61a.25.25,0,0,1-.13.22l-.27.16a.31.31,0,0,1-.13,0,.26.26,0,0,1-.21-.11l-2.82-4.39c0,.27,0,.58,0,.91v5.23a.25.25,0,0,1-.13.22l-.27.16A.28.28,0,0,1,277.26,251.13Z" style="fill:#FBBC04;opacity:0.2"></path><path d="M282.32,248.21a.31.31,0,0,1-.13,0,.27.27,0,0,1-.12-.22v-7.61a.27.27,0,0,1,.12-.22l1.52-.87a2.48,2.48,0,0,1,1.24-.39c.53,0,1.76.29,1.76,2.93a6.26,6.26,0,0,1-2.69,5.47l-1.58.91A.27.27,0,0,1,282.32,248.21Zm.52-1.24.93-.53a5.15,5.15,0,0,0,2.17-4.49c0-.8-.14-2.14-1.09-2.14a1.89,1.89,0,0,0-.9.28l-1.11.65Z" style="fill:#FBBC04;opacity:0.2"></path><path d="M286.77,245.64a.2.2,0,0,1-.15,0,.26.26,0,0,1-.1-.26l2.2-8.88a.22.22,0,0,1,.12-.15l.27-.16a.2.2,0,0,1,.13,0l.08,0a.25.25,0,0,1,.15.15l2.2,6.35a.26.26,0,0,1-.11.3l-.29.16a.22.22,0,0,1-.13,0l-.09,0a.21.21,0,0,1-.14-.15l-.6-1.72L288,242.59l-.67,2.7a.26.26,0,0,1-.12.15l-.29.17Zm2-6.21-.51,2,1.79-1-.57-1.66-.32-1Z" style="fill:#FBBC04;opacity:0.2"></path><path d="M292.94,242.08a.19.19,0,0,1-.12,0,.23.23,0,0,1-.13-.21v-3.39l-1.9-3a.22.22,0,0,1,0-.19.21.21,0,0,1,.11-.16l.32-.18a.2.2,0,0,1,.13,0,.25.25,0,0,1,.21.12l1.5,2.32.29-.83,1.3-3.49a.28.28,0,0,1,.11-.13l.31-.18a.31.31,0,0,1,.13,0,.25.25,0,0,1,.16.06.25.25,0,0,1,.07.28l-1.95,5.28v3.37a.25.25,0,0,1-.12.22l-.27.15A.2.2,0,0,1,292.94,242.08Z" style="fill:#FBBC04;opacity:0.2"></path><path d="M270.06,250.83c0-.86,0-2.77,0-2.78h0s-.18.68-.72,2.48l-1.12,3.68-.19.11L267,252c-.56-1.21-.73-1.68-.73-1.68h0s0,1.89,0,2.75v4.21l-.27.16v-7.62l.28-.16,1.9,4.15h0l1.91-6.34.28-.17v7.62l-.28.16Z" style="fill:#FBBC04"></path><path d="M273.8,245.11c1.4-.81,2.53.11,2.53,2.49s-1.13,4.6-2.53,5.41-2.53-.09-2.53-2.48S272.39,245.93,273.8,245.11Zm0,7.5a5.68,5.68,0,0,0,2.26-4.85c0-2.22-1-3-2.26-2.24a5.68,5.68,0,0,0-2.27,4.85C271.53,252.58,272.54,253.34,273.8,252.61Z" style="fill:#FBBC04"></path><path d="M277.52,243.71h0s0,.85,0,1.77v5.23l-.28.16v-7.61l.28-.16,3.28,5.06h0s0-.85,0-1.75v-5.2l.28-.16v7.61l-.28.16Z" style="fill:#FBBC04"></path><path d="M283.84,239.47c1.55-.9,2.62-.05,2.62,2.33a6,6,0,0,1-2.56,5.25l-1.58.91v-7.61Zm.05,7.18a5.33,5.33,0,0,0,2.3-4.7c0-2.21-1-2.86-2.36-2.07l-1.24.71v6.81Z" style="fill:#FBBC04"></path><path d="M287.75,242.42l-.69,2.81-.29.16,2.19-8.88.28-.16,2.19,6.35-.29.17-.69-2Zm1.95-3.73c-.22-.61-.59-1.76-.6-1.77h0s-.39,1.61-.6,2.46l-.65,2.6,2.49-1.43Z" style="fill:#FBBC04"></path><path d="M293.21,241.67l-.27.16v-3.46l-1.94-3,.32-.19,1.27,2,.5.75h0s.19-.52.47-1.29l1.3-3.49.31-.18-2,5.28Z" style="fill:#FBBC04"></path><path d="M272.49,289.47a1,1,0,0,1-.5-.13,1,1,0,0,1-.5-.87V269.18l-1.31,2.8a1,1,0,0,1-.78.57h-.12a1,1,0,0,1-.78-.37l-1.56-1.91a1,1,0,0,1-.12-1.07l4.91-9.82a1,1,0,0,1,.39-.42l2.45-1.41a1,1,0,0,1,.5-.14,1,1,0,0,1,1,1V287a1,1,0,0,1-.5.87L273,289.34A1,1,0,0,1,272.49,289.47Z" style="fill:#FBBC04;opacity:0.25"></path><path d="M283,283.25a4.28,4.28,0,0,1-3.8-2.26,11.38,11.38,0,0,1-1.26-5.82c0-3.42.8-6.92,2.66-11.69l4.6-11.79a1,1,0,0,1,.43-.5l2.82-1.63a1,1,0,0,1,1.15.11,1,1,0,0,1,.28,1.12l-4.05,10.39.37-.22a6.08,6.08,0,0,1,3-.92c2.32,0,4.79,1.94,4.79,7.36,0,6.14-3.1,12.22-7.55,14.78A7,7,0,0,1,283,283.25ZM288,265.42a3.31,3.31,0,0,0-1.56.53c-2.47,1.42-4,4.49-4,8,0,.81.11,3.48,1.57,3.48h0a2.94,2.94,0,0,0,1.43-.48c2.44-1.41,4-4.65,4.07-8.25C289.54,267.73,289.4,265.42,288,265.42Z" style="fill:#FBBC04;opacity:0.25"></path><path d="M272.49,288.72a.31.31,0,0,1-.13,0,.27.27,0,0,1-.12-.22V269.4c0-1.29.05-2.8.08-3.83v0c-.31.73-.71,1.65-.93,2.08l-1.89,4a.25.25,0,0,1-.19.14h0a.25.25,0,0,1-.2-.09l-1.55-1.91a.23.23,0,0,1,0-.27l4.9-9.81a.21.21,0,0,1,.1-.11L275,258.2l.12,0a.28.28,0,0,1,.13,0,.25.25,0,0,1,.12.22V287a.25.25,0,0,1-.12.22l-2.59,1.49A.24.24,0,0,1,272.49,288.72Z" style="fill:#FBBC04;opacity:0.2"></path><path d="M283,282.5a3.57,3.57,0,0,1-3.16-1.89,10.71,10.71,0,0,1-1.15-5.44c0-3.32.78-6.74,2.61-11.42l4.6-11.79a.25.25,0,0,1,.11-.12l2.81-1.63a.31.31,0,0,1,.13,0,.23.23,0,0,1,.16.06.25.25,0,0,1,.07.28L283.89,264a8.67,8.67,0,0,1,2.65-2.42,5.43,5.43,0,0,1,2.66-.82c2.53,0,4,2.47,4,6.61,0,5.88-2.95,11.69-7.18,14.13A6.25,6.25,0,0,1,283,282.5ZM288,264.67a4,4,0,0,0-1.93.63c-2.71,1.56-4.38,4.88-4.38,8.66,0,2.69.84,4.23,2.32,4.23h0a3.66,3.66,0,0,0,1.81-.58c2.66-1.54,4.41-5,4.44-8.9C290.29,267.21,290,264.67,288,264.67Z" style="fill:#FBBC04;opacity:0.2"></path><path d="M272.49,269.4c0-2.19.13-5,.1-5l-.07,0s-1,2.34-1.36,3.08l-1.88,4.05-1.56-1.91,4.9-9.81,2.45-1.42V287l-2.58,1.49Z" style="fill:#FBBC04"></path><path d="M282.76,266.53a9.6,9.6,0,0,1,3.91-4.7c3.64-2.11,6.32.12,6.32,5.57,0,5.76-2.85,11.49-7.05,13.92-4,2.33-7,.28-7-6.15,0-3.46.9-7,2.59-11.33l4.6-11.79,2.82-1.62-6.26,16.06Zm7.78,2.19c0-3.83-1.75-5.26-4.57-3.64s-4.5,5.05-4.5,8.88,1.79,5.44,4.5,3.87S290.51,272.71,290.54,268.72Z" style="fill:#FBBC04"></path><g style="opacity:0.15"><path d="M272.49,269.4c0-2.19.13-5,.1-5l-.07,0s-1,2.34-1.36,3.08l-1.88,4.05-1.56-1.91,4.9-9.81,2.45-1.42V287l-2.58,1.49Z" style="fill:#fff"></path><path d="M282.76,266.53a9.6,9.6,0,0,1,3.91-4.7c3.64-2.11,6.32.12,6.32,5.57,0,5.76-2.85,11.49-7.05,13.92-4,2.33-7,.28-7-6.15,0-3.46.9-7,2.59-11.33l4.6-11.79,2.82-1.62-6.26,16.06Zm7.78,2.19c0-3.83-1.75-5.26-4.57-3.64s-4.5,5.05-4.5,8.88,1.79,5.44,4.5,3.87S290.51,272.71,290.54,268.72Z" style="fill:#fff"></path></g><g id="freepik--calendar--inject-38"><path d="M340,209.73l-1.24-1.94h0s0,.36,0,.76v1.89l-.3.17v-3.36l.31-.18L340,209h0v-2.61l.3-.18v3.37Z" style="fill:#FBBC04"></path><path d="M341.86,205.2c.65-.38,1.15.07,1.15,1.09a2.9,2.9,0,0,1-1.15,2.41c-.65.37-1.14-.08-1.14-1.09A2.88,2.88,0,0,1,341.86,205.2Zm0,3.07a2.15,2.15,0,0,0,.84-1.8c0-.79-.36-1.12-.84-.84a2.15,2.15,0,0,0-.84,1.8C341,208.21,341.39,208.54,341.86,208.27Z" style="fill:#FBBC04"></path><path d="M344.08,207.34l-.93-2.82.34-.2.45,1.39c.23.67.32,1,.33,1h0s.09-.42.32-1.37l.45-1.92.32-.18-.93,3.9Z" style="fill:#FBBC04"></path><path d="M345.74,203l1.53-.88v.44l-1.23.71v1l.95-.55v.43l-.95.55v1.08l1.25-.72v.44l-1.55.9Z" style="fill:#FBBC04"></path><path d="M349.62,202.44v-1h0l-.66,2.24-.21.12-.66-1.5h0s0,.65,0,1V205l-.3.17v-3.36l.37-.22.46,1c.16.36.24.57.25.57h0s.09-.32.25-.86l.46-1.53.34-.2V204l-.3.18Z" style="fill:#FBBC04"></path><path d="M351.7,201.17c.22-.07.5,0,.5.55a1.61,1.61,0,0,1-.76,1.38l-.91.52v-3.36l.87-.5c.39-.23.66,0,.66.46a1.28,1.28,0,0,1-.36.93Zm-.36.05a.9.9,0,0,0,.41-.77c0-.28-.15-.41-.41-.27l-.51.3v1Zm.09,1.49a1,1,0,0,0,.45-.84c0-.37-.2-.47-.46-.32l-.59.34v1.16Z" style="fill:#FBBC04"></path><path d="M352.64,199l1.54-.89v.44l-1.23.71v1l.95-.54v.42l-.95.55v1.09l1.25-.72v.44l-1.56.89Z" style="fill:#FBBC04"></path><path d="M355.48,199.43l-.24.15-.24.13V201l-.31.18v-3.37l.72-.41c.54-.31.85-.13.85.52a1.65,1.65,0,0,1-.49,1.22l.56,1.09-.33.19Zm-.06-.34a1,1,0,0,0,.54-.92c0-.43-.2-.5-.54-.31l-.42.24v1.24Z" style="fill:#FBBC04"></path><path d="M315.72,243.41l4-2.29c.52-.29.93-.05.93.54v3.23a2,2,0,0,1-.93,1.61l-4,2.28c-.51.29-.93.05-.93-.54V245A2,2,0,0,1,315.72,243.41Z" style="fill:#FBBC04"></path><path d="M309.68,233c0-.3,0-.68,0-.68h0s-.14.31-.19.42l-.26.55L309,233l.67-1.34.33-.19v3.89l-.35.2Z" style="fill:#FBBC04"></path><path d="M316.72,230.92l.91-1.61a2.88,2.88,0,0,0,.5-1.36c0-.41-.18-.65-.55-.43a1.23,1.23,0,0,0-.56,1l-.33.05a2,2,0,0,1,.91-1.55c.58-.33.89,0,.89.69a3.39,3.39,0,0,1-.65,1.79l-.72,1.27h0l.37-.23,1-.58v.49l-1.78,1Z" style="fill:#FBBC04"></path><path d="M326,224.14c.3-.12.53.07.53.64a2,2,0,0,1-.91,1.68c-.51.3-.88.08-1-.56l.31-.31c.06.46.3.6.65.4a1.24,1.24,0,0,0,.56-1.08c0-.45-.22-.54-.57-.34l-.25.14v-.41l.24-.14a1.06,1.06,0,0,0,.56-1c0-.41-.2-.53-.54-.33a1.24,1.24,0,0,0-.59,1l-.32.05a2,2,0,0,1,.94-1.57c.58-.33.85-.08.85.51a1.58,1.58,0,0,1-.5,1.21Z" style="fill:#FBBC04"></path><path d="M333.81,221.64v-1l-1.29.74v-.49l1.12-3,.52-.3V220l.37-.21v.46l-.37.21v1Zm0-3.44h0l-.95,2.5h0l.41-.24.54-.31v-2Z" style="fill:#FBBC04"></path><path d="M341,215.29a1.6,1.6,0,0,1,.58-.67c.53-.3.87,0,.87.78a2.14,2.14,0,0,1-.93,1.86c-.49.28-.85.07-.94-.52l.31-.3c.06.43.31.55.63.36a1.39,1.39,0,0,0,.6-1.21c0-.53-.25-.72-.62-.51a1.29,1.29,0,0,0-.55.76l-.29,0,.23-2.23,1.4-.8v.51l-1.16.66-.07.69c0,.34-.07.56-.07.58Z" style="fill:#FBBC04"></path><path d="M349.07,210.65a1.24,1.24,0,0,1,.53-.64c.49-.29.86,0,.86.76a2.22,2.22,0,0,1-1,1.89c-.55.32-1,0-1-.83a4.31,4.31,0,0,1,.35-1.55l.63-1.6.38-.22-.85,2.18Zm1.05.3c0-.52-.23-.72-.62-.5a1.38,1.38,0,0,0-.61,1.21c0,.54.24.74.61.53A1.42,1.42,0,0,0,350.12,211Z" style="fill:#FBBC04"></path><path d="M356.16,208.73l-.36.22,1-3.37c.12-.38.23-.72.23-.73h0l-.32.2-1.15.66v-.5l1.88-1.09v.4Z" style="fill:#FBBC04"></path><path d="M309.25,241.84v0c-.15.05-.47,0-.47-.61a1.82,1.82,0,0,1,.84-1.52c.53-.3.85,0,.85.54a1.66,1.66,0,0,1-.47,1.16v0c.28-.11.59,0,.59.64a2,2,0,0,1-1,1.69c-.6.35-1,.09-1-.57A1.72,1.72,0,0,1,309.25,241.84Zm.37,1.48a1.27,1.27,0,0,0,.63-1.11c0-.45-.25-.56-.63-.34a1.23,1.23,0,0,0-.62,1.07C309,243.41,309.25,243.53,309.62,243.32Zm0-1.92a1.15,1.15,0,0,0,.54-1c0-.38-.21-.53-.54-.34a1.14,1.14,0,0,0-.54,1C309.08,241.48,309.32,241.57,309.62,241.4Z" style="fill:#FBBC04"></path><path d="M318.05,237.13a1.41,1.41,0,0,1-.55.65c-.52.3-.86-.05-.86-.78a2.27,2.27,0,0,1,1-1.91c.53-.3,1-.07,1,.83a5,5,0,0,1-.52,1.94l-.52,1.24-.4.23.93-2.19Zm-1.08-.31c0,.62.29.7.63.51a1.42,1.42,0,0,0,.62-1.24c0-.62-.29-.71-.62-.52A1.38,1.38,0,0,0,317,236.82Z" style="fill:#FBBC04"></path><path d="M324.46,232.5c0-.3,0-.69,0-.68h0s-.13.32-.18.42l-.26.55-.21-.26.67-1.33.33-.2v3.89l-.35.21Z" style="fill:#FBBC04"></path><path d="M327.35,231.48a2.88,2.88,0,0,1-1,2.61c-.64.37-1-.13-1-1.45s.36-2.23,1-2.6S327.35,230.17,327.35,231.48Zm-1.66,1c0,1,.2,1.41.65,1.15s.66-.91.66-1.9-.21-1.41-.66-1.15S325.69,231.44,325.69,232.44Z" style="fill:#FBBC04"></path><path d="M332.84,227.66c0-.3,0-.68,0-.68h0s-.13.32-.18.42l-.26.55-.21-.26.67-1.33.33-.19v3.88l-.35.21Z" style="fill:#FBBC04"></path><path d="M334.38,226.77c0-.3,0-.68,0-.68h0s-.14.32-.19.42l-.26.55-.21-.26.67-1.33.33-.19v3.88l-.35.21Z" style="fill:#FBBC04"></path><path d="M340.48,223.24c0-.3,0-.68,0-.68h0s-.13.32-.19.42l-.25.55-.22-.26.67-1.34.33-.19v3.89l-.35.2Z" style="fill:#FBBC04"></path><path d="M341.42,224.71l.91-1.61a2.91,2.91,0,0,0,.5-1.37c0-.4-.17-.64-.55-.42a1.26,1.26,0,0,0-.56,1l-.33,0a2,2,0,0,1,.91-1.56c.58-.33.89,0,.89.69a3.34,3.34,0,0,1-.65,1.79l-.72,1.27v0a3.56,3.56,0,0,1,.37-.23l1-.58v.49l-1.78,1Z" style="fill:#FBBC04"></path><path d="M348.46,218.64c0-.3,0-.69,0-.68h0s-.13.32-.19.42l-.25.55-.22-.26.67-1.33.33-.2V221l-.35.2Z" style="fill:#FBBC04"></path><path d="M350.68,217.93c.3-.12.53.07.53.64a2,2,0,0,1-.9,1.68c-.52.3-.89.09-1-.56l.31-.31c.06.46.3.6.65.4a1.23,1.23,0,0,0,.56-1.08c0-.45-.22-.54-.57-.34l-.25.14v-.4l.24-.15a1.06,1.06,0,0,0,.56-.95c0-.41-.2-.54-.54-.34a1.24,1.24,0,0,0-.59,1.05l-.31,0a1.94,1.94,0,0,1,.93-1.57c.58-.33.85-.07.85.52a1.57,1.57,0,0,1-.5,1.2Z" style="fill:#FBBC04"></path><path d="M355.36,214.66c0-.3,0-.69,0-.68h0s-.13.32-.18.42l-.26.55-.21-.26.66-1.33.34-.2v3.89l-.35.2Z" style="fill:#FBBC04"></path><path d="M357.51,216v-1l-1.29.74v-.49l1.12-3,.52-.3v2.41l.37-.22v.47l-.37.21v1Zm0-3.44h0l-.95,2.5h0l.42-.24.53-.31v-2Z" style="fill:#FBBC04"></path><path d="M308.55,249.74c0-.3,0-.69,0-.68h0s-.13.32-.18.42l-.26.55-.21-.26.67-1.33.33-.19v3.88l-.35.21Z" style="fill:#FBBC04"></path><path d="M309.88,249.38a1.5,1.5,0,0,1,.57-.67c.53-.31.88,0,.88.78a2.16,2.16,0,0,1-.93,1.86c-.49.28-.85.07-.94-.53l.3-.29c.06.42.31.54.63.36a1.39,1.39,0,0,0,.6-1.21c0-.53-.24-.72-.62-.51a1.35,1.35,0,0,0-.55.76l-.28,0,.23-2.23,1.39-.8v.51l-1.15.66-.07.69c0,.34-.07.56-.07.58Z" style="fill:#FBBC04"></path><path d="M316.53,245.14c0-.3,0-.69,0-.69h0s-.13.32-.19.42l-.25.55-.22-.26.67-1.34.33-.19v3.89l-.35.2Z" style="fill:#263238"></path><path d="M317.93,244.75a1.32,1.32,0,0,1,.53-.65c.5-.28.86,0,.86.76a2.24,2.24,0,0,1-1,1.9c-.55.32-.95,0-.95-.84a4.22,4.22,0,0,1,.35-1.54l.62-1.61.39-.22-.85,2.19ZM319,245c0-.52-.24-.71-.62-.49a1.38,1.38,0,0,0-.62,1.21c0,.53.25.74.62.52A1.43,1.43,0,0,0,319,245Z" style="fill:#263238"></path><path d="M324.57,240.49c0-.3,0-.69,0-.68h0s-.13.32-.19.42l-.25.55-.21-.26.66-1.33.34-.2v3.89l-.36.21Z" style="fill:#FBBC04"></path><path d="M326,242.25l-.37.21,1-3.37c.12-.38.24-.72.24-.73h0l-.33.2-1.15.66v-.5l1.88-1.09v.4Z" style="fill:#FBBC04"></path><path d="M332.48,235.92c0-.3,0-.68,0-.68h0s-.13.32-.18.42l-.26.55-.21-.26.67-1.34.33-.19v3.89l-.35.2Z" style="fill:#FBBC04"></path><path d="M334,235.64v0c-.15,0-.47,0-.47-.61a1.8,1.8,0,0,1,.84-1.52c.53-.3.85,0,.85.53a1.61,1.61,0,0,1-.47,1.16v0c.28-.1.59,0,.59.65a2,2,0,0,1-1,1.69c-.6.34-1,.09-1-.58A1.7,1.7,0,0,1,334,235.64Zm.37,1.48A1.28,1.28,0,0,0,335,236c0-.46-.25-.56-.63-.34a1.22,1.22,0,0,0-.62,1.06C333.7,237.21,334,237.33,334.32,237.12Zm0-1.93a1.13,1.13,0,0,0,.54-1c0-.38-.21-.53-.54-.34a1.14,1.14,0,0,0-.54,1C333.78,235.28,334,235.37,334.32,235.19Z" style="fill:#FBBC04"></path><path d="M340.44,231.32c0-.3,0-.68,0-.68h0s-.13.31-.19.42l-.25.55-.21-.26.66-1.34.34-.19v3.89l-.36.2Z" style="fill:#FBBC04"></path><path d="M342.75,230.92a1.34,1.34,0,0,1-.55.64c-.52.31-.86,0-.86-.77a2.27,2.27,0,0,1,1-1.91c.53-.3,1-.07,1,.82a5,5,0,0,1-.52,2l-.52,1.24-.4.23.93-2.2Zm-1.08-.31c0,.62.29.7.63.5a1.4,1.4,0,0,0,.62-1.23c0-.62-.29-.72-.62-.52A1.38,1.38,0,0,0,341.67,230.61Z" style="fill:#FBBC04"></path><path d="M347.45,229.29l.91-1.61a3,3,0,0,0,.51-1.37c0-.4-.18-.65-.56-.43a1.26,1.26,0,0,0-.56,1l-.33,0a2,2,0,0,1,.92-1.55c.57-.33.88,0,.88.69a3.36,3.36,0,0,1-.65,1.79l-.72,1.27h0l.37-.22,1-.58v.48l-1.79,1Z" style="fill:#FBBC04"></path><path d="M351.61,225.53c0,1.31-.36,2.24-1,2.61s-1-.14-1-1.45a2.87,2.87,0,0,1,1-2.6C351.25,223.72,351.61,224.22,351.61,225.53Zm-1.66,1c0,1,.21,1.41.66,1.15s.65-.92.65-1.91-.2-1.4-.65-1.14S350,225.49,350,226.49Z" style="fill:#FBBC04"></path><path d="M354.83,225l.91-1.61a3,3,0,0,0,.51-1.37c0-.41-.18-.65-.56-.43a1.26,1.26,0,0,0-.56,1l-.33.05a1.93,1.93,0,0,1,.92-1.55c.57-.33.88,0,.88.69a3.36,3.36,0,0,1-.65,1.79l-.72,1.27h0l.37-.22,1-.58v.48l-1.79,1Z" style="fill:#FBBC04"></path><path d="M357.64,221.39c0-.3,0-.68,0-.68h0s-.13.32-.19.42l-.25.55-.21-.26.66-1.34.34-.19v3.89l-.36.2Z" style="fill:#FBBC04"></path><path d="M307.63,260.33l.92-1.61a2.94,2.94,0,0,0,.5-1.37c0-.4-.18-.65-.55-.43a1.23,1.23,0,0,0-.56,1l-.33.05a1.94,1.94,0,0,1,.91-1.55c.57-.33.89,0,.89.69a3.45,3.45,0,0,1-.65,1.79l-.72,1.27h0l.38-.22,1-.58v.48l-1.79,1Z" style="fill:#FBBC04"></path><path d="M309.84,259.05l.92-1.61a2.87,2.87,0,0,0,.5-1.37c0-.4-.18-.64-.56-.42a1.22,1.22,0,0,0-.55,1l-.33.05a1.91,1.91,0,0,1,.91-1.55c.57-.33.89,0,.89.68a3.42,3.42,0,0,1-.65,1.79l-.72,1.27v0l.38-.23,1-.58v.49l-1.79,1Z" style="fill:#FBBC04"></path><path d="M315.61,255.73l.92-1.61a2.94,2.94,0,0,0,.5-1.37c0-.4-.18-.65-.56-.43a1.22,1.22,0,0,0-.55,1l-.33,0a1.94,1.94,0,0,1,.91-1.55c.57-.33.89,0,.89.69a3.45,3.45,0,0,1-.65,1.79l-.72,1.27h0l.38-.22,1-.58v.48l-1.79,1Z" style="fill:#FBBC04"></path><path d="M319.11,252.28c.29-.12.53.07.53.64a2,2,0,0,1-.91,1.68c-.51.3-.88.08-1-.56l.31-.31c.06.46.3.6.65.4a1.24,1.24,0,0,0,.56-1.08c0-.45-.22-.55-.57-.35l-.25.15v-.41l.24-.14a1.05,1.05,0,0,0,.55-1c0-.41-.19-.53-.54-.33a1.24,1.24,0,0,0-.58,1l-.32,0a2,2,0,0,1,.94-1.56c.58-.34.85-.08.85.51a1.61,1.61,0,0,1-.5,1.21Z" style="fill:#FBBC04"></path><path d="M323.51,251.17l.91-1.62a2.92,2.92,0,0,0,.51-1.36c0-.41-.18-.65-.56-.43a1.22,1.22,0,0,0-.55,1l-.33.05a1.9,1.9,0,0,1,.91-1.55c.57-.33.88,0,.88.69a3.46,3.46,0,0,1-.64,1.79l-.73,1.27h0l.37-.22,1-.58v.48l-1.79,1Z" style="fill:#FBBC04"></path><path d="M326.94,249.78v-1l-1.29.75V249l1.12-3,.52-.3v2.41l.37-.21v.47l-.37.21v1Zm0-3.45h0l-.95,2.5h0l.41-.24.54-.31v-2Z" style="fill:#FBBC04"></path><path d="M331.53,246.53l.92-1.61a2.91,2.91,0,0,0,.5-1.37c0-.4-.18-.64-.55-.43a1.27,1.27,0,0,0-.56,1l-.33,0a1.94,1.94,0,0,1,.91-1.56c.57-.33.89,0,.89.69a3.42,3.42,0,0,1-.65,1.79l-.72,1.27h0l.38-.22,1-.58v.49l-1.79,1Z" style="fill:#FBBC04"></path><path d="M334.14,243.43a1.53,1.53,0,0,1,.58-.67c.52-.31.87,0,.87.78a2.15,2.15,0,0,1-.93,1.86c-.49.28-.85.07-.94-.53l.31-.29c.06.42.3.54.62.36a1.39,1.39,0,0,0,.6-1.21c0-.53-.24-.73-.61-.51a1.23,1.23,0,0,0-.55.76l-.29,0,.23-2.23,1.39-.8v.5l-1.15.67-.07.69c0,.34-.07.56-.07.58Z" style="fill:#FBBC04"></path><path d="M339.52,241.92l.92-1.61a3.06,3.06,0,0,0,.5-1.37c0-.4-.18-.65-.56-.43a1.22,1.22,0,0,0-.55,1l-.33.05a1.94,1.94,0,0,1,.91-1.55c.57-.33.89,0,.89.69a3.45,3.45,0,0,1-.65,1.79l-.72,1.27h0l.37-.22,1-.58v.48l-1.79,1Z" style="fill:#FBBC04"></path><path d="M342.19,238.78a1.36,1.36,0,0,1,.54-.64c.49-.28.86,0,.86.76a2.24,2.24,0,0,1-1,1.9c-.55.31-1,0-1-.84a4.22,4.22,0,0,1,.35-1.54l.63-1.61.38-.22-.85,2.19Zm1.06.3c0-.52-.24-.71-.62-.49a1.36,1.36,0,0,0-.61,1.2c0,.54.24.75.61.53A1.41,1.41,0,0,0,343.25,239.08Z" style="fill:#FBBC04"></path><path d="M347.55,237.28l.91-1.61a2.92,2.92,0,0,0,.51-1.36c0-.41-.18-.65-.56-.43a1.26,1.26,0,0,0-.56,1l-.33,0a1.93,1.93,0,0,1,.92-1.55c.57-.33.88,0,.88.69a3.39,3.39,0,0,1-.65,1.79l-.72,1.27h0l.37-.22,1-.59v.49l-1.79,1Z" style="fill:#FBBC04"></path><path d="M350.31,236.28l-.37.21,1-3.37c.12-.38.24-.72.24-.72h0l-.33.2-1.15.66v-.51l1.88-1.08v.4Z" style="fill:#FBBC04"></path><path d="M354.47,233.29l.91-1.61a3,3,0,0,0,.51-1.37c0-.4-.18-.65-.56-.43a1.27,1.27,0,0,0-.56,1l-.33.06a2,2,0,0,1,.92-1.56c.57-.33.88,0,.88.69a3.36,3.36,0,0,1-.65,1.79l-.72,1.27h0l.37-.22,1-.58v.49l-1.79,1Z" style="fill:#FBBC04"></path><path d="M357.21,230.26v0c-.14,0-.47,0-.47-.61a1.83,1.83,0,0,1,.85-1.52c.53-.3.84,0,.84.54a1.6,1.6,0,0,1-.47,1.15v0c.28-.11.59,0,.59.64a2,2,0,0,1-1,1.69c-.6.34-1,.09-1-.57A1.72,1.72,0,0,1,357.21,230.26Zm.38,1.48a1.29,1.29,0,0,0,.62-1.11c0-.45-.25-.56-.62-.34a1.22,1.22,0,0,0-.63,1.07C357,231.83,357.21,232,357.59,231.74Zm0-1.93a1.15,1.15,0,0,0,.53-1c0-.38-.21-.53-.53-.34a1.12,1.12,0,0,0-.54,1C357.05,229.9,357.28,230,357.59,229.81Z" style="fill:#FBBC04"></path><path d="M307.6,268.41l.91-1.62a2.92,2.92,0,0,0,.51-1.36c0-.41-.18-.65-.56-.43a1.26,1.26,0,0,0-.56,1l-.33.05a2,2,0,0,1,.91-1.55c.58-.33.89,0,.89.69a3.39,3.39,0,0,1-.65,1.79l-.72,1.27h0l.37-.22,1-.58V268l-1.79,1Z" style="fill:#FBBC04"></path><path d="M311.18,265.26a1.39,1.39,0,0,1-.55.64c-.52.31-.87,0-.87-.77a2.28,2.28,0,0,1,1-1.91c.53-.3,1-.07,1,.82a5,5,0,0,1-.52,1.95l-.53,1.24-.39.23.92-2.19ZM310.1,265c0,.62.29.7.62.5a1.38,1.38,0,0,0,.63-1.23c0-.62-.29-.72-.63-.52A1.39,1.39,0,0,0,310.1,265Z" style="fill:#FBBC04"></path><path d="M316.83,261.65c.29-.12.53.07.53.64a2,2,0,0,1-.91,1.68c-.51.3-.88.08-1-.56l.31-.31c.06.46.3.6.65.4a1.24,1.24,0,0,0,.56-1.08c0-.45-.22-.54-.57-.34l-.25.14v-.41l.24-.14a1.06,1.06,0,0,0,.56-1c0-.41-.2-.53-.54-.33a1.23,1.23,0,0,0-.59,1l-.32.06a2,2,0,0,1,.94-1.57c.58-.33.85-.08.85.51a1.61,1.61,0,0,1-.5,1.21Z" style="fill:#FBBC04"></path><path d="M319.7,260.07c0,1.31-.36,2.24-1,2.6s-1-.13-1-1.44a2.87,2.87,0,0,1,1-2.6C319.34,258.26,319.7,258.76,319.7,260.07Zm-1.65.95c0,1,.2,1.41.65,1.15s.65-.91.65-1.9-.2-1.4-.65-1.14S318.05,260,318.05,261Z" style="fill:#FBBC04"></path><path d="M325.63,256c0-.3,0-.69,0-.68h0s-.13.32-.19.42l-.25.55L325,256l.67-1.33.34-.19v3.88l-.36.21Z" style="fill:#455a64"></path><path d="M332.67,253.93l.91-1.61a2.91,2.91,0,0,0,.51-1.37c0-.4-.18-.64-.56-.42a1.26,1.26,0,0,0-.56,1l-.32,0a1.91,1.91,0,0,1,.91-1.55c.57-.33.88,0,.88.68a3.39,3.39,0,0,1-.65,1.8l-.72,1.27h0l.37-.23,1-.58v.49l-1.79,1Z" style="fill:#455a64"></path><path d="M341.94,247.15c.29-.12.52.07.52.64a2,2,0,0,1-.9,1.68c-.52.3-.89.08-1-.56l.32-.31c0,.46.3.6.64.4a1.25,1.25,0,0,0,.57-1.08c0-.45-.23-.54-.58-.34l-.25.14v-.41l.25-.14a1.07,1.07,0,0,0,.55-1c0-.41-.2-.53-.54-.33a1.24,1.24,0,0,0-.58,1l-.32.06a1.94,1.94,0,0,1,.93-1.57c.58-.34.86-.08.86.51a1.61,1.61,0,0,1-.5,1.21Z" style="fill:#455a64"></path><path d="M349.76,244.65v-1l-1.28.74v-.49l1.12-3,.52-.3V243l.37-.21v.46l-.37.21v1Zm0-3.44h0l-.95,2.5h0l.42-.24.53-.31v-2Z" style="fill:#455a64"></path><path d="M356,238.88a1.5,1.5,0,0,1,.57-.67c.53-.3.88,0,.88.78a2.16,2.16,0,0,1-.93,1.86c-.49.29-.85.07-.94-.52l.3-.3c.06.43.31.55.63.36a1.39,1.39,0,0,0,.6-1.21c0-.53-.25-.72-.62-.51a1.32,1.32,0,0,0-.55.77l-.28,0,.23-2.22,1.39-.81V237l-1.15.66-.08.69c0,.34-.06.56-.06.58Z" style="fill:#455a64"></path></g></g></g><g id="freepik--notes--inject-38"><g id="freepik--box--inject-38"><g style="opacity:0.2"><path d="M337.47,144.86l21.77-12.57c.72-.41,1.3-.08,1.3.75v25.14a2.86,2.86,0,0,1-1.3,2.25L337.47,173c-.72.42-1.3.08-1.3-.75V147.11A2.86,2.86,0,0,1,337.47,144.86Z"></path></g><path d="M368.67,162.87V137.73a2.86,2.86,0,0,0-1.3-2.25h0a2.84,2.84,0,0,0-2.6,0L343,148.05a2.86,2.86,0,0,0-1.3,2.25v25.14a2.86,2.86,0,0,0,1.3,2.25h0a2.82,2.82,0,0,0,2.59,0l21.78-12.57A2.86,2.86,0,0,0,368.67,162.87Z" style="fill:#f0f0f0"></path><path d="M345.59,177.69l21.78-12.57a2.61,2.61,0,0,0,.92-1L342.07,149a2.67,2.67,0,0,0-.38,1.28v25.14a2.87,2.87,0,0,0,1.3,2.25h0A2.82,2.82,0,0,0,345.59,177.69Z" style="fill:#e0e0e0"></path><g style="opacity:0.2"><path d="M345.59,177.69l21.78-12.57a2.61,2.61,0,0,0,.92-1L342.07,149a2.67,2.67,0,0,0-.38,1.28v25.14a2.87,2.87,0,0,0,1.3,2.25h0A2.82,2.82,0,0,0,345.59,177.69Z"></path></g><path d="M368,136.8a1.18,1.18,0,0,0-.58.18l-21.78,12.57a2.89,2.89,0,0,0-1.29,2.25v25.14c0,.59.29.93.71.93a1.15,1.15,0,0,0,.58-.18l21.78-12.57a2.86,2.86,0,0,0,1.3-2.25V137.73c0-.59-.3-.93-.72-.93Z" style="fill:#fafafa"></path><path d="M347.68,169.76h0c.28,1.88,1.43,2.7,2.79,2l4.91-2.58-4.07-1.89C350.19,166.75,348.69,167.77,347.68,169.76Zm14-8.45-4.06,6.58,4.9-3.08c1.36-.85,2.51-3,2.8-5.21C364.27,158.78,362.77,159.49,361.64,161.31Zm-12.87-4.11c-.78,3.16-.26,6,1.26,7l5.49,3.41-2.37-8.7C352.49,156.48,350.69,155.79,348.77,157.2Zm15.41-8.89h0c-1.91.79-3.72,3.57-4.37,6.74l-2.37,11.43,5.49-9.74C364.45,154,365,150.56,364.18,148.31Zm-7.7-3h0a14.15,14.15,0,0,0-2.27,10l2.27,10.79,2.27-13.41C359.38,149,358.44,146,356.48,145.34Z" style="fill:#FBBC04"></path></g></g><g id="freepik--galery--inject-38"><g id="freepik--box--inject-38"><g style="opacity:0.2"><path d="M309,161.28l21.77-12.57c.72-.42,1.3-.08,1.3.75V174.6a2.87,2.87,0,0,1-1.3,2.25L309,189.42c-.72.41-1.3.08-1.3-.75V163.53A2.86,2.86,0,0,1,309,161.28Z"></path></g><path d="M340.19,179.29V154.15a2.88,2.88,0,0,0-1.3-2.25h0a2.9,2.9,0,0,0-2.6,0l-21.77,12.57a2.87,2.87,0,0,0-1.3,2.25v25.15a2.89,2.89,0,0,0,1.3,2.25h0a2.9,2.9,0,0,0,2.6,0l21.78-12.57A2.9,2.9,0,0,0,340.19,179.29Z" style="fill:#FBBC04"></path><path d="M340.19,179.29V154.15a2.88,2.88,0,0,0-1.3-2.25h0a2.9,2.9,0,0,0-2.6,0l-21.77,12.57a2.87,2.87,0,0,0-1.3,2.25v25.15a2.89,2.89,0,0,0,1.3,2.25h0a2.9,2.9,0,0,0,2.6,0l21.78-12.57A2.9,2.9,0,0,0,340.19,179.29Z" style="fill:#fff;opacity:0.7000000000000001"></path><path d="M317.11,194.11l21.78-12.57a2.67,2.67,0,0,0,.91-1l-26.21-15.14a2.62,2.62,0,0,0-.38,1.28v25.15a2.89,2.89,0,0,0,1.3,2.25h0A2.9,2.9,0,0,0,317.11,194.11Z" style="fill:#FBBC04;opacity:0.7000000000000001"></path><path d="M339.47,153.22a1.15,1.15,0,0,0-.58.18L317.11,166a2.86,2.86,0,0,0-1.3,2.25v25.14c0,.59.3.93.72.93a1.18,1.18,0,0,0,.58-.18l21.78-12.57a2.9,2.9,0,0,0,1.3-2.25V154.15c0-.59-.3-.93-.72-.93Z" style="fill:#FBBC04"></path><g style="opacity:0.55"><path d="M339.47,153.22a1.15,1.15,0,0,0-.58.18L317.11,166a2.86,2.86,0,0,0-1.3,2.25v25.14c0,.59.3.93.72.93a1.18,1.18,0,0,0,.58-.18l21.78-12.57a2.9,2.9,0,0,0,1.3-2.25V154.15c0-.59-.3-.93-.72-.93Z" style="fill:#fff"></path></g><path d="M335.4,159.27a.69.69,0,0,0-.68,0l-13.81,8a1.57,1.57,0,0,0-.67,1.26v19a.77.77,0,0,0,.35.71.61.61,0,0,0,.3.08.67.67,0,0,0,.38-.11l13.81-8a1.54,1.54,0,0,0,.67-1.26V160A.78.78,0,0,0,335.4,159.27ZM324.27,168a1.1,1.1,0,0,1,1.12,0,1.77,1.77,0,0,1,.68,1.59,3.68,3.68,0,0,1-1.45,3,1.26,1.26,0,0,1-.63.18,1,1,0,0,1-.49-.13,1.75,1.75,0,0,1-.69-1.59A3.7,3.7,0,0,1,324.27,168Zm10,9.55a.35.35,0,0,1-.18.3l-11.9,6.88a.37.37,0,0,1-.18,0,.33.33,0,0,1-.17,0,.36.36,0,0,1-.18-.31v-2.89a.29.29,0,0,1,0-.16l3.32-6.56a.33.33,0,0,1,.22-.18.35.35,0,0,1,.28,0l2.07,1.26,2.73-7.79a.36.36,0,0,1,.31-.23.32.32,0,0,1,.34.19l3.26,6.4a.29.29,0,0,1,0,.16Z" style="fill:#fff"></path></g></g><g id="freepik--camera--inject-38"><g id="freepik--box--inject-38"><g style="opacity:0.2"><path d="M337.47,112l21.77-12.57c.72-.42,1.3-.08,1.3.75v25.14a2.86,2.86,0,0,1-1.3,2.25l-21.77,12.57c-.72.41-1.3.08-1.3-.75V114.26A2.86,2.86,0,0,1,337.47,112Z"></path></g><path d="M368.67,130V104.88a2.86,2.86,0,0,0-1.3-2.25h0a2.9,2.9,0,0,0-2.6,0L343,115.19a2.89,2.89,0,0,0-1.3,2.25v25.15a2.89,2.89,0,0,0,1.3,2.25h0a2.82,2.82,0,0,0,2.59,0l21.78-12.57A2.86,2.86,0,0,0,368.67,130Z" style="fill:#FBBC04"></path><path d="M368.67,130V104.88a2.86,2.86,0,0,0-1.3-2.25h0a2.9,2.9,0,0,0-2.6,0L343,115.19a2.89,2.89,0,0,0-1.3,2.25v25.15a2.89,2.89,0,0,0,1.3,2.25h0a2.82,2.82,0,0,0,2.59,0l21.78-12.57A2.86,2.86,0,0,0,368.67,130Z" style="fill:#fff;opacity:0.7000000000000001"></path><path d="M345.59,144.84l21.78-12.57a2.69,2.69,0,0,0,.92-1l-26.22-15.14a2.73,2.73,0,0,0-.38,1.28v25.15a2.89,2.89,0,0,0,1.3,2.25h0A2.82,2.82,0,0,0,345.59,144.84Z" style="fill:#FBBC04;opacity:0.7000000000000001"></path><path d="M368,104a1.18,1.18,0,0,0-.58.18L345.59,116.7A2.87,2.87,0,0,0,344.3,119v25.14c0,.59.29.93.71.93a1.15,1.15,0,0,0,.58-.18l21.78-12.57a2.86,2.86,0,0,0,1.3-2.25V104.88c0-.59-.3-.93-.72-.93Z" style="fill:#FBBC04"></path><g style="opacity:0.55"><path d="M368,104a1.18,1.18,0,0,0-.58.18L345.59,116.7A2.87,2.87,0,0,0,344.3,119v25.14c0,.59.29.93.71.93a1.15,1.15,0,0,0,.58-.18l21.78-12.57a2.86,2.86,0,0,0,1.3-2.25V104.88c0-.59-.3-.93-.72-.93Z" style="fill:#fff"></path></g><path d="M363.9,112.84a.67.67,0,0,0-.68,0l-2.38,1.37-.32-1a.67.67,0,0,0-1-.43l-6.42,3.71a1.64,1.64,0,0,0-.67,1l-.31,1.33a1,1,0,0,1-.33.58l-2.4,1.39a1.73,1.73,0,0,0-.72,1.44v13a1,1,0,0,0,.39.85.69.69,0,0,0,.68,0l13.85-8a1.75,1.75,0,0,0,.72-1.45v-13A.93.93,0,0,0,363.9,112.84ZM356.28,129a1.68,1.68,0,0,1-1.73.14c-.77-.44-1.23-1.65-1.23-3.22,0-2.89,1.51-6.13,3.37-7.2a2.05,2.05,0,0,1,1-.31,1.22,1.22,0,0,1,.68.18c.77.43,1.23,1.64,1.23,3.21C359.64,124.66,358.14,127.9,356.28,129Zm5.11-11.69-.62.36a.66.66,0,0,1-.36.11.76.76,0,0,1-.67-.39.78.78,0,0,1,.28-1l.6-.34a.78.78,0,0,1,1.05.28A.74.74,0,0,1,361.39,117.27Zm-10.57,1.17a.36.36,0,0,0-.49-.13l-1,.62a.35.35,0,0,0-.13.48.33.33,0,0,0,.31.18.26.26,0,0,0,.17,0l1-.62A.36.36,0,0,0,350.82,118.44Z" style="fill:#fff"></path></g></g><g id="freepik--location--inject-38"><g id="freepik--box--inject-38"><g style="opacity:0.2"><path d="M309,128.42l21.77-12.57c.72-.41,1.3-.08,1.3.75v25.15a2.89,2.89,0,0,1-1.3,2.25L309,156.57c-.72.41-1.3.08-1.3-.75V130.67A2.89,2.89,0,0,1,309,128.42Z"></path></g><path d="M340.19,146.44V121.29a2.9,2.9,0,0,0-1.3-2.25h0a2.84,2.84,0,0,0-2.6,0l-21.77,12.57a2.86,2.86,0,0,0-1.3,2.25V159a2.86,2.86,0,0,0,1.3,2.25h0a2.9,2.9,0,0,0,2.6,0l21.78-12.57A2.91,2.91,0,0,0,340.19,146.44Z" style="fill:#FBBC04"></path><path d="M340.19,146.44V121.29a2.9,2.9,0,0,0-1.3-2.25h0a2.84,2.84,0,0,0-2.6,0l-21.77,12.57a2.86,2.86,0,0,0-1.3,2.25V159a2.86,2.86,0,0,0,1.3,2.25h0a2.9,2.9,0,0,0,2.6,0l21.78-12.57A2.91,2.91,0,0,0,340.19,146.44Z" style="fill:#fff;opacity:0.7000000000000001"></path><path d="M317.11,161.26l21.78-12.57a2.75,2.75,0,0,0,.91-1l-26.21-15.14a2.62,2.62,0,0,0-.38,1.28V159a2.86,2.86,0,0,0,1.3,2.25h0A2.9,2.9,0,0,0,317.11,161.26Z" style="fill:#FBBC04;opacity:0.7000000000000001"></path><path d="M339.47,120.37a1.13,1.13,0,0,0-.58.17l-21.78,12.57a2.89,2.89,0,0,0-1.3,2.25v25.15c0,.59.3.92.72.92a1.15,1.15,0,0,0,.58-.17l21.78-12.57a2.91,2.91,0,0,0,1.3-2.25V121.29c0-.58-.3-.92-.72-.92Z" style="fill:#FBBC04"></path><g style="opacity:0.55"><path d="M339.47,120.37a1.13,1.13,0,0,0-.58.17l-21.78,12.57a2.89,2.89,0,0,0-1.3,2.25v25.15c0,.59.3.92.72.92a1.15,1.15,0,0,0,.58-.17l21.78-12.57a2.91,2.91,0,0,0,1.3-2.25V121.29c0-.58-.3-.92-.72-.92Z" style="fill:#fff"></path></g><path d="M328,151.56a.35.35,0,0,1-.24-.1c-.2-.19-5-2.49-5-10.05,0-4.24,2.26-9,5-10.61h0a3.18,3.18,0,0,1,3.27-.19c1.36.78,2.13,2.67,2.13,5.18,0,7.49-4.7,15.15-4.9,15.57a.35.35,0,0,1-.25.19Zm0-20.45h0ZM328,143h0Zm1-8.84a1.73,1.73,0,0,0-.84.25c-1.5.87-2.71,3.47-2.71,5.81a3,3,0,0,0,1,2.59,1.37,1.37,0,0,0,1.38-.12c1.5-.86,2.71-3.46,2.71-5.8a2.92,2.92,0,0,0-1-2.59A1.05,1.05,0,0,0,329,134.19Z" style="fill:#fff"></path></g></g><g id="freepik--Image--inject-38"><g id="freepik--box--inject-38"><g style="opacity:0.2"><path d="M248.06,163.6l50.2-29c.71-.41,1.29-.08,1.29.75v58a2.89,2.89,0,0,1-1.29,2.25l-50.2,29c-.72.41-1.3.08-1.3-.75v-58A2.89,2.89,0,0,1,248.06,163.6Z"></path></g><path d="M307.68,198v-58a2.87,2.87,0,0,0-1.3-2.25h0a2.84,2.84,0,0,0-2.6,0l-50.19,29a2.86,2.86,0,0,0-1.3,2.25v58a2.89,2.89,0,0,0,1.3,2.25h0a2.84,2.84,0,0,0,2.6,0l50.2-29A2.87,2.87,0,0,0,307.68,198Z" style="fill:#FBBC04"></path><path d="M307.68,198v-58a2.87,2.87,0,0,0-1.3-2.25h0a2.84,2.84,0,0,0-2.6,0l-50.19,29a2.86,2.86,0,0,0-1.3,2.25v58a2.89,2.89,0,0,0,1.3,2.25h0a2.84,2.84,0,0,0,2.6,0l50.2-29A2.87,2.87,0,0,0,307.68,198Z" style="fill:#fff;opacity:0.7000000000000001"></path><path d="M256.18,229.26l50.2-29a2.77,2.77,0,0,0,.92-1l-54.64-31.55a2.62,2.62,0,0,0-.38,1.28v58a2.89,2.89,0,0,0,1.3,2.25h0A2.84,2.84,0,0,0,256.18,229.26Z" style="fill:#FBBC04;opacity:0.7000000000000001"></path><path d="M255.6,228.94c-.19,0-.22-.27-.22-.43v-58a2.38,2.38,0,0,1,1.05-1.81l50.2-29a.71.71,0,0,1,.33-.11c.19,0,.22.27.22.43v58a2.38,2.38,0,0,1-1.05,1.81l-50.2,29A.71.71,0,0,1,255.6,228.94Z" style="fill:#FBBC04"></path><path d="M255.6,228.94c-.19,0-.22-.27-.22-.43v-58a2.38,2.38,0,0,1,1.05-1.81l50.2-29a.71.71,0,0,1,.33-.11c.19,0,.22.27.22.43v58a2.38,2.38,0,0,1-1.05,1.81l-50.2,29A.71.71,0,0,1,255.6,228.94Z" style="fill:#fff;opacity:0.55"></path><polygon points="304.18 182.79 304.18 197.51 258.38 223.95 258.38 209.19 269.95 178.46 290.03 192.5 284.29 186.02 293.95 173.38 304.18 182.79" style="fill:#fff"></polygon><path d="M289.1,160.43c2.13-1.23,3.87-.23,3.87,2.24a8.59,8.59,0,0,1-3.87,6.71c-2.14,1.23-3.88.23-3.88-2.24A8.58,8.58,0,0,1,289.1,160.43Z" style="fill:#fff"></path></g></g></g></g><g id="freepik--icon-4--inject-38"><g id="freepik--Size--inject-38"><path d="M385.83,155.41c0,1.3.91,1.82,2,1.18a4.49,4.49,0,0,0,2-3.52c0-1.3-.91-1.82-2-1.17A4.47,4.47,0,0,0,385.83,155.41Z" style="fill:#455a64"></path><path d="M401.55,334.23a2,2,0,0,1-2-2V148.94a.51.51,0,0,0-.25-.44.52.52,0,0,0-.5,0l-10.69,6.17-.5-.86,10.69-6.17a1.49,1.49,0,0,1,1.5,0,1.48,1.48,0,0,1,.75,1.3V332.22a1,1,0,0,0,1.5.87L428.25,318l.5.86L402.55,334A2,2,0,0,1,401.55,334.23Z" style="fill:#455a64"></path><ellipse cx="451.07" cy="306.28" rx="31.94" ry="18.44" transform="translate(-39.71 543.78) rotate(-60)" style="fill:#fff"></ellipse><path d="M441,336.46a12.61,12.61,0,0,1-6.38-1.65c-4.59-2.65-7.11-8.15-7.11-15.49,0-14.7,10.35-32.63,23.08-40,6.36-3.67,12.38-4.23,17-1.58s7.12,8.15,7.12,15.48c0,14.7-10.36,32.64-23.09,40A21.45,21.45,0,0,1,441,336.46Zm20.18-58.35a19.53,19.53,0,0,0-9.59,3c-12.18,7-22.08,24.19-22.08,38.25,0,6.6,2.17,11.48,6.11,13.76s9.26,1.71,15-1.58c12.18-7,22.09-24.19,22.09-38.26,0-6.59-2.17-11.48-6.12-13.75A10.61,10.61,0,0,0,461.16,278.11Z" style="fill:#FBBC04"></path><path d="M462.07,313.54a1,1,0,0,1-.45-.12l-22-12.71a.9.9,0,0,1,.9-1.56l22,12.7a.91.91,0,0,1-.46,1.69Z" style="fill:#455a64"></path><path d="M440.07,326.24a.82.82,0,0,1-.45-.12.9.9,0,0,1-.33-1.23l22-38.12a.91.91,0,1,1,1.57.91l-22,38.11A.9.9,0,0,1,440.07,326.24Z" style="fill:#455a64"></path><path d="M440.07,307.86a.9.9,0,0,1-.9-.9v-7a.9.9,0,0,1,.45-.78L445,296a.9.9,0,1,1,.91,1.56l-5,2.87V307a.9.9,0,0,1-.9.9Z" style="fill:#455a64"></path><path d="M462.08,295.58h0a.9.9,0,0,1-.9-.9v-5.89l-4.08,2.35a.9.9,0,1,1-.9-1.56l5.43-3.14a.91.91,0,0,1,1.36.78v7.46A.9.9,0,0,1,462.08,295.58Z" style="fill:#455a64"></path><path d="M440.06,326.25a.92.92,0,0,1-.45-.12.9.9,0,0,1-.45-.78v-7.46a.91.91,0,1,1,1.81,0v5.89l3.75-2.17a.91.91,0,1,1,.91,1.57l-5.12,2.95A.89.89,0,0,1,440.06,326.25Z" style="fill:#455a64"></path><path d="M456.65,316.67a.9.9,0,0,1-.45-1.68l5-2.88V305.4a.91.91,0,0,1,.9-.91h0a.91.91,0,0,1,.9.9v7.24a.91.91,0,0,1-.46.79l-5.43,3.13A.89.89,0,0,1,456.65,316.67Z" style="fill:#455a64"></path></g></g><g id="freepik--icon-3--inject-38"><g id="freepik--Speed--inject-38"><path d="M385.83,146c0,1.3.91,1.82,2,1.17a4.46,4.46,0,0,0,2-3.51c0-1.3-.91-1.82-2-1.18A4.51,4.51,0,0,0,385.83,146Z" style="fill:#455a64"></path><path d="M409.69,245.1a2,2,0,0,1-2-2V134.86a.49.49,0,0,0-.25-.43.48.48,0,0,0-.5,0l-18.82,10.86-.5-.86,18.82-10.87a1.5,1.5,0,0,1,2.25,1.3V243.1a1,1,0,0,0,.5.87,1,1,0,0,0,1,0l18.05-10.42.5.87-18.05,10.41A2,2,0,0,1,409.69,245.1Z" style="fill:#455a64"></path><ellipse cx="451.07" cy="221.55" rx="31.94" ry="18.44" transform="translate(33.67 501.42) rotate(-60)" style="fill:#fff"></ellipse><path d="M441,251.73a12.61,12.61,0,0,1-6.38-1.65c-4.59-2.65-7.11-8.15-7.11-15.49,0-14.7,10.35-32.63,23.08-40,6.36-3.67,12.39-4.24,17-1.59s7.12,8.15,7.12,15.49c0,14.7-10.36,32.64-23.09,40A21.55,21.55,0,0,1,441,251.73Zm20.18-58.35a19.53,19.53,0,0,0-9.59,3c-12.18,7-22.08,24.19-22.08,38.25,0,6.6,2.17,11.48,6.11,13.76s9.26,1.71,15-1.58c12.18-7,22.09-24.2,22.09-38.26,0-6.59-2.17-11.48-6.12-13.75A10.61,10.61,0,0,0,461.16,193.38Z" style="fill:#FBBC04"></path><path d="M437.79,221.6c-.38,1-.73,2-1,3A37.28,37.28,0,0,0,435,235.4l4.61-2.66a26.72,26.72,0,0,1,1.13-7.41,28.63,28.63,0,0,1,1-3,31.66,31.66,0,0,1,3-5.66l-2.32-4A44,44,0,0,0,437.79,221.6Z" style="fill:#455a64"></path><path d="M451.59,209.9a9.93,9.93,0,0,1,1-.53,8.49,8.49,0,0,1,4-.89L459,201.8a12,12,0,0,0-6.36,1.4c-.34.17-.68.35-1,.55s-.69.41-1,.63a28.69,28.69,0,0,0-6.35,5.94l2.31,4a20.67,20.67,0,0,1,4-3.78C450.9,210.31,451.24,210.1,451.59,209.9Z" style="fill:#455a64"></path><path d="M466.42,207.43a12,12,0,0,0-1-1.76,8.9,8.9,0,0,0-4.65-3.52l-2.31,6.67a6.41,6.41,0,0,1,3,2.24,8.91,8.91,0,0,1,1,1.77,15,15,0,0,1,1.13,6.11l4.61-2.67A20.61,20.61,0,0,0,466.42,207.43Z" style="fill:#455a64"></path><path d="M452.78,221.73a1.32,1.32,0,0,0-1.19.16,4.77,4.77,0,0,0-2,3.81c0,1.47.9,2.14,2,1.51a4.81,4.81,0,0,0,2-3.82v0l5.78-8.27Z" style="fill:#FBBC04"></path></g></g><g id="freepik--icon-1--inject-38"><g id="freepik--WiFi--inject-38"><path d="M385.83,127.27c0,1.3.91,1.82,2,1.17a4.46,4.46,0,0,0,2-3.51c0-1.3-.91-1.83-2-1.18A4.51,4.51,0,0,0,385.83,127.27Z" style="fill:#455a64"></path><path d="M388.12,126.53l-.5-.86,9.85-5.69a4.2,4.2,0,0,0,2.08-3.61V83.92a4.65,4.65,0,0,1,2.32-4l26.37-15.22.5.86L402.37,80.78a3.65,3.65,0,0,0-1.82,3.14v32.45a5.18,5.18,0,0,1-2.58,4.47Z" style="fill:#455a64"></path><ellipse cx="451.07" cy="52.09" rx="31.94" ry="18.44" transform="translate(180.43 416.68) rotate(-60)" style="fill:#fff"></ellipse><path d="M441,82.26a12.61,12.61,0,0,1-6.38-1.64c-4.59-2.65-7.11-8.15-7.11-15.49,0-14.7,10.35-32.64,23.08-40,6.36-3.67,12.38-4.23,17-1.58s7.12,8.15,7.12,15.49c0,14.7-10.36,32.63-23.09,40A21.45,21.45,0,0,1,441,82.26Zm20.18-58.34a19.61,19.61,0,0,0-9.59,2.95c-12.18,7-22.08,24.2-22.08,38.26,0,6.59,2.17,11.48,6.11,13.75s9.26,1.72,15-1.58c12.18-7,22.09-24.19,22.09-38.25,0-6.6-2.17-11.48-6.12-13.76A10.61,10.61,0,0,0,461.16,23.92Z" style="fill:#FBBC04"></path><path d="M451.07,57.67c-2.35,1.36-4.26,5-4.26,8.15s1.91,4.58,4.26,3.22,4.27-5,4.27-8.15S453.43,56.31,451.07,57.67Zm0-10.94c-5.37,3.1-10,10.63-11.24,18.31-.23,1.43.37,2.38,1.34,2.13a1.9,1.9,0,0,0,.42-.18,4.19,4.19,0,0,0,1.75-2.86c.86-5.28,4-10.46,7.73-12.59s6.88-.63,7.73,3.66c.23,1.16,1.2,1.4,2.17.53a4.38,4.38,0,0,0,1.34-3.67C461.07,45.82,456.45,43.62,451.07,46.73Zm17.2-5.12c-3.09-7.12-9.84-9-17.2-4.73S437,50.77,433.88,61.46c-.42,1.45,0,2.65.88,2.69s2-1.11,2.39-2.56c2.5-8.65,8-16.46,13.92-19.9s11.42-1.94,13.92,3.83a1.05,1.05,0,0,0,1.64.45,3,3,0,0,0,.76-.66A4,4,0,0,0,468.27,41.61Z" style="fill:#455a64"></path><rect x="448.69" y="33.46" width="4.77" height="37.26" transform="matrix(0.5, -0.87, 0.87, 0.5, 180.43, 416.69)" style="fill:#FBBC04"></rect></g></g></svg>