<svg xmlns="http://www.w3.org/2000/svg" viewBox="0 0 500 500"><g id="freepik--Document--inject-3"><g id="freepik--Patent--inject-3"><g id="freepik--Sheet--inject-3"><polygon points="282.23 457.74 282.22 462.79 478.81 349.29 478.81 344.24 282.23 457.74" style="fill:#BA68C8"></polygon><polygon points="282.23 457.74 282.22 462.79 478.81 349.29 478.81 344.24 282.23 457.74" style="fill:#fff;opacity:0.4"></polygon><polygon points="478.81 344.24 220.41 195.05 23.74 308.6 282.23 457.74 478.81 344.24" style="fill:#fafafa"></polygon><path d="M220.41,196.26l256.31,148L282.23,456.53,25.84,308.6,220.41,196.26m0-1.21L23.74,308.6,282.23,457.74l196.58-113.5L220.41,195.05Z" style="fill:#BA68C8"></path><polygon points="282.23 457.74 23.74 308.6 23.74 313.51 282.22 462.79 282.23 457.84 282.23 457.74" style="fill:#BA68C8"></polygon><g id="freepik--Text--inject-3"><path d="M102.63,280.84,55.71,307.93c-1.16.67-1.21,1.72-.13,2.35a4.51,4.51,0,0,0,4.06-.08l46.92-27.09c1.16-.67,1.22-1.72.13-2.34A4.48,4.48,0,0,0,102.63,280.84Z" style="fill:#e0e0e0"></path><path d="M118.36,289.92,71.44,317c-1.16.67-1.22,1.72-.13,2.35a4.51,4.51,0,0,0,4.06-.08l46.92-27.09c1.16-.67,1.22-1.72.13-2.34A4.47,4.47,0,0,0,118.36,289.92Z" style="fill:#e0e0e0"></path><path d="M92.93,295.52l-29.36,17c-1.15.67-1.21,1.72-.13,2.35a4.53,4.53,0,0,0,4.07-.08l29.35-16.95c1.16-.67,1.22-1.72.13-2.34A4.48,4.48,0,0,0,92.93,295.52Z" style="fill:#e0e0e0"></path></g><g id="freepik--text--inject-3"><path d="M243.88,237.65,90.55,326.18c-1.16.67-1.22,1.72-.13,2.35a4.48,4.48,0,0,0,4.06-.08l153.33-88.52c1.16-.67,1.22-1.72.13-2.35A4.51,4.51,0,0,0,243.88,237.65Z" style="fill:#e0e0e0"></path><path d="M251.74,242.19,98.41,330.72c-1.16.67-1.22,1.72-.13,2.35a4.48,4.48,0,0,0,4.06-.08l153.34-88.52c1.15-.67,1.21-1.72.13-2.35A4.53,4.53,0,0,0,251.74,242.19Z" style="fill:#e0e0e0"></path><path d="M259.61,246.73,106.27,335.26c-1.15.67-1.21,1.72-.13,2.35a4.51,4.51,0,0,0,4.06-.08L263.54,249c1.16-.66,1.22-1.71.13-2.34A4.51,4.51,0,0,0,259.61,246.73Z" style="fill:#e0e0e0"></path><path d="M267.47,251.27,114.14,339.8c-1.16.67-1.22,1.72-.13,2.35a4.48,4.48,0,0,0,4.06-.08L271.4,253.55c1.16-.67,1.22-1.72.13-2.35A4.51,4.51,0,0,0,267.47,251.27Z" style="fill:#e0e0e0"></path></g><g id="freepik--text--inject-3"><path d="M283.35,260.44,130,349c-1.16.67-1.22,1.72-.13,2.34a4.47,4.47,0,0,0,4.06-.07l153.34-88.53c1.15-.67,1.21-1.72.13-2.35A4.51,4.51,0,0,0,283.35,260.44Z" style="fill:#e0e0e0"></path><path d="M291.21,265,137.87,353.51c-1.15.67-1.21,1.72-.13,2.34a4.5,4.5,0,0,0,4.07-.07l153.33-88.53c1.16-.67,1.22-1.72.13-2.35A4.51,4.51,0,0,0,291.21,265Z" style="fill:#e0e0e0"></path><path d="M299.07,269.52,145.74,358.05c-1.16.67-1.22,1.72-.13,2.34a4.48,4.48,0,0,0,4.06-.07L303,271.79c1.16-.67,1.22-1.72.13-2.35A4.51,4.51,0,0,0,299.07,269.52Z" style="fill:#e0e0e0"></path><path d="M306.94,274.06,153.6,362.59c-1.16.67-1.22,1.72-.13,2.34a4.47,4.47,0,0,0,4.06-.07l153.34-88.53c1.15-.67,1.21-1.72.13-2.35A4.51,4.51,0,0,0,306.94,274.06Z" style="fill:#e0e0e0"></path></g><path d="M322.81,283.22,169.47,371.75c-1.15.67-1.21,1.72-.13,2.35a4.53,4.53,0,0,0,4.07-.08l153.33-88.53c1.16-.66,1.22-1.71.13-2.34A4.51,4.51,0,0,0,322.81,283.22Z" style="fill:#e0e0e0"></path><path d="M330.67,287.76,177.34,376.29c-1.16.67-1.22,1.72-.13,2.35a4.51,4.51,0,0,0,4.06-.08L334.61,290c1.15-.66,1.21-1.71.12-2.34A4.51,4.51,0,0,0,330.67,287.76Z" style="fill:#e0e0e0"></path><path d="M267.47,333.32l-82.2,47.42c-1.16.67-1.22,1.72-.13,2.35a4.48,4.48,0,0,0,4.06-.08l82.2-47.42c1.16-.67,1.22-1.72.13-2.35A4.51,4.51,0,0,0,267.47,333.32Z" style="fill:#e0e0e0"></path><path d="M353.48,372.78l69.76-40.27c.75-.44.78-1.11.09-1.51a2.88,2.88,0,0,0-2.62,0L351,371.32c-.74.43-.78,1.1-.08,1.5A2.86,2.86,0,0,0,353.48,372.78Z" style="fill:#e0e0e0"></path><path d="M348.42,369.85l52.91-30.52c.75-.43.78-1.11.09-1.51a2.92,2.92,0,0,0-2.62.05l-52.91,30.52c-.74.43-.78,1.11-.08,1.51A2.86,2.86,0,0,0,348.42,369.85Z" style="fill:#e0e0e0"></path></g><path d="M375.17,322.83c-.18.07-.31.2-.29.33a43.3,43.3,0,0,0,3.95,13.73c-1.19.3-2.73.25-3.46-.44-.21-.2-1-.22-1.08.07s-.12.59-.19.88l-2-1.22c-.26-.15-1.06-.11-1,.17l.51,2.44a10.55,10.55,0,0,1-2.19-1.59c-.27-.26-1.2-.17-1,.17a4.08,4.08,0,0,1,.34,2.69,32.61,32.61,0,0,1-3.33-2.87c-.2-.21-1.14-.2-1.05.11a14.39,14.39,0,0,1,.53,2.8c0,.41,0,.83,0,1.24s.1,1-.32,1.38c-.64.57-1.38-.44-1.64-.73a6.26,6.26,0,0,1-.56-.74,22.58,22.58,0,0,0-1.18-2.92h0s0,0,0-.06c-.14-.27-1.11-.16-1.08.12a6.71,6.71,0,0,0,1.21,3,19.64,19.64,0,0,1,.82,3.81c-1.07.74-2.17,1.49-3.27,2.23a1.09,1.09,0,0,0-.08-.15c-.3-.6-.56-1.21-.8-1.83a9.65,9.65,0,0,0,.65-2.9,10.15,10.15,0,0,0-1.6-5.88,12.35,12.35,0,0,0,.48-2.39,8.49,8.49,0,0,0-1.18-5.1,7.62,7.62,0,0,0-5.8-3.86c-5.91-.84-10.74,2.4-11.54,5.49-1,3.72,2.15,7.47,4.47,10.83,1.26,1.84,2.56,3.67,3.76,5.52a42.82,42.82,0,0,1-6.08,3.62,44.26,44.26,0,0,1-4.24,1.8c-.38.14.31.35.61.25a47,47,0,0,0,10.14-5,44.24,44.24,0,0,1,3.1,5.6c-3.39,2.94-5.89,6.12-6.19,9.82A7.64,7.64,0,0,0,345.7,368c.49.78,2.26,3.48,4.42,2.49a2.53,2.53,0,0,0,1-1,11.46,11.46,0,0,0,.86-1.28,13,13,0,0,0,1.14-2.43,13.64,13.64,0,0,0,.74-5.27,19.8,19.8,0,0,0-1.81-7.1,76.4,76.4,0,0,1,6.31-4.67,4.66,4.66,0,0,0,1.43,1.79,2.75,2.75,0,0,0,2.85.07,1.52,1.52,0,0,0,.58-1.19c.06-.46.1-.93.12-1.4a18.25,18.25,0,0,0-.09-2.66c.63-.44,1.27-.88,1.88-1.34.45-.34-.57-.55-.94-.28s-.7.49-1.05.74c-.07-.47-.15-.94-.25-1.41a2.5,2.5,0,0,0,1.67.31c1.63-.26,1.43-1.64,1.43-2.38a14,14,0,0,0-.27-2.4,35.68,35.68,0,0,0,2.86,2.33c.22.16.89.13,1-.1a4.3,4.3,0,0,0,.24-2.34,14.52,14.52,0,0,0,2.15,1.19c.26.12.95,0,.9-.21l-.48-2.31,1.7,1c.23.14.94.14,1-.1s.14-.56.2-.85a7,7,0,0,0,3.87.25,51.18,51.18,0,0,0,2.56,4.6,58.58,58.58,0,0,0,3.69,5.18c.31.39,1.6.09,1.29-.3a53.16,53.16,0,0,1-6.3-9.86,3.94,3.94,0,0,0,2.49-3.48A12.13,12.13,0,0,0,380,324.8C379.19,323.84,377.5,322,375.17,322.83Zm-22.9,41.45a13.23,13.23,0,0,1-2.38,5.14c-.11.14-.24.47-.44.56s-.17.09-.45,0a1.16,1.16,0,0,1-.33-.2,5.69,5.69,0,0,1-1.1-1.09,7.88,7.88,0,0,1-1.36-2.34c-1.22-3.3.15-6.8,2.66-9.79a22.31,22.31,0,0,1,2.2-2.27A16.81,16.81,0,0,1,352.27,364.28Zm5.25-22.2a8.71,8.71,0,0,1-.15,1.69c-.14-.47-.26-.95-.36-1.43a17.48,17.48,0,0,1-.33-4A9.42,9.42,0,0,1,357.52,342.08ZM342.34,338c-2.07-3.29-3.9-7.36.38-10.36a10.49,10.49,0,0,1,7.76-1.54,7,7,0,0,1,5.18,4.71,8.67,8.67,0,0,1,.17,5.51c-.07,0-.12.08-.13.14s0,.25,0,.37a16.36,16.36,0,0,1-2.35,4.51,25.18,25.18,0,0,1-5.2,5.22C346.22,343.64,344.15,340.81,342.34,338Zm6.22,9.25a24.87,24.87,0,0,0,7-7.27,18.21,18.21,0,0,0,1.29,5.74,2.56,2.56,0,0,1-2.11,1.91c-.61.11,0,.45.47.38a3.09,3.09,0,0,0,2.09-1.21c.2.43.42.87.65,1.29-2.19,1.5-4.36,3-6.3,4.6A47.27,47.27,0,0,0,348.56,347.2Zm13.58,1.72c0,.36.07,1-.34,1.34-.7.51-1.31-.14-1.59-.51a12.16,12.16,0,0,1-1-1.57c.85-.58,1.7-1.15,2.53-1.73l.44-.31A19.82,19.82,0,0,1,362.14,348.92ZM378,324.46a12.36,12.36,0,0,1,1.5,1.88,11.8,11.8,0,0,1,1.71,4.28,7.92,7.92,0,0,1-.09,4.37A3,3,0,0,1,380,336.4a43.58,43.58,0,0,1-2.82-7.89,37.49,37.49,0,0,1-.9-5.22C377,323.34,377.83,324.23,378,324.46Z" style="fill:#e0e0e0"></path><path d="M395.56,334.42c-.85,1-1.12,2.21-2.9,2.84a4.66,4.66,0,0,1-2.21.24h0a3.05,3.05,0,0,0-1.18-2.23,1.82,1.82,0,0,0-2.06,0c-.55.48.08,1.2.5,1.64a3.68,3.68,0,0,0,1.64.93,2.43,2.43,0,0,1-.25,1.2c-.05.12-.73,1.25-1,1.15s-.79.08-.42.24c1.59.69,2.57-1.47,2.72-2a2.32,2.32,0,0,0,.07-.38,7.21,7.21,0,0,0,2.34-.18c2.16-.55,3.59-2.08,3.79-3.39C396.57,334.22,395.73,334.23,395.56,334.42Zm-7.1,1.82c0-.08-.4-.75-.22-.73,0,0,.24.31.26.34l.28.33a2.85,2.85,0,0,1,.4.8A2.94,2.94,0,0,1,388.46,336.24Z" style="fill:#e0e0e0"></path><path d="M391.78,330.67c-.31.18.35.4.61.25S392,330.52,391.78,330.67Z" style="fill:#e0e0e0"></path><path d="M353.77,352.81l-4.28,2.05c10,6.85,28.37,7.53,41,1.51l-3.38-2.32C376.83,358.94,361.88,358.39,353.77,352.81ZM359.33,335c-9.09,4.34-10.64,11.89-3.45,16.83s20.44,5.43,29.54,1.09,10.64-11.89,3.45-16.83S368.42,330.64,359.33,335Zm24.4,16.76c-7.92,3.77-19.45,3.35-25.71-.95a11.75,11.75,0,0,1-1.19-.94l28.45,1C384.79,351.19,384.28,351.47,383.73,351.74Zm3.66-2.32-32-1.18c-2.26-3.18-1.47-6.91,2.09-9.86l31.88,1.18C391.64,342.73,390.9,346.46,387.39,349.42ZM359.57,336.9c.46-.26.94-.52,1.45-.76,7.92-3.78,19.45-3.35,25.71.95a12.51,12.51,0,0,1,1.11.86Zm-14.33,20c11.84,8.13,33.63,8.94,48.59,1.8s17.51-19.56,5.68-27.69-33.63-8.93-48.59-1.79S333.41,348.76,345.24,356.88ZM397.37,332c10.9,7.49,8.55,18.93-5.23,25.51s-33.86,5.83-44.76-1.66-8.55-18.93,5.23-25.5S386.47,324.52,397.37,332Zm-39.71,1.82c10.26-4.9,25.2-4.34,33.32,1.23l4.28-2c-10-6.86-28.37-7.54-41-1.52Z" style="fill:#BA68C8;opacity:0.2"></path><text transform="matrix(0.75, -0.43, 0.87, 0.5, 134.59, 285.25)" style="font-size:35.69664001464844px;fill:#BA68C8;font-family:Rubik-Bold, Rubik;font-weight:700"><tspan style="letter-spacing:-0.049002876349859684em">P</tspan><tspan x="22.74" y="0" style="letter-spacing:-0.06998605805196723em">A</tspan><tspan x="45.87" y="0">TEN</tspan><tspan x="117.26" y="0" style="letter-spacing:-0.023984163654234305em">T</tspan></text></g></g><g id="freepik--magnifying-glass--inject-3"><g id="freepik--magnifying-glass--inject-3"><path d="M41.22,389.51v13.3c0,7.22,4.77,14.44,14.31,19.95,19.08,11,50,11,69.1,0C134.18,417.25,139,410,139,402.81v-13.3h0c0-7.22-4.77-14.44-14.31-19.94-19.09-11-50-11-69.11,0-9.54,5.5-14.31,12.72-14.31,19.94Zm93,0c0,5.77-4.24,11.4-12,15.85-8.52,4.92-20,7.63-32.19,7.63s-23.67-2.71-32.19-7.63c-7.7-4.45-12-10.08-12-15.85s4.25-11.41,12-15.86c8.52-4.92,20-7.63,32.19-7.63s23.67,2.71,32.19,7.63C130,378.11,134.22,383.74,134.22,389.52Z" style="fill:#BA68C8"></path><path d="M124.64,369.57c-19.08-11-50-11-69.11,0s-19.08,28.88,0,39.89,50,11,69.11,0S143.72,380.58,124.64,369.57Zm-2.36,35.8c-8.53,4.92-20,7.63-32.2,7.63s-23.66-2.71-32.19-7.63C50.19,400.92,46,395.29,46,389.52s4.24-11.41,11.94-15.86c8.53-4.92,20-7.63,32.19-7.63s23.67,2.71,32.2,7.63c7.7,4.45,11.94,10.08,11.94,15.86S130,400.92,122.28,405.37Z" style="fill:#fff;opacity:0.30000000000000004"></path><path d="M134.23,389.51a13.11,13.11,0,0,1-1.91,6.66c-1.94-3.36-5.35-6.51-10-9.21-8.51-4.92-20-7.64-32.19-7.64S66.41,382,57.9,387c-4.7,2.7-8.11,5.85-10.06,9.21a13.2,13.2,0,0,1-1.9-6.66c0-5.77,4.25-11.4,12-15.86,8.51-4.91,19.95-7.62,32.18-7.62s23.68,2.71,32.19,7.62C130,378.11,134.23,383.74,134.23,389.51Z" style="fill:#BA68C8"></path><path d="M134.23,389.51a13.11,13.11,0,0,1-1.91,6.66c-1.94-3.36-5.35-6.51-10-9.21-8.51-4.92-20-7.64-32.19-7.64S66.41,382,57.9,387c-4.7,2.7-8.11,5.85-10.06,9.21a13.2,13.2,0,0,1-1.9-6.66c0-5.77,4.25-11.4,12-15.86,8.51-4.91,19.95-7.62,32.18-7.62s23.68,2.71,32.19,7.62C130,378.11,134.23,383.74,134.23,389.51Z" style="opacity:0.1"></path><path d="M122.28,379.68c-8.53-4.92-20-7.63-32.2-7.63s-23.66,2.71-32.19,7.63c-6.35,3.67-10.35,8.15-11.55,12.85,1.2,4.69,5.2,9.17,11.55,12.84,8.53,4.92,20,7.63,32.19,7.63s23.67-2.71,32.2-7.63c6.35-3.67,10.35-8.15,11.55-12.84C132.63,387.83,128.63,383.35,122.28,379.68Z" style="fill:#fff;opacity:0.6000000000000001"></path><path d="M101.6,416.94v13.29a63.92,63.92,0,0,0,23-7.47C134.18,417.25,139,410,139,402.81v-13.3a16.64,16.64,0,0,0-.59-4.35h0c2.31,8.59-2.26,17.68-13.73,24.31A64.31,64.31,0,0,1,101.6,416.94Z" style="opacity:0.1"></path><path d="M123.18,417.93a7.58,7.58,0,0,1,3.4-5.94,2.41,2.41,0,0,1,2.41-.26h0l16.45,9.38h0a2.42,2.42,0,0,1,1,2.21,7.55,7.55,0,0,1-3.4,5.94,2.39,2.39,0,0,1-2.42.25h0l-16.45-9.38h0A2.43,2.43,0,0,1,123.18,417.93Z" style="fill:#37474f"></path><path d="M124.2,420.15a2.43,2.43,0,0,1-1-2.22,6.54,6.54,0,0,1,.58-2.56L145,427.5a6.54,6.54,0,0,1-1.91,1.78,2.39,2.39,0,0,1-2.42.25l-16.45-9.38Z" style="fill:#263238"></path><path d="M140.29,429.24a9.84,9.84,0,0,1,4.43-7.74,3.14,3.14,0,0,1,3.1-.34h0l.05,0h0l42.74,22.39L182.47,458l-40.85-25.84A3.14,3.14,0,0,1,140.29,429.24Z" style="fill:#BA68C8"></path><path d="M182.47,458l-40.85-25.84a3.14,3.14,0,0,1-1.33-2.88,9.39,9.39,0,0,1,1.48-4.7l44.89,26Z" style="opacity:0.1"></path><path d="M186.58,457.53a12.91,12.91,0,0,0,5.8-10.15c0-3.73-2.63-5.23-5.85-3.35a12.93,12.93,0,0,0-5.81,10.14C180.74,457.9,183.36,459.4,186.58,457.53Z" style="fill:#BA68C8"></path><g style="opacity:0.2"><path d="M186.58,457.53a12.91,12.91,0,0,0,5.8-10.15c0-3.73-2.63-5.23-5.85-3.35a12.93,12.93,0,0,0-5.81,10.14C180.74,457.9,183.36,459.4,186.58,457.53Z"></path></g></g></g><g id="freepik--Pencil--inject-3"><g id="freepik--pencil--inject-3"><path d="M440.48,385.3l22.24-4.36a.69.69,0,0,1,.65,1.14l-15.09,17.08Z" style="fill:#ffa8a7"></path><path d="M463.37,382.08a.69.69,0,0,0-.65-1.14l-4.34.85h0a3.83,3.83,0,0,1,1.79,3.55l0,.39Z" style="fill:#263238"></path><path d="M365.36,446.72l1.82-1.05,2.2-1.25,78.9-45.26a10.14,10.14,0,0,0-.62-7.37c-1.57-3.53-4.64-6.32-7.17-6.48l-78.86,45.23-4.2,2.41C360.24,431.54,368.15,445.27,365.36,446.72Z" style="fill:#455a64"></path><path d="M372.3,442.77l4.06-2.34c1.19-.64.51-3.58-.9-6.63-1.85-4.05-5.5-8-7.09-7.13l-3,1.72-1.06.64c1.6-.85,5.25,3.07,7.1,7.12,1.34,2.92,2,5.76,1,6.53h0A.27.27,0,0,1,372.3,442.77Z" style="fill:#ebebeb"></path><path d="M373.3,442.17c2.79-1.47-5.19-15.22-8-13.74l-4.07,2.33c2.79-1.48,10.77,12.26,8,13.74Z" style="fill:#BA68C8"></path><path d="M365.36,446.72l4-2.3c2.74-1.43-4.85-14.76-7.75-13.88l-.17.06-4,2.35C360.24,431.54,368.15,445.27,365.36,446.72Z" style="fill:#ebebeb"></path><path d="M463.47,381.33l-.75-.39-16.14,8.83-83.43,47.88c-.16-.25-.29-.27-.39-.1,2.37,3.7,4.16,8.35,2.6,9.17l1.82-1.05,2.2-1.25,78.9-45.26h0l15.09-17.08A.68.68,0,0,0,463.47,381.33Z" style="opacity:0.15"></path><path d="M348.31,456.47l17.05-9.75c1.19-.62.53-3.54-.85-6.57-1.84-4.06-5.47-8-7.08-7.2h0l-17.1,9.8c-3.39,2-.27,9.33,3.52,12.63C345.24,456.62,346.81,457.17,348.31,456.47Z" style="fill:#f28f8f"></path><path d="M349.33,451.18c-1-3.84-4.09-7.61-7-8.41a2.77,2.77,0,0,0-2.55.34c-2.56,2.38.42,9.15,4,12.27,1.38,1.22,2.92,1.76,4.39,1.12C349.5,455.75,350,453.79,349.33,451.18Z" style="opacity:0.1"></path></g></g><g id="freepik--Padlock--inject-3"><g id="freepik--Lock--inject-3"><path d="M251.61,387.64l-14-8.08c-3.86-2.23-6-5.36-6-8.82s2.13-6.59,6-8.82c7-4.06,18-4.07,25,0l13.95,8-2.75,4.76-13.95-8c-5.27-3-14.21-3-19.51,0-2.07,1.19-3.25,2.67-3.25,4.06s1.18,2.87,3.25,4.06l14,8.07Z" style="fill:#455a64"></path><path d="M329.94,387.64a22,22,0,0,0-8.46-7.76,44.16,44.16,0,0,0-11.87-4.64,34.49,34.49,0,0,1-7.86-3.22c-5.87-3.4-7.1-6.95-7.1-6.95l-13-2.23c-5.81,5.94-16.56,7.75-26,7.33.73,5.44-2.42,11.64-12.7,15v9l3.86,7.53a35,35,0,0,1,12,4.1,20.32,20.32,0,0,1,5.58,4.54,24.68,24.68,0,0,0,8,6.85,41.5,41.5,0,0,0,13.45,4.88c9.41,1.83,22.48,1.43,40.39-2.1,3.8-6.43,5.51-11.78,5.49-16.21,0-1.5,0-7.41,0-8.87A14,14,0,0,0,329.94,387.64Z" style="fill:#BA68C8"></path><path d="M329.94,387.64a22,22,0,0,0-8.46-7.76,44.16,44.16,0,0,0-11.87-4.64,34.49,34.49,0,0,1-7.86-3.22c-5.87-3.4-7.1-6.95-7.1-6.95l-13-2.23c-5.81,5.94-16.56,7.75-26,7.33.73,5.44-2.42,11.64-12.7,15v9l3.86,7.53a35,35,0,0,1,12,4.1,20.32,20.32,0,0,1,5.58,4.54,24.68,24.68,0,0,0,8,6.85,41.5,41.5,0,0,0,13.45,4.88c9.41,1.83,22.48,1.43,40.39-2.1,3.8-6.43,5.51-11.78,5.49-16.21,0-1.5,0-7.41,0-8.87A14,14,0,0,0,329.94,387.64Z" style="fill:#fff;opacity:0.4"></path><g id="freepik--Shield--inject-3"><path d="M326.29,411c-17.91,3.54-31,3.94-40.39,2.11a41.9,41.9,0,0,1-13.46-4.88,24.84,24.84,0,0,1-8-6.86,20.49,20.49,0,0,0-5.58-4.53,34.79,34.79,0,0,0-12-4.1l-3.86-7.53c10.28-3.36,13.43-9.56,12.7-15,9.41.42,20.16-1.39,26-7.33l13,2.23s1.23,3.55,7.1,6.95a34.49,34.49,0,0,0,7.86,3.22,44.16,44.16,0,0,1,11.87,4.64,22,22,0,0,1,8.46,7.76C333.11,393.08,332.41,400.62,326.29,411Z" style="fill:#BA68C8"></path><path d="M326.29,411c-17.91,3.54-31,3.94-40.39,2.11a41.9,41.9,0,0,1-13.46-4.88,24.84,24.84,0,0,1-8-6.86,20.49,20.49,0,0,0-5.58-4.53,34.79,34.79,0,0,0-12-4.1l-3.86-7.53c10.28-3.36,13.43-9.56,12.7-15,9.41.42,20.16-1.39,26-7.33l13,2.23s1.23,3.55,7.1,6.95a34.49,34.49,0,0,0,7.86,3.22,44.16,44.16,0,0,1,11.87,4.64,22,22,0,0,1,8.46,7.76C333.11,393.08,332.41,400.62,326.29,411Z" style="fill:#fff;opacity:0.75"></path><path d="M298.3,409.71a61,61,0,0,1-11.56-1,37.18,37.18,0,0,1-12.08-4.37,19.65,19.65,0,0,1-6.32-5.21l-.57-.68A24.61,24.61,0,0,0,261,393a39.42,39.42,0,0,0-11.3-4.25l-.66-1.28c7.44-3.7,10-8.84,10.77-12.81,6.38-.17,16.25-1.44,23.14-7.06l8.84,1.51a23.19,23.19,0,0,0,7.71,6.77,38,38,0,0,0,8.86,3.64l1.13.32a37.07,37.07,0,0,1,9.74,3.9c3.39,2,5.5,3.86,6.84,6.16,2.31,3.95,1.41,9.71-2.66,17.13A139.2,139.2,0,0,1,298.3,409.71Z" style="fill:#BA68C8"></path><path d="M298.3,409.71a61,61,0,0,1-11.56-1,37.18,37.18,0,0,1-12.08-4.37,19.65,19.65,0,0,1-6.32-5.21l-.57-.68A24.61,24.61,0,0,0,261,393a39.42,39.42,0,0,0-11.3-4.25l-.66-1.28c7.44-3.7,10-8.84,10.77-12.81,6.38-.17,16.25-1.44,23.14-7.06l8.84,1.51a23.19,23.19,0,0,0,7.71,6.77,38,38,0,0,0,8.86,3.64l1.13.32a37.07,37.07,0,0,1,9.74,3.9c3.39,2,5.5,3.86,6.84,6.16,2.31,3.95,1.41,9.71-2.66,17.13A139.2,139.2,0,0,1,298.3,409.71Z" style="fill:#BA68C8;opacity:0.15"></path><path d="M298.3,409.71a61,61,0,0,1-11.56-1,37.18,37.18,0,0,1-12.08-4.37,19.65,19.65,0,0,1-6.32-5.21l-.57-.68A24.61,24.61,0,0,0,261,393a39.42,39.42,0,0,0-11.3-4.25l-.66-1.28c7.44-3.7,10-8.84,10.77-12.81,6.38-.17,16.25-1.44,23.14-7.06l8.84,1.51a23.19,23.19,0,0,0,7.71,6.77,38,38,0,0,0,8.86,3.64l1.13.32a37.07,37.07,0,0,1,9.74,3.9c3.39,2,5.5,3.86,6.84,6.16,2.31,3.95,1.41,9.71-2.66,17.13A139.2,139.2,0,0,1,298.3,409.71Z" style="fill:#fff;opacity:0.4"></path><path d="M267.77,398.46l.57.68a19.65,19.65,0,0,0,6.32,5.21,37.18,37.18,0,0,0,12.08,4.37,61,61,0,0,0,11.56,1A139.2,139.2,0,0,0,323.45,407a30.56,30.56,0,0,0,3.75-10.09,9.12,9.12,0,0,0-1.09-3.08c-1.34-2.3-3.45-4.21-6.84-6.16a37.42,37.42,0,0,0-9.74-3.9l-1.13-.32a38,38,0,0,1-8.86-3.64,23.19,23.19,0,0,1-7.71-6.77L283,371.53c-6.89,5.62-16.76,6.89-23.14,7.07a17,17,0,0,1-7.39,10.8A37.64,37.64,0,0,1,261,393,24.61,24.61,0,0,1,267.77,398.46Z" style="fill:#BA68C8"></path></g><path d="M311.29,396.32,300,402.83l-15-10.7a15.4,15.4,0,0,1-7.63-1.86c-3.88-2.24-4.31-5.64-.94-7.58s9.25-1.7,13.14.54c2.18,1.26,3.27,2.88,3.22,4.41Z" style="fill:#BA68C8"></path><path d="M311.29,396.32,300,402.83l-15-10.7a15.4,15.4,0,0,1-7.63-1.86c-3.88-2.24-4.31-5.64-.94-7.58s9.25-1.7,13.14.54c2.18,1.26,3.27,2.88,3.22,4.41Z" style="opacity:0.25"></path><polygon points="282.99 367.57 282.99 371.53 291.83 373.04 291.83 369.08 282.99 367.57" style="fill:#BA68C8;opacity:0.5"></polygon><path d="M259.85,374.63v4a17.07,17.07,0,0,1-7.39,10.8c-1-.29-2-.51-2.72-.68l-.65-1.28C256.52,383.74,259.08,378.6,259.85,374.63Z" style="fill:#BA68C8;opacity:0.5"></path><polygon points="300.02 402.83 311.29 396.32 292.75 387.64 292.75 397.66 300.02 402.83" style="opacity:0.25"></polygon><polygon points="246.8 392.7 246.8 401.7 242.94 394.17 242.94 385.17 246.8 392.7" style="fill:#BA68C8"></polygon><polygon points="246.8 392.7 246.8 401.7 242.94 394.17 242.94 385.17 246.8 392.7" style="fill:#fff;opacity:0.55"></polygon><path d="M331.78,403.76c0,4.43-1.68,9.78-5.5,16.2v-9c3.67-6.2,5.4-11.4,5.5-15.74C331.77,397.09,331.78,402.35,331.78,403.76Z" style="fill:#BA68C8"></path><path d="M331.78,403.76c0,4.43-1.68,9.78-5.5,16.2v-9c3.67-6.2,5.4-11.4,5.5-15.74C331.77,397.09,331.78,402.35,331.78,403.76Z" style="fill:#fff;opacity:0.55"></path></g></g><g id="freepik--Symbol--inject-3"><g id="freepik--symbol--inject-3"><path d="M414.15,209.54c-2.28-7.92-7.38-12.72-14.17-13.77l0,0c-5.49-.86-12.09.74-19.21,5.11-19.32,11.91-35.1,39.82-35.24,62.36-.05,8.06,1.9,14.32,5.31,18.53,3.94,4.85,9.82,6.92,16.82,5.77-6.27,3.27-12.19,4.85-17.52,4.91l-1.7,2.92L337.28,289l0,0c-7.51-4.83-12.12-14.47-12.12-28,0-28.14,19.92-62.36,44.49-76.43,11.81-6.77,22.55-7.66,30.53-3.62l11.13,6.38-1.7,2.92C412.47,195.19,414.1,201.7,414.15,209.54Z" style="fill:#BA68C8"></path><path d="M414.15,209.54c-2.28-7.92-7.38-12.72-14.17-13.77l0,0c-5.49-.86-12.09.74-19.21,5.11-19.32,11.91-35.1,39.82-35.24,62.36-.05,8.06,1.9,14.32,5.31,18.53,3.94,4.85,9.82,6.92,16.82,5.77-6.27,3.27-12.19,4.85-17.52,4.91l-1.7,2.92L337.28,289l0,0c-7.51-4.83-12.12-14.47-12.12-28,0-28.14,19.92-62.36,44.49-76.43,11.81-6.77,22.55-7.66,30.53-3.62l11.13,6.38-1.7,2.92C412.47,195.19,414.1,201.7,414.15,209.54Z" style="opacity:0.25"></path><path d="M367.64,287.52c-6.27,3.27-12.19,4.85-17.52,4.91l-1.7,2.92L337.28,289l0,0c-7.51-4.83-12.12-14.47-12.12-28,0-14.07,5-29.66,13-43.5l17.93,10.27c-6.5,11.37-10.55,24.13-10.63,35.51-.05,8.06,1.9,14.32,5.31,18.53C354.76,286.6,360.64,288.67,367.64,287.52Z" style="opacity:0.1"></path><path d="M367.64,287.52c-6.27,3.27-12.19,4.85-17.52,4.91l-1.7,2.92L337.28,289l0,0c-7.51-4.83-12.12-14.47-12.12-28a67.89,67.89,0,0,1,.95-11.05L345.57,261c0,.75-.06,1.48-.06,2.21-.05,8.06,1.9,14.32,5.31,18.53C354.76,286.6,360.64,288.67,367.64,287.52Z" style="opacity:0.1"></path><path d="M411.06,187.11c-8-4.45-19-3.71-31.19,3.24a68.33,68.33,0,0,0-8.15,5.52c-.28.22-.55.43-.81.66h0c-.07.06-.14.1-.21.17l-10.2-5.84a68.21,68.21,0,0,1,9.18-6.35c11.81-6.77,22.55-7.66,30.53-3.62Z" style="fill:#BA68C8;opacity:0.5"></path><path d="M422.78,203.25h0c-5.17-18.64-22.42-24.62-42.91-12.89a68.33,68.33,0,0,0-8.15,5.52c-.28.22-.55.43-.81.66h0c-20.27,16.36-35.52,45.63-35.52,70.26,0,28.13,19.92,39.54,44.49,25.47s44.49-48.29,44.49-76.43A47,47,0,0,0,422.78,203.25Zm-42.55,79.23c-12.43,7.65-23.28,6.82-29.41-.73-3.41-4.21-5.36-10.47-5.31-18.53.14-22.54,15.92-50.45,35.24-62.36,7.12-4.37,13.72-6,19.21-5.11l0,0c9.42,1.46,15.59,10.12,15.49,24.34C415.33,242.65,399.55,270.57,380.23,282.48Z" style="fill:#BA68C8"></path><path d="M422.78,203.23c-.13-.37-3.68-12.25-16.12-16.76-11.9-4.32-29.74,5.48-34.94,9.4a68.33,68.33,0,0,1,8.15-5.52C400.36,178.62,417.61,184.6,422.78,203.23Z" style="fill:#f5f5f5;opacity:0.5"></path><path d="M337,279.38c.12.37,3.68,12.25,16.12,16.77,11.9,4.32,29.74-5.49,34.94-9.41a69.14,69.14,0,0,1-8.15,5.52C359.38,304,342.12,298,337,279.38Z" style="fill:#f5f5f5;opacity:0.5"></path><path d="M415.47,220.11c-.14,22.54-15.92,50.46-35.24,62.37-12.43,7.65-23.28,6.82-29.41-.73,5.49.85,12.09-.76,19.2-5.13,19.32-11.91,35.1-39.83,35.25-62.37,0-8-1.89-14.29-5.29-18.48C409.4,197.23,415.57,205.88,415.47,220.11Z" style="fill:#BA68C8"></path><path d="M415.47,220.11c-.14,22.54-15.92,50.46-35.24,62.37-12.43,7.65-23.28,6.82-29.41-.73,5.49.85,12.09-.76,19.2-5.13,19.32-11.91,35.1-39.83,35.25-62.37,0-8-1.89-14.29-5.29-18.48C409.4,197.23,415.57,205.88,415.47,220.11Z" style="opacity:0.30000000000000004"></path><path d="M379.9,194c-22.85,13.08-41.36,44.89-41.36,71.05s18.51,36.76,41.36,23.68,41.36-44.89,41.36-71.05S402.74,180.91,379.9,194Zm.33,88.49c-12.43,7.65-23.28,6.82-29.41-.73-3.41-4.21-5.36-10.47-5.31-18.53.14-22.54,15.92-50.45,35.24-62.36,7.12-4.37,13.72-6,19.21-5.11l0,0c9.42,1.46,15.59,10.12,15.49,24.34C415.33,242.65,399.55,270.57,380.23,282.48Z" style="fill:#BA68C8"></path><path d="M379.9,194c-22.85,13.08-41.36,44.89-41.36,71.05s18.51,36.76,41.36,23.68,41.36-44.89,41.36-71.05S402.74,180.91,379.9,194Zm.33,88.49c-12.43,7.65-23.28,6.82-29.41-.73-3.41-4.21-5.36-10.47-5.31-18.53.14-22.54,15.92-50.45,35.24-62.36,7.12-4.37,13.72-6,19.21-5.11l0,0c9.42,1.46,15.59,10.12,15.49,24.34C415.33,242.65,399.55,270.57,380.23,282.48Z" style="fill:#fff;opacity:0.4"></path><path d="M421.26,217.45c0,1.08,0,2.15-.09,3.25-1.24-2.25-3.06-3.67-5.72-2.56-.5-13.81-7.2-21.91-17.05-22.57,1.32-2.42,1.83-4.92.68-7.18,9.88.27,17.41,6.34,20.57,17a41.07,41.07,0,0,1,1.28,6.41A50,50,0,0,1,421.26,217.45Z" style="fill:#fff;opacity:0.2"></path><path d="M416.89,205a5.39,5.39,0,0,1-3.54,2.17c-2-5.15-5.39-8.7-9.72-10.43a8,8,0,0,1,1.43-5c2.42-3.25,7-2.91,10.29.76S419.3,201.76,416.89,205Z" style="fill:#fff;opacity:0.5"></path><path d="M380.08,288.59a49.35,49.35,0,0,1-5,2.52c-1.14.51-2.26.95-3.37,1.33-16.28,5.59-29.13-1.74-32.38-18.55-.22-1.13-.4-2.32-.54-3.56-.17-1.64-.26-3.34-.27-5.12s.07-3.44.22-5.19c.11-1.39.29-2.82.49-4.23s.47-2.83.78-4.25a82.94,82.94,0,0,1,3.81-12.77c.35-.92.72-1.84,1.1-2.74a98.9,98.9,0,0,1,14.93-24.67c-.09.29-1.56,5,1.83,7.73-9.67,13.2-16.12,29.76-16.21,44.13-.05,8.06,1.9,14.32,5.31,18.53,5.26,6.47,14,8,24.23,3.46A5.79,5.79,0,0,0,380.08,288.59Z" style="fill:#fff;opacity:0.2"></path><polygon points="412.61 197.14 416.06 199.76 412.15 198.01 407.49 204.67 410.98 197.51 407.49 194.85 411.48 196.49 416.06 189.94 412.61 197.14" style="fill:#fff"></polygon><path d="M385.45,245.58A21.88,21.88,0,0,1,379,251.4a9,9,0,0,1-1.56.72,14.81,14.81,0,0,1-.55-4.18c0-7.31,4.31-15.68,9.6-18.73a13.19,13.19,0,0,1,6.57-1.7l4.21-14.06-7.49-4.32c-.29-.23-4.51-2-12.83,2.83-11.07,6.4-21.36,24.61-21.36,39.9,0,7.95,2.88,13.39,7.24,15.81,1.22.67,6.13,3.55,7.42,4.28,3.88,2.19,8.94,2,14.18-1.06a47.07,47.07,0,0,0,12.84-11.72c-1.47-3.33-2.84-5.94-4.31-9.27Z" style="fill:#BA68C8"></path><path d="M393,227.51l4.21-14.06c-.3-.22-4.51-2-12.84,2.84-11.07,6.39-21.35,24.61-21.35,39.89,0,15,10.28,21.1,21.35,14.71a47.07,47.07,0,0,0,12.84-11.72c-1.47-3.33-2.84-5.94-4.31-9.27a21.72,21.72,0,0,1-6.47,5.83c-5.29,3-9.6-.21-9.6-7.79,0-7.31,4.31-15.68,9.6-18.73A13.19,13.19,0,0,1,393,227.51Z" style="fill:#BA68C8"></path><path d="M393,227.51l4.21-14.06c-.3-.22-4.51-2-12.84,2.84-11.07,6.39-21.35,24.61-21.35,39.89,0,15,10.28,21.1,21.35,14.71a47.07,47.07,0,0,0,12.84-11.72c-1.47-3.33-2.84-5.94-4.31-9.27a21.72,21.72,0,0,1-6.47,5.83c-5.29,3-9.6-.21-9.6-7.79,0-7.31,4.31-15.68,9.6-18.73A13.19,13.19,0,0,1,393,227.51Z" style="fill:#fff;opacity:0.30000000000000004"></path><path d="M367.07,268.12c-9.35-14.62,4-43.14,17.34-51.83-11.07,6.39-21.35,24.61-21.35,39.89,0,15,10.28,21.1,21.35,14.71h0C378.56,274,371,274,367.07,268.12Z" style="fill:#fff;opacity:0.30000000000000004"></path></g></g></svg>
