<?xml version="1.0" encoding="UTF-8" standalone="no"?>
<svg
   viewBox="0 0 500 500"
   version="1.1"
   id="svg578"
   sodipodi:docname="121.svg"
   inkscape:version="1.1.2 (0a00cf5339, 2022-02-04)"
   xmlns:inkscape="http://www.inkscape.org/namespaces/inkscape"
   xmlns:sodipodi="http://sodipodi.sourceforge.net/DTD/sodipodi-0.dtd"
   xmlns="http://www.w3.org/2000/svg"
   xmlns:svg="http://www.w3.org/2000/svg">
  <defs
     id="defs582" />
  <sodipodi:namedview
     id="namedview580"
     pagecolor="#ffffff"
     bordercolor="#666666"
     borderopacity="1.0"
     inkscape:pageshadow="2"
     inkscape:pageopacity="0.0"
     inkscape:pagecheckerboard="0"
     showgrid="false"
     inkscape:zoom="1.132"
     inkscape:cx="249.5583"
     inkscape:cy="250.4417"
     inkscape:window-width="1478"
     inkscape:window-height="800"
     inkscape:window-x="0"
     inkscape:window-y="0"
     inkscape:window-maximized="1"
     inkscape:current-layer="svg578" />
  <g
     id="freepik--Device--inject-68">
    <g
       id="freepik--device--inject-68">
      <g
         id="freepik--Mobile--inject-68">
        <path
           d="M178.21,257.19,410.75,391.48c6.92,4,6.85,7.27,6.85,11.34s-1.84,7.29-6.85,10.19L282.37,487.13c-5,2.89-13.14,2.89-18.16,0L31.67,352.84c-5-2.89-6.15-6.31-6.15-10.38s1.14-8.25,6.15-11.15l128.38-74.12A17.09,17.09,0,0,1,178.21,257.19Z"
           style="fill:#37474f"
           id="path2" />
        <path
           d="M171.58,262.8,39.56,339,273.29,473.93V489.3a18.64,18.64,0,0,1-9.08-2.17L31.67,352.84c-5-2.89-6.15-6.31-6.15-10.38s1.14-8.25,6.15-11.15l128.38-74.12a17.37,17.37,0,0,1,11.53-2.42v8Z"
           style="fill:#263238"
           id="path4" />
        <path
           d="M408.42,392.55l-232.08-134a16,16,0,0,0-14.44,0L36.59,330.9c-5.39,3.1-5.4,8.2,0,11.31l230.36,133a14.12,14.12,0,0,0,12.74,0l128.75-74.33C412.39,398.6,412.39,394.85,408.42,392.55Z"
           style="fill:#455a64"
           id="path6" />
        <path
           d="M105,384.86a5.76,5.76,0,0,1,2.67,4.44,1.66,1.66,0,0,1-.74,1.56L105,392a2,2,0,0,1-1.92-.22l-16.39-9.46a5.74,5.74,0,0,1-2.67-4.44,1.7,1.7,0,0,1,.68-1.52c.33-.21,1.59-.94,1.92-1.12a2,2,0,0,1,1.94.21Z"
           style="fill:#455a64"
           id="path8" />
        <path
           d="M103.11,385.94l-16.39-9.46c-1.47-.85-2.67-.25-2.67,1.35a5.74,5.74,0,0,0,2.67,4.44l16.39,9.46c1.47.85,2.67.24,2.67-1.35A5.74,5.74,0,0,0,103.11,385.94Z"
           style="fill:#37474f"
           id="path10" />
        <path
           d="M76.29,368.31A5.73,5.73,0,0,1,79,372.74a1.67,1.67,0,0,1-.74,1.56c-.32.18-1.54.91-1.87,1.09a2,2,0,0,1-1.93-.22l-16.38-9.46a5.7,5.7,0,0,1-2.67-4.43,1.71,1.71,0,0,1,.67-1.53L58,358.63a2,2,0,0,1,1.93.22Z"
           style="fill:#455a64"
           id="path12" />
        <path
           d="M74.43,369.38l-16.38-9.45c-1.48-.86-2.67-.25-2.67,1.35a5.7,5.7,0,0,0,2.67,4.43l16.38,9.46c1.48.85,2.67.25,2.67-1.35A5.73,5.73,0,0,0,74.43,369.38Z"
           style="fill:#37474f"
           id="path14" />
        <path
           d="M182.24,267.65,396.08,391.13c3.8,2.2,3.81,5.77,0,8L279.61,466.34a15.17,15.17,0,0,1-13.76,0L50.18,341.8c-3.08-1.78-3.69-4.47-1.75-6.59l.47-.48a8.87,8.87,0,0,1,1.27-.88l32.77-18.92,2.13-1.23a4.69,4.69,0,0,1,4.27,0,4.86,4.86,0,0,0,4.42-.09l38.19-22c1.25-.73,1.33-1.87.15-2.55s-1.18-1.65-.23-2.34l.22-.13,32-18.5.68-.4C169.62,264.88,177.45,264.88,182.24,267.65Z"
           id="path16" />
        <path
           d="M92.37,306.12,109.88,296a4.07,4.07,0,0,1,3.66-.07c1,.57.93,1.52-.11,2.12L95.92,308.17a4,4,0,0,1-3.66.06C91.28,307.67,91.33,306.72,92.37,306.12Z"
           style="fill:#263238"
           id="path18" />
        <path
           d="M118.14,290.41a4.7,4.7,0,0,1,4.26,0,1.3,1.3,0,0,1,0,2.46,4.7,4.7,0,0,1-4.26,0A1.3,1.3,0,0,1,118.14,290.41Z"
           style="fill:#263238"
           id="path20" />
      </g>
      <path
         d="M279.61,466.35a15.15,15.15,0,0,1-13.75,0L50.18,341.8a7.09,7.09,0,0,1-1.87-1.51l.13-.17c.16-.16.3-.32.47-.48a8.34,8.34,0,0,1,1.27-.88l32.76-18.92s1-.56,2.14-1.23a4.69,4.69,0,0,1,4.27,0,4.89,4.89,0,0,0,4.42-.08l38.18-22a1.7,1.7,0,0,0,1-1.36c0-.44,0-4.15,0-4.15l31.22-18,.68-.39c4.8-2.77,12.63-2.77,17.42,0L396.08,396a6.75,6.75,0,0,1,1.88,1.54,7,7,0,0,1-1.87,1.51Z"
         style="fill:#fafafa"
         id="path23" />
      <path
         d="M198.84,282.14l-16.59-9.58c-4.79-2.77-12.62-2.77-17.42,0l-.68.39-31.22,18s0,3.71,0,4.15a1.7,1.7,0,0,1-1,1.36l-38.18,22a4.89,4.89,0,0,1-4.42.08,4.69,4.69,0,0,0-4.27,0c-1.19.67-2.14,1.23-2.14,1.23L50.18,338.76a8.34,8.34,0,0,0-1.27.88c-.17.16-.31.32-.47.48l-.13.17a7.09,7.09,0,0,0,1.87,1.51l22.66,13.09Z"
         style="fill:#BA68C8"
         id="path25" />
      <path
         d="M198.84,282.14l-16.59-9.58c-4.79-2.77-12.62-2.77-17.42,0l-.68.39-31.22,18s0,3.71,0,4.15a1.7,1.7,0,0,1-1,1.36l-38.18,22a4.89,4.89,0,0,1-4.42.08,4.69,4.69,0,0,0-4.27,0c-1.19.67-2.14,1.23-2.14,1.23L50.18,338.76a8.34,8.34,0,0,0-1.27.88c-.17.16-.31.32-.47.48l-.13.17a7.09,7.09,0,0,0,1.87,1.51l22.66,13.09Z"
         style="fill:#fff;opacity:0.4"
         id="path27" />
      <path
         d="M159.86,283.81a.56.56,0,0,1,0,1.06,2.05,2.05,0,0,1-1.84,0,.56.56,0,0,1,0-1.06A2.05,2.05,0,0,1,159.86,283.81Z"
         style="fill:#fafafa"
         id="path29" />
      <path
         d="M156.52,282.94c-.92.54-1.21,1.3-.85,2a.59.59,0,0,0,.55.2h0c.31,0,.52-.2.43-.37-.26-.48-.06-1,.59-1.39a3.7,3.7,0,0,1,2.41-.34c.3.05.61-.07.64-.25h0c0-.14-.12-.28-.35-.32A5.4,5.4,0,0,0,156.52,282.94Z"
         style="fill:#fafafa"
         id="path31" />
      <path
         d="M155.05,282.1c-1.37.79-1.86,1.9-1.47,2.93,0,.15.29.25.56.23h0c.3,0,.5-.18.43-.35-.32-.84.08-1.75,1.2-2.4a6.85,6.85,0,0,1,4.15-.69c.3,0,.59-.08.62-.25h0c0-.15-.15-.29-.41-.33A8.46,8.46,0,0,0,155.05,282.1Z"
         style="fill:#fafafa"
         id="path33" />
      <polygon
         points="145.09 293.64 143.82 292.91 145.51 291.94 146.77 292.67 145.09 293.64"
         style="fill:#fafafa"
         id="polygon35" />
      <polygon
         points="147.62 292.18 145.09 290.72 146.77 289.75 149.3 291.21 147.62 292.18"
         style="fill:#fafafa"
         id="polygon37" />
      <polygon
         points="150.15 290.72 146.35 288.53 148.04 287.55 151.83 289.75 150.15 290.72"
         style="fill:#fafafa"
         id="polygon39" />
      <polygon
         points="152.68 289.26 147.62 286.34 149.3 285.36 154.36 288.28 152.68 289.26"
         style="fill:#fafafa"
         id="polygon41" />
      <path
         d="M169.32,275a1.82,1.82,0,0,0-1,.15L162,278.73c-.41.24-.3.67.24,1l2.3,1.33a2.77,2.77,0,0,0,1.11.33,2.73,2.73,0,0,0,.5,0,1.35,1.35,0,0,0,.5-.14l6.31-3.64c.4-.23.3-.66-.25-1l-2.3-1.32A2.68,2.68,0,0,0,169.32,275Zm-3.71,6.18a1.28,1.28,0,0,1-.47-.15l-2.3-1.33c-.4-.23-.49-.58-.18-.75l6.31-3.63a.67.67,0,0,1,.25-.08h.16a1.27,1.27,0,0,1,.48.15l2.3,1.33c.4.23.48.57.18.75L166,281.05A.64.64,0,0,1,165.61,281.13Z"
         style="fill:#fafafa"
         id="path43" />
      <path
         d="M164.25,278.44,167,280l-1,.57a.46.46,0,0,1-.34,0l-2-1.17c-.29-.16-.35-.42-.14-.55Z"
         style="fill:#fafafa"
         id="path45" />
      <polygon
         points="164.72 278.18 165.9 277.5 168.62 279.07 167.43 279.75 164.72 278.18"
         style="fill:#fafafa"
         id="polygon47" />
      <polygon
         points="166.36 277.24 167.54 276.55 170.27 278.13 169.08 278.81 166.36 277.24"
         style="fill:#fafafa"
         id="polygon49" />
      <path
         d="M169.37,275.71l2,1.13c.36.21.28.51-.2.79l-.4.23L168,276.29l.94-.54A.53.53,0,0,1,169.37,275.71Z"
         style="fill:#fafafa"
         id="path51" />
      <path
         d="M170.68,275.15a1.69,1.69,0,0,1,1.17.31l.43.25c.47.27.72.58.56.69l-.3.19-2.17-1.26Z"
         style="fill:#fafafa"
         id="path53" />
      <polygon
         points="78.08 328.97 82.97 324.72 85.55 328.39 82.16 327.47 78.08 328.97"
         style="fill:#fafafa"
         id="polygon55" />
      <path
         d="M57.93,340a.47.47,0,0,1-.19-.06.11.11,0,0,1-.05-.12l.33-1.63a.56.56,0,0,1,0-.12.17.17,0,0,1,.09-.1l.57-.32a.36.36,0,0,1,.19-.05.39.39,0,0,1,.2.05l4.69,2.7c.05,0,.08.07.08.12a.14.14,0,0,1-.08.11l-.59.34a.38.38,0,0,1-.19,0,.39.39,0,0,1-.2,0l-3.59-2.07L59,339.9a.19.19,0,0,1-.11.11.58.58,0,0,1-.21,0Z"
         style="fill:#fafafa"
         id="path57" />
      <path
         d="M65.63,335.83l.31.18.34.19.34.2a2,2,0,0,1,.3.18,3.37,3.37,0,0,1,.66.52,1,1,0,0,1,.29.56.81.81,0,0,1-.19.58,2.28,2.28,0,0,1-.74.6,4.21,4.21,0,0,1-1,.44,3.89,3.89,0,0,1-1,.1,3.46,3.46,0,0,1-1-.17,5.06,5.06,0,0,1-.9-.38c-.2-.1-.41-.21-.65-.35l-.61-.37a3.39,3.39,0,0,1-.66-.53.94.94,0,0,1-.3-.56.85.85,0,0,1,.16-.59,2.36,2.36,0,0,1,.75-.61,4.33,4.33,0,0,1,1-.43,3.54,3.54,0,0,1,1-.1,3.46,3.46,0,0,1,1,.17A5.43,5.43,0,0,1,65.63,335.83ZM64,338.25a2.9,2.9,0,0,0,1.06.32,1.67,1.67,0,0,0,1-.25c.34-.2.48-.39.43-.58s-.23-.4-.55-.62l-.6-.36-.62-.34a3,3,0,0,0-1.06-.32,1.64,1.64,0,0,0-1,.25c-.34.19-.49.39-.44.58a1.18,1.18,0,0,0,.56.61,6.11,6.11,0,0,0,.59.36Z"
         style="fill:#fafafa"
         id="path59" />
      <path
         d="M66.91,334.56a.52.52,0,0,1,.4,0L68,335a.12.12,0,0,1,0,.23l-.68.39a.38.38,0,0,1-.19.05.39.39,0,0,1-.2-.05l-.71-.41a.12.12,0,0,1,0-.23ZM69.46,336a.36.36,0,0,1,.19,0,.42.42,0,0,1,.2,0l.71.41a.12.12,0,0,1,0,.23l-.68.39a.36.36,0,0,1-.19,0,.42.42,0,0,1-.2,0l-.71-.41a.12.12,0,0,1,0-.23Z"
         style="fill:#fafafa"
         id="path61" />
      <path
         d="M68,334.2a.42.42,0,0,1-.18-.06s-.07-.08-.06-.12l.34-1.63,0-.12a.31.31,0,0,1,.1-.1l.56-.32a.42.42,0,0,1,.4,0l4.69,2.71s.08.06.08.11a.14.14,0,0,1-.08.11l-.59.34a.42.42,0,0,1-.2.05.38.38,0,0,1-.19-.05l-3.59-2.07L69,334.11a.15.15,0,0,1-.1.11.66.66,0,0,1-.21,0Z"
         style="fill:#fafafa"
         id="path63" />
      <path
         d="M70.36,331.14a.12.12,0,0,1-.08-.11s0-.08.08-.11l2.73-1.58a.36.36,0,0,1,.19,0,.39.39,0,0,1,.2,0l.51.3a.12.12,0,0,1,.08.11c0,.05,0,.08-.08.11L72,331l.85.58a1.31,1.31,0,0,1,.3-.27,3.35,3.35,0,0,1,.3-.19,3.88,3.88,0,0,1,.86-.38,4.32,4.32,0,0,1,.93-.16,4,4,0,0,1,.92.07A3,3,0,0,1,77,331a1.79,1.79,0,0,1,.64.54.76.76,0,0,1,.14.55,1,1,0,0,1-.29.53,3.05,3.05,0,0,1-.64.48,4.13,4.13,0,0,1-1,.43,3.92,3.92,0,0,1-.91.17,3.64,3.64,0,0,1-.82-.06,2.65,2.65,0,0,1-.67-.24c-.06,0-.09-.07-.09-.11a.16.16,0,0,1,.09-.11l.59-.34a.32.32,0,0,1,.18-.05.47.47,0,0,1,.2,0,1.24,1.24,0,0,0,.41.08,1.29,1.29,0,0,0,.39,0,1.65,1.65,0,0,0,.36-.11l.34-.17c.27-.16.42-.33.44-.52s-.1-.35-.36-.5a1.55,1.55,0,0,0-.8-.17,2,2,0,0,0-.89.26,1.71,1.71,0,0,0-.32.22.83.83,0,0,0-.13.16.54.54,0,0,1-.07.13.3.3,0,0,1-.13.11l-.67.39a.38.38,0,0,1-.19.05.39.39,0,0,1-.2-.05Z"
         style="fill:#fafafa"
         id="path65" />
      <path
         d="M122,321.39,76.83,347.46a6.61,6.61,0,0,1-6-.25h0c-1.77-1-2-2.55-.43-3.44L115.6,317.7a6.63,6.63,0,0,1,6,.25h0C123.32,319,123.52,320.51,122,321.39Z"
         style="fill:#fafafa"
         id="path67" />
      <path
         d="M170.06,294.85l-1.14.66c-2,1.17-5.57,1-7.91-.33h0c-2.35-1.36-2.6-3.4-.57-4.57l1.13-.66c2-1.17,5.58-1,7.92.33h0C171.84,291.63,172.09,293.68,170.06,294.85Z"
         style="fill:#fafafa"
         id="path69" />
      <path
         d="M169.51,292.29h-2a1.89,1.89,0,0,0-.82-.85,5,5,0,0,0-4.48,0,1.36,1.36,0,0,0,0,2.58,4.92,4.92,0,0,0,4.48,0,1.76,1.76,0,0,0,.87-1h1.95a.91.91,0,0,0,.45-.11.32.32,0,0,0,.19-.26C170.15,292.45,169.86,292.29,169.51,292.29Zm-3.73,1.21a3,3,0,0,1-2.66,0c-.74-.42-.74-1.11,0-1.54a3,3,0,0,1,2.66,0A.82.82,0,0,1,165.78,293.5Z"
         style="fill:#BA68C8"
         id="path71" />
      <path
         d="M183.8,286.92l-1.14.65c-2,1.17-5.57,1-7.91-.33h0c-2.35-1.35-2.6-3.4-.57-4.57l1.14-.65c2-1.18,5.57-1,7.91.32h0C185.58,283.7,185.83,285.74,183.8,286.92Z"
         style="fill:#fafafa"
         id="path73" />
      <path
         d="M176.2,283.18c-1.61.94-1.77,2.36-.34,3.19a5.74,5.74,0,0,0,3.77.42l.87.78.5-1.23.37-.17c1.61-.94,1.77-2.36.34-3.19A6.14,6.14,0,0,0,176.2,283.18Z"
         style="fill:#BA68C8"
         id="path75" />
      <path
         d="M103.49,351c3.22,1.85,3.22,4.87,0,6.73a12.92,12.92,0,0,1-11.65,0c-3.22-1.86-3.22-4.88,0-6.73A12.86,12.86,0,0,1,103.49,351Z"
         style="fill:#BA68C8"
         id="path77" />
      <path
         d="M98.26,352c1.27.73,1.27,1.92,0,2.65a5.06,5.06,0,0,1-4.58,0,1.4,1.4,0,0,1,0-2.65A5.06,5.06,0,0,1,98.26,352Z"
         style="fill:#fff"
         id="path79" />
      <path
         d="M103.23,353.71c.34,1-.18,2.13-1.56,2.93a8.71,8.71,0,0,1-5.06.9c-.29-.57,0-1.19.72-1.63l3.09-1.78A4.4,4.4,0,0,1,103.23,353.71Z"
         style="fill:#fff"
         id="path81" />
      <path
         d="M163.35,389.59c3.22,1.86,3.22,4.87,0,6.73a12.86,12.86,0,0,1-11.65,0c-3.22-1.86-3.22-4.87,0-6.73A12.92,12.92,0,0,1,163.35,389.59Z"
         style="fill:#455a64"
         id="path83" />
      <path
         d="M158.13,390.66a1.39,1.39,0,0,1,0,2.64,5.08,5.08,0,0,1-4.59,0,1.39,1.39,0,0,1,0-2.64A5.08,5.08,0,0,1,158.13,390.66Z"
         style="fill:#fff"
         id="path85" />
      <path
         d="M163.1,392.35c.33,1-.18,2.13-1.56,2.92a8.59,8.59,0,0,1-5.07.9c-.29-.56,0-1.18.73-1.62l3.08-1.78A4.38,4.38,0,0,1,163.1,392.35Z"
         style="fill:#fff"
         id="path87" />
      <path
         d="M111.83,349.16c.5.28.5.74,0,1a2,2,0,0,1-1.79,0c-.49-.29-.49-.75,0-1A2,2,0,0,1,111.83,349.16Z"
         style="fill:#e0e0e0"
         id="path89" />
      <path
         d="M116.26,346.6a.54.54,0,0,1,0,1,2,2,0,0,1-1.79,0,.54.54,0,0,1,0-1A2,2,0,0,1,116.26,346.6Z"
         style="fill:#e0e0e0"
         id="path91" />
      <path
         d="M120.7,344c.49.29.49.75,0,1a2,2,0,0,1-1.8,0c-.49-.28-.49-.74,0-1A2,2,0,0,1,120.7,344Z"
         style="fill:#e0e0e0"
         id="path93" />
      <path
         d="M225,301.88l-35.86,20.7L181.27,318l35.86-20.7a.28.28,0,0,0,0-.53,1,1,0,0,0-.91,0l-118,68.12a.28.28,0,0,0,0,.53,1,1,0,0,0,.91,0L135,344.75l7.86,4.54L107,370a.28.28,0,0,0,0,.53,1,1,0,0,0,.91,0l118-68.12c.26-.14.26-.38,0-.52A1,1,0,0,0,225,301.88ZM188.22,323.1l-44.45,25.66-7.86-4.53,44.45-25.66Z"
         style="fill:#e0e0e0"
         id="path95" />
      <path
         d="M260.18,322.19l-118,68.12a.28.28,0,0,0,0,.53,1,1,0,0,0,.9,0l118-68.12a.28.28,0,0,0,0-.53A1,1,0,0,0,260.18,322.19Z"
         style="fill:#e0e0e0"
         id="path97" />
      <path
         d="M113,364.06l-3.87,2.24a1.21,1.21,0,0,1-1.06-.05l-2.68-1.54c-.32-.19-.35-.46-.08-.62l3.87-2.23a1.17,1.17,0,0,1,1.06,0l2.68,1.55C113.26,363.63,113.29,363.91,113,364.06Z"
         style="fill:#BA68C8"
         id="path99" />
      <path
         d="M115.32,362.61l-1.32.44a.72.72,0,0,1-.56-.05L111,361.62c-.14-.09-.17-.22-.07-.33l.77-.76a.7.7,0,0,1,.73-.06l3,1.71C115.64,362.31,115.59,362.52,115.32,362.61Z"
         style="fill:#BA68C8"
         id="path101" />
      <path
         d="M133.35,351.11l-14.22,8.21a1.78,1.78,0,0,1-1.6-.06h0c-.47-.28-.53-.69-.12-.93l14.22-8.21a1.78,1.78,0,0,1,1.6.07h0C133.71,350.46,133.76,350.88,133.35,351.11Z"
         style="fill:#e0e0e0"
         id="path103" />
      <path
         d="M195.78,311.91,192,314.1c-.3.17-.3.45,0,.61l2.75,1.6a1.22,1.22,0,0,0,1.07,0l3.79-2.19c.29-.17.28-.44,0-.61l-2.76-1.6A1.21,1.21,0,0,0,195.78,311.91Zm1.22,1.67-1,1.49c-.05.09-.25.11-.37.05l-1.61-.94c-.12-.06-.08-.17.08-.21l2.58-.56C196.9,313.37,197.08,313.47,197,313.58Z"
         style="fill:#BA68C8"
         id="path105" />
      <path
         d="M216.7,303l-14.22,8.21a1.75,1.75,0,0,1-1.6-.07h0c-.48-.27-.53-.68-.12-.92L215,302a1.75,1.75,0,0,1,1.6.07h0C217.05,302.38,217.11,302.79,216.7,303Z"
         style="fill:#e0e0e0"
         id="path107" />
      <path
         d="M175.33,326.88l-14.22,8.21a1.81,1.81,0,0,1-1.6-.07h0c-.48-.27-.53-.69-.12-.92l14.22-8.21a1.78,1.78,0,0,1,1.6.06h0C175.68,326.23,175.74,326.64,175.33,326.88Z"
         style="fill:#e0e0e0"
         id="path109" />
      <path
         d="M157.69,339l-4.56,2.63a1.89,1.89,0,0,1-1.73,0l-3.31-1.91a.53.53,0,0,1,0-1l4.55-2.63a1.91,1.91,0,0,1,1.74,0l3.31,1.91C158.17,338.26,158.17,338.71,157.69,339Zm-9.15,0a.25.25,0,0,0,0,.48l3.31,1.91a.93.93,0,0,0,.83,0l4.56-2.63a.26.26,0,0,0,0-.48l-3.31-1.91a.91.91,0,0,0-.82,0Z"
         style="fill:#BA68C8"
         id="path111" />
      <path
         d="M152.24,342.37l-.37.34a1.37,1.37,0,0,1-1.26.15l-3.94-1.45c-.42-.15-.55-.48-.28-.72l.82-.73.2.13,3.31,1.91A3,3,0,0,0,152.24,342.37Z"
         style="fill:#BA68C8"
         id="path113" />
      <polygon
         points="152.18 340.61 155.95 338.43 154.88 337.81 152.59 337.73 152.71 338.94 153.61 339.03 151.56 339.13 151.12 339.99 152.18 340.61"
         style="fill:#BA68C8"
         id="polygon115" />
      <path
         d="M151.35,338.45a.23.23,0,0,1,0,.44.85.85,0,0,1-.76,0,.23.23,0,0,1,0-.44A.85.85,0,0,1,151.35,338.45Z"
         style="fill:#BA68C8"
         id="path117" />
      <path
         d="M153.83,378.88l-13.13,7.59a7.29,7.29,0,0,1-6.54-.28l-18.55-10.7c-1.94-1.12-2.15-2.81-.47-3.78l13.14-7.58a7.23,7.23,0,0,1,6.53.27l18.55,10.71C155.3,376.22,155.51,377.91,153.83,378.88Z"
         style="fill:#e0e0e0"
         id="path119" />
      <path
         d="M131.27,381.35l5.88,3.4a1.19,1.19,0,0,0,1.07,0l12.69-7.32a.33.33,0,0,0,0-.62l-5-2.9-6.34-.16-.6,4.72-1-1.91-6.51,0Z"
         style="fill:#fafafa"
         id="path121" />
      <path
         d="M132.24,372a4.11,4.11,0,0,0,3.71,0,1.13,1.13,0,0,0,0-2.14,4.11,4.11,0,0,0-3.71,0A1.13,1.13,0,0,0,132.24,372Z"
         style="fill:#fafafa"
         id="path123" />
      <path
         d="M126.16,371.56c1.64.95,1.64,2.48,0,3.42a6.53,6.53,0,0,1-5.93,0c-1.63-.94-1.63-2.47,0-3.42A6.59,6.59,0,0,1,126.16,371.56Z"
         style="fill:#BA68C8"
         id="path125" />
      <polygon
         points="124.43 372.21 123.2 372.92 121.96 372.21 121.35 372.56 122.58 373.27 121.35 373.99 121.96 374.34 123.2 373.63 124.43 374.34 125.05 373.99 123.81 373.27 125.05 372.56 124.43 372.21"
         style="fill:#fff"
         id="polygon127" />
      <path
         d="M178.6,364.58l-13.14,7.59a7.29,7.29,0,0,1-6.54-.27l-18.54-10.71c-1.94-1.12-2.15-2.81-.47-3.78L153,349.83a7.25,7.25,0,0,1,6.54.27l18.55,10.71C180.06,361.93,180.27,363.62,178.6,364.58Z"
         style="fill:#e0e0e0"
         id="path129" />
      <path
         d="M156,367.06l5.89,3.39a1.19,1.19,0,0,0,1.07,0l12.69-7.32a.33.33,0,0,0,0-.62l-5-2.9-6.34-.16-.59,4.72-1-1.91-6.5,0Z"
         style="fill:#fafafa"
         id="path131" />
      <path
         d="M157,357.7a4,4,0,0,0,3.7,0,1.12,1.12,0,0,0,0-2.13,4.09,4.09,0,0,0-3.7,0A1.12,1.12,0,0,0,157,357.7Z"
         style="fill:#fafafa"
         id="path133" />
      <ellipse
         cx="147.96"
         cy="358.97"
         rx="4.19"
         ry="2.42"
         style="fill:#455a64"
         id="ellipse135" />
      <ellipse
         cx="147.1"
         cy="358.48"
         rx="1.65"
         ry="0.95"
         style="fill:#fff"
         id="ellipse137" />
      <path
         d="M150.8,358.67c.17.51-.1,1.08-.8,1.48a4.33,4.33,0,0,1-2.57.46c-.15-.29,0-.6.37-.83l1.57-.9A2.21,2.21,0,0,1,150.8,358.67Z"
         style="fill:#fff"
         id="path139" />
      <path
         d="M203.36,350.29l-13.13,7.58a7.25,7.25,0,0,1-6.54-.27l-18.55-10.71c-1.93-1.12-2.14-2.81-.47-3.78l13.14-7.58a7.25,7.25,0,0,1,6.54.27l18.54,10.71C204.83,347.63,205,349.32,203.36,350.29Z"
         style="fill:#e0e0e0"
         id="path141" />
      <path
         d="M180.8,352.76l5.88,3.39a1.19,1.19,0,0,0,1.07,0l12.69-7.32a.33.33,0,0,0,0-.62l-5-2.89-6.34-.17-.59,4.72-1-1.91L181,348Z"
         style="fill:#fafafa"
         id="path143" />
      <path
         d="M181.77,343.41a4.11,4.11,0,0,0,3.71,0,1.13,1.13,0,0,0,0-2.14,4.09,4.09,0,0,0-3.7,0A1.13,1.13,0,0,0,181.77,343.41Z"
         style="fill:#fafafa"
         id="path145" />
      <ellipse
         cx="172.73"
         cy="344.68"
         rx="4.19"
         ry="2.42"
         style="fill:#BA68C8"
         id="ellipse147" />
      <ellipse
         cx="172.73"
         cy="344.68"
         rx="4.19"
         ry="2.42"
         style="fill:#fff;opacity:0.4"
         id="ellipse149" />
      <path
         d="M173,343.51a.7.7,0,0,1,0,1.34,2.58,2.58,0,0,1-2.33,0,.71.71,0,0,1,0-1.34A2.58,2.58,0,0,1,173,343.51Z"
         style="fill:#fff"
         id="path151" />
      <path
         d="M175.56,344.37c.17.52-.09,1.08-.79,1.48a4.36,4.36,0,0,1-2.58.46c-.14-.29,0-.6.37-.82l1.57-.91A2.21,2.21,0,0,1,175.56,344.37Z"
         style="fill:#fff"
         id="path153" />
      <path
         d="M228.13,336,215,343.57a7.23,7.23,0,0,1-6.53-.27l-18.55-10.71c-1.94-1.12-2.15-2.81-.47-3.77l13.13-7.59a7.28,7.28,0,0,1,6.54.27l18.55,10.71C229.6,333.33,229.81,335,228.13,336Z"
         style="fill:#e0e0e0"
         id="path155" />
      <path
         d="M205.56,338.46l5.89,3.4a1.25,1.25,0,0,0,1.07,0l12.69-7.33a.33.33,0,0,0,0-.62l-5-2.89-6.34-.17-.59,4.73-1-1.92-6.5,0Z"
         style="fill:#fafafa"
         id="path157" />
      <ellipse
         cx="208.39"
         cy="328.04"
         rx="2.62"
         ry="1.51"
         style="fill:#fafafa"
         id="ellipse159" />
      <path
         d="M200.46,328.67c1.64.94,1.64,2.47,0,3.42a6.59,6.59,0,0,1-5.93,0c-1.63-.95-1.63-2.48,0-3.42A6.53,6.53,0,0,1,200.46,328.67Z"
         style="fill:#BA68C8"
         id="path161" />
      <ellipse
         cx="196.64"
         cy="329.88"
         rx="1.65"
         ry="0.95"
         style="fill:#fff"
         id="ellipse163" />
      <path
         d="M200.33,330.07c.17.52-.09,1.08-.8,1.49A4.4,4.4,0,0,1,197,332c-.15-.28,0-.6.37-.82l1.57-.91A2.21,2.21,0,0,1,200.33,330.07Z"
         style="fill:#fff"
         id="path165" />
      <path
         d="M252.9,321.69l-13.14,7.58a7.25,7.25,0,0,1-6.54-.27l-18.55-10.71c-1.93-1.12-2.14-2.81-.47-3.77l13.14-7.59a7.32,7.32,0,0,1,6.54.27l18.55,10.71C254.36,319,254.57,320.72,252.9,321.69Z"
         style="fill:#e0e0e0"
         id="path167" />
      <path
         d="M230.33,324.16l5.88,3.4a1.27,1.27,0,0,0,1.08,0L250,320.23a.33.33,0,0,0,0-.62l-5-2.89-6.34-.17-.59,4.73-1-1.92-6.51.05Z"
         style="fill:#fafafa"
         id="path169" />
      <path
         d="M231.31,314.81a4.09,4.09,0,0,0,3.7,0,1.13,1.13,0,0,0,0-2.14,4.09,4.09,0,0,0-3.7,0A1.13,1.13,0,0,0,231.31,314.81Z"
         style="fill:#fafafa"
         id="path171" />
      <ellipse
         cx="222.26"
         cy="316.08"
         rx="4.19"
         ry="2.42"
         style="fill:#BA68C8"
         id="ellipse173" />
      <ellipse
         cx="222.26"
         cy="316.08"
         rx="4.19"
         ry="2.42"
         style="opacity:0.2"
         id="ellipse175" />
      <ellipse
         cx="221.4"
         cy="315.58"
         rx="1.65"
         ry="0.95"
         style="fill:#fff"
         id="ellipse177" />
      <path
         d="M225.09,315.77c.18.52-.09,1.08-.79,1.49a4.52,4.52,0,0,1-2.58.46c-.14-.29,0-.61.37-.83l1.57-.91A2.23,2.23,0,0,1,225.09,315.77Z"
         style="fill:#fff"
         id="path179" />
      <path
         d="M199.56,367.89l-30.77,17.77a4.42,4.42,0,0,1-4-.17h0c-1.17-.67-1.3-1.7-.28-2.29l30.77-17.77a4.45,4.45,0,0,1,4,.17h0C200.45,366.28,200.58,367.3,199.56,367.89Z"
         style="fill:#e0e0e0"
         id="path181" />
      <path
         d="M186.37,378.8,171,387.68c-.66.38-.58,1.05.19,1.5h0a2.88,2.88,0,0,0,2.6.1l15.36-8.87c.67-.38.59-1.05-.18-1.5h0A2.92,2.92,0,0,0,186.37,378.8Z"
         style="fill:#e0e0e0"
         id="path183" />
      <ellipse
         cx="258.16"
         cy="330.2"
         rx="1.29"
         ry="0.75"
         style="fill:#e0e0e0"
         id="ellipse185" />
      <path
         d="M262.61,327.63c.51.29.51.76,0,1.06a2,2,0,0,1-1.83,0,.56.56,0,0,1,0-1.06A2,2,0,0,1,262.61,327.63Z"
         style="fill:#e0e0e0"
         id="path187" />
      <path
         d="M266.15,325.59a.55.55,0,0,1,0,1.05,2,2,0,0,1-1.83,0,.56.56,0,0,1,0-1.05A2,2,0,0,1,266.15,325.59Z"
         style="fill:#e0e0e0"
         id="path189" />
      <path
         d="M170,399.67l106-61.21a.55.55,0,0,0,0-1,2,2,0,0,0-1.82,0l-106,61.21a.55.55,0,0,0,0,1.05A2,2,0,0,0,170,399.67Zm109.11-59.42-106,61.21a.55.55,0,0,0,0,1.05,2,2,0,0,0,1.82,0l106-61.21a.56.56,0,0,0,0-1.05A2,2,0,0,0,279.08,340.25Zm4.92,2.84L178,404.3a.55.55,0,0,0,0,1.05,2,2,0,0,0,1.82,0l106-61.21a.55.55,0,0,0,0-1.05A2,2,0,0,0,284,343.09Z"
         style="fill:#e0e0e0"
         id="path191" />
      <polygon
         points="380.31 386.93 254.3 459.68 175.88 414.4 301.88 341.65 380.31 386.93"
         style="fill:#BA68C8"
         id="polygon193" />
      <polygon
         points="380.31 386.93 254.3 459.68 175.88 414.4 301.88 341.65 380.31 386.93"
         style="fill:#fff;opacity:0.4"
         id="polygon195" />
      <polygon
         points="361.4 386.78 254.04 448.77 194.78 414.55 302.14 352.56 361.4 386.78"
         style="fill:#fff;opacity:0.4"
         id="polygon197" />
      <polygon
         points="254.04 448.77 239.52 440.39 239.03 403.75 315.04 404.11 291.86 400.29 295.68 379.05 346.08 377.93 361.4 386.78 254.04 448.77"
         style="fill:#fff"
         id="polygon199" />
      <path
         d="M275.17,385.35c3.41,2,3.41,5.16,0,7.13a13.66,13.66,0,0,1-12.36,0c-3.41-2-3.41-5.16,0-7.13A13.66,13.66,0,0,1,275.17,385.35Z"
         style="fill:#fff"
         id="path201" />
      <path
         d="M288.47,451.06l-.7.4,4.19,2.42c.2.12.2.31,0,.42l-2.21,1.28-3.46-2-3.54,2.05,3.46,2L284,458.9a.76.76,0,0,1-.72,0l-4.2-2.42-.7.41c-.32.18-.88,0-.87-.22l.24-5.69c0-.15.23-.28.51-.29l9.83-.14C288.55,450.55,288.79,450.87,288.47,451.06Z"
         style="fill:#BA68C8"
         id="path203" />
      <path
         d="M307.05,433.56c-3,1.71-3,4.5,0,6.21a11.93,11.93,0,0,0,10.76,0c3-1.71,3-4.5,0-6.21A11.86,11.86,0,0,0,307.05,433.56ZM319,437.15a3.58,3.58,0,0,1-1.87,2.23,9.18,9.18,0,0,1-3.86,1.07l-.49-.27a.73.73,0,0,1,0-1.38l3.34-1.93a2.65,2.65,0,0,1,2.39,0Zm0-.75a4.21,4.21,0,0,0-3.59.07l-3.34,1.93c-1,.57-1,1.47-.13,2.08a9.51,9.51,0,0,1-4.24-1.1c-2.59-1.5-2.59-3.93,0-5.43a10.38,10.38,0,0,1,9.4,0A3.4,3.4,0,0,1,319,436.4Zm-10.23-1.83a1.3,1.3,0,0,0,0,2.46,4.72,4.72,0,0,0,4.27,0,1.3,1.3,0,0,0,0-2.46A4.72,4.72,0,0,0,308.8,434.57Zm3.59,2.07a3.24,3.24,0,0,1-2.91,0,.89.89,0,0,1,0-1.68,3.24,3.24,0,0,1,2.91,0A.88.88,0,0,1,312.39,436.64Z"
         style="fill:#e0e0e0"
         id="path205" />
      <path
         d="M347.15,419.27a8.56,8.56,0,0,1-3.76-1.15l-.14-.08a8.59,8.59,0,0,0-6.13-.65l-.74-.43a2.65,2.65,0,0,0-2.42,0,.73.73,0,0,0,0,1.39l.72.42a2.11,2.11,0,0,0-.53,1.18,2.54,2.54,0,0,0,1.53,2.28l.29.17c.83.48,1.84,1.24,2,2.17a1.37,1.37,0,0,0,.93.92,3.63,3.63,0,0,0,2.94-.17l.37-.22a3.33,3.33,0,0,0,2.92-.05c.8-.46.82-1.2.08-1.68l3.22-1.86c.81-.47.94-1.2.31-1.7A2.93,2.93,0,0,0,347.15,419.27ZM334.65,418a.32.32,0,0,1,0-.61,1.14,1.14,0,0,1,1.05,0l.57.33-.2.08a4.46,4.46,0,0,0-.86.52Zm9.81,6.7a1.82,1.82,0,0,1-1.55,0l1.62-.93C344.9,424,344.89,424.42,344.46,424.66Zm3.3-3.55-6.59,3.81a2.07,2.07,0,0,1-1.7.12c-.31-.12-.5-.31-.53-.52a4.29,4.29,0,0,0-2.28-2.51l-.29-.17a2.06,2.06,0,0,1-1.24-1.86,2.16,2.16,0,0,1,1.24-1.63l.32-.17a7,7,0,0,1,5.88.25l.14.08a9.94,9.94,0,0,0,4.35,1.32,1.57,1.57,0,0,1,.91.31C348.33,420.42,348.24,420.84,347.76,421.11Z"
         style="fill:#e0e0e0"
         id="path207" />
      <path
         d="M372.39,399,362,405a.74.74,0,0,1-.68,0c-.19-.11-.19-.28,0-.39l10.37-6a.74.74,0,0,1,.68,0C372.58,398.75,372.58,398.92,372.39,399Z"
         style="fill:#e0e0e0"
         id="path209" />
      <path
         d="M375.5,400.82l-10.37,6a.76.76,0,0,1-.69,0,.21.21,0,0,1,0-.39l10.37-6a.76.76,0,0,1,.69,0A.21.21,0,0,1,375.5,400.82Z"
         style="fill:#e0e0e0"
         id="path211" />
      <path
         d="M378.6,402.62l-10.37,6a.74.74,0,0,1-.68,0c-.19-.1-.19-.28,0-.39l10.37-6a.81.81,0,0,1,.68,0A.21.21,0,0,1,378.6,402.62Z"
         style="fill:#e0e0e0"
         id="path213" />
      <g
         style="opacity:0.15"
         id="g219">
        <polygon
           points="287.99 328.7 255.13 309.73 226.07 443.35 258.93 462.32 287.99 328.7"
           style="fill:#fff"
           id="polygon215" />
        <path
           d="M196.18,426.09l29.06-133.62-43-24.82c-4.79-2.77-12.62-2.77-17.42,0l-.68.4-19.31,11.14L122.17,383.36Z"
           style="fill:#fff"
           id="path217" />
      </g>
    </g>
  </g>
  <g
     id="freepik--Notification--inject-68"
     transform="translate(258.84,81.63)">
    <g
       id="g244">
      <g
         id="g240">
        <g
           id="freepik--speech-bubble--inject-68">
          <path
             d="m 91.3,281.52 -13.14,-7.59 a 1.25,1.25 0 0 1 -0.62,-0.54 l -2.41,-4.22 7.79,-4.52 z"
             style="fill:#ba68c8"
             id="path223" />
          <path
             d="m 91.3,281.52 -13.14,-7.59 a 1.25,1.25 0 0 1 -0.62,-0.54 l -2.41,-4.22 7.79,-4.52 z"
             style="opacity:0.1"
             id="path225" />
          <path
             d="m 81.75,265.33 9.08,15.72 a 1.36,1.36 0 0 0 2.46,-0.23 l 9.61,-27.74 z"
             style="fill:#ba68c8"
             id="path227" />
          <path
             d="m 81.75,265.33 9.08,15.72 a 1.36,1.36 0 0 0 2.46,-0.23 l 9.61,-27.74 z"
             style="opacity:0.2;fill:#ffffff"
             id="path229" />
          <path
             d="m 140.1,164.47 a 14.06,14.06 0 0 0 -6.35,-11 l -1.39,-0.84 a 14.09,14.09 0 0 0 -12.71,0 l -86.5,50 a 14,14 0 0 0 -6.36,11 v 60 a 14.07,14.07 0 0 0 6.36,11 l 1.38,0.83 a 14,14 0 0 0 12.71,0 L 134.34,235 c 5.71,-3.26 5.76,-6.52 5.76,-10.58 z"
             style="fill:#ba68c8"
             id="path231" />
          <path
             d="m 140.1,164.47 a 14.06,14.06 0 0 0 -6.35,-11 l -1.39,-0.84 a 14.09,14.09 0 0 0 -12.71,0 l -86.5,50 a 14,14 0 0 0 -6.36,11 v 60 a 14.07,14.07 0 0 0 6.36,11 l 1.38,0.83 a 14,14 0 0 0 12.71,0 L 134.34,235 c 5.71,-3.26 5.76,-6.52 5.76,-10.58 z"
             style="opacity:0.2;fill:#ffffff"
             id="path233" />
          <path
             d="m 26.79,273.59 a 14.07,14.07 0 0 0 6.36,11 l 1.38,0.83 a 14.18,14.18 0 0 0 11.63,0.54 c -3,1.13 -5.27,-0.58 -5.27,-4.2 v -60 a 13,13 0 0 1 1.86,-6.26 l -14.1,-8.18 a 13,13 0 0 0 -1.86,6.26 z"
             style="fill:#ba68c8"
             id="path235" />
          <path
             d="m 139.89,162.66 c -0.74,-2.7 -3.2,-3.56 -6.13,-1.87 l -86.52,50 a 12.66,12.66 0 0 0 -4.48,4.74 l -14.09,-8.16 a 12.86,12.86 0 0 1 4.48,-4.75 l 86.49,-50 a 14.11,14.11 0 0 1 12.72,0 l 1.4,0.84 a 14,14 0 0 1 6.13,9.2 z"
             style="opacity:0.4;fill:#ffffff"
             id="path237" />
        </g>
      </g>
      <path
         d="m 74.84,229.14 c 4.67,-2.7 8.44,-9.92 8.44,-16.13 0,-6.21 -3.77,-9.07 -8.44,-6.38 -4.67,2.69 -8.44,9.91 -8.44,16.12 0,6.21 3.78,9.08 8.44,6.39 z m 3.66,1.63 -7.31,4.23 c -6.11,3.53 -11.25,12.63 -11.93,21.12 L 59,259.8 q 17.58,-3.24 31.77,-18.34 l -0.3,-3.35 C 89.75,230.4 84.61,227.24 78.5,230.77 Z m 42,-21.85 a 5.36,5.36 0 0 0 -1.8,-2.58 4.69,4.69 0 0 0 -2.81,-0.87 10,10 0 0 0 -3.66,0.8 l 6.56,-13 c 0.21,-0.4 0.43,-0.85 0.65,-1.36 a 3.5,3.5 0 0 0 0.34,-1.43 v -4.25 a 1.09,1.09 0 0 0 -0.36,-0.93 0.72,0.72 0 0 0 -0.85,0 l -19.71,11.36 a 2.35,2.35 0 0 0 -0.85,1 2.91,2.91 0 0 0 -0.36,1.35 v 4.25 a 1.09,1.09 0 0 0 0.36,0.93 0.72,0.72 0 0 0 0.85,0 l 12.4,-7.16 -6.26,12.39 c -0.21,0.41 -0.42,0.86 -0.65,1.37 a 3.62,3.62 0 0 0 -0.34,1.42 v 4.25 a 1.09,1.09 0 0 0 0.36,0.93 0.73,0.73 0 0 0 0.86,0 l 3.72,-2.15 a 7.75,7.75 0 0 1 4.43,-1.39 c 1.12,0.13 1.68,1.09 1.68,2.89 a 8.93,8.93 0 0 1 -1.68,5.14 13.54,13.54 0 0 1 -4.43,4 13.85,13.85 0 0 1 -2.74,1.28 4.84,4.84 0 0 1 -1.86,0.27 2.32,2.32 0 0 1 -1.19,-0.45 2.71,2.71 0 0 1 -0.72,-0.94 2.63,2.63 0 0 0 -0.6,-0.75 0.65,0.65 0 0 0 -0.75,0 l -3.54,2 a 2.51,2.51 0 0 0 -0.88,1 2.42,2.42 0 0 0 -0.34,1.36 8.29,8.29 0 0 0 1,3.35 4.7,4.7 0 0 0 2.36,2.17 7,7 0 0 0 3.86,0.31 16.11,16.11 0 0 0 5.45,-2.16 23.94,23.94 0 0 0 4.83,-3.68 26.2,26.2 0 0 0 3.86,-4.81 23.49,23.49 0 0 0 2.56,-5.58 20.09,20.09 0 0 0 0.93,-6.07 12.74,12.74 0 0 0 -0.71,-4.26 z"
         style="fill:#fafafa"
         id="path242" />
    </g>
  </g>
  <g
     id="freepik--Screen--inject-68">
    <g
       id="freepik--window--inject-68">
      <path
         d="M290.09,24.87c-1.57-.9-3.73-.77-6.12.6l-.68.4-32,18.44-.22.14A4.82,4.82,0,0,0,249.21,48a4.89,4.89,0,0,1-2.27,3.76l-38.07,22-.09,0a1.47,1.47,0,0,0-.62-1.3L206,71.23a1.51,1.51,0,0,0-1.51.16l-2.13,1.22L169.67,91.47a13.42,13.42,0,0,0-1.4,1l-.65.59a15.31,15.31,0,0,0-4.81,10.34V351.64c0,2.18.77,3.71,2,4.43l2.21,1.28c1.24.72,2.95.61,4.84-.49L288,289.81a15.18,15.18,0,0,0,6.86-11.89V31.76c0-2.76-1-4.69-2.54-5.6Z"
         style="fill:#BA68C8"
         id="path247" />
      <path
         d="M172.52,355.92v.57l-.65.37c-1.89,1.1-3.6,1.2-4.84.49l-2.21-1.28c-1.24-.72-2-2.25-2-4.43V103.36A14.3,14.3,0,0,1,165.18,96l2.62,1.51a13.84,13.84,0,0,0-2.3,7.09V352.91a5.36,5.36,0,0,0,.94,3.31,2.93,2.93,0,0,0,2.36,1.1,5.85,5.85,0,0,0,2.83-.88Z"
         style="opacity:0.30000000000000004"
         id="path249" />
      <path
         d="M252.7,47.06a4,4,0,0,0-.8,2.22,4.88,4.88,0,0,1-.85,2.55l-2.63-1.52a4.33,4.33,0,0,0,.79-2.3,4.64,4.64,0,0,1,.86-2.47Z"
         style="opacity:0.30000000000000004"
         id="path251" />
      <path
         d="M168.64,357.43a2.9,2.9,0,0,1-2.36-1.1,5.27,5.27,0,0,1-.94-3.31V104.74a15,15,0,0,1,4.66-10l.21-.19c.14-.13.28-.26.43-.38a10.65,10.65,0,0,1,1.32-.9l32.66-18.87,2.13-1.22a1.47,1.47,0,0,1,.71-.23c.62,0,.69.72.69,1a1.75,1.75,0,0,0,1.69,2,2.71,2.71,0,0,0,1.32-.4l38.06-22a5.33,5.33,0,0,0,2.52-4.19,4.3,4.3,0,0,1,1.71-3.16.87.87,0,0,1,.18-.11l31.95-18.45.68-.4a7.5,7.5,0,0,1,3.62-1.11c2.67,0,4.33,2.19,4.33,5.71V278a14.63,14.63,0,0,1-6.62,11.47L171.46,356.55A5.74,5.74,0,0,1,168.64,357.43Z"
         style="fill:#fafafa"
         id="path253" />
      <path
         d="M290,26.54h0c2.4,0,3.84,1.95,3.84,5.22V277.92A14.31,14.31,0,0,1,287.51,289L171.38,356a5.31,5.31,0,0,1-2.58.81c-1.76,0-2.81-1.47-2.81-3.92V104.63A14.38,14.38,0,0,1,170.48,95l.22-.21.38-.34a11.61,11.61,0,0,1,1.28-.87L205,74.73l2.13-1.23a.92.92,0,0,1,.47-.16c.19,0,.2.49.2.54A2.22,2.22,0,0,0,210,76.33a3.1,3.1,0,0,0,1.56-.46l38.06-22a5.86,5.86,0,0,0,2.77-4.61,3.86,3.86,0,0,1,1.5-2.77l.14-.08L286,28l.68-.39A6.94,6.94,0,0,1,290,26.54m0-1a7.86,7.86,0,0,0-3.87,1.18l-.68.4-32,18.44a1.35,1.35,0,0,0-.22.14,4.8,4.8,0,0,0-1.91,3.56,4.9,4.9,0,0,1-2.27,3.77L211.07,75a2.14,2.14,0,0,1-1.07.34c-.72,0-1.21-.54-1.21-1.48s-.48-1.52-1.17-1.52a1.94,1.94,0,0,0-1,.29l-2.13,1.23L171.87,92.74a12,12,0,0,0-1.4,1l-.65.58A15.36,15.36,0,0,0,165,104.63V352.91c0,3.1,1.55,4.9,3.79,4.9a6.2,6.2,0,0,0,3.07-.95L288,289.81a15.18,15.18,0,0,0,6.86-11.89V31.76c0-3.92-2-6.2-4.82-6.2Z"
         style="fill:#BA68C8"
         id="path255" />
      <path
         id="freepik--Gear--inject-68"
         d="M286,50.24l-1.28-.06c-.09,0-.15-.13-.15-.28a7.39,7.39,0,0,0,0-1.07.7.7,0,0,1,.08-.44l1.26-1.79a.44.44,0,0,0,0-.39l-.63-1.36c-.06-.12-.17-.16-.24-.09l-1.41,1.49a.21.21,0,0,1-.28,0,2.12,2.12,0,0,0-.61-.37.28.28,0,0,1-.13-.31l.32-2c0-.14,0-.25-.13-.24l-1.49.18a.36.36,0,0,0-.23.25l-.61,2.11a.62.62,0,0,1-.22.31,5.93,5.93,0,0,0-.95.62c-.08.07-.2,0-.27-.08l-.69-1.06c-.07-.11-.18-.12-.25,0l-1.47,1.81a.48.48,0,0,0-.05.4l.44,1.38a.65.65,0,0,1,0,.44,12.21,12.21,0,0,0-.63,1.31.47.47,0,0,1-.24.26l-1.41.39a.38.38,0,0,0-.22.29l-.51,2.28c0,.13,0,.25.11.25l1.28.07c.09,0,.15.13.15.28a7.25,7.25,0,0,0,.05,1.06.85.85,0,0,1-.08.44l-1.27,1.79a.46.46,0,0,0,0,.4l.63,1.35c.06.13.17.17.24.09l1.4-1.48a.2.2,0,0,1,.28,0,2.28,2.28,0,0,0,.62.36.29.29,0,0,1,.12.32l-.31,2c0,.15,0,.25.12.24l1.49-.18a.34.34,0,0,0,.23-.25l.62-2.1a.58.58,0,0,1,.22-.31,6,6,0,0,0,1-.63c.08-.06.19,0,.26.08l.7,1.06c.07.11.18.13.25.05l1.47-1.81a.51.51,0,0,0,0-.41L283,55.47a.65.65,0,0,1,0-.44,10.51,10.51,0,0,0,.63-1.31.46.46,0,0,1,.25-.26l1.41-.39a.38.38,0,0,0,.21-.29l.52-2.28C286.09,50.36,286,50.25,286,50.24ZM282.44,52c-.47,2.08-1.95,3.9-3.31,4.06s-2.09-1.4-1.62-3.48,1.95-3.9,3.31-4.06S282.9,50,282.44,52Z"
         style="fill:#455a64" />
      <path
         d="M173.16,133.52a1.06,1.06,0,0,1-.91-.52,1,1,0,0,1,.38-1.43L286.19,66a1.06,1.06,0,0,1,1.43.39,1,1,0,0,1-.38,1.43L173.68,133.38A1,1,0,0,1,173.16,133.52Z"
         style="fill:#f0f0f0"
         id="path258" />
      <path
         d="M179.42,116.14a1.16,1.16,0,0,1-.51-.12l-3.71-2a1.45,1.45,0,0,1-.67-.87,2.16,2.16,0,0,1,.27-1.64l3.71-6.33a1.06,1.06,0,0,1,1.44-.37,1,1,0,0,1,.37,1.43l-3.64,6.2,3.24,1.78a1.05,1.05,0,0,1,.42,1.42A1,1,0,0,1,179.42,116.14Z"
         style="fill:#e0e0e0"
         id="path260" />
      <path
         d="M207,92.37c.1-.05.17-.06.22,0a.44.44,0,0,1,.13.24l2.28,6.52a.17.17,0,0,1,0,.08.63.63,0,0,1-.08.28.42.42,0,0,1-.17.2l-.67.38c-.13.07-.21.09-.26,0a.31.31,0,0,1-.1-.15l-.4-1.14L205,100.5l-.4,1.61a1.24,1.24,0,0,1-.1.26.65.65,0,0,1-.26.26l-.67.38a.15.15,0,0,1-.17,0,.25.25,0,0,1-.08-.2.28.28,0,0,1,0-.09l2.28-9.14a1.48,1.48,0,0,1,.13-.39A.51.51,0,0,1,206,93Zm.51,5.15-1-2.94-1,4.12Z"
         style="fill:#455a64"
         id="path262" />
      <path
         d="M212.17,91.48a2.25,2.25,0,0,1,.52-.23,1.16,1.16,0,0,1,.4,0,.82.82,0,0,1,.29.07.77.77,0,0,1,.2.13V88.77a.61.61,0,0,1,.07-.28.51.51,0,0,1,.18-.2l.7-.41a.15.15,0,0,1,.18,0,.22.22,0,0,1,.07.19V96.2a.61.61,0,0,1-.07.28.51.51,0,0,1-.18.2l-.7.41a.15.15,0,0,1-.18,0,.22.22,0,0,1-.07-.19v-.29l-.2.36a4.49,4.49,0,0,1-.29.41,3.85,3.85,0,0,1-.4.41,3.48,3.48,0,0,1-.52.38,1.64,1.64,0,0,1-.84.24,1,1,0,0,1-.64-.28,1.68,1.68,0,0,1-.42-.68,3.43,3.43,0,0,1-.17-1c0-.12,0-.26,0-.43s0-.31,0-.44a5.69,5.69,0,0,1,.17-1.19,6.5,6.5,0,0,1,.42-1.17,5.32,5.32,0,0,1,.64-1A3.16,3.16,0,0,1,212.17,91.48ZM211.31,95a4.09,4.09,0,0,0,0,.7c0,.51.16.83.37.94a.79.79,0,0,0,.77-.09,2.12,2.12,0,0,0,.77-.8,2.9,2.9,0,0,0,.36-1.24c0-.13,0-.29,0-.48s0-.34,0-.46a1,1,0,0,0-.36-.81.73.73,0,0,0-.77.07,2.2,2.2,0,0,0-.77.8A3.13,3.13,0,0,0,211.31,95Z"
         style="fill:#455a64"
         id="path264" />
      <path
         d="M217.92,88.16a2.25,2.25,0,0,1,.52-.23,1.16,1.16,0,0,1,.4,0,.82.82,0,0,1,.29.07.77.77,0,0,1,.2.13V85.45a.61.61,0,0,1,.07-.28.51.51,0,0,1,.18-.2l.7-.41a.15.15,0,0,1,.18,0,.22.22,0,0,1,.07.19v8.13a.61.61,0,0,1-.07.28.51.51,0,0,1-.18.2l-.7.41a.15.15,0,0,1-.18,0,.22.22,0,0,1-.07-.19v-.29c-.05.11-.12.22-.2.36a4.49,4.49,0,0,1-.29.41,3.85,3.85,0,0,1-.4.41,3.48,3.48,0,0,1-.52.38,1.64,1.64,0,0,1-.84.24,1.06,1.06,0,0,1-.64-.27,1.93,1.93,0,0,1-.42-.69,3.37,3.37,0,0,1-.17-1c0-.12,0-.26,0-.43s0-.31,0-.44a5.69,5.69,0,0,1,.17-1.19,7.37,7.37,0,0,1,.42-1.17,5.32,5.32,0,0,1,.64-1A3.16,3.16,0,0,1,217.92,88.16Zm-.86,3.49a4.09,4.09,0,0,0,0,.7c0,.51.16.83.37.94a.79.79,0,0,0,.77-.09,2.12,2.12,0,0,0,.77-.8,2.77,2.77,0,0,0,.36-1.24c0-.13,0-.29,0-.48s0-.34,0-.46a1,1,0,0,0-.36-.81.73.73,0,0,0-.77.07,2.2,2.2,0,0,0-.77.8A3.13,3.13,0,0,0,217.06,91.65Z"
         style="fill:#455a64"
         id="path266" />
      <path
         d="M228.23,80.1a.17.17,0,0,1,.18,0,.24.24,0,0,1,.07.2v.88a.54.54,0,0,1-.07.27.48.48,0,0,1-.18.21l-3,1.71v2.4l2.78-1.6a.17.17,0,0,1,.18,0,.27.27,0,0,1,.07.2v.87a.68.68,0,0,1-.07.28.4.4,0,0,1-.18.2l-2.78,1.61v2.84a.54.54,0,0,1-.07.27.45.45,0,0,1-.18.2l-.75.44a.15.15,0,0,1-.18,0,.22.22,0,0,1-.07-.19v-8a.58.58,0,0,1,.07-.28.45.45,0,0,1,.18-.2Z"
         style="fill:#455a64"
         id="path268" />
      <path
         d="M231.62,81.86a2,2,0,0,0-.8.79,2.66,2.66,0,0,0-.24,1.21v3.22a.6.6,0,0,1-.08.28.45.45,0,0,1-.18.2l-.7.41a.15.15,0,0,1-.18,0,.22.22,0,0,1-.07-.19V82a.58.58,0,0,1,.07-.28.45.45,0,0,1,.18-.2l.7-.41a.15.15,0,0,1,.18,0,.23.23,0,0,1,.08.19v.29a4.18,4.18,0,0,1,.51-.76,2.69,2.69,0,0,1,.72-.58l.42-.24a.15.15,0,0,1,.18,0,.26.26,0,0,1,.07.19V81a.77.77,0,0,1-.07.28.51.51,0,0,1-.18.2Z"
         style="fill:#455a64"
         id="path270" />
      <path
         d="M234.25,76.5a.15.15,0,0,1,.18,0,.21.21,0,0,1,.08.19v1a.6.6,0,0,1-.08.28.45.45,0,0,1-.18.2l-.79.46a.17.17,0,0,1-.18,0,.23.23,0,0,1-.08-.2v-1a.63.63,0,0,1,.08-.28.51.51,0,0,1,.18-.2Zm.21,8.34a.63.63,0,0,1-.08.28.49.49,0,0,1-.17.2l-.71.41c-.07,0-.13,0-.17,0a.23.23,0,0,1-.08-.19V79.77a.57.57,0,0,1,.08-.28.35.35,0,0,1,.17-.2l.71-.41a.13.13,0,0,1,.17,0,.21.21,0,0,1,.08.19Z"
         style="fill:#455a64"
         id="path272" />
      <path
         d="M235.5,81.35a6.05,6.05,0,0,1,.16-1.39,5.63,5.63,0,0,1,.45-1.33,5.44,5.44,0,0,1,.72-1.13,3.63,3.63,0,0,1,.95-.81,1.88,1.88,0,0,1,.94-.29,1.14,1.14,0,0,1,.72.27,1.65,1.65,0,0,1,.46.74,3.42,3.42,0,0,1,.16,1.11v.56a.61.61,0,0,1-.07.28.51.51,0,0,1-.18.2l-3.1,1.79a1,1,0,0,0,.09.45A.43.43,0,0,0,237,82a.58.58,0,0,0,.35,0,1.16,1.16,0,0,0,.4-.15,3.33,3.33,0,0,0,.48-.36,2.49,2.49,0,0,0,.3-.38,2.75,2.75,0,0,1,.17-.24.94.94,0,0,1,.18-.14l.74-.43a.17.17,0,0,1,.18,0,.18.18,0,0,1,.07.19,1.66,1.66,0,0,1-.14.53,4.18,4.18,0,0,1-.41.77,5.33,5.33,0,0,1-.66.83,4.27,4.27,0,0,1-.91.71,2.11,2.11,0,0,1-.95.31,1,1,0,0,1-.72-.27,1.72,1.72,0,0,1-.45-.8A4.27,4.27,0,0,1,235.5,81.35Zm2.28-3.17a1.91,1.91,0,0,0-.46.37A2,2,0,0,0,237,79a1.87,1.87,0,0,0-.2.49,2,2,0,0,0-.09.44l2.1-1.21c0-.12,0-.24-.07-.35a.6.6,0,0,0-.17-.28.45.45,0,0,0-.31-.1A1.25,1.25,0,0,0,237.78,78.18Z"
         style="fill:#455a64"
         id="path274" />
      <path
         d="M245.61,78.4a.57.57,0,0,1-.08.28.5.5,0,0,1-.17.2l-.71.41a.15.15,0,0,1-.18,0,.21.21,0,0,1-.07-.19V76a1.59,1.59,0,0,0-.26-1c-.17-.2-.44-.2-.8,0a2,2,0,0,0-.78.89,3.34,3.34,0,0,0-.28,1.36v3.14a.55.55,0,0,1-.07.28.45.45,0,0,1-.18.2l-.71.41a.14.14,0,0,1-.17,0,.21.21,0,0,1-.08-.19V75.25a.63.63,0,0,1,.08-.28.58.58,0,0,1,.17-.2l.71-.41a.15.15,0,0,1,.18,0,.22.22,0,0,1,.07.19v.29a4.58,4.58,0,0,1,.57-.86,2.57,2.57,0,0,1,.77-.66,1.83,1.83,0,0,1,.95-.31.82.82,0,0,1,.61.28,1.65,1.65,0,0,1,.33.73,5.51,5.51,0,0,1,.1,1Z"
         style="fill:#455a64"
         id="path276" />
      <path
         d="M248.7,70.39a2.08,2.08,0,0,1,.52-.23,1.46,1.46,0,0,1,.4,0,.82.82,0,0,1,.29.07.7.7,0,0,1,.19.13V67.68a.63.63,0,0,1,.08-.28.58.58,0,0,1,.17-.2l.71-.41a.17.17,0,0,1,.18,0,.22.22,0,0,1,.07.19v8.13a.61.61,0,0,1-.07.28.51.51,0,0,1-.18.2l-.71.41a.14.14,0,0,1-.17,0,.23.23,0,0,1-.08-.19v-.29c0,.11-.11.22-.19.36a4.49,4.49,0,0,1-.29.41,3.85,3.85,0,0,1-.4.41,3.31,3.31,0,0,1-.52.38,1.55,1.55,0,0,1-.84.24,1.06,1.06,0,0,1-.64-.27,1.68,1.68,0,0,1-.42-.69,3.37,3.37,0,0,1-.17-1c0-.12,0-.26,0-.43s0-.31,0-.44a5.69,5.69,0,0,1,.17-1.19,5.82,5.82,0,0,1,.42-1.17,5.32,5.32,0,0,1,.64-1A3.16,3.16,0,0,1,248.7,70.39Zm-.86,3.49a4.09,4.09,0,0,0,0,.7c0,.51.16.83.37.94a.79.79,0,0,0,.77-.09,2.2,2.2,0,0,0,.77-.8,2.89,2.89,0,0,0,.35-1.24c0-.13,0-.29,0-.48s0-.34,0-.46a1,1,0,0,0-.35-.81.73.73,0,0,0-.77.07,2.2,2.2,0,0,0-.77.8A3,3,0,0,0,247.84,73.88Z"
         style="fill:#455a64"
         id="path278" />
      <path
         d="M255.22,71.34a.22.22,0,0,0-.06-.18.27.27,0,0,0-.23,0,2,2,0,0,0-.43.1l-.69.2a2,2,0,0,1-.68.08.69.69,0,0,1-.43-.19.78.78,0,0,1-.23-.43,3.06,3.06,0,0,1-.06-.65,2.67,2.67,0,0,1,.13-.8,3.79,3.79,0,0,1,.37-.86,5.06,5.06,0,0,1,.6-.8,3.87,3.87,0,0,1,.81-.64,2.88,2.88,0,0,1,.81-.33,1.24,1.24,0,0,1,.61,0,.68.68,0,0,1,.39.29.89.89,0,0,1,.16.49.51.51,0,0,1-.07.28.45.45,0,0,1-.18.2l-.72.42a.27.27,0,0,1-.21,0l-.15-.07a.48.48,0,0,0-.22,0,1,1,0,0,0-.42.17,2.11,2.11,0,0,0-.49.39.74.74,0,0,0-.22.52.27.27,0,0,0,.06.2c0,.05.09.06.19.06a2.14,2.14,0,0,0,.4-.08l.66-.19c.56-.16.94-.14,1.17.06a1.37,1.37,0,0,1,.34,1,2.76,2.76,0,0,1-.14.81,3.92,3.92,0,0,1-.4.86,4.62,4.62,0,0,1-.66.83,3.71,3.71,0,0,1-.86.66,2.67,2.67,0,0,1-.87.35,1.33,1.33,0,0,1-.64,0,.86.86,0,0,1-.4-.33,1.13,1.13,0,0,1-.15-.52.61.61,0,0,1,.07-.28.72.72,0,0,1,.18-.2l.72-.41c.09-.06.16-.07.21,0l.16.11a.36.36,0,0,0,.24,0,1.1,1.1,0,0,0,.48-.18l.28-.19a3.48,3.48,0,0,0,.28-.24,2.47,2.47,0,0,0,.21-.27A.63.63,0,0,0,255.22,71.34Z"
         style="fill:#455a64"
         id="path280" />
      <path
         d="M275.06,98.84,184.81,151c-3.38,2-6.13-.12-6.13-4.64h0c0-4.51,2.75-9.75,6.13-11.71l90.25-52.1c3.38-2,6.13.12,6.13,4.63h0C281.19,91.65,278.44,96.89,275.06,98.84Z"
         style="fill:#f0f0f0"
         id="path282" />
      <path
         d="M276.68,93.13l-1.25-.54a8.67,8.67,0,0,0,.38-2.44c0-2.89-1.76-4.22-3.93-3S268,91.8,268,94.69s1.76,4.22,3.93,3a7.57,7.57,0,0,0,2.58-2.8l1.25.54a.5.5,0,0,0,.48-.06,1.58,1.58,0,0,0,.64-.79C277.1,93.92,277,93.29,276.68,93.13Zm-4.8,2.38c-1.28.74-2.32,0-2.32-1.75a5.54,5.54,0,0,1,2.32-4.43c1.28-.74,2.32,0,2.32,1.75A5.54,5.54,0,0,1,271.88,95.51Z"
         style="fill:#e0e0e0"
         id="path284" />
      <path
         d="M276.68,93.13l-1.25-.54a8.67,8.67,0,0,0,.38-2.44c0-2.89-1.76-4.22-3.93-3S268,91.8,268,94.69s1.76,4.22,3.93,3a7.57,7.57,0,0,0,2.58-2.8l1.25.54a.5.5,0,0,0,.48-.06,1.58,1.58,0,0,0,.64-.79C277.1,93.92,277,93.29,276.68,93.13Zm-4.8,2.38c-1.28.74-2.32,0-2.32-1.75a5.54,5.54,0,0,1,2.32-4.43c1.28-.74,2.32,0,2.32,1.75A5.54,5.54,0,0,1,271.88,95.51Z"
         style="opacity:0.1"
         id="path286" />
      <path
         d="M173.16,167.58a1.05,1.05,0,0,1-.53-2l113.56-65.56a1.05,1.05,0,0,1,1.05,1.82L173.68,167.44A1,1,0,0,1,173.16,167.58Z"
         style="fill:#f0f0f0"
         id="path288" />
      <g
         id="freepik--Character--inject-68">
        <path
           d="M201.68,175.8a31.25,31.25,0,0,1-4.42,15c-.43.76-.9,1.5-1.38,2.23s-1,1.42-1.52,2.09-1,1.18-1.44,1.74q-.36.4-.72.78a26.41,26.41,0,0,1-5.82,4.69,17.82,17.82,0,0,1-3.19,1.46c-.36.12-.71.22-1.06.3a9.2,9.2,0,0,1-5.46-.17c-3.42-1.26-5.59-4.92-5.6-10.42,0-9.76,6.85-21.63,15.31-26.51S201.68,166,201.68,175.8Z"
           style="fill:#fafafa"
           id="path290" />
        <path
           d="M193.21,165.72h0c4.7,0,7.62,3.86,7.62,10.08a30.15,30.15,0,0,1-4.31,14.55c-.41.73-.87,1.47-1.34,2.17s-1,1.39-1.49,2-.94,1.18-1.41,1.7c-.23.26-.46.52-.69.76a25.73,25.73,0,0,1-5.64,4.54,16.64,16.64,0,0,1-3,1.39c-.34.11-.67.2-1,.28a10.22,10.22,0,0,1-2.39.3,7.42,7.42,0,0,1-2.57-.44c-3.21-1.19-5.05-4.7-5.05-9.63,0-9.48,6.67-21,14.88-25.77a13.12,13.12,0,0,1,6.41-2m0-.85a13.92,13.92,0,0,0-6.83,2.09c-8.46,4.88-15.31,16.75-15.31,26.51,0,5.5,2.18,9.16,5.6,10.42a8.12,8.12,0,0,0,2.87.5,11,11,0,0,0,2.59-.33c.35-.08.7-.18,1.06-.3a17.82,17.82,0,0,0,3.19-1.46,26.41,26.41,0,0,0,5.82-4.69q.36-.37.72-.78.74-.84,1.44-1.74c.53-.67,1-1.37,1.52-2.09s1-1.47,1.38-2.23a31.25,31.25,0,0,0,4.42-15c0-6.92-3.45-10.93-8.47-10.93Z"
           style="fill:#BA68C8"
           id="path292" />
      </g>
      <path
         d="M242.63,151.45l-34.85,20.12c-1.49.86-2.7,0-2.7-2h0a6.46,6.46,0,0,1,2.7-5.15l34.85-20.12c1.49-.86,2.7.05,2.7,2h0A6.46,6.46,0,0,1,242.63,151.45Z"
         style="fill:#e0e0e0"
         id="path295" />
      <path
         d="M225,170.53l-18.5,10.68c-.79.46-1.43,0-1.43-1.08h0a3.42,3.42,0,0,1,1.43-2.73L225,166.72c.79-.46,1.43,0,1.43,1.08h0A3.43,3.43,0,0,1,225,170.53Z"
         style="fill:#e0e0e0"
         id="path297" />
      <g
         id="freepik--Button--inject-68">
        <path
           d="M284.93,135.94l-29.29,16.91c-1,.57-1.79,0-1.79-1.35V140.16a4.27,4.27,0,0,1,1.79-3.41l29.29-16.91c1-.57,1.78,0,1.78,1.35v11.34A4.29,4.29,0,0,1,284.93,135.94Z"
           style="fill:#BA68C8"
           id="path299" />
        <path
           d="M266.86,142.2c-.16-1.79-1.35-2.52-2.76-1.7l-1.69,1a6.62,6.62,0,0,0-2.76,4.89l-.07.85a13.28,13.28,0,0,0,7.34-4.24Zm-3.61-2.08a4.66,4.66,0,0,0,1.95-3.73c0-1.44-.87-2.1-1.95-1.47a4.66,4.66,0,0,0-1.95,3.73C261.3,140.08,262.17,140.74,263.25,140.12Zm-2.92.75c0-.19-.12-.28-.27-.2l-1.05.61v-1.4c0-.2-.12-.28-.27-.2a.64.64,0,0,0-.26.51v1.4l-1.05.6a.64.64,0,0,0-.27.51c0,.19.12.28.27.2l1.05-.61v1.4c0,.2.12.29.26.2a.62.62,0,0,0,.27-.5V142l1.05-.61A.62.62,0,0,0,260.33,140.87Z"
           style="fill:#fafafa"
           id="path301" />
        <path
           d="M271.51,132.27c.08,0,.14-.05.18,0a.65.65,0,0,1,.1.19l1.78,5.09v.07a.54.54,0,0,1-.05.21.38.38,0,0,1-.14.16l-.53.3c-.09.06-.16.07-.2,0a.25.25,0,0,1-.08-.12l-.31-.89-2.3,1.32-.31,1.26a.8.8,0,0,1-.08.21.46.46,0,0,1-.2.19l-.52.31a.12.12,0,0,1-.14,0,.18.18,0,0,1-.06-.15.15.15,0,0,1,0-.07l1.78-7.15a1.16,1.16,0,0,1,.1-.3.52.52,0,0,1,.17-.19Zm.4,4-.8-2.3-.8,3.22Z"
           style="fill:#fafafa"
           id="path303" />
        <path
           d="M275.58,131.57a1.19,1.19,0,0,1,.4-.17.72.72,0,0,1,.31,0,.52.52,0,0,1,.23.06.44.44,0,0,1,.15.1v-2.07a.42.42,0,0,1,.06-.21.38.38,0,0,1,.14-.16l.55-.32a.12.12,0,0,1,.14,0,.18.18,0,0,1,.06.15v6.35a.49.49,0,0,1-.06.22.45.45,0,0,1-.14.16l-.55.31a.11.11,0,0,1-.14,0,.18.18,0,0,1-.06-.15v-.23a2,2,0,0,1-.15.28,2.79,2.79,0,0,1-.23.32,3.13,3.13,0,0,1-.31.33,3.17,3.17,0,0,1-.4.29,1.22,1.22,0,0,1-.66.19.77.77,0,0,1-.5-.22,1.27,1.27,0,0,1-.33-.53,2.65,2.65,0,0,1-.13-.78c0-.1,0-.21,0-.34s0-.24,0-.34a4.43,4.43,0,0,1,.13-.93,4.79,4.79,0,0,1,.33-.92,3.78,3.78,0,0,1,.5-.79A2.36,2.36,0,0,1,275.58,131.57Zm-.68,2.73a4.86,4.86,0,0,0,0,.54c0,.41.13.65.29.74a.6.6,0,0,0,.61-.07,1.72,1.72,0,0,0,.59-.63,2,2,0,0,0,.28-1,3.79,3.79,0,0,0,0-.38,3.21,3.21,0,0,0,0-.36.73.73,0,0,0-.28-.63.54.54,0,0,0-.59.06,1.65,1.65,0,0,0-.61.62A2.5,2.5,0,0,0,274.9,134.3Z"
           style="fill:#fafafa"
           id="path305" />
        <path
           d="M280.07,129a1.89,1.89,0,0,1,.41-.17,1.2,1.2,0,0,1,.31,0,.77.77,0,0,1,.23.06l.15.1v-2.06a.49.49,0,0,1,.06-.22.44.44,0,0,1,.14-.16l.55-.31a.12.12,0,0,1,.13,0,.18.18,0,0,1,.06.15v6.36a.42.42,0,0,1-.06.21.31.31,0,0,1-.13.16l-.55.32a.12.12,0,0,1-.14,0,.18.18,0,0,1-.06-.15V133l-.15.27a3.29,3.29,0,0,1-.23.33c-.09.11-.2.21-.31.32a2,2,0,0,1-.41.29,1.11,1.11,0,0,1-.65.19.78.78,0,0,1-.51-.21,1.41,1.41,0,0,1-.32-.54,2.64,2.64,0,0,1-.14-.78v-.68a4.46,4.46,0,0,1,.14-.93,5.14,5.14,0,0,1,.32-.91,3.89,3.89,0,0,1,.51-.8A2.32,2.32,0,0,1,280.07,129Zm-.67,2.74a2.44,2.44,0,0,0,0,.54c0,.4.12.65.29.74a.61.61,0,0,0,.6-.07,1.66,1.66,0,0,0,.6-.63,2.29,2.29,0,0,0,.28-1c0-.1,0-.22,0-.37s0-.27,0-.36a.82.82,0,0,0-.28-.64.56.56,0,0,0-.6.06,1.7,1.7,0,0,0-.6.62A2.38,2.38,0,0,0,279.4,131.71Z"
           style="fill:#fafafa"
           id="path307" />
      </g>
      <path
         d="M173.16,219.92a1.05,1.05,0,0,1-.53-2L286.19,152.4a1,1,0,0,1,1.43.38,1.06,1.06,0,0,1-.38,1.44L173.68,219.78A1.07,1.07,0,0,1,173.16,219.92Z"
         style="fill:#f0f0f0"
         id="path310" />
      <g
         id="g351">
        <path
           d="M201.68,228.92a31.18,31.18,0,0,1-4.42,15c-.43.76-.9,1.51-1.38,2.23s-1,1.42-1.52,2.1-1,1.18-1.44,1.74l-.72.78a26.41,26.41,0,0,1-5.82,4.69,17.74,17.74,0,0,1-3.19,1.45c-.36.12-.71.22-1.06.3a9.21,9.21,0,0,1-5.46-.16c-3.42-1.27-5.59-4.93-5.6-10.43,0-9.76,6.85-21.62,15.31-26.5S201.68,219.16,201.68,228.92Z"
           style="fill:#fafafa"
           id="path312" />
        <g
           id="freepik--character--inject-68">
          <path
             d="M177.9,233.8a13.73,13.73,0,0,0,.06,5.38,20.74,20.74,0,0,1,.43,5.38c0,.35-.08.77.2,1a.7.7,0,0,0,.88-.08,2.18,2.18,0,0,0,.49-.83c.11,1.29.22,2.59.32,3.88a2.3,2.3,0,0,0,.37,1.26,1.84,1.84,0,0,0,2,.34,5.49,5.49,0,0,0,3.34-3.66,10.6,10.6,0,0,0,.12-5.1,21.09,21.09,0,0,0-2.37-6.58,19.76,19.76,0,0,1-1.76-3.38,3.78,3.78,0,0,0-.6-1.34c-.16-.2-.31-.14-.53,0a5.71,5.71,0,0,0-.6.31,4.75,4.75,0,0,0-1,.88,5.23,5.23,0,0,0-.78,1.14,5.9,5.9,0,0,0-.51,1.28A1,1,0,0,0,177.9,233.8Z"
             style="fill:#37474f"
             id="path314" />
          <g
             id="freepik--Arm--inject-68">
            <path
               d="M197.26,243.89c-.43.76-.9,1.51-1.38,2.23s-1,1.42-1.52,2.1l-1.46-4.54A6.36,6.36,0,0,1,197.26,243.89Z"
               style="fill:#455a64"
               id="path316" />
          </g>
          <g
             id="freepik--chest--inject-68">
            <path
               d="M195.79,245.5c-.49.72-1,1.42-1.52,2.1s-1,1.18-1.44,1.74l-.72.78a26.19,26.19,0,0,1-5.82,4.69,18.21,18.21,0,0,1-3.19,1.46l-1.06.3a17.6,17.6,0,0,0-1.64-7.22l3.69-2,.08,0c1.93-1.33,3.23-1.09,6.78-2.61.06,0-.43-.28-.37-.31l2.32-.7h0A25.66,25.66,0,0,1,195.79,245.5Z"
               style="fill:#BA68C8"
               id="path319" />
          </g>
          <g
             id="freepik--head--inject-68">
            <path
               d="M184,243.27c-.29-1.08-1.63-1.86-2.89-3.74s-2.9-6.08-.32-8.05c-.47-2.52,1.55-5.62,4.31-6.86,3.63-1.63,7.87-1.41,10.33,1.7a5.67,5.67,0,0,1-.1,7.16Z"
               style="fill:#455a64"
               id="path322" />
            <path
               d="M194.94,239.28a4.91,4.91,0,0,1-1.07,2.12,6.12,6.12,0,0,1-2.92,1.65l0,1,0,.62,0,.66,0,1.12s1.73,2,1.86,3.53l-.72.78a16.62,16.62,0,0,1-8-2.61V248l-.08-1.64-.18-4,0-1.12a1,1,0,0,1-.18.42,1.64,1.64,0,0,1-.6.49,1.66,1.66,0,0,1-1.45.08l-.11,0a.55.55,0,0,1-.15-.08l-.12-.07-.1-.07h0l-.1-.08a2.88,2.88,0,0,1-.86-3.34c.35-.84,1.31-1.59,2-1.31s.82.74,1.14,1.26,1.79-1.06.77-3.72a4.81,4.81,0,0,0,1.47-4.27c.53-1.93,4.12-2.17,4.75-1.44.52-1.22.46-2,1.48-1.64s2.72,1,3.32,5.2A17.49,17.49,0,0,1,194.94,239.28Z"
               style="fill:#ffa8a7"
               id="path324" />
            <path
               d="M188.62,238.88l2.14.06a1.41,1.41,0,0,1-1.4,1.24C188.77,240.14,188.52,239.59,188.62,238.88Z"
               style="fill:#b16668"
               id="path326" />
            <path
               d="M190,240.05a.92.92,0,0,0-1.25-.76l-.1.05a.81.81,0,0,0,.75.84A1.06,1.06,0,0,0,190,240.05Z"
               style="fill:#f28f8f"
               id="path328" />
            <polygon
               points="190.61 233.25 191.1 237.43 193.1 236.07 190.61 233.25"
               style="fill:#f28f8f"
               id="polygon330" />
            <path
               d="M192.78,233.45a.55.55,0,0,0,.68.59.92.92,0,0,0,.69-.87.55.55,0,0,0-.67-.59A.94.94,0,0,0,192.78,233.45Z"
               style="fill:#263238"
               id="path332" />
            <path
               d="M187.82,235.13a.56.56,0,0,0,.68.59.93.93,0,0,0,.7-.87.56.56,0,0,0-.68-.59A.94.94,0,0,0,187.82,235.13Z"
               style="fill:#263238"
               id="path334" />
            <path
               d="M191,243.05a9.52,9.52,0,0,1-4.27-.2,4.2,4.2,0,0,1-2-1.66s-.15,1.35,1.87,2.3A11.43,11.43,0,0,0,191,244Z"
               style="fill:#f28f8f"
               id="path336" />
            <path
               d="M194.08,231.39l-1.53.09a1.25,1.25,0,0,1,1-.9C194,230.56,194.21,230.92,194.08,231.39Z"
               style="fill:#263238"
               id="path338" />
            <path
               d="M189,232.74l-1.67,1.11a1.18,1.18,0,0,1,.57-1.25C188.38,232.29,188.87,232.36,189,232.74Z"
               style="fill:#263238"
               id="path340" />
            <path
               d="M191.86,227.23c.3,1.66-1.64,5.51-4.23,7.26s-4.27,1.41-4.27,1.41-.3-5.31,2.28-7.31S191.86,227.23,191.86,227.23Z"
               style="fill:#455a64"
               id="path342" />
          </g>
          <g
             id="freepik--arm--inject-68">
            <path
               d="M183.19,256.88c-.36.12-.71.22-1.06.3a9.21,9.21,0,0,1-5.46-.16,5.75,5.75,0,0,1-1.69-1.34c1.87-4.44,2.87-5.28,5.42-6.33h0C182.13,250.62,182.9,254.93,183.19,256.88Z"
               style="fill:#455a64"
               id="path345" />
          </g>
        </g>
        <path
           d="M193.21,218.84h0c4.7,0,7.62,3.86,7.62,10.08a30.22,30.22,0,0,1-4.31,14.56c-.41.73-.87,1.46-1.34,2.17s-1,1.39-1.49,2-.94,1.18-1.41,1.7c-.22.25-.46.51-.69.75a25.16,25.16,0,0,1-5.64,4.54,16,16,0,0,1-3,1.39c-.34.11-.67.21-1,.28a10.25,10.25,0,0,1-2.39.31,7.19,7.19,0,0,1-2.57-.45c-3.21-1.18-5.05-4.69-5.05-9.63,0-9.47,6.67-21,14.88-25.77a13.23,13.23,0,0,1,6.41-2m0-.84a13.82,13.82,0,0,0-6.83,2.09c-8.46,4.88-15.31,16.74-15.31,26.5,0,5.5,2.18,9.16,5.6,10.43a8.35,8.35,0,0,0,2.87.49,11,11,0,0,0,2.59-.33c.35-.08.7-.18,1.06-.3a17.74,17.74,0,0,0,3.19-1.45,26.41,26.41,0,0,0,5.82-4.69l.72-.78q.74-.84,1.44-1.74c.53-.68,1-1.38,1.52-2.1s1-1.47,1.38-2.23a31.18,31.18,0,0,0,4.42-15c0-6.92-3.45-10.92-8.47-10.92Z"
           style="fill:#BA68C8"
           id="path349" />
      </g>
      <path
         d="M242.63,203.78l-34.85,20.13c-1.49.85-2.7-.06-2.7-2h0a6.45,6.45,0,0,1,2.7-5.15l34.85-20.12c1.49-.86,2.7.05,2.7,2h0A6.45,6.45,0,0,1,242.63,203.78Z"
         style="fill:#e0e0e0"
         id="path353" />
      <path
         d="M225,222.87l-18.5,10.68c-.79.45-1.43,0-1.43-1.09h0a3.43,3.43,0,0,1,1.43-2.73L225,219.05c.79-.45,1.43,0,1.43,1.08h0A3.43,3.43,0,0,1,225,222.87Z"
         style="fill:#e0e0e0"
         id="path355" />
      <g
         id="freepik--button--inject-68">
        <path
           d="M284.93,188.27l-29.29,16.92c-1,.57-1.79,0-1.79-1.35V192.5a4.26,4.26,0,0,1,1.79-3.41l29.29-16.91c1-.57,1.78,0,1.78,1.35v11.33A4.28,4.28,0,0,1,284.93,188.27Z"
           style="fill:#BA68C8"
           id="path357" />
        <path
           d="M266.86,194.53c-.16-1.78-1.35-2.51-2.76-1.69l-1.69,1a6.62,6.62,0,0,0-2.76,4.88l-.07.86a13.33,13.33,0,0,0,7.34-4.24Zm-3.61-2.07a4.69,4.69,0,0,0,1.95-3.73c0-1.44-.87-2.1-1.95-1.48A4.66,4.66,0,0,0,261.3,191C261.3,192.42,262.17,193.08,263.25,192.46Zm-2.92.75c0-.19-.12-.28-.27-.2l-1.05.61v-1.4c0-.2-.12-.29-.27-.2a.64.64,0,0,0-.26.5v1.4l-1.05.61a.62.62,0,0,0-.27.51c0,.19.12.28.27.2l1.05-.61V196c0,.19.12.28.26.2a.62.62,0,0,0,.27-.51v-1.4l1.05-.6A.64.64,0,0,0,260.33,193.21Z"
           style="fill:#fafafa"
           id="path359" />
        <path
           d="M271.51,184.61c.08-.05.14-.05.18,0a.46.46,0,0,1,.1.19l1.78,5.09v.06a.59.59,0,0,1-.05.22.45.45,0,0,1-.14.16l-.53.3c-.09,0-.16.07-.2,0a.28.28,0,0,1-.08-.11l-.31-.89L270,191l-.31,1.26a.75.75,0,0,1-.08.2.43.43,0,0,1-.2.2l-.52.3a.14.14,0,0,1-.14,0,.18.18,0,0,1-.06-.15.22.22,0,0,1,0-.08l1.78-7.14a1.41,1.41,0,0,1,.1-.31.42.42,0,0,1,.17-.18Zm.4,4-.8-2.3-.8,3.22Z"
           style="fill:#fafafa"
           id="path361" />
        <path
           d="M275.58,183.9a1.83,1.83,0,0,1,.4-.17.88.88,0,0,1,.31,0,.52.52,0,0,1,.23.05l.15.1v-2.06a.49.49,0,0,1,.06-.22.41.41,0,0,1,.14-.15l.55-.32a.12.12,0,0,1,.14,0,.16.16,0,0,1,.06.15v6.35a.42.42,0,0,1-.06.21.38.38,0,0,1-.14.16l-.55.32a.12.12,0,0,1-.14,0,.18.18,0,0,1-.06-.15v-.22a2.72,2.72,0,0,1-.15.28,2.79,2.79,0,0,1-.23.32,2.33,2.33,0,0,1-.31.32,2,2,0,0,1-.4.29,1.14,1.14,0,0,1-.66.19.76.76,0,0,1-.5-.21,1.31,1.31,0,0,1-.33-.54,2.65,2.65,0,0,1-.13-.78,3.22,3.22,0,0,1,0-.33c0-.13,0-.24,0-.34a4.43,4.43,0,0,1,.13-.94,4.7,4.7,0,0,1,.33-.91,3.85,3.85,0,0,1,.5-.8A2.53,2.53,0,0,1,275.58,183.9Zm-.68,2.74a4.86,4.86,0,0,0,0,.54c0,.4.13.65.29.74a.63.63,0,0,0,.61-.07,1.72,1.72,0,0,0,.59-.63,2,2,0,0,0,.28-1,3.57,3.57,0,0,0,0-.37,3.21,3.21,0,0,0,0-.36.73.73,0,0,0-.28-.63.54.54,0,0,0-.59.05,1.76,1.76,0,0,0-.61.63A2.42,2.42,0,0,0,274.9,186.64Z"
           style="fill:#fafafa"
           id="path363" />
        <path
           d="M280.07,181.31a1.49,1.49,0,0,1,.41-.17.88.88,0,0,1,.31,0,.77.77,0,0,1,.23.06.56.56,0,0,1,.15.1V179.2a.43.43,0,0,1,.06-.22.32.32,0,0,1,.14-.16l.55-.32a.1.1,0,0,1,.13,0,.18.18,0,0,1,.06.15V185a.46.46,0,0,1-.06.22.35.35,0,0,1-.13.16l-.55.32a.12.12,0,0,1-.14,0,.18.18,0,0,1-.06-.15v-.23c0,.08-.09.18-.15.28a3.19,3.19,0,0,1-.23.32c-.09.11-.2.22-.31.33a3.3,3.3,0,0,1-.41.29,1.19,1.19,0,0,1-.65.19.79.79,0,0,1-.51-.22,1.29,1.29,0,0,1-.32-.53,2.64,2.64,0,0,1-.14-.78v-.68a4.46,4.46,0,0,1,.14-.93,5.55,5.55,0,0,1,.32-.92,3.82,3.82,0,0,1,.51-.79A2.32,2.32,0,0,1,280.07,181.31ZM279.4,184a2.53,2.53,0,0,0,0,.55c0,.4.12.64.29.73a.59.59,0,0,0,.6-.07,1.59,1.59,0,0,0,.6-.63,2.29,2.29,0,0,0,.28-1c0-.1,0-.23,0-.38s0-.27,0-.36a.78.78,0,0,0-.28-.63.56.56,0,0,0-.6.06,1.56,1.56,0,0,0-.6.62A2.37,2.37,0,0,0,279.4,184Z"
           style="fill:#fafafa"
           id="path365" />
      </g>
      <path
         d="M173.16,272.25a1,1,0,0,1-.53-1.95l113.56-65.56a1,1,0,1,1,1.05,1.81L173.68,272.11A1,1,0,0,1,173.16,272.25Z"
         style="fill:#f0f0f0"
         id="path368" />
      <g
         id="g404">
        <path
           d="M201.68,281.18a31.18,31.18,0,0,1-4.42,15c-.43.76-.9,1.51-1.38,2.23s-1,1.42-1.52,2.1-1,1.18-1.44,1.73q-.36.41-.72.78a26.41,26.41,0,0,1-5.82,4.69,17.14,17.14,0,0,1-3.19,1.46c-.36.12-.71.22-1.06.3a9.12,9.12,0,0,1-5.46-.17c-3.42-1.26-5.59-4.92-5.6-10.42,0-9.76,6.85-21.62,15.31-26.5S201.68,271.42,201.68,281.18Z"
           style="fill:#fafafa"
           id="path370" />
        <g
           id="g400">
          <path
             d="M194.6,299.32c-.22.32-.43.65-.66,1s-.55.78-.82,1.17l-1.45-4.51c3-.92,3.58-.53,4.44-.16-.29.58-1,1.77-1.44,2.42Z"
             style="fill:#BA68C8"
             id="path372" />
          <path
             d="M194,300.29c-.28.39-.55.77-.84,1.16,0,0,0,.05-.05.08-.48.64-1,1.25-1.47,1.85l-.72.83-.55.6h0a24.23,24.23,0,0,1-3.93,2.86,18.29,18.29,0,0,1-3.19,1.47c-.36.11-.71.21-1.06.29a11.22,11.22,0,0,1-1.46.26,9,9,0,0,1-2.65-.06,2.62,2.62,0,0,0,0-.28c-.29-6.12,1.82-7.7,1.85-7.71s.87-.42,1.37-.64c1-.46,8.13-1.77,8.13-1.77l2.31-2.3a7.68,7.68,0,0,1,3.26,1.85S194.48,299.49,194,300.29Z"
             style="fill:#455a64"
             id="path374" />
          <path
             d="M183.89,297.9c-1.69,1.86-5.85,1.45-6.27-1.3,0-.91.65-1.78.48-2.68s-1.12-1.44-1.57-2.24a2.27,2.27,0,0,1,.13-2.37c.49-.68,1.37-1.12,1.51-1.94s-.57-1.86-.13-2.78a4.29,4.29,0,0,1,2.69-2.48c1.26-3.44,4.19-6.54,8-6.95,4.22-.64,8.92,2.82,8.25,7.33-.19,1.26-1.25,2.48-.73,3.78.67,1.13,2.16,2.16,1,3.58-.41.52-1.1.8-1.39,1.39a6.26,6.26,0,0,0-.22,1.85c-.2.93-.65,2.13-1.54,2.46s-2,0-2.77.28-.61,1-2.74,1.11c-1.12.08-1.84-.46-3-.15A9.41,9.41,0,0,0,183.89,297.9Z"
             style="fill:#263238"
             id="path376" />
          <path
             d="M183.75,298.62l-.55-4.53a1.89,1.89,0,0,1-2.38.25,2.83,2.83,0,0,1-1-3.76,2,2,0,0,1,3.33-.38c1.16-.07,1.52-1.93.54-3.42,0,0-.46-3.2,1.64-4.59,1.6-1.05,2.7-.6,4.5-.57,1.31-.47,1.44-2.36,3.12-2.09a5.94,5.94,0,0,1,1.44,5,9.36,9.36,0,0,0,.42,1.88c.67,3-.46,6.44-1.71,7.45a7.38,7.38,0,0,1-3.13,1.58l.14,1.26h0c.06.63.21.61.74.47l.79-.2s1.07,1.64-2.68,3.36c-5.59,2.56-7.76.71-7.76.71l1.29-.6A1.73,1.73,0,0,0,183.75,298.62Z"
             style="fill:#b16668"
             id="path378" />
          <path
             d="M188.3,291.22l2.07,0a1.41,1.41,0,0,1-1.28,1.18C188.52,292.44,188.16,291.89,188.3,291.22Z"
             style="fill:#9a4a4d"
             id="path380" />
          <path
             d="M188.46,291.68a.91.91,0,0,1,1.23.59,1,1,0,0,1-.6.18.83.83,0,0,1-.79-.7A.46.46,0,0,1,188.46,291.68Z"
             style="fill:#f28f8f"
             id="path382" />
          <path
             d="M193.22,282.75l-1.55-.23a1,1,0,0,1,1-.8A.76.76,0,0,1,193.22,282.75Z"
             style="fill:#263238"
             id="path384" />
          <path
             d="M186.49,285.57l1.41-1.3a.7.7,0,0,0-1.12,0A1.11,1.11,0,0,0,186.49,285.57Z"
             style="fill:#263238"
             id="path386" />
          <path
             d="M192.15,285.4a.56.56,0,0,0,.68.59.94.94,0,0,0,.7-.87.56.56,0,0,0-.68-.59A.94.94,0,0,0,192.15,285.4Z"
             style="fill:#263238"
             id="path388" />
          <path
             d="M187.22,287.51a.55.55,0,0,0,.67.59.94.94,0,0,0,.7-.87.55.55,0,0,0-.68-.59A.92.92,0,0,0,187.22,287.51Z"
             style="fill:#263238"
             id="path390" />
          <path
             d="M190,295.41c-2.62.53-5.17.42-5.83-.65,0,0,.07,1.37,1.17,1.69a15,15,0,0,0,4.76-.09Z"
             style="fill:#9a4a4d"
             id="path392" />
          <path
             d="M181.75,289.46a1.93,1.93,0,0,1,.82.22l1.7-1.39.09-.07.16.11a.57.57,0,0,1,.13.2,7.42,7.42,0,0,0,.56,1.53,1.22,1.22,0,0,0,.49.42l.23.08.14,0a1.82,1.82,0,0,0,.4,0h.06l.11,0,.11,0a1.9,1.9,0,0,0,.34-.11l.14-.05.19-.08a3.94,3.94,0,0,0,2.23-2.37c.3-.81.13-1.69.78-2l.06,0,.06,0c.48-.11.5.76.84,1.23a1.5,1.5,0,0,0,.52.45l.12.06.06,0h.06l.06,0h.15a1.94,1.94,0,0,0,.57-.05H193a3.94,3.94,0,0,0,.69-.25,3.45,3.45,0,0,0,1.19-.86,3.2,3.2,0,0,0,.69-1.26,12.49,12.49,0,0,0,.26-1.9,1.1,1.1,0,0,1,.1-.29,1.7,1.7,0,0,0,.25-.77c0-.28-.22-.45-.4-.39l-.32.11c-.34.13-.71.27-1.08.43a10.41,10.41,0,0,0-2.11,1.16,16.93,16.93,0,0,1-1.89,1.53,11.1,11.1,0,0,1-2.13.33,13.93,13.93,0,0,0-3.42,1.49l-.35.2-.39.34Zm9.86-4.52a4.81,4.81,0,0,1,1.65-1.47c.17-.1.33-.19.48-.26l.06,0s0,0,.06,0l.17-.07.06,0,.07,0,.14,0,.13,0a.35.35,0,0,1,.11,0h.18l.07,0h.13a.64.64,0,0,1,.27,0c.24.1.19,1.05.13,1.55a3.37,3.37,0,0,1-.57,1.58,2.36,2.36,0,0,1-.3.34,2.83,2.83,0,0,1-.77.53c-.82.39-1.32.28-1.61,0h0l0,0,0,0,0,0,0,0-.05-.07,0,0v0l0,0v0a1.45,1.45,0,0,1-.13-.29A2,2,0,0,1,191.61,284.94Zm-6.4,2.58a4.16,4.16,0,0,1,1.9-1.2l.11-.05.48-.14.19,0a4.8,4.8,0,0,1,.48-.08h.39a.69.69,0,0,1,.34.09c.23.18.21.8.14,1.36a2.87,2.87,0,0,1-.42,1.14,3.3,3.3,0,0,1-1.48,1.23c-.77.34-1.23.25-1.53,0l-.05,0,0-.05,0,0,0,0,0,0,0,0s0,0,0-.06l-.09-.16a.31.31,0,0,0-.05-.1l-.06-.16v-.06C185.18,288.67,185,287.84,185.21,287.52Z"
             style="fill:#455a64"
             id="path394" />
          <path
             d="M192.74,288l-2.19,1.48-.69-2.56c.08-.46.18-.85.57-1l.06,0,.06,0h0Z"
             style="fill:#9a4a4d"
             id="path396" />
          <path
             d="M180.67,309.7a9,9,0,0,1-2.65-.06,7.59,7.59,0,0,1-1.34-.37,7,7,0,0,1-1.9-1c1.86-5,2.17-5.42,5.08-6.58h0C182.23,303.92,181.11,308.26,180.67,309.7Z"
             style="fill:#BA68C8"
             id="path398" />
        </g>
        <path
           d="M193.21,271.1h0c4.7,0,7.62,3.86,7.62,10.08a30.22,30.22,0,0,1-4.31,14.56c-.41.73-.87,1.46-1.34,2.17s-1,1.39-1.49,2-.94,1.17-1.41,1.69c-.23.26-.46.52-.69.76A25.16,25.16,0,0,1,186,307a16,16,0,0,1-3,1.39c-.34.11-.67.21-1,.28a10.25,10.25,0,0,1-2.39.31,7.19,7.19,0,0,1-2.57-.45c-3.21-1.18-5.05-4.7-5.05-9.63,0-9.47,6.67-21,14.88-25.77a13.23,13.23,0,0,1,6.41-2m0-.84a13.82,13.82,0,0,0-6.83,2.09c-8.46,4.88-15.31,16.74-15.31,26.5,0,5.5,2.18,9.16,5.6,10.42a8.12,8.12,0,0,0,2.87.5,11,11,0,0,0,2.59-.33c.35-.08.7-.18,1.06-.3a17.14,17.14,0,0,0,3.19-1.46A26.41,26.41,0,0,0,192.2,303q.36-.37.72-.78c.49-.55,1-1.13,1.44-1.73s1-1.38,1.52-2.1,1-1.47,1.38-2.23a31.18,31.18,0,0,0,4.42-15c0-6.92-3.45-10.92-8.47-10.92Z"
           style="fill:#BA68C8"
           id="path402" />
      </g>
      <path
         d="M242.63,256.12l-34.85,20.12c-1.49.86-2.7-.05-2.7-2h0a6.46,6.46,0,0,1,2.7-5.15l34.85-20.12c1.49-.86,2.7,0,2.7,2h0A6.46,6.46,0,0,1,242.63,256.12Z"
         style="fill:#e0e0e0"
         id="path406" />
      <path
         d="M225,275.2l-18.5,10.68c-.79.46-1.43,0-1.43-1.08h0a3.42,3.42,0,0,1,1.43-2.73L225,271.39c.79-.46,1.43,0,1.43,1.08h0A3.42,3.42,0,0,1,225,275.2Z"
         style="fill:#e0e0e0"
         id="path408" />
      <g
         id="g420">
        <path
           d="M284.93,240.61l-29.29,16.91c-1,.57-1.79,0-1.79-1.35V244.84a4.28,4.28,0,0,1,1.79-3.42l29.29-16.91c1-.57,1.78,0,1.78,1.35V237.2A4.29,4.29,0,0,1,284.93,240.61Z"
           style="fill:#BA68C8"
           id="path410" />
        <path
           d="M266.86,246.87c-.16-1.78-1.35-2.52-2.76-1.7l-1.69,1a6.6,6.6,0,0,0-2.76,4.88l-.07.85a13.28,13.28,0,0,0,7.34-4.24Zm-3.61-2.08a4.66,4.66,0,0,0,1.95-3.73c0-1.43-.87-2.09-1.95-1.47a4.66,4.66,0,0,0-1.95,3.73C261.3,244.75,262.17,245.41,263.25,244.79Zm-2.92.76c0-.2-.12-.29-.27-.2L259,246v-1.4c0-.19-.12-.28-.27-.2a.66.66,0,0,0-.26.51v1.4l-1.05.61a.62.62,0,0,0-.27.5c0,.2.12.29.27.2l1.05-.61v1.41c0,.19.12.28.26.2a.64.64,0,0,0,.27-.51v-1.4l1.05-.61A.62.62,0,0,0,260.33,245.55Z"
           style="fill:#fafafa"
           id="path412" />
        <path
           d="M271.51,236.94c.08,0,.14-.05.18,0a.65.65,0,0,1,.1.19l1.78,5.09v.07a.63.63,0,0,1-.05.22.41.41,0,0,1-.14.15l-.53.3c-.09.06-.16.07-.2,0a.28.28,0,0,1-.08-.11l-.31-.9L270,243.3l-.31,1.25a.8.8,0,0,1-.08.21.54.54,0,0,1-.2.2l-.52.3a.12.12,0,0,1-.14,0,.18.18,0,0,1-.06-.15.17.17,0,0,1,0-.07l1.78-7.15a1.31,1.31,0,0,1,.1-.3.52.52,0,0,1,.17-.19Zm.4,4-.8-2.3-.8,3.23Z"
           style="fill:#fafafa"
           id="path414" />
        <path
           d="M275.58,236.24a1.45,1.45,0,0,1,.4-.17,1.25,1.25,0,0,1,.31,0,.7.7,0,0,1,.23.06.44.44,0,0,1,.15.1v-2.06a.46.46,0,0,1,.06-.22.45.45,0,0,1,.14-.16l.55-.32a.12.12,0,0,1,.14,0,.18.18,0,0,1,.06.15v6.35a.46.46,0,0,1-.06.22.45.45,0,0,1-.14.16l-.55.32a.12.12,0,0,1-.14,0,.18.18,0,0,1-.06-.15v-.22a1.92,1.92,0,0,1-.15.27,2.13,2.13,0,0,1-.23.32,3.13,3.13,0,0,1-.31.33,2.41,2.41,0,0,1-.4.29,1.22,1.22,0,0,1-.66.19.76.76,0,0,1-.5-.21,1.31,1.31,0,0,1-.33-.54,2.65,2.65,0,0,1-.13-.78c0-.09,0-.21,0-.34s0-.24,0-.34a4.43,4.43,0,0,1,.13-.93,4.79,4.79,0,0,1,.33-.92,3.78,3.78,0,0,1,.5-.79A2.36,2.36,0,0,1,275.58,236.24ZM274.9,239a5,5,0,0,0,0,.55c0,.4.13.65.29.73a.6.6,0,0,0,.61-.07,1.61,1.61,0,0,0,.59-.62,2.11,2.11,0,0,0,.28-1,3.79,3.79,0,0,0,0-.38,3.53,3.53,0,0,0,0-.36.73.73,0,0,0-.28-.63.54.54,0,0,0-.59.06,1.65,1.65,0,0,0-.61.62A2.5,2.5,0,0,0,274.9,239Z"
           style="fill:#fafafa"
           id="path416" />
        <path
           d="M280.07,233.65a1.56,1.56,0,0,1,.41-.18.86.86,0,0,1,.31,0,.56.56,0,0,1,.23.05l.15.1v-2.06a.49.49,0,0,1,.06-.22.34.34,0,0,1,.14-.15l.55-.32a.1.1,0,0,1,.13,0,.18.18,0,0,1,.06.15v6.35a.49.49,0,0,1-.06.22.32.32,0,0,1-.13.15l-.55.32a.12.12,0,0,1-.14,0,.18.18,0,0,1-.06-.15v-.22l-.15.28c-.07.1-.14.21-.23.32a3.11,3.11,0,0,1-.31.32,2,2,0,0,1-.41.29,1.11,1.11,0,0,1-.65.19.78.78,0,0,1-.51-.21,1.41,1.41,0,0,1-.32-.54,2.53,2.53,0,0,1-.14-.78v-.67a4.45,4.45,0,0,1,.14-.94,5.44,5.44,0,0,1,.32-.91,3.89,3.89,0,0,1,.51-.8A2.45,2.45,0,0,1,280.07,233.65Zm-.67,2.73a2.44,2.44,0,0,0,0,.54c0,.4.12.65.29.74a.61.61,0,0,0,.6-.07,1.66,1.66,0,0,0,.6-.63,2.29,2.29,0,0,0,.28-1c0-.11,0-.23,0-.38s0-.27,0-.36a.78.78,0,0,0-.28-.63.58.58,0,0,0-.6.05,1.66,1.66,0,0,0-.6.63A2.33,2.33,0,0,0,279.4,236.38Z"
           style="fill:#fafafa"
           id="path418" />
      </g>
      <path
         d="M173.16,324.59a1.05,1.05,0,0,1-.53-2l113.56-65.56a1.05,1.05,0,0,1,1.05,1.82L173.68,324.45A1.07,1.07,0,0,1,173.16,324.59Z"
         style="fill:#f0f0f0"
         id="path422" />
      <path
         d="M231.81,305.46a4.5,4.5,0,0,1-1.87,3.58c-1,.6-1.88,0-1.88-1.42a4.48,4.48,0,0,1,1.88-3.58C231,303.45,231.81,304.08,231.81,305.46Z"
         style="fill:#e0e0e0"
         id="path424" />
      <path
         d="M242.05,299.55a4.5,4.5,0,0,1-1.87,3.58c-1,.6-1.88,0-1.88-1.42a4.48,4.48,0,0,1,1.88-3.58C241.21,297.53,242.05,298.17,242.05,299.55Z"
         style="fill:#e0e0e0"
         id="path426" />
      <path
         d="M217.82,313.54c0,1.38.84,2,1.88,1.41a4.5,4.5,0,0,0,1.87-3.58c0-1.38-.84-2-1.87-1.42A4.5,4.5,0,0,0,217.82,313.54Z"
         style="fill:#e0e0e0"
         id="path428" />
    </g>
  </g>
  <g
     id="freepik--Icon--inject-68"
     transform="translate(21.4,180.01)">
    <g
       id="freepik--icon--inject-68">
      <path
         d="m 107.57,59.1 -10.35,-6 v 0 c -6.35,-3.58 -15.07,-3 -24.71,2.54 -19.4,11.2 -35.13,38.45 -35.13,60.86 0,11.18 3.92,19 10.26,22.72 v 0 L 58,145.18 c 6.4,4.07 15.43,3.7 25.45,-2.08 19.4,-11.2 35.13,-38.45 35.13,-60.86 0.04,-11.64 -4.21,-19.67 -11.01,-23.14 z"
         style="fill:#f0f0f0"
         id="path432" />
      <path
         d="m 38.71,104.69 a 56.56,56.56 0 0 0 -1.33,11.81 c 0,11.18 3.92,19 10.26,22.72 v 0 l 10.4,6 3.11,-5.2 8.72,-17.3 z"
         style="fill:#e0e0e0"
         id="path434" />
      <path
         d="M 67.79,146.7 C 56.54,146.7 49.54,137.55 49.54,122.81 49.54,100.82 65,74 84.09,63 89.42,59.93 94.5,58.36 99.18,58.36 a 16.18,16.18 0 0 1 13.11,6.14 c 3.36,4.21 5.14,10.35 5.14,17.75 0,22 -15.5,48.83 -34.54,59.83 -5.33,3.07 -10.41,4.63 -15.1,4.63 z"
         style="fill:#fafafa"
         id="path436" />
      <path
         d="m 99.18,59.55 a 15,15 0 0 1 12.18,5.68 c 3.19,4 4.87,9.88 4.87,17 0,21.61 -15.22,48 -33.94,58.79 -5.07,2.93 -10.09,4.48 -14.5,4.48 a 15,15 0 0 1 -12.17,-5.68 c -3.19,-4 -4.88,-9.88 -4.88,-17 0,-21.62 15.23,-48 33.94,-58.79 5.08,-2.93 10.09,-4.48 14.5,-4.48 m 0,-2.39 c -4.72,0 -10.05,1.54 -15.69,4.8 -19.41,11.2 -35.14,38.45 -35.14,60.86 0,15.89 7.92,25.08 19.44,25.08 4.73,0 10.06,-1.54 15.7,-4.8 19.4,-11.2 35.13,-38.45 35.13,-60.86 0,-15.89 -7.91,-25.08 -19.44,-25.08 z"
         style="fill:#e0e0e0"
         id="path438" />
      <path
         d="m 83.48,100.31 c 5.23,-3 9.48,-11.13 9.48,-18.12 C 92.96,75.2 88.71,72 83.48,75 78.25,78 74,86.16 74,93.14 c 0,6.98 4.24,10.2 9.48,7.17 z M 101,110.4 c -0.77,-8.66 -6.54,-12.21 -13.41,-8.25 l -8.2,4.74 c -6.88,4 -12.65,14.18 -13.42,23.73 l -0.26,5.73 a 11.19,11.19 0 0 0 4.29,0.8 22.91,22.91 0 0 0 11.09,-3.49 c 7.78,-4.49 15,-12.55 20,-21.68 z"
         style="fill:#ba68c8"
         id="path440" />
      <g
         id="freepik--Plus--inject-68">
        <path
           d="m 67.76,126.73 -5,-2.88 v 0 0 0 c -2.41,-1.36 -5.72,-1.16 -9.38,1 C 46,129 40,139.4 40,147.91 c 0,4.25 1.49,7.24 3.9,8.64 v 0 l 5,2.88 c 2.44,1.55 5.87,1.41 9.67,-0.79 C 66,154.39 72,144 72,135.52 c 0,-4.42 -1.65,-7.47 -4.24,-8.79 z"
           style="fill:#455a64"
           id="path442" />
        <path
           d="m 40.51,143.43 a 21.88,21.88 0 0 0 -0.5,4.48 c 0,4.25 1.49,7.24 3.9,8.64 v 0 l 5,2.89 1.18,-2 3.31,-6.57 z"
           style="fill:#263238"
           id="path444" />
        <path
           d="m 58.62,127.82 c -7.38,4.25 -13.36,14.61 -13.36,23.12 0,8.51 6,12 13.35,7.71 C 65.96,154.36 72,144 72,135.52 c 0,-8.48 -6,-11.96 -13.38,-7.7 z"
           style="fill:#37474f"
           id="path446" />
        <path
           d="m 66.52,138.67 c 0,-1.18 -0.71,-1.72 -1.6,-1.21 l -4.71,2.72 v -6.28 c 0,-1.18 -0.71,-1.72 -1.6,-1.21 A 3.83,3.83 0 0 0 57,135.74 V 142 l -4.71,2.73 a 3.8,3.8 0 0 0 -1.6,3.05 c 0,1.17 0.71,1.71 1.6,1.2 l 4.71,-2.7 v 6.29 c 0,1.17 0.71,1.71 1.59,1.2 a 3.8,3.8 0 0 0 1.6,-3.05 v -6.28 l 4.71,-2.72 a 3.81,3.81 0 0 0 1.62,-3.05 z"
           style="fill:#fafafa"
           id="path448" />
      </g>
    </g>
  </g>
  <g
     id="g576"
     transform="translate(201.77921,61.043784)">
    <g
       id="g574">
      <g
         id="g570">
        <path
           d="m 363.26,77.17 c 8.14,-7.08 8.58,-19.42 2.6,-28.54 -4.13,-6.29 -12.11,-9.94 -21.81,-9.94 -9.7,0 -18.47,3.59 -23.68,9.74 a 21.44,21.44 0 0 0 -1.93,24.46 c 4.57,8 21.21,15.28 38.07,8.25 l 9,4.56 a 0.66,0.66 0 0 0 0.91,-0.85 z"
           style="fill:#ffffff"
           id="path566" />
        <path
           d="m 365.81,86.16 a 1,1 0 0 1 -0.48,-0.12 l -8.83,-4.47 c -16.82,6.92 -33.68,-0.26 -38.39,-8.49 a 21.85,21.85 0 0 1 2,-24.9 c 5.24,-6.18 14.2,-9.88 24,-9.88 9.8,0 17.89,3.7 22.07,10.12 6.3,9.61 5.23,22 -2.46,28.86 l 3.06,7.43 a 1,1 0 0 1 -0.26,1.17 1.06,1.06 0 0 1 -0.71,0.28 z m -9.28,-5.44 9.15,4.63 a 0.27,0.27 0 0 0 0.31,0 0.25,0.25 0 0 0 0.07,-0.31 l -3.26,-7.94 0.21,-0.18 c 7.58,-6.61 8.67,-18.66 2.53,-28 -4.07,-6.21 -11.9,-9.77 -21.49,-9.77 -9.59,0 -18.3,3.59 -23.39,9.6 a 21.08,21.08 0 0 0 -1.88,24 c 4.58,8 21.1,15 37.59,8.09 z"
           style="fill:#ba68c8"
           id="path568" />
      </g>
      <path
         d="m 355.26,69.75 a 8.86,8.86 0 0 0 -8.81,-7.88 h -5.39 a 8.85,8.85 0 0 0 -8.8,7.88 l -0.22,2 q 13,3.83 23.44,0 z m -11.5,-10 a 6.23,6.23 0 1 0 -6.23,-6.23 6.23,6.23 0 0 0 6.23,6.28 z M 335.43,58 a 1,1 0 0 0 -1,-1 h -2.84 v -2.81 a 1,1 0 1 0 -1.93,0 V 57 h -2.84 a 1,1 0 1 0 0,1.92 h 2.84 v 2.84 a 1,1 0 0 0 1.93,0 V 59 h 2.84 a 1,1 0 0 0 1,-1 z"
         style="fill:#455a64"
         id="path572" />
    </g>
  </g>
</svg>
