<?xml version="1.0" encoding="UTF-8" standalone="no"?>
<svg
   viewBox="0 0 500 500"
   version="1.1"
   id="svg656"
   sodipodi:docname="125.svg"
   inkscape:version="1.1.2 (0a00cf5339, 2022-02-04)"
   xmlns:inkscape="http://www.inkscape.org/namespaces/inkscape"
   xmlns:sodipodi="http://sodipodi.sourceforge.net/DTD/sodipodi-0.dtd"
   xmlns="http://www.w3.org/2000/svg"
   xmlns:svg="http://www.w3.org/2000/svg">
  <defs
     id="defs660" />
  <sodipodi:namedview
     id="namedview658"
     pagecolor="#ffffff"
     bordercolor="#666666"
     borderopacity="1.0"
     inkscape:pageshadow="2"
     inkscape:pageopacity="0.0"
     inkscape:pagecheckerboard="0"
     showgrid="false"
     inkscape:zoom="1.132"
     inkscape:cx="265.45936"
     inkscape:cy="250.4417"
     inkscape:window-width="1478"
     inkscape:window-height="800"
     inkscape:window-x="0"
     inkscape:window-y="0"
     inkscape:window-maximized="1"
     inkscape:current-layer="svg656" />
  <g
     id="freepik--Floor--inject-37">
    <path
       id="freepik--floor--inject-37"
       d="M77.67,441.82c-95.18-54.95-95.18-144,0-199s249.48-55,344.66,0,95.18,144,0,199S172.85,496.77,77.67,441.82Z"
       style="fill:#f5f5f5" />
  </g>
  <g
     id="freepik--Shadows--inject-37">
    <path
       id="freepik--Shadow--inject-37"
       d="M70.7,359.43c10.72,6.19,10.72,16.23,0,22.42s-28.11,6.19-38.84,0-10.72-16.23,0-22.42S60,353.23,70.7,359.43Z"
       style="fill:#e0e0e0" />
    <path
       id="freepik--shadow--inject-37"
       d="M194.32,390.86l6.29,3.63a7.92,7.92,0,0,0,7.19,0l118.38-68.1c2-1.14,2-3,0-4.15l-6.29-3.63a7.92,7.92,0,0,0-7.19,0l-118.38,68.1C192.33,387.86,192.33,389.71,194.32,390.86Z"
       style="fill:#e0e0e0" />
    <path
       id="path6"
       d="M318.62,251.15c-15.54,9-15.54,23.51,0,32.48s40.72,9,56.26,0,15.53-23.51,0-32.48S334.15,242.18,318.62,251.15Z"
       style="fill:#e6e6e6" />
    <path
       id="path8"
       d="M66.19,388.68l6.29,3.64a8,8,0,0,0,7.19,0l138.73-80.1c2-1.14,2-3,0-4.15l-6.3-3.63a7.9,7.9,0,0,0-7.18,0L66.19,384.53C64.2,385.68,64.2,387.54,66.19,388.68Z"
       style="fill:#e0e0e0" />
    <path
       id="path10"
       d="M105,395.55l6.3,3.63a7.9,7.9,0,0,0,7.18,0l118.39-68.1c2-1.14,2-3,0-4.15l-6.3-3.63a7.9,7.9,0,0,0-7.18,0L105,391.4C103,392.55,103,394.4,105,395.55Z"
       style="fill:#e0e0e0" />
    <ellipse
       id="ellipse12"
       cx="405.84"
       cy="339.69"
       rx="82.65"
       ry="47.72"
       style="fill:#e6e6e6" />
  </g>
  <g
     id="freepik--Device--inject-37">
    <g
       id="freepik--Mobile--inject-37">
      <path
         d="M191.27,25.77,74.77,93a11.72,11.72,0,0,0-5.86,9.72V373.64c0,4,2.46,8.63,5.49,10.38s8.29,1.56,11.74-.43l116.11-67a13.86,13.86,0,0,0,6.24-10.82v-270c0-4-2.46-8.63-5.49-10.38S194.72,23.77,191.27,25.77Z"
         style="fill:#BA68C8"
         id="path117" />
      <path
         d="M191.27,25.77,74.77,93a11.72,11.72,0,0,0-5.86,9.72V373.64c0,4,2.46,8.63,5.49,10.38s8.29,1.56,11.74-.43l116.11-67a13.86,13.86,0,0,0,6.24-10.82v-270c0-4-2.46-8.63-5.49-10.38S194.72,23.77,191.27,25.77Z"
         style="opacity:0.05"
         id="path119" />
      <path
         d="M84.65,384.3c-3.34,1.3-7.62,1.24-10.24-.28-3-1.75-5.49-6.4-5.49-10.39V102.76a11.06,11.06,0,0,1,1.58-5.36l10.08,5.72a12.21,12.21,0,0,0-2.91,7.28V378.7C77.66,383.5,80.69,385.77,84.65,384.3Z"
         style="fill:#BA68C8"
         id="path121" />
      <path
         d="M84.65,384.3c-3.34,1.3-7.62,1.24-10.24-.28-3-1.75-5.49-6.4-5.49-10.39V102.76a11.06,11.06,0,0,1,1.58-5.36l10.08,5.72a12.21,12.21,0,0,0-2.91,7.28V378.7C77.66,383.5,80.69,385.77,84.65,384.3Z"
         style="opacity:0.30000000000000004"
         id="path123" />
      <path
         d="M83.17,100.86a12.23,12.23,0,0,0-5.51,9.54V378.71c0,5.38,3.81,7.58,8.47,4.89l116.13-67.05a13.86,13.86,0,0,0,6.24-10.82v-270c0-4-2.81-5.58-6.25-3.6Z"
         style="fill:#BA68C8"
         id="path125" />
      <path
         d="M83.17,100.86a12.23,12.23,0,0,0-5.51,9.54V378.71c0,5.38,3.81,7.58,8.47,4.89l116.13-67.05a13.86,13.86,0,0,0,6.24-10.82v-270c0-4-2.81-5.58-6.25-3.6Z"
         style="opacity:0.15"
         id="path127" />
      <path
         d="M87.45,117a13.11,13.11,0,0,0-5.94,10.28V368.13c0,3.78,2.66,5.32,5.94,3.43l109.69-63.34a13.19,13.19,0,0,0,5.94-10.28V57.1c0-3.77-2.67-5.32-5.93-3.43Z"
         style="fill:#263238"
         id="path129" />
      <path
         d="M194,291.35V55.48L87.45,117a13.11,13.11,0,0,0-5.94,10.28V363.15l106.55-61.52A13.16,13.16,0,0,0,194,291.35Z"
         style="fill:#37474f"
         id="path131" />
      <path
         d="M133.26,79.56l18.07-10.43c1.08-.63,1.95-.18,1.95,1a4.2,4.2,0,0,1-1.95,3.25L133.26,83.79c-1.08.62-1.95.18-1.95-1A4.17,4.17,0,0,1,133.26,79.56Z"
         style="fill:#263238"
         id="path133" />
      <path
         d="M164.26,61.63c1-.58,1.83-.11,1.83,1.06a4,4,0,0,1-1.83,3.17c-1,.58-1.83.11-1.83-1.06A4.07,4.07,0,0,1,164.26,61.63Z"
         style="fill:#263238"
         id="path135" />
      <path
         d="M171.59,57.41c1-.59,1.83-.11,1.83,1.05a4,4,0,0,1-1.83,3.17c-1,.59-1.83.11-1.83-1.05A4,4,0,0,1,171.59,57.41Z"
         style="fill:#263238"
         id="path137" />
      <path
         d="M113,91.24c1-.59,1.83-.11,1.83,1.05A4.07,4.07,0,0,1,113,95.47c-1,.58-1.83.11-1.83-1.06A4,4,0,0,1,113,91.24Z"
         style="fill:#263238"
         id="path139" />
      <path
         d="M120.32,87c1-.58,1.83-.11,1.83,1.06a4,4,0,0,1-1.83,3.17c-1,.58-1.83.11-1.83-1.06A4,4,0,0,1,120.32,87Z"
         style="fill:#263238"
         id="path141" />
    </g>
  </g>
  <g
     id="freepik--light-bulb--inject-5"
     transform="translate(79.74,51.39)">
    <g
       id="freepik--Bulb--inject-5">
      <circle
         cx="169.86"
         cy="198.83"
         r="157.22"
         style="opacity:0.2;fill:#ba68c8"
         id="circle128" />
      <circle
         cx="169.86"
         cy="198.83"
         r="133.39"
         transform="rotate(-45,169.85542,198.82358)"
         style="opacity:0.2;fill:#ba68c8"
         id="circle130" />
      <circle
         cx="169.86"
         cy="198.83"
         r="115.05"
         transform="rotate(-45,169.85542,198.82358)"
         style="opacity:0.2;fill:#ba68c8"
         id="circle132" />
      <circle
         cx="169.86"
         cy="198.83"
         r="100.69"
         transform="rotate(-45,169.85542,198.82358)"
         style="opacity:0.2;fill:#ba68c8"
         id="circle134" />
      <g
         id="freepik--bulb--inject-5">
        <g
           id="freepik--Socket--inject-5">
          <path
             d="m 214,334.34 c -7.33,-0.94 -9.65,-6.46 -5.17,-12.34 4.48,-5.88 14,-9.88 21.36,-8.95 7.36,0.93 9.64,6.46 5.17,12.34 -4.47,5.88 -14.03,9.88 -21.36,8.95 z"
             style="fill:#263238"
             id="path136" />
          <path
             d="m 237.58,320.57 -2.45,1 a 8.09,8.09 0 0 0 -4.45,-1.79 c -6,-0.76 -13.73,2.5 -17.37,7.28 a 8.11,8.11 0 0 0 -1.84,4.43 l -2.45,1 4.68,3.28 v 0 a 8.78,8.78 0 0 0 3.8,1.31 c 6,0.76 13.74,-2.5 17.38,-7.28 a 8.82,8.82 0 0 0 1.73,-3.63 v 0 z"
             style="fill:#ba68c8"
             id="path138" />
          <path
             d="m 237.58,320.57 -2.45,1 a 8.09,8.09 0 0 0 -4.45,-1.79 c -6,-0.76 -13.73,2.5 -17.37,7.28 a 8.11,8.11 0 0 0 -1.84,4.43 l -2.45,1 4.68,3.28 v 0 a 8.78,8.78 0 0 0 3.8,1.31 c 6,0.76 13.74,-2.5 17.38,-7.28 a 8.82,8.82 0 0 0 1.73,-3.63 v 0 z"
             style="opacity:0.4"
             id="path140" />
          <ellipse
             cx="219.24001"
             cy="316.79999"
             rx="24.219999"
             ry="13.98"
             transform="rotate(-22.58,219.25141,316.78492)"
             style="fill:#ba68c8"
             id="ellipse142" />
          <ellipse
             cx="217.87"
             cy="313.5"
             rx="25.120001"
             ry="14.5"
             transform="rotate(-22.58,217.87788,313.48967)"
             style="fill:#ba68c8"
             id="ellipse144" />
          <ellipse
             cx="217.87"
             cy="313.5"
             rx="25.120001"
             ry="14.5"
             transform="rotate(-22.58,217.87788,313.48967)"
             style="opacity:0.2"
             id="ellipse146" />
          <ellipse
             cx="216.39999"
             cy="309.95999"
             rx="25.76"
             ry="14.87"
             transform="rotate(-22.58,216.39407,309.96405)"
             style="fill:#ba68c8"
             id="ellipse148" />
          <ellipse
             cx="214.92999"
             cy="306.42001"
             rx="26.389999"
             ry="15.24"
             transform="rotate(-22.58,214.91527,306.41339)"
             style="fill:#ba68c8"
             id="ellipse150" />
          <ellipse
             cx="214.92999"
             cy="306.42001"
             rx="26.389999"
             ry="15.24"
             transform="rotate(-22.58,214.91527,306.41339)"
             style="opacity:0.2"
             id="ellipse152" />
          <ellipse
             cx="213.46001"
             cy="302.89001"
             rx="27.030001"
             ry="15.6"
             transform="rotate(-22.58,213.45651,302.89277)"
             style="fill:#ba68c8"
             id="ellipse154" />
          <ellipse
             cx="211.98"
             cy="299.35001"
             rx="27.66"
             ry="15.97"
             transform="rotate(-22.58,211.9777,299.34211)"
             style="fill:#37474f"
             id="ellipse156" />
        </g>
        <path
           d="m 136.37,117.48 a 87.06,87.06 0 0 0 -47,113.82 c 26.54,63.81 83.6,52.51 94.3,78.23 1.7,4.1 6.11,7.07 12.83,8 13.43,1.75 31,-5.56 39.22,-16.31 4.12,-5.38 5.12,-10.61 3.42,-14.7 v 0 c -10.7,-25.73 37.55,-58.22 11,-122 A 87.06,87.06 0 0 0 136.37,117.48 Z"
           style="fill:#ba68c8"
           id="path159-3" />
        <path
           d="m 136.37,117.48 a 87.06,87.06 0 0 0 -47,113.82 c 26.54,63.81 83.6,52.51 94.3,78.23 1.7,4.1 6.11,7.07 12.83,8 13.43,1.75 31,-5.56 39.22,-16.31 4.12,-5.38 5.12,-10.61 3.42,-14.7 v 0 c -10.7,-25.73 37.55,-58.22 11,-122 A 87.06,87.06 0 0 0 136.37,117.48 Z"
           style="opacity:0.9;mix-blend-mode:screen;fill:#ffffff"
           id="path161-6" />
        <path
           d="m 190.77,132.92 a 13.72,13.72 0 0 0 -2.12,2.85 c -2.16,3.83 -1.61,8.81 0.65,12.58 4.37,7.3 13.87,9 20.72,13.28 a 74.78,74.78 0 0 1 19.59,17.56 c 1.62,2.08 4.07,5.61 6.15,7.22 a 6.8,6.8 0 0 0 9.12,-0.63 c 2.43,-3 2.42,-7.54 1.59,-10.79 -5,-19.27 -14.34,-31.33 -29.33,-41.51 C 209,127.93 198.5,125 190.77,132.92 Z"
           style="fill:#ffffff"
           id="path163-7" />
        <circle
           cx="163.44"
           cy="182.60001"
           r="62.09"
           transform="rotate(-45,163.44847,182.60743)"
           style="opacity:0.6;fill:#ffffff"
           id="circle165" />
        <path
           d="m 238.88,199.76 a 9.57,9.57 0 0 0 3.84,6.85 5.57,5.57 0 0 0 7.72,-1.32 9,9 0 0 0 0.93,-8.55 c -1.27,-2.93 -4.49,-5.28 -7.89,-4.25 -3.17,0.97 -4.8,4.51 -4.6,7.27 z"
           style="fill:#ffffff"
           id="path167-5" />
        <path
           d="m 192,296.56 c -6,-9.44 -11.08,-13.75 -26.3,-15 -15.22,-1.25 -41,-2 -61,-24.39 28.82,35.18 70.1,30.85 79,52.33 1.7,4.1 6.11,7.07 12.83,8 a 35.39,35.39 0 0 0 8.72,-0.05 c -3.79,-6 -9.54,-15.02 -13.25,-20.89 z"
           style="opacity:0.15;fill:#ba68c8"
           id="path169-3" />
        <path
           d="m 224.15,283.17 c -2.45,-10.92 -1.94,-17.55 7.93,-29.2 9.87,-11.65 27.51,-30.44 25.72,-60.45 4.63,45.25 -27.56,71.46 -18.62,93 1.7,4.09 0.7,9.32 -3.42,14.7 a 35.28,35.28 0 0 1 -6.18,6.15 c -1.58,-6.96 -3.9,-17.37 -5.43,-24.2 z"
           style="opacity:0.15;fill:#ba68c8"
           id="path171" />
      </g>
    </g>
    <g
       id="freepik--Atom--inject-5">
      <circle
         cx="144.59"
         cy="175.39999"
         r="13.41"
         transform="rotate(-69.56,144.58908,175.39811)"
         style="fill:#ba68c8"
         id="circle175" />
      <path
         d="m 146.58,184.07 c -6.83,1.73 -13.11,-2.58 -15.39,-9 a 13.4,13.4 0 1 0 26,-4.08 c 0.95,3.57 -3.34,11.23 -10.61,13.08 z"
         style="opacity:0.2"
         id="path177" />
      <path
         d="m 153.1,193.5 a 13.41,13.41 0 1 1 -18.95,-0.59 13.42,13.42 0 0 1 18.95,0.59 z"
         style="fill:#ba68c8"
         id="path179-5" />
      <path
         d="m 153.1,193.5 a 13.41,13.41 0 1 1 -18.95,-0.59 13.42,13.42 0 0 1 18.95,0.59 z"
         style="opacity:0.45;fill:#ffffff"
         id="path181-6" />
      <path
         d="m 145.32,211.35 c -6.83,1.74 -13.11,-2.57 -15.39,-9 a 13.4,13.4 0 1 0 26,-4.07 c 0.95,3.56 -3.35,11.22 -10.61,13.07 z"
         style="opacity:0.2;fill:#ba68c8"
         id="path183" />
      <path
         d="m 173.49,206.91 a 13.41,13.41 0 1 1 -19,-0.59 13.41,13.41 0 0 1 19,0.59 z"
         style="fill:#ba68c8"
         id="path185" />
      <path
         d="m 173.49,206.91 a 13.41,13.41 0 1 1 -19,-0.59 13.41,13.41 0 0 1 19,0.59 z"
         style="opacity:0.15;fill:#ffffff"
         id="path187-2" />
      <path
         d="m 165.71,224.76 c -6.84,1.74 -13.11,-2.58 -15.39,-9 a 13.4,13.4 0 1 0 26,-4.07 c 0.95,3.56 -3.32,11.22 -10.61,13.07 z"
         style="opacity:0.4;fill:#ba68c8"
         id="path189-9" />
      <path
         d="m 196.1,196.05 a 13.41,13.41 0 1 1 -18.95,-0.59 13.4,13.4 0 0 1 18.95,0.59 z"
         style="fill:#ba68c8"
         id="path191" />
      <path
         d="m 188.32,213.9 c -6.83,1.74 -13.11,-2.58 -15.39,-9.05 a 13.4,13.4 0 1 0 26,-4.08 c 0.96,3.62 -3.34,11.28 -10.61,13.13 z"
         style="opacity:0.2"
         id="path193" />
      <path
         d="m 196.64,172.24 a 13.41,13.41 0 1 1 -18.95,-0.59 13.41,13.41 0 0 1 18.95,0.59 z"
         style="fill:#ba68c8"
         id="path195" />
      <path
         d="m 196.64,172.24 a 13.41,13.41 0 1 1 -18.95,-0.59 13.41,13.41 0 0 1 18.95,0.59 z"
         style="opacity:0.45;fill:#ffffff"
         id="path197" />
      <path
         d="m 188.86,190.09 c -6.83,1.74 -13.11,-2.58 -15.39,-9.05 a 13.4,13.4 0 1 0 26,-4.07 c 0.95,3.61 -3.35,11.27 -10.61,13.12 z"
         style="opacity:0.2;fill:#ba68c8"
         id="path199" />
      <path
         d="m 191.72,183.88 a 10.64,10.64 0 1 1 -15.05,-0.47 10.65,10.65 0 0 1 15.05,0.47 z"
         style="fill:#ba68c8"
         id="path201" />
      <path
         d="m 191.72,183.88 a 10.64,10.64 0 1 1 -15.05,-0.47 10.65,10.65 0 0 1 15.05,0.47 z"
         style="opacity:0.3;fill:#ffffff"
         id="path203" />
      <path
         d="m 185.55,198.05 c -5.43,1.38 -10.41,-2.05 -12.23,-7.19 A 10.65,10.65 0 1 0 194,187.63 c 0.73,2.87 -2.68,8.95 -8.45,10.42 z"
         style="opacity:0.5;fill:#ba68c8"
         id="path205" />
      <circle
         cx="168.22"
         cy="170.2"
         r="16.1"
         transform="rotate(-89.84,168.2075,170.19844)"
         style="fill:#ba68c8"
         id="circle207" />
      <circle
         cx="168.22"
         cy="170.2"
         r="16.1"
         transform="rotate(-89.84,168.2075,170.19844)"
         style="opacity:0.15;fill:#ffffff"
         id="circle209" />
      <path
         d="m 170.61,180.6 c -8.2,2.09 -15.74,-3.09 -18.48,-10.86 a 16.09,16.09 0 1 0 31.26,-4.89 c 1.1,4.33 -4.06,13.53 -12.78,15.75 z"
         style="opacity:0.4;fill:#ba68c8"
         id="path211" />
      <circle
         cx="165.03999"
         cy="194.21001"
         r="16.1"
         style="fill:#ba68c8"
         id="circle213" />
      <path
         d="m 167.44,204.61 c -8.21,2.09 -15.74,-3.09 -18.49,-10.86 a 16.1,16.1 0 1 0 31.27,-4.89 c 1.1,4.33 -4.06,13.53 -12.78,15.75 z"
         style="opacity:0.2"
         id="path215" />
      <circle
         cx="148.22"
         cy="189.72"
         r="10.65"
         transform="rotate(-88.22,148.21342,189.72119)"
         style="fill:#ba68c8"
         id="circle217" />
      <circle
         cx="148.22"
         cy="189.72"
         r="10.65"
         transform="rotate(-88.22,148.21342,189.72119)"
         style="opacity:0.3;fill:#ffffff"
         id="circle219" />
      <path
         d="m 149.8,196.6 c -5.43,1.38 -10.41,-2 -12.22,-7.18 a 10.64,10.64 0 1 0 20.67,-3.24 c 0.75,2.87 -2.68,8.95 -8.45,10.42 z"
         style="opacity:0.5;fill:#ba68c8"
         id="path221" />
      <path
         d="m 272.33,279.61 c -0.8,0 -1.61,0 -2.43,-0.05 a 0.89050547,0.89050547 0 1 1 0.06,-1.78 58.61,58.61 0 0 0 8.79,-0.32 0.89180996,0.89180996 0 1 1 0.22,1.77 55.15,55.15 0 0 1 -6.64,0.38 z M 261,278.82 h -0.12 c -2.81,-0.37 -5.8,-0.86 -8.88,-1.46 a 0.9,0.9 0 0 1 0.34,-1.76 c 3,0.6 6,1.09 8.77,1.44 a 0.9,0.9 0 0 1 -0.11,1.79 z m 26.47,-1.8 a 0.88,0.88 0 0 1 -0.81,-0.53 0.89,0.89 0 0 1 0.45,-1.18 16.71,16.71 0 0 0 2.41,-1.3 12,12 0 0 0 2,-1.54 11.81,11.81 0 0 0 2,-2.44 0.9,0.9 0 1 1 1.48,0.97 13.82,13.82 0 0 1 -2.3,2.8 13.36,13.36 0 0 1 -2.24,1.75 19.23,19.23 0 0 1 -2.63,1.43 0.94,0.94 0 0 1 -0.34,0.02 z m -44,-1.61 a 0.83,0.83 0 0 1 -0.22,0 c -2.81,-0.7 -5.73,-1.49 -8.67,-2.35 a 0.91,0.91 0 0 1 -0.61,-1.11 0.89,0.89 0 0 1 1.11,-0.61 c 2.92,0.85 5.81,1.64 8.6,2.34 a 0.89,0.89 0 0 1 0.66,1.08 0.9,0.9 0 0 1 -0.88,0.65 z m -17.18,-5 a 0.9,0.9 0 0 1 -0.28,0 c -2.77,-0.91 -5.62,-1.9 -8.48,-2.94 a 0.9,0.9 0 0 1 -0.54,-1.14 0.89,0.89 0 0 1 1.15,-0.54 c 2.84,1 5.68,2 8.43,2.92 a 0.9,0.9 0 0 1 0.57,1.13 0.88,0.88 0 0 1 -0.86,0.56 z m -16.83,-6.08 a 0.74,0.74 0 0 1 -0.32,-0.07 c -2.73,-1.06 -5.53,-2.2 -8.31,-3.37 a 0.89423151,0.89423151 0 1 1 0.69,-1.65 c 2.77,1.17 5.56,2.29 8.27,3.36 a 0.9,0.9 0 0 1 0.51,1.16 0.91,0.91 0 0 1 -0.85,0.56 z m 86.69,-1.22 a 0.9,0.9 0 0 1 -0.9,-0.85 26.34,26.34 0 0 0 -2.05,-8.36 0.89,0.89 0 0 1 0.5,-1.16 0.88,0.88 0 0 1 1.16,0.49 27.93,27.93 0 0 1 2.18,8.94 0.89,0.89 0 0 1 -0.85,0.94 z M 193,257.4 a 1,1 0 0 1 -0.37,-0.07 c -2.68,-1.2 -5.42,-2.45 -8.15,-3.73 a 0.89470666,0.89470666 0 0 1 0.76,-1.62 c 2.72,1.27 5.45,2.52 8.12,3.71 A 0.89,0.89 0 0 1 193,257.4 Z m -16.2,-7.6 a 0.93,0.93 0 0 1 -0.4,-0.09 q -2.47,-1.22 -5,-2.48 c -1,-0.51 -2,-1 -3,-1.57 a 0.89470666,0.89470666 0 0 1 0.84,-1.58 c 1,0.53 2,1 3,1.55 q 2.49,1.26 4.95,2.48 a 0.88,0.88 0 0 1 0.41,1.19 0.89,0.89 0 0 1 -0.85,0.5 z m 113.18,-3.29 a 0.91,0.91 0 0 1 -0.76,-0.43 c -1.43,-2.33 -3.12,-4.78 -5,-7.29 a 0.89,0.89 0 0 1 0.17,-1.25 0.9,0.9 0 0 1 1.26,0.17 c 1.94,2.55 3.67,5 5.13,7.43 a 0.9,0.9 0 0 1 -0.3,1.23 0.89,0.89 0 0 1 -0.55,0.14 z m -129.06,-4.95 a 0.84,0.84 0 0 1 -0.43,-0.11 q -4,-2.17 -7.86,-4.29 a 0.89309854,0.89309854 0 1 1 0.87,-1.56 q 3.8,2.1 7.84,4.28 a 0.89,0.89 0 0 1 0.37,1.21 0.9,0.9 0 0 1 -0.84,0.47 z m -15.63,-8.71 a 0.92,0.92 0 0 1 -0.45,-0.12 c -2.57,-1.51 -5.16,-3.06 -7.69,-4.61 a 0.89096857,0.89096857 0 1 1 0.93,-1.52 c 2.52,1.54 5.1,3.08 7.66,4.58 a 0.9,0.9 0 0 1 0.32,1.23 0.89,0.89 0 0 1 -0.82,0.44 z m 133.94,-0.62 a 0.92,0.92 0 0 1 -0.67,-0.31 c -1.23,-1.4 -2.54,-2.85 -3.91,-4.3 -0.69,-0.74 -1.4,-1.49 -2.13,-2.24 a 0.89106678,0.89106678 0 1 1 1.28,-1.24 c 0.74,0.75 1.45,1.5 2.16,2.25 1.37,1.47 2.7,2.93 3.95,4.35 a 0.91,0.91 0 0 1 -0.68,1.49 z M 130,223.52 a 0.92,0.92 0 0 1 -0.48,-0.14 c -2.51,-1.59 -5,-3.24 -7.52,-4.88 a 0.89723185,0.89723185 0 1 1 1,-1.49 c 2.48,1.64 5,3.27 7.5,4.86 a 0.9,0.9 0 0 1 -0.48,1.65 z m 136.77,-4.15 a 0.85,0.85 0 0 1 -0.61,-0.25 c -2.09,-2 -4.3,-4 -6.58,-6 a 0.9,0.9 0 0 1 1.19,-1.34 c 2.29,2 4.52,4.07 6.62,6.07 a 0.89,0.89 0 0 1 0,1.26 0.86,0.86 0 0 1 -0.65,0.26 z m -151.69,-5.74 a 0.86,0.86 0 0 1 -0.51,-0.16 c -2.47,-1.7 -4.93,-3.44 -7.33,-5.17 a 0.9,0.9 0 1 1 1.05,-1.45 c 2.38,1.72 4.84,3.45 7.29,5.15 a 0.9,0.9 0 0 1 0.23,1.25 0.88,0.88 0 0 1 -0.76,0.38 z M 100.56,203.16 A 0.9,0.9 0 0 1 100,203 c -2.41,-1.82 -4.79,-3.67 -7.1,-5.49 a 0.9,0.9 0 1 1 1.12,-1.4 c 2.29,1.81 4.66,3.65 7.06,5.46 a 0.89,0.89 0 0 1 -0.54,1.61 z M 86.51,192 a 0.9,0.9 0 0 1 -0.58,-0.21 c -2.33,-2 -4.62,-3.92 -6.8,-5.85 a 0.9,0.9 0 0 1 -0.08,-1.27 0.89,0.89 0 0 1 1.26,-0.07 c 2.17,1.92 4.45,3.88 6.77,5.82 A 0.89,0.89 0 0 1 86.51,192 Z M 73.12,180.16 a 0.94,0.94 0 0 1 -0.62,-0.25 c -2.23,-2.12 -4.38,-4.24 -6.39,-6.31 a 0.9,0.9 0 0 1 0,-1.27 0.91,0.91 0 0 1 1.27,0 c 2,2.05 4.13,4.16 6.35,6.26 a 0.91,0.91 0 0 1 0,1.27 0.92,0.92 0 0 1 -0.61,0.3 z M 60.67,167.3 A 0.87,0.87 0 0 1 60,167 c -2.08,-2.37 -4,-4.71 -5.73,-7 a 0.9,0.9 0 0 1 1.42,-1 c 1.7,2.22 3.6,4.53 5.65,6.87 a 0.89,0.89 0 0 1 -0.67,1.48 z M 49.89,153 a 0.88,0.88 0 0 1 -0.76,-0.42 55.4,55.4 0 0 1 -4.19,-8.06 0.89231441,0.89231441 0 1 1 1.65,-0.68 54.38,54.38 0 0 0 4.06,7.8 0.89,0.89 0 0 1 -0.29,1.23 0.9,0.9 0 0 1 -0.47,0.13 z m -6.3,-16.55 A 0.89,0.89 0 0 1 42.7,135.6 v -0.11 c 0,-0.37 0,-0.74 0,-1.09 a 14.65,14.65 0 0 1 2.12,-7.9 0.90972523,0.90972523 0 0 1 1.52,1 12.75,12.75 0 0 0 -1.85,6.94 c 0,0.32 0,0.65 0,1 v 0.14 a 0.89,0.89 0 0 1 -0.86,0.93 z m 70,-7.4 a 0.9,0.9 0 0 1 -0.28,0 c -2.89,-1 -5.75,-1.85 -8.51,-2.66 a 0.8908002,0.8908002 0 1 1 0.5,-1.71 c 2.78,0.81 5.67,1.71 8.57,2.67 a 0.89,0.89 0 0 1 0.57,1.13 0.88,0.88 0 0 1 -0.83,0.61 z m -17.17,-5 H 96.2 c -3,-0.75 -5.9,-1.41 -8.69,-2 a 0.89,0.89 0 0 1 -0.7,-1 0.9,0.9 0 0 1 1,-0.7 c 2.81,0.55 5.76,1.22 8.77,2 a 0.89,0.89 0 0 1 -0.21,1.76 z m -44,-1.71 a 0.91,0.91 0 0 1 -0.82,-0.53 0.9,0.9 0 0 1 0.46,-1.18 31.55,31.55 0 0 1 8.9,-2.24 0.88,0.88 0 0 1 1,0.79 0.89,0.89 0 0 1 -0.78,1 29.74,29.74 0 0 0 -8.39,2.1 0.92,0.92 0 0 1 -0.4,0.09 z m 26.49,-1.71 h -0.12 c -3.11,-0.41 -6.08,-0.66 -8.82,-0.76 a 0.9,0.9 0 1 1 0.06,-1.79 c 2.8,0.1 5.82,0.36 9,0.77 a 0.9,0.9 0 0 1 0.78,1 0.89,0.89 0 0 1 -0.93,0.81 z"
         style="fill:#ffffff"
         id="path223" />
      <path
         d="m 132.06,337.71 a 13.46,13.46 0 0 1 -4.61,-0.8 0.89365821,0.89365821 0 0 1 0.61,-1.68 11.64,11.64 0 0 0 4,0.69 v 0 a 15.2,15.2 0 0 0 4.21,-0.63 l 0.27,0.85 0.19,0.88 a 17.15,17.15 0 0 1 -4.67,0.69 z m 12.43,-4.7 a 0.88,0.88 0 0 1 -0.73,-0.38 0.9,0.9 0 0 1 0.21,-1.25 50.44,50.44 0 0 0 5.52,-4.56 c 0.39,-0.36 0.78,-0.74 1.18,-1.13 a 0.89455296,0.89455296 0 0 1 1.25,1.28 l -1.2,1.16 a 53.09,53.09 0 0 1 -5.72,4.72 0.86,0.86 0 0 1 -0.51,0.15 z m -23.64,-1.51 a 0.87,0.87 0 0 1 -0.72,-0.36 32,32 0 0 1 -4.13,-8.14 0.9,0.9 0 0 1 0.54,-1.15 0.89,0.89 0 0 1 1.14,0.55 30.54,30.54 0 0 0 3.9,7.72 0.89,0.89 0 0 1 -0.19,1.25 0.88,0.88 0 0 1 -0.54,0.13 z m 36.46,-10.88 a 0.9,0.9 0 0 1 -0.68,-1.47 c 1.78,-2.14 3.6,-4.51 5.42,-7 a 0.89,0.89 0 0 1 1.45,1 c -1.84,2.56 -3.69,5 -5.5,7.14 a 0.89,0.89 0 0 1 -0.69,0.33 z m -42.76,-5.7 a 0.9,0.9 0 0 1 -0.88,-0.73 c -0.53,-2.75 -1,-5.75 -1.26,-8.94 a 0.89404977,0.89404977 0 0 1 1.78,-0.17 c 0.3,3.13 0.72,6.08 1.24,8.77 a 0.9,0.9 0 0 1 -0.71,1 z m 53.26,-8.78 a 0.87,0.87 0 0 1 -0.49,-0.14 0.9,0.9 0 0 1 -0.26,-1.24 c 1.55,-2.4 3.12,-4.95 4.67,-7.58 a 0.89,0.89 0 0 1 1.22,-0.32 0.9,0.9 0 0 1 0.32,1.23 c -1.56,2.65 -3.15,5.22 -4.71,7.64 a 0.88,0.88 0 0 1 -0.75,0.41 z m -55.07,-9 a 0.89,0.89 0 0 1 -0.89,-0.87 c 0,-1.73 -0.08,-3.53 -0.08,-5.37 0,-1.19 0,-2.39 0,-3.61 a 0.91,0.91 0 0 1 0.91,-0.88 0.89,0.89 0 0 1 0.88,0.91 c 0,1.21 0,2.4 0,3.58 0,1.82 0,3.61 0.08,5.32 a 0.89,0.89 0 0 1 -0.87,0.92 z m 64.16,-6.4 a 0.8,0.8 0 0 1 -0.42,-0.11 0.88,0.88 0 0 1 -0.36,-1.21 c 1.38,-2.55 2.78,-5.2 4.14,-7.9 a 0.9,0.9 0 0 1 1.6,0.81 c -1.38,2.71 -2.78,5.38 -4.17,7.94 a 0.89,0.89 0 0 1 -0.79,0.47 z M 113.05,279.26 H 113 a 0.9,0.9 0 0 1 -0.84,-0.95 c 0.17,-2.89 0.4,-5.9 0.68,-8.94 a 0.91,0.91 0 0 1 1,-0.81 0.9,0.9 0 0 1 0.81,1 c -0.28,3 -0.51,6 -0.68,8.89 a 0.89,0.89 0 0 1 -0.92,0.81 z m 72,-4.47 a 0.92,0.92 0 0 1 -0.39,-0.09 0.9,0.9 0 0 1 -0.42,-1.19 c 1.25,-2.64 2.51,-5.37 3.73,-8.11 a 0.89300056,0.89300056 0 1 1 1.63,0.73 c -1.22,2.75 -2.49,5.49 -3.74,8.15 a 0.91,0.91 0 0 1 -0.86,0.51 z m 7.29,-16.34 a 0.87,0.87 0 0 1 -0.35,-0.07 0.9,0.9 0 0 1 -0.48,-1.17 c 1.14,-2.71 2.28,-5.49 3.38,-8.26 a 0.9,0.9 0 0 1 1.16,-0.51 0.91,0.91 0 0 1 0.5,1.17 c -1.1,2.78 -2.24,5.57 -3.39,8.29 a 0.87,0.87 0 0 1 -0.87,0.55 z m 6.59,-16.63 a 1.12,1.12 0 0 1 -0.31,0 0.91,0.91 0 0 1 -0.53,-1.16 c 1,-2.77 2.07,-5.59 3.05,-8.39 a 0.9,0.9 0 0 1 1.69,0.6 c -1,2.8 -2,5.64 -3.06,8.42 a 0.89,0.89 0 0 1 -0.89,0.53 z m 6,-16.87 a 0.88,0.88 0 0 1 -0.85,-1.17 c 0.93,-2.8 1.86,-5.66 2.74,-8.5 a 0.9,0.9 0 0 1 1.13,-0.59 0.89,0.89 0 0 1 0.58,1.12 c -0.89,2.86 -1.82,5.73 -2.75,8.53 a 0.89,0.89 0 0 1 -0.95,0.66 z m 5.34,-17.07 a 0.73,0.73 0 0 1 -0.25,0 0.9,0.9 0 0 1 -0.61,-1.11 c 0.84,-2.86 1.66,-5.75 2.44,-8.58 a 0.89,0.89 0 0 1 1.1,-0.63 0.9,0.9 0 0 1 0.62,1.1 c -0.78,2.85 -1.6,5.74 -2.44,8.61 a 0.9,0.9 0 0 1 -0.96,0.61 z m 4.72,-17.24 h -0.22 a 0.88,0.88 0 0 1 -0.64,-1.08 c 0.3,-1.18 0.59,-2.35 0.88,-3.53 0.43,-1.72 0.84,-3.44 1.25,-5.14 a 0.89382605,0.89382605 0 1 1 1.74,0.41 c -0.41,1.71 -0.82,3.43 -1.25,5.16 -0.29,1.18 -0.59,2.36 -0.89,3.54 a 0.9,0.9 0 0 1 -0.97,0.64 z m 4.11,-17.4 h -0.19 a 0.9,0.9 0 0 1 -0.68,-1.07 c 0.63,-2.94 1.24,-5.88 1.8,-8.74 a 0.89136132,0.89136132 0 1 1 1.75,0.34 c -0.56,2.88 -1.17,5.83 -1.8,8.78 a 0.9,0.9 0 0 1 -0.98,0.69 z m 3.42,-17.56 h -0.15 a 0.9,0.9 0 0 1 -0.73,-1 c 0.51,-2.94 1,-5.91 1.42,-8.8 a 0.9,0.9 0 0 1 1,-0.76 0.91,0.91 0 0 1 0.75,1 c -0.43,2.91 -0.91,5.89 -1.42,8.85 a 0.9,0.9 0 0 1 -0.97,0.71 z M 225.05,138 h -0.11 a 0.9,0.9 0 0 1 -0.78,-1 c 0.37,-3 0.69,-6 1,-8.87 a 0.9,0.9 0 0 1 1.79,0.17 c -0.27,2.9 -0.6,5.9 -1,8.92 a 0.89,0.89 0 0 1 -0.9,0.78 z m 1.64,-17.81 h -0.06 a 0.89,0.89 0 0 1 -0.84,-0.94 c 0.18,-3.06 0.3,-6 0.35,-8.9 a 0.88,0.88 0 0 1 0.91,-0.88 0.89,0.89 0 0 1 0.88,0.91 c -0.05,2.88 -0.17,5.9 -0.35,9 a 0.89,0.89 0 0 1 -0.89,0.8 z M 162.84,108.7 a 1,1 0 0 1 -0.43,-0.11 0.9,0.9 0 0 1 -0.36,-1.21 c 1.47,-2.7 3,-5.32 4.43,-7.81 a 0.89185201,0.89185201 0 1 1 1.54,0.9 c -1.46,2.48 -2.94,5.09 -4.4,7.76 a 0.88,0.88 0 0 1 -0.78,0.46 z M 227,102.31 a 0.89,0.89 0 0 1 -0.89,-0.87 c -0.1,-3.1 -0.28,-6.09 -0.55,-8.86 a 0.89453899,0.89453899 0 1 1 1.78,-0.18 c 0.27,2.82 0.46,5.84 0.56,9 a 0.91,0.91 0 0 1 -0.87,0.92 z m -55.05,-9 a 0.92,0.92 0 0 1 -0.48,-0.14 0.89,0.89 0 0 1 -0.27,-1.24 c 1.69,-2.61 3.39,-5.11 5.06,-7.43 a 0.91,0.91 0 0 1 1.25,-0.21 0.9,0.9 0 0 1 0.2,1.25 c -1.65,2.3 -3.34,4.77 -5,7.36 a 0.91,0.91 0 0 1 -0.77,0.39 z m 53.25,-8.76 a 0.9,0.9 0 0 1 -0.88,-0.72 59.12,59.12 0 0 0 -2.24,-8.51 0.89,0.89 0 0 1 0.54,-1.14 0.9,0.9 0 0 1 1.15,0.54 61.78,61.78 0 0 1 2.31,8.77 0.9,0.9 0 0 1 -0.71,1 z m -42.75,-5.72 a 0.88,0.88 0 0 1 -0.57,-0.2 0.9,0.9 0 0 1 -0.12,-1.26 c 2.05,-2.47 4.1,-4.72 6.09,-6.68 a 0.90190077,0.90190077 0 0 1 1.24,1.31 c -1.94,1.91 -4,4.12 -6,6.54 a 0.9,0.9 0 0 1 -0.65,0.27 z M 218.9,67.94 a 0.89,0.89 0 0 1 -0.72,-0.37 18.14,18.14 0 0 0 -2,-2.3 13,13 0 0 0 -4.5,-2.86 0.89365821,0.89365821 0 1 1 0.61,-1.68 14.65,14.65 0 0 1 5.14,3.27 18.29,18.29 0 0 1 2.19,2.54 0.88,0.88 0 0 1 -0.19,1.25 0.93,0.93 0 0 1 -0.53,0.15 z m -23.62,-1.51 a 0.89,0.89 0 0 1 -0.52,-1.62 28,28 0 0 1 8.24,-4.14 0.89365821,0.89365821 0 0 1 0.52,1.71 v 0 a 26.26,26.26 0 0 0 -7.67,3.88 0.9,0.9 0 0 1 -0.57,0.17 z"
         style="fill:#ffffff"
         id="path225" />
      <path
         d="m 84.82,252.85 q -4.68,0 -9,-0.18 a 0.9,0.9 0 0 1 0.08,-1.79 c 2.84,0.12 5.82,0.19 8.87,0.19 a 0.91,0.91 0 0 1 0.91,0.89 0.88,0.88 0 0 1 -0.86,0.89 z m 8.94,-0.16 a 0.9,0.9 0 0 1 0,-1.79 c 2.89,-0.1 5.88,-0.26 8.91,-0.46 a 0.9,0.9 0 0 1 1,0.84 0.89,0.89 0 0 1 -0.83,0.95 c -3.05,0.2 -6.06,0.36 -9,0.46 z M 67,252.06 h -0.09 c -3.14,-0.3 -6.15,-0.7 -8.93,-1.18 a 0.89269256,0.89269256 0 0 1 0.3,-1.76 c 2.74,0.47 5.71,0.86 8.8,1.16 a 0.9,0.9 0 0 1 0.81,1 0.91,0.91 0 0 1 -0.89,0.78 z m 44.67,-0.54 a 0.9,0.9 0 0 1 -0.09,-1.79 c 2.93,-0.27 5.91,-0.59 8.88,-0.94 a 0.9,0.9 0 0 1 1,0.79 0.89,0.89 0 0 1 -0.78,1 c -3,0.35 -6,0.67 -8.92,0.94 z m 17.77,-2.09 a 0.89237044,0.89237044 0 0 1 -0.13,-1.78 c 2.89,-0.41 5.86,-0.85 8.83,-1.33 a 0.89186602,0.89186602 0 1 1 0.29,1.76 c -3,0.48 -6,0.93 -8.87,1.34 z m -80,-0.5 H 49.2 a 50.74,50.74 0 0 1 -8.51,-3.21 0.89220233,0.89220233 0 1 1 0.79,-1.6 49.59,49.59 0 0 0 8.21,3.09 0.89,0.89 0 0 1 -0.25,1.75 z m 97.7,-2.35 a 0.89,0.89 0 0 1 -0.16,-1.77 c 2.66,-0.49 5.39,-1 8.11,-1.55 l 0.66,-0.13 a 0.89332245,0.89332245 0 0 1 0.36,1.75 l -0.66,0.14 c -2.74,0.54 -5.48,1.06 -8.15,1.55 z m 17.56,-3.45 a 0.89,0.89 0 0 1 -0.18,-1.77 c 3,-0.61 5.91,-1.25 8.71,-1.92 a 0.9,0.9 0 0 1 1.08,0.67 0.89,0.89 0 0 1 -0.67,1.07 c -2.81,0.67 -5.76,1.32 -8.76,1.93 z M 33.8,240.57 a 0.92,0.92 0 0 1 -0.67,-0.29 l -0.11,-0.13 a 14,14 0 0 1 -3.63,-8.46 0.9,0.9 0 0 1 1.79,-0.11 12.18,12.18 0 0 0 3.19,7.42 l 0.09,0.1 a 0.9,0.9 0 0 1 -0.06,1.26 0.88,0.88 0 0 1 -0.6,0.21 z M 182,239 a 0.9,0.9 0 0 1 -0.24,-1.76 c 1,-0.26 1.94,-0.54 2.89,-0.82 1.94,-0.51 3.84,-1 5.74,-1.54 a 0.89152958,0.89152958 0 1 1 0.47,1.72 c -1.9,0.53 -3.81,1 -5.73,1.55 l -2.9,0.82 A 0.85,0.85 0 0 1 182,239 Z m 17.23,-4.82 a 0.9,0.9 0 0 1 -0.25,-1.76 c 2.86,-0.84 5.73,-1.72 8.54,-2.61 a 0.9,0.9 0 0 1 0.54,1.71 c -2.82,0.89 -5.7,1.77 -8.58,2.62 a 0.73,0.73 0 0 1 -0.23,0.03 z m 17.06,-5.39 A 0.89,0.89 0 0 1 215.45,228.18 0.9,0.9 0 0 1 216,227 c 2.82,-0.95 5.66,-1.93 8.43,-2.93 a 0.89,0.89 0 0 1 1.15,0.54 0.9,0.9 0 0 1 -0.54,1.14 c -2.79,1 -5.64,2 -8.47,2.95 a 0.93,0.93 0 0 1 -0.26,0.08 z m -184,-4.85 a 0.85,0.85 0 0 1 -0.4,-0.1 0.88,0.88 0 0 1 -0.39,-1.2 35.79,35.79 0 0 1 5.26,-7.47 0.89,0.89 0 0 1 1.26,-0.08 0.9,0.9 0 0 1 0.07,1.27 34.23,34.23 0 0 0 -5,7.09 0.9,0.9 0 0 1 -0.77,0.48 z m 200.83,-1.21 A 0.9,0.9 0 0 1 232.8,221 c 2.8,-1.08 5.6,-2.18 8.3,-3.29 a 0.89231441,0.89231441 0 1 1 0.68,1.65 c -2.72,1.12 -5.52,2.23 -8.34,3.31 a 0.87,0.87 0 0 1 -0.29,0.05 z m 16.56,-6.8 a 0.91,0.91 0 0 1 -0.82,-0.53 0.89,0.89 0 0 1 0.46,-1.18 c 2.76,-1.22 5.5,-2.47 8.12,-3.71 a 0.89470666,0.89470666 0 1 1 0.76,1.62 c -2.63,1.25 -5.38,2.5 -8.16,3.72 a 0.94,0.94 0 0 1 -0.33,0.07 z m -205.8,-5.5 a 0.9,0.9 0 0 1 -0.58,-1.58 c 2.12,-1.82 4.52,-3.68 7.12,-5.54 a 0.89,0.89 0 1 1 1,1.45 c -2.56,1.83 -4.91,3.66 -7,5.45 a 0.93,0.93 0 0 1 -0.54,0.22 z m 222,-2.19 a 0.88,0.88 0 0 1 -0.79,-0.48 0.9,0.9 0 0 1 0.38,-1.21 c 2.72,-1.39 5.36,-2.81 7.86,-4.22 a 0.89309854,0.89309854 0 0 1 0.87,1.56 c -2.51,1.42 -5.17,2.85 -7.91,4.26 a 1,1 0 0 1 -0.42,0.09 z M 58.38,200 a 0.89,0.89 0 0 1 -0.47,-1.65 c 2.43,-1.52 5,-3.07 7.73,-4.58 a 0.89,0.89 0 0 1 1.22,0.34 0.9,0.9 0 0 1 -0.34,1.22 c -2.68,1.5 -5.25,3 -7.66,4.54 A 0.94,0.94 0 0 1 58.38,200 Z m 223.07,-0.52 a 0.89,0.89 0 0 1 -0.48,-1.65 c 2.62,-1.65 5.11,-3.31 7.39,-4.95 a 0.89,0.89 0 0 1 1.25,0.21 0.88,0.88 0 0 1 -0.21,1.24 c -2.31,1.66 -4.82,3.35 -7.48,5 a 0.89,0.89 0 0 1 -0.47,0.11 z M 74,191.17 a 0.89,0.89 0 0 1 -0.41,-1.69 c 2.58,-1.33 5.29,-2.66 8,-4 a 0.91,0.91 0 0 1 1.2,0.42 0.89,0.89 0 0 1 -0.43,1.19 c -2.75,1.31 -5.44,2.63 -8,3.95 A 1,1 0 0 1 74,191.17 Z m 222,-2.21 a 0.86,0.86 0 0 1 -0.67,-0.32 0.89,0.89 0 0 1 0.09,-1.26 c 0.9,-0.76 1.75,-1.53 2.55,-2.28 1.38,-1.3 2.65,-2.6 3.77,-3.87 a 0.9,0.9 0 1 1 1.34,1.19 c -1.16,1.3 -2.46,2.64 -3.88,4 -0.82,0.77 -1.7,1.56 -2.61,2.34 a 0.94,0.94 0 0 1 -0.66,0.24 z m 11.51,-13.56 a 0.93,0.93 0 0 1 -0.4,-0.09 0.9,0.9 0 0 1 -0.4,-1.2 21.6,21.6 0 0 0 1.06,-2.55 14.74,14.74 0 0 0 0.87,-4.83 q 0,-0.39 0,-0.78 a 0.9,0.9 0 0 1 1.79,-0.12 q 0,0.45 0,0.9 a 16.64,16.64 0 0 1 -1,5.41 21.9,21.9 0 0 1 -1.15,2.76 0.89,0.89 0 0 1 -0.84,0.5 z M 306.06,159 a 0.91,0.91 0 0 1 -0.67,-0.3 22.47,22.47 0 0 0 -6.89,-5.05 0.89442719,0.89442719 0 0 1 0.8,-1.6 24.36,24.36 0 0 1 7.44,5.47 0.9,0.9 0 0 1 -0.09,1.26 0.88,0.88 0 0 1 -0.59,0.22 z m -15.51,-8.43 a 1.09,1.09 0 0 1 -0.25,0 79.82,79.82 0 0 0 -8.63,-1.94 0.9,0.9 0 0 1 0.31,-1.77 84.47,84.47 0 0 1 8.82,2 0.9,0.9 0 0 1 -0.25,1.76 z M 273,147.39 h -0.09 c -2.81,-0.28 -5.8,-0.49 -8.87,-0.62 a 0.89,0.89 0 0 1 -0.86,-0.93 0.92,0.92 0 0 1 0.93,-0.86 c 3.11,0.14 6.13,0.35 9,0.63 a 0.89113691,0.89113691 0 0 1 -0.09,1.78 z m -26.81,-0.65 a 0.9,0.9 0 0 1 0,-1.79 c 3,-0.11 6,-0.16 8.84,-0.16 h 0.14 a 0.9,0.9 0 0 1 0,1.79 H 255 c -2.83,0 -5.78,0 -8.77,0.16 z"
         style="fill:#ffffff"
         id="path227" />
      <path
         d="m 40.1,201.91 a 10.27,10.27 0 1 1 -7.93,12.17 10.28,10.28 0 0 1 7.93,-12.17 z"
         style="fill:#ba68c8"
         id="path229" />
      <path
         d="m 40.1,201.91 a 10.27,10.27 0 1 1 -7.93,12.17 10.28,10.28 0 0 1 7.93,-12.17 z"
         style="opacity:0.2;fill:#ffffff"
         id="path231" />
      <path
         d="m 48.68,214.1 c -1.58,5.17 -6.9,7.56 -12,6.48 a 10.27,10.27 0 1 0 7.7,-18.67 c 2.68,0.84 5.98,6.7 4.3,12.19 z"
         style="opacity:0.15;fill:#ffffff"
         id="path233" />
      <circle
         cx="227.07001"
         cy="103.86"
         r="10.27"
         transform="rotate(-67.5,227.07016,103.86005)"
         style="fill:#ba68c8"
         id="circle235" />
      <circle
         cx="227.07001"
         cy="103.86"
         r="10.27"
         transform="rotate(-67.5,227.07016,103.86005)"
         style="opacity:0.5;fill:#ffffff"
         id="circle237" />
      <path
         d="m 223.64,109.74 c -4.73,-2.61 -6,-8.31 -3.85,-13.12 A 10.27,10.27 0 1 0 236.47,108 c -1.39,2.5 -7.81,4.52 -12.83,1.74 z"
         style="opacity:0.35;fill:#ffffff"
         id="path239" />
      <path
         d="m 290.79,248 a 10.27,10.27 0 1 1 0.64,-14.51 10.27,10.27 0 0 1 -0.64,14.51 z"
         style="fill:#ba68c8"
         id="path241" />
      <path
         d="m 290.79,248 a 10.27,10.27 0 1 1 0.64,-14.51 10.27,10.27 0 0 1 -0.64,14.51 z"
         style="opacity:0.5;fill:#ffffff"
         id="path243-1" />
      <path
         d="m 277.2,241.85 c -1.27,-5.25 2.1,-10 7.08,-11.7 a 10.27,10.27 0 1 0 2.86,20 c -2.77,0.65 -8.6,-2.72 -9.94,-8.3 z"
         style="opacity:0.35;fill:#ffffff"
         id="path245-2" />
    </g>
  </g>
</svg>
