<?xml version="1.0" encoding="UTF-8" standalone="no"?>
<svg
   width="128px"
   height="128px"
   viewBox="0 0 128 128"
   version="1.1"
   id="svg18"
   sodipodi:docname="201.svg"
   inkscape:version="1.1.2 (0a00cf5339, 2022-02-04)"
   xmlns:inkscape="http://www.inkscape.org/namespaces/inkscape"
   xmlns:sodipodi="http://sodipodi.sourceforge.net/DTD/sodipodi-0.dtd"
   xmlns="http://www.w3.org/2000/svg"
   xmlns:svg="http://www.w3.org/2000/svg"
   xmlns:rdf="http://www.w3.org/1999/02/22-rdf-syntax-ns#"
   xmlns:cc="http://creativecommons.org/ns#"
   xmlns:dc="http://purl.org/dc/elements/1.1/">
  <sodipodi:namedview
     id="namedview20"
     pagecolor="#ffffff"
     bordercolor="#666666"
     borderopacity="1.0"
     inkscape:pageshadow="2"
     inkscape:pageopacity="0.0"
     inkscape:pagecheckerboard="0"
     showgrid="false"
     inkscape:zoom="2.2109375"
     inkscape:cx="53.823322"
     inkscape:cy="21.936396"
     inkscape:window-width="1482"
     inkscape:window-height="800"
     inkscape:window-x="0"
     inkscape:window-y="0"
     inkscape:window-maximized="1"
     inkscape:current-layer="svg18" />
  <title
     id="title2">Accessories</title>
  <defs
     id="defs9">
    <linearGradient
       x1="39.410851"
       y1="162.34001"
       x2="113.09518"
       y2="-33.756438"
       id="linearGradient-1"
       gradientTransform="scale(0.95000132,1.0526301)"
       gradientUnits="userSpaceOnUse">
      <stop
         stop-color="#AE68FF"
         offset="0%"
         id="stop4" />
      <stop
         stop-color="#7991FF"
         offset="100%"
         id="stop6" />
    </linearGradient>
  </defs>
  <circle
     cx="52.743816"
     cy="-100.89929"
     r="58.444698"
     style="fill:#ffffff;fill-opacity:1;fill-rule:nonzero;stroke:none;stroke-width:1.29877;stroke-linecap:butt;stroke-linejoin:miter;stroke-miterlimit:10;stroke-dasharray:none"
     id="circle4" />
  <g
     transform="matrix(0.97878478,0,0,0.83087292,-998.96027,-124.5406)"
     id="Accessories"
     style="fill:none;fill-rule:evenodd;stroke:none;stroke-width:1">
    <g
       transform="translate(1022,164)"
       id="g14">
      <rect
         id="Rectangle"
         fill-opacity="0"
         fill="#ffffff"
         x="0"
         y="0"
         width="128"
         height="128" />
      <path
         d="m 41.785865,10.4389 c 1.637304,2.448533 0.979674,5.760759 -1.468859,7.398064 -11.774292,7.873329 -18.983673,21.069103 -18.983673,35.496369 0,4.191728 0.604468,8.242275 1.730992,12.069228 l 3.602342,-3.417168 3.668679,3.476863 c 8.106901,7.683034 12.331321,14.019664 12.331321,19.871077 0,1.461578 -0.263566,2.953428 -0.785369,4.488972 1.030029,0.630055 2.098385,1.218505 3.193376,1.76132 C 47.3991,86.20822 51.399762,79.831952 57.063712,72.285122 L 59.795899,68.718235 64,63.332578 69.446469,70.32287 c 6.458365,8.412609 10.957248,15.42807 13.479029,21.26117 1.091336,-0.541312 2.161481,-1.13065 3.202409,-1.763278 -0.531008,-1.534001 -0.794574,-3.025851 -0.794574,-4.487429 0,-5.543444 3.791447,-11.522374 11.083599,-18.66903 l 1.247722,-1.202047 3.668676,-3.476863 3.60235,3.417168 c 1.12652,-3.826953 1.73099,-7.8775 1.73099,-12.069228 0,-14.387038 -7.168902,-27.55062 -18.88928,-35.433066 -2.444171,-1.643808 -3.092994,-4.95777 -1.449186,-7.401942 1.643808,-2.4441714 4.95777,-3.0929944 7.401942,-1.4491863 14.636694,9.8437913 23.603184,26.3081273 23.603184,44.2841943 0,7.464155 -1.53334,14.570178 -4.30221,21.020265 2.84739,3.944923 4.30221,7.54588 4.30221,10.979735 0,5.543445 -3.79144,11.522374 -11.08359,18.669027 l -1.24773,1.20205 -3.66868,3.47686 -3.668676,-3.47686 c -2.317736,-2.19655 -4.318131,-4.28306 -5.993193,-6.279635 -2.027069,1.244205 -4.155997,2.351995 -6.362692,3.314815 -0.435488,7.57279 -6.341321,14.54123 -17.087777,21.40931 L 66.791881,124.54421 64,126.25949 61.208119,124.54421 C 50.08181,117.70841 43.734424,110.79471 42.790051,103.30155 l -0.09347,-1.05962 c -2.208606,-0.96336 -4.339328,-2.07195 -6.380102,-3.313682 -1.330405,1.594482 -2.876738,3.248742 -4.628737,4.971302 l -1.3524,1.30486 -3.668679,3.47686 -3.668679,-3.47686 C 14.891087,97.521377 10.666667,91.184747 10.666667,85.333333 c 0,-3.433855 1.454821,-7.034812 4.295358,-10.976914 -2.762019,-6.452908 -4.295358,-13.558931 -4.295358,-21.023086 0,-18.026406 9.01703,-34.530831 23.721134,-44.363291 2.448533,-1.6373048 5.760759,-0.9796746 7.398064,1.468858 z M 63.994667,80.848 c -7.132912,9.83819 -10.661334,16.864079 -10.661334,20.48533 0,3.04317 3.146838,7.12945 9.956781,11.84393 v 0 L 64,113.65333 l 0.709886,-0.47607 c 6.451525,-4.46634 9.615387,-8.36889 9.930554,-11.35482 v 0 l 0.02623,-0.48911 c 0,-3.621251 -3.528422,-10.64714 -10.637602,-20.439653 v 0 z m 37.338663,-3.930667 -0.89801,0.998584 C 97.438351,81.3458 96,83.919237 96,85.333333 c 0,1.531938 1.688065,4.424491 5.2171,8.292554 v 0 l 0.11623,0.118113 0.89802,-0.993251 c 2.74722,-3.144058 4.18477,-5.568466 4.40528,-7.039914 v 0 l 0.03,-0.377502 c 0,-1.531937 -1.68807,-4.424491 -5.21711,-8.292554 v 0 z m -74.666663,0 -0.898013,0.998584 c -2.996969,3.429883 -4.435321,6.00332 -4.435321,7.417416 0,1.531938 1.688065,4.424491 5.217104,8.292554 v 0 l 0.11623,0.118113 0.898012,-0.993251 c 2.747222,-3.144058 4.184772,-5.568466 4.405286,-7.039914 v 0 L 32,85.333333 c 0,-1.531937 -1.688065,-4.424491 -5.217104,-8.292554 v 0 z"
         fill="url(#linearGradient-1)"
         id="path12"
         style="fill:url(#linearGradient-1)" />
    </g>
  </g>
  <metadata
     id="metadata2463">
    <rdf:RDF>
      <cc:Work
         rdf:about="">
        <dc:title>Accessories</dc:title>
      </cc:Work>
    </rdf:RDF>
  </metadata>
</svg>
