<svg xmlns="http://www.w3.org/2000/svg" width="256" height="256" viewBox="0 0 100 100"><rect width="100" height="100" rx="50" fill="#f54e00"></rect><path d="M59.69 78.79L48.89 57.71L39.44 57.71L39.44 78.79L27.57 78.79L27.57 21.21L48.97 21.21Q59.18 21.21 64.71 25.76Q70.25 30.30 70.25 38.61L70.25 38.61Q70.25 44.50 67.70 48.44Q65.15 52.37 59.97 54.71L59.97 54.71L72.43 78.24L72.43 78.79L59.69 78.79ZM39.44 30.82L39.44 48.10L49.01 48.10Q53.48 48.10 55.93 45.83Q58.38 43.55 58.38 39.56L58.38 39.56Q58.38 35.48 56.07 33.15Q53.76 30.82 48.97 30.82L48.97 30.82L39.44 30.82Z" fill="#fff"></path></svg>