<?xml version="1.0" encoding="UTF-8" standalone="no"?>
<svg
   version="1.0"
   width="512.000000pt"
   height="512.000000pt"
   viewBox="0 0 512.000000 512.000000"
   preserveAspectRatio="xMidYMid meet"
   id="svg8"
   sodipodi:docname="logo-#F8507A.svg"
   inkscape:version="1.1.2 (0a00cf5339, 2022-02-04)"
   xmlns:inkscape="http://www.inkscape.org/namespaces/inkscape"
   xmlns:sodipodi="http://sodipodi.sourceforge.net/DTD/sodipodi-0.dtd"
   xmlns="http://www.w3.org/2000/svg"
   xmlns:svg="http://www.w3.org/2000/svg">
  <defs
     id="defs12">
    <filter
       inkscape:collect="always"
       style="color-interpolation-filters:sRGB"
       id="filter969"
       x="-0.00011979868"
       y="-0.00012020199"
       width="1.0002396"
       height="1.0002404">
      <feGaussianBlur
         inkscape:collect="always"
         stdDeviation="0.24332139"
         id="feGaussianBlur971" />
    </filter>
  </defs>
  <sodipodi:namedview
     id="namedview10"
     pagecolor="#ffffff"
     bordercolor="#666666"
     borderopacity="1.0"
     inkscape:pageshadow="2"
     inkscape:pageopacity="0.0"
     inkscape:pagecheckerboard="0"
     inkscape:document-units="pt"
     showgrid="false"
     inkscape:zoom="0.58626334"
     inkscape:cx="332.61503"
     inkscape:cy="246.47627"
     inkscape:window-width="1478"
     inkscape:window-height="800"
     inkscape:window-x="0"
     inkscape:window-y="0"
     inkscape:window-maximized="1"
     inkscape:current-layer="svg8" />
  <g
     transform="translate(0.000000,512.000000) scale(0.100000,-0.100000)"
     fill="#000000"
     stroke="none"
     id="g6"
     style="filter:url(#filter969);fill:#f8507a;fill-opacity:1">
    <path
       d="M2225 4970 c-76 -8 -215 -36 -280 -55 -55 -17 -133 -36 -152 -37 -7 -1 -13 -5 -13 -8 0 -4 -14 -10 -31 -14 -17 -3 -47 -13 -67 -22 -20 -9 -57 -26 -82 -37 -219 -97 -412 -212 -580 -347 -40 -32 -310 -300 -341 -339 -82 -100 -161 -213 -205 -291 -21 -36 -40 -67 -43 -70 -9 -8 -87 -169 -144 -300 -65 -146 -131 -416 -148 -595 -5 -55 -13 -145 -19 -201 -5 -61 -6 -125 0 -165 5 -35 14 -134 20 -219 6 -85 15 -159 19 -165 5 -5 11 -35 15 -65 4 -30 13 -75 21 -100 58 -191 79 -257 86 -270 5 -8 20 -42 35 -75 75 -173 169 -342 236 -430 5 -5 29 -39 54 -75 26 -36 53 -72 60 -80 8 -8 35 -39 61 -69 157 -176 349 -338 553 -466 60 -37 331 -175 346 -175 5 -1 27 -9 49 -20 22 -11 47 -19 56 -20 8 0 19 -4 25 -9 23 -23 294 -89 414 -102 52 -6 109 -14 126 -20 17 -5 129 -9 250 -9 264 0 393 15 624 74 115 29 175 48 184 57 6 5 17 9 25 9 9 0 28 6 43 14 14 8 43 19 65 26 21 7 54 21 73 30 19 10 60 30 90 45 30 15 73 37 95 50 22 13 47 27 55 31 16 8 88 54 105 67 6 4 33 22 60 39 28 18 55 37 60 43 6 6 33 29 60 50 115 90 280 255 370 370 21 28 44 55 50 60 11 11 137 200 149 225 4 8 18 33 31 55 13 22 35 65 50 95 15 30 35 71 45 90 9 19 23 52 30 73 7 22 18 51 26 65 8 15 14 34 14 43 0 8 4 19 9 25 10 10 46 131 65 219 8 33 19 80 25 105 45 179 55 580 22 820 -24 165 -109 489 -141 535 -4 6 -13 28 -20 49 -14 44 -124 267 -151 306 -9 14 -38 57 -63 97 -39 61 -122 175 -162 223 -33 39 -284 289 -322 320 -23 19 -48 40 -55 45 -7 6 -34 26 -62 45 -27 19 -52 38 -55 41 -5 7 -106 73 -155 101 -57 33 -289 148 -299 148 -6 0 -23 6 -37 14 -26 13 -169 59 -279 89 -106 30 -200 48 -287 57 -98 11 -565 11 -658 0z m542 -1147 c4 -9 1 -19 -5 -21 -27 -9 -113 -148 -214 -349 -112 -224 -176 -329 -238 -391 -38 -39 -50 -47 -140 -97 l-55 -30 -295 0 -295 0 -75 38 c-41 21 -89 50 -106 65 -117 107 -170 259 -147 421 27 182 174 336 353 370 25 5 307 9 628 10 538 1 583 0 589 -16z m829 7 c213 -37 374 -231 374 -450 0 -94 -23 -167 -81 -253 -45 -67 -96 -111 -186 -161 l-58 -31 -603 -5 c-331 -3 -607 -3 -612 -2 -18 6 -11 23 28 61 20 21 43 47 50 57 60 91 95 154 178 319 136 272 163 315 238 379 63 53 118 77 196 86 101 11 410 11 476 0z m-526 -1726 c0 -653 0 -667 -22 -737 -22 -76 -53 -128 -112 -190 -48 -50 -132 -102 -186 -117 -55 -15 -213 -15 -267 -1 -148 40 -283 191 -313 351 -11 59 -14 1342 -3 1353 3 4 208 7 455 7 l448 0 0 -666z"
       id="path2"
       style="fill:#f8507a;fill-opacity:1" />
    <path
       d="M3414 3531 c-40 -25 -71 -65 -85 -111 -9 -30 -8 -47 5 -87 36 -109 147 -154 241 -98 113 66 115 221 4 291 -48 30 -120 32 -165 5z"
       id="path4"
       style="fill:#f8507a;fill-opacity:1" />
  </g>
</svg>
