<?xml version="1.0" encoding="UTF-8" standalone="no"?>
<svg
   width="50"
   height="30"
   viewBox="0 0 50 30"
   fill="none"
   version="1.1"
   id="svg12"
   sodipodi:docname="logo.svg"
   inkscape:version="1.1.2 (0a00cf5339, 2022-02-04)"
   inkscape:export-filename="/home/sebadima/marketing/social-cover/twitter/logo.png"
   inkscape:export-xdpi="848.021"
   inkscape:export-ydpi="848.021"
   xmlns:inkscape="http://www.inkscape.org/namespaces/inkscape"
   xmlns:sodipodi="http://sodipodi.sourceforge.net/DTD/sodipodi-0.dtd"
   xmlns="http://www.w3.org/2000/svg"
   xmlns:svg="http://www.w3.org/2000/svg">
  <defs
     id="defs16" />
  <sodipodi:namedview
     id="namedview14"
     pagecolor="#ffffff"
     bordercolor="#666666"
     borderopacity="1.0"
     inkscape:pageshadow="2"
     inkscape:pageopacity="0.0"
     inkscape:pagecheckerboard="0"
     showgrid="false"
     inkscape:zoom="9.4333333"
     inkscape:cx="31.961131"
     inkscape:cy="15"
     inkscape:window-width="1482"
     inkscape:window-height="800"
     inkscape:window-x="0"
     inkscape:window-y="0"
     inkscape:window-maximized="1"
     inkscape:current-layer="svg12" />
  <g
     id="g2423"
     transform="translate(2,-2)">
    <path
       d="m 10.8914,17.2057 c -0.3685,0.7371 -1.42031,0.7371 -1.78884,0 L 8.2212,15.443 c -0.14077,-0.2815 -0.14077,-0.6129 0,-0.8944 l 0.88136,-1.7627 c 0.36853,-0.7371 1.42034,-0.7371 1.78884,0 l 0.8814,1.7627 c 0.1407,0.2815 0.1407,0.6129 0,0.8944 z m 0,9.9971 c -0.3685,0.737 -1.42031,0.737 -1.78884,0 L 8.2212,25.44 c -0.14077,-0.2815 -0.14077,-0.6129 0,-0.8944 l 0.88136,-1.7627 c 0.36853,-0.7371 1.42034,-0.7371 1.78884,0 l 0.8814,1.7627 c 0.1407,0.2815 0.1407,0.6129 0,0.8944 z"
       fill="#1d4aff"
       id="path2" />
    <path
       d="m 0,23.4082 c 0,-0.8909 1.07714,-1.3371 1.70711,-0.7071 l 4.58338,4.5834 c 0.62997,0.63 0.1838,1.7071 -0.7071,1.7071 H 0.999999 C 0.447715,28.9916 0,28.5439 0,27.9916 Z m 0,-4.8278 c 0,0.2652 0.105357,0.5196 0.292893,0.7071 l 9.411217,9.4112 c 0.18753,0.1875 0.44189,0.2929 0.70709,0.2929 h 5.1692 c 0.8909,0 1.3371,-1.0771 0.7071,-1.7071 L 1.70711,12.7041 C 1.07714,12.0741 0,12.5203 0,13.4112 Z M 0,8.58339 C 0,8.8486 0.105357,9.10296 0.292893,9.29049 L 19.7011,28.6987 c 0.1875,0.1875 0.4419,0.2929 0.7071,0.2929 h 5.1692 c 0.8909,0 1.3371,-1.0771 0.7071,-1.7071 L 1.70711,2.70711 C 1.07715,2.07715 0,2.52331 0,3.41421 Z m 9.997,0 c 0,0.26521 0.1054,0.51957 0.2929,0.7071 l 17.994,17.99401 c 0.63,0.63 1.7071,0.1838 1.7071,-0.7071 v -5.1692 c 0,-0.2652 -0.1054,-0.5196 -0.2929,-0.7071 L 11.7041,2.7071 C 11.0741,2.07714 9.997,2.52331 9.997,3.41421 Z M 21.7011,2.70711 c -0.63,-0.62997 -1.7071,-0.1838 -1.7071,0.7071 v 5.16918 c 0,0.26521 0.1054,0.51957 0.2929,0.7071 l 7.997,7.99701 c 0.63,0.63 1.7071,0.1838 1.7071,-0.7071 v -5.1692 c 0,-0.2652 -0.1054,-0.5196 -0.2929,-0.7071 z"
       fill="#f9bd2b"
       id="path4" />
    <path
       d="m 42.5248,23.5308 -9.4127,-9.4127 c -0.63,-0.63 -1.7071,-0.1838 -1.7071,0.7071 v 13.1664 c 0,0.5523 0.4477,1 1,1 h 14.5806 c 0.5523,0 1,-0.4477 1,-1 v -1.199 c 0,-0.5523 -0.4496,-0.9934 -0.9973,-1.0647 -1.6807,-0.2188 -3.2528,-0.9864 -4.4635,-2.1971 z m -6.3213,2.2618 c -0.8829,0 -1.5995,-0.7166 -1.5995,-1.5996 0,-0.8829 0.7166,-1.5995 1.5995,-1.5995 0.883,0 1.5996,0.7166 1.5996,1.5995 0,0.883 -0.7166,1.5996 -1.5996,1.5996 z"
       fill="#000"
       id="path6"
       style="fill:#1d4aff;fill-opacity:1" />
    <path
       d="m 0,27.9916 c 0,0.5523 0.447715,1 1,1 h 4.58339 c 0.8909,0 1.33707,-1.0771 0.70711,-1.7071 L 1.70711,22.7011 C 1.07714,22.0711 0,22.5173 0,23.4082 Z M 9.997,10.997 1.70711,2.70711 C 1.07714,2.07714 0,2.52331 0,3.41421 V 8.58339 C 0,8.8486 0.105357,9.10296 0.292893,9.29049 L 9.997,18.9946 Z M 1.70711,12.7041 C 1.07714,12.0741 0,12.5203 0,13.4112 v 5.1692 C 0,18.8456 0.105357,19.1 0.292893,19.2875 L 9.997,28.9916 V 20.994 Z"
       fill="#1d4aff"
       id="path8" />
    <path
       d="m 19.994,11.4112 c 0,-0.2652 -0.1053,-0.5196 -0.2929,-0.7071 L 11.7041,2.70711 C 11.0742,2.07714 9.99701,2.52331 9.99701,3.41421 v 5.16918 c 0,0.26521 0.10539,0.51957 0.29289,0.7071 L 19.994,18.9946 Z M 9.99701,28.9916 h 5.58339 c 0.8909,0 1.3371,-1.0771 0.7071,-1.7071 L 9.99701,20.994 Z m 0,-17.9946 v 7.5834 c 0,0.2652 0.10539,0.5196 0.29289,0.7071 l 9.7041,9.7041 v -7.5834 c 0,-0.2652 -0.1053,-0.5196 -0.2929,-0.7071 z"
       fill="#f54e00"
       id="path10" />
  </g>
</svg>
