<?xml version="1.0" encoding="UTF-8" standalone="no"?>
<svg
   version="1.1"
   width="256"
   height="256"
   viewBox="0 0 256 256"
   xml:space="preserve"
   id="svg10"
   sodipodi:docname="battery.svg"
   inkscape:version="1.1.2 (0a00cf5339, 2022-02-04)"
   xmlns:inkscape="http://www.inkscape.org/namespaces/inkscape"
   xmlns:sodipodi="http://sodipodi.sourceforge.net/DTD/sodipodi-0.dtd"
   xmlns="http://www.w3.org/2000/svg"
   xmlns:svg="http://www.w3.org/2000/svg"><sodipodi:namedview
   id="namedview12"
   pagecolor="#ffffff"
   bordercolor="#666666"
   borderopacity="1.0"
   inkscape:pageshadow="2"
   inkscape:pageopacity="0.0"
   inkscape:pagecheckerboard="0"
   showgrid="false"
   inkscape:zoom="0.39084223"
   inkscape:cx="144.55961"
   inkscape:cy="118.97384"
   inkscape:window-width="1482"
   inkscape:window-height="800"
   inkscape:window-x="0"
   inkscape:window-y="0"
   inkscape:window-maximized="1"
   inkscape:current-layer="svg10" />

<defs
   id="defs2">

	
	
</defs>

<path
   d="m -45.026302,1008.1852 c -2.371321,-1.9 -6.646811,-3.0856 -8.735429,-3.6595"
   stroke="#000000"
   stroke-opacity="0.9"
   stroke-width="9.64442"
   stroke-linecap="round"
   stroke-linejoin="round"
   id="path2424" /><path
   class="success"
   d="m 75.30105,140.8751 v 55.07421 h 41.30566 v -13.76855 c 0,-7.31455 2.90431,-14.30638 8.06752,-19.46959 l 21.83606,-21.83607 z m 0,0"
   fill="#33d17a"
   id="path2"
   style="fill:#ff0000;fill-opacity:1;stroke-width:13.7685" /><path
   d="m 102.83816,16.958124 c -13.768555,0 -13.768555,13.768555 -13.768555,13.768555 V 44.495228 H 75.30105 c 0,0 -9.734791,-0.215131 -19.899851,4.894294 C 45.182341,54.498934 33.995391,67.46075 33.995391,85.800887 V 195.94931 c 0,0 -0.215131,9.7348 4.894294,19.95365 5.109419,10.16506 18.071228,21.35201 36.411365,21.35201 h 68.84277 V 209.71786 H 75.30105 c -7.637246,0 -13.768549,-6.1313 -13.768549,-13.76855 V 85.800887 c 0,-7.637246 6.131303,-13.768549 13.768549,-13.768549 h 82.61132 c 7.63725,0 13.76855,6.131303 13.76855,13.768549 V 113.338 h 27.53711 V 85.800887 c 0,-18.340137 -11.18695,-31.301953 -21.35201,-36.411365 -10.21885,-5.109425 -19.95365,-4.894294 -19.95365,-4.894294 H 144.14382 V 30.726679 c 0,-13.768555 -13.76856,-13.768555 -13.76856,-13.768555 z m 82.61132,110.148426 v 0.10753 c -3.65727,-0.0538 -7.15319,1.39838 -9.7348,3.9262 l -41.30566,41.30566 c -2.5816,2.58163 -4.03376,6.07755 -4.03376,9.73482 v 13.76855 h 43.13429 l -13.28449,19.89986 c -1.45215,2.25891 -2.25891,4.94808 -2.20513,7.63725 h -0.10756 v 13.76855 h 13.76855 v -0.0537 c 3.65728,0 7.1532,-1.39838 9.73479,-3.97998 l 41.30567,-41.30566 c 2.5816,-2.58169 3.97997,-6.0776 3.97997,-9.73488 h 0.0538 V 168.4122 h -43.0805 l 13.23071,-19.89985 c 1.50593,-2.25891 2.31269,-4.9481 2.31269,-7.63726 v -13.76855 z m 0,0"
   fill="#2e3434"
   id="path4"
   style="fill:#428489;fill-opacity:1;stroke-width:13.7685" /></svg>
