<?xml version="1.0" encoding="UTF-8" standalone="no"?>
<svg
   width="50"
   height="30"
   viewBox="0 0 50 30"
   fill="none"
   version="1.1"
   id="svg12"
   sodipodi:docname="logo-orange.svg"
   inkscape:version="1.1.2 (0a00cf5339, 2022-02-04)"
   inkscape:export-filename="/home/sebadima/hugo/robotdazero/static/101.png"
   inkscape:export-xdpi="848.021"
   inkscape:export-ydpi="848.021"
   xmlns:inkscape="http://www.inkscape.org/namespaces/inkscape"
   xmlns:sodipodi="http://sodipodi.sourceforge.net/DTD/sodipodi-0.dtd"
   xmlns="http://www.w3.org/2000/svg"
   xmlns:svg="http://www.w3.org/2000/svg">
  <defs
     id="defs16" />
  <sodipodi:namedview
     id="namedview14"
     pagecolor="#ffffff"
     bordercolor="#666666"
     borderopacity="1.0"
     inkscape:pageshadow="2"
     inkscape:pageopacity="0.0"
     inkscape:pagecheckerboard="0"
     showgrid="false"
     inkscape:zoom="9.4333333"
     inkscape:cx="21.360424"
     inkscape:cy="15"
     inkscape:window-width="1482"
     inkscape:window-height="800"
     inkscape:window-x="0"
     inkscape:window-y="0"
     inkscape:window-maximized="1"
     inkscape:current-layer="svg12" />
  <path
     d="m 12.8914,15.2057 c -0.3685,0.7371 -1.42031,0.7371 -1.78884,0 L 10.2212,13.443 c -0.14077,-0.2815 -0.14077,-0.6129 0,-0.8944 l 0.88136,-1.7627 c 0.36853,-0.7371 1.42034,-0.7371 1.78884,0 l 0.8814,1.7627 c 0.1407,0.2815 0.1407,0.6129 0,0.8944 z m 0,9.9971 c -0.3685,0.737 -1.42031,0.737 -1.78884,0 L 10.2212,23.44 c -0.14077,-0.2815 -0.14077,-0.6129 0,-0.8944 l 0.88136,-1.7627 c 0.36853,-0.7371 1.42034,-0.7371 1.78884,0 l 0.8814,1.7627 c 0.1407,0.2815 0.1407,0.6129 0,0.8944 z"
     fill="#1D4AFF"
     id="path2"
     style="fill:#f54e00;fill-opacity:1" />
  <path
     d="m 2,21.4082 c 0,-0.8909 1.07714,-1.3371 1.70711,-0.7071 l 4.58338,4.5834 c 0.62997,0.63 0.1838,1.7071 -0.7071,1.7071 H 2.999999 C 2.447715,26.9916 2,26.5439 2,25.9916 Z m 0,-4.8278 c 0,0.2652 0.105357,0.5196 0.292893,0.7071 l 9.411217,9.4112 c 0.18753,0.1875 0.44189,0.2929 0.70709,0.2929 h 5.1692 c 0.8909,0 1.3371,-1.0771 0.7071,-1.7071 L 3.70711,10.7041 C 3.07714,10.0741 2,10.5203 2,11.4112 Z M 2,6.58339 C 2,6.8486 2.105357,7.10296 2.292893,7.29049 L 21.7011,26.6987 c 0.1875,0.1875 0.4419,0.2929 0.7071,0.2929 h 5.1692 c 0.8909,0 1.3371,-1.0771 0.7071,-1.7071 L 3.70711,0.70711 C 3.07715,0.07715 2,0.52331 2,1.41421 Z m 9.997,0 c 0,0.26521 0.1054,0.51957 0.2929,0.7071 l 17.994,17.99401 c 0.63,0.63 1.7071,0.1838 1.7071,-0.7071 v -5.1692 c 0,-0.2652 -0.1054,-0.5196 -0.2929,-0.7071 L 13.7041,0.7071 C 13.0741,0.07714 11.997,0.52331 11.997,1.41421 Z M 23.7011,0.70711 c -0.63,-0.62997 -1.7071,-0.1838 -1.7071,0.7071 v 5.16918 c 0,0.26521 0.1054,0.51957 0.2929,0.7071 l 7.997,7.99701 c 0.63,0.63 1.7071,0.1838 1.7071,-0.7071 V 9.4112 c 0,-0.2652 -0.1054,-0.5196 -0.2929,-0.7071 z"
     fill="#F9BD2B"
     id="path4"
     style="fill:#f54e00;fill-opacity:1" />
  <path
     d="m 44.5248,21.5308 -9.4127,-9.4127 c -0.63,-0.63 -1.7071,-0.1838 -1.7071,0.7071 v 13.1664 c 0,0.5523 0.4477,1 1,1 h 14.5806 c 0.5523,0 1,-0.4477 1,-1 v -1.199 c 0,-0.5523 -0.4496,-0.9934 -0.9973,-1.0647 -1.6807,-0.2188 -3.2528,-0.9864 -4.4635,-2.1971 z m -6.3213,2.2618 c -0.8829,0 -1.5995,-0.7166 -1.5995,-1.5996 0,-0.8829 0.7166,-1.5995 1.5995,-1.5995 0.883,0 1.5996,0.7166 1.5996,1.5995 0,0.883 -0.7166,1.5996 -1.5996,1.5996 z"
     fill="#000"
     id="path6"
     style="fill:#f54e00;fill-opacity:1" />
  <path
     d="m 2,25.9916 c 0,0.5523 0.447715,1 1,1 h 4.58339 c 0.8909,0 1.33707,-1.0771 0.70711,-1.7071 L 3.70711,20.7011 C 3.07714,20.0711 2,20.5173 2,21.4082 Z M 11.997,8.997 3.70711,0.70711 C 3.07714,0.07714 2,0.52331 2,1.41421 V 6.58339 C 2,6.8486 2.105357,7.10296 2.292893,7.29049 L 11.997,16.9946 Z M 3.70711,10.7041 C 3.07714,10.0741 2,10.5203 2,11.4112 v 5.1692 C 2,16.8456 2.105357,17.1 2.292893,17.2875 L 11.997,26.9916 V 18.994 Z"
     fill="#1D4AFF"
     id="path8"
     style="fill:#f54e00;fill-opacity:1" />
  <path
     d="m 21.994,9.4112 c 0,-0.2652 -0.1053,-0.5196 -0.2929,-0.7071 l -7.997,-7.99699 c -0.6299,-0.62997 -1.70709,-0.1838 -1.70709,0.7071 v 5.16918 c 0,0.26521 0.10539,0.51957 0.29289,0.7071 l 9.7041,9.70411 z m -9.99699,17.5804 h 5.58339 c 0.8909,0 1.3371,-1.0771 0.7071,-1.7071 L 11.99701,18.994 Z m 0,-17.9946 v 7.5834 c 0,0.2652 0.10539,0.5196 0.29289,0.7071 l 9.7041,9.7041 v -7.5834 c 0,-0.2652 -0.1053,-0.5196 -0.2929,-0.7071 z"
     fill="#F54E00"
     id="path10"
     style="fill:#f54e00;fill-opacity:1" />
</svg>
