<?xml version="1.0" encoding="UTF-8" standalone="no"?>
<svg
   width="131"
   height="131"
   fill="none"
   version="1.1"
   id="svg8"
   sodipodi:docname="logo.svg"
   inkscape:version="1.1.2 (0a00cf5339, 2022-02-04)"
   xmlns:inkscape="http://www.inkscape.org/namespaces/inkscape"
   xmlns:sodipodi="http://sodipodi.sourceforge.net/DTD/sodipodi-0.dtd"
   xmlns="http://www.w3.org/2000/svg"
   xmlns:svg="http://www.w3.org/2000/svg">
  <defs
     id="defs12" />
  <sodipodi:namedview
     id="namedview10"
     pagecolor="#ffffff"
     bordercolor="#666666"
     borderopacity="1.0"
     inkscape:pageshadow="2"
     inkscape:pageopacity="0.0"
     inkscape:pagecheckerboard="0"
     showgrid="false"
     inkscape:zoom="4.3206107"
     inkscape:cx="67.467314"
     inkscape:cy="65.384275"
     inkscape:window-width="1482"
     inkscape:window-height="800"
     inkscape:window-x="0"
     inkscape:window-y="0"
     inkscape:window-maximized="1"
     inkscape:current-layer="svg8" />
  <path
     d="m 18.397067,90.161142 h 17.032 l -17.032,-17.01 z m 21.29,-38.27 -21.29,-21.262 v 17.008 l 21.29,21.263 v -17.01 z m -21.29,0 v 17.009 l 21.29,21.26 v -17.007 z m 42.58,0 -21.29,-21.262 v 17.008 l 21.29,21.262 v -17.01 z m -21.29,38.27 h 17.03 l -17.03,-17.01 z m 0,-38.27 v 17.009 l 21.29,21.26 v -17.007 z"
     fill="#000"
     id="path6"
     style="fill:#1d4aff;fill-opacity:1" />
  <path
     d="m 39.687067,73.152142 17.032001,17.008 H 39.687067 v -17.007 z m 0,-4.252 21.290001,21.26 h 17.03 l -38.320001,-38.27 z m 0,-21.262 42.580001,42.522 h 17.03 l -59.610001,-59.53 z m 21.290001,0 42.579002,42.522 v -17.007 l -42.580002,-42.522 v 17.008 z m 21.29,-17.008 v 17.008 l 21.289002,21.262 v -17.01 l -21.290002,-21.26 z"
     fill="#000000"
     id="path2"
     style="fill:#f54e00;fill-opacity:1" />
  <path
     d="M 60.976069,73.152132 78.00807,90.160142 H 60.976069 v -17.00701 z m 0,-4.252 21.290001,21.26001 H 99.296068 L 60.976069,51.890132 Z m 0,-21.262 42.580001,42.52201 h 17.03 L 60.976069,30.630137 Z m 21.290001,0 42.579,42.52201 v -17.00701 l -42.58,-42.521995 v 17.007995 z m 21.29,-17.007995 v 17.007995 l 21.289,21.262 v -17.01 l -21.29,-21.259995 z"
     fill="#000000"
     id="path2-3"
     style="fill:#ff9955" />
  <rect
     style="fill:#ffffff;stroke-width:1.94689"
     id="rect2804"
     width="42.579994"
     height="59.529007"
     x="82.265068"
     y="30.631136" />
  <path
     fill-rule="evenodd"
     clip-rule="evenodd"
     d="m 108.95707,78.547142 a 16.457,16.457 0 0 0 11.629,4.81 v 6.803 H 85.276068 v -35.261 l 23.681002,23.649 z m -10.056002,1.408 a 3.404,3.404 0 0 1 -3.406,3.402 3.404,3.404 0 0 1 -3.406,-3.402 3.404,3.404 0 0 1 3.406,-3.402 3.404,3.404 0 0 1 3.406,3.402 z"
     fill="#000000"
     id="path4" />
</svg>
