<?xml version="1.0" encoding="UTF-8" standalone="no"?>
<svg
   version="1.1"
   width="256"
   height="256"
   viewBox="0 0 256 256"
   xml:space="preserve"
   id="svg10"
   sodipodi:docname="logo.svg"
   inkscape:version="1.1.2 (0a00cf5339, 2022-02-04)"
   xmlns:inkscape="http://www.inkscape.org/namespaces/inkscape"
   xmlns:sodipodi="http://sodipodi.sourceforge.net/DTD/sodipodi-0.dtd"
   xmlns="http://www.w3.org/2000/svg"
   xmlns:svg="http://www.w3.org/2000/svg"><sodipodi:namedview
   id="namedview12"
   pagecolor="#ffffff"
   bordercolor="#666666"
   borderopacity="1.0"
   inkscape:pageshadow="2"
   inkscape:pageopacity="0.0"
   inkscape:pagecheckerboard="0"
   showgrid="false"
   inkscape:zoom="2.2109375"
   inkscape:cx="50.204947"
   inkscape:cy="120.5371"
   inkscape:window-width="1482"
   inkscape:window-height="800"
   inkscape:window-x="0"
   inkscape:window-y="0"
   inkscape:window-maximized="1"
   inkscape:current-layer="svg10" />

<defs
   id="defs2">

	
	
</defs>
<circle
   cx="127.85659"
   cy="127.85659"
   r="126.45"
   style="fill:#f9bd2b;fill-rule:nonzero;stroke:none;stroke-width:2.81;stroke-linecap:butt;stroke-linejoin:miter;stroke-miterlimit:10;stroke-dasharray:none;fill-opacity:1"
   id="circle4" />
<g
   id="g4340"
   transform="matrix(0.60277597,0,0,0.60277597,13.201277,5.5028466)"><path
     d="m 287.547,174.382 c 0,-4.382 3.608,-8.053 8.059,-8.199 4.452,-0.146 8.06,3.289 8.06,7.671 z m -152.149,101.26 c -4.328,-0.88 -6.996,-5.076 -5.958,-9.372 1.038,-4.295 5.389,-7.064 9.717,-6.184 z M 303.666,173.854 c 0,24.176 -12.163,46.301 14.906,69.727 l -10.864,12.081 c -34.037,-29.458 -20.161,-64.677 -20.161,-81.28 z m 14.906,69.727 c 2.432,2.104 4.853,4.907 5.754,8.537 1.039,4.187 -0.267,8.086 -2.726,11.027 -2.171,2.596 -5.124,4.357 -7.84,5.612 -2.834,1.309 -6.127,2.389 -9.65,3.304 -13.896,3.613 -35.1,5.593 -57.367,6.561 -22.463,0.976 -46.682,0.945 -66.968,0.331 -20.014,-0.606 -36.935,-1.798 -44.377,-3.311 l 3.759,-15.556 c 5.877,1.195 21.417,2.382 41.648,2.995 19.96,0.605 43.771,0.633 65.763,-0.323 22.188,-0.965 41.865,-2.909 53.917,-6.042 2.964,-0.771 5.224,-1.553 6.834,-2.297 1.726,-0.797 2.105,-1.277 1.978,-1.126 -0.415,0.497 -0.966,1.75 -0.637,3.076 0.191,0.768 0.436,0.494 -0.952,-0.707 z"
     fill="#000000"
     fill-opacity="0.9"
     id="path2416" /><path
     d="m 268.756,156.202 c 0.549,-7.808 -0.364,-14.864 -3.623,-21.855"
     stroke="#000000"
     stroke-opacity="0.9"
     stroke-width="16"
     stroke-linecap="round"
     stroke-linejoin="round"
     id="path2418" /><path
     d="m 235.417,132.552 c -1.966,-5.563 -6.027,-10.092 -9.964,-14.57"
     stroke="#000000"
     stroke-opacity="0.9"
     stroke-width="16"
     stroke-linecap="round"
     stroke-linejoin="round"
     id="path2420" /><path
     d="M 192.738,114.024 C 190.228,108.177 186.575,103.737 183.355,99"
     stroke="#000000"
     stroke-opacity="0.9"
     stroke-width="16"
     stroke-linecap="round"
     stroke-linejoin="round"
     id="path2422" /><path
     d="m 138.482,115.617 c -3.934,-3.152 -11.027,-5.119 -14.492,-6.071"
     stroke="#000000"
     stroke-opacity="0.9"
     stroke-width="16"
     stroke-linecap="round"
     stroke-linejoin="round"
     id="path2424" /><path
     d="m 101.613,139.27 c -3.6786,-3.247 -11.8864,-4.705 -13.5864,-4.857"
     stroke="#000000"
     stroke-opacity="0.9"
     stroke-width="16"
     stroke-linecap="round"
     stroke-linejoin="round"
     id="path2426" /><path
     d="m 79.0596,178.815 c -4.851,0.199 -9.7562,-0.02 -14.4915,-0.405"
     stroke="#000000"
     stroke-opacity="0.9"
     stroke-width="16"
     stroke-linecap="round"
     stroke-linejoin="round"
     id="path2428" /><path
     d="m 78.6885,220.262 c -3.2719,1.851 -9.7826,3.362 -11.7748,4.047"
     stroke="#000000"
     stroke-opacity="0.9"
     stroke-width="16"
     stroke-linecap="round"
     stroke-linejoin="round"
     id="path2430" /><path
     d="m 98.791,255.673 c -1.5872,3.048 -5.1879,5.683 -7.2461,7.69"
     stroke="#000000"
     stroke-opacity="0.9"
     stroke-width="16"
     stroke-linecap="round"
     stroke-linejoin="round"
     id="path2432" /><path
     d="m 274.495,237.854 c 0.349,-1.205 0.605,-2.429 0.906,-3.643"
     stroke="#000000"
     stroke-opacity="0.9"
     stroke-width="16"
     stroke-linecap="round"
     stroke-linejoin="round"
     id="path2434" /><path
     d="m 245.175,294.306 c -5.201,-1.679 -11.913,0 -19.938,-15.024"
     stroke="#000000"
     stroke-opacity="0.9"
     stroke-width="16"
     stroke-linecap="round"
     stroke-linejoin="round"
     id="path2436" /><path
     d="m 137.278,291.087 c -4.696,-0.192 -12.896,0 -17.592,-2.944"
     stroke="#000000"
     stroke-opacity="0.9"
     stroke-width="16"
     stroke-linecap="round"
     stroke-linejoin="round"
     id="path2438" /></g></svg>
