<?xml version="1.0" encoding="UTF-8" standalone="no"?>
<svg
   width="157"
   height="30"
   viewBox="0 0 157 30"
   fill="none"
   version="1.1"
   id="svg2432"
   sodipodi:docname="posthog-logo-white.svg"
   inkscape:version="1.1.2 (0a00cf5339, 2022-02-04)"
   xmlns:inkscape="http://www.inkscape.org/namespaces/inkscape"
   xmlns:sodipodi="http://sodipodi.sourceforge.net/DTD/sodipodi-0.dtd"
   xmlns="http://www.w3.org/2000/svg"
   xmlns:svg="http://www.w3.org/2000/svg">
  <sodipodi:namedview
     id="namedview2434"
     pagecolor="#ffffff"
     bordercolor="#666666"
     borderopacity="1.0"
     inkscape:pageshadow="2"
     inkscape:pageopacity="0.0"
     inkscape:pagecheckerboard="0"
     showgrid="false"
     inkscape:zoom="8.0955414"
     inkscape:cx="41.31904"
     inkscape:cy="15.008261"
     inkscape:window-width="1482"
     inkscape:window-height="800"
     inkscape:window-x="0"
     inkscape:window-y="0"
     inkscape:window-maximized="1"
     inkscape:current-layer="svg2432" />
  <g
     id="g5851">
    <path
       d="m 10.8914,17.2057 c -0.3685,0.7371 -1.42031,0.7371 -1.78884,0 L 8.2212,15.443 c -0.14077,-0.2815 -0.14077,-0.6129 0,-0.8944 l 0.88136,-1.7628 c 0.36853,-0.737 1.42034,-0.737 1.78884,0 l 0.8814,1.7628 c 0.1407,0.2815 0.1407,0.6129 0,0.8944 z m 0,9.9971 c -0.3685,0.737 -1.42031,0.737 -1.78884,0 L 8.2212,25.44 c -0.14077,-0.2815 -0.14077,-0.6129 0,-0.8944 l 0.88136,-1.7627 c 0.36853,-0.7371 1.42034,-0.7371 1.78884,0 l 0.8814,1.7627 c 0.1407,0.2815 0.1407,0.6129 0,0.8944 z"
       id="path2419"
       style="fill:#cccccc" />
    <path
       d="m 0,23.4082 c 0,-0.8909 1.07714,-1.3371 1.70711,-0.7071 l 4.58338,4.5834 c 0.62997,0.63 0.1838,1.7071 -0.7071,1.7071 H 0.999999 C 0.447715,28.9916 0,28.5439 0,27.9916 Z m 0,-4.8278 c 0,0.2652 0.105357,0.5196 0.292893,0.7071 l 9.411217,9.4112 c 0.18753,0.1875 0.44189,0.2929 0.70709,0.2929 h 5.1692 c 0.8909,0 1.3371,-1.0771 0.7071,-1.7071 L 1.70711,12.7041 C 1.07714,12.0741 0,12.5203 0,13.4112 Z M 0,8.58339 C 0,8.8486 0.105357,9.10296 0.292893,9.29049 L 19.7011,28.6987 c 0.1875,0.1875 0.4419,0.2929 0.7071,0.2929 h 5.1692 c 0.8909,0 1.3371,-1.0771 0.7071,-1.7071 L 1.70711,2.70711 C 1.07715,2.07715 0,2.52331 0,3.41421 Z m 9.997,0 c 0,0.26521 0.1054,0.51957 0.2929,0.7071 l 17.994,17.99401 c 0.63,0.63 1.7071,0.1838 1.7071,-0.7071 v -5.1692 c 0,-0.2652 -0.1054,-0.5196 -0.2929,-0.7071 L 11.7041,2.7071 C 11.0741,2.07714 9.997,2.52331 9.997,3.41421 Z M 21.7011,2.70711 c -0.63,-0.62997 -1.7071,-0.1838 -1.7071,0.7071 v 5.16918 c 0,0.26521 0.1054,0.51957 0.2929,0.7071 l 7.997,7.99701 c 0.63,0.63 1.7071,0.1838 1.7071,-0.7071 v -5.1692 c 0,-0.2652 -0.1054,-0.5196 -0.2929,-0.7071 z M 42.5248,23.5308 33.1121,14.1181 c -0.63,-0.63 -1.7071,-0.1838 -1.7071,0.7071 v 13.1664 c 0,0.5523 0.4477,1 1,1 h 14.5806 c 0.5523,0 1,-0.4477 1,-1 v -1.199 c 0,-0.5523 -0.4496,-0.9934 -0.9973,-1.0647 -1.6807,-0.2188 -3.2528,-0.9864 -4.4635,-2.1971 z m -6.3213,2.2618 c -0.8829,0 -1.5995,-0.7166 -1.5995,-1.5996 0,-0.8829 0.7166,-1.5995 1.5995,-1.5995 0.883,0 1.5996,0.7166 1.5996,1.5995 0,0.883 -0.7166,1.5996 -1.5996,1.5996 z"
       id="path2421"
       style="fill:#cccccc" />
  </g>
  <path
     d="m 0,27.9916 c 0,0.5523 0.447715,1 1,1 h 4.58339 c 0.8909,0 1.33707,-1.0771 0.70711,-1.7071 L 1.70711,22.7011 C 1.07714,22.0711 0,22.5173 0,23.4082 Z M 9.997,10.997 1.70711,2.70711 C 1.07714,2.07714 0,2.52331 0,3.41421 V 8.58339 C 0,8.8486 0.105357,9.10296 0.292893,9.29049 L 9.997,18.9946 Z M 1.70711,12.7041 C 1.07714,12.0741 0,12.5203 0,13.4112 v 5.1692 C 0,18.8456 0.105357,19.1 0.292893,19.2875 L 9.997,28.9916 V 20.994 Z M 19.994,11.4112 c 0,-0.2652 -0.1053,-0.5196 -0.2929,-0.7071 L 11.7041,2.70711 C 11.0742,2.07714 9.99701,2.52331 9.99701,3.41421 v 5.16918 c 0,0.26521 0.10539,0.51957 0.29289,0.7071 L 19.994,18.9946 Z M 9.99701,28.9916 h 5.58339 c 0.8909,0 1.3371,-1.0771 0.7071,-1.7071 L 9.99701,20.994 Z m 0,-17.9946 v 7.5834 c 0,0.2652 0.10539,0.5196 0.29289,0.7071 l 9.7041,9.7041 v -7.5834 c 0,-0.2652 -0.1053,-0.5195 -0.2929,-0.7071 z M 59.6496,25 h 4.108 v -6.812 h 3.432 c 3.77,0 6.188,-2.236 6.188,-5.694 0,-3.45795 -2.418,-5.69395 -6.188,-5.69395 h -7.54 z m 4.108,-10.322 v -4.3679 h 3.016 c 1.56,0 2.496,0.8319 2.496,2.1839 0,1.3521 -0.936,2.184 -2.496,2.184 z m 17.0519,10.53 c 4.004,0 6.916,-2.86 6.916,-6.76 0,-3.9 -2.912,-6.76 -6.916,-6.76 -4.056,0 -6.916,2.86 -6.916,6.76 0,3.9 2.86,6.76 6.916,6.76 z m -3.12,-6.76 c 0,-2.08 1.248,-3.51 3.12,-3.51 1.846,0 3.094,1.43 3.094,3.51 0,2.08 -1.248,3.51 -3.094,3.51 -1.872,0 -3.12,-1.43 -3.12,-3.51 z m 16.61,6.76 c 3.068,0 5.148,-1.924 5.148,-4.186 0,-5.304 -7.046,-3.5879 -7.046,-5.668 0,-0.5719 0.598,-0.9359 1.456,-0.9359 0.884,0 1.95,0.5459 2.288,1.7419 l 3.068,-1.274 c -0.598,-1.898 -2.808,-3.198 -5.486,-3.198 -2.886,0 -4.68,1.716 -4.68,3.77 0,4.966 6.942,3.588 6.942,5.642 0,0.728 -0.676,1.2221 -1.69,1.2221 -1.456,0 -2.47,-1.014 -2.782,-2.236 l -3.068,1.1959 c 0.676,1.976 2.652,3.926 5.85,3.926 z m 15.0305,-0.3379 -0.26,-3.302 c -0.442,0.234 -1.014,0.3119 -1.482,0.3119 -0.936,0 -1.56,-0.6759 -1.56,-1.846 v -4.966 h 3.172 v -3.172 h -3.172 V 8.10005 h -3.822 V 11.896 h -2.08 v 3.172 h 2.08 v 5.46 c 0,3.172 2.158,4.68 4.992,4.68 0.78,0 1.508,-0.1299 2.132,-0.3379 z M 122.656,6.80005 V 13.872 h -7.228 V 6.80005 H 111.32 V 25 h 4.108 v -7.618 h 7.228 V 25 h 4.134 V 6.80005 Z M 135.908,25.208 c 4.004,0 6.916,-2.86 6.916,-6.76 0,-3.9 -2.912,-6.76 -6.916,-6.76 -4.056,0 -6.916,2.86 -6.916,6.76 0,3.9 2.86,6.76 6.916,6.76 z m -3.12,-6.76 c 0,-2.08 1.248,-3.51 3.12,-3.51 1.846,0 3.094,1.43 3.094,3.51 0,2.08 -1.248,3.51 -3.094,3.51 -1.872,0 -3.12,-1.43 -3.12,-3.51 z m 17.413,6.136 c 1.43,0 2.704,-0.4939 3.38,-1.352 v 1.248 c 0,1.456 -1.17,2.4701 -2.964,2.4701 -1.274,0 -2.392,-0.6241 -2.574,-1.6901 l -3.484,0.546 c 0.468,2.47 2.99,4.1341 6.058,4.1341 4.03,0 6.708,-2.3661 6.708,-5.8761 V 11.896 h -3.77 v 1.118 c -0.702,-0.806 -1.898,-1.326 -3.432,-1.326 -3.64,0 -5.928,2.496 -5.928,6.448 0,3.952 2.288,6.448 6.006,6.448 z m -2.288,-6.448 c 0,-1.95 1.144,-3.198 2.912,-3.198 1.794,0 2.938,1.248 2.938,3.198 0,1.95 -1.144,3.198 -2.938,3.198 -1.768,0 -2.912,-1.248 -2.912,-3.198 z"
     id="path2423"
     style="fill:#cccccc" />
  <defs
     id="defs2430">
    <clipPath
       id="clip0">
      <path
         fill="#fff"
         d="M0 0h157v30H0z"
         id="path2427" />
    </clipPath>
  </defs>
</svg>
