<?xml version="1.0" standalone="no"?>
<!DOCTYPE svg PUBLIC "-//W3C//DTD SVG 20010904//EN"
 "http://www.w3.org/TR/2001/REC-SVG-20010904/DTD/svg10.dtd">
<svg version="1.0" xmlns="http://www.w3.org/2000/svg"
 width="1600.000000pt" height="1600.000000pt" viewBox="0 0 1600.000000 1600.000000"
 preserveAspectRatio="xMidYMid meet">
<metadata>
Created by potrace 1.14, written by Peter Selinger 2001-2017
</metadata>
<g transform="translate(0.000000,1600.000000) scale(0.100000,-0.100000)"
fill="#000000" stroke="none">
<path d="M225 12014 c-27 -9 -57 -22 -66 -30 -8 -8 -19 -14 -23 -14 -10 0 -76
-62 -76 -72 0 -5 -7 -16 -15 -24 -8 -9 -22 -39 -30 -68 -13 -46 -15 -168 -13
-947 l3 -894 25 -50 c19 -40 645 -672 3193 -3219 2251 -2252 3171 -3166 3179
-3158 7 7 19 7 37 0 21 -8 128 -20 166 -18 119 5 265 3 265 -3 0 -5 5 -5 12
-1 17 11 108 11 108 1 0 -5 5 -5 12 -1 17 11 138 11 138 1 0 -5 5 -5 12 -1 17
11 108 11 108 1 0 -5 5 -5 12 -1 17 10 148 11 148 0 0 -5 6 -4 13 1 14 10 107
10 125 -1 7 -4 12 -4 12 1 0 10 221 10 238 -1 7 -4 12 -3 12 1 0 5 26 7 58 6
70 -4 64 -4 135 0 31 1 57 -1 57 -6 0 -4 5 -5 11 -1 6 4 50 8 98 9 57 2 98 8
119 19 18 9 32 13 32 9 0 -5 4 -3 8 2 4 6 24 23 46 39 118 88 153 264 80 405
-9 19 -1663 1682 -3675 3695 -2012 2014 -3663 3666 -3668 3671 -9 9 -296 295
-318 318 -134 135 -294 287 -302 287 -6 0 -11 4 -11 8 0 7 -45 29 -80 39 -47
13 -140 11 -185 -3z"/>
<path d="M3445 12020 c-63 -16 -107 -42 -160 -95 -30 -31 -54 -59 -53 -63 1
-4 -4 -19 -10 -35 -7 -15 -14 -40 -18 -55 -9 -43 -10 -1732 -1 -1777 5 -22 18
-60 30 -85 30 -63 5834 -5867 5899 -5899 152 -73 326 -26 415 113 50 78 50 61
48 1011 l-1 890 -27 57 c-24 50 -376 406 -2941 2970 -1602 1602 -2920 2918
-2927 2923 -64 46 -174 66 -254 45z"/>
<path d="M6609 12007 c-58 -22 -64 -25 -120 -80 -43 -42 -76 -105 -84 -163
-10 -67 -11 -144 -2 -144 6 0 6 -5 0 -12 -5 -7 -7 -47 -6 -88 4 -91 4 -83 0
-150 -1 -30 1 -61 6 -67 5 -7 6 -13 1 -13 -5 0 -8 -37 -6 -82 3 -97 3 -88 -1
-158 -1 -30 1 -61 6 -67 5 -7 6 -13 1 -13 -5 0 -8 -37 -6 -82 3 -97 3 -88 -1
-158 -1 -30 1 -61 6 -67 5 -7 6 -13 1 -13 -5 0 -8 -37 -6 -82 3 -97 3 -88 -1
-158 -1 -30 1 -61 6 -67 5 -7 6 -13 1 -13 -5 0 -9 -34 -9 -75 0 -41 4 -75 9
-75 5 0 4 -6 -1 -12 -5 -7 -7 -31 -6 -53 5 -57 5 -69 2 -80 -5 -21 15 -92 39
-134 16 -29 501 -521 1339 -1359 1457 -1457 1357 -1366 1493 -1366 155 0 281
97 318 244 8 34 9 1779 0 1810 -6 22 -41 93 -53 108 -17 21 -2601 2605 -2629
2629 -14 13 -29 24 -34 25 -4 0 -23 8 -42 16 -53 23 -157 23 -221 -1z"/>
<path d="M213 8810 c-86 -30 -142 -80 -184 -165 l-24 -50 0 -915 0 -915 25
-49 c19 -39 356 -382 1575 -1600 853 -853 1561 -1560 1574 -1571 14 -12 41
-21 69 -23 61 -4 113 -2 123 4 4 2 10 0 13 -5 4 -6 18 -6 35 -1 16 4 31 6 34
4 8 -8 73 -10 105 -3 17 4 34 3 37 -1 3 -4 21 -4 40 0 19 4 37 4 40 0 3 -4 21
-4 40 0 19 4 37 4 40 0 3 -4 20 -5 37 -1 18 4 44 6 58 4 52 -5 230 -4 239 1 5
4 12 2 15 -3 3 -5 21 -6 38 -2 18 4 48 4 66 0 18 -3 35 -3 38 2 3 5 10 7 15 3
5 -3 34 -5 64 -4 30 0 63 1 73 0 78 -2 134 0 141 5 5 3 12 1 15 -4 3 -5 21 -5
41 -1 19 4 37 4 40 0 3 -4 21 -4 40 0 20 4 38 4 41 -1 3 -5 10 -6 16 -3 5 3
44 6 86 5 43 -1 83 -2 90 -2 20 1 61 1 75 0 62 -2 166 38 218 85 38 33 76 94
92 146 17 56 14 174 -4 197 -8 9 -13 18 -12 19 4 9 -10 44 -18 44 -5 0 -9 6
-9 13 0 6 -155 166 -344 354 -189 189 -341 345 -338 348 3 3 1 5 -4 5 -6 0
-161 151 -346 335 -184 184 -333 335 -331 335 3 0 -8 11 -24 24 -55 47 -453
448 -453 457 0 5 -4 9 -8 9 -12 0 -552 541 -552 552 0 5 -3 8 -7 6 -10 -4
-1201 1190 -1195 1197 3 3 1 5 -5 5 -5 0 -80 70 -165 155 -86 85 -153 155
-151 155 2 0 -8 11 -24 24 -60 51 -580 576 -575 581 3 3 1 5 -5 5 -5 0 -50 41
-99 90 -89 91 -162 146 -205 157 -57 14 -155 11 -206 -7z"/>
<path d="M10315 8373 c-11 -2 -27 -7 -35 -10 -8 -4 -17 -7 -20 -7 -3 -1 -21
-9 -40 -18 -54 -25 -110 -85 -139 -147 l-26 -56 -2 -2180 -2 -2180 28 -60 c29
-62 79 -125 99 -125 7 0 12 -4 12 -9 0 -5 25 -19 56 -31 41 -17 79 -24 143
-25 48 -1 93 -5 99 -9 7 -4 12 -3 12 1 0 5 26 7 58 6 31 -2 62 -3 67 -3 6 0
52 1 103 3 50 1 92 -2 92 -6 0 -5 5 -5 12 -1 17 11 161 11 176 1 7 -6 12 -6
12 0 0 4 26 7 58 6 31 -2 62 -3 67 -3 6 0 36 1 68 3 31 1 57 -1 57 -6 0 -4 6
-5 12 -1 17 11 178 11 178 1 0 -5 5 -5 12 -1 17 11 161 11 176 1 7 -6 12 -6
12 0 0 4 26 7 58 6 31 -2 62 -3 67 -3 6 0 36 1 68 3 31 1 57 -1 57 -6 0 -4 6
-5 12 -1 17 11 178 11 178 1 0 -5 5 -5 12 -1 17 11 161 11 176 1 7 -6 12 -6
12 0 0 4 26 7 58 6 31 -2 62 -3 67 -3 6 0 36 1 68 3 31 1 57 -1 57 -6 0 -4 6
-5 12 -1 17 11 178 11 178 1 0 -5 5 -5 11 -1 17 10 109 10 109 0 0 -5 6 -4 13
1 14 10 107 10 125 -1 7 -4 12 -4 12 1 0 4 59 8 130 8 72 0 130 -4 130 -8 0
-5 5 -5 12 -1 17 11 108 11 108 1 0 -5 5 -5 12 -1 17 11 138 11 138 1 0 -5 5
-5 12 -1 17 11 108 11 108 1 0 -5 5 -5 12 -1 17 10 148 11 148 0 0 -5 6 -4 13
1 14 10 107 10 125 -1 7 -4 12 -4 12 1 0 10 246 10 256 0 4 -3 14 -3 23 1 9 5
34 7 56 5 22 -2 46 -3 53 -3 10 0 88 0 147 0 8 0 35 0 60 0 25 0 51 0 58 0 6
0 45 1 85 2 39 2 72 -1 72 -6 0 -5 6 -4 13 1 14 10 107 10 125 -1 7 -4 12 -4
12 1 0 4 35 8 78 9 42 1 88 3 102 5 86 16 202 118 225 199 15 53 19 99 20 220
0 80 4 150 7 156 4 6 4 14 0 18 -3 4 -7 35 -8 69 -2 87 -7 137 -14 137 -3 0
-11 15 -18 34 -7 18 -30 54 -52 79 -69 78 -142 109 -325 141 -116 20 -145 25
-175 32 -14 3 -27 6 -30 6 -3 0 -20 6 -37 13 -18 8 -33 12 -33 10 0 -14 -283
97 -420 164 -49 24 -84 44 -233 130 -23 13 -44 27 -47 30 -3 4 -30 24 -60 46
-30 22 -60 44 -66 50 -6 5 -21 17 -34 25 -54 37 -193 174 -1677 1657 -1562
1560 -1610 1606 -1683 1620 -30 6 -116 9 -135 6z m1373 -2815 c19 -5 43 -11
54 -13 92 -18 275 -173 294 -250 3 -14 10 -25 16 -25 5 0 7 -4 3 -9 -3 -5 -1
-12 4 -15 4 -3 12 -20 16 -38 4 -18 10 -40 12 -48 2 -8 5 -55 5 -105 1 -70 -4
-104 -21 -154 -22 -59 -51 -117 -76 -149 -27 -35 -111 -112 -127 -118 -10 -3
-18 -9 -18 -14 0 -5 -17 -14 -37 -21 -21 -6 -42 -15 -48 -19 -9 -7 -25 -11
-95 -25 -49 -10 -175 -6 -210 7 -8 3 -36 13 -63 23 -151 54 -278 204 -313 370
-10 48 -11 146 -1 200 15 89 73 193 146 265 63 62 150 115 202 125 13 3 38 9
54 14 40 11 160 11 203 -1z"/>
<path d="M225 5617 c-58 -20 -85 -37 -136 -89 -30 -30 -55 -67 -68 -103 -21
-57 -21 -62 -19 -863 l3 -807 24 -49 c47 -94 146 -167 246 -181 53 -8 133 -8
145 0 6 3 10 2 10 -3 0 -5 19 -6 43 -2 24 3 52 4 61 0 10 -3 41 -3 69 0 29 3
69 3 89 -1 21 -3 40 -3 43 -1 7 7 112 5 123 -2 4 -2 14 -1 21 3 7 5 27 5 45 1
17 -4 40 -4 51 0 11 4 32 4 47 -1 14 -4 29 -5 32 -2 3 4 34 5 68 4 35 -1 68
-2 73 -2 6 0 42 0 80 1 39 1 75 1 80 0 6 -1 15 -1 20 0 20 4 115 1 123 -4 4
-2 14 -1 21 3 7 5 28 5 47 1 20 -5 34 -4 34 2 0 5 5 6 10 3 6 -3 40 -6 78 -5
37 1 78 1 92 1 46 -2 134 21 171 45 34 21 62 47 97 89 61 72 76 226 33 320
-19 41 -166 193 -795 822 -539 540 -786 780 -819 799 -59 32 -177 42 -242 21z"/>
</g>
</svg>
