<svg xmlns="http://www.w3.org/2000/svg" xmlns:xlink="http://www.w3.org/1999/xlink" viewBox="0 0 320 180"><defs><style>.cls-1,.cls-10,.cls-11,.cls-16,.cls-17,.cls-20,.cls-22,.cls-28,.cls-39,.cls-8,.cls-9{fill:none;}.cls-2{isolation:isolate;}.cls-13,.cls-3{fill:#e8eaed;}.cls-4{fill:#dadce0;}.cls-5{fill:#9ba0a6;}.cls-6{fill:#fff;}.cls-7{fill:#4285f4;}.cls-8{stroke:#fff;}.cls-10,.cls-11,.cls-16,.cls-17,.cls-20,.cls-22,.cls-28,.cls-8,.cls-9{stroke-linecap:round;}.cls-16,.cls-17,.cls-28,.cls-8{stroke-linejoin:round;}.cls-9{stroke:#dadce0;}.cls-10,.cls-11,.cls-20,.cls-22,.cls-9{stroke-miterlimit:10;}.cls-10,.cls-28{stroke:#4285f4;}.cls-10,.cls-11,.cls-16,.cls-17,.cls-20,.cls-22,.cls-28{stroke-width:2px;}.cls-11{stroke:#e9eaed;}.cls-12{fill:url(#linear-gradient);}.cls-13{opacity:0.5;}.cls-13,.cls-25,.cls-27,.cls-32,.cls-34,.cls-36,.cls-38{mix-blend-mode:multiply;}.cls-14{fill:#fbbc04;}.cls-15{fill:silver;}.cls-16{stroke:#ea4335;}.cls-17{stroke:silver;}.cls-18{fill:url(#linear-gradient-2);}.cls-19{fill:#e9eaed;}.cls-20{stroke:#34a853;}.cls-21{clip-path:url(#clip-path);}.cls-22{stroke:#f9ab00;}.cls-23{fill:url(#linear-gradient-3);}.cls-24{fill:#34a853;}.cls-25{fill:url(#linear-gradient-4);}.cls-26{fill:#ea4335;}.cls-27{fill:url(#linear-gradient-5);}.cls-29{clip-path:url(#clip-path-2);}.cls-30{fill:#f8f9fa;}.cls-31{fill:url(#linear-gradient-6);}.cls-32{fill:url(#linear-gradient-7);}.cls-33,.cls-35{mix-blend-mode:overlay;}.cls-33{fill:url(#linear-gradient-8);}.cls-34{fill:url(#linear-gradient-9);}.cls-35{fill:url(#linear-gradient-10);}.cls-36{fill:url(#linear-gradient-11);}.cls-37{fill:url(#linear-gradient-12);}.cls-38{fill:url(#linear-gradient-13);}.cls-39{opacity:0.1;}</style><linearGradient id="linear-gradient" x1="232.87" y1="21.91" x2="180.72" y2="78.75" gradientUnits="userSpaceOnUse"><stop offset="0" stop-color="#fff"/><stop offset="1" stop-color="#fff" stop-opacity="0"/></linearGradient><linearGradient id="linear-gradient-2" x1="286.95" y1="88.79" x2="234.8" y2="132.15" xlink:href="#linear-gradient"/><clipPath id="clip-path"><rect class="cls-1" x="239.16" y="50.59" width="33.39" height="27.24"/></clipPath><linearGradient id="linear-gradient-3" x1="310.05" y1="26.4" x2="245.59" y2="75.62" gradientUnits="userSpaceOnUse"><stop offset="0" stop-color="#fff"/><stop offset="0.78" stop-color="#fff" stop-opacity="0"/></linearGradient><linearGradient id="linear-gradient-4" x1="220.2" y1="32.05" x2="239.89" y2="32.05" gradientUnits="userSpaceOnUse"><stop offset="0" stop-color="#34a853" stop-opacity="0.4"/><stop offset="1" stop-color="#34a853" stop-opacity="0"/></linearGradient><linearGradient id="linear-gradient-5" x1="264.25" y1="106.05" x2="283.94" y2="106.05" gradientUnits="userSpaceOnUse"><stop offset="0" stop-color="#ea4335" stop-opacity="0.4"/><stop offset="1" stop-color="#ea4335" stop-opacity="0"/></linearGradient><clipPath id="clip-path-2"><rect class="cls-1" x="38.42" y="82.89" width="58.42" height="27.5"/></clipPath><linearGradient id="linear-gradient-6" x1="60.51" y1="66.6" x2="52.52" y2="87.64" xlink:href="#linear-gradient"/><linearGradient id="linear-gradient-7" x1="72.43" y1="75.88" x2="91.38" y2="99.51" gradientTransform="translate(4.46 -3.92) rotate(2.49)" gradientUnits="userSpaceOnUse"><stop offset="0.54" stop-color="#9aa0a6"/><stop offset="1" stop-color="#9aa0a6" stop-opacity="0"/></linearGradient><linearGradient id="linear-gradient-8" x1="68.35" y1="87.81" x2="85.93" y2="101.97" gradientTransform="translate(102.02 -29.75) rotate(47.49)" xlink:href="#linear-gradient"/><linearGradient id="linear-gradient-9" x1="75.52" y1="75.27" x2="91.54" y2="110.43" gradientTransform="translate(4.74 -3.81) rotate(2.49)" xlink:href="#linear-gradient-7"/><linearGradient id="linear-gradient-10" x1="73.53" y1="94.13" x2="79.49" y2="110.54" gradientTransform="translate(154.94 226.95) rotate(-177.51)" xlink:href="#linear-gradient"/><linearGradient id="linear-gradient-11" x1="75.03" y1="91.95" x2="100.22" y2="103.37" gradientTransform="translate(90.07 245.25) rotate(-132.51)" xlink:href="#linear-gradient-7"/><linearGradient id="linear-gradient-12" x1="118.41" y1="55.88" x2="69.19" y2="106.27" gradientTransform="translate(175.5 40.24) rotate(90)" xlink:href="#linear-gradient-3"/><linearGradient id="linear-gradient-13" x1="19.78" y1="62.94" x2="39.46" y2="62.94" gradientUnits="userSpaceOnUse"><stop offset="0" stop-color="#4285f4" stop-opacity="0.4"/><stop offset="1" stop-color="#4285f4" stop-opacity="0"/></linearGradient></defs><title>9. Content in Google services</title><g class="cls-2"><g data-name="Layer 2"><g><rect class="cls-3" x="113.34" y="57.59" width="108.32" height="77.19"/><path class="cls-4" d="M114.77,50.68H220.23a1.42,1.42,0,0,1,1.42,1.42v5.68a0,0,0,0,1,0,0H113.34a0,0,0,0,1,0,0V52.1A1.42,1.42,0,0,1,114.77,50.68Z"/><circle class="cls-5" cx="117.07" cy="54.23" r="0.99"/><rect class="cls-6" x="121.38" y="67.42" width="79.64" height="8.71" rx="4.35"/><path class="cls-7" d="M196.66,67.42h-5.89v8.7h5.89a4.35,4.35,0,0,0,0-8.7Z"/><circle class="cls-8" cx="195.23" cy="71.15" r="1.43"/><line class="cls-8" x1="196.28" y1="72.12" x2="197.98" y2="73.81"/><line class="cls-9" x1="121.62" y1="92.03" x2="200.8" y2="92.03"/><line class="cls-10" x1="127.04" y1="85.03" x2="163.02" y2="85.03"/><line class="cls-11" x1="126.15" y1="71.77" x2="145.29" y2="71.77"/><line class="cls-9" x1="121.62" y1="108.1" x2="200.8" y2="108.1"/><line class="cls-10" x1="127.04" y1="101.1" x2="154.52" y2="101.1"/><line class="cls-9" x1="121.62" y1="124.18" x2="200.8" y2="124.18"/><line class="cls-10" x1="127.04" y1="117.18" x2="173.23" y2="117.18"/><circle class="cls-7" cx="122.75" cy="85.03" r="1.38"/><circle class="cls-7" cx="122.75" cy="101.1" r="1.38"/><circle class="cls-7" cx="122.75" cy="117.18" r="1.38"/><path class="cls-12" d="M220.23,50.68H114.77a1.42,1.42,0,0,0-1.43,1.42v82.67H221.66V52.1A1.42,1.42,0,0,0,220.23,50.68Z"/><polygon class="cls-13" points="189.24 158.12 166.02 117.28 190.51 108.89 189.24 158.12"/><rect class="cls-3" x="189.16" y="108.58" width="86.13" height="51.42" rx="2.53"/><path class="cls-14" d="M203.49,134.05l-2.85,2a.48.48,0,0,1-.73-.53l1-3.32a.49.49,0,0,0-.17-.52l-2.77-2.1a.47.47,0,0,1,.28-.85l3.47-.08a.46.46,0,0,0,.44-.32l1.14-3.28a.48.48,0,0,1,.9,0l1.14,3.28a.47.47,0,0,0,.44.32l3.47.08a.47.47,0,0,1,.28.85l-2.77,2.1a.47.47,0,0,0-.16.52l1,3.32a.48.48,0,0,1-.73.53l-2.85-2A.45.45,0,0,0,203.49,134.05Z"/><path class="cls-14" d="M222.46,134.05l-2.85,2a.47.47,0,0,1-.72-.53l1-3.32a.48.48,0,0,0-.17-.52l-2.76-2.1a.47.47,0,0,1,.27-.85l3.48-.08a.47.47,0,0,0,.44-.32l1.14-3.28a.48.48,0,0,1,.9,0l1.14,3.28a.46.46,0,0,0,.44.32l3.47.08a.47.47,0,0,1,.28.85l-2.77,2.1a.48.48,0,0,0-.17.52l1,3.32a.48.48,0,0,1-.73.53l-2.85-2A.47.47,0,0,0,222.46,134.05Z"/><path class="cls-14" d="M241.44,134.05l-2.85,2a.48.48,0,0,1-.73-.53l1-3.32a.48.48,0,0,0-.17-.52l-2.77-2.1a.47.47,0,0,1,.28-.85l3.47-.08a.46.46,0,0,0,.44-.32l1.14-3.28a.48.48,0,0,1,.9,0l1.14,3.28a.47.47,0,0,0,.44.32l3.47.08a.47.47,0,0,1,.28.85l-2.76,2.1a.48.48,0,0,0-.17.52l1,3.32a.48.48,0,0,1-.73.53l-2.85-2A.45.45,0,0,0,241.44,134.05Z"/><path class="cls-15" d="M260.42,134.05l-2.85,2a.48.48,0,0,1-.73-.53l1-3.32a.49.49,0,0,0-.16-.52l-2.77-2.1a.47.47,0,0,1,.28-.85l3.47-.08a.47.47,0,0,0,.44-.32l1.14-3.28a.48.48,0,0,1,.9,0l1.14,3.28a.46.46,0,0,0,.44.32l3.47.08a.47.47,0,0,1,.28.85l-2.77,2.1a.49.49,0,0,0-.17.52l1,3.32a.48.48,0,0,1-.73.53l-2.85-2A.45.45,0,0,0,260.42,134.05Z"/><line class="cls-16" x1="197.86" y1="118.14" x2="212.55" y2="118.14"/><line class="cls-17" x1="197.86" y1="143.23" x2="266.01" y2="143.23"/><line class="cls-17" x1="197.86" y1="150.28" x2="247.68" y2="150.28"/><rect class="cls-18" x="189.16" y="108.58" width="86.13" height="51.42" rx="2.53"/><polygon class="cls-13" points="297.21 86.13 155.96 86.01 232.39 35.13 297.21 86.13"/><rect class="cls-19" x="231.24" y="34.71" width="68.5" height="51.42" rx="2.53"/><line class="cls-20" x1="239.94" y1="43.39" x2="252.87" y2="43.39"/><rect class="cls-14" x="239.16" y="50.59" width="33.39" height="27.24"/><g class="cls-21"><polyline class="cls-22" points="266.32 46.41 249.37 63.61 237.51 51.75"/><polyline class="cls-22" points="271.24 46.41 251.58 65.88 253.34 67.61 277.49 58.26"/><polyline class="cls-22" points="237.88 74.01 246.32 65.57 260.27 79.27"/><polyline class="cls-22" points="237.88 57.36 243.55 63.2 238.49 68.26"/><polyline class="cls-22" points="276.66 61.99 255.98 70.06 264.2 78.56"/></g><line class="cls-17" x1="277.54" y1="51.29" x2="284.06" y2="51.29"/><line class="cls-17" x1="277.54" y1="58.35" x2="294.45" y2="58.35"/><line class="cls-17" x1="277.54" y1="65.4" x2="294.45" y2="65.4"/><line class="cls-17" x1="277.54" y1="72.45" x2="287.94" y2="72.45"/><rect class="cls-23" x="231.24" y="34.71" width="68.5" height="51.42" rx="2.53"/><g data-name="shield security checkup yellow web 120dp-copy"><g data-name="PRIVACY Checkup 96dp"><path class="cls-24" d="M222.6,37.84c0-2.32,4.09-4.22,8.64-4.3,4.56.08,8.64,2,8.64,4.3v.21a11.21,11.21,0,0,0-1.13-15.11,11,11,0,0,0-15,0,11.22,11.22,0,0,0-1.14,15.11Z"/><path class="cls-6" d="M239.88,37.84c0-2.32-4.08-4.22-8.64-4.3-4.55.08-8.64,2-8.64,4.3v.21A11,11,0,0,0,238,39.92a10.62,10.62,0,0,0,1.86-1.87Z"/><ellipse class="cls-6" cx="231.24" cy="27.24" rx="4.32" ry="4.36"/></g></g><path class="cls-25" d="M225.08,35.75h0a11.23,11.23,0,0,1,0-13.9,11.09,11.09,0,0,0-1.38,1.1,11.22,11.22,0,0,0-1.14,15.11h0A11,11,0,0,0,238,39.92a10.62,10.62,0,0,0,1.86-1.87h0A11,11,0,0,1,225.08,35.75Z"/><g data-name="shield security checkup yellow web 120dp-copy"><g data-name="PRIVACY Checkup 96dp"><path data-name="Shape-3" class="cls-26" d="M266.65,111.83c0-2.32,4.08-4.21,8.64-4.29,4.55.08,8.64,2,8.64,4.29v.22a11.23,11.23,0,0,0-1.13-15.12,11,11,0,0,0-15,0,11.24,11.24,0,0,0-1.13,15.12Z"/><path data-name="Shape-4" class="cls-6" d="M283.93,111.83c0-2.32-4.09-4.21-8.64-4.29-4.56.08-8.64,2-8.64,4.29v.22a11,11,0,0,0,15.41,1.87,10.68,10.68,0,0,0,1.87-1.87Z"/><ellipse data-name="Oval" class="cls-6" cx="275.29" cy="101.24" rx="4.32" ry="4.36"/></g></g><path class="cls-27" d="M269.13,109.74h0a11.23,11.23,0,0,1,0-13.9,11.88,11.88,0,0,0-1.39,1.09A11.23,11.23,0,0,0,266.65,112h0a11,11,0,0,0,15.41,1.87,10.68,10.68,0,0,0,1.87-1.87h0A11,11,0,0,1,269.13,109.74Z"/><polygon class="cls-13" points="104.34 149.05 124.13 101.11 104.34 66.7 104.34 149.05"/><rect class="cls-3" x="24.98" y="70.93" width="85.31" height="73.88" rx="2.53" transform="translate(-40.24 175.5) rotate(-90)"/><rect class="cls-6" x="38.42" y="82.89" width="58.42" height="27.5"/><rect class="cls-6" x="38.42" y="117.58" width="24.26" height="23"/><line class="cls-28" x1="38.42" y1="75.09" x2="53.88" y2="75.09"/><g class="cls-29"><circle class="cls-26" cx="42.49" cy="115.38" r="11.71"/><path class="cls-30" d="M80.82,88.74c-1.65,4.1-7.52,4.82-11.4,7-3.59,2-6.91,6.84-11.5,6.9-4.12,0-7.74-4.59-12-6.3s-10.08-.86-13-3.75c-3.28-3.22-2.32-9-3.54-12.94-1.3-4.25-5-8.83-3.39-12.93s7.51-4.81,11.39-7c3.6-2,6.91-6.84,11.51-6.9,4.12,0,7.74,4.58,12,6.29s10.07.87,13,3.76c3.28,3.22,2.32,9,3.53,12.94C78.73,80.06,82.47,84.64,80.82,88.74Z"/><circle class="cls-14" cx="53.6" cy="80.15" r="10.96"/><circle class="cls-31" cx="54.61" cy="82.14" r="4.22"/><path class="cls-24" d="M94.12,103.09h0a9.8,9.8,0,0,1,8.89-11h0a9.8,9.8,0,0,1-8.89,11Z"/><path class="cls-24" d="M87,95.34h0a10.23,10.23,0,0,1,10.23,10.23v0a0,0,0,0,1,0,0h0A10.23,10.23,0,0,1,87,95.34v0A0,0,0,0,1,87,95.34Z" transform="translate(-4.29 4.11) rotate(-2.49)"/><path class="cls-32" d="M87,95.34h0a10.23,10.23,0,0,1,10.23,10.23v0a0,0,0,0,1,0,0h0A10.23,10.23,0,0,1,87,95.34v0A0,0,0,0,1,87,95.34Z" transform="translate(-4.29 4.11) rotate(-2.49)"/><path class="cls-24" d="M89,105.15h0a10.23,10.23,0,0,1,10.23,10.23v0a0,0,0,0,1,0,0h0A10.23,10.23,0,0,1,89,105.15v0A0,0,0,0,1,89,105.15Z" transform="translate(89.05 255.17) rotate(-137.49)"/><path class="cls-24" d="M93.87,97.7h0a10.23,10.23,0,0,1,10.23,10.23v0a0,0,0,0,1,0,0h0A10.23,10.23,0,0,1,93.87,97.7v0A0,0,0,0,1,93.87,97.7Z" transform="translate(241.66 99.31) rotate(132.51)"/><path class="cls-24" d="M93.94,105.63h0c5.18-2.44,9.32-.31,11.72,4.77h0c-5.18,2.43-9.32.3-11.72-4.77Z"/><path class="cls-24" d="M91.71,105h0a10.27,10.27,0,0,1,8.69,11.63h0A10.29,10.29,0,0,1,91.71,105Z"/><path class="cls-24" d="M78.55,103.06h0a10.23,10.23,0,0,1,10.23,10.23v0a0,0,0,0,1,0,0h0a10.23,10.23,0,0,1-10.23-10.23v0A0,0,0,0,1,78.55,103.06Z" transform="translate(-20.76 196.47) rotate(-92.49)"/><path class="cls-24" d="M85,100.2h0a10.23,10.23,0,0,1,10.23,10.23v0a0,0,0,0,1,0,0h0A10.23,10.23,0,0,1,85,100.2v0A0,0,0,0,1,85,100.2Z" transform="translate(184.74 206.62) rotate(177.51)"/><path class="cls-24" d="M76.11,116.29h0a10.23,10.23,0,0,1,10.23,10.23v0a0,0,0,0,1,0,0h0a10.23,10.23,0,0,1-10.23-10.23v0a0,0,0,0,1,0,0Z" transform="translate(226.75 134.06) rotate(128.76)"/><path class="cls-24" d="M79.7,96h0a10.23,10.23,0,0,1,10.23,10.23v0a0,0,0,0,1,0,0h0A10.23,10.23,0,0,1,79.7,96v0A0,0,0,0,1,79.7,96Z" transform="translate(-47 95.31) rotate(-47.49)"/><path class="cls-33" d="M79.7,96h0a10.23,10.23,0,0,1,10.23,10.23v0a0,0,0,0,1,0,0h0A10.23,10.23,0,0,1,79.7,96v0A0,0,0,0,1,79.7,96Z" transform="translate(-47 95.31) rotate(-47.49)"/><path class="cls-24" d="M90.67,115.78h0A10.23,10.23,0,0,1,100.9,126v0a0,0,0,0,1,0,0h0a10.23,10.23,0,0,1-10.23-10.23v0a0,0,0,0,1,0,0Z" transform="translate(196.74 237.5) rotate(177.51)"/><path class="cls-24" d="M92.22,113.45h0a10,10,0,0,1,12.89,6.17h0a10,10,0,0,1-12.89-6.17Z"/><path class="cls-24" d="M79,112.67h0A10.23,10.23,0,0,1,89.2,122.9v0a0,0,0,0,1,0,0h0A10.23,10.23,0,0,1,79,112.67v0A0,0,0,0,1,79,112.67Z" transform="translate(-59.56 100.19) rotate(-47.49)"/><path class="cls-24" d="M94.3,105.82h0a10.23,10.23,0,0,1,10.23,10.23v0a0,0,0,0,1,0,0h0A10.23,10.23,0,0,1,94.3,105.82v0A0,0,0,0,1,94.3,105.82Z" transform="translate(169.22 242.54) rotate(-166.08)"/><path class="cls-24" d="M73.75,117.31h0A10.23,10.23,0,0,1,84,127.54v0a0,0,0,0,1,0,0h0a10.23,10.23,0,0,1-10.23-10.23v0A0,0,0,0,1,73.75,117.31Z" transform="translate(139.52 254.81) rotate(-171.83)"/><path class="cls-24" d="M86.54,119.34h0a10.23,10.23,0,0,1,10.23,10.23v0a0,0,0,0,1,0,0h0a10.23,10.23,0,0,1-10.23-10.23v0A0,0,0,0,1,86.54,119.34Z" transform="translate(75.13 278.14) rotate(-137.49)"/><path class="cls-24" d="M84.86,101.89h0a10.23,10.23,0,0,1,10.23,10.23v0a0,0,0,0,1,0,0h0a10.23,10.23,0,0,1-10.23-10.23v0A0,0,0,0,1,84.86,101.89Z" transform="translate(-4.57 4.02) rotate(-2.49)"/><path class="cls-34" d="M84.86,101.89h0a10.23,10.23,0,0,1,10.23,10.23v0a0,0,0,0,1,0,0h0a10.23,10.23,0,0,1-10.23-10.23v0A0,0,0,0,1,84.86,101.89Z" transform="translate(-4.57 4.02) rotate(-2.49)"/><path class="cls-24" d="M80.26,119.62h0a10.23,10.23,0,0,1,10.23,10.23v0a0,0,0,0,1,0,0h0a10.23,10.23,0,0,1-10.23-10.23v0A0,0,0,0,1,80.26,119.62Z" transform="translate(-35.53 215.45) rotate(-92.49)"/><path class="cls-24" d="M82.78,115.09h0A10.23,10.23,0,0,1,93,125.32v0a0,0,0,0,1,0,0h0a10.23,10.23,0,0,1-10.23-10.23v0A0,0,0,0,1,82.78,115.09Z" transform="translate(-28.38 213.25) rotate(-92.49)"/><path class="cls-24" d="M74.83,106.67h0A10.23,10.23,0,0,1,85.06,116.9v0a0,0,0,0,1,0,0h0a10.23,10.23,0,0,1-10.23-10.23v0A0,0,0,0,1,74.83,106.67Z" transform="translate(164.67 219.99) rotate(177.51)"/><path class="cls-35" d="M74.83,106.67h0A10.23,10.23,0,0,1,85.06,116.9v0a0,0,0,0,1,0,0h0a10.23,10.23,0,0,1-10.23-10.23v0A0,0,0,0,1,74.83,106.67Z" transform="translate(164.67 219.99) rotate(177.51)"/><path class="cls-24" d="M86,108.43h0a10.23,10.23,0,0,1,10.23,10.23v0a0,0,0,0,1,0,0h0A10.23,10.23,0,0,1,86,108.43v0A0,0,0,0,1,86,108.43Z" transform="translate(100.67 -31.74) rotate(42.51)"/><path class="cls-24" d="M81.75,106.79h0A10.23,10.23,0,0,1,92,117v0a0,0,0,0,1,0,0h0a10.23,10.23,0,0,1-10.23-10.23v0A0,0,0,0,1,81.75,106.79Z" transform="translate(98.43 -29.28) rotate(42.51)"/><path class="cls-36" d="M93.87,97.7h0a10.23,10.23,0,0,1,10.23,10.23v0a0,0,0,0,1,0,0h0A10.23,10.23,0,0,1,93.87,97.7v0A0,0,0,0,1,93.87,97.7Z" transform="translate(241.66 99.31) rotate(132.51)"/><path class="cls-24" d="M115.53,114.82c0,6.59-3.35,11.94-9.94,11.94a11.94,11.94,0,0,1,0-23.87C112.18,102.89,115.53,108.23,115.53,114.82Z"/></g><line class="cls-17" x1="68.88" y1="118.53" x2="75.39" y2="118.53"/><line class="cls-17" x1="68.88" y1="125.58" x2="96.07" y2="125.58"/><line class="cls-17" x1="68.88" y1="132.64" x2="96.07" y2="132.64"/><line class="cls-17" x1="68.88" y1="139.69" x2="87.21" y2="139.69"/><rect class="cls-37" x="24.98" y="70.93" width="85.31" height="73.88" rx="2.53" transform="translate(-40.24 175.5) rotate(-90)"/><g data-name="shield security checkup yellow web 120dp-copy"><g data-name="PRIVACY Checkup 96dp"><path data-name="Shape-3" class="cls-7" d="M22.17,68.73c0-2.33,4.09-4.22,8.65-4.3,4.55.08,8.64,2,8.64,4.3v.21a11.23,11.23,0,0,0-1.13-15.11,11,11,0,0,0-15,0,11.22,11.22,0,0,0-1.13,15.11Z"/><path data-name="Shape-4" class="cls-6" d="M39.46,68.73c0-2.33-4.09-4.22-8.64-4.3-4.56.08-8.65,2-8.65,4.3v.21a11,11,0,0,0,15.42,1.87,10.68,10.68,0,0,0,1.87-1.87Z"/><ellipse data-name="Oval" class="cls-6" cx="30.82" cy="58.13" rx="4.32" ry="4.36"/></g></g><path class="cls-38" d="M24.66,66.63h0a11.22,11.22,0,0,1,0-13.9,11.15,11.15,0,0,0-2.53,16.2h0a11,11,0,0,0,15.42,1.87,10.68,10.68,0,0,0,1.87-1.87h0A11,11,0,0,1,24.66,66.63Z"/><rect class="cls-39" width="20" height="180"/><rect class="cls-39" x="300" width="20" height="180"/><rect class="cls-39" x="150" y="-150" width="20" height="320" transform="translate(170 -150) rotate(90)"/><rect class="cls-39" x="150" y="10" width="20" height="320" transform="translate(330 10) rotate(90)"/></g></g></g></svg>
