<svg xmlns="http://www.w3.org/2000/svg" xmlns:xlink="http://www.w3.org/1999/xlink" viewBox="0 0 320 180"><defs><style>.cls-1,.cls-13,.cls-14,.cls-26,.cls-27,.cls-28,.cls-29,.cls-3,.cls-30,.cls-31,.cls-35,.cls-4,.cls-40,.cls-43{fill:none;}.cls-2{isolation:isolate;}.cls-3{stroke:#f1f3f4;}.cls-13,.cls-14,.cls-26,.cls-27,.cls-28,.cls-29,.cls-3,.cls-30,.cls-31,.cls-33,.cls-35,.cls-4,.cls-40{stroke-linecap:round;}.cls-13,.cls-14,.cls-26,.cls-3,.cls-33,.cls-4{stroke-linejoin:round;}.cls-4{stroke:#5f6368;stroke-dasharray:2 4;}.cls-4,.cls-43{opacity:0.1;}.cls-5{fill:#fbbc04;}.cls-37,.cls-38,.cls-6,.cls-7{mix-blend-mode:multiply;}.cls-6{fill:url(#linear-gradient);}.cls-8{fill:url(#linear-gradient-2);}.cls-9{fill:url(#linear-gradient-3);}.cls-10,.cls-33,.cls-41{fill:#e8eaed;}.cls-11{fill:url(#linear-gradient-4);}.cls-12{fill:#e9eaed;}.cls-13,.cls-27{stroke:#4285f4;}.cls-13,.cls-14{stroke-width:2px;}.cls-14,.cls-26,.cls-35{stroke:silver;}.cls-15{fill:url(#linear-gradient-5);}.cls-16{fill:#dadce0;}.cls-17{fill:#edf3fd;}.cls-18{clip-path:url(#clip-path);}.cls-19{fill:#34a853;}.cls-20{fill:#f2bf42;}.cls-21{fill:url(#linear-gradient-6);}.cls-22{fill:#bdc1c6;}.cls-23{fill:url(#linear-gradient-7);}.cls-24{fill:url(#linear-gradient-8);}.cls-25{fill:#f8f9fa;}.cls-27,.cls-28,.cls-29,.cls-30,.cls-31,.cls-35,.cls-40{stroke-miterlimit:10;}.cls-27,.cls-28,.cls-29,.cls-30{stroke-width:7px;}.cls-28{stroke:#ea4335;}.cls-29{stroke:#34a853;}.cls-30,.cls-40{stroke:#fbbc04;}.cls-31{stroke:#fff;}.cls-32{fill:#4285f4;}.cls-33{stroke:#e8eaed;}.cls-34{fill:silver;}.cls-36{fill:#fff;}.cls-37{fill:url(#linear-gradient-9);}.cls-38{fill:url(#linear-gradient-10);}.cls-39{fill:#f1f3f4;}.cls-41{opacity:0.6;}.cls-42{fill:url(#linear-gradient-11);}</style><linearGradient id="linear-gradient" x1="259.74" y1="75.56" x2="239.3" y2="86.36" gradientUnits="userSpaceOnUse"><stop offset="0" stop-color="#fbbc04"/><stop offset="1" stop-color="#fbbc04" stop-opacity="0"/></linearGradient><linearGradient id="linear-gradient-2" x1="273.82" y1="73.26" x2="248.26" y2="73.26" xlink:href="#linear-gradient"/><linearGradient id="linear-gradient-3" x1="273.82" y1="81.57" x2="248.26" y2="81.57" xlink:href="#linear-gradient"/><linearGradient id="linear-gradient-4" x1="148.05" y1="129.1" x2="88.94" y2="129.1" gradientUnits="userSpaceOnUse"><stop offset="0" stop-color="#9aa0a6"/><stop offset="1" stop-color="#9aa0a6" stop-opacity="0"/></linearGradient><linearGradient id="linear-gradient-5" x1="131.49" y1="35.86" x2="79.93" y2="82.94" gradientUnits="userSpaceOnUse"><stop offset="0" stop-color="#fff"/><stop offset="0.78" stop-color="#fff" stop-opacity="0"/></linearGradient><clipPath id="clip-path"><rect class="cls-1" x="34.44" y="88.45" width="56.45" height="30.09" rx="0.88"/></clipPath><linearGradient id="linear-gradient-6" x1="105.54" y1="69.6" x2="58.85" y2="106.51" xlink:href="#linear-gradient-5"/><linearGradient id="linear-gradient-7" x1="142.96" y1="142.64" x2="160.53" y2="72.33" xlink:href="#linear-gradient-4"/><linearGradient id="linear-gradient-8" x1="222.3" y1="7.1" x2="149.64" y2="93.24" gradientUnits="userSpaceOnUse"><stop offset="0" stop-color="#fff"/><stop offset="1" stop-color="#fff" stop-opacity="0"/></linearGradient><linearGradient id="linear-gradient-9" x1="54.38" y1="41.79" x2="74.07" y2="41.79" gradientUnits="userSpaceOnUse"><stop offset="0" stop-color="#4285f4" stop-opacity="0.4"/><stop offset="1" stop-color="#4285f4" stop-opacity="0"/></linearGradient><linearGradient id="linear-gradient-10" x1="19.68" y1="85.22" x2="39.37" y2="85.22" gradientUnits="userSpaceOnUse"><stop offset="0" stop-color="#34a853" stop-opacity="0.4"/><stop offset="1" stop-color="#34a853" stop-opacity="0"/></linearGradient><linearGradient id="linear-gradient-11" x1="212.86" y1="0.69" x2="173.02" y2="59.29" xlink:href="#linear-gradient-8"/></defs><title>7. Permission to use your content</title><g class="cls-2"><g data-name="Layer 2"><g><polyline class="cls-3" points="269.46 89.96 253.42 111.94 237.06 89.96"/><polyline class="cls-3" points="258.62 89.96 253.42 111.94 247.86 89.96"/><polyline class="cls-4" points="269.46 89.96 253.42 111.94 237.06 89.96"/><polyline class="cls-4" points="258.62 89.96 253.42 111.94 247.86 89.96"/><path class="cls-5" d="M236.56,90v0h0Z"/><path class="cls-5" d="M253.26,73.26h0c8.35,6.21,5.71,16.06,5.56,16.58a6.46,6.46,0,0,1,11.12.09l0,0A16.7,16.7,0,0,0,253.26,73.26Z"/><path class="cls-5" d="M236.56,89.94a6.46,6.46,0,0,1,11.12-.09c-.15-.52-2.8-10.37,5.56-16.58h0A16.71,16.71,0,0,0,236.56,89.94Z"/><path class="cls-6" d="M236.56,89.94a6.46,6.46,0,0,1,11.12-.09c-.15-.52-2.8-10.37,5.56-16.58h0A16.71,16.71,0,0,0,236.56,89.94Z"/><path class="cls-5" d="M253.23,73.26h0Z"/><path class="cls-5" d="M253.24,73.27c-8.36,6.21-5.71,16.06-5.56,16.58v0a6.46,6.46,0,0,1,11.09,0l0,0C259,89.33,261.59,79.48,253.24,73.27Z"/><g class="cls-7"><path class="cls-8" d="M253.23,73.26h0Z"/><path class="cls-9" d="M253.24,73.27c-8.36,6.21-5.71,16.06-5.56,16.58v0a6.46,6.46,0,0,1,11.09,0l0,0C259,89.33,261.59,79.48,253.24,73.27Z"/></g><path class="cls-10" d="M232.43,152.55s-1.26-4.86-6.08-4.86c0,0-1.55-5.21-6.37-5.21s-6.95,5-6.95,5-6.94-.71-6.94,5Z"/><rect class="cls-11" x="77.52" y="126.03" width="62.41" height="6.14"/><rect class="cls-12" x="57.26" y="51.66" width="63.5" height="45.96" rx="1.76" transform="translate(14.37 163.66) rotate(-90)"/><rect class="cls-12" x="66.03" y="42.89" width="45.96" height="63.5" rx="1.76"/><line class="cls-13" x1="74.39" y1="53.62" x2="80.9" y2="53.62"/><line class="cls-14" x1="74.39" y1="60.67" x2="103.64" y2="60.67"/><line class="cls-14" x1="74.39" y1="67.73" x2="103.64" y2="67.73"/><line class="cls-14" x1="74.39" y1="74.78" x2="90.07" y2="74.78"/><line class="cls-13" x1="74.39" y1="88.89" x2="90.07" y2="88.89"/><line class="cls-14" x1="74.39" y1="95.94" x2="103.64" y2="95.94"/><rect class="cls-15" x="66.03" y="42.89" width="45.96" height="63.5" rx="1.76"/><rect class="cls-16" x="30.91" y="84.93" width="63.5" height="37.15" rx="1.76"/><rect class="cls-17" x="34.44" y="88.45" width="56.45" height="30.09" rx="0.88"/><g class="cls-18"><path class="cls-19" d="M34.44,110S46.55,98,55.73,99s6.84,12.59,14.06,12.59,9-6.33,14.07-6.33,7,4.72,7,4.72v10.4H33.07Z"/></g><circle class="cls-20" cx="72.33" cy="98.82" r="3.22"/><rect class="cls-21" x="30.91" y="84.93" width="63.5" height="37.15" rx="1.76"/><rect class="cls-22" x="124.82" y="29.32" width="67.21" height="102.85" rx="4.97"/><rect class="cls-23" x="124.82" y="29.32" width="67.21" height="102.85" rx="4.97"/><rect class="cls-10" x="128.97" y="37.61" width="58.92" height="90.42"/><rect class="cls-24" x="128.97" y="37.61" width="58.92" height="90.42"/><path class="cls-25" d="M145,33.61H171.9a4,4,0,0,1,4,4v3.85a0,0,0,0,1,0,0h-35a0,0,0,0,1,0,0V37.66A4,4,0,0,1,145,33.61Z"/><polygon class="cls-25" points="167.66 33.61 149.2 33.61 157.49 25.72 159.37 25.72 167.66 33.61"/><circle class="cls-25" cx="158.43" cy="25.72" r="5.54"/><circle class="cls-10" cx="158.43" cy="25.72" r="2.22"/><line class="cls-14" x1="148.92" y1="54.95" x2="167.94" y2="54.95"/><line class="cls-26" x1="142.66" y1="77.81" x2="174.2" y2="77.81"/><line class="cls-26" x1="142.66" y1="85.42" x2="174.2" y2="85.42"/><line class="cls-26" x1="142.66" y1="93.04" x2="174.2" y2="93.04"/><line class="cls-26" x1="142.66" y1="100.58" x2="174.2" y2="100.58"/><line class="cls-14" x1="158.43" y1="110.68" x2="174.2" y2="110.68"/><line class="cls-27" x1="145.98" y1="66.64" x2="145.98" y2="66.64"/><line class="cls-28" x1="170.88" y1="66.64" x2="170.88" y2="66.64"/><line class="cls-29" x1="154.28" y1="66.64" x2="154.28" y2="66.64"/><line class="cls-30" x1="162.58" y1="66.64" x2="162.58" y2="66.64"/><circle class="cls-19" cx="190.27" cy="101.41" r="9.95"/><polyline class="cls-31" points="185.19 101.8 188.32 104.93 195.35 97.9"/><path class="cls-32" d="M209.52,86.27l-4.5-4,21.06-27.24a5.13,5.13,0,0,1,7.44-.72h0a5.12,5.12,0,0,1,.26,7.46Z"/><path class="cls-33" d="M205,84.81l2,1.78h0a8.68,8.68,0,0,0-1.51,6.7h0A14.66,14.66,0,0,0,196.37,97l-1,.91h0l.76-1.13a14.66,14.66,0,0,0,2.47-9.58h0A8.65,8.65,0,0,0,205,84.81Z"/><circle class="cls-34" cx="201.91" cy="90.41" r="1.17"/><line class="cls-35" x1="206.04" y1="85.7" x2="201.91" y2="90.41"/><g data-name="shield security checkup yellow web 120dp-copy"><g data-name="PRIVACY Checkup 96dp"><path class="cls-32" d="M56.78,47.58c0-2.32,4.09-4.21,8.64-4.3,4.56.09,8.65,2,8.65,4.3v.22a11.23,11.23,0,0,0-1.14-15.12,11,11,0,0,0-15,0A11.23,11.23,0,0,0,56.78,47.8Z"/><path class="cls-36" d="M74.07,47.58c0-2.32-4.09-4.21-8.65-4.3-4.55.09-8.64,2-8.64,4.3v.22A11,11,0,0,0,72.2,49.66a11.35,11.35,0,0,0,1.87-1.86Z"/><ellipse class="cls-36" cx="65.42" cy="36.98" rx="4.32" ry="4.36"/></g></g><path class="cls-37" d="M59.26,45.49h0a11.22,11.22,0,0,1,0-13.89,10.16,10.16,0,0,0-1.38,1.09,11.22,11.22,0,0,0-1.14,15.11h0a11,11,0,0,0,17.28,0h0A11,11,0,0,1,59.26,45.49Z"/><g data-name="shield security checkup yellow web 120dp-copy"><g data-name="PRIVACY Checkup 96dp"><path data-name="Shape-3" class="cls-19" d="M22.08,91c0-2.32,4.09-4.21,8.64-4.3,4.56.09,8.65,2,8.65,4.3v.22A11.23,11.23,0,0,0,38.23,76.1a11,11,0,0,0-15,0,11.23,11.23,0,0,0-1.14,15.12Z"/><path data-name="Shape-4" class="cls-36" d="M39.37,91c0-2.32-4.09-4.21-8.65-4.3-4.55.09-8.64,2-8.64,4.3v.22A11,11,0,0,0,37.5,93.08a11.35,11.35,0,0,0,1.87-1.86Z"/><ellipse data-name="Oval" class="cls-36" cx="30.72" cy="80.4" rx="4.32" ry="4.36"/></g></g><path class="cls-38" d="M24.57,88.91h0A11.22,11.22,0,0,1,24.6,75a10.16,10.16,0,0,0-1.38,1.09,11.22,11.22,0,0,0-1.14,15.11h0A11,11,0,0,0,37.5,93.08a11.35,11.35,0,0,0,1.87-1.86h0A11,11,0,0,1,24.57,88.91Z"/><rect class="cls-39" x="234.33" y="109.43" width="37.52" height="27.18" rx="1.22"/><path class="cls-5" d="M240.57,119.75l-1.24.87a.21.21,0,0,1-.32-.23l.44-1.45a.2.2,0,0,0-.07-.23l-1.21-.91a.21.21,0,0,1,.12-.37l1.51,0a.21.21,0,0,0,.2-.13l.49-1.43a.21.21,0,0,1,.4,0l.49,1.43a.21.21,0,0,0,.19.13l1.52,0a.21.21,0,0,1,.12.37l-1.21.91a.2.2,0,0,0-.07.23l.44,1.45a.21.21,0,0,1-.32.23l-1.24-.87A.21.21,0,0,0,240.57,119.75Z"/><path class="cls-5" d="M248.84,119.75l-1.24.87a.21.21,0,0,1-.32-.23l.44-1.45a.22.22,0,0,0-.08-.23l-1.2-.91a.2.2,0,0,1,.12-.37l1.51,0a.2.2,0,0,0,.19-.13l.5-1.43a.2.2,0,0,1,.39,0l.5,1.43a.2.2,0,0,0,.19.13l1.51,0a.2.2,0,0,1,.12.37l-1.2.91a.2.2,0,0,0-.07.23l.43,1.45a.2.2,0,0,1-.31.23l-1.25-.87A.2.2,0,0,0,248.84,119.75Z"/><path class="cls-5" d="M257.1,119.75l-1.24.87a.2.2,0,0,1-.31-.23l.43-1.45a.2.2,0,0,0-.07-.23l-1.21-.91a.21.21,0,0,1,.13-.37l1.51,0a.2.2,0,0,0,.19-.13l.5-1.43a.2.2,0,0,1,.39,0l.5,1.43a.19.19,0,0,0,.19.13l1.51,0a.2.2,0,0,1,.12.37l-1.2.91a.22.22,0,0,0-.08.23l.44,1.45a.21.21,0,0,1-.32.23l-1.24-.87A.21.21,0,0,0,257.1,119.75Z"/><path class="cls-34" d="M265.37,119.75l-1.24.87a.21.21,0,0,1-.32-.23l.44-1.45a.2.2,0,0,0-.07-.23L263,117.8a.21.21,0,0,1,.12-.37l1.52,0a.21.21,0,0,0,.19-.13l.49-1.43a.21.21,0,0,1,.4,0l.49,1.43a.21.21,0,0,0,.19.13l1.52,0a.21.21,0,0,1,.12.37l-1.21.91a.2.2,0,0,0-.07.23l.44,1.45a.21.21,0,0,1-.32.23l-1.24-.87A.21.21,0,0,0,265.37,119.75Z"/><line class="cls-40" x1="238.12" y1="113.21" x2="246.29" y2="113.21"/><line class="cls-26" x1="238.12" y1="127.05" x2="268.48" y2="127.05"/><line class="cls-26" x1="238.12" y1="123.81" x2="268.48" y2="123.81"/><line class="cls-26" x1="238.12" y1="130.28" x2="248.93" y2="130.28"/><rect class="cls-10" x="229.57" y="132.91" width="32.41" height="25.37"/><rect class="cls-25" x="261.97" y="132.91" width="14.98" height="25.37"/><path class="cls-5" d="M239.74,150.34c0-1.62,2.8-2.93,6-3s6,1.37,6,3v.17a7.71,7.71,0,0,0,1.75-4.91,7.78,7.78,0,1,0-13.81,4.91Z"/><path class="cls-36" d="M251.8,150.34c0-1.62-2.8-2.93-6-3s-6,1.37-6,3v.17a7.77,7.77,0,0,0,12.06,0Z"/><circle class="cls-36" cx="245.77" cy="142.81" r="3.11"/><path class="cls-41" d="M299.8,126.48s-.87-3.34-4.19-3.34c0,0-1.06-3.59-4.38-3.59s-4.77,3.47-4.77,3.47-4.78-.49-4.78,3.46Z"/><path class="cls-42" d="M187.07,29.32H163.15l-.3-.28A5.54,5.54,0,1,0,154,29l-.3.28H129.8a5,5,0,0,0-5,5V127.2a5,5,0,0,0,5,5h57.27a5,5,0,0,0,5-5V34.29A5,5,0,0,0,187.07,29.32Z"/><rect class="cls-43" width="20" height="180"/><rect class="cls-43" x="300" width="20" height="180"/><rect class="cls-43" x="150" y="-150" width="20" height="320" transform="translate(170 -150) rotate(90)"/><rect class="cls-43" x="150" y="10" width="20" height="320" transform="translate(330 10) rotate(90)"/></g></g></g></svg>
