<svg xmlns="http://www.w3.org/2000/svg" xmlns:xlink="http://www.w3.org/1999/xlink" viewBox="0 0 320 180"><defs><style>.cls-1,.cls-13,.cls-16,.cls-24,.cls-25,.cls-26,.cls-29,.cls-32,.cls-35,.cls-53{fill:none;}.cls-2{isolation:isolate;}.cls-3{fill:url(#linear-gradient);}.cls-4{fill:url(#linear-gradient-2);}.cls-17,.cls-5{fill:#185abc;}.cls-5{opacity:0.4;}.cls-20,.cls-44,.cls-45,.cls-6,.cls-8,.cls-9{mix-blend-mode:multiply;}.cls-6{fill:url(#linear-gradient-3);}.cls-22,.cls-7{fill:#4285f4;}.cls-7{opacity:0.2;}.cls-8{fill:url(#linear-gradient-4);}.cls-9{fill:url(#linear-gradient-5);}.cls-10{fill:url(#linear-gradient-6);}.cls-11{fill:url(#linear-gradient-7);}.cls-12{fill:#fff;}.cls-13,.cls-24{stroke:#fff;}.cls-13,.cls-24,.cls-25,.cls-26,.cls-29,.cls-32,.cls-35{stroke-linecap:round;}.cls-13,.cls-16,.cls-24,.cls-32,.cls-35{stroke-miterlimit:10;}.cls-14{fill:#1a73e8;}.cls-15{clip-path:url(#clip-path);}.cls-16,.cls-35{stroke:#185abc;}.cls-18{clip-path:url(#clip-path-2);}.cls-19{fill:url(#linear-gradient-8);}.cls-21{fill:url(#linear-gradient-9);}.cls-23{opacity:0.3;}.cls-24{stroke-width:1.5px;stroke-dasharray:0 11;}.cls-25{stroke:#d9dce0;}.cls-25,.cls-26,.cls-29{stroke-linejoin:round;}.cls-26{stroke:#5f6368;stroke-dasharray:2 4;}.cls-26,.cls-53{opacity:0.1;}.cls-27{fill:#e9eaed;}.cls-28{fill:#dadce0;}.cls-29{stroke:#e8eaed;}.cls-30{fill:url(#linear-gradient-10);}.cls-31{fill:#e8eaed;}.cls-32{stroke:#ed8900;}.cls-33{fill:#d9dce0;}.cls-34{clip-path:url(#clip-path-3);}.cls-35{stroke-width:2px;stroke-dasharray:0 15.2;}.cls-36{fill:#669df6;}.cls-37{fill:url(#linear-gradient-11);}.cls-38{clip-path:url(#clip-path-4);}.cls-39{fill:#174ea6;}.cls-40{mix-blend-mode:overlay;}.cls-41{fill:url(#linear-gradient-12);}.cls-42{fill:url(#linear-gradient-13);}.cls-43{fill:url(#linear-gradient-14);}.cls-44{fill:url(#linear-gradient-15);}.cls-45{fill:url(#linear-gradient-16);}.cls-46,.cls-47,.cls-48{opacity:0.7;}.cls-46{fill:url(#linear-gradient-17);}.cls-47{fill:url(#linear-gradient-18);}.cls-49{fill:url(#linear-gradient-19);}.cls-50{fill:url(#linear-gradient-20);}.cls-51{fill:url(#linear-gradient-21);}.cls-52{fill:#1967d2;}</style><linearGradient id="linear-gradient" x1="69.51" y1="156.93" x2="18.79" y2="156.93" gradientUnits="userSpaceOnUse"><stop offset="0" stop-color="#9aa0a6"/><stop offset="1" stop-color="#9aa0a6" stop-opacity="0"/></linearGradient><linearGradient id="linear-gradient-2" x1="296.19" y1="156.93" x2="245.47" y2="156.93" xlink:href="#linear-gradient"/><linearGradient id="linear-gradient-3" x1="139.82" y1="159.94" x2="125.85" y2="150.29" gradientUnits="userSpaceOnUse"><stop offset="0" stop-color="#4285f4" stop-opacity="0.4"/><stop offset="1" stop-color="#4285f4" stop-opacity="0"/></linearGradient><linearGradient id="linear-gradient-4" x1="132.17" y1="91.24" x2="115.38" y2="76.28" xlink:href="#linear-gradient-3"/><linearGradient id="linear-gradient-5" x1="175.95" y1="192.83" x2="175.95" y2="145.67" xlink:href="#linear-gradient-3"/><linearGradient id="linear-gradient-6" x1="175.95" y1="42.06" x2="175.95" y2="91.67" gradientUnits="userSpaceOnUse"><stop offset="0" stop-color="#fff"/><stop offset="1" stop-color="#fff" stop-opacity="0"/></linearGradient><linearGradient id="linear-gradient-7" x1="148.94" y1="155.61" x2="101.07" y2="156.96" gradientUnits="userSpaceOnUse"><stop offset="0.22" stop-color="#9aa0a6"/><stop offset="1" stop-color="#9aa0a6" stop-opacity="0"/></linearGradient><clipPath id="clip-path"><path class="cls-1" d="M178.7,160c-21-10.17-28.65-28.95-30.68-42.33H178.7Z"/></clipPath><clipPath id="clip-path-2"><path class="cls-1" d="M216.49,64.61H130A5.43,5.43,0,0,1,135.42,70v84.54A5.42,5.42,0,0,1,130,160h86.49a5.42,5.42,0,0,0,5.42-5.42V70A5.43,5.43,0,0,0,216.49,64.61Z"/></clipPath><linearGradient id="linear-gradient-8" x1="223.07" y1="53.47" x2="223.07" y2="160.64" xlink:href="#linear-gradient-3"/><linearGradient id="linear-gradient-9" x1="198.53" y1="43.51" x2="127.14" y2="105.14" xlink:href="#linear-gradient-3"/><linearGradient id="linear-gradient-10" x1="67.96" y1="47.64" x2="67.96" y2="16.11" gradientUnits="userSpaceOnUse"><stop offset="0" stop-color="#f49102"/><stop offset="1" stop-color="#fab704"/></linearGradient><clipPath id="clip-path-3"><rect class="cls-1" x="130.49" y="28.9" width="45.21" height="58.88"/></clipPath><linearGradient id="linear-gradient-11" x1="2056.75" y1="3180.5" x2="2112.95" y2="3180.5" gradientTransform="translate(1397.6 -3497.23) rotate(50.39)" xlink:href="#linear-gradient-10"/><clipPath id="clip-path-4"><path class="cls-1" d="M178.73,160c-21.34-10.31-28.83-28.76-30.74-42.35h30.74Z"/></clipPath><linearGradient id="linear-gradient-12" x1="261" y1="88.4" x2="220.76" y2="123.82" gradientUnits="userSpaceOnUse"><stop offset="0" stop-color="#bdc1c6"/><stop offset="1" stop-color="#bdc1c6" stop-opacity="0"/></linearGradient><linearGradient id="linear-gradient-13" x1="122" y1="153.36" x2="172.05" y2="40.97" xlink:href="#linear-gradient-3"/><linearGradient id="linear-gradient-14" x1="198.02" y1="30.46" x2="159.78" y2="69.7" xlink:href="#linear-gradient-12"/><linearGradient id="linear-gradient-15" x1="127.08" y1="198.31" x2="205.56" y2="69.61" xlink:href="#linear-gradient-12"/><linearGradient id="linear-gradient-16" x1="140.18" y1="88" x2="122.56" y2="73.03" xlink:href="#linear-gradient-3"/><linearGradient id="linear-gradient-17" x1="146.07" y1="92.23" x2="60.28" y2="144.85" xlink:href="#linear-gradient-7"/><linearGradient id="linear-gradient-18" x1="150.77" y1="101.33" x2="65.78" y2="153.46" xlink:href="#linear-gradient-7"/><linearGradient id="linear-gradient-19" x1="95.01" y1="36.27" x2="33.69" y2="65.56" xlink:href="#linear-gradient-7"/><linearGradient id="linear-gradient-20" x1="98.24" y1="42.77" x2="36.92" y2="72.06" xlink:href="#linear-gradient-7"/><linearGradient id="linear-gradient-21" x1="101.47" y1="49.27" x2="40.15" y2="78.55" xlink:href="#linear-gradient-7"/></defs><title>4. Improve Google services</title><g class="cls-2"><g data-name="Layer 2"><g><rect class="cls-3" x="8.99" y="153.86" width="53.56" height="6.14"/><polygon class="cls-4" points="235.67 153.86 284.22 153.86 289.23 160 235.67 160 235.67 153.86"/><path class="cls-5" d="M124.57,148.88v5.7h0a5.43,5.43,0,0,0,10.85,0v-5.7Z"/><path class="cls-6" d="M124.57,148.88v5.7h0a5.43,5.43,0,0,0,10.85,0v-5.7Z"/><path class="cls-7" d="M113.73,75.66v5.49a5.42,5.42,0,1,0,10.84,0V75.66Z"/><path class="cls-8" d="M113.73,75.68v5.49a5.42,5.42,0,1,0,10.84,0V75.68Z"/><path class="cls-7" d="M216.49,64.61H130A5.43,5.43,0,0,1,135.42,70v84.54A5.42,5.42,0,0,1,130,160h86.49a5.42,5.42,0,0,0,5.42-5.42V70A5.43,5.43,0,0,0,216.49,64.61Z"/><path class="cls-9" d="M216.49,64.61H130A5.43,5.43,0,0,1,135.42,70v84.54A5.42,5.42,0,0,1,130,160h86.49a5.42,5.42,0,0,0,5.42-5.42V70A5.43,5.43,0,0,0,216.49,64.61Z"/><path class="cls-10" d="M216.49,64.61H130A5.43,5.43,0,0,1,135.42,70v84.54A5.42,5.42,0,0,1,130,160h86.49a5.42,5.42,0,0,0,5.42-5.42V70A5.43,5.43,0,0,0,216.49,64.61Z"/><path class="cls-11" d="M124.57,154.58v-1.35H96.89V160H130A5.42,5.42,0,0,1,124.57,154.58Z"/><g data-name="shield security checkup yellow web 120dp-copy"><g><path class="cls-12" d="M178.66,78.9l30.21,9.26v21.39a78.42,78.42,0,0,1-.67,8.81c-1.54,10.55-7.43,29.77-29.57,40.52a52.9,52.9,0,0,1-29.51-40.5,79.12,79.12,0,0,1-.66-8.81V88.16l30.2-9.26m0-1-31.2,9.56v22.15a78.73,78.73,0,0,0,.67,8.94A53.5,53.5,0,0,0,178.63,160c21.14-10.07,28.64-28.33,30.56-41.48a81.12,81.12,0,0,0,.68-8.94V87.42l-31.21-9.56Z"/></g></g><line class="cls-13" x1="178.66" y1="78.7" x2="178.66" y2="118.43"/><line class="cls-13" x1="187.02" y1="118.3" x2="208.54" y2="118.3"/><line class="cls-13" x1="209.03" y1="88.26" x2="156.86" y2="140.43"/><line class="cls-13" x1="148.24" y1="88.26" x2="200.41" y2="140.43"/><path class="cls-13" d="M195.27,115.14a19.76,19.76,0,0,0-.3-3.52H178.63v6.67H188a8,8,0,0,1-3.47,5.27h0a10.51,10.51,0,0,1-15.62-5.5h0a10.48,10.48,0,0,1,9.73-13.79,9.38,9.38,0,0,1,6.64,2.6l4.95-5a16.66,16.66,0,0,0-11.59-4.51,17.33,17.33,0,1,0,0,34.66,16.57,16.57,0,0,0,11.48-4.18h0A16.89,16.89,0,0,0,195.27,115.14Z"/><path class="cls-14" d="M178.73,160C158,150.79,149.8,131.66,148,117.64h30.74Z"/><g class="cls-15"><g data-name="shield security checkup yellow web 120dp-copy"><path data-name="Shape" class="cls-16" d="M178.42,80.16,206,88.73v19.71a78.3,78.3,0,0,1-.65,8.64c-1.11,8-6,27.5-26.93,38.48-20.12-10.49-25.55-28.54-27-38.54a78.55,78.55,0,0,1-.64-8.58V88.73l27.6-8.57"/></g></g><path class="cls-17" d="M174,149.14h0a.86.86,0,0,1-.5-.17h0a.87.87,0,0,1-.19-1.19h0a.84.84,0,0,1,1.18-.19h0a.87.87,0,0,1,.19,1.2A.83.83,0,0,1,174,149.14Zm-8-7.45h0a.84.84,0,0,1-.64-.3h0a.86.86,0,0,1,.09-1.2h0a.82.82,0,0,1,1.19.1h0a.85.85,0,0,1-.09,1.2A.87.87,0,0,1,166,141.69Zm-6-9.18h0a.85.85,0,0,1-.76-.47h0a.87.87,0,0,1,.37-1.15h0a.84.84,0,0,1,1.14.39h0a.86.86,0,0,1-.38,1.15A.83.83,0,0,1,160,132.51Zm-3.76-10.33h0a.87.87,0,0,1-.82-.65h0a.86.86,0,0,1,.62-1h0a.83.83,0,0,1,1,.62h0a.85.85,0,0,1-.62,1A.64.64,0,0,1,156.22,122.18Z"/><g class="cls-18"><g data-name="shield security checkup yellow web 120dp-copy"><path data-name="Shape" class="cls-19" d="M223.05,161.56c18.58-8.85,25.18-24.9,26.87-36.47a71.11,71.11,0,0,0,.59-7.86V97.76l-27.44-8.4-27.43,8.4v19.47a71.11,71.11,0,0,0,.59,7.86A47,47,0,0,0,223.05,161.56Z"/></g><g class="cls-20"><path class="cls-21" d="M173.79,53l-31.18,9.56V84.73a81.11,81.11,0,0,0,.67,8.94c0,.13,0,.27.07.41h30.44Z"/></g></g><g data-name="shield security checkup yellow web 120dp-copy"><path data-name="Shape" class="cls-22" d="M228.14,160c18.59-8.85,25.18-24.91,26.87-36.47a69,69,0,0,0,.6-7.86V96.19l-27.44-8.41-27.44,8.41v19.47a71.31,71.31,0,0,0,.6,7.86A47.06,47.06,0,0,0,228.14,160Z"/></g><g class="cls-23"><g data-name="shield security checkup yellow web 120dp-copy"><path data-name="Shape" class="cls-13" d="M228.17,90.6l24.61,7.54v17.33a67.4,67.4,0,0,1-.57,7.56c-1.28,8.79-6.13,24.68-24.06,33.91a44.93,44.93,0,0,1-24-33.86,66.85,66.85,0,0,1-.58-7.61V98.14l24.61-7.54"/></g></g><g class="cls-23"><g data-name="shield security checkup yellow web 120dp-copy"><path data-name="Shape" class="cls-24" d="M228.17,94.67l21.59,6.62v15.2a58.11,58.11,0,0,1-.5,6.63,39.07,39.07,0,0,1-21.11,29.75,39.41,39.41,0,0,1-21.06-29.71,59.52,59.52,0,0,1-.51-6.67v-15.2l21.59-6.62"/></g></g><line class="cls-25" x1="37.46" y1="41.05" x2="37.46" y2="60.59"/><line class="cls-26" x1="37.46" y1="41.05" x2="37.46" y2="60.59"/><line class="cls-25" x1="158.78" y1="39.79" x2="158.78" y2="48.61"/><line class="cls-26" x1="158.78" y1="39.79" x2="158.78" y2="48.61"/><rect class="cls-27" x="25.61" y="60.59" width="23.7" height="8.04" rx="1.84"/><rect class="cls-28" x="25.61" y="68.63" width="23.7" height="8.04" rx="1.84"/><rect class="cls-27" x="25.61" y="76.67" width="23.7" height="8.04" rx="1.84"/><path class="cls-29" d="M168.09,29.47,83.27,28.18V40.71l84.84-1.82a3,3,0,0,0,2.93-3V32.47A3,3,0,0,0,168.09,29.47Z"/><rect class="cls-29" x="60.61" y="47.64" width="13.22" height="99.97"/><polyline class="cls-29" points="60.97 47.64 73.44 60.11 60.53 73.03 73.5 86 60.71 98.8 73.05 111.14 61.09 123.11 73.82 135.84 60.78 148.88"/><polyline class="cls-29" points="83.27 28.18 95.52 40.43 107.45 28.49 118.92 39.97 129.98 28.91 140.56 39.49 150.83 29.21 158.8 39.09 166.97 29.45"/><path class="cls-29" d="M52.05,28.58l-23.39-.35a3,3,0,0,0-3.05,3v6.42a3,3,0,0,0,3.07,3L53,40.12"/><polyline class="cls-29" points="49.8 28.49 37.46 40.46 26.52 29.08"/><path class="cls-27" d="M54.8,148H79.63V137.89a1.84,1.84,0,0,0-1.84-1.84H56.64a1.84,1.84,0,0,0-1.84,1.84Z"/><path class="cls-30" d="M52.07,48.12H79.55a2.77,2.77,0,0,0,2.57-1.76l4.17-10.62a4.56,4.56,0,0,0,0-3.37L82.12,21.75A2.77,2.77,0,0,0,79.55,20H52.07a2.77,2.77,0,0,0-2.76,2.76V45.35A2.77,2.77,0,0,0,52.07,48.12Z"/><rect class="cls-31" x="53" y="23.68" width="6.45" height="10.33" rx="0.92"/><rect class="cls-31" x="62.21" y="23.68" width="6.45" height="10.33" rx="0.92"/><path class="cls-31" d="M81.17,34H72.34a.92.92,0,0,1-.92-.92V24.61a.93.93,0,0,1,.92-.93h5.8a.93.93,0,0,1,.87.62l3,8.48A.92.92,0,0,1,81.17,34Z"/><path class="cls-28" d="M49.31,160h35.8V149.87A1.84,1.84,0,0,0,83.27,148H51.15a1.85,1.85,0,0,0-1.84,1.85Z"/><line class="cls-32" x1="53" y1="37.85" x2="81.17" y2="37.85"/><line class="cls-32" x1="53" y1="40.61" x2="81.17" y2="40.61"/><circle class="cls-33" cx="37.86" cy="87.05" r="2.49"/><path class="cls-14" d="M175.71,43.27,141.9,53.63v24a89.87,89.87,0,0,0,.73,9.69c0,.15.05.3.07.45h33Z"/><g class="cls-34"><g data-name="shield security checkup yellow web 120dp-copy"><path data-name="Shape" class="cls-16" d="M175.71,47.48l29.72,9.1V77.52a85.82,85.82,0,0,1-.69,9.12c-1.55,10.62-7.4,29.8-29.06,41a54.28,54.28,0,0,1-29-40.89,83.2,83.2,0,0,1-.69-9.18V56.58l29.72-9.1"/></g><g data-name="shield security checkup yellow web 120dp-copy"><path data-name="Shape-2" class="cls-17" d="M184.78,79.9h-3.25V76.13a5.84,5.84,0,0,0-11.68,0v8.1h16a3.55,3.55,0,0,1,3.44,3.54v17.57a3.55,3.55,0,0,1-3.44,3.54H165.53a3.55,3.55,0,0,1-3.44-3.54V87.75a3.55,3.55,0,0,1,3.44-3.54h1.11V76.05a9.08,9.08,0,0,1,18.16-.56,5.23,5.23,0,0,1,0,.56Z"/><path data-name="Shape-3" class="cls-17" d="M179.69,95.06a3.79,3.79,0,0,0-7.57,0,3.3,3.3,0,0,0,1.77,3.2v4.12h3.92V98.22A3.29,3.29,0,0,0,179.69,95.06Z"/></g><path class="cls-35" d="M201.39,59.57V77.48a80.34,80.34,0,0,1-.64,8.58c-1.38,9.42-6.48,26.48-25.07,37a50.31,50.31,0,0,1-25-36.84,79,79,0,0,1-.66-8.69V59.57l25.69-7.87,25.68,7.87"/></g><path class="cls-36" d="M158.29,48.6a2.76,2.76,0,0,0,1,1.69,1,1,0,1,1-1.63.83.51.51,0,0,0-.5-.5.5.5,0,0,0-.5.5,2,2,0,1,0,3.22-1.63,1.81,1.81,0,0,1-.66-1.18Z"/><path class="cls-37" d="M295.29,147.8a7.44,7.44,0,0,0-7.11-2.57L269.77,123a7.45,7.45,0,0,0-9-9.86l4.36,5.27a2.95,2.95,0,1,1-4.54,3.76l-4.36-5.27a7.45,7.45,0,0,0,8,10.72l18.42,22.25a7.45,7.45,0,1,0,12.68-2Zm-8,6.63a3,3,0,1,1,4.16.39A2.95,2.95,0,0,1,287.27,154.43Z"/><line class="cls-32" x1="268.4" y1="127" x2="283.87" y2="145.69"/><g class="cls-38"><g data-name="shield security checkup yellow web 120dp-copy"><path data-name="Shape-2" class="cls-17" d="M187.78,102.91h-3.25V99.15a5.84,5.84,0,0,0-11.68,0v8.1h16a3.54,3.54,0,0,1,3.43,3.54v17.57a3.54,3.54,0,0,1-3.43,3.54H168.53a3.54,3.54,0,0,1-3.43-3.54V110.77a3.54,3.54,0,0,1,3.43-3.54h1.11V99.07a9.09,9.09,0,1,1,18.17-.56v.56Z"/><path data-name="Shape-3" class="cls-39" d="M182.69,118.07a3.79,3.79,0,0,0-7.57,0,3.32,3.32,0,0,0,1.77,3.21v4.12h3.93v-4.16A3.29,3.29,0,0,0,182.69,118.07Z"/></g></g><g class="cls-40"><g data-name="shield security checkup yellow web 120dp-copy"><path data-name="Shape" class="cls-41" d="M228.14,160c18.59-8.85,25.18-24.91,26.87-36.47a69,69,0,0,0,.6-7.86V96.19l-27.44-8.41-27.44,8.41v19.47a71.31,71.31,0,0,0,.6,7.86A47.06,47.06,0,0,0,228.14,160Z"/></g></g><g class="cls-20"><path class="cls-42" d="M175.71,43.27,141.9,53.63v24a89.87,89.87,0,0,0,.73,9.69c0,.15.05.3.07.45h33Z"/></g><g class="cls-40"><path class="cls-43" d="M175.71,43.27,141.9,53.63v24a89.87,89.87,0,0,0,.73,9.69c0,.15.05.3.07.45h33Z"/></g><path class="cls-44" d="M178.73,160C158,150.79,149.8,131.66,148,117.64h30.74Z"/><path class="cls-5" d="M130,64.61A5.43,5.43,0,0,0,124.57,70V81.15a5.42,5.42,0,0,1-5.42,5.42h16.27V70A5.43,5.43,0,0,0,130,64.61Z"/><path class="cls-45" d="M130,64.61A5.43,5.43,0,0,0,124.57,70V81.15a5.42,5.42,0,0,1-5.42,5.42h16.27V70A5.43,5.43,0,0,0,130,64.61Z"/><path class="cls-46" d="M54.8,148H73.62v-12h-17a1.84,1.84,0,0,0-1.84,1.84Z"/><path class="cls-47" d="M49.31,160h29.8V148h-28a1.85,1.85,0,0,0-1.84,1.85Z"/><g class="cls-48"><path class="cls-49" d="M27.46,60.59H44.31a0,0,0,0,1,0,0v8a0,0,0,0,1,0,0H27.46a1.84,1.84,0,0,1-1.84-1.84V62.44A1.84,1.84,0,0,1,27.46,60.59Z"/><path class="cls-50" d="M27.46,68.63H44.31a0,0,0,0,1,0,0v8a0,0,0,0,1,0,0H27.46a1.84,1.84,0,0,1-1.84-1.84V70.47A1.84,1.84,0,0,1,27.46,68.63Z"/><path class="cls-51" d="M27.46,76.67H44.31a0,0,0,0,1,0,0v8a0,0,0,0,1,0,0H27.46a1.84,1.84,0,0,1-1.84-1.84V78.51A1.84,1.84,0,0,1,27.46,76.67Z"/></g><g data-name="shield security checkup yellow web 120dp-copy"><path data-name="Shape-2" class="cls-12" d="M235.48,113h-2.7v-3.12a4.85,4.85,0,1,0-9.69,0v6.72H236.4a2.92,2.92,0,0,1,2.84,2.93v14.58A2.93,2.93,0,0,1,236.4,137H219.5a3,3,0,0,1-2.85-2.94V119.47a3,3,0,0,1,2.85-2.94h.92v-6.77a7.54,7.54,0,0,1,15.08-.47v.47Z"/><path data-name="Shape-3" class="cls-52" d="M231.25,125.53a3.14,3.14,0,0,0-6.28,0,2.75,2.75,0,0,0,1.47,2.66v3.42h3.26v-3.45A2.73,2.73,0,0,0,231.25,125.53Z"/></g><rect class="cls-53" width="20" height="180"/><rect class="cls-53" x="300" width="20" height="180"/><rect class="cls-53" x="150" y="-150" width="20" height="320" transform="translate(170 -150) rotate(90)"/><rect class="cls-53" x="150" y="10" width="20" height="320" transform="translate(330 10) rotate(90)"/></g></g></g></svg>
