<svg xmlns="http://www.w3.org/2000/svg" xmlns:xlink="http://www.w3.org/1999/xlink" viewBox="0 0 320 180"><defs><style>.cls-1,.cls-13,.cls-14,.cls-15,.cls-16,.cls-27,.cls-3,.cls-30,.cls-36,.cls-39,.cls-41,.cls-43,.cls-44,.cls-7,.cls-8{fill:none;}.cls-2{isolation:isolate;}.cls-3{stroke:#dadce0;}.cls-13,.cls-14,.cls-15,.cls-27,.cls-3,.cls-30,.cls-36,.cls-39,.cls-41,.cls-43,.cls-7,.cls-8{stroke-linecap:round;}.cls-13,.cls-14,.cls-15,.cls-16,.cls-27,.cls-3,.cls-30,.cls-39,.cls-41{stroke-miterlimit:10;}.cls-13,.cls-14,.cls-15,.cls-27,.cls-3,.cls-39,.cls-41{stroke-width:2px;}.cls-27,.cls-3,.cls-39,.cls-41{stroke-dasharray:6 12;}.cls-4{fill:#ea4335;}.cls-22,.cls-29,.cls-37,.cls-42,.cls-5,.cls-6{mix-blend-mode:multiply;}.cls-29,.cls-31,.cls-32,.cls-34,.cls-37,.cls-42,.cls-6{opacity:0.5;}.cls-6{fill:url(#linear-gradient);}.cls-15,.cls-30,.cls-36,.cls-7,.cls-8{stroke:#fff;}.cls-36,.cls-43,.cls-44,.cls-7,.cls-8{stroke-linejoin:round;}.cls-8{stroke-width:1.5px;}.cls-9{fill:url(#linear-gradient-2);}.cls-10{fill:url(#linear-gradient-3);}.cls-11,.cls-32{fill:#e8eaed;}.cls-12{fill:#5f6368;}.cls-13{stroke:#bec1c6;}.cls-14{stroke:#fbbc04;}.cls-16{stroke:#3c4043;}.cls-17{fill:url(#linear-gradient-4);}.cls-18{fill:#bdc1c6;}.cls-19{fill:#f8f9fa;}.cls-20{fill:url(#linear-gradient-5);}.cls-21{fill:#fbbc04;}.cls-22{fill:url(#linear-gradient-6);}.cls-23{fill:url(#linear-gradient-7);}.cls-24{fill:url(#linear-gradient-8);}.cls-25{fill:#aecbfa;}.cls-26{clip-path:url(#clip-path);}.cls-27{stroke:#739fdd;}.cls-28,.cls-29{fill:#4285f4;}.cls-30,.cls-36{stroke-width:0.93px;}.cls-31{fill:url(#linear-gradient-9);}.cls-33{fill:#dadce0;}.cls-34{fill:url(#linear-gradient-10);}.cls-35{fill:#ea3f32;}.cls-37{fill:url(#linear-gradient-11);}.cls-38{clip-path:url(#clip-path-2);}.cls-39,.cls-41{stroke:#969696;}.cls-40{clip-path:url(#clip-path-3);}.cls-41{opacity:0.7;}.cls-42{fill:url(#linear-gradient-12);}.cls-43{stroke:#5f6368;}.cls-44{stroke:#202124;}.cls-45{fill:#202124;}</style><linearGradient id="linear-gradient" x1="32.5" y1="127" x2="32.5" y2="86.74" gradientUnits="userSpaceOnUse"><stop offset="0" stop-color="#c5221f"/><stop offset="1" stop-color="#c5221f" stop-opacity="0"/></linearGradient><linearGradient id="linear-gradient-2" x1="159.17" y1="156.93" x2="100.06" y2="156.93" gradientUnits="userSpaceOnUse"><stop offset="0" stop-color="#9aa0a6"/><stop offset="1" stop-color="#9aa0a6" stop-opacity="0"/></linearGradient><linearGradient id="linear-gradient-3" x1="229.85" y1="156.93" x2="189.49" y2="156.93" xlink:href="#linear-gradient-2"/><linearGradient id="linear-gradient-4" x1="315.66" y1="60.51" x2="238.06" y2="124.8" gradientUnits="userSpaceOnUse"><stop offset="0" stop-color="#fff"/><stop offset="1" stop-color="#fff" stop-opacity="0"/></linearGradient><linearGradient id="linear-gradient-5" x1="209.94" y1="63.49" x2="140.4" y2="128.72" xlink:href="#linear-gradient-4"/><linearGradient id="linear-gradient-6" x1="260.29" y1="53.43" x2="231.58" y2="78.63" gradientUnits="userSpaceOnUse"><stop offset="0" stop-color="#fbbc04"/><stop offset="1" stop-color="#fbbc04" stop-opacity="0"/></linearGradient><linearGradient id="linear-gradient-7" x1="57.42" y1="156.93" x2="23.49" y2="156.93" xlink:href="#linear-gradient-2"/><linearGradient id="linear-gradient-8" x1="67.32" y1="93.23" x2="67.32" y2="154.77" xlink:href="#linear-gradient-4"/><clipPath id="clip-path"><circle class="cls-1" cx="90.12" cy="84.91" r="8.71"/></clipPath><linearGradient id="linear-gradient-9" x1="180.21" y1="36.05" x2="180.21" y2="22.86" gradientUnits="userSpaceOnUse"><stop offset="0.08" stop-color="#e8eaed"/><stop offset="1" stop-color="#c8cbd0"/></linearGradient><linearGradient id="linear-gradient-10" x1="180.21" y1="46.71" x2="180.21" y2="38.14" xlink:href="#linear-gradient-9"/><linearGradient id="linear-gradient-11" x1="168.37" y1="21.68" x2="192.05" y2="21.68" xlink:href="#linear-gradient"/><clipPath id="clip-path-2"><path class="cls-1" d="M67.32,152c16.92,0,24.84-.41,28.48-.74,1.67-3.72,1.43-8.21-3.67-12.12-6.83-5.23-24.81-4.9-24.81-4.9s-18-.33-24.8,4.9c-5.08,3.89-5.34,8.36-3.69,12.08C42.07,151.54,49.7,152,67.32,152Z"/></clipPath><clipPath id="clip-path-3"><path class="cls-1" d="M188.76,133.81,188,120.2l-3.14-53.56h0v-.06c-.56-3.44-13.37-4.25-28.62-1.8-15.08,2.41-26.9,7.1-26.63,10.53h0l-4.07,45-1.11,12.33a29,29,0,0,0,7,21.66A16.62,16.62,0,0,0,143.93,160h25.44q.47,0,.93,0l.39,0,.53,0,.49-.07.42-.06.55-.11.35-.07.61-.15.27-.07.66-.21.2-.06.7-.26.15-.06.72-.32.1,0,.75-.38.05,0c.26-.13.51-.28.75-.43h0c.26-.16.51-.32.75-.49h0a16.83,16.83,0,0,0,3.36-3.07h0l.19-.23.1-.11A29,29,0,0,0,188.76,133.81Z"/></clipPath><linearGradient id="linear-gradient-12" x1="272" y1="126.14" x2="294.13" y2="126.14" xlink:href="#linear-gradient"/></defs><title>scene_password_manager_welcome copy 2</title><g class="cls-2"><g><path class="cls-3" d="M253.59,103.65c9.77,1.37,21.39,4,21.39,8.56,0,1.69-2.52,3.45-6.71,5.19"/><path class="cls-3" d="M156.2,48.81S59.76,47.32,61.84,70.65c.84,9.39,30.85,17.2,66,23.15"/><path class="cls-3" d="M204.35,100.31c21.15,1.41,36,2.15,36,2.15"/><path class="cls-4" d="M32.5,90.9A12.5,12.5,0,0,1,45,103.4a12.65,12.65,0,0,1-.32,2.77A12.33,12.33,0,0,1,43.1,110l-.54.81L32.5,124.64l-10-13.85L21.9,110a12.31,12.31,0,0,1-1.57-3.81A12.65,12.65,0,0,1,20,103.4,12.5,12.5,0,0,1,32.5,90.9Z"/><g class="cls-5"><path class="cls-6" d="M32.5,90.9A12.5,12.5,0,0,1,45,103.4a12.65,12.65,0,0,1-.32,2.77A12.33,12.33,0,0,1,43.1,110l-.54.81L32.5,124.64l-10-13.85L21.9,110a12.31,12.31,0,0,1-1.57-3.81A12.65,12.65,0,0,1,20,103.4,12.5,12.5,0,0,1,32.5,90.9Z"/></g><path class="cls-7" d="M35.63,98a6.25,6.25,0,1,0,2.28,2.28"/><circle class="cls-8" cx="32.5" cy="103.4" r="6.25"/><rect class="cls-9" x="88.64" y="153.86" width="62.41" height="6.14"/><rect class="cls-10" x="181.1" y="153.86" width="59.45" height="6.14"/><rect class="cls-11" x="217.61" y="99.82" width="35.97" height="54.04"/><path class="cls-12" d="M253.59,156.16a3.84,3.84,0,0,1-3.84,3.84h-28.3a3.84,3.84,0,0,1-3.84-3.84v-2.3h36Z"/><path class="cls-12" d="M217.61,97.52a3.84,3.84,0,0,1,3.84-3.84h28.3a3.84,3.84,0,0,1,3.84,3.84v2.3h-36Z"/><line class="cls-13" x1="222.49" y1="135.35" x2="235.6" y2="135.35"/><line class="cls-13" x1="222.49" y1="140.64" x2="248.71" y2="140.64"/><line class="cls-13" x1="222.49" y1="145.93" x2="242.87" y2="145.93"/><line class="cls-14" x1="222.49" y1="108.25" x2="235.6" y2="108.25"/><line class="cls-13" x1="222.49" y1="113.54" x2="248.71" y2="113.54"/><line class="cls-15" x1="222.49" y1="118.83" x2="242.87" y2="118.83"/><line class="cls-16" x1="232.83" y1="96.75" x2="238.36" y2="96.75"/><path class="cls-17" d="M249.75,93.68h-28.3a3.84,3.84,0,0,0-3.84,3.84v58.64a3.84,3.84,0,0,0,3.84,3.84h28.3a3.84,3.84,0,0,0,3.84-3.84V97.52A3.84,3.84,0,0,0,249.75,93.68Z"/><path class="cls-11" d="M188,120.2l-3.14-53.56-55.27,8.67-4.07,45A531.58,531.58,0,0,0,188,120.2Z"/><path class="cls-18" d="M143.93,160h25.44a16.61,16.61,0,0,0,13-6.22l.1-.11a29,29,0,0,0,6.33-19.86L188,120.2a531.58,531.58,0,0,1-62.48.1l-1.11,12.33a29,29,0,0,0,7,21.66A16.62,16.62,0,0,0,143.93,160Z"/><path class="cls-12" d="M131.22,154.09c.06.07.11.14.17.2A16.62,16.62,0,0,0,143.93,160h25.44a16.61,16.61,0,0,0,12.77-6Q156.7,155.27,131.22,154.09Z"/><ellipse class="cls-19" cx="157.2" cy="71" rx="27.97" ry="6.3" transform="translate(-9.25 25.77) rotate(-9.1)"/><path class="cls-20" d="M188.76,133.81,188,120.2l-3.14-53.56h0v-.06c-.56-3.44-13.37-4.25-28.62-1.8-15.08,2.41-26.9,7.1-26.63,10.53h0l-4.07,45-1.11,12.33a29,29,0,0,0,7,21.66A16.62,16.62,0,0,0,143.93,160h25.44q.47,0,.93,0l.39,0,.53,0,.49-.07.42-.06.55-.11.35-.07.61-.15.27-.07.66-.21.2-.06.7-.26.15-.06.72-.32.1,0,.75-.38.05,0c.26-.13.51-.28.75-.43h0c.26-.16.51-.32.75-.49h0a16.83,16.83,0,0,0,3.36-3.07h0l.19-.23.1-.11A29,29,0,0,0,188.76,133.81Z"/><path class="cls-21" d="M249.61,58.24H233.2a10.25,10.25,0,0,0,0,20.5h6.16l8.2,8.21V78.74h2.05a10.25,10.25,0,1,0,0-20.5Z"/><path class="cls-22" d="M241.41,76.69h-6.16a10.24,10.24,0,0,1-8.19-16.4,10.25,10.25,0,0,0,6.14,18.45h6.16l8.2,8.21V82.84Z"/><path class="cls-3" d="M186.74,99.07c6.19.46,12.12.87,17.61,1.24"/><path class="cls-3" d="M268.27,117.4C248,125.85,188.81,134,188.81,134"/><path class="cls-3" d="M124.3,140.15c-36.94,2.73-76.18,3.66-77.11-6.44-1.11-12.08,79.27-24.3,79.27-24.3"/><rect class="cls-23" x="16.44" y="153.86" width="49.98" height="6.14"/><path class="cls-18" d="M67.32,160c7.63,0,18.56,0,19.91-.28s2.79-.88,6.35-5,5.37-10.34-1.45-15.57-24.81-4.9-24.81-4.9-18-.33-24.8,4.9-5,11.5-1.45,15.57,5,4.76,6.34,5S59.7,160,67.32,160Z"/><path class="cls-11" d="M67.32,152c-17.62,0-25.25-.45-28.5-.78a14.37,14.37,0,0,0,2.25,3.49c3.56,4.14,5,4.76,6.34,5s12.29.28,19.91.28,18.56,0,19.91-.28,2.79-.88,6.35-5a14.53,14.53,0,0,0,2.22-3.45C92.16,151.58,84.24,152,67.32,152Z"/><path class="cls-24" d="M94.81,153.06h0c.18-.28.36-.58.52-.87v0c.16-.29.31-.6.45-.91h0c1.67-3.72,1.43-8.21-3.67-12.12-6.83-5.23-24.81-4.9-24.81-4.9s-18-.33-24.8,4.9c-5.08,3.89-5.34,8.36-3.69,12.08h0q.21.47.45.9v0c.17.3.34.59.52.88l0,0c.18.28.38.56.58.84h0c.21.27.43.54.65.8.44.52.85,1,1.24,1.39a25.12,25.12,0,0,0,2,1.95,10.54,10.54,0,0,0,1.46,1.07l.31.16c.2.1.39.18.57.25a7,7,0,0,0,.79.2l.37.05c.7.06,2.1.11,3.9.14,2.41.05,5.54.07,8.71.08H74.25c3.18,0,6.31,0,8.72-.08,1.8,0,3.2-.08,3.9-.14l.36-.05A5.77,5.77,0,0,0,90,158.38a25.4,25.4,0,0,0,3-2.94l.64-.74c.22-.26.43-.52.64-.79h0C94.43,153.63,94.62,153.35,94.81,153.06Z"/><circle class="cls-25" cx="90.26" cy="85.51" r="9.9"/><g class="cls-26"><path class="cls-27" d="M154.43,47.93S58,46.44,60.08,69.76c.84,9.4,30.84,17.21,66,23.16"/></g><rect class="cls-28" x="97.49" y="91.19" width="3.67" height="5.86" transform="translate(-37.46 97.8) rotate(-45)"/><rect class="cls-29" x="97.54" y="91.62" width="3.67" height="5.09" transform="translate(-37.48 97.85) rotate(-45)"/><path class="cls-28" d="M97.9,77.14a11,11,0,1,0,0,15.55A11,11,0,0,0,97.9,77.14ZM96.28,91.07a8.7,8.7,0,1,1,0-12.31A8.7,8.7,0,0,1,96.28,91.07Z"/><path class="cls-28" d="M112.42,103.27l-1.6-1.6-7.31-7.31-1.6-1.6a.47.47,0,0,0-.64,0L98.07,96a.45.45,0,0,0,0,.64l1.6,1.6,7.31,7.31,1.6,1.6a.47.47,0,0,0,.64,0l3.2-3.21A.45.45,0,0,0,112.42,103.27Z"/><path class="cls-30" d="M90.9,79.61a4.56,4.56,0,0,1,4.57,4.57"/><path class="cls-31" d="M164.42,29.57l13.3,12.19a3.69,3.69,0,0,0,5,0L196,29.57Z"/><path class="cls-32" d="M182.7,41.76a3.69,3.69,0,0,1-5,0l-13.3-12.19V53.25H196V29.57Z"/><path class="cls-33" d="M182.7,41.76a3.69,3.69,0,0,1-5,0l-.38-.35L164.42,53.25H196L183.08,41.41Z"/><path class="cls-34" d="M182.7,41.76a3.69,3.69,0,0,1-5,0l-.38-.35L164.42,53.25H196L183.08,41.41Z"/><path class="cls-35" d="M192.05,20H168.37v13.2l9.35,8.57a3.69,3.69,0,0,0,5,0l9.35-8.57V20Z"/><path class="cls-36" d="M180.35,35.21h0a3,3,0,0,1-3-3h0a3,3,0,0,1,3.68-2.87l.83.2v4.1A1.54,1.54,0,0,1,180.35,35.21Z"/><path class="cls-36" d="M181.9,33a2.26,2.26,0,1,0,4.51,0v-.56"/><path class="cls-36" d="M180.21,38.59a6.2,6.2,0,1,1,6.2-6.2"/><g class="cls-5"><rect class="cls-37" x="168.37" y="19.99" width="23.68" height="3.38"/></g><g class="cls-38"><path class="cls-39" d="M124.3,140c-36.94,2.7-76.18,3.62-77.11-6.37-1.11-11.95,79.27-24,79.27-24"/></g><g class="cls-40"><path class="cls-41" d="M135.79,94.73c19.39,2.14,32.43,3.19,51,4.56"/><path class="cls-39" d="M188.81,134.26s-31.32,3.67-64.51,5.78"/></g><polygon class="cls-11" points="296.95 145.3 294.13 128.37 272.74 128.37 275.56 145.3 296.95 145.3"/><polygon class="cls-4" points="293.38 123.91 272 123.91 272.74 128.37 294.13 128.37 293.38 123.91"/><polygon class="cls-42" points="293.38 123.91 272 123.91 272.74 128.37 294.13 128.37 293.38 123.91"/><polygon class="cls-18" points="272 123.91 275.56 145.3 272 145.3 272 123.91"/><polygon class="cls-33" points="272 123.91 268.44 145.3 272 145.3 272 123.91"/><path class="cls-43" d="M279.6,133.83a1.78,1.78,0,0,1,1.8-2.15,2.64,2.64,0,0,1,2.51,2.15,1.78,1.78,0,0,1-1.79,2.16"/><path class="cls-43" d="M282.12,136a3.52,3.52,0,0,1,3.35,2.87,2.36,2.36,0,0,1-2.39,2.87,3.52,3.52,0,0,1-3.35-2.87"/><polyline class="cls-43" points="290.26 141.74 288.58 131.68 287.09 133.47"/><path class="cls-44" d="M277.35,123.91a1.78,1.78,0,1,1,1.78,1.79"/><circle class="cls-45" cx="279.13" cy="125.7" r="0.3"/><path class="cls-44" d="M286.26,123.91A1.78,1.78,0,1,1,288,125.7"/><circle class="cls-45" cx="288.04" cy="125.7" r="0.3"/></g></g></svg>
