<?xml version="1.0" encoding="UTF-8" standalone="no"?>
<svg
   viewBox="0 0 666.66669 666.66669"
   height="666.66669"
   width="666.66669"
   xml:space="preserve"
   id="svg2"
   version="1.1"
   sodipodi:docname="5460158.svg"
   inkscape:version="1.1.2 (0a00cf5339, 2022-02-04)"
   xmlns:inkscape="http://www.inkscape.org/namespaces/inkscape"
   xmlns:sodipodi="http://sodipodi.sourceforge.net/DTD/sodipodi-0.dtd"
   xmlns="http://www.w3.org/2000/svg"
   xmlns:svg="http://www.w3.org/2000/svg"
   xmlns:rdf="http://www.w3.org/1999/02/22-rdf-syntax-ns#"
   xmlns:cc="http://creativecommons.org/ns#"
   xmlns:dc="http://purl.org/dc/elements/1.1/"><sodipodi:namedview
     id="namedview225"
     pagecolor="#ffffff"
     bordercolor="#666666"
     borderopacity="1.0"
     inkscape:pageshadow="2"
     inkscape:pageopacity="0.0"
     inkscape:pagecheckerboard="0"
     showgrid="false"
     inkscape:zoom="0.84899997"
     inkscape:cx="332.74442"
     inkscape:cy="332.74442"
     inkscape:window-width="1482"
     inkscape:window-height="800"
     inkscape:window-x="0"
     inkscape:window-y="0"
     inkscape:window-maximized="1"
     inkscape:current-layer="svg2" /><metadata
     id="metadata8"><rdf:RDF><cc:Work
         rdf:about=""><dc:format>image/svg+xml</dc:format><dc:type
           rdf:resource="http://purl.org/dc/dcmitype/StillImage" /></cc:Work></rdf:RDF></metadata><defs
     id="defs6"><clipPath
   id="clipPath26"
   clipPathUnits="userSpaceOnUse"><path
     id="path24"
     d="M 1023.05,3927.27 H 859 c 6.805,44.63 38.383,72.46 82.328,72.46 43.336,0 74.912,-28.47 81.722,-72.46 z m -260.003,-30.41 c 0,-103.52 74.914,-179.22 190.051,-179.22 40.754,0 75.232,8.95 102.862,26.23 20.73,12.97 24.03,42 7.85,60.34 -12.66,14.34 -33.58,17.7 -50.23,8.27 -16.533,-9.36 -35.205,-13.96 -58.014,-13.96 -50.757,0 -86.046,26.53 -95.332,69.87 h 226.146 c 14.99,0 27.61,11.95 27.66,26.94 0,0.08 0,0.16 0,0.24 0,111.92 -75.52,180.5 -173.325,180.5 -101.527,0 -177.668,-75.05 -177.668,-179.21 z" /></clipPath><linearGradient
   id="linearGradient32"
   spreadMethod="pad"
   gradientTransform="matrix(232.779,-704.987,-704.987,-232.779,837.619,4203.75)"
   gradientUnits="userSpaceOnUse"
   y2="0"
   x2="1"
   y1="0"
   x1="0"><stop
     id="stop28"
     offset="0"
     style="stop-opacity:1;stop-color:#81e4fb" /><stop
     id="stop30"
     offset="1"
     style="stop-opacity:1;stop-color:#2f5291" /></linearGradient><clipPath
   id="clipPath42"
   clipPathUnits="userSpaceOnUse"><path
     id="path40"
     d="m 1174.68,3887.38 c -4.66,-114.8 -91.73,-207.09 -201.825,-222.19 -16.55,-2.27 -28.722,-16.69 -28.722,-33.4 v 0 c 0,-20.47 18.062,-36.44 38.34,-33.64 141.757,19.61 253.907,138.58 259.897,286.49 5.64,139.11 -84.36,260.26 -211.3,300 -21.91,6.86 -44.261,-9.2 -44.261,-32.15 0,-14.69 9.254,-28.1 23.281,-32.45 98.8,-30.56 168.97,-124.55 164.59,-232.66 z" /></clipPath><linearGradient
   id="linearGradient48"
   spreadMethod="pad"
   gradientTransform="matrix(232.779,-704.987,-704.987,-232.779,943.807,4238.82)"
   gradientUnits="userSpaceOnUse"
   y2="0"
   x2="1"
   y1="0"
   x1="0"><stop
     id="stop44"
     offset="0"
     style="stop-opacity:1;stop-color:#81e4fb" /><stop
     id="stop46"
     offset="1"
     style="stop-opacity:1;stop-color:#2f5291" /></linearGradient><clipPath
   id="clipPath58"
   clipPathUnits="userSpaceOnUse"><path
     id="path56"
     d="m 763.047,3637.49 c -15.547,0 -29.871,-5.12 -41.516,-13.67 -86.109,68.87 -135.164,174.03 -130.574,287.22 4.391,108.3 58.184,206.59 143.906,268.96 12.071,-9.77 27.418,-15.64 44.153,-15.64 38.816,0 70.281,31.46 70.281,70.28 0,38.81 -31.465,70.28 -70.281,70.28 -38.817,0 -70.282,-31.47 -70.282,-70.28 0,-4.44 0.461,-8.77 1.246,-12.98 -99.644,-70.82 -162.32,-183.9 -167.378,-308.66 -5.278,-130.35 51.929,-251.35 152.105,-329.65 -1.227,-5.19 -1.937,-10.58 -1.937,-16.14 0,-38.82 31.464,-70.29 70.277,-70.29 38.816,0 70.281,31.47 70.281,70.29 0,38.81 -31.465,70.28 -70.281,70.28 z" /></clipPath><linearGradient
   id="linearGradient64"
   spreadMethod="pad"
   gradientTransform="matrix(232.779,-704.987,-704.987,-232.779,660.644,4145.32)"
   gradientUnits="userSpaceOnUse"
   y2="0"
   x2="1"
   y1="0"
   x1="0"><stop
     id="stop60"
     offset="0"
     style="stop-opacity:1;stop-color:#81e4fb" /><stop
     id="stop62"
     offset="1"
     style="stop-opacity:1;stop-color:#2f5291" /></linearGradient><clipPath
   id="clipPath74"
   clipPathUnits="userSpaceOnUse"><path
     id="path72"
     d="m 1642.83,3747.39 c -28.67,0 -53.28,-17.18 -64.22,-41.79 h -343.62 c -0.05,-0.02 -0.08,-0.04 -0.13,-0.07 l -7.18,-10.19 c -61.31,-87.02 -157.13,-140.54 -261.504,-147.92 -12.703,-0.9 -22.598,-11.34 -22.598,-24.08 0,-13.96 11.809,-25.18 25.738,-24.2 114.814,8.01 220.404,64.98 290.404,158 0.05,0.03 0.08,0.05 0.12,0.07 h 315.61 c 8.59,-29.11 35.48,-50.38 67.38,-50.38 38.81,0 70.28,31.47 70.28,70.28 0,38.82 -31.47,70.28 -70.28,70.28 z" /></clipPath><linearGradient
   id="linearGradient80"
   spreadMethod="pad"
   gradientTransform="matrix(232.779,-704.987,-704.987,-232.779,1101.52,4290.89)"
   gradientUnits="userSpaceOnUse"
   y2="0"
   x2="1"
   y1="0"
   x1="0"><stop
     id="stop76"
     offset="0"
     style="stop-opacity:1;stop-color:#81e4fb" /><stop
     id="stop78"
     offset="1"
     style="stop-opacity:1;stop-color:#2f5291" /></linearGradient><clipPath
   id="clipPath90"
   clipPathUnits="userSpaceOnUse"><path
     id="path88"
     d="m 1810.72,3851.46 c -29.38,0 -54.52,-18.05 -65.02,-43.65 h -425.36 c -13.36,0 -24.19,-10.83 -24.19,-24.2 0,-13.36 10.83,-24.19 24.19,-24.19 h 423.57 c 9.17,-28.16 35.59,-48.53 66.81,-48.53 38.82,0 70.28,31.47 70.28,70.28 0,38.82 -31.46,70.29 -70.28,70.29 z" /></clipPath><linearGradient
   id="linearGradient96"
   spreadMethod="pad"
   gradientTransform="matrix(232.779,-704.987,-704.987,-232.779,1390.41,4386.28)"
   gradientUnits="userSpaceOnUse"
   y2="0"
   x2="1"
   y1="0"
   x1="0"><stop
     id="stop92"
     offset="0"
     style="stop-opacity:1;stop-color:#81e4fb" /><stop
     id="stop94"
     offset="1"
     style="stop-opacity:1;stop-color:#2f5291" /></linearGradient><clipPath
   id="clipPath106"
   clipPathUnits="userSpaceOnUse"><path
     id="path104"
     d="m 1951.28,4041.48 c -27.78,0 -51.73,-16.16 -63.14,-39.57 h -264.6 l -96.03,-96.03 h -187.83 c -4.41,200.05 -157.96,366.74 -356.926,387.54 -13.848,1.46 -26.035,-9.26 -26.602,-23.17 -0.511,-12.73 8.938,-23.63 21.602,-24.96 182.076,-19.08 320.846,-177.18 313.336,-362.62 l -1.02,-25.18 h 257.48 l 96.04,96.04 h 239.74 c 7.85,-30.25 35.25,-52.61 67.95,-52.61 38.82,0 70.28,31.47 70.28,70.28 0,38.82 -31.46,70.28 -70.28,70.28 z" /></clipPath><linearGradient
   id="linearGradient112"
   spreadMethod="pad"
   gradientTransform="matrix(232.779,-704.987,-704.987,-232.779,1401.08,4389.8)"
   gradientUnits="userSpaceOnUse"
   y2="0"
   x2="1"
   y1="0"
   x1="0"><stop
     id="stop108"
     offset="0"
     style="stop-opacity:1;stop-color:#81e4fb" /><stop
     id="stop110"
     offset="1"
     style="stop-opacity:1;stop-color:#2f5291" /></linearGradient><clipPath
   id="clipPath122"
   clipPathUnits="userSpaceOnUse"><path
     id="path120"
     d="m 1397.33,4023.79 c 30.31,0 56.05,19.22 65.92,46.09 h 281.55 c 9.88,-26.87 35.62,-46.09 65.92,-46.09 38.82,0 70.28,31.48 70.28,70.29 0,38.81 -31.46,70.28 -70.28,70.28 -30.3,0 -56.04,-19.22 -65.92,-46.09 h -281.55 c -9.87,26.87 -35.61,46.09 -65.92,46.09 -38.81,0 -70.27,-31.47 -70.27,-70.28 0,-38.81 31.46,-70.29 70.27,-70.29 z" /></clipPath><linearGradient
   id="linearGradient128"
   spreadMethod="pad"
   gradientTransform="matrix(232.779,-704.987,-704.987,-232.779,1496.03,4421.15)"
   gradientUnits="userSpaceOnUse"
   y2="0"
   x2="1"
   y1="0"
   x1="0"><stop
     id="stop124"
     offset="0"
     style="stop-opacity:1;stop-color:#81e4fb" /><stop
     id="stop126"
     offset="1"
     style="stop-opacity:1;stop-color:#2f5291" /></linearGradient><clipPath
   id="clipPath152"
   clipPathUnits="userSpaceOnUse"><path
     id="path150"
     d="m 4053.03,4062.01 c -20.27,0 -36.69,16.42 -36.69,36.69 v 97.16 c -164.22,78.93 -513.34,73.82 -604.39,-38.85 -104.04,-128.75 -127.76,-556.87 0,-662.12 127.76,-105.24 533.36,-104.03 662.11,0 104.75,84.64 116.53,392.3 54.25,567.12 z" /></clipPath><linearGradient
   id="linearGradient158"
   spreadMethod="pad"
   gradientTransform="matrix(0,-738.72,-738.72,0,3745.54,4250.82)"
   gradientUnits="userSpaceOnUse"
   y2="0"
   x2="1"
   y1="0"
   x1="0"><stop
     id="stop154"
     offset="0"
     style="stop-opacity:1;stop-color:#81e4fb" /><stop
     id="stop156"
     offset="1"
     style="stop-opacity:1;stop-color:#2f5291" /></linearGradient><clipPath
   id="clipPath168"
   clipPathUnits="userSpaceOnUse"><path
     id="path166"
     d="m 4017.53,4353.61 h -45.04 c -21.04,0 -38.1,-17.05 -38.1,-38.09 v -45.04 c 0,-9.47 7.68,-17.14 17.14,-17.14 h 45.04 c 21.05,0 38.1,17.05 38.1,38.1 v 45.03 c 0,9.47 -7.68,17.14 -17.14,17.14 z" /></clipPath><linearGradient
   id="linearGradient174"
   spreadMethod="pad"
   gradientTransform="matrix(0,-738.72,-738.72,0,3984.53,4250.82)"
   gradientUnits="userSpaceOnUse"
   y2="0"
   x2="1"
   y1="0"
   x1="0"><stop
     id="stop170"
     offset="0"
     style="stop-opacity:1;stop-color:#81e4fb" /><stop
     id="stop172"
     offset="1"
     style="stop-opacity:1;stop-color:#2f5291" /></linearGradient><clipPath
   id="clipPath184"
   clipPathUnits="userSpaceOnUse"><path
     id="path182"
     d="m 4333.29,4365.52 h -45.04 c -21.03,0 -38.09,-17.06 -38.09,-38.1 v -45.04 c 0,-9.47 7.67,-17.15 17.13,-17.15 h 45.04 c 21.05,0 38.11,17.07 38.11,38.11 v 45.04 c 0,9.46 -7.68,17.14 -17.15,17.14 z" /></clipPath><linearGradient
   id="linearGradient190"
   spreadMethod="pad"
   gradientTransform="matrix(0,-738.72,-738.72,0,4300.3,4250.82)"
   gradientUnits="userSpaceOnUse"
   y2="0"
   x2="1"
   y1="0"
   x1="0"><stop
     id="stop186"
     offset="0"
     style="stop-opacity:1;stop-color:#81e4fb" /><stop
     id="stop188"
     offset="1"
     style="stop-opacity:1;stop-color:#2f5291" /></linearGradient><clipPath
   id="clipPath200"
   clipPathUnits="userSpaceOnUse"><path
     id="path198"
     d="m 4293.65,4104.82 h -59.36 c -27.74,0 -50.22,-22.48 -50.22,-50.21 v -59.37 c 0,-12.48 10.12,-22.59 22.59,-22.59 h 59.37 c 27.73,0 50.21,22.48 50.21,50.22 v 59.36 c 0,12.48 -10.11,22.59 -22.59,22.59 z" /></clipPath><linearGradient
   id="linearGradient206"
   spreadMethod="pad"
   gradientTransform="matrix(0,-738.72,-738.72,0,4250.16,4250.82)"
   gradientUnits="userSpaceOnUse"
   y2="0"
   x2="1"
   y1="0"
   x1="0"><stop
     id="stop202"
     offset="0"
     style="stop-opacity:1;stop-color:#81e4fb" /><stop
     id="stop204"
     offset="1"
     style="stop-opacity:1;stop-color:#2f5291" /></linearGradient><clipPath
   id="clipPath216"
   clipPathUnits="userSpaceOnUse"><path
     id="path214"
     d="m 4188.52,4275.23 h -81.61 c -38.12,0 -69.03,-30.9 -69.03,-69.03 v -81.6 c 0,-17.15 13.91,-31.05 31.07,-31.05 h 81.6 c 38.11,0 69.02,30.9 69.02,69.02 v 81.61 c 0,17.15 -13.91,31.05 -31.05,31.05 z" /></clipPath><linearGradient
   id="linearGradient222"
   spreadMethod="pad"
   gradientTransform="matrix(0,-738.72,-738.72,0,4128.73,4250.82)"
   gradientUnits="userSpaceOnUse"
   y2="0"
   x2="1"
   y1="0"
   x1="0"><stop
     id="stop218"
     offset="0"
     style="stop-opacity:1;stop-color:#81e4fb" /><stop
     id="stop220"
     offset="1"
     style="stop-opacity:1;stop-color:#2f5291" /></linearGradient><clipPath
   id="clipPath248"
   clipPathUnits="userSpaceOnUse"><path
     id="path246"
     d="m 1746.08,1455.43 c -15.62,1.66 -30.98,-5.19 -42.68,-15.65 -9.41,-8.43 -14.85,-16.44 -17.76,-24.13 -7.21,-19.06 -22.42,-33.96 -40.71,-42.95 l -75.35,-37.08 c 1.63,2.22 3.19,4.55 4.84,6.73 10.65,14.11 16.28,31.34 16.43,49.01 l 1.32,150.18 c 0,32.83 -26.62,59.47 -59.46,59.47 h -56.2 v 82.34 h -19.91 v 207.54 c 0,12.88 -10.31,25.84 -23.12,27.12 -15.44,1.55 -28.45,-10.53 -28.45,-25.65 v -209.01 h -19.91 v -82.34 h -274.68 v 82.34 h -19.91 v 207.54 c 0,12.88 -10.31,25.84 -23.12,27.12 -15.44,1.55 -28.45,-10.53 -28.45,-25.65 v -209.01 h -19.91 v -82.34 h -56.198 c -32.836,0 -59.461,-26.64 -59.461,-59.47 v -155.96 c 0,-13.29 4.613,-26.08 12.707,-36.62 32.027,-41.69 59.59,-86.27 82.574,-132.95 l -49.723,-24.46 c -12.402,-6.1 -26.437,-6.14 -39.816,-2.67 -4.106,1.06 -8.543,1.39 -13.235,0.81 -13.945,-1.73 -25.937,-12.22 -29.496,-25.81 -5.589,-21.37 9.141,-41.9 30.309,-44.15 9.594,-1.02 19.031,3.18 26.219,9.62 5.781,5.17 9.117,10.09 10.902,14.81 4.434,11.71 13.781,20.86 25.016,26.39 l 49.772,24.48 c 5.24,-11.47 10.2,-23.06 14.89,-34.76 L 838.961,1069.5 c -20.191,-9.93 -43.039,-10 -64.82,-4.35 -6.676,1.72 -13.903,2.27 -21.539,1.32 -22.7,-2.81 -42.231,-19.89 -48.016,-42.02 -9.102,-34.77 14.879,-68.2 49.336,-71.86 15.613,-1.668 30.976,5.18 42.68,15.648 9.41,8.422 14.843,16.442 17.753,24.121 7.215,19.071 22.426,33.961 40.711,42.951 l 181.744,89.4 c 6.37,-18.43 12.01,-37.11 17.02,-55.98 l -61.365,-30.18 c -20.192,-9.93 -43.039,-10.01 -64.82,-4.36 -6.672,1.74 -13.907,2.27 -21.54,1.33 -22.703,-2.81 -42.226,-19.89 -48.019,-42.008 -9.098,-34.793 14.879,-68.211 49.34,-71.883 15.617,-1.66 30.976,5.191 42.676,15.66 9.414,8.422 14.843,16.43 17.753,24.121 7.223,19.059 22.426,33.961 40.715,42.96 l 54.34,26.72 c 1.51,-7.1 2.95,-14.22 4.28,-21.35 2.55,-13.76 3.42,-27.791 3.13,-41.779 -0.76,-37.992 37.87,-64.16 72.87,-49.371 l 247.96,104.84 c 21.55,9.1 37.9,27.35 44.61,49.75 l 0.11,0.36 c 6.84,22.83 15.06,45.73 24.34,68.46 l 85.59,42.1 c 13.86,6.82 29.56,6.87 44.52,2.99 4.58,-1.18 9.54,-1.55 14.79,-0.91 15.59,1.94 29.01,13.66 32.98,28.86 6.25,23.89 -10.22,46.84 -33.89,49.36 -10.72,1.15 -21.27,-3.56 -29.31,-10.75 -6.46,-5.79 -10.19,-11.29 -12.19,-16.57 -4.96,-13.09 -15.41,-23.32 -27.97,-29.5 l -58.49,-28.77 c 14.96,32.17 32.12,63.6 50.71,93.75 l 134.09,65.95 c 20.19,9.93 43.04,10.01 64.82,4.36 6.67,-1.74 13.9,-2.27 21.54,-1.33 22.7,2.82 42.23,19.89 48.02,42.01 9.1,34.79 -14.88,68.21 -49.34,71.88 z" /></clipPath><linearGradient
   id="linearGradient254"
   spreadMethod="pad"
   gradientTransform="matrix(0,-997.823,-997.823,0,1250,1977.91)"
   gradientUnits="userSpaceOnUse"
   y2="0"
   x2="1"
   y1="0"
   x1="0"><stop
     id="stop250"
     offset="0"
     style="stop-opacity:1;stop-color:#81e4fb" /><stop
     id="stop252"
     offset="1"
     style="stop-opacity:1;stop-color:#2f5291" /></linearGradient><clipPath
   id="clipPath264"
   clipPathUnits="userSpaceOnUse"><path
     id="path262"
     d="m 1697.59,1305.42 c -22.56,2.57 -42.93,-13.64 -45.49,-36.2 -2.57,-22.56 13.64,-42.92 36.2,-45.49 22.55,-2.57 42.92,13.64 45.49,36.2 2.56,22.56 -13.64,42.92 -36.2,45.49 z" /></clipPath><linearGradient
   id="linearGradient270"
   spreadMethod="pad"
   gradientTransform="matrix(0,-997.823,-997.823,0,1692.94,1977.91)"
   gradientUnits="userSpaceOnUse"
   y2="0"
   x2="1"
   y1="0"
   x1="0"><stop
     id="stop266"
     offset="0"
     style="stop-opacity:1;stop-color:#81e4fb" /><stop
     id="stop268"
     offset="1"
     style="stop-opacity:1;stop-color:#2f5291" /></linearGradient><clipPath
   id="clipPath280"
   clipPathUnits="userSpaceOnUse"><path
     id="path278"
     d="m 787.719,1124.93 c 10.226,-1.16 19.449,6.18 20.617,16.41 1.16,10.21 -6.184,19.44 -16.402,20.6 -10.223,1.17 -19.454,-6.18 -20.618,-16.39 -1.16,-10.23 6.184,-19.46 16.403,-20.62 z" /></clipPath><linearGradient
   id="linearGradient286"
   spreadMethod="pad"
   gradientTransform="matrix(0,-997.823,-997.823,0,789.826,1977.91)"
   gradientUnits="userSpaceOnUse"
   y2="0"
   x2="1"
   y1="0"
   x1="0"><stop
     id="stop282"
     offset="0"
     style="stop-opacity:1;stop-color:#81e4fb" /><stop
     id="stop284"
     offset="1"
     style="stop-opacity:1;stop-color:#2f5291" /></linearGradient><clipPath
   id="clipPath296"
   clipPathUnits="userSpaceOnUse"><path
     id="path294"
     d="m 1649.73,1469.68 c 10.22,-1.16 19.44,6.18 20.61,16.39 1.16,10.23 -6.18,19.46 -16.4,20.62 -10.22,1.16 -19.45,-6.18 -20.61,-16.4 -1.17,-10.22 6.18,-19.45 16.4,-20.61 z" /></clipPath><linearGradient
   id="linearGradient302"
   spreadMethod="pad"
   gradientTransform="matrix(0,-997.823,-997.823,0,1651.83,1977.91)"
   gradientUnits="userSpaceOnUse"
   y2="0"
   x2="1"
   y1="0"
   x1="0"><stop
     id="stop298"
     offset="0"
     style="stop-opacity:1;stop-color:#81e4fb" /><stop
     id="stop300"
     offset="1"
     style="stop-opacity:1;stop-color:#2f5291" /></linearGradient><clipPath
   id="clipPath340"
   clipPathUnits="userSpaceOnUse"><path
     id="path338"
     d="m 4066.21,1124.86 c -23.4,0 -42.57,-17.36 -45.78,-39.88 h -120.15 l -23.83,45.25 H 3708.6 v 2.3 c -2.79,-0.09 -5.57,-0.21 -8.39,-0.21 -149.59,0 -270.85,121.26 -270.85,270.86 0,149.59 121.26,270.86 270.85,270.86 2.82,0 5.6,-0.12 8.39,-0.21 v 2.29 h 167.85 l 23.83,45.26 h 120.15 c 3.21,-22.51 22.38,-39.89 45.78,-39.89 25.65,0 46.45,20.8 46.45,46.45 0,25.65 -20.8,46.44 -46.45,46.44 -19.22,0 -35.71,-11.67 -42.77,-28.33 h -138.06 l -23.83,-45.25 H 3708.6 v 167.22 h -67.35 c -22.29,0 -40.35,-18.07 -40.35,-40.35 v -30.01 c 0,-17.26 -11.07,-32.36 -27.32,-38.13 -12.2,-4.34 -24.13,-9.3 -35.72,-14.82 -15.59,-7.43 -34.12,-4.6 -46.34,7.61 l -21.24,21.24 c -15.76,15.77 -41.31,15.77 -57.07,0 l -83.39,-83.37 c -15.76,-15.77 -15.76,-41.32 0,-57.08 l 21.24,-21.24 c 12.22,-12.22 15.06,-30.74 7.63,-46.33 -5.53,-11.6 -10.48,-23.52 -14.82,-35.74 -5.78,-16.25 -20.88,-27.3 -38.13,-27.3 h -30.02 c -22.28,0 -40.35,-18.07 -40.35,-40.36 v -117.92 c 0,-22.29 18.07,-40.35 40.35,-40.35 h 30.02 c 17.25,0 32.35,-11.07 38.13,-27.32 4.34,-12.2 9.29,-24.13 14.82,-35.72 7.43,-15.61 4.59,-34.12 -7.63,-46.34 l -21.24,-21.24 c -15.76,-15.76 -15.76,-41.31 0,-57.07 l 83.39,-83.39 c 15.76,-15.76 41.31,-15.76 57.07,0 l 21.24,21.24 c 12.22,12.22 30.75,15.06 46.34,7.63 11.59,-5.53 23.52,-10.48 35.72,-14.82 16.25,-5.79 27.32,-20.88 27.32,-38.13 v -30.019 c 0,-22.281 18.06,-40.351 40.35,-40.351 h 67.35 v 167.23 h 152.95 l 23.83,-45.26 h 138.06 c 7.06,-16.65 23.55,-28.33 42.77,-28.33 25.65,0 46.45,20.79 46.45,46.44 0,25.65 -20.8,46.44 -46.45,46.44 z" /></clipPath><linearGradient
   id="linearGradient348"
   spreadMethod="pad"
   gradientTransform="matrix(79.8099,-738.241,-738.241,-79.8099,3633.73,1908.86)"
   gradientUnits="userSpaceOnUse"
   y2="0"
   x2="1"
   y1="0"
   x1="0"><stop
     id="stop342"
     offset="0"
     style="stop-opacity:1;stop-color:#81e4fb" /><stop
     id="stop344"
     offset="0.158757"
     style="stop-opacity:1;stop-color:#74cdea" /><stop
     id="stop346"
     offset="1"
     style="stop-opacity:1;stop-color:#2f5291" /></linearGradient><clipPath
   id="clipPath358"
   clipPathUnits="userSpaceOnUse"><path
     id="path356"
     d="M 4068.08,1647.23 H 3708.6 v -24.68 h 359.49 c 5.43,-19.62 23.22,-34.1 44.57,-34.1 25.65,0 46.44,20.79 46.44,46.44 0,25.66 -20.79,46.45 -46.44,46.45 -21.35,0 -39.15,-14.49 -44.58,-34.11 z" /></clipPath><linearGradient
   id="linearGradient364"
   spreadMethod="pad"
   gradientTransform="matrix(79.8099,-738.241,-738.241,-79.8099,3900.59,1937.71)"
   gradientUnits="userSpaceOnUse"
   y2="0"
   x2="1"
   y1="0"
   x1="0"><stop
     id="stop360"
     offset="0"
     style="stop-opacity:1;stop-color:#81e4fb" /><stop
     id="stop362"
     offset="1"
     style="stop-opacity:1;stop-color:#2f5291" /></linearGradient><clipPath
   id="clipPath374"
   clipPathUnits="userSpaceOnUse"><path
     id="path372"
     d="m 4139.21,1512.52 h -209.84 l -33.55,84.27 H 3708.6 v -24.68 h 170.48 l 33.56,-84.26 h 229.64 c 7.08,-16.6 23.54,-28.23 42.72,-28.23 25.65,0 46.45,20.79 46.45,46.44 0,25.65 -20.8,46.44 -46.45,46.44 -23.44,0 -42.62,-17.41 -45.79,-39.98 z" /></clipPath><linearGradient
   id="linearGradient380"
   spreadMethod="pad"
   gradientTransform="matrix(79.8099,-738.241,-738.241,-79.8099,3926.76,1940.54)"
   gradientUnits="userSpaceOnUse"
   y2="0"
   x2="1"
   y1="0"
   x1="0"><stop
     id="stop376"
     offset="0"
     style="stop-opacity:1;stop-color:#81e4fb" /><stop
     id="stop378"
     offset="1"
     style="stop-opacity:1;stop-color:#2f5291" /></linearGradient><clipPath
   id="clipPath390"
   clipPathUnits="userSpaceOnUse"><path
     id="path388"
     d="M 4059.23,1433.99 H 3708.6 v -24.67 h 350.64 c 5.43,-19.61 23.22,-34.11 44.57,-34.11 25.65,0 46.44,20.81 46.44,46.45 0,25.65 -20.79,46.45 -46.44,46.45 -21.35,0 -39.14,-14.49 -44.58,-34.12 z" /></clipPath><linearGradient
   id="linearGradient396"
   spreadMethod="pad"
   gradientTransform="matrix(79.8099,-738.241,-738.241,-79.8099,3873.43,1934.77)"
   gradientUnits="userSpaceOnUse"
   y2="0"
   x2="1"
   y1="0"
   x1="0"><stop
     id="stop392"
     offset="0"
     style="stop-opacity:1;stop-color:#81e4fb" /><stop
     id="stop394"
     offset="1"
     style="stop-opacity:1;stop-color:#2f5291" /></linearGradient><clipPath
   id="clipPath406"
   clipPathUnits="userSpaceOnUse"><path
     id="path404"
     d="m 4218.18,1381.38 c -21.34,0 -39.15,-14.5 -44.58,-34.11 h -465 v -24.68 h 465.01 c 5.43,-19.62 23.23,-34.1 44.57,-34.1 25.66,0 46.45,20.79 46.45,46.44 0,25.66 -20.79,46.45 -46.45,46.45 z" /></clipPath><linearGradient
   id="linearGradient412"
   spreadMethod="pad"
   gradientTransform="matrix(79.8099,-738.241,-738.241,-79.8099,3920.69,1939.88)"
   gradientUnits="userSpaceOnUse"
   y2="0"
   x2="1"
   y1="0"
   x1="0"><stop
     id="stop408"
     offset="0"
     style="stop-opacity:1;stop-color:#81e4fb" /><stop
     id="stop410"
     offset="1"
     style="stop-opacity:1;stop-color:#2f5291" /></linearGradient><clipPath
   id="clipPath422"
   clipPathUnits="userSpaceOnUse"><path
     id="path420"
     d="m 4126.84,1314.5 c -21.35,0 -39.14,-14.48 -44.57,-34.1 h -156.02 l -65.93,-82.49 H 3708.6 v -24.67 h 298.34 c 5.43,-19.62 23.23,-34.1 44.57,-34.1 25.66,0 46.45,20.79 46.45,46.44 0,25.65 -20.79,46.44 -46.45,46.44 -21.34,0 -39.15,-14.48 -44.58,-34.11 h -115.02 l 46.21,57.81 h 144.14 c 5.43,-19.62 23.23,-34.1 44.58,-34.1 25.65,0 46.44,20.79 46.44,46.44 0,25.65 -20.79,46.44 -46.44,46.44 z" /></clipPath><linearGradient
   id="linearGradient428"
   spreadMethod="pad"
   gradientTransform="matrix(79.8099,-738.241,-738.241,-79.8099,3863.99,1933.75)"
   gradientUnits="userSpaceOnUse"
   y2="0"
   x2="1"
   y1="0"
   x1="0"><stop
     id="stop424"
     offset="0"
     style="stop-opacity:1;stop-color:#81e4fb" /><stop
     id="stop426"
     offset="1"
     style="stop-opacity:1;stop-color:#2f5291" /></linearGradient><clipPath
   id="clipPath438"
   clipPathUnits="userSpaceOnUse"><path
     id="path436"
     d="m 3753.22,1452.04 c -9.79,18.36 -27.51,28.78 -50.36,28.78 -23.18,0 -41.1,-10.42 -50.96,-28.78 z m -39.2,-238.94 c -117.98,0 -200.37,78.16 -200.37,190.08 0,108.37 81.1,190.09 188.63,190.09 108.62,0 184.49,-78.67 184.49,-191.32 -0.07,-25.36 -20.82,-45.78 -46.25,-45.78 h -184.58 c 12.28,-16.97 33.22,-26.32 60.43,-26.32 17.99,0 32.36,3.39 45.2,10.66 8.82,5 18.82,7.63 28.92,7.63 16.69,0 32.59,-7.16 43.61,-19.65 11.46,-13 16.59,-30.3 14.09,-47.45 -2.41,-16.63 -11.86,-31.22 -25.93,-40.01 -29.64,-18.54 -66.05,-27.93 -108.24,-27.93 z" /></clipPath><linearGradient
   id="linearGradient444"
   spreadMethod="pad"
   gradientTransform="matrix(89.1401,-824.546,-824.546,-89.1401,3638.98,1969.5)"
   gradientUnits="userSpaceOnUse"
   y2="0"
   x2="1"
   y1="0"
   x1="0"><stop
     id="stop440"
     offset="0"
     style="stop-opacity:1;stop-color:#81e4fb" /><stop
     id="stop442"
     offset="1"
     style="stop-opacity:1;stop-color:#2f5291" /></linearGradient>











</defs><path
     id="path16"
     style="fill:#f4f4f4;fill-opacity:1;fill-rule:nonzero;stroke:none;stroke-width:0.133333"
     d="M 333.33332,333.33334 H 0 V 2e-5 h 333.33332 v 333.33332" /><g
     clip-path="url(#clipPath26)"
     id="g22"
     transform="matrix(0.13333333,0,0,-0.13333333,0,666.66667)"><path
       id="path34"
       style="fill:url(#linearGradient32);fill-opacity:1;fill-rule:nonzero;stroke:none"
       d="M 1023.05,3927.27 H 859 c 6.805,44.63 38.383,72.46 82.328,72.46 43.336,0 74.912,-28.47 81.722,-72.46 z m -260.003,-30.41 c 0,-103.52 74.914,-179.22 190.051,-179.22 40.754,0 75.232,8.95 102.862,26.23 20.73,12.97 24.03,42 7.85,60.34 -12.66,14.34 -33.58,17.7 -50.23,8.27 -16.533,-9.36 -35.205,-13.96 -58.014,-13.96 -50.757,0 -86.046,26.53 -95.332,69.87 h 226.146 c 14.99,0 27.61,11.95 27.66,26.94 0,0.08 0,0.16 0,0.24 0,111.92 -75.52,180.5 -173.325,180.5 -101.527,0 -177.668,-75.05 -177.668,-179.21" /></g><g
     clip-path="url(#clipPath42)"
     id="g38"
     transform="matrix(0.13333333,0,0,-0.13333333,0,666.66667)"><path
       id="path50"
       style="fill:url(#linearGradient48);fill-opacity:1;fill-rule:nonzero;stroke:none"
       d="m 1174.68,3887.38 c -4.66,-114.8 -91.73,-207.09 -201.825,-222.19 -16.55,-2.27 -28.722,-16.69 -28.722,-33.4 v 0 c 0,-20.47 18.062,-36.44 38.34,-33.64 141.757,19.61 253.907,138.58 259.897,286.49 5.64,139.11 -84.36,260.26 -211.3,300 -21.91,6.86 -44.261,-9.2 -44.261,-32.15 0,-14.69 9.254,-28.1 23.281,-32.45 98.8,-30.56 168.97,-124.55 164.59,-232.66" /></g><g
     clip-path="url(#clipPath58)"
     id="g54"
     transform="matrix(0.13333333,0,0,-0.13333333,0,666.66667)"><path
       id="path66"
       style="fill:url(#linearGradient64);fill-opacity:1;fill-rule:nonzero;stroke:none"
       d="m 763.047,3637.49 c -15.547,0 -29.871,-5.12 -41.516,-13.67 -86.109,68.87 -135.164,174.03 -130.574,287.22 4.391,108.3 58.184,206.59 143.906,268.96 12.071,-9.77 27.418,-15.64 44.153,-15.64 38.816,0 70.281,31.46 70.281,70.28 0,38.81 -31.465,70.28 -70.281,70.28 -38.817,0 -70.282,-31.47 -70.282,-70.28 0,-4.44 0.461,-8.77 1.246,-12.98 -99.644,-70.82 -162.32,-183.9 -167.378,-308.66 -5.278,-130.35 51.929,-251.35 152.105,-329.65 -1.227,-5.19 -1.937,-10.58 -1.937,-16.14 0,-38.82 31.464,-70.29 70.277,-70.29 38.816,0 70.281,31.47 70.281,70.29 0,38.81 -31.465,70.28 -70.281,70.28" /></g><g
     clip-path="url(#clipPath74)"
     id="g70"
     transform="matrix(0.13333333,0,0,-0.13333333,0,666.66667)"><path
       id="path82"
       style="fill:url(#linearGradient80);fill-opacity:1;fill-rule:nonzero;stroke:none"
       d="m 1642.83,3747.39 c -28.67,0 -53.28,-17.18 -64.22,-41.79 h -343.62 c -0.05,-0.02 -0.08,-0.04 -0.13,-0.07 l -7.18,-10.19 c -61.31,-87.02 -157.13,-140.54 -261.504,-147.92 -12.703,-0.9 -22.598,-11.34 -22.598,-24.08 0,-13.96 11.809,-25.18 25.738,-24.2 114.814,8.01 220.404,64.98 290.404,158 0.05,0.03 0.08,0.05 0.12,0.07 h 315.61 c 8.59,-29.11 35.48,-50.38 67.38,-50.38 38.81,0 70.28,31.47 70.28,70.28 0,38.82 -31.47,70.28 -70.28,70.28" /></g><g
     clip-path="url(#clipPath90)"
     id="g86"
     transform="matrix(0.13333333,0,0,-0.13333333,0,666.66667)"><path
       id="path98"
       style="fill:url(#linearGradient96);fill-opacity:1;fill-rule:nonzero;stroke:none"
       d="m 1810.72,3851.46 c -29.38,0 -54.52,-18.05 -65.02,-43.65 h -425.36 c -13.36,0 -24.19,-10.83 -24.19,-24.2 0,-13.36 10.83,-24.19 24.19,-24.19 h 423.57 c 9.17,-28.16 35.59,-48.53 66.81,-48.53 38.82,0 70.28,31.47 70.28,70.28 0,38.82 -31.46,70.29 -70.28,70.29" /></g><g
     clip-path="url(#clipPath106)"
     id="g102"
     transform="matrix(0.13333333,0,0,-0.13333333,0,666.66667)"><path
       id="path114"
       style="fill:url(#linearGradient112);fill-opacity:1;fill-rule:nonzero;stroke:none"
       d="m 1951.28,4041.48 c -27.78,0 -51.73,-16.16 -63.14,-39.57 h -264.6 l -96.03,-96.03 h -187.83 c -4.41,200.05 -157.96,366.74 -356.926,387.54 -13.848,1.46 -26.035,-9.26 -26.602,-23.17 -0.511,-12.73 8.938,-23.63 21.602,-24.96 182.076,-19.08 320.846,-177.18 313.336,-362.62 l -1.02,-25.18 h 257.48 l 96.04,96.04 h 239.74 c 7.85,-30.25 35.25,-52.61 67.95,-52.61 38.82,0 70.28,31.47 70.28,70.28 0,38.82 -31.46,70.28 -70.28,70.28" /></g><g
     clip-path="url(#clipPath122)"
     id="g118"
     transform="matrix(0.13333333,0,0,-0.13333333,0,666.66667)"><path
       id="path130"
       style="fill:url(#linearGradient128);fill-opacity:1;fill-rule:nonzero;stroke:none"
       d="m 1397.33,4023.79 c 30.31,0 56.05,19.22 65.92,46.09 h 281.55 c 9.88,-26.87 35.62,-46.09 65.92,-46.09 38.82,0 70.28,31.48 70.28,70.29 0,38.81 -31.46,70.28 -70.28,70.28 -30.3,0 -56.04,-19.22 -65.92,-46.09 h -281.55 c -9.87,26.87 -35.61,46.09 -65.92,46.09 -38.81,0 -70.27,-31.47 -70.27,-70.28 0,-38.81 31.46,-70.29 70.27,-70.29" /></g><text
     id="text136"
     style="font-variant:normal;font-weight:bold;font-size:34.4754px;font-family:Baloo2;-inkscape-font-specification:Baloo2-Bold;writing-mode:lr-tb;fill:#212121;fill-opacity:1;fill-rule:nonzero;stroke:none;stroke-width:1.30417"
     transform="scale(0.97812627,1.0223629)"
     x="95.513771"
     y="252.75697"><tspan
       id="tspan134"
       y="252.75697"
       x="95.513771 112.85468 132.05791 149.32957"
       style="stroke-width:1.30417">Tech</tspan></text><text
     id="text140"
     style="font-variant:normal;font-weight:normal;font-size:34.4754px;font-family:Baloo2;-inkscape-font-specification:Baloo2-Regular;writing-mode:lr-tb;fill:#212121;fill-opacity:1;fill-rule:nonzero;stroke:none;stroke-width:1.30417"
     transform="scale(0.97812627,1.0223629)"
     x="169.77351"
     y="252.75697"><tspan
       id="tspan138"
       y="252.75697"
       x="169.77351 187.18367 206.73097 225.72661"
       style="stroke-width:1.30417">Logo</tspan></text><text
     id="text144"
     style="font-variant:normal;font-weight:normal;font-size:13.7291px;font-family:Baloo2;-inkscape-font-specification:Baloo2-Regular;writing-mode:lr-tb;fill:#212121;fill-opacity:1;fill-rule:nonzero;stroke:none;stroke-width:1.30417"
     transform="scale(0.97812627,1.0223629)"
     x="130.48444"
     y="267.33105"><tspan
       id="tspan142"
       y="267.33105"
       x="130.48444 138.54355 142.79939 151.26984 159.5213 167.25026 175.68008 179.30429 189.16183 197.1657 203.15144"
       style="stroke-width:1.30417">Slogan Here</tspan></text><g
     clip-path="url(#clipPath152)"
     id="g148"
     transform="matrix(0.13333333,0,0,-0.13333333,0,666.66667)"><path
       id="path160"
       style="fill:url(#linearGradient158);fill-opacity:1;fill-rule:nonzero;stroke:none"
       d="m 4053.03,4062.01 c -20.27,0 -36.69,16.42 -36.69,36.69 v 97.16 c -164.22,78.93 -513.34,73.82 -604.39,-38.85 -104.04,-128.75 -127.76,-556.87 0,-662.12 127.76,-105.24 533.36,-104.03 662.11,0 104.75,84.64 116.53,392.3 54.25,567.12 h -75.28" /></g><g
     clip-path="url(#clipPath168)"
     id="g164"
     transform="matrix(0.13333333,0,0,-0.13333333,0,666.66667)"><path
       id="path176"
       style="fill:url(#linearGradient174);fill-opacity:1;fill-rule:nonzero;stroke:none"
       d="m 4017.53,4353.61 h -45.04 c -21.04,0 -38.1,-17.05 -38.1,-38.09 v -45.04 c 0,-9.47 7.68,-17.14 17.14,-17.14 h 45.04 c 21.05,0 38.1,17.05 38.1,38.1 v 45.03 c 0,9.47 -7.68,17.14 -17.14,17.14" /></g><g
     clip-path="url(#clipPath184)"
     id="g180"
     transform="matrix(0.13333333,0,0,-0.13333333,0,666.66667)"><path
       id="path192"
       style="fill:url(#linearGradient190);fill-opacity:1;fill-rule:nonzero;stroke:none"
       d="m 4333.29,4365.52 h -45.04 c -21.03,0 -38.09,-17.06 -38.09,-38.1 v -45.04 c 0,-9.47 7.67,-17.15 17.13,-17.15 h 45.04 c 21.05,0 38.11,17.07 38.11,38.11 v 45.04 c 0,9.46 -7.68,17.14 -17.15,17.14" /></g><g
     clip-path="url(#clipPath200)"
     id="g196"
     transform="matrix(0.13333333,0,0,-0.13333333,0,666.66667)"><path
       id="path208"
       style="fill:url(#linearGradient206);fill-opacity:1;fill-rule:nonzero;stroke:none"
       d="m 4293.65,4104.82 h -59.36 c -27.74,0 -50.22,-22.48 -50.22,-50.21 v -59.37 c 0,-12.48 10.12,-22.59 22.59,-22.59 h 59.37 c 27.73,0 50.21,22.48 50.21,50.22 v 59.36 c 0,12.48 -10.11,22.59 -22.59,22.59" /></g><g
     clip-path="url(#clipPath216)"
     id="g212"
     transform="matrix(0.13333333,0,0,-0.13333333,0,666.66667)"><path
       id="path224"
       style="fill:url(#linearGradient222);fill-opacity:1;fill-rule:nonzero;stroke:none"
       d="m 4188.52,4275.23 h -81.61 c -38.12,0 -69.03,-30.9 -69.03,-69.03 v -81.6 c 0,-17.15 13.91,-31.05 31.07,-31.05 h 81.6 c 38.11,0 69.02,30.9 69.02,69.02 v 81.61 c 0,17.15 -13.91,31.05 -31.05,31.05" /></g><path
     id="path226"
     style="fill:#ffffff;fill-opacity:1;fill-rule:nonzero;stroke:none;stroke-width:0.133333"
     d="m 513.14399,109.34535 -11.29467,40.9 18.19333,2.70667 c 2.81467,0.42 4.02267,3.808 2.108,5.91333 l -39.12666,43.036 12.236,-39.15467 -20.09334,-3.37733 c -2.77466,-0.46667 -3.936,-3.816 -2.04533,-5.89867 l 40.02267,-44.12533" /><text
     id="text232"
     style="font-variant:normal;font-weight:bold;font-size:34.4754px;font-family:Baloo2;-inkscape-font-specification:Baloo2-Bold;writing-mode:lr-tb;fill:#212121;fill-opacity:1;fill-rule:nonzero;stroke:none;stroke-width:1.30417"
     transform="scale(0.97812627,1.0223629)"
     x="436.30084"
     y="252.75697"><tspan
       id="tspan230"
       y="252.75697"
       x="436.30084 453.64172 472.84497 490.11664"
       style="stroke-width:1.30417">Tech</tspan></text><text
     id="text236"
     style="font-variant:normal;font-weight:normal;font-size:34.4754px;font-family:Baloo2;-inkscape-font-specification:Baloo2-Regular;writing-mode:lr-tb;fill:#212121;fill-opacity:1;fill-rule:nonzero;stroke:none;stroke-width:1.30417"
     transform="scale(0.97812627,1.0223629)"
     x="510.5611"
     y="252.75697"><tspan
       id="tspan234"
       y="252.75697"
       x="510.5611 527.97125 547.51855 566.51422"
       style="stroke-width:1.30417">Logo</tspan></text><text
     id="text240"
     style="font-variant:normal;font-weight:normal;font-size:13.7291px;font-family:Baloo2;-inkscape-font-specification:Baloo2-Regular;writing-mode:lr-tb;fill:#212121;fill-opacity:1;fill-rule:nonzero;stroke:none;stroke-width:1.30417"
     transform="scale(0.97812627,1.0223629)"
     x="471.27112"
     y="267.33105"><tspan
       id="tspan238"
       y="267.33105"
       x="471.27112 479.3302 483.58606 492.05649 500.30795 508.0369 516.46674 520.09094 529.94849 537.95233 543.93805"
       style="stroke-width:1.30417">Slogan Here</tspan></text><g
     clip-path="url(#clipPath248)"
     id="g244"
     transform="matrix(0.13333333,0,0,-0.13333333,0,666.66667)"><path
       id="path256"
       style="fill:url(#linearGradient254);fill-opacity:1;fill-rule:nonzero;stroke:none"
       d="m 1746.08,1455.43 c -15.62,1.66 -30.98,-5.19 -42.68,-15.65 -9.41,-8.43 -14.85,-16.44 -17.76,-24.13 -7.21,-19.06 -22.42,-33.96 -40.71,-42.95 l -75.35,-37.08 c 1.63,2.22 3.19,4.55 4.84,6.73 10.65,14.11 16.28,31.34 16.43,49.01 l 1.32,150.18 c 0,32.83 -26.62,59.47 -59.46,59.47 h -56.2 v 82.34 h -19.91 v 207.54 c 0,12.88 -10.31,25.84 -23.12,27.12 -15.44,1.55 -28.45,-10.53 -28.45,-25.65 v -209.01 h -19.91 v -82.34 h -274.68 v 82.34 h -19.91 v 207.54 c 0,12.88 -10.31,25.84 -23.12,27.12 -15.44,1.55 -28.45,-10.53 -28.45,-25.65 v -209.01 h -19.91 v -82.34 h -56.198 c -32.836,0 -59.461,-26.64 -59.461,-59.47 v -155.96 c 0,-13.29 4.613,-26.08 12.707,-36.62 32.027,-41.69 59.59,-86.27 82.574,-132.95 l -49.723,-24.46 c -12.402,-6.1 -26.437,-6.14 -39.816,-2.67 -4.106,1.06 -8.543,1.39 -13.235,0.81 -13.945,-1.73 -25.937,-12.22 -29.496,-25.81 -5.589,-21.37 9.141,-41.9 30.309,-44.15 9.594,-1.02 19.031,3.18 26.219,9.62 5.781,5.17 9.117,10.09 10.902,14.81 4.434,11.71 13.781,20.86 25.016,26.39 l 49.772,24.48 c 5.24,-11.47 10.2,-23.06 14.89,-34.76 L 838.961,1069.5 c -20.191,-9.93 -43.039,-10 -64.82,-4.35 -6.676,1.72 -13.903,2.27 -21.539,1.32 -22.7,-2.81 -42.231,-19.89 -48.016,-42.02 -9.102,-34.77 14.879,-68.2 49.336,-71.86 15.613,-1.668 30.976,5.18 42.68,15.648 9.41,8.422 14.843,16.442 17.753,24.121 7.215,19.071 22.426,33.961 40.711,42.951 l 181.744,89.4 c 6.37,-18.43 12.01,-37.11 17.02,-55.98 l -61.365,-30.18 c -20.192,-9.93 -43.039,-10.01 -64.82,-4.36 -6.672,1.74 -13.907,2.27 -21.54,1.33 -22.703,-2.81 -42.226,-19.89 -48.019,-42.008 -9.098,-34.793 14.879,-68.211 49.34,-71.883 15.617,-1.66 30.976,5.191 42.676,15.66 9.414,8.422 14.843,16.43 17.753,24.121 7.223,19.059 22.426,33.961 40.715,42.96 l 54.34,26.72 c 1.51,-7.1 2.95,-14.22 4.28,-21.35 2.55,-13.76 3.42,-27.791 3.13,-41.779 -0.76,-37.992 37.87,-64.16 72.87,-49.371 l 247.96,104.84 c 21.55,9.1 37.9,27.35 44.61,49.75 l 0.11,0.36 c 6.84,22.83 15.06,45.73 24.34,68.46 l 85.59,42.1 c 13.86,6.82 29.56,6.87 44.52,2.99 4.58,-1.18 9.54,-1.55 14.79,-0.91 15.59,1.94 29.01,13.66 32.98,28.86 6.25,23.89 -10.22,46.84 -33.89,49.36 -10.72,1.15 -21.27,-3.56 -29.31,-10.75 -6.46,-5.79 -10.19,-11.29 -12.19,-16.57 -4.96,-13.09 -15.41,-23.32 -27.97,-29.5 l -58.49,-28.77 c 14.96,32.17 32.12,63.6 50.71,93.75 l 134.09,65.95 c 20.19,9.93 43.04,10.01 64.82,4.36 6.67,-1.74 13.9,-2.27 21.54,-1.33 22.7,2.82 42.23,19.89 48.02,42.01 9.1,34.79 -14.88,68.21 -49.34,71.88" /></g><g
     clip-path="url(#clipPath264)"
     id="g260"
     transform="matrix(0.13333333,0,0,-0.13333333,0,666.66667)"><path
       id="path272"
       style="fill:url(#linearGradient270);fill-opacity:1;fill-rule:nonzero;stroke:none"
       d="m 1697.59,1305.42 c -22.56,2.57 -42.93,-13.64 -45.49,-36.2 -2.57,-22.56 13.64,-42.92 36.2,-45.49 22.55,-2.57 42.92,13.64 45.49,36.2 2.56,22.56 -13.64,42.92 -36.2,45.49" /></g><g
     clip-path="url(#clipPath280)"
     id="g276"
     transform="matrix(0.13333333,0,0,-0.13333333,0,666.66667)"><path
       id="path288"
       style="fill:url(#linearGradient286);fill-opacity:1;fill-rule:nonzero;stroke:none"
       d="m 787.719,1124.93 c 10.226,-1.16 19.449,6.18 20.617,16.41 1.16,10.21 -6.184,19.44 -16.402,20.6 -10.223,1.17 -19.454,-6.18 -20.618,-16.39 -1.16,-10.23 6.184,-19.46 16.403,-20.62" /></g><g
     clip-path="url(#clipPath296)"
     id="g292"
     transform="matrix(0.13333333,0,0,-0.13333333,0,666.66667)"><path
       id="path304"
       style="fill:url(#linearGradient302);fill-opacity:1;fill-rule:nonzero;stroke:none"
       d="m 1649.73,1469.68 c 10.22,-1.16 19.44,6.18 20.61,16.39 1.16,10.23 -6.18,19.46 -16.4,20.62 -10.22,1.16 -19.45,-6.18 -20.61,-16.4 -1.17,-10.22 6.18,-19.45 16.4,-20.61" /></g><path
     id="path306"
     style="fill:#ffffff;fill-opacity:1;fill-rule:nonzero;stroke:none;stroke-width:0.133333"
     d="M 166.59866,465.75868 H 185.38 l -14.54134,19.26933 h 11.512 l -34.98933,33.58 15.29867,-27.856 h -10.3 l 14.23866,-24.99333" /><text
     id="text312"
     style="font-variant:normal;font-weight:bold;font-size:34.4754px;font-family:Baloo2;-inkscape-font-specification:Baloo2-Bold;writing-mode:lr-tb;fill:#212121;fill-opacity:1;fill-rule:nonzero;stroke:none;stroke-width:1.30417"
     transform="scale(0.97812627,1.0223629)"
     x="95.513771"
     y="579.94531"><tspan
       id="tspan310"
       y="579.94531"
       x="95.513771 112.85468 132.05791 149.32957"
       style="stroke-width:1.30417">Tech</tspan></text><text
     id="text316"
     style="font-variant:normal;font-weight:normal;font-size:34.4754px;font-family:Baloo2;-inkscape-font-specification:Baloo2-Regular;writing-mode:lr-tb;fill:#212121;fill-opacity:1;fill-rule:nonzero;stroke:none;stroke-width:1.30417"
     transform="scale(0.97812627,1.0223629)"
     x="169.77351"
     y="579.94531"><tspan
       id="tspan314"
       y="579.94531"
       x="169.77351 187.18367 206.73097 225.72661"
       style="stroke-width:1.30417">Logo</tspan></text><text
     id="text320"
     style="font-variant:normal;font-weight:normal;font-size:13.7291px;font-family:Baloo2;-inkscape-font-specification:Baloo2-Regular;writing-mode:lr-tb;fill:#212121;fill-opacity:1;fill-rule:nonzero;stroke:none;stroke-width:1.30417"
     transform="scale(0.97812627,1.0223629)"
     x="130.48444"
     y="594.51935"><tspan
       id="tspan318"
       y="594.51935"
       x="130.48444 138.54355 142.79939 151.26984 159.5213 167.25026 175.68008 179.30429 189.16183 197.1657 203.15144"
       style="stroke-width:1.30417">Slogan Here</tspan></text><text
     id="text324"
     style="font-variant:normal;font-weight:bold;font-size:34.4754px;font-family:Baloo2;-inkscape-font-specification:Baloo2-Bold;writing-mode:lr-tb;fill:#212121;fill-opacity:1;fill-rule:nonzero;stroke:none;stroke-width:1.30417"
     transform="scale(0.97812627,1.0223629)"
     x="436.30222"
     y="579.94531"><tspan
       id="tspan322"
       y="579.94531"
       x="436.30222 453.6431 472.84634 490.11801"
       style="stroke-width:1.30417">Tech</tspan></text><text
     id="text328"
     style="font-variant:normal;font-weight:normal;font-size:34.4754px;font-family:Baloo2;-inkscape-font-specification:Baloo2-Regular;writing-mode:lr-tb;fill:#212121;fill-opacity:1;fill-rule:nonzero;stroke:none;stroke-width:1.30417"
     transform="scale(0.97812627,1.0223629)"
     x="510.56091"
     y="579.94531"><tspan
       id="tspan326"
       y="579.94531"
       x="510.56091 527.97101 547.51837 566.51404"
       style="stroke-width:1.30417">Logo</tspan></text><text
     id="text332"
     style="font-variant:normal;font-weight:normal;font-size:13.7291px;font-family:Baloo2;-inkscape-font-specification:Baloo2-Regular;writing-mode:lr-tb;fill:#212121;fill-opacity:1;fill-rule:nonzero;stroke:none;stroke-width:1.30417"
     transform="scale(0.97812627,1.0223629)"
     x="471.27249"
     y="594.51935"><tspan
       id="tspan330"
       y="594.51935"
       x="471.27249 479.33157 483.5874 492.05783 500.3093 508.03827 516.46808 520.09229 529.94983 537.95374 543.93945"
       style="stroke-width:1.30417">Slogan Here</tspan></text><g
     clip-path="url(#clipPath340)"
     id="g336"
     transform="matrix(0.13333333,0,0,-0.13333333,0,666.66667)"><path
       id="path350"
       style="fill:url(#linearGradient348);fill-opacity:1;fill-rule:nonzero;stroke:none"
       d="m 4066.21,1124.86 c -23.4,0 -42.57,-17.36 -45.78,-39.88 h -120.15 l -23.83,45.25 H 3708.6 v 2.3 c -2.79,-0.09 -5.57,-0.21 -8.39,-0.21 -149.59,0 -270.85,121.26 -270.85,270.86 0,149.59 121.26,270.86 270.85,270.86 2.82,0 5.6,-0.12 8.39,-0.21 v 2.29 h 167.85 l 23.83,45.26 h 120.15 c 3.21,-22.51 22.38,-39.89 45.78,-39.89 25.65,0 46.45,20.8 46.45,46.45 0,25.65 -20.8,46.44 -46.45,46.44 -19.22,0 -35.71,-11.67 -42.77,-28.33 h -138.06 l -23.83,-45.25 H 3708.6 v 167.22 h -67.35 c -22.29,0 -40.35,-18.07 -40.35,-40.35 v -30.01 c 0,-17.26 -11.07,-32.36 -27.32,-38.13 -12.2,-4.34 -24.13,-9.3 -35.72,-14.82 -15.59,-7.43 -34.12,-4.6 -46.34,7.61 l -21.24,21.24 c -15.76,15.77 -41.31,15.77 -57.07,0 l -83.39,-83.37 c -15.76,-15.77 -15.76,-41.32 0,-57.08 l 21.24,-21.24 c 12.22,-12.22 15.06,-30.74 7.63,-46.33 -5.53,-11.6 -10.48,-23.52 -14.82,-35.74 -5.78,-16.25 -20.88,-27.3 -38.13,-27.3 h -30.02 c -22.28,0 -40.35,-18.07 -40.35,-40.36 v -117.92 c 0,-22.29 18.07,-40.35 40.35,-40.35 h 30.02 c 17.25,0 32.35,-11.07 38.13,-27.32 4.34,-12.2 9.29,-24.13 14.82,-35.72 7.43,-15.61 4.59,-34.12 -7.63,-46.34 l -21.24,-21.24 c -15.76,-15.76 -15.76,-41.31 0,-57.07 l 83.39,-83.39 c 15.76,-15.76 41.31,-15.76 57.07,0 l 21.24,21.24 c 12.22,12.22 30.75,15.06 46.34,7.63 11.59,-5.53 23.52,-10.48 35.72,-14.82 16.25,-5.79 27.32,-20.88 27.32,-38.13 v -30.019 c 0,-22.281 18.06,-40.351 40.35,-40.351 h 67.35 v 167.23 h 152.95 l 23.83,-45.26 h 138.06 c 7.06,-16.65 23.55,-28.33 42.77,-28.33 25.65,0 46.45,20.79 46.45,46.44 0,25.65 -20.8,46.44 -46.45,46.44" /></g><g
     clip-path="url(#clipPath358)"
     id="g354"
     transform="matrix(0.13333333,0,0,-0.13333333,0,666.66667)"><path
       id="path366"
       style="fill:url(#linearGradient364);fill-opacity:1;fill-rule:nonzero;stroke:none"
       d="M 4068.08,1647.23 H 3708.6 v -24.68 h 359.49 c 5.43,-19.62 23.22,-34.1 44.57,-34.1 25.65,0 46.44,20.79 46.44,46.44 0,25.66 -20.79,46.45 -46.44,46.45 -21.35,0 -39.15,-14.49 -44.58,-34.11" /></g><g
     clip-path="url(#clipPath374)"
     id="g370"
     transform="matrix(0.13333333,0,0,-0.13333333,0,666.66667)"><path
       id="path382"
       style="fill:url(#linearGradient380);fill-opacity:1;fill-rule:nonzero;stroke:none"
       d="m 4139.21,1512.52 h -209.84 l -33.55,84.27 H 3708.6 v -24.68 h 170.48 l 33.56,-84.26 h 229.64 c 7.08,-16.6 23.54,-28.23 42.72,-28.23 25.65,0 46.45,20.79 46.45,46.44 0,25.65 -20.8,46.44 -46.45,46.44 -23.44,0 -42.62,-17.41 -45.79,-39.98" /></g><g
     clip-path="url(#clipPath390)"
     id="g386"
     transform="matrix(0.13333333,0,0,-0.13333333,0,666.66667)"><path
       id="path398"
       style="fill:url(#linearGradient396);fill-opacity:1;fill-rule:nonzero;stroke:none"
       d="M 4059.23,1433.99 H 3708.6 v -24.67 h 350.64 c 5.43,-19.61 23.22,-34.11 44.57,-34.11 25.65,0 46.44,20.81 46.44,46.45 0,25.65 -20.79,46.45 -46.44,46.45 -21.35,0 -39.14,-14.49 -44.58,-34.12" /></g><g
     clip-path="url(#clipPath406)"
     id="g402"
     transform="matrix(0.13333333,0,0,-0.13333333,0,666.66667)"><path
       id="path414"
       style="fill:url(#linearGradient412);fill-opacity:1;fill-rule:nonzero;stroke:none"
       d="m 4218.18,1381.38 c -21.34,0 -39.15,-14.5 -44.58,-34.11 h -465 v -24.68 h 465.01 c 5.43,-19.62 23.23,-34.1 44.57,-34.1 25.66,0 46.45,20.79 46.45,46.44 0,25.66 -20.79,46.45 -46.45,46.45" /></g><g
     clip-path="url(#clipPath422)"
     id="g418"
     transform="matrix(0.13333333,0,0,-0.13333333,0,666.66667)"><path
       id="path430"
       style="fill:url(#linearGradient428);fill-opacity:1;fill-rule:nonzero;stroke:none"
       d="m 4126.84,1314.5 c -21.35,0 -39.14,-14.48 -44.57,-34.1 h -156.02 l -65.93,-82.49 H 3708.6 v -24.67 h 298.34 c 5.43,-19.62 23.23,-34.1 44.57,-34.1 25.66,0 46.45,20.79 46.45,46.44 0,25.65 -20.79,46.44 -46.45,46.44 -21.34,0 -39.15,-14.48 -44.58,-34.11 h -115.02 l 46.21,57.81 h 144.14 c 5.43,-19.62 23.23,-34.1 44.58,-34.1 25.65,0 46.44,20.79 46.44,46.44 0,25.65 -20.79,46.44 -46.44,46.44" /></g></svg>
