<?xml version="1.0" encoding="UTF-8" standalone="no"?>
<svg
   version="1.1"
   width="256"
   height="256"
   viewBox="0 0 256 256"
   xml:space="preserve"
   id="svg10"
   sodipodi:docname="logo-white.svg"
   inkscape:version="1.1.2 (0a00cf5339, 2022-02-04)"
   xmlns:inkscape="http://www.inkscape.org/namespaces/inkscape"
   xmlns:sodipodi="http://sodipodi.sourceforge.net/DTD/sodipodi-0.dtd"
   xmlns="http://www.w3.org/2000/svg"
   xmlns:svg="http://www.w3.org/2000/svg"><sodipodi:namedview
   id="namedview12"
   pagecolor="#ffffff"
   bordercolor="#666666"
   borderopacity="1.0"
   inkscape:pageshadow="2"
   inkscape:pageopacity="0.0"
   inkscape:pagecheckerboard="0"
   showgrid="false"
   inkscape:zoom="2.2109375"
   inkscape:cx="102.21908"
   inkscape:cy="120.5371"
   inkscape:window-width="1482"
   inkscape:window-height="800"
   inkscape:window-x="0"
   inkscape:window-y="0"
   inkscape:window-maximized="1"
   inkscape:current-layer="svg10" />

<defs
   id="defs2">

	
	
</defs>
<circle
   cx="127.85659"
   cy="127.85659"
   r="126.45"
   style="fill:#cccccc;fill-rule:nonzero;stroke:none;stroke-width:2.81;stroke-linecap:butt;stroke-linejoin:miter;stroke-miterlimit:10;stroke-dasharray:none;fill-opacity:1"
   id="circle4" />
<path
   d="m 186.5277,110.61613 c 0,-2.64137 2.17481,-4.85416 4.85777,-4.94216 2.68356,-0.088 4.85837,1.98253 4.85837,4.62389 z m -91.711762,61.03709 c -2.608815,-0.53044 -4.217021,-3.05969 -3.591339,-5.64922 0.625681,-2.58892 3.248359,-4.25801 5.857174,-3.72756 z M 196.24384,110.29786 c 0,14.57271 -7.33156,27.90913 8.98498,42.02976 l -6.54855,7.28214 C 178.16358,141.85318 186.5277,120.62402 186.5277,110.61613 Z m 8.98498,42.02976 c 1.46595,1.26824 2.92528,2.95782 3.46838,5.1459 0.62628,2.52382 -0.16094,4.87405 -1.64317,6.64681 -1.30863,1.56481 -3.08863,2.62629 -4.72576,3.38278 -1.70827,0.78903 -3.69321,1.44003 -5.81679,1.99157 -8.37618,2.17783 -21.15744,3.37133 -34.57945,3.95481 -13.54016,0.58831 -28.13879,0.56963 -40.3667,0.19952 -12.06396,-0.36528 -22.263533,-1.08379 -26.749392,-1.99579 l 2.265835,-9.37678 c 3.542517,0.72031 12.909657,1.43581 25.104417,1.80531 12.0314,0.36468 26.3841,0.38156 39.64035,-0.1947 13.3744,-0.58167 25.23522,-1.75347 32.49987,-3.64197 1.78663,-0.46474 3.14891,-0.93611 4.11938,-1.38457 1.04039,-0.48042 1.26884,-0.76975 1.19229,-0.67873 -0.25016,0.29958 -0.58229,1.05486 -0.38397,1.85414 0.11513,0.46293 0.26281,0.29777 -0.57384,-0.42616 z"
   fill="#000000"
   fill-opacity="0.9"
   id="path2416"
   style="stroke-width:0.602776" /><path
   d="m 175.20094,99.657659 c 0.33092,-4.706475 -0.21941,-8.959662 -2.18386,-13.173669"
   stroke="#000000"
   stroke-opacity="0.9"
   stroke-width="9.64442"
   stroke-linecap="round"
   stroke-linejoin="round"
   id="path2418" /><path
   d="m 155.10499,85.402007 c -1.18506,-3.353243 -3.63293,-6.083215 -6.00606,-8.782446"
   stroke="#000000"
   stroke-opacity="0.9"
   stroke-width="9.64442"
   stroke-linecap="round"
   stroke-linejoin="round"
   id="path2420" /><path
   d="m 129.37911,74.233774 c -1.51297,-3.524431 -3.71491,-6.200757 -5.65585,-9.056106"
   stroke="#000000"
   stroke-opacity="0.9"
   stroke-width="9.64442"
   stroke-linecap="round"
   stroke-linejoin="round"
   id="path2422" /><path
   d="m 96.674899,75.193996 c -2.371321,-1.89995 -6.646811,-3.08561 -8.735429,-3.659453"
   stroke="#000000"
   stroke-opacity="0.9"
   stroke-width="9.64442"
   stroke-linecap="round"
   stroke-linejoin="round"
   id="path2424" /><path
   d="M 74.451152,89.451456 C 72.23378,87.494242 67.286315,86.615395 66.261596,86.523773"
   stroke="#000000"
   stroke-opacity="0.9"
   stroke-width="9.64442"
   stroke-linecap="round"
   stroke-linejoin="round"
   id="path2426" /><path
   d="m 60.856504,113.28823 c -2.924066,0.11995 -5.880803,-0.0121 -8.735128,-0.24412"
   stroke="#000000"
   stroke-opacity="0.9"
   stroke-width="9.64442"
   stroke-linecap="round"
   stroke-linejoin="round"
   id="path2428" /><path
   d="m 60.632814,138.27149 c -1.972223,1.11574 -5.896716,2.02653 -7.097567,2.43943"
   stroke="#000000"
   stroke-opacity="0.9"
   stroke-width="9.64442"
   stroke-linecap="round"
   stroke-linejoin="round"
   id="path2430" /><path
   d="m 72.750118,159.61639 c -0.956726,1.83726 -3.127142,3.42557 -4.367775,4.63534"
   stroke="#000000"
   stroke-opacity="0.9"
   stroke-width="9.64442"
   stroke-linecap="round"
   stroke-linejoin="round"
   id="path2432" /><path
   d="m 178.66027,148.87552 c 0.21037,-0.72634 0.36468,-1.46414 0.54611,-2.19591"
   stroke="#000000"
   stroke-opacity="0.9"
   stroke-width="9.64442"
   stroke-linecap="round"
   stroke-linejoin="round"
   id="path2434" /><path
   d="m 160.98688,182.90343 c -3.13504,-1.01206 -7.18087,0 -12.01815,-9.0561"
   stroke="#000000"
   stroke-opacity="0.9"
   stroke-width="9.64442"
   stroke-linecap="round"
   stroke-linejoin="round"
   id="path2436" /><path
   d="m 95.949157,180.9631 c -2.830636,-0.11574 -7.773399,0 -10.604035,-1.77458"
   stroke="#000000"
   stroke-opacity="0.9"
   stroke-width="9.64442"
   stroke-linecap="round"
   stroke-linejoin="round"
   id="path2438" /></svg>
