<?xml version="1.0" encoding="UTF-8" standalone="no"?>
<svg
   width="131"
   height="131"
   fill="none"
   version="1.1"
   id="svg8"
   sodipodi:docname="logo-reverse.svg"
   inkscape:version="1.1.2 (0a00cf5339, 2022-02-04)"
   xmlns:inkscape="http://www.inkscape.org/namespaces/inkscape"
   xmlns:sodipodi="http://sodipodi.sourceforge.net/DTD/sodipodi-0.dtd"
   xmlns="http://www.w3.org/2000/svg"
   xmlns:svg="http://www.w3.org/2000/svg">
  <defs
     id="defs12" />
  <sodipodi:namedview
     id="namedview10"
     pagecolor="#ffffff"
     bordercolor="#666666"
     borderopacity="1.0"
     inkscape:pageshadow="2"
     inkscape:pageopacity="0.0"
     inkscape:pagecheckerboard="0"
     showgrid="false"
     inkscape:zoom="3.0551331"
     inkscape:cx="63.499688"
     inkscape:cy="65.299937"
     inkscape:window-width="1482"
     inkscape:window-height="800"
     inkscape:window-x="0"
     inkscape:window-y="0"
     inkscape:window-maximized="1"
     inkscape:current-layer="svg8" />
  <path
     d="m 18.397067,90.161142 h 17.032 l -17.032,-17.01 z m 21.29,-38.27 -21.29,-21.262 v 17.008 l 21.29,21.263 v -17.01 z m -21.29,0 v 17.009 l 21.29,21.26 v -17.007 z m 42.58,0 -21.29,-21.262 v 17.008 l 21.29,21.262 v -17.01 z m -21.29,38.27 h 17.03 l -17.03,-17.01 z m 0,-38.27 v 17.009 l 21.29,21.26 v -17.007 z"
     fill="#000"
     id="path6"
     style="fill:#f9f9f9;fill-opacity:1" />
  <path
     d="m 39.687067,90.161144 h 17.032 l -17.032,-17.010002 z m 21.29,-38.270002 -21.29,-21.262 v 17.008 l 21.29,21.263 v -17.01 z m -21.29,0 v 17.009 l 21.29,21.260002 V 73.153142 Z m 42.58,0 -21.29,-21.262 v 17.008 l 21.29,21.262 v -17.01 z m -21.29,38.270002 h 17.03 l -17.03,-17.010002 z m 0,-38.270002 v 17.009 l 21.29,21.260002 V 73.153142 Z"
     fill="#000"
     id="path6-6"
     style="fill:#f9f9f9;fill-opacity:1" />
  <path
     style="fill:#f9f9f9;fill-opacity:1"
     d="m 82.267067,51.889142 v 17.009 l 21.290003,21.26 v -17.007 z"
     id="path2923" />
  <path
     style="fill:#f9f9f9;fill-opacity:1"
     d="m 82.267067,90.159142 h 17.030001 l -17.030001,-17.01 z"
     id="path2921" />
  <path
     style="fill:#f9f9f9;fill-opacity:1"
     d="m 60.977067,51.889142 v 17.009 l 21.29,21.26 v -17.007 z"
     id="path2917" />
  <path
     style="fill:#f9f9f9;fill-opacity:1"
     d="m 82.267067,51.889142 -21.29,-21.261999 v 17.007999 l 21.29,21.263 v -17.01 z"
     id="path2915" />
  <path
     style="fill:#f9f9f9;fill-opacity:1"
     d="m 60.977067,90.159142 h 17.032 l -17.032,-17.01 z"
     id="path6-8" />
  <path
     fill-rule="evenodd"
     clip-rule="evenodd"
     d="m 111.275,78.609528 a 16.457,16.457 0 0 0 11.629,4.81 v 6.803 H 87.594005 V 54.961527 L 111.275,78.610528 Z m -10.056,1.408 a 3.404,3.404 0 0 1 -3.405994,3.402 3.404,3.404 0 0 1 -3.406001,-3.402 3.404,3.404 0 0 1 3.406001,-3.402 3.404,3.404 0 0 1 3.405994,3.402 z"
     fill="#000000"
     id="path4"
     style="fill:#f9f9f9;fill-opacity:1" />
  <circle
     style="fill:#550000;fill-opacity:1;stroke-width:1.15998"
     id="path2820"
     cx="98.1623"
     cy="80.277916"
     r="4.0774765" />
</svg>
