<?xml version="1.0" encoding="UTF-8" standalone="no"?>
<svg
   id="Layer_2"
   viewBox="0 0 245.7709455 60.0000321"
   version="1.1"
   sodipodi:docname="plausible_logo2.svg"
   inkscape:version="1.1.2 (0a00cf5339, 2022-02-04)"
   xmlns:inkscape="http://www.inkscape.org/namespaces/inkscape"
   xmlns:sodipodi="http://sodipodi.sourceforge.net/DTD/sodipodi-0.dtd"
   xmlns:xlink="http://www.w3.org/1999/xlink"
   xmlns="http://www.w3.org/2000/svg"
   xmlns:svg="http://www.w3.org/2000/svg">
  <sodipodi:namedview
     id="namedview21"
     pagecolor="#ffffff"
     bordercolor="#666666"
     borderopacity="1.0"
     inkscape:pageshadow="2"
     inkscape:pageopacity="0.0"
     inkscape:pagecheckerboard="0"
     showgrid="false"
     inkscape:zoom="3.6567899"
     inkscape:cx="142.06449"
     inkscape:cy="49.086769"
     inkscape:window-width="1482"
     inkscape:window-height="800"
     inkscape:window-x="0"
     inkscape:window-y="0"
     inkscape:window-maximized="1"
     inkscape:current-layer="Layer_2" />
  <defs
     id="defs10">
    <style
       id="style2">.cls-1{fill:url(#New_Gradient_Swatch_1);}.cls-1,.cls-2,.cls-3{stroke-width:0px;}.cls-2{fill:url(#New_Gradient_Swatch_1-2);}.cls-3{fill:#1f2961;}</style>
    <linearGradient
       id="New_Gradient_Swatch_1"
       x1="14.8413403"
       y1="22.5436904"
       x2="27.4731407"
       y2="44.6493411"
       gradientUnits="userSpaceOnUse">
      <stop
         offset="0"
         stop-color="#909cf7"
         id="stop4" />
      <stop
         offset="1"
         stop-color="#4b38d8"
         id="stop6" />
    </linearGradient>
    <linearGradient
       id="New_Gradient_Swatch_1-2"
       x1="7.9837957"
       y1="-1.3582919"
       x2="21.0009873"
       y2="21.4217935"
       xlink:href="#New_Gradient_Swatch_1" />
    <linearGradient
       x1="31.403807"
       y1="157.60138"
       x2="117.32628"
       y2="-28.704191"
       id="linearGradient-1"
       gradientTransform="scale(0.99992651,1.0000735)"
       gradientUnits="userSpaceOnUse">
      <stop
         stop-color="#AE68FF"
         offset="0%"
         id="stop4-1" />
      <stop
         stop-color="#7991FF"
         offset="100%"
         id="stop6-7" />
    </linearGradient>
  </defs>
  <text
     xml:space="preserve"
     style="font-style:normal;font-variant:normal;font-weight:500;font-stretch:normal;font-size:30.5535px;line-height:1.25;font-family:Roboto;-inkscape-font-specification:'Roboto, Medium';font-variant-ligatures:normal;font-variant-caps:normal;font-variant-numeric:normal;font-variant-east-asian:normal;fill:#00ffff;fill-opacity:1;stroke:none;stroke-width:0.763837"
     x="69.67025"
     y="41.04221"
     id="text23498"><tspan
       sodipodi:role="line"
       id="tspan23496"
       x="69.67025"
       y="41.04221"
       style="font-style:normal;font-variant:normal;font-weight:500;font-stretch:normal;font-size:30.5535px;font-family:Roboto;-inkscape-font-specification:'Roboto, Medium';font-variant-ligatures:normal;font-variant-caps:normal;font-variant-numeric:normal;font-variant-east-asian:normal;fill:#00ffff;stroke-width:0.763837">Robotdazero</tspan></text>
  <g
     id="E-commerce-icons"
     stroke="none"
     stroke-width="1"
     fill="none"
     fill-rule="evenodd"
     transform="matrix(0.46569889,0,0,0.46569889,3.8703192,0.03114297)">
    <g
       transform="translate(-164,-412)"
       id="Filter">
      <g
         transform="translate(164,412)"
         id="g14">
        <rect
           id="Rectangle"
           fill-opacity="0"
           fill="#ffffff"
           x="0"
           y="0"
           width="128"
           height="128" />
        <path
           d="M 37.333333,10.666667 V 27.33876 c 9.201212,2.368228 16,10.720763 16,20.66124 0,9.940477 -6.798788,18.293012 -16,20.66124 v 48.67209 H 26.666667 V 68.66124 c -9.201212,-2.368228 -16,-10.720763 -16,-20.66124 0,-9.940477 6.798788,-18.293012 16,-20.66124 V 10.666667 Z m 63.999997,-0.01568 V 59.32308 c 9.20121,2.368228 16,10.720763 16,20.66124 0,9.940477 -6.79879,18.293012 -16,20.66124 v 16.6721 H 90.666667 v -16.6721 c -9.201212,-2.368228 -16,-10.720763 -16,-20.66124 0,-9.940477 6.798788,-18.293012 16,-20.66124 V 10.650989 Z M 96,69.317655 c -5.891037,0 -10.666667,4.77563 -10.666667,10.666667 0,5.891037 4.77563,10.666667 10.666667,10.666667 5.89104,0 10.66667,-4.77563 10.66667,-10.666667 0,-5.891037 -4.77563,-10.666667 -10.66667,-10.666667 z M 32,37.333333 c -5.891037,0 -10.666667,4.77563 -10.666667,10.666667 0,5.891037 4.77563,10.666667 10.666667,10.666667 5.891037,0 10.666667,-4.77563 10.666667,-10.666667 0,-5.891037 -4.77563,-10.666667 -10.666667,-10.666667 z"
           fill="url(#linearGradient-1)"
           id="path12"
           style="fill:url(#linearGradient-1)" />
      </g>
    </g>
  </g>
</svg>
