<svg xmlns="http://www.w3.org/2000/svg" viewBox="0 0 500 500"><g id="freepik--background-complete--inject-105"><path d="M421.76,195.16a31.7,31.7,0,0,0-1,13.83c1.44,9.69,8.73,17.36,10.31,26.9-.19,1.14-.43,2.3-.74,3.45a.14.14,0,0,1,0,.06v0h0a.17.17,0,0,0,.09.11l.18-.39c.12-.24.22-.48.32-.72s.28-.68.41-1c0,0,.08-.16.08-.21,3.55-9.79.29-20.66-1.36-30.61-.95-5.68-.55-11.42-1.4-17.08-.21-1.35-.19-3.91-2.14-3.4C424.34,186.71,422.31,193.34,421.76,195.16Z" style="fill:#ebebeb"></path><path d="M423.19,203.52c-.62,11.79,10.25,22.09,7.73,33.87-.08.33-.16.65-.25,1s-.13.46-.2.68h0c0,.09-.06.18-.1.28a.14.14,0,0,1,0,.06v0h0a.17.17,0,0,0,.09.11h0a.1.1,0,0,0,.1-.07q.19-.52.36-1.05a15.36,15.36,0,0,0,.6-2.61s0,0,0,0a37.71,37.71,0,0,0-.23-15.78c-1.35-6.68-3.05-13.17-4.27-19.93-.15-.84-.16-4.13-1.5-3.69C423.84,197,423.26,202.16,423.19,203.52Zm.58-1.75c.11-.67,1-5.1,2.06-4.63.66.27.74,3.62.84,4.1l1.17,5.46c.84,3.83,1.7,7.65,2.53,11.48a50.64,50.64,0,0,1,1.31,14.18C431.07,222,422.05,212.47,423.77,201.77Z" style="fill:#fff"></path><path d="M418.94,308.32c0,.15.12.37.34.24,8.92-5.75,20.06-1.07,29.3-6.2a47.75,47.75,0,0,0,9.93-7.93,37.83,37.83,0,0,0,6.05-7.2c.21-.35,1.35-1.81,1.17-2.54-1.42-5.5-15.72,3.81-18.12,5.12-9.35,5.11-17.91,9.76-26.1,16.3q-1.29,1-2.55,2.1S418.93,308.27,418.94,308.32Z" style="fill:#ebebeb"></path><path d="M418.94,308.32l1-.61c6.14-2.95,13-4,19.57-5.67a36.67,36.67,0,0,0,17.3-9.32c.87-.85,4.5-4.12,3.42-5.76-1-1.48-4.61,1.37-5.5,1.87-6.64,3.72-13.14,7.5-20.06,10.71-4.43,2-8.92,4.09-13.13,6.57q-1.29,1-2.55,2.1S418.93,308.27,418.94,308.32Zm4.16-2.49c4.89-2.73,10-5,15.1-7.42,3.5-1.65,6.91-3.44,10.26-5.38,1.82-1.06,3.64-2.15,5.49-3.2.92-.52,1.85-1,2.78-1.54.46-.25,2-1.14,2.38-.43,1.06,1.92-9.2,11.65-21.92,14.17A79.61,79.61,0,0,0,423.1,305.83Z" style="fill:#fff"></path><path d="M433.79,291.41a.08.08,0,0,0,0,.12.1.1,0,0,0,.14,0l.55-.54c.68-.66,1.33-1.34,2-2,.12-.13.24-.25.35-.38l.1,0c7.14-7.3,17.94-9.52,24-18A41.15,41.15,0,0,0,466.65,258c.56-1.91,3.31-7.74.9-9.26-1.88-1.18-4.81,1.38-6,2.47-3.89,3.44-6.64,8.27-9.34,12.64s-5.07,8.69-7.59,13a84.86,84.86,0,0,1-8,11.16Z" style="fill:#ebebeb"></path><path d="M433.79,291.41a.08.08,0,0,0,0,.12c.59-.61,1.17-1.22,1.76-1.82L434.49,291c.68-.66,1.33-1.34,2-2l.95-1.09A113.52,113.52,0,0,1,450.55,277a24,24,0,0,0,5.92-5.88c3-4.28,7.63-14.37,6.73-15.89s-2.75,1.69-3.27,2.39c-4.15,5.66-7.53,11.82-12,17.26-3,3.67-6.05,7.3-9.09,10.93-.76.74-1.52,1.5-2.24,2.28Zm28.73-35.84c.79.32-.41,3-.72,3.75a112.15,112.15,0,0,1-5,10.21c-2,3.48-4.78,5.78-8,8a83.86,83.86,0,0,0-7.71,6.13c3-3.42,6-6.87,8.79-10.45,2.31-3,4.33-6.17,6.37-9.33,1-1.59,2-3.16,3.12-4.7.3-.42,2.46-4,3.16-3.65" style="fill:#fff"></path><path d="M380.63,336.42a.07.07,0,0,0,.07.08.08.08,0,0,0,.09-.07c0-.23.09-.45.14-.68.16-.83.3-1.66.42-2.48,0-.16,0-.3.07-.46a.16.16,0,0,0,.05-.08c1.57-9,8.4-16.05,8.62-25.34A36.63,36.63,0,0,0,388,295.27c-.55-1.69-1.47-7.37-4-7.27-2,.08-2.84,3.44-3.19,4.86-1.12,4.49-.71,9.43-.5,14s.65,8.95,1,13.42a75.65,75.65,0,0,1-.25,12.24C380.89,333.81,380.76,335.11,380.63,336.42Z" style="fill:#ebebeb"></path><path d="M380.63,336.42a.07.07,0,0,0,.07.08c.12-.75.24-1.49.37-2.23-.05.49-.1,1-.14,1.48.16-.83.3-1.66.42-2.48l.15-1.28a102.73,102.73,0,0,1,4.18-14.65,21.66,21.66,0,0,0,1.4-7.31c0-4.66-1.64-14.42-3.06-15.09s-1.18,2.63-1.21,3.41c-.2,6.26.42,12.49-.11,18.75-.37,4.21-.78,8.41-1.18,12.62-.19.93-.37,1.87-.51,2.81C380.89,333.81,380.76,335.11,380.63,336.42Zm1.47-9.35c.5-4,1-8.08,1.21-12.13.19-3.36.07-6.72,0-10.08-.05-1.68-.09-3.35-.07-5,0-.46-.19-4.14.48-4.28s1.23,2.44,1.36,3.12a100.1,100.1,0,0,1,1.46,10.05c.31,3.55-.6,6.66-1.83,9.95A76.54,76.54,0,0,0,382.1,327.07Z" style="fill:#fff"></path><path d="M379.59,343.85a1.33,1.33,0,0,0,.7-.24c9.13-3.49,19.12-3.65,28.29-7.14a26.69,26.69,0,0,0,10.67-7c1.22-1.39,5.47-6.17,4.53-8.39C421,314.37,390.17,335.41,380,343a2,2,0,0,0-.46.31C379.26,343.57,379.31,343.83,379.59,343.85Z" style="fill:#ebebeb"></path><path d="M379.59,343.85l2.05-1.12c2.21-.89,4.45-1.73,6.73-2.45,3.62-1.14,7.34-1.82,11-2.75a35,35,0,0,0,15.4-8.22c.94-.87,3.76-3.19,3.14-4.82s-2.86,0-3.68.36c-11.58,5.54-22.85,11.89-34.09,18.14-.21.09-.4.19-.59.29C379.26,343.57,379.31,343.83,379.59,343.85Zm5.38-2.94q6.6-3.6,13.22-7.13,5.18-2.77,10.39-5.5c1.71-.9,3.41-1.82,5.15-2.69.68-.34,3.32-1.69,3.57-.73s-1.58,2.73-1.91,3.07c-5.21,5.35-11.89,8.11-19,9.7A83.73,83.73,0,0,0,385,340.91Z" style="fill:#fff"></path><path d="M423.34,266.69a.41.41,0,0,0,0,.35.45.45,0,0,0,.4.28.51.51,0,0,0,.27,0,.23.23,0,0,0,.15-.05c4.31-4.22,10.9-8.15,15.33-12.2A46.8,46.8,0,0,0,448,244.27a63.73,63.73,0,0,0,6.31-14c.7-2.33,2.71-7.86.81-10.15-3.9-4.73-11.78,12.47-12.91,14.39C435.89,245.19,429.56,255.91,423.34,266.69Z" style="fill:#ebebeb"></path><path d="M423.3,267a.45.45,0,0,0,.4.28c.25-.36.5-.73.76-1.09,1.69-2,3.37-4,5.17-5.85,2.93-3.08,6.28-5.75,9.1-8.92,4.92-5.53,14.15-23.14,11.49-24.9-1.38-.91-3.09,2.71-3.59,3.57-2,3.39-3.53,7-5.56,10.38-2.12,3.55-4.45,7-6.77,10.37-3.58,5.26-7.18,10.49-10.7,15.79Zm3.54-4.26q4.77-7,9.48-14c2.18-3.23,4.32-6.48,6.26-9.86,1.08-1.89,2.05-3.84,3-5.79.48-.94.95-1.9,1.49-2.81s2.19-4.08,3-2.88S448.5,233.83,448,235c-.9,2-1.82,3.91-2.81,5.82a50.57,50.57,0,0,1-7.09,10.58c-2.85,3.15-6.18,5.82-9.06,8.94C428.27,261.16,427.54,262,426.84,262.78Z" style="fill:#fff"></path><path d="M371.64,275.27c7.94,8.62,20.73,11,25.4,26.12,0,.06.09.06.12,0a0,0,0,0,0,0-.06c-.29-1.52-.63-3-1-4.54a66,66,0,0,0-11-22.65,49.88,49.88,0,0,0-10.72-10.5c-2.09-1.48-6.61-5.25-9.22-4.67C359.61,260.25,370.2,273.7,371.64,275.27Z" style="fill:#ebebeb"></path><path d="M372.12,270c3.19,6.27,9.53,10.33,14.38,15.21a56.49,56.49,0,0,1,8.77,11.1c.66,1.69,1.28,3.4,1.89,5.14a0,0,0,0,0,0-.06c-.29-1.52-.63-3-1-4.54l-.14-.25a70.22,70.22,0,0,0-6.58-13.18,72.81,72.81,0,0,0-13.08-15.51c-.88-.78-3.76-4.2-5.25-3.33S371.67,269.09,372.12,270Zm-.54-4.86c1.09-.42,6.18,4.64,8.18,6.7a72.69,72.69,0,0,1,11.05,14.81,68,68,0,0,1,3.48,7.2,58.08,58.08,0,0,0-5.74-7.18c-4.37-4.69-9.84-8.44-13.81-13.47a20.64,20.64,0,0,1-2.62-4.28C371.85,268.27,370.59,265.47,371.58,265.1Z" style="fill:#fff"></path><path d="M381.48,228.23a53.87,53.87,0,0,0-.08,12.69,52.84,52.84,0,0,0,8.29,22.86c.08.12.15.25.24.37.07.4.14.81.24,1.2l.06.28,0,.05h0a.11.11,0,0,0,.18-.09c0-.49,0-1,0-1.49.16-10.2,2.05-20.2.68-30.43-.31-2.23-1.76-16.84-6.87-14.34C381.9,220.5,381.74,226.1,381.48,228.23Z" style="fill:#ebebeb"></path><path d="M383.52,230.28c-.35,6.3,1.3,13.05,2.59,19.18a144.75,144.75,0,0,0,3.58,14.32c.11.38.24.77.37,1.15,0,.14.07.28.11.42s.05.22.08.33h0a.11.11,0,0,0,.18-.09c0-.49,0-1,0-1.49s-.21-.74-.31-1.12a120.07,120.07,0,0,1-.63-16.77c0-3,0-6.07-.28-9.1a41.11,41.11,0,0,0-1.3-8.84c-.4-1.22-1.22-3.64-2.94-2.74C383.56,226.29,383.6,229,383.52,230.28Zm3.75-2.12c1.08,3.31,1.24,7.19,1.47,10.65.24,3.31.2,6.64.17,9.95a101.63,101.63,0,0,0,.25,10.61c-1.21-4.42-2.38-8.86-3.24-13.4-.68-3.56-1.27-7.13-1.68-10.72a26.68,26.68,0,0,1-.18-5.58,13,13,0,0,1,.27-2C384.77,225.66,386.79,226.67,387.27,228.16Z" style="fill:#fff"></path><path d="M444.17,201.71c0,.17-.06.33-.1.49a.3.3,0,0,0,.6.1l.21-.88h0c.06-.24.12-.47.17-.72.22-.39.45-.78.71-1.16,2.71-4.09,7.4-7.56,10.58-11.06a63.2,63.2,0,0,0,7.86-10.21,31.54,31.54,0,0,0,4.56-12.19c.15-1.17.7-4.13-.76-4.86-1.85-.94-4.67,2.61-5.67,3.54a52.43,52.43,0,0,0-8.83,11C448.54,183.76,446,192.54,444.17,201.71Z" style="fill:#ebebeb"></path><path d="M445,199.68a18.42,18.42,0,0,0-.83,2c0,.17-.06.33-.1.49a.3.3,0,0,0,.38.34,3.59,3.59,0,0,1,.12-.35c.1-.26.2-.52.31-.77h0c.28-.64.57-1.26.88-1.88a42.44,42.44,0,0,1,4-6.31c2.6-3.47,5.32-6.84,7.8-10.41,1.23-1.78,10.75-15.55,7-16.87-.7-.25-1.38.7-1.76,1.09a28.62,28.62,0,0,0-3.41,4.61c-2.39,3.72-4.64,7.55-6.76,11.44A123,123,0,0,0,445,199.68Zm6.8-14.22c1.82-3.44,3.75-6.82,5.76-10.15,1-1.62,2-3.26,3-4.83.53-.77,3.2-4.27,3.93-3.81,1.08.68-1.47,6.11-2.24,7.58-.89,1.67-1.86,3.3-2.86,4.89-2,3.22-4.29,6.29-6.59,9.32a105.42,105.42,0,0,0-6.38,8.6A124.1,124.1,0,0,1,451.8,185.46Z" style="fill:#fff"></path><path d="M411.47,249.61c0,.16.11.31.16.48a.31.31,0,0,0,.57-.22c-.08-.28-.17-.58-.26-.87h0c-.08-.23-.14-.46-.22-.7,0-.45,0-.9,0-1.36.29-4.9,2.61-10.25,3.61-14.87A64.13,64.13,0,0,0,417,219.27a31.6,31.6,0,0,0-2.17-12.83c-.46-1.08-1.47-3.92-3.1-3.82-2.07.12-2.73,4.61-3.13,5.91a52.86,52.86,0,0,0-2.14,13.91C406.25,231.89,408.46,240.76,411.47,249.61Z" style="fill:#ebebeb"></path><path d="M411.17,247.44a19.53,19.53,0,0,0,.3,2.17c0,.16.11.31.16.48a.3.3,0,0,0,.5.1c0-.12-.06-.24-.08-.36,0-.28-.08-.55-.11-.83h0c-.09-.68-.14-1.37-.19-2.06a42.73,42.73,0,0,1,.27-7.45c.51-4.3,1.17-8.59,1.52-12.91.17-2.17,1.5-18.85-2.4-18.11-.74.13-.85,1.29-1,1.82a28.7,28.7,0,0,0-.65,5.7c-.19,4.42-.21,8.86-.1,13.29A123,123,0,0,0,411.17,247.44Zm-1.25-15.71c-.16-3.89-.18-7.78-.12-11.67,0-1.89.06-3.8.2-5.7.07-.93.63-5.3,1.5-5.27,1.26,0,1.79,6,1.85,7.68.07,1.9,0,3.79,0,5.67-.14,3.8-.54,7.59-1,11.36-.42,3.34-1.1,7-1.2,10.64A123,123,0,0,1,409.92,231.73Z" style="fill:#fff"></path><path d="M389.19,256.47a238.12,238.12,0,0,0,5.38,26.2c1.81,6.68,3.63,13.46,3.89,20.41.31,8.31-2.09,17.53-6.31,25.5q3.66-4.08,7.24-8.28c4.85-5.7,9.69-11.56,13.13-18.25.35-.66.65-1.33,1-2a.29.29,0,0,1,0-.16A90.33,90.33,0,0,0,415.2,273a75.6,75.6,0,0,0-5.86-13.46c-2.44-4.43-4.78-8.73-6.07-13.66-.07-.28.32-.45.43-.16,2.48,6.51,7.59,12.84,10.59,19.59-.17-1.11-.35-2.22-.56-3.34-2-10.69-5.65-21.42-1.74-32.1.13-.36.64-.12.53.23-3.69,11.9,2.11,25,3.83,36.83,1.27,8.79,1.7,18.26-.43,27a141.62,141.62,0,0,0,3.92-14.78c6.72-30,14.5-59.8,29.08-87.06.14-.26.57-.08.43.2-14.92,29.57-20.84,61.71-28.61,93.58-.09.36-.19.72-.28,1.09a60.64,60.64,0,0,1,9.37-11.34c.18-.16.45.05.3.25-4.28,5.47-7.54,11.47-11.39,17.18a62.17,62.17,0,0,1-5.58,12.84,101.21,101.21,0,0,1-9.92,13.57c6.09-5.1,12.23-10.14,17.95-15.7A273.19,273.19,0,0,0,445.54,277c.11-.14.31,0,.21.17a227.56,227.56,0,0,1-24.23,28.9c-7.57,7.54-15.69,15.22-24.79,21-8.69,10-18,20.06-29,27.39a.48.48,0,0,1-.56-.78c2-1.79,4-3.62,5.94-5.46,1.9-4.24,4.53-8.13,6.22-12.52a69.13,69.13,0,0,0,4-15.95c.05-.4.64-.3.62.09-.46,7.47-2.13,16.66-6.12,23.79q4.17-4.14,8.18-8.39c7.15-10.91,11.8-23.87,10.24-36.92-.81-6.71-2.73-13.19-4.31-19.73a145.31,145.31,0,0,1-3.28-22.06A.25.25,0,0,1,389.19,256.47Z" style="fill:#ebebeb"></path><path d="M126,214.18c1.53,4.25,1.22,9.49,1,13.91a111.18,111.18,0,0,1-1.76,15.11c-.84,4.65-1.91,9.25-3.06,13.83l0,.12c-.07.31-.15.61-.23.91s-.09.74-.16,1.12a.22.22,0,0,1-.19.19.19.19,0,0,1-.24-.21c0-.2,0-.41.06-.61.75-8.59-4.21-16.43-4.51-24.93-.16-4.67,1-9.34,1.83-13.89.48-2.52.6-5.79,1.58-8.16.26-.63.32-1.31,1-1.65C123.5,208.9,125.45,212.7,126,214.18Z" style="fill:#ebebeb"></path><path d="M124,217.37c-1.35-1.11-2.14,2-2.41,2.81-1.76,5.67-2.75,12.42-1.74,18.29,1.1,6.45,2.27,12.91,1.79,19.44-.06.21-.12.43-.19.64s0,.41-.06.61a.19.19,0,0,0,.24.21l.06-.38c.19-.61.36-1.22.52-1.84l0-.12a122.66,122.66,0,0,0,2.25-13.39,85.84,85.84,0,0,0,1-18.94,43.5,43.5,0,0,0-.57-4.55C124.75,219.39,124.61,217.91,124,217.37Zm.76,3.82c.25,1.6.4,3.2.49,4.82a88.3,88.3,0,0,1-1,16.64,122,122,0,0,1-2.36,14.25,50.34,50.34,0,0,0-.48-11.16c-.39-2.79-1-5.53-1.38-8.32a31,31,0,0,1,.33-9.37,39.54,39.54,0,0,1,1.88-8.68c.22-.55.85-1.78,1.32-1.69C124.39,217.83,124.62,220.56,124.71,221.19Z" style="fill:#fff"></path><path d="M87.42,279.78s0,0,0,0" style="fill:#ebebeb"></path><path d="M121.8,339.1a.2.2,0,0,1,.1.25h0a.23.23,0,0,1-.17.17.28.28,0,0,1-.18,0c-5.26-2.66-10.28-6.88-16.36-7.19-4.77-.25-8.86.34-13.38-1.61a36.48,36.48,0,0,1-16.23-14.14c-.58-.93-2.46-3.25-2.19-4.44,1.23-5.59,17.8,4.35,20,5.69,9.75,5.93,19.67,12.6,27.8,20.65a.09.09,0,0,1,0,.09.17.17,0,0,1-.06.1Z" style="fill:#ebebeb"></path><path d="M121.8,339.1l-.64-.44a.17.17,0,0,0,.06-.1c-5.39-4.08-11.11-7.8-16.84-11.36a167.44,167.44,0,0,0-19.11-10.74c-.9-.41-4.67-2.67-5.46-1.21s3.13,4.81,4,5.56c4.92,4.39,11.33,6.41,17.53,8.23,4,1.18,8,2.31,11.59,4.53,3,1.87,5.83,4.08,8.84,6a.23.23,0,0,0,.17-.17c-1.54-1-3-2.05-4.51-3.11l4.51,3.1A.2.2,0,0,0,121.8,339.1Zm-13.58-8.3c-6-2.35-12.5-3.38-18.31-6.36a25.52,25.52,0,0,1-7.51-5.56c-.4-.45-2.37-2.42-1.92-3.2.29-.53,1.86-.05,2.09,0a47.8,47.8,0,0,1,5,2.24c5.68,2.89,11.2,6.17,16.61,9.53,3,1.87,6,3.81,8.87,5.8A29.09,29.09,0,0,0,108.22,330.8Z" style="fill:#fff"></path><path d="M97.83,223.48c.66,5-.36,10.3-1.73,15.15-3.19,11.21-9.34,21.63-11.29,33.2-.08.45-.15.91-.21,1.36.1.6,0,.46-.17-.25h0c-.85-3.08-3.77-16.64-2.43-26.37.84-6.07,2.93-11.81,5-17.54,1.2-3.26,2.37-6.54,3.59-9.79.4-1.05.95-4,2.53-4.26C96.21,214.52,97.57,221.51,97.83,223.48Z" style="fill:#ebebeb"></path><path d="M92.53,224.49a1,1,0,0,0-1.36.36,5,5,0,0,0-.66,2c-.31,1.2-.62,2.38-.92,3.57-2.13,8.21-5,16.6-5.78,25.07a70.44,70.44,0,0,0,.61,16.91c0,.19,0,.37,0,.56h0c.19.71.27.85.17.25.06-.45.13-.91.21-1.36,0-.63,0-1.26.06-1.9a51.8,51.8,0,0,1,2.87-12.74A129.22,129.22,0,0,0,93.53,233a25.25,25.25,0,0,0,.18-5.56C93.62,226.59,93.42,224.94,92.53,224.49Zm.74,2.65a10.24,10.24,0,0,1,.12,1.23,25.46,25.46,0,0,1-.06,2.62,63.15,63.15,0,0,1-.85,6.28A177.58,177.58,0,0,1,86.74,259a46.15,46.15,0,0,0-2.26,10.9,91.81,91.81,0,0,1-.47-9.36c0-8,2.26-15.58,4.24-23.27l1.47-5.71c.24-1,.48-1.9.73-2.85l.36-1.43c.24-1,.1-1.36,1.17-1.65C93.29,225.29,93.09,226,93.27,227.14Z" style="fill:#fff"></path><path d="M105.82,270.37a63.42,63.42,0,0,1,3.06,11.51c1.31,7.86.1,17,2.16,24.8.19.51.35,1,.5,1.56.06.2.1.39.15.59s-.14.16-.19.07c-.16-.34-.32-.67-.5-1v0l-.27-.52c-3.9-7.63-8.9-14.61-10.56-23.19-1-5.27-2.66-19.81.82-20.91C102.54,262.76,105,268.11,105.82,270.37Z" style="fill:#ebebeb"></path><path d="M102.65,271.14c-.83.39-.8,2-.85,2.7a33.88,33.88,0,0,0,.19,5.42,54.35,54.35,0,0,0,2,9.88,107.63,107.63,0,0,0,6.78,18.22l.27.52v0c.18.33.34.66.5,1,0,.09.22,0,.19-.07s-.09-.39-.15-.59c-2.57-6.72-3.64-13.79-4.54-20.95C106.81,285.69,105.51,269.78,102.65,271.14Zm2.6,6.45c.25,1.5.46,3,.66,4.52.47,3.51.87,7,1.38,10.56A80.49,80.49,0,0,0,109.68,304a133.11,133.11,0,0,1-4.77-13,72.72,72.72,0,0,1-2.16-8.85,37,37,0,0,1-.5-4.92c0-.79-.37-5.35.57-5.73C104,271.07,105.15,276.94,105.25,277.59Z" style="fill:#fff"></path><path d="M139.07,254.84c1.92,2.36,1,7.08,0,9.56a22.41,22.41,0,0,1-7.19,8.71c-4.33,3.43-9.17,6.07-12.82,10.3s-2.45,2.93-5,8.3c-.05.11-.15.11-.23,0a1,1,0,0,1-.16-.86.77.77,0,0,1,0-.15c2.33-8.82,6.87-15.78,12.87-22.67,3.41-3.91,5.47-8.86,9-12.62C136.87,254,137.75,253.21,139.07,254.84Z" style="fill:#ebebeb"></path><path d="M137,259.48c-1.3-.61-2.93,2-3.6,3a54.94,54.94,0,0,1-6.2,7.89,66.11,66.11,0,0,0-6.06,6.47,44.3,44.3,0,0,0-6.58,11.83,22.07,22.07,0,0,0-.94,2.22,1,1,0,0,0,.16.86l.09-.3a30.37,30.37,0,0,1,10.7-13.8c5-3.75,9.61-7.91,12.26-13.66C137.33,263,138.23,260.06,137,259.48Zm-.21,3.75a25.32,25.32,0,0,1-1.47,2.89,31.28,31.28,0,0,1-3.49,4.7,54.75,54.75,0,0,1-7.81,6.77,33.26,33.26,0,0,0-8.16,8.68,45.83,45.83,0,0,1,6.14-10c2.24-2.73,5-4.94,7.25-7.59,1.06-1.23,2-2.55,2.93-3.86.5-.72,1-1.44,1.5-2.14s1.86-2.89,2.81-2.7C137.74,260.17,137,262.84,136.82,263.23Z" style="fill:#fff"></path><path d="M58.17,232.55c7.81,8.82,15.07,18.09,22,27.62a.29.29,0,0,1,0,.36.15.15,0,0,1,0,.07l.13.18a.13.13,0,0,1,0,.18.05.05,0,0,1,0,0h0a.22.22,0,0,1-.13,0c-4.87-4.77-9.45-9.24-15.58-12.4-5.6-2.88-11.13-5.28-16-9.38-4.15-3.51-15.94-20.82-14-24.95C35.7,211.44,52,225.54,58.17,232.55Z" style="fill:#ebebeb"></path><path d="M48.5,226.66c-1-1-4-4.86-5.91-4.07s1.13,4.7,1.7,5.53a56.12,56.12,0,0,0,6.94,8.59C53.87,239.28,57,241,60,243c7.48,4.95,14.09,11.38,20.1,18h0a.05.05,0,0,0,0,0,.13.13,0,0,0,0-.18l-.13-.18a.15.15,0,0,0,0-.07C70.73,248.27,59.56,237.41,48.5,226.66Zm31,33.49A126.77,126.77,0,0,0,66.2,247.22c-5.5-4.61-12.15-7.58-16.91-13.05A43,43,0,0,1,43,225.51c-.2-.42-1-1.83-.46-2.39s1.81.12,3.49,1.66c1.4,1.28,2.72,2.64,4.07,4,5.32,5.2,10.62,10.43,15.73,15.84Q73,252.11,79.49,260.15Z" style="fill:#fff"></path><path d="M90.66,297.17a.21.21,0,0,1,0,.13.21.21,0,0,1-.26.13l-.74-.23-.07,0c-5.58-.72-10.12.22-15.49,1.6a24.7,24.7,0,0,1-12.08,0,41,41,0,0,1-12.18-5.51c-1.54-1-6.44-3.18-5.64-5.87,1.31-4.43,16.2,1.34,18.77,2.17a117.92,117.92,0,0,0,13.94,3.74c4.67.9,9.34,1.67,13.68,3.69A.16.16,0,0,1,90.66,297.17Z" style="fill:#ebebeb"></path><path d="M87.7,296.49s0,0,0,0c-2.7-.61-5.39-1.34-8.11-1.81-3-.54-6.16-.47-9.22-1-5.72-1-11.17-3.07-16.82-4.33-.74-.16-2.2-.45-1.81.81.16.55.95,1,1.37,1.28a26.44,26.44,0,0,0,4,2.34c4.72,2.25,10.19,3.89,15.46,3.66,6.11-.28,12-1.43,18.08-.13a.21.21,0,0,0,0-.13A18.93,18.93,0,0,0,87.7,296.49Zm-13.23.37a33.57,33.57,0,0,1-19.21-4.52,26.39,26.39,0,0,1-2.46-1.65c-.47-.39-1.15-1.23.64-1a12.65,12.65,0,0,1,1.25.3c1.47.37,2.92.78,4.37,1.19,3.1.88,6.19,1.81,9.34,2.47a56.24,56.24,0,0,0,8.48,1A69.52,69.52,0,0,1,87.1,296.4C82.93,295.89,78.63,296.53,74.47,296.86Z" style="fill:#fff"></path><path d="M74.57,285.07a.57.57,0,0,1,0,.26.31.31,0,0,1,0,.12.3.3,0,0,1-.1.14l0,0a.4.4,0,0,1-.4,0,17.78,17.78,0,0,1-2.38-1.08c-9.25-3.53-18.73-7.25-26.25-13.79A61,61,0,0,1,35.3,259.4c-1.42-2-5.32-6.36-4-9.23s3.82-1,5.55.15a130.76,130.76,0,0,1,13,9.78,72,72,0,0,1,10.84,11.77C64.39,277,68,282.39,74.26,284.74A.45.45,0,0,1,74.57,285.07Z" style="fill:#ebebeb"></path><path d="M57.48,272a156.29,156.29,0,0,0-16.91-15.31c-.76-.62-3-2.2-3.34-.42-.4,2.09,2.69,4.55,3.87,5.8A120.17,120.17,0,0,0,55.57,275.2a66.85,66.85,0,0,0,18.95,10.25.31.31,0,0,0,0-.12c-11.2-4.16-20.91-11.44-29.38-19.74-2-2-4.11-4-6-6.19-.3-.35-2-2.68-1.35-3.32s3,1.35,3.29,1.6q2,1.67,4,3.36a183.27,183.27,0,0,1,14.25,13.62,45.35,45.35,0,0,0,15.14,10.67.57.57,0,0,0,0-.26C67.78,282.08,62.54,277.38,57.48,272Z" style="fill:#fff"></path><path d="M57.56,188.86a45,45,0,0,1,7.3,13.86c2.26,7.81,2.13,16,3.25,24,0,0,0,.07,0,.1a53.26,53.26,0,0,0,1.27,6.45c.12.45.24.9.38,1.36a.3.3,0,0,1,0,.28.38.38,0,0,1-.18.09.31.31,0,0,1-.19,0h0a.33.33,0,0,1-.21-.22c-.23-.64-.43-1.28-.62-1.93a.15.15,0,0,1-.1-.09c-4.78-10-10.19-20.06-15.62-29.93a80.37,80.37,0,0,1-6.16-13.64c-.92-2.82-2-7.15,0-9.75a.63.63,0,0,1,.55-.3C51.71,179.87,55.09,185.48,57.56,188.86Z" style="fill:#ebebeb"></path><path d="M52.57,189.49c-2.16-.7-1.72,1.86-1.37,3.15A91,91,0,0,0,55,202.72q2.28,5.58,4.71,11.1c3.07,6.93,7.35,13.83,9.61,21.1,0,0,0,0,0,0h0a.31.31,0,0,0,.19,0,.38.38,0,0,0,.18-.09l-.33-1.64c-.43-2.15-.85-4.31-1.27-6.45,0,0,0-.06,0-.1-2-10.35-4.3-20.61-9.73-30.1C57.11,194.38,55.23,190.34,52.57,189.49Zm6.46,9a74.83,74.83,0,0,1,6.87,19c1.19,5.24,2,10.54,3.08,15.8-1.51-4.22-3.71-8.23-5.61-12.32q-4.47-9.61-8.43-19.45-1-2.35-1.87-4.74c-.55-1.41-1.71-3.6-1.72-5.13,0-3,2.48-1,3.29-.08a18,18,0,0,1,1.81,2.54C57.37,195.56,58.23,197,59,198.54Z" style="fill:#fff"></path><path d="M123.54,242.68a215.92,215.92,0,0,1-5.9,28.82c-2.43,8.68-5,17.37-6.13,26.33-1.56,11.9-.49,24.94,5.58,35.28a140.4,140.4,0,0,1-23.9-39.93c-9.77-24.55-18.62-49.78-30.49-73.42-.2-.4-.74-.09-.59.3C67,233,72.68,245.56,77.66,258.44s9.53,25.72,14.7,38.41c.56,1.38,1.14,2.73,1.74,4.08-7.58-9.39-18.68-16.31-29.59-20.32-.14-.05-.19.16-.06.22a76.93,76.93,0,0,1,21,14c5.43,5,9.56,10.8,13.93,16.67a118.21,118.21,0,0,0,41.25,43c.18.11.35-.17.18-.29a117.92,117.92,0,0,1-19.08-16c-9.75-12.91-10.21-30.14-7.3-45.8,1.52-8.21,3.69-16.28,5.64-24.39s4.13-16.81,3.92-25.33A.24.24,0,0,0,123.54,242.68Z" style="fill:#ebebeb"></path><path d="M226.67,70.18c9.71,0,173.13,1.07,183.41.75.73,0,1.13-1.11.4-1.47-6.48-3.21-13.82-2.57-20.55-4.83-4-1.34-6.39-3.93-9.14-6.89a18.93,18.93,0,0,0-8.5-5.56,18.06,18.06,0,0,0-9.26-.29c-3.32.8-6.2,2.69-9.36,3.89-7.85,3-15.48.15-21.08-5.66-4.63-4.79-9.17-9.31-15.46-11.89-5.26-2.16-11.1-2.61-16.37-.22-6,2.71-10.1,8.17-15.74,11.46-6.67,3.9-14.65,3-22,4.15s-13,7.39-19.5,11a13.88,13.88,0,0,1-7.05,2.18c-1.44,0-2.86-.43-4.29-.61-2.23-.27-4.34-.21-5.84,1.65C226,68.26,226,70.18,226.67,70.18Z" style="fill:#ebebeb"></path><path d="M351.57,108.76c5.68,0,101.11.63,107.11.44.43,0,.66-.65.23-.86-3.78-1.87-8.07-1.5-12-2.82-2.31-.78-3.73-2.29-5.33-4a11.19,11.19,0,0,0-5-3.24,10.52,10.52,0,0,0-5.4-.17c-1.94.47-3.62,1.57-5.47,2.27-4.58,1.73-9,.09-12.31-3.3-2.7-2.8-5.36-5.44-9-6.94a12,12,0,0,0-9.56-.14c-3.5,1.59-5.9,4.78-9.19,6.7-3.9,2.28-8.56,1.74-12.86,2.42s-7.61,4.32-11.39,6.4a8,8,0,0,1-4.12,1.28,23.51,23.51,0,0,1-2.5-.36c-1.3-.16-2.54-.12-3.41,1C351.16,107.64,351.2,108.76,351.57,108.76Z" style="fill:#ebebeb"></path><path d="M41.19,155.54c5.67,0,101.11.63,107.11.44.43,0,.66-.65.23-.86-3.78-1.87-8.07-1.5-12-2.82-2.31-.78-3.73-2.29-5.34-4a11.07,11.07,0,0,0-5-3.24,10.56,10.56,0,0,0-5.41-.17c-1.94.46-3.62,1.57-5.46,2.27-4.59,1.73-9,.09-12.32-3.31-2.7-2.79-5.35-5.43-9-6.94a12,12,0,0,0-9.56-.13c-3.5,1.59-5.9,4.78-9.19,6.7-3.9,2.27-8.56,1.73-12.87,2.42s-7.61,4.32-11.38,6.4a8.09,8.09,0,0,1-4.12,1.28,24.07,24.07,0,0,1-2.51-.36c-1.29-.16-2.53-.12-3.4,1C40.77,154.42,40.82,155.54,41.19,155.54Z" style="fill:#ebebeb"></path></g><g id="freepik--Shadow--inject-105"><ellipse cx="235.22" cy="398.3" rx="185.5" ry="42.47" style="fill:#ebebeb"></ellipse><ellipse cx="324.37" cy="439.48" rx="125.91" ry="27.28" style="fill:#ebebeb"></ellipse></g><g id="freepik--Table--inject-105"><path d="M469,354.54c-140.3.61-297.68.62-438,0,140.3-.61,297.68-.61,438,0Z" style="fill:#263238"></path></g><g id="freepik--Plants--inject-105"><path d="M442,324.32c-3.62-4.67-7.75-9.83-7.49-16,.23-5.73,2.15-12.08,7.42-15.13,1.5-.87,2.59-1.17,3.08.76.73,2.95-.52,6.53-1.16,9.39a60.14,60.14,0,0,0-1.52,11.19c-.08,2.65.11,5.3.1,7.95,0,.33,0,.67,0,1v.38a.67.67,0,0,0,.09.14.3.3,0,0,1,0,.27.21.21,0,0,1-.06.1A.31.31,0,0,1,442,324.32Z" style="fill:#FFC727"></path><path d="M442.47,324.33c-3-4.27-6.42-8.68-6-14.11a24,24,0,0,1,1.94-7.34c.45-1.06,1.76-4.22,3.14-4.29,2.49-.13-.84,9.89-1,11.06a25.42,25.42,0,0,0,1.87,12.79c0,.33,0,.67,0,1a28.49,28.49,0,0,1-2.34-8.92c-.37-4.28,1.07-7.84,1.85-12,.17-.89.86-3.7-.66-3.47-1,.14-2.31,3.22-2.59,3.88a24.07,24.07,0,0,0-1.86,7c-.52,5.47,2.85,9.93,5.73,14.3A.21.21,0,0,1,442.47,324.33Z" style="fill:#fff"></path><path d="M441,329.07l-.63.29h0a.15.15,0,0,1-.16,0,.26.26,0,0,1-.08-.33.24.24,0,0,1,.11-.08l.09,0,.21-.07v0l0-.05c2.56-3.13,5.62-5.84,8.15-9,2.42-3,4.63-6.23,7.28-9.08,1.67-1.79,10.48-10.18,12.36-5,.83,2.3-1,5.6-2.12,7.51a25,25,0,0,1-5.89,6.65C454.56,324.45,447.55,326.16,441,329.07Z" style="fill:#FFC727"></path><path d="M454.14,321.68a28.79,28.79,0,0,0,6.14-5.46c.62-.74,3.54-4.26,2.57-5.42-.61-.75-2.27.24-2.83.54-2.37,1.29-4.09,3.6-5.9,5.54a110.66,110.66,0,0,1-11.93,11c-.3.16-.62.32-.92.49l-.75.41-.26.14-.2.11a.25.25,0,0,0,.08.32c.2-.1.4-.2.59-.31-.14.12-.28.22-.43.33h0l.52-.24.12-.05.72-.54C445.89,326.34,450.22,324.36,454.14,321.68Zm-10.93,5.66q3.72-3,7.14-6.25c1.84-1.77,3.59-3.62,5.31-5.5a25.93,25.93,0,0,1,3.06-3c.87-.68,4.26-2.92,3.44.25-.6,2.3-3.55,4.87-5.26,6.33a42.13,42.13,0,0,1-6.16,4.25C448.28,324.78,445.73,326,443.21,327.34Z" style="fill:#fff"></path><path d="M429.66,341.12h0a1.44,1.44,0,0,1-.15-.16c-2.93-4.55-7.55-10.09-7.27-15.83.2-4.23,2.53-9.93,6.74-11.66,4.75-2,3.82,7,3.69,9.31A166.37,166.37,0,0,1,430,341.05s0,.08,0,.11v0C429.86,341.27,429.75,341.21,429.66,341.12Z" style="fill:#FFC727"></path><path d="M429.9,341.18c0-.36,0-.73-.07-1.1-.26-4.19-.35-8.39-.21-12.59,0-1.05.87-9.15-1.24-8.77-1.27.24-2,3.26-2.31,4.25a16.87,16.87,0,0,0-.58,5.47c.28,4.24,2.44,8.07,3.94,12a4.5,4.5,0,0,1,.22.55.49.49,0,0,0,0,.12h0C429.76,341.21,429.86,341.27,429.9,341.18Zm-3.75-10.47a16.89,16.89,0,0,1-.16-5.63c.17-1.23.92-5.72,2.5-5.8.83,0,.75.48.91,1.42a11.62,11.62,0,0,1,.13,1.31c.05,1.09,0,2.17-.08,3.25-.1,1.9-.15,3.78-.16,5.69,0,3.1.09,6.21.3,9.3C428.51,337,426.82,334,426.15,330.71Z" style="fill:#fff"></path><path d="M444.46,342.63a31.91,31.91,0,0,1-18.54,1.93.23.23,0,0,1-.1,0,.25.25,0,0,1-.08-.29.23.23,0,0,1,.27-.16c.12,0,.25,0,.38.06,6.49-3.56,13-7,19.41-10.71,1.51-.87,11.27-6.22,11.8-2.42.32,2.35-3.27,5.11-4.82,6.45A32.15,32.15,0,0,1,444.46,342.63Z" style="fill:#FFC727"></path><path d="M451.31,335.29c.39-.51.71-1.13,0-1.44-1.44-.59-6,2-7.25,2.68-5.34,2.73-10.79,4.92-16.33,7.14l-1.4.57h-.55a.23.23,0,0,0,.08.28l.14,0h.75a37.68,37.68,0,0,0,11.58-1.75,35.26,35.26,0,0,0,6.82-3C447.1,338.64,449.9,337.15,451.31,335.29ZM427,344.22h-.36a5.84,5.84,0,0,0,.59-.2,105.33,105.33,0,0,0,12.88-5.19c2.11-1,4.15-2.19,6.29-3.15.91-.4,3.44-1.64,4.28-1.25s-.06,1-.51,1.44-1,.79-1.33,1A37.21,37.21,0,0,1,427,344.22Z" style="fill:#fff"></path><path d="M413.59,354.54l-.63-.88,2.27-1.71c3-2.35,6.07-4.71,9-7.14,1.7-1.38,3.37-2.78,5-4.22a1.07,1.07,0,0,1,.16-.14l.4-.37q.21-.18.42-.39a46.37,46.37,0,0,0,9.28-11.25c.81-1.43,1.55-2.89,2.27-4.37.07-.14.13-.29.2-.43a.33.33,0,0,0,.05-.12c.08-.14.14-.29.21-.44l.15-.34c2.11-4.59,3.86-9.37,5.71-14,.52-1.34,1.06-2.68,1.6-4a1.33,1.33,0,0,1,.1-.24c0-.1.07-.2.11-.3,2.38-5.9,4.82-11.79,7-17.74.08-.23.4-.07.32.15-1.44,4-2.79,8-4.17,12-.18.53-.37,1.06-.55,1.6-.36,1.06-.72,2.11-1.09,3.17-.74,2.11-1.49,4.2-2.28,6.29A153.94,153.94,0,0,1,442,327.12c-.22.41-.44.82-.68,1.24-.14.26-.28.52-.43.76s-.33.59-.5.88c-3.07,5.17-7.17,9.17-11.69,12.9-.31.25-.63.52-1,.77l-.44.36-.23.19-.31.25h0l-.23.17-.83.66c-3,2.36-6.08,4.69-9.14,7C415.53,353,414.56,353.79,413.59,354.54Z" style="fill:#FFC727"></path><path d="M451.19,287.76c1.5-4.72,5.95-12.6,12-11.55a4.65,4.65,0,0,1,4,4.75c0,2.84-2,5.52-3.64,7.65-4.48,5.68-9.47,10.9-13.55,16.91,0,.06-.35.51-.43.65s-.27,0-.19-.15l.4-.59C449.74,299.61,449.41,293.36,451.19,287.76Z" style="fill:#FFC727"></path><path d="M450,305.56l.06-.13a49.92,49.92,0,0,1,2.56-5.25,98.27,98.27,0,0,1,6.77-10.1c.93-1.26,5.62-7.26,1.74-7.68-1.64-.17-3.31,1.22-4.43,2.24a18.45,18.45,0,0,0-4.24,5.85c-2.05,4.37-2.52,9.19-2.59,14,0,.22,0,.44,0,.65l-.09.2a.5.5,0,0,0-.05.13.12.12,0,0,0,0,.08.17.17,0,0,0,.22.13A.11.11,0,0,0,450,305.56Zm0-1.41a39.46,39.46,0,0,1,1.92-11.63,20.52,20.52,0,0,1,2.91-5.44,16.87,16.87,0,0,1,1.84-2,12.28,12.28,0,0,1,1.59-1.29c1.25-.84,2.94-1.3,3.59-.67.8.78.5,1.45-.11,2.78a10.65,10.65,0,0,1-.69,1.29,33.72,33.72,0,0,1-2.09,3c-1.21,1.63-2.41,3.26-3.55,4.94-.77,1.13-1.52,2.29-2.22,3.47a50.59,50.59,0,0,0-3.22,6.31Z" style="fill:#fff"></path><path d="M45.25,316.78c2.92,2.69,5.66,5.57,8.36,8.48,1.53,1.65,3,3.32,4.59,5,1.69,1.82,3.29,3.84,5.67,4.74h0a1.19,1.19,0,0,1,.29.18.08.08,0,0,1,0,0,.3.3,0,0,1-.37.37l-.16-.06H63.6a9.72,9.72,0,0,1-2.16-.5,51.69,51.69,0,0,1-5.78-1.72,49.28,49.28,0,0,1-11-5.52,41.29,41.29,0,0,1-8.25-7.3c-1.92-2.24-4.81-5.53-5.35-8.54-.49-2.73,3-2.19,4.66-1.71C39.42,311.3,42.48,314.23,45.25,316.78Z" style="fill:#FFC727"></path><path d="M36.39,314.78c-.84,1.17,2.33,4.72,3.67,6.31a40.09,40.09,0,0,0,7.15,6.62,51.76,51.76,0,0,0,15.71,7.57c.22.07.45.15.68.21h.07l.15.05a.29.29,0,0,0,.37-.36c-.45-.21-.88-.43-1.3-.66s-.77-.43-1.14-.66c-4.06-2.42-7.6-5.78-11.06-9C46.63,321.11,37.51,313.24,36.39,314.78Zm26,19.84c.57.31,1.14.6,1.71.86-.45-.15-.91-.29-1.36-.45a56.91,56.91,0,0,1-13.91-6.61,40.77,40.77,0,0,1-6.68-5.55,36.52,36.52,0,0,1-3-3.55c-.39-.52-2.94-3.63-2.27-4.24.47-.43,3.41,1.49,3.47,1.52.59.38,1.16.79,1.73,1.2,1.17.86,2.29,1.78,3.39,2.72,2.38,2,4.65,4.21,7,6.33A54.85,54.85,0,0,0,62.35,334.62Z" style="fill:#fff"></path><path d="M67.27,304.69c2.66,5.15,3.28,11.05,3.36,16.76,0,3.05-.06,6.11-.09,9.16a40.88,40.88,0,0,0,.28,8.17c0,.12.05.24.08.36a10.43,10.43,0,0,0,.72,2.17.16.16,0,0,1,0,.15l.13.2s0,.11-.07.07l-.2-.17v0a.15.15,0,0,1-.17-.1.19.19,0,0,1,0-.09l-.19-.17c-4.46-4.11-7-11.07-8.65-16.66s-2.48-11.55-1-17.25c.37-1.44,1-4.84,2.74-5.33C65.73,301.49,66.72,303.6,67.27,304.69Z" style="fill:#FFC727"></path><path d="M64.92,308c-1.75.29-1.38,5.09-1.32,6.26a60.59,60.59,0,0,0,1.6,10.54A54.94,54.94,0,0,0,71,341h0l.06.2.19.18a.2.2,0,0,0,0,.08.15.15,0,0,0,.17.1,2.61,2.61,0,0,1-.06-.27c-.2-.7-.36-1.41-.51-2.13,0-.12-.06-.24-.08-.36-1-5-1.19-10.08-1.56-15.15a56.21,56.21,0,0,0-1.59-10.49C67.44,312.27,66.39,307.78,64.92,308Zm1.58,2.54c2.39,5.54,2.32,12.12,2.72,18a61.94,61.94,0,0,0,1.66,11.87,58.1,58.1,0,0,1-5.08-14.72A76.59,76.59,0,0,1,64.21,317a30.9,30.9,0,0,1-.26-4.81,12.2,12.2,0,0,1,.36-2.87C64.91,307.59,66.08,309.62,66.5,310.57Z" style="fill:#fff"></path><path d="M81.11,349.12a.31.31,0,0,1,0,.31h.11a.09.09,0,0,1,.1.09.09.09,0,0,1-.08.1c-6.87,1.08-14.51,1.4-21.28-.45a27,27,0,0,1-8-3.62c-1.68-1.13-5.06-3.42-5.26-5.68-.38-4.57,11.71.17,13.52.89,3.32,1.31,6.52,2.89,9.81,4.27,3.6,1.5,7.3,2.73,11,4A.26.26,0,0,1,81.11,349.12Z" style="fill:#FFC727"></path><path d="M81.11,349.12,80,349a58.81,58.81,0,0,1-17.41-4.72,54,54,0,0,0-8.51-3.23c-.73-.18-3.42-1-3,.7.23.89,4.66,3.45,5.86,4a37,37,0,0,0,8.68,2.73,61,61,0,0,0,15.22,1.05l.44,0a.09.09,0,0,0-.1-.09h-.11A.32.32,0,0,0,81.11,349.12Zm-12.92-.53a43.55,43.55,0,0,1-8.77-2.15,31.23,31.23,0,0,1-3.3-1.46,19.54,19.54,0,0,1-2.42-1.44c-1.86-1.35-2.24-1.85-2.08-2.21s.49-.34,2-.09a15,15,0,0,1,2.85.82c1.31.5,2.6,1,3.89,1.6,2.57,1.11,5.14,2.26,7.78,3.17a45.54,45.54,0,0,0,11.77,2.46A70.94,70.94,0,0,1,68.19,348.59Z" style="fill:#fff"></path><path d="M80.4,329.37A17.34,17.34,0,0,1,84,335.85c1.57,4.68,2.12,9.62,3.35,14.4.19.71.39,1.42.61,2.12,0,.08.49.86.44.82l-.62-.64h0c-1.86-2-7.4-8-9.52-12a35.22,35.22,0,0,1-3.19-8c-.3-1.31-.86-4.3.45-5.32S79.51,328.43,80.4,329.37Z" style="fill:#FFC727"></path><path d="M77.58,330.53c-1.84.77,2,8.86,2.44,9.92a49.59,49.59,0,0,0,6.79,11c.3.39.61.76.92,1.13s.6.63.62.64-.41-.74-.44-.82-.08-.24-.11-.36c-.18-.59-.34-1.18-.49-1.76-1.21-3.19-2.36-6.42-3.64-9.59A46.73,46.73,0,0,0,80.45,334C80.16,333.54,78.38,330.19,77.58,330.53Zm1.51,1.67c4.12,5.91,5.61,13,8.33,19.58,0,.11.08.21.13.32l-.34-.43a56.61,56.61,0,0,1-5.75-9,52.89,52.89,0,0,1-2.59-6,26.37,26.37,0,0,1-1.15-3.38c-.11-.51-.36-1.91,0-2.09S78.81,331.82,79.09,332.2Z" style="fill:#fff"></path><path d="M44.72,283c6.48,10.83,3.18,24.71,8.92,35.85l0,.06.55,1a.23.23,0,0,1-.17.34.18.18,0,0,1-.17-.09c-.05-.08-.09-.16-.13-.24-5.14-4.78-9.31-11.26-12.36-17.53-2.66-5.46-4.41-11.58-3.51-17.68.22-1.5.57-4.5,2.38-5.06S43.92,281.62,44.72,283Z" style="fill:#FFC727"></path><path d="M42.49,286.93c-.76.25-.86,1.37-1,2a19.39,19.39,0,0,0-.09,4.63,31.76,31.76,0,0,0,2.35,9.17A65.92,65.92,0,0,0,51.46,317c.72,1,1.48,1.95,2.29,2.87l.3.33a.24.24,0,0,0,.18-.34c-.2-.32-.37-.64-.55-1l0-.1a38.28,38.28,0,0,1-3.28-6.75,92.2,92.2,0,0,1-2.89-11.33C47.14,299.22,45.1,286.07,42.49,286.93Zm1.71,2.21c1.32,2.83,1.74,6.05,2.42,9.07s1.33,6.12,2.06,9.17A43.77,43.77,0,0,0,51,314.46a33.89,33.89,0,0,0,2.93,5.48,47.35,47.35,0,0,1-3.57-5l0-.06a86.76,86.76,0,0,1-5.07-9.63l-.06-.12a39.73,39.73,0,0,1-3.09-9.06,22.48,22.48,0,0,1-.43-5.18c.09-2,.36-3.56,1-3.58C43.18,287.33,43.81,288.31,44.2,289.14Z" style="fill:#fff"></path><path d="M45.52,305.14c1.78,3.13,3.62,6.23,5.49,9.32q1.31,2.19,2.63,4.34l0,.1c.32.51.64,1.05,1,1.56,2.86,4.73,5.69,9.7,9.3,13.91a47.33,47.33,0,0,0,6.36,6L71,341h0c.14.09.26.2.4.29a1.84,1.84,0,0,0,.22.17c2,1.55,4.1,3,6.14,4.4,2.85,2,5.8,3.71,8.77,5.43a1.43,1.43,0,0,0,.27.15l.4.25.21.11.38.23c1,.55,1.91,1.1,2.86,1.67l-.61.86a68.58,68.58,0,0,1-9-4.89l-.17-.11c-.29-.17-.58-.35-.85-.54s-.69-.43-1-.67c-.82-.54-1.64-1.09-2.44-1.64-4.65-3.2-9.39-6.67-13.17-10.9l-.31-.36a.64.64,0,0,1-.13-.15,2.62,2.62,0,0,1-.22-.25l-.35-.41-.6-.76-.17-.22a110.55,110.55,0,0,1-8-12.9c-.46-.8-.9-1.59-1.34-2.39L51.46,317c-.36-.67-.72-1.36-1.09-2l0-.06c-1.7-3.21-3.35-6.44-5.07-9.63C45.19,305.13,45.44,305,45.52,305.14Z" style="fill:#FFC727"></path></g><g id="freepik--Rudder--inject-105"><rect x="191.48" y="82.82" width="14.83" height="90.31" transform="translate(-0.98 1.54) rotate(-0.44)" style="fill:#FFC727"></rect><rect x="191.48" y="82.82" width="14.83" height="90.31" transform="translate(-0.98 1.54) rotate(-0.44)" style="opacity:0.6000000000000001"></rect><rect x="180.73" y="60.29" width="35.39" height="13.45" transform="translate(-0.51 1.53) rotate(-0.44)" style="fill:#FFC727"></rect><rect x="180.73" y="60.29" width="35.39" height="13.45" transform="translate(-0.51 1.53) rotate(-0.44)" style="opacity:0.6000000000000001"></rect><rect x="180.76" y="68.19" width="35.39" height="5.55" transform="translate(-0.54 1.53) rotate(-0.44)" style="opacity:0.1"></rect><path d="M198.14,30.36h0c-8.27.07-14.77,6.14-14.17,13.25l1.41,16.78,26-.2,1.16-16.8C213,36.27,206.41,30.3,198.14,30.36Z" style="fill:#FFC727"></path><path d="M198.14,30.36h0c-8.27.07-14.77,6.14-14.17,13.25l1.41,16.78,26-.2,1.16-16.8C213,36.27,206.41,30.3,198.14,30.36Z" style="opacity:0.6000000000000001"></path><polygon points="185.38 60.39 185.09 56.96 211.81 53.7 211.36 60.19 185.38 60.39" style="opacity:0.1"></polygon><rect x="146.38" y="101.91" width="14.83" height="90.31" transform="translate(-58.9 153.46) rotate(-45.44)" style="fill:#FFC727"></rect><rect x="146.38" y="101.91" width="14.83" height="90.31" transform="translate(-58.9 153.46) rotate(-45.44)" style="opacity:0.6000000000000001"></rect><rect x="92.66" y="97.57" width="35.39" height="13.45" transform="translate(-41.38 109.75) rotate(-45.44)" style="fill:#FFC727"></rect><rect x="92.66" y="97.57" width="35.39" height="13.45" transform="translate(-41.38 109.75) rotate(-45.44)" style="opacity:0.6000000000000001"></rect><rect x="95.47" y="104.29" width="35.39" height="5.55" transform="translate(-42.52 112.58) rotate(-45.44)" style="opacity:0.1"></rect><path d="M84.24,78.57h0c-5.8,5.9-6.1,14.79-.66,19.39l12.87,10.87,18.23-18.52L103.62,77.62C98.93,72.24,90,72.68,84.24,78.57Z" style="fill:#FFC727"></path><path d="M84.24,78.57h0c-5.8,5.9-6.1,14.79-.66,19.39l12.87,10.87,18.23-18.52L103.62,77.62C98.93,72.24,90,72.68,84.24,78.57Z" style="opacity:0.6000000000000001"></path><polygon points="96.45 108.83 93.82 106.61 110.41 85.41 114.68 90.31 96.45 108.83" style="opacity:0.1"></polygon><rect x="127.99" y="147.29" width="14.83" height="90.31" transform="translate(-56 329.33) rotate(-90.44)" style="fill:#FFC727"></rect><rect x="127.99" y="147.29" width="14.83" height="90.31" transform="translate(-56 329.33) rotate(-90.44)" style="opacity:0.6000000000000001"></rect><rect x="56.74" y="186.2" width="35.39" height="13.45" transform="translate(-117.9 268.84) rotate(-90.44)" style="fill:#FFC727"></rect><rect x="56.74" y="186.2" width="35.39" height="13.45" transform="translate(-117.9 268.84) rotate(-90.44)" style="opacity:0.6000000000000001"></rect><rect x="60.69" y="190.12" width="35.39" height="5.55" transform="translate(-113.89 272.76) rotate(-90.44)" style="opacity:0.1"></rect><path d="M37.79,193.2h0c.06,8.27,6.14,14.77,13.25,14.18L67.82,206l-.2-26-16.8-1.15C43.7,178.34,37.73,184.93,37.79,193.2Z" style="fill:#FFC727"></path><path d="M37.79,193.2h0c.06,8.27,6.14,14.77,13.25,14.18L67.82,206l-.2-26-16.8-1.15C43.7,178.34,37.73,184.93,37.79,193.2Z" style="opacity:0.6000000000000001"></path><polygon points="67.82 205.97 64.39 206.25 61.13 179.53 67.62 179.98 67.82 205.97" style="opacity:0.1"></polygon><rect x="147.08" y="192.39" width="14.83" height="90.31" transform="translate(97.9 515.21) rotate(-135.44)" style="fill:#FFC727"></rect><rect x="147.08" y="192.39" width="14.83" height="90.31" transform="translate(97.9 515.21) rotate(-135.44)" style="opacity:0.6000000000000001"></rect><rect x="94.02" y="274.26" width="35.39" height="13.45" transform="translate(-5.84 559.58) rotate(-135.44)" style="fill:#FFC727"></rect><rect x="94.02" y="274.26" width="35.39" height="13.45" transform="translate(-5.84 559.58) rotate(-135.44)" style="opacity:0.6000000000000001"></rect><rect x="96.79" y="275.4" width="35.39" height="5.55" transform="translate(0.88 556.71) rotate(-135.44)" style="opacity:0.1"></rect><path d="M86,307.1h0c5.89,5.8,14.79,6.1,19.39.66l10.87-12.87L97.74,276.66,85.05,287.73C79.67,292.41,80.11,301.3,86,307.1Z" style="fill:#FFC727"></path><path d="M86,307.1h0c5.89,5.8,14.79,6.1,19.39.66l10.87-12.87L97.74,276.66,85.05,287.73C79.67,292.41,80.11,301.3,86,307.1Z" style="opacity:0.6000000000000001"></path><polygon points="116.26 294.89 114.04 297.52 92.83 280.94 97.74 276.66 116.26 294.89" style="opacity:0.1"></polygon><rect x="192.46" y="210.78" width="14.83" height="90.31" transform="translate(401.72 510.33) rotate(179.56)" style="fill:#FFC727"></rect><rect x="192.46" y="210.78" width="14.83" height="90.31" transform="translate(401.72 510.33) rotate(179.56)" style="opacity:0.6000000000000001"></rect><rect x="182.65" y="310.18" width="35.39" height="13.45" transform="translate(403.13 632.25) rotate(179.56)" style="fill:#FFC727"></rect><rect x="182.65" y="310.18" width="35.39" height="13.45" transform="translate(403.13 632.25) rotate(179.56)" style="opacity:0.6000000000000001"></rect><rect x="182.62" y="310.18" width="35.39" height="5.55" transform="translate(403.04 624.35) rotate(179.56)" style="opacity:0.1"></rect><path d="M200.63,353.55h0c8.27-.06,14.77-6.14,14.17-13.24l-1.41-16.79-26,.2-1.15,16.81C185.77,347.64,192.36,353.62,200.63,353.55Z" style="fill:#FFC727"></path><path d="M200.63,353.55h0c8.27-.06,14.77-6.14,14.17-13.24l-1.41-16.79-26,.2-1.15,16.81C185.77,347.64,192.36,353.62,200.63,353.55Z" style="opacity:0.6000000000000001"></path><polygon points="213.39 323.52 213.68 326.95 186.96 330.22 187.4 323.73 213.39 323.52" style="opacity:0.1"></polygon><rect x="237.56" y="191.7" width="14.83" height="90.31" transform="translate(585.62 228.48) rotate(134.56)" style="fill:#FFC727"></rect><rect x="237.56" y="191.7" width="14.83" height="90.31" transform="translate(585.62 228.48) rotate(134.56)" style="opacity:0.6000000000000001"></rect><rect x="270.72" y="272.9" width="35.39" height="13.45" transform="translate(690.02 270.32) rotate(134.56)" style="fill:#FFC727"></rect><rect x="270.72" y="272.9" width="35.39" height="13.45" transform="translate(690.02 270.32) rotate(134.56)" style="opacity:0.6000000000000001"></rect><rect x="267.9" y="274.08" width="35.39" height="5.55" transform="translate(683.26 267.61) rotate(134.56)" style="opacity:0.1"></rect><path d="M314.53,305.34h0c5.8-5.89,6.1-14.78.65-19.39l-12.86-10.87L284.09,293.6l11.06,12.7C299.84,311.67,308.73,311.23,314.53,305.34Z" style="fill:#FFC727"></path><path d="M314.53,305.34h0c5.8-5.89,6.1-14.78.65-19.39l-12.86-10.87L284.09,293.6l11.06,12.7C299.84,311.67,308.73,311.23,314.53,305.34Z" style="opacity:0.6000000000000001"></path><polygon points="302.32 275.08 304.95 277.31 288.36 298.51 284.09 293.6 302.32 275.08" style="opacity:0.1"></polygon><rect x="255.95" y="146.31" width="14.83" height="90.31" transform="translate(452.8 -73.37) rotate(89.56)" style="fill:#FFC727"></rect><rect x="255.95" y="146.31" width="14.83" height="90.31" transform="translate(452.8 -73.37) rotate(89.56)" style="opacity:0.6000000000000001"></rect><rect x="306.63" y="184.27" width="35.39" height="13.45" transform="translate(512.82 -134.8) rotate(89.56)" style="fill:#FFC727"></rect><rect x="306.63" y="184.27" width="35.39" height="13.45" transform="translate(512.82 -134.8) rotate(89.56)" style="opacity:0.6000000000000001"></rect><rect x="302.68" y="188.25" width="35.39" height="5.55" transform="translate(508.93 -130.81) rotate(89.56)" style="opacity:0.1"></rect><path d="M361,190.71h0c-.07-8.27-6.14-14.77-13.25-14.17L331,178l.2,26,16.8,1.15C355.07,205.58,361,199,361,190.71Z" style="fill:#FFC727"></path><path d="M361,190.71h0c-.07-8.27-6.14-14.77-13.25-14.17L331,178l.2,26,16.8,1.15C355.07,205.58,361,199,361,190.71Z" style="opacity:0.6000000000000001"></path><polygon points="330.95 177.95 334.38 177.66 337.64 204.38 331.15 203.94 330.95 177.95" style="opacity:0.1"></polygon><rect x="236.86" y="101.21" width="14.83" height="90.31" transform="translate(172.92 -129.32) rotate(44.56)" style="fill:#FFC727"></rect><rect x="236.86" y="101.21" width="14.83" height="90.31" transform="translate(172.92 -129.32) rotate(44.56)" style="opacity:0.6000000000000001"></rect><rect x="269.36" y="96.2" width="35.39" height="13.45" transform="translate(154.74 -171.82) rotate(44.56)" style="fill:#FFC727"></rect><rect x="269.36" y="96.2" width="35.39" height="13.45" transform="translate(154.74 -171.82) rotate(44.56)" style="opacity:0.6000000000000001"></rect><rect x="266.59" y="102.97" width="35.39" height="5.55" transform="translate(155.91 -169.07) rotate(44.56)" style="opacity:0.1"></rect><path d="M312.77,76.81h0c-5.89-5.8-14.79-6.1-19.39-.65L282.51,89,301,107.25l12.69-11.06C319.1,91.5,318.66,82.62,312.77,76.81Z" style="fill:#FFC727"></path><path d="M312.77,76.81h0c-5.89-5.8-14.79-6.1-19.39-.65L282.51,89,301,107.25l12.69-11.06C319.1,91.5,318.66,82.62,312.77,76.81Z" style="opacity:0.6000000000000001"></path><polygon points="282.51 89.02 284.73 86.39 305.93 102.98 301.03 107.25 282.51 89.02" style="opacity:0.1"></polygon><path d="M190.43,76.23a119.1,119.1,0,1,0,120,118.17A119.1,119.1,0,0,0,190.43,76.23Zm1.64,213.47a94.37,94.37,0,1,1,93.65-95.11A94.38,94.38,0,0,1,192.07,289.7Z" style="fill:#FFC727"></path><path d="M190.43,76.23a119.1,119.1,0,1,0,120,118.17A119.1,119.1,0,0,0,190.43,76.23Zm1.64,213.47a94.37,94.37,0,1,1,93.65-95.11A94.38,94.38,0,0,1,192.07,289.7Z" style="opacity:0.7000000000000001"></path><path d="M198.48,72.86A119.1,119.1,0,1,0,318.48,191,119.1,119.1,0,0,0,198.48,72.86Zm1.64,213.47a94.37,94.37,0,1,1,93.65-95.11A94.38,94.38,0,0,1,200.12,286.33Z" style="fill:#FFC727"></path><path d="M198.48,72.86A119.1,119.1,0,1,0,318.48,191,119.1,119.1,0,0,0,198.48,72.86Zm1.64,213.47a94.37,94.37,0,1,1,93.65-95.11A94.38,94.38,0,0,1,200.12,286.33Z" style="opacity:0.6000000000000001"></path><path d="M198.59,87.06A104.89,104.89,0,1,0,304.28,191.14,104.9,104.9,0,0,0,198.59,87.06Zm1.53,199.27a94.37,94.37,0,1,1,93.65-95.11A94.38,94.38,0,0,1,200.12,286.33Z" style="opacity:0.1"></path><path d="M204.54,87a6,6,0,1,1-6-5.91A6,6,0,0,1,204.54,87Z" style="fill:#FFC727"></path><path d="M128.82,114.11a6,6,0,1,1-8.41.06A5.95,5.95,0,0,1,128.82,114.11Z" style="fill:#FFC727"></path><path d="M94.44,186.8a6,6,0,1,1-5.9,6A6,6,0,0,1,94.44,186.8Z" style="fill:#FFC727"></path><path d="M121.53,262.52a6,6,0,1,1,.07,8.42A6,6,0,0,1,121.53,262.52Z" style="fill:#FFC727"></path><path d="M194.23,296.9a6,6,0,1,1,6,5.9A5.95,5.95,0,0,1,194.23,296.9Z" style="fill:#FFC727"></path><path d="M269.94,269.81a6,6,0,1,1,8.42-.07A6,6,0,0,1,269.94,269.81Z" style="fill:#FFC727"></path><path d="M304.32,197.11a6,6,0,1,1,5.91-6A5.95,5.95,0,0,1,304.32,197.11Z" style="fill:#FFC727"></path><path d="M277.23,121.4a6,6,0,1,1-.06-8.42A6,6,0,0,1,277.23,121.4Z" style="fill:#FFC727"></path><circle cx="192.2" cy="194.97" r="57.05" style="fill:#FFC727"></circle><circle cx="192.2" cy="194.97" r="57.05" style="opacity:0.7000000000000001"></circle><circle cx="199.38" cy="191.96" r="57.05" transform="translate(-42.92 58.21) rotate(-15.02)" style="fill:#FFC727"></circle><circle cx="199.38" cy="191.96" r="57.05" transform="translate(-42.92 58.21) rotate(-15.02)" style="opacity:0.6000000000000001"></circle><circle cx="199.38" cy="191.96" r="37.75" transform="translate(-76.58 170.86) rotate(-39.54)" style="fill:#FFC727;opacity:0.6000000000000001"></circle><rect x="187.98" y="129.2" width="21.91" height="10.06" rx="1.55" transform="translate(-1.03 1.54) rotate(-0.44)" style="fill:#FFC727"></rect><rect x="187.98" y="129.2" width="21.91" height="10.06" rx="1.55" transform="translate(-1.03 1.54) rotate(-0.44)" style="opacity:0.6000000000000001"></rect><rect x="147.29" y="146.42" width="21.91" height="10.06" rx="1.55" transform="translate(-60.7 157.94) rotate(-45.44)" style="fill:#FFC727"></rect><rect x="147.29" y="146.42" width="21.91" height="10.06" rx="1.55" transform="translate(-60.7 157.94) rotate(-45.44)" style="opacity:0.6000000000000001"></rect><rect x="130.7" y="187.37" width="21.91" height="10.06" rx="1.55" transform="translate(-49.65 335.53) rotate(-90.44)" style="fill:#FFC727"></rect><rect x="130.7" y="187.37" width="21.91" height="10.06" rx="1.55" transform="translate(-49.65 335.53) rotate(-90.44)" style="opacity:0.6000000000000001"></rect><rect x="147.92" y="228.06" width="21.91" height="10.06" rx="1.55" transform="translate(108.53 510.65) rotate(-135.44)" style="fill:#FFC727"></rect><rect x="147.92" y="228.06" width="21.91" height="10.06" rx="1.55" transform="translate(108.53 510.65) rotate(-135.44)" style="opacity:0.6000000000000001"></rect><rect x="188.87" y="244.66" width="21.91" height="10.06" rx="1.55" transform="translate(401.58 497.83) rotate(179.56)" style="fill:#FFC727"></rect><rect x="188.87" y="244.66" width="21.91" height="10.06" rx="1.55" transform="translate(401.58 497.83) rotate(179.56)" style="opacity:0.6000000000000001"></rect><rect x="229.56" y="227.44" width="21.91" height="10.06" rx="1.55" transform="translate(574.92 224.19) rotate(134.56)" style="fill:#FFC727"></rect><rect x="229.56" y="227.44" width="21.91" height="10.06" rx="1.55" transform="translate(574.92 224.19) rotate(134.56)" style="opacity:0.6000000000000001"></rect><rect x="246.16" y="186.48" width="21.91" height="10.06" rx="1.55" transform="translate(446.64 -67.07) rotate(89.56)" style="fill:#FFC727"></rect><rect x="246.16" y="186.48" width="21.91" height="10.06" rx="1.55" transform="translate(446.64 -67.07) rotate(89.56)" style="opacity:0.6000000000000001"></rect><rect x="228.93" y="145.79" width="21.91" height="10.06" rx="1.55" transform="translate(174.78 -124.96) rotate(44.56)" style="fill:#FFC727"></rect><rect x="228.93" y="145.79" width="21.91" height="10.06" rx="1.55" transform="translate(174.78 -124.96) rotate(44.56)" style="opacity:0.6000000000000001"></rect></g><g id="freepik--Hat--inject-105"><path d="M112.86,387.39c166.88.5,300.78-37.91,300.78-37.91S335,336.63,250,352.31,112.86,387.39,112.86,387.39Z" style="fill:#263238"></path><g style="opacity:0.4"><path d="M112.86,387.39c166.88.5,300.78-37.91,300.78-37.91S335,336.63,250,352.31,112.86,387.39,112.86,387.39Z"></path></g><path d="M148,377.69s53.88,38.87,141.73,56.1,127.4,5.83,139.54,2.43,31.3-14.32,27.17-33-42.76-53.73-42.76-53.73S307.65,334.24,148,377.69Z" style="fill:#263238"></path><path d="M413.64,349.48s1.66,1.51,4.33,4.07c-17.77-1.29-103.83-5-268,25.54h0c-1.35-.91-2-1.4-2-1.4C307.65,334.23,413.64,349.48,413.64,349.48Z" style="opacity:0.1"></path><path d="M421.46,353.84l-.88,2.22.4-2.27A4.41,4.41,0,0,1,421.46,353.84Z" style="opacity:0.1"></path><path d="M401.24,356.33C395,361,416,416.15,426,417.5s20.62-15.51,18-26.59S409.3,350.34,401.24,356.33Z" style="fill:#37474f;opacity:0.30000000000000004"></path><path d="M406.32,428.74c2.4,3.36,12.25,3.6,13.93-1.5s-6.13-12.33-12.2-12S403.11,424.24,406.32,428.74Z" style="fill:#37474f;opacity:0.30000000000000004"></path><path d="M398.5,419.19c-.63.37-67.68,15.38-170.4-55.91q3.68.53,7.35,1C236.49,365.11,329.75,428.85,398.5,419.19Z" style="fill:#FFC727"></path><path d="M237.2,366.34h.07c1.57.3,3.12.59,4.69.85q4.68.8,9.37,1.49t9.39,1.31l4.71.6,4.7.6c-3.14-.13-6.29-.39-9.42-.7s-6.28-.71-9.42-1.17-6.25-1-9.38-1.65c-1.6-.33-3.2-.67-4.8-1.06a.27.27,0,0,0,.07.08c1,.64,19.65,11.7,40.08,4.92.91-.3-12.58-6-23.36-7.08C244.5,363.63,238.07,365.38,237.2,366.34Z" style="fill:#FFC727"></path><path d="M236.33,367v.05c-.11,1-.21,2-.35,2.94-.25,1.95-.51,3.9-.76,5.85s-.45,3.9-.67,5.84c-.1,1-.2,2-.29,2.93s-.17,2-.22,2.95c.56-1.85,1-3.75,1.36-5.66s.68-3.85,1-5.8.44-3.93.5-5.93c0-1,.06-2.06,0-3.1a.3.3,0,0,1,.11.07c1,.67,11.85,15.94-3.87,24.7-.66.36-7.31-10.14-5.87-16.5C228.5,369.81,234.24,367.12,236.33,367Z" style="fill:#FFC727"></path><path d="M264.9,384.26H265c1.43-.11,2.86-.23,4.29-.38,2.86-.28,5.72-.61,8.59-1s5.76-.73,8.65-1.15c1.45-.2,2.9-.42,4.35-.64s2.91-.44,4.38-.65c-2.81.69-5.65,1.26-8.5,1.78s-5.71.94-8.58,1.3-5.76.65-8.68.82c-1.49.09-3,.17-4.49.21l.09.06c1.16.52,22,6.23,36.61-5.61.66-.49-14.08-2.42-23.76-.82C269.48,379.65,265.12,383.05,264.9,384.26Z" style="fill:#FFC727"></path><path d="M262.93,384.58l0,0c.41,1,.82,2,1.2,3,.77,2,1.55,4,2.32,6l2.37,6.05c.4,1,.81,2,1.21,3s.83,2,1.28,3c-.46-2-1.07-4.07-1.71-6.09s-1.36-4.05-2.12-6.07-1.61-4-2.56-6c-.49-1-1-2.05-1.54-3.07a.5.5,0,0,1,.13,0c1.22.55,17.49,12.29,9.17,25.83-.35.6-10.74-8.11-12.81-15C258.1,389.38,261.29,385.2,262.93,384.58Z" style="fill:#FFC727"></path><path d="M293.38,399.14l.07,0c1.46-.33,2.91-.67,4.36-1,2.89-.72,5.8-1.48,8.71-2.29s5.84-1.63,8.77-2.5L319.7,392c1.49-.44,3-.9,4.45-1.35-2.8,1.16-5.67,2.19-8.53,3.16s-5.78,1.85-8.69,2.67-5.85,1.53-8.82,2.15c-1.53.31-3.05.61-4.6.87l.11,0c1.27.46,23.67,3.56,37-11.39.59-.61-15.14-.57-24.88,2.52C297.29,393.42,293.41,397.77,293.38,399.14Z" style="fill:#FFC727"></path><path d="M292.55,399.37l0,.05c.56,1,1.12,2,1.65,3q1.62,3,3.22,5.95t3.26,6c.56,1,1.11,2,1.66,3s1.13,2,1.73,3c-.77-2.06-1.68-4.09-2.62-6.11s-2-4-3-6-2.21-4-3.46-5.92c-.64-1-1.29-2-2-3a.25.25,0,0,1,.12,0c1.27.45,19.05,10.24,13,25.63-.26.7-11.72-6.84-14.82-13.78C288.63,405.07,291.05,400.25,292.55,399.37Z" style="fill:#FFC727"></path><path d="M351.6,416.85l0,0c1-.55,2-1.11,2.93-1.69q2.91-1.71,5.83-3.49c2-1.17,3.91-2.37,5.86-3.59l3-1.83c1-.61,2-1.23,3-1.84-1.82,1.38-3.71,2.7-5.6,4s-3.83,2.51-5.77,3.7-3.92,2.33-5.94,3.4c-1,.55-2.08,1.1-3.14,1.61a.15.15,0,0,0,.09,0c1,.13,17.91-2.27,24.62-15.77.3-.55-11.33,2.34-17.73,6.57C353.17,411.63,351.32,415.79,351.6,416.85Z" style="fill:#FFC727"></path><path d="M351,417.2l0,0c.61.64,1.23,1.28,1.83,1.94l3.62,3.91,3.64,3.89c.62.65,1.24,1.29,1.85,1.94s1.24,1.28,1.89,1.91c-1-1.41-2.09-2.77-3.21-4.12s-2.3-2.68-3.5-4-2.45-2.59-3.78-3.83c-.68-.64-1.36-1.28-2.08-1.9h.09c1,.14,16.05,3.88,15,16.93,0,.6-10-2.64-13.69-7.38C349.46,422.44,350.16,418.18,351,417.2Z" style="fill:#FFC727"></path><path d="M378.4,420.19l0,0c.88-.57,1.75-1.13,2.61-1.71q2.61-1.74,5.21-3.53c1.75-1.18,3.49-2.39,5.24-3.6l2.63-1.84c.89-.6,1.76-1.22,2.66-1.83-1.62,1.36-3.3,2.66-5,3.93s-3.41,2.5-5.15,3.7-3.5,2.36-5.3,3.45c-.93.57-1.86,1.12-2.81,1.66h.08c.89.05,16-3,22-15.76.27-.52-10.06,2.67-15.77,6.9C379.84,415.27,378.16,419.23,378.4,420.19Z" style="fill:#FFC727"></path><path d="M377.9,420.54l0,0c.55.57,1.09,1.13,1.62,1.7l3.19,3.43,3.22,3.4c.54.56,1.08,1.13,1.63,1.69s1.1,1.12,1.67,1.67c-.88-1.25-1.85-2.46-2.84-3.64s-2-2.35-3.08-3.5-2.16-2.26-3.33-3.34c-.6-.55-1.21-1.1-1.84-1.63a.13.13,0,0,1,.08,0c.88.07,14.25,2.75,13.2,14.85-.05.55-8.87-1.92-12.15-6.09C376.44,425.47,377.11,421.5,377.9,420.54Z" style="fill:#FFC727"></path><path d="M324.48,410l.06,0c1.18-.33,2.36-.67,3.53-1,2.35-.71,4.7-1.44,7.05-2.21s4.72-1.53,7.08-2.33l3.56-1.21,3.58-1.22c-2.27,1-4.58,1.95-6.9,2.83s-4.67,1.7-7,2.47-4.73,1.47-7.13,2.09c-1.24.31-2.47.62-3.72.9l.08,0c1,.31,18.77,2.06,29.94-10.52.49-.53-11.93-.19-19.81,2.7C327.9,405,324.57,408.82,324.48,410Z" style="fill:#FFC727"></path><path d="M323.8,410.19l0,0c.4.8.8,1.59,1.17,2.4q1.15,2.42,2.29,4.83c.77,1.61,1.55,3.22,2.32,4.84.4.8.79,1.61,1.19,2.41s.81,1.61,1.24,2.41c-.52-1.68-1.15-3.33-1.81-5s-1.38-3.27-2.14-4.89-1.57-3.22-2.47-4.79c-.46-.81-.93-1.62-1.44-2.41a.16.16,0,0,1,.1,0c1,.31,14.72,7.83,9.19,20.81-.24.57-9.1-5.22-11.23-10.87C320.37,415.1,322.57,411,323.8,410.19Z" style="fill:#FFC727"></path><path d="M420.61,414.72a19.67,19.67,0,0,1-5.78,1C414.56,415.32,417,415.71,420.61,414.72Z" style="fill:#FFC727"></path><path d="M443.31,380.76c0,.19,0,.36-.07.55-.05.41-.1.81-.18,1.2a5,5,0,0,1-.08.56c-.13.79-.26,1.56-.42,2.31a54.56,54.56,0,0,1-5.26,15.12L437,401a3.45,3.45,0,0,1-.2.32l-.28.46c-.48.75-1,1.47-1.46,2.13a30,30,0,0,1-8.94,8.44.82.82,0,0,1-.17.11,1.74,1.74,0,0,1-.27.14,6.24,6.24,0,0,1-.71.39,21.42,21.42,0,0,1-4.17,1.67,20.68,20.68,0,0,0,4.43-2.11,1.81,1.81,0,0,0,.29-.19l0,0a.51.51,0,0,0,.13-.09,29.91,29.91,0,0,0,9.41-10.59l.42-.78a2.29,2.29,0,0,0,.14-.27l.18-.34a54.67,54.67,0,0,0,4.83-14.58c.13-.69.25-1.38.36-2.08,0-.17.05-.34.07-.51.06-.33.1-.67.15-1,.15-1.11.27-2.24.37-3.37C442.21,379.39,442.77,380.07,443.31,380.76Z" style="fill:#FFC727"></path><path d="M436.15,400.47h0c-.78.23-1.56.43-2.35.6a48.33,48.33,0,0,1-4.79.8c-1.6.19-3.22.31-4.85.35-.81,0-1.63,0-2.44,0s-1.64,0-2.46,0a48.08,48.08,0,0,0,4.93.28,44.18,44.18,0,0,0,4.88-.25,35.66,35.66,0,0,0,4.79-.87c.8-.21,1.61-.45,2.4-.73,0,0,0,0,0,.05-.2.93-9.77,6.82-20.68,1.1-.45-.12,6.46-1.65,11.89-2.32C432.16,399,435.6,399.84,436.15,400.47Z" style="fill:#FFC727"></path><path d="M436.62,400.36v0l.42,1.75c.29,1.16.56,2.33.82,3.51s.48,2.35.7,3.53l.3,1.78c.08.59.18,1.19.24,1.79-.37-1.15-.67-2.31-1-3.47s-.57-2.32-.83-3.49-.49-2.34-.68-3.53c-.09-.61-.19-1.23-.27-1.85l-.05,0c-.22.77-4.87,8.69,3.43,14.94.42.39,3.41-5.91,2-10.07C440.66,401.8,437.61,400.37,436.62,400.36Z" style="fill:#FFC727"></path><path d="M425.51,412.2h0c-.76-.07-1.52-.15-2.29-.26-1.53-.2-3.05-.46-4.58-.76s-3-.64-4.55-1c-.76-.19-1.51-.38-2.27-.59l-2.25-.63c1.49.53,3,1,4.51,1.42s3,.8,4.57,1.11,3.06.56,4.59.71c.79.08,1.57.15,2.35.18,0,0,0,0,0,0-.35.59-10,2-19.37-4.63-.41-.2,6.09.28,11.26,1.27C421.92,410,425.07,411.59,425.51,412.2Z" style="fill:#FFC727"></path><path d="M426,412.26v0c0,.46.11.92.17,1.38.13.92.24,1.84.35,2.77s.18,1.84.26,2.77l.09,1.38c0,.46,0,.92,0,1.38-.23-1-.39-1.88-.54-2.81s-.27-1.86-.38-2.78-.18-1.84-.22-2.75c0-.47,0-.94,0-1.4h-.05c-.36.49-5.6,4.8,1.54,11.86.33.41,3.76-3.27,3-6.68A7.9,7.9,0,0,0,426,412.26Z" style="fill:#FFC727"></path><path d="M442,382.06l0,0c-.59.71-1.2,1.4-1.83,2a39.3,39.3,0,0,1-3.91,3.56,37.62,37.62,0,0,1-4.19,2.93c-.72.44-1.44.85-2.18,1.24s-1.47.75-2.21,1.11a31.13,31.13,0,0,0,4.56-2.07,30.62,30.62,0,0,0,4.25-2.85,30.18,30.18,0,0,0,3.88-3.65c.62-.7,1.23-1.44,1.81-2.22v.07c.16.91-5.23,13.61-18,11.93-.5,0,4.82-4.68,9.46-8.19C437.73,383.11,441.23,381.77,442,382.06Z" style="fill:#FFC727"></path><path d="M452.75,394.37c0,.25-.08.39-.14.39-7-.26-9.28-5.67-10.05-9.38h0a21.5,21.5,0,0,1-.4-3.06.11.11,0,0,0,0-.06,0,0,0,0,0,0-.05c0-.12,0-.21,0-.25s0-.05,0-.08q.4.61.81,1.2l.33.5c.75,1.08,1.54,2.12,2.33,3.14s1.62,2,2.47,3,1.69,1.94,2.59,2.84c-.36-.57-.74-1.1-1.11-1.65l-1.17-1.6c-.78-1-1.57-2.08-2.37-3.11l-2.43-3-.56-.67h0l-.66-.82s0,0,0,0a3.18,3.18,0,0,1,.86-.34c.13,0,.28-.07.43-.09A102.78,102.78,0,0,1,452.75,394.37Z" style="fill:#FFC727"></path><path d="M413.33,288.92l2.18-14.69s42.84-35.3,46-66.85c3.45-34.53-47.08-72.68-73.65-78.87S231.69,117.23,56.24,256.64c-9.75,7.75-18.81,30.94-17.84,40.41,1.12,10.85,13.29,36.76,30,44.77s39.68,12,39.68,12Z" style="fill:#ebebeb"></path><path d="M413.33,288.92l2.16-14.69A211.45,211.45,0,0,0,431.41,259c10-10.67,19.32-22.29,25.37-35.67,4.67-10.1,6.31-21.26,2.57-31.94-8.86-27-45-56-72.14-62.74a122.46,122.46,0,0,0-21.8-2.21c-82.34-.94-167.85,36.16-236.62,79.27C110.27,217.3,92,230.11,74.47,243.16c-5.31,3.94-12.14,9.41-17.42,13.43-9.55,7.6-17.54,26.61-18.28,38.57a27.42,27.42,0,0,0,1.41,8,73,73,0,0,0,5.22,12.61c5.85,11.13,14,22.09,26,27a179.74,179.74,0,0,0,36.8,10.75c-.68.07,305.3-64.56,305.16-64.55Zm0,0S108.1,354.23,108.05,354.19c-12.63-2.42-25.16-5.69-37-10.75-12.15-5-20.44-16-26.39-27.32a69.53,69.53,0,0,1-6-15.43c-1.53-5.45-.24-11.18,1.31-16.45a78.35,78.35,0,0,1,9.2-20.05,33.48,33.48,0,0,1,7.34-8.32l8.7-6.75C79.56,237.94,94.64,227,109.79,216.9c39.57-26.48,82-49.46,126.63-66,44.58-16.26,92.27-27.87,140-24.37a91.85,91.85,0,0,1,10.92,1.61c7.19,1.63,13.94,4.77,20.4,8.27,16,9,30.54,20.88,41.64,35.54,19.24,26.08,14.46,45.51-3.65,70.44a199.26,199.26,0,0,1-30.21,31.91c0-.09-2.21,14.67-2.2,14.66Z" style="fill:#a6a6a6"></path><path d="M108.11,353.83l-1.27-21.11s-26.21-6.07-25.12-1.58S108.11,353.83,108.11,353.83Z" style="fill:#dbdbdb"></path><path d="M413.33,288.92V274.23s9.1-25.14,17.35-27.67-6.9,20.23-6.9,20.23l-8.27,7.44Z" style="fill:#dbdbdb"></path><path d="M38.88,297.2l-.55-.69c.21-.64,0-.89.24-1.52l1,.33C39.3,296,39.08,296.57,38.88,297.2Z" style="fill:#dbdbdb"></path><path d="M40.9,291.63l-.92-.37c.48-1.21,1-2.45,1.55-3.67l.91.41C41.9,289.21,41.39,290.43,40.9,291.63Zm3.22-7.21-.9-.44c.57-1.18,1.18-2.37,1.81-3.54l.88.47C45.29,282.07,44.69,283.25,44.12,284.42Zm3.7-7L47,277c.66-1.15,1.35-2.3,2-3.41l.85.53C49.16,275.17,48.48,276.31,47.82,277.45Zm4.17-6.7-.83-.56c.76-1.12,1.53-2.22,2.3-3.26l.8.6C53.51,268.55,52.75,269.64,52,270.75Zm4.68-6.34-.77-.63c.9-1.11,1.79-2.12,2.63-3l.73.69C58.43,262.33,57.56,263.32,56.67,264.41Zm5.45-5.63-.65-.76c.83-.72,1.85-1.58,3-2.56l.63.77Q63.36,257.7,62.12,258.78Zm6.11-5-.62-.79,3.12-2.46.62.79Zm6.25-4.89-.61-.79L77,245.65l.6.8Zm6.32-4.78-.59-.8c1-.77,2.09-1.56,3.19-2.36l.59.8Zm6.39-4.69-.59-.81,3.23-2.32.58.81Zm6.45-4.61-.58-.82,3.25-2.28.57.82Zm6.49-4.54-.56-.82,3.27-2.25.56.83C102.29,228.74,101.21,229.49,100.13,230.23Zm6.55-4.47-.56-.83,3.3-2.21.55.84Zm6.59-4.39-.54-.84,3.31-2.17.55.84C115.47,219.92,114.37,220.65,113.27,221.37Zm6.64-4.33-.54-.84,3.34-2.14.54.85Zm6.69-4.25-.53-.85,3.36-2.1.53.85Zm6.73-4.19-.52-.85,3.38-2.06.52.85Zm6.77-4.11-.51-.86,3.41-2,.5.86Zm6.82-4-.51-.86,3.43-2,.5.86Zm6.86-4-.5-.87,3.45-2,.49.88Zm6.9-3.89-.48-.87,3.47-1.92.48.88Zm6.95-3.81-.48-.88,3.5-1.88.47.89C170,187.54,168.78,188.16,167.63,188.79Zm7-3.73-.47-.88,3.52-1.84.46.89Zm7-3.64-.45-.9,3.53-1.79.45.89Zm7.08-3.56-.45-.9,3.56-1.75.44.9Zm7.12-3.47-.43-.91,3.58-1.7.43.91ZM203,171l-.42-.91c1.2-.55,2.4-1.11,3.61-1.65l.41.91Q204.81,170.17,203,171Zm7.21-3.28-.41-.92,3.63-1.6.4.91Zm7.26-3.18-.4-.92,3.65-1.56.39.92Zm7.28-3.07-.38-.93,3.66-1.5.38.93Zm7.33-3-.37-.93,3.69-1.44.37.93Zm7.39-2.85-.36-.93,3.72-1.39.34.94Zm7.42-2.74-.34-.94c1.26-.45,2.5-.9,3.74-1.33l.33.94Zm7.47-2.62-.32-1,3.75-1.27.32.95Zm7.51-2.5-.31-1,3.78-1.2.3,1Zm7.55-2.37-.29-1,3.8-1.14.28,1Zm7.6-2.23-.28-1,3.83-1.06.26,1C279.58,142.48,278.31,142.83,277,143.2Zm7.63-2.08-.25-1,3.84-1,.25,1Zm7.68-1.93-.23-1,3.86-.91.22,1Zm7.71-1.76-.21-1,3.88-.81.2,1Zm105.41-1c-1.16-.47-2.4-.93-3.69-1.37l.32-.94c1.3.44,2.56.9,3.74,1.38Zm-97.65-.57-.19-1c1.31-.26,2.61-.5,3.9-.73l.18,1C310.41,135.35,309.12,135.6,307.81,135.85Zm7.78-1.4-.16-1,3.91-.63.16,1ZM398,133.9c-1.23-.35-2.51-.68-3.81-1l.22-1c1.32.3,2.62.64,3.86,1Zm-74.59-.66-.14-1,3.93-.54.13,1Zm7.85-1-.12-1c1.33-.16,2.64-.3,3.94-.44l.11,1C333.89,131.92,332.58,132.07,331.26,132.22Zm59.07-.11c-1.28-.24-2.58-.46-3.89-.66l.15-1c1.32.2,2.64.42,3.93.67Zm-51.21-.71-.09-1,4-.34.08,1Zm43.41-.47c-1.26-.15-2.57-.28-3.92-.4l.08-1q2,.17,4,.39ZM347,130.79l-.06-1,4-.24,0,1Zm7.9-.43,0-1,4-.14,0,1Zm19.76-.09c-1.28-.07-2.6-.12-3.95-.16l0-1c1.36,0,2.68.09,4,.16Zm-11.85-.15,0-1,2.18,0,1.79,0v1l-1.77,0Z" style="fill:#dbdbdb"></path><path d="M162.8,342.33l-.05-.24-.18-1.51,1-.11.18,1.51-.48.12Zm-.72-5.73c-.15-1.18-.33-2.52-.53-4l1-.14c.2,1.46.38,2.79.53,4ZM161,328.66c-.19-1.27-.39-2.6-.61-4l1-.15c.22,1.36.42,2.69.61,4Zm-1.25-7.91c-.22-1.31-.45-2.63-.69-3.95l1-.18c.25,1.33.48,2.65.7,4Zm-1.44-7.88c-.26-1.32-.53-2.63-.82-3.91l1-.22c.28,1.29.56,2.61.82,3.94Zm-1.73-7.8c-.34-1.38-.7-2.67-1-3.85l1-.29c.35,1.2.7,2.5,1,3.89Zm-2.29-7.62a22.49,22.49,0,0,0-1.65-3.56l.86-.51a23.5,23.5,0,0,1,1.72,3.71ZM150,291.7c-.93-.24-2.21-.49-3.89-.77l.17-1c1.71.29,3,.54,4,.79Zm-7.84-1.37-4-.55.13-1,4,.55Zm-7.93-1.08-4-.53.14-1,4,.53Zm-7.95-1.08c-1.33-.18-2.65-.38-4-.58l.15-1c1.31.2,2.64.4,4,.58ZM118.32,287c-1.36-.23-2.68-.46-4-.71l.19-1c1.27.24,2.59.48,3.94.7Zm-7.89-1.54c-1.46-.33-2.78-.68-3.91-1l.29-1c1.11.34,2.41.68,3.84,1Zm-7.73-2.49-.59-.33a11.56,11.56,0,0,1-2.64-2.29l.74-.67a11,11,0,0,0,2.41,2.1l.54.3ZM97,277.1c-.69-1-1.43-2.15-2.18-3.41l.86-.51c.74,1.23,1.46,2.36,2.14,3.35Zm-4.17-6.91c-.63-1.16-1.25-2.35-1.86-3.56l.89-.45c.61,1.2,1.23,2.39,1.85,3.54ZM89.16,263c-.58-1.22-1.15-2.44-1.7-3.63l.91-.42c.55,1.19,1.11,2.41,1.7,3.62Zm-3.33-7.3c-.57-1.3-1.1-2.54-1.59-3.69l.92-.39c.49,1.15,1,2.38,1.58,3.68Zm-3.12-7.4c-.94-2.32-1.49-3.76-1.49-3.76l.93-.35s.55,1.43,1.48,3.73Z" style="fill:#dbdbdb"></path><path d="M85.26,240.78c4.8,11.33,9.58,22.94,16.63,33.07,3.24,5.63,9.94,6.49,15.86,7.78,8.76,1.68,18.65,2.77,27.54,4.05a80.21,80.21,0,0,1,9.2,1.69c1.71.66,2.4,2.28,3.15,3.74a67.73,67.73,0,0,1,4,13.44,343.57,343.57,0,0,1,5.23,36.79c-2.08-15.28-4-30.74-8.35-45.57a24.3,24.3,0,0,0-2.74-6.23,3.26,3.26,0,0,0-1.51-1.3,80.85,80.85,0,0,0-9.06-1.62c-8.95-1.2-18.77-2.37-27.59-4.1a62.71,62.71,0,0,1-9-2.35,11.71,11.71,0,0,1-4.18-2.29c-5.49-5.59-8.63-13-12-19.91-2.55-5.65-4.93-11.37-7.07-17.19Z" style="fill:#dbdbdb"></path><path d="M108.11,353.83l55.14-11.73s-3.07-17.16,6.66-28.49S273.21,242.44,271,221.15c-.87-8.34-37.32-7.21-78,8.68-63.18,24.66-138.82,74.62-124.7,100.72C76.23,345.3,108.11,353.83,108.11,353.83Z" style="opacity:0.05"></path><path d="M410.13,153.29c-6.23,4.62,14.76,59.83,24.74,61.18s20.62-15.51,18-26.59S418.19,147.31,410.13,153.29Z" style="fill:#fff;opacity:0.30000000000000004"></path><path d="M106.29,331.44,111.93,385S251.1,338.66,416.85,347.4l-3.52-58.48S259.19,281.15,106.29,331.44Z" style="fill:#263238"></path><path d="M413.64,294c-178.85,2.7-306.58,44.77-306.58,44.77l-.77-7.3c152.9-50.29,307-42.53,307-42.53Z" style="opacity:0.1"></path><path d="M416.85,347.4C251.11,338.66,111.94,385,111.94,385l-.6-5.66s142.47-47.69,304.86-42.58h0Z" style="opacity:0.1"></path><path d="M103.31,333.24l-.85-2.27a1.53,1.53,0,0,1,.92-2c14.82-5.2,140.72-47.4,311.13-43.22a1.53,1.53,0,0,1,1.49,1.57l-.06,2.42a1.53,1.53,0,0,1-1.56,1.48c-169.54-4.17-294.62,37.8-309.15,42.9A1.52,1.52,0,0,1,103.31,333.24Z" style="fill:#263238"></path><path d="M109.59,386.85l-.76-2.31a1.52,1.52,0,0,1,1-1.93C125.47,377.66,263,335.92,418,344.22a1.52,1.52,0,0,1,1.44,1.61l-.13,2.42a1.51,1.51,0,0,1-1.6,1.43C263.6,341.45,126.9,383,111.49,387.82A1.52,1.52,0,0,1,109.59,386.85Z" style="fill:#263238"></path><ellipse cx="360.98" cy="245.71" rx="52.47" ry="45.85" transform="translate(107.86 601.53) rotate(-88.81)" style="fill:#263238"></ellipse><g style="opacity:0.1"><path d="M396.89,212.88l-62.48,75.75a52,52,0,0,1-16.92-26l69.16-60.57A48.68,48.68,0,0,1,396.89,212.88Z" style="fill:#fff"></path><path d="M405,230.6l-56.82,65.56a38.34,38.34,0,0,1-4.63-1.82l58.1-73.19A56,56,0,0,1,405,230.6Z" style="fill:#fff"></path></g><path d="M359.86,299.67c-26-.54-46.65-25.18-46-54.94s22.27-53.52,48.27-53,46.64,25.19,46,54.94S385.86,300.21,359.86,299.67ZM362,194.75c-24.55-.51-45,21.94-45.58,50s18.92,51.37,43.47,51.87,45-21.93,45.58-50S386.58,195.26,362,194.75Z" style="fill:#FFC727"></path><path d="M353.22,283.39a30.66,30.66,0,0,1-19-10.91,35,35,0,0,1-5.9-10.41,45.69,45.69,0,0,1-1.72-5.92,52.17,52.17,0,0,1-1-6.13,46.41,46.41,0,0,1-.16-6.24,44.25,44.25,0,0,1,.72-6.2A40.7,40.7,0,0,1,330.21,226a43.77,43.77,0,0,1,6.91-9.62,43.13,43.13,0,0,1,4.24-3.89,24.06,24.06,0,0,1,4.72-3.05,18.42,18.42,0,0,0-2.37,1.49c-.77.54-1.51,1.13-2.24,1.74a43.17,43.17,0,0,0-4.11,4,43.58,43.58,0,0,0-9,15.17,40.56,40.56,0,0,0-1.55,5.87,42.67,42.67,0,0,0-.67,6.08,44.66,44.66,0,0,0,.19,6.12,48.21,48.21,0,0,0,2.58,11.84,37.91,37.91,0,0,0,2.46,5.42c.47.87,1,1.69,1.53,2.51A28,28,0,0,0,334.6,272a31.52,31.52,0,0,0,8.47,7.41,32.27,32.27,0,0,0,4.93,2.44c.84.33,1.71.62,2.58.88A22,22,0,0,0,353.22,283.39Z" style="fill:#FFC727"></path><path d="M351.2,282.94v0c-.09-.4-.17-.81-.25-1.22l-.47-2.44-.48-2.44-.25-1.22-.27-1.22c.09.83.21,1.66.33,2.48s.28,1.64.43,2.46.33,1.63.53,2.44c.1.41.2.82.32,1.23h0a10.56,10.56,0,0,1-1.85-10.47c.09-.26,2.45,2.88,2.84,5.71A6.58,6.58,0,0,1,351.2,282.94Z" style="fill:#FFC727"></path><path d="M351.23,283.19h0l-1.06.34-2.11.68-2.12.67-1.06.32-1.06.31c.68-.31,1.38-.58,2.07-.84s1.4-.5,2.1-.73,1.42-.44,2.13-.62l1.11-.27s0,0,0,0a7.77,7.77,0,0,0-9,3.09c-.16.21,3.38,1.1,5.75.16A5.56,5.56,0,0,0,351.23,283.19Z" style="fill:#FFC727"></path><path d="M344.64,280.45v0c-.09-.4-.17-.81-.25-1.22l-.47-2.44-.48-2.44-.25-1.22-.27-1.22c.09.84.21,1.66.33,2.48s.28,1.65.43,2.46.33,1.63.53,2.44c.1.41.2.82.32,1.23h0A10.57,10.57,0,0,1,342.65,270c.09-.27,2.45,2.88,2.84,5.7A6.56,6.56,0,0,1,344.64,280.45Z" style="fill:#FFC727"></path><path d="M344.67,280.7h0l-1.06.34-2.11.68-2.11.67-1.06.33c-.36.1-.71.21-1.07.3.68-.3,1.38-.58,2.07-.84s1.4-.5,2.1-.73,1.42-.44,2.13-.62l1.11-.27,0,0a7.77,7.77,0,0,0-9,3.09c-.16.22,3.38,1.1,5.75.16A5.53,5.53,0,0,0,344.67,280.7Z" style="fill:#FFC727"></path><path d="M338.28,276.22v0c0-.42,0-.83.06-1.25l.11-2.5.11-2.51,0-1.25c0-.42,0-.84,0-1.26-.11.83-.18,1.67-.25,2.5s-.12,1.67-.16,2.5-.07,1.68-.06,2.52c0,.42,0,.85,0,1.28h0a10.86,10.86,0,0,1,.66-10.67c.14-.23,1.68,3.53,1.4,6.37A6.18,6.18,0,0,1,338.28,276.22Z" style="fill:#FFC727"></path><path d="M338.26,276.47h0c-.36,0-.73,0-1.09,0l-2.19,0h-2.19l-1.1,0-1.1,0c.73-.08,1.46-.13,2.19-.17s1.47-.06,2.2-.07,1.46,0,2.19.05l1.13.08,0,0a7.58,7.58,0,0,0-9.34.24c-.2.16,3,2.1,5.5,1.91A5,5,0,0,0,338.26,276.47Z" style="fill:#FFC727"></path><path d="M333.39,270.85v0c.1-.4.2-.81.31-1.21l.62-2.4.61-2.41.29-1.21c.1-.41.2-.81.28-1.22-.27.78-.52,1.57-.75,2.36s-.46,1.6-.67,2.4-.4,1.61-.57,2.43c-.08.42-.17.84-.24,1.26l0,0c-.15-.32-1.54-6.14,2.81-10.22.19-.18.92,3.89.06,6.58C335.39,269.52,333.87,270.78,333.39,270.85Z" style="fill:#FFC727"></path><path d="M333.32,271.08h0l-1.06-.29-2.13-.57-2.13-.59-1.06-.3-1.06-.32c.73.11,1.45.26,2.16.41s1.44.34,2.15.52,1.42.4,2.12.64c.36.12.72.24,1.07.38v0c-.17-.3-3.89-4.56-9.13-2.25-.23.1,2.49,2.84,4.95,3.33A4.7,4.7,0,0,0,333.32,271.08Z" style="fill:#FFC727"></path><path d="M329.74,265h0c.12-.37.23-.73.35-1.09l.71-2.18.69-2.18.34-1.1c.11-.36.23-.73.33-1.1-.3.7-.57,1.41-.83,2.13s-.51,1.44-.75,2.16-.46,1.46-.66,2.2c-.1.38-.2.76-.29,1.15l0,0c-.12-.3-1.07-5.77,3.16-9.22.18-.15.63,3.65-.3,6.08C331.65,263.94,330.18,265,329.74,265Z" style="fill:#FFC727"></path><path d="M329.65,265.23h0l-1-.35-1.93-.68-1.93-.69-1-.36-1-.37c.66.15,1.32.34,2,.54s1.3.41,1.95.63,1.29.47,1.92.74l1,.43v0c-.14-.29-3.34-4.5-8.29-2.74-.22.08,2.13,2.8,4.38,3.43A4.27,4.27,0,0,0,329.65,265.23Z" style="fill:#FFC727"></path><path d="M327.05,256.23h0l.6-.94,1.22-1.85,1.21-1.87.6-.95.58-1c-.46.58-.89,1.17-1.32,1.77s-.84,1.22-1.25,1.84-.8,1.25-1.18,1.9l-.57,1s0,0,0,0c0-.32.41-5.89,5.31-7.83.22-.08-.3,3.72-1.79,5.74C329.15,255.82,327.48,256.35,327.05,256.23Z" style="fill:#FFC727"></path><path d="M326.92,256.41h0l-.84-.65-1.68-1.28-1.68-1.29-.83-.66-.83-.67c.6.37,1.18.76,1.76,1.16s1.14.82,1.7,1.25,1.12.86,1.66,1.33l.82.72a0,0,0,0,0,0,0c-.05-.32-2.07-5.4-7.25-5.32-.23,0,1.35,3.39,3.34,4.71A4.28,4.28,0,0,0,326.92,256.41Z" style="fill:#FFC727"></path><path d="M325.74,247.81h0c.25-.26.51-.51.77-.76l1.55-1.5,1.54-1.51.77-.76.76-.78c-.56.44-1.1.91-1.64,1.39s-1.06,1-1.58,1.46-1,1-1.52,1.55l-.75.84v0c0-.33,1.55-5.65,6.71-6.28.22,0-1,3.55-2.88,5.14A4.37,4.37,0,0,1,325.74,247.81Z" style="fill:#FFC727"></path><path d="M325.58,248v0c-.23-.28-.45-.56-.69-.84l-1.38-1.68-1.38-1.7-.68-.85c-.22-.29-.45-.57-.67-.87.51.51,1,1,1.48,1.58s.95,1.1,1.42,1.66.91,1.13,1.35,1.72c.22.31.44.61.65.93a0,0,0,0,0,0,0c0-.34-.95-5.81-6-7.07-.22-.05.65,3.65,2.33,5.46C323.46,247.82,325.16,248.12,325.58,248Z" style="fill:#FFC727"></path><path d="M326.09,239.62h0L327,239l1.77-1.13,1.77-1.14.88-.58c.29-.2.59-.39.87-.59-.62.31-1.23.65-1.83,1s-1.21.71-1.8,1.09-1.18.76-1.75,1.18c-.3.21-.59.43-.88.65v0c.08-.32,2.48-5.2,7.64-4.67.23,0-1.6,3.26-3.69,4.41A4.23,4.23,0,0,1,326.09,239.62Z" style="fill:#FFC727"></path><path d="M325.91,239.72v0l-.53-1-1.07-2-1.06-2-.53-1c-.16-.33-.34-.66-.51-1,.42.61.8,1.25,1.18,1.88s.75,1.29,1.11,1.94.71,1.32,1,2c.17.35.33.69.49,1,0,0,0,0,0,0,.07-.32.05-5.91-4.69-8.27-.21-.11,0,3.73,1.35,5.88C323.85,239.12,325.47,239.79,325.91,239.72Z" style="fill:#FFC727"></path><path d="M328,232.23h0l1-.19,1.92-.37,1.92-.39,1-.2.95-.22c-.65.05-1.29.14-1.94.23s-1.29.21-1.93.33-1.29.26-1.92.43c-.33.09-.66.17-1,.27a0,0,0,0,1,0,0,6.9,6.9,0,0,1,8.23-1.43c.2.11-2.37,2.37-4.58,2.64A4.23,4.23,0,0,1,328,232.23Z" style="fill:#FFC727"></path><path d="M327.78,232.25v0l-.21-1.09-.42-2.17-.4-2.18-.2-1.1-.18-1.1c.2.71.38,1.43.54,2.15s.32,1.44.46,2.17.27,1.46.37,2.19c.05.38.1.76.14,1.14l0,0A9.52,9.52,0,0,0,326,223c-.16-.17-1,3.39-.43,5.84A5.16,5.16,0,0,0,327.78,232.25Z" style="fill:#FFC727"></path><path d="M330.66,226.22h0l1-.06,1.94-.12,2-.13,1-.07,1-.1c-.65,0-1.3,0-1.95,0s-1.31,0-2,.07-1.3.09-1.95.18c-.33,0-.66.08-1,.14a0,0,0,0,1,0,0,6.79,6.79,0,0,1,8.31-.34c.19.13-2.59,2-4.81,2A4.36,4.36,0,0,1,330.66,226.22Z" style="fill:#FFC727"></path><path d="M330.46,226.21h0c0-.38,0-.75-.09-1.11l-.2-2.22-.18-2.22-.08-1.12c0-.37-.05-.74-.07-1.11.13.73.23,1.47.32,2.2s.17,1.48.23,2.22.12,1.48.15,2.23c0,.38,0,.76,0,1.15l0,0a9.62,9.62,0,0,0-1-9.45c-.14-.19-1.37,3.24-1,5.75A5.4,5.4,0,0,0,330.46,226.21Z" style="fill:#FFC727"></path><path d="M338.4,215.53h0l.79.14,1.58.3,1.58.28.79.13.8.12c-.52-.16-1-.29-1.56-.41s-1-.23-1.58-.33-1.06-.18-1.59-.25l-.83-.08,0,0a5.59,5.59,0,0,1,6.73,1.38,6.21,6.21,0,0,1-4.18.67A3.85,3.85,0,0,1,338.4,215.53Z" style="fill:#FFC727"></path><path d="M338.25,215.49v0c0-.3.07-.6.09-.91l.18-1.82.19-1.83.1-.91c0-.3.07-.6.12-.91,0,.62,0,1.23-.08,1.84s-.09,1.22-.15,1.83-.13,1.22-.22,1.82q-.06.46-.15.93h0a7.88,7.88,0,0,0,.65-7.79,8.54,8.54,0,0,0-1.69,4.42A4.67,4.67,0,0,0,338.25,215.49Z" style="fill:#FFC727"></path><path d="M342.74,211.85h0c.27,0,.53.08.79.14l1.59.29,1.58.28.79.13c.27,0,.53.09.8.12-.52-.15-1-.28-1.57-.41s-1.05-.23-1.58-.33-1-.18-1.59-.24c-.27,0-.54-.07-.82-.09l0,0a5.58,5.58,0,0,1,6.72,1.38,6.22,6.22,0,0,1-4.17.68A3.83,3.83,0,0,1,342.74,211.85Z" style="fill:#FFC727"></path><path d="M342.59,211.81h0l.09-.91.18-1.83.19-1.82.1-.91c0-.31.07-.61.11-.91,0,.61,0,1.22-.07,1.83s-.09,1.23-.15,1.83-.13,1.22-.22,1.83c-.05.31-.09.62-.15.93h0a7.91,7.91,0,0,0,.65-7.8,8.45,8.45,0,0,0-1.69,4.43A4.66,4.66,0,0,0,342.59,211.81Z" style="fill:#FFC727"></path><path d="M334.22,220.45h0l.8-.08,1.6-.14,1.6-.16.8-.09.8-.1c-.54,0-1.08,0-1.61,0s-1.07.06-1.61.11-1.06.11-1.59.2c-.28,0-.55.08-.82.14,0,0,0,0,0,0a5.59,5.59,0,0,1,6.83-.51,6.57,6.57,0,0,1-3.92,1.8A3.49,3.49,0,0,1,334.22,220.45Z" style="fill:#FFC727"></path><path d="M334.06,220.46v0c0-.3-.06-.6-.1-.91l-.21-1.81-.19-1.82-.1-.92c0-.3,0-.6-.08-.91.13.6.22,1.2.31,1.8s.17,1.21.24,1.82.13,1.21.17,1.83c0,.31,0,.62,0,.94v0a7.89,7.89,0,0,0-1-7.73,8.88,8.88,0,0,0-.72,4.75A4.36,4.36,0,0,0,334.06,220.46Z" style="fill:#FFC727"></path><path d="M367.17,283.67a30.71,30.71,0,0,0,19.47-10.1A35.4,35.4,0,0,0,393,263.4a46.45,46.45,0,0,0,2-5.83,51.7,51.7,0,0,0,1.23-6.09,46.34,46.34,0,0,0,.41-6.23,43,43,0,0,0-.46-6.22,41,41,0,0,0-3.57-11.73,44,44,0,0,0-6.51-9.89,42.35,42.35,0,0,0-4.08-4.07,23.57,23.57,0,0,0-4.59-3.24,17.81,17.81,0,0,1,2.31,1.58c.75.58,1.47,1.19,2.16,1.84a42.19,42.19,0,0,1,3.95,4.17,44.05,44.05,0,0,1,6.26,9.92,45.11,45.11,0,0,1,2.12,5.62,40.64,40.64,0,0,1,1.29,5.93,42.69,42.69,0,0,1,.43,6.09,49.37,49.37,0,0,1-3.52,17.83,36.78,36.78,0,0,1-2.68,5.32c-.5.84-1.06,1.65-1.63,2.44a28.47,28.47,0,0,1-1.8,2.27,32.37,32.37,0,0,1-13.8,9.28q-1.29.45-2.61.78A22,22,0,0,1,367.17,283.67Z" style="fill:#FFC727"></path><path d="M369.21,283.32v0l.3-1.21.57-2.43.58-2.42.3-1.2c.11-.4.21-.81.32-1.21-.12.83-.27,1.65-.43,2.47s-.35,1.63-.54,2.44-.39,1.61-.62,2.41c-.12.41-.24.81-.37,1.22h0A10.58,10.58,0,0,0,371.63,273c-.08-.27-2.57,2.77-3.07,5.58A6.6,6.6,0,0,0,369.21,283.32Z" style="fill:#FFC727"></path><path d="M369.17,283.56h0l1,.38,2.08.77,2.09.76,1,.37c.36.11.7.24,1.06.34-.67-.33-1.36-.63-2-.92s-1.38-.56-2.07-.82-1.39-.5-2.1-.71l-1.09-.31,0,0a7.77,7.77,0,0,1,8.82,3.46c.15.22-3.42,1-5.75-.08A5.48,5.48,0,0,1,369.17,283.56Z" style="fill:#FFC727"></path><path d="M375.87,281.1v0c.1-.4.2-.8.29-1.21l.57-2.42.59-2.42.3-1.21c.11-.4.21-.8.32-1.2-.12.83-.28,1.65-.44,2.46s-.34,1.63-.53,2.44-.39,1.62-.63,2.41c-.11.41-.23.82-.37,1.22h0a10.53,10.53,0,0,0,2.29-10.38c-.08-.26-2.57,2.78-3.08,5.58A6.57,6.57,0,0,0,375.87,281.1Z" style="fill:#FFC727"></path><path d="M375.82,281.34h0l1,.38,2.08.77,2.09.75,1,.37,1.05.35c-.67-.33-1.35-.63-2-.92s-1.38-.56-2.07-.82-1.4-.5-2.1-.71c-.37-.11-.73-.22-1.1-.31l0,0a7.77,7.77,0,0,1,8.83,3.46c.15.22-3.43,1-5.75-.09A5.52,5.52,0,0,1,375.82,281.34Z" style="fill:#FFC727"></path><path d="M382.39,277.13v0c0-.41,0-.83,0-1.25V269.6c0-.42,0-.84,0-1.26.07.83.11,1.67.15,2.5s.05,1.68.05,2.51,0,1.68,0,2.51c0,.43,0,.86-.07,1.29h0a10.82,10.82,0,0,0-.21-10.69c-.14-.23-1.83,3.45-1.67,6.31C380.8,275.25,382,276.92,382.39,277.13Z" style="fill:#FFC727"></path><path d="M382.41,277.38h0l1.1.05,2.18.11,2.19.09,1.1,0,1.1,0c-.73-.12-1.46-.2-2.18-.27s-1.46-.12-2.19-.16-1.47-.05-2.2,0l-1.12,0a0,0,0,0,1,0,0,7.58,7.58,0,0,1,9.32.63c.2.17-3.08,2-5.57,1.68A5,5,0,0,1,382.41,277.38Z" style="fill:#FFC727"></path><path d="M387.5,272v0c-.08-.41-.16-.81-.25-1.22l-.52-2.43-.51-2.43-.25-1.22c-.07-.41-.16-.82-.23-1.23.24.79.46,1.59.66,2.39s.39,1.61.57,2.42.33,1.63.47,2.45c.06.43.13.85.19,1.27l0,0c.16-.31,1.78-6.07-2.39-10.32-.18-.19-1.08,3.84-.34,6.57C385.56,270.56,387,271.88,387.5,272Z" style="fill:#FFC727"></path><path d="M387.56,272.21h0l1.08-.25,2.15-.48L393,271l1.07-.26,1.07-.28c-.73.08-1.45.2-2.18.32s-1.44.28-2.16.44-1.43.33-2.15.54l-1.09.34v0c.18-.3,4.08-4.41,9.21-1.88.23.11-2.6,2.74-5.08,3.12A4.73,4.73,0,0,1,387.56,272.21Z" style="fill:#FFC727"></path><path d="M391.39,266.3v0l-.3-1.1-.62-2.2-.61-2.21-.29-1.11c-.09-.37-.19-.74-.28-1.12.27.71.51,1.44.74,2.16s.45,1.46.66,2.2.4,1.47.57,2.22c.08.38.17.77.24,1.16l0,0c.14-.29,1.32-5.72-2.77-9.34-.18-.16-.78,3.62.05,6.08C389.53,265.14,391,266.25,391.39,266.3Z" style="fill:#FFC727"></path><path d="M391.47,266.51h0l1-.31,2-.6,2-.61,1-.32,1-.33c-.67.13-1.33.29-2,.46s-1.32.35-2,.55-1.3.42-1.95.66c-.33.12-.66.25-1,.39v0c.15-.29,3.52-4.36,8.4-2.4.21.09-2.25,2.72-4.52,3.25A4.27,4.27,0,0,1,391.47,266.51Z" style="fill:#FFC727"></path><path d="M394.44,257.63v0c-.18-.32-.37-.64-.56-1l-1.14-1.9-1.13-1.92-.56-1c-.18-.32-.37-.64-.54-1,.43.59.84,1.2,1.24,1.82s.8,1.25,1.18,1.89.75,1.28,1.1,1.94c.17.34.35.68.52,1a0,0,0,0,0,0,0c.06-.32-.16-5.9-5-8-.21-.1.15,3.72,1.56,5.81C392.36,257.13,394,257.72,394.44,257.63Z" style="fill:#FFC727"></path><path d="M394.57,257.81h0l.86-.61,1.74-1.21,1.72-1.22.86-.62.86-.64c-.62.34-1.21.71-1.8,1.08s-1.18.77-1.76,1.18-1.15.82-1.71,1.26c-.29.23-.57.45-.85.69a0,0,0,0,1,0,0c.06-.32,2.29-5.31,7.47-5,.22,0-1.49,3.33-3.54,4.57A4.24,4.24,0,0,1,394.57,257.81Z" style="fill:#FFC727"></path><path d="M396.09,249.27v0l-.74-.78-1.48-1.57-1.48-1.57-.74-.8-.72-.81c.54.47,1.06,1,1.57,1.46s1,1,1.52,1.53,1,1.06,1.46,1.61c.24.29.48.57.71.87v0c0-.34-1.32-5.71-6.45-6.55-.22,0,.88,3.59,2.67,5.25A4.39,4.39,0,0,0,396.09,249.27Z" style="fill:#FFC727"></path><path d="M396.25,249.41h0l.72-.82,1.46-1.62,1.44-1.64.72-.82.7-.84c-.53.49-1,1-1.54,1.52s-1,1-1.48,1.59-1,1.1-1.42,1.67c-.24.29-.47.59-.7.89v0c0-.33,1.19-5.76,6.3-6.8.22-.05-.8,3.62-2.55,5.35C398.38,249.37,396.66,249.6,396.25,249.41Z" style="fill:#FFC727"></path><path d="M396.09,241.07h0l-.86-.61-1.73-1.2L391.77,238l-.86-.62-.84-.63c.61.34,1.2.7,1.79,1.08s1.17.76,1.75,1.16,1.15.82,1.7,1.25l.85.69v0c-.06-.32-2.26-5.3-7.44-5-.22,0,1.47,3.32,3.51,4.55A4.24,4.24,0,0,0,396.09,241.07Z" style="fill:#FFC727"></path><path d="M396.27,241.18v0c.19-.32.37-.64.57-1l1.15-1.91,1.14-1.93.56-1,.55-1c-.43.59-.85,1.21-1.25,1.83s-.8,1.25-1.19,1.89-.76,1.29-1.11,2c-.18.34-.36.68-.53,1a0,0,0,0,1,0,0c-.06-.32.19-5.91,5-8.07.21-.09-.17,3.73-1.6,5.82C398.35,240.67,396.7,241.27,396.27,241.18Z" style="fill:#FFC727"></path><path d="M394.52,233.6h0l-.95-.23-1.91-.45-1.9-.47-1-.24-.95-.26c.65.08,1.3.19,1.94.31s1.28.26,1.92.41,1.27.31,1.9.51l1,.31a0,0,0,0,0,0,0,6.89,6.89,0,0,0-8.16-1.77c-.2.1,2.27,2.46,4.47,2.83A4.22,4.22,0,0,0,394.52,233.6Z" style="fill:#FFC727"></path><path d="M394.71,233.63h0c.08-.36.16-.72.25-1.08l.51-2.16.49-2.16.24-1.09c.08-.36.16-.72.23-1.09-.23.7-.43,1.41-.63,2.13s-.37,1.43-.55,2.15-.32,1.44-.46,2.17c-.06.38-.13.75-.19,1.13l0,0a9.55,9.55,0,0,1,2.31-9.16c.16-.17.89,3.43.18,5.85A5.11,5.11,0,0,1,394.71,233.63Z" style="fill:#FFC727"></path><path d="M392.08,227.49h0l-1-.11-1.94-.2-1.94-.21-1-.11-1-.14c.66,0,1.31,0,2,.06s1.3.09,1.95.15,1.29.15,1.94.26l1,.18,0,0a6.79,6.79,0,0,0-8.29-.68c-.19.12,2.5,2.15,4.73,2.22A4.31,4.31,0,0,0,392.08,227.49Z" style="fill:#FFC727"></path><path d="M392.27,227.49v0c0-.36.08-.73.13-1.1l.29-2.21L393,222l.13-1.11c0-.37.08-.74.11-1.11-.16.73-.29,1.46-.41,2.19s-.23,1.47-.33,2.21-.18,1.47-.23,2.22c0,.38-.06.76-.08,1.14l0,0a9.65,9.65,0,0,1,1.36-9.4c.15-.18,1.24,3.3.78,5.79A5.32,5.32,0,0,1,392.27,227.49Z" style="fill:#FFC727"></path><path d="M384.78,216.49h0l-.8.11-1.59.23-1.59.21-.8.1-.8.09c.52-.14,1.05-.25,1.58-.35s1.06-.18,1.59-.26,1.07-.14,1.6-.18l.83-.05,0,0a5.58,5.58,0,0,0-6.78,1.1,6.23,6.23,0,0,0,4.15.84A3.81,3.81,0,0,0,384.78,216.49Z" style="fill:#FFC727"></path><path d="M384.94,216.46v0l-.06-.91-.1-1.83-.11-1.83-.07-.92c0-.3,0-.61-.07-.91q0,.92,0,1.83c0,.62,0,1.23.07,1.84s.08,1.22.14,1.83c0,.31.07.62.11.94h0a7.89,7.89,0,0,1-.33-7.82,8.51,8.51,0,0,1,1.5,4.49A4.71,4.71,0,0,1,384.94,216.46Z" style="fill:#FFC727"></path><path d="M380.6,212.64h0l-.8.11-1.59.22-1.59.22-.8.1-.8.08c.52-.13,1.05-.24,1.58-.34s1.06-.18,1.59-.26,1.06-.14,1.6-.18l.82-.05s0,0,0,0a5.56,5.56,0,0,0-6.78,1.1,6.27,6.27,0,0,0,4.15.84A3.81,3.81,0,0,0,380.6,212.64Z" style="fill:#FFC727"></path><path d="M380.76,212.6h0l-.06-.92-.1-1.83-.12-1.83-.06-.91c0-.31-.05-.61-.08-.92,0,.62,0,1.23,0,1.84s0,1.23.07,1.84.08,1.22.14,1.83c0,.31.07.62.11.93h0a7.9,7.9,0,0,1-.32-7.81,8.47,8.47,0,0,1,1.5,4.49A4.67,4.67,0,0,1,380.76,212.6Z" style="fill:#FFC727"></path><path d="M388.76,221.58h0l-.8-.11-1.59-.21-1.59-.23-.79-.12-.8-.14c.54,0,1.07,0,1.61.1s1.06.11,1.59.18,1.07.15,1.59.26c.27.06.54.11.81.18,0,0,0,0,0,0a5.59,5.59,0,0,0-6.8-.79,6.56,6.56,0,0,0,3.84,1.95A3.5,3.5,0,0,0,388.76,221.58Z" style="fill:#FFC727"></path><path d="M388.92,221.59h0c.05-.3.09-.6.14-.91l.28-1.8.27-1.81.13-.91.12-.91c-.15.59-.27,1.19-.38,1.79s-.22,1.2-.32,1.8-.18,1.21-.24,1.82l-.09.94a0,0,0,0,1,0,0,7.89,7.89,0,0,1,1.31-7.69,8.86,8.86,0,0,1,.52,4.78A4.34,4.34,0,0,1,388.92,221.59Z" style="fill:#FFC727"></path><path d="M354.08,227.71a2.52,2.52,0,1,1-2.43-2.91A2.69,2.69,0,0,1,354.08,227.71Z" style="fill:#FFC727"></path><rect x="352.61" y="226.36" width="8.19" height="2.8" transform="translate(4.79 -7.33) rotate(1.19)" style="fill:#FFC727"></rect><path d="M362.55,208.49c-3.43-.07-6.28,3.06-6.36,7s2.64,7.17,6.07,7.24,6.28-3.06,6.36-7S366,208.57,362.55,208.49ZM362.31,220a4.4,4.4,0,1,1,3.91-4.28A4.11,4.11,0,0,1,362.31,220Z" style="fill:#FFC727"></path><path d="M348.63,255.34l-4.41-.54-3.73,2.68a17.26,17.26,0,0,1,1.93-11.72A15,15,0,0,1,348.63,255.34Z" style="fill:#FFC727"></path><path d="M380.57,255.4s-1.12,6.22-5.11,9.61-8.18,4.73-10.94,6.64a8.55,8.55,0,0,0-3.35,3.76,8.54,8.54,0,0,0-3.2-3.89c-2.67-2-6.82-3.54-10.66-7.09s-4.7-9.82-4.7-9.82l2.79-.54c.85,2.27,3.21,6.67,7.82,6.76s5.61-2.78,5.66-5.18,1.36-33.53,1.36-33.53l4.05.09s0,31.15,0,33.55.82,5.32,5.43,5.41,7.16-4.19,8.1-6.43Z" style="fill:#FFC727"></path><path d="M370.22,228a2.52,2.52,0,1,0,2.55-2.8A2.69,2.69,0,0,0,370.22,228Z" style="fill:#FFC727"></path><rect x="363.51" y="226.59" width="8.19" height="2.8" transform="matrix(-1, -0.02, 0.02, -1, 730.4, 463.53)" style="fill:#FFC727"></rect><path d="M374.52,255.87l4.43-.35,3.62,2.83a17.27,17.27,0,0,0-1.45-11.79A15,15,0,0,0,374.52,255.87Z" style="fill:#FFC727"></path><path d="M146.57,369.16l-4.49-19.49c1.38-.32,139.63-31.75,276.15-28.25l-.51,20C283.79,338,147.93,368.84,146.57,369.16Z" style="fill:#FFC727"></path><path d="M271,348.87c-11.87,1.37-23.22,2.84-33.88,4.34l-2.81-19.78c11-1.55,22.77-3.07,35.07-4.47Z" style="opacity:0.1"></path><path d="M151.92,368c-3.35.71-5.2,1.13-5.35,1.17l-4.49-19.49c.17,0,2.48-.56,6.64-1.45C154.05,351.22,157.9,360.45,151.92,368Z" style="opacity:0.1"></path><path d="M417.72,341.41l-11.65-.21-2.37-20s13.05.17,14.53.25Z" style="opacity:0.1"></path><g style="opacity:0.1"><path d="M144.44,359.89c50.27-11.91,101.61-19.5,153.05-24.2,34.12-3,69-4.78,103.26-4.45l17.22.17-17.22.07c-34.28.18-69.08,1.92-103.18,5.13-51.42,4.74-102.71,12.09-153.13,23.28Z"></path><path d="M144.44,355.39c50.27-11.92,101.61-19.51,153.05-24.2,34.12-3,69-4.78,103.26-4.45l17.22.17-17.22.07c-34.28.18-69.08,1.92-103.18,5.13-51.42,4.74-102.71,12.09-153.13,23.28Z"></path><path d="M144.44,364.21c50.27-11.91,101.61-19.5,153.05-24.2,34.12-3,69-4.78,103.26-4.45l17.22.17-17.22.07c-34.28.18-69.08,1.92-103.18,5.13-51.42,4.74-102.71,12.09-153.13,23.28Z"></path></g><path d="M240.32,356.23l-3.06-24.82c.77-.09,18.93-2.33,29.51-3.43l2.6,24.87C259,353.92,240.5,356.2,240.32,356.23Z" style="fill:#FFC727"></path><path d="M424.47,344.85H407.63l-2.24-27.42c.51,0,8.58-.09,15.63.06C421,317.49,424.29,328.46,424.47,344.85Z" style="fill:#FFC727"></path><ellipse cx="143.67" cy="359.89" rx="9.41" ry="12.97" transform="translate(-25.69 11.35) rotate(-4.15)" style="fill:#FFC727"></ellipse></g></svg>
